<?xml version="1.0" encoding="utf-8" standalone="no"?>
<!DOCTYPE svg PUBLIC "-//W3C//DTD SVG 1.1//EN"
  "http://www.w3.org/Graphics/SVG/1.1/DTD/svg11.dtd">
<svg height="340.273125pt" version="1.1" viewBox="0 0 705.6 340.273125" width="705.6pt" xmlns="http://www.w3.org/2000/svg" xmlns:xlink="http://www.w3.org/1999/xlink">
 <metadata>
  <rdf:RDF xmlns:cc="http://creativecommons.org/ns#" xmlns:dc="http://purl.org/dc/elements/1.1/" xmlns:rdf="http://www.w3.org/1999/02/22-rdf-syntax-ns#">
   <cc:Work>
    <dc:type rdf:resource="http://purl.org/dc/dcmitype/StillImage"/>
    <dc:date>2021-08-10T18:19:33.105029</dc:date>
    <dc:format>image/svg+xml</dc:format>
    <dc:creator>
     <cc:Agent>
      <dc:title>Matplotlib v3.4.2, https://matplotlib.org/</dc:title>
     </cc:Agent>
    </dc:creator>
   </cc:Work>
  </rdf:RDF>
 </metadata>
 <defs>
  <style type="text/css">*{stroke-linecap:butt;stroke-linejoin:round;}</style>
 </defs>
 <g id="figure_1">
  <g id="patch_1">
   <path d="M 0 340.273125 
L 705.6 340.273125 
L 705.6 0 
L 0 0 
z
" style="fill:#ffffff;"/>
  </g>
  <g id="axes_1">
   <g id="patch_2">
    <path d="M 82.8 298.989375 
L 640.8 298.989375 
L 640.8 21.789375 
L 82.8 21.789375 
z
" style="fill:#ffffff;"/>
   </g>
   <g id="matplotlib.axis_1">
    <g id="xtick_1">
     <g id="line2d_1">
      <path clip-path="url(#p3594d8603c)" d="M 90.224719 298.989375 
L 90.224719 21.789375 
" style="fill:none;stroke:#cccccc;stroke-linecap:round;stroke-width:0.8;"/>
     </g>
     <g id="text_1">
      <!-- 2020-03 -->
      <g style="fill:#262626;" transform="translate(71.877062 313.147188)scale(0.1 -0.1)">
       <defs>
        <path d="M 3222 541 
L 3222 0 
L 194 0 
Q 188 203 259 391 
Q 375 700 629 1000 
Q 884 1300 1366 1694 
Q 2113 2306 2375 2664 
Q 2638 3022 2638 3341 
Q 2638 3675 2398 3904 
Q 2159 4134 1775 4134 
Q 1369 4134 1125 3890 
Q 881 3647 878 3216 
L 300 3275 
Q 359 3922 746 4261 
Q 1134 4600 1788 4600 
Q 2447 4600 2831 4234 
Q 3216 3869 3216 3328 
Q 3216 3053 3103 2787 
Q 2991 2522 2730 2228 
Q 2469 1934 1863 1422 
Q 1356 997 1212 845 
Q 1069 694 975 541 
L 3222 541 
z
" id="ArialMT-32" transform="scale(0.015625)"/>
        <path d="M 266 2259 
Q 266 3072 433 3567 
Q 600 4063 929 4331 
Q 1259 4600 1759 4600 
Q 2128 4600 2406 4451 
Q 2684 4303 2865 4023 
Q 3047 3744 3150 3342 
Q 3253 2941 3253 2259 
Q 3253 1453 3087 958 
Q 2922 463 2592 192 
Q 2263 -78 1759 -78 
Q 1097 -78 719 397 
Q 266 969 266 2259 
z
M 844 2259 
Q 844 1131 1108 757 
Q 1372 384 1759 384 
Q 2147 384 2411 759 
Q 2675 1134 2675 2259 
Q 2675 3391 2411 3762 
Q 2147 4134 1753 4134 
Q 1366 4134 1134 3806 
Q 844 3388 844 2259 
z
" id="ArialMT-30" transform="scale(0.015625)"/>
        <path d="M 203 1375 
L 203 1941 
L 1931 1941 
L 1931 1375 
L 203 1375 
z
" id="ArialMT-2d" transform="scale(0.015625)"/>
        <path d="M 269 1209 
L 831 1284 
Q 928 806 1161 595 
Q 1394 384 1728 384 
Q 2125 384 2398 659 
Q 2672 934 2672 1341 
Q 2672 1728 2419 1979 
Q 2166 2231 1775 2231 
Q 1616 2231 1378 2169 
L 1441 2663 
Q 1497 2656 1531 2656 
Q 1891 2656 2178 2843 
Q 2466 3031 2466 3422 
Q 2466 3731 2256 3934 
Q 2047 4138 1716 4138 
Q 1388 4138 1169 3931 
Q 950 3725 888 3313 
L 325 3413 
Q 428 3978 793 4289 
Q 1159 4600 1703 4600 
Q 2078 4600 2393 4439 
Q 2709 4278 2876 4000 
Q 3044 3722 3044 3409 
Q 3044 3113 2884 2869 
Q 2725 2625 2413 2481 
Q 2819 2388 3044 2092 
Q 3269 1797 3269 1353 
Q 3269 753 2831 336 
Q 2394 -81 1725 -81 
Q 1122 -81 723 278 
Q 325 638 269 1209 
z
" id="ArialMT-33" transform="scale(0.015625)"/>
       </defs>
       <use xlink:href="#ArialMT-32"/>
       <use x="55.615234" xlink:href="#ArialMT-30"/>
       <use x="111.230469" xlink:href="#ArialMT-32"/>
       <use x="166.845703" xlink:href="#ArialMT-30"/>
       <use x="222.460938" xlink:href="#ArialMT-2d"/>
       <use x="255.761719" xlink:href="#ArialMT-30"/>
       <use x="311.376953" xlink:href="#ArialMT-33"/>
      </g>
     </g>
    </g>
    <g id="xtick_2">
     <g id="line2d_2">
      <path clip-path="url(#p3594d8603c)" d="M 151.017717 298.989375 
L 151.017717 21.789375 
" style="fill:none;stroke:#cccccc;stroke-linecap:round;stroke-width:0.8;"/>
     </g>
     <g id="text_2">
      <!-- 2020-05 -->
      <g style="fill:#262626;" transform="translate(132.670061 313.147188)scale(0.1 -0.1)">
       <defs>
        <path d="M 266 1200 
L 856 1250 
Q 922 819 1161 601 
Q 1400 384 1738 384 
Q 2144 384 2425 690 
Q 2706 997 2706 1503 
Q 2706 1984 2436 2262 
Q 2166 2541 1728 2541 
Q 1456 2541 1237 2417 
Q 1019 2294 894 2097 
L 366 2166 
L 809 4519 
L 3088 4519 
L 3088 3981 
L 1259 3981 
L 1013 2750 
Q 1425 3038 1878 3038 
Q 2478 3038 2890 2622 
Q 3303 2206 3303 1553 
Q 3303 931 2941 478 
Q 2500 -78 1738 -78 
Q 1113 -78 717 272 
Q 322 622 266 1200 
z
" id="ArialMT-35" transform="scale(0.015625)"/>
       </defs>
       <use xlink:href="#ArialMT-32"/>
       <use x="55.615234" xlink:href="#ArialMT-30"/>
       <use x="111.230469" xlink:href="#ArialMT-32"/>
       <use x="166.845703" xlink:href="#ArialMT-30"/>
       <use x="222.460938" xlink:href="#ArialMT-2d"/>
       <use x="255.761719" xlink:href="#ArialMT-30"/>
       <use x="311.376953" xlink:href="#ArialMT-35"/>
      </g>
     </g>
    </g>
    <g id="xtick_3">
     <g id="line2d_3">
      <path clip-path="url(#p3594d8603c)" d="M 211.810716 298.989375 
L 211.810716 21.789375 
" style="fill:none;stroke:#cccccc;stroke-linecap:round;stroke-width:0.8;"/>
     </g>
     <g id="text_3">
      <!-- 2020-07 -->
      <g style="fill:#262626;" transform="translate(193.46306 313.147188)scale(0.1 -0.1)">
       <defs>
        <path d="M 303 3981 
L 303 4522 
L 3269 4522 
L 3269 4084 
Q 2831 3619 2401 2847 
Q 1972 2075 1738 1259 
Q 1569 684 1522 0 
L 944 0 
Q 953 541 1156 1306 
Q 1359 2072 1739 2783 
Q 2119 3494 2547 3981 
L 303 3981 
z
" id="ArialMT-37" transform="scale(0.015625)"/>
       </defs>
       <use xlink:href="#ArialMT-32"/>
       <use x="55.615234" xlink:href="#ArialMT-30"/>
       <use x="111.230469" xlink:href="#ArialMT-32"/>
       <use x="166.845703" xlink:href="#ArialMT-30"/>
       <use x="222.460938" xlink:href="#ArialMT-2d"/>
       <use x="255.761719" xlink:href="#ArialMT-30"/>
       <use x="311.376953" xlink:href="#ArialMT-37"/>
      </g>
     </g>
    </g>
    <g id="xtick_4">
     <g id="line2d_4">
      <path clip-path="url(#p3594d8603c)" d="M 273.600321 298.989375 
L 273.600321 21.789375 
" style="fill:none;stroke:#cccccc;stroke-linecap:round;stroke-width:0.8;"/>
     </g>
     <g id="text_4">
      <!-- 2020-09 -->
      <g style="fill:#262626;" transform="translate(255.252665 313.147188)scale(0.1 -0.1)">
       <defs>
        <path d="M 350 1059 
L 891 1109 
Q 959 728 1153 556 
Q 1347 384 1650 384 
Q 1909 384 2104 503 
Q 2300 622 2425 820 
Q 2550 1019 2634 1356 
Q 2719 1694 2719 2044 
Q 2719 2081 2716 2156 
Q 2547 1888 2255 1720 
Q 1963 1553 1622 1553 
Q 1053 1553 659 1965 
Q 266 2378 266 3053 
Q 266 3750 677 4175 
Q 1088 4600 1706 4600 
Q 2153 4600 2523 4359 
Q 2894 4119 3086 3673 
Q 3278 3228 3278 2384 
Q 3278 1506 3087 986 
Q 2897 466 2520 194 
Q 2144 -78 1638 -78 
Q 1100 -78 759 220 
Q 419 519 350 1059 
z
M 2653 3081 
Q 2653 3566 2395 3850 
Q 2138 4134 1775 4134 
Q 1400 4134 1122 3828 
Q 844 3522 844 3034 
Q 844 2597 1108 2323 
Q 1372 2050 1759 2050 
Q 2150 2050 2401 2323 
Q 2653 2597 2653 3081 
z
" id="ArialMT-39" transform="scale(0.015625)"/>
       </defs>
       <use xlink:href="#ArialMT-32"/>
       <use x="55.615234" xlink:href="#ArialMT-30"/>
       <use x="111.230469" xlink:href="#ArialMT-32"/>
       <use x="166.845703" xlink:href="#ArialMT-30"/>
       <use x="222.460938" xlink:href="#ArialMT-2d"/>
       <use x="255.761719" xlink:href="#ArialMT-30"/>
       <use x="311.376953" xlink:href="#ArialMT-39"/>
      </g>
     </g>
    </g>
    <g id="xtick_5">
     <g id="line2d_5">
      <path clip-path="url(#p3594d8603c)" d="M 334.39332 298.989375 
L 334.39332 21.789375 
" style="fill:none;stroke:#cccccc;stroke-linecap:round;stroke-width:0.8;"/>
     </g>
     <g id="text_5">
      <!-- 2020-11 -->
      <g style="fill:#262626;" transform="translate(316.414414 313.147188)scale(0.1 -0.1)">
       <defs>
        <path d="M 2384 0 
L 1822 0 
L 1822 3584 
Q 1619 3391 1289 3197 
Q 959 3003 697 2906 
L 697 3450 
Q 1169 3672 1522 3987 
Q 1875 4303 2022 4600 
L 2384 4600 
L 2384 0 
z
" id="ArialMT-31" transform="scale(0.015625)"/>
       </defs>
       <use xlink:href="#ArialMT-32"/>
       <use x="55.615234" xlink:href="#ArialMT-30"/>
       <use x="111.230469" xlink:href="#ArialMT-32"/>
       <use x="166.845703" xlink:href="#ArialMT-30"/>
       <use x="222.460938" xlink:href="#ArialMT-2d"/>
       <use x="255.761719" xlink:href="#ArialMT-31"/>
       <use x="304.001953" xlink:href="#ArialMT-31"/>
      </g>
     </g>
    </g>
    <g id="xtick_6">
     <g id="line2d_6">
      <path clip-path="url(#p3594d8603c)" d="M 395.186319 298.989375 
L 395.186319 21.789375 
" style="fill:none;stroke:#cccccc;stroke-linecap:round;stroke-width:0.8;"/>
     </g>
     <g id="text_6">
      <!-- 2021-01 -->
      <g style="fill:#262626;" transform="translate(376.838663 313.147188)scale(0.1 -0.1)">
       <use xlink:href="#ArialMT-32"/>
       <use x="55.615234" xlink:href="#ArialMT-30"/>
       <use x="111.230469" xlink:href="#ArialMT-32"/>
       <use x="166.845703" xlink:href="#ArialMT-31"/>
       <use x="222.460938" xlink:href="#ArialMT-2d"/>
       <use x="255.761719" xlink:href="#ArialMT-30"/>
       <use x="311.376953" xlink:href="#ArialMT-31"/>
      </g>
     </g>
    </g>
    <g id="xtick_7">
     <g id="line2d_7">
      <path clip-path="url(#p3594d8603c)" d="M 453.986105 298.989375 
L 453.986105 21.789375 
" style="fill:none;stroke:#cccccc;stroke-linecap:round;stroke-width:0.8;"/>
     </g>
     <g id="text_7">
      <!-- 2021-03 -->
      <g style="fill:#262626;" transform="translate(435.638448 313.147188)scale(0.1 -0.1)">
       <use xlink:href="#ArialMT-32"/>
       <use x="55.615234" xlink:href="#ArialMT-30"/>
       <use x="111.230469" xlink:href="#ArialMT-32"/>
       <use x="166.845703" xlink:href="#ArialMT-31"/>
       <use x="222.460938" xlink:href="#ArialMT-2d"/>
       <use x="255.761719" xlink:href="#ArialMT-30"/>
       <use x="311.376953" xlink:href="#ArialMT-33"/>
      </g>
     </g>
    </g>
    <g id="xtick_8">
     <g id="line2d_8">
      <path clip-path="url(#p3594d8603c)" d="M 514.779103 298.989375 
L 514.779103 21.789375 
" style="fill:none;stroke:#cccccc;stroke-linecap:round;stroke-width:0.8;"/>
     </g>
     <g id="text_8">
      <!-- 2021-05 -->
      <g style="fill:#262626;" transform="translate(496.431447 313.147188)scale(0.1 -0.1)">
       <use xlink:href="#ArialMT-32"/>
       <use x="55.615234" xlink:href="#ArialMT-30"/>
       <use x="111.230469" xlink:href="#ArialMT-32"/>
       <use x="166.845703" xlink:href="#ArialMT-31"/>
       <use x="222.460938" xlink:href="#ArialMT-2d"/>
       <use x="255.761719" xlink:href="#ArialMT-30"/>
       <use x="311.376953" xlink:href="#ArialMT-35"/>
      </g>
     </g>
    </g>
    <g id="xtick_9">
     <g id="line2d_9">
      <path clip-path="url(#p3594d8603c)" d="M 575.572102 298.989375 
L 575.572102 21.789375 
" style="fill:none;stroke:#cccccc;stroke-linecap:round;stroke-width:0.8;"/>
     </g>
     <g id="text_9">
      <!-- 2021-07 -->
      <g style="fill:#262626;" transform="translate(557.224446 313.147188)scale(0.1 -0.1)">
       <use xlink:href="#ArialMT-32"/>
       <use x="55.615234" xlink:href="#ArialMT-30"/>
       <use x="111.230469" xlink:href="#ArialMT-32"/>
       <use x="166.845703" xlink:href="#ArialMT-31"/>
       <use x="222.460938" xlink:href="#ArialMT-2d"/>
       <use x="255.761719" xlink:href="#ArialMT-30"/>
       <use x="311.376953" xlink:href="#ArialMT-37"/>
      </g>
     </g>
    </g>
    <g id="xtick_10">
     <g id="line2d_10">
      <path clip-path="url(#p3594d8603c)" d="M 637.361707 298.989375 
L 637.361707 21.789375 
" style="fill:none;stroke:#cccccc;stroke-linecap:round;stroke-width:0.8;"/>
     </g>
     <g id="text_10">
      <!-- 2021-09 -->
      <g style="fill:#262626;" transform="translate(619.014051 313.147188)scale(0.1 -0.1)">
       <use xlink:href="#ArialMT-32"/>
       <use x="55.615234" xlink:href="#ArialMT-30"/>
       <use x="111.230469" xlink:href="#ArialMT-32"/>
       <use x="166.845703" xlink:href="#ArialMT-31"/>
       <use x="222.460938" xlink:href="#ArialMT-2d"/>
       <use x="255.761719" xlink:href="#ArialMT-30"/>
       <use x="311.376953" xlink:href="#ArialMT-39"/>
      </g>
     </g>
    </g>
   </g>
   <g id="matplotlib.axis_2">
    <g id="ytick_1">
     <g id="line2d_11">
      <path clip-path="url(#p3594d8603c)" d="M 82.8 286.389375 
L 640.8 286.389375 
" style="fill:none;stroke:#cccccc;stroke-linecap:round;stroke-width:0.8;"/>
     </g>
     <g id="text_11">
      <!-- 0 -->
      <g style="fill:#262626;" transform="translate(70.239063 289.968281)scale(0.1 -0.1)">
       <use xlink:href="#ArialMT-30"/>
      </g>
     </g>
    </g>
    <g id="ytick_2">
     <g id="line2d_12">
      <path clip-path="url(#p3594d8603c)" d="M 82.8 235.841776 
L 640.8 235.841776 
" style="fill:none;stroke:#cccccc;stroke-linecap:round;stroke-width:0.8;"/>
     </g>
     <g id="text_12">
      <!-- 10000 -->
      <g style="fill:#262626;" transform="translate(47.995312 239.420682)scale(0.1 -0.1)">
       <use xlink:href="#ArialMT-31"/>
       <use x="55.615234" xlink:href="#ArialMT-30"/>
       <use x="111.230469" xlink:href="#ArialMT-30"/>
       <use x="166.845703" xlink:href="#ArialMT-30"/>
       <use x="222.460938" xlink:href="#ArialMT-30"/>
      </g>
     </g>
    </g>
    <g id="ytick_3">
     <g id="line2d_13">
      <path clip-path="url(#p3594d8603c)" d="M 82.8 185.294177 
L 640.8 185.294177 
" style="fill:none;stroke:#cccccc;stroke-linecap:round;stroke-width:0.8;"/>
     </g>
     <g id="text_13">
      <!-- 20000 -->
      <g style="fill:#262626;" transform="translate(47.995312 188.873083)scale(0.1 -0.1)">
       <use xlink:href="#ArialMT-32"/>
       <use x="55.615234" xlink:href="#ArialMT-30"/>
       <use x="111.230469" xlink:href="#ArialMT-30"/>
       <use x="166.845703" xlink:href="#ArialMT-30"/>
       <use x="222.460938" xlink:href="#ArialMT-30"/>
      </g>
     </g>
    </g>
    <g id="ytick_4">
     <g id="line2d_14">
      <path clip-path="url(#p3594d8603c)" d="M 82.8 134.746578 
L 640.8 134.746578 
" style="fill:none;stroke:#cccccc;stroke-linecap:round;stroke-width:0.8;"/>
     </g>
     <g id="text_14">
      <!-- 30000 -->
      <g style="fill:#262626;" transform="translate(47.995312 138.325484)scale(0.1 -0.1)">
       <use xlink:href="#ArialMT-33"/>
       <use x="55.615234" xlink:href="#ArialMT-30"/>
       <use x="111.230469" xlink:href="#ArialMT-30"/>
       <use x="166.845703" xlink:href="#ArialMT-30"/>
       <use x="222.460938" xlink:href="#ArialMT-30"/>
      </g>
     </g>
    </g>
    <g id="ytick_5">
     <g id="line2d_15">
      <path clip-path="url(#p3594d8603c)" d="M 82.8 84.198979 
L 640.8 84.198979 
" style="fill:none;stroke:#cccccc;stroke-linecap:round;stroke-width:0.8;"/>
     </g>
     <g id="text_15">
      <!-- 40000 -->
      <g style="fill:#262626;" transform="translate(47.995312 87.777885)scale(0.1 -0.1)">
       <defs>
        <path d="M 2069 0 
L 2069 1097 
L 81 1097 
L 81 1613 
L 2172 4581 
L 2631 4581 
L 2631 1613 
L 3250 1613 
L 3250 1097 
L 2631 1097 
L 2631 0 
L 2069 0 
z
M 2069 1613 
L 2069 3678 
L 634 1613 
L 2069 1613 
z
" id="ArialMT-34" transform="scale(0.015625)"/>
       </defs>
       <use xlink:href="#ArialMT-34"/>
       <use x="55.615234" xlink:href="#ArialMT-30"/>
       <use x="111.230469" xlink:href="#ArialMT-30"/>
       <use x="166.845703" xlink:href="#ArialMT-30"/>
       <use x="222.460938" xlink:href="#ArialMT-30"/>
      </g>
     </g>
    </g>
    <g id="ytick_6">
     <g id="line2d_16">
      <path clip-path="url(#p3594d8603c)" d="M 82.8 33.65138 
L 640.8 33.65138 
" style="fill:none;stroke:#cccccc;stroke-linecap:round;stroke-width:0.8;"/>
     </g>
     <g id="text_16">
      <!-- 50000 -->
      <g style="fill:#262626;" transform="translate(47.995312 37.230286)scale(0.1 -0.1)">
       <use xlink:href="#ArialMT-35"/>
       <use x="55.615234" xlink:href="#ArialMT-30"/>
       <use x="111.230469" xlink:href="#ArialMT-30"/>
       <use x="166.845703" xlink:href="#ArialMT-30"/>
       <use x="222.460938" xlink:href="#ArialMT-30"/>
      </g>
     </g>
    </g>
   </g>
   <g id="line2d_17">
    <path clip-path="url(#p3594d8603c)" d="M 108.163636 286.389375 
L 118.129702 286.28828 
L 122.116128 285.974885 
L 134.075406 285.02459 
L 138.061832 284.70614 
L 141.051652 284.554497 
L 143.044865 284.200664 
L 144.041472 283.887269 
L 146.034685 283.861995 
L 152.014324 283.022905 
L 153.010931 282.957193 
L 154.007537 282.770167 
L 156.00075 281.75416 
L 156.997357 281.430656 
L 157.993963 280.728044 
L 159.987176 280.237732 
L 161.980389 279.818187 
L 163.973602 279.095356 
L 164.970209 278.731414 
L 166.963422 278.256266 
L 167.960029 277.427286 
L 168.956635 276.770167 
L 169.953242 276.451717 
L 170.949848 275.890639 
L 171.946455 274.965618 
L 172.943061 274.429813 
L 173.939668 272.741523 
L 174.936274 271.771009 
L 176.929487 270.365786 
L 177.926094 269.910858 
L 178.9227 268.995946 
L 179.919307 268.60673 
L 180.915914 267.990049 
L 182.909127 265.958035 
L 184.90234 263.910858 
L 185.898946 263.046494 
L 186.895553 262.682551 
L 187.892159 262.667387 
L 188.888766 262.161911 
L 189.885372 261.009426 
L 190.881979 260.165281 
L 191.878585 258.411279 
L 192.875192 257.354834 
L 194.868405 254.271431 
L 195.865012 253.568819 
L 196.861618 252.648853 
L 198.854831 250.495525 
L 200.848044 248.509004 
L 201.844651 247.422231 
L 202.841257 246.901591 
L 203.837864 246.198979 
L 205.831077 244.525854 
L 206.827684 243.292492 
L 207.82429 242.731414 
L 208.820897 242.514059 
L 209.817503 241.361574 
L 210.81411 240.891481 
L 212.807323 239.506477 
L 213.803929 238.439923 
L 214.800536 237.019535 
L 215.797142 235.209931 
L 216.793749 231.13074 
L 219.783568 230.008583 
L 220.780175 228.567977 
L 221.776782 228.163596 
L 222.773388 228.163596 
L 223.769995 227.400327 
L 224.766601 226.424758 
L 225.763208 225.206561 
L 226.759814 223.321136 
L 227.756421 222.279855 
L 228.753027 221.425601 
L 229.749634 220.202349 
L 230.74624 218.296704 
L 231.742847 217.477833 
L 232.739453 217.053233 
L 233.73606 216.431498 
L 234.732667 215.597463 
L 235.729273 214.611784 
L 238.719093 213.373368 
L 239.715699 212.827454 
L 240.712306 212.473621 
L 241.708912 211.700243 
L 242.705519 210.679181 
L 243.702125 210.052391 
L 244.698732 209.728886 
L 245.695338 209.218356 
L 247.688552 206.933604 
L 248.685158 205.604202 
L 249.681765 204.027117 
L 250.678371 203.268903 
L 251.674978 202.864522 
L 252.671584 201.65138 
L 253.668191 199.659805 
L 254.664797 199.022905 
L 256.65801 198.128212 
L 257.654617 198.07261 
L 259.64783 197.112206 
L 261.641043 195.762585 
L 262.63765 195.368314 
L 264.630863 195.302602 
L 267.620682 194.059131 
L 268.617289 194.028802 
L 269.613895 193.634531 
L 273.600321 192.790386 
L 274.596928 192.714565 
L 275.593535 192.305129 
L 277.586748 191.956351 
L 280.576567 191.951296 
L 281.573174 191.501422 
L 283.566387 191.006056 
L 285.5596 190.935289 
L 287.552813 190.227623 
L 288.54942 189.899063 
L 289.546026 189.428971 
L 291.539239 188.857783 
L 293.532452 188.822399 
L 294.529059 188.155171 
L 296.522272 187.492998 
L 297.518878 187.407067 
L 298.515485 187.169493 
L 300.508698 187.063343 
L 302.501911 186.214143 
L 304.495124 185.794598 
L 305.491731 185.486258 
L 307.484944 185.263848 
L 308.48155 184.965618 
L 309.478157 184.273116 
L 311.47137 182.377581 
L 314.461189 182.342197 
L 315.457796 181.118945 
L 318.447616 179.759215 
L 319.444222 179.536805 
L 320.440829 179.536805 
L 321.437435 177.787859 
L 322.434042 177.049864 
L 323.430648 176.645483 
L 326.420468 174.972357 
L 327.417074 174.972357 
L 328.413681 174.492155 
L 329.410288 173.774379 
L 331.403501 172.010268 
L 332.400107 171.550285 
L 334.39332 171.519956 
L 335.389927 171.231835 
L 338.379746 169.75079 
L 339.376353 168.947084 
L 340.372959 168.517429 
L 341.369566 168.426443 
L 345.355992 166.045651 
L 346.352599 165.322821 
L 348.345812 164.913385 
L 350.339025 164.28154 
L 351.335631 163.518271 
L 352.332238 162.942029 
L 353.328844 162.163596 
L 355.322058 161.359889 
L 356.318664 160.621894 
L 357.315271 160.166966 
L 359.308484 157.573874 
L 360.30509 156.871262 
L 361.301697 156.598305 
L 362.298303 156.598305 
L 363.29491 156.269746 
L 366.284729 154.005213 
L 367.281336 153.43908 
L 369.274549 152.928549 
L 370.271156 152.241102 
L 371.267762 151.715407 
L 372.264369 150.901591 
L 373.260975 150.269746 
L 374.257582 148.975727 
L 375.254188 146.625264 
L 377.247401 143.440765 
L 378.244008 142.788701 
L 380.237221 141.85357 
L 381.233827 141.353149 
L 382.230434 140.605045 
L 383.227041 139.65475 
L 384.223647 138.987522 
L 387.213467 137.996789 
L 390.203286 137.450875 
L 391.199893 137.051549 
L 392.196499 136.39443 
L 393.193106 135.909173 
L 395.186319 135.44919 
L 397.179532 134.17539 
L 398.176139 133.624421 
L 399.172745 133.381793 
L 402.162565 132.163596 
L 403.159171 131.607572 
L 404.155778 130.419704 
L 405.152384 129.873789 
L 407.145597 128.195609 
L 408.142204 127.412121 
L 409.138811 126.406224 
L 410.135417 125.188027 
L 411.132024 123.772694 
L 413.125237 121.932762 
L 414.121843 121.038069 
L 415.11845 119.693503 
L 416.115056 119.071768 
L 417.111663 118.116418 
L 418.108269 117.873789 
L 419.104876 117.312711 
L 420.101482 115.902433 
L 421.098089 115.250369 
L 422.094695 114.446662 
L 431.064154 110.549442 
L 432.060761 109.523326 
L 434.053974 108.689291 
L 436.047187 107.673284 
L 438.0404 107.076822 
L 440.033613 106.869577 
L 441.03022 106.177075 
L 442.026826 105.125685 
L 444.020039 104.311869 
L 445.016646 103.9732 
L 446.013252 103.96309 
L 448.006465 103.477833 
L 449.003072 103.083562 
L 449.999679 102.92181 
L 451.992892 102.315239 
L 455.979318 101.486258 
L 457.972531 100.889796 
L 458.969137 100.359046 
L 459.965744 100.187185 
L 460.96235 99.792913 
L 461.958957 99.54523 
L 463.95217 99.231835 
L 464.948777 98.928549 
L 465.945383 98.80218 
L 468.935203 98.099569 
L 469.931809 97.907488 
L 471.925022 97.088617 
L 472.921629 96.49721 
L 473.918235 96.289965 
L 474.914842 95.683394 
L 475.911448 95.354834 
L 477.904662 95.081877 
L 479.897875 94.141692 
L 480.894481 93.974885 
L 481.891088 93.479518 
L 483.884301 92.787016 
L 484.880907 92.594935 
L 485.877514 91.098726 
L 486.87412 89.142534 
L 487.870727 88.455087 
L 488.867333 87.949611 
L 490.860547 86.655592 
L 491.857153 85.543545 
L 492.85376 84.926864 
L 494.846973 82.965618 
L 496.840186 80.948768 
L 497.836792 80.38769 
L 498.833399 78.49721 
L 499.830005 77.744051 
L 500.826612 77.471094 
L 502.819825 76.541018 
L 503.816432 75.96983 
L 504.813038 75.813132 
L 505.809645 75.01448 
L 507.802858 73.740681 
L 508.799464 73.44245 
L 510.792677 71.728886 
L 511.789284 71.193082 
L 514.779103 70.081035 
L 515.77571 69.818187 
L 517.768923 69.560394 
L 521.755349 68.751633 
L 522.751956 68.332088 
L 523.748562 68.145062 
L 524.745169 67.801338 
L 526.738382 66.527538 
L 527.734988 66.16865 
L 528.731595 66.057446 
L 529.728201 65.051549 
L 530.724808 64.758372 
L 532.718021 63.787859 
L 533.714628 63.145904 
L 534.711234 62.655592 
L 536.704447 61.983309 
L 537.701054 61.184657 
L 541.68748 59.64801 
L 543.680693 59.228465 
L 544.6773 58.788701 
L 545.673906 58.535963 
L 546.670513 57.671599 
L 547.667119 57.474463 
L 548.663726 57.100411 
L 550.656939 56.711195 
L 555.639971 55.078507 
L 556.636578 54.658962 
L 558.629791 54.143377 
L 559.626398 53.733941 
L 560.623004 53.460984 
L 562.616217 52.667387 
L 564.60943 52.328718 
L 565.606037 51.656435 
L 566.602643 51.22678 
L 567.59925 50.524169 
L 569.592463 50.008583 
L 571.585676 49.113891 
L 572.582283 48.856098 
L 573.578889 48.411279 
L 578.561922 47.299232 
L 580.555135 46.343882 
L 581.551741 46.035542 
L 582.548348 45.378423 
L 583.544954 45.23689 
L 591.517807 42.17876 
L 592.514413 42.052391 
L 593.51102 41.804708 
L 594.507626 41.440765 
L 596.500839 40.480361 
L 598.494053 39.883899 
L 599.490659 39.737311 
L 601.483872 38.928549 
L 602.480479 38.58988 
L 603.477085 38.463511 
L 604.473692 37.846831 
L 613.443151 35.01111 
L 614.439757 34.798811 
L 615.436364 34.389375 
L 615.436364 34.389375 
" style="fill:none;stroke:#1f77b4;stroke-linecap:round;stroke-width:1.5;"/>
   </g>
   <g id="patch_3">
    <path d="M 82.8 298.989375 
L 82.8 21.789375 
" style="fill:none;stroke:#cccccc;stroke-linecap:square;stroke-linejoin:miter;stroke-width:0.8;"/>
   </g>
   <g id="patch_4">
    <path d="M 640.8 298.989375 
L 640.8 21.789375 
" style="fill:none;stroke:#cccccc;stroke-linecap:square;stroke-linejoin:miter;stroke-width:0.8;"/>
   </g>
   <g id="patch_5">
    <path d="M 82.8 298.989375 
L 640.8 298.989375 
" style="fill:none;stroke:#cccccc;stroke-linecap:square;stroke-linejoin:miter;stroke-width:0.8;"/>
   </g>
   <g id="patch_6">
    <path d="M 82.8 21.789375 
L 640.8 21.789375 
" style="fill:none;stroke:#cccccc;stroke-linecap:square;stroke-linejoin:miter;stroke-width:0.8;"/>
   </g>
   <g id="text_17">
    <!-- Casos Confirmados -->
    <g style="fill:#262626;" transform="translate(309.115313 15.789375)scale(0.12 -0.12)">
     <defs>
      <path d="M 3763 1606 
L 4369 1453 
Q 4178 706 3683 314 
Q 3188 -78 2472 -78 
Q 1731 -78 1267 223 
Q 803 525 561 1097 
Q 319 1669 319 2325 
Q 319 3041 592 3573 
Q 866 4106 1370 4382 
Q 1875 4659 2481 4659 
Q 3169 4659 3637 4309 
Q 4106 3959 4291 3325 
L 3694 3184 
Q 3534 3684 3231 3912 
Q 2928 4141 2469 4141 
Q 1941 4141 1586 3887 
Q 1231 3634 1087 3207 
Q 944 2781 944 2328 
Q 944 1744 1114 1308 
Q 1284 872 1643 656 
Q 2003 441 2422 441 
Q 2931 441 3284 734 
Q 3638 1028 3763 1606 
z
" id="ArialMT-43" transform="scale(0.015625)"/>
      <path d="M 2588 409 
Q 2275 144 1986 34 
Q 1697 -75 1366 -75 
Q 819 -75 525 192 
Q 231 459 231 875 
Q 231 1119 342 1320 
Q 453 1522 633 1644 
Q 813 1766 1038 1828 
Q 1203 1872 1538 1913 
Q 2219 1994 2541 2106 
Q 2544 2222 2544 2253 
Q 2544 2597 2384 2738 
Q 2169 2928 1744 2928 
Q 1347 2928 1158 2789 
Q 969 2650 878 2297 
L 328 2372 
Q 403 2725 575 2942 
Q 747 3159 1072 3276 
Q 1397 3394 1825 3394 
Q 2250 3394 2515 3294 
Q 2781 3194 2906 3042 
Q 3031 2891 3081 2659 
Q 3109 2516 3109 2141 
L 3109 1391 
Q 3109 606 3145 398 
Q 3181 191 3288 0 
L 2700 0 
Q 2613 175 2588 409 
z
M 2541 1666 
Q 2234 1541 1622 1453 
Q 1275 1403 1131 1340 
Q 988 1278 909 1158 
Q 831 1038 831 891 
Q 831 666 1001 516 
Q 1172 366 1500 366 
Q 1825 366 2078 508 
Q 2331 650 2450 897 
Q 2541 1088 2541 1459 
L 2541 1666 
z
" id="ArialMT-61" transform="scale(0.015625)"/>
      <path d="M 197 991 
L 753 1078 
Q 800 744 1014 566 
Q 1228 388 1613 388 
Q 2000 388 2187 545 
Q 2375 703 2375 916 
Q 2375 1106 2209 1216 
Q 2094 1291 1634 1406 
Q 1016 1563 777 1677 
Q 538 1791 414 1992 
Q 291 2194 291 2438 
Q 291 2659 392 2848 
Q 494 3038 669 3163 
Q 800 3259 1026 3326 
Q 1253 3394 1513 3394 
Q 1903 3394 2198 3281 
Q 2494 3169 2634 2976 
Q 2775 2784 2828 2463 
L 2278 2388 
Q 2241 2644 2061 2787 
Q 1881 2931 1553 2931 
Q 1166 2931 1000 2803 
Q 834 2675 834 2503 
Q 834 2394 903 2306 
Q 972 2216 1119 2156 
Q 1203 2125 1616 2013 
Q 2213 1853 2448 1751 
Q 2684 1650 2818 1456 
Q 2953 1263 2953 975 
Q 2953 694 2789 445 
Q 2625 197 2315 61 
Q 2006 -75 1616 -75 
Q 969 -75 630 194 
Q 291 463 197 991 
z
" id="ArialMT-73" transform="scale(0.015625)"/>
      <path d="M 213 1659 
Q 213 2581 725 3025 
Q 1153 3394 1769 3394 
Q 2453 3394 2887 2945 
Q 3322 2497 3322 1706 
Q 3322 1066 3130 698 
Q 2938 331 2570 128 
Q 2203 -75 1769 -75 
Q 1072 -75 642 372 
Q 213 819 213 1659 
z
M 791 1659 
Q 791 1022 1069 705 
Q 1347 388 1769 388 
Q 2188 388 2466 706 
Q 2744 1025 2744 1678 
Q 2744 2294 2464 2611 
Q 2184 2928 1769 2928 
Q 1347 2928 1069 2612 
Q 791 2297 791 1659 
z
" id="ArialMT-6f" transform="scale(0.015625)"/>
      <path id="ArialMT-20" transform="scale(0.015625)"/>
      <path d="M 422 0 
L 422 3319 
L 928 3319 
L 928 2847 
Q 1294 3394 1984 3394 
Q 2284 3394 2536 3286 
Q 2788 3178 2913 3003 
Q 3038 2828 3088 2588 
Q 3119 2431 3119 2041 
L 3119 0 
L 2556 0 
L 2556 2019 
Q 2556 2363 2490 2533 
Q 2425 2703 2258 2804 
Q 2091 2906 1866 2906 
Q 1506 2906 1245 2678 
Q 984 2450 984 1813 
L 984 0 
L 422 0 
z
" id="ArialMT-6e" transform="scale(0.015625)"/>
      <path d="M 556 0 
L 556 2881 
L 59 2881 
L 59 3319 
L 556 3319 
L 556 3672 
Q 556 4006 616 4169 
Q 697 4388 901 4523 
Q 1106 4659 1475 4659 
Q 1713 4659 2000 4603 
L 1916 4113 
Q 1741 4144 1584 4144 
Q 1328 4144 1222 4034 
Q 1116 3925 1116 3625 
L 1116 3319 
L 1763 3319 
L 1763 2881 
L 1116 2881 
L 1116 0 
L 556 0 
z
" id="ArialMT-66" transform="scale(0.015625)"/>
      <path d="M 425 3934 
L 425 4581 
L 988 4581 
L 988 3934 
L 425 3934 
z
M 425 0 
L 425 3319 
L 988 3319 
L 988 0 
L 425 0 
z
" id="ArialMT-69" transform="scale(0.015625)"/>
      <path d="M 416 0 
L 416 3319 
L 922 3319 
L 922 2816 
Q 1116 3169 1280 3281 
Q 1444 3394 1641 3394 
Q 1925 3394 2219 3213 
L 2025 2691 
Q 1819 2813 1613 2813 
Q 1428 2813 1281 2702 
Q 1134 2591 1072 2394 
Q 978 2094 978 1738 
L 978 0 
L 416 0 
z
" id="ArialMT-72" transform="scale(0.015625)"/>
      <path d="M 422 0 
L 422 3319 
L 925 3319 
L 925 2853 
Q 1081 3097 1340 3245 
Q 1600 3394 1931 3394 
Q 2300 3394 2536 3241 
Q 2772 3088 2869 2813 
Q 3263 3394 3894 3394 
Q 4388 3394 4653 3120 
Q 4919 2847 4919 2278 
L 4919 0 
L 4359 0 
L 4359 2091 
Q 4359 2428 4304 2576 
Q 4250 2725 4106 2815 
Q 3963 2906 3769 2906 
Q 3419 2906 3187 2673 
Q 2956 2441 2956 1928 
L 2956 0 
L 2394 0 
L 2394 2156 
Q 2394 2531 2256 2718 
Q 2119 2906 1806 2906 
Q 1569 2906 1367 2781 
Q 1166 2656 1075 2415 
Q 984 2175 984 1722 
L 984 0 
L 422 0 
z
" id="ArialMT-6d" transform="scale(0.015625)"/>
      <path d="M 2575 0 
L 2575 419 
Q 2259 -75 1647 -75 
Q 1250 -75 917 144 
Q 584 363 401 755 
Q 219 1147 219 1656 
Q 219 2153 384 2558 
Q 550 2963 881 3178 
Q 1213 3394 1622 3394 
Q 1922 3394 2156 3267 
Q 2391 3141 2538 2938 
L 2538 4581 
L 3097 4581 
L 3097 0 
L 2575 0 
z
M 797 1656 
Q 797 1019 1065 703 
Q 1334 388 1700 388 
Q 2069 388 2326 689 
Q 2584 991 2584 1609 
Q 2584 2291 2321 2609 
Q 2059 2928 1675 2928 
Q 1300 2928 1048 2622 
Q 797 2316 797 1656 
z
" id="ArialMT-64" transform="scale(0.015625)"/>
     </defs>
     <use xlink:href="#ArialMT-43"/>
     <use x="72.216797" xlink:href="#ArialMT-61"/>
     <use x="127.832031" xlink:href="#ArialMT-73"/>
     <use x="177.832031" xlink:href="#ArialMT-6f"/>
     <use x="233.447266" xlink:href="#ArialMT-73"/>
     <use x="283.447266" xlink:href="#ArialMT-20"/>
     <use x="311.230469" xlink:href="#ArialMT-43"/>
     <use x="383.447266" xlink:href="#ArialMT-6f"/>
     <use x="439.0625" xlink:href="#ArialMT-6e"/>
     <use x="494.677734" xlink:href="#ArialMT-66"/>
     <use x="522.460938" xlink:href="#ArialMT-69"/>
     <use x="544.677734" xlink:href="#ArialMT-72"/>
     <use x="577.978516" xlink:href="#ArialMT-6d"/>
     <use x="661.279297" xlink:href="#ArialMT-61"/>
     <use x="716.894531" xlink:href="#ArialMT-64"/>
     <use x="772.509766" xlink:href="#ArialMT-6f"/>
     <use x="828.125" xlink:href="#ArialMT-73"/>
    </g>
   </g>
  </g>
  <g id="text_18">
   <!-- Atualizado em 10/08/2021 -->
   <g style="fill:#262626;" transform="translate(7.2 331.389375)scale(0.08 -0.08)">
    <defs>
     <path d="M -9 0 
L 1750 4581 
L 2403 4581 
L 4278 0 
L 3588 0 
L 3053 1388 
L 1138 1388 
L 634 0 
L -9 0 
z
M 1313 1881 
L 2866 1881 
L 2388 3150 
Q 2169 3728 2063 4100 
Q 1975 3659 1816 3225 
L 1313 1881 
z
" id="ArialMT-41" transform="scale(0.015625)"/>
     <path d="M 1650 503 
L 1731 6 
Q 1494 -44 1306 -44 
Q 1000 -44 831 53 
Q 663 150 594 308 
Q 525 466 525 972 
L 525 2881 
L 113 2881 
L 113 3319 
L 525 3319 
L 525 4141 
L 1084 4478 
L 1084 3319 
L 1650 3319 
L 1650 2881 
L 1084 2881 
L 1084 941 
Q 1084 700 1114 631 
Q 1144 563 1211 522 
Q 1278 481 1403 481 
Q 1497 481 1650 503 
z
" id="ArialMT-74" transform="scale(0.015625)"/>
     <path d="M 2597 0 
L 2597 488 
Q 2209 -75 1544 -75 
Q 1250 -75 995 37 
Q 741 150 617 320 
Q 494 491 444 738 
Q 409 903 409 1263 
L 409 3319 
L 972 3319 
L 972 1478 
Q 972 1038 1006 884 
Q 1059 663 1231 536 
Q 1403 409 1656 409 
Q 1909 409 2131 539 
Q 2353 669 2445 892 
Q 2538 1116 2538 1541 
L 2538 3319 
L 3100 3319 
L 3100 0 
L 2597 0 
z
" id="ArialMT-75" transform="scale(0.015625)"/>
     <path d="M 409 0 
L 409 4581 
L 972 4581 
L 972 0 
L 409 0 
z
" id="ArialMT-6c" transform="scale(0.015625)"/>
     <path d="M 125 0 
L 125 456 
L 2238 2881 
Q 1878 2863 1603 2863 
L 250 2863 
L 250 3319 
L 2963 3319 
L 2963 2947 
L 1166 841 
L 819 456 
Q 1197 484 1528 484 
L 3063 484 
L 3063 0 
L 125 0 
z
" id="ArialMT-7a" transform="scale(0.015625)"/>
     <path d="M 2694 1069 
L 3275 997 
Q 3138 488 2766 206 
Q 2394 -75 1816 -75 
Q 1088 -75 661 373 
Q 234 822 234 1631 
Q 234 2469 665 2931 
Q 1097 3394 1784 3394 
Q 2450 3394 2872 2941 
Q 3294 2488 3294 1666 
Q 3294 1616 3291 1516 
L 816 1516 
Q 847 969 1125 678 
Q 1403 388 1819 388 
Q 2128 388 2347 550 
Q 2566 713 2694 1069 
z
M 847 1978 
L 2700 1978 
Q 2663 2397 2488 2606 
Q 2219 2931 1791 2931 
Q 1403 2931 1139 2672 
Q 875 2413 847 1978 
z
" id="ArialMT-65" transform="scale(0.015625)"/>
     <path d="M 0 -78 
L 1328 4659 
L 1778 4659 
L 453 -78 
L 0 -78 
z
" id="ArialMT-2f" transform="scale(0.015625)"/>
     <path d="M 1131 2484 
Q 781 2613 612 2850 
Q 444 3088 444 3419 
Q 444 3919 803 4259 
Q 1163 4600 1759 4600 
Q 2359 4600 2725 4251 
Q 3091 3903 3091 3403 
Q 3091 3084 2923 2848 
Q 2756 2613 2416 2484 
Q 2838 2347 3058 2040 
Q 3278 1734 3278 1309 
Q 3278 722 2862 322 
Q 2447 -78 1769 -78 
Q 1091 -78 675 323 
Q 259 725 259 1325 
Q 259 1772 486 2073 
Q 713 2375 1131 2484 
z
M 1019 3438 
Q 1019 3113 1228 2906 
Q 1438 2700 1772 2700 
Q 2097 2700 2305 2904 
Q 2513 3109 2513 3406 
Q 2513 3716 2298 3927 
Q 2084 4138 1766 4138 
Q 1444 4138 1231 3931 
Q 1019 3725 1019 3438 
z
M 838 1322 
Q 838 1081 952 856 
Q 1066 631 1291 507 
Q 1516 384 1775 384 
Q 2178 384 2440 643 
Q 2703 903 2703 1303 
Q 2703 1709 2433 1975 
Q 2163 2241 1756 2241 
Q 1359 2241 1098 1978 
Q 838 1716 838 1322 
z
" id="ArialMT-38" transform="scale(0.015625)"/>
    </defs>
    <use xlink:href="#ArialMT-41"/>
    <use x="66.699219" xlink:href="#ArialMT-74"/>
    <use x="94.482422" xlink:href="#ArialMT-75"/>
    <use x="150.097656" xlink:href="#ArialMT-61"/>
    <use x="205.712891" xlink:href="#ArialMT-6c"/>
    <use x="227.929688" xlink:href="#ArialMT-69"/>
    <use x="250.146484" xlink:href="#ArialMT-7a"/>
    <use x="300.146484" xlink:href="#ArialMT-61"/>
    <use x="355.761719" xlink:href="#ArialMT-64"/>
    <use x="411.376953" xlink:href="#ArialMT-6f"/>
    <use x="466.992188" xlink:href="#ArialMT-20"/>
    <use x="494.775391" xlink:href="#ArialMT-65"/>
    <use x="550.390625" xlink:href="#ArialMT-6d"/>
    <use x="633.691406" xlink:href="#ArialMT-20"/>
    <use x="661.474609" xlink:href="#ArialMT-31"/>
    <use x="717.089844" xlink:href="#ArialMT-30"/>
    <use x="772.705078" xlink:href="#ArialMT-2f"/>
    <use x="800.488281" xlink:href="#ArialMT-30"/>
    <use x="856.103516" xlink:href="#ArialMT-38"/>
    <use x="911.71875" xlink:href="#ArialMT-2f"/>
    <use x="939.501953" xlink:href="#ArialMT-32"/>
    <use x="995.117188" xlink:href="#ArialMT-30"/>
    <use x="1050.732422" xlink:href="#ArialMT-32"/>
    <use x="1106.347656" xlink:href="#ArialMT-31"/>
   </g>
  </g>
  <g id="text_19">
   <!-- https://jmsvaz.github.io/covidsantos/ -->
   <g style="fill:#262626;" transform="translate(570.345 331.389375)scale(0.08 -0.08)">
    <defs>
     <path d="M 422 0 
L 422 4581 
L 984 4581 
L 984 2938 
Q 1378 3394 1978 3394 
Q 2347 3394 2619 3248 
Q 2891 3103 3008 2847 
Q 3125 2591 3125 2103 
L 3125 0 
L 2563 0 
L 2563 2103 
Q 2563 2525 2380 2717 
Q 2197 2909 1863 2909 
Q 1613 2909 1392 2779 
Q 1172 2650 1078 2428 
Q 984 2206 984 1816 
L 984 0 
L 422 0 
z
" id="ArialMT-68" transform="scale(0.015625)"/>
     <path d="M 422 -1272 
L 422 3319 
L 934 3319 
L 934 2888 
Q 1116 3141 1344 3267 
Q 1572 3394 1897 3394 
Q 2322 3394 2647 3175 
Q 2972 2956 3137 2557 
Q 3303 2159 3303 1684 
Q 3303 1175 3120 767 
Q 2938 359 2589 142 
Q 2241 -75 1856 -75 
Q 1575 -75 1351 44 
Q 1128 163 984 344 
L 984 -1272 
L 422 -1272 
z
M 931 1641 
Q 931 1000 1190 694 
Q 1450 388 1819 388 
Q 2194 388 2461 705 
Q 2728 1022 2728 1688 
Q 2728 2322 2467 2637 
Q 2206 2953 1844 2953 
Q 1484 2953 1207 2617 
Q 931 2281 931 1641 
z
" id="ArialMT-70" transform="scale(0.015625)"/>
     <path d="M 578 2678 
L 578 3319 
L 1219 3319 
L 1219 2678 
L 578 2678 
z
M 578 0 
L 578 641 
L 1219 641 
L 1219 0 
L 578 0 
z
" id="ArialMT-3a" transform="scale(0.015625)"/>
     <path d="M 419 3928 
L 419 4581 
L 981 4581 
L 981 3928 
L 419 3928 
z
M -294 -1288 
L -188 -809 
Q -19 -853 78 -853 
Q 250 -853 334 -739 
Q 419 -625 419 -169 
L 419 3319 
L 981 3319 
L 981 -181 
Q 981 -794 822 -1034 
Q 619 -1347 147 -1347 
Q -81 -1347 -294 -1288 
z
" id="ArialMT-6a" transform="scale(0.015625)"/>
     <path d="M 1344 0 
L 81 3319 
L 675 3319 
L 1388 1331 
Q 1503 1009 1600 663 
Q 1675 925 1809 1294 
L 2547 3319 
L 3125 3319 
L 1869 0 
L 1344 0 
z
" id="ArialMT-76" transform="scale(0.015625)"/>
     <path d="M 581 0 
L 581 641 
L 1222 641 
L 1222 0 
L 581 0 
z
" id="ArialMT-2e" transform="scale(0.015625)"/>
     <path d="M 319 -275 
L 866 -356 
Q 900 -609 1056 -725 
Q 1266 -881 1628 -881 
Q 2019 -881 2231 -725 
Q 2444 -569 2519 -288 
Q 2563 -116 2559 434 
Q 2191 0 1641 0 
Q 956 0 581 494 
Q 206 988 206 1678 
Q 206 2153 378 2554 
Q 550 2956 876 3175 
Q 1203 3394 1644 3394 
Q 2231 3394 2613 2919 
L 2613 3319 
L 3131 3319 
L 3131 450 
Q 3131 -325 2973 -648 
Q 2816 -972 2473 -1159 
Q 2131 -1347 1631 -1347 
Q 1038 -1347 672 -1080 
Q 306 -813 319 -275 
z
M 784 1719 
Q 784 1066 1043 766 
Q 1303 466 1694 466 
Q 2081 466 2343 764 
Q 2606 1063 2606 1700 
Q 2606 2309 2336 2618 
Q 2066 2928 1684 2928 
Q 1309 2928 1046 2623 
Q 784 2319 784 1719 
z
" id="ArialMT-67" transform="scale(0.015625)"/>
     <path d="M 941 0 
L 419 0 
L 419 4581 
L 981 4581 
L 981 2947 
Q 1338 3394 1891 3394 
Q 2197 3394 2470 3270 
Q 2744 3147 2920 2923 
Q 3097 2700 3197 2384 
Q 3297 2069 3297 1709 
Q 3297 856 2875 390 
Q 2453 -75 1863 -75 
Q 1275 -75 941 416 
L 941 0 
z
M 934 1684 
Q 934 1088 1097 822 
Q 1363 388 1816 388 
Q 2184 388 2453 708 
Q 2722 1028 2722 1663 
Q 2722 2313 2464 2622 
Q 2206 2931 1841 2931 
Q 1472 2931 1203 2611 
Q 934 2291 934 1684 
z
" id="ArialMT-62" transform="scale(0.015625)"/>
     <path d="M 2588 1216 
L 3141 1144 
Q 3050 572 2676 248 
Q 2303 -75 1759 -75 
Q 1078 -75 664 370 
Q 250 816 250 1647 
Q 250 2184 428 2587 
Q 606 2991 970 3192 
Q 1334 3394 1763 3394 
Q 2303 3394 2647 3120 
Q 2991 2847 3088 2344 
L 2541 2259 
Q 2463 2594 2264 2762 
Q 2066 2931 1784 2931 
Q 1359 2931 1093 2626 
Q 828 2322 828 1663 
Q 828 994 1084 691 
Q 1341 388 1753 388 
Q 2084 388 2306 591 
Q 2528 794 2588 1216 
z
" id="ArialMT-63" transform="scale(0.015625)"/>
    </defs>
    <use xlink:href="#ArialMT-68"/>
    <use x="55.615234" xlink:href="#ArialMT-74"/>
    <use x="83.398438" xlink:href="#ArialMT-74"/>
    <use x="111.181641" xlink:href="#ArialMT-70"/>
    <use x="166.796875" xlink:href="#ArialMT-73"/>
    <use x="216.796875" xlink:href="#ArialMT-3a"/>
    <use x="244.580078" xlink:href="#ArialMT-2f"/>
    <use x="272.363281" xlink:href="#ArialMT-2f"/>
    <use x="300.146484" xlink:href="#ArialMT-6a"/>
    <use x="322.363281" xlink:href="#ArialMT-6d"/>
    <use x="405.664062" xlink:href="#ArialMT-73"/>
    <use x="455.664062" xlink:href="#ArialMT-76"/>
    <use x="505.664062" xlink:href="#ArialMT-61"/>
    <use x="561.279297" xlink:href="#ArialMT-7a"/>
    <use x="611.279297" xlink:href="#ArialMT-2e"/>
    <use x="639.0625" xlink:href="#ArialMT-67"/>
    <use x="694.677734" xlink:href="#ArialMT-69"/>
    <use x="716.894531" xlink:href="#ArialMT-74"/>
    <use x="744.677734" xlink:href="#ArialMT-68"/>
    <use x="800.292969" xlink:href="#ArialMT-75"/>
    <use x="855.908203" xlink:href="#ArialMT-62"/>
    <use x="911.523438" xlink:href="#ArialMT-2e"/>
    <use x="939.306641" xlink:href="#ArialMT-69"/>
    <use x="961.523438" xlink:href="#ArialMT-6f"/>
    <use x="1017.138672" xlink:href="#ArialMT-2f"/>
    <use x="1044.921875" xlink:href="#ArialMT-63"/>
    <use x="1094.921875" xlink:href="#ArialMT-6f"/>
    <use x="1150.537109" xlink:href="#ArialMT-76"/>
    <use x="1200.537109" xlink:href="#ArialMT-69"/>
    <use x="1222.753906" xlink:href="#ArialMT-64"/>
    <use x="1278.369141" xlink:href="#ArialMT-73"/>
    <use x="1328.369141" xlink:href="#ArialMT-61"/>
    <use x="1383.984375" xlink:href="#ArialMT-6e"/>
    <use x="1439.599609" xlink:href="#ArialMT-74"/>
    <use x="1467.382812" xlink:href="#ArialMT-6f"/>
    <use x="1522.998047" xlink:href="#ArialMT-73"/>
    <use x="1572.998047" xlink:href="#ArialMT-2f"/>
   </g>
  </g>
 </g>
 <defs>
  <clipPath id="p3594d8603c">
   <rect height="277.2" width="558" x="82.8" y="21.789375"/>
  </clipPath>
 </defs>
</svg>
