<?xml version="1.0" encoding="utf-8" standalone="no"?>
<!DOCTYPE svg PUBLIC "-//W3C//DTD SVG 1.1//EN"
  "http://www.w3.org/Graphics/SVG/1.1/DTD/svg11.dtd">
<svg height="322.334688pt" version="1.1" viewBox="0 0 607.204687 322.334688" width="607.204687pt" xmlns="http://www.w3.org/2000/svg" xmlns:xlink="http://www.w3.org/1999/xlink">
 <metadata>
  <rdf:RDF xmlns:cc="http://creativecommons.org/ns#" xmlns:dc="http://purl.org/dc/elements/1.1/" xmlns:rdf="http://www.w3.org/1999/02/22-rdf-syntax-ns#">
   <cc:Work>
    <dc:type rdf:resource="http://purl.org/dc/dcmitype/StillImage"/>
    <dc:date>2021-06-26T14:27:14.257595</dc:date>
    <dc:format>image/svg+xml</dc:format>
    <dc:creator>
     <cc:Agent>
      <dc:title>Matplotlib v3.4.2, https://matplotlib.org/</dc:title>
     </cc:Agent>
    </dc:creator>
   </cc:Work>
  </rdf:RDF>
 </metadata>
 <defs>
  <style type="text/css">*{stroke-linecap:butt;stroke-linejoin:round;}</style>
 </defs>
 <g id="figure_1">
  <g id="patch_1">
   <path d="M 0 322.334688 
L 607.204687 322.334688 
L 607.204687 0 
L 0 0 
z
" style="fill:#ffffff;"/>
  </g>
  <g id="axes_1">
   <g id="patch_2">
    <path d="M 42.004687 298.989375 
L 600.004688 298.989375 
L 600.004688 21.789375 
L 42.004687 21.789375 
z
" style="fill:#ffffff;"/>
   </g>
   <g id="matplotlib.axis_1">
    <g id="xtick_1">
     <g id="line2d_1">
      <path clip-path="url(#pfaf2beb769)" d="M 47.647138 298.989375 
L 47.647138 21.789375 
" style="fill:none;stroke:#cccccc;stroke-linecap:round;stroke-width:0.8;"/>
     </g>
     <g id="text_1">
      <!-- 2020-03 -->
      <g style="fill:#262626;" transform="translate(29.299482 313.147188)scale(0.1 -0.1)">
       <defs>
        <path d="M 3222 541 
L 3222 0 
L 194 0 
Q 188 203 259 391 
Q 375 700 629 1000 
Q 884 1300 1366 1694 
Q 2113 2306 2375 2664 
Q 2638 3022 2638 3341 
Q 2638 3675 2398 3904 
Q 2159 4134 1775 4134 
Q 1369 4134 1125 3890 
Q 881 3647 878 3216 
L 300 3275 
Q 359 3922 746 4261 
Q 1134 4600 1788 4600 
Q 2447 4600 2831 4234 
Q 3216 3869 3216 3328 
Q 3216 3053 3103 2787 
Q 2991 2522 2730 2228 
Q 2469 1934 1863 1422 
Q 1356 997 1212 845 
Q 1069 694 975 541 
L 3222 541 
z
" id="ArialMT-32" transform="scale(0.015625)"/>
        <path d="M 266 2259 
Q 266 3072 433 3567 
Q 600 4063 929 4331 
Q 1259 4600 1759 4600 
Q 2128 4600 2406 4451 
Q 2684 4303 2865 4023 
Q 3047 3744 3150 3342 
Q 3253 2941 3253 2259 
Q 3253 1453 3087 958 
Q 2922 463 2592 192 
Q 2263 -78 1759 -78 
Q 1097 -78 719 397 
Q 266 969 266 2259 
z
M 844 2259 
Q 844 1131 1108 757 
Q 1372 384 1759 384 
Q 2147 384 2411 759 
Q 2675 1134 2675 2259 
Q 2675 3391 2411 3762 
Q 2147 4134 1753 4134 
Q 1366 4134 1134 3806 
Q 844 3388 844 2259 
z
" id="ArialMT-30" transform="scale(0.015625)"/>
        <path d="M 203 1375 
L 203 1941 
L 1931 1941 
L 1931 1375 
L 203 1375 
z
" id="ArialMT-2d" transform="scale(0.015625)"/>
        <path d="M 269 1209 
L 831 1284 
Q 928 806 1161 595 
Q 1394 384 1728 384 
Q 2125 384 2398 659 
Q 2672 934 2672 1341 
Q 2672 1728 2419 1979 
Q 2166 2231 1775 2231 
Q 1616 2231 1378 2169 
L 1441 2663 
Q 1497 2656 1531 2656 
Q 1891 2656 2178 2843 
Q 2466 3031 2466 3422 
Q 2466 3731 2256 3934 
Q 2047 4138 1716 4138 
Q 1388 4138 1169 3931 
Q 950 3725 888 3313 
L 325 3413 
Q 428 3978 793 4289 
Q 1159 4600 1703 4600 
Q 2078 4600 2393 4439 
Q 2709 4278 2876 4000 
Q 3044 3722 3044 3409 
Q 3044 3113 2884 2869 
Q 2725 2625 2413 2481 
Q 2819 2388 3044 2092 
Q 3269 1797 3269 1353 
Q 3269 753 2831 336 
Q 2394 -81 1725 -81 
Q 1122 -81 723 278 
Q 325 638 269 1209 
z
" id="ArialMT-33" transform="scale(0.015625)"/>
       </defs>
       <use xlink:href="#ArialMT-32"/>
       <use x="55.615234" xlink:href="#ArialMT-30"/>
       <use x="111.230469" xlink:href="#ArialMT-32"/>
       <use x="166.845703" xlink:href="#ArialMT-30"/>
       <use x="222.460938" xlink:href="#ArialMT-2d"/>
       <use x="255.761719" xlink:href="#ArialMT-30"/>
       <use x="311.376953" xlink:href="#ArialMT-33"/>
      </g>
     </g>
    </g>
    <g id="xtick_2">
     <g id="line2d_2">
      <path clip-path="url(#pfaf2beb769)" d="M 114.480046 298.989375 
L 114.480046 21.789375 
" style="fill:none;stroke:#cccccc;stroke-linecap:round;stroke-width:0.8;"/>
     </g>
     <g id="text_2">
      <!-- 2020-05 -->
      <g style="fill:#262626;" transform="translate(96.13239 313.147188)scale(0.1 -0.1)">
       <defs>
        <path d="M 266 1200 
L 856 1250 
Q 922 819 1161 601 
Q 1400 384 1738 384 
Q 2144 384 2425 690 
Q 2706 997 2706 1503 
Q 2706 1984 2436 2262 
Q 2166 2541 1728 2541 
Q 1456 2541 1237 2417 
Q 1019 2294 894 2097 
L 366 2166 
L 809 4519 
L 3088 4519 
L 3088 3981 
L 1259 3981 
L 1013 2750 
Q 1425 3038 1878 3038 
Q 2478 3038 2890 2622 
Q 3303 2206 3303 1553 
Q 3303 931 2941 478 
Q 2500 -78 1738 -78 
Q 1113 -78 717 272 
Q 322 622 266 1200 
z
" id="ArialMT-35" transform="scale(0.015625)"/>
       </defs>
       <use xlink:href="#ArialMT-32"/>
       <use x="55.615234" xlink:href="#ArialMT-30"/>
       <use x="111.230469" xlink:href="#ArialMT-32"/>
       <use x="166.845703" xlink:href="#ArialMT-30"/>
       <use x="222.460938" xlink:href="#ArialMT-2d"/>
       <use x="255.761719" xlink:href="#ArialMT-30"/>
       <use x="311.376953" xlink:href="#ArialMT-35"/>
      </g>
     </g>
    </g>
    <g id="xtick_3">
     <g id="line2d_3">
      <path clip-path="url(#pfaf2beb769)" d="M 181.312954 298.989375 
L 181.312954 21.789375 
" style="fill:none;stroke:#cccccc;stroke-linecap:round;stroke-width:0.8;"/>
     </g>
     <g id="text_3">
      <!-- 2020-07 -->
      <g style="fill:#262626;" transform="translate(162.965297 313.147188)scale(0.1 -0.1)">
       <defs>
        <path d="M 303 3981 
L 303 4522 
L 3269 4522 
L 3269 4084 
Q 2831 3619 2401 2847 
Q 1972 2075 1738 1259 
Q 1569 684 1522 0 
L 944 0 
Q 953 541 1156 1306 
Q 1359 2072 1739 2783 
Q 2119 3494 2547 3981 
L 303 3981 
z
" id="ArialMT-37" transform="scale(0.015625)"/>
       </defs>
       <use xlink:href="#ArialMT-32"/>
       <use x="55.615234" xlink:href="#ArialMT-30"/>
       <use x="111.230469" xlink:href="#ArialMT-32"/>
       <use x="166.845703" xlink:href="#ArialMT-30"/>
       <use x="222.460938" xlink:href="#ArialMT-2d"/>
       <use x="255.761719" xlink:href="#ArialMT-30"/>
       <use x="311.376953" xlink:href="#ArialMT-37"/>
      </g>
     </g>
    </g>
    <g id="xtick_4">
     <g id="line2d_4">
      <path clip-path="url(#pfaf2beb769)" d="M 249.241483 298.989375 
L 249.241483 21.789375 
" style="fill:none;stroke:#cccccc;stroke-linecap:round;stroke-width:0.8;"/>
     </g>
     <g id="text_4">
      <!-- 2020-09 -->
      <g style="fill:#262626;" transform="translate(230.893827 313.147188)scale(0.1 -0.1)">
       <defs>
        <path d="M 350 1059 
L 891 1109 
Q 959 728 1153 556 
Q 1347 384 1650 384 
Q 1909 384 2104 503 
Q 2300 622 2425 820 
Q 2550 1019 2634 1356 
Q 2719 1694 2719 2044 
Q 2719 2081 2716 2156 
Q 2547 1888 2255 1720 
Q 1963 1553 1622 1553 
Q 1053 1553 659 1965 
Q 266 2378 266 3053 
Q 266 3750 677 4175 
Q 1088 4600 1706 4600 
Q 2153 4600 2523 4359 
Q 2894 4119 3086 3673 
Q 3278 3228 3278 2384 
Q 3278 1506 3087 986 
Q 2897 466 2520 194 
Q 2144 -78 1638 -78 
Q 1100 -78 759 220 
Q 419 519 350 1059 
z
M 2653 3081 
Q 2653 3566 2395 3850 
Q 2138 4134 1775 4134 
Q 1400 4134 1122 3828 
Q 844 3522 844 3034 
Q 844 2597 1108 2323 
Q 1372 2050 1759 2050 
Q 2150 2050 2401 2323 
Q 2653 2597 2653 3081 
z
" id="ArialMT-39" transform="scale(0.015625)"/>
       </defs>
       <use xlink:href="#ArialMT-32"/>
       <use x="55.615234" xlink:href="#ArialMT-30"/>
       <use x="111.230469" xlink:href="#ArialMT-32"/>
       <use x="166.845703" xlink:href="#ArialMT-30"/>
       <use x="222.460938" xlink:href="#ArialMT-2d"/>
       <use x="255.761719" xlink:href="#ArialMT-30"/>
       <use x="311.376953" xlink:href="#ArialMT-39"/>
      </g>
     </g>
    </g>
    <g id="xtick_5">
     <g id="line2d_5">
      <path clip-path="url(#pfaf2beb769)" d="M 316.074391 298.989375 
L 316.074391 21.789375 
" style="fill:none;stroke:#cccccc;stroke-linecap:round;stroke-width:0.8;"/>
     </g>
     <g id="text_5">
      <!-- 2020-11 -->
      <g style="fill:#262626;" transform="translate(298.095485 313.147188)scale(0.1 -0.1)">
       <defs>
        <path d="M 2384 0 
L 1822 0 
L 1822 3584 
Q 1619 3391 1289 3197 
Q 959 3003 697 2906 
L 697 3450 
Q 1169 3672 1522 3987 
Q 1875 4303 2022 4600 
L 2384 4600 
L 2384 0 
z
" id="ArialMT-31" transform="scale(0.015625)"/>
       </defs>
       <use xlink:href="#ArialMT-32"/>
       <use x="55.615234" xlink:href="#ArialMT-30"/>
       <use x="111.230469" xlink:href="#ArialMT-32"/>
       <use x="166.845703" xlink:href="#ArialMT-30"/>
       <use x="222.460938" xlink:href="#ArialMT-2d"/>
       <use x="255.761719" xlink:href="#ArialMT-31"/>
       <use x="304.001953" xlink:href="#ArialMT-31"/>
      </g>
     </g>
    </g>
    <g id="xtick_6">
     <g id="line2d_6">
      <path clip-path="url(#pfaf2beb769)" d="M 382.907299 298.989375 
L 382.907299 21.789375 
" style="fill:none;stroke:#cccccc;stroke-linecap:round;stroke-width:0.8;"/>
     </g>
     <g id="text_6">
      <!-- 2021-01 -->
      <g style="fill:#262626;" transform="translate(364.559643 313.147188)scale(0.1 -0.1)">
       <use xlink:href="#ArialMT-32"/>
       <use x="55.615234" xlink:href="#ArialMT-30"/>
       <use x="111.230469" xlink:href="#ArialMT-32"/>
       <use x="166.845703" xlink:href="#ArialMT-31"/>
       <use x="222.460938" xlink:href="#ArialMT-2d"/>
       <use x="255.761719" xlink:href="#ArialMT-30"/>
       <use x="311.376953" xlink:href="#ArialMT-31"/>
      </g>
     </g>
    </g>
    <g id="xtick_7">
     <g id="line2d_7">
      <path clip-path="url(#pfaf2beb769)" d="M 447.548964 298.989375 
L 447.548964 21.789375 
" style="fill:none;stroke:#cccccc;stroke-linecap:round;stroke-width:0.8;"/>
     </g>
     <g id="text_7">
      <!-- 2021-03 -->
      <g style="fill:#262626;" transform="translate(429.201308 313.147188)scale(0.1 -0.1)">
       <use xlink:href="#ArialMT-32"/>
       <use x="55.615234" xlink:href="#ArialMT-30"/>
       <use x="111.230469" xlink:href="#ArialMT-32"/>
       <use x="166.845703" xlink:href="#ArialMT-31"/>
       <use x="222.460938" xlink:href="#ArialMT-2d"/>
       <use x="255.761719" xlink:href="#ArialMT-30"/>
       <use x="311.376953" xlink:href="#ArialMT-33"/>
      </g>
     </g>
    </g>
    <g id="xtick_8">
     <g id="line2d_8">
      <path clip-path="url(#pfaf2beb769)" d="M 514.381872 298.989375 
L 514.381872 21.789375 
" style="fill:none;stroke:#cccccc;stroke-linecap:round;stroke-width:0.8;"/>
     </g>
     <g id="text_8">
      <!-- 2021-05 -->
      <g style="fill:#262626;" transform="translate(496.034216 313.147188)scale(0.1 -0.1)">
       <use xlink:href="#ArialMT-32"/>
       <use x="55.615234" xlink:href="#ArialMT-30"/>
       <use x="111.230469" xlink:href="#ArialMT-32"/>
       <use x="166.845703" xlink:href="#ArialMT-31"/>
       <use x="222.460938" xlink:href="#ArialMT-2d"/>
       <use x="255.761719" xlink:href="#ArialMT-30"/>
       <use x="311.376953" xlink:href="#ArialMT-35"/>
      </g>
     </g>
    </g>
    <g id="xtick_9">
     <g id="line2d_9">
      <path clip-path="url(#pfaf2beb769)" d="M 581.21478 298.989375 
L 581.21478 21.789375 
" style="fill:none;stroke:#cccccc;stroke-linecap:round;stroke-width:0.8;"/>
     </g>
     <g id="text_9">
      <!-- 2021-07 -->
      <g style="fill:#262626;" transform="translate(562.867124 313.147188)scale(0.1 -0.1)">
       <use xlink:href="#ArialMT-32"/>
       <use x="55.615234" xlink:href="#ArialMT-30"/>
       <use x="111.230469" xlink:href="#ArialMT-32"/>
       <use x="166.845703" xlink:href="#ArialMT-31"/>
       <use x="222.460938" xlink:href="#ArialMT-2d"/>
       <use x="255.761719" xlink:href="#ArialMT-30"/>
       <use x="311.376953" xlink:href="#ArialMT-37"/>
      </g>
     </g>
    </g>
   </g>
   <g id="matplotlib.axis_2">
    <g id="ytick_1">
     <g id="line2d_10">
      <path clip-path="url(#pfaf2beb769)" d="M 42.004687 286.389375 
L 600.004688 286.389375 
" style="fill:none;stroke:#cccccc;stroke-linecap:round;stroke-width:0.8;"/>
     </g>
     <g id="text_10">
      <!-- 0 -->
      <g style="fill:#262626;" transform="translate(29.44375 289.968281)scale(0.1 -0.1)">
       <use xlink:href="#ArialMT-30"/>
      </g>
     </g>
    </g>
    <g id="ytick_2">
     <g id="line2d_11">
      <path clip-path="url(#pfaf2beb769)" d="M 42.004687 232.501769 
L 600.004688 232.501769 
" style="fill:none;stroke:#cccccc;stroke-linecap:round;stroke-width:0.8;"/>
     </g>
     <g id="text_11">
      <!-- 10000 -->
      <g style="fill:#262626;" transform="translate(7.2 236.080675)scale(0.1 -0.1)">
       <use xlink:href="#ArialMT-31"/>
       <use x="55.615234" xlink:href="#ArialMT-30"/>
       <use x="111.230469" xlink:href="#ArialMT-30"/>
       <use x="166.845703" xlink:href="#ArialMT-30"/>
       <use x="222.460938" xlink:href="#ArialMT-30"/>
      </g>
     </g>
    </g>
    <g id="ytick_3">
     <g id="line2d_12">
      <path clip-path="url(#pfaf2beb769)" d="M 42.004687 178.614163 
L 600.004688 178.614163 
" style="fill:none;stroke:#cccccc;stroke-linecap:round;stroke-width:0.8;"/>
     </g>
     <g id="text_12">
      <!-- 20000 -->
      <g style="fill:#262626;" transform="translate(7.2 182.19307)scale(0.1 -0.1)">
       <use xlink:href="#ArialMT-32"/>
       <use x="55.615234" xlink:href="#ArialMT-30"/>
       <use x="111.230469" xlink:href="#ArialMT-30"/>
       <use x="166.845703" xlink:href="#ArialMT-30"/>
       <use x="222.460938" xlink:href="#ArialMT-30"/>
      </g>
     </g>
    </g>
    <g id="ytick_4">
     <g id="line2d_13">
      <path clip-path="url(#pfaf2beb769)" d="M 42.004687 124.726557 
L 600.004688 124.726557 
" style="fill:none;stroke:#cccccc;stroke-linecap:round;stroke-width:0.8;"/>
     </g>
     <g id="text_13">
      <!-- 30000 -->
      <g style="fill:#262626;" transform="translate(7.2 128.305464)scale(0.1 -0.1)">
       <use xlink:href="#ArialMT-33"/>
       <use x="55.615234" xlink:href="#ArialMT-30"/>
       <use x="111.230469" xlink:href="#ArialMT-30"/>
       <use x="166.845703" xlink:href="#ArialMT-30"/>
       <use x="222.460938" xlink:href="#ArialMT-30"/>
      </g>
     </g>
    </g>
    <g id="ytick_5">
     <g id="line2d_14">
      <path clip-path="url(#pfaf2beb769)" d="M 42.004687 70.838952 
L 600.004688 70.838952 
" style="fill:none;stroke:#cccccc;stroke-linecap:round;stroke-width:0.8;"/>
     </g>
     <g id="text_14">
      <!-- 40000 -->
      <g style="fill:#262626;" transform="translate(7.2 74.417858)scale(0.1 -0.1)">
       <defs>
        <path d="M 2069 0 
L 2069 1097 
L 81 1097 
L 81 1613 
L 2172 4581 
L 2631 4581 
L 2631 1613 
L 3250 1613 
L 3250 1097 
L 2631 1097 
L 2631 0 
L 2069 0 
z
M 2069 1613 
L 2069 3678 
L 634 1613 
L 2069 1613 
z
" id="ArialMT-34" transform="scale(0.015625)"/>
       </defs>
       <use xlink:href="#ArialMT-34"/>
       <use x="55.615234" xlink:href="#ArialMT-30"/>
       <use x="111.230469" xlink:href="#ArialMT-30"/>
       <use x="166.845703" xlink:href="#ArialMT-30"/>
       <use x="222.460938" xlink:href="#ArialMT-30"/>
      </g>
     </g>
    </g>
   </g>
   <g id="line2d_15">
    <path clip-path="url(#pfaf2beb769)" d="M 67.368324 286.389375 
L 78.324538 286.2816 
L 81.611403 286.033717 
L 84.898267 285.828944 
L 85.993888 285.828944 
L 91.471996 285.354733 
L 93.663238 285.290068 
L 95.854481 284.93441 
L 100.236967 284.594918 
L 103.523831 284.433255 
L 105.715074 284.056042 
L 106.810696 283.721939 
L 109.001939 283.694995 
L 115.575667 282.80046 
L 116.671289 282.730407 
L 117.76691 282.531022 
L 119.958153 281.447882 
L 121.053774 281.103001 
L 122.149396 280.353963 
L 124.340639 279.831253 
L 126.531882 279.383986 
L 128.723125 278.613393 
L 129.818746 278.225403 
L 132.009989 277.718859 
L 133.10561 276.835102 
L 134.201232 276.134564 
L 135.296853 275.795072 
L 136.392475 275.196919 
L 137.488096 274.210776 
L 138.583718 273.639567 
L 139.679339 271.839721 
L 140.77496 270.805079 
L 141.870582 269.985988 
L 142.966203 269.307004 
L 144.061825 268.822015 
L 145.157446 267.84665 
L 146.253068 267.431715 
L 147.348689 266.774286 
L 148.444311 265.771977 
L 151.731175 262.425557 
L 152.826796 261.504079 
L 153.922418 261.116088 
L 155.018039 261.099922 
L 156.113661 260.561046 
L 157.209282 259.332408 
L 158.304903 258.432485 
L 159.400525 256.562585 
L 160.496146 255.436334 
L 162.687389 252.14919 
L 163.783011 251.400153 
L 164.878632 250.419398 
L 165.974254 249.185372 
L 170.356739 244.84742 
L 171.452361 244.292377 
L 172.547982 243.54334 
L 174.739225 241.75966 
L 175.834847 240.444802 
L 176.930468 239.84665 
L 178.026089 239.614933 
L 179.121711 238.386296 
L 180.217332 237.885141 
L 182.408575 236.408621 
L 183.504197 235.271592 
L 184.599818 233.75735 
L 185.69544 231.828174 
L 186.791061 227.479444 
L 190.077925 226.283139 
L 191.173547 224.747343 
L 192.269168 224.316242 
L 193.36479 224.316242 
L 194.460411 223.502539 
L 195.556032 222.462508 
L 196.651654 221.163817 
L 197.747275 219.153809 
L 198.842897 218.043724 
L 199.938518 217.133024 
L 201.03414 215.828944 
L 202.129761 213.797381 
L 203.225383 212.924402 
L 204.321004 212.471746 
L 205.416625 211.808929 
L 206.512247 210.919783 
L 207.607868 209.868975 
L 210.894733 208.548728 
L 211.990354 207.966742 
L 213.085976 207.589529 
L 214.181597 206.765049 
L 215.277218 205.676519 
L 216.37284 205.008313 
L 217.468461 204.663432 
L 218.564083 204.119167 
L 220.755326 201.683447 
L 221.850947 200.266203 
L 222.946569 198.58491 
L 224.04219 197.776596 
L 225.137811 197.345495 
L 226.233433 196.052193 
L 227.329054 193.929021 
L 228.424676 193.250037 
L 230.615919 192.296226 
L 231.71154 192.23695 
L 233.902783 191.213086 
L 236.094026 189.774286 
L 237.189647 189.353963 
L 239.38089 189.283909 
L 242.667754 187.958274 
L 243.763376 187.925942 
L 244.858997 187.505618 
L 249.241483 186.605695 
L 250.337105 186.524864 
L 251.432726 186.088374 
L 253.623969 185.71655 
L 256.910833 185.711161 
L 258.006455 185.231561 
L 260.197698 184.703463 
L 262.38894 184.62802 
L 264.580183 183.873594 
L 265.675805 183.523324 
L 266.771426 183.022169 
L 268.962669 182.41324 
L 271.153912 182.375518 
L 272.249533 181.664202 
L 274.440776 180.958274 
L 275.536398 180.866665 
L 276.632019 180.613393 
L 277.727641 180.613393 
L 278.823262 180.50023 
L 281.014505 179.594918 
L 283.205748 179.147651 
L 284.301369 178.818936 
L 286.492612 178.581831 
L 287.588234 178.263894 
L 288.683855 177.525634 
L 290.875098 175.504848 
L 294.161962 175.467127 
L 295.257584 174.163047 
L 298.544448 172.71347 
L 299.640069 172.476365 
L 300.735691 172.476365 
L 301.831312 170.611854 
L 302.926934 169.825095 
L 304.022555 169.393994 
L 307.309419 167.610314 
L 308.405041 167.610314 
L 309.500662 167.098382 
L 310.596284 166.333178 
L 312.787527 164.4525 
L 313.883148 163.962123 
L 316.074391 163.929791 
L 317.170012 163.622631 
L 320.456877 162.043724 
L 321.552498 161.186912 
L 322.64812 160.728867 
L 323.743741 160.631869 
L 328.126227 158.093763 
L 329.221848 157.32317 
L 331.413091 156.886681 
L 333.604334 156.213086 
L 334.699956 155.399383 
L 335.795577 154.785064 
L 336.891198 153.955195 
L 339.082441 153.098382 
L 340.178063 152.311623 
L 341.273684 151.826634 
L 343.464927 149.0622 
L 344.560548 148.313163 
L 345.65617 148.022169 
L 346.751791 148.022169 
L 347.847413 147.6719 
L 351.134277 145.257735 
L 352.229899 144.654194 
L 354.421141 144.109929 
L 355.516763 143.377058 
L 356.612384 142.816627 
L 357.708006 141.949036 
L 358.803627 141.275441 
L 359.899249 139.895918 
L 360.99487 137.390145 
L 363.186113 133.995226 
L 364.281734 133.300076 
L 366.472977 132.303155 
L 367.568599 131.769668 
L 368.66422 130.972131 
L 369.759842 129.959044 
L 370.855463 129.247728 
L 374.142327 128.191531 
L 377.429192 127.609544 
L 378.524813 127.183832 
L 379.620435 126.483293 
L 380.716056 125.965972 
L 382.907299 125.475595 
L 385.098542 124.117628 
L 386.194163 123.530253 
L 387.289785 123.271592 
L 390.576649 121.972901 
L 391.67227 121.380137 
L 392.767892 120.113778 
L 393.863513 119.531792 
L 394.959135 118.707312 
L 398.245999 115.835102 
L 399.341621 114.536411 
L 400.437242 113.027558 
L 401.532863 112.122246 
L 403.724106 110.112239 
L 404.819728 108.678828 
L 405.915349 108.016011 
L 407.010971 106.997535 
L 408.106592 106.738875 
L 409.202214 106.140722 
L 410.297835 104.637258 
L 411.393456 103.942108 
L 412.489078 103.085295 
L 422.349671 98.930561 
L 423.445292 97.836642 
L 425.636535 96.947497 
L 427.827778 95.864356 
L 430.019021 95.228482 
L 432.210264 95.007543 
L 433.305885 94.269283 
L 434.401507 93.14842 
L 436.59275 92.28083 
L 437.688371 91.919783 
L 438.783992 91.909005 
L 440.975235 91.391684 
L 442.070857 90.971361 
L 443.166478 90.798921 
L 445.357721 90.15227 
L 449.740207 89.268513 
L 451.93145 88.632639 
L 453.027071 88.066819 
L 454.122693 87.883601 
L 455.218314 87.463278 
L 456.313935 87.199229 
L 458.505178 86.865126 
L 459.6008 86.5418 
L 460.696421 86.407081 
L 463.983286 85.658043 
L 465.078907 85.45327 
L 467.27015 84.580291 
L 468.365771 83.949806 
L 469.461393 83.728867 
L 470.557014 83.082216 
L 471.652636 82.731946 
L 472.748257 82.645726 
L 473.843879 82.440953 
L 476.035121 81.438644 
L 477.130743 81.260815 
L 478.226364 80.732716 
L 480.417607 79.994456 
L 481.513229 79.789683 
L 482.60885 78.19461 
L 483.704472 76.109159 
L 484.800093 75.376288 
L 485.895714 74.837412 
L 488.086957 73.457889 
L 489.182579 72.272362 
L 490.2782 71.614933 
L 492.469443 69.524094 
L 494.660686 67.373979 
L 495.756307 66.775826 
L 496.851929 64.76043 
L 497.94755 63.957504 
L 499.043172 63.666511 
L 501.234415 62.674979 
L 502.330036 62.066049 
L 503.425657 61.898998 
L 504.521279 61.047574 
L 506.712522 59.689606 
L 507.808143 59.371669 
L 509.999386 57.544879 
L 511.095008 56.973671 
L 514.381872 55.788143 
L 515.477493 55.507928 
L 517.668736 55.233101 
L 522.051222 54.370899 
L 523.146843 53.923632 
L 524.242465 53.724248 
L 525.338086 53.357812 
L 527.529329 51.999845 
L 528.624951 51.617243 
L 529.720572 51.49869 
L 530.816193 50.426327 
L 531.911815 50.113778 
L 534.103058 49.079136 
L 535.198679 48.394764 
L 536.294301 47.872054 
L 538.485544 47.155349 
L 539.581165 46.303925 
L 543.963651 44.665741 
L 546.154894 44.218474 
L 547.250515 43.749652 
L 548.346137 43.480214 
L 549.441758 42.558736 
L 550.537379 42.348574 
L 551.633001 41.949806 
L 553.824244 41.534872 
L 559.302351 39.794302 
L 560.397972 39.347035 
L 561.493594 39.131484 
L 564.780458 38.069898 
L 566.971701 37.223863 
L 569.162944 36.862816 
L 570.258565 36.146111 
L 571.354187 35.688066 
L 572.449808 34.939029 
L 574.641051 34.389375 
L 574.641051 34.389375 
" style="fill:none;stroke:#1f77b4;stroke-linecap:round;stroke-width:1.5;"/>
   </g>
   <g id="patch_3">
    <path d="M 42.004687 298.989375 
L 42.004687 21.789375 
" style="fill:none;stroke:#cccccc;stroke-linecap:square;stroke-linejoin:miter;stroke-width:0.8;"/>
   </g>
   <g id="patch_4">
    <path d="M 600.004688 298.989375 
L 600.004688 21.789375 
" style="fill:none;stroke:#cccccc;stroke-linecap:square;stroke-linejoin:miter;stroke-width:0.8;"/>
   </g>
   <g id="patch_5">
    <path d="M 42.004688 298.989375 
L 600.004688 298.989375 
" style="fill:none;stroke:#cccccc;stroke-linecap:square;stroke-linejoin:miter;stroke-width:0.8;"/>
   </g>
   <g id="patch_6">
    <path d="M 42.004688 21.789375 
L 600.004688 21.789375 
" style="fill:none;stroke:#cccccc;stroke-linecap:square;stroke-linejoin:miter;stroke-width:0.8;"/>
   </g>
   <g id="text_15">
    <!-- Casos Confirmados -->
    <g style="fill:#262626;" transform="translate(268.32 15.789375)scale(0.12 -0.12)">
     <defs>
      <path d="M 3763 1606 
L 4369 1453 
Q 4178 706 3683 314 
Q 3188 -78 2472 -78 
Q 1731 -78 1267 223 
Q 803 525 561 1097 
Q 319 1669 319 2325 
Q 319 3041 592 3573 
Q 866 4106 1370 4382 
Q 1875 4659 2481 4659 
Q 3169 4659 3637 4309 
Q 4106 3959 4291 3325 
L 3694 3184 
Q 3534 3684 3231 3912 
Q 2928 4141 2469 4141 
Q 1941 4141 1586 3887 
Q 1231 3634 1087 3207 
Q 944 2781 944 2328 
Q 944 1744 1114 1308 
Q 1284 872 1643 656 
Q 2003 441 2422 441 
Q 2931 441 3284 734 
Q 3638 1028 3763 1606 
z
" id="ArialMT-43" transform="scale(0.015625)"/>
      <path d="M 2588 409 
Q 2275 144 1986 34 
Q 1697 -75 1366 -75 
Q 819 -75 525 192 
Q 231 459 231 875 
Q 231 1119 342 1320 
Q 453 1522 633 1644 
Q 813 1766 1038 1828 
Q 1203 1872 1538 1913 
Q 2219 1994 2541 2106 
Q 2544 2222 2544 2253 
Q 2544 2597 2384 2738 
Q 2169 2928 1744 2928 
Q 1347 2928 1158 2789 
Q 969 2650 878 2297 
L 328 2372 
Q 403 2725 575 2942 
Q 747 3159 1072 3276 
Q 1397 3394 1825 3394 
Q 2250 3394 2515 3294 
Q 2781 3194 2906 3042 
Q 3031 2891 3081 2659 
Q 3109 2516 3109 2141 
L 3109 1391 
Q 3109 606 3145 398 
Q 3181 191 3288 0 
L 2700 0 
Q 2613 175 2588 409 
z
M 2541 1666 
Q 2234 1541 1622 1453 
Q 1275 1403 1131 1340 
Q 988 1278 909 1158 
Q 831 1038 831 891 
Q 831 666 1001 516 
Q 1172 366 1500 366 
Q 1825 366 2078 508 
Q 2331 650 2450 897 
Q 2541 1088 2541 1459 
L 2541 1666 
z
" id="ArialMT-61" transform="scale(0.015625)"/>
      <path d="M 197 991 
L 753 1078 
Q 800 744 1014 566 
Q 1228 388 1613 388 
Q 2000 388 2187 545 
Q 2375 703 2375 916 
Q 2375 1106 2209 1216 
Q 2094 1291 1634 1406 
Q 1016 1563 777 1677 
Q 538 1791 414 1992 
Q 291 2194 291 2438 
Q 291 2659 392 2848 
Q 494 3038 669 3163 
Q 800 3259 1026 3326 
Q 1253 3394 1513 3394 
Q 1903 3394 2198 3281 
Q 2494 3169 2634 2976 
Q 2775 2784 2828 2463 
L 2278 2388 
Q 2241 2644 2061 2787 
Q 1881 2931 1553 2931 
Q 1166 2931 1000 2803 
Q 834 2675 834 2503 
Q 834 2394 903 2306 
Q 972 2216 1119 2156 
Q 1203 2125 1616 2013 
Q 2213 1853 2448 1751 
Q 2684 1650 2818 1456 
Q 2953 1263 2953 975 
Q 2953 694 2789 445 
Q 2625 197 2315 61 
Q 2006 -75 1616 -75 
Q 969 -75 630 194 
Q 291 463 197 991 
z
" id="ArialMT-73" transform="scale(0.015625)"/>
      <path d="M 213 1659 
Q 213 2581 725 3025 
Q 1153 3394 1769 3394 
Q 2453 3394 2887 2945 
Q 3322 2497 3322 1706 
Q 3322 1066 3130 698 
Q 2938 331 2570 128 
Q 2203 -75 1769 -75 
Q 1072 -75 642 372 
Q 213 819 213 1659 
z
M 791 1659 
Q 791 1022 1069 705 
Q 1347 388 1769 388 
Q 2188 388 2466 706 
Q 2744 1025 2744 1678 
Q 2744 2294 2464 2611 
Q 2184 2928 1769 2928 
Q 1347 2928 1069 2612 
Q 791 2297 791 1659 
z
" id="ArialMT-6f" transform="scale(0.015625)"/>
      <path id="ArialMT-20" transform="scale(0.015625)"/>
      <path d="M 422 0 
L 422 3319 
L 928 3319 
L 928 2847 
Q 1294 3394 1984 3394 
Q 2284 3394 2536 3286 
Q 2788 3178 2913 3003 
Q 3038 2828 3088 2588 
Q 3119 2431 3119 2041 
L 3119 0 
L 2556 0 
L 2556 2019 
Q 2556 2363 2490 2533 
Q 2425 2703 2258 2804 
Q 2091 2906 1866 2906 
Q 1506 2906 1245 2678 
Q 984 2450 984 1813 
L 984 0 
L 422 0 
z
" id="ArialMT-6e" transform="scale(0.015625)"/>
      <path d="M 556 0 
L 556 2881 
L 59 2881 
L 59 3319 
L 556 3319 
L 556 3672 
Q 556 4006 616 4169 
Q 697 4388 901 4523 
Q 1106 4659 1475 4659 
Q 1713 4659 2000 4603 
L 1916 4113 
Q 1741 4144 1584 4144 
Q 1328 4144 1222 4034 
Q 1116 3925 1116 3625 
L 1116 3319 
L 1763 3319 
L 1763 2881 
L 1116 2881 
L 1116 0 
L 556 0 
z
" id="ArialMT-66" transform="scale(0.015625)"/>
      <path d="M 425 3934 
L 425 4581 
L 988 4581 
L 988 3934 
L 425 3934 
z
M 425 0 
L 425 3319 
L 988 3319 
L 988 0 
L 425 0 
z
" id="ArialMT-69" transform="scale(0.015625)"/>
      <path d="M 416 0 
L 416 3319 
L 922 3319 
L 922 2816 
Q 1116 3169 1280 3281 
Q 1444 3394 1641 3394 
Q 1925 3394 2219 3213 
L 2025 2691 
Q 1819 2813 1613 2813 
Q 1428 2813 1281 2702 
Q 1134 2591 1072 2394 
Q 978 2094 978 1738 
L 978 0 
L 416 0 
z
" id="ArialMT-72" transform="scale(0.015625)"/>
      <path d="M 422 0 
L 422 3319 
L 925 3319 
L 925 2853 
Q 1081 3097 1340 3245 
Q 1600 3394 1931 3394 
Q 2300 3394 2536 3241 
Q 2772 3088 2869 2813 
Q 3263 3394 3894 3394 
Q 4388 3394 4653 3120 
Q 4919 2847 4919 2278 
L 4919 0 
L 4359 0 
L 4359 2091 
Q 4359 2428 4304 2576 
Q 4250 2725 4106 2815 
Q 3963 2906 3769 2906 
Q 3419 2906 3187 2673 
Q 2956 2441 2956 1928 
L 2956 0 
L 2394 0 
L 2394 2156 
Q 2394 2531 2256 2718 
Q 2119 2906 1806 2906 
Q 1569 2906 1367 2781 
Q 1166 2656 1075 2415 
Q 984 2175 984 1722 
L 984 0 
L 422 0 
z
" id="ArialMT-6d" transform="scale(0.015625)"/>
      <path d="M 2575 0 
L 2575 419 
Q 2259 -75 1647 -75 
Q 1250 -75 917 144 
Q 584 363 401 755 
Q 219 1147 219 1656 
Q 219 2153 384 2558 
Q 550 2963 881 3178 
Q 1213 3394 1622 3394 
Q 1922 3394 2156 3267 
Q 2391 3141 2538 2938 
L 2538 4581 
L 3097 4581 
L 3097 0 
L 2575 0 
z
M 797 1656 
Q 797 1019 1065 703 
Q 1334 388 1700 388 
Q 2069 388 2326 689 
Q 2584 991 2584 1609 
Q 2584 2291 2321 2609 
Q 2059 2928 1675 2928 
Q 1300 2928 1048 2622 
Q 797 2316 797 1656 
z
" id="ArialMT-64" transform="scale(0.015625)"/>
     </defs>
     <use xlink:href="#ArialMT-43"/>
     <use x="72.216797" xlink:href="#ArialMT-61"/>
     <use x="127.832031" xlink:href="#ArialMT-73"/>
     <use x="177.832031" xlink:href="#ArialMT-6f"/>
     <use x="233.447266" xlink:href="#ArialMT-73"/>
     <use x="283.447266" xlink:href="#ArialMT-20"/>
     <use x="311.230469" xlink:href="#ArialMT-43"/>
     <use x="383.447266" xlink:href="#ArialMT-6f"/>
     <use x="439.0625" xlink:href="#ArialMT-6e"/>
     <use x="494.677734" xlink:href="#ArialMT-66"/>
     <use x="522.460938" xlink:href="#ArialMT-69"/>
     <use x="544.677734" xlink:href="#ArialMT-72"/>
     <use x="577.978516" xlink:href="#ArialMT-6d"/>
     <use x="661.279297" xlink:href="#ArialMT-61"/>
     <use x="716.894531" xlink:href="#ArialMT-64"/>
     <use x="772.509766" xlink:href="#ArialMT-6f"/>
     <use x="828.125" xlink:href="#ArialMT-73"/>
    </g>
   </g>
  </g>
 </g>
 <defs>
  <clipPath id="pfaf2beb769">
   <rect height="277.2" width="558" x="42.004687" y="21.789375"/>
  </clipPath>
 </defs>
</svg>
