<?xml version="1.0" encoding="utf-8" standalone="no"?>
<!DOCTYPE svg PUBLIC "-//W3C//DTD SVG 1.1//EN"
  "http://www.w3.org/Graphics/SVG/1.1/DTD/svg11.dtd">
<svg xmlns:xlink="http://www.w3.org/1999/xlink" width="705.6pt" height="340.273125pt" viewBox="0 0 705.6 340.273125" xmlns="http://www.w3.org/2000/svg" version="1.1">
 <metadata>
  <rdf:RDF xmlns:dc="http://purl.org/dc/elements/1.1/" xmlns:cc="http://creativecommons.org/ns#" xmlns:rdf="http://www.w3.org/1999/02/22-rdf-syntax-ns#">
   <cc:Work>
    <dc:type rdf:resource="http://purl.org/dc/dcmitype/StillImage"/>
    <dc:date>2022-02-10T16:53:18.785571</dc:date>
    <dc:format>image/svg+xml</dc:format>
    <dc:creator>
     <cc:Agent>
      <dc:title>Matplotlib v3.5.1, https://matplotlib.org/</dc:title>
     </cc:Agent>
    </dc:creator>
   </cc:Work>
  </rdf:RDF>
 </metadata>
 <defs>
  <style type="text/css">*{stroke-linejoin: round; stroke-linecap: butt}</style>
 </defs>
 <g id="figure_1">
  <g id="patch_1">
   <path d="M 0 340.273125 
L 705.6 340.273125 
L 705.6 0 
L 0 0 
z
" style="fill: #ffffff"/>
  </g>
  <g id="axes_1">
   <g id="patch_2">
    <path d="M 82.8 298.989375 
L 640.8 298.989375 
L 640.8 21.789375 
L 82.8 21.789375 
z
" style="fill: #ffffff"/>
   </g>
   <g id="matplotlib.axis_1">
    <g id="xtick_1">
     <g id="line2d_1">
      <path d="M 117.47341 298.989375 
L 117.47341 21.789375 
" clip-path="url(#pe15b724d07)" style="fill: none; stroke: #cccccc; stroke-width: 0.8; stroke-linecap: round"/>
     </g>
     <g id="text_1">
      <!-- 2020-05 -->
      <g style="fill: #262626" transform="translate(99.125754 313.147188)scale(0.1 -0.1)">
       <defs>
        <path id="ArialMT-32" d="M 3222 541 
L 3222 0 
L 194 0 
Q 188 203 259 391 
Q 375 700 629 1000 
Q 884 1300 1366 1694 
Q 2113 2306 2375 2664 
Q 2638 3022 2638 3341 
Q 2638 3675 2398 3904 
Q 2159 4134 1775 4134 
Q 1369 4134 1125 3890 
Q 881 3647 878 3216 
L 300 3275 
Q 359 3922 746 4261 
Q 1134 4600 1788 4600 
Q 2447 4600 2831 4234 
Q 3216 3869 3216 3328 
Q 3216 3053 3103 2787 
Q 2991 2522 2730 2228 
Q 2469 1934 1863 1422 
Q 1356 997 1212 845 
Q 1069 694 975 541 
L 3222 541 
z
" transform="scale(0.015625)"/>
        <path id="ArialMT-30" d="M 266 2259 
Q 266 3072 433 3567 
Q 600 4063 929 4331 
Q 1259 4600 1759 4600 
Q 2128 4600 2406 4451 
Q 2684 4303 2865 4023 
Q 3047 3744 3150 3342 
Q 3253 2941 3253 2259 
Q 3253 1453 3087 958 
Q 2922 463 2592 192 
Q 2263 -78 1759 -78 
Q 1097 -78 719 397 
Q 266 969 266 2259 
z
M 844 2259 
Q 844 1131 1108 757 
Q 1372 384 1759 384 
Q 2147 384 2411 759 
Q 2675 1134 2675 2259 
Q 2675 3391 2411 3762 
Q 2147 4134 1753 4134 
Q 1366 4134 1134 3806 
Q 844 3388 844 2259 
z
" transform="scale(0.015625)"/>
        <path id="ArialMT-2d" d="M 203 1375 
L 203 1941 
L 1931 1941 
L 1931 1375 
L 203 1375 
z
" transform="scale(0.015625)"/>
        <path id="ArialMT-35" d="M 266 1200 
L 856 1250 
Q 922 819 1161 601 
Q 1400 384 1738 384 
Q 2144 384 2425 690 
Q 2706 997 2706 1503 
Q 2706 1984 2436 2262 
Q 2166 2541 1728 2541 
Q 1456 2541 1237 2417 
Q 1019 2294 894 2097 
L 366 2166 
L 809 4519 
L 3088 4519 
L 3088 3981 
L 1259 3981 
L 1013 2750 
Q 1425 3038 1878 3038 
Q 2478 3038 2890 2622 
Q 3303 2206 3303 1553 
Q 3303 931 2941 478 
Q 2500 -78 1738 -78 
Q 1113 -78 717 272 
Q 322 622 266 1200 
z
" transform="scale(0.015625)"/>
       </defs>
       <use xlink:href="#ArialMT-32"/>
       <use xlink:href="#ArialMT-30" x="55.615234"/>
       <use xlink:href="#ArialMT-32" x="111.230469"/>
       <use xlink:href="#ArialMT-30" x="166.845703"/>
       <use xlink:href="#ArialMT-2d" x="222.460938"/>
       <use xlink:href="#ArialMT-30" x="255.761719"/>
       <use xlink:href="#ArialMT-35" x="311.376953"/>
      </g>
     </g>
    </g>
    <g id="xtick_2">
     <g id="line2d_2">
      <path d="M 166.661272 298.989375 
L 166.661272 21.789375 
" clip-path="url(#pe15b724d07)" style="fill: none; stroke: #cccccc; stroke-width: 0.8; stroke-linecap: round"/>
     </g>
     <g id="text_2">
      <!-- 2020-07 -->
      <g style="fill: #262626" transform="translate(148.313615 313.147188)scale(0.1 -0.1)">
       <defs>
        <path id="ArialMT-37" d="M 303 3981 
L 303 4522 
L 3269 4522 
L 3269 4084 
Q 2831 3619 2401 2847 
Q 1972 2075 1738 1259 
Q 1569 684 1522 0 
L 944 0 
Q 953 541 1156 1306 
Q 1359 2072 1739 2783 
Q 2119 3494 2547 3981 
L 303 3981 
z
" transform="scale(0.015625)"/>
       </defs>
       <use xlink:href="#ArialMT-32"/>
       <use xlink:href="#ArialMT-30" x="55.615234"/>
       <use xlink:href="#ArialMT-32" x="111.230469"/>
       <use xlink:href="#ArialMT-30" x="166.845703"/>
       <use xlink:href="#ArialMT-2d" x="222.460938"/>
       <use xlink:href="#ArialMT-30" x="255.761719"/>
       <use xlink:href="#ArialMT-37" x="311.376953"/>
      </g>
     </g>
    </g>
    <g id="xtick_3">
     <g id="line2d_3">
      <path d="M 216.655491 298.989375 
L 216.655491 21.789375 
" clip-path="url(#pe15b724d07)" style="fill: none; stroke: #cccccc; stroke-width: 0.8; stroke-linecap: round"/>
     </g>
     <g id="text_3">
      <!-- 2020-09 -->
      <g style="fill: #262626" transform="translate(198.307835 313.147188)scale(0.1 -0.1)">
       <defs>
        <path id="ArialMT-39" d="M 350 1059 
L 891 1109 
Q 959 728 1153 556 
Q 1347 384 1650 384 
Q 1909 384 2104 503 
Q 2300 622 2425 820 
Q 2550 1019 2634 1356 
Q 2719 1694 2719 2044 
Q 2719 2081 2716 2156 
Q 2547 1888 2255 1720 
Q 1963 1553 1622 1553 
Q 1053 1553 659 1965 
Q 266 2378 266 3053 
Q 266 3750 677 4175 
Q 1088 4600 1706 4600 
Q 2153 4600 2523 4359 
Q 2894 4119 3086 3673 
Q 3278 3228 3278 2384 
Q 3278 1506 3087 986 
Q 2897 466 2520 194 
Q 2144 -78 1638 -78 
Q 1100 -78 759 220 
Q 419 519 350 1059 
z
M 2653 3081 
Q 2653 3566 2395 3850 
Q 2138 4134 1775 4134 
Q 1400 4134 1122 3828 
Q 844 3522 844 3034 
Q 844 2597 1108 2323 
Q 1372 2050 1759 2050 
Q 2150 2050 2401 2323 
Q 2653 2597 2653 3081 
z
" transform="scale(0.015625)"/>
       </defs>
       <use xlink:href="#ArialMT-32"/>
       <use xlink:href="#ArialMT-30" x="55.615234"/>
       <use xlink:href="#ArialMT-32" x="111.230469"/>
       <use xlink:href="#ArialMT-30" x="166.845703"/>
       <use xlink:href="#ArialMT-2d" x="222.460938"/>
       <use xlink:href="#ArialMT-30" x="255.761719"/>
       <use xlink:href="#ArialMT-39" x="311.376953"/>
      </g>
     </g>
    </g>
    <g id="xtick_4">
     <g id="line2d_4">
      <path d="M 265.843353 298.989375 
L 265.843353 21.789375 
" clip-path="url(#pe15b724d07)" style="fill: none; stroke: #cccccc; stroke-width: 0.8; stroke-linecap: round"/>
     </g>
     <g id="text_4">
      <!-- 2020-11 -->
      <g style="fill: #262626" transform="translate(247.864446 313.147188)scale(0.1 -0.1)">
       <defs>
        <path id="ArialMT-31" d="M 2384 0 
L 1822 0 
L 1822 3584 
Q 1619 3391 1289 3197 
Q 959 3003 697 2906 
L 697 3450 
Q 1169 3672 1522 3987 
Q 1875 4303 2022 4600 
L 2384 4600 
L 2384 0 
z
" transform="scale(0.015625)"/>
       </defs>
       <use xlink:href="#ArialMT-32"/>
       <use xlink:href="#ArialMT-30" x="55.615234"/>
       <use xlink:href="#ArialMT-32" x="111.230469"/>
       <use xlink:href="#ArialMT-30" x="166.845703"/>
       <use xlink:href="#ArialMT-2d" x="222.460938"/>
       <use xlink:href="#ArialMT-31" x="255.761719"/>
       <use xlink:href="#ArialMT-31" x="304.001953"/>
      </g>
     </g>
    </g>
    <g id="xtick_5">
     <g id="line2d_5">
      <path d="M 315.031214 298.989375 
L 315.031214 21.789375 
" clip-path="url(#pe15b724d07)" style="fill: none; stroke: #cccccc; stroke-width: 0.8; stroke-linecap: round"/>
     </g>
     <g id="text_5">
      <!-- 2021-01 -->
      <g style="fill: #262626" transform="translate(296.683558 313.147188)scale(0.1 -0.1)">
       <use xlink:href="#ArialMT-32"/>
       <use xlink:href="#ArialMT-30" x="55.615234"/>
       <use xlink:href="#ArialMT-32" x="111.230469"/>
       <use xlink:href="#ArialMT-31" x="166.845703"/>
       <use xlink:href="#ArialMT-2d" x="222.460938"/>
       <use xlink:href="#ArialMT-30" x="255.761719"/>
       <use xlink:href="#ArialMT-31" x="311.376953"/>
      </g>
     </g>
    </g>
    <g id="xtick_6">
     <g id="line2d_6">
      <path d="M 362.606358 298.989375 
L 362.606358 21.789375 
" clip-path="url(#pe15b724d07)" style="fill: none; stroke: #cccccc; stroke-width: 0.8; stroke-linecap: round"/>
     </g>
     <g id="text_6">
      <!-- 2021-03 -->
      <g style="fill: #262626" transform="translate(344.258702 313.147188)scale(0.1 -0.1)">
       <defs>
        <path id="ArialMT-33" d="M 269 1209 
L 831 1284 
Q 928 806 1161 595 
Q 1394 384 1728 384 
Q 2125 384 2398 659 
Q 2672 934 2672 1341 
Q 2672 1728 2419 1979 
Q 2166 2231 1775 2231 
Q 1616 2231 1378 2169 
L 1441 2663 
Q 1497 2656 1531 2656 
Q 1891 2656 2178 2843 
Q 2466 3031 2466 3422 
Q 2466 3731 2256 3934 
Q 2047 4138 1716 4138 
Q 1388 4138 1169 3931 
Q 950 3725 888 3313 
L 325 3413 
Q 428 3978 793 4289 
Q 1159 4600 1703 4600 
Q 2078 4600 2393 4439 
Q 2709 4278 2876 4000 
Q 3044 3722 3044 3409 
Q 3044 3113 2884 2869 
Q 2725 2625 2413 2481 
Q 2819 2388 3044 2092 
Q 3269 1797 3269 1353 
Q 3269 753 2831 336 
Q 2394 -81 1725 -81 
Q 1122 -81 723 278 
Q 325 638 269 1209 
z
" transform="scale(0.015625)"/>
       </defs>
       <use xlink:href="#ArialMT-32"/>
       <use xlink:href="#ArialMT-30" x="55.615234"/>
       <use xlink:href="#ArialMT-32" x="111.230469"/>
       <use xlink:href="#ArialMT-31" x="166.845703"/>
       <use xlink:href="#ArialMT-2d" x="222.460938"/>
       <use xlink:href="#ArialMT-30" x="255.761719"/>
       <use xlink:href="#ArialMT-33" x="311.376953"/>
      </g>
     </g>
    </g>
    <g id="xtick_7">
     <g id="line2d_7">
      <path d="M 411.79422 298.989375 
L 411.79422 21.789375 
" clip-path="url(#pe15b724d07)" style="fill: none; stroke: #cccccc; stroke-width: 0.8; stroke-linecap: round"/>
     </g>
     <g id="text_7">
      <!-- 2021-05 -->
      <g style="fill: #262626" transform="translate(393.446563 313.147188)scale(0.1 -0.1)">
       <use xlink:href="#ArialMT-32"/>
       <use xlink:href="#ArialMT-30" x="55.615234"/>
       <use xlink:href="#ArialMT-32" x="111.230469"/>
       <use xlink:href="#ArialMT-31" x="166.845703"/>
       <use xlink:href="#ArialMT-2d" x="222.460938"/>
       <use xlink:href="#ArialMT-30" x="255.761719"/>
       <use xlink:href="#ArialMT-35" x="311.376953"/>
      </g>
     </g>
    </g>
    <g id="xtick_8">
     <g id="line2d_8">
      <path d="M 460.982081 298.989375 
L 460.982081 21.789375 
" clip-path="url(#pe15b724d07)" style="fill: none; stroke: #cccccc; stroke-width: 0.8; stroke-linecap: round"/>
     </g>
     <g id="text_8">
      <!-- 2021-07 -->
      <g style="fill: #262626" transform="translate(442.634425 313.147188)scale(0.1 -0.1)">
       <use xlink:href="#ArialMT-32"/>
       <use xlink:href="#ArialMT-30" x="55.615234"/>
       <use xlink:href="#ArialMT-32" x="111.230469"/>
       <use xlink:href="#ArialMT-31" x="166.845703"/>
       <use xlink:href="#ArialMT-2d" x="222.460938"/>
       <use xlink:href="#ArialMT-30" x="255.761719"/>
       <use xlink:href="#ArialMT-37" x="311.376953"/>
      </g>
     </g>
    </g>
    <g id="xtick_9">
     <g id="line2d_9">
      <path d="M 510.976301 298.989375 
L 510.976301 21.789375 
" clip-path="url(#pe15b724d07)" style="fill: none; stroke: #cccccc; stroke-width: 0.8; stroke-linecap: round"/>
     </g>
     <g id="text_9">
      <!-- 2021-09 -->
      <g style="fill: #262626" transform="translate(492.628644 313.147188)scale(0.1 -0.1)">
       <use xlink:href="#ArialMT-32"/>
       <use xlink:href="#ArialMT-30" x="55.615234"/>
       <use xlink:href="#ArialMT-32" x="111.230469"/>
       <use xlink:href="#ArialMT-31" x="166.845703"/>
       <use xlink:href="#ArialMT-2d" x="222.460938"/>
       <use xlink:href="#ArialMT-30" x="255.761719"/>
       <use xlink:href="#ArialMT-39" x="311.376953"/>
      </g>
     </g>
    </g>
    <g id="xtick_10">
     <g id="line2d_10">
      <path d="M 560.164162 298.989375 
L 560.164162 21.789375 
" clip-path="url(#pe15b724d07)" style="fill: none; stroke: #cccccc; stroke-width: 0.8; stroke-linecap: round"/>
     </g>
     <g id="text_10">
      <!-- 2021-11 -->
      <g style="fill: #262626" transform="translate(542.185256 313.147188)scale(0.1 -0.1)">
       <use xlink:href="#ArialMT-32"/>
       <use xlink:href="#ArialMT-30" x="55.615234"/>
       <use xlink:href="#ArialMT-32" x="111.230469"/>
       <use xlink:href="#ArialMT-31" x="166.845703"/>
       <use xlink:href="#ArialMT-2d" x="222.460938"/>
       <use xlink:href="#ArialMT-31" x="255.761719"/>
       <use xlink:href="#ArialMT-31" x="304.001953"/>
      </g>
     </g>
    </g>
    <g id="xtick_11">
     <g id="line2d_11">
      <path d="M 609.352023 298.989375 
L 609.352023 21.789375 
" clip-path="url(#pe15b724d07)" style="fill: none; stroke: #cccccc; stroke-width: 0.8; stroke-linecap: round"/>
     </g>
     <g id="text_11">
      <!-- 2022-01 -->
      <g style="fill: #262626" transform="translate(591.004367 313.147188)scale(0.1 -0.1)">
       <use xlink:href="#ArialMT-32"/>
       <use xlink:href="#ArialMT-30" x="55.615234"/>
       <use xlink:href="#ArialMT-32" x="111.230469"/>
       <use xlink:href="#ArialMT-32" x="166.845703"/>
       <use xlink:href="#ArialMT-2d" x="222.460938"/>
       <use xlink:href="#ArialMT-30" x="255.761719"/>
       <use xlink:href="#ArialMT-31" x="311.376953"/>
      </g>
     </g>
    </g>
   </g>
   <g id="matplotlib.axis_2">
    <g id="ytick_1">
     <g id="line2d_12">
      <path d="M 82.8 286.389375 
L 640.8 286.389375 
" clip-path="url(#pe15b724d07)" style="fill: none; stroke: #cccccc; stroke-width: 0.8; stroke-linecap: round"/>
     </g>
     <g id="text_12">
      <!-- 0 -->
      <g style="fill: #262626" transform="translate(70.239063 289.968281)scale(0.1 -0.1)">
       <use xlink:href="#ArialMT-30"/>
      </g>
     </g>
    </g>
    <g id="ytick_2">
     <g id="line2d_13">
      <path d="M 82.8 242.910364 
L 640.8 242.910364 
" clip-path="url(#pe15b724d07)" style="fill: none; stroke: #cccccc; stroke-width: 0.8; stroke-linecap: round"/>
     </g>
     <g id="text_13">
      <!-- 10000 -->
      <g style="fill: #262626" transform="translate(47.995312 246.48927)scale(0.1 -0.1)">
       <use xlink:href="#ArialMT-31"/>
       <use xlink:href="#ArialMT-30" x="55.615234"/>
       <use xlink:href="#ArialMT-30" x="111.230469"/>
       <use xlink:href="#ArialMT-30" x="166.845703"/>
       <use xlink:href="#ArialMT-30" x="222.460938"/>
      </g>
     </g>
    </g>
    <g id="ytick_3">
     <g id="line2d_14">
      <path d="M 82.8 199.431353 
L 640.8 199.431353 
" clip-path="url(#pe15b724d07)" style="fill: none; stroke: #cccccc; stroke-width: 0.8; stroke-linecap: round"/>
     </g>
     <g id="text_14">
      <!-- 20000 -->
      <g style="fill: #262626" transform="translate(47.995312 203.010259)scale(0.1 -0.1)">
       <use xlink:href="#ArialMT-32"/>
       <use xlink:href="#ArialMT-30" x="55.615234"/>
       <use xlink:href="#ArialMT-30" x="111.230469"/>
       <use xlink:href="#ArialMT-30" x="166.845703"/>
       <use xlink:href="#ArialMT-30" x="222.460938"/>
      </g>
     </g>
    </g>
    <g id="ytick_4">
     <g id="line2d_15">
      <path d="M 82.8 155.952342 
L 640.8 155.952342 
" clip-path="url(#pe15b724d07)" style="fill: none; stroke: #cccccc; stroke-width: 0.8; stroke-linecap: round"/>
     </g>
     <g id="text_15">
      <!-- 30000 -->
      <g style="fill: #262626" transform="translate(47.995312 159.531248)scale(0.1 -0.1)">
       <use xlink:href="#ArialMT-33"/>
       <use xlink:href="#ArialMT-30" x="55.615234"/>
       <use xlink:href="#ArialMT-30" x="111.230469"/>
       <use xlink:href="#ArialMT-30" x="166.845703"/>
       <use xlink:href="#ArialMT-30" x="222.460938"/>
      </g>
     </g>
    </g>
    <g id="ytick_5">
     <g id="line2d_16">
      <path d="M 82.8 112.473331 
L 640.8 112.473331 
" clip-path="url(#pe15b724d07)" style="fill: none; stroke: #cccccc; stroke-width: 0.8; stroke-linecap: round"/>
     </g>
     <g id="text_16">
      <!-- 40000 -->
      <g style="fill: #262626" transform="translate(47.995312 116.052237)scale(0.1 -0.1)">
       <defs>
        <path id="ArialMT-34" d="M 2069 0 
L 2069 1097 
L 81 1097 
L 81 1613 
L 2172 4581 
L 2631 4581 
L 2631 1613 
L 3250 1613 
L 3250 1097 
L 2631 1097 
L 2631 0 
L 2069 0 
z
M 2069 1613 
L 2069 3678 
L 634 1613 
L 2069 1613 
z
" transform="scale(0.015625)"/>
       </defs>
       <use xlink:href="#ArialMT-34"/>
       <use xlink:href="#ArialMT-30" x="55.615234"/>
       <use xlink:href="#ArialMT-30" x="111.230469"/>
       <use xlink:href="#ArialMT-30" x="166.845703"/>
       <use xlink:href="#ArialMT-30" x="222.460938"/>
      </g>
     </g>
    </g>
    <g id="ytick_6">
     <g id="line2d_17">
      <path d="M 82.8 68.99432 
L 640.8 68.99432 
" clip-path="url(#pe15b724d07)" style="fill: none; stroke: #cccccc; stroke-width: 0.8; stroke-linecap: round"/>
     </g>
     <g id="text_17">
      <!-- 50000 -->
      <g style="fill: #262626" transform="translate(47.995312 72.573226)scale(0.1 -0.1)">
       <use xlink:href="#ArialMT-35"/>
       <use xlink:href="#ArialMT-30" x="55.615234"/>
       <use xlink:href="#ArialMT-30" x="111.230469"/>
       <use xlink:href="#ArialMT-30" x="166.845703"/>
       <use xlink:href="#ArialMT-30" x="222.460938"/>
      </g>
     </g>
    </g>
    <g id="ytick_7">
     <g id="line2d_18">
      <path d="M 82.8 25.515309 
L 640.8 25.515309 
" clip-path="url(#pe15b724d07)" style="fill: none; stroke: #cccccc; stroke-width: 0.8; stroke-linecap: round"/>
     </g>
     <g id="text_18">
      <!-- 60000 -->
      <g style="fill: #262626" transform="translate(47.995312 29.094215)scale(0.1 -0.1)">
       <defs>
        <path id="ArialMT-36" d="M 3184 3459 
L 2625 3416 
Q 2550 3747 2413 3897 
Q 2184 4138 1850 4138 
Q 1581 4138 1378 3988 
Q 1113 3794 959 3422 
Q 806 3050 800 2363 
Q 1003 2672 1297 2822 
Q 1591 2972 1913 2972 
Q 2475 2972 2870 2558 
Q 3266 2144 3266 1488 
Q 3266 1056 3080 686 
Q 2894 316 2569 119 
Q 2244 -78 1831 -78 
Q 1128 -78 684 439 
Q 241 956 241 2144 
Q 241 3472 731 4075 
Q 1159 4600 1884 4600 
Q 2425 4600 2770 4297 
Q 3116 3994 3184 3459 
z
M 888 1484 
Q 888 1194 1011 928 
Q 1134 663 1356 523 
Q 1578 384 1822 384 
Q 2178 384 2434 671 
Q 2691 959 2691 1453 
Q 2691 1928 2437 2201 
Q 2184 2475 1800 2475 
Q 1419 2475 1153 2201 
Q 888 1928 888 1484 
z
" transform="scale(0.015625)"/>
       </defs>
       <use xlink:href="#ArialMT-36"/>
       <use xlink:href="#ArialMT-30" x="55.615234"/>
       <use xlink:href="#ArialMT-30" x="111.230469"/>
       <use xlink:href="#ArialMT-30" x="166.845703"/>
       <use xlink:href="#ArialMT-30" x="222.460938"/>
      </g>
     </g>
    </g>
   </g>
   <g id="line2d_19">
    <path d="M 82.8 286.389375 
L 90.863584 286.302417 
L 94.089017 286.032847 
L 103.765318 285.215442 
L 106.990751 284.941524 
L 110.216185 284.684998 
L 112.63526 284.237164 
L 113.441618 284.215424 
L 118.279769 283.493673 
L 119.892486 283.276278 
L 123.924277 281.267548 
L 126.343353 280.737104 
L 127.956069 280.115354 
L 128.762428 279.802305 
L 130.375145 279.393602 
L 131.987861 278.115319 
L 132.79422 277.841401 
L 133.600578 277.358784 
L 134.406936 276.563119 
L 135.213295 276.102241 
L 136.019653 274.650042 
L 136.826012 273.815245 
L 138.438728 272.606529 
L 139.245087 272.215217 
L 140.051445 271.428247 
L 140.857803 271.093459 
L 141.664162 270.563015 
L 143.276879 268.815159 
L 144.889595 267.054259 
L 145.695954 266.310768 
L 146.502312 265.997719 
L 147.308671 265.984675 
L 148.115029 265.549885 
L 148.921387 264.558564 
L 149.727746 263.832464 
L 150.534104 262.323742 
L 151.340462 261.415031 
L 152.953179 258.762811 
L 153.759538 258.158453 
L 154.565896 257.367135 
L 156.178613 255.514929 
L 157.791329 253.806204 
L 158.597688 252.871405 
L 159.404046 252.423572 
L 160.210405 251.819213 
L 161.823121 250.380058 
L 162.62948 249.31917 
L 163.435838 248.836553 
L 164.242197 248.649593 
L 165.048555 247.658272 
L 165.854913 247.253917 
L 167.46763 246.062592 
L 168.273988 245.145185 
L 169.080347 243.923425 
L 169.886705 242.366876 
L 170.693064 238.85812 
L 173.112139 237.892886 
L 173.918497 236.653734 
L 174.724855 236.305902 
L 175.531214 236.305902 
L 176.337572 235.649369 
L 177.143931 234.810224 
L 177.950289 233.76238 
L 178.756647 232.140613 
L 181.175723 229.457958 
L 181.982081 227.818799 
L 182.788439 227.114439 
L 183.594798 226.749216 
L 184.401156 226.214424 
L 186.013873 224.649179 
L 190.045665 222.810017 
L 190.852023 222.144788 
L 191.658382 221.266512 
L 192.46474 220.727373 
L 193.271098 220.449107 
L 194.077457 220.009969 
L 195.690173 218.044718 
L 196.496532 216.90122 
L 197.30289 215.544674 
L 198.109249 214.892489 
L 198.915607 214.544657 
L 199.721965 213.501161 
L 200.528324 211.788088 
L 201.334682 211.240252 
L 202.947399 210.470674 
L 203.753757 210.422847 
L 205.366474 209.596746 
L 206.979191 208.435856 
L 207.785549 208.09672 
L 209.398266 208.040197 
L 211.817341 206.970613 
L 212.623699 206.944526 
L 213.430058 206.60539 
L 219.880925 205.161887 
L 222.3 205.157539 
L 223.106358 204.770576 
L 224.719075 204.344481 
L 226.331792 204.283611 
L 228.750867 203.392291 
L 230.363584 202.700975 
L 231.169942 202.496623 
L 232.782659 202.466188 
L 233.589017 201.892265 
L 235.201734 201.32269 
L 236.008092 201.248776 
L 236.814451 201.044424 
L 238.427168 200.953118 
L 240.039884 200.222671 
L 241.652601 199.861795 
L 242.45896 199.596573 
L 244.071676 199.405266 
L 244.878035 199.148739 
L 245.684393 198.553077 
L 247.29711 196.922614 
L 249.716185 196.892179 
L 250.522543 195.839987 
L 252.941618 194.670401 
L 253.747977 194.479094 
L 254.554335 194.479094 
L 255.360694 192.97472 
L 256.167052 192.339926 
L 256.97341 191.992094 
L 259.392486 190.552939 
L 260.198844 190.552939 
L 261.005202 190.139888 
L 261.811561 189.522486 
L 263.424277 188.005069 
L 264.230636 187.60941 
L 265.843353 187.583322 
L 266.649711 187.335492 
L 269.068786 186.061557 
L 269.875145 185.370241 
L 270.681503 185.000669 
L 271.487861 184.922407 
L 274.713295 182.874546 
L 275.519653 182.252796 
L 277.13237 181.900616 
L 278.745087 181.357128 
L 279.551445 180.700595 
L 280.357803 180.204934 
L 281.164162 179.535358 
L 282.776879 178.844041 
L 283.583237 178.209248 
L 284.389595 177.817937 
L 286.002312 175.587463 
L 286.808671 174.983105 
L 287.615029 174.748318 
L 288.421387 174.748318 
L 289.227746 174.465705 
L 292.453179 172.03088 
L 294.065896 171.591742 
L 294.872254 171.000428 
L 295.678613 170.548246 
L 296.484971 169.848234 
L 297.291329 169.304746 
L 298.097688 168.191684 
L 298.904046 166.16991 
L 300.516763 163.430732 
L 301.323121 162.869853 
L 302.935838 162.065491 
L 303.742197 161.635049 
L 304.548555 160.991559 
L 305.354913 160.174154 
L 306.161272 159.600231 
L 308.580347 158.748042 
L 310.999422 158.278469 
L 311.80578 157.934985 
L 312.612139 157.369758 
L 313.418497 156.952359 
L 315.031214 156.5567 
L 316.643931 155.461029 
L 317.450289 154.987108 
L 318.256647 154.778409 
L 320.675723 153.730564 
L 321.482081 153.252295 
L 322.288439 152.230539 
L 323.094798 151.760965 
L 325.513873 149.643537 
L 326.320231 148.778305 
L 328.739306 145.782601 
L 330.352023 144.160834 
L 331.158382 143.004292 
L 331.96474 142.469501 
L 332.771098 141.647747 
L 333.577457 141.439048 
L 334.383815 140.956431 
L 335.190173 139.743367 
L 337.609249 138.117252 
L 338.415607 137.817246 
L 339.221965 137.299846 
L 340.834682 136.717227 
L 341.64104 136.191131 
L 344.060116 135.138939 
L 344.866474 134.256315 
L 347.285549 133.060643 
L 348.898266 132.386718 
L 349.704624 132.151931 
L 351.317341 131.973667 
L 352.123699 131.378005 
L 352.930058 130.473641 
L 354.542775 129.773629 
L 355.349133 129.48232 
L 356.155491 129.473624 
L 365.831792 126.8301 
L 366.63815 126.373571 
L 367.444509 126.225742 
L 368.250867 125.886606 
L 369.863584 125.564861 
L 373.895376 124.65615 
L 376.314451 123.912659 
L 377.120809 123.560479 
L 377.927168 123.051774 
L 378.733526 122.87351 
L 379.539884 122.351762 
L 380.346243 122.069149 
L 381.95896 121.834362 
L 383.571676 121.025652 
L 384.378035 120.882172 
L 385.990751 120.138681 
L 387.603468 119.695195 
L 388.409827 118.408216 
L 389.216185 116.725578 
L 390.022543 116.134264 
L 390.828902 115.699474 
L 392.441618 114.586411 
L 393.247977 113.629873 
L 394.054335 113.099429 
L 395.667052 111.412443 
L 397.279769 109.67763 
L 398.086127 109.195013 
L 398.892486 107.568898 
L 399.698844 106.921061 
L 400.505202 106.686275 
L 402.117919 105.886261 
L 402.924277 105.394948 
L 403.730636 105.260163 
L 405.343353 104.029707 
L 406.149711 103.477524 
L 406.956069 103.220997 
L 408.568786 101.747059 
L 410.181503 100.951393 
L 412.600578 100.103552 
L 414.213295 99.881809 
L 419.051445 98.664397 
L 419.857803 98.36874 
L 422.276879 96.964368 
L 423.083237 96.868714 
L 423.889595 96.003482 
L 424.695954 95.751303 
L 426.308671 94.916506 
L 427.921387 93.942576 
L 429.534104 93.364306 
L 430.340462 92.677337 
L 434.372254 91.142528 
L 435.178613 90.994699 
L 435.984971 90.616432 
L 436.791329 90.399037 
L 437.597688 89.655546 
L 438.404046 89.485978 
L 439.210405 89.164233 
L 440.823121 88.829445 
L 444.854913 87.425073 
L 445.661272 87.064197 
L 447.273988 86.620711 
L 448.886705 86.033744 
L 450.499422 85.351124 
L 452.112139 85.059814 
L 452.918497 84.481544 
L 453.724855 84.111972 
L 454.531214 83.507614 
L 456.143931 83.064128 
L 459.369364 81.690191 
L 463.401156 80.733653 
L 465.013873 79.9119 
L 465.820231 79.646678 
L 466.62659 79.08145 
L 467.432948 78.959709 
L 473.883815 76.329229 
L 475.496532 76.007484 
L 476.30289 75.694435 
L 477.915607 74.868334 
L 479.528324 74.355282 
L 480.334682 74.229193 
L 482.753757 73.242219 
L 483.560116 73.133522 
L 484.366474 72.603078 
L 491.623699 70.163905 
L 492.430058 69.981293 
L 494.042775 69.250846 
L 494.849133 69.146496 
L 496.46185 68.55953 
L 498.074566 68.437789 
L 501.3 67.581252 
L 506.13815 66.516016 
L 507.750867 65.794265 
L 509.363584 65.529043 
L 510.169942 65.233385 
L 511.782659 64.868162 
L 512.589017 64.585548 
L 515.008092 64.142062 
L 515.814451 63.872492 
L 517.427168 63.829013 
L 519.846243 63.346396 
L 521.45896 62.863779 
L 522.265318 62.3029 
L 524.684393 61.698542 
L 525.490751 61.572453 
L 526.29711 61.259404 
L 527.103468 61.089836 
L 527.909827 60.742004 
L 528.716185 60.598523 
L 530.328902 59.955033 
L 531.13526 59.828944 
L 532.747977 59.428937 
L 533.554335 59.21589 
L 534.360694 58.768056 
L 535.97341 58.033261 
L 536.779769 57.99413 
L 543.230636 55.911485 
L 544.843353 55.52887 
L 555.326012 52.450556 
L 556.938728 52.067941 
L 558.551445 51.259231 
L 560.97052 50.859224 
L 562.583237 50.43313 
L 564.195954 49.780945 
L 565.808671 49.341807 
L 566.615029 48.954844 
L 567.421387 48.807015 
L 569.840462 47.963522 
L 571.453179 47.672213 
L 575.484971 46.111316 
L 576.291329 46.085229 
L 577.904046 45.698266 
L 579.516763 45.146082 
L 581.12948 44.789554 
L 581.935838 44.641726 
L 583.548555 43.880843 
L 586.773988 43.398226 
L 591.612139 42.60256 
L 592.418497 42.215597 
L 595.643931 41.91994 
L 598.063006 41.793851 
L 599.675723 41.685153 
L 602.094798 41.337321 
L 605.320231 41.115578 
L 607.739306 40.728615 
L 610.96474 40.646005 
L 613.383815 40.306868 
L 614.190173 40.032951 
L 615.80289 39.863382 
L 616.609249 39.189458 
L 618.221965 38.841626 
L 619.834682 38.402488 
L 620.64104 38.367705 
L 622.253757 38.080743 
L 623.866474 37.52856 
L 625.479191 37.011159 
L 627.091908 36.902462 
L 627.898266 36.558978 
L 631.123699 36.028534 
L 632.736416 35.93288 
L 633.542775 35.68505 
L 634.349133 35.606787 
L 635.155491 35.276347 
L 635.96185 35.20678 
L 636.768208 34.976342 
L 639.187283 34.71112 
L 639.993642 34.476333 
L 640.8 34.389375 
L 640.8 34.389375 
" clip-path="url(#pe15b724d07)" style="fill: none; stroke: #1f77b4; stroke-width: 1.5; stroke-linecap: round"/>
   </g>
   <g id="patch_3">
    <path d="M 82.8 298.989375 
L 82.8 21.789375 
" style="fill: none; stroke: #cccccc; stroke-width: 0.8; stroke-linejoin: miter; stroke-linecap: square"/>
   </g>
   <g id="patch_4">
    <path d="M 640.8 298.989375 
L 640.8 21.789375 
" style="fill: none; stroke: #cccccc; stroke-width: 0.8; stroke-linejoin: miter; stroke-linecap: square"/>
   </g>
   <g id="patch_5">
    <path d="M 82.8 298.989375 
L 640.8 298.989375 
" style="fill: none; stroke: #cccccc; stroke-width: 0.8; stroke-linejoin: miter; stroke-linecap: square"/>
   </g>
   <g id="patch_6">
    <path d="M 82.8 21.789375 
L 640.8 21.789375 
" style="fill: none; stroke: #cccccc; stroke-width: 0.8; stroke-linejoin: miter; stroke-linecap: square"/>
   </g>
   <g id="text_19">
    <!-- Casos Confirmados -->
    <g style="fill: #262626" transform="translate(309.115313 15.789375)scale(0.12 -0.12)">
     <defs>
      <path id="ArialMT-43" d="M 3763 1606 
L 4369 1453 
Q 4178 706 3683 314 
Q 3188 -78 2472 -78 
Q 1731 -78 1267 223 
Q 803 525 561 1097 
Q 319 1669 319 2325 
Q 319 3041 592 3573 
Q 866 4106 1370 4382 
Q 1875 4659 2481 4659 
Q 3169 4659 3637 4309 
Q 4106 3959 4291 3325 
L 3694 3184 
Q 3534 3684 3231 3912 
Q 2928 4141 2469 4141 
Q 1941 4141 1586 3887 
Q 1231 3634 1087 3207 
Q 944 2781 944 2328 
Q 944 1744 1114 1308 
Q 1284 872 1643 656 
Q 2003 441 2422 441 
Q 2931 441 3284 734 
Q 3638 1028 3763 1606 
z
" transform="scale(0.015625)"/>
      <path id="ArialMT-61" d="M 2588 409 
Q 2275 144 1986 34 
Q 1697 -75 1366 -75 
Q 819 -75 525 192 
Q 231 459 231 875 
Q 231 1119 342 1320 
Q 453 1522 633 1644 
Q 813 1766 1038 1828 
Q 1203 1872 1538 1913 
Q 2219 1994 2541 2106 
Q 2544 2222 2544 2253 
Q 2544 2597 2384 2738 
Q 2169 2928 1744 2928 
Q 1347 2928 1158 2789 
Q 969 2650 878 2297 
L 328 2372 
Q 403 2725 575 2942 
Q 747 3159 1072 3276 
Q 1397 3394 1825 3394 
Q 2250 3394 2515 3294 
Q 2781 3194 2906 3042 
Q 3031 2891 3081 2659 
Q 3109 2516 3109 2141 
L 3109 1391 
Q 3109 606 3145 398 
Q 3181 191 3288 0 
L 2700 0 
Q 2613 175 2588 409 
z
M 2541 1666 
Q 2234 1541 1622 1453 
Q 1275 1403 1131 1340 
Q 988 1278 909 1158 
Q 831 1038 831 891 
Q 831 666 1001 516 
Q 1172 366 1500 366 
Q 1825 366 2078 508 
Q 2331 650 2450 897 
Q 2541 1088 2541 1459 
L 2541 1666 
z
" transform="scale(0.015625)"/>
      <path id="ArialMT-73" d="M 197 991 
L 753 1078 
Q 800 744 1014 566 
Q 1228 388 1613 388 
Q 2000 388 2187 545 
Q 2375 703 2375 916 
Q 2375 1106 2209 1216 
Q 2094 1291 1634 1406 
Q 1016 1563 777 1677 
Q 538 1791 414 1992 
Q 291 2194 291 2438 
Q 291 2659 392 2848 
Q 494 3038 669 3163 
Q 800 3259 1026 3326 
Q 1253 3394 1513 3394 
Q 1903 3394 2198 3281 
Q 2494 3169 2634 2976 
Q 2775 2784 2828 2463 
L 2278 2388 
Q 2241 2644 2061 2787 
Q 1881 2931 1553 2931 
Q 1166 2931 1000 2803 
Q 834 2675 834 2503 
Q 834 2394 903 2306 
Q 972 2216 1119 2156 
Q 1203 2125 1616 2013 
Q 2213 1853 2448 1751 
Q 2684 1650 2818 1456 
Q 2953 1263 2953 975 
Q 2953 694 2789 445 
Q 2625 197 2315 61 
Q 2006 -75 1616 -75 
Q 969 -75 630 194 
Q 291 463 197 991 
z
" transform="scale(0.015625)"/>
      <path id="ArialMT-6f" d="M 213 1659 
Q 213 2581 725 3025 
Q 1153 3394 1769 3394 
Q 2453 3394 2887 2945 
Q 3322 2497 3322 1706 
Q 3322 1066 3130 698 
Q 2938 331 2570 128 
Q 2203 -75 1769 -75 
Q 1072 -75 642 372 
Q 213 819 213 1659 
z
M 791 1659 
Q 791 1022 1069 705 
Q 1347 388 1769 388 
Q 2188 388 2466 706 
Q 2744 1025 2744 1678 
Q 2744 2294 2464 2611 
Q 2184 2928 1769 2928 
Q 1347 2928 1069 2612 
Q 791 2297 791 1659 
z
" transform="scale(0.015625)"/>
      <path id="ArialMT-20" transform="scale(0.015625)"/>
      <path id="ArialMT-6e" d="M 422 0 
L 422 3319 
L 928 3319 
L 928 2847 
Q 1294 3394 1984 3394 
Q 2284 3394 2536 3286 
Q 2788 3178 2913 3003 
Q 3038 2828 3088 2588 
Q 3119 2431 3119 2041 
L 3119 0 
L 2556 0 
L 2556 2019 
Q 2556 2363 2490 2533 
Q 2425 2703 2258 2804 
Q 2091 2906 1866 2906 
Q 1506 2906 1245 2678 
Q 984 2450 984 1813 
L 984 0 
L 422 0 
z
" transform="scale(0.015625)"/>
      <path id="ArialMT-66" d="M 556 0 
L 556 2881 
L 59 2881 
L 59 3319 
L 556 3319 
L 556 3672 
Q 556 4006 616 4169 
Q 697 4388 901 4523 
Q 1106 4659 1475 4659 
Q 1713 4659 2000 4603 
L 1916 4113 
Q 1741 4144 1584 4144 
Q 1328 4144 1222 4034 
Q 1116 3925 1116 3625 
L 1116 3319 
L 1763 3319 
L 1763 2881 
L 1116 2881 
L 1116 0 
L 556 0 
z
" transform="scale(0.015625)"/>
      <path id="ArialMT-69" d="M 425 3934 
L 425 4581 
L 988 4581 
L 988 3934 
L 425 3934 
z
M 425 0 
L 425 3319 
L 988 3319 
L 988 0 
L 425 0 
z
" transform="scale(0.015625)"/>
      <path id="ArialMT-72" d="M 416 0 
L 416 3319 
L 922 3319 
L 922 2816 
Q 1116 3169 1280 3281 
Q 1444 3394 1641 3394 
Q 1925 3394 2219 3213 
L 2025 2691 
Q 1819 2813 1613 2813 
Q 1428 2813 1281 2702 
Q 1134 2591 1072 2394 
Q 978 2094 978 1738 
L 978 0 
L 416 0 
z
" transform="scale(0.015625)"/>
      <path id="ArialMT-6d" d="M 422 0 
L 422 3319 
L 925 3319 
L 925 2853 
Q 1081 3097 1340 3245 
Q 1600 3394 1931 3394 
Q 2300 3394 2536 3241 
Q 2772 3088 2869 2813 
Q 3263 3394 3894 3394 
Q 4388 3394 4653 3120 
Q 4919 2847 4919 2278 
L 4919 0 
L 4359 0 
L 4359 2091 
Q 4359 2428 4304 2576 
Q 4250 2725 4106 2815 
Q 3963 2906 3769 2906 
Q 3419 2906 3187 2673 
Q 2956 2441 2956 1928 
L 2956 0 
L 2394 0 
L 2394 2156 
Q 2394 2531 2256 2718 
Q 2119 2906 1806 2906 
Q 1569 2906 1367 2781 
Q 1166 2656 1075 2415 
Q 984 2175 984 1722 
L 984 0 
L 422 0 
z
" transform="scale(0.015625)"/>
      <path id="ArialMT-64" d="M 2575 0 
L 2575 419 
Q 2259 -75 1647 -75 
Q 1250 -75 917 144 
Q 584 363 401 755 
Q 219 1147 219 1656 
Q 219 2153 384 2558 
Q 550 2963 881 3178 
Q 1213 3394 1622 3394 
Q 1922 3394 2156 3267 
Q 2391 3141 2538 2938 
L 2538 4581 
L 3097 4581 
L 3097 0 
L 2575 0 
z
M 797 1656 
Q 797 1019 1065 703 
Q 1334 388 1700 388 
Q 2069 388 2326 689 
Q 2584 991 2584 1609 
Q 2584 2291 2321 2609 
Q 2059 2928 1675 2928 
Q 1300 2928 1048 2622 
Q 797 2316 797 1656 
z
" transform="scale(0.015625)"/>
     </defs>
     <use xlink:href="#ArialMT-43"/>
     <use xlink:href="#ArialMT-61" x="72.216797"/>
     <use xlink:href="#ArialMT-73" x="127.832031"/>
     <use xlink:href="#ArialMT-6f" x="177.832031"/>
     <use xlink:href="#ArialMT-73" x="233.447266"/>
     <use xlink:href="#ArialMT-20" x="283.447266"/>
     <use xlink:href="#ArialMT-43" x="311.230469"/>
     <use xlink:href="#ArialMT-6f" x="383.447266"/>
     <use xlink:href="#ArialMT-6e" x="439.0625"/>
     <use xlink:href="#ArialMT-66" x="494.677734"/>
     <use xlink:href="#ArialMT-69" x="522.460938"/>
     <use xlink:href="#ArialMT-72" x="544.677734"/>
     <use xlink:href="#ArialMT-6d" x="577.978516"/>
     <use xlink:href="#ArialMT-61" x="661.279297"/>
     <use xlink:href="#ArialMT-64" x="716.894531"/>
     <use xlink:href="#ArialMT-6f" x="772.509766"/>
     <use xlink:href="#ArialMT-73" x="828.125"/>
    </g>
   </g>
  </g>
  <g id="text_20">
   <!-- Atualizado em 09/02/2022 -->
   <g style="fill: #262626" transform="translate(7.2 331.389375)scale(0.08 -0.08)">
    <defs>
     <path id="ArialMT-41" d="M -9 0 
L 1750 4581 
L 2403 4581 
L 4278 0 
L 3588 0 
L 3053 1388 
L 1138 1388 
L 634 0 
L -9 0 
z
M 1313 1881 
L 2866 1881 
L 2388 3150 
Q 2169 3728 2063 4100 
Q 1975 3659 1816 3225 
L 1313 1881 
z
" transform="scale(0.015625)"/>
     <path id="ArialMT-74" d="M 1650 503 
L 1731 6 
Q 1494 -44 1306 -44 
Q 1000 -44 831 53 
Q 663 150 594 308 
Q 525 466 525 972 
L 525 2881 
L 113 2881 
L 113 3319 
L 525 3319 
L 525 4141 
L 1084 4478 
L 1084 3319 
L 1650 3319 
L 1650 2881 
L 1084 2881 
L 1084 941 
Q 1084 700 1114 631 
Q 1144 563 1211 522 
Q 1278 481 1403 481 
Q 1497 481 1650 503 
z
" transform="scale(0.015625)"/>
     <path id="ArialMT-75" d="M 2597 0 
L 2597 488 
Q 2209 -75 1544 -75 
Q 1250 -75 995 37 
Q 741 150 617 320 
Q 494 491 444 738 
Q 409 903 409 1263 
L 409 3319 
L 972 3319 
L 972 1478 
Q 972 1038 1006 884 
Q 1059 663 1231 536 
Q 1403 409 1656 409 
Q 1909 409 2131 539 
Q 2353 669 2445 892 
Q 2538 1116 2538 1541 
L 2538 3319 
L 3100 3319 
L 3100 0 
L 2597 0 
z
" transform="scale(0.015625)"/>
     <path id="ArialMT-6c" d="M 409 0 
L 409 4581 
L 972 4581 
L 972 0 
L 409 0 
z
" transform="scale(0.015625)"/>
     <path id="ArialMT-7a" d="M 125 0 
L 125 456 
L 2238 2881 
Q 1878 2863 1603 2863 
L 250 2863 
L 250 3319 
L 2963 3319 
L 2963 2947 
L 1166 841 
L 819 456 
Q 1197 484 1528 484 
L 3063 484 
L 3063 0 
L 125 0 
z
" transform="scale(0.015625)"/>
     <path id="ArialMT-65" d="M 2694 1069 
L 3275 997 
Q 3138 488 2766 206 
Q 2394 -75 1816 -75 
Q 1088 -75 661 373 
Q 234 822 234 1631 
Q 234 2469 665 2931 
Q 1097 3394 1784 3394 
Q 2450 3394 2872 2941 
Q 3294 2488 3294 1666 
Q 3294 1616 3291 1516 
L 816 1516 
Q 847 969 1125 678 
Q 1403 388 1819 388 
Q 2128 388 2347 550 
Q 2566 713 2694 1069 
z
M 847 1978 
L 2700 1978 
Q 2663 2397 2488 2606 
Q 2219 2931 1791 2931 
Q 1403 2931 1139 2672 
Q 875 2413 847 1978 
z
" transform="scale(0.015625)"/>
     <path id="ArialMT-2f" d="M 0 -78 
L 1328 4659 
L 1778 4659 
L 453 -78 
L 0 -78 
z
" transform="scale(0.015625)"/>
    </defs>
    <use xlink:href="#ArialMT-41"/>
    <use xlink:href="#ArialMT-74" x="66.699219"/>
    <use xlink:href="#ArialMT-75" x="94.482422"/>
    <use xlink:href="#ArialMT-61" x="150.097656"/>
    <use xlink:href="#ArialMT-6c" x="205.712891"/>
    <use xlink:href="#ArialMT-69" x="227.929688"/>
    <use xlink:href="#ArialMT-7a" x="250.146484"/>
    <use xlink:href="#ArialMT-61" x="300.146484"/>
    <use xlink:href="#ArialMT-64" x="355.761719"/>
    <use xlink:href="#ArialMT-6f" x="411.376953"/>
    <use xlink:href="#ArialMT-20" x="466.992188"/>
    <use xlink:href="#ArialMT-65" x="494.775391"/>
    <use xlink:href="#ArialMT-6d" x="550.390625"/>
    <use xlink:href="#ArialMT-20" x="633.691406"/>
    <use xlink:href="#ArialMT-30" x="661.474609"/>
    <use xlink:href="#ArialMT-39" x="717.089844"/>
    <use xlink:href="#ArialMT-2f" x="772.705078"/>
    <use xlink:href="#ArialMT-30" x="800.488281"/>
    <use xlink:href="#ArialMT-32" x="856.103516"/>
    <use xlink:href="#ArialMT-2f" x="911.71875"/>
    <use xlink:href="#ArialMT-32" x="939.501953"/>
    <use xlink:href="#ArialMT-30" x="995.117188"/>
    <use xlink:href="#ArialMT-32" x="1050.732422"/>
    <use xlink:href="#ArialMT-32" x="1106.347656"/>
   </g>
  </g>
  <g id="text_21">
   <!-- https://jmsvaz.github.io/covidsantos/ -->
   <g style="fill: #262626" transform="translate(570.345 331.389375)scale(0.08 -0.08)">
    <defs>
     <path id="ArialMT-68" d="M 422 0 
L 422 4581 
L 984 4581 
L 984 2938 
Q 1378 3394 1978 3394 
Q 2347 3394 2619 3248 
Q 2891 3103 3008 2847 
Q 3125 2591 3125 2103 
L 3125 0 
L 2563 0 
L 2563 2103 
Q 2563 2525 2380 2717 
Q 2197 2909 1863 2909 
Q 1613 2909 1392 2779 
Q 1172 2650 1078 2428 
Q 984 2206 984 1816 
L 984 0 
L 422 0 
z
" transform="scale(0.015625)"/>
     <path id="ArialMT-70" d="M 422 -1272 
L 422 3319 
L 934 3319 
L 934 2888 
Q 1116 3141 1344 3267 
Q 1572 3394 1897 3394 
Q 2322 3394 2647 3175 
Q 2972 2956 3137 2557 
Q 3303 2159 3303 1684 
Q 3303 1175 3120 767 
Q 2938 359 2589 142 
Q 2241 -75 1856 -75 
Q 1575 -75 1351 44 
Q 1128 163 984 344 
L 984 -1272 
L 422 -1272 
z
M 931 1641 
Q 931 1000 1190 694 
Q 1450 388 1819 388 
Q 2194 388 2461 705 
Q 2728 1022 2728 1688 
Q 2728 2322 2467 2637 
Q 2206 2953 1844 2953 
Q 1484 2953 1207 2617 
Q 931 2281 931 1641 
z
" transform="scale(0.015625)"/>
     <path id="ArialMT-3a" d="M 578 2678 
L 578 3319 
L 1219 3319 
L 1219 2678 
L 578 2678 
z
M 578 0 
L 578 641 
L 1219 641 
L 1219 0 
L 578 0 
z
" transform="scale(0.015625)"/>
     <path id="ArialMT-6a" d="M 419 3928 
L 419 4581 
L 981 4581 
L 981 3928 
L 419 3928 
z
M -294 -1288 
L -188 -809 
Q -19 -853 78 -853 
Q 250 -853 334 -739 
Q 419 -625 419 -169 
L 419 3319 
L 981 3319 
L 981 -181 
Q 981 -794 822 -1034 
Q 619 -1347 147 -1347 
Q -81 -1347 -294 -1288 
z
" transform="scale(0.015625)"/>
     <path id="ArialMT-76" d="M 1344 0 
L 81 3319 
L 675 3319 
L 1388 1331 
Q 1503 1009 1600 663 
Q 1675 925 1809 1294 
L 2547 3319 
L 3125 3319 
L 1869 0 
L 1344 0 
z
" transform="scale(0.015625)"/>
     <path id="ArialMT-2e" d="M 581 0 
L 581 641 
L 1222 641 
L 1222 0 
L 581 0 
z
" transform="scale(0.015625)"/>
     <path id="ArialMT-67" d="M 319 -275 
L 866 -356 
Q 900 -609 1056 -725 
Q 1266 -881 1628 -881 
Q 2019 -881 2231 -725 
Q 2444 -569 2519 -288 
Q 2563 -116 2559 434 
Q 2191 0 1641 0 
Q 956 0 581 494 
Q 206 988 206 1678 
Q 206 2153 378 2554 
Q 550 2956 876 3175 
Q 1203 3394 1644 3394 
Q 2231 3394 2613 2919 
L 2613 3319 
L 3131 3319 
L 3131 450 
Q 3131 -325 2973 -648 
Q 2816 -972 2473 -1159 
Q 2131 -1347 1631 -1347 
Q 1038 -1347 672 -1080 
Q 306 -813 319 -275 
z
M 784 1719 
Q 784 1066 1043 766 
Q 1303 466 1694 466 
Q 2081 466 2343 764 
Q 2606 1063 2606 1700 
Q 2606 2309 2336 2618 
Q 2066 2928 1684 2928 
Q 1309 2928 1046 2623 
Q 784 2319 784 1719 
z
" transform="scale(0.015625)"/>
     <path id="ArialMT-62" d="M 941 0 
L 419 0 
L 419 4581 
L 981 4581 
L 981 2947 
Q 1338 3394 1891 3394 
Q 2197 3394 2470 3270 
Q 2744 3147 2920 2923 
Q 3097 2700 3197 2384 
Q 3297 2069 3297 1709 
Q 3297 856 2875 390 
Q 2453 -75 1863 -75 
Q 1275 -75 941 416 
L 941 0 
z
M 934 1684 
Q 934 1088 1097 822 
Q 1363 388 1816 388 
Q 2184 388 2453 708 
Q 2722 1028 2722 1663 
Q 2722 2313 2464 2622 
Q 2206 2931 1841 2931 
Q 1472 2931 1203 2611 
Q 934 2291 934 1684 
z
" transform="scale(0.015625)"/>
     <path id="ArialMT-63" d="M 2588 1216 
L 3141 1144 
Q 3050 572 2676 248 
Q 2303 -75 1759 -75 
Q 1078 -75 664 370 
Q 250 816 250 1647 
Q 250 2184 428 2587 
Q 606 2991 970 3192 
Q 1334 3394 1763 3394 
Q 2303 3394 2647 3120 
Q 2991 2847 3088 2344 
L 2541 2259 
Q 2463 2594 2264 2762 
Q 2066 2931 1784 2931 
Q 1359 2931 1093 2626 
Q 828 2322 828 1663 
Q 828 994 1084 691 
Q 1341 388 1753 388 
Q 2084 388 2306 591 
Q 2528 794 2588 1216 
z
" transform="scale(0.015625)"/>
    </defs>
    <use xlink:href="#ArialMT-68"/>
    <use xlink:href="#ArialMT-74" x="55.615234"/>
    <use xlink:href="#ArialMT-74" x="83.398438"/>
    <use xlink:href="#ArialMT-70" x="111.181641"/>
    <use xlink:href="#ArialMT-73" x="166.796875"/>
    <use xlink:href="#ArialMT-3a" x="216.796875"/>
    <use xlink:href="#ArialMT-2f" x="244.580078"/>
    <use xlink:href="#ArialMT-2f" x="272.363281"/>
    <use xlink:href="#ArialMT-6a" x="300.146484"/>
    <use xlink:href="#ArialMT-6d" x="322.363281"/>
    <use xlink:href="#ArialMT-73" x="405.664062"/>
    <use xlink:href="#ArialMT-76" x="455.664062"/>
    <use xlink:href="#ArialMT-61" x="505.664062"/>
    <use xlink:href="#ArialMT-7a" x="561.279297"/>
    <use xlink:href="#ArialMT-2e" x="611.279297"/>
    <use xlink:href="#ArialMT-67" x="639.0625"/>
    <use xlink:href="#ArialMT-69" x="694.677734"/>
    <use xlink:href="#ArialMT-74" x="716.894531"/>
    <use xlink:href="#ArialMT-68" x="744.677734"/>
    <use xlink:href="#ArialMT-75" x="800.292969"/>
    <use xlink:href="#ArialMT-62" x="855.908203"/>
    <use xlink:href="#ArialMT-2e" x="911.523438"/>
    <use xlink:href="#ArialMT-69" x="939.306641"/>
    <use xlink:href="#ArialMT-6f" x="961.523438"/>
    <use xlink:href="#ArialMT-2f" x="1017.138672"/>
    <use xlink:href="#ArialMT-63" x="1044.921875"/>
    <use xlink:href="#ArialMT-6f" x="1094.921875"/>
    <use xlink:href="#ArialMT-76" x="1150.537109"/>
    <use xlink:href="#ArialMT-69" x="1200.537109"/>
    <use xlink:href="#ArialMT-64" x="1222.753906"/>
    <use xlink:href="#ArialMT-73" x="1278.369141"/>
    <use xlink:href="#ArialMT-61" x="1328.369141"/>
    <use xlink:href="#ArialMT-6e" x="1383.984375"/>
    <use xlink:href="#ArialMT-74" x="1439.599609"/>
    <use xlink:href="#ArialMT-6f" x="1467.382812"/>
    <use xlink:href="#ArialMT-73" x="1522.998047"/>
    <use xlink:href="#ArialMT-2f" x="1572.998047"/>
   </g>
  </g>
 </g>
 <defs>
  <clipPath id="pe15b724d07">
   <rect x="82.8" y="21.789375" width="558" height="277.2"/>
  </clipPath>
 </defs>
</svg>
