<?xml version="1.0" encoding="utf-8" standalone="no"?>
<!DOCTYPE svg PUBLIC "-//W3C//DTD SVG 1.1//EN"
  "http://www.w3.org/Graphics/SVG/1.1/DTD/svg11.dtd">
<svg height="322.334688pt" version="1.1" viewBox="0 0 608.991705 322.334688" width="608.991705pt" xmlns="http://www.w3.org/2000/svg" xmlns:xlink="http://www.w3.org/1999/xlink">
 <metadata>
  <rdf:RDF xmlns:cc="http://creativecommons.org/ns#" xmlns:dc="http://purl.org/dc/elements/1.1/" xmlns:rdf="http://www.w3.org/1999/02/22-rdf-syntax-ns#">
   <cc:Work>
    <dc:type rdf:resource="http://purl.org/dc/dcmitype/StillImage"/>
    <dc:date>2021-06-23T19:43:22.008034</dc:date>
    <dc:format>image/svg+xml</dc:format>
    <dc:creator>
     <cc:Agent>
      <dc:title>Matplotlib v3.4.2, https://matplotlib.org/</dc:title>
     </cc:Agent>
    </dc:creator>
   </cc:Work>
  </rdf:RDF>
 </metadata>
 <defs>
  <style type="text/css">*{stroke-linecap:butt;stroke-linejoin:round;}</style>
 </defs>
 <g id="figure_1">
  <g id="patch_1">
   <path d="M 0 322.334688 
L 608.991705 322.334688 
L 608.991705 0 
L 0 0 
z
" style="fill:#ffffff;"/>
  </g>
  <g id="axes_1">
   <g id="patch_2">
    <path d="M 42.004687 298.989375 
L 600.004688 298.989375 
L 600.004688 21.789375 
L 42.004687 21.789375 
z
" style="fill:#ffffff;"/>
   </g>
   <g id="matplotlib.axis_1">
    <g id="xtick_1">
     <g id="line2d_1">
      <path clip-path="url(#p1cb95b4090)" d="M 47.56158 298.989375 
L 47.56158 21.789375 
" style="fill:none;stroke:#cccccc;stroke-linecap:round;stroke-width:0.8;"/>
     </g>
     <g id="text_1">
      <!-- 2020-03 -->
      <g style="fill:#262626;" transform="translate(29.213923 313.147188)scale(0.1 -0.1)">
       <defs>
        <path d="M 3222 541 
L 3222 0 
L 194 0 
Q 188 203 259 391 
Q 375 700 629 1000 
Q 884 1300 1366 1694 
Q 2113 2306 2375 2664 
Q 2638 3022 2638 3341 
Q 2638 3675 2398 3904 
Q 2159 4134 1775 4134 
Q 1369 4134 1125 3890 
Q 881 3647 878 3216 
L 300 3275 
Q 359 3922 746 4261 
Q 1134 4600 1788 4600 
Q 2447 4600 2831 4234 
Q 3216 3869 3216 3328 
Q 3216 3053 3103 2787 
Q 2991 2522 2730 2228 
Q 2469 1934 1863 1422 
Q 1356 997 1212 845 
Q 1069 694 975 541 
L 3222 541 
z
" id="ArialMT-32" transform="scale(0.015625)"/>
        <path d="M 266 2259 
Q 266 3072 433 3567 
Q 600 4063 929 4331 
Q 1259 4600 1759 4600 
Q 2128 4600 2406 4451 
Q 2684 4303 2865 4023 
Q 3047 3744 3150 3342 
Q 3253 2941 3253 2259 
Q 3253 1453 3087 958 
Q 2922 463 2592 192 
Q 2263 -78 1759 -78 
Q 1097 -78 719 397 
Q 266 969 266 2259 
z
M 844 2259 
Q 844 1131 1108 757 
Q 1372 384 1759 384 
Q 2147 384 2411 759 
Q 2675 1134 2675 2259 
Q 2675 3391 2411 3762 
Q 2147 4134 1753 4134 
Q 1366 4134 1134 3806 
Q 844 3388 844 2259 
z
" id="ArialMT-30" transform="scale(0.015625)"/>
        <path d="M 203 1375 
L 203 1941 
L 1931 1941 
L 1931 1375 
L 203 1375 
z
" id="ArialMT-2d" transform="scale(0.015625)"/>
        <path d="M 269 1209 
L 831 1284 
Q 928 806 1161 595 
Q 1394 384 1728 384 
Q 2125 384 2398 659 
Q 2672 934 2672 1341 
Q 2672 1728 2419 1979 
Q 2166 2231 1775 2231 
Q 1616 2231 1378 2169 
L 1441 2663 
Q 1497 2656 1531 2656 
Q 1891 2656 2178 2843 
Q 2466 3031 2466 3422 
Q 2466 3731 2256 3934 
Q 2047 4138 1716 4138 
Q 1388 4138 1169 3931 
Q 950 3725 888 3313 
L 325 3413 
Q 428 3978 793 4289 
Q 1159 4600 1703 4600 
Q 2078 4600 2393 4439 
Q 2709 4278 2876 4000 
Q 3044 3722 3044 3409 
Q 3044 3113 2884 2869 
Q 2725 2625 2413 2481 
Q 2819 2388 3044 2092 
Q 3269 1797 3269 1353 
Q 3269 753 2831 336 
Q 2394 -81 1725 -81 
Q 1122 -81 723 278 
Q 325 638 269 1209 
z
" id="ArialMT-33" transform="scale(0.015625)"/>
       </defs>
       <use xlink:href="#ArialMT-32"/>
       <use x="55.615234" xlink:href="#ArialMT-30"/>
       <use x="111.230469" xlink:href="#ArialMT-32"/>
       <use x="166.845703" xlink:href="#ArialMT-30"/>
       <use x="222.460938" xlink:href="#ArialMT-2d"/>
       <use x="255.761719" xlink:href="#ArialMT-30"/>
       <use x="311.376953" xlink:href="#ArialMT-33"/>
      </g>
     </g>
    </g>
    <g id="xtick_2">
     <g id="line2d_2">
      <path clip-path="url(#p1cb95b4090)" d="M 114.684435 298.989375 
L 114.684435 21.789375 
" style="fill:none;stroke:#cccccc;stroke-linecap:round;stroke-width:0.8;"/>
     </g>
     <g id="text_2">
      <!-- 2020-05 -->
      <g style="fill:#262626;" transform="translate(96.336779 313.147188)scale(0.1 -0.1)">
       <defs>
        <path d="M 266 1200 
L 856 1250 
Q 922 819 1161 601 
Q 1400 384 1738 384 
Q 2144 384 2425 690 
Q 2706 997 2706 1503 
Q 2706 1984 2436 2262 
Q 2166 2541 1728 2541 
Q 1456 2541 1237 2417 
Q 1019 2294 894 2097 
L 366 2166 
L 809 4519 
L 3088 4519 
L 3088 3981 
L 1259 3981 
L 1013 2750 
Q 1425 3038 1878 3038 
Q 2478 3038 2890 2622 
Q 3303 2206 3303 1553 
Q 3303 931 2941 478 
Q 2500 -78 1738 -78 
Q 1113 -78 717 272 
Q 322 622 266 1200 
z
" id="ArialMT-35" transform="scale(0.015625)"/>
       </defs>
       <use xlink:href="#ArialMT-32"/>
       <use x="55.615234" xlink:href="#ArialMT-30"/>
       <use x="111.230469" xlink:href="#ArialMT-32"/>
       <use x="166.845703" xlink:href="#ArialMT-30"/>
       <use x="222.460938" xlink:href="#ArialMT-2d"/>
       <use x="255.761719" xlink:href="#ArialMT-30"/>
       <use x="311.376953" xlink:href="#ArialMT-35"/>
      </g>
     </g>
    </g>
    <g id="xtick_3">
     <g id="line2d_3">
      <path clip-path="url(#p1cb95b4090)" d="M 181.807291 298.989375 
L 181.807291 21.789375 
" style="fill:none;stroke:#cccccc;stroke-linecap:round;stroke-width:0.8;"/>
     </g>
     <g id="text_3">
      <!-- 2020-07 -->
      <g style="fill:#262626;" transform="translate(163.459634 313.147188)scale(0.1 -0.1)">
       <defs>
        <path d="M 303 3981 
L 303 4522 
L 3269 4522 
L 3269 4084 
Q 2831 3619 2401 2847 
Q 1972 2075 1738 1259 
Q 1569 684 1522 0 
L 944 0 
Q 953 541 1156 1306 
Q 1359 2072 1739 2783 
Q 2119 3494 2547 3981 
L 303 3981 
z
" id="ArialMT-37" transform="scale(0.015625)"/>
       </defs>
       <use xlink:href="#ArialMT-32"/>
       <use x="55.615234" xlink:href="#ArialMT-30"/>
       <use x="111.230469" xlink:href="#ArialMT-32"/>
       <use x="166.845703" xlink:href="#ArialMT-30"/>
       <use x="222.460938" xlink:href="#ArialMT-2d"/>
       <use x="255.761719" xlink:href="#ArialMT-30"/>
       <use x="311.376953" xlink:href="#ArialMT-37"/>
      </g>
     </g>
    </g>
    <g id="xtick_4">
     <g id="line2d_4">
      <path clip-path="url(#p1cb95b4090)" d="M 250.030521 298.989375 
L 250.030521 21.789375 
" style="fill:none;stroke:#cccccc;stroke-linecap:round;stroke-width:0.8;"/>
     </g>
     <g id="text_4">
      <!-- 2020-09 -->
      <g style="fill:#262626;" transform="translate(231.682864 313.147188)scale(0.1 -0.1)">
       <defs>
        <path d="M 350 1059 
L 891 1109 
Q 959 728 1153 556 
Q 1347 384 1650 384 
Q 1909 384 2104 503 
Q 2300 622 2425 820 
Q 2550 1019 2634 1356 
Q 2719 1694 2719 2044 
Q 2719 2081 2716 2156 
Q 2547 1888 2255 1720 
Q 1963 1553 1622 1553 
Q 1053 1553 659 1965 
Q 266 2378 266 3053 
Q 266 3750 677 4175 
Q 1088 4600 1706 4600 
Q 2153 4600 2523 4359 
Q 2894 4119 3086 3673 
Q 3278 3228 3278 2384 
Q 3278 1506 3087 986 
Q 2897 466 2520 194 
Q 2144 -78 1638 -78 
Q 1100 -78 759 220 
Q 419 519 350 1059 
z
M 2653 3081 
Q 2653 3566 2395 3850 
Q 2138 4134 1775 4134 
Q 1400 4134 1122 3828 
Q 844 3522 844 3034 
Q 844 2597 1108 2323 
Q 1372 2050 1759 2050 
Q 2150 2050 2401 2323 
Q 2653 2597 2653 3081 
z
" id="ArialMT-39" transform="scale(0.015625)"/>
       </defs>
       <use xlink:href="#ArialMT-32"/>
       <use x="55.615234" xlink:href="#ArialMT-30"/>
       <use x="111.230469" xlink:href="#ArialMT-32"/>
       <use x="166.845703" xlink:href="#ArialMT-30"/>
       <use x="222.460938" xlink:href="#ArialMT-2d"/>
       <use x="255.761719" xlink:href="#ArialMT-30"/>
       <use x="311.376953" xlink:href="#ArialMT-39"/>
      </g>
     </g>
    </g>
    <g id="xtick_5">
     <g id="line2d_5">
      <path clip-path="url(#p1cb95b4090)" d="M 317.153376 298.989375 
L 317.153376 21.789375 
" style="fill:none;stroke:#cccccc;stroke-linecap:round;stroke-width:0.8;"/>
     </g>
     <g id="text_5">
      <!-- 2020-11 -->
      <g style="fill:#262626;" transform="translate(299.17447 313.147188)scale(0.1 -0.1)">
       <defs>
        <path d="M 2384 0 
L 1822 0 
L 1822 3584 
Q 1619 3391 1289 3197 
Q 959 3003 697 2906 
L 697 3450 
Q 1169 3672 1522 3987 
Q 1875 4303 2022 4600 
L 2384 4600 
L 2384 0 
z
" id="ArialMT-31" transform="scale(0.015625)"/>
       </defs>
       <use xlink:href="#ArialMT-32"/>
       <use x="55.615234" xlink:href="#ArialMT-30"/>
       <use x="111.230469" xlink:href="#ArialMT-32"/>
       <use x="166.845703" xlink:href="#ArialMT-30"/>
       <use x="222.460938" xlink:href="#ArialMT-2d"/>
       <use x="255.761719" xlink:href="#ArialMT-31"/>
       <use x="304.001953" xlink:href="#ArialMT-31"/>
      </g>
     </g>
    </g>
    <g id="xtick_6">
     <g id="line2d_6">
      <path clip-path="url(#p1cb95b4090)" d="M 384.276232 298.989375 
L 384.276232 21.789375 
" style="fill:none;stroke:#cccccc;stroke-linecap:round;stroke-width:0.8;"/>
     </g>
     <g id="text_6">
      <!-- 2021-01 -->
      <g style="fill:#262626;" transform="translate(365.928575 313.147188)scale(0.1 -0.1)">
       <use xlink:href="#ArialMT-32"/>
       <use x="55.615234" xlink:href="#ArialMT-30"/>
       <use x="111.230469" xlink:href="#ArialMT-32"/>
       <use x="166.845703" xlink:href="#ArialMT-31"/>
       <use x="222.460938" xlink:href="#ArialMT-2d"/>
       <use x="255.761719" xlink:href="#ArialMT-30"/>
       <use x="311.376953" xlink:href="#ArialMT-31"/>
      </g>
     </g>
    </g>
    <g id="xtick_7">
     <g id="line2d_7">
      <path clip-path="url(#p1cb95b4090)" d="M 449.198338 298.989375 
L 449.198338 21.789375 
" style="fill:none;stroke:#cccccc;stroke-linecap:round;stroke-width:0.8;"/>
     </g>
     <g id="text_7">
      <!-- 2021-03 -->
      <g style="fill:#262626;" transform="translate(430.850681 313.147188)scale(0.1 -0.1)">
       <use xlink:href="#ArialMT-32"/>
       <use x="55.615234" xlink:href="#ArialMT-30"/>
       <use x="111.230469" xlink:href="#ArialMT-32"/>
       <use x="166.845703" xlink:href="#ArialMT-31"/>
       <use x="222.460938" xlink:href="#ArialMT-2d"/>
       <use x="255.761719" xlink:href="#ArialMT-30"/>
       <use x="311.376953" xlink:href="#ArialMT-33"/>
      </g>
     </g>
    </g>
    <g id="xtick_8">
     <g id="line2d_8">
      <path clip-path="url(#p1cb95b4090)" d="M 516.321193 298.989375 
L 516.321193 21.789375 
" style="fill:none;stroke:#cccccc;stroke-linecap:round;stroke-width:0.8;"/>
     </g>
     <g id="text_8">
      <!-- 2021-05 -->
      <g style="fill:#262626;" transform="translate(497.973537 313.147188)scale(0.1 -0.1)">
       <use xlink:href="#ArialMT-32"/>
       <use x="55.615234" xlink:href="#ArialMT-30"/>
       <use x="111.230469" xlink:href="#ArialMT-32"/>
       <use x="166.845703" xlink:href="#ArialMT-31"/>
       <use x="222.460938" xlink:href="#ArialMT-2d"/>
       <use x="255.761719" xlink:href="#ArialMT-30"/>
       <use x="311.376953" xlink:href="#ArialMT-35"/>
      </g>
     </g>
    </g>
    <g id="xtick_9">
     <g id="line2d_9">
      <path clip-path="url(#p1cb95b4090)" d="M 583.444049 298.989375 
L 583.444049 21.789375 
" style="fill:none;stroke:#cccccc;stroke-linecap:round;stroke-width:0.8;"/>
     </g>
     <g id="text_9">
      <!-- 2021-07 -->
      <g style="fill:#262626;" transform="translate(565.096392 313.147188)scale(0.1 -0.1)">
       <use xlink:href="#ArialMT-32"/>
       <use x="55.615234" xlink:href="#ArialMT-30"/>
       <use x="111.230469" xlink:href="#ArialMT-32"/>
       <use x="166.845703" xlink:href="#ArialMT-31"/>
       <use x="222.460938" xlink:href="#ArialMT-2d"/>
       <use x="255.761719" xlink:href="#ArialMT-30"/>
       <use x="311.376953" xlink:href="#ArialMT-37"/>
      </g>
     </g>
    </g>
   </g>
   <g id="matplotlib.axis_2">
    <g id="ytick_1">
     <g id="line2d_10">
      <path clip-path="url(#p1cb95b4090)" d="M 42.004687 286.389375 
L 600.004688 286.389375 
" style="fill:none;stroke:#cccccc;stroke-linecap:round;stroke-width:0.8;"/>
     </g>
     <g id="text_10">
      <!-- 0 -->
      <g style="fill:#262626;" transform="translate(29.44375 289.968281)scale(0.1 -0.1)">
       <use xlink:href="#ArialMT-30"/>
      </g>
     </g>
    </g>
    <g id="ytick_2">
     <g id="line2d_11">
      <path clip-path="url(#p1cb95b4090)" d="M 42.004687 232.383974 
L 600.004688 232.383974 
" style="fill:none;stroke:#cccccc;stroke-linecap:round;stroke-width:0.8;"/>
     </g>
     <g id="text_11">
      <!-- 10000 -->
      <g style="fill:#262626;" transform="translate(7.2 235.962881)scale(0.1 -0.1)">
       <use xlink:href="#ArialMT-31"/>
       <use x="55.615234" xlink:href="#ArialMT-30"/>
       <use x="111.230469" xlink:href="#ArialMT-30"/>
       <use x="166.845703" xlink:href="#ArialMT-30"/>
       <use x="222.460938" xlink:href="#ArialMT-30"/>
      </g>
     </g>
    </g>
    <g id="ytick_3">
     <g id="line2d_12">
      <path clip-path="url(#p1cb95b4090)" d="M 42.004687 178.378574 
L 600.004688 178.378574 
" style="fill:none;stroke:#cccccc;stroke-linecap:round;stroke-width:0.8;"/>
     </g>
     <g id="text_12">
      <!-- 20000 -->
      <g style="fill:#262626;" transform="translate(7.2 181.95748)scale(0.1 -0.1)">
       <use xlink:href="#ArialMT-32"/>
       <use x="55.615234" xlink:href="#ArialMT-30"/>
       <use x="111.230469" xlink:href="#ArialMT-30"/>
       <use x="166.845703" xlink:href="#ArialMT-30"/>
       <use x="222.460938" xlink:href="#ArialMT-30"/>
      </g>
     </g>
    </g>
    <g id="ytick_4">
     <g id="line2d_13">
      <path clip-path="url(#p1cb95b4090)" d="M 42.004687 124.373173 
L 600.004688 124.373173 
" style="fill:none;stroke:#cccccc;stroke-linecap:round;stroke-width:0.8;"/>
     </g>
     <g id="text_13">
      <!-- 30000 -->
      <g style="fill:#262626;" transform="translate(7.2 127.95208)scale(0.1 -0.1)">
       <use xlink:href="#ArialMT-33"/>
       <use x="55.615234" xlink:href="#ArialMT-30"/>
       <use x="111.230469" xlink:href="#ArialMT-30"/>
       <use x="166.845703" xlink:href="#ArialMT-30"/>
       <use x="222.460938" xlink:href="#ArialMT-30"/>
      </g>
     </g>
    </g>
    <g id="ytick_5">
     <g id="line2d_14">
      <path clip-path="url(#p1cb95b4090)" d="M 42.004687 70.367773 
L 600.004688 70.367773 
" style="fill:none;stroke:#cccccc;stroke-linecap:round;stroke-width:0.8;"/>
     </g>
     <g id="text_14">
      <!-- 40000 -->
      <g style="fill:#262626;" transform="translate(7.2 73.946679)scale(0.1 -0.1)">
       <defs>
        <path d="M 2069 0 
L 2069 1097 
L 81 1097 
L 81 1613 
L 2172 4581 
L 2631 4581 
L 2631 1613 
L 3250 1613 
L 3250 1097 
L 2631 1097 
L 2631 0 
L 2069 0 
z
M 2069 1613 
L 2069 3678 
L 634 1613 
L 2069 1613 
z
" id="ArialMT-34" transform="scale(0.015625)"/>
       </defs>
       <use xlink:href="#ArialMT-34"/>
       <use x="55.615234" xlink:href="#ArialMT-30"/>
       <use x="111.230469" xlink:href="#ArialMT-30"/>
       <use x="166.845703" xlink:href="#ArialMT-30"/>
       <use x="222.460938" xlink:href="#ArialMT-30"/>
      </g>
     </g>
    </g>
   </g>
   <g id="line2d_15">
    <path clip-path="url(#p1cb95b4090)" d="M 67.368324 286.389375 
L 78.372071 286.281364 
L 81.673195 286.032939 
L 84.974319 285.827719 
L 86.074693 285.827719 
L 91.576567 285.352471 
L 93.777316 285.287665 
L 95.978066 284.931229 
L 100.379564 284.590995 
L 103.680688 284.428979 
L 105.881438 284.050941 
L 106.981812 283.716108 
L 109.182562 283.689105 
L 115.78481 282.792615 
L 116.885184 282.722408 
L 117.985559 282.522588 
L 120.186308 281.43708 
L 121.286683 281.091445 
L 122.387058 280.34077 
L 124.587807 279.816918 
L 126.788557 279.368673 
L 128.989306 278.596396 
L 130.089681 278.207557 
L 132.29043 277.699906 
L 133.390805 276.814217 
L 134.491179 276.112147 
L 135.591554 275.771913 
L 136.691929 275.172453 
L 137.792303 274.184154 
L 138.892678 273.611697 
L 139.993053 271.807917 
L 141.093427 270.771013 
L 142.193802 269.950131 
L 143.294177 269.269663 
L 144.394551 268.783614 
L 145.494926 267.806117 
L 146.595301 267.390275 
L 147.695675 266.731409 
L 148.79605 265.726909 
L 152.097174 262.373173 
L 153.197549 261.449681 
L 154.297924 261.060842 
L 155.398298 261.044641 
L 156.498673 260.504587 
L 157.599048 259.273263 
L 158.699422 258.371373 
L 159.799797 256.497386 
L 160.900172 255.368673 
L 163.100921 252.074343 
L 164.201296 251.323668 
L 165.30167 250.34077 
L 166.402045 249.104046 
L 170.803544 244.756612 
L 171.903918 244.200356 
L 173.004293 243.449681 
L 175.205042 241.662102 
L 176.305417 240.34437 
L 177.405792 239.744911 
L 178.506166 239.512687 
L 179.606541 238.281364 
L 180.706916 237.779114 
L 182.907665 236.299366 
L 184.00804 235.159852 
L 185.108415 233.6423 
L 186.208789 231.708907 
L 187.309164 227.350671 
L 190.610288 226.151751 
L 191.710663 224.612597 
L 192.811037 224.180554 
L 193.911412 224.180554 
L 195.011787 223.365073 
L 196.112161 222.322768 
L 197.212536 221.021238 
L 198.312911 219.006837 
L 199.413285 217.894325 
L 200.51366 216.981634 
L 201.614035 215.674704 
L 202.714409 213.6387 
L 203.814784 212.763812 
L 204.915159 212.310167 
L 206.015533 211.645901 
L 207.115908 210.754812 
L 208.216283 209.701706 
L 211.517407 208.378574 
L 212.617782 207.795316 
L 213.718156 207.417278 
L 214.818531 206.590995 
L 215.918906 205.500086 
L 217.01928 204.830419 
L 218.119655 204.484785 
L 219.22003 203.93933 
L 221.420779 201.498286 
L 222.521154 200.077944 
L 223.621528 198.392975 
L 224.721903 197.582894 
L 225.822278 197.150851 
L 226.922652 195.854722 
L 228.023027 193.726909 
L 229.123402 193.046441 
L 231.324151 192.090545 
L 232.424526 192.031139 
L 234.625275 191.005037 
L 236.826025 189.563092 
L 237.926399 189.14185 
L 240.127149 189.071643 
L 243.428273 187.74311 
L 244.528647 187.710707 
L 245.629022 187.289465 
L 250.030521 186.387575 
L 251.130895 186.306567 
L 252.23127 185.869123 
L 254.432019 185.496486 
L 257.733143 185.491085 
L 258.833518 185.010437 
L 261.034267 184.481184 
L 263.235017 184.405577 
L 265.435766 183.649501 
L 266.536141 183.298466 
L 267.636516 182.796216 
L 269.837265 182.185955 
L 272.038014 182.148151 
L 273.138389 181.43528 
L 275.339138 180.727809 
L 276.439513 180.636 
L 277.539888 180.382174 
L 278.640262 180.382174 
L 279.740637 180.268763 
L 281.941386 179.361472 
L 284.142136 178.913227 
L 285.24251 178.583794 
L 287.44326 178.346171 
L 288.543634 178.027539 
L 289.644009 177.287665 
L 291.844758 175.262462 
L 295.145883 175.224659 
L 296.246257 173.917728 
L 299.547381 172.464983 
L 300.647756 172.227359 
L 301.748131 172.227359 
L 302.848505 170.358772 
L 303.94888 169.570293 
L 305.049255 169.13825 
L 308.350379 167.350671 
L 309.450753 167.350671 
L 310.551128 166.83762 
L 311.651503 166.070743 
L 313.852252 164.185955 
L 314.952627 163.694506 
L 317.153376 163.662102 
L 318.253751 163.354271 
L 321.554875 161.771913 
L 322.65525 160.913227 
L 323.755624 160.454181 
L 324.855999 160.356972 
L 329.257498 157.813317 
L 330.357872 157.04104 
L 332.558622 156.603596 
L 334.759371 155.928529 
L 335.859746 155.113047 
L 336.96012 154.497386 
L 338.060495 153.665703 
L 340.261244 152.807017 
L 341.361619 152.018538 
L 342.461994 151.532489 
L 344.662743 148.762012 
L 345.763118 148.011337 
L 346.863492 147.719708 
L 347.963867 147.719708 
L 349.064242 147.368673 
L 352.365366 144.949231 
L 353.465741 144.34437 
L 355.66649 143.798916 
L 356.766865 143.064443 
L 357.867239 142.502786 
L 358.967614 141.633299 
L 360.067989 140.958232 
L 361.168363 139.575694 
L 362.268738 137.064443 
L 364.469487 133.662102 
L 365.569862 132.965433 
L 367.770611 131.966333 
L 368.870986 131.431679 
L 369.971361 130.632399 
L 371.071735 129.617098 
L 372.17211 128.904226 
L 375.473234 127.845721 
L 378.774358 127.262462 
L 379.874733 126.83582 
L 380.975108 126.133749 
L 382.075482 125.615298 
L 384.276232 125.123848 
L 386.476981 123.762912 
L 387.577356 123.174253 
L 388.67773 122.915028 
L 391.978854 121.613497 
L 393.079229 121.019438 
L 394.179604 119.750311 
L 395.279978 119.167053 
L 396.380353 118.34077 
L 399.681477 115.462282 
L 400.781852 114.160752 
L 401.882226 112.648601 
L 402.982601 111.74131 
L 405.18335 109.726909 
L 406.283725 108.290365 
L 407.3841 107.626099 
L 408.484475 106.605397 
L 409.584849 106.346171 
L 410.685224 105.746711 
L 411.785599 104.23996 
L 412.885973 103.54329 
L 413.986348 102.684605 
L 423.88972 98.520788 
L 424.990095 97.424479 
L 427.190844 96.533389 
L 429.391593 95.447881 
L 431.592343 94.810617 
L 433.793092 94.589195 
L 434.893467 93.849321 
L 435.993842 92.726009 
L 438.194591 91.856522 
L 439.294966 91.494686 
L 440.39534 91.483884 
L 442.59609 90.965433 
L 443.696464 90.54419 
L 444.796839 90.371373 
L 446.997588 89.723308 
L 451.399087 88.83762 
L 453.599836 88.200356 
L 454.700211 87.633299 
L 455.800586 87.449681 
L 456.90096 87.028439 
L 458.001335 86.763812 
L 460.202084 86.428979 
L 461.302459 86.104947 
L 462.402834 85.969933 
L 465.703958 85.219258 
L 466.804333 85.014037 
L 469.005082 84.13915 
L 470.105457 83.507287 
L 471.205831 83.285865 
L 472.306206 82.6378 
L 473.406581 82.286765 
L 474.506955 82.200356 
L 475.60733 81.995136 
L 477.808079 80.990635 
L 478.908454 80.812417 
L 480.008829 80.283164 
L 482.209578 79.54329 
L 483.309953 79.33807 
L 484.410327 77.73951 
L 485.510702 75.649501 
L 486.611077 74.915028 
L 487.711451 74.374974 
L 489.912201 72.992435 
L 491.012575 71.804316 
L 492.11295 71.145451 
L 494.3137 69.050041 
L 496.514449 66.895226 
L 497.614824 66.295766 
L 498.715198 64.275964 
L 499.815573 63.471283 
L 500.915948 63.179654 
L 503.116697 62.185955 
L 504.217072 61.575694 
L 505.317446 61.408277 
L 506.417821 60.554992 
L 508.61857 59.194055 
L 509.718945 58.875424 
L 511.919694 57.044641 
L 513.020069 56.472183 
L 516.321193 55.284064 
L 517.421568 55.003236 
L 519.622317 54.727809 
L 524.023816 53.863722 
L 525.124191 53.415478 
L 526.224565 53.215658 
L 527.32494 52.848421 
L 529.525689 51.487485 
L 530.626064 51.104046 
L 531.726439 50.985235 
L 532.826813 49.910527 
L 533.927188 49.597296 
L 536.127937 48.560392 
L 537.228312 47.874524 
L 538.328687 47.350671 
L 540.529436 46.632399 
L 541.629811 45.779114 
L 546.031309 44.13735 
L 548.232059 43.689105 
L 549.332434 43.219258 
L 550.432808 42.949231 
L 551.533183 42.025739 
L 552.633558 41.815118 
L 553.733932 41.415478 
L 555.934682 40.999636 
L 561.436555 39.255262 
L 562.53693 38.807017 
L 563.637304 38.590995 
L 566.938428 37.527089 
L 569.139178 36.679204 
L 571.339927 36.317368 
L 572.440302 35.599096 
L 573.540676 35.14005 
L 574.641051 34.389375 
L 574.641051 34.389375 
" style="fill:none;stroke:#1f77b4;stroke-linecap:round;stroke-width:1.5;"/>
   </g>
   <g id="patch_3">
    <path d="M 42.004687 298.989375 
L 42.004687 21.789375 
" style="fill:none;stroke:#cccccc;stroke-linecap:square;stroke-linejoin:miter;stroke-width:0.8;"/>
   </g>
   <g id="patch_4">
    <path d="M 600.004688 298.989375 
L 600.004688 21.789375 
" style="fill:none;stroke:#cccccc;stroke-linecap:square;stroke-linejoin:miter;stroke-width:0.8;"/>
   </g>
   <g id="patch_5">
    <path d="M 42.004688 298.989375 
L 600.004688 298.989375 
" style="fill:none;stroke:#cccccc;stroke-linecap:square;stroke-linejoin:miter;stroke-width:0.8;"/>
   </g>
   <g id="patch_6">
    <path d="M 42.004688 21.789375 
L 600.004688 21.789375 
" style="fill:none;stroke:#cccccc;stroke-linecap:square;stroke-linejoin:miter;stroke-width:0.8;"/>
   </g>
   <g id="text_15">
    <!-- Casos Confirmados -->
    <g style="fill:#262626;" transform="translate(268.32 15.789375)scale(0.12 -0.12)">
     <defs>
      <path d="M 3763 1606 
L 4369 1453 
Q 4178 706 3683 314 
Q 3188 -78 2472 -78 
Q 1731 -78 1267 223 
Q 803 525 561 1097 
Q 319 1669 319 2325 
Q 319 3041 592 3573 
Q 866 4106 1370 4382 
Q 1875 4659 2481 4659 
Q 3169 4659 3637 4309 
Q 4106 3959 4291 3325 
L 3694 3184 
Q 3534 3684 3231 3912 
Q 2928 4141 2469 4141 
Q 1941 4141 1586 3887 
Q 1231 3634 1087 3207 
Q 944 2781 944 2328 
Q 944 1744 1114 1308 
Q 1284 872 1643 656 
Q 2003 441 2422 441 
Q 2931 441 3284 734 
Q 3638 1028 3763 1606 
z
" id="ArialMT-43" transform="scale(0.015625)"/>
      <path d="M 2588 409 
Q 2275 144 1986 34 
Q 1697 -75 1366 -75 
Q 819 -75 525 192 
Q 231 459 231 875 
Q 231 1119 342 1320 
Q 453 1522 633 1644 
Q 813 1766 1038 1828 
Q 1203 1872 1538 1913 
Q 2219 1994 2541 2106 
Q 2544 2222 2544 2253 
Q 2544 2597 2384 2738 
Q 2169 2928 1744 2928 
Q 1347 2928 1158 2789 
Q 969 2650 878 2297 
L 328 2372 
Q 403 2725 575 2942 
Q 747 3159 1072 3276 
Q 1397 3394 1825 3394 
Q 2250 3394 2515 3294 
Q 2781 3194 2906 3042 
Q 3031 2891 3081 2659 
Q 3109 2516 3109 2141 
L 3109 1391 
Q 3109 606 3145 398 
Q 3181 191 3288 0 
L 2700 0 
Q 2613 175 2588 409 
z
M 2541 1666 
Q 2234 1541 1622 1453 
Q 1275 1403 1131 1340 
Q 988 1278 909 1158 
Q 831 1038 831 891 
Q 831 666 1001 516 
Q 1172 366 1500 366 
Q 1825 366 2078 508 
Q 2331 650 2450 897 
Q 2541 1088 2541 1459 
L 2541 1666 
z
" id="ArialMT-61" transform="scale(0.015625)"/>
      <path d="M 197 991 
L 753 1078 
Q 800 744 1014 566 
Q 1228 388 1613 388 
Q 2000 388 2187 545 
Q 2375 703 2375 916 
Q 2375 1106 2209 1216 
Q 2094 1291 1634 1406 
Q 1016 1563 777 1677 
Q 538 1791 414 1992 
Q 291 2194 291 2438 
Q 291 2659 392 2848 
Q 494 3038 669 3163 
Q 800 3259 1026 3326 
Q 1253 3394 1513 3394 
Q 1903 3394 2198 3281 
Q 2494 3169 2634 2976 
Q 2775 2784 2828 2463 
L 2278 2388 
Q 2241 2644 2061 2787 
Q 1881 2931 1553 2931 
Q 1166 2931 1000 2803 
Q 834 2675 834 2503 
Q 834 2394 903 2306 
Q 972 2216 1119 2156 
Q 1203 2125 1616 2013 
Q 2213 1853 2448 1751 
Q 2684 1650 2818 1456 
Q 2953 1263 2953 975 
Q 2953 694 2789 445 
Q 2625 197 2315 61 
Q 2006 -75 1616 -75 
Q 969 -75 630 194 
Q 291 463 197 991 
z
" id="ArialMT-73" transform="scale(0.015625)"/>
      <path d="M 213 1659 
Q 213 2581 725 3025 
Q 1153 3394 1769 3394 
Q 2453 3394 2887 2945 
Q 3322 2497 3322 1706 
Q 3322 1066 3130 698 
Q 2938 331 2570 128 
Q 2203 -75 1769 -75 
Q 1072 -75 642 372 
Q 213 819 213 1659 
z
M 791 1659 
Q 791 1022 1069 705 
Q 1347 388 1769 388 
Q 2188 388 2466 706 
Q 2744 1025 2744 1678 
Q 2744 2294 2464 2611 
Q 2184 2928 1769 2928 
Q 1347 2928 1069 2612 
Q 791 2297 791 1659 
z
" id="ArialMT-6f" transform="scale(0.015625)"/>
      <path id="ArialMT-20" transform="scale(0.015625)"/>
      <path d="M 422 0 
L 422 3319 
L 928 3319 
L 928 2847 
Q 1294 3394 1984 3394 
Q 2284 3394 2536 3286 
Q 2788 3178 2913 3003 
Q 3038 2828 3088 2588 
Q 3119 2431 3119 2041 
L 3119 0 
L 2556 0 
L 2556 2019 
Q 2556 2363 2490 2533 
Q 2425 2703 2258 2804 
Q 2091 2906 1866 2906 
Q 1506 2906 1245 2678 
Q 984 2450 984 1813 
L 984 0 
L 422 0 
z
" id="ArialMT-6e" transform="scale(0.015625)"/>
      <path d="M 556 0 
L 556 2881 
L 59 2881 
L 59 3319 
L 556 3319 
L 556 3672 
Q 556 4006 616 4169 
Q 697 4388 901 4523 
Q 1106 4659 1475 4659 
Q 1713 4659 2000 4603 
L 1916 4113 
Q 1741 4144 1584 4144 
Q 1328 4144 1222 4034 
Q 1116 3925 1116 3625 
L 1116 3319 
L 1763 3319 
L 1763 2881 
L 1116 2881 
L 1116 0 
L 556 0 
z
" id="ArialMT-66" transform="scale(0.015625)"/>
      <path d="M 425 3934 
L 425 4581 
L 988 4581 
L 988 3934 
L 425 3934 
z
M 425 0 
L 425 3319 
L 988 3319 
L 988 0 
L 425 0 
z
" id="ArialMT-69" transform="scale(0.015625)"/>
      <path d="M 416 0 
L 416 3319 
L 922 3319 
L 922 2816 
Q 1116 3169 1280 3281 
Q 1444 3394 1641 3394 
Q 1925 3394 2219 3213 
L 2025 2691 
Q 1819 2813 1613 2813 
Q 1428 2813 1281 2702 
Q 1134 2591 1072 2394 
Q 978 2094 978 1738 
L 978 0 
L 416 0 
z
" id="ArialMT-72" transform="scale(0.015625)"/>
      <path d="M 422 0 
L 422 3319 
L 925 3319 
L 925 2853 
Q 1081 3097 1340 3245 
Q 1600 3394 1931 3394 
Q 2300 3394 2536 3241 
Q 2772 3088 2869 2813 
Q 3263 3394 3894 3394 
Q 4388 3394 4653 3120 
Q 4919 2847 4919 2278 
L 4919 0 
L 4359 0 
L 4359 2091 
Q 4359 2428 4304 2576 
Q 4250 2725 4106 2815 
Q 3963 2906 3769 2906 
Q 3419 2906 3187 2673 
Q 2956 2441 2956 1928 
L 2956 0 
L 2394 0 
L 2394 2156 
Q 2394 2531 2256 2718 
Q 2119 2906 1806 2906 
Q 1569 2906 1367 2781 
Q 1166 2656 1075 2415 
Q 984 2175 984 1722 
L 984 0 
L 422 0 
z
" id="ArialMT-6d" transform="scale(0.015625)"/>
      <path d="M 2575 0 
L 2575 419 
Q 2259 -75 1647 -75 
Q 1250 -75 917 144 
Q 584 363 401 755 
Q 219 1147 219 1656 
Q 219 2153 384 2558 
Q 550 2963 881 3178 
Q 1213 3394 1622 3394 
Q 1922 3394 2156 3267 
Q 2391 3141 2538 2938 
L 2538 4581 
L 3097 4581 
L 3097 0 
L 2575 0 
z
M 797 1656 
Q 797 1019 1065 703 
Q 1334 388 1700 388 
Q 2069 388 2326 689 
Q 2584 991 2584 1609 
Q 2584 2291 2321 2609 
Q 2059 2928 1675 2928 
Q 1300 2928 1048 2622 
Q 797 2316 797 1656 
z
" id="ArialMT-64" transform="scale(0.015625)"/>
     </defs>
     <use xlink:href="#ArialMT-43"/>
     <use x="72.216797" xlink:href="#ArialMT-61"/>
     <use x="127.832031" xlink:href="#ArialMT-73"/>
     <use x="177.832031" xlink:href="#ArialMT-6f"/>
     <use x="233.447266" xlink:href="#ArialMT-73"/>
     <use x="283.447266" xlink:href="#ArialMT-20"/>
     <use x="311.230469" xlink:href="#ArialMT-43"/>
     <use x="383.447266" xlink:href="#ArialMT-6f"/>
     <use x="439.0625" xlink:href="#ArialMT-6e"/>
     <use x="494.677734" xlink:href="#ArialMT-66"/>
     <use x="522.460938" xlink:href="#ArialMT-69"/>
     <use x="544.677734" xlink:href="#ArialMT-72"/>
     <use x="577.978516" xlink:href="#ArialMT-6d"/>
     <use x="661.279297" xlink:href="#ArialMT-61"/>
     <use x="716.894531" xlink:href="#ArialMT-64"/>
     <use x="772.509766" xlink:href="#ArialMT-6f"/>
     <use x="828.125" xlink:href="#ArialMT-73"/>
    </g>
   </g>
  </g>
 </g>
 <defs>
  <clipPath id="p1cb95b4090">
   <rect height="277.2" width="558" x="42.004687" y="21.789375"/>
  </clipPath>
 </defs>
</svg>
