<?xml version="1.0" encoding="utf-8" standalone="no"?>
<!DOCTYPE svg PUBLIC "-//W3C//DTD SVG 1.1//EN"
  "http://www.w3.org/Graphics/SVG/1.1/DTD/svg11.dtd">
<svg height="322.334688pt" version="1.1" viewBox="0 0 601.64375 322.334688" width="601.64375pt" xmlns="http://www.w3.org/2000/svg" xmlns:xlink="http://www.w3.org/1999/xlink">
 <metadata>
  <rdf:RDF xmlns:cc="http://creativecommons.org/ns#" xmlns:dc="http://purl.org/dc/elements/1.1/" xmlns:rdf="http://www.w3.org/1999/02/22-rdf-syntax-ns#">
   <cc:Work>
    <dc:type rdf:resource="http://purl.org/dc/dcmitype/StillImage"/>
    <dc:date>2021-04-27T18:35:13.413781</dc:date>
    <dc:format>image/svg+xml</dc:format>
    <dc:creator>
     <cc:Agent>
      <dc:title>Matplotlib v3.4.1, https://matplotlib.org/</dc:title>
     </cc:Agent>
    </dc:creator>
   </cc:Work>
  </rdf:RDF>
 </metadata>
 <defs>
  <style type="text/css">*{stroke-linecap:butt;stroke-linejoin:round;}</style>
 </defs>
 <g id="figure_1">
  <g id="patch_1">
   <path d="M 0 322.334688 
L 601.64375 322.334688 
L 601.64375 0 
L 0 0 
z
" style="fill:#ffffff;"/>
  </g>
  <g id="axes_1">
   <g id="patch_2">
    <path d="M 36.44375 298.989375 
L 594.44375 298.989375 
L 594.44375 21.789375 
L 36.44375 21.789375 
z
" style="fill:#ffffff;"/>
   </g>
   <g id="matplotlib.axis_1">
    <g id="xtick_1">
     <g id="line2d_1">
      <path clip-path="url(#pecd2848bdc)" d="M 39.206126 298.989375 
L 39.206126 21.789375 
" style="fill:none;stroke:#cccccc;stroke-linecap:round;stroke-width:0.8;"/>
     </g>
     <g id="text_1">
      <!-- 2020-03 -->
      <g style="fill:#262626;" transform="translate(20.85847 313.147188)scale(0.1 -0.1)">
       <defs>
        <path d="M 3222 541 
L 3222 0 
L 194 0 
Q 188 203 259 391 
Q 375 700 629 1000 
Q 884 1300 1366 1694 
Q 2113 2306 2375 2664 
Q 2638 3022 2638 3341 
Q 2638 3675 2398 3904 
Q 2159 4134 1775 4134 
Q 1369 4134 1125 3890 
Q 881 3647 878 3216 
L 300 3275 
Q 359 3922 746 4261 
Q 1134 4600 1788 4600 
Q 2447 4600 2831 4234 
Q 3216 3869 3216 3328 
Q 3216 3053 3103 2787 
Q 2991 2522 2730 2228 
Q 2469 1934 1863 1422 
Q 1356 997 1212 845 
Q 1069 694 975 541 
L 3222 541 
z
" id="ArialMT-32" transform="scale(0.015625)"/>
        <path d="M 266 2259 
Q 266 3072 433 3567 
Q 600 4063 929 4331 
Q 1259 4600 1759 4600 
Q 2128 4600 2406 4451 
Q 2684 4303 2865 4023 
Q 3047 3744 3150 3342 
Q 3253 2941 3253 2259 
Q 3253 1453 3087 958 
Q 2922 463 2592 192 
Q 2263 -78 1759 -78 
Q 1097 -78 719 397 
Q 266 969 266 2259 
z
M 844 2259 
Q 844 1131 1108 757 
Q 1372 384 1759 384 
Q 2147 384 2411 759 
Q 2675 1134 2675 2259 
Q 2675 3391 2411 3762 
Q 2147 4134 1753 4134 
Q 1366 4134 1134 3806 
Q 844 3388 844 2259 
z
" id="ArialMT-30" transform="scale(0.015625)"/>
        <path d="M 203 1375 
L 203 1941 
L 1931 1941 
L 1931 1375 
L 203 1375 
z
" id="ArialMT-2d" transform="scale(0.015625)"/>
        <path d="M 269 1209 
L 831 1284 
Q 928 806 1161 595 
Q 1394 384 1728 384 
Q 2125 384 2398 659 
Q 2672 934 2672 1341 
Q 2672 1728 2419 1979 
Q 2166 2231 1775 2231 
Q 1616 2231 1378 2169 
L 1441 2663 
Q 1497 2656 1531 2656 
Q 1891 2656 2178 2843 
Q 2466 3031 2466 3422 
Q 2466 3731 2256 3934 
Q 2047 4138 1716 4138 
Q 1388 4138 1169 3931 
Q 950 3725 888 3313 
L 325 3413 
Q 428 3978 793 4289 
Q 1159 4600 1703 4600 
Q 2078 4600 2393 4439 
Q 2709 4278 2876 4000 
Q 3044 3722 3044 3409 
Q 3044 3113 2884 2869 
Q 2725 2625 2413 2481 
Q 2819 2388 3044 2092 
Q 3269 1797 3269 1353 
Q 3269 753 2831 336 
Q 2394 -81 1725 -81 
Q 1122 -81 723 278 
Q 325 638 269 1209 
z
" id="ArialMT-33" transform="scale(0.015625)"/>
       </defs>
       <use xlink:href="#ArialMT-32"/>
       <use x="55.615234" xlink:href="#ArialMT-30"/>
       <use x="111.230469" xlink:href="#ArialMT-32"/>
       <use x="166.845703" xlink:href="#ArialMT-30"/>
       <use x="222.460938" xlink:href="#ArialMT-2d"/>
       <use x="255.761719" xlink:href="#ArialMT-30"/>
       <use x="311.376953" xlink:href="#ArialMT-33"/>
      </g>
     </g>
    </g>
    <g id="xtick_2">
     <g id="line2d_2">
      <path clip-path="url(#pecd2848bdc)" d="M 115.799286 298.989375 
L 115.799286 21.789375 
" style="fill:none;stroke:#cccccc;stroke-linecap:round;stroke-width:0.8;"/>
     </g>
     <g id="text_2">
      <!-- 2020-05 -->
      <g style="fill:#262626;" transform="translate(97.451629 313.147188)scale(0.1 -0.1)">
       <defs>
        <path d="M 266 1200 
L 856 1250 
Q 922 819 1161 601 
Q 1400 384 1738 384 
Q 2144 384 2425 690 
Q 2706 997 2706 1503 
Q 2706 1984 2436 2262 
Q 2166 2541 1728 2541 
Q 1456 2541 1237 2417 
Q 1019 2294 894 2097 
L 366 2166 
L 809 4519 
L 3088 4519 
L 3088 3981 
L 1259 3981 
L 1013 2750 
Q 1425 3038 1878 3038 
Q 2478 3038 2890 2622 
Q 3303 2206 3303 1553 
Q 3303 931 2941 478 
Q 2500 -78 1738 -78 
Q 1113 -78 717 272 
Q 322 622 266 1200 
z
" id="ArialMT-35" transform="scale(0.015625)"/>
       </defs>
       <use xlink:href="#ArialMT-32"/>
       <use x="55.615234" xlink:href="#ArialMT-30"/>
       <use x="111.230469" xlink:href="#ArialMT-32"/>
       <use x="166.845703" xlink:href="#ArialMT-30"/>
       <use x="222.460938" xlink:href="#ArialMT-2d"/>
       <use x="255.761719" xlink:href="#ArialMT-30"/>
       <use x="311.376953" xlink:href="#ArialMT-35"/>
      </g>
     </g>
    </g>
    <g id="xtick_3">
     <g id="line2d_3">
      <path clip-path="url(#pecd2848bdc)" d="M 192.392445 298.989375 
L 192.392445 21.789375 
" style="fill:none;stroke:#cccccc;stroke-linecap:round;stroke-width:0.8;"/>
     </g>
     <g id="text_3">
      <!-- 2020-07 -->
      <g style="fill:#262626;" transform="translate(174.044789 313.147188)scale(0.1 -0.1)">
       <defs>
        <path d="M 303 3981 
L 303 4522 
L 3269 4522 
L 3269 4084 
Q 2831 3619 2401 2847 
Q 1972 2075 1738 1259 
Q 1569 684 1522 0 
L 944 0 
Q 953 541 1156 1306 
Q 1359 2072 1739 2783 
Q 2119 3494 2547 3981 
L 303 3981 
z
" id="ArialMT-37" transform="scale(0.015625)"/>
       </defs>
       <use xlink:href="#ArialMT-32"/>
       <use x="55.615234" xlink:href="#ArialMT-30"/>
       <use x="111.230469" xlink:href="#ArialMT-32"/>
       <use x="166.845703" xlink:href="#ArialMT-30"/>
       <use x="222.460938" xlink:href="#ArialMT-2d"/>
       <use x="255.761719" xlink:href="#ArialMT-30"/>
       <use x="311.376953" xlink:href="#ArialMT-37"/>
      </g>
     </g>
    </g>
    <g id="xtick_4">
     <g id="line2d_4">
      <path clip-path="url(#pecd2848bdc)" d="M 270.24123 298.989375 
L 270.24123 21.789375 
" style="fill:none;stroke:#cccccc;stroke-linecap:round;stroke-width:0.8;"/>
     </g>
     <g id="text_4">
      <!-- 2020-09 -->
      <g style="fill:#262626;" transform="translate(251.893573 313.147188)scale(0.1 -0.1)">
       <defs>
        <path d="M 350 1059 
L 891 1109 
Q 959 728 1153 556 
Q 1347 384 1650 384 
Q 1909 384 2104 503 
Q 2300 622 2425 820 
Q 2550 1019 2634 1356 
Q 2719 1694 2719 2044 
Q 2719 2081 2716 2156 
Q 2547 1888 2255 1720 
Q 1963 1553 1622 1553 
Q 1053 1553 659 1965 
Q 266 2378 266 3053 
Q 266 3750 677 4175 
Q 1088 4600 1706 4600 
Q 2153 4600 2523 4359 
Q 2894 4119 3086 3673 
Q 3278 3228 3278 2384 
Q 3278 1506 3087 986 
Q 2897 466 2520 194 
Q 2144 -78 1638 -78 
Q 1100 -78 759 220 
Q 419 519 350 1059 
z
M 2653 3081 
Q 2653 3566 2395 3850 
Q 2138 4134 1775 4134 
Q 1400 4134 1122 3828 
Q 844 3522 844 3034 
Q 844 2597 1108 2323 
Q 1372 2050 1759 2050 
Q 2150 2050 2401 2323 
Q 2653 2597 2653 3081 
z
" id="ArialMT-39" transform="scale(0.015625)"/>
       </defs>
       <use xlink:href="#ArialMT-32"/>
       <use x="55.615234" xlink:href="#ArialMT-30"/>
       <use x="111.230469" xlink:href="#ArialMT-32"/>
       <use x="166.845703" xlink:href="#ArialMT-30"/>
       <use x="222.460938" xlink:href="#ArialMT-2d"/>
       <use x="255.761719" xlink:href="#ArialMT-30"/>
       <use x="311.376953" xlink:href="#ArialMT-39"/>
      </g>
     </g>
    </g>
    <g id="xtick_5">
     <g id="line2d_5">
      <path clip-path="url(#pecd2848bdc)" d="M 346.834389 298.989375 
L 346.834389 21.789375 
" style="fill:none;stroke:#cccccc;stroke-linecap:round;stroke-width:0.8;"/>
     </g>
     <g id="text_5">
      <!-- 2020-11 -->
      <g style="fill:#262626;" transform="translate(328.855483 313.147188)scale(0.1 -0.1)">
       <defs>
        <path d="M 2384 0 
L 1822 0 
L 1822 3584 
Q 1619 3391 1289 3197 
Q 959 3003 697 2906 
L 697 3450 
Q 1169 3672 1522 3987 
Q 1875 4303 2022 4600 
L 2384 4600 
L 2384 0 
z
" id="ArialMT-31" transform="scale(0.015625)"/>
       </defs>
       <use xlink:href="#ArialMT-32"/>
       <use x="55.615234" xlink:href="#ArialMT-30"/>
       <use x="111.230469" xlink:href="#ArialMT-32"/>
       <use x="166.845703" xlink:href="#ArialMT-30"/>
       <use x="222.460938" xlink:href="#ArialMT-2d"/>
       <use x="255.761719" xlink:href="#ArialMT-31"/>
       <use x="304.001953" xlink:href="#ArialMT-31"/>
      </g>
     </g>
    </g>
    <g id="xtick_6">
     <g id="line2d_6">
      <path clip-path="url(#pecd2848bdc)" d="M 423.427548 298.989375 
L 423.427548 21.789375 
" style="fill:none;stroke:#cccccc;stroke-linecap:round;stroke-width:0.8;"/>
     </g>
     <g id="text_6">
      <!-- 2021-01 -->
      <g style="fill:#262626;" transform="translate(405.079892 313.147188)scale(0.1 -0.1)">
       <use xlink:href="#ArialMT-32"/>
       <use x="55.615234" xlink:href="#ArialMT-30"/>
       <use x="111.230469" xlink:href="#ArialMT-32"/>
       <use x="166.845703" xlink:href="#ArialMT-31"/>
       <use x="222.460938" xlink:href="#ArialMT-2d"/>
       <use x="255.761719" xlink:href="#ArialMT-30"/>
       <use x="311.376953" xlink:href="#ArialMT-31"/>
      </g>
     </g>
    </g>
    <g id="xtick_7">
     <g id="line2d_7">
      <path clip-path="url(#pecd2848bdc)" d="M 497.509457 298.989375 
L 497.509457 21.789375 
" style="fill:none;stroke:#cccccc;stroke-linecap:round;stroke-width:0.8;"/>
     </g>
     <g id="text_7">
      <!-- 2021-03 -->
      <g style="fill:#262626;" transform="translate(479.1618 313.147188)scale(0.1 -0.1)">
       <use xlink:href="#ArialMT-32"/>
       <use x="55.615234" xlink:href="#ArialMT-30"/>
       <use x="111.230469" xlink:href="#ArialMT-32"/>
       <use x="166.845703" xlink:href="#ArialMT-31"/>
       <use x="222.460938" xlink:href="#ArialMT-2d"/>
       <use x="255.761719" xlink:href="#ArialMT-30"/>
       <use x="311.376953" xlink:href="#ArialMT-33"/>
      </g>
     </g>
    </g>
    <g id="xtick_8">
     <g id="line2d_8">
      <path clip-path="url(#pecd2848bdc)" d="M 574.102616 298.989375 
L 574.102616 21.789375 
" style="fill:none;stroke:#cccccc;stroke-linecap:round;stroke-width:0.8;"/>
     </g>
     <g id="text_8">
      <!-- 2021-05 -->
      <g style="fill:#262626;" transform="translate(555.75496 313.147188)scale(0.1 -0.1)">
       <use xlink:href="#ArialMT-32"/>
       <use x="55.615234" xlink:href="#ArialMT-30"/>
       <use x="111.230469" xlink:href="#ArialMT-32"/>
       <use x="166.845703" xlink:href="#ArialMT-31"/>
       <use x="222.460938" xlink:href="#ArialMT-2d"/>
       <use x="255.761719" xlink:href="#ArialMT-30"/>
       <use x="311.376953" xlink:href="#ArialMT-35"/>
      </g>
     </g>
    </g>
   </g>
   <g id="matplotlib.axis_2">
    <g id="ytick_1">
     <g id="line2d_9">
      <path clip-path="url(#pecd2848bdc)" d="M 36.44375 286.389375 
L 594.44375 286.389375 
" style="fill:none;stroke:#cccccc;stroke-linecap:round;stroke-width:0.8;"/>
     </g>
     <g id="text_9">
      <!-- 0 -->
      <g style="fill:#262626;" transform="translate(23.882813 289.968281)scale(0.1 -0.1)">
       <use xlink:href="#ArialMT-30"/>
      </g>
     </g>
    </g>
    <g id="ytick_2">
     <g id="line2d_10">
      <path clip-path="url(#pecd2848bdc)" d="M 36.44375 251.534603 
L 594.44375 251.534603 
" style="fill:none;stroke:#cccccc;stroke-linecap:round;stroke-width:0.8;"/>
     </g>
     <g id="text_10">
      <!-- 200 -->
      <g style="fill:#262626;" transform="translate(12.760938 255.113509)scale(0.1 -0.1)">
       <use xlink:href="#ArialMT-32"/>
       <use x="55.615234" xlink:href="#ArialMT-30"/>
       <use x="111.230469" xlink:href="#ArialMT-30"/>
      </g>
     </g>
    </g>
    <g id="ytick_3">
     <g id="line2d_11">
      <path clip-path="url(#pecd2848bdc)" d="M 36.44375 216.679831 
L 594.44375 216.679831 
" style="fill:none;stroke:#cccccc;stroke-linecap:round;stroke-width:0.8;"/>
     </g>
     <g id="text_11">
      <!-- 400 -->
      <g style="fill:#262626;" transform="translate(12.760938 220.258738)scale(0.1 -0.1)">
       <defs>
        <path d="M 2069 0 
L 2069 1097 
L 81 1097 
L 81 1613 
L 2172 4581 
L 2631 4581 
L 2631 1613 
L 3250 1613 
L 3250 1097 
L 2631 1097 
L 2631 0 
L 2069 0 
z
M 2069 1613 
L 2069 3678 
L 634 1613 
L 2069 1613 
z
" id="ArialMT-34" transform="scale(0.015625)"/>
       </defs>
       <use xlink:href="#ArialMT-34"/>
       <use x="55.615234" xlink:href="#ArialMT-30"/>
       <use x="111.230469" xlink:href="#ArialMT-30"/>
      </g>
     </g>
    </g>
    <g id="ytick_4">
     <g id="line2d_12">
      <path clip-path="url(#pecd2848bdc)" d="M 36.44375 181.82506 
L 594.44375 181.82506 
" style="fill:none;stroke:#cccccc;stroke-linecap:round;stroke-width:0.8;"/>
     </g>
     <g id="text_12">
      <!-- 600 -->
      <g style="fill:#262626;" transform="translate(12.760938 185.403966)scale(0.1 -0.1)">
       <defs>
        <path d="M 3184 3459 
L 2625 3416 
Q 2550 3747 2413 3897 
Q 2184 4138 1850 4138 
Q 1581 4138 1378 3988 
Q 1113 3794 959 3422 
Q 806 3050 800 2363 
Q 1003 2672 1297 2822 
Q 1591 2972 1913 2972 
Q 2475 2972 2870 2558 
Q 3266 2144 3266 1488 
Q 3266 1056 3080 686 
Q 2894 316 2569 119 
Q 2244 -78 1831 -78 
Q 1128 -78 684 439 
Q 241 956 241 2144 
Q 241 3472 731 4075 
Q 1159 4600 1884 4600 
Q 2425 4600 2770 4297 
Q 3116 3994 3184 3459 
z
M 888 1484 
Q 888 1194 1011 928 
Q 1134 663 1356 523 
Q 1578 384 1822 384 
Q 2178 384 2434 671 
Q 2691 959 2691 1453 
Q 2691 1928 2437 2201 
Q 2184 2475 1800 2475 
Q 1419 2475 1153 2201 
Q 888 1928 888 1484 
z
" id="ArialMT-36" transform="scale(0.015625)"/>
       </defs>
       <use xlink:href="#ArialMT-36"/>
       <use x="55.615234" xlink:href="#ArialMT-30"/>
       <use x="111.230469" xlink:href="#ArialMT-30"/>
      </g>
     </g>
    </g>
    <g id="ytick_5">
     <g id="line2d_13">
      <path clip-path="url(#pecd2848bdc)" d="M 36.44375 146.970288 
L 594.44375 146.970288 
" style="fill:none;stroke:#cccccc;stroke-linecap:round;stroke-width:0.8;"/>
     </g>
     <g id="text_13">
      <!-- 800 -->
      <g style="fill:#262626;" transform="translate(12.760938 150.549194)scale(0.1 -0.1)">
       <defs>
        <path d="M 1131 2484 
Q 781 2613 612 2850 
Q 444 3088 444 3419 
Q 444 3919 803 4259 
Q 1163 4600 1759 4600 
Q 2359 4600 2725 4251 
Q 3091 3903 3091 3403 
Q 3091 3084 2923 2848 
Q 2756 2613 2416 2484 
Q 2838 2347 3058 2040 
Q 3278 1734 3278 1309 
Q 3278 722 2862 322 
Q 2447 -78 1769 -78 
Q 1091 -78 675 323 
Q 259 725 259 1325 
Q 259 1772 486 2073 
Q 713 2375 1131 2484 
z
M 1019 3438 
Q 1019 3113 1228 2906 
Q 1438 2700 1772 2700 
Q 2097 2700 2305 2904 
Q 2513 3109 2513 3406 
Q 2513 3716 2298 3927 
Q 2084 4138 1766 4138 
Q 1444 4138 1231 3931 
Q 1019 3725 1019 3438 
z
M 838 1322 
Q 838 1081 952 856 
Q 1066 631 1291 507 
Q 1516 384 1775 384 
Q 2178 384 2440 643 
Q 2703 903 2703 1303 
Q 2703 1709 2433 1975 
Q 2163 2241 1756 2241 
Q 1359 2241 1098 1978 
Q 838 1716 838 1322 
z
" id="ArialMT-38" transform="scale(0.015625)"/>
       </defs>
       <use xlink:href="#ArialMT-38"/>
       <use x="55.615234" xlink:href="#ArialMT-30"/>
       <use x="111.230469" xlink:href="#ArialMT-30"/>
      </g>
     </g>
    </g>
    <g id="ytick_6">
     <g id="line2d_14">
      <path clip-path="url(#pecd2848bdc)" d="M 36.44375 112.115516 
L 594.44375 112.115516 
" style="fill:none;stroke:#cccccc;stroke-linecap:round;stroke-width:0.8;"/>
     </g>
     <g id="text_14">
      <!-- 1000 -->
      <g style="fill:#262626;" transform="translate(7.2 115.694422)scale(0.1 -0.1)">
       <use xlink:href="#ArialMT-31"/>
       <use x="55.615234" xlink:href="#ArialMT-30"/>
       <use x="111.230469" xlink:href="#ArialMT-30"/>
       <use x="166.845703" xlink:href="#ArialMT-30"/>
      </g>
     </g>
    </g>
    <g id="ytick_7">
     <g id="line2d_15">
      <path clip-path="url(#pecd2848bdc)" d="M 36.44375 77.260744 
L 594.44375 77.260744 
" style="fill:none;stroke:#cccccc;stroke-linecap:round;stroke-width:0.8;"/>
     </g>
     <g id="text_15">
      <!-- 1200 -->
      <g style="fill:#262626;" transform="translate(7.2 80.839651)scale(0.1 -0.1)">
       <use xlink:href="#ArialMT-31"/>
       <use x="55.615234" xlink:href="#ArialMT-32"/>
       <use x="111.230469" xlink:href="#ArialMT-30"/>
       <use x="166.845703" xlink:href="#ArialMT-30"/>
      </g>
     </g>
    </g>
    <g id="ytick_8">
     <g id="line2d_16">
      <path clip-path="url(#pecd2848bdc)" d="M 36.44375 42.405973 
L 594.44375 42.405973 
" style="fill:none;stroke:#cccccc;stroke-linecap:round;stroke-width:0.8;"/>
     </g>
     <g id="text_16">
      <!-- 1400 -->
      <g style="fill:#262626;" transform="translate(7.2 45.984879)scale(0.1 -0.1)">
       <use xlink:href="#ArialMT-31"/>
       <use x="55.615234" xlink:href="#ArialMT-34"/>
       <use x="111.230469" xlink:href="#ArialMT-30"/>
       <use x="166.845703" xlink:href="#ArialMT-30"/>
      </g>
     </g>
    </g>
   </g>
   <g id="line2d_17">
    <path clip-path="url(#pecd2848bdc)" d="M 61.807386 286.389375 
L 76.874893 286.389375 
L 78.130519 286.215101 
L 79.386144 285.69228 
L 83.153021 285.69228 
L 84.408646 285.518006 
L 85.664272 284.646636 
L 88.175523 284.646636 
L 90.686774 283.949541 
L 91.9424 283.949541 
L 93.198025 283.775267 
L 95.709277 282.729624 
L 96.964902 282.55535 
L 98.220528 282.55535 
L 99.476153 282.381076 
L 100.731779 282.381076 
L 101.987404 282.032529 
L 103.24303 281.858255 
L 104.498655 281.335433 
L 105.754281 280.986885 
L 107.009907 280.28979 
L 109.521158 280.28979 
L 110.776783 278.721325 
L 112.032409 277.675682 
L 114.54366 277.327134 
L 115.799286 276.978587 
L 118.310537 276.630039 
L 120.821788 275.932943 
L 122.077413 275.75867 
L 123.333039 275.410122 
L 124.588664 274.538753 
L 125.84429 274.364479 
L 127.099916 274.364479 
L 128.355541 274.015931 
L 129.611167 273.841657 
L 132.122418 272.447466 
L 133.378043 272.098919 
L 134.633669 271.576097 
L 135.889295 271.227549 
L 137.14492 270.181906 
L 138.400546 269.484811 
L 139.656171 269.136263 
L 140.911797 268.264894 
L 142.167422 268.264894 
L 143.423048 267.742072 
L 144.678673 267.742072 
L 145.934299 266.522155 
L 147.189925 265.476512 
L 148.44555 262.513856 
L 150.956801 261.468213 
L 152.212427 260.42257 
L 153.468052 260.074022 
L 154.723678 258.854105 
L 155.979304 258.505558 
L 157.234929 257.808462 
L 158.490555 257.459914 
L 159.74618 255.89145 
L 161.001806 255.02008 
L 163.513057 253.62589 
L 166.024308 251.883151 
L 167.279934 250.48896 
L 168.535559 249.443317 
L 169.791185 247.700578 
L 171.04681 247.700578 
L 172.302436 246.480661 
L 173.558061 245.08647 
L 174.813687 242.82091 
L 176.069313 240.903898 
L 177.324938 237.418421 
L 178.580564 234.630039 
L 179.836189 234.630039 
L 181.091815 232.015931 
L 182.34744 230.098919 
L 183.603066 227.310537 
L 184.858691 226.613441 
L 186.114317 223.82506 
L 188.625568 223.82506 
L 189.881194 222.430869 
L 191.136819 222.082321 
L 193.64807 220.339582 
L 194.903696 220.165309 
L 197.414947 220.165309 
L 198.670573 219.119665 
L 199.926198 218.945392 
L 201.181824 218.248296 
L 202.437449 218.248296 
L 203.693075 217.376927 
L 204.9487 217.028379 
L 206.204326 217.028379 
L 207.459952 215.285641 
L 209.971203 215.285641 
L 211.226828 214.414271 
L 212.482454 212.322985 
L 214.993705 212.322985 
L 216.249331 212.148711 
L 217.504956 211.62589 
L 218.760582 210.75452 
L 221.271833 209.708877 
L 222.527458 208.48896 
L 223.783084 208.48896 
L 225.038709 207.966138 
L 226.294335 207.269043 
L 227.549961 206.2234 
L 228.805586 205.003483 
L 230.061212 204.306387 
L 232.572463 204.306387 
L 233.828088 203.260744 
L 235.083714 201.866553 
L 236.33934 201.169458 
L 237.594965 200.82091 
L 238.850591 199.949541 
L 240.106216 199.949541 
L 242.617467 199.600993 
L 243.873093 198.729624 
L 245.128718 196.28979 
L 246.384344 195.418421 
L 247.63997 194.721325 
L 250.151221 194.721325 
L 251.406846 193.849956 
L 252.662472 193.501408 
L 253.918097 192.281491 
L 256.429349 191.932943 
L 258.9406 191.932943 
L 260.196225 191.235848 
L 261.451851 190.364479 
L 262.707476 190.015931 
L 263.963102 189.318836 
L 265.218727 188.796014 
L 267.729979 188.796014 
L 270.24123 187.401823 
L 271.496855 186.879002 
L 274.008106 186.530454 
L 275.263732 186.181906 
L 277.774983 185.833358 
L 279.030609 185.484811 
L 280.286234 184.613441 
L 281.54186 184.613441 
L 282.797485 184.264894 
L 285.308736 184.264894 
L 286.564362 184.09062 
L 287.819988 183.567798 
L 289.075613 182.347881 
L 290.331239 180.256595 
L 291.586864 179.908047 
L 295.353741 179.908047 
L 296.609367 178.68813 
L 300.376243 178.165309 
L 302.887494 178.165309 
L 304.14312 177.816761 
L 305.398745 176.771118 
L 306.654371 176.42257 
L 307.909997 175.551201 
L 311.676873 175.551201 
L 312.932499 175.376927 
L 315.44375 174.679831 
L 316.699376 174.679831 
L 317.955001 173.982736 
L 321.721878 173.982736 
L 322.977503 173.285641 
L 325.488755 171.542902 
L 326.74438 171.02008 
L 329.255631 171.02008 
L 330.511257 170.845807 
L 331.766882 169.974437 
L 335.533759 168.928794 
L 339.300636 168.928794 
L 341.811887 168.580246 
L 343.067512 168.057425 
L 344.323138 167.708877 
L 348.090015 167.186055 
L 349.34564 166.314686 
L 350.601266 166.140412 
L 351.856891 165.443317 
L 353.112517 164.920495 
L 355.623768 164.920495 
L 356.879394 164.746221 
L 358.135019 163.874852 
L 359.390645 162.480661 
L 360.64627 161.260744 
L 361.901896 160.737923 
L 364.413147 160.737923 
L 365.668773 160.040827 
L 366.924398 157.426719 
L 369.435649 157.078172 
L 373.202526 157.078172 
L 374.458151 154.812612 
L 375.713777 153.766968 
L 376.969403 153.069873 
L 378.225028 151.849956 
L 379.480654 151.327134 
L 380.736279 151.15286 
L 381.991905 151.15286 
L 383.24753 150.107217 
L 384.503156 148.538753 
L 385.758782 147.667383 
L 387.014407 146.970288 
L 388.270033 145.924645 
L 390.781284 145.924645 
L 392.036909 144.530454 
L 393.292535 143.484811 
L 394.54816 142.613441 
L 397.059412 141.567798 
L 398.315037 141.219251 
L 399.570663 141.044977 
L 402.081914 138.256595 
L 403.337539 137.210952 
L 404.593165 137.036678 
L 405.848791 136.339582 
L 407.104416 136.165309 
L 408.360042 136.165309 
L 409.615667 135.293939 
L 410.871293 135.119665 
L 412.126918 134.248296 
L 417.149421 134.248296 
L 418.405046 133.376927 
L 419.660672 131.634188 
L 420.916297 127.974437 
L 425.9388 127.974437 
L 428.450051 126.928794 
L 429.705676 125.186055 
L 430.961302 124.314686 
L 432.216927 123.617591 
L 434.728178 123.617591 
L 435.983804 121.874852 
L 437.23943 121.700578 
L 438.495055 119.783566 
L 439.750681 119.260744 
L 441.006306 118.040827 
L 443.517557 118.040827 
L 444.773183 117.169458 
L 447.284434 114.729624 
L 448.54006 110.372777 
L 451.051311 109.675682 
L 454.818187 109.675682 
L 456.073813 108.630039 
L 457.329439 107.932943 
L 458.585064 107.584396 
L 459.84069 107.410122 
L 461.096315 107.410122 
L 463.607566 106.713026 
L 466.118818 104.62174 
L 467.374443 104.273192 
L 469.885694 104.273192 
L 471.14132 103.227549 
L 472.396945 102.35618 
L 473.652571 101.659085 
L 474.908196 101.136263 
L 477.419448 100.787715 
L 478.675073 100.787715 
L 479.930699 100.09062 
L 481.186324 99.742072 
L 482.44195 99.567798 
L 483.697575 99.219251 
L 487.464452 99.219251 
L 488.720078 98.522155 
L 489.975703 97.999334 
L 491.231329 96.779416 
L 492.486954 96.082321 
L 493.74258 95.210952 
L 494.998205 94.862404 
L 496.253831 94.862404 
L 497.509457 94.68813 
L 498.765082 94.339582 
L 500.020708 92.945392 
L 501.276333 92.42257 
L 502.531959 92.074022 
L 505.04321 92.074022 
L 506.298836 91.202653 
L 507.554461 90.854105 
L 508.810087 89.285641 
L 510.065712 88.065724 
L 511.321338 87.717176 
L 513.832589 87.717176 
L 515.088214 87.368628 
L 516.34384 86.497259 
L 517.599466 85.800163 
L 518.855091 84.75452 
L 520.110717 83.534603 
L 521.366342 83.360329 
L 522.621968 83.360329 
L 525.133219 80.571948 
L 526.388845 79.874852 
L 527.64447 77.609292 
L 528.900096 77.260744 
L 530.155721 76.215101 
L 531.411347 76.040827 
L 533.922598 73.252446 
L 535.178223 71.509707 
L 536.433849 70.812612 
L 537.689475 69.592695 
L 538.9451 68.895599 
L 540.200726 68.895599 
L 541.456351 67.501408 
L 542.711977 64.8873 
L 543.967602 63.667383 
L 545.223228 59.833358 
L 546.478854 55.127964 
L 548.990105 54.430869 
L 550.24573 50.42257 
L 551.501356 48.854105 
L 552.756981 48.854105 
L 554.012607 47.808462 
L 555.268232 46.414271 
L 556.523858 46.414271 
L 557.779484 45.194354 
L 559.035109 41.708877 
L 560.290735 41.011782 
L 561.54636 40.663234 
L 564.057611 38.920495 
L 565.313237 37.874852 
L 566.568863 37.177757 
L 567.824488 35.260744 
L 569.080114 34.389375 
L 569.080114 34.389375 
" style="fill:none;stroke:#1f77b4;stroke-linecap:round;stroke-width:1.5;"/>
   </g>
   <g id="patch_3">
    <path d="M 36.44375 298.989375 
L 36.44375 21.789375 
" style="fill:none;stroke:#cccccc;stroke-linecap:square;stroke-linejoin:miter;stroke-width:0.8;"/>
   </g>
   <g id="patch_4">
    <path d="M 594.44375 298.989375 
L 594.44375 21.789375 
" style="fill:none;stroke:#cccccc;stroke-linecap:square;stroke-linejoin:miter;stroke-width:0.8;"/>
   </g>
   <g id="patch_5">
    <path d="M 36.44375 298.989375 
L 594.44375 298.989375 
" style="fill:none;stroke:#cccccc;stroke-linecap:square;stroke-linejoin:miter;stroke-width:0.8;"/>
   </g>
   <g id="patch_6">
    <path d="M 36.44375 21.789375 
L 594.44375 21.789375 
" style="fill:none;stroke:#cccccc;stroke-linecap:square;stroke-linejoin:miter;stroke-width:0.8;"/>
   </g>
   <g id="text_17">
    <!-- Óbitos -->
    <g style="fill:#262626;" transform="translate(298.10375 15.789375)scale(0.12 -0.12)">
     <defs>
      <path d="M 309 2231 
Q 309 3372 921 4017 
Q 1534 4663 2503 4663 
Q 3138 4663 3647 4359 
Q 4156 4056 4423 3514 
Q 4691 2972 4691 2284 
Q 4691 1588 4409 1038 
Q 4128 488 3612 205 
Q 3097 -78 2500 -78 
Q 1853 -78 1343 234 
Q 834 547 571 1087 
Q 309 1628 309 2231 
z
M 934 2222 
Q 934 1394 1379 917 
Q 1825 441 2497 441 
Q 3181 441 3623 922 
Q 4066 1403 4066 2288 
Q 4066 2847 3877 3264 
Q 3688 3681 3323 3911 
Q 2959 4141 2506 4141 
Q 1863 4141 1398 3698 
Q 934 3256 934 2222 
z
M 2118 4883 
L 2533 5758 
L 3271 5758 
L 2583 4883 
L 2118 4883 
z
" id="ArialMT-d3" transform="scale(0.015625)"/>
      <path d="M 941 0 
L 419 0 
L 419 4581 
L 981 4581 
L 981 2947 
Q 1338 3394 1891 3394 
Q 2197 3394 2470 3270 
Q 2744 3147 2920 2923 
Q 3097 2700 3197 2384 
Q 3297 2069 3297 1709 
Q 3297 856 2875 390 
Q 2453 -75 1863 -75 
Q 1275 -75 941 416 
L 941 0 
z
M 934 1684 
Q 934 1088 1097 822 
Q 1363 388 1816 388 
Q 2184 388 2453 708 
Q 2722 1028 2722 1663 
Q 2722 2313 2464 2622 
Q 2206 2931 1841 2931 
Q 1472 2931 1203 2611 
Q 934 2291 934 1684 
z
" id="ArialMT-62" transform="scale(0.015625)"/>
      <path d="M 425 3934 
L 425 4581 
L 988 4581 
L 988 3934 
L 425 3934 
z
M 425 0 
L 425 3319 
L 988 3319 
L 988 0 
L 425 0 
z
" id="ArialMT-69" transform="scale(0.015625)"/>
      <path d="M 1650 503 
L 1731 6 
Q 1494 -44 1306 -44 
Q 1000 -44 831 53 
Q 663 150 594 308 
Q 525 466 525 972 
L 525 2881 
L 113 2881 
L 113 3319 
L 525 3319 
L 525 4141 
L 1084 4478 
L 1084 3319 
L 1650 3319 
L 1650 2881 
L 1084 2881 
L 1084 941 
Q 1084 700 1114 631 
Q 1144 563 1211 522 
Q 1278 481 1403 481 
Q 1497 481 1650 503 
z
" id="ArialMT-74" transform="scale(0.015625)"/>
      <path d="M 213 1659 
Q 213 2581 725 3025 
Q 1153 3394 1769 3394 
Q 2453 3394 2887 2945 
Q 3322 2497 3322 1706 
Q 3322 1066 3130 698 
Q 2938 331 2570 128 
Q 2203 -75 1769 -75 
Q 1072 -75 642 372 
Q 213 819 213 1659 
z
M 791 1659 
Q 791 1022 1069 705 
Q 1347 388 1769 388 
Q 2188 388 2466 706 
Q 2744 1025 2744 1678 
Q 2744 2294 2464 2611 
Q 2184 2928 1769 2928 
Q 1347 2928 1069 2612 
Q 791 2297 791 1659 
z
" id="ArialMT-6f" transform="scale(0.015625)"/>
      <path d="M 197 991 
L 753 1078 
Q 800 744 1014 566 
Q 1228 388 1613 388 
Q 2000 388 2187 545 
Q 2375 703 2375 916 
Q 2375 1106 2209 1216 
Q 2094 1291 1634 1406 
Q 1016 1563 777 1677 
Q 538 1791 414 1992 
Q 291 2194 291 2438 
Q 291 2659 392 2848 
Q 494 3038 669 3163 
Q 800 3259 1026 3326 
Q 1253 3394 1513 3394 
Q 1903 3394 2198 3281 
Q 2494 3169 2634 2976 
Q 2775 2784 2828 2463 
L 2278 2388 
Q 2241 2644 2061 2787 
Q 1881 2931 1553 2931 
Q 1166 2931 1000 2803 
Q 834 2675 834 2503 
Q 834 2394 903 2306 
Q 972 2216 1119 2156 
Q 1203 2125 1616 2013 
Q 2213 1853 2448 1751 
Q 2684 1650 2818 1456 
Q 2953 1263 2953 975 
Q 2953 694 2789 445 
Q 2625 197 2315 61 
Q 2006 -75 1616 -75 
Q 969 -75 630 194 
Q 291 463 197 991 
z
" id="ArialMT-73" transform="scale(0.015625)"/>
     </defs>
     <use xlink:href="#ArialMT-d3"/>
     <use x="77.783203" xlink:href="#ArialMT-62"/>
     <use x="133.398438" xlink:href="#ArialMT-69"/>
     <use x="155.615234" xlink:href="#ArialMT-74"/>
     <use x="183.398438" xlink:href="#ArialMT-6f"/>
     <use x="239.013672" xlink:href="#ArialMT-73"/>
    </g>
   </g>
  </g>
 </g>
 <defs>
  <clipPath id="pecd2848bdc">
   <rect height="277.2" width="558" x="36.44375" y="21.789375"/>
  </clipPath>
 </defs>
</svg>
