<?xml version="1.0" encoding="utf-8" standalone="no"?>
<!DOCTYPE svg PUBLIC "-//W3C//DTD SVG 1.1//EN"
  "http://www.w3.org/Graphics/SVG/1.1/DTD/svg11.dtd">
<svg height="316.934687pt" version="1.1" viewBox="0 0 601.64375 316.934687" width="601.64375pt" xmlns="http://www.w3.org/2000/svg" xmlns:xlink="http://www.w3.org/1999/xlink">
 <metadata>
  <rdf:RDF xmlns:cc="http://creativecommons.org/ns#" xmlns:dc="http://purl.org/dc/elements/1.1/" xmlns:rdf="http://www.w3.org/1999/02/22-rdf-syntax-ns#">
   <cc:Work>
    <dc:type rdf:resource="http://purl.org/dc/dcmitype/StillImage"/>
    <dc:date>2021-04-02T09:15:21.736296</dc:date>
    <dc:format>image/svg+xml</dc:format>
    <dc:creator>
     <cc:Agent>
      <dc:title>Matplotlib v3.4.0, https://matplotlib.org/</dc:title>
     </cc:Agent>
    </dc:creator>
   </cc:Work>
  </rdf:RDF>
 </metadata>
 <defs>
  <style type="text/css">*{stroke-linecap:butt;stroke-linejoin:round;}</style>
 </defs>
 <g id="figure_1">
  <g id="patch_1">
   <path d="M 0 316.934687 
L 601.64375 316.934687 
L 601.64375 0 
L 0 0 
z
" style="fill:#ffffff;"/>
  </g>
  <g id="axes_1">
   <g id="patch_2">
    <path d="M 36.44375 293.589375 
L 594.44375 293.589375 
L 594.44375 21.789375 
L 36.44375 21.789375 
z
" style="fill:#ffffff;"/>
   </g>
   <g id="matplotlib.axis_1">
    <g id="xtick_1">
     <g id="line2d_1">
      <path clip-path="url(#p9eecc4e7f6)" d="M 37.651542 293.589375 
L 37.651542 21.789375 
" style="fill:none;stroke:#cccccc;stroke-linecap:round;stroke-width:0.8;"/>
     </g>
     <g id="text_1">
      <!-- 2020-03 -->
      <g style="fill:#262626;" transform="translate(19.303886 307.747187)scale(0.1 -0.1)">
       <defs>
        <path d="M 3222 541 
L 3222 0 
L 194 0 
Q 188 203 259 391 
Q 375 700 629 1000 
Q 884 1300 1366 1694 
Q 2113 2306 2375 2664 
Q 2638 3022 2638 3341 
Q 2638 3675 2398 3904 
Q 2159 4134 1775 4134 
Q 1369 4134 1125 3890 
Q 881 3647 878 3216 
L 300 3275 
Q 359 3922 746 4261 
Q 1134 4600 1788 4600 
Q 2447 4600 2831 4234 
Q 3216 3869 3216 3328 
Q 3216 3053 3103 2787 
Q 2991 2522 2730 2228 
Q 2469 1934 1863 1422 
Q 1356 997 1212 845 
Q 1069 694 975 541 
L 3222 541 
z
" id="ArialMT-32" transform="scale(0.015625)"/>
        <path d="M 266 2259 
Q 266 3072 433 3567 
Q 600 4063 929 4331 
Q 1259 4600 1759 4600 
Q 2128 4600 2406 4451 
Q 2684 4303 2865 4023 
Q 3047 3744 3150 3342 
Q 3253 2941 3253 2259 
Q 3253 1453 3087 958 
Q 2922 463 2592 192 
Q 2263 -78 1759 -78 
Q 1097 -78 719 397 
Q 266 969 266 2259 
z
M 844 2259 
Q 844 1131 1108 757 
Q 1372 384 1759 384 
Q 2147 384 2411 759 
Q 2675 1134 2675 2259 
Q 2675 3391 2411 3762 
Q 2147 4134 1753 4134 
Q 1366 4134 1134 3806 
Q 844 3388 844 2259 
z
" id="ArialMT-30" transform="scale(0.015625)"/>
        <path d="M 203 1375 
L 203 1941 
L 1931 1941 
L 1931 1375 
L 203 1375 
z
" id="ArialMT-2d" transform="scale(0.015625)"/>
        <path d="M 269 1209 
L 831 1284 
Q 928 806 1161 595 
Q 1394 384 1728 384 
Q 2125 384 2398 659 
Q 2672 934 2672 1341 
Q 2672 1728 2419 1979 
Q 2166 2231 1775 2231 
Q 1616 2231 1378 2169 
L 1441 2663 
Q 1497 2656 1531 2656 
Q 1891 2656 2178 2843 
Q 2466 3031 2466 3422 
Q 2466 3731 2256 3934 
Q 2047 4138 1716 4138 
Q 1388 4138 1169 3931 
Q 950 3725 888 3313 
L 325 3413 
Q 428 3978 793 4289 
Q 1159 4600 1703 4600 
Q 2078 4600 2393 4439 
Q 2709 4278 2876 4000 
Q 3044 3722 3044 3409 
Q 3044 3113 2884 2869 
Q 2725 2625 2413 2481 
Q 2819 2388 3044 2092 
Q 3269 1797 3269 1353 
Q 3269 753 2831 336 
Q 2394 -81 1725 -81 
Q 1122 -81 723 278 
Q 325 638 269 1209 
z
" id="ArialMT-33" transform="scale(0.015625)"/>
       </defs>
       <use xlink:href="#ArialMT-32"/>
       <use x="55.615234" xlink:href="#ArialMT-30"/>
       <use x="111.230469" xlink:href="#ArialMT-32"/>
       <use x="166.845703" xlink:href="#ArialMT-30"/>
       <use x="222.460938" xlink:href="#ArialMT-2d"/>
       <use x="255.761719" xlink:href="#ArialMT-30"/>
       <use x="311.376953" xlink:href="#ArialMT-33"/>
      </g>
     </g>
    </g>
    <g id="xtick_2">
     <g id="line2d_2">
      <path clip-path="url(#p9eecc4e7f6)" d="M 119.513014 293.589375 
L 119.513014 21.789375 
" style="fill:none;stroke:#cccccc;stroke-linecap:round;stroke-width:0.8;"/>
     </g>
     <g id="text_2">
      <!-- 2020-05 -->
      <g style="fill:#262626;" transform="translate(101.165358 307.747187)scale(0.1 -0.1)">
       <defs>
        <path d="M 266 1200 
L 856 1250 
Q 922 819 1161 601 
Q 1400 384 1738 384 
Q 2144 384 2425 690 
Q 2706 997 2706 1503 
Q 2706 1984 2436 2262 
Q 2166 2541 1728 2541 
Q 1456 2541 1237 2417 
Q 1019 2294 894 2097 
L 366 2166 
L 809 4519 
L 3088 4519 
L 3088 3981 
L 1259 3981 
L 1013 2750 
Q 1425 3038 1878 3038 
Q 2478 3038 2890 2622 
Q 3303 2206 3303 1553 
Q 3303 931 2941 478 
Q 2500 -78 1738 -78 
Q 1113 -78 717 272 
Q 322 622 266 1200 
z
" id="ArialMT-35" transform="scale(0.015625)"/>
       </defs>
       <use xlink:href="#ArialMT-32"/>
       <use x="55.615234" xlink:href="#ArialMT-30"/>
       <use x="111.230469" xlink:href="#ArialMT-32"/>
       <use x="166.845703" xlink:href="#ArialMT-30"/>
       <use x="222.460938" xlink:href="#ArialMT-2d"/>
       <use x="255.761719" xlink:href="#ArialMT-30"/>
       <use x="311.376953" xlink:href="#ArialMT-35"/>
      </g>
     </g>
    </g>
    <g id="xtick_3">
     <g id="line2d_3">
      <path clip-path="url(#p9eecc4e7f6)" d="M 201.374486 293.589375 
L 201.374486 21.789375 
" style="fill:none;stroke:#cccccc;stroke-linecap:round;stroke-width:0.8;"/>
     </g>
     <g id="text_3">
      <!-- 2020-07 -->
      <g style="fill:#262626;" transform="translate(183.02683 307.747187)scale(0.1 -0.1)">
       <defs>
        <path d="M 303 3981 
L 303 4522 
L 3269 4522 
L 3269 4084 
Q 2831 3619 2401 2847 
Q 1972 2075 1738 1259 
Q 1569 684 1522 0 
L 944 0 
Q 953 541 1156 1306 
Q 1359 2072 1739 2783 
Q 2119 3494 2547 3981 
L 303 3981 
z
" id="ArialMT-37" transform="scale(0.015625)"/>
       </defs>
       <use xlink:href="#ArialMT-32"/>
       <use x="55.615234" xlink:href="#ArialMT-30"/>
       <use x="111.230469" xlink:href="#ArialMT-32"/>
       <use x="166.845703" xlink:href="#ArialMT-30"/>
       <use x="222.460938" xlink:href="#ArialMT-2d"/>
       <use x="255.761719" xlink:href="#ArialMT-30"/>
       <use x="311.376953" xlink:href="#ArialMT-37"/>
      </g>
     </g>
    </g>
    <g id="xtick_4">
     <g id="line2d_4">
      <path clip-path="url(#p9eecc4e7f6)" d="M 284.577949 293.589375 
L 284.577949 21.789375 
" style="fill:none;stroke:#cccccc;stroke-linecap:round;stroke-width:0.8;"/>
     </g>
     <g id="text_4">
      <!-- 2020-09 -->
      <g style="fill:#262626;" transform="translate(266.230293 307.747187)scale(0.1 -0.1)">
       <defs>
        <path d="M 350 1059 
L 891 1109 
Q 959 728 1153 556 
Q 1347 384 1650 384 
Q 1909 384 2104 503 
Q 2300 622 2425 820 
Q 2550 1019 2634 1356 
Q 2719 1694 2719 2044 
Q 2719 2081 2716 2156 
Q 2547 1888 2255 1720 
Q 1963 1553 1622 1553 
Q 1053 1553 659 1965 
Q 266 2378 266 3053 
Q 266 3750 677 4175 
Q 1088 4600 1706 4600 
Q 2153 4600 2523 4359 
Q 2894 4119 3086 3673 
Q 3278 3228 3278 2384 
Q 3278 1506 3087 986 
Q 2897 466 2520 194 
Q 2144 -78 1638 -78 
Q 1100 -78 759 220 
Q 419 519 350 1059 
z
M 2653 3081 
Q 2653 3566 2395 3850 
Q 2138 4134 1775 4134 
Q 1400 4134 1122 3828 
Q 844 3522 844 3034 
Q 844 2597 1108 2323 
Q 1372 2050 1759 2050 
Q 2150 2050 2401 2323 
Q 2653 2597 2653 3081 
z
" id="ArialMT-39" transform="scale(0.015625)"/>
       </defs>
       <use xlink:href="#ArialMT-32"/>
       <use x="55.615234" xlink:href="#ArialMT-30"/>
       <use x="111.230469" xlink:href="#ArialMT-32"/>
       <use x="166.845703" xlink:href="#ArialMT-30"/>
       <use x="222.460938" xlink:href="#ArialMT-2d"/>
       <use x="255.761719" xlink:href="#ArialMT-30"/>
       <use x="311.376953" xlink:href="#ArialMT-39"/>
      </g>
     </g>
    </g>
    <g id="xtick_5">
     <g id="line2d_5">
      <path clip-path="url(#p9eecc4e7f6)" d="M 366.439421 293.589375 
L 366.439421 21.789375 
" style="fill:none;stroke:#cccccc;stroke-linecap:round;stroke-width:0.8;"/>
     </g>
     <g id="text_5">
      <!-- 2020-11 -->
      <g style="fill:#262626;" transform="translate(348.460515 307.747187)scale(0.1 -0.1)">
       <defs>
        <path d="M 2384 0 
L 1822 0 
L 1822 3584 
Q 1619 3391 1289 3197 
Q 959 3003 697 2906 
L 697 3450 
Q 1169 3672 1522 3987 
Q 1875 4303 2022 4600 
L 2384 4600 
L 2384 0 
z
" id="ArialMT-31" transform="scale(0.015625)"/>
       </defs>
       <use xlink:href="#ArialMT-32"/>
       <use x="55.615234" xlink:href="#ArialMT-30"/>
       <use x="111.230469" xlink:href="#ArialMT-32"/>
       <use x="166.845703" xlink:href="#ArialMT-30"/>
       <use x="222.460938" xlink:href="#ArialMT-2d"/>
       <use x="255.761719" xlink:href="#ArialMT-31"/>
       <use x="304.001953" xlink:href="#ArialMT-31"/>
      </g>
     </g>
    </g>
    <g id="xtick_6">
     <g id="line2d_6">
      <path clip-path="url(#p9eecc4e7f6)" d="M 448.300893 293.589375 
L 448.300893 21.789375 
" style="fill:none;stroke:#cccccc;stroke-linecap:round;stroke-width:0.8;"/>
     </g>
     <g id="text_6">
      <!-- 2021-01 -->
      <g style="fill:#262626;" transform="translate(429.953237 307.747187)scale(0.1 -0.1)">
       <use xlink:href="#ArialMT-32"/>
       <use x="55.615234" xlink:href="#ArialMT-30"/>
       <use x="111.230469" xlink:href="#ArialMT-32"/>
       <use x="166.845703" xlink:href="#ArialMT-31"/>
       <use x="222.460938" xlink:href="#ArialMT-2d"/>
       <use x="255.761719" xlink:href="#ArialMT-30"/>
       <use x="311.376953" xlink:href="#ArialMT-31"/>
      </g>
     </g>
    </g>
    <g id="xtick_7">
     <g id="line2d_7">
      <path clip-path="url(#p9eecc4e7f6)" d="M 527.478382 293.589375 
L 527.478382 21.789375 
" style="fill:none;stroke:#cccccc;stroke-linecap:round;stroke-width:0.8;"/>
     </g>
     <g id="text_7">
      <!-- 2021-03 -->
      <g style="fill:#262626;" transform="translate(509.130726 307.747187)scale(0.1 -0.1)">
       <use xlink:href="#ArialMT-32"/>
       <use x="55.615234" xlink:href="#ArialMT-30"/>
       <use x="111.230469" xlink:href="#ArialMT-32"/>
       <use x="166.845703" xlink:href="#ArialMT-31"/>
       <use x="222.460938" xlink:href="#ArialMT-2d"/>
       <use x="255.761719" xlink:href="#ArialMT-30"/>
       <use x="311.376953" xlink:href="#ArialMT-33"/>
      </g>
     </g>
    </g>
   </g>
   <g id="matplotlib.axis_2">
    <g id="ytick_1">
     <g id="line2d_8">
      <path clip-path="url(#p9eecc4e7f6)" d="M 36.44375 281.23483 
L 594.44375 281.23483 
" style="fill:none;stroke:#cccccc;stroke-linecap:round;stroke-width:0.8;"/>
     </g>
     <g id="text_8">
      <!-- 0 -->
      <g style="fill:#262626;" transform="translate(23.882813 284.813736)scale(0.1 -0.1)">
       <use xlink:href="#ArialMT-30"/>
      </g>
     </g>
    </g>
    <g id="ytick_2">
     <g id="line2d_9">
      <path clip-path="url(#p9eecc4e7f6)" d="M 36.44375 241.284804 
L 594.44375 241.284804 
" style="fill:none;stroke:#cccccc;stroke-linecap:round;stroke-width:0.8;"/>
     </g>
     <g id="text_9">
      <!-- 200 -->
      <g style="fill:#262626;" transform="translate(12.760938 244.86371)scale(0.1 -0.1)">
       <use xlink:href="#ArialMT-32"/>
       <use x="55.615234" xlink:href="#ArialMT-30"/>
       <use x="111.230469" xlink:href="#ArialMT-30"/>
      </g>
     </g>
    </g>
    <g id="ytick_3">
     <g id="line2d_10">
      <path clip-path="url(#p9eecc4e7f6)" d="M 36.44375 201.334778 
L 594.44375 201.334778 
" style="fill:none;stroke:#cccccc;stroke-linecap:round;stroke-width:0.8;"/>
     </g>
     <g id="text_10">
      <!-- 400 -->
      <g style="fill:#262626;" transform="translate(12.760938 204.913684)scale(0.1 -0.1)">
       <defs>
        <path d="M 2069 0 
L 2069 1097 
L 81 1097 
L 81 1613 
L 2172 4581 
L 2631 4581 
L 2631 1613 
L 3250 1613 
L 3250 1097 
L 2631 1097 
L 2631 0 
L 2069 0 
z
M 2069 1613 
L 2069 3678 
L 634 1613 
L 2069 1613 
z
" id="ArialMT-34" transform="scale(0.015625)"/>
       </defs>
       <use xlink:href="#ArialMT-34"/>
       <use x="55.615234" xlink:href="#ArialMT-30"/>
       <use x="111.230469" xlink:href="#ArialMT-30"/>
      </g>
     </g>
    </g>
    <g id="ytick_4">
     <g id="line2d_11">
      <path clip-path="url(#p9eecc4e7f6)" d="M 36.44375 161.384752 
L 594.44375 161.384752 
" style="fill:none;stroke:#cccccc;stroke-linecap:round;stroke-width:0.8;"/>
     </g>
     <g id="text_11">
      <!-- 600 -->
      <g style="fill:#262626;" transform="translate(12.760938 164.963659)scale(0.1 -0.1)">
       <defs>
        <path d="M 3184 3459 
L 2625 3416 
Q 2550 3747 2413 3897 
Q 2184 4138 1850 4138 
Q 1581 4138 1378 3988 
Q 1113 3794 959 3422 
Q 806 3050 800 2363 
Q 1003 2672 1297 2822 
Q 1591 2972 1913 2972 
Q 2475 2972 2870 2558 
Q 3266 2144 3266 1488 
Q 3266 1056 3080 686 
Q 2894 316 2569 119 
Q 2244 -78 1831 -78 
Q 1128 -78 684 439 
Q 241 956 241 2144 
Q 241 3472 731 4075 
Q 1159 4600 1884 4600 
Q 2425 4600 2770 4297 
Q 3116 3994 3184 3459 
z
M 888 1484 
Q 888 1194 1011 928 
Q 1134 663 1356 523 
Q 1578 384 1822 384 
Q 2178 384 2434 671 
Q 2691 959 2691 1453 
Q 2691 1928 2437 2201 
Q 2184 2475 1800 2475 
Q 1419 2475 1153 2201 
Q 888 1928 888 1484 
z
" id="ArialMT-36" transform="scale(0.015625)"/>
       </defs>
       <use xlink:href="#ArialMT-36"/>
       <use x="55.615234" xlink:href="#ArialMT-30"/>
       <use x="111.230469" xlink:href="#ArialMT-30"/>
      </g>
     </g>
    </g>
    <g id="ytick_5">
     <g id="line2d_12">
      <path clip-path="url(#p9eecc4e7f6)" d="M 36.44375 121.434727 
L 594.44375 121.434727 
" style="fill:none;stroke:#cccccc;stroke-linecap:round;stroke-width:0.8;"/>
     </g>
     <g id="text_12">
      <!-- 800 -->
      <g style="fill:#262626;" transform="translate(12.760938 125.013633)scale(0.1 -0.1)">
       <defs>
        <path d="M 1131 2484 
Q 781 2613 612 2850 
Q 444 3088 444 3419 
Q 444 3919 803 4259 
Q 1163 4600 1759 4600 
Q 2359 4600 2725 4251 
Q 3091 3903 3091 3403 
Q 3091 3084 2923 2848 
Q 2756 2613 2416 2484 
Q 2838 2347 3058 2040 
Q 3278 1734 3278 1309 
Q 3278 722 2862 322 
Q 2447 -78 1769 -78 
Q 1091 -78 675 323 
Q 259 725 259 1325 
Q 259 1772 486 2073 
Q 713 2375 1131 2484 
z
M 1019 3438 
Q 1019 3113 1228 2906 
Q 1438 2700 1772 2700 
Q 2097 2700 2305 2904 
Q 2513 3109 2513 3406 
Q 2513 3716 2298 3927 
Q 2084 4138 1766 4138 
Q 1444 4138 1231 3931 
Q 1019 3725 1019 3438 
z
M 838 1322 
Q 838 1081 952 856 
Q 1066 631 1291 507 
Q 1516 384 1775 384 
Q 2178 384 2440 643 
Q 2703 903 2703 1303 
Q 2703 1709 2433 1975 
Q 2163 2241 1756 2241 
Q 1359 2241 1098 1978 
Q 838 1716 838 1322 
z
" id="ArialMT-38" transform="scale(0.015625)"/>
       </defs>
       <use xlink:href="#ArialMT-38"/>
       <use x="55.615234" xlink:href="#ArialMT-30"/>
       <use x="111.230469" xlink:href="#ArialMT-30"/>
      </g>
     </g>
    </g>
    <g id="ytick_6">
     <g id="line2d_13">
      <path clip-path="url(#p9eecc4e7f6)" d="M 36.44375 81.484701 
L 594.44375 81.484701 
" style="fill:none;stroke:#cccccc;stroke-linecap:round;stroke-width:0.8;"/>
     </g>
     <g id="text_13">
      <!-- 1000 -->
      <g style="fill:#262626;" transform="translate(7.2 85.063607)scale(0.1 -0.1)">
       <use xlink:href="#ArialMT-31"/>
       <use x="55.615234" xlink:href="#ArialMT-30"/>
       <use x="111.230469" xlink:href="#ArialMT-30"/>
       <use x="166.845703" xlink:href="#ArialMT-30"/>
      </g>
     </g>
    </g>
    <g id="ytick_7">
     <g id="line2d_14">
      <path clip-path="url(#p9eecc4e7f6)" d="M 36.44375 41.534675 
L 594.44375 41.534675 
" style="fill:none;stroke:#cccccc;stroke-linecap:round;stroke-width:0.8;"/>
     </g>
     <g id="text_14">
      <!-- 1200 -->
      <g style="fill:#262626;" transform="translate(7.2 45.113581)scale(0.1 -0.1)">
       <use xlink:href="#ArialMT-31"/>
       <use x="55.615234" xlink:href="#ArialMT-32"/>
       <use x="111.230469" xlink:href="#ArialMT-30"/>
       <use x="166.845703" xlink:href="#ArialMT-30"/>
      </g>
     </g>
    </g>
   </g>
   <g id="line2d_15">
    <path clip-path="url(#p9eecc4e7f6)" d="M 61.807386 281.23483 
L 77.911282 281.23483 
L 79.253274 281.035079 
L 80.595265 280.435829 
L 84.621239 280.435829 
L 85.963231 280.236079 
L 87.305222 279.237328 
L 89.989205 279.237328 
L 92.673187 278.438328 
L 94.015179 278.438328 
L 95.35717 278.238578 
L 98.041153 277.040077 
L 99.383144 276.840327 
L 100.725135 276.840327 
L 102.067127 276.640577 
L 103.409118 276.640577 
L 104.751109 276.241076 
L 106.093101 276.041326 
L 107.435092 275.442076 
L 108.777083 275.042576 
L 110.119075 274.243575 
L 112.803057 274.243575 
L 114.145049 272.445824 
L 115.48704 271.247323 
L 118.171023 270.847823 
L 119.513014 270.448323 
L 122.196997 270.048822 
L 124.880979 269.249822 
L 126.222971 269.050072 
L 127.564962 268.650571 
L 128.906953 267.651821 
L 130.248945 267.452071 
L 131.590936 267.452071 
L 132.932927 267.05257 
L 134.274919 266.85282 
L 136.958902 265.254819 
L 138.300893 264.855319 
L 139.642884 264.256069 
L 140.984876 263.856568 
L 142.326867 262.658068 
L 143.668858 261.859067 
L 145.01085 261.459567 
L 146.352841 260.460816 
L 147.694832 260.460816 
L 149.036824 259.861566 
L 150.378815 259.861566 
L 151.720806 258.463315 
L 153.062798 257.264814 
L 154.404789 253.869062 
L 157.088772 252.670561 
L 158.430763 251.47206 
L 159.772754 251.07256 
L 161.114746 249.674309 
L 162.456737 249.274809 
L 163.798728 248.475808 
L 165.14072 248.076308 
L 166.482711 246.278557 
L 167.824702 245.279806 
L 170.508685 243.681805 
L 173.192668 241.684304 
L 174.534659 240.086303 
L 175.87665 238.887802 
L 177.218642 236.890301 
L 178.560633 236.890301 
L 179.902624 235.49205 
L 181.244616 233.894049 
L 182.586607 231.297297 
L 183.928598 229.100046 
L 185.27059 225.105043 
L 186.612581 221.909041 
L 187.954573 221.909041 
L 189.296564 218.912789 
L 190.638555 216.715538 
L 191.980547 213.519536 
L 193.322538 212.720535 
L 194.664529 209.524533 
L 197.348512 209.524533 
L 198.690503 207.926532 
L 200.032495 207.527032 
L 202.716477 205.529531 
L 204.058469 205.329781 
L 206.742451 205.329781 
L 208.084443 204.13128 
L 209.426434 203.93153 
L 210.768425 203.132529 
L 212.110417 203.132529 
L 213.452408 202.133779 
L 214.794399 201.734278 
L 216.136391 201.734278 
L 217.478382 199.736777 
L 220.162365 199.736777 
L 221.504356 198.738026 
L 222.846347 196.341025 
L 225.53033 196.341025 
L 226.872321 196.141275 
L 228.214313 195.542024 
L 229.556304 194.543274 
L 232.240287 193.344773 
L 233.582278 191.946522 
L 234.924269 191.946522 
L 236.266261 191.347272 
L 237.608252 190.548271 
L 238.950244 189.34977 
L 240.292235 187.951519 
L 241.634226 187.152519 
L 244.318209 187.152519 
L 245.6602 185.954018 
L 247.002192 184.356017 
L 248.344183 183.557017 
L 249.686174 183.157516 
L 251.028166 182.158766 
L 252.370157 182.158766 
L 255.05414 181.759265 
L 256.396131 180.760515 
L 257.738122 177.964013 
L 259.080114 176.965262 
L 260.422105 176.166262 
L 263.106088 176.166262 
L 264.448079 175.167511 
L 265.79007 174.768011 
L 267.132062 173.36976 
L 269.816044 172.97026 
L 272.500027 172.97026 
L 273.842018 172.171259 
L 275.18401 171.172509 
L 276.526001 170.773008 
L 277.867992 169.974008 
L 279.209984 169.374758 
L 281.893966 169.374758 
L 284.577949 167.776756 
L 285.91994 167.177506 
L 288.603923 166.778006 
L 289.945915 166.378506 
L 292.629897 165.979005 
L 293.971889 165.579505 
L 295.31388 164.580754 
L 296.655871 164.580754 
L 297.997863 164.181254 
L 300.681845 164.181254 
L 302.023837 163.981504 
L 303.365828 163.382254 
L 304.707819 161.984003 
L 306.049811 159.587001 
L 307.391802 159.187501 
L 311.417776 159.187501 
L 312.759767 157.78925 
L 316.785741 157.19 
L 319.469724 157.19 
L 320.811715 156.790499 
L 322.153707 155.591999 
L 323.495698 155.192498 
L 324.837689 154.193748 
L 328.863663 154.193748 
L 330.205655 153.993998 
L 332.889637 153.194997 
L 334.231629 153.194997 
L 335.57362 152.395997 
L 339.599594 152.395997 
L 340.941585 151.596996 
L 343.625568 149.599495 
L 344.96756 149.000244 
L 347.651542 149.000244 
L 348.993534 148.800494 
L 350.335525 147.801744 
L 354.361499 146.603243 
L 358.387473 146.603243 
L 361.071456 146.203743 
L 362.413447 145.604492 
L 363.755438 145.204992 
L 367.781412 144.605742 
L 369.123404 143.606991 
L 370.465395 143.407241 
L 371.807386 142.60824 
L 373.149378 142.00899 
L 375.83336 142.00899 
L 377.175352 141.80924 
L 378.517343 140.810489 
L 379.859334 139.212488 
L 381.201326 137.814237 
L 382.543317 137.214987 
L 385.2273 137.214987 
L 386.569291 136.415986 
L 387.911282 133.419734 
L 390.595265 133.020234 
L 394.621239 133.020234 
L 395.963231 130.423482 
L 397.305222 129.224982 
L 398.647213 128.425981 
L 399.989205 127.02773 
L 401.331196 126.42848 
L 402.673187 126.22873 
L 404.015179 126.22873 
L 405.35717 125.030229 
L 406.699161 123.232478 
L 408.041153 122.233727 
L 409.383144 121.434727 
L 410.725135 120.236226 
L 413.409118 120.236226 
L 414.751109 118.638225 
L 416.093101 117.439724 
L 417.435092 116.440973 
L 420.119075 115.242473 
L 421.461066 114.842972 
L 422.803057 114.643222 
L 425.48704 111.44722 
L 426.829031 110.248719 
L 428.171023 110.048969 
L 429.513014 109.249969 
L 430.855005 109.050219 
L 432.196997 109.050219 
L 433.538988 108.051468 
L 434.880979 107.851718 
L 436.222971 106.852967 
L 441.590936 106.852967 
L 442.932927 105.854217 
L 444.274919 103.856715 
L 445.61691 99.661963 
L 450.984876 99.661963 
L 453.668858 98.463462 
L 455.01085 96.465961 
L 456.352841 95.46721 
L 457.694832 94.668209 
L 460.378815 94.668209 
L 461.720806 92.670708 
L 463.062798 92.470958 
L 464.404789 90.273707 
L 465.74678 89.674456 
L 467.088772 88.276205 
L 469.772754 88.276205 
L 471.114746 87.277455 
L 473.798728 84.480953 
L 475.14072 79.4872 
L 477.824702 78.688199 
L 481.850676 78.688199 
L 483.192668 77.489698 
L 484.534659 76.690698 
L 485.87665 76.291198 
L 487.218642 76.091447 
L 488.560633 76.091447 
L 491.244616 75.292447 
L 493.928598 72.895445 
L 495.27059 72.495945 
L 497.954573 72.495945 
L 499.296564 71.297444 
L 500.638555 70.298694 
L 501.980547 69.499693 
L 503.322538 68.900443 
L 506.006521 68.500943 
L 507.348512 68.500943 
L 508.690503 67.701942 
L 510.032495 67.302442 
L 511.374486 67.102692 
L 512.716477 66.703191 
L 516.742451 66.703191 
L 518.084443 65.904191 
L 519.426434 65.304941 
L 520.768425 63.90669 
L 522.110417 63.107689 
L 523.452408 62.108938 
L 524.794399 61.709438 
L 526.136391 61.709438 
L 527.478382 61.509688 
L 528.820373 61.110188 
L 530.162365 59.512187 
L 531.504356 58.912936 
L 532.846347 58.513436 
L 535.53033 58.513436 
L 536.872321 57.514686 
L 538.214313 57.115185 
L 539.556304 55.317434 
L 540.898295 53.919183 
L 542.240287 53.519683 
L 544.924269 53.519683 
L 546.266261 53.120183 
L 547.608252 52.121432 
L 548.950244 51.322432 
L 550.292235 50.123931 
L 551.634226 48.72568 
L 552.976218 48.52593 
L 554.318209 48.52593 
L 557.002192 45.329928 
L 558.344183 44.530927 
L 559.686174 41.934175 
L 561.028166 41.534675 
L 562.370157 40.336174 
L 563.712148 40.136424 
L 566.396131 36.940422 
L 567.738122 34.942921 
L 569.080114 34.14392 
L 569.080114 34.14392 
" style="fill:none;stroke:#1f77b4;stroke-linecap:round;stroke-width:1.5;"/>
   </g>
   <g id="patch_3">
    <path d="M 36.44375 293.589375 
L 36.44375 21.789375 
" style="fill:none;stroke:#cccccc;stroke-linecap:square;stroke-linejoin:miter;stroke-width:0.8;"/>
   </g>
   <g id="patch_4">
    <path d="M 594.44375 293.589375 
L 594.44375 21.789375 
" style="fill:none;stroke:#cccccc;stroke-linecap:square;stroke-linejoin:miter;stroke-width:0.8;"/>
   </g>
   <g id="patch_5">
    <path d="M 36.44375 293.589375 
L 594.44375 293.589375 
" style="fill:none;stroke:#cccccc;stroke-linecap:square;stroke-linejoin:miter;stroke-width:0.8;"/>
   </g>
   <g id="patch_6">
    <path d="M 36.44375 21.789375 
L 594.44375 21.789375 
" style="fill:none;stroke:#cccccc;stroke-linecap:square;stroke-linejoin:miter;stroke-width:0.8;"/>
   </g>
   <g id="text_15">
    <!-- Óbitos -->
    <g style="fill:#262626;" transform="translate(298.10375 15.789375)scale(0.12 -0.12)">
     <defs>
      <path d="M 309 2231 
Q 309 3372 921 4017 
Q 1534 4663 2503 4663 
Q 3138 4663 3647 4359 
Q 4156 4056 4423 3514 
Q 4691 2972 4691 2284 
Q 4691 1588 4409 1038 
Q 4128 488 3612 205 
Q 3097 -78 2500 -78 
Q 1853 -78 1343 234 
Q 834 547 571 1087 
Q 309 1628 309 2231 
z
M 934 2222 
Q 934 1394 1379 917 
Q 1825 441 2497 441 
Q 3181 441 3623 922 
Q 4066 1403 4066 2288 
Q 4066 2847 3877 3264 
Q 3688 3681 3323 3911 
Q 2959 4141 2506 4141 
Q 1863 4141 1398 3698 
Q 934 3256 934 2222 
z
M 2116 4862 
L 2531 5737 
L 3269 5737 
L 2581 4862 
L 2116 4862 
z
" id="ArialMT-d3" transform="scale(0.015625)"/>
      <path d="M 941 0 
L 419 0 
L 419 4581 
L 981 4581 
L 981 2947 
Q 1338 3394 1891 3394 
Q 2197 3394 2470 3270 
Q 2744 3147 2920 2923 
Q 3097 2700 3197 2384 
Q 3297 2069 3297 1709 
Q 3297 856 2875 390 
Q 2453 -75 1863 -75 
Q 1275 -75 941 416 
L 941 0 
z
M 934 1684 
Q 934 1088 1097 822 
Q 1363 388 1816 388 
Q 2184 388 2453 708 
Q 2722 1028 2722 1663 
Q 2722 2313 2464 2622 
Q 2206 2931 1841 2931 
Q 1472 2931 1203 2611 
Q 934 2291 934 1684 
z
" id="ArialMT-62" transform="scale(0.015625)"/>
      <path d="M 425 3934 
L 425 4581 
L 988 4581 
L 988 3934 
L 425 3934 
z
M 425 0 
L 425 3319 
L 988 3319 
L 988 0 
L 425 0 
z
" id="ArialMT-69" transform="scale(0.015625)"/>
      <path d="M 1650 503 
L 1731 6 
Q 1494 -44 1306 -44 
Q 1000 -44 831 53 
Q 663 150 594 308 
Q 525 466 525 972 
L 525 2881 
L 113 2881 
L 113 3319 
L 525 3319 
L 525 4141 
L 1084 4478 
L 1084 3319 
L 1650 3319 
L 1650 2881 
L 1084 2881 
L 1084 941 
Q 1084 700 1114 631 
Q 1144 563 1211 522 
Q 1278 481 1403 481 
Q 1497 481 1650 503 
z
" id="ArialMT-74" transform="scale(0.015625)"/>
      <path d="M 213 1659 
Q 213 2581 725 3025 
Q 1153 3394 1769 3394 
Q 2453 3394 2887 2945 
Q 3322 2497 3322 1706 
Q 3322 1066 3130 698 
Q 2938 331 2570 128 
Q 2203 -75 1769 -75 
Q 1072 -75 642 372 
Q 213 819 213 1659 
z
M 791 1659 
Q 791 1022 1069 705 
Q 1347 388 1769 388 
Q 2188 388 2466 706 
Q 2744 1025 2744 1678 
Q 2744 2294 2464 2611 
Q 2184 2928 1769 2928 
Q 1347 2928 1069 2612 
Q 791 2297 791 1659 
z
" id="ArialMT-6f" transform="scale(0.015625)"/>
      <path d="M 197 991 
L 753 1078 
Q 800 744 1014 566 
Q 1228 388 1613 388 
Q 2000 388 2187 545 
Q 2375 703 2375 916 
Q 2375 1106 2209 1216 
Q 2094 1291 1634 1406 
Q 1016 1563 777 1677 
Q 538 1791 414 1992 
Q 291 2194 291 2438 
Q 291 2659 392 2848 
Q 494 3038 669 3163 
Q 800 3259 1026 3326 
Q 1253 3394 1513 3394 
Q 1903 3394 2198 3281 
Q 2494 3169 2634 2976 
Q 2775 2784 2828 2463 
L 2278 2388 
Q 2241 2644 2061 2787 
Q 1881 2931 1553 2931 
Q 1166 2931 1000 2803 
Q 834 2675 834 2503 
Q 834 2394 903 2306 
Q 972 2216 1119 2156 
Q 1203 2125 1616 2013 
Q 2213 1853 2448 1751 
Q 2684 1650 2818 1456 
Q 2953 1263 2953 975 
Q 2953 694 2789 445 
Q 2625 197 2315 61 
Q 2006 -75 1616 -75 
Q 969 -75 630 194 
Q 291 463 197 991 
z
" id="ArialMT-73" transform="scale(0.015625)"/>
     </defs>
     <use xlink:href="#ArialMT-d3"/>
     <use x="77.783203" xlink:href="#ArialMT-62"/>
     <use x="133.398438" xlink:href="#ArialMT-69"/>
     <use x="155.615234" xlink:href="#ArialMT-74"/>
     <use x="183.398438" xlink:href="#ArialMT-6f"/>
     <use x="239.013672" xlink:href="#ArialMT-73"/>
    </g>
   </g>
  </g>
 </g>
 <defs>
  <clipPath id="p9eecc4e7f6">
   <rect height="271.8" width="558" x="36.44375" y="21.789375"/>
  </clipPath>
 </defs>
</svg>
