<?xml version="1.0" encoding="utf-8" standalone="no"?>
<!DOCTYPE svg PUBLIC "-//W3C//DTD SVG 1.1//EN"
  "http://www.w3.org/Graphics/SVG/1.1/DTD/svg11.dtd">
<svg height="316.934687pt" version="1.1" viewBox="0 0 601.64375 316.934687" width="601.64375pt" xmlns="http://www.w3.org/2000/svg" xmlns:xlink="http://www.w3.org/1999/xlink">
 <metadata>
  <rdf:RDF xmlns:cc="http://creativecommons.org/ns#" xmlns:dc="http://purl.org/dc/elements/1.1/" xmlns:rdf="http://www.w3.org/1999/02/22-rdf-syntax-ns#">
   <cc:Work>
    <dc:type rdf:resource="http://purl.org/dc/dcmitype/StillImage"/>
    <dc:date>2021-03-27T19:30:46.467031</dc:date>
    <dc:format>image/svg+xml</dc:format>
    <dc:creator>
     <cc:Agent>
      <dc:title>Matplotlib v3.4.0, https://matplotlib.org/</dc:title>
     </cc:Agent>
    </dc:creator>
   </cc:Work>
  </rdf:RDF>
 </metadata>
 <defs>
  <style type="text/css">*{stroke-linecap:butt;stroke-linejoin:round;}</style>
 </defs>
 <g id="figure_1">
  <g id="patch_1">
   <path d="M 0 316.934687 
L 601.64375 316.934687 
L 601.64375 0 
L 0 0 
z
" style="fill:#ffffff;"/>
  </g>
  <g id="axes_1">
   <g id="patch_2">
    <path d="M 36.44375 293.589375 
L 594.44375 293.589375 
L 594.44375 21.789375 
L 36.44375 21.789375 
z
" style="fill:#ffffff;"/>
   </g>
   <g id="matplotlib.axis_1">
    <g id="xtick_1">
     <g id="line2d_1">
      <path clip-path="url(#p186837941b)" d="M 37.327737 293.589375 
L 37.327737 21.789375 
" style="fill:none;stroke:#cccccc;stroke-linecap:round;stroke-width:0.8;"/>
     </g>
     <g id="text_1">
      <!-- 2020-03 -->
      <g style="fill:#262626;" transform="translate(18.980081 307.747187)scale(0.1 -0.1)">
       <defs>
        <path d="M 3222 541 
L 3222 0 
L 194 0 
Q 188 203 259 391 
Q 375 700 629 1000 
Q 884 1300 1366 1694 
Q 2113 2306 2375 2664 
Q 2638 3022 2638 3341 
Q 2638 3675 2398 3904 
Q 2159 4134 1775 4134 
Q 1369 4134 1125 3890 
Q 881 3647 878 3216 
L 300 3275 
Q 359 3922 746 4261 
Q 1134 4600 1788 4600 
Q 2447 4600 2831 4234 
Q 3216 3869 3216 3328 
Q 3216 3053 3103 2787 
Q 2991 2522 2730 2228 
Q 2469 1934 1863 1422 
Q 1356 997 1212 845 
Q 1069 694 975 541 
L 3222 541 
z
" id="ArialMT-32" transform="scale(0.015625)"/>
        <path d="M 266 2259 
Q 266 3072 433 3567 
Q 600 4063 929 4331 
Q 1259 4600 1759 4600 
Q 2128 4600 2406 4451 
Q 2684 4303 2865 4023 
Q 3047 3744 3150 3342 
Q 3253 2941 3253 2259 
Q 3253 1453 3087 958 
Q 2922 463 2592 192 
Q 2263 -78 1759 -78 
Q 1097 -78 719 397 
Q 266 969 266 2259 
z
M 844 2259 
Q 844 1131 1108 757 
Q 1372 384 1759 384 
Q 2147 384 2411 759 
Q 2675 1134 2675 2259 
Q 2675 3391 2411 3762 
Q 2147 4134 1753 4134 
Q 1366 4134 1134 3806 
Q 844 3388 844 2259 
z
" id="ArialMT-30" transform="scale(0.015625)"/>
        <path d="M 203 1375 
L 203 1941 
L 1931 1941 
L 1931 1375 
L 203 1375 
z
" id="ArialMT-2d" transform="scale(0.015625)"/>
        <path d="M 269 1209 
L 831 1284 
Q 928 806 1161 595 
Q 1394 384 1728 384 
Q 2125 384 2398 659 
Q 2672 934 2672 1341 
Q 2672 1728 2419 1979 
Q 2166 2231 1775 2231 
Q 1616 2231 1378 2169 
L 1441 2663 
Q 1497 2656 1531 2656 
Q 1891 2656 2178 2843 
Q 2466 3031 2466 3422 
Q 2466 3731 2256 3934 
Q 2047 4138 1716 4138 
Q 1388 4138 1169 3931 
Q 950 3725 888 3313 
L 325 3413 
Q 428 3978 793 4289 
Q 1159 4600 1703 4600 
Q 2078 4600 2393 4439 
Q 2709 4278 2876 4000 
Q 3044 3722 3044 3409 
Q 3044 3113 2884 2869 
Q 2725 2625 2413 2481 
Q 2819 2388 3044 2092 
Q 3269 1797 3269 1353 
Q 3269 753 2831 336 
Q 2394 -81 1725 -81 
Q 1122 -81 723 278 
Q 325 638 269 1209 
z
" id="ArialMT-33" transform="scale(0.015625)"/>
       </defs>
       <use xlink:href="#ArialMT-32"/>
       <use x="55.615234" xlink:href="#ArialMT-30"/>
       <use x="111.230469" xlink:href="#ArialMT-32"/>
       <use x="166.845703" xlink:href="#ArialMT-30"/>
       <use x="222.460938" xlink:href="#ArialMT-2d"/>
       <use x="255.761719" xlink:href="#ArialMT-30"/>
       <use x="311.376953" xlink:href="#ArialMT-33"/>
      </g>
     </g>
    </g>
    <g id="xtick_2">
     <g id="line2d_2">
      <path clip-path="url(#p186837941b)" d="M 120.286548 293.589375 
L 120.286548 21.789375 
" style="fill:none;stroke:#cccccc;stroke-linecap:round;stroke-width:0.8;"/>
     </g>
     <g id="text_2">
      <!-- 2020-05 -->
      <g style="fill:#262626;" transform="translate(101.938892 307.747187)scale(0.1 -0.1)">
       <defs>
        <path d="M 266 1200 
L 856 1250 
Q 922 819 1161 601 
Q 1400 384 1738 384 
Q 2144 384 2425 690 
Q 2706 997 2706 1503 
Q 2706 1984 2436 2262 
Q 2166 2541 1728 2541 
Q 1456 2541 1237 2417 
Q 1019 2294 894 2097 
L 366 2166 
L 809 4519 
L 3088 4519 
L 3088 3981 
L 1259 3981 
L 1013 2750 
Q 1425 3038 1878 3038 
Q 2478 3038 2890 2622 
Q 3303 2206 3303 1553 
Q 3303 931 2941 478 
Q 2500 -78 1738 -78 
Q 1113 -78 717 272 
Q 322 622 266 1200 
z
" id="ArialMT-35" transform="scale(0.015625)"/>
       </defs>
       <use xlink:href="#ArialMT-32"/>
       <use x="55.615234" xlink:href="#ArialMT-30"/>
       <use x="111.230469" xlink:href="#ArialMT-32"/>
       <use x="166.845703" xlink:href="#ArialMT-30"/>
       <use x="222.460938" xlink:href="#ArialMT-2d"/>
       <use x="255.761719" xlink:href="#ArialMT-30"/>
       <use x="311.376953" xlink:href="#ArialMT-35"/>
      </g>
     </g>
    </g>
    <g id="xtick_3">
     <g id="line2d_3">
      <path clip-path="url(#p186837941b)" d="M 203.245359 293.589375 
L 203.245359 21.789375 
" style="fill:none;stroke:#cccccc;stroke-linecap:round;stroke-width:0.8;"/>
     </g>
     <g id="text_3">
      <!-- 2020-07 -->
      <g style="fill:#262626;" transform="translate(184.897702 307.747187)scale(0.1 -0.1)">
       <defs>
        <path d="M 303 3981 
L 303 4522 
L 3269 4522 
L 3269 4084 
Q 2831 3619 2401 2847 
Q 1972 2075 1738 1259 
Q 1569 684 1522 0 
L 944 0 
Q 953 541 1156 1306 
Q 1359 2072 1739 2783 
Q 2119 3494 2547 3981 
L 303 3981 
z
" id="ArialMT-37" transform="scale(0.015625)"/>
       </defs>
       <use xlink:href="#ArialMT-32"/>
       <use x="55.615234" xlink:href="#ArialMT-30"/>
       <use x="111.230469" xlink:href="#ArialMT-32"/>
       <use x="166.845703" xlink:href="#ArialMT-30"/>
       <use x="222.460938" xlink:href="#ArialMT-2d"/>
       <use x="255.761719" xlink:href="#ArialMT-30"/>
       <use x="311.376953" xlink:href="#ArialMT-37"/>
      </g>
     </g>
    </g>
    <g id="xtick_4">
     <g id="line2d_4">
      <path clip-path="url(#p186837941b)" d="M 287.56415 293.589375 
L 287.56415 21.789375 
" style="fill:none;stroke:#cccccc;stroke-linecap:round;stroke-width:0.8;"/>
     </g>
     <g id="text_4">
      <!-- 2020-09 -->
      <g style="fill:#262626;" transform="translate(269.216493 307.747187)scale(0.1 -0.1)">
       <defs>
        <path d="M 350 1059 
L 891 1109 
Q 959 728 1153 556 
Q 1347 384 1650 384 
Q 1909 384 2104 503 
Q 2300 622 2425 820 
Q 2550 1019 2634 1356 
Q 2719 1694 2719 2044 
Q 2719 2081 2716 2156 
Q 2547 1888 2255 1720 
Q 1963 1553 1622 1553 
Q 1053 1553 659 1965 
Q 266 2378 266 3053 
Q 266 3750 677 4175 
Q 1088 4600 1706 4600 
Q 2153 4600 2523 4359 
Q 2894 4119 3086 3673 
Q 3278 3228 3278 2384 
Q 3278 1506 3087 986 
Q 2897 466 2520 194 
Q 2144 -78 1638 -78 
Q 1100 -78 759 220 
Q 419 519 350 1059 
z
M 2653 3081 
Q 2653 3566 2395 3850 
Q 2138 4134 1775 4134 
Q 1400 4134 1122 3828 
Q 844 3522 844 3034 
Q 844 2597 1108 2323 
Q 1372 2050 1759 2050 
Q 2150 2050 2401 2323 
Q 2653 2597 2653 3081 
z
" id="ArialMT-39" transform="scale(0.015625)"/>
       </defs>
       <use xlink:href="#ArialMT-32"/>
       <use x="55.615234" xlink:href="#ArialMT-30"/>
       <use x="111.230469" xlink:href="#ArialMT-32"/>
       <use x="166.845703" xlink:href="#ArialMT-30"/>
       <use x="222.460938" xlink:href="#ArialMT-2d"/>
       <use x="255.761719" xlink:href="#ArialMT-30"/>
       <use x="311.376953" xlink:href="#ArialMT-39"/>
      </g>
     </g>
    </g>
    <g id="xtick_5">
     <g id="line2d_5">
      <path clip-path="url(#p186837941b)" d="M 370.52296 293.589375 
L 370.52296 21.789375 
" style="fill:none;stroke:#cccccc;stroke-linecap:round;stroke-width:0.8;"/>
     </g>
     <g id="text_5">
      <!-- 2020-11 -->
      <g style="fill:#262626;" transform="translate(352.544054 307.747187)scale(0.1 -0.1)">
       <defs>
        <path d="M 2384 0 
L 1822 0 
L 1822 3584 
Q 1619 3391 1289 3197 
Q 959 3003 697 2906 
L 697 3450 
Q 1169 3672 1522 3987 
Q 1875 4303 2022 4600 
L 2384 4600 
L 2384 0 
z
" id="ArialMT-31" transform="scale(0.015625)"/>
       </defs>
       <use xlink:href="#ArialMT-32"/>
       <use x="55.615234" xlink:href="#ArialMT-30"/>
       <use x="111.230469" xlink:href="#ArialMT-32"/>
       <use x="166.845703" xlink:href="#ArialMT-30"/>
       <use x="222.460938" xlink:href="#ArialMT-2d"/>
       <use x="255.761719" xlink:href="#ArialMT-31"/>
       <use x="304.001953" xlink:href="#ArialMT-31"/>
      </g>
     </g>
    </g>
    <g id="xtick_6">
     <g id="line2d_6">
      <path clip-path="url(#p186837941b)" d="M 453.481771 293.589375 
L 453.481771 21.789375 
" style="fill:none;stroke:#cccccc;stroke-linecap:round;stroke-width:0.8;"/>
     </g>
     <g id="text_6">
      <!-- 2021-01 -->
      <g style="fill:#262626;" transform="translate(435.134115 307.747187)scale(0.1 -0.1)">
       <use xlink:href="#ArialMT-32"/>
       <use x="55.615234" xlink:href="#ArialMT-30"/>
       <use x="111.230469" xlink:href="#ArialMT-32"/>
       <use x="166.845703" xlink:href="#ArialMT-31"/>
       <use x="222.460938" xlink:href="#ArialMT-2d"/>
       <use x="255.761719" xlink:href="#ArialMT-30"/>
       <use x="311.376953" xlink:href="#ArialMT-31"/>
      </g>
     </g>
    </g>
    <g id="xtick_7">
     <g id="line2d_7">
      <path clip-path="url(#p186837941b)" d="M 533.720621 293.589375 
L 533.720621 21.789375 
" style="fill:none;stroke:#cccccc;stroke-linecap:round;stroke-width:0.8;"/>
     </g>
     <g id="text_7">
      <!-- 2021-03 -->
      <g style="fill:#262626;" transform="translate(515.372964 307.747187)scale(0.1 -0.1)">
       <use xlink:href="#ArialMT-32"/>
       <use x="55.615234" xlink:href="#ArialMT-30"/>
       <use x="111.230469" xlink:href="#ArialMT-32"/>
       <use x="166.845703" xlink:href="#ArialMT-31"/>
       <use x="222.460938" xlink:href="#ArialMT-2d"/>
       <use x="255.761719" xlink:href="#ArialMT-30"/>
       <use x="311.376953" xlink:href="#ArialMT-33"/>
      </g>
     </g>
    </g>
   </g>
   <g id="matplotlib.axis_2">
    <g id="ytick_1">
     <g id="line2d_8">
      <path clip-path="url(#p186837941b)" d="M 36.44375 281.23483 
L 594.44375 281.23483 
" style="fill:none;stroke:#cccccc;stroke-linecap:round;stroke-width:0.8;"/>
     </g>
     <g id="text_8">
      <!-- 0 -->
      <g style="fill:#262626;" transform="translate(23.882813 284.813736)scale(0.1 -0.1)">
       <use xlink:href="#ArialMT-30"/>
      </g>
     </g>
    </g>
    <g id="ytick_2">
     <g id="line2d_9">
      <path clip-path="url(#p186837941b)" d="M 36.44375 240.257896 
L 594.44375 240.257896 
" style="fill:none;stroke:#cccccc;stroke-linecap:round;stroke-width:0.8;"/>
     </g>
     <g id="text_9">
      <!-- 200 -->
      <g style="fill:#262626;" transform="translate(12.760938 243.836802)scale(0.1 -0.1)">
       <use xlink:href="#ArialMT-32"/>
       <use x="55.615234" xlink:href="#ArialMT-30"/>
       <use x="111.230469" xlink:href="#ArialMT-30"/>
      </g>
     </g>
    </g>
    <g id="ytick_3">
     <g id="line2d_10">
      <path clip-path="url(#p186837941b)" d="M 36.44375 199.280963 
L 594.44375 199.280963 
" style="fill:none;stroke:#cccccc;stroke-linecap:round;stroke-width:0.8;"/>
     </g>
     <g id="text_10">
      <!-- 400 -->
      <g style="fill:#262626;" transform="translate(12.760938 202.859869)scale(0.1 -0.1)">
       <defs>
        <path d="M 2069 0 
L 2069 1097 
L 81 1097 
L 81 1613 
L 2172 4581 
L 2631 4581 
L 2631 1613 
L 3250 1613 
L 3250 1097 
L 2631 1097 
L 2631 0 
L 2069 0 
z
M 2069 1613 
L 2069 3678 
L 634 1613 
L 2069 1613 
z
" id="ArialMT-34" transform="scale(0.015625)"/>
       </defs>
       <use xlink:href="#ArialMT-34"/>
       <use x="55.615234" xlink:href="#ArialMT-30"/>
       <use x="111.230469" xlink:href="#ArialMT-30"/>
      </g>
     </g>
    </g>
    <g id="ytick_4">
     <g id="line2d_11">
      <path clip-path="url(#p186837941b)" d="M 36.44375 158.304029 
L 594.44375 158.304029 
" style="fill:none;stroke:#cccccc;stroke-linecap:round;stroke-width:0.8;"/>
     </g>
     <g id="text_11">
      <!-- 600 -->
      <g style="fill:#262626;" transform="translate(12.760938 161.882935)scale(0.1 -0.1)">
       <defs>
        <path d="M 3184 3459 
L 2625 3416 
Q 2550 3747 2413 3897 
Q 2184 4138 1850 4138 
Q 1581 4138 1378 3988 
Q 1113 3794 959 3422 
Q 806 3050 800 2363 
Q 1003 2672 1297 2822 
Q 1591 2972 1913 2972 
Q 2475 2972 2870 2558 
Q 3266 2144 3266 1488 
Q 3266 1056 3080 686 
Q 2894 316 2569 119 
Q 2244 -78 1831 -78 
Q 1128 -78 684 439 
Q 241 956 241 2144 
Q 241 3472 731 4075 
Q 1159 4600 1884 4600 
Q 2425 4600 2770 4297 
Q 3116 3994 3184 3459 
z
M 888 1484 
Q 888 1194 1011 928 
Q 1134 663 1356 523 
Q 1578 384 1822 384 
Q 2178 384 2434 671 
Q 2691 959 2691 1453 
Q 2691 1928 2437 2201 
Q 2184 2475 1800 2475 
Q 1419 2475 1153 2201 
Q 888 1928 888 1484 
z
" id="ArialMT-36" transform="scale(0.015625)"/>
       </defs>
       <use xlink:href="#ArialMT-36"/>
       <use x="55.615234" xlink:href="#ArialMT-30"/>
       <use x="111.230469" xlink:href="#ArialMT-30"/>
      </g>
     </g>
    </g>
    <g id="ytick_5">
     <g id="line2d_12">
      <path clip-path="url(#p186837941b)" d="M 36.44375 117.327095 
L 594.44375 117.327095 
" style="fill:none;stroke:#cccccc;stroke-linecap:round;stroke-width:0.8;"/>
     </g>
     <g id="text_12">
      <!-- 800 -->
      <g style="fill:#262626;" transform="translate(12.760938 120.906002)scale(0.1 -0.1)">
       <defs>
        <path d="M 1131 2484 
Q 781 2613 612 2850 
Q 444 3088 444 3419 
Q 444 3919 803 4259 
Q 1163 4600 1759 4600 
Q 2359 4600 2725 4251 
Q 3091 3903 3091 3403 
Q 3091 3084 2923 2848 
Q 2756 2613 2416 2484 
Q 2838 2347 3058 2040 
Q 3278 1734 3278 1309 
Q 3278 722 2862 322 
Q 2447 -78 1769 -78 
Q 1091 -78 675 323 
Q 259 725 259 1325 
Q 259 1772 486 2073 
Q 713 2375 1131 2484 
z
M 1019 3438 
Q 1019 3113 1228 2906 
Q 1438 2700 1772 2700 
Q 2097 2700 2305 2904 
Q 2513 3109 2513 3406 
Q 2513 3716 2298 3927 
Q 2084 4138 1766 4138 
Q 1444 4138 1231 3931 
Q 1019 3725 1019 3438 
z
M 838 1322 
Q 838 1081 952 856 
Q 1066 631 1291 507 
Q 1516 384 1775 384 
Q 2178 384 2440 643 
Q 2703 903 2703 1303 
Q 2703 1709 2433 1975 
Q 2163 2241 1756 2241 
Q 1359 2241 1098 1978 
Q 838 1716 838 1322 
z
" id="ArialMT-38" transform="scale(0.015625)"/>
       </defs>
       <use xlink:href="#ArialMT-38"/>
       <use x="55.615234" xlink:href="#ArialMT-30"/>
       <use x="111.230469" xlink:href="#ArialMT-30"/>
      </g>
     </g>
    </g>
    <g id="ytick_6">
     <g id="line2d_13">
      <path clip-path="url(#p186837941b)" d="M 36.44375 76.350162 
L 594.44375 76.350162 
" style="fill:none;stroke:#cccccc;stroke-linecap:round;stroke-width:0.8;"/>
     </g>
     <g id="text_13">
      <!-- 1000 -->
      <g style="fill:#262626;" transform="translate(7.2 79.929068)scale(0.1 -0.1)">
       <use xlink:href="#ArialMT-31"/>
       <use x="55.615234" xlink:href="#ArialMT-30"/>
       <use x="111.230469" xlink:href="#ArialMT-30"/>
       <use x="166.845703" xlink:href="#ArialMT-30"/>
      </g>
     </g>
    </g>
    <g id="ytick_7">
     <g id="line2d_14">
      <path clip-path="url(#p186837941b)" d="M 36.44375 35.373228 
L 594.44375 35.373228 
" style="fill:none;stroke:#cccccc;stroke-linecap:round;stroke-width:0.8;"/>
     </g>
     <g id="text_14">
      <!-- 1200 -->
      <g style="fill:#262626;" transform="translate(7.2 38.952135)scale(0.1 -0.1)">
       <use xlink:href="#ArialMT-31"/>
       <use x="55.615234" xlink:href="#ArialMT-32"/>
       <use x="111.230469" xlink:href="#ArialMT-30"/>
       <use x="166.845703" xlink:href="#ArialMT-30"/>
      </g>
     </g>
    </g>
   </g>
   <g id="line2d_15">
    <path clip-path="url(#p186837941b)" d="M 61.807386 281.23483 
L 78.127152 281.23483 
L 79.487133 281.029945 
L 80.847113 280.415291 
L 84.927055 280.415291 
L 86.287035 280.210406 
L 87.647016 279.185983 
L 90.366977 279.185983 
L 93.086938 278.366444 
L 94.446918 278.366444 
L 95.806899 278.16156 
L 98.52686 276.932252 
L 99.88684 276.727367 
L 101.246821 276.727367 
L 102.606801 276.522482 
L 103.966782 276.522482 
L 105.326762 276.112713 
L 106.686743 275.907828 
L 108.046723 275.293174 
L 109.406704 274.883405 
L 110.766684 274.063866 
L 113.486645 274.063866 
L 114.846626 272.219904 
L 116.206606 270.990596 
L 118.926567 270.580827 
L 120.286548 270.171057 
L 123.006509 269.761288 
L 125.72647 268.941749 
L 127.08645 268.736865 
L 128.446431 268.327095 
L 129.806411 267.302672 
L 131.166392 267.097787 
L 132.526372 267.097787 
L 133.886353 266.688018 
L 135.246333 266.483133 
L 137.966294 264.844056 
L 139.326275 264.434287 
L 140.686255 263.819633 
L 142.046236 263.409863 
L 143.406216 262.180555 
L 144.766197 261.361017 
L 146.126177 260.951247 
L 147.486158 259.926824 
L 148.846138 259.926824 
L 150.206119 259.31217 
L 151.5661 259.31217 
L 152.92608 257.877977 
L 154.286061 256.648669 
L 155.646041 253.16563 
L 158.366002 251.936322 
L 159.725983 250.707014 
L 161.085963 250.297245 
L 162.445944 248.863052 
L 163.805924 248.453283 
L 165.165905 247.633744 
L 166.525885 247.223975 
L 167.885866 245.380013 
L 169.245846 244.355589 
L 171.965807 242.716512 
L 174.685768 240.667665 
L 176.045749 239.028588 
L 177.405729 237.79928 
L 178.76571 235.750433 
L 180.12569 235.750433 
L 181.485671 234.316241 
L 182.845651 232.677163 
L 184.205632 230.013663 
L 185.565612 227.759931 
L 186.925593 223.662238 
L 188.285573 220.384083 
L 189.645554 220.384083 
L 191.005534 217.310813 
L 192.365515 215.057082 
L 193.725495 211.778927 
L 195.085476 210.959389 
L 196.445456 207.681234 
L 199.165417 207.681234 
L 200.525398 206.042157 
L 201.885378 205.632387 
L 204.605339 203.583541 
L 205.96532 203.378656 
L 208.685281 203.378656 
L 210.045261 202.149348 
L 211.405242 201.944463 
L 212.765222 201.124925 
L 214.125203 201.124925 
L 215.485183 200.100501 
L 216.845164 199.690732 
L 218.205144 199.690732 
L 219.565125 197.641885 
L 222.285086 197.641885 
L 223.645066 196.617462 
L 225.005047 194.158846 
L 227.725008 194.158846 
L 229.084988 193.953961 
L 230.444969 193.339307 
L 231.804949 192.314884 
L 234.52491 191.085576 
L 235.884891 189.651383 
L 237.244871 189.651383 
L 238.604852 189.036729 
L 239.964832 188.21719 
L 241.324813 186.987882 
L 242.684793 185.55369 
L 244.044774 184.734151 
L 246.764735 184.734151 
L 248.124715 183.504843 
L 249.484696 181.865766 
L 250.844676 181.046227 
L 252.204657 180.636458 
L 253.564637 179.612034 
L 254.924618 179.612034 
L 257.644579 179.202265 
L 259.004559 178.177842 
L 260.36454 175.309456 
L 261.72452 174.285033 
L 263.084501 173.465494 
L 265.804462 173.465494 
L 267.164442 172.441071 
L 268.524423 172.031302 
L 269.884403 170.597109 
L 272.604364 170.18734 
L 275.324325 170.18734 
L 276.684306 169.367801 
L 278.044286 168.343378 
L 279.404267 167.933608 
L 280.764247 167.11407 
L 282.124228 166.499416 
L 284.844189 166.499416 
L 287.56415 164.860338 
L 288.92413 164.245684 
L 291.644091 163.835915 
L 293.004072 163.426146 
L 295.724033 163.016376 
L 297.084013 162.606607 
L 298.443994 161.582184 
L 299.803974 161.582184 
L 301.163955 161.172414 
L 303.883916 161.172414 
L 305.243896 160.96753 
L 306.603877 160.352876 
L 307.963857 158.918683 
L 309.323838 156.460067 
L 310.683818 156.050298 
L 314.76376 156.050298 
L 316.12374 154.616105 
L 320.203682 154.001451 
L 322.923643 154.001451 
L 324.283623 153.591682 
L 325.643604 152.362374 
L 327.003584 151.952604 
L 328.363565 150.928181 
L 332.443506 150.928181 
L 333.803487 150.723296 
L 336.523448 149.903758 
L 337.883428 149.903758 
L 339.243409 149.084219 
L 343.32335 149.084219 
L 344.683331 148.26468 
L 347.403292 146.215834 
L 348.763272 145.60118 
L 351.483233 145.60118 
L 352.843214 145.396295 
L 354.203194 144.371872 
L 358.283136 143.142564 
L 362.363077 143.142564 
L 365.083038 142.732794 
L 366.443019 142.11814 
L 367.802999 141.708371 
L 371.882941 141.093717 
L 373.242921 140.069294 
L 374.602902 139.864409 
L 375.962882 139.04487 
L 377.322863 138.430216 
L 380.042824 138.430216 
L 381.402804 138.225332 
L 382.762785 137.200908 
L 384.122765 135.561831 
L 385.482746 134.127638 
L 386.842726 133.512984 
L 389.562687 133.512984 
L 390.922668 132.693446 
L 392.282648 129.620176 
L 395.002609 129.210406 
L 399.082551 129.210406 
L 400.442531 126.546906 
L 401.802512 125.317598 
L 403.162492 124.498059 
L 404.522473 123.063866 
L 405.882453 122.449212 
L 407.242434 122.244328 
L 408.602414 122.244328 
L 409.962395 121.01502 
L 411.322375 119.171057 
L 412.682356 118.146634 
L 414.042336 117.327095 
L 415.402317 116.097787 
L 418.122278 116.097787 
L 419.482258 114.45871 
L 420.842239 113.229402 
L 422.202219 112.204979 
L 424.92218 110.975671 
L 426.282161 110.565901 
L 427.642141 110.361017 
L 430.362102 107.082862 
L 431.722083 105.853554 
L 433.082063 105.648669 
L 434.442044 104.829131 
L 435.802024 104.624246 
L 437.162005 104.624246 
L 438.521985 103.599823 
L 439.881966 103.394938 
L 441.241946 102.370515 
L 446.681868 102.370515 
L 448.041849 101.346091 
L 449.401829 99.297245 
L 450.76181 94.994667 
L 456.201732 94.994667 
L 458.921693 93.765359 
L 460.281673 91.716512 
L 461.641654 90.692089 
L 463.001634 89.87255 
L 465.721595 89.87255 
L 467.081576 87.823703 
L 468.441556 87.618819 
L 469.801537 85.365087 
L 471.161517 84.750433 
L 472.521498 83.316241 
L 475.241459 83.316241 
L 476.601439 82.291817 
L 479.3214 79.423432 
L 480.681381 74.301315 
L 483.401342 73.481777 
L 487.481284 73.481777 
L 488.841264 72.252469 
L 490.201245 71.43293 
L 491.561225 71.023161 
L 492.921206 70.818276 
L 494.281186 70.818276 
L 497.001147 69.998737 
L 499.721108 67.540121 
L 501.081089 67.130352 
L 503.80105 67.130352 
L 505.16103 65.901044 
L 506.521011 64.876621 
L 507.880991 64.057082 
L 509.240972 63.442428 
L 511.960933 63.032659 
L 513.320913 63.032659 
L 514.680894 62.21312 
L 516.040874 61.803351 
L 517.400855 61.598466 
L 518.760835 61.188697 
L 522.840777 61.188697 
L 524.200757 60.369158 
L 525.560738 59.754504 
L 526.920718 58.320311 
L 528.280699 57.500773 
L 529.640679 56.476349 
L 531.00066 56.06658 
L 532.36064 56.06658 
L 533.720621 55.861695 
L 535.080601 55.451926 
L 536.440582 53.812849 
L 537.800562 53.198195 
L 539.160543 52.788425 
L 541.880504 52.788425 
L 543.240484 51.764002 
L 544.600465 51.354233 
L 545.960445 49.510271 
L 547.320426 48.076078 
L 548.680406 47.666309 
L 551.400367 47.666309 
L 552.760348 47.256539 
L 554.120328 46.232116 
L 555.480309 45.412577 
L 556.840289 44.183269 
L 558.20027 42.749076 
L 559.56025 42.544192 
L 560.920231 42.544192 
L 563.640192 39.266037 
L 565.000172 38.446498 
L 566.360153 35.782998 
L 567.720133 35.373228 
L 569.080114 34.14392 
L 569.080114 34.14392 
" style="fill:none;stroke:#1f77b4;stroke-linecap:round;stroke-width:1.5;"/>
   </g>
   <g id="patch_3">
    <path d="M 36.44375 293.589375 
L 36.44375 21.789375 
" style="fill:none;stroke:#cccccc;stroke-linecap:square;stroke-linejoin:miter;stroke-width:0.8;"/>
   </g>
   <g id="patch_4">
    <path d="M 594.44375 293.589375 
L 594.44375 21.789375 
" style="fill:none;stroke:#cccccc;stroke-linecap:square;stroke-linejoin:miter;stroke-width:0.8;"/>
   </g>
   <g id="patch_5">
    <path d="M 36.44375 293.589375 
L 594.44375 293.589375 
" style="fill:none;stroke:#cccccc;stroke-linecap:square;stroke-linejoin:miter;stroke-width:0.8;"/>
   </g>
   <g id="patch_6">
    <path d="M 36.44375 21.789375 
L 594.44375 21.789375 
" style="fill:none;stroke:#cccccc;stroke-linecap:square;stroke-linejoin:miter;stroke-width:0.8;"/>
   </g>
   <g id="text_15">
    <!-- Óbitos -->
    <g style="fill:#262626;" transform="translate(298.10375 15.789375)scale(0.12 -0.12)">
     <defs>
      <path d="M 309 2231 
Q 309 3372 921 4017 
Q 1534 4663 2503 4663 
Q 3138 4663 3647 4359 
Q 4156 4056 4423 3514 
Q 4691 2972 4691 2284 
Q 4691 1588 4409 1038 
Q 4128 488 3612 205 
Q 3097 -78 2500 -78 
Q 1853 -78 1343 234 
Q 834 547 571 1087 
Q 309 1628 309 2231 
z
M 934 2222 
Q 934 1394 1379 917 
Q 1825 441 2497 441 
Q 3181 441 3623 922 
Q 4066 1403 4066 2288 
Q 4066 2847 3877 3264 
Q 3688 3681 3323 3911 
Q 2959 4141 2506 4141 
Q 1863 4141 1398 3698 
Q 934 3256 934 2222 
z
M 2116 4862 
L 2531 5737 
L 3269 5737 
L 2581 4862 
L 2116 4862 
z
" id="ArialMT-d3" transform="scale(0.015625)"/>
      <path d="M 941 0 
L 419 0 
L 419 4581 
L 981 4581 
L 981 2947 
Q 1338 3394 1891 3394 
Q 2197 3394 2470 3270 
Q 2744 3147 2920 2923 
Q 3097 2700 3197 2384 
Q 3297 2069 3297 1709 
Q 3297 856 2875 390 
Q 2453 -75 1863 -75 
Q 1275 -75 941 416 
L 941 0 
z
M 934 1684 
Q 934 1088 1097 822 
Q 1363 388 1816 388 
Q 2184 388 2453 708 
Q 2722 1028 2722 1663 
Q 2722 2313 2464 2622 
Q 2206 2931 1841 2931 
Q 1472 2931 1203 2611 
Q 934 2291 934 1684 
z
" id="ArialMT-62" transform="scale(0.015625)"/>
      <path d="M 425 3934 
L 425 4581 
L 988 4581 
L 988 3934 
L 425 3934 
z
M 425 0 
L 425 3319 
L 988 3319 
L 988 0 
L 425 0 
z
" id="ArialMT-69" transform="scale(0.015625)"/>
      <path d="M 1650 503 
L 1731 6 
Q 1494 -44 1306 -44 
Q 1000 -44 831 53 
Q 663 150 594 308 
Q 525 466 525 972 
L 525 2881 
L 113 2881 
L 113 3319 
L 525 3319 
L 525 4141 
L 1084 4478 
L 1084 3319 
L 1650 3319 
L 1650 2881 
L 1084 2881 
L 1084 941 
Q 1084 700 1114 631 
Q 1144 563 1211 522 
Q 1278 481 1403 481 
Q 1497 481 1650 503 
z
" id="ArialMT-74" transform="scale(0.015625)"/>
      <path d="M 213 1659 
Q 213 2581 725 3025 
Q 1153 3394 1769 3394 
Q 2453 3394 2887 2945 
Q 3322 2497 3322 1706 
Q 3322 1066 3130 698 
Q 2938 331 2570 128 
Q 2203 -75 1769 -75 
Q 1072 -75 642 372 
Q 213 819 213 1659 
z
M 791 1659 
Q 791 1022 1069 705 
Q 1347 388 1769 388 
Q 2188 388 2466 706 
Q 2744 1025 2744 1678 
Q 2744 2294 2464 2611 
Q 2184 2928 1769 2928 
Q 1347 2928 1069 2612 
Q 791 2297 791 1659 
z
" id="ArialMT-6f" transform="scale(0.015625)"/>
      <path d="M 197 991 
L 753 1078 
Q 800 744 1014 566 
Q 1228 388 1613 388 
Q 2000 388 2187 545 
Q 2375 703 2375 916 
Q 2375 1106 2209 1216 
Q 2094 1291 1634 1406 
Q 1016 1563 777 1677 
Q 538 1791 414 1992 
Q 291 2194 291 2438 
Q 291 2659 392 2848 
Q 494 3038 669 3163 
Q 800 3259 1026 3326 
Q 1253 3394 1513 3394 
Q 1903 3394 2198 3281 
Q 2494 3169 2634 2976 
Q 2775 2784 2828 2463 
L 2278 2388 
Q 2241 2644 2061 2787 
Q 1881 2931 1553 2931 
Q 1166 2931 1000 2803 
Q 834 2675 834 2503 
Q 834 2394 903 2306 
Q 972 2216 1119 2156 
Q 1203 2125 1616 2013 
Q 2213 1853 2448 1751 
Q 2684 1650 2818 1456 
Q 2953 1263 2953 975 
Q 2953 694 2789 445 
Q 2625 197 2315 61 
Q 2006 -75 1616 -75 
Q 969 -75 630 194 
Q 291 463 197 991 
z
" id="ArialMT-73" transform="scale(0.015625)"/>
     </defs>
     <use xlink:href="#ArialMT-d3"/>
     <use x="77.783203" xlink:href="#ArialMT-62"/>
     <use x="133.398438" xlink:href="#ArialMT-69"/>
     <use x="155.615234" xlink:href="#ArialMT-74"/>
     <use x="183.398438" xlink:href="#ArialMT-6f"/>
     <use x="239.013672" xlink:href="#ArialMT-73"/>
    </g>
   </g>
  </g>
 </g>
 <defs>
  <clipPath id="p186837941b">
   <rect height="271.8" width="558" x="36.44375" y="21.789375"/>
  </clipPath>
 </defs>
</svg>
