<?xml version="1.0" encoding="utf-8" standalone="no"?>
<!DOCTYPE svg PUBLIC "-//W3C//DTD SVG 1.1//EN"
  "http://www.w3.org/Graphics/SVG/1.1/DTD/svg11.dtd">
<svg height="322.334688pt" version="1.1" viewBox="0 0 601.64375 322.334688" width="601.64375pt" xmlns="http://www.w3.org/2000/svg" xmlns:xlink="http://www.w3.org/1999/xlink">
 <metadata>
  <rdf:RDF xmlns:cc="http://creativecommons.org/ns#" xmlns:dc="http://purl.org/dc/elements/1.1/" xmlns:rdf="http://www.w3.org/1999/02/22-rdf-syntax-ns#">
   <cc:Work>
    <dc:type rdf:resource="http://purl.org/dc/dcmitype/StillImage"/>
    <dc:date>2021-05-05T18:25:49.356477</dc:date>
    <dc:format>image/svg+xml</dc:format>
    <dc:creator>
     <cc:Agent>
      <dc:title>Matplotlib v3.4.1, https://matplotlib.org/</dc:title>
     </cc:Agent>
    </dc:creator>
   </cc:Work>
  </rdf:RDF>
 </metadata>
 <defs>
  <style type="text/css">*{stroke-linecap:butt;stroke-linejoin:round;}</style>
 </defs>
 <g id="figure_1">
  <g id="patch_1">
   <path d="M 0 322.334688 
L 601.64375 322.334688 
L 601.64375 0 
L 0 0 
z
" style="fill:#ffffff;"/>
  </g>
  <g id="axes_1">
   <g id="patch_2">
    <path d="M 36.44375 298.989375 
L 594.44375 298.989375 
L 594.44375 21.789375 
L 36.44375 21.789375 
z
" style="fill:#ffffff;"/>
   </g>
   <g id="matplotlib.axis_1">
    <g id="xtick_1">
     <g id="line2d_1">
      <path clip-path="url(#pdb26bf0510)" d="M 39.644986 298.989375 
L 39.644986 21.789375 
" style="fill:none;stroke:#cccccc;stroke-linecap:round;stroke-width:0.8;"/>
     </g>
     <g id="text_1">
      <!-- 2020-03 -->
      <g style="fill:#262626;" transform="translate(21.297329 313.147188)scale(0.1 -0.1)">
       <defs>
        <path d="M 3222 541 
L 3222 0 
L 194 0 
Q 188 203 259 391 
Q 375 700 629 1000 
Q 884 1300 1366 1694 
Q 2113 2306 2375 2664 
Q 2638 3022 2638 3341 
Q 2638 3675 2398 3904 
Q 2159 4134 1775 4134 
Q 1369 4134 1125 3890 
Q 881 3647 878 3216 
L 300 3275 
Q 359 3922 746 4261 
Q 1134 4600 1788 4600 
Q 2447 4600 2831 4234 
Q 3216 3869 3216 3328 
Q 3216 3053 3103 2787 
Q 2991 2522 2730 2228 
Q 2469 1934 1863 1422 
Q 1356 997 1212 845 
Q 1069 694 975 541 
L 3222 541 
z
" id="ArialMT-32" transform="scale(0.015625)"/>
        <path d="M 266 2259 
Q 266 3072 433 3567 
Q 600 4063 929 4331 
Q 1259 4600 1759 4600 
Q 2128 4600 2406 4451 
Q 2684 4303 2865 4023 
Q 3047 3744 3150 3342 
Q 3253 2941 3253 2259 
Q 3253 1453 3087 958 
Q 2922 463 2592 192 
Q 2263 -78 1759 -78 
Q 1097 -78 719 397 
Q 266 969 266 2259 
z
M 844 2259 
Q 844 1131 1108 757 
Q 1372 384 1759 384 
Q 2147 384 2411 759 
Q 2675 1134 2675 2259 
Q 2675 3391 2411 3762 
Q 2147 4134 1753 4134 
Q 1366 4134 1134 3806 
Q 844 3388 844 2259 
z
" id="ArialMT-30" transform="scale(0.015625)"/>
        <path d="M 203 1375 
L 203 1941 
L 1931 1941 
L 1931 1375 
L 203 1375 
z
" id="ArialMT-2d" transform="scale(0.015625)"/>
        <path d="M 269 1209 
L 831 1284 
Q 928 806 1161 595 
Q 1394 384 1728 384 
Q 2125 384 2398 659 
Q 2672 934 2672 1341 
Q 2672 1728 2419 1979 
Q 2166 2231 1775 2231 
Q 1616 2231 1378 2169 
L 1441 2663 
Q 1497 2656 1531 2656 
Q 1891 2656 2178 2843 
Q 2466 3031 2466 3422 
Q 2466 3731 2256 3934 
Q 2047 4138 1716 4138 
Q 1388 4138 1169 3931 
Q 950 3725 888 3313 
L 325 3413 
Q 428 3978 793 4289 
Q 1159 4600 1703 4600 
Q 2078 4600 2393 4439 
Q 2709 4278 2876 4000 
Q 3044 3722 3044 3409 
Q 3044 3113 2884 2869 
Q 2725 2625 2413 2481 
Q 2819 2388 3044 2092 
Q 3269 1797 3269 1353 
Q 3269 753 2831 336 
Q 2394 -81 1725 -81 
Q 1122 -81 723 278 
Q 325 638 269 1209 
z
" id="ArialMT-33" transform="scale(0.015625)"/>
       </defs>
       <use xlink:href="#ArialMT-32"/>
       <use x="55.615234" xlink:href="#ArialMT-30"/>
       <use x="111.230469" xlink:href="#ArialMT-32"/>
       <use x="166.845703" xlink:href="#ArialMT-30"/>
       <use x="222.460938" xlink:href="#ArialMT-2d"/>
       <use x="255.761719" xlink:href="#ArialMT-30"/>
       <use x="311.376953" xlink:href="#ArialMT-33"/>
      </g>
     </g>
    </g>
    <g id="xtick_2">
     <g id="line2d_2">
      <path clip-path="url(#pdb26bf0510)" d="M 114.750899 298.989375 
L 114.750899 21.789375 
" style="fill:none;stroke:#cccccc;stroke-linecap:round;stroke-width:0.8;"/>
     </g>
     <g id="text_2">
      <!-- 2020-05 -->
      <g style="fill:#262626;" transform="translate(96.403243 313.147188)scale(0.1 -0.1)">
       <defs>
        <path d="M 266 1200 
L 856 1250 
Q 922 819 1161 601 
Q 1400 384 1738 384 
Q 2144 384 2425 690 
Q 2706 997 2706 1503 
Q 2706 1984 2436 2262 
Q 2166 2541 1728 2541 
Q 1456 2541 1237 2417 
Q 1019 2294 894 2097 
L 366 2166 
L 809 4519 
L 3088 4519 
L 3088 3981 
L 1259 3981 
L 1013 2750 
Q 1425 3038 1878 3038 
Q 2478 3038 2890 2622 
Q 3303 2206 3303 1553 
Q 3303 931 2941 478 
Q 2500 -78 1738 -78 
Q 1113 -78 717 272 
Q 322 622 266 1200 
z
" id="ArialMT-35" transform="scale(0.015625)"/>
       </defs>
       <use xlink:href="#ArialMT-32"/>
       <use x="55.615234" xlink:href="#ArialMT-30"/>
       <use x="111.230469" xlink:href="#ArialMT-32"/>
       <use x="166.845703" xlink:href="#ArialMT-30"/>
       <use x="222.460938" xlink:href="#ArialMT-2d"/>
       <use x="255.761719" xlink:href="#ArialMT-30"/>
       <use x="311.376953" xlink:href="#ArialMT-35"/>
      </g>
     </g>
    </g>
    <g id="xtick_3">
     <g id="line2d_3">
      <path clip-path="url(#pdb26bf0510)" d="M 189.856813 298.989375 
L 189.856813 21.789375 
" style="fill:none;stroke:#cccccc;stroke-linecap:round;stroke-width:0.8;"/>
     </g>
     <g id="text_3">
      <!-- 2020-07 -->
      <g style="fill:#262626;" transform="translate(171.509156 313.147188)scale(0.1 -0.1)">
       <defs>
        <path d="M 303 3981 
L 303 4522 
L 3269 4522 
L 3269 4084 
Q 2831 3619 2401 2847 
Q 1972 2075 1738 1259 
Q 1569 684 1522 0 
L 944 0 
Q 953 541 1156 1306 
Q 1359 2072 1739 2783 
Q 2119 3494 2547 3981 
L 303 3981 
z
" id="ArialMT-37" transform="scale(0.015625)"/>
       </defs>
       <use xlink:href="#ArialMT-32"/>
       <use x="55.615234" xlink:href="#ArialMT-30"/>
       <use x="111.230469" xlink:href="#ArialMT-32"/>
       <use x="166.845703" xlink:href="#ArialMT-30"/>
       <use x="222.460938" xlink:href="#ArialMT-2d"/>
       <use x="255.761719" xlink:href="#ArialMT-30"/>
       <use x="311.376953" xlink:href="#ArialMT-37"/>
      </g>
     </g>
    </g>
    <g id="xtick_4">
     <g id="line2d_4">
      <path clip-path="url(#pdb26bf0510)" d="M 266.193971 298.989375 
L 266.193971 21.789375 
" style="fill:none;stroke:#cccccc;stroke-linecap:round;stroke-width:0.8;"/>
     </g>
     <g id="text_4">
      <!-- 2020-09 -->
      <g style="fill:#262626;" transform="translate(247.846314 313.147188)scale(0.1 -0.1)">
       <defs>
        <path d="M 350 1059 
L 891 1109 
Q 959 728 1153 556 
Q 1347 384 1650 384 
Q 1909 384 2104 503 
Q 2300 622 2425 820 
Q 2550 1019 2634 1356 
Q 2719 1694 2719 2044 
Q 2719 2081 2716 2156 
Q 2547 1888 2255 1720 
Q 1963 1553 1622 1553 
Q 1053 1553 659 1965 
Q 266 2378 266 3053 
Q 266 3750 677 4175 
Q 1088 4600 1706 4600 
Q 2153 4600 2523 4359 
Q 2894 4119 3086 3673 
Q 3278 3228 3278 2384 
Q 3278 1506 3087 986 
Q 2897 466 2520 194 
Q 2144 -78 1638 -78 
Q 1100 -78 759 220 
Q 419 519 350 1059 
z
M 2653 3081 
Q 2653 3566 2395 3850 
Q 2138 4134 1775 4134 
Q 1400 4134 1122 3828 
Q 844 3522 844 3034 
Q 844 2597 1108 2323 
Q 1372 2050 1759 2050 
Q 2150 2050 2401 2323 
Q 2653 2597 2653 3081 
z
" id="ArialMT-39" transform="scale(0.015625)"/>
       </defs>
       <use xlink:href="#ArialMT-32"/>
       <use x="55.615234" xlink:href="#ArialMT-30"/>
       <use x="111.230469" xlink:href="#ArialMT-32"/>
       <use x="166.845703" xlink:href="#ArialMT-30"/>
       <use x="222.460938" xlink:href="#ArialMT-2d"/>
       <use x="255.761719" xlink:href="#ArialMT-30"/>
       <use x="311.376953" xlink:href="#ArialMT-39"/>
      </g>
     </g>
    </g>
    <g id="xtick_5">
     <g id="line2d_5">
      <path clip-path="url(#pdb26bf0510)" d="M 341.299884 298.989375 
L 341.299884 21.789375 
" style="fill:none;stroke:#cccccc;stroke-linecap:round;stroke-width:0.8;"/>
     </g>
     <g id="text_5">
      <!-- 2020-11 -->
      <g style="fill:#262626;" transform="translate(323.320978 313.147188)scale(0.1 -0.1)">
       <defs>
        <path d="M 2384 0 
L 1822 0 
L 1822 3584 
Q 1619 3391 1289 3197 
Q 959 3003 697 2906 
L 697 3450 
Q 1169 3672 1522 3987 
Q 1875 4303 2022 4600 
L 2384 4600 
L 2384 0 
z
" id="ArialMT-31" transform="scale(0.015625)"/>
       </defs>
       <use xlink:href="#ArialMT-32"/>
       <use x="55.615234" xlink:href="#ArialMT-30"/>
       <use x="111.230469" xlink:href="#ArialMT-32"/>
       <use x="166.845703" xlink:href="#ArialMT-30"/>
       <use x="222.460938" xlink:href="#ArialMT-2d"/>
       <use x="255.761719" xlink:href="#ArialMT-31"/>
       <use x="304.001953" xlink:href="#ArialMT-31"/>
      </g>
     </g>
    </g>
    <g id="xtick_6">
     <g id="line2d_6">
      <path clip-path="url(#pdb26bf0510)" d="M 416.405798 298.989375 
L 416.405798 21.789375 
" style="fill:none;stroke:#cccccc;stroke-linecap:round;stroke-width:0.8;"/>
     </g>
     <g id="text_6">
      <!-- 2021-01 -->
      <g style="fill:#262626;" transform="translate(398.058141 313.147188)scale(0.1 -0.1)">
       <use xlink:href="#ArialMT-32"/>
       <use x="55.615234" xlink:href="#ArialMT-30"/>
       <use x="111.230469" xlink:href="#ArialMT-32"/>
       <use x="166.845703" xlink:href="#ArialMT-31"/>
       <use x="222.460938" xlink:href="#ArialMT-2d"/>
       <use x="255.761719" xlink:href="#ArialMT-30"/>
       <use x="311.376953" xlink:href="#ArialMT-31"/>
      </g>
     </g>
    </g>
    <g id="xtick_7">
     <g id="line2d_7">
      <path clip-path="url(#pdb26bf0510)" d="M 489.049222 298.989375 
L 489.049222 21.789375 
" style="fill:none;stroke:#cccccc;stroke-linecap:round;stroke-width:0.8;"/>
     </g>
     <g id="text_7">
      <!-- 2021-03 -->
      <g style="fill:#262626;" transform="translate(470.701566 313.147188)scale(0.1 -0.1)">
       <use xlink:href="#ArialMT-32"/>
       <use x="55.615234" xlink:href="#ArialMT-30"/>
       <use x="111.230469" xlink:href="#ArialMT-32"/>
       <use x="166.845703" xlink:href="#ArialMT-31"/>
       <use x="222.460938" xlink:href="#ArialMT-2d"/>
       <use x="255.761719" xlink:href="#ArialMT-30"/>
       <use x="311.376953" xlink:href="#ArialMT-33"/>
      </g>
     </g>
    </g>
    <g id="xtick_8">
     <g id="line2d_8">
      <path clip-path="url(#pdb26bf0510)" d="M 564.155136 298.989375 
L 564.155136 21.789375 
" style="fill:none;stroke:#cccccc;stroke-linecap:round;stroke-width:0.8;"/>
     </g>
     <g id="text_8">
      <!-- 2021-05 -->
      <g style="fill:#262626;" transform="translate(545.807479 313.147188)scale(0.1 -0.1)">
       <use xlink:href="#ArialMT-32"/>
       <use x="55.615234" xlink:href="#ArialMT-30"/>
       <use x="111.230469" xlink:href="#ArialMT-32"/>
       <use x="166.845703" xlink:href="#ArialMT-31"/>
       <use x="222.460938" xlink:href="#ArialMT-2d"/>
       <use x="255.761719" xlink:href="#ArialMT-30"/>
       <use x="311.376953" xlink:href="#ArialMT-35"/>
      </g>
     </g>
    </g>
   </g>
   <g id="matplotlib.axis_2">
    <g id="ytick_1">
     <g id="line2d_9">
      <path clip-path="url(#pdb26bf0510)" d="M 36.44375 286.389375 
L 594.44375 286.389375 
" style="fill:none;stroke:#cccccc;stroke-linecap:round;stroke-width:0.8;"/>
     </g>
     <g id="text_9">
      <!-- 0 -->
      <g style="fill:#262626;" transform="translate(23.882813 289.968281)scale(0.1 -0.1)">
       <use xlink:href="#ArialMT-30"/>
      </g>
     </g>
    </g>
    <g id="ytick_2">
     <g id="line2d_10">
      <path clip-path="url(#pdb26bf0510)" d="M 36.44375 252.72204 
L 594.44375 252.72204 
" style="fill:none;stroke:#cccccc;stroke-linecap:round;stroke-width:0.8;"/>
     </g>
     <g id="text_10">
      <!-- 200 -->
      <g style="fill:#262626;" transform="translate(12.760938 256.300947)scale(0.1 -0.1)">
       <use xlink:href="#ArialMT-32"/>
       <use x="55.615234" xlink:href="#ArialMT-30"/>
       <use x="111.230469" xlink:href="#ArialMT-30"/>
      </g>
     </g>
    </g>
    <g id="ytick_3">
     <g id="line2d_11">
      <path clip-path="url(#pdb26bf0510)" d="M 36.44375 219.054706 
L 594.44375 219.054706 
" style="fill:none;stroke:#cccccc;stroke-linecap:round;stroke-width:0.8;"/>
     </g>
     <g id="text_11">
      <!-- 400 -->
      <g style="fill:#262626;" transform="translate(12.760938 222.633612)scale(0.1 -0.1)">
       <defs>
        <path d="M 2069 0 
L 2069 1097 
L 81 1097 
L 81 1613 
L 2172 4581 
L 2631 4581 
L 2631 1613 
L 3250 1613 
L 3250 1097 
L 2631 1097 
L 2631 0 
L 2069 0 
z
M 2069 1613 
L 2069 3678 
L 634 1613 
L 2069 1613 
z
" id="ArialMT-34" transform="scale(0.015625)"/>
       </defs>
       <use xlink:href="#ArialMT-34"/>
       <use x="55.615234" xlink:href="#ArialMT-30"/>
       <use x="111.230469" xlink:href="#ArialMT-30"/>
      </g>
     </g>
    </g>
    <g id="ytick_4">
     <g id="line2d_12">
      <path clip-path="url(#pdb26bf0510)" d="M 36.44375 185.387371 
L 594.44375 185.387371 
" style="fill:none;stroke:#cccccc;stroke-linecap:round;stroke-width:0.8;"/>
     </g>
     <g id="text_12">
      <!-- 600 -->
      <g style="fill:#262626;" transform="translate(12.760938 188.966277)scale(0.1 -0.1)">
       <defs>
        <path d="M 3184 3459 
L 2625 3416 
Q 2550 3747 2413 3897 
Q 2184 4138 1850 4138 
Q 1581 4138 1378 3988 
Q 1113 3794 959 3422 
Q 806 3050 800 2363 
Q 1003 2672 1297 2822 
Q 1591 2972 1913 2972 
Q 2475 2972 2870 2558 
Q 3266 2144 3266 1488 
Q 3266 1056 3080 686 
Q 2894 316 2569 119 
Q 2244 -78 1831 -78 
Q 1128 -78 684 439 
Q 241 956 241 2144 
Q 241 3472 731 4075 
Q 1159 4600 1884 4600 
Q 2425 4600 2770 4297 
Q 3116 3994 3184 3459 
z
M 888 1484 
Q 888 1194 1011 928 
Q 1134 663 1356 523 
Q 1578 384 1822 384 
Q 2178 384 2434 671 
Q 2691 959 2691 1453 
Q 2691 1928 2437 2201 
Q 2184 2475 1800 2475 
Q 1419 2475 1153 2201 
Q 888 1928 888 1484 
z
" id="ArialMT-36" transform="scale(0.015625)"/>
       </defs>
       <use xlink:href="#ArialMT-36"/>
       <use x="55.615234" xlink:href="#ArialMT-30"/>
       <use x="111.230469" xlink:href="#ArialMT-30"/>
      </g>
     </g>
    </g>
    <g id="ytick_5">
     <g id="line2d_13">
      <path clip-path="url(#pdb26bf0510)" d="M 36.44375 151.720036 
L 594.44375 151.720036 
" style="fill:none;stroke:#cccccc;stroke-linecap:round;stroke-width:0.8;"/>
     </g>
     <g id="text_13">
      <!-- 800 -->
      <g style="fill:#262626;" transform="translate(12.760938 155.298943)scale(0.1 -0.1)">
       <defs>
        <path d="M 1131 2484 
Q 781 2613 612 2850 
Q 444 3088 444 3419 
Q 444 3919 803 4259 
Q 1163 4600 1759 4600 
Q 2359 4600 2725 4251 
Q 3091 3903 3091 3403 
Q 3091 3084 2923 2848 
Q 2756 2613 2416 2484 
Q 2838 2347 3058 2040 
Q 3278 1734 3278 1309 
Q 3278 722 2862 322 
Q 2447 -78 1769 -78 
Q 1091 -78 675 323 
Q 259 725 259 1325 
Q 259 1772 486 2073 
Q 713 2375 1131 2484 
z
M 1019 3438 
Q 1019 3113 1228 2906 
Q 1438 2700 1772 2700 
Q 2097 2700 2305 2904 
Q 2513 3109 2513 3406 
Q 2513 3716 2298 3927 
Q 2084 4138 1766 4138 
Q 1444 4138 1231 3931 
Q 1019 3725 1019 3438 
z
M 838 1322 
Q 838 1081 952 856 
Q 1066 631 1291 507 
Q 1516 384 1775 384 
Q 2178 384 2440 643 
Q 2703 903 2703 1303 
Q 2703 1709 2433 1975 
Q 2163 2241 1756 2241 
Q 1359 2241 1098 1978 
Q 838 1716 838 1322 
z
" id="ArialMT-38" transform="scale(0.015625)"/>
       </defs>
       <use xlink:href="#ArialMT-38"/>
       <use x="55.615234" xlink:href="#ArialMT-30"/>
       <use x="111.230469" xlink:href="#ArialMT-30"/>
      </g>
     </g>
    </g>
    <g id="ytick_6">
     <g id="line2d_14">
      <path clip-path="url(#pdb26bf0510)" d="M 36.44375 118.052702 
L 594.44375 118.052702 
" style="fill:none;stroke:#cccccc;stroke-linecap:round;stroke-width:0.8;"/>
     </g>
     <g id="text_14">
      <!-- 1000 -->
      <g style="fill:#262626;" transform="translate(7.2 121.631608)scale(0.1 -0.1)">
       <use xlink:href="#ArialMT-31"/>
       <use x="55.615234" xlink:href="#ArialMT-30"/>
       <use x="111.230469" xlink:href="#ArialMT-30"/>
       <use x="166.845703" xlink:href="#ArialMT-30"/>
      </g>
     </g>
    </g>
    <g id="ytick_7">
     <g id="line2d_15">
      <path clip-path="url(#pdb26bf0510)" d="M 36.44375 84.385367 
L 594.44375 84.385367 
" style="fill:none;stroke:#cccccc;stroke-linecap:round;stroke-width:0.8;"/>
     </g>
     <g id="text_15">
      <!-- 1200 -->
      <g style="fill:#262626;" transform="translate(7.2 87.964273)scale(0.1 -0.1)">
       <use xlink:href="#ArialMT-31"/>
       <use x="55.615234" xlink:href="#ArialMT-32"/>
       <use x="111.230469" xlink:href="#ArialMT-30"/>
       <use x="166.845703" xlink:href="#ArialMT-30"/>
      </g>
     </g>
    </g>
    <g id="ytick_8">
     <g id="line2d_16">
      <path clip-path="url(#pdb26bf0510)" d="M 36.44375 50.718032 
L 594.44375 50.718032 
" style="fill:none;stroke:#cccccc;stroke-linecap:round;stroke-width:0.8;"/>
     </g>
     <g id="text_16">
      <!-- 1400 -->
      <g style="fill:#262626;" transform="translate(7.2 54.296939)scale(0.1 -0.1)">
       <use xlink:href="#ArialMT-31"/>
       <use x="55.615234" xlink:href="#ArialMT-34"/>
       <use x="111.230469" xlink:href="#ArialMT-30"/>
       <use x="166.845703" xlink:href="#ArialMT-30"/>
      </g>
     </g>
    </g>
   </g>
   <g id="line2d_17">
    <path clip-path="url(#pdb26bf0510)" d="M 61.807386 286.389375 
L 76.58232 286.389375 
L 77.813565 286.221038 
L 79.044809 285.716028 
L 82.738543 285.716028 
L 83.969787 285.547692 
L 85.201032 284.706008 
L 87.663521 284.706008 
L 90.126009 284.032662 
L 91.357254 284.032662 
L 92.588498 283.864325 
L 95.050987 282.854305 
L 96.282232 282.685968 
L 97.513476 282.685968 
L 98.744721 282.517632 
L 99.975965 282.517632 
L 101.20721 282.180958 
L 102.438454 282.012621 
L 103.669699 281.507611 
L 104.900943 281.170938 
L 106.132188 280.497591 
L 108.594677 280.497591 
L 109.825921 278.982561 
L 111.057166 277.972541 
L 113.519655 277.635868 
L 114.750899 277.299195 
L 117.213388 276.962521 
L 119.675877 276.289175 
L 120.907122 276.120838 
L 122.138366 275.784165 
L 123.369611 274.942481 
L 124.600855 274.774145 
L 125.8321 274.774145 
L 127.063344 274.437471 
L 128.294588 274.269135 
L 130.757077 272.922441 
L 131.988322 272.585768 
L 133.219566 272.080758 
L 134.450811 271.744084 
L 135.682055 270.734064 
L 136.9133 270.060718 
L 138.144544 269.724044 
L 139.375789 268.882361 
L 140.607033 268.882361 
L 141.838278 268.377351 
L 143.069522 268.377351 
L 144.300767 267.198994 
L 145.532011 266.188974 
L 146.763256 263.327251 
L 149.225745 262.317231 
L 150.456989 261.307211 
L 151.688234 260.970537 
L 152.919478 259.792181 
L 154.150723 259.455507 
L 155.381967 258.782161 
L 156.613212 258.445487 
L 157.844456 256.930457 
L 159.075701 256.088774 
L 161.53819 254.74208 
L 164.000679 253.058714 
L 165.231923 251.71202 
L 166.463167 250.702 
L 167.694412 249.018634 
L 168.925656 249.018634 
L 170.156901 247.840277 
L 171.388145 246.493583 
L 172.61939 244.305207 
L 173.850634 242.453503 
L 175.081879 239.08677 
L 176.313123 236.393383 
L 177.544368 236.393383 
L 178.775612 233.868333 
L 180.006857 232.01663 
L 181.238101 229.323243 
L 182.469346 228.649896 
L 183.70059 225.956509 
L 186.163079 225.956509 
L 187.394324 224.609816 
L 188.625568 224.273143 
L 191.088057 222.589776 
L 192.319302 222.421439 
L 194.781791 222.421439 
L 196.013035 221.411419 
L 197.24428 221.243082 
L 198.475524 220.569736 
L 199.706769 220.569736 
L 200.938013 219.728052 
L 202.169258 219.391379 
L 203.400502 219.391379 
L 204.631746 217.708012 
L 207.094235 217.708012 
L 208.32548 216.866329 
L 209.556724 214.846289 
L 212.019213 214.846289 
L 213.250458 214.677952 
L 214.481702 214.172942 
L 215.712947 213.331259 
L 218.175436 212.321239 
L 219.40668 211.142882 
L 220.637925 211.142882 
L 221.869169 210.637872 
L 223.100414 209.964525 
L 224.331658 208.954505 
L 225.562903 207.776149 
L 226.794147 207.102802 
L 229.256636 207.102802 
L 230.487881 206.092782 
L 231.719125 204.746088 
L 232.95037 204.072742 
L 234.181614 203.736068 
L 235.412859 202.894385 
L 236.644103 202.894385 
L 239.106592 202.557712 
L 240.337836 201.716028 
L 241.569081 199.359315 
L 242.800325 198.517632 
L 244.03157 197.844285 
L 246.494059 197.844285 
L 247.725303 197.002601 
L 248.956548 196.665928 
L 250.187792 195.487571 
L 252.650281 195.150898 
L 255.11277 195.150898 
L 256.344015 194.477551 
L 257.575259 193.635868 
L 258.806504 193.299195 
L 260.037748 192.625848 
L 261.268993 192.120838 
L 263.731482 192.120838 
L 266.193971 190.774145 
L 267.425215 190.269135 
L 269.887704 189.932461 
L 271.118949 189.595788 
L 273.581438 189.259114 
L 274.812682 188.922441 
L 276.043927 188.080758 
L 277.275171 188.080758 
L 278.506415 187.744084 
L 280.968904 187.744084 
L 282.200149 187.575748 
L 283.431393 187.070738 
L 284.662638 185.892381 
L 285.893882 183.872341 
L 287.125127 183.535668 
L 290.81886 183.535668 
L 292.050105 182.357311 
L 295.743838 181.852301 
L 298.206327 181.852301 
L 299.437572 181.515628 
L 300.668816 180.505607 
L 301.900061 180.168934 
L 303.131305 179.327251 
L 306.825039 179.327251 
L 308.056283 179.158914 
L 310.518772 178.485567 
L 311.750017 178.485567 
L 312.981261 177.812221 
L 316.674994 177.812221 
L 317.906239 177.138874 
L 320.368728 175.455507 
L 321.599972 174.950497 
L 324.062461 174.950497 
L 325.293706 174.782161 
L 326.52495 173.940477 
L 330.218684 172.930457 
L 333.912417 172.930457 
L 336.374906 172.593784 
L 337.606151 172.088774 
L 338.837395 171.7521 
L 342.531129 171.24709 
L 343.762373 170.405407 
L 344.993618 170.23707 
L 346.224862 169.563724 
L 347.456107 169.058714 
L 349.918596 169.058714 
L 351.14984 168.890377 
L 352.381085 168.048694 
L 353.612329 166.702 
L 354.843573 165.523644 
L 356.074818 165.018634 
L 358.537307 165.018634 
L 359.768551 164.345287 
L 360.999796 161.820237 
L 363.462285 161.483563 
L 367.156018 161.483563 
L 368.387263 159.295187 
L 369.618507 158.285167 
L 370.849752 157.61182 
L 372.080996 156.433463 
L 373.312241 155.928453 
L 374.543485 155.760116 
L 375.77473 155.760116 
L 377.005974 154.750096 
L 378.237219 153.235066 
L 379.468463 152.393383 
L 380.699708 151.720036 
L 381.930952 150.710016 
L 384.393441 150.710016 
L 385.624686 149.363323 
L 386.85593 148.353303 
L 388.087175 147.511619 
L 390.549664 146.501599 
L 391.780908 146.164926 
L 393.012152 145.996589 
L 395.474641 143.303203 
L 396.705886 142.293183 
L 397.93713 142.124846 
L 399.168375 141.451499 
L 400.399619 141.283163 
L 401.630864 141.283163 
L 402.862108 140.441479 
L 404.093353 140.273143 
L 405.324597 139.431459 
L 410.249575 139.431459 
L 411.48082 138.589776 
L 412.712064 136.906409 
L 413.943309 133.371339 
L 418.868287 133.371339 
L 421.330776 132.361319 
L 422.56202 130.677952 
L 423.793265 129.836269 
L 425.024509 129.162922 
L 427.486998 129.162922 
L 428.718242 127.479555 
L 429.949487 127.311219 
L 431.180731 125.459515 
L 432.411976 124.954505 
L 433.64322 123.776149 
L 436.105709 123.776149 
L 437.336954 122.934465 
L 439.799443 120.577752 
L 441.030687 116.369335 
L 443.493176 115.695988 
L 447.18691 115.695988 
L 448.418154 114.685968 
L 449.649399 114.012621 
L 450.880643 113.675948 
L 452.111888 113.507611 
L 453.343132 113.507611 
L 455.805621 112.834265 
L 458.26811 110.814225 
L 459.499355 110.477551 
L 461.961844 110.477551 
L 463.193088 109.467531 
L 464.424333 108.625848 
L 465.655577 107.952501 
L 466.886821 107.447491 
L 469.34931 107.110818 
L 470.580555 107.110818 
L 471.811799 106.437471 
L 473.043044 106.100798 
L 474.274288 105.932461 
L 475.505533 105.595788 
L 479.199266 105.595788 
L 480.430511 104.922441 
L 481.661755 104.417431 
L 482.893 103.239074 
L 484.124244 102.565728 
L 485.355489 101.724044 
L 486.586733 101.387371 
L 487.817978 101.387371 
L 489.049222 101.219034 
L 490.280467 100.882361 
L 491.511711 99.535668 
L 492.742956 99.030658 
L 493.9742 98.693984 
L 496.436689 98.693984 
L 497.667934 97.852301 
L 498.899178 97.515628 
L 500.130423 96.000597 
L 501.361667 94.822241 
L 502.592912 94.485567 
L 505.0554 94.485567 
L 506.286645 94.148894 
L 507.517889 93.307211 
L 508.749134 92.633864 
L 509.980378 91.623844 
L 511.211623 90.445487 
L 512.442867 90.277151 
L 513.674112 90.277151 
L 516.136601 87.583764 
L 517.367845 86.910417 
L 518.59909 84.72204 
L 519.830334 84.385367 
L 521.061579 83.375347 
L 522.292823 83.20701 
L 524.755312 80.513623 
L 525.986557 78.830257 
L 527.217801 78.15691 
L 528.449046 76.978553 
L 529.68029 76.305207 
L 530.911535 76.305207 
L 532.142779 74.958513 
L 533.374024 72.433463 
L 534.605268 71.255106 
L 535.836513 67.5517 
L 537.067757 63.006609 
L 539.530246 62.333263 
L 540.761491 58.461519 
L 541.992735 56.946489 
L 543.223979 56.946489 
L 544.455224 55.936469 
L 545.686468 54.589776 
L 546.917713 54.589776 
L 548.148957 53.411419 
L 549.380202 50.044686 
L 550.611446 49.371339 
L 551.842691 49.034666 
L 554.30518 47.351299 
L 555.536424 46.341279 
L 556.767669 45.667932 
L 557.998913 43.816229 
L 559.230158 42.974545 
L 560.461402 40.617832 
L 561.692647 39.607812 
L 565.38638 38.092782 
L 566.617625 36.577752 
L 567.848869 34.726048 
L 569.080114 34.389375 
L 569.080114 34.389375 
" style="fill:none;stroke:#1f77b4;stroke-linecap:round;stroke-width:1.5;"/>
   </g>
   <g id="patch_3">
    <path d="M 36.44375 298.989375 
L 36.44375 21.789375 
" style="fill:none;stroke:#cccccc;stroke-linecap:square;stroke-linejoin:miter;stroke-width:0.8;"/>
   </g>
   <g id="patch_4">
    <path d="M 594.44375 298.989375 
L 594.44375 21.789375 
" style="fill:none;stroke:#cccccc;stroke-linecap:square;stroke-linejoin:miter;stroke-width:0.8;"/>
   </g>
   <g id="patch_5">
    <path d="M 36.44375 298.989375 
L 594.44375 298.989375 
" style="fill:none;stroke:#cccccc;stroke-linecap:square;stroke-linejoin:miter;stroke-width:0.8;"/>
   </g>
   <g id="patch_6">
    <path d="M 36.44375 21.789375 
L 594.44375 21.789375 
" style="fill:none;stroke:#cccccc;stroke-linecap:square;stroke-linejoin:miter;stroke-width:0.8;"/>
   </g>
   <g id="text_17">
    <!-- Óbitos -->
    <g style="fill:#262626;" transform="translate(298.10375 15.789375)scale(0.12 -0.12)">
     <defs>
      <path d="M 309 2231 
Q 309 3372 921 4017 
Q 1534 4663 2503 4663 
Q 3138 4663 3647 4359 
Q 4156 4056 4423 3514 
Q 4691 2972 4691 2284 
Q 4691 1588 4409 1038 
Q 4128 488 3612 205 
Q 3097 -78 2500 -78 
Q 1853 -78 1343 234 
Q 834 547 571 1087 
Q 309 1628 309 2231 
z
M 934 2222 
Q 934 1394 1379 917 
Q 1825 441 2497 441 
Q 3181 441 3623 922 
Q 4066 1403 4066 2288 
Q 4066 2847 3877 3264 
Q 3688 3681 3323 3911 
Q 2959 4141 2506 4141 
Q 1863 4141 1398 3698 
Q 934 3256 934 2222 
z
M 2118 4883 
L 2533 5758 
L 3271 5758 
L 2583 4883 
L 2118 4883 
z
" id="ArialMT-d3" transform="scale(0.015625)"/>
      <path d="M 941 0 
L 419 0 
L 419 4581 
L 981 4581 
L 981 2947 
Q 1338 3394 1891 3394 
Q 2197 3394 2470 3270 
Q 2744 3147 2920 2923 
Q 3097 2700 3197 2384 
Q 3297 2069 3297 1709 
Q 3297 856 2875 390 
Q 2453 -75 1863 -75 
Q 1275 -75 941 416 
L 941 0 
z
M 934 1684 
Q 934 1088 1097 822 
Q 1363 388 1816 388 
Q 2184 388 2453 708 
Q 2722 1028 2722 1663 
Q 2722 2313 2464 2622 
Q 2206 2931 1841 2931 
Q 1472 2931 1203 2611 
Q 934 2291 934 1684 
z
" id="ArialMT-62" transform="scale(0.015625)"/>
      <path d="M 425 3934 
L 425 4581 
L 988 4581 
L 988 3934 
L 425 3934 
z
M 425 0 
L 425 3319 
L 988 3319 
L 988 0 
L 425 0 
z
" id="ArialMT-69" transform="scale(0.015625)"/>
      <path d="M 1650 503 
L 1731 6 
Q 1494 -44 1306 -44 
Q 1000 -44 831 53 
Q 663 150 594 308 
Q 525 466 525 972 
L 525 2881 
L 113 2881 
L 113 3319 
L 525 3319 
L 525 4141 
L 1084 4478 
L 1084 3319 
L 1650 3319 
L 1650 2881 
L 1084 2881 
L 1084 941 
Q 1084 700 1114 631 
Q 1144 563 1211 522 
Q 1278 481 1403 481 
Q 1497 481 1650 503 
z
" id="ArialMT-74" transform="scale(0.015625)"/>
      <path d="M 213 1659 
Q 213 2581 725 3025 
Q 1153 3394 1769 3394 
Q 2453 3394 2887 2945 
Q 3322 2497 3322 1706 
Q 3322 1066 3130 698 
Q 2938 331 2570 128 
Q 2203 -75 1769 -75 
Q 1072 -75 642 372 
Q 213 819 213 1659 
z
M 791 1659 
Q 791 1022 1069 705 
Q 1347 388 1769 388 
Q 2188 388 2466 706 
Q 2744 1025 2744 1678 
Q 2744 2294 2464 2611 
Q 2184 2928 1769 2928 
Q 1347 2928 1069 2612 
Q 791 2297 791 1659 
z
" id="ArialMT-6f" transform="scale(0.015625)"/>
      <path d="M 197 991 
L 753 1078 
Q 800 744 1014 566 
Q 1228 388 1613 388 
Q 2000 388 2187 545 
Q 2375 703 2375 916 
Q 2375 1106 2209 1216 
Q 2094 1291 1634 1406 
Q 1016 1563 777 1677 
Q 538 1791 414 1992 
Q 291 2194 291 2438 
Q 291 2659 392 2848 
Q 494 3038 669 3163 
Q 800 3259 1026 3326 
Q 1253 3394 1513 3394 
Q 1903 3394 2198 3281 
Q 2494 3169 2634 2976 
Q 2775 2784 2828 2463 
L 2278 2388 
Q 2241 2644 2061 2787 
Q 1881 2931 1553 2931 
Q 1166 2931 1000 2803 
Q 834 2675 834 2503 
Q 834 2394 903 2306 
Q 972 2216 1119 2156 
Q 1203 2125 1616 2013 
Q 2213 1853 2448 1751 
Q 2684 1650 2818 1456 
Q 2953 1263 2953 975 
Q 2953 694 2789 445 
Q 2625 197 2315 61 
Q 2006 -75 1616 -75 
Q 969 -75 630 194 
Q 291 463 197 991 
z
" id="ArialMT-73" transform="scale(0.015625)"/>
     </defs>
     <use xlink:href="#ArialMT-d3"/>
     <use x="77.783203" xlink:href="#ArialMT-62"/>
     <use x="133.398438" xlink:href="#ArialMT-69"/>
     <use x="155.615234" xlink:href="#ArialMT-74"/>
     <use x="183.398438" xlink:href="#ArialMT-6f"/>
     <use x="239.013672" xlink:href="#ArialMT-73"/>
    </g>
   </g>
  </g>
 </g>
 <defs>
  <clipPath id="pdb26bf0510">
   <rect height="277.2" width="558" x="36.44375" y="21.789375"/>
  </clipPath>
 </defs>
</svg>
