<?xml version="1.0" encoding="utf-8" standalone="no"?>
<!DOCTYPE svg PUBLIC "-//W3C//DTD SVG 1.1//EN"
  "http://www.w3.org/Graphics/SVG/1.1/DTD/svg11.dtd">
<svg height="322.334688pt" version="1.1" viewBox="0 0 601.64375 322.334688" width="601.64375pt" xmlns="http://www.w3.org/2000/svg" xmlns:xlink="http://www.w3.org/1999/xlink">
 <metadata>
  <rdf:RDF xmlns:cc="http://creativecommons.org/ns#" xmlns:dc="http://purl.org/dc/elements/1.1/" xmlns:rdf="http://www.w3.org/1999/02/22-rdf-syntax-ns#">
   <cc:Work>
    <dc:type rdf:resource="http://purl.org/dc/dcmitype/StillImage"/>
    <dc:date>2021-06-03T18:33:40.846223</dc:date>
    <dc:format>image/svg+xml</dc:format>
    <dc:creator>
     <cc:Agent>
      <dc:title>Matplotlib v3.4.2, https://matplotlib.org/</dc:title>
     </cc:Agent>
    </dc:creator>
   </cc:Work>
  </rdf:RDF>
 </metadata>
 <defs>
  <style type="text/css">*{stroke-linecap:butt;stroke-linejoin:round;}</style>
 </defs>
 <g id="figure_1">
  <g id="patch_1">
   <path d="M 0 322.334688 
L 601.64375 322.334688 
L 601.64375 0 
L 0 0 
z
" style="fill:#ffffff;"/>
  </g>
  <g id="axes_1">
   <g id="patch_2">
    <path d="M 36.44375 298.989375 
L 594.44375 298.989375 
L 594.44375 21.789375 
L 36.44375 21.789375 
z
" style="fill:#ffffff;"/>
   </g>
   <g id="matplotlib.axis_1">
    <g id="xtick_1">
     <g id="line2d_1">
      <path clip-path="url(#pf0d5d8ada3)" d="M 41.102377 298.989375 
L 41.102377 21.789375 
" style="fill:none;stroke:#cccccc;stroke-linecap:round;stroke-width:0.8;"/>
     </g>
     <g id="text_1">
      <!-- 2020-03 -->
      <g style="fill:#262626;" transform="translate(22.754721 313.147188)scale(0.1 -0.1)">
       <defs>
        <path d="M 3222 541 
L 3222 0 
L 194 0 
Q 188 203 259 391 
Q 375 700 629 1000 
Q 884 1300 1366 1694 
Q 2113 2306 2375 2664 
Q 2638 3022 2638 3341 
Q 2638 3675 2398 3904 
Q 2159 4134 1775 4134 
Q 1369 4134 1125 3890 
Q 881 3647 878 3216 
L 300 3275 
Q 359 3922 746 4261 
Q 1134 4600 1788 4600 
Q 2447 4600 2831 4234 
Q 3216 3869 3216 3328 
Q 3216 3053 3103 2787 
Q 2991 2522 2730 2228 
Q 2469 1934 1863 1422 
Q 1356 997 1212 845 
Q 1069 694 975 541 
L 3222 541 
z
" id="ArialMT-32" transform="scale(0.015625)"/>
        <path d="M 266 2259 
Q 266 3072 433 3567 
Q 600 4063 929 4331 
Q 1259 4600 1759 4600 
Q 2128 4600 2406 4451 
Q 2684 4303 2865 4023 
Q 3047 3744 3150 3342 
Q 3253 2941 3253 2259 
Q 3253 1453 3087 958 
Q 2922 463 2592 192 
Q 2263 -78 1759 -78 
Q 1097 -78 719 397 
Q 266 969 266 2259 
z
M 844 2259 
Q 844 1131 1108 757 
Q 1372 384 1759 384 
Q 2147 384 2411 759 
Q 2675 1134 2675 2259 
Q 2675 3391 2411 3762 
Q 2147 4134 1753 4134 
Q 1366 4134 1134 3806 
Q 844 3388 844 2259 
z
" id="ArialMT-30" transform="scale(0.015625)"/>
        <path d="M 203 1375 
L 203 1941 
L 1931 1941 
L 1931 1375 
L 203 1375 
z
" id="ArialMT-2d" transform="scale(0.015625)"/>
        <path d="M 269 1209 
L 831 1284 
Q 928 806 1161 595 
Q 1394 384 1728 384 
Q 2125 384 2398 659 
Q 2672 934 2672 1341 
Q 2672 1728 2419 1979 
Q 2166 2231 1775 2231 
Q 1616 2231 1378 2169 
L 1441 2663 
Q 1497 2656 1531 2656 
Q 1891 2656 2178 2843 
Q 2466 3031 2466 3422 
Q 2466 3731 2256 3934 
Q 2047 4138 1716 4138 
Q 1388 4138 1169 3931 
Q 950 3725 888 3313 
L 325 3413 
Q 428 3978 793 4289 
Q 1159 4600 1703 4600 
Q 2078 4600 2393 4439 
Q 2709 4278 2876 4000 
Q 3044 3722 3044 3409 
Q 3044 3113 2884 2869 
Q 2725 2625 2413 2481 
Q 2819 2388 3044 2092 
Q 3269 1797 3269 1353 
Q 3269 753 2831 336 
Q 2394 -81 1725 -81 
Q 1122 -81 723 278 
Q 325 638 269 1209 
z
" id="ArialMT-33" transform="scale(0.015625)"/>
       </defs>
       <use xlink:href="#ArialMT-32"/>
       <use x="55.615234" xlink:href="#ArialMT-30"/>
       <use x="111.230469" xlink:href="#ArialMT-32"/>
       <use x="166.845703" xlink:href="#ArialMT-30"/>
       <use x="222.460938" xlink:href="#ArialMT-2d"/>
       <use x="255.761719" xlink:href="#ArialMT-30"/>
       <use x="311.376953" xlink:href="#ArialMT-33"/>
      </g>
     </g>
    </g>
    <g id="xtick_2">
     <g id="line2d_2">
      <path clip-path="url(#pf0d5d8ada3)" d="M 111.269353 298.989375 
L 111.269353 21.789375 
" style="fill:none;stroke:#cccccc;stroke-linecap:round;stroke-width:0.8;"/>
     </g>
     <g id="text_2">
      <!-- 2020-05 -->
      <g style="fill:#262626;" transform="translate(92.921697 313.147188)scale(0.1 -0.1)">
       <defs>
        <path d="M 266 1200 
L 856 1250 
Q 922 819 1161 601 
Q 1400 384 1738 384 
Q 2144 384 2425 690 
Q 2706 997 2706 1503 
Q 2706 1984 2436 2262 
Q 2166 2541 1728 2541 
Q 1456 2541 1237 2417 
Q 1019 2294 894 2097 
L 366 2166 
L 809 4519 
L 3088 4519 
L 3088 3981 
L 1259 3981 
L 1013 2750 
Q 1425 3038 1878 3038 
Q 2478 3038 2890 2622 
Q 3303 2206 3303 1553 
Q 3303 931 2941 478 
Q 2500 -78 1738 -78 
Q 1113 -78 717 272 
Q 322 622 266 1200 
z
" id="ArialMT-35" transform="scale(0.015625)"/>
       </defs>
       <use xlink:href="#ArialMT-32"/>
       <use x="55.615234" xlink:href="#ArialMT-30"/>
       <use x="111.230469" xlink:href="#ArialMT-32"/>
       <use x="166.845703" xlink:href="#ArialMT-30"/>
       <use x="222.460938" xlink:href="#ArialMT-2d"/>
       <use x="255.761719" xlink:href="#ArialMT-30"/>
       <use x="311.376953" xlink:href="#ArialMT-35"/>
      </g>
     </g>
    </g>
    <g id="xtick_3">
     <g id="line2d_3">
      <path clip-path="url(#pf0d5d8ada3)" d="M 181.436329 298.989375 
L 181.436329 21.789375 
" style="fill:none;stroke:#cccccc;stroke-linecap:round;stroke-width:0.8;"/>
     </g>
     <g id="text_3">
      <!-- 2020-07 -->
      <g style="fill:#262626;" transform="translate(163.088673 313.147188)scale(0.1 -0.1)">
       <defs>
        <path d="M 303 3981 
L 303 4522 
L 3269 4522 
L 3269 4084 
Q 2831 3619 2401 2847 
Q 1972 2075 1738 1259 
Q 1569 684 1522 0 
L 944 0 
Q 953 541 1156 1306 
Q 1359 2072 1739 2783 
Q 2119 3494 2547 3981 
L 303 3981 
z
" id="ArialMT-37" transform="scale(0.015625)"/>
       </defs>
       <use xlink:href="#ArialMT-32"/>
       <use x="55.615234" xlink:href="#ArialMT-30"/>
       <use x="111.230469" xlink:href="#ArialMT-32"/>
       <use x="166.845703" xlink:href="#ArialMT-30"/>
       <use x="222.460938" xlink:href="#ArialMT-2d"/>
       <use x="255.761719" xlink:href="#ArialMT-30"/>
       <use x="311.376953" xlink:href="#ArialMT-37"/>
      </g>
     </g>
    </g>
    <g id="xtick_4">
     <g id="line2d_4">
      <path clip-path="url(#pf0d5d8ada3)" d="M 252.753583 298.989375 
L 252.753583 21.789375 
" style="fill:none;stroke:#cccccc;stroke-linecap:round;stroke-width:0.8;"/>
     </g>
     <g id="text_4">
      <!-- 2020-09 -->
      <g style="fill:#262626;" transform="translate(234.405927 313.147188)scale(0.1 -0.1)">
       <defs>
        <path d="M 350 1059 
L 891 1109 
Q 959 728 1153 556 
Q 1347 384 1650 384 
Q 1909 384 2104 503 
Q 2300 622 2425 820 
Q 2550 1019 2634 1356 
Q 2719 1694 2719 2044 
Q 2719 2081 2716 2156 
Q 2547 1888 2255 1720 
Q 1963 1553 1622 1553 
Q 1053 1553 659 1965 
Q 266 2378 266 3053 
Q 266 3750 677 4175 
Q 1088 4600 1706 4600 
Q 2153 4600 2523 4359 
Q 2894 4119 3086 3673 
Q 3278 3228 3278 2384 
Q 3278 1506 3087 986 
Q 2897 466 2520 194 
Q 2144 -78 1638 -78 
Q 1100 -78 759 220 
Q 419 519 350 1059 
z
M 2653 3081 
Q 2653 3566 2395 3850 
Q 2138 4134 1775 4134 
Q 1400 4134 1122 3828 
Q 844 3522 844 3034 
Q 844 2597 1108 2323 
Q 1372 2050 1759 2050 
Q 2150 2050 2401 2323 
Q 2653 2597 2653 3081 
z
" id="ArialMT-39" transform="scale(0.015625)"/>
       </defs>
       <use xlink:href="#ArialMT-32"/>
       <use x="55.615234" xlink:href="#ArialMT-30"/>
       <use x="111.230469" xlink:href="#ArialMT-32"/>
       <use x="166.845703" xlink:href="#ArialMT-30"/>
       <use x="222.460938" xlink:href="#ArialMT-2d"/>
       <use x="255.761719" xlink:href="#ArialMT-30"/>
       <use x="311.376953" xlink:href="#ArialMT-39"/>
      </g>
     </g>
    </g>
    <g id="xtick_5">
     <g id="line2d_5">
      <path clip-path="url(#pf0d5d8ada3)" d="M 322.920559 298.989375 
L 322.920559 21.789375 
" style="fill:none;stroke:#cccccc;stroke-linecap:round;stroke-width:0.8;"/>
     </g>
     <g id="text_5">
      <!-- 2020-11 -->
      <g style="fill:#262626;" transform="translate(304.941653 313.147188)scale(0.1 -0.1)">
       <defs>
        <path d="M 2384 0 
L 1822 0 
L 1822 3584 
Q 1619 3391 1289 3197 
Q 959 3003 697 2906 
L 697 3450 
Q 1169 3672 1522 3987 
Q 1875 4303 2022 4600 
L 2384 4600 
L 2384 0 
z
" id="ArialMT-31" transform="scale(0.015625)"/>
       </defs>
       <use xlink:href="#ArialMT-32"/>
       <use x="55.615234" xlink:href="#ArialMT-30"/>
       <use x="111.230469" xlink:href="#ArialMT-32"/>
       <use x="166.845703" xlink:href="#ArialMT-30"/>
       <use x="222.460938" xlink:href="#ArialMT-2d"/>
       <use x="255.761719" xlink:href="#ArialMT-31"/>
       <use x="304.001953" xlink:href="#ArialMT-31"/>
      </g>
     </g>
    </g>
    <g id="xtick_6">
     <g id="line2d_6">
      <path clip-path="url(#pf0d5d8ada3)" d="M 393.087535 298.989375 
L 393.087535 21.789375 
" style="fill:none;stroke:#cccccc;stroke-linecap:round;stroke-width:0.8;"/>
     </g>
     <g id="text_6">
      <!-- 2021-01 -->
      <g style="fill:#262626;" transform="translate(374.739879 313.147188)scale(0.1 -0.1)">
       <use xlink:href="#ArialMT-32"/>
       <use x="55.615234" xlink:href="#ArialMT-30"/>
       <use x="111.230469" xlink:href="#ArialMT-32"/>
       <use x="166.845703" xlink:href="#ArialMT-31"/>
       <use x="222.460938" xlink:href="#ArialMT-2d"/>
       <use x="255.761719" xlink:href="#ArialMT-30"/>
       <use x="311.376953" xlink:href="#ArialMT-31"/>
      </g>
     </g>
    </g>
    <g id="xtick_7">
     <g id="line2d_7">
      <path clip-path="url(#pf0d5d8ada3)" d="M 460.953954 298.989375 
L 460.953954 21.789375 
" style="fill:none;stroke:#cccccc;stroke-linecap:round;stroke-width:0.8;"/>
     </g>
     <g id="text_7">
      <!-- 2021-03 -->
      <g style="fill:#262626;" transform="translate(442.606298 313.147188)scale(0.1 -0.1)">
       <use xlink:href="#ArialMT-32"/>
       <use x="55.615234" xlink:href="#ArialMT-30"/>
       <use x="111.230469" xlink:href="#ArialMT-32"/>
       <use x="166.845703" xlink:href="#ArialMT-31"/>
       <use x="222.460938" xlink:href="#ArialMT-2d"/>
       <use x="255.761719" xlink:href="#ArialMT-30"/>
       <use x="311.376953" xlink:href="#ArialMT-33"/>
      </g>
     </g>
    </g>
    <g id="xtick_8">
     <g id="line2d_8">
      <path clip-path="url(#pf0d5d8ada3)" d="M 531.12093 298.989375 
L 531.12093 21.789375 
" style="fill:none;stroke:#cccccc;stroke-linecap:round;stroke-width:0.8;"/>
     </g>
     <g id="text_8">
      <!-- 2021-05 -->
      <g style="fill:#262626;" transform="translate(512.773274 313.147188)scale(0.1 -0.1)">
       <use xlink:href="#ArialMT-32"/>
       <use x="55.615234" xlink:href="#ArialMT-30"/>
       <use x="111.230469" xlink:href="#ArialMT-32"/>
       <use x="166.845703" xlink:href="#ArialMT-31"/>
       <use x="222.460938" xlink:href="#ArialMT-2d"/>
       <use x="255.761719" xlink:href="#ArialMT-30"/>
       <use x="311.376953" xlink:href="#ArialMT-35"/>
      </g>
     </g>
    </g>
   </g>
   <g id="matplotlib.axis_2">
    <g id="ytick_1">
     <g id="line2d_9">
      <path clip-path="url(#pf0d5d8ada3)" d="M 36.44375 286.389375 
L 594.44375 286.389375 
" style="fill:none;stroke:#cccccc;stroke-linecap:round;stroke-width:0.8;"/>
     </g>
     <g id="text_9">
      <!-- 0 -->
      <g style="fill:#262626;" transform="translate(23.882813 289.968281)scale(0.1 -0.1)">
       <use xlink:href="#ArialMT-30"/>
      </g>
     </g>
    </g>
    <g id="ytick_2">
     <g id="line2d_10">
      <path clip-path="url(#pf0d5d8ada3)" d="M 36.44375 248.732471 
L 594.44375 248.732471 
" style="fill:none;stroke:#cccccc;stroke-linecap:round;stroke-width:0.8;"/>
     </g>
     <g id="text_10">
      <!-- 250 -->
      <g style="fill:#262626;" transform="translate(12.760938 252.311377)scale(0.1 -0.1)">
       <use xlink:href="#ArialMT-32"/>
       <use x="55.615234" xlink:href="#ArialMT-35"/>
       <use x="111.230469" xlink:href="#ArialMT-30"/>
      </g>
     </g>
    </g>
    <g id="ytick_3">
     <g id="line2d_11">
      <path clip-path="url(#pf0d5d8ada3)" d="M 36.44375 211.075567 
L 594.44375 211.075567 
" style="fill:none;stroke:#cccccc;stroke-linecap:round;stroke-width:0.8;"/>
     </g>
     <g id="text_11">
      <!-- 500 -->
      <g style="fill:#262626;" transform="translate(12.760938 214.654474)scale(0.1 -0.1)">
       <use xlink:href="#ArialMT-35"/>
       <use x="55.615234" xlink:href="#ArialMT-30"/>
       <use x="111.230469" xlink:href="#ArialMT-30"/>
      </g>
     </g>
    </g>
    <g id="ytick_4">
     <g id="line2d_12">
      <path clip-path="url(#pf0d5d8ada3)" d="M 36.44375 173.418664 
L 594.44375 173.418664 
" style="fill:none;stroke:#cccccc;stroke-linecap:round;stroke-width:0.8;"/>
     </g>
     <g id="text_12">
      <!-- 750 -->
      <g style="fill:#262626;" transform="translate(12.760938 176.99757)scale(0.1 -0.1)">
       <use xlink:href="#ArialMT-37"/>
       <use x="55.615234" xlink:href="#ArialMT-35"/>
       <use x="111.230469" xlink:href="#ArialMT-30"/>
      </g>
     </g>
    </g>
    <g id="ytick_5">
     <g id="line2d_13">
      <path clip-path="url(#pf0d5d8ada3)" d="M 36.44375 135.76176 
L 594.44375 135.76176 
" style="fill:none;stroke:#cccccc;stroke-linecap:round;stroke-width:0.8;"/>
     </g>
     <g id="text_13">
      <!-- 1000 -->
      <g style="fill:#262626;" transform="translate(7.2 139.340666)scale(0.1 -0.1)">
       <use xlink:href="#ArialMT-31"/>
       <use x="55.615234" xlink:href="#ArialMT-30"/>
       <use x="111.230469" xlink:href="#ArialMT-30"/>
       <use x="166.845703" xlink:href="#ArialMT-30"/>
      </g>
     </g>
    </g>
    <g id="ytick_6">
     <g id="line2d_14">
      <path clip-path="url(#pf0d5d8ada3)" d="M 36.44375 98.104856 
L 594.44375 98.104856 
" style="fill:none;stroke:#cccccc;stroke-linecap:round;stroke-width:0.8;"/>
     </g>
     <g id="text_14">
      <!-- 1250 -->
      <g style="fill:#262626;" transform="translate(7.2 101.683762)scale(0.1 -0.1)">
       <use xlink:href="#ArialMT-31"/>
       <use x="55.615234" xlink:href="#ArialMT-32"/>
       <use x="111.230469" xlink:href="#ArialMT-35"/>
       <use x="166.845703" xlink:href="#ArialMT-30"/>
      </g>
     </g>
    </g>
    <g id="ytick_7">
     <g id="line2d_15">
      <path clip-path="url(#pf0d5d8ada3)" d="M 36.44375 60.447952 
L 594.44375 60.447952 
" style="fill:none;stroke:#cccccc;stroke-linecap:round;stroke-width:0.8;"/>
     </g>
     <g id="text_15">
      <!-- 1500 -->
      <g style="fill:#262626;" transform="translate(7.2 64.026859)scale(0.1 -0.1)">
       <use xlink:href="#ArialMT-31"/>
       <use x="55.615234" xlink:href="#ArialMT-35"/>
       <use x="111.230469" xlink:href="#ArialMT-30"/>
       <use x="166.845703" xlink:href="#ArialMT-30"/>
      </g>
     </g>
    </g>
    <g id="ytick_8">
     <g id="line2d_16">
      <path clip-path="url(#pf0d5d8ada3)" d="M 36.44375 22.791049 
L 594.44375 22.791049 
" style="fill:none;stroke:#cccccc;stroke-linecap:round;stroke-width:0.8;"/>
     </g>
     <g id="text_16">
      <!-- 1750 -->
      <g style="fill:#262626;" transform="translate(7.2 26.369955)scale(0.1 -0.1)">
       <use xlink:href="#ArialMT-31"/>
       <use x="55.615234" xlink:href="#ArialMT-37"/>
       <use x="111.230469" xlink:href="#ArialMT-35"/>
       <use x="166.845703" xlink:href="#ArialMT-30"/>
      </g>
     </g>
    </g>
   </g>
   <g id="line2d_17">
    <path clip-path="url(#pf0d5d8ada3)" d="M 61.807386 286.389375 
L 75.610726 286.389375 
L 76.761004 286.238747 
L 77.911282 285.786865 
L 81.362117 285.786865 
L 82.512396 285.636237 
L 83.662674 284.883099 
L 85.963231 284.883099 
L 88.263787 284.280588 
L 89.414065 284.280588 
L 90.564344 284.129961 
L 92.8649 283.226195 
L 94.015179 283.075567 
L 95.165457 283.075567 
L 96.315735 282.92494 
L 97.466013 282.92494 
L 98.616292 282.623685 
L 99.76657 282.473057 
L 100.916848 282.021174 
L 102.067127 281.719919 
L 103.217405 281.117408 
L 105.517962 281.117408 
L 106.66824 279.76176 
L 107.818518 278.857994 
L 110.119075 278.556739 
L 111.269353 278.255484 
L 113.56991 277.954229 
L 115.870466 277.351718 
L 117.020744 277.20109 
L 118.171023 276.899835 
L 119.321301 276.146697 
L 120.471579 275.99607 
L 121.621858 275.99607 
L 122.772136 275.694814 
L 123.922414 275.544187 
L 126.222971 274.339166 
L 127.373249 274.037911 
L 128.523527 273.586028 
L 129.673806 273.284772 
L 130.824084 272.381007 
L 131.974362 271.778496 
L 133.124641 271.477241 
L 134.274919 270.724103 
L 135.425197 270.724103 
L 136.575475 270.27222 
L 137.725754 270.27222 
L 140.02631 268.314061 
L 141.176589 265.753392 
L 143.477145 264.849626 
L 144.627423 263.94586 
L 145.777702 263.644605 
L 146.92798 262.590212 
L 148.078258 262.288957 
L 149.228537 261.686446 
L 150.378815 261.385191 
L 151.529093 260.029542 
L 152.679372 259.276404 
L 154.979928 258.071383 
L 157.280485 256.565107 
L 158.430763 255.360086 
L 159.581041 254.456321 
L 160.73132 252.950044 
L 161.881598 252.950044 
L 164.182154 250.69063 
L 165.332433 248.732471 
L 166.482711 247.075567 
L 167.632989 244.063015 
L 168.783268 241.652973 
L 169.933546 241.652973 
L 171.083824 239.393559 
L 172.234103 237.736655 
L 173.384381 235.326613 
L 174.534659 234.724103 
L 175.684937 232.314061 
L 177.985494 232.314061 
L 179.135772 231.10904 
L 180.286051 230.807785 
L 182.586607 229.301509 
L 183.736885 229.150881 
L 186.037442 229.150881 
L 187.18772 228.247116 
L 188.337999 228.096488 
L 189.488277 227.493978 
L 190.638555 227.493978 
L 191.788833 226.740839 
L 192.939112 226.439584 
L 194.08939 226.439584 
L 195.239668 224.933308 
L 197.540225 224.933308 
L 198.690503 224.18017 
L 199.840782 222.372639 
L 202.141338 222.372639 
L 203.291616 222.222011 
L 204.441895 221.770128 
L 205.592173 221.01699 
L 207.89273 220.113224 
L 209.043008 219.058831 
L 210.193286 219.058831 
L 211.343564 218.606948 
L 212.493843 218.004438 
L 213.644121 217.100672 
L 214.794399 216.046279 
L 215.944678 215.443768 
L 218.245234 215.443768 
L 219.395513 214.540003 
L 220.545791 213.334982 
L 221.696069 212.732471 
L 222.846347 212.431216 
L 223.996626 211.678078 
L 225.146904 211.678078 
L 227.447461 211.376823 
L 228.597739 210.623685 
L 229.748017 208.514898 
L 230.898295 207.76176 
L 232.048574 207.159249 
L 234.34913 207.159249 
L 235.499409 206.406111 
L 236.649687 206.104856 
L 237.799965 205.050463 
L 240.100522 204.749208 
L 242.401078 204.749208 
L 243.551357 204.146697 
L 244.701635 203.393559 
L 245.851913 203.092304 
L 247.002192 202.489793 
L 248.15247 202.037911 
L 250.453026 202.037911 
L 252.753583 200.83289 
L 253.903861 200.381007 
L 256.204418 200.079752 
L 257.354696 199.778496 
L 259.655253 199.477241 
L 260.805531 199.175986 
L 261.955809 198.422848 
L 263.106088 198.422848 
L 264.256366 198.121593 
L 266.556923 198.121593 
L 267.707201 197.970965 
L 268.857479 197.519082 
L 270.007757 196.464689 
L 271.158036 194.657157 
L 272.308314 194.355902 
L 275.759149 194.355902 
L 276.909427 193.301509 
L 280.360262 192.849626 
L 282.660819 192.849626 
L 283.811097 192.548371 
L 284.961375 191.644605 
L 286.111654 191.34335 
L 287.261932 190.590212 
L 290.712767 190.590212 
L 291.863045 190.439584 
L 294.163602 189.837074 
L 295.31388 189.837074 
L 296.464158 189.234563 
L 299.914993 189.234563 
L 301.065271 188.632053 
L 303.365828 187.125777 
L 304.516106 186.673894 
L 306.816663 186.673894 
L 307.966941 186.523266 
L 309.117219 185.770128 
L 312.568054 184.866362 
L 316.018889 184.866362 
L 318.319446 184.565107 
L 319.469724 184.113224 
L 320.620002 183.811969 
L 324.070837 183.360086 
L 325.221115 182.606948 
L 326.371394 182.456321 
L 327.521672 181.85381 
L 328.67195 181.401927 
L 330.972507 181.401927 
L 332.122785 181.2513 
L 333.273064 180.498162 
L 335.57362 178.238747 
L 336.723898 177.786865 
L 339.024455 177.786865 
L 340.174733 177.184354 
L 341.325012 174.92494 
L 343.625568 174.623685 
L 347.076403 174.623685 
L 348.226681 172.665526 
L 349.37696 171.76176 
L 350.527238 171.159249 
L 351.677516 170.104856 
L 352.827795 169.652973 
L 353.978073 169.502346 
L 355.128351 169.502346 
L 356.278629 168.59858 
L 357.428908 167.242931 
L 358.579186 166.489793 
L 359.729464 165.887283 
L 360.879743 164.983517 
L 363.180299 164.983517 
L 364.330577 163.778496 
L 365.480856 162.874731 
L 366.631134 162.121593 
L 368.931691 161.217827 
L 370.081969 160.916572 
L 371.232247 160.765944 
L 373.532804 158.355902 
L 374.683082 157.452137 
L 375.83336 157.301509 
L 376.983639 156.698998 
L 378.133917 156.548371 
L 379.284195 156.548371 
L 380.434474 155.795233 
L 381.584752 155.644605 
L 382.73503 154.891467 
L 387.336143 154.891467 
L 388.486422 154.138329 
L 389.6367 152.632053 
L 390.786978 149.468873 
L 395.388091 149.468873 
L 397.688648 148.565107 
L 398.838926 147.058831 
L 399.989205 146.305693 
L 401.139483 145.703183 
L 403.440039 145.703183 
L 404.590318 144.196906 
L 405.740596 144.046279 
L 406.890874 142.389375 
L 408.041153 141.937492 
L 409.191431 140.883099 
L 411.491987 140.883099 
L 412.642266 140.129961 
L 414.942822 138.021174 
L 416.093101 134.255484 
L 418.393657 133.652973 
L 421.844492 133.652973 
L 422.99477 132.749208 
L 424.145049 132.146697 
L 425.295327 131.845442 
L 426.445605 131.694814 
L 427.595884 131.694814 
L 429.89644 131.092304 
L 432.196997 129.284772 
L 433.347275 128.983517 
L 435.647832 128.983517 
L 436.79811 128.079752 
L 437.948388 127.326613 
L 439.098667 126.724103 
L 440.248945 126.27222 
L 442.549501 125.970965 
L 443.69978 125.970965 
L 444.850058 125.368454 
L 446.000336 125.067199 
L 447.150615 124.916572 
L 448.300893 124.615316 
L 451.751728 124.615316 
L 452.902006 124.012806 
L 454.052284 123.560923 
L 455.202563 122.50653 
L 456.352841 121.904019 
L 457.503119 121.150881 
L 458.653397 120.849626 
L 459.803676 120.849626 
L 460.953954 120.698998 
L 462.104232 120.397743 
L 463.254511 119.192722 
L 464.404789 118.740839 
L 465.555067 118.439584 
L 467.855624 118.439584 
L 469.005902 117.686446 
L 470.15618 117.385191 
L 471.306459 116.029542 
L 472.456737 114.975149 
L 473.607015 114.673894 
L 475.907572 114.673894 
L 477.05785 114.372639 
L 478.208128 113.619501 
L 479.358407 113.01699 
L 480.508685 112.113224 
L 481.658963 111.058831 
L 482.809242 110.908203 
L 483.95952 110.908203 
L 486.260077 108.498162 
L 487.410355 107.895651 
L 488.560633 105.937492 
L 489.710911 105.636237 
L 490.86119 104.732471 
L 492.011468 104.581844 
L 494.312025 102.171802 
L 495.462303 100.665526 
L 496.612581 100.063015 
L 497.762859 99.008622 
L 498.913138 98.406111 
L 500.063416 98.406111 
L 501.213694 97.20109 
L 502.363973 94.941676 
L 503.514251 93.887283 
L 504.664529 90.573475 
L 505.814808 86.50653 
L 508.115364 85.904019 
L 509.265642 82.439584 
L 510.415921 81.083936 
L 511.566199 81.083936 
L 512.716477 80.18017 
L 513.866756 78.975149 
L 515.017034 78.975149 
L 516.167312 77.920756 
L 517.31759 74.908203 
L 518.467869 74.305693 
L 519.618147 74.004438 
L 521.918704 72.498162 
L 523.068982 71.594396 
L 524.21926 70.991885 
L 525.369538 69.334982 
L 526.519817 68.581844 
L 527.670095 66.473057 
L 528.820373 65.569291 
L 532.271208 64.213643 
L 533.421487 62.857994 
L 534.571765 61.20109 
L 535.722043 60.899835 
L 536.872321 59.845442 
L 538.0226 57.284772 
L 539.172878 56.83289 
L 540.323156 56.531634 
L 541.473435 55.175986 
L 542.623713 54.422848 
L 543.773991 53.368454 
L 544.924269 49.452137 
L 546.074548 48.849626 
L 548.375104 48.849626 
L 550.675661 47.042095 
L 551.825939 45.234563 
L 554.126496 43.427032 
L 555.276774 43.276404 
L 556.427052 42.975149 
L 557.577331 42.071383 
L 559.877887 39.811969 
L 561.028166 38.456321 
L 562.178444 37.85381 
L 563.328722 37.552555 
L 564.479 36.950044 
L 566.779557 34.991885 
L 567.929835 34.389375 
L 569.080114 34.389375 
L 569.080114 34.389375 
" style="fill:none;stroke:#1f77b4;stroke-linecap:round;stroke-width:1.5;"/>
   </g>
   <g id="patch_3">
    <path d="M 36.44375 298.989375 
L 36.44375 21.789375 
" style="fill:none;stroke:#cccccc;stroke-linecap:square;stroke-linejoin:miter;stroke-width:0.8;"/>
   </g>
   <g id="patch_4">
    <path d="M 594.44375 298.989375 
L 594.44375 21.789375 
" style="fill:none;stroke:#cccccc;stroke-linecap:square;stroke-linejoin:miter;stroke-width:0.8;"/>
   </g>
   <g id="patch_5">
    <path d="M 36.44375 298.989375 
L 594.44375 298.989375 
" style="fill:none;stroke:#cccccc;stroke-linecap:square;stroke-linejoin:miter;stroke-width:0.8;"/>
   </g>
   <g id="patch_6">
    <path d="M 36.44375 21.789375 
L 594.44375 21.789375 
" style="fill:none;stroke:#cccccc;stroke-linecap:square;stroke-linejoin:miter;stroke-width:0.8;"/>
   </g>
   <g id="text_17">
    <!-- Óbitos -->
    <g style="fill:#262626;" transform="translate(298.10375 15.789375)scale(0.12 -0.12)">
     <defs>
      <path d="M 309 2231 
Q 309 3372 921 4017 
Q 1534 4663 2503 4663 
Q 3138 4663 3647 4359 
Q 4156 4056 4423 3514 
Q 4691 2972 4691 2284 
Q 4691 1588 4409 1038 
Q 4128 488 3612 205 
Q 3097 -78 2500 -78 
Q 1853 -78 1343 234 
Q 834 547 571 1087 
Q 309 1628 309 2231 
z
M 934 2222 
Q 934 1394 1379 917 
Q 1825 441 2497 441 
Q 3181 441 3623 922 
Q 4066 1403 4066 2288 
Q 4066 2847 3877 3264 
Q 3688 3681 3323 3911 
Q 2959 4141 2506 4141 
Q 1863 4141 1398 3698 
Q 934 3256 934 2222 
z
M 2118 4883 
L 2533 5758 
L 3271 5758 
L 2583 4883 
L 2118 4883 
z
" id="ArialMT-d3" transform="scale(0.015625)"/>
      <path d="M 941 0 
L 419 0 
L 419 4581 
L 981 4581 
L 981 2947 
Q 1338 3394 1891 3394 
Q 2197 3394 2470 3270 
Q 2744 3147 2920 2923 
Q 3097 2700 3197 2384 
Q 3297 2069 3297 1709 
Q 3297 856 2875 390 
Q 2453 -75 1863 -75 
Q 1275 -75 941 416 
L 941 0 
z
M 934 1684 
Q 934 1088 1097 822 
Q 1363 388 1816 388 
Q 2184 388 2453 708 
Q 2722 1028 2722 1663 
Q 2722 2313 2464 2622 
Q 2206 2931 1841 2931 
Q 1472 2931 1203 2611 
Q 934 2291 934 1684 
z
" id="ArialMT-62" transform="scale(0.015625)"/>
      <path d="M 425 3934 
L 425 4581 
L 988 4581 
L 988 3934 
L 425 3934 
z
M 425 0 
L 425 3319 
L 988 3319 
L 988 0 
L 425 0 
z
" id="ArialMT-69" transform="scale(0.015625)"/>
      <path d="M 1650 503 
L 1731 6 
Q 1494 -44 1306 -44 
Q 1000 -44 831 53 
Q 663 150 594 308 
Q 525 466 525 972 
L 525 2881 
L 113 2881 
L 113 3319 
L 525 3319 
L 525 4141 
L 1084 4478 
L 1084 3319 
L 1650 3319 
L 1650 2881 
L 1084 2881 
L 1084 941 
Q 1084 700 1114 631 
Q 1144 563 1211 522 
Q 1278 481 1403 481 
Q 1497 481 1650 503 
z
" id="ArialMT-74" transform="scale(0.015625)"/>
      <path d="M 213 1659 
Q 213 2581 725 3025 
Q 1153 3394 1769 3394 
Q 2453 3394 2887 2945 
Q 3322 2497 3322 1706 
Q 3322 1066 3130 698 
Q 2938 331 2570 128 
Q 2203 -75 1769 -75 
Q 1072 -75 642 372 
Q 213 819 213 1659 
z
M 791 1659 
Q 791 1022 1069 705 
Q 1347 388 1769 388 
Q 2188 388 2466 706 
Q 2744 1025 2744 1678 
Q 2744 2294 2464 2611 
Q 2184 2928 1769 2928 
Q 1347 2928 1069 2612 
Q 791 2297 791 1659 
z
" id="ArialMT-6f" transform="scale(0.015625)"/>
      <path d="M 197 991 
L 753 1078 
Q 800 744 1014 566 
Q 1228 388 1613 388 
Q 2000 388 2187 545 
Q 2375 703 2375 916 
Q 2375 1106 2209 1216 
Q 2094 1291 1634 1406 
Q 1016 1563 777 1677 
Q 538 1791 414 1992 
Q 291 2194 291 2438 
Q 291 2659 392 2848 
Q 494 3038 669 3163 
Q 800 3259 1026 3326 
Q 1253 3394 1513 3394 
Q 1903 3394 2198 3281 
Q 2494 3169 2634 2976 
Q 2775 2784 2828 2463 
L 2278 2388 
Q 2241 2644 2061 2787 
Q 1881 2931 1553 2931 
Q 1166 2931 1000 2803 
Q 834 2675 834 2503 
Q 834 2394 903 2306 
Q 972 2216 1119 2156 
Q 1203 2125 1616 2013 
Q 2213 1853 2448 1751 
Q 2684 1650 2818 1456 
Q 2953 1263 2953 975 
Q 2953 694 2789 445 
Q 2625 197 2315 61 
Q 2006 -75 1616 -75 
Q 969 -75 630 194 
Q 291 463 197 991 
z
" id="ArialMT-73" transform="scale(0.015625)"/>
     </defs>
     <use xlink:href="#ArialMT-d3"/>
     <use x="77.783203" xlink:href="#ArialMT-62"/>
     <use x="133.398438" xlink:href="#ArialMT-69"/>
     <use x="155.615234" xlink:href="#ArialMT-74"/>
     <use x="183.398438" xlink:href="#ArialMT-6f"/>
     <use x="239.013672" xlink:href="#ArialMT-73"/>
    </g>
   </g>
  </g>
 </g>
 <defs>
  <clipPath id="pf0d5d8ada3">
   <rect height="277.2" width="558" x="36.44375" y="21.789375"/>
  </clipPath>
 </defs>
</svg>
