<?xml version="1.0" encoding="utf-8" standalone="no"?>
<!DOCTYPE svg PUBLIC "-//W3C//DTD SVG 1.1//EN"
  "http://www.w3.org/Graphics/SVG/1.1/DTD/svg11.dtd">
<svg height="316.934687pt" version="1.1" viewBox="0 0 601.64375 316.934687" width="601.64375pt" xmlns="http://www.w3.org/2000/svg" xmlns:xlink="http://www.w3.org/1999/xlink">
 <metadata>
  <rdf:RDF xmlns:cc="http://creativecommons.org/ns#" xmlns:dc="http://purl.org/dc/elements/1.1/" xmlns:rdf="http://www.w3.org/1999/02/22-rdf-syntax-ns#">
   <cc:Work>
    <dc:type rdf:resource="http://purl.org/dc/dcmitype/StillImage"/>
    <dc:date>2021-04-11T18:24:04.706606</dc:date>
    <dc:format>image/svg+xml</dc:format>
    <dc:creator>
     <cc:Agent>
      <dc:title>Matplotlib v3.4.1, https://matplotlib.org/</dc:title>
     </cc:Agent>
    </dc:creator>
   </cc:Work>
  </rdf:RDF>
 </metadata>
 <defs>
  <style type="text/css">*{stroke-linecap:butt;stroke-linejoin:round;}</style>
 </defs>
 <g id="figure_1">
  <g id="patch_1">
   <path d="M 0 316.934687 
L 601.64375 316.934687 
L 601.64375 0 
L 0 0 
z
" style="fill:#ffffff;"/>
  </g>
  <g id="axes_1">
   <g id="patch_2">
    <path d="M 36.44375 293.589375 
L 594.44375 293.589375 
L 594.44375 21.789375 
L 36.44375 21.789375 
z
" style="fill:#ffffff;"/>
   </g>
   <g id="matplotlib.axis_1">
    <g id="xtick_1">
     <g id="line2d_1">
      <path clip-path="url(#p203e1707aa)" d="M 38.274116 293.589375 
L 38.274116 21.789375 
" style="fill:none;stroke:#cccccc;stroke-linecap:round;stroke-width:0.8;"/>
     </g>
     <g id="text_1">
      <!-- 2020-03 -->
      <g style="fill:#262626;" transform="translate(19.926459 307.747187)scale(0.1 -0.1)">
       <defs>
        <path d="M 3222 541 
L 3222 0 
L 194 0 
Q 188 203 259 391 
Q 375 700 629 1000 
Q 884 1300 1366 1694 
Q 2113 2306 2375 2664 
Q 2638 3022 2638 3341 
Q 2638 3675 2398 3904 
Q 2159 4134 1775 4134 
Q 1369 4134 1125 3890 
Q 881 3647 878 3216 
L 300 3275 
Q 359 3922 746 4261 
Q 1134 4600 1788 4600 
Q 2447 4600 2831 4234 
Q 3216 3869 3216 3328 
Q 3216 3053 3103 2787 
Q 2991 2522 2730 2228 
Q 2469 1934 1863 1422 
Q 1356 997 1212 845 
Q 1069 694 975 541 
L 3222 541 
z
" id="ArialMT-32" transform="scale(0.015625)"/>
        <path d="M 266 2259 
Q 266 3072 433 3567 
Q 600 4063 929 4331 
Q 1259 4600 1759 4600 
Q 2128 4600 2406 4451 
Q 2684 4303 2865 4023 
Q 3047 3744 3150 3342 
Q 3253 2941 3253 2259 
Q 3253 1453 3087 958 
Q 2922 463 2592 192 
Q 2263 -78 1759 -78 
Q 1097 -78 719 397 
Q 266 969 266 2259 
z
M 844 2259 
Q 844 1131 1108 757 
Q 1372 384 1759 384 
Q 2147 384 2411 759 
Q 2675 1134 2675 2259 
Q 2675 3391 2411 3762 
Q 2147 4134 1753 4134 
Q 1366 4134 1134 3806 
Q 844 3388 844 2259 
z
" id="ArialMT-30" transform="scale(0.015625)"/>
        <path d="M 203 1375 
L 203 1941 
L 1931 1941 
L 1931 1375 
L 203 1375 
z
" id="ArialMT-2d" transform="scale(0.015625)"/>
        <path d="M 269 1209 
L 831 1284 
Q 928 806 1161 595 
Q 1394 384 1728 384 
Q 2125 384 2398 659 
Q 2672 934 2672 1341 
Q 2672 1728 2419 1979 
Q 2166 2231 1775 2231 
Q 1616 2231 1378 2169 
L 1441 2663 
Q 1497 2656 1531 2656 
Q 1891 2656 2178 2843 
Q 2466 3031 2466 3422 
Q 2466 3731 2256 3934 
Q 2047 4138 1716 4138 
Q 1388 4138 1169 3931 
Q 950 3725 888 3313 
L 325 3413 
Q 428 3978 793 4289 
Q 1159 4600 1703 4600 
Q 2078 4600 2393 4439 
Q 2709 4278 2876 4000 
Q 3044 3722 3044 3409 
Q 3044 3113 2884 2869 
Q 2725 2625 2413 2481 
Q 2819 2388 3044 2092 
Q 3269 1797 3269 1353 
Q 3269 753 2831 336 
Q 2394 -81 1725 -81 
Q 1122 -81 723 278 
Q 325 638 269 1209 
z
" id="ArialMT-33" transform="scale(0.015625)"/>
       </defs>
       <use xlink:href="#ArialMT-32"/>
       <use x="55.615234" xlink:href="#ArialMT-30"/>
       <use x="111.230469" xlink:href="#ArialMT-32"/>
       <use x="166.845703" xlink:href="#ArialMT-30"/>
       <use x="222.460938" xlink:href="#ArialMT-2d"/>
       <use x="255.761719" xlink:href="#ArialMT-30"/>
       <use x="311.376953" xlink:href="#ArialMT-33"/>
      </g>
     </g>
    </g>
    <g id="xtick_2">
     <g id="line2d_2">
      <path clip-path="url(#p203e1707aa)" d="M 118.025756 293.589375 
L 118.025756 21.789375 
" style="fill:none;stroke:#cccccc;stroke-linecap:round;stroke-width:0.8;"/>
     </g>
     <g id="text_2">
      <!-- 2020-05 -->
      <g style="fill:#262626;" transform="translate(99.678099 307.747187)scale(0.1 -0.1)">
       <defs>
        <path d="M 266 1200 
L 856 1250 
Q 922 819 1161 601 
Q 1400 384 1738 384 
Q 2144 384 2425 690 
Q 2706 997 2706 1503 
Q 2706 1984 2436 2262 
Q 2166 2541 1728 2541 
Q 1456 2541 1237 2417 
Q 1019 2294 894 2097 
L 366 2166 
L 809 4519 
L 3088 4519 
L 3088 3981 
L 1259 3981 
L 1013 2750 
Q 1425 3038 1878 3038 
Q 2478 3038 2890 2622 
Q 3303 2206 3303 1553 
Q 3303 931 2941 478 
Q 2500 -78 1738 -78 
Q 1113 -78 717 272 
Q 322 622 266 1200 
z
" id="ArialMT-35" transform="scale(0.015625)"/>
       </defs>
       <use xlink:href="#ArialMT-32"/>
       <use x="55.615234" xlink:href="#ArialMT-30"/>
       <use x="111.230469" xlink:href="#ArialMT-32"/>
       <use x="166.845703" xlink:href="#ArialMT-30"/>
       <use x="222.460938" xlink:href="#ArialMT-2d"/>
       <use x="255.761719" xlink:href="#ArialMT-30"/>
       <use x="311.376953" xlink:href="#ArialMT-35"/>
      </g>
     </g>
    </g>
    <g id="xtick_3">
     <g id="line2d_3">
      <path clip-path="url(#p203e1707aa)" d="M 197.777396 293.589375 
L 197.777396 21.789375 
" style="fill:none;stroke:#cccccc;stroke-linecap:round;stroke-width:0.8;"/>
     </g>
     <g id="text_3">
      <!-- 2020-07 -->
      <g style="fill:#262626;" transform="translate(179.429739 307.747187)scale(0.1 -0.1)">
       <defs>
        <path d="M 303 3981 
L 303 4522 
L 3269 4522 
L 3269 4084 
Q 2831 3619 2401 2847 
Q 1972 2075 1738 1259 
Q 1569 684 1522 0 
L 944 0 
Q 953 541 1156 1306 
Q 1359 2072 1739 2783 
Q 2119 3494 2547 3981 
L 303 3981 
z
" id="ArialMT-37" transform="scale(0.015625)"/>
       </defs>
       <use xlink:href="#ArialMT-32"/>
       <use x="55.615234" xlink:href="#ArialMT-30"/>
       <use x="111.230469" xlink:href="#ArialMT-32"/>
       <use x="166.845703" xlink:href="#ArialMT-30"/>
       <use x="222.460938" xlink:href="#ArialMT-2d"/>
       <use x="255.761719" xlink:href="#ArialMT-30"/>
       <use x="311.376953" xlink:href="#ArialMT-37"/>
      </g>
     </g>
    </g>
    <g id="xtick_4">
     <g id="line2d_4">
      <path clip-path="url(#p203e1707aa)" d="M 278.83644 293.589375 
L 278.83644 21.789375 
" style="fill:none;stroke:#cccccc;stroke-linecap:round;stroke-width:0.8;"/>
     </g>
     <g id="text_4">
      <!-- 2020-09 -->
      <g style="fill:#262626;" transform="translate(260.488784 307.747187)scale(0.1 -0.1)">
       <defs>
        <path d="M 350 1059 
L 891 1109 
Q 959 728 1153 556 
Q 1347 384 1650 384 
Q 1909 384 2104 503 
Q 2300 622 2425 820 
Q 2550 1019 2634 1356 
Q 2719 1694 2719 2044 
Q 2719 2081 2716 2156 
Q 2547 1888 2255 1720 
Q 1963 1553 1622 1553 
Q 1053 1553 659 1965 
Q 266 2378 266 3053 
Q 266 3750 677 4175 
Q 1088 4600 1706 4600 
Q 2153 4600 2523 4359 
Q 2894 4119 3086 3673 
Q 3278 3228 3278 2384 
Q 3278 1506 3087 986 
Q 2897 466 2520 194 
Q 2144 -78 1638 -78 
Q 1100 -78 759 220 
Q 419 519 350 1059 
z
M 2653 3081 
Q 2653 3566 2395 3850 
Q 2138 4134 1775 4134 
Q 1400 4134 1122 3828 
Q 844 3522 844 3034 
Q 844 2597 1108 2323 
Q 1372 2050 1759 2050 
Q 2150 2050 2401 2323 
Q 2653 2597 2653 3081 
z
" id="ArialMT-39" transform="scale(0.015625)"/>
       </defs>
       <use xlink:href="#ArialMT-32"/>
       <use x="55.615234" xlink:href="#ArialMT-30"/>
       <use x="111.230469" xlink:href="#ArialMT-32"/>
       <use x="166.845703" xlink:href="#ArialMT-30"/>
       <use x="222.460938" xlink:href="#ArialMT-2d"/>
       <use x="255.761719" xlink:href="#ArialMT-30"/>
       <use x="311.376953" xlink:href="#ArialMT-39"/>
      </g>
     </g>
    </g>
    <g id="xtick_5">
     <g id="line2d_5">
      <path clip-path="url(#p203e1707aa)" d="M 358.58808 293.589375 
L 358.58808 21.789375 
" style="fill:none;stroke:#cccccc;stroke-linecap:round;stroke-width:0.8;"/>
     </g>
     <g id="text_5">
      <!-- 2020-11 -->
      <g style="fill:#262626;" transform="translate(340.609174 307.747187)scale(0.1 -0.1)">
       <defs>
        <path d="M 2384 0 
L 1822 0 
L 1822 3584 
Q 1619 3391 1289 3197 
Q 959 3003 697 2906 
L 697 3450 
Q 1169 3672 1522 3987 
Q 1875 4303 2022 4600 
L 2384 4600 
L 2384 0 
z
" id="ArialMT-31" transform="scale(0.015625)"/>
       </defs>
       <use xlink:href="#ArialMT-32"/>
       <use x="55.615234" xlink:href="#ArialMT-30"/>
       <use x="111.230469" xlink:href="#ArialMT-32"/>
       <use x="166.845703" xlink:href="#ArialMT-30"/>
       <use x="222.460938" xlink:href="#ArialMT-2d"/>
       <use x="255.761719" xlink:href="#ArialMT-31"/>
       <use x="304.001953" xlink:href="#ArialMT-31"/>
      </g>
     </g>
    </g>
    <g id="xtick_6">
     <g id="line2d_6">
      <path clip-path="url(#p203e1707aa)" d="M 438.33972 293.589375 
L 438.33972 21.789375 
" style="fill:none;stroke:#cccccc;stroke-linecap:round;stroke-width:0.8;"/>
     </g>
     <g id="text_6">
      <!-- 2021-01 -->
      <g style="fill:#262626;" transform="translate(419.992064 307.747187)scale(0.1 -0.1)">
       <use xlink:href="#ArialMT-32"/>
       <use x="55.615234" xlink:href="#ArialMT-30"/>
       <use x="111.230469" xlink:href="#ArialMT-32"/>
       <use x="166.845703" xlink:href="#ArialMT-31"/>
       <use x="222.460938" xlink:href="#ArialMT-2d"/>
       <use x="255.761719" xlink:href="#ArialMT-30"/>
       <use x="311.376953" xlink:href="#ArialMT-31"/>
      </g>
     </g>
    </g>
    <g id="xtick_7">
     <g id="line2d_7">
      <path clip-path="url(#p203e1707aa)" d="M 515.476552 293.589375 
L 515.476552 21.789375 
" style="fill:none;stroke:#cccccc;stroke-linecap:round;stroke-width:0.8;"/>
     </g>
     <g id="text_7">
      <!-- 2021-03 -->
      <g style="fill:#262626;" transform="translate(497.128896 307.747187)scale(0.1 -0.1)">
       <use xlink:href="#ArialMT-32"/>
       <use x="55.615234" xlink:href="#ArialMT-30"/>
       <use x="111.230469" xlink:href="#ArialMT-32"/>
       <use x="166.845703" xlink:href="#ArialMT-31"/>
       <use x="222.460938" xlink:href="#ArialMT-2d"/>
       <use x="255.761719" xlink:href="#ArialMT-30"/>
       <use x="311.376953" xlink:href="#ArialMT-33"/>
      </g>
     </g>
    </g>
   </g>
   <g id="matplotlib.axis_2">
    <g id="ytick_1">
     <g id="line2d_8">
      <path clip-path="url(#p203e1707aa)" d="M 36.44375 281.23483 
L 594.44375 281.23483 
" style="fill:none;stroke:#cccccc;stroke-linecap:round;stroke-width:0.8;"/>
     </g>
     <g id="text_8">
      <!-- 0 -->
      <g style="fill:#262626;" transform="translate(23.882813 284.813736)scale(0.1 -0.1)">
       <use xlink:href="#ArialMT-30"/>
      </g>
     </g>
    </g>
    <g id="ytick_2">
     <g id="line2d_9">
      <path clip-path="url(#p203e1707aa)" d="M 36.44375 244.106218 
L 594.44375 244.106218 
" style="fill:none;stroke:#cccccc;stroke-linecap:round;stroke-width:0.8;"/>
     </g>
     <g id="text_9">
      <!-- 200 -->
      <g style="fill:#262626;" transform="translate(12.760938 247.685124)scale(0.1 -0.1)">
       <use xlink:href="#ArialMT-32"/>
       <use x="55.615234" xlink:href="#ArialMT-30"/>
       <use x="111.230469" xlink:href="#ArialMT-30"/>
      </g>
     </g>
    </g>
    <g id="ytick_3">
     <g id="line2d_10">
      <path clip-path="url(#p203e1707aa)" d="M 36.44375 206.977607 
L 594.44375 206.977607 
" style="fill:none;stroke:#cccccc;stroke-linecap:round;stroke-width:0.8;"/>
     </g>
     <g id="text_10">
      <!-- 400 -->
      <g style="fill:#262626;" transform="translate(12.760938 210.556513)scale(0.1 -0.1)">
       <defs>
        <path d="M 2069 0 
L 2069 1097 
L 81 1097 
L 81 1613 
L 2172 4581 
L 2631 4581 
L 2631 1613 
L 3250 1613 
L 3250 1097 
L 2631 1097 
L 2631 0 
L 2069 0 
z
M 2069 1613 
L 2069 3678 
L 634 1613 
L 2069 1613 
z
" id="ArialMT-34" transform="scale(0.015625)"/>
       </defs>
       <use xlink:href="#ArialMT-34"/>
       <use x="55.615234" xlink:href="#ArialMT-30"/>
       <use x="111.230469" xlink:href="#ArialMT-30"/>
      </g>
     </g>
    </g>
    <g id="ytick_4">
     <g id="line2d_11">
      <path clip-path="url(#p203e1707aa)" d="M 36.44375 169.848995 
L 594.44375 169.848995 
" style="fill:none;stroke:#cccccc;stroke-linecap:round;stroke-width:0.8;"/>
     </g>
     <g id="text_11">
      <!-- 600 -->
      <g style="fill:#262626;" transform="translate(12.760938 173.427901)scale(0.1 -0.1)">
       <defs>
        <path d="M 3184 3459 
L 2625 3416 
Q 2550 3747 2413 3897 
Q 2184 4138 1850 4138 
Q 1581 4138 1378 3988 
Q 1113 3794 959 3422 
Q 806 3050 800 2363 
Q 1003 2672 1297 2822 
Q 1591 2972 1913 2972 
Q 2475 2972 2870 2558 
Q 3266 2144 3266 1488 
Q 3266 1056 3080 686 
Q 2894 316 2569 119 
Q 2244 -78 1831 -78 
Q 1128 -78 684 439 
Q 241 956 241 2144 
Q 241 3472 731 4075 
Q 1159 4600 1884 4600 
Q 2425 4600 2770 4297 
Q 3116 3994 3184 3459 
z
M 888 1484 
Q 888 1194 1011 928 
Q 1134 663 1356 523 
Q 1578 384 1822 384 
Q 2178 384 2434 671 
Q 2691 959 2691 1453 
Q 2691 1928 2437 2201 
Q 2184 2475 1800 2475 
Q 1419 2475 1153 2201 
Q 888 1928 888 1484 
z
" id="ArialMT-36" transform="scale(0.015625)"/>
       </defs>
       <use xlink:href="#ArialMT-36"/>
       <use x="55.615234" xlink:href="#ArialMT-30"/>
       <use x="111.230469" xlink:href="#ArialMT-30"/>
      </g>
     </g>
    </g>
    <g id="ytick_5">
     <g id="line2d_12">
      <path clip-path="url(#p203e1707aa)" d="M 36.44375 132.720384 
L 594.44375 132.720384 
" style="fill:none;stroke:#cccccc;stroke-linecap:round;stroke-width:0.8;"/>
     </g>
     <g id="text_12">
      <!-- 800 -->
      <g style="fill:#262626;" transform="translate(12.760938 136.29929)scale(0.1 -0.1)">
       <defs>
        <path d="M 1131 2484 
Q 781 2613 612 2850 
Q 444 3088 444 3419 
Q 444 3919 803 4259 
Q 1163 4600 1759 4600 
Q 2359 4600 2725 4251 
Q 3091 3903 3091 3403 
Q 3091 3084 2923 2848 
Q 2756 2613 2416 2484 
Q 2838 2347 3058 2040 
Q 3278 1734 3278 1309 
Q 3278 722 2862 322 
Q 2447 -78 1769 -78 
Q 1091 -78 675 323 
Q 259 725 259 1325 
Q 259 1772 486 2073 
Q 713 2375 1131 2484 
z
M 1019 3438 
Q 1019 3113 1228 2906 
Q 1438 2700 1772 2700 
Q 2097 2700 2305 2904 
Q 2513 3109 2513 3406 
Q 2513 3716 2298 3927 
Q 2084 4138 1766 4138 
Q 1444 4138 1231 3931 
Q 1019 3725 1019 3438 
z
M 838 1322 
Q 838 1081 952 856 
Q 1066 631 1291 507 
Q 1516 384 1775 384 
Q 2178 384 2440 643 
Q 2703 903 2703 1303 
Q 2703 1709 2433 1975 
Q 2163 2241 1756 2241 
Q 1359 2241 1098 1978 
Q 838 1716 838 1322 
z
" id="ArialMT-38" transform="scale(0.015625)"/>
       </defs>
       <use xlink:href="#ArialMT-38"/>
       <use x="55.615234" xlink:href="#ArialMT-30"/>
       <use x="111.230469" xlink:href="#ArialMT-30"/>
      </g>
     </g>
    </g>
    <g id="ytick_6">
     <g id="line2d_13">
      <path clip-path="url(#p203e1707aa)" d="M 36.44375 95.591772 
L 594.44375 95.591772 
" style="fill:none;stroke:#cccccc;stroke-linecap:round;stroke-width:0.8;"/>
     </g>
     <g id="text_13">
      <!-- 1000 -->
      <g style="fill:#262626;" transform="translate(7.2 99.170679)scale(0.1 -0.1)">
       <use xlink:href="#ArialMT-31"/>
       <use x="55.615234" xlink:href="#ArialMT-30"/>
       <use x="111.230469" xlink:href="#ArialMT-30"/>
       <use x="166.845703" xlink:href="#ArialMT-30"/>
      </g>
     </g>
    </g>
    <g id="ytick_7">
     <g id="line2d_14">
      <path clip-path="url(#p203e1707aa)" d="M 36.44375 58.463161 
L 594.44375 58.463161 
" style="fill:none;stroke:#cccccc;stroke-linecap:round;stroke-width:0.8;"/>
     </g>
     <g id="text_14">
      <!-- 1200 -->
      <g style="fill:#262626;" transform="translate(7.2 62.042067)scale(0.1 -0.1)">
       <use xlink:href="#ArialMT-31"/>
       <use x="55.615234" xlink:href="#ArialMT-32"/>
       <use x="111.230469" xlink:href="#ArialMT-30"/>
       <use x="166.845703" xlink:href="#ArialMT-30"/>
      </g>
     </g>
    </g>
   </g>
   <g id="line2d_15">
    <path clip-path="url(#p203e1707aa)" d="M 61.807386 281.23483 
L 77.496234 281.23483 
L 78.803638 281.049186 
L 80.111041 280.492257 
L 84.033253 280.492257 
L 85.340657 280.306614 
L 86.648061 279.378399 
L 89.262869 279.378399 
L 91.877677 278.635827 
L 93.185081 278.635827 
L 94.492485 278.450184 
L 97.107293 277.336325 
L 98.414697 277.150682 
L 99.722101 277.150682 
L 101.029504 276.965039 
L 102.336908 276.965039 
L 103.644312 276.593753 
L 104.951716 276.40811 
L 106.25912 275.851181 
L 107.566524 275.479895 
L 108.873928 274.737323 
L 111.488736 274.737323 
L 112.79614 273.066535 
L 114.103544 271.952677 
L 116.718352 271.581391 
L 118.025756 271.210104 
L 120.640563 270.838818 
L 123.255371 270.096246 
L 124.562775 269.910603 
L 125.870179 269.539317 
L 127.177583 268.611102 
L 128.484987 268.425459 
L 129.792391 268.425459 
L 131.099795 268.054172 
L 132.407199 267.868529 
L 135.022007 266.383385 
L 136.329411 266.012099 
L 137.636815 265.45517 
L 138.944219 265.083884 
L 140.251623 263.970025 
L 141.559026 263.227453 
L 142.86643 262.856167 
L 144.173834 261.927952 
L 145.481238 261.927952 
L 146.788642 261.371022 
L 148.096046 261.371022 
L 149.40345 260.071521 
L 150.710854 258.957663 
L 152.018258 255.801731 
L 154.633066 254.687872 
L 155.94047 253.574014 
L 157.247874 253.202728 
L 158.555278 251.903227 
L 159.862682 251.53194 
L 161.170086 250.789368 
L 162.477489 250.418082 
L 163.784893 248.747295 
L 165.092297 247.819079 
L 167.707105 246.333935 
L 170.321913 244.477504 
L 171.629317 242.99236 
L 172.936721 241.878501 
L 174.244125 240.022071 
L 175.551529 240.022071 
L 176.858933 238.722569 
L 178.166337 237.237425 
L 179.473741 234.824065 
L 180.781145 232.781992 
L 182.088549 229.06913 
L 183.395952 226.098842 
L 184.703356 226.098842 
L 186.01076 223.314196 
L 187.318164 221.272122 
L 188.625568 218.301833 
L 189.932972 217.559261 
L 191.240376 214.588972 
L 193.855184 214.588972 
L 195.162588 213.103828 
L 196.469992 212.732541 
L 199.0848 210.876111 
L 200.392204 210.690468 
L 203.007011 210.690468 
L 204.314415 209.576609 
L 205.621819 209.390966 
L 206.929223 208.648394 
L 208.236627 208.648394 
L 209.544031 207.720179 
L 210.851435 207.348893 
L 212.158839 207.348893 
L 213.466243 205.492462 
L 216.081051 205.492462 
L 217.388455 204.564247 
L 218.695859 202.33653 
L 221.310667 202.33653 
L 222.618071 202.150887 
L 223.925474 201.593958 
L 225.232878 200.665743 
L 227.847686 199.551884 
L 229.15509 198.252383 
L 230.462494 198.252383 
L 231.769898 197.695454 
L 233.077302 196.952882 
L 234.384706 195.839023 
L 235.69211 194.539522 
L 236.999514 193.79695 
L 239.614322 193.79695 
L 240.921726 192.683091 
L 242.22913 191.197947 
L 243.536534 190.455375 
L 244.843937 190.084088 
L 246.151341 189.155873 
L 247.458745 189.155873 
L 250.073553 188.784587 
L 251.380957 187.856372 
L 252.688361 185.257369 
L 253.995765 184.329154 
L 255.303169 183.586581 
L 257.917977 183.586581 
L 259.225381 182.658366 
L 260.532785 182.28708 
L 261.840189 180.987579 
L 264.454996 180.616293 
L 267.069804 180.616293 
L 268.377208 179.87372 
L 269.684612 178.945505 
L 270.992016 178.574219 
L 272.29942 177.831647 
L 273.606824 177.274718 
L 276.221632 177.274718 
L 278.83644 175.789573 
L 280.143844 175.232644 
L 282.758652 174.861358 
L 284.066056 174.490072 
L 286.680863 174.118786 
L 287.988267 173.747499 
L 289.295671 172.819284 
L 290.603075 172.819284 
L 291.910479 172.447998 
L 294.525287 172.447998 
L 295.832691 172.262355 
L 297.140095 171.705426 
L 298.447499 170.405924 
L 299.754903 168.178208 
L 301.062307 167.806922 
L 304.984519 167.806922 
L 306.291922 166.50742 
L 310.214134 165.950491 
L 312.828942 165.950491 
L 314.136346 165.579205 
L 315.44375 164.465347 
L 316.751154 164.09406 
L 318.058558 163.165845 
L 321.98077 163.165845 
L 323.288174 162.980202 
L 325.902981 162.23763 
L 327.210385 162.23763 
L 328.517789 161.495058 
L 332.440001 161.495058 
L 333.747405 160.752485 
L 336.362213 158.896055 
L 337.669617 158.339126 
L 340.284425 158.339126 
L 341.591829 158.153483 
L 342.899233 157.225267 
L 346.821444 156.111409 
L 350.743656 156.111409 
L 353.358464 155.740123 
L 354.665868 155.183194 
L 355.973272 154.811908 
L 359.895484 154.254978 
L 361.202888 153.326763 
L 362.510292 153.14112 
L 363.817696 152.398548 
L 365.1251 151.841619 
L 367.739907 151.841619 
L 369.047311 151.655976 
L 370.354715 150.72776 
L 371.662119 149.242616 
L 372.969523 147.943114 
L 374.276927 147.386185 
L 376.891735 147.386185 
L 378.199139 146.643613 
L 379.506543 143.858967 
L 382.121351 143.487681 
L 386.043563 143.487681 
L 387.350966 141.074321 
L 388.65837 139.960463 
L 389.965774 139.217891 
L 391.273178 137.918389 
L 392.580582 137.36146 
L 393.887986 137.175817 
L 395.19539 137.175817 
L 396.502794 136.061959 
L 397.810198 134.391171 
L 399.117602 133.462956 
L 400.425006 132.720384 
L 401.73241 131.606525 
L 404.347218 131.606525 
L 405.654622 130.121381 
L 406.962026 129.007523 
L 408.269429 128.079307 
L 410.884237 126.965449 
L 412.191641 126.594163 
L 413.499045 126.40852 
L 416.113853 123.438231 
L 417.421257 122.324373 
L 418.728661 122.13873 
L 420.036065 121.396157 
L 421.343469 121.210514 
L 422.650873 121.210514 
L 423.958277 120.282299 
L 425.265681 120.096656 
L 426.573085 119.168441 
L 431.8027 119.168441 
L 433.110104 118.240225 
L 434.417508 116.383795 
L 435.724912 112.485291 
L 440.954528 112.485291 
L 443.569336 111.371432 
L 444.87674 109.515002 
L 446.184144 108.586786 
L 447.491548 107.844214 
L 450.106355 107.844214 
L 451.413759 105.987784 
L 452.721163 105.802141 
L 454.028567 103.760067 
L 455.335971 103.203138 
L 456.643375 101.903636 
L 459.258183 101.903636 
L 460.565587 100.975421 
L 463.180395 98.376418 
L 464.487799 93.735342 
L 467.102607 92.99277 
L 471.024818 92.99277 
L 472.332222 91.878911 
L 473.639626 91.136339 
L 474.94703 90.765053 
L 476.254434 90.57941 
L 477.561838 90.57941 
L 480.176646 89.836838 
L 482.791454 87.609121 
L 484.098858 87.237835 
L 486.713666 87.237835 
L 488.02107 86.123976 
L 489.328474 85.195761 
L 490.635877 84.453189 
L 491.943281 83.89626 
L 494.558089 83.524974 
L 495.865493 83.524974 
L 497.172897 82.782401 
L 498.480301 82.411115 
L 499.787705 82.225472 
L 501.095109 81.854186 
L 505.017321 81.854186 
L 506.324725 81.111614 
L 507.632129 80.554685 
L 508.939533 79.255183 
L 510.246937 78.512611 
L 511.55434 77.584396 
L 512.861744 77.21311 
L 514.169148 77.21311 
L 515.476552 77.027467 
L 516.783956 76.656181 
L 518.09136 75.171036 
L 519.398764 74.614107 
L 520.706168 74.242821 
L 523.320976 74.242821 
L 524.62838 73.314606 
L 525.935784 72.943319 
L 527.243188 71.272532 
L 528.550592 69.97303 
L 529.857996 69.601744 
L 532.472803 69.601744 
L 533.780207 69.230458 
L 535.087611 68.302243 
L 536.395015 67.559671 
L 537.702419 66.445812 
L 539.009823 65.146311 
L 540.317227 64.960668 
L 541.624631 64.960668 
L 544.239439 61.990379 
L 545.546843 61.247807 
L 546.854247 58.834447 
L 548.161651 58.463161 
L 549.469055 57.349303 
L 550.776459 57.16366 
L 553.391266 54.193371 
L 554.69867 52.33694 
L 556.006074 51.594368 
L 557.313478 50.294866 
L 558.620882 49.552294 
L 559.928286 49.552294 
L 561.23569 48.06715 
L 562.543094 45.282504 
L 563.850498 43.983002 
L 565.157902 39.898855 
L 566.465306 34.886493 
L 569.080114 34.14392 
L 569.080114 34.14392 
" style="fill:none;stroke:#1f77b4;stroke-linecap:round;stroke-width:1.5;"/>
   </g>
   <g id="patch_3">
    <path d="M 36.44375 293.589375 
L 36.44375 21.789375 
" style="fill:none;stroke:#cccccc;stroke-linecap:square;stroke-linejoin:miter;stroke-width:0.8;"/>
   </g>
   <g id="patch_4">
    <path d="M 594.44375 293.589375 
L 594.44375 21.789375 
" style="fill:none;stroke:#cccccc;stroke-linecap:square;stroke-linejoin:miter;stroke-width:0.8;"/>
   </g>
   <g id="patch_5">
    <path d="M 36.44375 293.589375 
L 594.44375 293.589375 
" style="fill:none;stroke:#cccccc;stroke-linecap:square;stroke-linejoin:miter;stroke-width:0.8;"/>
   </g>
   <g id="patch_6">
    <path d="M 36.44375 21.789375 
L 594.44375 21.789375 
" style="fill:none;stroke:#cccccc;stroke-linecap:square;stroke-linejoin:miter;stroke-width:0.8;"/>
   </g>
   <g id="text_15">
    <!-- Óbitos -->
    <g style="fill:#262626;" transform="translate(298.10375 15.789375)scale(0.12 -0.12)">
     <defs>
      <path d="M 309 2231 
Q 309 3372 921 4017 
Q 1534 4663 2503 4663 
Q 3138 4663 3647 4359 
Q 4156 4056 4423 3514 
Q 4691 2972 4691 2284 
Q 4691 1588 4409 1038 
Q 4128 488 3612 205 
Q 3097 -78 2500 -78 
Q 1853 -78 1343 234 
Q 834 547 571 1087 
Q 309 1628 309 2231 
z
M 934 2222 
Q 934 1394 1379 917 
Q 1825 441 2497 441 
Q 3181 441 3623 922 
Q 4066 1403 4066 2288 
Q 4066 2847 3877 3264 
Q 3688 3681 3323 3911 
Q 2959 4141 2506 4141 
Q 1863 4141 1398 3698 
Q 934 3256 934 2222 
z
M 2116 4862 
L 2531 5737 
L 3269 5737 
L 2581 4862 
L 2116 4862 
z
" id="ArialMT-d3" transform="scale(0.015625)"/>
      <path d="M 941 0 
L 419 0 
L 419 4581 
L 981 4581 
L 981 2947 
Q 1338 3394 1891 3394 
Q 2197 3394 2470 3270 
Q 2744 3147 2920 2923 
Q 3097 2700 3197 2384 
Q 3297 2069 3297 1709 
Q 3297 856 2875 390 
Q 2453 -75 1863 -75 
Q 1275 -75 941 416 
L 941 0 
z
M 934 1684 
Q 934 1088 1097 822 
Q 1363 388 1816 388 
Q 2184 388 2453 708 
Q 2722 1028 2722 1663 
Q 2722 2313 2464 2622 
Q 2206 2931 1841 2931 
Q 1472 2931 1203 2611 
Q 934 2291 934 1684 
z
" id="ArialMT-62" transform="scale(0.015625)"/>
      <path d="M 425 3934 
L 425 4581 
L 988 4581 
L 988 3934 
L 425 3934 
z
M 425 0 
L 425 3319 
L 988 3319 
L 988 0 
L 425 0 
z
" id="ArialMT-69" transform="scale(0.015625)"/>
      <path d="M 1650 503 
L 1731 6 
Q 1494 -44 1306 -44 
Q 1000 -44 831 53 
Q 663 150 594 308 
Q 525 466 525 972 
L 525 2881 
L 113 2881 
L 113 3319 
L 525 3319 
L 525 4141 
L 1084 4478 
L 1084 3319 
L 1650 3319 
L 1650 2881 
L 1084 2881 
L 1084 941 
Q 1084 700 1114 631 
Q 1144 563 1211 522 
Q 1278 481 1403 481 
Q 1497 481 1650 503 
z
" id="ArialMT-74" transform="scale(0.015625)"/>
      <path d="M 213 1659 
Q 213 2581 725 3025 
Q 1153 3394 1769 3394 
Q 2453 3394 2887 2945 
Q 3322 2497 3322 1706 
Q 3322 1066 3130 698 
Q 2938 331 2570 128 
Q 2203 -75 1769 -75 
Q 1072 -75 642 372 
Q 213 819 213 1659 
z
M 791 1659 
Q 791 1022 1069 705 
Q 1347 388 1769 388 
Q 2188 388 2466 706 
Q 2744 1025 2744 1678 
Q 2744 2294 2464 2611 
Q 2184 2928 1769 2928 
Q 1347 2928 1069 2612 
Q 791 2297 791 1659 
z
" id="ArialMT-6f" transform="scale(0.015625)"/>
      <path d="M 197 991 
L 753 1078 
Q 800 744 1014 566 
Q 1228 388 1613 388 
Q 2000 388 2187 545 
Q 2375 703 2375 916 
Q 2375 1106 2209 1216 
Q 2094 1291 1634 1406 
Q 1016 1563 777 1677 
Q 538 1791 414 1992 
Q 291 2194 291 2438 
Q 291 2659 392 2848 
Q 494 3038 669 3163 
Q 800 3259 1026 3326 
Q 1253 3394 1513 3394 
Q 1903 3394 2198 3281 
Q 2494 3169 2634 2976 
Q 2775 2784 2828 2463 
L 2278 2388 
Q 2241 2644 2061 2787 
Q 1881 2931 1553 2931 
Q 1166 2931 1000 2803 
Q 834 2675 834 2503 
Q 834 2394 903 2306 
Q 972 2216 1119 2156 
Q 1203 2125 1616 2013 
Q 2213 1853 2448 1751 
Q 2684 1650 2818 1456 
Q 2953 1263 2953 975 
Q 2953 694 2789 445 
Q 2625 197 2315 61 
Q 2006 -75 1616 -75 
Q 969 -75 630 194 
Q 291 463 197 991 
z
" id="ArialMT-73" transform="scale(0.015625)"/>
     </defs>
     <use xlink:href="#ArialMT-d3"/>
     <use x="77.783203" xlink:href="#ArialMT-62"/>
     <use x="133.398438" xlink:href="#ArialMT-69"/>
     <use x="155.615234" xlink:href="#ArialMT-74"/>
     <use x="183.398438" xlink:href="#ArialMT-6f"/>
     <use x="239.013672" xlink:href="#ArialMT-73"/>
    </g>
   </g>
  </g>
 </g>
 <defs>
  <clipPath id="p203e1707aa">
   <rect height="271.8" width="558" x="36.44375" y="21.789375"/>
  </clipPath>
 </defs>
</svg>
