<?xml version="1.0" encoding="utf-8" standalone="no"?>
<!DOCTYPE svg PUBLIC "-//W3C//DTD SVG 1.1//EN"
  "http://www.w3.org/Graphics/SVG/1.1/DTD/svg11.dtd">
<svg height="322.334688pt" version="1.1" viewBox="0 0 601.64375 322.334688" width="601.64375pt" xmlns="http://www.w3.org/2000/svg" xmlns:xlink="http://www.w3.org/1999/xlink">
 <metadata>
  <rdf:RDF xmlns:cc="http://creativecommons.org/ns#" xmlns:dc="http://purl.org/dc/elements/1.1/" xmlns:rdf="http://www.w3.org/1999/02/22-rdf-syntax-ns#">
   <cc:Work>
    <dc:type rdf:resource="http://purl.org/dc/dcmitype/StillImage"/>
    <dc:date>2021-05-08T18:44:20.112699</dc:date>
    <dc:format>image/svg+xml</dc:format>
    <dc:creator>
     <cc:Agent>
      <dc:title>Matplotlib v3.4.1, https://matplotlib.org/</dc:title>
     </cc:Agent>
    </dc:creator>
   </cc:Work>
  </rdf:RDF>
 </metadata>
 <defs>
  <style type="text/css">*{stroke-linecap:butt;stroke-linejoin:round;}</style>
 </defs>
 <g id="figure_1">
  <g id="patch_1">
   <path d="M 0 322.334688 
L 601.64375 322.334688 
L 601.64375 0 
L 0 0 
z
" style="fill:#ffffff;"/>
  </g>
  <g id="axes_1">
   <g id="patch_2">
    <path d="M 36.44375 298.989375 
L 594.44375 298.989375 
L 594.44375 21.789375 
L 36.44375 21.789375 
z
" style="fill:#ffffff;"/>
   </g>
   <g id="matplotlib.axis_1">
    <g id="xtick_1">
     <g id="line2d_1">
      <path clip-path="url(#p98d402b996)" d="M 39.805196 298.989375 
L 39.805196 21.789375 
" style="fill:none;stroke:#cccccc;stroke-linecap:round;stroke-width:0.8;"/>
     </g>
     <g id="text_1">
      <!-- 2020-03 -->
      <g style="fill:#262626;" transform="translate(21.45754 313.147188)scale(0.1 -0.1)">
       <defs>
        <path d="M 3222 541 
L 3222 0 
L 194 0 
Q 188 203 259 391 
Q 375 700 629 1000 
Q 884 1300 1366 1694 
Q 2113 2306 2375 2664 
Q 2638 3022 2638 3341 
Q 2638 3675 2398 3904 
Q 2159 4134 1775 4134 
Q 1369 4134 1125 3890 
Q 881 3647 878 3216 
L 300 3275 
Q 359 3922 746 4261 
Q 1134 4600 1788 4600 
Q 2447 4600 2831 4234 
Q 3216 3869 3216 3328 
Q 3216 3053 3103 2787 
Q 2991 2522 2730 2228 
Q 2469 1934 1863 1422 
Q 1356 997 1212 845 
Q 1069 694 975 541 
L 3222 541 
z
" id="ArialMT-32" transform="scale(0.015625)"/>
        <path d="M 266 2259 
Q 266 3072 433 3567 
Q 600 4063 929 4331 
Q 1259 4600 1759 4600 
Q 2128 4600 2406 4451 
Q 2684 4303 2865 4023 
Q 3047 3744 3150 3342 
Q 3253 2941 3253 2259 
Q 3253 1453 3087 958 
Q 2922 463 2592 192 
Q 2263 -78 1759 -78 
Q 1097 -78 719 397 
Q 266 969 266 2259 
z
M 844 2259 
Q 844 1131 1108 757 
Q 1372 384 1759 384 
Q 2147 384 2411 759 
Q 2675 1134 2675 2259 
Q 2675 3391 2411 3762 
Q 2147 4134 1753 4134 
Q 1366 4134 1134 3806 
Q 844 3388 844 2259 
z
" id="ArialMT-30" transform="scale(0.015625)"/>
        <path d="M 203 1375 
L 203 1941 
L 1931 1941 
L 1931 1375 
L 203 1375 
z
" id="ArialMT-2d" transform="scale(0.015625)"/>
        <path d="M 269 1209 
L 831 1284 
Q 928 806 1161 595 
Q 1394 384 1728 384 
Q 2125 384 2398 659 
Q 2672 934 2672 1341 
Q 2672 1728 2419 1979 
Q 2166 2231 1775 2231 
Q 1616 2231 1378 2169 
L 1441 2663 
Q 1497 2656 1531 2656 
Q 1891 2656 2178 2843 
Q 2466 3031 2466 3422 
Q 2466 3731 2256 3934 
Q 2047 4138 1716 4138 
Q 1388 4138 1169 3931 
Q 950 3725 888 3313 
L 325 3413 
Q 428 3978 793 4289 
Q 1159 4600 1703 4600 
Q 2078 4600 2393 4439 
Q 2709 4278 2876 4000 
Q 3044 3722 3044 3409 
Q 3044 3113 2884 2869 
Q 2725 2625 2413 2481 
Q 2819 2388 3044 2092 
Q 3269 1797 3269 1353 
Q 3269 753 2831 336 
Q 2394 -81 1725 -81 
Q 1122 -81 723 278 
Q 325 638 269 1209 
z
" id="ArialMT-33" transform="scale(0.015625)"/>
       </defs>
       <use xlink:href="#ArialMT-32"/>
       <use x="55.615234" xlink:href="#ArialMT-30"/>
       <use x="111.230469" xlink:href="#ArialMT-32"/>
       <use x="166.845703" xlink:href="#ArialMT-30"/>
       <use x="222.460938" xlink:href="#ArialMT-2d"/>
       <use x="255.761719" xlink:href="#ArialMT-30"/>
       <use x="311.376953" xlink:href="#ArialMT-33"/>
      </g>
     </g>
    </g>
    <g id="xtick_2">
     <g id="line2d_2">
      <path clip-path="url(#p98d402b996)" d="M 114.368175 298.989375 
L 114.368175 21.789375 
" style="fill:none;stroke:#cccccc;stroke-linecap:round;stroke-width:0.8;"/>
     </g>
     <g id="text_2">
      <!-- 2020-05 -->
      <g style="fill:#262626;" transform="translate(96.020519 313.147188)scale(0.1 -0.1)">
       <defs>
        <path d="M 266 1200 
L 856 1250 
Q 922 819 1161 601 
Q 1400 384 1738 384 
Q 2144 384 2425 690 
Q 2706 997 2706 1503 
Q 2706 1984 2436 2262 
Q 2166 2541 1728 2541 
Q 1456 2541 1237 2417 
Q 1019 2294 894 2097 
L 366 2166 
L 809 4519 
L 3088 4519 
L 3088 3981 
L 1259 3981 
L 1013 2750 
Q 1425 3038 1878 3038 
Q 2478 3038 2890 2622 
Q 3303 2206 3303 1553 
Q 3303 931 2941 478 
Q 2500 -78 1738 -78 
Q 1113 -78 717 272 
Q 322 622 266 1200 
z
" id="ArialMT-35" transform="scale(0.015625)"/>
       </defs>
       <use xlink:href="#ArialMT-32"/>
       <use x="55.615234" xlink:href="#ArialMT-30"/>
       <use x="111.230469" xlink:href="#ArialMT-32"/>
       <use x="166.845703" xlink:href="#ArialMT-30"/>
       <use x="222.460938" xlink:href="#ArialMT-2d"/>
       <use x="255.761719" xlink:href="#ArialMT-30"/>
       <use x="311.376953" xlink:href="#ArialMT-35"/>
      </g>
     </g>
    </g>
    <g id="xtick_3">
     <g id="line2d_3">
      <path clip-path="url(#p98d402b996)" d="M 188.931154 298.989375 
L 188.931154 21.789375 
" style="fill:none;stroke:#cccccc;stroke-linecap:round;stroke-width:0.8;"/>
     </g>
     <g id="text_3">
      <!-- 2020-07 -->
      <g style="fill:#262626;" transform="translate(170.583498 313.147188)scale(0.1 -0.1)">
       <defs>
        <path d="M 303 3981 
L 303 4522 
L 3269 4522 
L 3269 4084 
Q 2831 3619 2401 2847 
Q 1972 2075 1738 1259 
Q 1569 684 1522 0 
L 944 0 
Q 953 541 1156 1306 
Q 1359 2072 1739 2783 
Q 2119 3494 2547 3981 
L 303 3981 
z
" id="ArialMT-37" transform="scale(0.015625)"/>
       </defs>
       <use xlink:href="#ArialMT-32"/>
       <use x="55.615234" xlink:href="#ArialMT-30"/>
       <use x="111.230469" xlink:href="#ArialMT-32"/>
       <use x="166.845703" xlink:href="#ArialMT-30"/>
       <use x="222.460938" xlink:href="#ArialMT-2d"/>
       <use x="255.761719" xlink:href="#ArialMT-30"/>
       <use x="311.376953" xlink:href="#ArialMT-37"/>
      </g>
     </g>
    </g>
    <g id="xtick_4">
     <g id="line2d_4">
      <path clip-path="url(#p98d402b996)" d="M 264.716477 298.989375 
L 264.716477 21.789375 
" style="fill:none;stroke:#cccccc;stroke-linecap:round;stroke-width:0.8;"/>
     </g>
     <g id="text_4">
      <!-- 2020-09 -->
      <g style="fill:#262626;" transform="translate(246.368821 313.147188)scale(0.1 -0.1)">
       <defs>
        <path d="M 350 1059 
L 891 1109 
Q 959 728 1153 556 
Q 1347 384 1650 384 
Q 1909 384 2104 503 
Q 2300 622 2425 820 
Q 2550 1019 2634 1356 
Q 2719 1694 2719 2044 
Q 2719 2081 2716 2156 
Q 2547 1888 2255 1720 
Q 1963 1553 1622 1553 
Q 1053 1553 659 1965 
Q 266 2378 266 3053 
Q 266 3750 677 4175 
Q 1088 4600 1706 4600 
Q 2153 4600 2523 4359 
Q 2894 4119 3086 3673 
Q 3278 3228 3278 2384 
Q 3278 1506 3087 986 
Q 2897 466 2520 194 
Q 2144 -78 1638 -78 
Q 1100 -78 759 220 
Q 419 519 350 1059 
z
M 2653 3081 
Q 2653 3566 2395 3850 
Q 2138 4134 1775 4134 
Q 1400 4134 1122 3828 
Q 844 3522 844 3034 
Q 844 2597 1108 2323 
Q 1372 2050 1759 2050 
Q 2150 2050 2401 2323 
Q 2653 2597 2653 3081 
z
" id="ArialMT-39" transform="scale(0.015625)"/>
       </defs>
       <use xlink:href="#ArialMT-32"/>
       <use x="55.615234" xlink:href="#ArialMT-30"/>
       <use x="111.230469" xlink:href="#ArialMT-32"/>
       <use x="166.845703" xlink:href="#ArialMT-30"/>
       <use x="222.460938" xlink:href="#ArialMT-2d"/>
       <use x="255.761719" xlink:href="#ArialMT-30"/>
       <use x="311.376953" xlink:href="#ArialMT-39"/>
      </g>
     </g>
    </g>
    <g id="xtick_5">
     <g id="line2d_5">
      <path clip-path="url(#p98d402b996)" d="M 339.279456 298.989375 
L 339.279456 21.789375 
" style="fill:none;stroke:#cccccc;stroke-linecap:round;stroke-width:0.8;"/>
     </g>
     <g id="text_5">
      <!-- 2020-11 -->
      <g style="fill:#262626;" transform="translate(321.30055 313.147188)scale(0.1 -0.1)">
       <defs>
        <path d="M 2384 0 
L 1822 0 
L 1822 3584 
Q 1619 3391 1289 3197 
Q 959 3003 697 2906 
L 697 3450 
Q 1169 3672 1522 3987 
Q 1875 4303 2022 4600 
L 2384 4600 
L 2384 0 
z
" id="ArialMT-31" transform="scale(0.015625)"/>
       </defs>
       <use xlink:href="#ArialMT-32"/>
       <use x="55.615234" xlink:href="#ArialMT-30"/>
       <use x="111.230469" xlink:href="#ArialMT-32"/>
       <use x="166.845703" xlink:href="#ArialMT-30"/>
       <use x="222.460938" xlink:href="#ArialMT-2d"/>
       <use x="255.761719" xlink:href="#ArialMT-31"/>
       <use x="304.001953" xlink:href="#ArialMT-31"/>
      </g>
     </g>
    </g>
    <g id="xtick_6">
     <g id="line2d_6">
      <path clip-path="url(#p98d402b996)" d="M 413.842436 298.989375 
L 413.842436 21.789375 
" style="fill:none;stroke:#cccccc;stroke-linecap:round;stroke-width:0.8;"/>
     </g>
     <g id="text_6">
      <!-- 2021-01 -->
      <g style="fill:#262626;" transform="translate(395.494779 313.147188)scale(0.1 -0.1)">
       <use xlink:href="#ArialMT-32"/>
       <use x="55.615234" xlink:href="#ArialMT-30"/>
       <use x="111.230469" xlink:href="#ArialMT-32"/>
       <use x="166.845703" xlink:href="#ArialMT-31"/>
       <use x="222.460938" xlink:href="#ArialMT-2d"/>
       <use x="255.761719" xlink:href="#ArialMT-30"/>
       <use x="311.376953" xlink:href="#ArialMT-31"/>
      </g>
     </g>
    </g>
    <g id="xtick_7">
     <g id="line2d_7">
      <path clip-path="url(#p98d402b996)" d="M 485.960727 298.989375 
L 485.960727 21.789375 
" style="fill:none;stroke:#cccccc;stroke-linecap:round;stroke-width:0.8;"/>
     </g>
     <g id="text_7">
      <!-- 2021-03 -->
      <g style="fill:#262626;" transform="translate(467.613071 313.147188)scale(0.1 -0.1)">
       <use xlink:href="#ArialMT-32"/>
       <use x="55.615234" xlink:href="#ArialMT-30"/>
       <use x="111.230469" xlink:href="#ArialMT-32"/>
       <use x="166.845703" xlink:href="#ArialMT-31"/>
       <use x="222.460938" xlink:href="#ArialMT-2d"/>
       <use x="255.761719" xlink:href="#ArialMT-30"/>
       <use x="311.376953" xlink:href="#ArialMT-33"/>
      </g>
     </g>
    </g>
    <g id="xtick_8">
     <g id="line2d_8">
      <path clip-path="url(#p98d402b996)" d="M 560.523706 298.989375 
L 560.523706 21.789375 
" style="fill:none;stroke:#cccccc;stroke-linecap:round;stroke-width:0.8;"/>
     </g>
     <g id="text_8">
      <!-- 2021-05 -->
      <g style="fill:#262626;" transform="translate(542.17605 313.147188)scale(0.1 -0.1)">
       <use xlink:href="#ArialMT-32"/>
       <use x="55.615234" xlink:href="#ArialMT-30"/>
       <use x="111.230469" xlink:href="#ArialMT-32"/>
       <use x="166.845703" xlink:href="#ArialMT-31"/>
       <use x="222.460938" xlink:href="#ArialMT-2d"/>
       <use x="255.761719" xlink:href="#ArialMT-30"/>
       <use x="311.376953" xlink:href="#ArialMT-35"/>
      </g>
     </g>
    </g>
   </g>
   <g id="matplotlib.axis_2">
    <g id="ytick_1">
     <g id="line2d_9">
      <path clip-path="url(#p98d402b996)" d="M 36.44375 286.389375 
L 594.44375 286.389375 
" style="fill:none;stroke:#cccccc;stroke-linecap:round;stroke-width:0.8;"/>
     </g>
     <g id="text_9">
      <!-- 0 -->
      <g style="fill:#262626;" transform="translate(23.882813 289.968281)scale(0.1 -0.1)">
       <use xlink:href="#ArialMT-30"/>
      </g>
     </g>
    </g>
    <g id="ytick_2">
     <g id="line2d_10">
      <path clip-path="url(#p98d402b996)" d="M 36.44375 253.318509 
L 594.44375 253.318509 
" style="fill:none;stroke:#cccccc;stroke-linecap:round;stroke-width:0.8;"/>
     </g>
     <g id="text_10">
      <!-- 200 -->
      <g style="fill:#262626;" transform="translate(12.760938 256.897415)scale(0.1 -0.1)">
       <use xlink:href="#ArialMT-32"/>
       <use x="55.615234" xlink:href="#ArialMT-30"/>
       <use x="111.230469" xlink:href="#ArialMT-30"/>
      </g>
     </g>
    </g>
    <g id="ytick_3">
     <g id="line2d_11">
      <path clip-path="url(#p98d402b996)" d="M 36.44375 220.247643 
L 594.44375 220.247643 
" style="fill:none;stroke:#cccccc;stroke-linecap:round;stroke-width:0.8;"/>
     </g>
     <g id="text_11">
      <!-- 400 -->
      <g style="fill:#262626;" transform="translate(12.760938 223.826549)scale(0.1 -0.1)">
       <defs>
        <path d="M 2069 0 
L 2069 1097 
L 81 1097 
L 81 1613 
L 2172 4581 
L 2631 4581 
L 2631 1613 
L 3250 1613 
L 3250 1097 
L 2631 1097 
L 2631 0 
L 2069 0 
z
M 2069 1613 
L 2069 3678 
L 634 1613 
L 2069 1613 
z
" id="ArialMT-34" transform="scale(0.015625)"/>
       </defs>
       <use xlink:href="#ArialMT-34"/>
       <use x="55.615234" xlink:href="#ArialMT-30"/>
       <use x="111.230469" xlink:href="#ArialMT-30"/>
      </g>
     </g>
    </g>
    <g id="ytick_4">
     <g id="line2d_12">
      <path clip-path="url(#p98d402b996)" d="M 36.44375 187.176777 
L 594.44375 187.176777 
" style="fill:none;stroke:#cccccc;stroke-linecap:round;stroke-width:0.8;"/>
     </g>
     <g id="text_12">
      <!-- 600 -->
      <g style="fill:#262626;" transform="translate(12.760938 190.755683)scale(0.1 -0.1)">
       <defs>
        <path d="M 3184 3459 
L 2625 3416 
Q 2550 3747 2413 3897 
Q 2184 4138 1850 4138 
Q 1581 4138 1378 3988 
Q 1113 3794 959 3422 
Q 806 3050 800 2363 
Q 1003 2672 1297 2822 
Q 1591 2972 1913 2972 
Q 2475 2972 2870 2558 
Q 3266 2144 3266 1488 
Q 3266 1056 3080 686 
Q 2894 316 2569 119 
Q 2244 -78 1831 -78 
Q 1128 -78 684 439 
Q 241 956 241 2144 
Q 241 3472 731 4075 
Q 1159 4600 1884 4600 
Q 2425 4600 2770 4297 
Q 3116 3994 3184 3459 
z
M 888 1484 
Q 888 1194 1011 928 
Q 1134 663 1356 523 
Q 1578 384 1822 384 
Q 2178 384 2434 671 
Q 2691 959 2691 1453 
Q 2691 1928 2437 2201 
Q 2184 2475 1800 2475 
Q 1419 2475 1153 2201 
Q 888 1928 888 1484 
z
" id="ArialMT-36" transform="scale(0.015625)"/>
       </defs>
       <use xlink:href="#ArialMT-36"/>
       <use x="55.615234" xlink:href="#ArialMT-30"/>
       <use x="111.230469" xlink:href="#ArialMT-30"/>
      </g>
     </g>
    </g>
    <g id="ytick_5">
     <g id="line2d_13">
      <path clip-path="url(#p98d402b996)" d="M 36.44375 154.10591 
L 594.44375 154.10591 
" style="fill:none;stroke:#cccccc;stroke-linecap:round;stroke-width:0.8;"/>
     </g>
     <g id="text_13">
      <!-- 800 -->
      <g style="fill:#262626;" transform="translate(12.760938 157.684817)scale(0.1 -0.1)">
       <defs>
        <path d="M 1131 2484 
Q 781 2613 612 2850 
Q 444 3088 444 3419 
Q 444 3919 803 4259 
Q 1163 4600 1759 4600 
Q 2359 4600 2725 4251 
Q 3091 3903 3091 3403 
Q 3091 3084 2923 2848 
Q 2756 2613 2416 2484 
Q 2838 2347 3058 2040 
Q 3278 1734 3278 1309 
Q 3278 722 2862 322 
Q 2447 -78 1769 -78 
Q 1091 -78 675 323 
Q 259 725 259 1325 
Q 259 1772 486 2073 
Q 713 2375 1131 2484 
z
M 1019 3438 
Q 1019 3113 1228 2906 
Q 1438 2700 1772 2700 
Q 2097 2700 2305 2904 
Q 2513 3109 2513 3406 
Q 2513 3716 2298 3927 
Q 2084 4138 1766 4138 
Q 1444 4138 1231 3931 
Q 1019 3725 1019 3438 
z
M 838 1322 
Q 838 1081 952 856 
Q 1066 631 1291 507 
Q 1516 384 1775 384 
Q 2178 384 2440 643 
Q 2703 903 2703 1303 
Q 2703 1709 2433 1975 
Q 2163 2241 1756 2241 
Q 1359 2241 1098 1978 
Q 838 1716 838 1322 
z
" id="ArialMT-38" transform="scale(0.015625)"/>
       </defs>
       <use xlink:href="#ArialMT-38"/>
       <use x="55.615234" xlink:href="#ArialMT-30"/>
       <use x="111.230469" xlink:href="#ArialMT-30"/>
      </g>
     </g>
    </g>
    <g id="ytick_6">
     <g id="line2d_14">
      <path clip-path="url(#p98d402b996)" d="M 36.44375 121.035044 
L 594.44375 121.035044 
" style="fill:none;stroke:#cccccc;stroke-linecap:round;stroke-width:0.8;"/>
     </g>
     <g id="text_14">
      <!-- 1000 -->
      <g style="fill:#262626;" transform="translate(7.2 124.613951)scale(0.1 -0.1)">
       <use xlink:href="#ArialMT-31"/>
       <use x="55.615234" xlink:href="#ArialMT-30"/>
       <use x="111.230469" xlink:href="#ArialMT-30"/>
       <use x="166.845703" xlink:href="#ArialMT-30"/>
      </g>
     </g>
    </g>
    <g id="ytick_7">
     <g id="line2d_15">
      <path clip-path="url(#p98d402b996)" d="M 36.44375 87.964178 
L 594.44375 87.964178 
" style="fill:none;stroke:#cccccc;stroke-linecap:round;stroke-width:0.8;"/>
     </g>
     <g id="text_15">
      <!-- 1200 -->
      <g style="fill:#262626;" transform="translate(7.2 91.543084)scale(0.1 -0.1)">
       <use xlink:href="#ArialMT-31"/>
       <use x="55.615234" xlink:href="#ArialMT-32"/>
       <use x="111.230469" xlink:href="#ArialMT-30"/>
       <use x="166.845703" xlink:href="#ArialMT-30"/>
      </g>
     </g>
    </g>
    <g id="ytick_8">
     <g id="line2d_16">
      <path clip-path="url(#p98d402b996)" d="M 36.44375 54.893312 
L 594.44375 54.893312 
" style="fill:none;stroke:#cccccc;stroke-linecap:round;stroke-width:0.8;"/>
     </g>
     <g id="text_16">
      <!-- 1400 -->
      <g style="fill:#262626;" transform="translate(7.2 58.472218)scale(0.1 -0.1)">
       <use xlink:href="#ArialMT-31"/>
       <use x="55.615234" xlink:href="#ArialMT-34"/>
       <use x="111.230469" xlink:href="#ArialMT-30"/>
       <use x="166.845703" xlink:href="#ArialMT-30"/>
      </g>
     </g>
    </g>
    <g id="ytick_9">
     <g id="line2d_17">
      <path clip-path="url(#p98d402b996)" d="M 36.44375 21.822446 
L 594.44375 21.822446 
" style="fill:none;stroke:#cccccc;stroke-linecap:round;stroke-width:0.8;"/>
     </g>
     <g id="text_17">
      <!-- 1600 -->
      <g style="fill:#262626;" transform="translate(7.2 25.401352)scale(0.1 -0.1)">
       <use xlink:href="#ArialMT-31"/>
       <use x="55.615234" xlink:href="#ArialMT-36"/>
       <use x="111.230469" xlink:href="#ArialMT-30"/>
       <use x="166.845703" xlink:href="#ArialMT-30"/>
      </g>
     </g>
    </g>
   </g>
   <g id="line2d_18">
    <path clip-path="url(#p98d402b996)" d="M 61.807386 286.389375 
L 76.475513 286.389375 
L 77.697857 286.224021 
L 78.920201 285.727958 
L 82.587233 285.727958 
L 83.809577 285.562603 
L 85.031921 284.735832 
L 87.476609 284.735832 
L 89.921297 284.074414 
L 91.14364 284.074414 
L 92.365984 283.90906 
L 94.810672 282.916934 
L 96.033016 282.75158 
L 97.25536 282.75158 
L 98.477704 282.586225 
L 99.700048 282.586225 
L 100.922392 282.255517 
L 102.144736 282.090162 
L 103.36708 281.594099 
L 104.589424 281.263391 
L 105.811768 280.601973 
L 108.256455 280.601973 
L 109.478799 279.113784 
L 110.701143 278.121658 
L 113.145831 277.79095 
L 114.368175 277.460241 
L 116.812863 277.129532 
L 119.257551 276.468115 
L 120.479895 276.302761 
L 121.702238 275.972052 
L 122.924582 275.145281 
L 124.146926 274.979926 
L 125.36927 274.979926 
L 126.591614 274.649218 
L 127.813958 274.483863 
L 130.258646 273.161029 
L 131.48099 272.83032 
L 132.703334 272.334257 
L 133.925678 272.003548 
L 135.148022 271.011422 
L 136.370366 270.350005 
L 137.592709 270.019296 
L 138.815053 269.192525 
L 140.037397 269.192525 
L 141.259741 268.696462 
L 142.482085 268.696462 
L 143.704429 267.538981 
L 144.926773 266.546855 
L 146.149117 263.735832 
L 148.593805 262.743706 
L 149.816149 261.75158 
L 151.038493 261.420871 
L 152.260837 260.263391 
L 153.48318 259.932682 
L 154.705524 259.271265 
L 155.927868 258.940556 
L 157.150212 257.452367 
L 158.372556 256.625595 
L 160.817244 255.302761 
L 163.261932 253.649218 
L 164.484276 252.326383 
L 165.70662 251.334257 
L 166.928964 249.680714 
L 168.151308 249.680714 
L 169.373651 248.523233 
L 170.595995 247.200399 
L 171.818339 245.050792 
L 173.040683 243.231895 
L 174.263027 239.924808 
L 175.485371 237.279139 
L 176.707715 237.279139 
L 177.930059 234.798824 
L 179.152403 232.979926 
L 180.374747 230.334257 
L 181.597091 229.67284 
L 182.819435 227.02717 
L 185.264122 227.02717 
L 186.486466 225.704336 
L 187.70881 225.373627 
L 190.153498 223.720084 
L 191.375842 223.554729 
L 193.82053 223.554729 
L 195.042874 222.562603 
L 196.265218 222.397249 
L 197.487562 221.735832 
L 198.709906 221.735832 
L 199.932249 220.90906 
L 201.154593 220.578351 
L 202.376937 220.578351 
L 203.599281 218.924808 
L 206.043969 218.924808 
L 207.266313 218.098036 
L 208.488657 216.113784 
L 210.933345 216.113784 
L 212.155689 215.94843 
L 213.378033 215.452367 
L 214.600377 214.625595 
L 217.045064 213.633469 
L 218.267408 212.475989 
L 219.489752 212.475989 
L 220.712096 211.979926 
L 221.93444 211.318509 
L 223.156784 210.326383 
L 224.379128 209.168903 
L 225.601472 208.507485 
L 228.04616 208.507485 
L 229.268504 207.515359 
L 230.490847 206.192525 
L 231.713191 205.531107 
L 232.935535 205.200399 
L 234.157879 204.373627 
L 235.380223 204.373627 
L 237.824911 204.042918 
L 239.047255 203.216147 
L 240.269599 200.901186 
L 241.491943 200.074414 
L 242.714287 199.412997 
L 245.158975 199.412997 
L 246.381318 198.586225 
L 247.603662 198.255517 
L 248.826006 197.098036 
L 251.270694 196.767328 
L 253.715382 196.767328 
L 254.937726 196.10591 
L 256.16007 195.279139 
L 257.382414 194.94843 
L 258.604758 194.287013 
L 259.827102 193.79095 
L 262.271789 193.79095 
L 264.716477 192.468115 
L 265.938821 191.972052 
L 268.383509 191.641344 
L 269.605853 191.310635 
L 272.050541 190.979926 
L 273.272885 190.649218 
L 274.495229 189.822446 
L 275.717573 189.822446 
L 276.939916 189.491737 
L 279.384604 189.491737 
L 280.606948 189.326383 
L 281.829292 188.83032 
L 283.051636 187.67284 
L 284.27398 185.688588 
L 285.496324 185.357879 
L 289.163356 185.357879 
L 290.3857 184.200399 
L 294.052731 183.704336 
L 296.497419 183.704336 
L 297.719763 183.373627 
L 298.942107 182.381501 
L 300.164451 182.050792 
L 301.386795 181.224021 
L 305.053827 181.224021 
L 306.276171 181.058666 
L 308.720858 180.397249 
L 309.943202 180.397249 
L 311.165546 179.735832 
L 314.832578 179.735832 
L 316.054922 179.074414 
L 318.49961 177.420871 
L 319.721954 176.924808 
L 322.166642 176.924808 
L 323.388985 176.759454 
L 324.611329 175.932682 
L 328.278361 174.940556 
L 331.945393 174.940556 
L 334.390081 174.609847 
L 335.612425 174.113784 
L 336.834769 173.783076 
L 340.5018 173.287013 
L 341.724144 172.460241 
L 342.946488 172.294887 
L 344.168832 171.633469 
L 345.391176 171.137406 
L 347.835864 171.137406 
L 349.058208 170.972052 
L 350.280552 170.145281 
L 351.502896 168.822446 
L 352.72524 167.664966 
L 353.947584 167.168903 
L 356.392271 167.168903 
L 357.614615 166.507485 
L 358.836959 164.02717 
L 361.281647 163.696462 
L 364.948679 163.696462 
L 366.171023 161.546855 
L 367.393367 160.554729 
L 368.615711 159.893312 
L 369.838054 158.735832 
L 371.060398 158.239769 
L 372.282742 158.074414 
L 373.505086 158.074414 
L 374.72743 157.082288 
L 375.949774 155.594099 
L 377.172118 154.767328 
L 378.394462 154.10591 
L 379.616806 153.113784 
L 382.061494 153.113784 
L 383.283838 151.79095 
L 384.506182 150.798824 
L 385.728525 149.972052 
L 388.173213 148.979926 
L 389.395557 148.649218 
L 390.617901 148.483863 
L 393.062589 145.838194 
L 394.284933 144.846068 
L 395.507277 144.680714 
L 396.729621 144.019296 
L 397.951965 143.853942 
L 399.174309 143.853942 
L 400.396653 143.02717 
L 401.618996 142.861816 
L 402.84134 142.035044 
L 407.730716 142.035044 
L 408.95306 141.208273 
L 410.175404 139.554729 
L 411.397748 136.082288 
L 416.287123 136.082288 
L 418.731811 135.090162 
L 419.954155 133.436619 
L 421.176499 132.609847 
L 422.398843 131.94843 
L 424.843531 131.94843 
L 426.065875 130.294887 
L 427.288219 130.129532 
L 428.510563 128.310635 
L 429.732907 127.814572 
L 430.955251 126.657092 
L 433.399938 126.657092 
L 434.622282 125.83032 
L 437.06697 123.515359 
L 438.289314 119.381501 
L 440.734002 118.720084 
L 444.401034 118.720084 
L 445.623378 117.727958 
L 446.845722 117.06654 
L 448.068065 116.735832 
L 449.290409 116.570477 
L 450.512753 116.570477 
L 452.957441 115.90906 
L 455.402129 113.924808 
L 456.624473 113.594099 
L 459.069161 113.594099 
L 460.291505 112.601973 
L 461.513849 111.775202 
L 462.736192 111.113784 
L 463.958536 110.617721 
L 466.403224 110.287013 
L 467.625568 110.287013 
L 468.847912 109.625595 
L 470.070256 109.294887 
L 471.2926 109.129532 
L 472.514944 108.798824 
L 476.181976 108.798824 
L 477.40432 108.137406 
L 478.626663 107.641344 
L 479.849007 106.483863 
L 481.071351 105.822446 
L 482.293695 104.995674 
L 483.516039 104.664966 
L 484.738383 104.664966 
L 485.960727 104.499611 
L 487.183071 104.168903 
L 488.405415 102.846068 
L 489.627759 102.350005 
L 490.850103 102.019296 
L 493.294791 102.019296 
L 494.517134 101.192525 
L 495.739478 100.861816 
L 496.961822 99.373627 
L 498.184166 98.216147 
L 499.40651 97.885438 
L 501.851198 97.885438 
L 503.073542 97.554729 
L 504.295886 96.727958 
L 505.51823 96.06654 
L 506.740574 95.074414 
L 507.962918 93.916934 
L 509.185262 93.75158 
L 510.407605 93.75158 
L 512.852293 91.10591 
L 514.074637 90.444493 
L 515.296981 88.294887 
L 516.519325 87.964178 
L 517.741669 86.972052 
L 518.964013 86.806698 
L 521.408701 84.161029 
L 522.631045 82.507485 
L 523.853389 81.846068 
L 525.075732 80.688588 
L 526.298076 80.02717 
L 527.52042 80.02717 
L 528.742764 78.704336 
L 529.965108 76.224021 
L 531.187452 75.06654 
L 532.409796 71.428745 
L 533.63214 66.964178 
L 536.076828 66.302761 
L 537.299172 62.499611 
L 538.521516 61.011422 
L 539.74386 61.011422 
L 540.966203 60.019296 
L 542.188547 58.696462 
L 543.410891 58.696462 
L 544.633235 57.538981 
L 545.855579 54.231895 
L 547.077923 53.570477 
L 548.300267 53.239769 
L 550.744955 51.586225 
L 551.967299 50.594099 
L 553.189643 49.932682 
L 554.411987 48.113784 
L 555.634331 47.287013 
L 556.856674 44.972052 
L 558.079018 43.979926 
L 561.74605 42.491737 
L 562.968394 41.003548 
L 564.190738 39.184651 
L 565.413082 38.853942 
L 566.635426 37.696462 
L 567.85777 34.885438 
L 569.080114 34.389375 
L 569.080114 34.389375 
" style="fill:none;stroke:#1f77b4;stroke-linecap:round;stroke-width:1.5;"/>
   </g>
   <g id="patch_3">
    <path d="M 36.44375 298.989375 
L 36.44375 21.789375 
" style="fill:none;stroke:#cccccc;stroke-linecap:square;stroke-linejoin:miter;stroke-width:0.8;"/>
   </g>
   <g id="patch_4">
    <path d="M 594.44375 298.989375 
L 594.44375 21.789375 
" style="fill:none;stroke:#cccccc;stroke-linecap:square;stroke-linejoin:miter;stroke-width:0.8;"/>
   </g>
   <g id="patch_5">
    <path d="M 36.44375 298.989375 
L 594.44375 298.989375 
" style="fill:none;stroke:#cccccc;stroke-linecap:square;stroke-linejoin:miter;stroke-width:0.8;"/>
   </g>
   <g id="patch_6">
    <path d="M 36.44375 21.789375 
L 594.44375 21.789375 
" style="fill:none;stroke:#cccccc;stroke-linecap:square;stroke-linejoin:miter;stroke-width:0.8;"/>
   </g>
   <g id="text_18">
    <!-- Óbitos -->
    <g style="fill:#262626;" transform="translate(298.10375 15.789375)scale(0.12 -0.12)">
     <defs>
      <path d="M 309 2231 
Q 309 3372 921 4017 
Q 1534 4663 2503 4663 
Q 3138 4663 3647 4359 
Q 4156 4056 4423 3514 
Q 4691 2972 4691 2284 
Q 4691 1588 4409 1038 
Q 4128 488 3612 205 
Q 3097 -78 2500 -78 
Q 1853 -78 1343 234 
Q 834 547 571 1087 
Q 309 1628 309 2231 
z
M 934 2222 
Q 934 1394 1379 917 
Q 1825 441 2497 441 
Q 3181 441 3623 922 
Q 4066 1403 4066 2288 
Q 4066 2847 3877 3264 
Q 3688 3681 3323 3911 
Q 2959 4141 2506 4141 
Q 1863 4141 1398 3698 
Q 934 3256 934 2222 
z
M 2118 4883 
L 2533 5758 
L 3271 5758 
L 2583 4883 
L 2118 4883 
z
" id="ArialMT-d3" transform="scale(0.015625)"/>
      <path d="M 941 0 
L 419 0 
L 419 4581 
L 981 4581 
L 981 2947 
Q 1338 3394 1891 3394 
Q 2197 3394 2470 3270 
Q 2744 3147 2920 2923 
Q 3097 2700 3197 2384 
Q 3297 2069 3297 1709 
Q 3297 856 2875 390 
Q 2453 -75 1863 -75 
Q 1275 -75 941 416 
L 941 0 
z
M 934 1684 
Q 934 1088 1097 822 
Q 1363 388 1816 388 
Q 2184 388 2453 708 
Q 2722 1028 2722 1663 
Q 2722 2313 2464 2622 
Q 2206 2931 1841 2931 
Q 1472 2931 1203 2611 
Q 934 2291 934 1684 
z
" id="ArialMT-62" transform="scale(0.015625)"/>
      <path d="M 425 3934 
L 425 4581 
L 988 4581 
L 988 3934 
L 425 3934 
z
M 425 0 
L 425 3319 
L 988 3319 
L 988 0 
L 425 0 
z
" id="ArialMT-69" transform="scale(0.015625)"/>
      <path d="M 1650 503 
L 1731 6 
Q 1494 -44 1306 -44 
Q 1000 -44 831 53 
Q 663 150 594 308 
Q 525 466 525 972 
L 525 2881 
L 113 2881 
L 113 3319 
L 525 3319 
L 525 4141 
L 1084 4478 
L 1084 3319 
L 1650 3319 
L 1650 2881 
L 1084 2881 
L 1084 941 
Q 1084 700 1114 631 
Q 1144 563 1211 522 
Q 1278 481 1403 481 
Q 1497 481 1650 503 
z
" id="ArialMT-74" transform="scale(0.015625)"/>
      <path d="M 213 1659 
Q 213 2581 725 3025 
Q 1153 3394 1769 3394 
Q 2453 3394 2887 2945 
Q 3322 2497 3322 1706 
Q 3322 1066 3130 698 
Q 2938 331 2570 128 
Q 2203 -75 1769 -75 
Q 1072 -75 642 372 
Q 213 819 213 1659 
z
M 791 1659 
Q 791 1022 1069 705 
Q 1347 388 1769 388 
Q 2188 388 2466 706 
Q 2744 1025 2744 1678 
Q 2744 2294 2464 2611 
Q 2184 2928 1769 2928 
Q 1347 2928 1069 2612 
Q 791 2297 791 1659 
z
" id="ArialMT-6f" transform="scale(0.015625)"/>
      <path d="M 197 991 
L 753 1078 
Q 800 744 1014 566 
Q 1228 388 1613 388 
Q 2000 388 2187 545 
Q 2375 703 2375 916 
Q 2375 1106 2209 1216 
Q 2094 1291 1634 1406 
Q 1016 1563 777 1677 
Q 538 1791 414 1992 
Q 291 2194 291 2438 
Q 291 2659 392 2848 
Q 494 3038 669 3163 
Q 800 3259 1026 3326 
Q 1253 3394 1513 3394 
Q 1903 3394 2198 3281 
Q 2494 3169 2634 2976 
Q 2775 2784 2828 2463 
L 2278 2388 
Q 2241 2644 2061 2787 
Q 1881 2931 1553 2931 
Q 1166 2931 1000 2803 
Q 834 2675 834 2503 
Q 834 2394 903 2306 
Q 972 2216 1119 2156 
Q 1203 2125 1616 2013 
Q 2213 1853 2448 1751 
Q 2684 1650 2818 1456 
Q 2953 1263 2953 975 
Q 2953 694 2789 445 
Q 2625 197 2315 61 
Q 2006 -75 1616 -75 
Q 969 -75 630 194 
Q 291 463 197 991 
z
" id="ArialMT-73" transform="scale(0.015625)"/>
     </defs>
     <use xlink:href="#ArialMT-d3"/>
     <use x="77.783203" xlink:href="#ArialMT-62"/>
     <use x="133.398438" xlink:href="#ArialMT-69"/>
     <use x="155.615234" xlink:href="#ArialMT-74"/>
     <use x="183.398438" xlink:href="#ArialMT-6f"/>
     <use x="239.013672" xlink:href="#ArialMT-73"/>
    </g>
   </g>
  </g>
 </g>
 <defs>
  <clipPath id="p98d402b996">
   <rect height="277.2" width="558" x="36.44375" y="21.789375"/>
  </clipPath>
 </defs>
</svg>
