<?xml version="1.0" encoding="utf-8" standalone="no"?>
<!DOCTYPE svg PUBLIC "-//W3C//DTD SVG 1.1//EN"
  "http://www.w3.org/Graphics/SVG/1.1/DTD/svg11.dtd">
<svg height="322.334688pt" version="1.1" viewBox="0 0 601.64375 322.334688" width="601.64375pt" xmlns="http://www.w3.org/2000/svg" xmlns:xlink="http://www.w3.org/1999/xlink">
 <metadata>
  <rdf:RDF xmlns:cc="http://creativecommons.org/ns#" xmlns:dc="http://purl.org/dc/elements/1.1/" xmlns:rdf="http://www.w3.org/1999/02/22-rdf-syntax-ns#">
   <cc:Work>
    <dc:type rdf:resource="http://purl.org/dc/dcmitype/StillImage"/>
    <dc:date>2021-06-26T14:27:16.417704</dc:date>
    <dc:format>image/svg+xml</dc:format>
    <dc:creator>
     <cc:Agent>
      <dc:title>Matplotlib v3.4.2, https://matplotlib.org/</dc:title>
     </cc:Agent>
    </dc:creator>
   </cc:Work>
  </rdf:RDF>
 </metadata>
 <defs>
  <style type="text/css">*{stroke-linecap:butt;stroke-linejoin:round;}</style>
 </defs>
 <g id="figure_1">
  <g id="patch_1">
   <path d="M 0 322.334688 
L 601.64375 322.334688 
L 601.64375 0 
L 0 0 
z
" style="fill:#ffffff;"/>
  </g>
  <g id="axes_1">
   <g id="patch_2">
    <path d="M 36.44375 298.989375 
L 594.44375 298.989375 
L 594.44375 21.789375 
L 36.44375 21.789375 
z
" style="fill:#ffffff;"/>
   </g>
   <g id="matplotlib.axis_1">
    <g id="xtick_1">
     <g id="line2d_1">
      <path clip-path="url(#pb60007df69)" d="M 42.0862 298.989375 
L 42.0862 21.789375 
" style="fill:none;stroke:#cccccc;stroke-linecap:round;stroke-width:0.8;"/>
     </g>
     <g id="text_1">
      <!-- 2020-03 -->
      <g style="fill:#262626;" transform="translate(23.738544 313.147188)scale(0.1 -0.1)">
       <defs>
        <path d="M 3222 541 
L 3222 0 
L 194 0 
Q 188 203 259 391 
Q 375 700 629 1000 
Q 884 1300 1366 1694 
Q 2113 2306 2375 2664 
Q 2638 3022 2638 3341 
Q 2638 3675 2398 3904 
Q 2159 4134 1775 4134 
Q 1369 4134 1125 3890 
Q 881 3647 878 3216 
L 300 3275 
Q 359 3922 746 4261 
Q 1134 4600 1788 4600 
Q 2447 4600 2831 4234 
Q 3216 3869 3216 3328 
Q 3216 3053 3103 2787 
Q 2991 2522 2730 2228 
Q 2469 1934 1863 1422 
Q 1356 997 1212 845 
Q 1069 694 975 541 
L 3222 541 
z
" id="ArialMT-32" transform="scale(0.015625)"/>
        <path d="M 266 2259 
Q 266 3072 433 3567 
Q 600 4063 929 4331 
Q 1259 4600 1759 4600 
Q 2128 4600 2406 4451 
Q 2684 4303 2865 4023 
Q 3047 3744 3150 3342 
Q 3253 2941 3253 2259 
Q 3253 1453 3087 958 
Q 2922 463 2592 192 
Q 2263 -78 1759 -78 
Q 1097 -78 719 397 
Q 266 969 266 2259 
z
M 844 2259 
Q 844 1131 1108 757 
Q 1372 384 1759 384 
Q 2147 384 2411 759 
Q 2675 1134 2675 2259 
Q 2675 3391 2411 3762 
Q 2147 4134 1753 4134 
Q 1366 4134 1134 3806 
Q 844 3388 844 2259 
z
" id="ArialMT-30" transform="scale(0.015625)"/>
        <path d="M 203 1375 
L 203 1941 
L 1931 1941 
L 1931 1375 
L 203 1375 
z
" id="ArialMT-2d" transform="scale(0.015625)"/>
        <path d="M 269 1209 
L 831 1284 
Q 928 806 1161 595 
Q 1394 384 1728 384 
Q 2125 384 2398 659 
Q 2672 934 2672 1341 
Q 2672 1728 2419 1979 
Q 2166 2231 1775 2231 
Q 1616 2231 1378 2169 
L 1441 2663 
Q 1497 2656 1531 2656 
Q 1891 2656 2178 2843 
Q 2466 3031 2466 3422 
Q 2466 3731 2256 3934 
Q 2047 4138 1716 4138 
Q 1388 4138 1169 3931 
Q 950 3725 888 3313 
L 325 3413 
Q 428 3978 793 4289 
Q 1159 4600 1703 4600 
Q 2078 4600 2393 4439 
Q 2709 4278 2876 4000 
Q 3044 3722 3044 3409 
Q 3044 3113 2884 2869 
Q 2725 2625 2413 2481 
Q 2819 2388 3044 2092 
Q 3269 1797 3269 1353 
Q 3269 753 2831 336 
Q 2394 -81 1725 -81 
Q 1122 -81 723 278 
Q 325 638 269 1209 
z
" id="ArialMT-33" transform="scale(0.015625)"/>
       </defs>
       <use xlink:href="#ArialMT-32"/>
       <use x="55.615234" xlink:href="#ArialMT-30"/>
       <use x="111.230469" xlink:href="#ArialMT-32"/>
       <use x="166.845703" xlink:href="#ArialMT-30"/>
       <use x="222.460938" xlink:href="#ArialMT-2d"/>
       <use x="255.761719" xlink:href="#ArialMT-30"/>
       <use x="311.376953" xlink:href="#ArialMT-33"/>
      </g>
     </g>
    </g>
    <g id="xtick_2">
     <g id="line2d_2">
      <path clip-path="url(#pb60007df69)" d="M 108.919108 298.989375 
L 108.919108 21.789375 
" style="fill:none;stroke:#cccccc;stroke-linecap:round;stroke-width:0.8;"/>
     </g>
     <g id="text_2">
      <!-- 2020-05 -->
      <g style="fill:#262626;" transform="translate(90.571452 313.147188)scale(0.1 -0.1)">
       <defs>
        <path d="M 266 1200 
L 856 1250 
Q 922 819 1161 601 
Q 1400 384 1738 384 
Q 2144 384 2425 690 
Q 2706 997 2706 1503 
Q 2706 1984 2436 2262 
Q 2166 2541 1728 2541 
Q 1456 2541 1237 2417 
Q 1019 2294 894 2097 
L 366 2166 
L 809 4519 
L 3088 4519 
L 3088 3981 
L 1259 3981 
L 1013 2750 
Q 1425 3038 1878 3038 
Q 2478 3038 2890 2622 
Q 3303 2206 3303 1553 
Q 3303 931 2941 478 
Q 2500 -78 1738 -78 
Q 1113 -78 717 272 
Q 322 622 266 1200 
z
" id="ArialMT-35" transform="scale(0.015625)"/>
       </defs>
       <use xlink:href="#ArialMT-32"/>
       <use x="55.615234" xlink:href="#ArialMT-30"/>
       <use x="111.230469" xlink:href="#ArialMT-32"/>
       <use x="166.845703" xlink:href="#ArialMT-30"/>
       <use x="222.460938" xlink:href="#ArialMT-2d"/>
       <use x="255.761719" xlink:href="#ArialMT-30"/>
       <use x="311.376953" xlink:href="#ArialMT-35"/>
      </g>
     </g>
    </g>
    <g id="xtick_3">
     <g id="line2d_3">
      <path clip-path="url(#pb60007df69)" d="M 175.752016 298.989375 
L 175.752016 21.789375 
" style="fill:none;stroke:#cccccc;stroke-linecap:round;stroke-width:0.8;"/>
     </g>
     <g id="text_3">
      <!-- 2020-07 -->
      <g style="fill:#262626;" transform="translate(157.40436 313.147188)scale(0.1 -0.1)">
       <defs>
        <path d="M 303 3981 
L 303 4522 
L 3269 4522 
L 3269 4084 
Q 2831 3619 2401 2847 
Q 1972 2075 1738 1259 
Q 1569 684 1522 0 
L 944 0 
Q 953 541 1156 1306 
Q 1359 2072 1739 2783 
Q 2119 3494 2547 3981 
L 303 3981 
z
" id="ArialMT-37" transform="scale(0.015625)"/>
       </defs>
       <use xlink:href="#ArialMT-32"/>
       <use x="55.615234" xlink:href="#ArialMT-30"/>
       <use x="111.230469" xlink:href="#ArialMT-32"/>
       <use x="166.845703" xlink:href="#ArialMT-30"/>
       <use x="222.460938" xlink:href="#ArialMT-2d"/>
       <use x="255.761719" xlink:href="#ArialMT-30"/>
       <use x="311.376953" xlink:href="#ArialMT-37"/>
      </g>
     </g>
    </g>
    <g id="xtick_4">
     <g id="line2d_4">
      <path clip-path="url(#pb60007df69)" d="M 243.680546 298.989375 
L 243.680546 21.789375 
" style="fill:none;stroke:#cccccc;stroke-linecap:round;stroke-width:0.8;"/>
     </g>
     <g id="text_4">
      <!-- 2020-09 -->
      <g style="fill:#262626;" transform="translate(225.332889 313.147188)scale(0.1 -0.1)">
       <defs>
        <path d="M 350 1059 
L 891 1109 
Q 959 728 1153 556 
Q 1347 384 1650 384 
Q 1909 384 2104 503 
Q 2300 622 2425 820 
Q 2550 1019 2634 1356 
Q 2719 1694 2719 2044 
Q 2719 2081 2716 2156 
Q 2547 1888 2255 1720 
Q 1963 1553 1622 1553 
Q 1053 1553 659 1965 
Q 266 2378 266 3053 
Q 266 3750 677 4175 
Q 1088 4600 1706 4600 
Q 2153 4600 2523 4359 
Q 2894 4119 3086 3673 
Q 3278 3228 3278 2384 
Q 3278 1506 3087 986 
Q 2897 466 2520 194 
Q 2144 -78 1638 -78 
Q 1100 -78 759 220 
Q 419 519 350 1059 
z
M 2653 3081 
Q 2653 3566 2395 3850 
Q 2138 4134 1775 4134 
Q 1400 4134 1122 3828 
Q 844 3522 844 3034 
Q 844 2597 1108 2323 
Q 1372 2050 1759 2050 
Q 2150 2050 2401 2323 
Q 2653 2597 2653 3081 
z
" id="ArialMT-39" transform="scale(0.015625)"/>
       </defs>
       <use xlink:href="#ArialMT-32"/>
       <use x="55.615234" xlink:href="#ArialMT-30"/>
       <use x="111.230469" xlink:href="#ArialMT-32"/>
       <use x="166.845703" xlink:href="#ArialMT-30"/>
       <use x="222.460938" xlink:href="#ArialMT-2d"/>
       <use x="255.761719" xlink:href="#ArialMT-30"/>
       <use x="311.376953" xlink:href="#ArialMT-39"/>
      </g>
     </g>
    </g>
    <g id="xtick_5">
     <g id="line2d_5">
      <path clip-path="url(#pb60007df69)" d="M 310.513454 298.989375 
L 310.513454 21.789375 
" style="fill:none;stroke:#cccccc;stroke-linecap:round;stroke-width:0.8;"/>
     </g>
     <g id="text_5">
      <!-- 2020-11 -->
      <g style="fill:#262626;" transform="translate(292.534547 313.147188)scale(0.1 -0.1)">
       <defs>
        <path d="M 2384 0 
L 1822 0 
L 1822 3584 
Q 1619 3391 1289 3197 
Q 959 3003 697 2906 
L 697 3450 
Q 1169 3672 1522 3987 
Q 1875 4303 2022 4600 
L 2384 4600 
L 2384 0 
z
" id="ArialMT-31" transform="scale(0.015625)"/>
       </defs>
       <use xlink:href="#ArialMT-32"/>
       <use x="55.615234" xlink:href="#ArialMT-30"/>
       <use x="111.230469" xlink:href="#ArialMT-32"/>
       <use x="166.845703" xlink:href="#ArialMT-30"/>
       <use x="222.460938" xlink:href="#ArialMT-2d"/>
       <use x="255.761719" xlink:href="#ArialMT-31"/>
       <use x="304.001953" xlink:href="#ArialMT-31"/>
      </g>
     </g>
    </g>
    <g id="xtick_6">
     <g id="line2d_6">
      <path clip-path="url(#pb60007df69)" d="M 377.346361 298.989375 
L 377.346361 21.789375 
" style="fill:none;stroke:#cccccc;stroke-linecap:round;stroke-width:0.8;"/>
     </g>
     <g id="text_6">
      <!-- 2021-01 -->
      <g style="fill:#262626;" transform="translate(358.998705 313.147188)scale(0.1 -0.1)">
       <use xlink:href="#ArialMT-32"/>
       <use x="55.615234" xlink:href="#ArialMT-30"/>
       <use x="111.230469" xlink:href="#ArialMT-32"/>
       <use x="166.845703" xlink:href="#ArialMT-31"/>
       <use x="222.460938" xlink:href="#ArialMT-2d"/>
       <use x="255.761719" xlink:href="#ArialMT-30"/>
       <use x="311.376953" xlink:href="#ArialMT-31"/>
      </g>
     </g>
    </g>
    <g id="xtick_7">
     <g id="line2d_7">
      <path clip-path="url(#pb60007df69)" d="M 441.988026 298.989375 
L 441.988026 21.789375 
" style="fill:none;stroke:#cccccc;stroke-linecap:round;stroke-width:0.8;"/>
     </g>
     <g id="text_7">
      <!-- 2021-03 -->
      <g style="fill:#262626;" transform="translate(423.64037 313.147188)scale(0.1 -0.1)">
       <use xlink:href="#ArialMT-32"/>
       <use x="55.615234" xlink:href="#ArialMT-30"/>
       <use x="111.230469" xlink:href="#ArialMT-32"/>
       <use x="166.845703" xlink:href="#ArialMT-31"/>
       <use x="222.460938" xlink:href="#ArialMT-2d"/>
       <use x="255.761719" xlink:href="#ArialMT-30"/>
       <use x="311.376953" xlink:href="#ArialMT-33"/>
      </g>
     </g>
    </g>
    <g id="xtick_8">
     <g id="line2d_8">
      <path clip-path="url(#pb60007df69)" d="M 508.820934 298.989375 
L 508.820934 21.789375 
" style="fill:none;stroke:#cccccc;stroke-linecap:round;stroke-width:0.8;"/>
     </g>
     <g id="text_8">
      <!-- 2021-05 -->
      <g style="fill:#262626;" transform="translate(490.473278 313.147188)scale(0.1 -0.1)">
       <use xlink:href="#ArialMT-32"/>
       <use x="55.615234" xlink:href="#ArialMT-30"/>
       <use x="111.230469" xlink:href="#ArialMT-32"/>
       <use x="166.845703" xlink:href="#ArialMT-31"/>
       <use x="222.460938" xlink:href="#ArialMT-2d"/>
       <use x="255.761719" xlink:href="#ArialMT-30"/>
       <use x="311.376953" xlink:href="#ArialMT-35"/>
      </g>
     </g>
    </g>
    <g id="xtick_9">
     <g id="line2d_9">
      <path clip-path="url(#pb60007df69)" d="M 575.653842 298.989375 
L 575.653842 21.789375 
" style="fill:none;stroke:#cccccc;stroke-linecap:round;stroke-width:0.8;"/>
     </g>
     <g id="text_9">
      <!-- 2021-07 -->
      <g style="fill:#262626;" transform="translate(557.306186 313.147188)scale(0.1 -0.1)">
       <use xlink:href="#ArialMT-32"/>
       <use x="55.615234" xlink:href="#ArialMT-30"/>
       <use x="111.230469" xlink:href="#ArialMT-32"/>
       <use x="166.845703" xlink:href="#ArialMT-31"/>
       <use x="222.460938" xlink:href="#ArialMT-2d"/>
       <use x="255.761719" xlink:href="#ArialMT-30"/>
       <use x="311.376953" xlink:href="#ArialMT-37"/>
      </g>
     </g>
    </g>
   </g>
   <g id="matplotlib.axis_2">
    <g id="ytick_1">
     <g id="line2d_10">
      <path clip-path="url(#pb60007df69)" d="M 36.44375 286.389375 
L 594.44375 286.389375 
" style="fill:none;stroke:#cccccc;stroke-linecap:round;stroke-width:0.8;"/>
     </g>
     <g id="text_10">
      <!-- 0 -->
      <g style="fill:#262626;" transform="translate(23.882813 289.968281)scale(0.1 -0.1)">
       <use xlink:href="#ArialMT-30"/>
      </g>
     </g>
    </g>
    <g id="ytick_2">
     <g id="line2d_11">
      <path clip-path="url(#pb60007df69)" d="M 36.44375 251.678631 
L 594.44375 251.678631 
" style="fill:none;stroke:#cccccc;stroke-linecap:round;stroke-width:0.8;"/>
     </g>
     <g id="text_11">
      <!-- 250 -->
      <g style="fill:#262626;" transform="translate(12.760938 255.257537)scale(0.1 -0.1)">
       <use xlink:href="#ArialMT-32"/>
       <use x="55.615234" xlink:href="#ArialMT-35"/>
       <use x="111.230469" xlink:href="#ArialMT-30"/>
      </g>
     </g>
    </g>
    <g id="ytick_3">
     <g id="line2d_12">
      <path clip-path="url(#pb60007df69)" d="M 36.44375 216.967887 
L 594.44375 216.967887 
" style="fill:none;stroke:#cccccc;stroke-linecap:round;stroke-width:0.8;"/>
     </g>
     <g id="text_12">
      <!-- 500 -->
      <g style="fill:#262626;" transform="translate(12.760938 220.546794)scale(0.1 -0.1)">
       <use xlink:href="#ArialMT-35"/>
       <use x="55.615234" xlink:href="#ArialMT-30"/>
       <use x="111.230469" xlink:href="#ArialMT-30"/>
      </g>
     </g>
    </g>
    <g id="ytick_4">
     <g id="line2d_13">
      <path clip-path="url(#pb60007df69)" d="M 36.44375 182.257144 
L 594.44375 182.257144 
" style="fill:none;stroke:#cccccc;stroke-linecap:round;stroke-width:0.8;"/>
     </g>
     <g id="text_13">
      <!-- 750 -->
      <g style="fill:#262626;" transform="translate(12.760938 185.83605)scale(0.1 -0.1)">
       <use xlink:href="#ArialMT-37"/>
       <use x="55.615234" xlink:href="#ArialMT-35"/>
       <use x="111.230469" xlink:href="#ArialMT-30"/>
      </g>
     </g>
    </g>
    <g id="ytick_5">
     <g id="line2d_14">
      <path clip-path="url(#pb60007df69)" d="M 36.44375 147.5464 
L 594.44375 147.5464 
" style="fill:none;stroke:#cccccc;stroke-linecap:round;stroke-width:0.8;"/>
     </g>
     <g id="text_14">
      <!-- 1000 -->
      <g style="fill:#262626;" transform="translate(7.2 151.125306)scale(0.1 -0.1)">
       <use xlink:href="#ArialMT-31"/>
       <use x="55.615234" xlink:href="#ArialMT-30"/>
       <use x="111.230469" xlink:href="#ArialMT-30"/>
       <use x="166.845703" xlink:href="#ArialMT-30"/>
      </g>
     </g>
    </g>
    <g id="ytick_6">
     <g id="line2d_15">
      <path clip-path="url(#pb60007df69)" d="M 36.44375 112.835656 
L 594.44375 112.835656 
" style="fill:none;stroke:#cccccc;stroke-linecap:round;stroke-width:0.8;"/>
     </g>
     <g id="text_15">
      <!-- 1250 -->
      <g style="fill:#262626;" transform="translate(7.2 116.414562)scale(0.1 -0.1)">
       <use xlink:href="#ArialMT-31"/>
       <use x="55.615234" xlink:href="#ArialMT-32"/>
       <use x="111.230469" xlink:href="#ArialMT-35"/>
       <use x="166.845703" xlink:href="#ArialMT-30"/>
      </g>
     </g>
    </g>
    <g id="ytick_7">
     <g id="line2d_16">
      <path clip-path="url(#pb60007df69)" d="M 36.44375 78.124912 
L 594.44375 78.124912 
" style="fill:none;stroke:#cccccc;stroke-linecap:round;stroke-width:0.8;"/>
     </g>
     <g id="text_16">
      <!-- 1500 -->
      <g style="fill:#262626;" transform="translate(7.2 81.703818)scale(0.1 -0.1)">
       <use xlink:href="#ArialMT-31"/>
       <use x="55.615234" xlink:href="#ArialMT-35"/>
       <use x="111.230469" xlink:href="#ArialMT-30"/>
       <use x="166.845703" xlink:href="#ArialMT-30"/>
      </g>
     </g>
    </g>
    <g id="ytick_8">
     <g id="line2d_17">
      <path clip-path="url(#pb60007df69)" d="M 36.44375 43.414168 
L 594.44375 43.414168 
" style="fill:none;stroke:#cccccc;stroke-linecap:round;stroke-width:0.8;"/>
     </g>
     <g id="text_17">
      <!-- 1750 -->
      <g style="fill:#262626;" transform="translate(7.2 46.993075)scale(0.1 -0.1)">
       <use xlink:href="#ArialMT-31"/>
       <use x="55.615234" xlink:href="#ArialMT-37"/>
       <use x="111.230469" xlink:href="#ArialMT-35"/>
       <use x="166.845703" xlink:href="#ArialMT-30"/>
      </g>
     </g>
    </g>
   </g>
   <g id="line2d_18">
    <path clip-path="url(#pb60007df69)" d="M 61.807386 286.389375 
L 74.954844 286.389375 
L 76.050465 286.250532 
L 77.146087 285.834003 
L 80.432951 285.834003 
L 81.528572 285.69516 
L 82.624194 285.000945 
L 84.815437 285.000945 
L 87.00668 284.445573 
L 88.102301 284.445573 
L 89.197922 284.30673 
L 91.389165 283.473673 
L 92.484787 283.33483 
L 93.580408 283.33483 
L 94.67603 283.195987 
L 95.771651 283.195987 
L 96.867272 282.918301 
L 97.962894 282.779458 
L 99.058515 282.362929 
L 100.154137 282.085243 
L 101.249758 281.529871 
L 103.441001 281.529871 
L 104.536623 280.280284 
L 105.632244 279.447226 
L 107.823487 279.16954 
L 108.919108 278.891854 
L 111.110351 278.614168 
L 113.301594 278.058796 
L 114.397216 277.919954 
L 115.492837 277.642268 
L 116.588458 276.948053 
L 117.68408 276.80921 
L 118.779701 276.80921 
L 119.875323 276.531524 
L 120.970944 276.392681 
L 123.162187 275.281937 
L 124.257809 275.004251 
L 125.35343 274.587722 
L 126.449051 274.310036 
L 127.544673 273.476978 
L 128.640294 272.921606 
L 129.735916 272.64392 
L 130.831537 271.949706 
L 131.927159 271.949706 
L 133.02278 271.533177 
L 134.118401 271.533177 
L 136.309644 269.728218 
L 137.405266 267.367887 
L 139.596509 266.53483 
L 140.69213 265.701772 
L 141.787752 265.424086 
L 142.883373 264.452185 
L 143.978994 264.174499 
L 145.074616 263.619127 
L 146.170237 263.341441 
L 147.265859 262.091854 
L 148.36148 261.397639 
L 150.552723 260.286896 
L 152.743966 258.898466 
L 153.839587 257.787722 
L 154.935209 256.954664 
L 156.03083 255.566235 
L 157.126452 255.566235 
L 159.317695 253.48359 
L 160.413316 251.678631 
L 161.508938 250.151358 
L 162.604559 247.374499 
L 163.70018 245.153011 
L 164.795802 245.153011 
L 165.891423 243.070367 
L 166.987045 241.543094 
L 168.082666 239.321606 
L 169.178288 238.766235 
L 170.273909 236.544747 
L 172.465152 236.544747 
L 173.560773 235.434003 
L 174.656395 235.156317 
L 176.847638 233.767887 
L 177.943259 233.629044 
L 180.134502 233.629044 
L 181.230123 232.795987 
L 182.325745 232.657144 
L 183.421366 232.101772 
L 184.516988 232.101772 
L 185.612609 231.407557 
L 186.708231 231.129871 
L 187.803852 231.129871 
L 188.899474 229.741441 
L 191.090716 229.741441 
L 192.186338 229.047226 
L 193.281959 227.381111 
L 195.473202 227.381111 
L 196.568824 227.242268 
L 197.664445 226.825739 
L 198.760067 226.131524 
L 200.951309 225.298466 
L 202.046931 224.326565 
L 203.142552 224.326565 
L 204.238174 223.910036 
L 205.333795 223.354664 
L 208.620659 220.994334 
L 210.811902 220.994334 
L 211.907524 220.161276 
L 213.003145 219.050532 
L 214.098767 218.49516 
L 215.194388 218.217474 
L 216.29001 217.523259 
L 217.385631 217.523259 
L 219.576874 217.245573 
L 220.672495 216.551358 
L 221.768117 214.607557 
L 222.863738 213.913342 
L 223.95936 213.35797 
L 226.150603 213.35797 
L 227.246224 212.663755 
L 228.341845 212.386069 
L 229.437467 211.414168 
L 231.62871 211.136482 
L 233.819953 211.136482 
L 234.915574 210.581111 
L 236.011196 209.886896 
L 237.106817 209.60921 
L 238.202438 209.053838 
L 239.29806 208.637309 
L 241.489303 208.637309 
L 243.680546 207.526565 
L 244.776167 207.110036 
L 246.96741 206.83235 
L 248.063031 206.554664 
L 250.254274 206.276978 
L 251.349896 205.999292 
L 252.445517 205.305077 
L 253.541139 205.305077 
L 254.63676 205.027392 
L 256.828003 205.027392 
L 257.923624 204.888549 
L 259.019246 204.47202 
L 260.114867 203.500119 
L 261.210489 201.834003 
L 262.30611 201.556317 
L 265.592974 201.556317 
L 266.688596 200.584416 
L 269.97546 200.167887 
L 272.166703 200.167887 
L 273.262325 199.890201 
L 274.357946 199.057144 
L 275.453567 198.779458 
L 276.549189 198.085243 
L 279.836053 198.085243 
L 280.931675 197.9464 
L 283.122917 197.391028 
L 284.218539 197.391028 
L 285.31416 196.835656 
L 288.601025 196.835656 
L 289.696646 196.280284 
L 291.887889 194.891854 
L 292.98351 194.475325 
L 295.174753 194.475325 
L 296.270375 194.336482 
L 297.365996 193.642268 
L 300.652861 192.80921 
L 303.939725 192.80921 
L 306.130968 192.531524 
L 307.226589 192.114995 
L 308.322211 191.837309 
L 311.609075 191.42078 
L 312.704696 190.726565 
L 313.800318 190.587722 
L 314.895939 190.03235 
L 315.991561 189.615821 
L 318.182804 189.615821 
L 319.278425 189.476978 
L 320.374046 188.782763 
L 322.565289 186.700119 
L 323.660911 186.28359 
L 325.852154 186.28359 
L 326.947775 185.728218 
L 328.043397 183.645573 
L 330.234639 183.367887 
L 333.521504 183.367887 
L 334.617125 181.562929 
L 335.712747 180.729871 
L 336.808368 180.174499 
L 337.90399 179.202598 
L 338.999611 178.786069 
L 340.095232 178.647226 
L 341.190854 178.647226 
L 342.286475 177.814168 
L 343.382097 176.564582 
L 344.477718 175.870367 
L 345.57334 175.314995 
L 346.668961 174.481937 
L 348.860204 174.481937 
L 349.955825 173.371193 
L 352.147068 171.84392 
L 354.338311 171.010863 
L 355.433933 170.733177 
L 356.529554 170.594334 
L 358.720797 168.372846 
L 359.816418 167.539788 
L 360.91204 167.400945 
L 362.007661 166.845573 
L 363.103283 166.70673 
L 364.198904 166.70673 
L 365.294526 166.012515 
L 366.390147 165.873673 
L 367.485768 165.179458 
L 371.868254 165.179458 
L 372.963876 164.485243 
L 374.059497 163.096813 
L 375.155119 160.181111 
L 379.537604 160.181111 
L 381.728847 159.348053 
L 382.824469 157.959623 
L 383.92009 157.265408 
L 385.015712 156.710036 
L 387.206954 156.710036 
L 388.302576 155.321606 
L 389.398197 155.182763 
L 390.493819 153.655491 
L 391.58944 153.238962 
L 392.685062 152.267061 
L 394.876304 152.267061 
L 395.971926 151.572846 
L 398.163169 149.629044 
L 399.25879 146.15797 
L 401.450033 145.602598 
L 404.736897 145.602598 
L 405.832519 144.76954 
L 406.92814 144.214168 
L 408.023762 143.936482 
L 409.119383 143.797639 
L 410.215005 143.797639 
L 412.406248 143.242268 
L 414.59749 141.576152 
L 415.693112 141.298466 
L 417.884355 141.298466 
L 420.075598 139.771193 
L 421.171219 139.215821 
L 422.266841 138.799292 
L 424.458083 138.521606 
L 425.553705 138.521606 
L 426.649326 137.966235 
L 427.744948 137.688549 
L 428.840569 137.549706 
L 429.936191 137.27202 
L 433.223055 137.27202 
L 434.318676 136.716648 
L 435.414298 136.300119 
L 436.509919 135.328218 
L 437.605541 134.772846 
L 438.701162 134.078631 
L 439.796784 133.800945 
L 440.892405 133.800945 
L 441.988026 133.662102 
L 443.083648 133.384416 
L 444.179269 132.273673 
L 445.274891 131.857144 
L 446.370512 131.579458 
L 448.561755 131.579458 
L 449.657377 130.885243 
L 450.752998 130.607557 
L 451.848619 129.35797 
L 452.944241 128.386069 
L 454.039862 128.108383 
L 456.231105 128.108383 
L 457.326727 127.830697 
L 458.422348 127.136482 
L 459.51797 126.581111 
L 461.709212 124.776152 
L 462.804834 124.637309 
L 463.900455 124.637309 
L 466.091698 122.415821 
L 467.18732 121.860449 
L 468.282941 120.055491 
L 469.378562 119.777805 
L 470.474184 118.944747 
L 471.569805 118.805904 
L 473.761048 116.584416 
L 474.85667 115.195987 
L 475.952291 114.640615 
L 477.047913 113.668714 
L 478.143534 113.113342 
L 479.239155 113.113342 
L 480.334777 112.002598 
L 481.430398 109.919954 
L 482.52602 108.948053 
L 483.621641 105.893507 
L 484.717263 102.144747 
L 486.908506 101.589375 
L 488.004127 98.395987 
L 489.099748 97.1464 
L 490.19537 97.1464 
L 491.290991 96.313342 
L 492.386613 95.202598 
L 493.482234 95.202598 
L 494.577856 94.230697 
L 495.673477 91.453838 
L 496.769099 90.898466 
L 497.86472 90.62078 
L 500.055963 89.23235 
L 501.151584 88.399292 
L 502.247206 87.84392 
L 503.342827 86.316648 
L 504.438449 85.622433 
L 505.53407 83.678631 
L 506.629691 82.845573 
L 509.916556 81.595987 
L 511.012177 80.3464 
L 512.107799 78.819127 
L 513.20342 78.541441 
L 514.299042 77.56954 
L 515.394663 75.20921 
L 516.490284 74.792681 
L 517.585906 74.514995 
L 518.681527 73.265408 
L 519.777149 72.571193 
L 520.87277 71.599292 
L 521.968392 67.989375 
L 523.064013 67.434003 
L 525.255256 67.434003 
L 527.446499 65.767887 
L 528.54212 64.101772 
L 530.733363 62.435656 
L 531.828985 62.296813 
L 532.924606 62.019127 
L 535.115849 60.214168 
L 537.307092 57.853838 
L 538.402713 57.298466 
L 539.498335 57.02078 
L 540.593956 56.465408 
L 542.785199 54.660449 
L 543.88082 54.105077 
L 544.976442 54.105077 
L 546.072063 53.410863 
L 547.167685 52.855491 
L 548.263306 52.855491 
L 549.358928 51.88359 
L 550.454549 50.356317 
L 551.550171 49.245573 
L 552.645792 47.718301 
L 553.741413 47.162929 
L 555.932656 47.162929 
L 557.028278 46.885243 
L 558.123899 42.858796 
L 559.219521 41.470367 
L 560.315142 40.776152 
L 561.410764 39.804251 
L 563.602006 39.804251 
L 564.697628 37.44392 
L 565.793249 36.888549 
L 566.888871 35.500119 
L 567.984492 35.08359 
L 569.080114 34.389375 
L 569.080114 34.389375 
" style="fill:none;stroke:#1f77b4;stroke-linecap:round;stroke-width:1.5;"/>
   </g>
   <g id="patch_3">
    <path d="M 36.44375 298.989375 
L 36.44375 21.789375 
" style="fill:none;stroke:#cccccc;stroke-linecap:square;stroke-linejoin:miter;stroke-width:0.8;"/>
   </g>
   <g id="patch_4">
    <path d="M 594.44375 298.989375 
L 594.44375 21.789375 
" style="fill:none;stroke:#cccccc;stroke-linecap:square;stroke-linejoin:miter;stroke-width:0.8;"/>
   </g>
   <g id="patch_5">
    <path d="M 36.44375 298.989375 
L 594.44375 298.989375 
" style="fill:none;stroke:#cccccc;stroke-linecap:square;stroke-linejoin:miter;stroke-width:0.8;"/>
   </g>
   <g id="patch_6">
    <path d="M 36.44375 21.789375 
L 594.44375 21.789375 
" style="fill:none;stroke:#cccccc;stroke-linecap:square;stroke-linejoin:miter;stroke-width:0.8;"/>
   </g>
   <g id="text_18">
    <!-- Óbitos -->
    <g style="fill:#262626;" transform="translate(298.10375 15.789375)scale(0.12 -0.12)">
     <defs>
      <path d="M 309 2231 
Q 309 3372 921 4017 
Q 1534 4663 2503 4663 
Q 3138 4663 3647 4359 
Q 4156 4056 4423 3514 
Q 4691 2972 4691 2284 
Q 4691 1588 4409 1038 
Q 4128 488 3612 205 
Q 3097 -78 2500 -78 
Q 1853 -78 1343 234 
Q 834 547 571 1087 
Q 309 1628 309 2231 
z
M 934 2222 
Q 934 1394 1379 917 
Q 1825 441 2497 441 
Q 3181 441 3623 922 
Q 4066 1403 4066 2288 
Q 4066 2847 3877 3264 
Q 3688 3681 3323 3911 
Q 2959 4141 2506 4141 
Q 1863 4141 1398 3698 
Q 934 3256 934 2222 
z
M 2118 4883 
L 2533 5758 
L 3271 5758 
L 2583 4883 
L 2118 4883 
z
" id="ArialMT-d3" transform="scale(0.015625)"/>
      <path d="M 941 0 
L 419 0 
L 419 4581 
L 981 4581 
L 981 2947 
Q 1338 3394 1891 3394 
Q 2197 3394 2470 3270 
Q 2744 3147 2920 2923 
Q 3097 2700 3197 2384 
Q 3297 2069 3297 1709 
Q 3297 856 2875 390 
Q 2453 -75 1863 -75 
Q 1275 -75 941 416 
L 941 0 
z
M 934 1684 
Q 934 1088 1097 822 
Q 1363 388 1816 388 
Q 2184 388 2453 708 
Q 2722 1028 2722 1663 
Q 2722 2313 2464 2622 
Q 2206 2931 1841 2931 
Q 1472 2931 1203 2611 
Q 934 2291 934 1684 
z
" id="ArialMT-62" transform="scale(0.015625)"/>
      <path d="M 425 3934 
L 425 4581 
L 988 4581 
L 988 3934 
L 425 3934 
z
M 425 0 
L 425 3319 
L 988 3319 
L 988 0 
L 425 0 
z
" id="ArialMT-69" transform="scale(0.015625)"/>
      <path d="M 1650 503 
L 1731 6 
Q 1494 -44 1306 -44 
Q 1000 -44 831 53 
Q 663 150 594 308 
Q 525 466 525 972 
L 525 2881 
L 113 2881 
L 113 3319 
L 525 3319 
L 525 4141 
L 1084 4478 
L 1084 3319 
L 1650 3319 
L 1650 2881 
L 1084 2881 
L 1084 941 
Q 1084 700 1114 631 
Q 1144 563 1211 522 
Q 1278 481 1403 481 
Q 1497 481 1650 503 
z
" id="ArialMT-74" transform="scale(0.015625)"/>
      <path d="M 213 1659 
Q 213 2581 725 3025 
Q 1153 3394 1769 3394 
Q 2453 3394 2887 2945 
Q 3322 2497 3322 1706 
Q 3322 1066 3130 698 
Q 2938 331 2570 128 
Q 2203 -75 1769 -75 
Q 1072 -75 642 372 
Q 213 819 213 1659 
z
M 791 1659 
Q 791 1022 1069 705 
Q 1347 388 1769 388 
Q 2188 388 2466 706 
Q 2744 1025 2744 1678 
Q 2744 2294 2464 2611 
Q 2184 2928 1769 2928 
Q 1347 2928 1069 2612 
Q 791 2297 791 1659 
z
" id="ArialMT-6f" transform="scale(0.015625)"/>
      <path d="M 197 991 
L 753 1078 
Q 800 744 1014 566 
Q 1228 388 1613 388 
Q 2000 388 2187 545 
Q 2375 703 2375 916 
Q 2375 1106 2209 1216 
Q 2094 1291 1634 1406 
Q 1016 1563 777 1677 
Q 538 1791 414 1992 
Q 291 2194 291 2438 
Q 291 2659 392 2848 
Q 494 3038 669 3163 
Q 800 3259 1026 3326 
Q 1253 3394 1513 3394 
Q 1903 3394 2198 3281 
Q 2494 3169 2634 2976 
Q 2775 2784 2828 2463 
L 2278 2388 
Q 2241 2644 2061 2787 
Q 1881 2931 1553 2931 
Q 1166 2931 1000 2803 
Q 834 2675 834 2503 
Q 834 2394 903 2306 
Q 972 2216 1119 2156 
Q 1203 2125 1616 2013 
Q 2213 1853 2448 1751 
Q 2684 1650 2818 1456 
Q 2953 1263 2953 975 
Q 2953 694 2789 445 
Q 2625 197 2315 61 
Q 2006 -75 1616 -75 
Q 969 -75 630 194 
Q 291 463 197 991 
z
" id="ArialMT-73" transform="scale(0.015625)"/>
     </defs>
     <use xlink:href="#ArialMT-d3"/>
     <use x="77.783203" xlink:href="#ArialMT-62"/>
     <use x="133.398438" xlink:href="#ArialMT-69"/>
     <use x="155.615234" xlink:href="#ArialMT-74"/>
     <use x="183.398438" xlink:href="#ArialMT-6f"/>
     <use x="239.013672" xlink:href="#ArialMT-73"/>
    </g>
   </g>
  </g>
 </g>
 <defs>
  <clipPath id="pb60007df69">
   <rect height="277.2" width="558" x="36.44375" y="21.789375"/>
  </clipPath>
 </defs>
</svg>
