<?xml version="1.0" encoding="utf-8" standalone="no"?>
<!DOCTYPE svg PUBLIC "-//W3C//DTD SVG 1.1//EN"
  "http://www.w3.org/Graphics/SVG/1.1/DTD/svg11.dtd">
<svg height="340.273125pt" version="1.1" viewBox="0 0 705.6 340.273125" width="705.6pt" xmlns="http://www.w3.org/2000/svg" xmlns:xlink="http://www.w3.org/1999/xlink">
 <metadata>
  <rdf:RDF xmlns:cc="http://creativecommons.org/ns#" xmlns:dc="http://purl.org/dc/elements/1.1/" xmlns:rdf="http://www.w3.org/1999/02/22-rdf-syntax-ns#">
   <cc:Work>
    <dc:type rdf:resource="http://purl.org/dc/dcmitype/StillImage"/>
    <dc:date>2021-11-22T18:12:45.893311</dc:date>
    <dc:format>image/svg+xml</dc:format>
    <dc:creator>
     <cc:Agent>
      <dc:title>Matplotlib v3.4.2, https://matplotlib.org/</dc:title>
     </cc:Agent>
    </dc:creator>
   </cc:Work>
  </rdf:RDF>
 </metadata>
 <defs>
  <style type="text/css">*{stroke-linecap:butt;stroke-linejoin:round;}</style>
 </defs>
 <g id="figure_1">
  <g id="patch_1">
   <path d="M 0 340.273125 
L 705.6 340.273125 
L 705.6 0 
L 0 0 
z
" style="fill:#ffffff;"/>
  </g>
  <g id="axes_1">
   <g id="patch_2">
    <path d="M 82.8 298.989375 
L 640.8 298.989375 
L 640.8 21.789375 
L 82.8 21.789375 
z
" style="fill:#ffffff;"/>
   </g>
   <g id="matplotlib.axis_1">
    <g id="xtick_1">
     <g id="line2d_1">
      <path clip-path="url(#p40ad8b4068)" d="M 93.268189 298.989375 
L 93.268189 21.789375 
" style="fill:none;stroke:#cccccc;stroke-linecap:round;stroke-width:0.8;"/>
     </g>
     <g id="text_1">
      <!-- 2020-03 -->
      <g style="fill:#262626;" transform="translate(74.920533 313.147188)scale(0.1 -0.1)">
       <defs>
        <path d="M 3222 541 
L 3222 0 
L 194 0 
Q 188 203 259 391 
Q 375 700 629 1000 
Q 884 1300 1366 1694 
Q 2113 2306 2375 2664 
Q 2638 3022 2638 3341 
Q 2638 3675 2398 3904 
Q 2159 4134 1775 4134 
Q 1369 4134 1125 3890 
Q 881 3647 878 3216 
L 300 3275 
Q 359 3922 746 4261 
Q 1134 4600 1788 4600 
Q 2447 4600 2831 4234 
Q 3216 3869 3216 3328 
Q 3216 3053 3103 2787 
Q 2991 2522 2730 2228 
Q 2469 1934 1863 1422 
Q 1356 997 1212 845 
Q 1069 694 975 541 
L 3222 541 
z
" id="ArialMT-32" transform="scale(0.015625)"/>
        <path d="M 266 2259 
Q 266 3072 433 3567 
Q 600 4063 929 4331 
Q 1259 4600 1759 4600 
Q 2128 4600 2406 4451 
Q 2684 4303 2865 4023 
Q 3047 3744 3150 3342 
Q 3253 2941 3253 2259 
Q 3253 1453 3087 958 
Q 2922 463 2592 192 
Q 2263 -78 1759 -78 
Q 1097 -78 719 397 
Q 266 969 266 2259 
z
M 844 2259 
Q 844 1131 1108 757 
Q 1372 384 1759 384 
Q 2147 384 2411 759 
Q 2675 1134 2675 2259 
Q 2675 3391 2411 3762 
Q 2147 4134 1753 4134 
Q 1366 4134 1134 3806 
Q 844 3388 844 2259 
z
" id="ArialMT-30" transform="scale(0.015625)"/>
        <path d="M 203 1375 
L 203 1941 
L 1931 1941 
L 1931 1375 
L 203 1375 
z
" id="ArialMT-2d" transform="scale(0.015625)"/>
        <path d="M 269 1209 
L 831 1284 
Q 928 806 1161 595 
Q 1394 384 1728 384 
Q 2125 384 2398 659 
Q 2672 934 2672 1341 
Q 2672 1728 2419 1979 
Q 2166 2231 1775 2231 
Q 1616 2231 1378 2169 
L 1441 2663 
Q 1497 2656 1531 2656 
Q 1891 2656 2178 2843 
Q 2466 3031 2466 3422 
Q 2466 3731 2256 3934 
Q 2047 4138 1716 4138 
Q 1388 4138 1169 3931 
Q 950 3725 888 3313 
L 325 3413 
Q 428 3978 793 4289 
Q 1159 4600 1703 4600 
Q 2078 4600 2393 4439 
Q 2709 4278 2876 4000 
Q 3044 3722 3044 3409 
Q 3044 3113 2884 2869 
Q 2725 2625 2413 2481 
Q 2819 2388 3044 2092 
Q 3269 1797 3269 1353 
Q 3269 753 2831 336 
Q 2394 -81 1725 -81 
Q 1122 -81 723 278 
Q 325 638 269 1209 
z
" id="ArialMT-33" transform="scale(0.015625)"/>
       </defs>
       <use xlink:href="#ArialMT-32"/>
       <use x="55.615234" xlink:href="#ArialMT-30"/>
       <use x="111.230469" xlink:href="#ArialMT-32"/>
       <use x="166.845703" xlink:href="#ArialMT-30"/>
       <use x="222.460938" xlink:href="#ArialMT-2d"/>
       <use x="255.761719" xlink:href="#ArialMT-30"/>
       <use x="311.376953" xlink:href="#ArialMT-33"/>
      </g>
     </g>
    </g>
    <g id="xtick_2">
     <g id="line2d_2">
      <path clip-path="url(#p40ad8b4068)" d="M 143.747205 298.989375 
L 143.747205 21.789375 
" style="fill:none;stroke:#cccccc;stroke-linecap:round;stroke-width:0.8;"/>
     </g>
     <g id="text_2">
      <!-- 2020-05 -->
      <g style="fill:#262626;" transform="translate(125.399548 313.147188)scale(0.1 -0.1)">
       <defs>
        <path d="M 266 1200 
L 856 1250 
Q 922 819 1161 601 
Q 1400 384 1738 384 
Q 2144 384 2425 690 
Q 2706 997 2706 1503 
Q 2706 1984 2436 2262 
Q 2166 2541 1728 2541 
Q 1456 2541 1237 2417 
Q 1019 2294 894 2097 
L 366 2166 
L 809 4519 
L 3088 4519 
L 3088 3981 
L 1259 3981 
L 1013 2750 
Q 1425 3038 1878 3038 
Q 2478 3038 2890 2622 
Q 3303 2206 3303 1553 
Q 3303 931 2941 478 
Q 2500 -78 1738 -78 
Q 1113 -78 717 272 
Q 322 622 266 1200 
z
" id="ArialMT-35" transform="scale(0.015625)"/>
       </defs>
       <use xlink:href="#ArialMT-32"/>
       <use x="55.615234" xlink:href="#ArialMT-30"/>
       <use x="111.230469" xlink:href="#ArialMT-32"/>
       <use x="166.845703" xlink:href="#ArialMT-30"/>
       <use x="222.460938" xlink:href="#ArialMT-2d"/>
       <use x="255.761719" xlink:href="#ArialMT-30"/>
       <use x="311.376953" xlink:href="#ArialMT-35"/>
      </g>
     </g>
    </g>
    <g id="xtick_3">
     <g id="line2d_3">
      <path clip-path="url(#p40ad8b4068)" d="M 194.22622 298.989375 
L 194.22622 21.789375 
" style="fill:none;stroke:#cccccc;stroke-linecap:round;stroke-width:0.8;"/>
     </g>
     <g id="text_3">
      <!-- 2020-07 -->
      <g style="fill:#262626;" transform="translate(175.878564 313.147188)scale(0.1 -0.1)">
       <defs>
        <path d="M 303 3981 
L 303 4522 
L 3269 4522 
L 3269 4084 
Q 2831 3619 2401 2847 
Q 1972 2075 1738 1259 
Q 1569 684 1522 0 
L 944 0 
Q 953 541 1156 1306 
Q 1359 2072 1739 2783 
Q 2119 3494 2547 3981 
L 303 3981 
z
" id="ArialMT-37" transform="scale(0.015625)"/>
       </defs>
       <use xlink:href="#ArialMT-32"/>
       <use x="55.615234" xlink:href="#ArialMT-30"/>
       <use x="111.230469" xlink:href="#ArialMT-32"/>
       <use x="166.845703" xlink:href="#ArialMT-30"/>
       <use x="222.460938" xlink:href="#ArialMT-2d"/>
       <use x="255.761719" xlink:href="#ArialMT-30"/>
       <use x="311.376953" xlink:href="#ArialMT-37"/>
      </g>
     </g>
    </g>
    <g id="xtick_4">
     <g id="line2d_4">
      <path clip-path="url(#p40ad8b4068)" d="M 245.53276 298.989375 
L 245.53276 21.789375 
" style="fill:none;stroke:#cccccc;stroke-linecap:round;stroke-width:0.8;"/>
     </g>
     <g id="text_4">
      <!-- 2020-09 -->
      <g style="fill:#262626;" transform="translate(227.185104 313.147188)scale(0.1 -0.1)">
       <defs>
        <path d="M 350 1059 
L 891 1109 
Q 959 728 1153 556 
Q 1347 384 1650 384 
Q 1909 384 2104 503 
Q 2300 622 2425 820 
Q 2550 1019 2634 1356 
Q 2719 1694 2719 2044 
Q 2719 2081 2716 2156 
Q 2547 1888 2255 1720 
Q 1963 1553 1622 1553 
Q 1053 1553 659 1965 
Q 266 2378 266 3053 
Q 266 3750 677 4175 
Q 1088 4600 1706 4600 
Q 2153 4600 2523 4359 
Q 2894 4119 3086 3673 
Q 3278 3228 3278 2384 
Q 3278 1506 3087 986 
Q 2897 466 2520 194 
Q 2144 -78 1638 -78 
Q 1100 -78 759 220 
Q 419 519 350 1059 
z
M 2653 3081 
Q 2653 3566 2395 3850 
Q 2138 4134 1775 4134 
Q 1400 4134 1122 3828 
Q 844 3522 844 3034 
Q 844 2597 1108 2323 
Q 1372 2050 1759 2050 
Q 2150 2050 2401 2323 
Q 2653 2597 2653 3081 
z
" id="ArialMT-39" transform="scale(0.015625)"/>
       </defs>
       <use xlink:href="#ArialMT-32"/>
       <use x="55.615234" xlink:href="#ArialMT-30"/>
       <use x="111.230469" xlink:href="#ArialMT-32"/>
       <use x="166.845703" xlink:href="#ArialMT-30"/>
       <use x="222.460938" xlink:href="#ArialMT-2d"/>
       <use x="255.761719" xlink:href="#ArialMT-30"/>
       <use x="311.376953" xlink:href="#ArialMT-39"/>
      </g>
     </g>
    </g>
    <g id="xtick_5">
     <g id="line2d_5">
      <path clip-path="url(#p40ad8b4068)" d="M 296.011775 298.989375 
L 296.011775 21.789375 
" style="fill:none;stroke:#cccccc;stroke-linecap:round;stroke-width:0.8;"/>
     </g>
     <g id="text_5">
      <!-- 2020-11 -->
      <g style="fill:#262626;" transform="translate(278.032869 313.147188)scale(0.1 -0.1)">
       <defs>
        <path d="M 2384 0 
L 1822 0 
L 1822 3584 
Q 1619 3391 1289 3197 
Q 959 3003 697 2906 
L 697 3450 
Q 1169 3672 1522 3987 
Q 1875 4303 2022 4600 
L 2384 4600 
L 2384 0 
z
" id="ArialMT-31" transform="scale(0.015625)"/>
       </defs>
       <use xlink:href="#ArialMT-32"/>
       <use x="55.615234" xlink:href="#ArialMT-30"/>
       <use x="111.230469" xlink:href="#ArialMT-32"/>
       <use x="166.845703" xlink:href="#ArialMT-30"/>
       <use x="222.460938" xlink:href="#ArialMT-2d"/>
       <use x="255.761719" xlink:href="#ArialMT-31"/>
       <use x="304.001953" xlink:href="#ArialMT-31"/>
      </g>
     </g>
    </g>
    <g id="xtick_6">
     <g id="line2d_6">
      <path clip-path="url(#p40ad8b4068)" d="M 346.49079 298.989375 
L 346.49079 21.789375 
" style="fill:none;stroke:#cccccc;stroke-linecap:round;stroke-width:0.8;"/>
     </g>
     <g id="text_6">
      <!-- 2021-01 -->
      <g style="fill:#262626;" transform="translate(328.143134 313.147188)scale(0.1 -0.1)">
       <use xlink:href="#ArialMT-32"/>
       <use x="55.615234" xlink:href="#ArialMT-30"/>
       <use x="111.230469" xlink:href="#ArialMT-32"/>
       <use x="166.845703" xlink:href="#ArialMT-31"/>
       <use x="222.460938" xlink:href="#ArialMT-2d"/>
       <use x="255.761719" xlink:href="#ArialMT-30"/>
       <use x="311.376953" xlink:href="#ArialMT-31"/>
      </g>
     </g>
    </g>
    <g id="xtick_7">
     <g id="line2d_7">
      <path clip-path="url(#p40ad8b4068)" d="M 395.314756 298.989375 
L 395.314756 21.789375 
" style="fill:none;stroke:#cccccc;stroke-linecap:round;stroke-width:0.8;"/>
     </g>
     <g id="text_7">
      <!-- 2021-03 -->
      <g style="fill:#262626;" transform="translate(376.9671 313.147188)scale(0.1 -0.1)">
       <use xlink:href="#ArialMT-32"/>
       <use x="55.615234" xlink:href="#ArialMT-30"/>
       <use x="111.230469" xlink:href="#ArialMT-32"/>
       <use x="166.845703" xlink:href="#ArialMT-31"/>
       <use x="222.460938" xlink:href="#ArialMT-2d"/>
       <use x="255.761719" xlink:href="#ArialMT-30"/>
       <use x="311.376953" xlink:href="#ArialMT-33"/>
      </g>
     </g>
    </g>
    <g id="xtick_8">
     <g id="line2d_8">
      <path clip-path="url(#p40ad8b4068)" d="M 445.793771 298.989375 
L 445.793771 21.789375 
" style="fill:none;stroke:#cccccc;stroke-linecap:round;stroke-width:0.8;"/>
     </g>
     <g id="text_8">
      <!-- 2021-05 -->
      <g style="fill:#262626;" transform="translate(427.446115 313.147188)scale(0.1 -0.1)">
       <use xlink:href="#ArialMT-32"/>
       <use x="55.615234" xlink:href="#ArialMT-30"/>
       <use x="111.230469" xlink:href="#ArialMT-32"/>
       <use x="166.845703" xlink:href="#ArialMT-31"/>
       <use x="222.460938" xlink:href="#ArialMT-2d"/>
       <use x="255.761719" xlink:href="#ArialMT-30"/>
       <use x="311.376953" xlink:href="#ArialMT-35"/>
      </g>
     </g>
    </g>
    <g id="xtick_9">
     <g id="line2d_9">
      <path clip-path="url(#p40ad8b4068)" d="M 496.272787 298.989375 
L 496.272787 21.789375 
" style="fill:none;stroke:#cccccc;stroke-linecap:round;stroke-width:0.8;"/>
     </g>
     <g id="text_9">
      <!-- 2021-07 -->
      <g style="fill:#262626;" transform="translate(477.92513 313.147188)scale(0.1 -0.1)">
       <use xlink:href="#ArialMT-32"/>
       <use x="55.615234" xlink:href="#ArialMT-30"/>
       <use x="111.230469" xlink:href="#ArialMT-32"/>
       <use x="166.845703" xlink:href="#ArialMT-31"/>
       <use x="222.460938" xlink:href="#ArialMT-2d"/>
       <use x="255.761719" xlink:href="#ArialMT-30"/>
       <use x="311.376953" xlink:href="#ArialMT-37"/>
      </g>
     </g>
    </g>
    <g id="xtick_10">
     <g id="line2d_10">
      <path clip-path="url(#p40ad8b4068)" d="M 547.579327 298.989375 
L 547.579327 21.789375 
" style="fill:none;stroke:#cccccc;stroke-linecap:round;stroke-width:0.8;"/>
     </g>
     <g id="text_10">
      <!-- 2021-09 -->
      <g style="fill:#262626;" transform="translate(529.23167 313.147188)scale(0.1 -0.1)">
       <use xlink:href="#ArialMT-32"/>
       <use x="55.615234" xlink:href="#ArialMT-30"/>
       <use x="111.230469" xlink:href="#ArialMT-32"/>
       <use x="166.845703" xlink:href="#ArialMT-31"/>
       <use x="222.460938" xlink:href="#ArialMT-2d"/>
       <use x="255.761719" xlink:href="#ArialMT-30"/>
       <use x="311.376953" xlink:href="#ArialMT-39"/>
      </g>
     </g>
    </g>
    <g id="xtick_11">
     <g id="line2d_11">
      <path clip-path="url(#p40ad8b4068)" d="M 598.058342 298.989375 
L 598.058342 21.789375 
" style="fill:none;stroke:#cccccc;stroke-linecap:round;stroke-width:0.8;"/>
     </g>
     <g id="text_11">
      <!-- 2021-11 -->
      <g style="fill:#262626;" transform="translate(580.079436 313.147188)scale(0.1 -0.1)">
       <use xlink:href="#ArialMT-32"/>
       <use x="55.615234" xlink:href="#ArialMT-30"/>
       <use x="111.230469" xlink:href="#ArialMT-32"/>
       <use x="166.845703" xlink:href="#ArialMT-31"/>
       <use x="222.460938" xlink:href="#ArialMT-2d"/>
       <use x="255.761719" xlink:href="#ArialMT-31"/>
       <use x="304.001953" xlink:href="#ArialMT-31"/>
      </g>
     </g>
    </g>
   </g>
   <g id="matplotlib.axis_2">
    <g id="ytick_1">
     <g id="line2d_12">
      <path clip-path="url(#p40ad8b4068)" d="M 82.8 286.389375 
L 640.8 286.389375 
" style="fill:none;stroke:#cccccc;stroke-linecap:round;stroke-width:0.8;"/>
     </g>
     <g id="text_12">
      <!-- 0 -->
      <g style="fill:#262626;" transform="translate(70.239063 289.968281)scale(0.1 -0.1)">
       <use xlink:href="#ArialMT-30"/>
      </g>
     </g>
    </g>
    <g id="ytick_2">
     <g id="line2d_13">
      <path clip-path="url(#p40ad8b4068)" d="M 82.8 228.136948 
L 640.8 228.136948 
" style="fill:none;stroke:#cccccc;stroke-linecap:round;stroke-width:0.8;"/>
     </g>
     <g id="text_13">
      <!-- 500 -->
      <g style="fill:#262626;" transform="translate(59.117188 231.715854)scale(0.1 -0.1)">
       <use xlink:href="#ArialMT-35"/>
       <use x="55.615234" xlink:href="#ArialMT-30"/>
       <use x="111.230469" xlink:href="#ArialMT-30"/>
      </g>
     </g>
    </g>
    <g id="ytick_3">
     <g id="line2d_14">
      <path clip-path="url(#p40ad8b4068)" d="M 82.8 169.884521 
L 640.8 169.884521 
" style="fill:none;stroke:#cccccc;stroke-linecap:round;stroke-width:0.8;"/>
     </g>
     <g id="text_14">
      <!-- 1000 -->
      <g style="fill:#262626;" transform="translate(53.55625 173.463427)scale(0.1 -0.1)">
       <use xlink:href="#ArialMT-31"/>
       <use x="55.615234" xlink:href="#ArialMT-30"/>
       <use x="111.230469" xlink:href="#ArialMT-30"/>
       <use x="166.845703" xlink:href="#ArialMT-30"/>
      </g>
     </g>
    </g>
    <g id="ytick_4">
     <g id="line2d_15">
      <path clip-path="url(#p40ad8b4068)" d="M 82.8 111.632093 
L 640.8 111.632093 
" style="fill:none;stroke:#cccccc;stroke-linecap:round;stroke-width:0.8;"/>
     </g>
     <g id="text_15">
      <!-- 1500 -->
      <g style="fill:#262626;" transform="translate(53.55625 115.211)scale(0.1 -0.1)">
       <use xlink:href="#ArialMT-31"/>
       <use x="55.615234" xlink:href="#ArialMT-35"/>
       <use x="111.230469" xlink:href="#ArialMT-30"/>
       <use x="166.845703" xlink:href="#ArialMT-30"/>
      </g>
     </g>
    </g>
    <g id="ytick_5">
     <g id="line2d_16">
      <path clip-path="url(#p40ad8b4068)" d="M 82.8 53.379666 
L 640.8 53.379666 
" style="fill:none;stroke:#cccccc;stroke-linecap:round;stroke-width:0.8;"/>
     </g>
     <g id="text_16">
      <!-- 2000 -->
      <g style="fill:#262626;" transform="translate(53.55625 56.958573)scale(0.1 -0.1)">
       <use xlink:href="#ArialMT-32"/>
       <use x="55.615234" xlink:href="#ArialMT-30"/>
       <use x="111.230469" xlink:href="#ArialMT-30"/>
       <use x="166.845703" xlink:href="#ArialMT-30"/>
      </g>
     </g>
    </g>
   </g>
   <g id="line2d_17">
    <path clip-path="url(#p40ad8b4068)" d="M 108.163636 286.389375 
L 118.093934 286.389375 
L 118.921459 286.27287 
L 119.748984 285.923356 
L 122.231559 285.923356 
L 123.059083 285.806851 
L 123.886608 285.224326 
L 125.541658 285.224326 
L 127.196708 284.758307 
L 128.024233 284.758307 
L 128.851757 284.641802 
L 130.506807 283.942773 
L 131.334332 283.826268 
L 132.161857 283.826268 
L 132.989382 283.709763 
L 133.816906 283.709763 
L 134.644431 283.476754 
L 135.471956 283.360249 
L 137.954531 282.311705 
L 139.60958 282.311705 
L 140.437105 281.263161 
L 141.26463 280.564132 
L 142.91968 280.331123 
L 143.747205 280.098113 
L 145.402254 279.865103 
L 147.057304 279.399084 
L 147.884829 279.282579 
L 148.712354 279.049569 
L 149.539878 278.467045 
L 150.367403 278.35054 
L 151.194928 278.35054 
L 152.022453 278.11753 
L 152.849978 278.001025 
L 154.505027 277.068987 
L 155.332552 276.835977 
L 156.987602 276.253453 
L 157.815127 275.554424 
L 158.642652 275.088404 
L 159.470176 274.855394 
L 160.297701 274.27287 
L 161.125226 274.27287 
L 161.952751 273.923356 
L 162.780276 273.923356 
L 164.435326 272.408792 
L 165.26285 270.42821 
L 166.9179 269.729181 
L 167.745425 269.030152 
L 168.57295 268.797142 
L 169.400475 267.981608 
L 170.227999 267.748598 
L 171.055524 267.282579 
L 171.883049 267.049569 
L 172.710574 266.001025 
L 174.365624 264.952482 
L 176.020673 263.903938 
L 176.848198 263.321414 
L 177.675723 262.389375 
L 178.503248 261.690346 
L 179.330773 260.525297 
L 180.158297 260.525297 
L 181.813347 258.777725 
L 182.640872 257.263161 
L 183.468397 255.981608 
L 184.295922 253.651511 
L 185.123447 251.787433 
L 185.950971 251.787433 
L 186.778496 250.03986 
L 187.606021 248.758307 
L 188.433546 246.894229 
L 189.261071 246.42821 
L 190.088596 244.564132 
L 191.743645 244.564132 
L 192.57117 243.632093 
L 193.398695 243.399084 
L 195.053745 242.234035 
L 195.881269 242.11753 
L 197.536319 242.11753 
L 198.363844 241.418501 
L 199.191369 241.301996 
L 200.018894 240.835977 
L 200.846419 240.835977 
L 201.673943 240.253453 
L 202.501468 240.020443 
L 203.328993 240.020443 
L 204.156518 238.855394 
L 205.811568 238.855394 
L 206.639092 238.27287 
L 207.466617 236.874812 
L 209.121667 236.874812 
L 209.949192 236.758307 
L 210.776717 236.408792 
L 211.604241 235.826268 
L 213.259291 235.127239 
L 214.086816 234.311705 
L 214.914341 234.311705 
L 216.56939 233.496171 
L 219.051965 231.515589 
L 220.707015 231.515589 
L 221.53454 230.816559 
L 222.362064 229.884521 
L 223.189589 229.418501 
L 224.017114 229.185492 
L 224.844639 228.602967 
L 225.672164 228.602967 
L 227.327213 228.369958 
L 228.154738 227.787433 
L 228.982263 226.156365 
L 230.637313 225.107822 
L 232.292362 225.107822 
L 233.119887 224.525297 
L 233.947412 224.292288 
L 234.774937 223.476754 
L 236.429987 223.243744 
L 238.085036 223.243744 
L 241.395136 221.496171 
L 242.222661 221.146657 
L 243.87771 221.146657 
L 246.360285 219.865103 
L 248.015334 219.632093 
L 248.842859 219.399084 
L 250.497909 219.166074 
L 251.325434 218.933064 
L 252.152959 218.35054 
L 252.980483 218.35054 
L 253.808008 218.11753 
L 255.463058 218.11753 
L 256.290583 218.001025 
L 257.118108 217.651511 
L 257.945633 216.835977 
L 258.773157 215.437919 
L 259.600682 215.204909 
L 262.083257 215.204909 
L 262.910782 214.389375 
L 265.393356 214.03986 
L 267.048406 214.03986 
L 267.875931 213.806851 
L 268.703455 213.107822 
L 269.53098 212.874812 
L 270.358505 212.292288 
L 272.84108 212.292288 
L 273.668604 212.175783 
L 275.323654 211.709763 
L 276.151179 211.709763 
L 276.978704 211.243744 
L 279.461278 211.243744 
L 281.116328 210.1952 
L 281.943853 209.612676 
L 282.771378 209.263161 
L 284.426427 209.263161 
L 285.253952 209.146657 
L 286.081477 208.564132 
L 288.564052 207.865103 
L 291.046626 207.865103 
L 292.701676 207.632093 
L 294.356725 207.049569 
L 296.8393 206.700055 
L 297.666825 206.11753 
L 298.49435 206.001025 
L 300.149399 205.185492 
L 301.804449 205.185492 
L 302.631974 205.068987 
L 303.459499 204.486462 
L 305.114548 202.73889 
L 305.942073 202.389375 
L 307.597123 202.389375 
L 308.424648 201.923356 
L 309.252173 200.175783 
L 310.907222 199.942773 
L 313.389797 199.942773 
L 314.217322 198.42821 
L 315.044847 197.729181 
L 315.872371 197.263161 
L 316.699896 196.447627 
L 317.527421 196.098113 
L 318.354946 195.981608 
L 319.182471 195.981608 
L 320.009996 195.282579 
L 320.83752 194.234035 
L 323.320095 192.486462 
L 324.975145 192.486462 
L 325.802669 191.554424 
L 327.457719 190.27287 
L 329.940294 189.340831 
L 330.767818 189.224326 
L 332.422868 187.360249 
L 333.250393 186.66122 
L 334.077918 186.544715 
L 334.905443 186.078695 
L 335.732968 185.962191 
L 336.560492 185.962191 
L 337.388017 185.379666 
L 338.215542 185.263161 
L 339.043067 184.680637 
L 342.353166 184.680637 
L 343.180691 184.098113 
L 344.008216 182.933064 
L 344.835741 180.486462 
L 348.14584 180.486462 
L 349.80089 179.787433 
L 350.628415 178.622385 
L 352.283464 177.573841 
L 353.938514 177.573841 
L 354.766039 176.408792 
L 355.593564 176.292288 
L 356.421089 175.010734 
L 357.248613 174.66122 
L 358.076138 173.845686 
L 359.731188 173.845686 
L 360.558713 173.263161 
L 362.213762 171.632093 
L 363.041287 168.719472 
L 364.696337 168.253453 
L 367.178911 168.253453 
L 368.006436 167.554424 
L 368.833961 167.088404 
L 369.661486 166.855394 
L 370.489011 166.73889 
L 371.316536 166.73889 
L 372.971585 166.27287 
L 374.626635 164.874812 
L 375.45416 164.641802 
L 377.10921 164.641802 
L 378.764259 163.360249 
L 380.419309 162.544715 
L 382.074359 162.311705 
L 382.901883 162.311705 
L 383.729408 161.845686 
L 384.556933 161.612676 
L 385.384458 161.496171 
L 386.211983 161.263161 
L 388.694557 161.263161 
L 390.349607 160.447627 
L 391.177132 159.632093 
L 393.659706 158.35054 
L 394.487231 158.35054 
L 395.314756 158.234035 
L 396.142281 158.001025 
L 396.969806 157.068987 
L 398.624855 156.486462 
L 400.279905 156.486462 
L 401.10743 155.903938 
L 401.934955 155.670928 
L 402.76248 154.622385 
L 403.590004 153.806851 
L 404.417529 153.573841 
L 406.072579 153.573841 
L 406.900104 153.340831 
L 409.382678 151.593258 
L 410.210203 150.777725 
L 411.037728 150.66122 
L 411.865253 150.66122 
L 413.520303 148.797142 
L 414.347827 148.331123 
L 415.175352 146.816559 
L 416.002877 146.58355 
L 416.830402 145.884521 
L 417.657927 145.768016 
L 419.312976 143.903938 
L 420.140501 142.73889 
L 420.968026 142.27287 
L 421.795551 141.457336 
L 422.623076 140.991317 
L 423.450601 140.991317 
L 424.278125 140.059278 
L 425.10565 138.311705 
L 425.933175 137.496171 
L 426.7607 134.933064 
L 427.588225 131.787433 
L 429.243275 131.321414 
L 430.070799 128.641802 
L 430.898324 127.593258 
L 431.725849 127.593258 
L 432.553374 126.894229 
L 433.380899 125.962191 
L 434.208424 125.962191 
L 435.035948 125.146657 
L 435.863473 122.816559 
L 436.690998 122.35054 
L 437.518523 122.11753 
L 440.828622 119.787433 
L 441.656147 118.50588 
L 442.483672 117.923356 
L 443.311197 116.292288 
L 444.138722 115.593258 
L 446.621296 114.544715 
L 447.448821 113.496171 
L 448.276346 112.214618 
L 449.103871 111.981608 
L 449.931396 111.166074 
L 450.75892 109.185492 
L 452.41397 108.602967 
L 453.241495 107.554424 
L 454.06902 106.971899 
L 454.896545 106.156365 
L 455.724069 103.127239 
L 456.551594 102.66122 
L 458.206644 102.66122 
L 459.861694 101.263161 
L 460.689218 99.865103 
L 462.344268 98.467045 
L 463.171793 98.35054 
L 463.999318 98.11753 
L 465.654367 96.602967 
L 467.309417 94.622385 
L 468.136942 94.156365 
L 468.964467 93.923356 
L 469.791992 93.457336 
L 471.447041 91.942773 
L 472.274566 91.476754 
L 473.102091 91.476754 
L 474.757141 90.42821 
L 475.584666 90.42821 
L 476.41219 89.612676 
L 477.239715 88.331123 
L 478.06724 87.399084 
L 478.894765 86.11753 
L 479.72229 85.651511 
L 481.377339 85.651511 
L 482.204864 85.418501 
L 483.032389 82.03986 
L 483.859914 80.874812 
L 484.687439 80.292288 
L 485.514964 79.476754 
L 487.170013 79.476754 
L 487.997538 77.496171 
L 488.825063 77.030152 
L 489.652588 75.865103 
L 490.480113 75.515589 
L 491.307638 74.933064 
L 492.962687 74.933064 
L 494.617737 74.001025 
L 495.445262 73.185492 
L 496.272787 72.136948 
L 497.100311 71.903938 
L 498.755361 71.903938 
L 499.582886 70.156365 
L 500.410411 68.758307 
L 501.237936 67.127239 
L 502.06546 66.894229 
L 504.548035 66.894229 
L 506.203085 64.680637 
L 507.03061 62.933064 
L 508.685659 61.884521 
L 510.340709 61.884521 
L 511.168234 60.952482 
L 511.995759 60.486462 
L 513.650808 58.27287 
L 514.478333 57.923356 
L 516.133383 57.923356 
L 518.615957 56.641802 
L 519.443482 56.525297 
L 521.926057 56.525297 
L 522.753581 55.942773 
L 523.581106 55.709763 
L 524.408631 55.243744 
L 525.236156 55.127239 
L 526.063681 54.311705 
L 527.718731 54.311705 
L 529.37378 52.564132 
L 530.201305 52.331123 
L 531.856355 50.700055 
L 533.511404 50.700055 
L 534.338929 50.467045 
L 535.993979 48.719472 
L 537.649029 47.787433 
L 539.304078 47.787433 
L 540.131603 47.437919 
L 540.959128 46.73889 
L 543.441703 45.690346 
L 545.924277 45.690346 
L 549.234376 45.224326 
L 550.889426 45.224326 
L 553.372001 44.874812 
L 554.199525 44.874812 
L 555.02705 44.292288 
L 556.6821 44.292288 
L 557.509625 43.709763 
L 558.33715 43.360249 
L 559.164674 42.777725 
L 560.819724 42.311705 
L 562.474774 42.311705 
L 564.129824 40.797142 
L 564.957348 40.331123 
L 566.612398 39.865103 
L 568.267448 39.865103 
L 569.094973 39.748598 
L 569.922497 39.515589 
L 570.750022 39.399084 
L 571.577547 39.166074 
L 572.405072 38.816559 
L 574.060122 38.816559 
L 574.887646 38.58355 
L 575.715171 38.58355 
L 576.542696 38.467045 
L 581.507845 38.467045 
L 582.33537 38.35054 
L 583.162895 38.11753 
L 583.99042 38.001025 
L 588.128044 38.001025 
L 588.955569 37.651511 
L 589.783094 37.535006 
L 591.438143 37.535006 
L 593.093193 37.301996 
L 593.920718 37.068987 
L 595.575767 36.835977 
L 599.713392 36.835977 
L 600.540917 36.719472 
L 601.368441 36.369958 
L 603.023491 36.369958 
L 603.851016 36.136948 
L 606.33359 35.088404 
L 607.161115 34.971899 
L 609.64369 34.971899 
L 610.471215 34.622385 
L 611.298739 34.50588 
L 614.608839 34.50588 
L 615.436364 34.389375 
L 615.436364 34.389375 
" style="fill:none;stroke:#1f77b4;stroke-linecap:round;stroke-width:1.5;"/>
   </g>
   <g id="patch_3">
    <path d="M 82.8 298.989375 
L 82.8 21.789375 
" style="fill:none;stroke:#cccccc;stroke-linecap:square;stroke-linejoin:miter;stroke-width:0.8;"/>
   </g>
   <g id="patch_4">
    <path d="M 640.8 298.989375 
L 640.8 21.789375 
" style="fill:none;stroke:#cccccc;stroke-linecap:square;stroke-linejoin:miter;stroke-width:0.8;"/>
   </g>
   <g id="patch_5">
    <path d="M 82.8 298.989375 
L 640.8 298.989375 
" style="fill:none;stroke:#cccccc;stroke-linecap:square;stroke-linejoin:miter;stroke-width:0.8;"/>
   </g>
   <g id="patch_6">
    <path d="M 82.8 21.789375 
L 640.8 21.789375 
" style="fill:none;stroke:#cccccc;stroke-linecap:square;stroke-linejoin:miter;stroke-width:0.8;"/>
   </g>
   <g id="text_17">
    <!-- Óbitos -->
    <g style="fill:#262626;" transform="translate(344.46 15.789375)scale(0.12 -0.12)">
     <defs>
      <path d="M 309 2231 
Q 309 3372 921 4017 
Q 1534 4663 2503 4663 
Q 3138 4663 3647 4359 
Q 4156 4056 4423 3514 
Q 4691 2972 4691 2284 
Q 4691 1588 4409 1038 
Q 4128 488 3612 205 
Q 3097 -78 2500 -78 
Q 1853 -78 1343 234 
Q 834 547 571 1087 
Q 309 1628 309 2231 
z
M 934 2222 
Q 934 1394 1379 917 
Q 1825 441 2497 441 
Q 3181 441 3623 922 
Q 4066 1403 4066 2288 
Q 4066 2847 3877 3264 
Q 3688 3681 3323 3911 
Q 2959 4141 2506 4141 
Q 1863 4141 1398 3698 
Q 934 3256 934 2222 
z
M 2118 4883 
L 2533 5758 
L 3271 5758 
L 2583 4883 
L 2118 4883 
z
" id="ArialMT-d3" transform="scale(0.015625)"/>
      <path d="M 941 0 
L 419 0 
L 419 4581 
L 981 4581 
L 981 2947 
Q 1338 3394 1891 3394 
Q 2197 3394 2470 3270 
Q 2744 3147 2920 2923 
Q 3097 2700 3197 2384 
Q 3297 2069 3297 1709 
Q 3297 856 2875 390 
Q 2453 -75 1863 -75 
Q 1275 -75 941 416 
L 941 0 
z
M 934 1684 
Q 934 1088 1097 822 
Q 1363 388 1816 388 
Q 2184 388 2453 708 
Q 2722 1028 2722 1663 
Q 2722 2313 2464 2622 
Q 2206 2931 1841 2931 
Q 1472 2931 1203 2611 
Q 934 2291 934 1684 
z
" id="ArialMT-62" transform="scale(0.015625)"/>
      <path d="M 425 3934 
L 425 4581 
L 988 4581 
L 988 3934 
L 425 3934 
z
M 425 0 
L 425 3319 
L 988 3319 
L 988 0 
L 425 0 
z
" id="ArialMT-69" transform="scale(0.015625)"/>
      <path d="M 1650 503 
L 1731 6 
Q 1494 -44 1306 -44 
Q 1000 -44 831 53 
Q 663 150 594 308 
Q 525 466 525 972 
L 525 2881 
L 113 2881 
L 113 3319 
L 525 3319 
L 525 4141 
L 1084 4478 
L 1084 3319 
L 1650 3319 
L 1650 2881 
L 1084 2881 
L 1084 941 
Q 1084 700 1114 631 
Q 1144 563 1211 522 
Q 1278 481 1403 481 
Q 1497 481 1650 503 
z
" id="ArialMT-74" transform="scale(0.015625)"/>
      <path d="M 213 1659 
Q 213 2581 725 3025 
Q 1153 3394 1769 3394 
Q 2453 3394 2887 2945 
Q 3322 2497 3322 1706 
Q 3322 1066 3130 698 
Q 2938 331 2570 128 
Q 2203 -75 1769 -75 
Q 1072 -75 642 372 
Q 213 819 213 1659 
z
M 791 1659 
Q 791 1022 1069 705 
Q 1347 388 1769 388 
Q 2188 388 2466 706 
Q 2744 1025 2744 1678 
Q 2744 2294 2464 2611 
Q 2184 2928 1769 2928 
Q 1347 2928 1069 2612 
Q 791 2297 791 1659 
z
" id="ArialMT-6f" transform="scale(0.015625)"/>
      <path d="M 197 991 
L 753 1078 
Q 800 744 1014 566 
Q 1228 388 1613 388 
Q 2000 388 2187 545 
Q 2375 703 2375 916 
Q 2375 1106 2209 1216 
Q 2094 1291 1634 1406 
Q 1016 1563 777 1677 
Q 538 1791 414 1992 
Q 291 2194 291 2438 
Q 291 2659 392 2848 
Q 494 3038 669 3163 
Q 800 3259 1026 3326 
Q 1253 3394 1513 3394 
Q 1903 3394 2198 3281 
Q 2494 3169 2634 2976 
Q 2775 2784 2828 2463 
L 2278 2388 
Q 2241 2644 2061 2787 
Q 1881 2931 1553 2931 
Q 1166 2931 1000 2803 
Q 834 2675 834 2503 
Q 834 2394 903 2306 
Q 972 2216 1119 2156 
Q 1203 2125 1616 2013 
Q 2213 1853 2448 1751 
Q 2684 1650 2818 1456 
Q 2953 1263 2953 975 
Q 2953 694 2789 445 
Q 2625 197 2315 61 
Q 2006 -75 1616 -75 
Q 969 -75 630 194 
Q 291 463 197 991 
z
" id="ArialMT-73" transform="scale(0.015625)"/>
     </defs>
     <use xlink:href="#ArialMT-d3"/>
     <use x="77.783203" xlink:href="#ArialMT-62"/>
     <use x="133.398438" xlink:href="#ArialMT-69"/>
     <use x="155.615234" xlink:href="#ArialMT-74"/>
     <use x="183.398438" xlink:href="#ArialMT-6f"/>
     <use x="239.013672" xlink:href="#ArialMT-73"/>
    </g>
   </g>
  </g>
  <g id="text_18">
   <!-- Atualizado em 22/11/2021 -->
   <g style="fill:#262626;" transform="translate(7.2 331.389375)scale(0.08 -0.08)">
    <defs>
     <path d="M -9 0 
L 1750 4581 
L 2403 4581 
L 4278 0 
L 3588 0 
L 3053 1388 
L 1138 1388 
L 634 0 
L -9 0 
z
M 1313 1881 
L 2866 1881 
L 2388 3150 
Q 2169 3728 2063 4100 
Q 1975 3659 1816 3225 
L 1313 1881 
z
" id="ArialMT-41" transform="scale(0.015625)"/>
     <path d="M 2597 0 
L 2597 488 
Q 2209 -75 1544 -75 
Q 1250 -75 995 37 
Q 741 150 617 320 
Q 494 491 444 738 
Q 409 903 409 1263 
L 409 3319 
L 972 3319 
L 972 1478 
Q 972 1038 1006 884 
Q 1059 663 1231 536 
Q 1403 409 1656 409 
Q 1909 409 2131 539 
Q 2353 669 2445 892 
Q 2538 1116 2538 1541 
L 2538 3319 
L 3100 3319 
L 3100 0 
L 2597 0 
z
" id="ArialMT-75" transform="scale(0.015625)"/>
     <path d="M 2588 409 
Q 2275 144 1986 34 
Q 1697 -75 1366 -75 
Q 819 -75 525 192 
Q 231 459 231 875 
Q 231 1119 342 1320 
Q 453 1522 633 1644 
Q 813 1766 1038 1828 
Q 1203 1872 1538 1913 
Q 2219 1994 2541 2106 
Q 2544 2222 2544 2253 
Q 2544 2597 2384 2738 
Q 2169 2928 1744 2928 
Q 1347 2928 1158 2789 
Q 969 2650 878 2297 
L 328 2372 
Q 403 2725 575 2942 
Q 747 3159 1072 3276 
Q 1397 3394 1825 3394 
Q 2250 3394 2515 3294 
Q 2781 3194 2906 3042 
Q 3031 2891 3081 2659 
Q 3109 2516 3109 2141 
L 3109 1391 
Q 3109 606 3145 398 
Q 3181 191 3288 0 
L 2700 0 
Q 2613 175 2588 409 
z
M 2541 1666 
Q 2234 1541 1622 1453 
Q 1275 1403 1131 1340 
Q 988 1278 909 1158 
Q 831 1038 831 891 
Q 831 666 1001 516 
Q 1172 366 1500 366 
Q 1825 366 2078 508 
Q 2331 650 2450 897 
Q 2541 1088 2541 1459 
L 2541 1666 
z
" id="ArialMT-61" transform="scale(0.015625)"/>
     <path d="M 409 0 
L 409 4581 
L 972 4581 
L 972 0 
L 409 0 
z
" id="ArialMT-6c" transform="scale(0.015625)"/>
     <path d="M 125 0 
L 125 456 
L 2238 2881 
Q 1878 2863 1603 2863 
L 250 2863 
L 250 3319 
L 2963 3319 
L 2963 2947 
L 1166 841 
L 819 456 
Q 1197 484 1528 484 
L 3063 484 
L 3063 0 
L 125 0 
z
" id="ArialMT-7a" transform="scale(0.015625)"/>
     <path d="M 2575 0 
L 2575 419 
Q 2259 -75 1647 -75 
Q 1250 -75 917 144 
Q 584 363 401 755 
Q 219 1147 219 1656 
Q 219 2153 384 2558 
Q 550 2963 881 3178 
Q 1213 3394 1622 3394 
Q 1922 3394 2156 3267 
Q 2391 3141 2538 2938 
L 2538 4581 
L 3097 4581 
L 3097 0 
L 2575 0 
z
M 797 1656 
Q 797 1019 1065 703 
Q 1334 388 1700 388 
Q 2069 388 2326 689 
Q 2584 991 2584 1609 
Q 2584 2291 2321 2609 
Q 2059 2928 1675 2928 
Q 1300 2928 1048 2622 
Q 797 2316 797 1656 
z
" id="ArialMT-64" transform="scale(0.015625)"/>
     <path id="ArialMT-20" transform="scale(0.015625)"/>
     <path d="M 2694 1069 
L 3275 997 
Q 3138 488 2766 206 
Q 2394 -75 1816 -75 
Q 1088 -75 661 373 
Q 234 822 234 1631 
Q 234 2469 665 2931 
Q 1097 3394 1784 3394 
Q 2450 3394 2872 2941 
Q 3294 2488 3294 1666 
Q 3294 1616 3291 1516 
L 816 1516 
Q 847 969 1125 678 
Q 1403 388 1819 388 
Q 2128 388 2347 550 
Q 2566 713 2694 1069 
z
M 847 1978 
L 2700 1978 
Q 2663 2397 2488 2606 
Q 2219 2931 1791 2931 
Q 1403 2931 1139 2672 
Q 875 2413 847 1978 
z
" id="ArialMT-65" transform="scale(0.015625)"/>
     <path d="M 422 0 
L 422 3319 
L 925 3319 
L 925 2853 
Q 1081 3097 1340 3245 
Q 1600 3394 1931 3394 
Q 2300 3394 2536 3241 
Q 2772 3088 2869 2813 
Q 3263 3394 3894 3394 
Q 4388 3394 4653 3120 
Q 4919 2847 4919 2278 
L 4919 0 
L 4359 0 
L 4359 2091 
Q 4359 2428 4304 2576 
Q 4250 2725 4106 2815 
Q 3963 2906 3769 2906 
Q 3419 2906 3187 2673 
Q 2956 2441 2956 1928 
L 2956 0 
L 2394 0 
L 2394 2156 
Q 2394 2531 2256 2718 
Q 2119 2906 1806 2906 
Q 1569 2906 1367 2781 
Q 1166 2656 1075 2415 
Q 984 2175 984 1722 
L 984 0 
L 422 0 
z
" id="ArialMT-6d" transform="scale(0.015625)"/>
     <path d="M 0 -78 
L 1328 4659 
L 1778 4659 
L 453 -78 
L 0 -78 
z
" id="ArialMT-2f" transform="scale(0.015625)"/>
    </defs>
    <use xlink:href="#ArialMT-41"/>
    <use x="66.699219" xlink:href="#ArialMT-74"/>
    <use x="94.482422" xlink:href="#ArialMT-75"/>
    <use x="150.097656" xlink:href="#ArialMT-61"/>
    <use x="205.712891" xlink:href="#ArialMT-6c"/>
    <use x="227.929688" xlink:href="#ArialMT-69"/>
    <use x="250.146484" xlink:href="#ArialMT-7a"/>
    <use x="300.146484" xlink:href="#ArialMT-61"/>
    <use x="355.761719" xlink:href="#ArialMT-64"/>
    <use x="411.376953" xlink:href="#ArialMT-6f"/>
    <use x="466.992188" xlink:href="#ArialMT-20"/>
    <use x="494.775391" xlink:href="#ArialMT-65"/>
    <use x="550.390625" xlink:href="#ArialMT-6d"/>
    <use x="633.691406" xlink:href="#ArialMT-20"/>
    <use x="661.474609" xlink:href="#ArialMT-32"/>
    <use x="717.089844" xlink:href="#ArialMT-32"/>
    <use x="772.705078" xlink:href="#ArialMT-2f"/>
    <use x="800.488281" xlink:href="#ArialMT-31"/>
    <use x="848.728516" xlink:href="#ArialMT-31"/>
    <use x="904.34375" xlink:href="#ArialMT-2f"/>
    <use x="932.126953" xlink:href="#ArialMT-32"/>
    <use x="987.742188" xlink:href="#ArialMT-30"/>
    <use x="1043.357422" xlink:href="#ArialMT-32"/>
    <use x="1098.972656" xlink:href="#ArialMT-31"/>
   </g>
  </g>
  <g id="text_19">
   <!-- https://jmsvaz.github.io/covidsantos/ -->
   <g style="fill:#262626;" transform="translate(570.345 331.389375)scale(0.08 -0.08)">
    <defs>
     <path d="M 422 0 
L 422 4581 
L 984 4581 
L 984 2938 
Q 1378 3394 1978 3394 
Q 2347 3394 2619 3248 
Q 2891 3103 3008 2847 
Q 3125 2591 3125 2103 
L 3125 0 
L 2563 0 
L 2563 2103 
Q 2563 2525 2380 2717 
Q 2197 2909 1863 2909 
Q 1613 2909 1392 2779 
Q 1172 2650 1078 2428 
Q 984 2206 984 1816 
L 984 0 
L 422 0 
z
" id="ArialMT-68" transform="scale(0.015625)"/>
     <path d="M 422 -1272 
L 422 3319 
L 934 3319 
L 934 2888 
Q 1116 3141 1344 3267 
Q 1572 3394 1897 3394 
Q 2322 3394 2647 3175 
Q 2972 2956 3137 2557 
Q 3303 2159 3303 1684 
Q 3303 1175 3120 767 
Q 2938 359 2589 142 
Q 2241 -75 1856 -75 
Q 1575 -75 1351 44 
Q 1128 163 984 344 
L 984 -1272 
L 422 -1272 
z
M 931 1641 
Q 931 1000 1190 694 
Q 1450 388 1819 388 
Q 2194 388 2461 705 
Q 2728 1022 2728 1688 
Q 2728 2322 2467 2637 
Q 2206 2953 1844 2953 
Q 1484 2953 1207 2617 
Q 931 2281 931 1641 
z
" id="ArialMT-70" transform="scale(0.015625)"/>
     <path d="M 578 2678 
L 578 3319 
L 1219 3319 
L 1219 2678 
L 578 2678 
z
M 578 0 
L 578 641 
L 1219 641 
L 1219 0 
L 578 0 
z
" id="ArialMT-3a" transform="scale(0.015625)"/>
     <path d="M 419 3928 
L 419 4581 
L 981 4581 
L 981 3928 
L 419 3928 
z
M -294 -1288 
L -188 -809 
Q -19 -853 78 -853 
Q 250 -853 334 -739 
Q 419 -625 419 -169 
L 419 3319 
L 981 3319 
L 981 -181 
Q 981 -794 822 -1034 
Q 619 -1347 147 -1347 
Q -81 -1347 -294 -1288 
z
" id="ArialMT-6a" transform="scale(0.015625)"/>
     <path d="M 1344 0 
L 81 3319 
L 675 3319 
L 1388 1331 
Q 1503 1009 1600 663 
Q 1675 925 1809 1294 
L 2547 3319 
L 3125 3319 
L 1869 0 
L 1344 0 
z
" id="ArialMT-76" transform="scale(0.015625)"/>
     <path d="M 581 0 
L 581 641 
L 1222 641 
L 1222 0 
L 581 0 
z
" id="ArialMT-2e" transform="scale(0.015625)"/>
     <path d="M 319 -275 
L 866 -356 
Q 900 -609 1056 -725 
Q 1266 -881 1628 -881 
Q 2019 -881 2231 -725 
Q 2444 -569 2519 -288 
Q 2563 -116 2559 434 
Q 2191 0 1641 0 
Q 956 0 581 494 
Q 206 988 206 1678 
Q 206 2153 378 2554 
Q 550 2956 876 3175 
Q 1203 3394 1644 3394 
Q 2231 3394 2613 2919 
L 2613 3319 
L 3131 3319 
L 3131 450 
Q 3131 -325 2973 -648 
Q 2816 -972 2473 -1159 
Q 2131 -1347 1631 -1347 
Q 1038 -1347 672 -1080 
Q 306 -813 319 -275 
z
M 784 1719 
Q 784 1066 1043 766 
Q 1303 466 1694 466 
Q 2081 466 2343 764 
Q 2606 1063 2606 1700 
Q 2606 2309 2336 2618 
Q 2066 2928 1684 2928 
Q 1309 2928 1046 2623 
Q 784 2319 784 1719 
z
" id="ArialMT-67" transform="scale(0.015625)"/>
     <path d="M 2588 1216 
L 3141 1144 
Q 3050 572 2676 248 
Q 2303 -75 1759 -75 
Q 1078 -75 664 370 
Q 250 816 250 1647 
Q 250 2184 428 2587 
Q 606 2991 970 3192 
Q 1334 3394 1763 3394 
Q 2303 3394 2647 3120 
Q 2991 2847 3088 2344 
L 2541 2259 
Q 2463 2594 2264 2762 
Q 2066 2931 1784 2931 
Q 1359 2931 1093 2626 
Q 828 2322 828 1663 
Q 828 994 1084 691 
Q 1341 388 1753 388 
Q 2084 388 2306 591 
Q 2528 794 2588 1216 
z
" id="ArialMT-63" transform="scale(0.015625)"/>
     <path d="M 422 0 
L 422 3319 
L 928 3319 
L 928 2847 
Q 1294 3394 1984 3394 
Q 2284 3394 2536 3286 
Q 2788 3178 2913 3003 
Q 3038 2828 3088 2588 
Q 3119 2431 3119 2041 
L 3119 0 
L 2556 0 
L 2556 2019 
Q 2556 2363 2490 2533 
Q 2425 2703 2258 2804 
Q 2091 2906 1866 2906 
Q 1506 2906 1245 2678 
Q 984 2450 984 1813 
L 984 0 
L 422 0 
z
" id="ArialMT-6e" transform="scale(0.015625)"/>
    </defs>
    <use xlink:href="#ArialMT-68"/>
    <use x="55.615234" xlink:href="#ArialMT-74"/>
    <use x="83.398438" xlink:href="#ArialMT-74"/>
    <use x="111.181641" xlink:href="#ArialMT-70"/>
    <use x="166.796875" xlink:href="#ArialMT-73"/>
    <use x="216.796875" xlink:href="#ArialMT-3a"/>
    <use x="244.580078" xlink:href="#ArialMT-2f"/>
    <use x="272.363281" xlink:href="#ArialMT-2f"/>
    <use x="300.146484" xlink:href="#ArialMT-6a"/>
    <use x="322.363281" xlink:href="#ArialMT-6d"/>
    <use x="405.664062" xlink:href="#ArialMT-73"/>
    <use x="455.664062" xlink:href="#ArialMT-76"/>
    <use x="505.664062" xlink:href="#ArialMT-61"/>
    <use x="561.279297" xlink:href="#ArialMT-7a"/>
    <use x="611.279297" xlink:href="#ArialMT-2e"/>
    <use x="639.0625" xlink:href="#ArialMT-67"/>
    <use x="694.677734" xlink:href="#ArialMT-69"/>
    <use x="716.894531" xlink:href="#ArialMT-74"/>
    <use x="744.677734" xlink:href="#ArialMT-68"/>
    <use x="800.292969" xlink:href="#ArialMT-75"/>
    <use x="855.908203" xlink:href="#ArialMT-62"/>
    <use x="911.523438" xlink:href="#ArialMT-2e"/>
    <use x="939.306641" xlink:href="#ArialMT-69"/>
    <use x="961.523438" xlink:href="#ArialMT-6f"/>
    <use x="1017.138672" xlink:href="#ArialMT-2f"/>
    <use x="1044.921875" xlink:href="#ArialMT-63"/>
    <use x="1094.921875" xlink:href="#ArialMT-6f"/>
    <use x="1150.537109" xlink:href="#ArialMT-76"/>
    <use x="1200.537109" xlink:href="#ArialMT-69"/>
    <use x="1222.753906" xlink:href="#ArialMT-64"/>
    <use x="1278.369141" xlink:href="#ArialMT-73"/>
    <use x="1328.369141" xlink:href="#ArialMT-61"/>
    <use x="1383.984375" xlink:href="#ArialMT-6e"/>
    <use x="1439.599609" xlink:href="#ArialMT-74"/>
    <use x="1467.382812" xlink:href="#ArialMT-6f"/>
    <use x="1522.998047" xlink:href="#ArialMT-73"/>
    <use x="1572.998047" xlink:href="#ArialMT-2f"/>
   </g>
  </g>
 </g>
 <defs>
  <clipPath id="p40ad8b4068">
   <rect height="277.2" width="558" x="82.8" y="21.789375"/>
  </clipPath>
 </defs>
</svg>
