<?xml version="1.0" encoding="utf-8" standalone="no"?>
<!DOCTYPE svg PUBLIC "-//W3C//DTD SVG 1.1//EN"
  "http://www.w3.org/Graphics/SVG/1.1/DTD/svg11.dtd">
<svg height="340.273125pt" version="1.1" viewBox="0 0 705.6 340.273125" width="705.6pt" xmlns="http://www.w3.org/2000/svg" xmlns:xlink="http://www.w3.org/1999/xlink">
 <metadata>
  <rdf:RDF xmlns:cc="http://creativecommons.org/ns#" xmlns:dc="http://purl.org/dc/elements/1.1/" xmlns:rdf="http://www.w3.org/1999/02/22-rdf-syntax-ns#">
   <cc:Work>
    <dc:type rdf:resource="http://purl.org/dc/dcmitype/StillImage"/>
    <dc:date>2021-08-16T18:21:40.057466</dc:date>
    <dc:format>image/svg+xml</dc:format>
    <dc:creator>
     <cc:Agent>
      <dc:title>Matplotlib v3.4.2, https://matplotlib.org/</dc:title>
     </cc:Agent>
    </dc:creator>
   </cc:Work>
  </rdf:RDF>
 </metadata>
 <defs>
  <style type="text/css">*{stroke-linecap:butt;stroke-linejoin:round;}</style>
 </defs>
 <g id="figure_1">
  <g id="patch_1">
   <path d="M 0 340.273125 
L 705.6 340.273125 
L 705.6 0 
L 0 0 
z
" style="fill:#ffffff;"/>
  </g>
  <g id="axes_1">
   <g id="patch_2">
    <path d="M 82.8 298.989375 
L 640.8 298.989375 
L 640.8 21.789375 
L 82.8 21.789375 
z
" style="fill:#ffffff;"/>
   </g>
   <g id="matplotlib.axis_1">
    <g id="xtick_1">
     <g id="line2d_1">
      <path clip-path="url(#p19b61db28c)" d="M 90.433716 298.989375 
L 90.433716 21.789375 
" style="fill:none;stroke:#cccccc;stroke-linecap:round;stroke-width:0.8;"/>
     </g>
     <g id="text_1">
      <!-- 2020-03 -->
      <g style="fill:#262626;" transform="translate(72.08606 313.147188)scale(0.1 -0.1)">
       <defs>
        <path d="M 3222 541 
L 3222 0 
L 194 0 
Q 188 203 259 391 
Q 375 700 629 1000 
Q 884 1300 1366 1694 
Q 2113 2306 2375 2664 
Q 2638 3022 2638 3341 
Q 2638 3675 2398 3904 
Q 2159 4134 1775 4134 
Q 1369 4134 1125 3890 
Q 881 3647 878 3216 
L 300 3275 
Q 359 3922 746 4261 
Q 1134 4600 1788 4600 
Q 2447 4600 2831 4234 
Q 3216 3869 3216 3328 
Q 3216 3053 3103 2787 
Q 2991 2522 2730 2228 
Q 2469 1934 1863 1422 
Q 1356 997 1212 845 
Q 1069 694 975 541 
L 3222 541 
z
" id="ArialMT-32" transform="scale(0.015625)"/>
        <path d="M 266 2259 
Q 266 3072 433 3567 
Q 600 4063 929 4331 
Q 1259 4600 1759 4600 
Q 2128 4600 2406 4451 
Q 2684 4303 2865 4023 
Q 3047 3744 3150 3342 
Q 3253 2941 3253 2259 
Q 3253 1453 3087 958 
Q 2922 463 2592 192 
Q 2263 -78 1759 -78 
Q 1097 -78 719 397 
Q 266 969 266 2259 
z
M 844 2259 
Q 844 1131 1108 757 
Q 1372 384 1759 384 
Q 2147 384 2411 759 
Q 2675 1134 2675 2259 
Q 2675 3391 2411 3762 
Q 2147 4134 1753 4134 
Q 1366 4134 1134 3806 
Q 844 3388 844 2259 
z
" id="ArialMT-30" transform="scale(0.015625)"/>
        <path d="M 203 1375 
L 203 1941 
L 1931 1941 
L 1931 1375 
L 203 1375 
z
" id="ArialMT-2d" transform="scale(0.015625)"/>
        <path d="M 269 1209 
L 831 1284 
Q 928 806 1161 595 
Q 1394 384 1728 384 
Q 2125 384 2398 659 
Q 2672 934 2672 1341 
Q 2672 1728 2419 1979 
Q 2166 2231 1775 2231 
Q 1616 2231 1378 2169 
L 1441 2663 
Q 1497 2656 1531 2656 
Q 1891 2656 2178 2843 
Q 2466 3031 2466 3422 
Q 2466 3731 2256 3934 
Q 2047 4138 1716 4138 
Q 1388 4138 1169 3931 
Q 950 3725 888 3313 
L 325 3413 
Q 428 3978 793 4289 
Q 1159 4600 1703 4600 
Q 2078 4600 2393 4439 
Q 2709 4278 2876 4000 
Q 3044 3722 3044 3409 
Q 3044 3113 2884 2869 
Q 2725 2625 2413 2481 
Q 2819 2388 3044 2092 
Q 3269 1797 3269 1353 
Q 3269 753 2831 336 
Q 2394 -81 1725 -81 
Q 1122 -81 723 278 
Q 325 638 269 1209 
z
" id="ArialMT-33" transform="scale(0.015625)"/>
       </defs>
       <use xlink:href="#ArialMT-32"/>
       <use x="55.615234" xlink:href="#ArialMT-30"/>
       <use x="111.230469" xlink:href="#ArialMT-32"/>
       <use x="166.845703" xlink:href="#ArialMT-30"/>
       <use x="222.460938" xlink:href="#ArialMT-2d"/>
       <use x="255.761719" xlink:href="#ArialMT-30"/>
       <use x="311.376953" xlink:href="#ArialMT-33"/>
      </g>
     </g>
    </g>
    <g id="xtick_2">
     <g id="line2d_2">
      <path clip-path="url(#p19b61db28c)" d="M 150.518447 298.989375 
L 150.518447 21.789375 
" style="fill:none;stroke:#cccccc;stroke-linecap:round;stroke-width:0.8;"/>
     </g>
     <g id="text_2">
      <!-- 2020-05 -->
      <g style="fill:#262626;" transform="translate(132.17079 313.147188)scale(0.1 -0.1)">
       <defs>
        <path d="M 266 1200 
L 856 1250 
Q 922 819 1161 601 
Q 1400 384 1738 384 
Q 2144 384 2425 690 
Q 2706 997 2706 1503 
Q 2706 1984 2436 2262 
Q 2166 2541 1728 2541 
Q 1456 2541 1237 2417 
Q 1019 2294 894 2097 
L 366 2166 
L 809 4519 
L 3088 4519 
L 3088 3981 
L 1259 3981 
L 1013 2750 
Q 1425 3038 1878 3038 
Q 2478 3038 2890 2622 
Q 3303 2206 3303 1553 
Q 3303 931 2941 478 
Q 2500 -78 1738 -78 
Q 1113 -78 717 272 
Q 322 622 266 1200 
z
" id="ArialMT-35" transform="scale(0.015625)"/>
       </defs>
       <use xlink:href="#ArialMT-32"/>
       <use x="55.615234" xlink:href="#ArialMT-30"/>
       <use x="111.230469" xlink:href="#ArialMT-32"/>
       <use x="166.845703" xlink:href="#ArialMT-30"/>
       <use x="222.460938" xlink:href="#ArialMT-2d"/>
       <use x="255.761719" xlink:href="#ArialMT-30"/>
       <use x="311.376953" xlink:href="#ArialMT-35"/>
      </g>
     </g>
    </g>
    <g id="xtick_3">
     <g id="line2d_3">
      <path clip-path="url(#p19b61db28c)" d="M 210.603177 298.989375 
L 210.603177 21.789375 
" style="fill:none;stroke:#cccccc;stroke-linecap:round;stroke-width:0.8;"/>
     </g>
     <g id="text_3">
      <!-- 2020-07 -->
      <g style="fill:#262626;" transform="translate(192.255521 313.147188)scale(0.1 -0.1)">
       <defs>
        <path d="M 303 3981 
L 303 4522 
L 3269 4522 
L 3269 4084 
Q 2831 3619 2401 2847 
Q 1972 2075 1738 1259 
Q 1569 684 1522 0 
L 944 0 
Q 953 541 1156 1306 
Q 1359 2072 1739 2783 
Q 2119 3494 2547 3981 
L 303 3981 
z
" id="ArialMT-37" transform="scale(0.015625)"/>
       </defs>
       <use xlink:href="#ArialMT-32"/>
       <use x="55.615234" xlink:href="#ArialMT-30"/>
       <use x="111.230469" xlink:href="#ArialMT-32"/>
       <use x="166.845703" xlink:href="#ArialMT-30"/>
       <use x="222.460938" xlink:href="#ArialMT-2d"/>
       <use x="255.761719" xlink:href="#ArialMT-30"/>
       <use x="311.376953" xlink:href="#ArialMT-37"/>
      </g>
     </g>
    </g>
    <g id="xtick_4">
     <g id="line2d_4">
      <path clip-path="url(#p19b61db28c)" d="M 271.672904 298.989375 
L 271.672904 21.789375 
" style="fill:none;stroke:#cccccc;stroke-linecap:round;stroke-width:0.8;"/>
     </g>
     <g id="text_4">
      <!-- 2020-09 -->
      <g style="fill:#262626;" transform="translate(253.325248 313.147188)scale(0.1 -0.1)">
       <defs>
        <path d="M 350 1059 
L 891 1109 
Q 959 728 1153 556 
Q 1347 384 1650 384 
Q 1909 384 2104 503 
Q 2300 622 2425 820 
Q 2550 1019 2634 1356 
Q 2719 1694 2719 2044 
Q 2719 2081 2716 2156 
Q 2547 1888 2255 1720 
Q 1963 1553 1622 1553 
Q 1053 1553 659 1965 
Q 266 2378 266 3053 
Q 266 3750 677 4175 
Q 1088 4600 1706 4600 
Q 2153 4600 2523 4359 
Q 2894 4119 3086 3673 
Q 3278 3228 3278 2384 
Q 3278 1506 3087 986 
Q 2897 466 2520 194 
Q 2144 -78 1638 -78 
Q 1100 -78 759 220 
Q 419 519 350 1059 
z
M 2653 3081 
Q 2653 3566 2395 3850 
Q 2138 4134 1775 4134 
Q 1400 4134 1122 3828 
Q 844 3522 844 3034 
Q 844 2597 1108 2323 
Q 1372 2050 1759 2050 
Q 2150 2050 2401 2323 
Q 2653 2597 2653 3081 
z
" id="ArialMT-39" transform="scale(0.015625)"/>
       </defs>
       <use xlink:href="#ArialMT-32"/>
       <use x="55.615234" xlink:href="#ArialMT-30"/>
       <use x="111.230469" xlink:href="#ArialMT-32"/>
       <use x="166.845703" xlink:href="#ArialMT-30"/>
       <use x="222.460938" xlink:href="#ArialMT-2d"/>
       <use x="255.761719" xlink:href="#ArialMT-30"/>
       <use x="311.376953" xlink:href="#ArialMT-39"/>
      </g>
     </g>
    </g>
    <g id="xtick_5">
     <g id="line2d_5">
      <path clip-path="url(#p19b61db28c)" d="M 331.757635 298.989375 
L 331.757635 21.789375 
" style="fill:none;stroke:#cccccc;stroke-linecap:round;stroke-width:0.8;"/>
     </g>
     <g id="text_5">
      <!-- 2020-11 -->
      <g style="fill:#262626;" transform="translate(313.778728 313.147188)scale(0.1 -0.1)">
       <defs>
        <path d="M 2384 0 
L 1822 0 
L 1822 3584 
Q 1619 3391 1289 3197 
Q 959 3003 697 2906 
L 697 3450 
Q 1169 3672 1522 3987 
Q 1875 4303 2022 4600 
L 2384 4600 
L 2384 0 
z
" id="ArialMT-31" transform="scale(0.015625)"/>
       </defs>
       <use xlink:href="#ArialMT-32"/>
       <use x="55.615234" xlink:href="#ArialMT-30"/>
       <use x="111.230469" xlink:href="#ArialMT-32"/>
       <use x="166.845703" xlink:href="#ArialMT-30"/>
       <use x="222.460938" xlink:href="#ArialMT-2d"/>
       <use x="255.761719" xlink:href="#ArialMT-31"/>
       <use x="304.001953" xlink:href="#ArialMT-31"/>
      </g>
     </g>
    </g>
    <g id="xtick_6">
     <g id="line2d_6">
      <path clip-path="url(#p19b61db28c)" d="M 391.842365 298.989375 
L 391.842365 21.789375 
" style="fill:none;stroke:#cccccc;stroke-linecap:round;stroke-width:0.8;"/>
     </g>
     <g id="text_6">
      <!-- 2021-01 -->
      <g style="fill:#262626;" transform="translate(373.494709 313.147188)scale(0.1 -0.1)">
       <use xlink:href="#ArialMT-32"/>
       <use x="55.615234" xlink:href="#ArialMT-30"/>
       <use x="111.230469" xlink:href="#ArialMT-32"/>
       <use x="166.845703" xlink:href="#ArialMT-31"/>
       <use x="222.460938" xlink:href="#ArialMT-2d"/>
       <use x="255.761719" xlink:href="#ArialMT-30"/>
       <use x="311.376953" xlink:href="#ArialMT-31"/>
      </g>
     </g>
    </g>
    <g id="xtick_7">
     <g id="line2d_7">
      <path clip-path="url(#p19b61db28c)" d="M 449.957105 298.989375 
L 449.957105 21.789375 
" style="fill:none;stroke:#cccccc;stroke-linecap:round;stroke-width:0.8;"/>
     </g>
     <g id="text_7">
      <!-- 2021-03 -->
      <g style="fill:#262626;" transform="translate(431.609449 313.147188)scale(0.1 -0.1)">
       <use xlink:href="#ArialMT-32"/>
       <use x="55.615234" xlink:href="#ArialMT-30"/>
       <use x="111.230469" xlink:href="#ArialMT-32"/>
       <use x="166.845703" xlink:href="#ArialMT-31"/>
       <use x="222.460938" xlink:href="#ArialMT-2d"/>
       <use x="255.761719" xlink:href="#ArialMT-30"/>
       <use x="311.376953" xlink:href="#ArialMT-33"/>
      </g>
     </g>
    </g>
    <g id="xtick_8">
     <g id="line2d_8">
      <path clip-path="url(#p19b61db28c)" d="M 510.041836 298.989375 
L 510.041836 21.789375 
" style="fill:none;stroke:#cccccc;stroke-linecap:round;stroke-width:0.8;"/>
     </g>
     <g id="text_8">
      <!-- 2021-05 -->
      <g style="fill:#262626;" transform="translate(491.69418 313.147188)scale(0.1 -0.1)">
       <use xlink:href="#ArialMT-32"/>
       <use x="55.615234" xlink:href="#ArialMT-30"/>
       <use x="111.230469" xlink:href="#ArialMT-32"/>
       <use x="166.845703" xlink:href="#ArialMT-31"/>
       <use x="222.460938" xlink:href="#ArialMT-2d"/>
       <use x="255.761719" xlink:href="#ArialMT-30"/>
       <use x="311.376953" xlink:href="#ArialMT-35"/>
      </g>
     </g>
    </g>
    <g id="xtick_9">
     <g id="line2d_9">
      <path clip-path="url(#p19b61db28c)" d="M 570.126567 298.989375 
L 570.126567 21.789375 
" style="fill:none;stroke:#cccccc;stroke-linecap:round;stroke-width:0.8;"/>
     </g>
     <g id="text_9">
      <!-- 2021-07 -->
      <g style="fill:#262626;" transform="translate(551.77891 313.147188)scale(0.1 -0.1)">
       <use xlink:href="#ArialMT-32"/>
       <use x="55.615234" xlink:href="#ArialMT-30"/>
       <use x="111.230469" xlink:href="#ArialMT-32"/>
       <use x="166.845703" xlink:href="#ArialMT-31"/>
       <use x="222.460938" xlink:href="#ArialMT-2d"/>
       <use x="255.761719" xlink:href="#ArialMT-30"/>
       <use x="311.376953" xlink:href="#ArialMT-37"/>
      </g>
     </g>
    </g>
    <g id="xtick_10">
     <g id="line2d_10">
      <path clip-path="url(#p19b61db28c)" d="M 631.196293 298.989375 
L 631.196293 21.789375 
" style="fill:none;stroke:#cccccc;stroke-linecap:round;stroke-width:0.8;"/>
     </g>
     <g id="text_10">
      <!-- 2021-09 -->
      <g style="fill:#262626;" transform="translate(612.848637 313.147188)scale(0.1 -0.1)">
       <use xlink:href="#ArialMT-32"/>
       <use x="55.615234" xlink:href="#ArialMT-30"/>
       <use x="111.230469" xlink:href="#ArialMT-32"/>
       <use x="166.845703" xlink:href="#ArialMT-31"/>
       <use x="222.460938" xlink:href="#ArialMT-2d"/>
       <use x="255.761719" xlink:href="#ArialMT-30"/>
       <use x="311.376953" xlink:href="#ArialMT-39"/>
      </g>
     </g>
    </g>
   </g>
   <g id="matplotlib.axis_2">
    <g id="ytick_1">
     <g id="line2d_11">
      <path clip-path="url(#p19b61db28c)" d="M 82.8 286.389375 
L 640.8 286.389375 
" style="fill:none;stroke:#cccccc;stroke-linecap:round;stroke-width:0.8;"/>
     </g>
     <g id="text_11">
      <!-- 0 -->
      <g style="fill:#262626;" transform="translate(70.239063 289.968281)scale(0.1 -0.1)">
       <use xlink:href="#ArialMT-30"/>
      </g>
     </g>
    </g>
    <g id="ytick_2">
     <g id="line2d_12">
      <path clip-path="url(#p19b61db28c)" d="M 82.8 255.278264 
L 640.8 255.278264 
" style="fill:none;stroke:#cccccc;stroke-linecap:round;stroke-width:0.8;"/>
     </g>
     <g id="text_12">
      <!-- 250 -->
      <g style="fill:#262626;" transform="translate(59.117188 258.85717)scale(0.1 -0.1)">
       <use xlink:href="#ArialMT-32"/>
       <use x="55.615234" xlink:href="#ArialMT-35"/>
       <use x="111.230469" xlink:href="#ArialMT-30"/>
      </g>
     </g>
    </g>
    <g id="ytick_3">
     <g id="line2d_13">
      <path clip-path="url(#p19b61db28c)" d="M 82.8 224.167153 
L 640.8 224.167153 
" style="fill:none;stroke:#cccccc;stroke-linecap:round;stroke-width:0.8;"/>
     </g>
     <g id="text_13">
      <!-- 500 -->
      <g style="fill:#262626;" transform="translate(59.117188 227.746059)scale(0.1 -0.1)">
       <use xlink:href="#ArialMT-35"/>
       <use x="55.615234" xlink:href="#ArialMT-30"/>
       <use x="111.230469" xlink:href="#ArialMT-30"/>
      </g>
     </g>
    </g>
    <g id="ytick_4">
     <g id="line2d_14">
      <path clip-path="url(#p19b61db28c)" d="M 82.8 193.056042 
L 640.8 193.056042 
" style="fill:none;stroke:#cccccc;stroke-linecap:round;stroke-width:0.8;"/>
     </g>
     <g id="text_14">
      <!-- 750 -->
      <g style="fill:#262626;" transform="translate(59.117188 196.634948)scale(0.1 -0.1)">
       <use xlink:href="#ArialMT-37"/>
       <use x="55.615234" xlink:href="#ArialMT-35"/>
       <use x="111.230469" xlink:href="#ArialMT-30"/>
      </g>
     </g>
    </g>
    <g id="ytick_5">
     <g id="line2d_15">
      <path clip-path="url(#p19b61db28c)" d="M 82.8 161.944931 
L 640.8 161.944931 
" style="fill:none;stroke:#cccccc;stroke-linecap:round;stroke-width:0.8;"/>
     </g>
     <g id="text_15">
      <!-- 1000 -->
      <g style="fill:#262626;" transform="translate(53.55625 165.523837)scale(0.1 -0.1)">
       <use xlink:href="#ArialMT-31"/>
       <use x="55.615234" xlink:href="#ArialMT-30"/>
       <use x="111.230469" xlink:href="#ArialMT-30"/>
       <use x="166.845703" xlink:href="#ArialMT-30"/>
      </g>
     </g>
    </g>
    <g id="ytick_6">
     <g id="line2d_16">
      <path clip-path="url(#p19b61db28c)" d="M 82.8 130.833819 
L 640.8 130.833819 
" style="fill:none;stroke:#cccccc;stroke-linecap:round;stroke-width:0.8;"/>
     </g>
     <g id="text_16">
      <!-- 1250 -->
      <g style="fill:#262626;" transform="translate(53.55625 134.412726)scale(0.1 -0.1)">
       <use xlink:href="#ArialMT-31"/>
       <use x="55.615234" xlink:href="#ArialMT-32"/>
       <use x="111.230469" xlink:href="#ArialMT-35"/>
       <use x="166.845703" xlink:href="#ArialMT-30"/>
      </g>
     </g>
    </g>
    <g id="ytick_7">
     <g id="line2d_17">
      <path clip-path="url(#p19b61db28c)" d="M 82.8 99.722708 
L 640.8 99.722708 
" style="fill:none;stroke:#cccccc;stroke-linecap:round;stroke-width:0.8;"/>
     </g>
     <g id="text_17">
      <!-- 1500 -->
      <g style="fill:#262626;" transform="translate(53.55625 103.301615)scale(0.1 -0.1)">
       <use xlink:href="#ArialMT-31"/>
       <use x="55.615234" xlink:href="#ArialMT-35"/>
       <use x="111.230469" xlink:href="#ArialMT-30"/>
       <use x="166.845703" xlink:href="#ArialMT-30"/>
      </g>
     </g>
    </g>
    <g id="ytick_8">
     <g id="line2d_18">
      <path clip-path="url(#p19b61db28c)" d="M 82.8 68.611597 
L 640.8 68.611597 
" style="fill:none;stroke:#cccccc;stroke-linecap:round;stroke-width:0.8;"/>
     </g>
     <g id="text_18">
      <!-- 1750 -->
      <g style="fill:#262626;" transform="translate(53.55625 72.190503)scale(0.1 -0.1)">
       <use xlink:href="#ArialMT-31"/>
       <use x="55.615234" xlink:href="#ArialMT-37"/>
       <use x="111.230469" xlink:href="#ArialMT-35"/>
       <use x="166.845703" xlink:href="#ArialMT-30"/>
      </g>
     </g>
    </g>
    <g id="ytick_9">
     <g id="line2d_19">
      <path clip-path="url(#p19b61db28c)" d="M 82.8 37.500486 
L 640.8 37.500486 
" style="fill:none;stroke:#cccccc;stroke-linecap:round;stroke-width:0.8;"/>
     </g>
     <g id="text_19">
      <!-- 2000 -->
      <g style="fill:#262626;" transform="translate(53.55625 41.079392)scale(0.1 -0.1)">
       <use xlink:href="#ArialMT-32"/>
       <use x="55.615234" xlink:href="#ArialMT-30"/>
       <use x="111.230469" xlink:href="#ArialMT-30"/>
       <use x="166.845703" xlink:href="#ArialMT-30"/>
      </g>
     </g>
    </g>
   </g>
   <g id="line2d_20">
    <path clip-path="url(#p19b61db28c)" d="M 108.163636 286.389375 
L 119.983583 286.389375 
L 120.968579 286.264931 
L 121.953575 285.891597 
L 124.908561 285.891597 
L 125.893557 285.767153 
L 126.878553 285.144931 
L 128.848544 285.144931 
L 130.818535 284.647153 
L 131.80353 284.647153 
L 132.788526 284.522708 
L 134.758517 283.776042 
L 135.743513 283.651597 
L 136.728508 283.651597 
L 137.713504 283.527153 
L 138.6985 283.527153 
L 139.683495 283.278264 
L 140.668491 283.153819 
L 141.653486 282.780486 
L 142.638482 282.531597 
L 143.623477 282.033819 
L 145.593469 282.033819 
L 146.578464 280.913819 
L 147.56346 280.167153 
L 149.533451 279.918264 
L 150.518447 279.669375 
L 152.488438 279.420486 
L 154.458429 278.922708 
L 155.443425 278.798264 
L 156.42842 278.549375 
L 157.413416 277.927153 
L 158.398411 277.802708 
L 159.383407 277.802708 
L 160.368402 277.553819 
L 161.353398 277.429375 
L 163.323389 276.433819 
L 164.308385 276.184931 
L 165.29338 275.811597 
L 166.278376 275.562708 
L 167.263372 274.816042 
L 168.248367 274.318264 
L 169.233363 274.069375 
L 170.218358 273.447153 
L 171.203354 273.447153 
L 172.18835 273.073819 
L 173.173345 273.073819 
L 175.143336 271.456042 
L 176.128332 269.340486 
L 178.098323 268.593819 
L 179.083319 267.847153 
L 180.068314 267.598264 
L 181.05331 266.727153 
L 182.038305 266.478264 
L 183.023301 265.980486 
L 184.008297 265.731597 
L 184.993292 264.611597 
L 186.963283 263.491597 
L 188.933274 262.371597 
L 189.91827 261.749375 
L 190.903266 260.753819 
L 191.888261 260.007153 
L 192.873257 258.762708 
L 193.858252 258.762708 
L 195.828244 256.896042 
L 196.813239 255.278264 
L 197.798235 253.909375 
L 198.78323 251.420486 
L 199.768226 249.429375 
L 200.753222 249.429375 
L 201.738217 247.562708 
L 202.723213 246.193819 
L 203.708208 244.202708 
L 204.693204 243.704931 
L 205.678199 241.713819 
L 207.648191 241.713819 
L 208.633186 240.718264 
L 209.618182 240.469375 
L 211.588173 239.224931 
L 212.573169 239.100486 
L 214.54316 239.100486 
L 215.528155 238.353819 
L 216.513151 238.229375 
L 217.498147 237.731597 
L 218.483142 237.731597 
L 219.468138 237.109375 
L 220.453133 236.860486 
L 221.438129 236.860486 
L 222.423124 235.616042 
L 224.393116 235.616042 
L 225.378111 234.993819 
L 226.363107 233.500486 
L 228.333098 233.500486 
L 229.318094 233.376042 
L 230.303089 233.002708 
L 231.288085 232.380486 
L 233.258076 231.633819 
L 234.243071 230.762708 
L 235.228067 230.762708 
L 236.213063 230.389375 
L 237.198058 229.891597 
L 240.153045 227.776042 
L 242.123036 227.776042 
L 243.108032 227.029375 
L 244.093027 226.033819 
L 245.078023 225.536042 
L 246.063019 225.287153 
L 247.048014 224.664931 
L 248.03301 224.664931 
L 250.003001 224.416042 
L 250.987996 223.793819 
L 251.972992 222.051597 
L 253.942983 220.931597 
L 255.912974 220.931597 
L 256.89797 220.309375 
L 257.882966 220.060486 
L 258.867961 219.189375 
L 260.837952 218.940486 
L 262.807944 218.940486 
L 266.747926 217.073819 
L 267.732921 216.700486 
L 269.702913 216.700486 
L 272.657899 215.331597 
L 274.627891 215.082708 
L 275.612886 214.833819 
L 277.582877 214.584931 
L 278.567873 214.336042 
L 279.552868 213.713819 
L 280.537864 213.713819 
L 281.52286 213.464931 
L 283.492851 213.464931 
L 284.477846 213.340486 
L 285.462842 212.967153 
L 286.447838 212.096042 
L 287.432833 210.602708 
L 288.417829 210.353819 
L 291.372816 210.353819 
L 292.357811 209.482708 
L 295.312798 209.109375 
L 297.282789 209.109375 
L 298.267785 208.860486 
L 299.25278 208.113819 
L 300.237776 207.864931 
L 301.222771 207.242708 
L 304.177758 207.242708 
L 305.162754 207.118264 
L 307.132745 206.620486 
L 308.117741 206.620486 
L 309.102736 206.122708 
L 312.057723 206.122708 
L 314.027714 205.002708 
L 315.01271 204.380486 
L 315.997705 204.007153 
L 317.967696 204.007153 
L 318.952692 203.882708 
L 319.937688 203.260486 
L 322.892674 202.513819 
L 325.847661 202.513819 
L 327.817652 202.264931 
L 328.802648 201.891597 
L 329.787643 201.642708 
L 332.74263 201.269375 
L 333.727626 200.647153 
L 334.712621 200.522708 
L 336.682613 199.651597 
L 338.652604 199.651597 
L 339.637599 199.527153 
L 340.622595 198.904931 
L 342.592586 197.038264 
L 343.577582 196.664931 
L 345.547573 196.664931 
L 346.532568 196.167153 
L 347.517564 194.300486 
L 349.487555 194.051597 
L 352.442542 194.051597 
L 353.427538 192.433819 
L 354.412533 191.687153 
L 355.397529 191.189375 
L 356.382524 190.318264 
L 357.36752 189.944931 
L 358.352515 189.820486 
L 359.337511 189.820486 
L 360.322507 189.073819 
L 361.307502 187.953819 
L 364.262489 186.087153 
L 366.23248 186.087153 
L 367.217476 185.091597 
L 369.187467 183.722708 
L 371.157458 182.976042 
L 372.142454 182.727153 
L 373.127449 182.602708 
L 375.09744 180.611597 
L 376.082436 179.864931 
L 377.067432 179.740486 
L 378.052427 179.242708 
L 379.037423 179.118264 
L 380.022418 179.118264 
L 381.007414 178.496042 
L 381.99241 178.371597 
L 382.977405 177.749375 
L 386.917387 177.749375 
L 387.902383 177.127153 
L 388.887379 175.882708 
L 389.872374 173.269375 
L 393.812357 173.269375 
L 395.782348 172.522708 
L 396.767343 171.278264 
L 398.737335 170.158264 
L 400.707326 170.158264 
L 401.692321 168.913819 
L 402.677317 168.789375 
L 403.662312 167.420486 
L 404.647308 167.047153 
L 405.632304 166.176042 
L 407.602295 166.176042 
L 408.58729 165.553819 
L 410.557282 163.811597 
L 411.542277 160.700486 
L 413.512268 160.202708 
L 416.467255 160.202708 
L 417.452251 159.456042 
L 418.437246 158.958264 
L 419.422242 158.709375 
L 420.407237 158.584931 
L 421.392233 158.584931 
L 423.362224 158.087153 
L 425.332215 156.593819 
L 426.317211 156.344931 
L 428.287202 156.344931 
L 430.257193 154.976042 
L 432.227184 154.104931 
L 434.197176 153.856042 
L 435.182171 153.856042 
L 436.167167 153.358264 
L 437.152162 153.109375 
L 438.137158 152.984931 
L 439.122154 152.736042 
L 442.07714 152.736042 
L 444.047132 151.864931 
L 445.032127 150.993819 
L 447.987114 149.624931 
L 448.972109 149.624931 
L 449.957105 149.500486 
L 450.942101 149.251597 
L 451.927096 148.256042 
L 452.912092 147.882708 
L 453.897087 147.633819 
L 455.867079 147.633819 
L 456.852074 147.011597 
L 457.83707 146.762708 
L 458.822065 145.642708 
L 459.807061 144.771597 
L 460.792056 144.522708 
L 462.762048 144.522708 
L 463.747043 144.273819 
L 466.70203 142.407153 
L 467.687026 141.536042 
L 468.672021 141.411597 
L 469.657017 141.411597 
L 471.627008 139.420486 
L 472.612004 138.922708 
L 473.596999 137.304931 
L 474.581995 137.056042 
L 475.56699 136.309375 
L 476.551986 136.184931 
L 478.521977 134.193819 
L 479.506973 132.949375 
L 480.491968 132.451597 
L 481.476964 131.580486 
L 482.461959 131.082708 
L 483.446955 131.082708 
L 484.431951 130.087153 
L 485.416946 128.220486 
L 486.401942 127.349375 
L 487.386937 124.611597 
L 488.371933 121.251597 
L 490.341924 120.753819 
L 491.32692 117.891597 
L 492.311915 116.771597 
L 493.296911 116.771597 
L 494.281906 116.024931 
L 495.266902 115.029375 
L 496.251898 115.029375 
L 497.236893 114.158264 
L 498.221889 111.669375 
L 499.206884 111.171597 
L 500.19188 110.922708 
L 504.131862 108.433819 
L 505.116858 107.064931 
L 506.101853 106.442708 
L 507.086849 104.700486 
L 508.071845 103.953819 
L 511.026831 102.833819 
L 512.011827 101.713819 
L 512.996823 100.344931 
L 513.981818 100.096042 
L 514.966814 99.224931 
L 515.951809 97.109375 
L 516.936805 96.736042 
L 517.921801 96.487153 
L 518.906796 95.367153 
L 519.891792 94.744931 
L 520.876787 93.873819 
L 521.861783 90.638264 
L 522.846778 90.140486 
L 524.81677 90.140486 
L 526.786761 88.647153 
L 527.771756 87.153819 
L 529.741748 85.660486 
L 530.726743 85.536042 
L 531.711739 85.287153 
L 533.68173 83.669375 
L 535.651721 81.553819 
L 536.636717 81.056042 
L 537.621712 80.807153 
L 538.606708 80.309375 
L 540.576699 78.691597 
L 541.561695 78.193819 
L 542.54669 78.193819 
L 544.516681 77.073819 
L 545.501677 77.073819 
L 546.486673 76.202708 
L 547.471668 74.833819 
L 548.456664 73.838264 
L 549.441659 72.469375 
L 550.426655 71.971597 
L 552.396646 71.971597 
L 553.381642 71.722708 
L 554.366637 68.113819 
L 555.351633 66.869375 
L 556.336628 66.247153 
L 557.321624 65.376042 
L 559.291615 65.376042 
L 560.276611 63.260486 
L 561.261606 62.762708 
L 562.246602 61.518264 
L 563.231598 61.144931 
L 564.216593 60.522708 
L 566.186584 60.522708 
L 568.156575 59.527153 
L 569.141571 58.656042 
L 570.126567 57.536042 
L 571.111562 57.287153 
L 573.081553 57.287153 
L 574.066549 55.420486 
L 575.051545 53.927153 
L 576.03654 52.184931 
L 577.021536 51.936042 
L 579.976523 51.936042 
L 581.946514 49.571597 
L 582.931509 47.704931 
L 584.9015 46.584931 
L 586.871492 46.584931 
L 587.856487 45.589375 
L 588.841483 45.091597 
L 590.811474 42.727153 
L 591.79647 42.353819 
L 593.766461 42.353819 
L 596.721447 40.984931 
L 597.706443 40.860486 
L 600.66143 40.860486 
L 601.646425 40.238264 
L 602.631421 39.989375 
L 603.616417 39.491597 
L 604.601412 39.367153 
L 605.586408 38.496042 
L 607.556399 38.496042 
L 609.52639 36.629375 
L 610.511386 36.380486 
L 612.481377 34.638264 
L 614.451368 34.638264 
L 615.436364 34.389375 
L 615.436364 34.389375 
" style="fill:none;stroke:#1f77b4;stroke-linecap:round;stroke-width:1.5;"/>
   </g>
   <g id="patch_3">
    <path d="M 82.8 298.989375 
L 82.8 21.789375 
" style="fill:none;stroke:#cccccc;stroke-linecap:square;stroke-linejoin:miter;stroke-width:0.8;"/>
   </g>
   <g id="patch_4">
    <path d="M 640.8 298.989375 
L 640.8 21.789375 
" style="fill:none;stroke:#cccccc;stroke-linecap:square;stroke-linejoin:miter;stroke-width:0.8;"/>
   </g>
   <g id="patch_5">
    <path d="M 82.8 298.989375 
L 640.8 298.989375 
" style="fill:none;stroke:#cccccc;stroke-linecap:square;stroke-linejoin:miter;stroke-width:0.8;"/>
   </g>
   <g id="patch_6">
    <path d="M 82.8 21.789375 
L 640.8 21.789375 
" style="fill:none;stroke:#cccccc;stroke-linecap:square;stroke-linejoin:miter;stroke-width:0.8;"/>
   </g>
   <g id="text_20">
    <!-- Óbitos -->
    <g style="fill:#262626;" transform="translate(344.46 15.789375)scale(0.12 -0.12)">
     <defs>
      <path d="M 309 2231 
Q 309 3372 921 4017 
Q 1534 4663 2503 4663 
Q 3138 4663 3647 4359 
Q 4156 4056 4423 3514 
Q 4691 2972 4691 2284 
Q 4691 1588 4409 1038 
Q 4128 488 3612 205 
Q 3097 -78 2500 -78 
Q 1853 -78 1343 234 
Q 834 547 571 1087 
Q 309 1628 309 2231 
z
M 934 2222 
Q 934 1394 1379 917 
Q 1825 441 2497 441 
Q 3181 441 3623 922 
Q 4066 1403 4066 2288 
Q 4066 2847 3877 3264 
Q 3688 3681 3323 3911 
Q 2959 4141 2506 4141 
Q 1863 4141 1398 3698 
Q 934 3256 934 2222 
z
M 2118 4883 
L 2533 5758 
L 3271 5758 
L 2583 4883 
L 2118 4883 
z
" id="ArialMT-d3" transform="scale(0.015625)"/>
      <path d="M 941 0 
L 419 0 
L 419 4581 
L 981 4581 
L 981 2947 
Q 1338 3394 1891 3394 
Q 2197 3394 2470 3270 
Q 2744 3147 2920 2923 
Q 3097 2700 3197 2384 
Q 3297 2069 3297 1709 
Q 3297 856 2875 390 
Q 2453 -75 1863 -75 
Q 1275 -75 941 416 
L 941 0 
z
M 934 1684 
Q 934 1088 1097 822 
Q 1363 388 1816 388 
Q 2184 388 2453 708 
Q 2722 1028 2722 1663 
Q 2722 2313 2464 2622 
Q 2206 2931 1841 2931 
Q 1472 2931 1203 2611 
Q 934 2291 934 1684 
z
" id="ArialMT-62" transform="scale(0.015625)"/>
      <path d="M 425 3934 
L 425 4581 
L 988 4581 
L 988 3934 
L 425 3934 
z
M 425 0 
L 425 3319 
L 988 3319 
L 988 0 
L 425 0 
z
" id="ArialMT-69" transform="scale(0.015625)"/>
      <path d="M 1650 503 
L 1731 6 
Q 1494 -44 1306 -44 
Q 1000 -44 831 53 
Q 663 150 594 308 
Q 525 466 525 972 
L 525 2881 
L 113 2881 
L 113 3319 
L 525 3319 
L 525 4141 
L 1084 4478 
L 1084 3319 
L 1650 3319 
L 1650 2881 
L 1084 2881 
L 1084 941 
Q 1084 700 1114 631 
Q 1144 563 1211 522 
Q 1278 481 1403 481 
Q 1497 481 1650 503 
z
" id="ArialMT-74" transform="scale(0.015625)"/>
      <path d="M 213 1659 
Q 213 2581 725 3025 
Q 1153 3394 1769 3394 
Q 2453 3394 2887 2945 
Q 3322 2497 3322 1706 
Q 3322 1066 3130 698 
Q 2938 331 2570 128 
Q 2203 -75 1769 -75 
Q 1072 -75 642 372 
Q 213 819 213 1659 
z
M 791 1659 
Q 791 1022 1069 705 
Q 1347 388 1769 388 
Q 2188 388 2466 706 
Q 2744 1025 2744 1678 
Q 2744 2294 2464 2611 
Q 2184 2928 1769 2928 
Q 1347 2928 1069 2612 
Q 791 2297 791 1659 
z
" id="ArialMT-6f" transform="scale(0.015625)"/>
      <path d="M 197 991 
L 753 1078 
Q 800 744 1014 566 
Q 1228 388 1613 388 
Q 2000 388 2187 545 
Q 2375 703 2375 916 
Q 2375 1106 2209 1216 
Q 2094 1291 1634 1406 
Q 1016 1563 777 1677 
Q 538 1791 414 1992 
Q 291 2194 291 2438 
Q 291 2659 392 2848 
Q 494 3038 669 3163 
Q 800 3259 1026 3326 
Q 1253 3394 1513 3394 
Q 1903 3394 2198 3281 
Q 2494 3169 2634 2976 
Q 2775 2784 2828 2463 
L 2278 2388 
Q 2241 2644 2061 2787 
Q 1881 2931 1553 2931 
Q 1166 2931 1000 2803 
Q 834 2675 834 2503 
Q 834 2394 903 2306 
Q 972 2216 1119 2156 
Q 1203 2125 1616 2013 
Q 2213 1853 2448 1751 
Q 2684 1650 2818 1456 
Q 2953 1263 2953 975 
Q 2953 694 2789 445 
Q 2625 197 2315 61 
Q 2006 -75 1616 -75 
Q 969 -75 630 194 
Q 291 463 197 991 
z
" id="ArialMT-73" transform="scale(0.015625)"/>
     </defs>
     <use xlink:href="#ArialMT-d3"/>
     <use x="77.783203" xlink:href="#ArialMT-62"/>
     <use x="133.398438" xlink:href="#ArialMT-69"/>
     <use x="155.615234" xlink:href="#ArialMT-74"/>
     <use x="183.398438" xlink:href="#ArialMT-6f"/>
     <use x="239.013672" xlink:href="#ArialMT-73"/>
    </g>
   </g>
  </g>
  <g id="text_21">
   <!-- Atualizado em 16/08/2021 -->
   <g style="fill:#262626;" transform="translate(7.2 331.389375)scale(0.08 -0.08)">
    <defs>
     <path d="M -9 0 
L 1750 4581 
L 2403 4581 
L 4278 0 
L 3588 0 
L 3053 1388 
L 1138 1388 
L 634 0 
L -9 0 
z
M 1313 1881 
L 2866 1881 
L 2388 3150 
Q 2169 3728 2063 4100 
Q 1975 3659 1816 3225 
L 1313 1881 
z
" id="ArialMT-41" transform="scale(0.015625)"/>
     <path d="M 2597 0 
L 2597 488 
Q 2209 -75 1544 -75 
Q 1250 -75 995 37 
Q 741 150 617 320 
Q 494 491 444 738 
Q 409 903 409 1263 
L 409 3319 
L 972 3319 
L 972 1478 
Q 972 1038 1006 884 
Q 1059 663 1231 536 
Q 1403 409 1656 409 
Q 1909 409 2131 539 
Q 2353 669 2445 892 
Q 2538 1116 2538 1541 
L 2538 3319 
L 3100 3319 
L 3100 0 
L 2597 0 
z
" id="ArialMT-75" transform="scale(0.015625)"/>
     <path d="M 2588 409 
Q 2275 144 1986 34 
Q 1697 -75 1366 -75 
Q 819 -75 525 192 
Q 231 459 231 875 
Q 231 1119 342 1320 
Q 453 1522 633 1644 
Q 813 1766 1038 1828 
Q 1203 1872 1538 1913 
Q 2219 1994 2541 2106 
Q 2544 2222 2544 2253 
Q 2544 2597 2384 2738 
Q 2169 2928 1744 2928 
Q 1347 2928 1158 2789 
Q 969 2650 878 2297 
L 328 2372 
Q 403 2725 575 2942 
Q 747 3159 1072 3276 
Q 1397 3394 1825 3394 
Q 2250 3394 2515 3294 
Q 2781 3194 2906 3042 
Q 3031 2891 3081 2659 
Q 3109 2516 3109 2141 
L 3109 1391 
Q 3109 606 3145 398 
Q 3181 191 3288 0 
L 2700 0 
Q 2613 175 2588 409 
z
M 2541 1666 
Q 2234 1541 1622 1453 
Q 1275 1403 1131 1340 
Q 988 1278 909 1158 
Q 831 1038 831 891 
Q 831 666 1001 516 
Q 1172 366 1500 366 
Q 1825 366 2078 508 
Q 2331 650 2450 897 
Q 2541 1088 2541 1459 
L 2541 1666 
z
" id="ArialMT-61" transform="scale(0.015625)"/>
     <path d="M 409 0 
L 409 4581 
L 972 4581 
L 972 0 
L 409 0 
z
" id="ArialMT-6c" transform="scale(0.015625)"/>
     <path d="M 125 0 
L 125 456 
L 2238 2881 
Q 1878 2863 1603 2863 
L 250 2863 
L 250 3319 
L 2963 3319 
L 2963 2947 
L 1166 841 
L 819 456 
Q 1197 484 1528 484 
L 3063 484 
L 3063 0 
L 125 0 
z
" id="ArialMT-7a" transform="scale(0.015625)"/>
     <path d="M 2575 0 
L 2575 419 
Q 2259 -75 1647 -75 
Q 1250 -75 917 144 
Q 584 363 401 755 
Q 219 1147 219 1656 
Q 219 2153 384 2558 
Q 550 2963 881 3178 
Q 1213 3394 1622 3394 
Q 1922 3394 2156 3267 
Q 2391 3141 2538 2938 
L 2538 4581 
L 3097 4581 
L 3097 0 
L 2575 0 
z
M 797 1656 
Q 797 1019 1065 703 
Q 1334 388 1700 388 
Q 2069 388 2326 689 
Q 2584 991 2584 1609 
Q 2584 2291 2321 2609 
Q 2059 2928 1675 2928 
Q 1300 2928 1048 2622 
Q 797 2316 797 1656 
z
" id="ArialMT-64" transform="scale(0.015625)"/>
     <path id="ArialMT-20" transform="scale(0.015625)"/>
     <path d="M 2694 1069 
L 3275 997 
Q 3138 488 2766 206 
Q 2394 -75 1816 -75 
Q 1088 -75 661 373 
Q 234 822 234 1631 
Q 234 2469 665 2931 
Q 1097 3394 1784 3394 
Q 2450 3394 2872 2941 
Q 3294 2488 3294 1666 
Q 3294 1616 3291 1516 
L 816 1516 
Q 847 969 1125 678 
Q 1403 388 1819 388 
Q 2128 388 2347 550 
Q 2566 713 2694 1069 
z
M 847 1978 
L 2700 1978 
Q 2663 2397 2488 2606 
Q 2219 2931 1791 2931 
Q 1403 2931 1139 2672 
Q 875 2413 847 1978 
z
" id="ArialMT-65" transform="scale(0.015625)"/>
     <path d="M 422 0 
L 422 3319 
L 925 3319 
L 925 2853 
Q 1081 3097 1340 3245 
Q 1600 3394 1931 3394 
Q 2300 3394 2536 3241 
Q 2772 3088 2869 2813 
Q 3263 3394 3894 3394 
Q 4388 3394 4653 3120 
Q 4919 2847 4919 2278 
L 4919 0 
L 4359 0 
L 4359 2091 
Q 4359 2428 4304 2576 
Q 4250 2725 4106 2815 
Q 3963 2906 3769 2906 
Q 3419 2906 3187 2673 
Q 2956 2441 2956 1928 
L 2956 0 
L 2394 0 
L 2394 2156 
Q 2394 2531 2256 2718 
Q 2119 2906 1806 2906 
Q 1569 2906 1367 2781 
Q 1166 2656 1075 2415 
Q 984 2175 984 1722 
L 984 0 
L 422 0 
z
" id="ArialMT-6d" transform="scale(0.015625)"/>
     <path d="M 3184 3459 
L 2625 3416 
Q 2550 3747 2413 3897 
Q 2184 4138 1850 4138 
Q 1581 4138 1378 3988 
Q 1113 3794 959 3422 
Q 806 3050 800 2363 
Q 1003 2672 1297 2822 
Q 1591 2972 1913 2972 
Q 2475 2972 2870 2558 
Q 3266 2144 3266 1488 
Q 3266 1056 3080 686 
Q 2894 316 2569 119 
Q 2244 -78 1831 -78 
Q 1128 -78 684 439 
Q 241 956 241 2144 
Q 241 3472 731 4075 
Q 1159 4600 1884 4600 
Q 2425 4600 2770 4297 
Q 3116 3994 3184 3459 
z
M 888 1484 
Q 888 1194 1011 928 
Q 1134 663 1356 523 
Q 1578 384 1822 384 
Q 2178 384 2434 671 
Q 2691 959 2691 1453 
Q 2691 1928 2437 2201 
Q 2184 2475 1800 2475 
Q 1419 2475 1153 2201 
Q 888 1928 888 1484 
z
" id="ArialMT-36" transform="scale(0.015625)"/>
     <path d="M 0 -78 
L 1328 4659 
L 1778 4659 
L 453 -78 
L 0 -78 
z
" id="ArialMT-2f" transform="scale(0.015625)"/>
     <path d="M 1131 2484 
Q 781 2613 612 2850 
Q 444 3088 444 3419 
Q 444 3919 803 4259 
Q 1163 4600 1759 4600 
Q 2359 4600 2725 4251 
Q 3091 3903 3091 3403 
Q 3091 3084 2923 2848 
Q 2756 2613 2416 2484 
Q 2838 2347 3058 2040 
Q 3278 1734 3278 1309 
Q 3278 722 2862 322 
Q 2447 -78 1769 -78 
Q 1091 -78 675 323 
Q 259 725 259 1325 
Q 259 1772 486 2073 
Q 713 2375 1131 2484 
z
M 1019 3438 
Q 1019 3113 1228 2906 
Q 1438 2700 1772 2700 
Q 2097 2700 2305 2904 
Q 2513 3109 2513 3406 
Q 2513 3716 2298 3927 
Q 2084 4138 1766 4138 
Q 1444 4138 1231 3931 
Q 1019 3725 1019 3438 
z
M 838 1322 
Q 838 1081 952 856 
Q 1066 631 1291 507 
Q 1516 384 1775 384 
Q 2178 384 2440 643 
Q 2703 903 2703 1303 
Q 2703 1709 2433 1975 
Q 2163 2241 1756 2241 
Q 1359 2241 1098 1978 
Q 838 1716 838 1322 
z
" id="ArialMT-38" transform="scale(0.015625)"/>
    </defs>
    <use xlink:href="#ArialMT-41"/>
    <use x="66.699219" xlink:href="#ArialMT-74"/>
    <use x="94.482422" xlink:href="#ArialMT-75"/>
    <use x="150.097656" xlink:href="#ArialMT-61"/>
    <use x="205.712891" xlink:href="#ArialMT-6c"/>
    <use x="227.929688" xlink:href="#ArialMT-69"/>
    <use x="250.146484" xlink:href="#ArialMT-7a"/>
    <use x="300.146484" xlink:href="#ArialMT-61"/>
    <use x="355.761719" xlink:href="#ArialMT-64"/>
    <use x="411.376953" xlink:href="#ArialMT-6f"/>
    <use x="466.992188" xlink:href="#ArialMT-20"/>
    <use x="494.775391" xlink:href="#ArialMT-65"/>
    <use x="550.390625" xlink:href="#ArialMT-6d"/>
    <use x="633.691406" xlink:href="#ArialMT-20"/>
    <use x="661.474609" xlink:href="#ArialMT-31"/>
    <use x="717.089844" xlink:href="#ArialMT-36"/>
    <use x="772.705078" xlink:href="#ArialMT-2f"/>
    <use x="800.488281" xlink:href="#ArialMT-30"/>
    <use x="856.103516" xlink:href="#ArialMT-38"/>
    <use x="911.71875" xlink:href="#ArialMT-2f"/>
    <use x="939.501953" xlink:href="#ArialMT-32"/>
    <use x="995.117188" xlink:href="#ArialMT-30"/>
    <use x="1050.732422" xlink:href="#ArialMT-32"/>
    <use x="1106.347656" xlink:href="#ArialMT-31"/>
   </g>
  </g>
  <g id="text_22">
   <!-- https://jmsvaz.github.io/covidsantos/ -->
   <g style="fill:#262626;" transform="translate(570.345 331.389375)scale(0.08 -0.08)">
    <defs>
     <path d="M 422 0 
L 422 4581 
L 984 4581 
L 984 2938 
Q 1378 3394 1978 3394 
Q 2347 3394 2619 3248 
Q 2891 3103 3008 2847 
Q 3125 2591 3125 2103 
L 3125 0 
L 2563 0 
L 2563 2103 
Q 2563 2525 2380 2717 
Q 2197 2909 1863 2909 
Q 1613 2909 1392 2779 
Q 1172 2650 1078 2428 
Q 984 2206 984 1816 
L 984 0 
L 422 0 
z
" id="ArialMT-68" transform="scale(0.015625)"/>
     <path d="M 422 -1272 
L 422 3319 
L 934 3319 
L 934 2888 
Q 1116 3141 1344 3267 
Q 1572 3394 1897 3394 
Q 2322 3394 2647 3175 
Q 2972 2956 3137 2557 
Q 3303 2159 3303 1684 
Q 3303 1175 3120 767 
Q 2938 359 2589 142 
Q 2241 -75 1856 -75 
Q 1575 -75 1351 44 
Q 1128 163 984 344 
L 984 -1272 
L 422 -1272 
z
M 931 1641 
Q 931 1000 1190 694 
Q 1450 388 1819 388 
Q 2194 388 2461 705 
Q 2728 1022 2728 1688 
Q 2728 2322 2467 2637 
Q 2206 2953 1844 2953 
Q 1484 2953 1207 2617 
Q 931 2281 931 1641 
z
" id="ArialMT-70" transform="scale(0.015625)"/>
     <path d="M 578 2678 
L 578 3319 
L 1219 3319 
L 1219 2678 
L 578 2678 
z
M 578 0 
L 578 641 
L 1219 641 
L 1219 0 
L 578 0 
z
" id="ArialMT-3a" transform="scale(0.015625)"/>
     <path d="M 419 3928 
L 419 4581 
L 981 4581 
L 981 3928 
L 419 3928 
z
M -294 -1288 
L -188 -809 
Q -19 -853 78 -853 
Q 250 -853 334 -739 
Q 419 -625 419 -169 
L 419 3319 
L 981 3319 
L 981 -181 
Q 981 -794 822 -1034 
Q 619 -1347 147 -1347 
Q -81 -1347 -294 -1288 
z
" id="ArialMT-6a" transform="scale(0.015625)"/>
     <path d="M 1344 0 
L 81 3319 
L 675 3319 
L 1388 1331 
Q 1503 1009 1600 663 
Q 1675 925 1809 1294 
L 2547 3319 
L 3125 3319 
L 1869 0 
L 1344 0 
z
" id="ArialMT-76" transform="scale(0.015625)"/>
     <path d="M 581 0 
L 581 641 
L 1222 641 
L 1222 0 
L 581 0 
z
" id="ArialMT-2e" transform="scale(0.015625)"/>
     <path d="M 319 -275 
L 866 -356 
Q 900 -609 1056 -725 
Q 1266 -881 1628 -881 
Q 2019 -881 2231 -725 
Q 2444 -569 2519 -288 
Q 2563 -116 2559 434 
Q 2191 0 1641 0 
Q 956 0 581 494 
Q 206 988 206 1678 
Q 206 2153 378 2554 
Q 550 2956 876 3175 
Q 1203 3394 1644 3394 
Q 2231 3394 2613 2919 
L 2613 3319 
L 3131 3319 
L 3131 450 
Q 3131 -325 2973 -648 
Q 2816 -972 2473 -1159 
Q 2131 -1347 1631 -1347 
Q 1038 -1347 672 -1080 
Q 306 -813 319 -275 
z
M 784 1719 
Q 784 1066 1043 766 
Q 1303 466 1694 466 
Q 2081 466 2343 764 
Q 2606 1063 2606 1700 
Q 2606 2309 2336 2618 
Q 2066 2928 1684 2928 
Q 1309 2928 1046 2623 
Q 784 2319 784 1719 
z
" id="ArialMT-67" transform="scale(0.015625)"/>
     <path d="M 2588 1216 
L 3141 1144 
Q 3050 572 2676 248 
Q 2303 -75 1759 -75 
Q 1078 -75 664 370 
Q 250 816 250 1647 
Q 250 2184 428 2587 
Q 606 2991 970 3192 
Q 1334 3394 1763 3394 
Q 2303 3394 2647 3120 
Q 2991 2847 3088 2344 
L 2541 2259 
Q 2463 2594 2264 2762 
Q 2066 2931 1784 2931 
Q 1359 2931 1093 2626 
Q 828 2322 828 1663 
Q 828 994 1084 691 
Q 1341 388 1753 388 
Q 2084 388 2306 591 
Q 2528 794 2588 1216 
z
" id="ArialMT-63" transform="scale(0.015625)"/>
     <path d="M 422 0 
L 422 3319 
L 928 3319 
L 928 2847 
Q 1294 3394 1984 3394 
Q 2284 3394 2536 3286 
Q 2788 3178 2913 3003 
Q 3038 2828 3088 2588 
Q 3119 2431 3119 2041 
L 3119 0 
L 2556 0 
L 2556 2019 
Q 2556 2363 2490 2533 
Q 2425 2703 2258 2804 
Q 2091 2906 1866 2906 
Q 1506 2906 1245 2678 
Q 984 2450 984 1813 
L 984 0 
L 422 0 
z
" id="ArialMT-6e" transform="scale(0.015625)"/>
    </defs>
    <use xlink:href="#ArialMT-68"/>
    <use x="55.615234" xlink:href="#ArialMT-74"/>
    <use x="83.398438" xlink:href="#ArialMT-74"/>
    <use x="111.181641" xlink:href="#ArialMT-70"/>
    <use x="166.796875" xlink:href="#ArialMT-73"/>
    <use x="216.796875" xlink:href="#ArialMT-3a"/>
    <use x="244.580078" xlink:href="#ArialMT-2f"/>
    <use x="272.363281" xlink:href="#ArialMT-2f"/>
    <use x="300.146484" xlink:href="#ArialMT-6a"/>
    <use x="322.363281" xlink:href="#ArialMT-6d"/>
    <use x="405.664062" xlink:href="#ArialMT-73"/>
    <use x="455.664062" xlink:href="#ArialMT-76"/>
    <use x="505.664062" xlink:href="#ArialMT-61"/>
    <use x="561.279297" xlink:href="#ArialMT-7a"/>
    <use x="611.279297" xlink:href="#ArialMT-2e"/>
    <use x="639.0625" xlink:href="#ArialMT-67"/>
    <use x="694.677734" xlink:href="#ArialMT-69"/>
    <use x="716.894531" xlink:href="#ArialMT-74"/>
    <use x="744.677734" xlink:href="#ArialMT-68"/>
    <use x="800.292969" xlink:href="#ArialMT-75"/>
    <use x="855.908203" xlink:href="#ArialMT-62"/>
    <use x="911.523438" xlink:href="#ArialMT-2e"/>
    <use x="939.306641" xlink:href="#ArialMT-69"/>
    <use x="961.523438" xlink:href="#ArialMT-6f"/>
    <use x="1017.138672" xlink:href="#ArialMT-2f"/>
    <use x="1044.921875" xlink:href="#ArialMT-63"/>
    <use x="1094.921875" xlink:href="#ArialMT-6f"/>
    <use x="1150.537109" xlink:href="#ArialMT-76"/>
    <use x="1200.537109" xlink:href="#ArialMT-69"/>
    <use x="1222.753906" xlink:href="#ArialMT-64"/>
    <use x="1278.369141" xlink:href="#ArialMT-73"/>
    <use x="1328.369141" xlink:href="#ArialMT-61"/>
    <use x="1383.984375" xlink:href="#ArialMT-6e"/>
    <use x="1439.599609" xlink:href="#ArialMT-74"/>
    <use x="1467.382812" xlink:href="#ArialMT-6f"/>
    <use x="1522.998047" xlink:href="#ArialMT-73"/>
    <use x="1572.998047" xlink:href="#ArialMT-2f"/>
   </g>
  </g>
 </g>
 <defs>
  <clipPath id="p19b61db28c">
   <rect height="277.2" width="558" x="82.8" y="21.789375"/>
  </clipPath>
 </defs>
</svg>
