<?xml version="1.0" encoding="utf-8" standalone="no"?>
<!DOCTYPE svg PUBLIC "-//W3C//DTD SVG 1.1//EN"
  "http://www.w3.org/Graphics/SVG/1.1/DTD/svg11.dtd">
<svg height="340.273125pt" version="1.1" viewBox="0 0 705.6 340.273125" width="705.6pt" xmlns="http://www.w3.org/2000/svg" xmlns:xlink="http://www.w3.org/1999/xlink">
 <metadata>
  <rdf:RDF xmlns:cc="http://creativecommons.org/ns#" xmlns:dc="http://purl.org/dc/elements/1.1/" xmlns:rdf="http://www.w3.org/1999/02/22-rdf-syntax-ns#">
   <cc:Work>
    <dc:type rdf:resource="http://purl.org/dc/dcmitype/StillImage"/>
    <dc:date>2021-07-25T18:46:00.226062</dc:date>
    <dc:format>image/svg+xml</dc:format>
    <dc:creator>
     <cc:Agent>
      <dc:title>Matplotlib v3.4.2, https://matplotlib.org/</dc:title>
     </cc:Agent>
    </dc:creator>
   </cc:Work>
  </rdf:RDF>
 </metadata>
 <defs>
  <style type="text/css">*{stroke-linecap:butt;stroke-linejoin:round;}</style>
 </defs>
 <g id="figure_1">
  <g id="patch_1">
   <path d="M 0 340.273125 
L 705.6 340.273125 
L 705.6 0 
L 0 0 
z
" style="fill:#ffffff;"/>
  </g>
  <g id="axes_1">
   <g id="patch_2">
    <path d="M 82.8 298.989375 
L 640.8 298.989375 
L 640.8 21.789375 
L 82.8 21.789375 
z
" style="fill:#ffffff;"/>
   </g>
   <g id="matplotlib.axis_1">
    <g id="xtick_1">
     <g id="line2d_1">
      <path clip-path="url(#p3130370fa5)" d="M 89.642523 298.989375 
L 89.642523 21.789375 
" style="fill:none;stroke:#cccccc;stroke-linecap:round;stroke-width:0.8;"/>
     </g>
     <g id="text_1">
      <!-- 2020-03 -->
      <g style="fill:#262626;" transform="translate(71.294866 313.147188)scale(0.1 -0.1)">
       <defs>
        <path d="M 3222 541 
L 3222 0 
L 194 0 
Q 188 203 259 391 
Q 375 700 629 1000 
Q 884 1300 1366 1694 
Q 2113 2306 2375 2664 
Q 2638 3022 2638 3341 
Q 2638 3675 2398 3904 
Q 2159 4134 1775 4134 
Q 1369 4134 1125 3890 
Q 881 3647 878 3216 
L 300 3275 
Q 359 3922 746 4261 
Q 1134 4600 1788 4600 
Q 2447 4600 2831 4234 
Q 3216 3869 3216 3328 
Q 3216 3053 3103 2787 
Q 2991 2522 2730 2228 
Q 2469 1934 1863 1422 
Q 1356 997 1212 845 
Q 1069 694 975 541 
L 3222 541 
z
" id="ArialMT-32" transform="scale(0.015625)"/>
        <path d="M 266 2259 
Q 266 3072 433 3567 
Q 600 4063 929 4331 
Q 1259 4600 1759 4600 
Q 2128 4600 2406 4451 
Q 2684 4303 2865 4023 
Q 3047 3744 3150 3342 
Q 3253 2941 3253 2259 
Q 3253 1453 3087 958 
Q 2922 463 2592 192 
Q 2263 -78 1759 -78 
Q 1097 -78 719 397 
Q 266 969 266 2259 
z
M 844 2259 
Q 844 1131 1108 757 
Q 1372 384 1759 384 
Q 2147 384 2411 759 
Q 2675 1134 2675 2259 
Q 2675 3391 2411 3762 
Q 2147 4134 1753 4134 
Q 1366 4134 1134 3806 
Q 844 3388 844 2259 
z
" id="ArialMT-30" transform="scale(0.015625)"/>
        <path d="M 203 1375 
L 203 1941 
L 1931 1941 
L 1931 1375 
L 203 1375 
z
" id="ArialMT-2d" transform="scale(0.015625)"/>
        <path d="M 269 1209 
L 831 1284 
Q 928 806 1161 595 
Q 1394 384 1728 384 
Q 2125 384 2398 659 
Q 2672 934 2672 1341 
Q 2672 1728 2419 1979 
Q 2166 2231 1775 2231 
Q 1616 2231 1378 2169 
L 1441 2663 
Q 1497 2656 1531 2656 
Q 1891 2656 2178 2843 
Q 2466 3031 2466 3422 
Q 2466 3731 2256 3934 
Q 2047 4138 1716 4138 
Q 1388 4138 1169 3931 
Q 950 3725 888 3313 
L 325 3413 
Q 428 3978 793 4289 
Q 1159 4600 1703 4600 
Q 2078 4600 2393 4439 
Q 2709 4278 2876 4000 
Q 3044 3722 3044 3409 
Q 3044 3113 2884 2869 
Q 2725 2625 2413 2481 
Q 2819 2388 3044 2092 
Q 3269 1797 3269 1353 
Q 3269 753 2831 336 
Q 2394 -81 1725 -81 
Q 1122 -81 723 278 
Q 325 638 269 1209 
z
" id="ArialMT-33" transform="scale(0.015625)"/>
       </defs>
       <use xlink:href="#ArialMT-32"/>
       <use x="55.615234" xlink:href="#ArialMT-30"/>
       <use x="111.230469" xlink:href="#ArialMT-32"/>
       <use x="166.845703" xlink:href="#ArialMT-30"/>
       <use x="222.460938" xlink:href="#ArialMT-2d"/>
       <use x="255.761719" xlink:href="#ArialMT-30"/>
       <use x="311.376953" xlink:href="#ArialMT-33"/>
      </g>
     </g>
    </g>
    <g id="xtick_2">
     <g id="line2d_2">
      <path clip-path="url(#p3130370fa5)" d="M 152.408519 298.989375 
L 152.408519 21.789375 
" style="fill:none;stroke:#cccccc;stroke-linecap:round;stroke-width:0.8;"/>
     </g>
     <g id="text_2">
      <!-- 2020-05 -->
      <g style="fill:#262626;" transform="translate(134.060863 313.147188)scale(0.1 -0.1)">
       <defs>
        <path d="M 266 1200 
L 856 1250 
Q 922 819 1161 601 
Q 1400 384 1738 384 
Q 2144 384 2425 690 
Q 2706 997 2706 1503 
Q 2706 1984 2436 2262 
Q 2166 2541 1728 2541 
Q 1456 2541 1237 2417 
Q 1019 2294 894 2097 
L 366 2166 
L 809 4519 
L 3088 4519 
L 3088 3981 
L 1259 3981 
L 1013 2750 
Q 1425 3038 1878 3038 
Q 2478 3038 2890 2622 
Q 3303 2206 3303 1553 
Q 3303 931 2941 478 
Q 2500 -78 1738 -78 
Q 1113 -78 717 272 
Q 322 622 266 1200 
z
" id="ArialMT-35" transform="scale(0.015625)"/>
       </defs>
       <use xlink:href="#ArialMT-32"/>
       <use x="55.615234" xlink:href="#ArialMT-30"/>
       <use x="111.230469" xlink:href="#ArialMT-32"/>
       <use x="166.845703" xlink:href="#ArialMT-30"/>
       <use x="222.460938" xlink:href="#ArialMT-2d"/>
       <use x="255.761719" xlink:href="#ArialMT-30"/>
       <use x="311.376953" xlink:href="#ArialMT-35"/>
      </g>
     </g>
    </g>
    <g id="xtick_3">
     <g id="line2d_3">
      <path clip-path="url(#p3130370fa5)" d="M 215.174516 298.989375 
L 215.174516 21.789375 
" style="fill:none;stroke:#cccccc;stroke-linecap:round;stroke-width:0.8;"/>
     </g>
     <g id="text_3">
      <!-- 2020-07 -->
      <g style="fill:#262626;" transform="translate(196.82686 313.147188)scale(0.1 -0.1)">
       <defs>
        <path d="M 303 3981 
L 303 4522 
L 3269 4522 
L 3269 4084 
Q 2831 3619 2401 2847 
Q 1972 2075 1738 1259 
Q 1569 684 1522 0 
L 944 0 
Q 953 541 1156 1306 
Q 1359 2072 1739 2783 
Q 2119 3494 2547 3981 
L 303 3981 
z
" id="ArialMT-37" transform="scale(0.015625)"/>
       </defs>
       <use xlink:href="#ArialMT-32"/>
       <use x="55.615234" xlink:href="#ArialMT-30"/>
       <use x="111.230469" xlink:href="#ArialMT-32"/>
       <use x="166.845703" xlink:href="#ArialMT-30"/>
       <use x="222.460938" xlink:href="#ArialMT-2d"/>
       <use x="255.761719" xlink:href="#ArialMT-30"/>
       <use x="311.376953" xlink:href="#ArialMT-37"/>
      </g>
     </g>
    </g>
    <g id="xtick_4">
     <g id="line2d_4">
      <path clip-path="url(#p3130370fa5)" d="M 278.969463 298.989375 
L 278.969463 21.789375 
" style="fill:none;stroke:#cccccc;stroke-linecap:round;stroke-width:0.8;"/>
     </g>
     <g id="text_4">
      <!-- 2020-09 -->
      <g style="fill:#262626;" transform="translate(260.621807 313.147188)scale(0.1 -0.1)">
       <defs>
        <path d="M 350 1059 
L 891 1109 
Q 959 728 1153 556 
Q 1347 384 1650 384 
Q 1909 384 2104 503 
Q 2300 622 2425 820 
Q 2550 1019 2634 1356 
Q 2719 1694 2719 2044 
Q 2719 2081 2716 2156 
Q 2547 1888 2255 1720 
Q 1963 1553 1622 1553 
Q 1053 1553 659 1965 
Q 266 2378 266 3053 
Q 266 3750 677 4175 
Q 1088 4600 1706 4600 
Q 2153 4600 2523 4359 
Q 2894 4119 3086 3673 
Q 3278 3228 3278 2384 
Q 3278 1506 3087 986 
Q 2897 466 2520 194 
Q 2144 -78 1638 -78 
Q 1100 -78 759 220 
Q 419 519 350 1059 
z
M 2653 3081 
Q 2653 3566 2395 3850 
Q 2138 4134 1775 4134 
Q 1400 4134 1122 3828 
Q 844 3522 844 3034 
Q 844 2597 1108 2323 
Q 1372 2050 1759 2050 
Q 2150 2050 2401 2323 
Q 2653 2597 2653 3081 
z
" id="ArialMT-39" transform="scale(0.015625)"/>
       </defs>
       <use xlink:href="#ArialMT-32"/>
       <use x="55.615234" xlink:href="#ArialMT-30"/>
       <use x="111.230469" xlink:href="#ArialMT-32"/>
       <use x="166.845703" xlink:href="#ArialMT-30"/>
       <use x="222.460938" xlink:href="#ArialMT-2d"/>
       <use x="255.761719" xlink:href="#ArialMT-30"/>
       <use x="311.376953" xlink:href="#ArialMT-39"/>
      </g>
     </g>
    </g>
    <g id="xtick_5">
     <g id="line2d_5">
      <path clip-path="url(#p3130370fa5)" d="M 341.73546 298.989375 
L 341.73546 21.789375 
" style="fill:none;stroke:#cccccc;stroke-linecap:round;stroke-width:0.8;"/>
     </g>
     <g id="text_5">
      <!-- 2020-11 -->
      <g style="fill:#262626;" transform="translate(323.756554 313.147188)scale(0.1 -0.1)">
       <defs>
        <path d="M 2384 0 
L 1822 0 
L 1822 3584 
Q 1619 3391 1289 3197 
Q 959 3003 697 2906 
L 697 3450 
Q 1169 3672 1522 3987 
Q 1875 4303 2022 4600 
L 2384 4600 
L 2384 0 
z
" id="ArialMT-31" transform="scale(0.015625)"/>
       </defs>
       <use xlink:href="#ArialMT-32"/>
       <use x="55.615234" xlink:href="#ArialMT-30"/>
       <use x="111.230469" xlink:href="#ArialMT-32"/>
       <use x="166.845703" xlink:href="#ArialMT-30"/>
       <use x="222.460938" xlink:href="#ArialMT-2d"/>
       <use x="255.761719" xlink:href="#ArialMT-31"/>
       <use x="304.001953" xlink:href="#ArialMT-31"/>
      </g>
     </g>
    </g>
    <g id="xtick_6">
     <g id="line2d_6">
      <path clip-path="url(#p3130370fa5)" d="M 404.501457 298.989375 
L 404.501457 21.789375 
" style="fill:none;stroke:#cccccc;stroke-linecap:round;stroke-width:0.8;"/>
     </g>
     <g id="text_6">
      <!-- 2021-01 -->
      <g style="fill:#262626;" transform="translate(386.153801 313.147188)scale(0.1 -0.1)">
       <use xlink:href="#ArialMT-32"/>
       <use x="55.615234" xlink:href="#ArialMT-30"/>
       <use x="111.230469" xlink:href="#ArialMT-32"/>
       <use x="166.845703" xlink:href="#ArialMT-31"/>
       <use x="222.460938" xlink:href="#ArialMT-2d"/>
       <use x="255.761719" xlink:href="#ArialMT-30"/>
       <use x="311.376953" xlink:href="#ArialMT-31"/>
      </g>
     </g>
    </g>
    <g id="xtick_7">
     <g id="line2d_7">
      <path clip-path="url(#p3130370fa5)" d="M 465.209552 298.989375 
L 465.209552 21.789375 
" style="fill:none;stroke:#cccccc;stroke-linecap:round;stroke-width:0.8;"/>
     </g>
     <g id="text_7">
      <!-- 2021-03 -->
      <g style="fill:#262626;" transform="translate(446.861896 313.147188)scale(0.1 -0.1)">
       <use xlink:href="#ArialMT-32"/>
       <use x="55.615234" xlink:href="#ArialMT-30"/>
       <use x="111.230469" xlink:href="#ArialMT-32"/>
       <use x="166.845703" xlink:href="#ArialMT-31"/>
       <use x="222.460938" xlink:href="#ArialMT-2d"/>
       <use x="255.761719" xlink:href="#ArialMT-30"/>
       <use x="311.376953" xlink:href="#ArialMT-33"/>
      </g>
     </g>
    </g>
    <g id="xtick_8">
     <g id="line2d_8">
      <path clip-path="url(#p3130370fa5)" d="M 527.975549 298.989375 
L 527.975549 21.789375 
" style="fill:none;stroke:#cccccc;stroke-linecap:round;stroke-width:0.8;"/>
     </g>
     <g id="text_8">
      <!-- 2021-05 -->
      <g style="fill:#262626;" transform="translate(509.627892 313.147188)scale(0.1 -0.1)">
       <use xlink:href="#ArialMT-32"/>
       <use x="55.615234" xlink:href="#ArialMT-30"/>
       <use x="111.230469" xlink:href="#ArialMT-32"/>
       <use x="166.845703" xlink:href="#ArialMT-31"/>
       <use x="222.460938" xlink:href="#ArialMT-2d"/>
       <use x="255.761719" xlink:href="#ArialMT-30"/>
       <use x="311.376953" xlink:href="#ArialMT-35"/>
      </g>
     </g>
    </g>
    <g id="xtick_9">
     <g id="line2d_9">
      <path clip-path="url(#p3130370fa5)" d="M 590.741545 298.989375 
L 590.741545 21.789375 
" style="fill:none;stroke:#cccccc;stroke-linecap:round;stroke-width:0.8;"/>
     </g>
     <g id="text_9">
      <!-- 2021-07 -->
      <g style="fill:#262626;" transform="translate(572.393889 313.147188)scale(0.1 -0.1)">
       <use xlink:href="#ArialMT-32"/>
       <use x="55.615234" xlink:href="#ArialMT-30"/>
       <use x="111.230469" xlink:href="#ArialMT-32"/>
       <use x="166.845703" xlink:href="#ArialMT-31"/>
       <use x="222.460938" xlink:href="#ArialMT-2d"/>
       <use x="255.761719" xlink:href="#ArialMT-30"/>
       <use x="311.376953" xlink:href="#ArialMT-37"/>
      </g>
     </g>
    </g>
   </g>
   <g id="matplotlib.axis_2">
    <g id="ytick_1">
     <g id="line2d_10">
      <path clip-path="url(#p3130370fa5)" d="M 82.8 286.389375 
L 640.8 286.389375 
" style="fill:none;stroke:#cccccc;stroke-linecap:round;stroke-width:0.8;"/>
     </g>
     <g id="text_10">
      <!-- 0 -->
      <g style="fill:#262626;" transform="translate(70.239063 289.968281)scale(0.1 -0.1)">
       <use xlink:href="#ArialMT-30"/>
      </g>
     </g>
    </g>
    <g id="ytick_2">
     <g id="line2d_11">
      <path clip-path="url(#p3130370fa5)" d="M 82.8 248.664824 
L 640.8 248.664824 
" style="fill:none;stroke:#cccccc;stroke-linecap:round;stroke-width:0.8;"/>
     </g>
     <g id="text_11">
      <!-- 50 -->
      <g style="fill:#262626;" transform="translate(64.678125 252.24373)scale(0.1 -0.1)">
       <use xlink:href="#ArialMT-35"/>
       <use x="55.615234" xlink:href="#ArialMT-30"/>
      </g>
     </g>
    </g>
    <g id="ytick_3">
     <g id="line2d_12">
      <path clip-path="url(#p3130370fa5)" d="M 82.8 210.940273 
L 640.8 210.940273 
" style="fill:none;stroke:#cccccc;stroke-linecap:round;stroke-width:0.8;"/>
     </g>
     <g id="text_12">
      <!-- 100 -->
      <g style="fill:#262626;" transform="translate(59.117188 214.519179)scale(0.1 -0.1)">
       <use xlink:href="#ArialMT-31"/>
       <use x="55.615234" xlink:href="#ArialMT-30"/>
       <use x="111.230469" xlink:href="#ArialMT-30"/>
      </g>
     </g>
    </g>
    <g id="ytick_4">
     <g id="line2d_13">
      <path clip-path="url(#p3130370fa5)" d="M 82.8 173.215722 
L 640.8 173.215722 
" style="fill:none;stroke:#cccccc;stroke-linecap:round;stroke-width:0.8;"/>
     </g>
     <g id="text_13">
      <!-- 150 -->
      <g style="fill:#262626;" transform="translate(59.117188 176.794629)scale(0.1 -0.1)">
       <use xlink:href="#ArialMT-31"/>
       <use x="55.615234" xlink:href="#ArialMT-35"/>
       <use x="111.230469" xlink:href="#ArialMT-30"/>
      </g>
     </g>
    </g>
    <g id="ytick_5">
     <g id="line2d_14">
      <path clip-path="url(#p3130370fa5)" d="M 82.8 135.491171 
L 640.8 135.491171 
" style="fill:none;stroke:#cccccc;stroke-linecap:round;stroke-width:0.8;"/>
     </g>
     <g id="text_14">
      <!-- 200 -->
      <g style="fill:#262626;" transform="translate(59.117188 139.070078)scale(0.1 -0.1)">
       <use xlink:href="#ArialMT-32"/>
       <use x="55.615234" xlink:href="#ArialMT-30"/>
       <use x="111.230469" xlink:href="#ArialMT-30"/>
      </g>
     </g>
    </g>
    <g id="ytick_6">
     <g id="line2d_15">
      <path clip-path="url(#p3130370fa5)" d="M 82.8 97.766621 
L 640.8 97.766621 
" style="fill:none;stroke:#cccccc;stroke-linecap:round;stroke-width:0.8;"/>
     </g>
     <g id="text_15">
      <!-- 250 -->
      <g style="fill:#262626;" transform="translate(59.117188 101.345527)scale(0.1 -0.1)">
       <use xlink:href="#ArialMT-32"/>
       <use x="55.615234" xlink:href="#ArialMT-35"/>
       <use x="111.230469" xlink:href="#ArialMT-30"/>
      </g>
     </g>
    </g>
    <g id="ytick_7">
     <g id="line2d_16">
      <path clip-path="url(#p3130370fa5)" d="M 82.8 60.04207 
L 640.8 60.04207 
" style="fill:none;stroke:#cccccc;stroke-linecap:round;stroke-width:0.8;"/>
     </g>
     <g id="text_16">
      <!-- 300 -->
      <g style="fill:#262626;" transform="translate(59.117188 63.620976)scale(0.1 -0.1)">
       <use xlink:href="#ArialMT-33"/>
       <use x="55.615234" xlink:href="#ArialMT-30"/>
       <use x="111.230469" xlink:href="#ArialMT-30"/>
      </g>
     </g>
    </g>
    <g id="ytick_8">
     <g id="line2d_17">
      <path clip-path="url(#p3130370fa5)" d="M 82.8 22.317519 
L 640.8 22.317519 
" style="fill:none;stroke:#cccccc;stroke-linecap:round;stroke-width:0.8;"/>
     </g>
     <g id="text_17">
      <!-- 350 -->
      <g style="fill:#262626;" transform="translate(59.117188 25.896425)scale(0.1 -0.1)">
       <use xlink:href="#ArialMT-33"/>
       <use x="55.615234" xlink:href="#ArialMT-35"/>
       <use x="111.230469" xlink:href="#ArialMT-30"/>
      </g>
     </g>
    </g>
   </g>
   <g id="line2d_18">
    <path clip-path="url(#p3130370fa5)" d="M 108.163636 278.089974 
L 109.192587 278.089974 
L 110.221538 276.580992 
L 111.250489 276.580992 
L 112.279439 269.036082 
L 113.30839 255.455243 
L 114.337341 254.700752 
L 115.366292 251.682788 
L 116.395242 247.155842 
L 117.424193 246.401351 
L 118.453144 246.401351 
L 119.482095 245.64686 
L 120.511046 242.628896 
L 121.539996 226.030094 
L 122.568947 224.521112 
L 123.597898 224.521112 
L 124.626849 201.886381 
L 125.655799 200.377399 
L 126.68475 213.958237 
L 127.713701 210.185782 
L 128.742652 204.149854 
L 129.771602 202.640872 
L 130.800553 199.622908 
L 131.829504 199.622908 
L 132.858455 198.113926 
L 133.887405 186.796561 
L 134.916356 185.287579 
L 135.945307 189.060034 
L 136.974258 176.233686 
L 138.003209 173.215722 
L 139.032159 170.952249 
L 140.06111 167.179794 
L 141.090061 176.988177 
L 142.119012 176.988177 
L 143.147962 173.970213 
L 144.176913 167.934285 
L 145.205864 142.281591 
L 146.234815 140.772609 
L 147.263765 176.233686 
L 148.292716 178.497159 
L 149.321667 181.515124 
L 150.350618 176.233686 
L 151.379569 181.515124 
L 152.408519 173.215722 
L 153.43747 168.688776 
L 154.466421 169.443267 
L 155.495372 167.179794 
L 156.524322 161.143866 
L 157.553273 158.125902 
L 158.582224 162.652848 
L 159.611175 165.670812 
L 160.640125 161.143866 
L 161.669076 158.125902 
L 162.698027 161.898357 
L 163.726978 146.054046 
L 164.755928 152.844465 
L 165.784879 149.826501 
L 166.81383 146.054046 
L 167.842781 152.089974 
L 168.871732 140.772609 
L 169.900682 139.263626 
L 170.929633 141.5271 
L 171.958584 133.982189 
L 172.987535 137.000153 
L 174.016485 139.263626 
L 175.045436 140.772609 
L 176.074387 138.509135 
L 177.103338 137.754644 
L 178.132288 133.227698 
L 179.161239 134.73668 
L 180.19019 135.491171 
L 181.219141 123.419315 
L 182.248091 122.664824 
L 183.277042 124.173806 
L 184.305993 129.455243 
L 185.334944 129.455243 
L 186.363895 128.700752 
L 187.392845 127.19177 
L 188.421796 122.664824 
L 189.450747 122.664824 
L 190.479698 110.592968 
L 191.508648 115.874405 
L 192.537599 109.083986 
L 193.56655 114.365423 
L 194.595501 106.820513 
L 195.624451 109.838477 
L 196.653402 103.802549 
L 197.682353 112.856441 
L 198.711304 120.401351 
L 199.740254 122.664824 
L 200.769205 126.437279 
L 201.798156 130.964225 
L 202.827107 127.946261 
L 203.856058 122.664824 
L 204.885008 121.910333 
L 205.913959 118.892369 
L 206.94291 123.419315 
L 207.971861 135.491171 
L 209.000811 137.000153 
L 210.029762 131.718716 
L 211.058713 134.73668 
L 212.087664 141.5271 
L 213.116614 144.545064 
L 214.145565 150.580992 
L 215.174516 150.580992 
L 216.203467 156.61692 
L 217.232417 149.07201 
L 218.261368 152.844465 
L 219.290319 154.353447 
L 220.31927 157.371411 
L 221.348221 148.317519 
L 222.377171 164.916321 
L 223.406122 162.652848 
L 224.435073 161.898357 
L 225.464024 166.425303 
L 226.492974 171.70674 
L 227.521925 170.197758 
L 228.550876 149.826501 
L 229.579827 161.898357 
L 230.608777 153.598956 
L 231.637728 148.317519 
L 232.666679 156.61692 
L 233.69563 154.353447 
L 235.753531 158.880393 
L 236.782482 154.353447 
L 237.811433 157.371411 
L 238.840384 152.844465 
L 239.869334 154.353447 
L 241.927236 158.880393 
L 242.956187 163.407339 
L 243.985137 170.952249 
L 245.014088 173.215722 
L 246.043039 173.970213 
L 247.07199 177.742668 
L 248.10094 180.006141 
L 249.129891 177.742668 
L 250.158842 184.533088 
L 251.187793 188.305543 
L 252.216743 196.604944 
L 253.245694 194.341471 
L 254.274645 195.850453 
L 255.303596 208.6768 
L 256.332547 203.395363 
L 257.361497 207.167818 
L 258.390448 211.694764 
L 259.419399 208.6768 
L 260.44835 207.922309 
L 261.4773 204.904345 
L 262.506251 203.395363 
L 263.535202 202.640872 
L 264.564153 189.814525 
L 265.593103 198.113926 
L 267.651005 207.167818 
L 268.679956 204.904345 
L 269.708907 214.712728 
L 270.737857 215.467219 
L 271.766808 213.203746 
L 272.795759 215.467219 
L 273.82471 219.239674 
L 274.85366 213.203746 
L 275.882611 221.503147 
L 276.911562 207.167818 
L 277.940513 197.359435 
L 278.969463 195.850453 
L 279.998414 199.622908 
L 281.027365 201.13189 
L 282.056316 201.13189 
L 283.085266 203.395363 
L 284.114217 203.395363 
L 285.143168 211.694764 
L 286.172119 210.185782 
L 287.20107 200.377399 
L 288.23002 203.395363 
L 289.258971 200.377399 
L 290.287922 199.622908 
L 291.316873 200.377399 
L 292.345823 203.395363 
L 294.403725 212.449255 
L 295.432676 213.203746 
L 296.461626 210.940273 
L 297.490577 209.431291 
L 299.548479 210.940273 
L 300.577429 217.730692 
L 301.60638 217.730692 
L 302.635331 231.311531 
L 303.664282 229.048058 
L 304.693233 227.539076 
L 305.722183 223.012129 
L 306.751134 221.503147 
L 307.780085 222.257638 
L 308.809036 219.239674 
L 309.837986 223.012129 
L 310.866937 222.257638 
L 311.895888 217.730692 
L 312.924839 219.239674 
L 313.953789 219.994165 
L 314.98274 214.712728 
L 316.011691 210.940273 
L 317.040642 213.203746 
L 318.069592 210.185782 
L 319.098543 212.449255 
L 320.127494 209.431291 
L 321.156445 214.712728 
L 322.185396 215.467219 
L 323.214346 214.712728 
L 324.243297 212.449255 
L 325.272248 213.958237 
L 326.301199 216.976201 
L 327.330149 216.22171 
L 328.3591 216.22171 
L 329.388051 213.203746 
L 330.417002 207.167818 
L 331.445952 204.904345 
L 332.474903 205.658836 
L 333.503854 207.922309 
L 334.532805 204.149854 
L 335.561755 204.149854 
L 336.590706 201.886381 
L 337.619657 195.095962 
L 338.648608 196.604944 
L 339.677559 193.58698 
L 340.706509 193.58698 
L 341.73546 190.569016 
L 342.764411 186.796561 
L 343.793362 180.760632 
L 344.822312 189.060034 
L 345.851263 194.341471 
L 346.880214 189.060034 
L 347.909165 183.024106 
L 348.938115 186.04207 
L 349.967066 179.25165 
L 350.996017 174.724704 
L 352.024968 164.916321 
L 353.053918 166.425303 
L 354.082869 169.443267 
L 355.11182 173.970213 
L 356.140771 173.215722 
L 357.169722 168.688776 
L 358.198672 169.443267 
L 359.227623 153.598956 
L 360.256574 149.826501 
L 361.285525 152.089974 
L 362.314475 138.509135 
L 363.343426 139.263626 
L 364.372377 143.790573 
L 365.401328 137.754644 
L 366.430278 132.473207 
L 367.459229 132.473207 
L 368.48818 134.73668 
L 369.517131 127.946261 
L 370.546082 138.509135 
L 371.575032 142.281591 
L 372.603983 147.563028 
L 373.632934 140.018118 
L 374.661885 141.5271 
L 375.690835 149.07201 
L 376.719786 145.299555 
L 377.748737 155.862429 
L 378.777688 164.916321 
L 379.806638 155.862429 
L 380.835589 142.281591 
L 381.86454 154.353447 
L 382.893491 150.580992 
L 383.922441 149.07201 
L 384.951392 155.862429 
L 388.038245 171.70674 
L 389.067195 170.197758 
L 390.096146 169.443267 
L 391.125097 174.724704 
L 392.154048 178.497159 
L 393.182998 173.970213 
L 394.211949 170.952249 
L 395.2409 170.952249 
L 396.269851 175.479195 
L 397.298801 182.269615 
L 398.327752 184.533088 
L 399.356703 178.497159 
L 400.385654 177.742668 
L 401.414604 173.215722 
L 402.443555 175.479195 
L 403.472506 173.970213 
L 404.501457 183.778597 
L 405.530408 180.760632 
L 406.559358 187.551052 
L 407.588309 197.359435 
L 408.61726 195.850453 
L 409.646211 195.095962 
L 410.675161 196.604944 
L 411.704112 192.832489 
L 413.762014 194.341471 
L 414.790964 184.533088 
L 415.819915 187.551052 
L 416.848866 179.25165 
L 417.877817 180.006141 
L 418.906767 176.233686 
L 420.964669 185.287579 
L 421.99362 178.497159 
L 423.022571 181.515124 
L 424.051521 187.551052 
L 425.080472 195.850453 
L 426.109423 189.060034 
L 427.138374 192.832489 
L 428.167324 189.814525 
L 429.196275 199.622908 
L 430.225226 204.149854 
L 431.254177 195.095962 
L 432.283127 201.13189 
L 433.312078 196.604944 
L 434.341029 201.886381 
L 435.36998 204.149854 
L 436.39893 195.095962 
L 437.427881 194.341471 
L 438.456832 191.323507 
L 439.485783 196.604944 
L 440.514734 195.850453 
L 441.543684 196.604944 
L 442.572635 200.377399 
L 443.601586 203.395363 
L 444.630537 210.185782 
L 445.659487 210.940273 
L 446.688438 209.431291 
L 447.717389 206.413327 
L 448.74634 216.976201 
L 449.77529 216.22171 
L 450.804241 206.413327 
L 451.833192 203.395363 
L 452.862143 214.712728 
L 453.891093 214.712728 
L 454.920044 211.694764 
L 455.948995 213.958237 
L 456.977946 209.431291 
L 458.006897 202.640872 
L 459.035847 198.113926 
L 460.064798 201.13189 
L 461.093749 191.323507 
L 462.1227 192.077998 
L 463.15165 205.658836 
L 464.180601 189.060034 
L 465.209552 180.760632 
L 466.238503 186.796561 
L 467.267453 178.497159 
L 468.296404 180.006141 
L 469.325355 177.742668 
L 470.354306 186.796561 
L 471.383257 183.778597 
L 472.412207 173.970213 
L 473.441158 169.443267 
L 475.49906 161.898357 
L 477.556961 148.317519 
L 478.585912 139.263626 
L 479.614863 133.982189 
L 480.643813 118.892369 
L 481.672764 115.874405 
L 482.701715 112.10195 
L 483.730666 106.820513 
L 484.759616 95.503147 
L 485.788567 81.922309 
L 486.817518 74.377399 
L 487.846469 64.569016 
L 488.87542 57.778597 
L 489.90437 39.670812 
L 490.933321 49.479195 
L 491.962272 40.425303 
L 492.991223 44.197758 
L 494.020173 44.197758 
L 495.049124 34.389375 
L 496.078075 35.898357 
L 497.107026 41.179794 
L 498.135976 37.407339 
L 499.164927 42.688776 
L 500.193878 44.197758 
L 501.222829 41.179794 
L 502.251779 45.70674 
L 503.28073 46.461231 
L 504.309681 56.269615 
L 505.338632 55.515124 
L 506.367583 81.922309 
L 507.396533 87.958237 
L 508.425484 78.904345 
L 509.454435 87.203746 
L 510.483386 84.940273 
L 511.512336 81.922309 
L 512.541287 91.730692 
L 513.570238 78.904345 
L 514.599189 97.012129 
L 515.628139 89.467219 
L 516.65709 90.976201 
L 517.686041 99.275603 
L 518.714992 109.083986 
L 519.743942 109.838477 
L 520.772893 118.892369 
L 521.801844 125.682788 
L 522.830795 122.664824 
L 523.859746 127.19177 
L 524.888696 136.245662 
L 525.917647 133.227698 
L 526.946598 128.700752 
L 527.975549 113.610932 
L 529.004499 121.910333 
L 530.03345 124.173806 
L 531.062401 130.209734 
L 532.091352 118.892369 
L 533.120302 110.592968 
L 534.149253 123.419315 
L 535.178204 133.227698 
L 536.207155 118.137878 
L 537.236105 121.155842 
L 538.265056 115.874405 
L 539.294007 121.155842 
L 540.322958 122.664824 
L 541.351909 127.946261 
L 542.380859 121.155842 
L 543.40981 112.10195 
L 544.438761 109.838477 
L 545.467712 105.311531 
L 546.496662 107.575004 
L 547.525613 111.347459 
L 548.554564 100.030094 
L 549.583515 98.521112 
L 550.612465 97.766621 
L 551.641416 100.030094 
L 552.670367 94.748656 
L 553.699318 90.22171 
L 554.728268 80.413327 
L 555.757219 78.149854 
L 556.78617 68.341471 
L 557.815121 78.149854 
L 558.844072 74.377399 
L 559.873022 90.976201 
L 560.901973 92.485183 
L 561.930924 94.748656 
L 562.959875 93.239674 
L 563.988825 97.766621 
L 565.017776 93.239674 
L 566.046727 92.485183 
L 567.075678 92.485183 
L 568.104628 105.311531 
L 569.133579 112.856441 
L 570.16253 109.083986 
L 571.191481 115.119914 
L 572.220431 111.347459 
L 573.249382 115.874405 
L 574.278333 119.64686 
L 575.307284 117.383387 
L 576.336235 124.173806 
L 577.365185 124.173806 
L 578.394136 134.73668 
L 579.423087 140.018118 
L 580.452038 135.491171 
L 581.480988 142.281591 
L 582.509939 148.317519 
L 583.53889 152.089974 
L 584.567841 158.880393 
L 585.596791 158.880393 
L 586.625742 167.934285 
L 587.654693 170.952249 
L 588.683644 176.988177 
L 589.712595 182.269615 
L 590.741545 188.305543 
L 591.770496 184.533088 
L 592.799447 192.832489 
L 593.828398 197.359435 
L 594.857348 191.323507 
L 595.886299 194.341471 
L 596.91525 192.832489 
L 598.973151 200.377399 
L 600.002102 199.622908 
L 601.031053 192.077998 
L 602.060004 195.095962 
L 603.088954 179.25165 
L 604.117905 182.269615 
L 605.146856 191.323507 
L 606.175807 186.796561 
L 607.204758 191.323507 
L 608.233708 196.604944 
L 609.262659 192.077998 
L 610.29161 200.377399 
L 611.320561 200.377399 
L 612.349511 204.904345 
L 613.378462 204.149854 
L 614.407413 211.694764 
L 615.436364 212.449255 
L 615.436364 212.449255 
" style="fill:none;stroke:#1f77b4;stroke-linecap:round;stroke-width:1.5;"/>
   </g>
   <g id="line2d_19">
    <path clip-path="url(#p3130370fa5)" d="M 108.163636 286.389375 
L 109.192587 286.389375 
L 110.221538 281.107938 
L 111.250489 281.107938 
L 112.279439 279.598956 
L 113.30839 272.054046 
L 114.337341 272.808537 
L 115.366292 269.790573 
L 119.482095 269.790573 
L 120.511046 270.545064 
L 121.539996 267.5271 
L 122.568947 269.036082 
L 123.597898 268.281591 
L 124.626849 265.263626 
L 125.655799 265.263626 
L 126.68475 261.491171 
L 127.713701 258.473207 
L 128.742652 258.473207 
L 129.771602 262.245662 
L 131.829504 262.245662 
L 132.858455 261.491171 
L 133.887405 257.718716 
L 134.916356 259.982189 
L 135.945307 264.509135 
L 136.974258 258.473207 
L 138.003209 253.19177 
L 139.032159 252.437279 
L 140.06111 245.64686 
L 141.090061 250.173806 
L 142.119012 248.664824 
L 143.147962 245.64686 
L 144.176913 238.856441 
L 145.205864 235.083986 
L 146.234815 232.820513 
L 147.263765 238.856441 
L 148.292716 238.856441 
L 150.350618 241.874405 
L 151.379569 238.856441 
L 152.408519 233.575004 
L 153.43747 231.311531 
L 154.466421 229.802549 
L 155.495372 230.55704 
L 156.524322 225.275603 
L 157.553273 225.275603 
L 158.582224 232.820513 
L 159.611175 234.329495 
L 160.640125 229.048058 
L 161.669076 229.048058 
L 163.726978 232.066022 
L 164.755928 236.592968 
L 165.784879 233.575004 
L 166.81383 231.311531 
L 167.842781 235.838477 
L 168.871732 229.048058 
L 169.900682 229.048058 
L 170.929633 227.539076 
L 171.958584 230.55704 
L 172.987535 226.030094 
L 174.016485 226.030094 
L 175.045436 222.257638 
L 176.074387 223.012129 
L 178.132288 221.503147 
L 179.161239 228.293567 
L 180.19019 230.55704 
L 181.219141 225.275603 
L 182.248091 229.048058 
L 183.277042 225.275603 
L 184.305993 220.748656 
L 185.334944 219.239674 
L 186.363895 218.485183 
L 187.392845 221.503147 
L 188.421796 219.239674 
L 189.450747 219.239674 
L 190.479698 214.712728 
L 191.508648 216.976201 
L 192.537599 215.467219 
L 193.56655 215.467219 
L 194.595501 207.922309 
L 195.624451 211.694764 
L 196.653402 216.976201 
L 197.682353 219.239674 
L 198.711304 212.449255 
L 199.740254 216.976201 
L 200.769205 223.012129 
L 201.798156 225.275603 
L 203.856058 223.766621 
L 204.885008 219.239674 
L 205.913959 221.503147 
L 206.94291 219.994165 
L 207.971861 223.012129 
L 209.000811 222.257638 
L 210.029762 223.012129 
L 211.058713 227.539076 
L 212.087664 234.329495 
L 213.116614 233.575004 
L 214.145565 230.55704 
L 215.174516 231.311531 
L 216.203467 234.329495 
L 217.232417 232.066022 
L 218.261368 230.55704 
L 219.290319 231.311531 
L 220.31927 231.311531 
L 221.348221 229.802549 
L 222.377171 236.592968 
L 223.406122 236.592968 
L 224.435073 235.838477 
L 225.464024 238.856441 
L 226.492974 240.365423 
L 227.521925 236.592968 
L 228.550876 231.311531 
L 229.579827 233.575004 
L 230.608777 227.539076 
L 231.637728 230.55704 
L 232.666679 236.592968 
L 233.69563 238.856441 
L 234.72458 237.347459 
L 235.753531 237.347459 
L 236.782482 238.856441 
L 237.811433 233.575004 
L 238.840384 235.083986 
L 239.869334 237.347459 
L 240.898285 237.347459 
L 241.927236 233.575004 
L 242.956187 233.575004 
L 243.985137 238.10195 
L 245.014088 238.10195 
L 246.043039 238.856441 
L 247.07199 241.874405 
L 248.10094 243.383387 
L 249.129891 244.137878 
L 250.158842 246.401351 
L 251.187793 250.173806 
L 252.216743 249.419315 
L 253.245694 246.401351 
L 254.274645 247.155842 
L 255.303596 252.437279 
L 256.332547 252.437279 
L 257.361497 251.682788 
L 258.390448 255.455243 
L 259.419399 254.700752 
L 260.44835 253.19177 
L 261.4773 250.173806 
L 262.506251 251.682788 
L 263.535202 251.682788 
L 264.564153 248.664824 
L 265.593103 253.946261 
L 266.622054 253.946261 
L 267.651005 258.473207 
L 268.679956 256.209734 
L 269.708907 259.227698 
L 270.737857 259.227698 
L 271.766808 259.982189 
L 272.795759 256.964225 
L 274.85366 256.964225 
L 275.882611 260.73668 
L 276.911562 254.700752 
L 277.940513 256.209734 
L 278.969463 252.437279 
L 279.998414 253.946261 
L 281.027365 253.19177 
L 282.056316 253.946261 
L 283.085266 251.682788 
L 284.114217 253.946261 
L 285.143168 255.455243 
L 286.172119 254.700752 
L 287.20107 250.173806 
L 288.23002 251.682788 
L 289.258971 247.910333 
L 290.287922 248.664824 
L 291.316873 253.19177 
L 292.345823 259.227698 
L 293.374774 255.455243 
L 294.403725 255.455243 
L 295.432676 256.209734 
L 296.461626 254.700752 
L 298.519528 256.209734 
L 299.548479 255.455243 
L 300.577429 256.964225 
L 301.60638 262.245662 
L 302.635331 261.491171 
L 303.664282 256.964225 
L 304.693233 257.718716 
L 305.722183 256.964225 
L 306.751134 254.700752 
L 307.780085 253.19177 
L 308.809036 253.19177 
L 309.837986 256.209734 
L 310.866937 257.718716 
L 311.895888 256.964225 
L 313.953789 256.964225 
L 314.98274 256.209734 
L 316.011691 254.700752 
L 317.040642 256.209734 
L 318.069592 256.964225 
L 319.098543 255.455243 
L 320.127494 254.700752 
L 321.156445 258.473207 
L 322.185396 261.491171 
L 323.214346 259.227698 
L 324.243297 261.491171 
L 325.272248 261.491171 
L 326.301199 259.982189 
L 327.330149 262.245662 
L 328.3591 258.473207 
L 329.388051 256.209734 
L 330.417002 255.455243 
L 331.445952 252.437279 
L 334.532805 252.437279 
L 336.590706 249.419315 
L 337.619657 246.401351 
L 338.648608 251.682788 
L 339.677559 251.682788 
L 340.706509 250.928297 
L 341.73546 249.419315 
L 342.764411 246.401351 
L 343.793362 247.155842 
L 345.851263 245.64686 
L 346.880214 244.137878 
L 347.909165 241.874405 
L 348.938115 244.892369 
L 349.967066 235.838477 
L 350.996017 233.575004 
L 352.024968 235.083986 
L 353.053918 234.329495 
L 354.082869 226.784585 
L 355.11182 234.329495 
L 356.140771 233.575004 
L 357.169722 235.838477 
L 358.198672 235.083986 
L 359.227623 227.539076 
L 360.256574 226.030094 
L 361.285525 226.030094 
L 362.314475 216.22171 
L 363.343426 219.994165 
L 364.372377 225.275603 
L 365.401328 221.503147 
L 366.430278 222.257638 
L 367.459229 222.257638 
L 368.48818 223.766621 
L 369.517131 223.012129 
L 370.546082 228.293567 
L 371.575032 229.048058 
L 372.603983 223.766621 
L 373.632934 220.748656 
L 374.661885 222.257638 
L 375.690835 226.784585 
L 376.719786 228.293567 
L 377.748737 226.784585 
L 378.777688 235.083986 
L 379.806638 229.048058 
L 380.835589 229.048058 
L 381.86454 225.275603 
L 382.893491 220.748656 
L 383.922441 223.766621 
L 384.951392 223.766621 
L 385.980343 229.048058 
L 387.009294 231.311531 
L 388.038245 229.048058 
L 389.067195 228.293567 
L 390.096146 231.311531 
L 391.125097 235.838477 
L 392.154048 232.820513 
L 393.182998 230.55704 
L 394.211949 232.066022 
L 395.2409 226.784585 
L 396.269851 232.066022 
L 397.298801 235.083986 
L 398.327752 235.083986 
L 399.356703 226.784585 
L 400.385654 235.083986 
L 401.414604 235.083986 
L 402.443555 238.856441 
L 403.472506 236.592968 
L 404.501457 235.083986 
L 405.530408 236.592968 
L 406.559358 237.347459 
L 407.588309 239.610932 
L 408.61726 241.119914 
L 409.646211 241.874405 
L 410.675161 243.383387 
L 411.704112 241.874405 
L 412.733063 238.856441 
L 413.762014 237.347459 
L 414.790964 232.820513 
L 415.819915 233.575004 
L 416.848866 228.293567 
L 417.877817 226.784585 
L 418.906767 223.766621 
L 419.935718 225.275603 
L 420.964669 227.539076 
L 423.022571 230.55704 
L 424.051521 231.311531 
L 425.080472 233.575004 
L 426.109423 232.066022 
L 427.138374 234.329495 
L 428.167324 229.048058 
L 429.196275 229.802549 
L 430.225226 232.066022 
L 431.254177 231.311531 
L 432.283127 236.592968 
L 435.36998 238.856441 
L 436.39893 235.838477 
L 437.427881 231.311531 
L 438.456832 235.838477 
L 439.485783 232.820513 
L 440.514734 236.592968 
L 441.543684 238.10195 
L 442.572635 242.628896 
L 443.601586 245.64686 
L 444.630537 247.155842 
L 445.659487 244.892369 
L 446.688438 245.64686 
L 447.717389 243.383387 
L 448.74634 250.928297 
L 449.77529 251.682788 
L 450.804241 240.365423 
L 451.833192 244.137878 
L 452.862143 242.628896 
L 453.891093 243.383387 
L 454.920044 239.610932 
L 455.948995 242.628896 
L 456.977946 244.137878 
L 458.006897 241.874405 
L 459.035847 243.383387 
L 460.064798 248.664824 
L 462.1227 239.610932 
L 463.15165 244.892369 
L 464.180601 240.365423 
L 465.209552 237.347459 
L 466.238503 239.610932 
L 467.267453 236.592968 
L 468.296404 236.592968 
L 469.325355 237.347459 
L 470.354306 243.383387 
L 471.383257 233.575004 
L 472.412207 236.592968 
L 473.441158 238.856441 
L 474.470109 232.066022 
L 475.49906 229.048058 
L 476.52801 223.766621 
L 477.556961 211.694764 
L 478.585912 204.904345 
L 479.614863 213.958237 
L 480.643813 201.886381 
L 481.672764 196.604944 
L 482.701715 198.113926 
L 483.730666 186.796561 
L 484.759616 190.569016 
L 485.788567 186.04207 
L 486.817518 187.551052 
L 487.846469 180.760632 
L 488.87542 177.742668 
L 489.90437 165.670812 
L 490.933321 163.407339 
L 491.962272 155.862429 
L 492.991223 151.335483 
L 494.020173 154.353447 
L 495.049124 152.089974 
L 496.078075 150.580992 
L 497.107026 147.563028 
L 499.164927 146.054046 
L 500.193878 149.07201 
L 501.222829 146.808537 
L 502.251779 146.054046 
L 504.309681 143.036082 
L 505.338632 144.545064 
L 506.367583 153.598956 
L 507.396533 153.598956 
L 509.454435 165.670812 
L 510.483386 162.652848 
L 511.512336 158.880393 
L 512.541287 168.688776 
L 513.570238 163.407339 
L 514.599189 172.461231 
L 516.65709 175.479195 
L 517.686041 180.760632 
L 518.714992 189.060034 
L 519.743942 189.814525 
L 520.772893 194.341471 
L 522.830795 192.832489 
L 523.859746 197.359435 
L 524.888696 202.640872 
L 525.917647 198.113926 
L 526.946598 202.640872 
L 527.975549 183.024106 
L 529.004499 198.868417 
L 530.03345 205.658836 
L 531.062401 208.6768 
L 532.091352 198.868417 
L 533.120302 197.359435 
L 534.149253 204.149854 
L 535.178204 200.377399 
L 536.207155 182.269615 
L 537.236105 194.341471 
L 538.265056 192.832489 
L 539.294007 193.58698 
L 540.322958 199.622908 
L 541.351909 204.904345 
L 542.380859 198.868417 
L 543.40981 198.113926 
L 544.438761 194.341471 
L 545.467712 189.814525 
L 546.496662 191.323507 
L 547.525613 195.850453 
L 548.554564 193.58698 
L 549.583515 183.778597 
L 550.612465 183.778597 
L 551.641416 186.04207 
L 552.670367 186.796561 
L 553.699318 183.024106 
L 554.728268 180.760632 
L 555.757219 176.233686 
L 556.78617 174.724704 
L 557.815121 179.25165 
L 558.844072 167.934285 
L 559.873022 176.988177 
L 560.901973 178.497159 
L 561.930924 173.970213 
L 562.959875 168.688776 
L 563.988825 178.497159 
L 565.017776 180.760632 
L 566.046727 181.515124 
L 567.075678 183.778597 
L 568.104628 192.077998 
L 569.133579 195.850453 
L 570.16253 193.58698 
L 571.191481 198.868417 
L 572.220431 197.359435 
L 573.249382 198.868417 
L 574.278333 201.13189 
L 575.307284 200.377399 
L 576.336235 210.185782 
L 577.365185 207.922309 
L 578.394136 208.6768 
L 579.423087 211.694764 
L 580.452038 203.395363 
L 581.480988 204.904345 
L 582.509939 207.922309 
L 583.53889 213.958237 
L 584.567841 222.257638 
L 585.596791 226.030094 
L 586.625742 219.239674 
L 587.654693 219.994165 
L 588.683644 223.766621 
L 589.712595 225.275603 
L 590.741545 227.539076 
L 591.770496 222.257638 
L 592.799447 226.784585 
L 593.828398 230.55704 
L 594.857348 229.048058 
L 595.886299 228.293567 
L 597.944201 234.329495 
L 600.002102 237.347459 
L 601.031053 232.820513 
L 602.060004 235.838477 
L 603.088954 229.802549 
L 604.117905 226.784585 
L 605.146856 229.048058 
L 606.175807 228.293567 
L 607.204758 224.521112 
L 608.233708 229.802549 
L 609.262659 230.55704 
L 610.29161 234.329495 
L 613.378462 241.119914 
L 614.407413 242.628896 
L 615.436364 246.401351 
L 615.436364 246.401351 
" style="fill:none;stroke:#ff7f0e;stroke-linecap:round;stroke-width:1.5;"/>
   </g>
   <g id="patch_3">
    <path d="M 82.8 298.989375 
L 82.8 21.789375 
" style="fill:none;stroke:#cccccc;stroke-linecap:square;stroke-linejoin:miter;stroke-width:0.8;"/>
   </g>
   <g id="patch_4">
    <path d="M 640.8 298.989375 
L 640.8 21.789375 
" style="fill:none;stroke:#cccccc;stroke-linecap:square;stroke-linejoin:miter;stroke-width:0.8;"/>
   </g>
   <g id="patch_5">
    <path d="M 82.8 298.989375 
L 640.8 298.989375 
" style="fill:none;stroke:#cccccc;stroke-linecap:square;stroke-linejoin:miter;stroke-width:0.8;"/>
   </g>
   <g id="patch_6">
    <path d="M 82.8 21.789375 
L 640.8 21.789375 
" style="fill:none;stroke:#cccccc;stroke-linecap:square;stroke-linejoin:miter;stroke-width:0.8;"/>
   </g>
   <g id="text_18">
    <!-- Internações -->
    <g style="fill:#262626;" transform="translate(330.449063 15.789375)scale(0.12 -0.12)">
     <defs>
      <path d="M 597 0 
L 597 4581 
L 1203 4581 
L 1203 0 
L 597 0 
z
" id="ArialMT-49" transform="scale(0.015625)"/>
      <path d="M 422 0 
L 422 3319 
L 928 3319 
L 928 2847 
Q 1294 3394 1984 3394 
Q 2284 3394 2536 3286 
Q 2788 3178 2913 3003 
Q 3038 2828 3088 2588 
Q 3119 2431 3119 2041 
L 3119 0 
L 2556 0 
L 2556 2019 
Q 2556 2363 2490 2533 
Q 2425 2703 2258 2804 
Q 2091 2906 1866 2906 
Q 1506 2906 1245 2678 
Q 984 2450 984 1813 
L 984 0 
L 422 0 
z
" id="ArialMT-6e" transform="scale(0.015625)"/>
      <path d="M 1650 503 
L 1731 6 
Q 1494 -44 1306 -44 
Q 1000 -44 831 53 
Q 663 150 594 308 
Q 525 466 525 972 
L 525 2881 
L 113 2881 
L 113 3319 
L 525 3319 
L 525 4141 
L 1084 4478 
L 1084 3319 
L 1650 3319 
L 1650 2881 
L 1084 2881 
L 1084 941 
Q 1084 700 1114 631 
Q 1144 563 1211 522 
Q 1278 481 1403 481 
Q 1497 481 1650 503 
z
" id="ArialMT-74" transform="scale(0.015625)"/>
      <path d="M 2694 1069 
L 3275 997 
Q 3138 488 2766 206 
Q 2394 -75 1816 -75 
Q 1088 -75 661 373 
Q 234 822 234 1631 
Q 234 2469 665 2931 
Q 1097 3394 1784 3394 
Q 2450 3394 2872 2941 
Q 3294 2488 3294 1666 
Q 3294 1616 3291 1516 
L 816 1516 
Q 847 969 1125 678 
Q 1403 388 1819 388 
Q 2128 388 2347 550 
Q 2566 713 2694 1069 
z
M 847 1978 
L 2700 1978 
Q 2663 2397 2488 2606 
Q 2219 2931 1791 2931 
Q 1403 2931 1139 2672 
Q 875 2413 847 1978 
z
" id="ArialMT-65" transform="scale(0.015625)"/>
      <path d="M 416 0 
L 416 3319 
L 922 3319 
L 922 2816 
Q 1116 3169 1280 3281 
Q 1444 3394 1641 3394 
Q 1925 3394 2219 3213 
L 2025 2691 
Q 1819 2813 1613 2813 
Q 1428 2813 1281 2702 
Q 1134 2591 1072 2394 
Q 978 2094 978 1738 
L 978 0 
L 416 0 
z
" id="ArialMT-72" transform="scale(0.015625)"/>
      <path d="M 2588 409 
Q 2275 144 1986 34 
Q 1697 -75 1366 -75 
Q 819 -75 525 192 
Q 231 459 231 875 
Q 231 1119 342 1320 
Q 453 1522 633 1644 
Q 813 1766 1038 1828 
Q 1203 1872 1538 1913 
Q 2219 1994 2541 2106 
Q 2544 2222 2544 2253 
Q 2544 2597 2384 2738 
Q 2169 2928 1744 2928 
Q 1347 2928 1158 2789 
Q 969 2650 878 2297 
L 328 2372 
Q 403 2725 575 2942 
Q 747 3159 1072 3276 
Q 1397 3394 1825 3394 
Q 2250 3394 2515 3294 
Q 2781 3194 2906 3042 
Q 3031 2891 3081 2659 
Q 3109 2516 3109 2141 
L 3109 1391 
Q 3109 606 3145 398 
Q 3181 191 3288 0 
L 2700 0 
Q 2613 175 2588 409 
z
M 2541 1666 
Q 2234 1541 1622 1453 
Q 1275 1403 1131 1340 
Q 988 1278 909 1158 
Q 831 1038 831 891 
Q 831 666 1001 516 
Q 1172 366 1500 366 
Q 1825 366 2078 508 
Q 2331 650 2450 897 
Q 2541 1088 2541 1459 
L 2541 1666 
z
" id="ArialMT-61" transform="scale(0.015625)"/>
      <path d="M 2588 1216 
L 3141 1144 
Q 3050 572 2676 248 
Q 2303 -75 1759 -75 
Q 1078 -75 664 370 
Q 250 816 250 1647 
Q 250 2184 428 2587 
Q 606 2991 970 3192 
Q 1334 3394 1763 3394 
Q 2303 3394 2647 3120 
Q 2991 2847 3088 2344 
L 2541 2259 
Q 2463 2594 2264 2762 
Q 2066 2931 1784 2931 
Q 1359 2931 1093 2626 
Q 828 2322 828 1663 
Q 828 994 1084 691 
Q 1341 388 1753 388 
Q 2084 388 2306 591 
Q 2528 794 2588 1216 
z
M 1283 -417 
L 1446 136 
L 1864 136 
L 1761 -199 
Q 2027 -230 2161 -362 
Q 2296 -495 2296 -658 
Q 2296 -892 2071 -1072 
Q 1846 -1252 1392 -1252 
Q 1136 -1252 942 -1214 
L 977 -849 
Q 1177 -861 1271 -861 
Q 1564 -861 1683 -780 
Q 1774 -717 1774 -627 
Q 1774 -570 1738 -526 
Q 1702 -483 1605 -451 
Q 1508 -420 1283 -417 
z
" id="ArialMT-e7" transform="scale(0.015625)"/>
      <path d="M 213 1659 
Q 213 2581 725 3025 
Q 1153 3394 1769 3394 
Q 2453 3394 2887 2945 
Q 3322 2497 3322 1706 
Q 3322 1066 3130 698 
Q 2938 331 2570 128 
Q 2203 -75 1769 -75 
Q 1072 -75 642 372 
Q 213 819 213 1659 
z
M 791 1659 
Q 791 1022 1069 705 
Q 1347 388 1769 388 
Q 2188 388 2466 706 
Q 2744 1025 2744 1678 
Q 2744 2294 2464 2611 
Q 2184 2928 1769 2928 
Q 1347 2928 1069 2612 
Q 791 2297 791 1659 
z
M 726 3809 
Q 723 4134 904 4328 
Q 1082 4522 1360 4522 
Q 1554 4522 1888 4353 
Q 2073 4259 2182 4259 
Q 2282 4259 2335 4314 
Q 2388 4369 2410 4531 
L 2817 4531 
Q 2807 4175 2637 3997 
Q 2467 3819 2204 3819 
Q 2007 3819 1685 3994 
Q 1476 4106 1379 4106 
Q 1273 4106 1207 4031 
Q 1138 3956 1142 3809 
L 726 3809 
z
" id="ArialMT-f5" transform="scale(0.015625)"/>
      <path d="M 197 991 
L 753 1078 
Q 800 744 1014 566 
Q 1228 388 1613 388 
Q 2000 388 2187 545 
Q 2375 703 2375 916 
Q 2375 1106 2209 1216 
Q 2094 1291 1634 1406 
Q 1016 1563 777 1677 
Q 538 1791 414 1992 
Q 291 2194 291 2438 
Q 291 2659 392 2848 
Q 494 3038 669 3163 
Q 800 3259 1026 3326 
Q 1253 3394 1513 3394 
Q 1903 3394 2198 3281 
Q 2494 3169 2634 2976 
Q 2775 2784 2828 2463 
L 2278 2388 
Q 2241 2644 2061 2787 
Q 1881 2931 1553 2931 
Q 1166 2931 1000 2803 
Q 834 2675 834 2503 
Q 834 2394 903 2306 
Q 972 2216 1119 2156 
Q 1203 2125 1616 2013 
Q 2213 1853 2448 1751 
Q 2684 1650 2818 1456 
Q 2953 1263 2953 975 
Q 2953 694 2789 445 
Q 2625 197 2315 61 
Q 2006 -75 1616 -75 
Q 969 -75 630 194 
Q 291 463 197 991 
z
" id="ArialMT-73" transform="scale(0.015625)"/>
     </defs>
     <use xlink:href="#ArialMT-49"/>
     <use x="27.783203" xlink:href="#ArialMT-6e"/>
     <use x="83.398438" xlink:href="#ArialMT-74"/>
     <use x="111.181641" xlink:href="#ArialMT-65"/>
     <use x="166.796875" xlink:href="#ArialMT-72"/>
     <use x="200.097656" xlink:href="#ArialMT-6e"/>
     <use x="255.712891" xlink:href="#ArialMT-61"/>
     <use x="311.328125" xlink:href="#ArialMT-e7"/>
     <use x="361.328125" xlink:href="#ArialMT-f5"/>
     <use x="416.943359" xlink:href="#ArialMT-65"/>
     <use x="472.558594" xlink:href="#ArialMT-73"/>
    </g>
   </g>
   <g id="legend_1">
    <g id="patch_7">
     <path d="M 549.548437 58.08 
L 633.8 58.08 
Q 635.8 58.08 635.8 56.08 
L 635.8 28.789375 
Q 635.8 26.789375 633.8 26.789375 
L 549.548437 26.789375 
Q 547.548437 26.789375 547.548437 28.789375 
L 547.548437 56.08 
Q 547.548437 58.08 549.548437 58.08 
z
" style="fill:#ffffff;opacity:0.8;stroke:#cccccc;stroke-linejoin:miter;"/>
    </g>
    <g id="line2d_20">
     <path d="M 551.548437 34.447188 
L 571.548437 34.447188 
" style="fill:none;stroke:#1f77b4;stroke-linecap:round;stroke-width:1.5;"/>
    </g>
    <g id="line2d_21"/>
    <g id="text_19">
     <!-- Internações -->
     <g style="fill:#262626;" transform="translate(579.548437 37.947188)scale(0.1 -0.1)">
      <use xlink:href="#ArialMT-49"/>
      <use x="27.783203" xlink:href="#ArialMT-6e"/>
      <use x="83.398438" xlink:href="#ArialMT-74"/>
      <use x="111.181641" xlink:href="#ArialMT-65"/>
      <use x="166.796875" xlink:href="#ArialMT-72"/>
      <use x="200.097656" xlink:href="#ArialMT-6e"/>
      <use x="255.712891" xlink:href="#ArialMT-61"/>
      <use x="311.328125" xlink:href="#ArialMT-e7"/>
      <use x="361.328125" xlink:href="#ArialMT-f5"/>
      <use x="416.943359" xlink:href="#ArialMT-65"/>
      <use x="472.558594" xlink:href="#ArialMT-73"/>
     </g>
    </g>
    <g id="line2d_22">
     <path d="M 551.548437 48.5925 
L 571.548437 48.5925 
" style="fill:none;stroke:#ff7f0e;stroke-linecap:round;stroke-width:1.5;"/>
    </g>
    <g id="line2d_23"/>
    <g id="text_20">
     <!-- UTI -->
     <g style="fill:#262626;" transform="translate(579.548437 52.0925)scale(0.1 -0.1)">
      <defs>
       <path d="M 3500 4581 
L 4106 4581 
L 4106 1934 
Q 4106 1244 3950 837 
Q 3794 431 3386 176 
Q 2978 -78 2316 -78 
Q 1672 -78 1262 144 
Q 853 366 678 786 
Q 503 1206 503 1934 
L 503 4581 
L 1109 4581 
L 1109 1938 
Q 1109 1341 1220 1058 
Q 1331 775 1601 622 
Q 1872 469 2263 469 
Q 2931 469 3215 772 
Q 3500 1075 3500 1938 
L 3500 4581 
z
" id="ArialMT-55" transform="scale(0.015625)"/>
       <path d="M 1659 0 
L 1659 4041 
L 150 4041 
L 150 4581 
L 3781 4581 
L 3781 4041 
L 2266 4041 
L 2266 0 
L 1659 0 
z
" id="ArialMT-54" transform="scale(0.015625)"/>
      </defs>
      <use xlink:href="#ArialMT-55"/>
      <use x="72.216797" xlink:href="#ArialMT-54"/>
      <use x="133.300781" xlink:href="#ArialMT-49"/>
     </g>
    </g>
   </g>
  </g>
  <g id="text_21">
   <!-- Atualizado em 25/07/2021 -->
   <g style="fill:#262626;" transform="translate(7.2 331.389375)scale(0.08 -0.08)">
    <defs>
     <path d="M -9 0 
L 1750 4581 
L 2403 4581 
L 4278 0 
L 3588 0 
L 3053 1388 
L 1138 1388 
L 634 0 
L -9 0 
z
M 1313 1881 
L 2866 1881 
L 2388 3150 
Q 2169 3728 2063 4100 
Q 1975 3659 1816 3225 
L 1313 1881 
z
" id="ArialMT-41" transform="scale(0.015625)"/>
     <path d="M 2597 0 
L 2597 488 
Q 2209 -75 1544 -75 
Q 1250 -75 995 37 
Q 741 150 617 320 
Q 494 491 444 738 
Q 409 903 409 1263 
L 409 3319 
L 972 3319 
L 972 1478 
Q 972 1038 1006 884 
Q 1059 663 1231 536 
Q 1403 409 1656 409 
Q 1909 409 2131 539 
Q 2353 669 2445 892 
Q 2538 1116 2538 1541 
L 2538 3319 
L 3100 3319 
L 3100 0 
L 2597 0 
z
" id="ArialMT-75" transform="scale(0.015625)"/>
     <path d="M 409 0 
L 409 4581 
L 972 4581 
L 972 0 
L 409 0 
z
" id="ArialMT-6c" transform="scale(0.015625)"/>
     <path d="M 425 3934 
L 425 4581 
L 988 4581 
L 988 3934 
L 425 3934 
z
M 425 0 
L 425 3319 
L 988 3319 
L 988 0 
L 425 0 
z
" id="ArialMT-69" transform="scale(0.015625)"/>
     <path d="M 125 0 
L 125 456 
L 2238 2881 
Q 1878 2863 1603 2863 
L 250 2863 
L 250 3319 
L 2963 3319 
L 2963 2947 
L 1166 841 
L 819 456 
Q 1197 484 1528 484 
L 3063 484 
L 3063 0 
L 125 0 
z
" id="ArialMT-7a" transform="scale(0.015625)"/>
     <path d="M 2575 0 
L 2575 419 
Q 2259 -75 1647 -75 
Q 1250 -75 917 144 
Q 584 363 401 755 
Q 219 1147 219 1656 
Q 219 2153 384 2558 
Q 550 2963 881 3178 
Q 1213 3394 1622 3394 
Q 1922 3394 2156 3267 
Q 2391 3141 2538 2938 
L 2538 4581 
L 3097 4581 
L 3097 0 
L 2575 0 
z
M 797 1656 
Q 797 1019 1065 703 
Q 1334 388 1700 388 
Q 2069 388 2326 689 
Q 2584 991 2584 1609 
Q 2584 2291 2321 2609 
Q 2059 2928 1675 2928 
Q 1300 2928 1048 2622 
Q 797 2316 797 1656 
z
" id="ArialMT-64" transform="scale(0.015625)"/>
     <path d="M 213 1659 
Q 213 2581 725 3025 
Q 1153 3394 1769 3394 
Q 2453 3394 2887 2945 
Q 3322 2497 3322 1706 
Q 3322 1066 3130 698 
Q 2938 331 2570 128 
Q 2203 -75 1769 -75 
Q 1072 -75 642 372 
Q 213 819 213 1659 
z
M 791 1659 
Q 791 1022 1069 705 
Q 1347 388 1769 388 
Q 2188 388 2466 706 
Q 2744 1025 2744 1678 
Q 2744 2294 2464 2611 
Q 2184 2928 1769 2928 
Q 1347 2928 1069 2612 
Q 791 2297 791 1659 
z
" id="ArialMT-6f" transform="scale(0.015625)"/>
     <path id="ArialMT-20" transform="scale(0.015625)"/>
     <path d="M 422 0 
L 422 3319 
L 925 3319 
L 925 2853 
Q 1081 3097 1340 3245 
Q 1600 3394 1931 3394 
Q 2300 3394 2536 3241 
Q 2772 3088 2869 2813 
Q 3263 3394 3894 3394 
Q 4388 3394 4653 3120 
Q 4919 2847 4919 2278 
L 4919 0 
L 4359 0 
L 4359 2091 
Q 4359 2428 4304 2576 
Q 4250 2725 4106 2815 
Q 3963 2906 3769 2906 
Q 3419 2906 3187 2673 
Q 2956 2441 2956 1928 
L 2956 0 
L 2394 0 
L 2394 2156 
Q 2394 2531 2256 2718 
Q 2119 2906 1806 2906 
Q 1569 2906 1367 2781 
Q 1166 2656 1075 2415 
Q 984 2175 984 1722 
L 984 0 
L 422 0 
z
" id="ArialMT-6d" transform="scale(0.015625)"/>
     <path d="M 0 -78 
L 1328 4659 
L 1778 4659 
L 453 -78 
L 0 -78 
z
" id="ArialMT-2f" transform="scale(0.015625)"/>
    </defs>
    <use xlink:href="#ArialMT-41"/>
    <use x="66.699219" xlink:href="#ArialMT-74"/>
    <use x="94.482422" xlink:href="#ArialMT-75"/>
    <use x="150.097656" xlink:href="#ArialMT-61"/>
    <use x="205.712891" xlink:href="#ArialMT-6c"/>
    <use x="227.929688" xlink:href="#ArialMT-69"/>
    <use x="250.146484" xlink:href="#ArialMT-7a"/>
    <use x="300.146484" xlink:href="#ArialMT-61"/>
    <use x="355.761719" xlink:href="#ArialMT-64"/>
    <use x="411.376953" xlink:href="#ArialMT-6f"/>
    <use x="466.992188" xlink:href="#ArialMT-20"/>
    <use x="494.775391" xlink:href="#ArialMT-65"/>
    <use x="550.390625" xlink:href="#ArialMT-6d"/>
    <use x="633.691406" xlink:href="#ArialMT-20"/>
    <use x="661.474609" xlink:href="#ArialMT-32"/>
    <use x="717.089844" xlink:href="#ArialMT-35"/>
    <use x="772.705078" xlink:href="#ArialMT-2f"/>
    <use x="800.488281" xlink:href="#ArialMT-30"/>
    <use x="856.103516" xlink:href="#ArialMT-37"/>
    <use x="911.71875" xlink:href="#ArialMT-2f"/>
    <use x="939.501953" xlink:href="#ArialMT-32"/>
    <use x="995.117188" xlink:href="#ArialMT-30"/>
    <use x="1050.732422" xlink:href="#ArialMT-32"/>
    <use x="1106.347656" xlink:href="#ArialMT-31"/>
   </g>
  </g>
  <g id="text_22">
   <!-- https://jmsvaz.github.io/covidsantos/ -->
   <g style="fill:#262626;" transform="translate(570.345 331.389375)scale(0.08 -0.08)">
    <defs>
     <path d="M 422 0 
L 422 4581 
L 984 4581 
L 984 2938 
Q 1378 3394 1978 3394 
Q 2347 3394 2619 3248 
Q 2891 3103 3008 2847 
Q 3125 2591 3125 2103 
L 3125 0 
L 2563 0 
L 2563 2103 
Q 2563 2525 2380 2717 
Q 2197 2909 1863 2909 
Q 1613 2909 1392 2779 
Q 1172 2650 1078 2428 
Q 984 2206 984 1816 
L 984 0 
L 422 0 
z
" id="ArialMT-68" transform="scale(0.015625)"/>
     <path d="M 422 -1272 
L 422 3319 
L 934 3319 
L 934 2888 
Q 1116 3141 1344 3267 
Q 1572 3394 1897 3394 
Q 2322 3394 2647 3175 
Q 2972 2956 3137 2557 
Q 3303 2159 3303 1684 
Q 3303 1175 3120 767 
Q 2938 359 2589 142 
Q 2241 -75 1856 -75 
Q 1575 -75 1351 44 
Q 1128 163 984 344 
L 984 -1272 
L 422 -1272 
z
M 931 1641 
Q 931 1000 1190 694 
Q 1450 388 1819 388 
Q 2194 388 2461 705 
Q 2728 1022 2728 1688 
Q 2728 2322 2467 2637 
Q 2206 2953 1844 2953 
Q 1484 2953 1207 2617 
Q 931 2281 931 1641 
z
" id="ArialMT-70" transform="scale(0.015625)"/>
     <path d="M 578 2678 
L 578 3319 
L 1219 3319 
L 1219 2678 
L 578 2678 
z
M 578 0 
L 578 641 
L 1219 641 
L 1219 0 
L 578 0 
z
" id="ArialMT-3a" transform="scale(0.015625)"/>
     <path d="M 419 3928 
L 419 4581 
L 981 4581 
L 981 3928 
L 419 3928 
z
M -294 -1288 
L -188 -809 
Q -19 -853 78 -853 
Q 250 -853 334 -739 
Q 419 -625 419 -169 
L 419 3319 
L 981 3319 
L 981 -181 
Q 981 -794 822 -1034 
Q 619 -1347 147 -1347 
Q -81 -1347 -294 -1288 
z
" id="ArialMT-6a" transform="scale(0.015625)"/>
     <path d="M 1344 0 
L 81 3319 
L 675 3319 
L 1388 1331 
Q 1503 1009 1600 663 
Q 1675 925 1809 1294 
L 2547 3319 
L 3125 3319 
L 1869 0 
L 1344 0 
z
" id="ArialMT-76" transform="scale(0.015625)"/>
     <path d="M 581 0 
L 581 641 
L 1222 641 
L 1222 0 
L 581 0 
z
" id="ArialMT-2e" transform="scale(0.015625)"/>
     <path d="M 319 -275 
L 866 -356 
Q 900 -609 1056 -725 
Q 1266 -881 1628 -881 
Q 2019 -881 2231 -725 
Q 2444 -569 2519 -288 
Q 2563 -116 2559 434 
Q 2191 0 1641 0 
Q 956 0 581 494 
Q 206 988 206 1678 
Q 206 2153 378 2554 
Q 550 2956 876 3175 
Q 1203 3394 1644 3394 
Q 2231 3394 2613 2919 
L 2613 3319 
L 3131 3319 
L 3131 450 
Q 3131 -325 2973 -648 
Q 2816 -972 2473 -1159 
Q 2131 -1347 1631 -1347 
Q 1038 -1347 672 -1080 
Q 306 -813 319 -275 
z
M 784 1719 
Q 784 1066 1043 766 
Q 1303 466 1694 466 
Q 2081 466 2343 764 
Q 2606 1063 2606 1700 
Q 2606 2309 2336 2618 
Q 2066 2928 1684 2928 
Q 1309 2928 1046 2623 
Q 784 2319 784 1719 
z
" id="ArialMT-67" transform="scale(0.015625)"/>
     <path d="M 941 0 
L 419 0 
L 419 4581 
L 981 4581 
L 981 2947 
Q 1338 3394 1891 3394 
Q 2197 3394 2470 3270 
Q 2744 3147 2920 2923 
Q 3097 2700 3197 2384 
Q 3297 2069 3297 1709 
Q 3297 856 2875 390 
Q 2453 -75 1863 -75 
Q 1275 -75 941 416 
L 941 0 
z
M 934 1684 
Q 934 1088 1097 822 
Q 1363 388 1816 388 
Q 2184 388 2453 708 
Q 2722 1028 2722 1663 
Q 2722 2313 2464 2622 
Q 2206 2931 1841 2931 
Q 1472 2931 1203 2611 
Q 934 2291 934 1684 
z
" id="ArialMT-62" transform="scale(0.015625)"/>
     <path d="M 2588 1216 
L 3141 1144 
Q 3050 572 2676 248 
Q 2303 -75 1759 -75 
Q 1078 -75 664 370 
Q 250 816 250 1647 
Q 250 2184 428 2587 
Q 606 2991 970 3192 
Q 1334 3394 1763 3394 
Q 2303 3394 2647 3120 
Q 2991 2847 3088 2344 
L 2541 2259 
Q 2463 2594 2264 2762 
Q 2066 2931 1784 2931 
Q 1359 2931 1093 2626 
Q 828 2322 828 1663 
Q 828 994 1084 691 
Q 1341 388 1753 388 
Q 2084 388 2306 591 
Q 2528 794 2588 1216 
z
" id="ArialMT-63" transform="scale(0.015625)"/>
    </defs>
    <use xlink:href="#ArialMT-68"/>
    <use x="55.615234" xlink:href="#ArialMT-74"/>
    <use x="83.398438" xlink:href="#ArialMT-74"/>
    <use x="111.181641" xlink:href="#ArialMT-70"/>
    <use x="166.796875" xlink:href="#ArialMT-73"/>
    <use x="216.796875" xlink:href="#ArialMT-3a"/>
    <use x="244.580078" xlink:href="#ArialMT-2f"/>
    <use x="272.363281" xlink:href="#ArialMT-2f"/>
    <use x="300.146484" xlink:href="#ArialMT-6a"/>
    <use x="322.363281" xlink:href="#ArialMT-6d"/>
    <use x="405.664062" xlink:href="#ArialMT-73"/>
    <use x="455.664062" xlink:href="#ArialMT-76"/>
    <use x="505.664062" xlink:href="#ArialMT-61"/>
    <use x="561.279297" xlink:href="#ArialMT-7a"/>
    <use x="611.279297" xlink:href="#ArialMT-2e"/>
    <use x="639.0625" xlink:href="#ArialMT-67"/>
    <use x="694.677734" xlink:href="#ArialMT-69"/>
    <use x="716.894531" xlink:href="#ArialMT-74"/>
    <use x="744.677734" xlink:href="#ArialMT-68"/>
    <use x="800.292969" xlink:href="#ArialMT-75"/>
    <use x="855.908203" xlink:href="#ArialMT-62"/>
    <use x="911.523438" xlink:href="#ArialMT-2e"/>
    <use x="939.306641" xlink:href="#ArialMT-69"/>
    <use x="961.523438" xlink:href="#ArialMT-6f"/>
    <use x="1017.138672" xlink:href="#ArialMT-2f"/>
    <use x="1044.921875" xlink:href="#ArialMT-63"/>
    <use x="1094.921875" xlink:href="#ArialMT-6f"/>
    <use x="1150.537109" xlink:href="#ArialMT-76"/>
    <use x="1200.537109" xlink:href="#ArialMT-69"/>
    <use x="1222.753906" xlink:href="#ArialMT-64"/>
    <use x="1278.369141" xlink:href="#ArialMT-73"/>
    <use x="1328.369141" xlink:href="#ArialMT-61"/>
    <use x="1383.984375" xlink:href="#ArialMT-6e"/>
    <use x="1439.599609" xlink:href="#ArialMT-74"/>
    <use x="1467.382812" xlink:href="#ArialMT-6f"/>
    <use x="1522.998047" xlink:href="#ArialMT-73"/>
    <use x="1572.998047" xlink:href="#ArialMT-2f"/>
   </g>
  </g>
 </g>
 <defs>
  <clipPath id="p3130370fa5">
   <rect height="277.2" width="558" x="82.8" y="21.789375"/>
  </clipPath>
 </defs>
</svg>
