<?xml version="1.0" encoding="utf-8" standalone="no"?>
<!DOCTYPE svg PUBLIC "-//W3C//DTD SVG 1.1//EN"
  "http://www.w3.org/Graphics/SVG/1.1/DTD/svg11.dtd">
<svg height="322.334688pt" version="1.1" viewBox="0 0 596.082813 322.334688" width="596.082813pt" xmlns="http://www.w3.org/2000/svg" xmlns:xlink="http://www.w3.org/1999/xlink">
 <metadata>
  <rdf:RDF xmlns:cc="http://creativecommons.org/ns#" xmlns:dc="http://purl.org/dc/elements/1.1/" xmlns:rdf="http://www.w3.org/1999/02/22-rdf-syntax-ns#">
   <cc:Work>
    <dc:type rdf:resource="http://purl.org/dc/dcmitype/StillImage"/>
    <dc:date>2021-05-30T19:36:02.670280</dc:date>
    <dc:format>image/svg+xml</dc:format>
    <dc:creator>
     <cc:Agent>
      <dc:title>Matplotlib v3.4.2, https://matplotlib.org/</dc:title>
     </cc:Agent>
    </dc:creator>
   </cc:Work>
  </rdf:RDF>
 </metadata>
 <defs>
  <style type="text/css">*{stroke-linecap:butt;stroke-linejoin:round;}</style>
 </defs>
 <g id="figure_1">
  <g id="patch_1">
   <path d="M 0 322.334688 
L 596.082813 322.334688 
L 596.082813 0 
L 0 0 
z
" style="fill:#ffffff;"/>
  </g>
  <g id="axes_1">
   <g id="patch_2">
    <path d="M 30.882812 298.989375 
L 588.882812 298.989375 
L 588.882812 21.789375 
L 30.882812 21.789375 
z
" style="fill:#ffffff;"/>
   </g>
   <g id="matplotlib.axis_1">
    <g id="xtick_1">
     <g id="line2d_1">
      <path clip-path="url(#p51723326f7)" d="M 35.35192 298.989375 
L 35.35192 21.789375 
" style="fill:none;stroke:#cccccc;stroke-linecap:round;stroke-width:0.8;"/>
     </g>
     <g id="text_1">
      <!-- 2020-03 -->
      <g style="fill:#262626;" transform="translate(17.004264 313.147188)scale(0.1 -0.1)">
       <defs>
        <path d="M 3222 541 
L 3222 0 
L 194 0 
Q 188 203 259 391 
Q 375 700 629 1000 
Q 884 1300 1366 1694 
Q 2113 2306 2375 2664 
Q 2638 3022 2638 3341 
Q 2638 3675 2398 3904 
Q 2159 4134 1775 4134 
Q 1369 4134 1125 3890 
Q 881 3647 878 3216 
L 300 3275 
Q 359 3922 746 4261 
Q 1134 4600 1788 4600 
Q 2447 4600 2831 4234 
Q 3216 3869 3216 3328 
Q 3216 3053 3103 2787 
Q 2991 2522 2730 2228 
Q 2469 1934 1863 1422 
Q 1356 997 1212 845 
Q 1069 694 975 541 
L 3222 541 
z
" id="ArialMT-32" transform="scale(0.015625)"/>
        <path d="M 266 2259 
Q 266 3072 433 3567 
Q 600 4063 929 4331 
Q 1259 4600 1759 4600 
Q 2128 4600 2406 4451 
Q 2684 4303 2865 4023 
Q 3047 3744 3150 3342 
Q 3253 2941 3253 2259 
Q 3253 1453 3087 958 
Q 2922 463 2592 192 
Q 2263 -78 1759 -78 
Q 1097 -78 719 397 
Q 266 969 266 2259 
z
M 844 2259 
Q 844 1131 1108 757 
Q 1372 384 1759 384 
Q 2147 384 2411 759 
Q 2675 1134 2675 2259 
Q 2675 3391 2411 3762 
Q 2147 4134 1753 4134 
Q 1366 4134 1134 3806 
Q 844 3388 844 2259 
z
" id="ArialMT-30" transform="scale(0.015625)"/>
        <path d="M 203 1375 
L 203 1941 
L 1931 1941 
L 1931 1375 
L 203 1375 
z
" id="ArialMT-2d" transform="scale(0.015625)"/>
        <path d="M 269 1209 
L 831 1284 
Q 928 806 1161 595 
Q 1394 384 1728 384 
Q 2125 384 2398 659 
Q 2672 934 2672 1341 
Q 2672 1728 2419 1979 
Q 2166 2231 1775 2231 
Q 1616 2231 1378 2169 
L 1441 2663 
Q 1497 2656 1531 2656 
Q 1891 2656 2178 2843 
Q 2466 3031 2466 3422 
Q 2466 3731 2256 3934 
Q 2047 4138 1716 4138 
Q 1388 4138 1169 3931 
Q 950 3725 888 3313 
L 325 3413 
Q 428 3978 793 4289 
Q 1159 4600 1703 4600 
Q 2078 4600 2393 4439 
Q 2709 4278 2876 4000 
Q 3044 3722 3044 3409 
Q 3044 3113 2884 2869 
Q 2725 2625 2413 2481 
Q 2819 2388 3044 2092 
Q 3269 1797 3269 1353 
Q 3269 753 2831 336 
Q 2394 -81 1725 -81 
Q 1122 -81 723 278 
Q 325 638 269 1209 
z
" id="ArialMT-33" transform="scale(0.015625)"/>
       </defs>
       <use xlink:href="#ArialMT-32"/>
       <use x="55.615234" xlink:href="#ArialMT-30"/>
       <use x="111.230469" xlink:href="#ArialMT-32"/>
       <use x="166.845703" xlink:href="#ArialMT-30"/>
       <use x="222.460938" xlink:href="#ArialMT-2d"/>
       <use x="255.761719" xlink:href="#ArialMT-30"/>
       <use x="311.376953" xlink:href="#ArialMT-33"/>
      </g>
     </g>
    </g>
    <g id="xtick_2">
     <g id="line2d_2">
      <path clip-path="url(#p51723326f7)" d="M 106.161157 298.989375 
L 106.161157 21.789375 
" style="fill:none;stroke:#cccccc;stroke-linecap:round;stroke-width:0.8;"/>
     </g>
     <g id="text_2">
      <!-- 2020-05 -->
      <g style="fill:#262626;" transform="translate(87.8135 313.147188)scale(0.1 -0.1)">
       <defs>
        <path d="M 266 1200 
L 856 1250 
Q 922 819 1161 601 
Q 1400 384 1738 384 
Q 2144 384 2425 690 
Q 2706 997 2706 1503 
Q 2706 1984 2436 2262 
Q 2166 2541 1728 2541 
Q 1456 2541 1237 2417 
Q 1019 2294 894 2097 
L 366 2166 
L 809 4519 
L 3088 4519 
L 3088 3981 
L 1259 3981 
L 1013 2750 
Q 1425 3038 1878 3038 
Q 2478 3038 2890 2622 
Q 3303 2206 3303 1553 
Q 3303 931 2941 478 
Q 2500 -78 1738 -78 
Q 1113 -78 717 272 
Q 322 622 266 1200 
z
" id="ArialMT-35" transform="scale(0.015625)"/>
       </defs>
       <use xlink:href="#ArialMT-32"/>
       <use x="55.615234" xlink:href="#ArialMT-30"/>
       <use x="111.230469" xlink:href="#ArialMT-32"/>
       <use x="166.845703" xlink:href="#ArialMT-30"/>
       <use x="222.460938" xlink:href="#ArialMT-2d"/>
       <use x="255.761719" xlink:href="#ArialMT-30"/>
       <use x="311.376953" xlink:href="#ArialMT-35"/>
      </g>
     </g>
    </g>
    <g id="xtick_3">
     <g id="line2d_3">
      <path clip-path="url(#p51723326f7)" d="M 176.970393 298.989375 
L 176.970393 21.789375 
" style="fill:none;stroke:#cccccc;stroke-linecap:round;stroke-width:0.8;"/>
     </g>
     <g id="text_3">
      <!-- 2020-07 -->
      <g style="fill:#262626;" transform="translate(158.622737 313.147188)scale(0.1 -0.1)">
       <defs>
        <path d="M 303 3981 
L 303 4522 
L 3269 4522 
L 3269 4084 
Q 2831 3619 2401 2847 
Q 1972 2075 1738 1259 
Q 1569 684 1522 0 
L 944 0 
Q 953 541 1156 1306 
Q 1359 2072 1739 2783 
Q 2119 3494 2547 3981 
L 303 3981 
z
" id="ArialMT-37" transform="scale(0.015625)"/>
       </defs>
       <use xlink:href="#ArialMT-32"/>
       <use x="55.615234" xlink:href="#ArialMT-30"/>
       <use x="111.230469" xlink:href="#ArialMT-32"/>
       <use x="166.845703" xlink:href="#ArialMT-30"/>
       <use x="222.460938" xlink:href="#ArialMT-2d"/>
       <use x="255.761719" xlink:href="#ArialMT-30"/>
       <use x="311.376953" xlink:href="#ArialMT-37"/>
      </g>
     </g>
    </g>
    <g id="xtick_4">
     <g id="line2d_4">
      <path clip-path="url(#p51723326f7)" d="M 248.940437 298.989375 
L 248.940437 21.789375 
" style="fill:none;stroke:#cccccc;stroke-linecap:round;stroke-width:0.8;"/>
     </g>
     <g id="text_4">
      <!-- 2020-09 -->
      <g style="fill:#262626;" transform="translate(230.592781 313.147188)scale(0.1 -0.1)">
       <defs>
        <path d="M 350 1059 
L 891 1109 
Q 959 728 1153 556 
Q 1347 384 1650 384 
Q 1909 384 2104 503 
Q 2300 622 2425 820 
Q 2550 1019 2634 1356 
Q 2719 1694 2719 2044 
Q 2719 2081 2716 2156 
Q 2547 1888 2255 1720 
Q 1963 1553 1622 1553 
Q 1053 1553 659 1965 
Q 266 2378 266 3053 
Q 266 3750 677 4175 
Q 1088 4600 1706 4600 
Q 2153 4600 2523 4359 
Q 2894 4119 3086 3673 
Q 3278 3228 3278 2384 
Q 3278 1506 3087 986 
Q 2897 466 2520 194 
Q 2144 -78 1638 -78 
Q 1100 -78 759 220 
Q 419 519 350 1059 
z
M 2653 3081 
Q 2653 3566 2395 3850 
Q 2138 4134 1775 4134 
Q 1400 4134 1122 3828 
Q 844 3522 844 3034 
Q 844 2597 1108 2323 
Q 1372 2050 1759 2050 
Q 2150 2050 2401 2323 
Q 2653 2597 2653 3081 
z
" id="ArialMT-39" transform="scale(0.015625)"/>
       </defs>
       <use xlink:href="#ArialMT-32"/>
       <use x="55.615234" xlink:href="#ArialMT-30"/>
       <use x="111.230469" xlink:href="#ArialMT-32"/>
       <use x="166.845703" xlink:href="#ArialMT-30"/>
       <use x="222.460938" xlink:href="#ArialMT-2d"/>
       <use x="255.761719" xlink:href="#ArialMT-30"/>
       <use x="311.376953" xlink:href="#ArialMT-39"/>
      </g>
     </g>
    </g>
    <g id="xtick_5">
     <g id="line2d_5">
      <path clip-path="url(#p51723326f7)" d="M 319.749673 298.989375 
L 319.749673 21.789375 
" style="fill:none;stroke:#cccccc;stroke-linecap:round;stroke-width:0.8;"/>
     </g>
     <g id="text_5">
      <!-- 2020-11 -->
      <g style="fill:#262626;" transform="translate(301.770767 313.147188)scale(0.1 -0.1)">
       <defs>
        <path d="M 2384 0 
L 1822 0 
L 1822 3584 
Q 1619 3391 1289 3197 
Q 959 3003 697 2906 
L 697 3450 
Q 1169 3672 1522 3987 
Q 1875 4303 2022 4600 
L 2384 4600 
L 2384 0 
z
" id="ArialMT-31" transform="scale(0.015625)"/>
       </defs>
       <use xlink:href="#ArialMT-32"/>
       <use x="55.615234" xlink:href="#ArialMT-30"/>
       <use x="111.230469" xlink:href="#ArialMT-32"/>
       <use x="166.845703" xlink:href="#ArialMT-30"/>
       <use x="222.460938" xlink:href="#ArialMT-2d"/>
       <use x="255.761719" xlink:href="#ArialMT-31"/>
       <use x="304.001953" xlink:href="#ArialMT-31"/>
      </g>
     </g>
    </g>
    <g id="xtick_6">
     <g id="line2d_6">
      <path clip-path="url(#p51723326f7)" d="M 390.55891 298.989375 
L 390.55891 21.789375 
" style="fill:none;stroke:#cccccc;stroke-linecap:round;stroke-width:0.8;"/>
     </g>
     <g id="text_6">
      <!-- 2021-01 -->
      <g style="fill:#262626;" transform="translate(372.211254 313.147188)scale(0.1 -0.1)">
       <use xlink:href="#ArialMT-32"/>
       <use x="55.615234" xlink:href="#ArialMT-30"/>
       <use x="111.230469" xlink:href="#ArialMT-32"/>
       <use x="166.845703" xlink:href="#ArialMT-31"/>
       <use x="222.460938" xlink:href="#ArialMT-2d"/>
       <use x="255.761719" xlink:href="#ArialMT-30"/>
       <use x="311.376953" xlink:href="#ArialMT-31"/>
      </g>
     </g>
    </g>
    <g id="xtick_7">
     <g id="line2d_7">
      <path clip-path="url(#p51723326f7)" d="M 459.046532 298.989375 
L 459.046532 21.789375 
" style="fill:none;stroke:#cccccc;stroke-linecap:round;stroke-width:0.8;"/>
     </g>
     <g id="text_7">
      <!-- 2021-03 -->
      <g style="fill:#262626;" transform="translate(440.698876 313.147188)scale(0.1 -0.1)">
       <use xlink:href="#ArialMT-32"/>
       <use x="55.615234" xlink:href="#ArialMT-30"/>
       <use x="111.230469" xlink:href="#ArialMT-32"/>
       <use x="166.845703" xlink:href="#ArialMT-31"/>
       <use x="222.460938" xlink:href="#ArialMT-2d"/>
       <use x="255.761719" xlink:href="#ArialMT-30"/>
       <use x="311.376953" xlink:href="#ArialMT-33"/>
      </g>
     </g>
    </g>
    <g id="xtick_8">
     <g id="line2d_8">
      <path clip-path="url(#p51723326f7)" d="M 529.855769 298.989375 
L 529.855769 21.789375 
" style="fill:none;stroke:#cccccc;stroke-linecap:round;stroke-width:0.8;"/>
     </g>
     <g id="text_8">
      <!-- 2021-05 -->
      <g style="fill:#262626;" transform="translate(511.508112 313.147188)scale(0.1 -0.1)">
       <use xlink:href="#ArialMT-32"/>
       <use x="55.615234" xlink:href="#ArialMT-30"/>
       <use x="111.230469" xlink:href="#ArialMT-32"/>
       <use x="166.845703" xlink:href="#ArialMT-31"/>
       <use x="222.460938" xlink:href="#ArialMT-2d"/>
       <use x="255.761719" xlink:href="#ArialMT-30"/>
       <use x="311.376953" xlink:href="#ArialMT-35"/>
      </g>
     </g>
    </g>
   </g>
   <g id="matplotlib.axis_2">
    <g id="ytick_1">
     <g id="line2d_9">
      <path clip-path="url(#p51723326f7)" d="M 30.882812 286.389375 
L 588.882812 286.389375 
" style="fill:none;stroke:#cccccc;stroke-linecap:round;stroke-width:0.8;"/>
     </g>
     <g id="text_9">
      <!-- 0 -->
      <g style="fill:#262626;" transform="translate(18.321875 289.968281)scale(0.1 -0.1)">
       <use xlink:href="#ArialMT-30"/>
      </g>
     </g>
    </g>
    <g id="ytick_2">
     <g id="line2d_10">
      <path clip-path="url(#p51723326f7)" d="M 30.882812 248.664824 
L 588.882812 248.664824 
" style="fill:none;stroke:#cccccc;stroke-linecap:round;stroke-width:0.8;"/>
     </g>
     <g id="text_10">
      <!-- 50 -->
      <g style="fill:#262626;" transform="translate(12.760937 252.24373)scale(0.1 -0.1)">
       <use xlink:href="#ArialMT-35"/>
       <use x="55.615234" xlink:href="#ArialMT-30"/>
      </g>
     </g>
    </g>
    <g id="ytick_3">
     <g id="line2d_11">
      <path clip-path="url(#p51723326f7)" d="M 30.882812 210.940273 
L 588.882812 210.940273 
" style="fill:none;stroke:#cccccc;stroke-linecap:round;stroke-width:0.8;"/>
     </g>
     <g id="text_11">
      <!-- 100 -->
      <g style="fill:#262626;" transform="translate(7.2 214.519179)scale(0.1 -0.1)">
       <use xlink:href="#ArialMT-31"/>
       <use x="55.615234" xlink:href="#ArialMT-30"/>
       <use x="111.230469" xlink:href="#ArialMT-30"/>
      </g>
     </g>
    </g>
    <g id="ytick_4">
     <g id="line2d_12">
      <path clip-path="url(#p51723326f7)" d="M 30.882812 173.215722 
L 588.882812 173.215722 
" style="fill:none;stroke:#cccccc;stroke-linecap:round;stroke-width:0.8;"/>
     </g>
     <g id="text_12">
      <!-- 150 -->
      <g style="fill:#262626;" transform="translate(7.2 176.794629)scale(0.1 -0.1)">
       <use xlink:href="#ArialMT-31"/>
       <use x="55.615234" xlink:href="#ArialMT-35"/>
       <use x="111.230469" xlink:href="#ArialMT-30"/>
      </g>
     </g>
    </g>
    <g id="ytick_5">
     <g id="line2d_13">
      <path clip-path="url(#p51723326f7)" d="M 30.882812 135.491171 
L 588.882812 135.491171 
" style="fill:none;stroke:#cccccc;stroke-linecap:round;stroke-width:0.8;"/>
     </g>
     <g id="text_13">
      <!-- 200 -->
      <g style="fill:#262626;" transform="translate(7.2 139.070078)scale(0.1 -0.1)">
       <use xlink:href="#ArialMT-32"/>
       <use x="55.615234" xlink:href="#ArialMT-30"/>
       <use x="111.230469" xlink:href="#ArialMT-30"/>
      </g>
     </g>
    </g>
    <g id="ytick_6">
     <g id="line2d_14">
      <path clip-path="url(#p51723326f7)" d="M 30.882812 97.766621 
L 588.882812 97.766621 
" style="fill:none;stroke:#cccccc;stroke-linecap:round;stroke-width:0.8;"/>
     </g>
     <g id="text_14">
      <!-- 250 -->
      <g style="fill:#262626;" transform="translate(7.2 101.345527)scale(0.1 -0.1)">
       <use xlink:href="#ArialMT-32"/>
       <use x="55.615234" xlink:href="#ArialMT-35"/>
       <use x="111.230469" xlink:href="#ArialMT-30"/>
      </g>
     </g>
    </g>
    <g id="ytick_7">
     <g id="line2d_15">
      <path clip-path="url(#p51723326f7)" d="M 30.882812 60.04207 
L 588.882812 60.04207 
" style="fill:none;stroke:#cccccc;stroke-linecap:round;stroke-width:0.8;"/>
     </g>
     <g id="text_15">
      <!-- 300 -->
      <g style="fill:#262626;" transform="translate(7.2 63.620976)scale(0.1 -0.1)">
       <use xlink:href="#ArialMT-33"/>
       <use x="55.615234" xlink:href="#ArialMT-30"/>
       <use x="111.230469" xlink:href="#ArialMT-30"/>
      </g>
     </g>
    </g>
    <g id="ytick_8">
     <g id="line2d_16">
      <path clip-path="url(#p51723326f7)" d="M 30.882812 22.317519 
L 588.882812 22.317519 
" style="fill:none;stroke:#cccccc;stroke-linecap:round;stroke-width:0.8;"/>
     </g>
     <g id="text_16">
      <!-- 350 -->
      <g style="fill:#262626;" transform="translate(7.2 25.896425)scale(0.1 -0.1)">
       <use xlink:href="#ArialMT-33"/>
       <use x="55.615234" xlink:href="#ArialMT-35"/>
       <use x="111.230469" xlink:href="#ArialMT-30"/>
      </g>
     </g>
    </g>
   </g>
   <g id="line2d_17">
    <path clip-path="url(#p51723326f7)" d="M 56.246449 278.089974 
L 57.407256 278.089974 
L 58.568063 276.580992 
L 59.72887 276.580992 
L 60.889677 269.036082 
L 62.050485 255.455243 
L 63.211292 254.700752 
L 64.372099 251.682788 
L 65.532906 247.155842 
L 66.693713 246.401351 
L 67.85452 246.401351 
L 69.015328 245.64686 
L 70.176135 242.628896 
L 71.336942 226.030094 
L 72.497749 224.521112 
L 73.658556 224.521112 
L 74.819363 201.886381 
L 75.980171 200.377399 
L 77.140978 213.958237 
L 78.301785 210.185782 
L 79.462592 204.149854 
L 80.623399 202.640872 
L 81.784206 199.622908 
L 82.945013 199.622908 
L 84.105821 198.113926 
L 85.266628 186.796561 
L 86.427435 185.287579 
L 87.588242 189.060034 
L 88.749049 176.233686 
L 89.909856 173.215722 
L 91.070664 170.952249 
L 92.231471 167.179794 
L 93.392278 176.988177 
L 94.553085 176.988177 
L 95.713892 173.970213 
L 96.874699 167.934285 
L 98.035506 142.281591 
L 99.196314 140.772609 
L 100.357121 176.233686 
L 101.517928 178.497159 
L 102.678735 181.515124 
L 103.839542 176.233686 
L 105.000349 181.515124 
L 106.161157 173.215722 
L 107.321964 168.688776 
L 108.482771 169.443267 
L 109.643578 167.179794 
L 110.804385 161.143866 
L 111.965192 158.125902 
L 113.126 162.652848 
L 114.286807 165.670812 
L 115.447614 161.143866 
L 116.608421 158.125902 
L 117.769228 161.898357 
L 118.930035 146.054046 
L 120.090842 152.844465 
L 121.25165 149.826501 
L 122.412457 146.054046 
L 123.573264 152.089974 
L 124.734071 140.772609 
L 125.894878 139.263626 
L 127.055685 141.5271 
L 128.216493 133.982189 
L 129.3773 137.000153 
L 130.538107 139.263626 
L 131.698914 140.772609 
L 132.859721 138.509135 
L 134.020528 137.754644 
L 135.181335 133.227698 
L 136.342143 134.73668 
L 137.50295 135.491171 
L 138.663757 123.419315 
L 139.824564 122.664824 
L 140.985371 124.173806 
L 142.146178 129.455243 
L 143.306986 129.455243 
L 144.467793 128.700752 
L 145.6286 127.19177 
L 146.789407 122.664824 
L 147.950214 122.664824 
L 149.111021 110.592968 
L 150.271829 115.874405 
L 151.432636 109.083986 
L 152.593443 114.365423 
L 153.75425 106.820513 
L 154.915057 109.838477 
L 156.075864 103.802549 
L 157.236671 112.856441 
L 158.397479 120.401351 
L 159.558286 122.664824 
L 160.719093 126.437279 
L 161.8799 130.964225 
L 163.040707 127.946261 
L 164.201514 122.664824 
L 165.362322 121.910333 
L 166.523129 118.892369 
L 167.683936 123.419315 
L 168.844743 135.491171 
L 170.00555 137.000153 
L 171.166357 131.718716 
L 172.327164 134.73668 
L 173.487972 141.5271 
L 174.648779 144.545064 
L 175.809586 150.580992 
L 176.970393 150.580992 
L 178.1312 156.61692 
L 179.292007 149.07201 
L 180.452815 152.844465 
L 181.613622 154.353447 
L 182.774429 157.371411 
L 183.935236 148.317519 
L 185.096043 164.916321 
L 186.25685 162.652848 
L 187.417658 161.898357 
L 188.578465 166.425303 
L 189.739272 171.70674 
L 190.900079 170.197758 
L 192.060886 149.826501 
L 193.221693 161.898357 
L 194.3825 153.598956 
L 195.543308 148.317519 
L 196.704115 156.61692 
L 197.864922 154.353447 
L 200.186536 158.880393 
L 201.347343 154.353447 
L 202.508151 157.371411 
L 203.668958 152.844465 
L 204.829765 154.353447 
L 207.151379 158.880393 
L 208.312186 163.407339 
L 209.472993 170.952249 
L 210.633801 173.215722 
L 211.794608 173.970213 
L 212.955415 177.742668 
L 214.116222 180.006141 
L 215.277029 177.742668 
L 216.437836 184.533088 
L 217.598644 188.305543 
L 218.759451 196.604944 
L 219.920258 194.341471 
L 221.081065 195.850453 
L 222.241872 208.6768 
L 223.402679 203.395363 
L 224.563487 207.167818 
L 225.724294 211.694764 
L 226.885101 208.6768 
L 228.045908 207.922309 
L 229.206715 204.904345 
L 230.367522 203.395363 
L 231.528329 202.640872 
L 232.689137 189.814525 
L 233.849944 198.113926 
L 236.171558 207.167818 
L 237.332365 204.904345 
L 238.493172 214.712728 
L 239.65398 215.467219 
L 240.814787 213.203746 
L 241.975594 215.467219 
L 243.136401 219.239674 
L 244.297208 213.203746 
L 245.458015 221.503147 
L 246.618822 207.167818 
L 247.77963 197.359435 
L 248.940437 195.850453 
L 250.101244 199.622908 
L 251.262051 201.13189 
L 252.422858 201.13189 
L 253.583665 203.395363 
L 254.744473 203.395363 
L 255.90528 211.694764 
L 257.066087 210.185782 
L 258.226894 200.377399 
L 259.387701 203.395363 
L 260.548508 200.377399 
L 261.709316 199.622908 
L 262.870123 200.377399 
L 264.03093 203.395363 
L 266.352544 212.449255 
L 267.513351 213.203746 
L 268.674158 210.940273 
L 269.834966 209.431291 
L 272.15658 210.940273 
L 273.317387 217.730692 
L 274.478194 217.730692 
L 275.639001 231.311531 
L 276.799809 229.048058 
L 277.960616 227.539076 
L 279.121423 223.012129 
L 280.28223 221.503147 
L 281.443037 222.257638 
L 282.603844 219.239674 
L 283.764651 223.012129 
L 284.925459 222.257638 
L 286.086266 217.730692 
L 287.247073 219.239674 
L 288.40788 219.994165 
L 289.568687 214.712728 
L 290.729494 210.940273 
L 291.890302 213.203746 
L 293.051109 210.185782 
L 294.211916 212.449255 
L 295.372723 209.431291 
L 296.53353 214.712728 
L 297.694337 215.467219 
L 298.855145 214.712728 
L 300.015952 212.449255 
L 301.176759 213.958237 
L 302.337566 216.976201 
L 303.498373 216.22171 
L 304.65918 216.22171 
L 305.819987 213.203746 
L 306.980795 207.167818 
L 308.141602 204.904345 
L 309.302409 205.658836 
L 310.463216 207.922309 
L 311.624023 204.149854 
L 312.78483 204.149854 
L 313.945638 201.886381 
L 315.106445 195.095962 
L 316.267252 196.604944 
L 317.428059 193.58698 
L 318.588866 193.58698 
L 319.749673 190.569016 
L 320.91048 186.796561 
L 322.071288 180.760632 
L 323.232095 189.060034 
L 324.392902 194.341471 
L 325.553709 189.060034 
L 326.714516 183.024106 
L 327.875323 186.04207 
L 329.036131 179.25165 
L 330.196938 174.724704 
L 331.357745 164.916321 
L 332.518552 166.425303 
L 333.679359 169.443267 
L 334.840166 173.970213 
L 336.000974 173.215722 
L 337.161781 168.688776 
L 338.322588 169.443267 
L 339.483395 153.598956 
L 340.644202 149.826501 
L 341.805009 152.089974 
L 342.965816 138.509135 
L 344.126624 139.263626 
L 345.287431 143.790573 
L 346.448238 137.754644 
L 347.609045 132.473207 
L 348.769852 132.473207 
L 349.930659 134.73668 
L 351.091467 127.946261 
L 352.252274 138.509135 
L 353.413081 142.281591 
L 354.573888 147.563028 
L 355.734695 140.018118 
L 356.895502 141.5271 
L 358.056309 149.07201 
L 359.217117 145.299555 
L 360.377924 155.862429 
L 361.538731 164.916321 
L 362.699538 155.862429 
L 363.860345 142.281591 
L 365.021152 154.353447 
L 366.18196 150.580992 
L 367.342767 149.07201 
L 368.503574 155.862429 
L 371.985995 171.70674 
L 373.146803 170.197758 
L 374.30761 169.443267 
L 375.468417 174.724704 
L 376.629224 178.497159 
L 377.790031 173.970213 
L 378.950838 170.952249 
L 380.111645 170.952249 
L 381.272453 175.479195 
L 382.43326 182.269615 
L 383.594067 184.533088 
L 384.754874 178.497159 
L 385.915681 177.742668 
L 387.076488 173.215722 
L 388.237296 175.479195 
L 389.398103 173.970213 
L 390.55891 183.778597 
L 391.719717 180.760632 
L 392.880524 187.551052 
L 394.041331 197.359435 
L 395.202138 195.850453 
L 396.362946 195.095962 
L 397.523753 196.604944 
L 398.68456 192.832489 
L 401.006174 194.341471 
L 402.166981 184.533088 
L 403.327789 187.551052 
L 404.488596 179.25165 
L 405.649403 180.006141 
L 406.81021 176.233686 
L 409.131824 185.287579 
L 410.292632 178.497159 
L 411.453439 181.515124 
L 412.614246 187.551052 
L 413.775053 195.850453 
L 414.93586 189.060034 
L 416.096667 192.832489 
L 417.257474 189.814525 
L 418.418282 199.622908 
L 419.579089 204.149854 
L 420.739896 195.095962 
L 421.900703 201.13189 
L 423.06151 196.604944 
L 424.222317 201.886381 
L 425.383125 204.149854 
L 426.543932 195.095962 
L 427.704739 194.341471 
L 428.865546 191.323507 
L 430.026353 196.604944 
L 431.18716 195.850453 
L 432.347967 196.604944 
L 433.508775 200.377399 
L 434.669582 203.395363 
L 435.830389 210.185782 
L 436.991196 210.940273 
L 438.152003 209.431291 
L 439.31281 206.413327 
L 440.473618 216.976201 
L 441.634425 216.22171 
L 442.795232 206.413327 
L 443.956039 203.395363 
L 445.116846 214.712728 
L 446.277653 214.712728 
L 447.438461 211.694764 
L 448.599268 213.958237 
L 449.760075 209.431291 
L 450.920882 202.640872 
L 452.081689 198.113926 
L 453.242496 201.13189 
L 454.403303 191.323507 
L 455.564111 192.077998 
L 456.724918 205.658836 
L 457.885725 189.060034 
L 459.046532 180.760632 
L 460.207339 186.796561 
L 461.368146 178.497159 
L 462.528954 180.006141 
L 463.689761 177.742668 
L 464.850568 186.796561 
L 466.011375 183.778597 
L 467.172182 173.970213 
L 468.332989 169.443267 
L 470.654604 161.898357 
L 472.976218 148.317519 
L 474.137025 139.263626 
L 475.297832 133.982189 
L 476.458639 118.892369 
L 477.619447 115.874405 
L 478.780254 112.10195 
L 479.941061 106.820513 
L 481.101868 95.503147 
L 482.262675 81.922309 
L 483.423482 74.377399 
L 484.58429 64.569016 
L 485.745097 57.778597 
L 486.905904 39.670812 
L 488.066711 49.479195 
L 489.227518 40.425303 
L 490.388325 44.197758 
L 491.549132 44.197758 
L 492.70994 34.389375 
L 493.870747 35.898357 
L 495.031554 41.179794 
L 496.192361 37.407339 
L 497.353168 42.688776 
L 498.513975 44.197758 
L 499.674783 41.179794 
L 500.83559 45.70674 
L 501.996397 46.461231 
L 503.157204 56.269615 
L 504.318011 55.515124 
L 505.478818 81.922309 
L 506.639625 87.958237 
L 507.800433 78.904345 
L 508.96124 87.203746 
L 510.122047 84.940273 
L 511.282854 81.922309 
L 512.443661 91.730692 
L 513.604468 78.904345 
L 514.765276 97.012129 
L 515.926083 89.467219 
L 517.08689 90.976201 
L 518.247697 99.275603 
L 519.408504 109.083986 
L 520.569311 109.838477 
L 521.730119 118.892369 
L 522.890926 125.682788 
L 524.051733 122.664824 
L 525.21254 127.19177 
L 526.373347 136.245662 
L 527.534154 133.227698 
L 528.694961 128.700752 
L 529.855769 113.610932 
L 531.016576 121.910333 
L 532.177383 124.173806 
L 533.33819 130.209734 
L 534.498997 118.892369 
L 535.659804 110.592968 
L 536.820612 123.419315 
L 537.981419 133.227698 
L 539.142226 118.137878 
L 540.303033 121.155842 
L 541.46384 115.874405 
L 542.624647 121.155842 
L 543.785454 122.664824 
L 544.946262 127.946261 
L 546.107069 121.155842 
L 547.267876 112.10195 
L 548.428683 109.838477 
L 549.58949 105.311531 
L 550.750297 107.575004 
L 551.911105 111.347459 
L 553.071912 100.030094 
L 554.232719 98.521112 
L 555.393526 97.766621 
L 556.554333 100.030094 
L 557.71514 94.748656 
L 558.875948 90.22171 
L 560.036755 80.413327 
L 561.197562 78.149854 
L 562.358369 68.341471 
L 563.519176 78.149854 
L 563.519176 78.149854 
" style="fill:none;stroke:#1f77b4;stroke-linecap:round;stroke-width:1.5;"/>
   </g>
   <g id="line2d_18">
    <path clip-path="url(#p51723326f7)" d="M 56.246449 286.389375 
L 57.407256 286.389375 
L 58.568063 281.107938 
L 59.72887 281.107938 
L 60.889677 279.598956 
L 62.050485 272.054046 
L 63.211292 272.808537 
L 64.372099 269.790573 
L 69.015328 269.790573 
L 70.176135 270.545064 
L 71.336942 267.5271 
L 72.497749 269.036082 
L 73.658556 268.281591 
L 74.819363 265.263626 
L 75.980171 265.263626 
L 77.140978 261.491171 
L 78.301785 258.473207 
L 79.462592 258.473207 
L 80.623399 262.245662 
L 82.945013 262.245662 
L 84.105821 261.491171 
L 85.266628 257.718716 
L 86.427435 259.982189 
L 87.588242 264.509135 
L 88.749049 258.473207 
L 89.909856 253.19177 
L 91.070664 252.437279 
L 92.231471 245.64686 
L 93.392278 250.173806 
L 94.553085 248.664824 
L 95.713892 245.64686 
L 96.874699 238.856441 
L 98.035506 235.083986 
L 99.196314 232.820513 
L 100.357121 238.856441 
L 101.517928 238.856441 
L 103.839542 241.874405 
L 105.000349 238.856441 
L 106.161157 233.575004 
L 107.321964 231.311531 
L 108.482771 229.802549 
L 109.643578 230.55704 
L 110.804385 225.275603 
L 111.965192 225.275603 
L 113.126 232.820513 
L 114.286807 234.329495 
L 115.447614 229.048058 
L 116.608421 229.048058 
L 118.930035 232.066022 
L 120.090842 236.592968 
L 121.25165 233.575004 
L 122.412457 231.311531 
L 123.573264 235.838477 
L 124.734071 229.048058 
L 125.894878 229.048058 
L 127.055685 227.539076 
L 128.216493 230.55704 
L 129.3773 226.030094 
L 130.538107 226.030094 
L 131.698914 222.257638 
L 132.859721 223.012129 
L 135.181335 221.503147 
L 136.342143 228.293567 
L 137.50295 230.55704 
L 138.663757 225.275603 
L 139.824564 229.048058 
L 140.985371 225.275603 
L 142.146178 220.748656 
L 143.306986 219.239674 
L 144.467793 218.485183 
L 145.6286 221.503147 
L 146.789407 219.239674 
L 147.950214 219.239674 
L 149.111021 214.712728 
L 150.271829 216.976201 
L 151.432636 215.467219 
L 152.593443 215.467219 
L 153.75425 207.922309 
L 154.915057 211.694764 
L 156.075864 216.976201 
L 157.236671 219.239674 
L 158.397479 212.449255 
L 159.558286 216.976201 
L 160.719093 223.012129 
L 161.8799 225.275603 
L 164.201514 223.766621 
L 165.362322 219.239674 
L 166.523129 221.503147 
L 167.683936 219.994165 
L 168.844743 223.012129 
L 170.00555 222.257638 
L 171.166357 223.012129 
L 172.327164 227.539076 
L 173.487972 234.329495 
L 174.648779 233.575004 
L 175.809586 230.55704 
L 176.970393 231.311531 
L 178.1312 234.329495 
L 179.292007 232.066022 
L 180.452815 230.55704 
L 181.613622 231.311531 
L 182.774429 231.311531 
L 183.935236 229.802549 
L 185.096043 236.592968 
L 186.25685 236.592968 
L 187.417658 235.838477 
L 188.578465 238.856441 
L 189.739272 240.365423 
L 190.900079 236.592968 
L 192.060886 231.311531 
L 193.221693 233.575004 
L 194.3825 227.539076 
L 195.543308 230.55704 
L 196.704115 236.592968 
L 197.864922 238.856441 
L 199.025729 237.347459 
L 200.186536 237.347459 
L 201.347343 238.856441 
L 202.508151 233.575004 
L 203.668958 235.083986 
L 204.829765 237.347459 
L 205.990572 237.347459 
L 207.151379 233.575004 
L 208.312186 233.575004 
L 209.472993 238.10195 
L 210.633801 238.10195 
L 211.794608 238.856441 
L 212.955415 241.874405 
L 214.116222 243.383387 
L 215.277029 244.137878 
L 216.437836 246.401351 
L 217.598644 250.173806 
L 218.759451 249.419315 
L 219.920258 246.401351 
L 221.081065 247.155842 
L 222.241872 252.437279 
L 223.402679 252.437279 
L 224.563487 251.682788 
L 225.724294 255.455243 
L 226.885101 254.700752 
L 228.045908 253.19177 
L 229.206715 250.173806 
L 230.367522 251.682788 
L 231.528329 251.682788 
L 232.689137 248.664824 
L 233.849944 253.946261 
L 235.010751 253.946261 
L 236.171558 258.473207 
L 237.332365 256.209734 
L 238.493172 259.227698 
L 239.65398 259.227698 
L 240.814787 259.982189 
L 241.975594 256.964225 
L 244.297208 256.964225 
L 245.458015 260.73668 
L 246.618822 254.700752 
L 247.77963 256.209734 
L 248.940437 252.437279 
L 250.101244 253.946261 
L 251.262051 253.19177 
L 252.422858 253.946261 
L 253.583665 251.682788 
L 254.744473 253.946261 
L 255.90528 255.455243 
L 257.066087 254.700752 
L 258.226894 250.173806 
L 259.387701 251.682788 
L 260.548508 247.910333 
L 261.709316 248.664824 
L 262.870123 253.19177 
L 264.03093 259.227698 
L 265.191737 255.455243 
L 266.352544 255.455243 
L 267.513351 256.209734 
L 268.674158 254.700752 
L 270.995773 256.209734 
L 272.15658 255.455243 
L 273.317387 256.964225 
L 274.478194 262.245662 
L 275.639001 261.491171 
L 276.799809 256.964225 
L 277.960616 257.718716 
L 279.121423 256.964225 
L 280.28223 254.700752 
L 281.443037 253.19177 
L 282.603844 253.19177 
L 283.764651 256.209734 
L 284.925459 257.718716 
L 286.086266 256.964225 
L 288.40788 256.964225 
L 289.568687 256.209734 
L 290.729494 254.700752 
L 291.890302 256.209734 
L 293.051109 256.964225 
L 294.211916 255.455243 
L 295.372723 254.700752 
L 296.53353 258.473207 
L 297.694337 261.491171 
L 298.855145 259.227698 
L 300.015952 261.491171 
L 301.176759 261.491171 
L 302.337566 259.982189 
L 303.498373 262.245662 
L 304.65918 258.473207 
L 305.819987 256.209734 
L 306.980795 255.455243 
L 308.141602 252.437279 
L 311.624023 252.437279 
L 313.945638 249.419315 
L 315.106445 246.401351 
L 316.267252 251.682788 
L 317.428059 251.682788 
L 318.588866 250.928297 
L 319.749673 249.419315 
L 320.91048 246.401351 
L 322.071288 247.155842 
L 324.392902 245.64686 
L 325.553709 244.137878 
L 326.714516 241.874405 
L 327.875323 244.892369 
L 329.036131 235.838477 
L 330.196938 233.575004 
L 331.357745 235.083986 
L 332.518552 234.329495 
L 333.679359 226.784585 
L 334.840166 234.329495 
L 336.000974 233.575004 
L 337.161781 235.838477 
L 338.322588 235.083986 
L 339.483395 227.539076 
L 340.644202 226.030094 
L 341.805009 226.030094 
L 342.965816 216.22171 
L 344.126624 219.994165 
L 345.287431 225.275603 
L 346.448238 221.503147 
L 347.609045 222.257638 
L 348.769852 222.257638 
L 349.930659 223.766621 
L 351.091467 223.012129 
L 352.252274 228.293567 
L 353.413081 229.048058 
L 354.573888 223.766621 
L 355.734695 220.748656 
L 356.895502 222.257638 
L 358.056309 226.784585 
L 359.217117 228.293567 
L 360.377924 226.784585 
L 361.538731 235.083986 
L 362.699538 229.048058 
L 363.860345 229.048058 
L 365.021152 225.275603 
L 366.18196 220.748656 
L 367.342767 223.766621 
L 368.503574 223.766621 
L 369.664381 229.048058 
L 370.825188 231.311531 
L 371.985995 229.048058 
L 373.146803 228.293567 
L 374.30761 231.311531 
L 375.468417 235.838477 
L 376.629224 232.820513 
L 377.790031 230.55704 
L 378.950838 232.066022 
L 380.111645 226.784585 
L 381.272453 232.066022 
L 382.43326 235.083986 
L 383.594067 235.083986 
L 384.754874 226.784585 
L 385.915681 235.083986 
L 387.076488 235.083986 
L 388.237296 238.856441 
L 389.398103 236.592968 
L 390.55891 235.083986 
L 391.719717 236.592968 
L 392.880524 237.347459 
L 394.041331 239.610932 
L 395.202138 241.119914 
L 396.362946 241.874405 
L 397.523753 243.383387 
L 398.68456 241.874405 
L 399.845367 238.856441 
L 401.006174 237.347459 
L 402.166981 232.820513 
L 403.327789 233.575004 
L 404.488596 228.293567 
L 405.649403 226.784585 
L 406.81021 223.766621 
L 407.971017 225.275603 
L 409.131824 227.539076 
L 411.453439 230.55704 
L 412.614246 231.311531 
L 413.775053 233.575004 
L 414.93586 232.066022 
L 416.096667 234.329495 
L 417.257474 229.048058 
L 418.418282 229.802549 
L 419.579089 232.066022 
L 420.739896 231.311531 
L 421.900703 236.592968 
L 425.383125 238.856441 
L 426.543932 235.838477 
L 427.704739 231.311531 
L 428.865546 235.838477 
L 430.026353 232.820513 
L 431.18716 236.592968 
L 432.347967 238.10195 
L 433.508775 242.628896 
L 434.669582 245.64686 
L 435.830389 247.155842 
L 436.991196 244.892369 
L 438.152003 245.64686 
L 439.31281 243.383387 
L 440.473618 250.928297 
L 441.634425 251.682788 
L 442.795232 240.365423 
L 443.956039 244.137878 
L 445.116846 242.628896 
L 446.277653 243.383387 
L 447.438461 239.610932 
L 448.599268 242.628896 
L 449.760075 244.137878 
L 450.920882 241.874405 
L 452.081689 243.383387 
L 453.242496 248.664824 
L 455.564111 239.610932 
L 456.724918 244.892369 
L 457.885725 240.365423 
L 459.046532 237.347459 
L 460.207339 239.610932 
L 461.368146 236.592968 
L 462.528954 236.592968 
L 463.689761 237.347459 
L 464.850568 243.383387 
L 466.011375 233.575004 
L 467.172182 236.592968 
L 468.332989 238.856441 
L 469.493796 232.066022 
L 470.654604 229.048058 
L 471.815411 223.766621 
L 472.976218 211.694764 
L 474.137025 204.904345 
L 475.297832 213.958237 
L 476.458639 201.886381 
L 477.619447 196.604944 
L 478.780254 198.113926 
L 479.941061 186.796561 
L 481.101868 190.569016 
L 482.262675 186.04207 
L 483.423482 187.551052 
L 484.58429 180.760632 
L 485.745097 177.742668 
L 486.905904 165.670812 
L 488.066711 163.407339 
L 489.227518 155.862429 
L 490.388325 151.335483 
L 491.549132 154.353447 
L 492.70994 152.089974 
L 493.870747 150.580992 
L 495.031554 147.563028 
L 497.353168 146.054046 
L 498.513975 149.07201 
L 499.674783 146.808537 
L 500.83559 146.054046 
L 503.157204 143.036082 
L 504.318011 144.545064 
L 505.478818 153.598956 
L 506.639625 153.598956 
L 508.96124 165.670812 
L 510.122047 162.652848 
L 511.282854 158.880393 
L 512.443661 168.688776 
L 513.604468 163.407339 
L 514.765276 172.461231 
L 517.08689 175.479195 
L 518.247697 180.760632 
L 519.408504 189.060034 
L 520.569311 189.814525 
L 521.730119 194.341471 
L 524.051733 192.832489 
L 525.21254 197.359435 
L 526.373347 202.640872 
L 527.534154 198.113926 
L 528.694961 202.640872 
L 529.855769 183.024106 
L 531.016576 198.868417 
L 532.177383 205.658836 
L 533.33819 208.6768 
L 534.498997 198.868417 
L 535.659804 197.359435 
L 536.820612 204.149854 
L 537.981419 200.377399 
L 539.142226 182.269615 
L 540.303033 194.341471 
L 541.46384 192.832489 
L 542.624647 193.58698 
L 543.785454 199.622908 
L 544.946262 204.904345 
L 546.107069 198.868417 
L 547.267876 198.113926 
L 548.428683 194.341471 
L 549.58949 189.814525 
L 550.750297 191.323507 
L 551.911105 195.850453 
L 553.071912 193.58698 
L 554.232719 183.778597 
L 555.393526 183.778597 
L 556.554333 186.04207 
L 557.71514 186.796561 
L 558.875948 183.024106 
L 560.036755 180.760632 
L 561.197562 176.233686 
L 562.358369 174.724704 
L 563.519176 179.25165 
L 563.519176 179.25165 
" style="fill:none;stroke:#ff7f0e;stroke-linecap:round;stroke-width:1.5;"/>
   </g>
   <g id="patch_3">
    <path d="M 30.882812 298.989375 
L 30.882812 21.789375 
" style="fill:none;stroke:#cccccc;stroke-linecap:square;stroke-linejoin:miter;stroke-width:0.8;"/>
   </g>
   <g id="patch_4">
    <path d="M 588.882812 298.989375 
L 588.882812 21.789375 
" style="fill:none;stroke:#cccccc;stroke-linecap:square;stroke-linejoin:miter;stroke-width:0.8;"/>
   </g>
   <g id="patch_5">
    <path d="M 30.882812 298.989375 
L 588.882812 298.989375 
" style="fill:none;stroke:#cccccc;stroke-linecap:square;stroke-linejoin:miter;stroke-width:0.8;"/>
   </g>
   <g id="patch_6">
    <path d="M 30.882812 21.789375 
L 588.882812 21.789375 
" style="fill:none;stroke:#cccccc;stroke-linecap:square;stroke-linejoin:miter;stroke-width:0.8;"/>
   </g>
   <g id="text_17">
    <!-- Internações -->
    <g style="fill:#262626;" transform="translate(278.531875 15.789375)scale(0.12 -0.12)">
     <defs>
      <path d="M 597 0 
L 597 4581 
L 1203 4581 
L 1203 0 
L 597 0 
z
" id="ArialMT-49" transform="scale(0.015625)"/>
      <path d="M 422 0 
L 422 3319 
L 928 3319 
L 928 2847 
Q 1294 3394 1984 3394 
Q 2284 3394 2536 3286 
Q 2788 3178 2913 3003 
Q 3038 2828 3088 2588 
Q 3119 2431 3119 2041 
L 3119 0 
L 2556 0 
L 2556 2019 
Q 2556 2363 2490 2533 
Q 2425 2703 2258 2804 
Q 2091 2906 1866 2906 
Q 1506 2906 1245 2678 
Q 984 2450 984 1813 
L 984 0 
L 422 0 
z
" id="ArialMT-6e" transform="scale(0.015625)"/>
      <path d="M 1650 503 
L 1731 6 
Q 1494 -44 1306 -44 
Q 1000 -44 831 53 
Q 663 150 594 308 
Q 525 466 525 972 
L 525 2881 
L 113 2881 
L 113 3319 
L 525 3319 
L 525 4141 
L 1084 4478 
L 1084 3319 
L 1650 3319 
L 1650 2881 
L 1084 2881 
L 1084 941 
Q 1084 700 1114 631 
Q 1144 563 1211 522 
Q 1278 481 1403 481 
Q 1497 481 1650 503 
z
" id="ArialMT-74" transform="scale(0.015625)"/>
      <path d="M 2694 1069 
L 3275 997 
Q 3138 488 2766 206 
Q 2394 -75 1816 -75 
Q 1088 -75 661 373 
Q 234 822 234 1631 
Q 234 2469 665 2931 
Q 1097 3394 1784 3394 
Q 2450 3394 2872 2941 
Q 3294 2488 3294 1666 
Q 3294 1616 3291 1516 
L 816 1516 
Q 847 969 1125 678 
Q 1403 388 1819 388 
Q 2128 388 2347 550 
Q 2566 713 2694 1069 
z
M 847 1978 
L 2700 1978 
Q 2663 2397 2488 2606 
Q 2219 2931 1791 2931 
Q 1403 2931 1139 2672 
Q 875 2413 847 1978 
z
" id="ArialMT-65" transform="scale(0.015625)"/>
      <path d="M 416 0 
L 416 3319 
L 922 3319 
L 922 2816 
Q 1116 3169 1280 3281 
Q 1444 3394 1641 3394 
Q 1925 3394 2219 3213 
L 2025 2691 
Q 1819 2813 1613 2813 
Q 1428 2813 1281 2702 
Q 1134 2591 1072 2394 
Q 978 2094 978 1738 
L 978 0 
L 416 0 
z
" id="ArialMT-72" transform="scale(0.015625)"/>
      <path d="M 2588 409 
Q 2275 144 1986 34 
Q 1697 -75 1366 -75 
Q 819 -75 525 192 
Q 231 459 231 875 
Q 231 1119 342 1320 
Q 453 1522 633 1644 
Q 813 1766 1038 1828 
Q 1203 1872 1538 1913 
Q 2219 1994 2541 2106 
Q 2544 2222 2544 2253 
Q 2544 2597 2384 2738 
Q 2169 2928 1744 2928 
Q 1347 2928 1158 2789 
Q 969 2650 878 2297 
L 328 2372 
Q 403 2725 575 2942 
Q 747 3159 1072 3276 
Q 1397 3394 1825 3394 
Q 2250 3394 2515 3294 
Q 2781 3194 2906 3042 
Q 3031 2891 3081 2659 
Q 3109 2516 3109 2141 
L 3109 1391 
Q 3109 606 3145 398 
Q 3181 191 3288 0 
L 2700 0 
Q 2613 175 2588 409 
z
M 2541 1666 
Q 2234 1541 1622 1453 
Q 1275 1403 1131 1340 
Q 988 1278 909 1158 
Q 831 1038 831 891 
Q 831 666 1001 516 
Q 1172 366 1500 366 
Q 1825 366 2078 508 
Q 2331 650 2450 897 
Q 2541 1088 2541 1459 
L 2541 1666 
z
" id="ArialMT-61" transform="scale(0.015625)"/>
      <path d="M 2588 1216 
L 3141 1144 
Q 3050 572 2676 248 
Q 2303 -75 1759 -75 
Q 1078 -75 664 370 
Q 250 816 250 1647 
Q 250 2184 428 2587 
Q 606 2991 970 3192 
Q 1334 3394 1763 3394 
Q 2303 3394 2647 3120 
Q 2991 2847 3088 2344 
L 2541 2259 
Q 2463 2594 2264 2762 
Q 2066 2931 1784 2931 
Q 1359 2931 1093 2626 
Q 828 2322 828 1663 
Q 828 994 1084 691 
Q 1341 388 1753 388 
Q 2084 388 2306 591 
Q 2528 794 2588 1216 
z
M 1283 -417 
L 1446 136 
L 1864 136 
L 1761 -199 
Q 2027 -230 2161 -362 
Q 2296 -495 2296 -658 
Q 2296 -892 2071 -1072 
Q 1846 -1252 1392 -1252 
Q 1136 -1252 942 -1214 
L 977 -849 
Q 1177 -861 1271 -861 
Q 1564 -861 1683 -780 
Q 1774 -717 1774 -627 
Q 1774 -570 1738 -526 
Q 1702 -483 1605 -451 
Q 1508 -420 1283 -417 
z
" id="ArialMT-e7" transform="scale(0.015625)"/>
      <path d="M 213 1659 
Q 213 2581 725 3025 
Q 1153 3394 1769 3394 
Q 2453 3394 2887 2945 
Q 3322 2497 3322 1706 
Q 3322 1066 3130 698 
Q 2938 331 2570 128 
Q 2203 -75 1769 -75 
Q 1072 -75 642 372 
Q 213 819 213 1659 
z
M 791 1659 
Q 791 1022 1069 705 
Q 1347 388 1769 388 
Q 2188 388 2466 706 
Q 2744 1025 2744 1678 
Q 2744 2294 2464 2611 
Q 2184 2928 1769 2928 
Q 1347 2928 1069 2612 
Q 791 2297 791 1659 
z
M 726 3809 
Q 723 4134 904 4328 
Q 1082 4522 1360 4522 
Q 1554 4522 1888 4353 
Q 2073 4259 2182 4259 
Q 2282 4259 2335 4314 
Q 2388 4369 2410 4531 
L 2817 4531 
Q 2807 4175 2637 3997 
Q 2467 3819 2204 3819 
Q 2007 3819 1685 3994 
Q 1476 4106 1379 4106 
Q 1273 4106 1207 4031 
Q 1138 3956 1142 3809 
L 726 3809 
z
" id="ArialMT-f5" transform="scale(0.015625)"/>
      <path d="M 197 991 
L 753 1078 
Q 800 744 1014 566 
Q 1228 388 1613 388 
Q 2000 388 2187 545 
Q 2375 703 2375 916 
Q 2375 1106 2209 1216 
Q 2094 1291 1634 1406 
Q 1016 1563 777 1677 
Q 538 1791 414 1992 
Q 291 2194 291 2438 
Q 291 2659 392 2848 
Q 494 3038 669 3163 
Q 800 3259 1026 3326 
Q 1253 3394 1513 3394 
Q 1903 3394 2198 3281 
Q 2494 3169 2634 2976 
Q 2775 2784 2828 2463 
L 2278 2388 
Q 2241 2644 2061 2787 
Q 1881 2931 1553 2931 
Q 1166 2931 1000 2803 
Q 834 2675 834 2503 
Q 834 2394 903 2306 
Q 972 2216 1119 2156 
Q 1203 2125 1616 2013 
Q 2213 1853 2448 1751 
Q 2684 1650 2818 1456 
Q 2953 1263 2953 975 
Q 2953 694 2789 445 
Q 2625 197 2315 61 
Q 2006 -75 1616 -75 
Q 969 -75 630 194 
Q 291 463 197 991 
z
" id="ArialMT-73" transform="scale(0.015625)"/>
     </defs>
     <use xlink:href="#ArialMT-49"/>
     <use x="27.783203" xlink:href="#ArialMT-6e"/>
     <use x="83.398438" xlink:href="#ArialMT-74"/>
     <use x="111.181641" xlink:href="#ArialMT-65"/>
     <use x="166.796875" xlink:href="#ArialMT-72"/>
     <use x="200.097656" xlink:href="#ArialMT-6e"/>
     <use x="255.712891" xlink:href="#ArialMT-61"/>
     <use x="311.328125" xlink:href="#ArialMT-e7"/>
     <use x="361.328125" xlink:href="#ArialMT-f5"/>
     <use x="416.943359" xlink:href="#ArialMT-65"/>
     <use x="472.558594" xlink:href="#ArialMT-73"/>
    </g>
   </g>
   <g id="legend_1">
    <g id="patch_7">
     <path d="M 37.882812 58.08 
L 122.134375 58.08 
Q 124.134375 58.08 124.134375 56.08 
L 124.134375 28.789375 
Q 124.134375 26.789375 122.134375 26.789375 
L 37.882812 26.789375 
Q 35.882812 26.789375 35.882812 28.789375 
L 35.882812 56.08 
Q 35.882812 58.08 37.882812 58.08 
z
" style="fill:#ffffff;opacity:0.8;stroke:#cccccc;stroke-linejoin:miter;"/>
    </g>
    <g id="line2d_19">
     <path d="M 39.882812 34.447187 
L 59.882812 34.447187 
" style="fill:none;stroke:#1f77b4;stroke-linecap:round;stroke-width:1.5;"/>
    </g>
    <g id="line2d_20"/>
    <g id="text_18">
     <!-- Internações -->
     <g style="fill:#262626;" transform="translate(67.882812 37.947187)scale(0.1 -0.1)">
      <use xlink:href="#ArialMT-49"/>
      <use x="27.783203" xlink:href="#ArialMT-6e"/>
      <use x="83.398438" xlink:href="#ArialMT-74"/>
      <use x="111.181641" xlink:href="#ArialMT-65"/>
      <use x="166.796875" xlink:href="#ArialMT-72"/>
      <use x="200.097656" xlink:href="#ArialMT-6e"/>
      <use x="255.712891" xlink:href="#ArialMT-61"/>
      <use x="311.328125" xlink:href="#ArialMT-e7"/>
      <use x="361.328125" xlink:href="#ArialMT-f5"/>
      <use x="416.943359" xlink:href="#ArialMT-65"/>
      <use x="472.558594" xlink:href="#ArialMT-73"/>
     </g>
    </g>
    <g id="line2d_21">
     <path d="M 39.882812 48.5925 
L 59.882812 48.5925 
" style="fill:none;stroke:#ff7f0e;stroke-linecap:round;stroke-width:1.5;"/>
    </g>
    <g id="line2d_22"/>
    <g id="text_19">
     <!-- UTI -->
     <g style="fill:#262626;" transform="translate(67.882812 52.0925)scale(0.1 -0.1)">
      <defs>
       <path d="M 3500 4581 
L 4106 4581 
L 4106 1934 
Q 4106 1244 3950 837 
Q 3794 431 3386 176 
Q 2978 -78 2316 -78 
Q 1672 -78 1262 144 
Q 853 366 678 786 
Q 503 1206 503 1934 
L 503 4581 
L 1109 4581 
L 1109 1938 
Q 1109 1341 1220 1058 
Q 1331 775 1601 622 
Q 1872 469 2263 469 
Q 2931 469 3215 772 
Q 3500 1075 3500 1938 
L 3500 4581 
z
" id="ArialMT-55" transform="scale(0.015625)"/>
       <path d="M 1659 0 
L 1659 4041 
L 150 4041 
L 150 4581 
L 3781 4581 
L 3781 4041 
L 2266 4041 
L 2266 0 
L 1659 0 
z
" id="ArialMT-54" transform="scale(0.015625)"/>
      </defs>
      <use xlink:href="#ArialMT-55"/>
      <use x="72.216797" xlink:href="#ArialMT-54"/>
      <use x="133.300781" xlink:href="#ArialMT-49"/>
     </g>
    </g>
   </g>
  </g>
 </g>
 <defs>
  <clipPath id="p51723326f7">
   <rect height="277.2" width="558" x="30.882812" y="21.789375"/>
  </clipPath>
 </defs>
</svg>
