<?xml version="1.0" encoding="utf-8" standalone="no"?>
<!DOCTYPE svg PUBLIC "-//W3C//DTD SVG 1.1//EN"
  "http://www.w3.org/Graphics/SVG/1.1/DTD/svg11.dtd">
<svg height="322.334688pt" version="1.1" viewBox="0 0 596.082813 322.334688" width="596.082813pt" xmlns="http://www.w3.org/2000/svg" xmlns:xlink="http://www.w3.org/1999/xlink">
 <metadata>
  <rdf:RDF xmlns:cc="http://creativecommons.org/ns#" xmlns:dc="http://purl.org/dc/elements/1.1/" xmlns:rdf="http://www.w3.org/1999/02/22-rdf-syntax-ns#">
   <cc:Work>
    <dc:type rdf:resource="http://purl.org/dc/dcmitype/StillImage"/>
    <dc:date>2021-05-24T18:10:15.669732</dc:date>
    <dc:format>image/svg+xml</dc:format>
    <dc:creator>
     <cc:Agent>
      <dc:title>Matplotlib v3.4.2, https://matplotlib.org/</dc:title>
     </cc:Agent>
    </dc:creator>
   </cc:Work>
  </rdf:RDF>
 </metadata>
 <defs>
  <style type="text/css">*{stroke-linecap:butt;stroke-linejoin:round;}</style>
 </defs>
 <g id="figure_1">
  <g id="patch_1">
   <path d="M 0 322.334688 
L 596.082813 322.334688 
L 596.082813 0 
L 0 0 
z
" style="fill:#ffffff;"/>
  </g>
  <g id="axes_1">
   <g id="patch_2">
    <path d="M 30.882812 298.989375 
L 588.882812 298.989375 
L 588.882812 21.789375 
L 30.882812 21.789375 
z
" style="fill:#ffffff;"/>
   </g>
   <g id="matplotlib.axis_1">
    <g id="xtick_1">
     <g id="line2d_1">
      <path clip-path="url(#p4249ba957d)" d="M 35.061045 298.989375 
L 35.061045 21.789375 
" style="fill:none;stroke:#cccccc;stroke-linecap:round;stroke-width:0.8;"/>
     </g>
     <g id="text_1">
      <!-- 2020-03 -->
      <g style="fill:#262626;" transform="translate(16.713389 313.147188)scale(0.1 -0.1)">
       <defs>
        <path d="M 3222 541 
L 3222 0 
L 194 0 
Q 188 203 259 391 
Q 375 700 629 1000 
Q 884 1300 1366 1694 
Q 2113 2306 2375 2664 
Q 2638 3022 2638 3341 
Q 2638 3675 2398 3904 
Q 2159 4134 1775 4134 
Q 1369 4134 1125 3890 
Q 881 3647 878 3216 
L 300 3275 
Q 359 3922 746 4261 
Q 1134 4600 1788 4600 
Q 2447 4600 2831 4234 
Q 3216 3869 3216 3328 
Q 3216 3053 3103 2787 
Q 2991 2522 2730 2228 
Q 2469 1934 1863 1422 
Q 1356 997 1212 845 
Q 1069 694 975 541 
L 3222 541 
z
" id="ArialMT-32" transform="scale(0.015625)"/>
        <path d="M 266 2259 
Q 266 3072 433 3567 
Q 600 4063 929 4331 
Q 1259 4600 1759 4600 
Q 2128 4600 2406 4451 
Q 2684 4303 2865 4023 
Q 3047 3744 3150 3342 
Q 3253 2941 3253 2259 
Q 3253 1453 3087 958 
Q 2922 463 2592 192 
Q 2263 -78 1759 -78 
Q 1097 -78 719 397 
Q 266 969 266 2259 
z
M 844 2259 
Q 844 1131 1108 757 
Q 1372 384 1759 384 
Q 2147 384 2411 759 
Q 2675 1134 2675 2259 
Q 2675 3391 2411 3762 
Q 2147 4134 1753 4134 
Q 1366 4134 1134 3806 
Q 844 3388 844 2259 
z
" id="ArialMT-30" transform="scale(0.015625)"/>
        <path d="M 203 1375 
L 203 1941 
L 1931 1941 
L 1931 1375 
L 203 1375 
z
" id="ArialMT-2d" transform="scale(0.015625)"/>
        <path d="M 269 1209 
L 831 1284 
Q 928 806 1161 595 
Q 1394 384 1728 384 
Q 2125 384 2398 659 
Q 2672 934 2672 1341 
Q 2672 1728 2419 1979 
Q 2166 2231 1775 2231 
Q 1616 2231 1378 2169 
L 1441 2663 
Q 1497 2656 1531 2656 
Q 1891 2656 2178 2843 
Q 2466 3031 2466 3422 
Q 2466 3731 2256 3934 
Q 2047 4138 1716 4138 
Q 1388 4138 1169 3931 
Q 950 3725 888 3313 
L 325 3413 
Q 428 3978 793 4289 
Q 1159 4600 1703 4600 
Q 2078 4600 2393 4439 
Q 2709 4278 2876 4000 
Q 3044 3722 3044 3409 
Q 3044 3113 2884 2869 
Q 2725 2625 2413 2481 
Q 2819 2388 3044 2092 
Q 3269 1797 3269 1353 
Q 3269 753 2831 336 
Q 2394 -81 1725 -81 
Q 1122 -81 723 278 
Q 325 638 269 1209 
z
" id="ArialMT-33" transform="scale(0.015625)"/>
       </defs>
       <use xlink:href="#ArialMT-32"/>
       <use x="55.615234" xlink:href="#ArialMT-30"/>
       <use x="111.230469" xlink:href="#ArialMT-32"/>
       <use x="166.845703" xlink:href="#ArialMT-30"/>
       <use x="222.460938" xlink:href="#ArialMT-2d"/>
       <use x="255.761719" xlink:href="#ArialMT-30"/>
       <use x="311.376953" xlink:href="#ArialMT-33"/>
      </g>
     </g>
    </g>
    <g id="xtick_2">
     <g id="line2d_2">
      <path clip-path="url(#p4249ba957d)" d="M 106.856025 298.989375 
L 106.856025 21.789375 
" style="fill:none;stroke:#cccccc;stroke-linecap:round;stroke-width:0.8;"/>
     </g>
     <g id="text_2">
      <!-- 2020-05 -->
      <g style="fill:#262626;" transform="translate(88.508369 313.147188)scale(0.1 -0.1)">
       <defs>
        <path d="M 266 1200 
L 856 1250 
Q 922 819 1161 601 
Q 1400 384 1738 384 
Q 2144 384 2425 690 
Q 2706 997 2706 1503 
Q 2706 1984 2436 2262 
Q 2166 2541 1728 2541 
Q 1456 2541 1237 2417 
Q 1019 2294 894 2097 
L 366 2166 
L 809 4519 
L 3088 4519 
L 3088 3981 
L 1259 3981 
L 1013 2750 
Q 1425 3038 1878 3038 
Q 2478 3038 2890 2622 
Q 3303 2206 3303 1553 
Q 3303 931 2941 478 
Q 2500 -78 1738 -78 
Q 1113 -78 717 272 
Q 322 622 266 1200 
z
" id="ArialMT-35" transform="scale(0.015625)"/>
       </defs>
       <use xlink:href="#ArialMT-32"/>
       <use x="55.615234" xlink:href="#ArialMT-30"/>
       <use x="111.230469" xlink:href="#ArialMT-32"/>
       <use x="166.845703" xlink:href="#ArialMT-30"/>
       <use x="222.460938" xlink:href="#ArialMT-2d"/>
       <use x="255.761719" xlink:href="#ArialMT-30"/>
       <use x="311.376953" xlink:href="#ArialMT-35"/>
      </g>
     </g>
    </g>
    <g id="xtick_3">
     <g id="line2d_3">
      <path clip-path="url(#p4249ba957d)" d="M 178.651005 298.989375 
L 178.651005 21.789375 
" style="fill:none;stroke:#cccccc;stroke-linecap:round;stroke-width:0.8;"/>
     </g>
     <g id="text_3">
      <!-- 2020-07 -->
      <g style="fill:#262626;" transform="translate(160.303349 313.147188)scale(0.1 -0.1)">
       <defs>
        <path d="M 303 3981 
L 303 4522 
L 3269 4522 
L 3269 4084 
Q 2831 3619 2401 2847 
Q 1972 2075 1738 1259 
Q 1569 684 1522 0 
L 944 0 
Q 953 541 1156 1306 
Q 1359 2072 1739 2783 
Q 2119 3494 2547 3981 
L 303 3981 
z
" id="ArialMT-37" transform="scale(0.015625)"/>
       </defs>
       <use xlink:href="#ArialMT-32"/>
       <use x="55.615234" xlink:href="#ArialMT-30"/>
       <use x="111.230469" xlink:href="#ArialMT-32"/>
       <use x="166.845703" xlink:href="#ArialMT-30"/>
       <use x="222.460938" xlink:href="#ArialMT-2d"/>
       <use x="255.761719" xlink:href="#ArialMT-30"/>
       <use x="311.376953" xlink:href="#ArialMT-37"/>
      </g>
     </g>
    </g>
    <g id="xtick_4">
     <g id="line2d_4">
      <path clip-path="url(#p4249ba957d)" d="M 251.622952 298.989375 
L 251.622952 21.789375 
" style="fill:none;stroke:#cccccc;stroke-linecap:round;stroke-width:0.8;"/>
     </g>
     <g id="text_4">
      <!-- 2020-09 -->
      <g style="fill:#262626;" transform="translate(233.275295 313.147188)scale(0.1 -0.1)">
       <defs>
        <path d="M 350 1059 
L 891 1109 
Q 959 728 1153 556 
Q 1347 384 1650 384 
Q 1909 384 2104 503 
Q 2300 622 2425 820 
Q 2550 1019 2634 1356 
Q 2719 1694 2719 2044 
Q 2719 2081 2716 2156 
Q 2547 1888 2255 1720 
Q 1963 1553 1622 1553 
Q 1053 1553 659 1965 
Q 266 2378 266 3053 
Q 266 3750 677 4175 
Q 1088 4600 1706 4600 
Q 2153 4600 2523 4359 
Q 2894 4119 3086 3673 
Q 3278 3228 3278 2384 
Q 3278 1506 3087 986 
Q 2897 466 2520 194 
Q 2144 -78 1638 -78 
Q 1100 -78 759 220 
Q 419 519 350 1059 
z
M 2653 3081 
Q 2653 3566 2395 3850 
Q 2138 4134 1775 4134 
Q 1400 4134 1122 3828 
Q 844 3522 844 3034 
Q 844 2597 1108 2323 
Q 1372 2050 1759 2050 
Q 2150 2050 2401 2323 
Q 2653 2597 2653 3081 
z
" id="ArialMT-39" transform="scale(0.015625)"/>
       </defs>
       <use xlink:href="#ArialMT-32"/>
       <use x="55.615234" xlink:href="#ArialMT-30"/>
       <use x="111.230469" xlink:href="#ArialMT-32"/>
       <use x="166.845703" xlink:href="#ArialMT-30"/>
       <use x="222.460938" xlink:href="#ArialMT-2d"/>
       <use x="255.761719" xlink:href="#ArialMT-30"/>
       <use x="311.376953" xlink:href="#ArialMT-39"/>
      </g>
     </g>
    </g>
    <g id="xtick_5">
     <g id="line2d_5">
      <path clip-path="url(#p4249ba957d)" d="M 323.417932 298.989375 
L 323.417932 21.789375 
" style="fill:none;stroke:#cccccc;stroke-linecap:round;stroke-width:0.8;"/>
     </g>
     <g id="text_5">
      <!-- 2020-11 -->
      <g style="fill:#262626;" transform="translate(305.439025 313.147188)scale(0.1 -0.1)">
       <defs>
        <path d="M 2384 0 
L 1822 0 
L 1822 3584 
Q 1619 3391 1289 3197 
Q 959 3003 697 2906 
L 697 3450 
Q 1169 3672 1522 3987 
Q 1875 4303 2022 4600 
L 2384 4600 
L 2384 0 
z
" id="ArialMT-31" transform="scale(0.015625)"/>
       </defs>
       <use xlink:href="#ArialMT-32"/>
       <use x="55.615234" xlink:href="#ArialMT-30"/>
       <use x="111.230469" xlink:href="#ArialMT-32"/>
       <use x="166.845703" xlink:href="#ArialMT-30"/>
       <use x="222.460938" xlink:href="#ArialMT-2d"/>
       <use x="255.761719" xlink:href="#ArialMT-31"/>
       <use x="304.001953" xlink:href="#ArialMT-31"/>
      </g>
     </g>
    </g>
    <g id="xtick_6">
     <g id="line2d_6">
      <path clip-path="url(#p4249ba957d)" d="M 395.212912 298.989375 
L 395.212912 21.789375 
" style="fill:none;stroke:#cccccc;stroke-linecap:round;stroke-width:0.8;"/>
     </g>
     <g id="text_6">
      <!-- 2021-01 -->
      <g style="fill:#262626;" transform="translate(376.865255 313.147188)scale(0.1 -0.1)">
       <use xlink:href="#ArialMT-32"/>
       <use x="55.615234" xlink:href="#ArialMT-30"/>
       <use x="111.230469" xlink:href="#ArialMT-32"/>
       <use x="166.845703" xlink:href="#ArialMT-31"/>
       <use x="222.460938" xlink:href="#ArialMT-2d"/>
       <use x="255.761719" xlink:href="#ArialMT-30"/>
       <use x="311.376953" xlink:href="#ArialMT-31"/>
      </g>
     </g>
    </g>
    <g id="xtick_7">
     <g id="line2d_7">
      <path clip-path="url(#p4249ba957d)" d="M 464.653958 298.989375 
L 464.653958 21.789375 
" style="fill:none;stroke:#cccccc;stroke-linecap:round;stroke-width:0.8;"/>
     </g>
     <g id="text_7">
      <!-- 2021-03 -->
      <g style="fill:#262626;" transform="translate(446.306302 313.147188)scale(0.1 -0.1)">
       <use xlink:href="#ArialMT-32"/>
       <use x="55.615234" xlink:href="#ArialMT-30"/>
       <use x="111.230469" xlink:href="#ArialMT-32"/>
       <use x="166.845703" xlink:href="#ArialMT-31"/>
       <use x="222.460938" xlink:href="#ArialMT-2d"/>
       <use x="255.761719" xlink:href="#ArialMT-30"/>
       <use x="311.376953" xlink:href="#ArialMT-33"/>
      </g>
     </g>
    </g>
    <g id="xtick_8">
     <g id="line2d_8">
      <path clip-path="url(#p4249ba957d)" d="M 536.448938 298.989375 
L 536.448938 21.789375 
" style="fill:none;stroke:#cccccc;stroke-linecap:round;stroke-width:0.8;"/>
     </g>
     <g id="text_8">
      <!-- 2021-05 -->
      <g style="fill:#262626;" transform="translate(518.101282 313.147188)scale(0.1 -0.1)">
       <use xlink:href="#ArialMT-32"/>
       <use x="55.615234" xlink:href="#ArialMT-30"/>
       <use x="111.230469" xlink:href="#ArialMT-32"/>
       <use x="166.845703" xlink:href="#ArialMT-31"/>
       <use x="222.460938" xlink:href="#ArialMT-2d"/>
       <use x="255.761719" xlink:href="#ArialMT-30"/>
       <use x="311.376953" xlink:href="#ArialMT-35"/>
      </g>
     </g>
    </g>
   </g>
   <g id="matplotlib.axis_2">
    <g id="ytick_1">
     <g id="line2d_9">
      <path clip-path="url(#p4249ba957d)" d="M 30.882812 286.389375 
L 588.882812 286.389375 
" style="fill:none;stroke:#cccccc;stroke-linecap:round;stroke-width:0.8;"/>
     </g>
     <g id="text_9">
      <!-- 0 -->
      <g style="fill:#262626;" transform="translate(18.321875 289.968281)scale(0.1 -0.1)">
       <use xlink:href="#ArialMT-30"/>
      </g>
     </g>
    </g>
    <g id="ytick_2">
     <g id="line2d_10">
      <path clip-path="url(#p4249ba957d)" d="M 30.882812 248.664824 
L 588.882812 248.664824 
" style="fill:none;stroke:#cccccc;stroke-linecap:round;stroke-width:0.8;"/>
     </g>
     <g id="text_10">
      <!-- 50 -->
      <g style="fill:#262626;" transform="translate(12.760937 252.24373)scale(0.1 -0.1)">
       <use xlink:href="#ArialMT-35"/>
       <use x="55.615234" xlink:href="#ArialMT-30"/>
      </g>
     </g>
    </g>
    <g id="ytick_3">
     <g id="line2d_11">
      <path clip-path="url(#p4249ba957d)" d="M 30.882812 210.940273 
L 588.882812 210.940273 
" style="fill:none;stroke:#cccccc;stroke-linecap:round;stroke-width:0.8;"/>
     </g>
     <g id="text_11">
      <!-- 100 -->
      <g style="fill:#262626;" transform="translate(7.2 214.519179)scale(0.1 -0.1)">
       <use xlink:href="#ArialMT-31"/>
       <use x="55.615234" xlink:href="#ArialMT-30"/>
       <use x="111.230469" xlink:href="#ArialMT-30"/>
      </g>
     </g>
    </g>
    <g id="ytick_4">
     <g id="line2d_12">
      <path clip-path="url(#p4249ba957d)" d="M 30.882812 173.215722 
L 588.882812 173.215722 
" style="fill:none;stroke:#cccccc;stroke-linecap:round;stroke-width:0.8;"/>
     </g>
     <g id="text_12">
      <!-- 150 -->
      <g style="fill:#262626;" transform="translate(7.2 176.794629)scale(0.1 -0.1)">
       <use xlink:href="#ArialMT-31"/>
       <use x="55.615234" xlink:href="#ArialMT-35"/>
       <use x="111.230469" xlink:href="#ArialMT-30"/>
      </g>
     </g>
    </g>
    <g id="ytick_5">
     <g id="line2d_13">
      <path clip-path="url(#p4249ba957d)" d="M 30.882812 135.491171 
L 588.882812 135.491171 
" style="fill:none;stroke:#cccccc;stroke-linecap:round;stroke-width:0.8;"/>
     </g>
     <g id="text_13">
      <!-- 200 -->
      <g style="fill:#262626;" transform="translate(7.2 139.070078)scale(0.1 -0.1)">
       <use xlink:href="#ArialMT-32"/>
       <use x="55.615234" xlink:href="#ArialMT-30"/>
       <use x="111.230469" xlink:href="#ArialMT-30"/>
      </g>
     </g>
    </g>
    <g id="ytick_6">
     <g id="line2d_14">
      <path clip-path="url(#p4249ba957d)" d="M 30.882812 97.766621 
L 588.882812 97.766621 
" style="fill:none;stroke:#cccccc;stroke-linecap:round;stroke-width:0.8;"/>
     </g>
     <g id="text_14">
      <!-- 250 -->
      <g style="fill:#262626;" transform="translate(7.2 101.345527)scale(0.1 -0.1)">
       <use xlink:href="#ArialMT-32"/>
       <use x="55.615234" xlink:href="#ArialMT-35"/>
       <use x="111.230469" xlink:href="#ArialMT-30"/>
      </g>
     </g>
    </g>
    <g id="ytick_7">
     <g id="line2d_15">
      <path clip-path="url(#p4249ba957d)" d="M 30.882812 60.04207 
L 588.882812 60.04207 
" style="fill:none;stroke:#cccccc;stroke-linecap:round;stroke-width:0.8;"/>
     </g>
     <g id="text_15">
      <!-- 300 -->
      <g style="fill:#262626;" transform="translate(7.2 63.620976)scale(0.1 -0.1)">
       <use xlink:href="#ArialMT-33"/>
       <use x="55.615234" xlink:href="#ArialMT-30"/>
       <use x="111.230469" xlink:href="#ArialMT-30"/>
      </g>
     </g>
    </g>
    <g id="ytick_8">
     <g id="line2d_16">
      <path clip-path="url(#p4249ba957d)" d="M 30.882812 22.317519 
L 588.882812 22.317519 
" style="fill:none;stroke:#cccccc;stroke-linecap:round;stroke-width:0.8;"/>
     </g>
     <g id="text_16">
      <!-- 350 -->
      <g style="fill:#262626;" transform="translate(7.2 25.896425)scale(0.1 -0.1)">
       <use xlink:href="#ArialMT-33"/>
       <use x="55.615234" xlink:href="#ArialMT-35"/>
       <use x="111.230469" xlink:href="#ArialMT-30"/>
      </g>
     </g>
    </g>
   </g>
   <g id="line2d_17">
    <path clip-path="url(#p4249ba957d)" d="M 56.246449 278.089974 
L 57.423416 278.089974 
L 58.600383 276.580992 
L 59.77735 276.580992 
L 60.954316 269.036082 
L 62.131283 255.455243 
L 63.30825 254.700752 
L 64.485217 251.682788 
L 65.662184 247.155842 
L 66.839151 246.401351 
L 68.016118 246.401351 
L 69.193085 245.64686 
L 70.370051 242.628896 
L 71.547018 226.030094 
L 72.723985 224.521112 
L 73.900952 224.521112 
L 75.077919 201.886381 
L 76.254886 200.377399 
L 77.431853 213.958237 
L 78.60882 210.185782 
L 79.785787 204.149854 
L 80.962753 202.640872 
L 82.13972 199.622908 
L 83.316687 199.622908 
L 84.493654 198.113926 
L 85.670621 186.796561 
L 86.847588 185.287579 
L 88.024555 189.060034 
L 89.201522 176.233686 
L 90.378489 173.215722 
L 91.555455 170.952249 
L 92.732422 167.179794 
L 93.909389 176.988177 
L 95.086356 176.988177 
L 96.263323 173.970213 
L 97.44029 167.934285 
L 98.617257 142.281591 
L 99.794224 140.772609 
L 100.97119 176.233686 
L 102.148157 178.497159 
L 103.325124 181.515124 
L 104.502091 176.233686 
L 105.679058 181.515124 
L 106.856025 173.215722 
L 108.032992 168.688776 
L 109.209959 169.443267 
L 110.386926 167.179794 
L 111.563892 161.143866 
L 112.740859 158.125902 
L 113.917826 162.652848 
L 115.094793 165.670812 
L 116.27176 161.143866 
L 117.448727 158.125902 
L 118.625694 161.898357 
L 119.802661 146.054046 
L 120.979628 152.844465 
L 122.156594 149.826501 
L 123.333561 146.054046 
L 124.510528 152.089974 
L 125.687495 140.772609 
L 126.864462 139.263626 
L 128.041429 141.5271 
L 129.218396 133.982189 
L 130.395363 137.000153 
L 131.572329 139.263626 
L 132.749296 140.772609 
L 133.926263 138.509135 
L 135.10323 137.754644 
L 136.280197 133.227698 
L 137.457164 134.73668 
L 138.634131 135.491171 
L 139.811098 123.419315 
L 140.988065 122.664824 
L 142.165031 124.173806 
L 143.341998 129.455243 
L 144.518965 129.455243 
L 145.695932 128.700752 
L 146.872899 127.19177 
L 148.049866 122.664824 
L 149.226833 122.664824 
L 150.4038 110.592968 
L 151.580767 115.874405 
L 152.757733 109.083986 
L 153.9347 114.365423 
L 155.111667 106.820513 
L 156.288634 109.838477 
L 157.465601 103.802549 
L 158.642568 112.856441 
L 159.819535 120.401351 
L 160.996502 122.664824 
L 162.173468 126.437279 
L 163.350435 130.964225 
L 164.527402 127.946261 
L 165.704369 122.664824 
L 166.881336 121.910333 
L 168.058303 118.892369 
L 169.23527 123.419315 
L 170.412237 135.491171 
L 171.589204 137.000153 
L 172.76617 131.718716 
L 173.943137 134.73668 
L 175.120104 141.5271 
L 176.297071 144.545064 
L 177.474038 150.580992 
L 178.651005 150.580992 
L 179.827972 156.61692 
L 181.004939 149.07201 
L 182.181906 152.844465 
L 183.358872 154.353447 
L 184.535839 157.371411 
L 185.712806 148.317519 
L 186.889773 164.916321 
L 188.06674 162.652848 
L 189.243707 161.898357 
L 190.420674 166.425303 
L 191.597641 171.70674 
L 192.774607 170.197758 
L 193.951574 149.826501 
L 195.128541 161.898357 
L 196.305508 153.598956 
L 197.482475 148.317519 
L 198.659442 156.61692 
L 199.836409 154.353447 
L 202.190343 158.880393 
L 203.367309 154.353447 
L 204.544276 157.371411 
L 205.721243 152.844465 
L 206.89821 154.353447 
L 209.252144 158.880393 
L 210.429111 163.407339 
L 211.606078 170.952249 
L 212.783045 173.215722 
L 213.960011 173.970213 
L 215.136978 177.742668 
L 216.313945 180.006141 
L 217.490912 177.742668 
L 218.667879 184.533088 
L 219.844846 188.305543 
L 221.021813 196.604944 
L 222.19878 194.341471 
L 223.375746 195.850453 
L 224.552713 208.6768 
L 225.72968 203.395363 
L 226.906647 207.167818 
L 228.083614 211.694764 
L 229.260581 208.6768 
L 230.437548 207.922309 
L 231.614515 204.904345 
L 232.791482 203.395363 
L 233.968448 202.640872 
L 235.145415 189.814525 
L 236.322382 198.113926 
L 238.676316 207.167818 
L 239.853283 204.904345 
L 241.03025 214.712728 
L 242.207217 215.467219 
L 243.384184 213.203746 
L 244.56115 215.467219 
L 245.738117 219.239674 
L 246.915084 213.203746 
L 248.092051 221.503147 
L 249.269018 207.167818 
L 250.445985 197.359435 
L 251.622952 195.850453 
L 252.799919 199.622908 
L 253.976885 201.13189 
L 255.153852 201.13189 
L 256.330819 203.395363 
L 257.507786 203.395363 
L 258.684753 211.694764 
L 259.86172 210.185782 
L 261.038687 200.377399 
L 262.215654 203.395363 
L 263.392621 200.377399 
L 264.569587 199.622908 
L 265.746554 200.377399 
L 266.923521 203.395363 
L 269.277455 212.449255 
L 270.454422 213.203746 
L 271.631389 210.940273 
L 272.808356 209.431291 
L 275.162289 210.940273 
L 276.339256 217.730692 
L 277.516223 217.730692 
L 278.69319 231.311531 
L 279.870157 229.048058 
L 281.047124 227.539076 
L 282.224091 223.012129 
L 283.401058 221.503147 
L 284.578024 222.257638 
L 285.754991 219.239674 
L 286.931958 223.012129 
L 288.108925 222.257638 
L 289.285892 217.730692 
L 290.462859 219.239674 
L 291.639826 219.994165 
L 292.816793 214.712728 
L 293.99376 210.940273 
L 295.170726 213.203746 
L 296.347693 210.185782 
L 297.52466 212.449255 
L 298.701627 209.431291 
L 299.878594 214.712728 
L 301.055561 215.467219 
L 302.232528 214.712728 
L 303.409495 212.449255 
L 304.586462 213.958237 
L 305.763428 216.976201 
L 306.940395 216.22171 
L 308.117362 216.22171 
L 309.294329 213.203746 
L 310.471296 207.167818 
L 311.648263 204.904345 
L 312.82523 205.658836 
L 314.002197 207.922309 
L 315.179163 204.149854 
L 316.35613 204.149854 
L 317.533097 201.886381 
L 318.710064 195.095962 
L 319.887031 196.604944 
L 321.063998 193.58698 
L 322.240965 193.58698 
L 323.417932 190.569016 
L 324.594899 186.796561 
L 325.771865 180.760632 
L 326.948832 189.060034 
L 328.125799 194.341471 
L 329.302766 189.060034 
L 330.479733 183.024106 
L 331.6567 186.04207 
L 332.833667 179.25165 
L 334.010634 174.724704 
L 335.187601 164.916321 
L 336.364567 166.425303 
L 337.541534 169.443267 
L 338.718501 173.970213 
L 339.895468 173.215722 
L 341.072435 168.688776 
L 342.249402 169.443267 
L 343.426369 153.598956 
L 344.603336 149.826501 
L 345.780302 152.089974 
L 346.957269 138.509135 
L 348.134236 139.263626 
L 349.311203 143.790573 
L 350.48817 137.754644 
L 351.665137 132.473207 
L 352.842104 132.473207 
L 354.019071 134.73668 
L 355.196038 127.946261 
L 356.373004 138.509135 
L 357.549971 142.281591 
L 358.726938 147.563028 
L 359.903905 140.018118 
L 361.080872 141.5271 
L 362.257839 149.07201 
L 363.434806 145.299555 
L 364.611773 155.862429 
L 365.78874 164.916321 
L 366.965706 155.862429 
L 368.142673 142.281591 
L 369.31964 154.353447 
L 370.496607 150.580992 
L 371.673574 149.07201 
L 372.850541 155.862429 
L 376.381441 171.70674 
L 377.558408 170.197758 
L 378.735375 169.443267 
L 379.912342 174.724704 
L 381.089309 178.497159 
L 382.266276 173.970213 
L 383.443243 170.952249 
L 384.62021 170.952249 
L 385.797177 175.479195 
L 386.974143 182.269615 
L 388.15111 184.533088 
L 389.328077 178.497159 
L 390.505044 177.742668 
L 391.682011 173.215722 
L 392.858978 175.479195 
L 394.035945 173.970213 
L 395.212912 183.778597 
L 396.389879 180.760632 
L 397.566845 187.551052 
L 398.743812 197.359435 
L 399.920779 195.850453 
L 401.097746 195.095962 
L 402.274713 196.604944 
L 403.45168 192.832489 
L 405.805614 194.341471 
L 406.98258 184.533088 
L 408.159547 187.551052 
L 409.336514 179.25165 
L 410.513481 180.006141 
L 411.690448 176.233686 
L 414.044382 185.287579 
L 415.221349 178.497159 
L 416.398316 181.515124 
L 417.575282 187.551052 
L 418.752249 195.850453 
L 419.929216 189.060034 
L 421.106183 192.832489 
L 422.28315 189.814525 
L 423.460117 199.622908 
L 424.637084 204.149854 
L 425.814051 195.095962 
L 426.991018 201.13189 
L 428.167984 196.604944 
L 429.344951 201.886381 
L 430.521918 204.149854 
L 431.698885 195.095962 
L 432.875852 194.341471 
L 434.052819 191.323507 
L 435.229786 196.604944 
L 436.406753 195.850453 
L 437.583719 196.604944 
L 438.760686 200.377399 
L 439.937653 203.395363 
L 441.11462 210.185782 
L 442.291587 210.940273 
L 443.468554 209.431291 
L 444.645521 206.413327 
L 445.822488 216.976201 
L 446.999455 216.22171 
L 448.176421 206.413327 
L 449.353388 203.395363 
L 450.530355 214.712728 
L 451.707322 214.712728 
L 452.884289 211.694764 
L 454.061256 213.958237 
L 455.238223 209.431291 
L 456.41519 202.640872 
L 457.592157 198.113926 
L 458.769123 201.13189 
L 459.94609 191.323507 
L 461.123057 192.077998 
L 462.300024 205.658836 
L 463.476991 189.060034 
L 464.653958 180.760632 
L 465.830925 186.796561 
L 467.007892 178.497159 
L 468.184858 180.006141 
L 469.361825 177.742668 
L 470.538792 186.796561 
L 471.715759 183.778597 
L 472.892726 173.970213 
L 474.069693 169.443267 
L 476.423627 161.898357 
L 478.77756 148.317519 
L 479.954527 139.263626 
L 481.131494 133.982189 
L 482.308461 118.892369 
L 483.485428 115.874405 
L 484.662395 112.10195 
L 485.839362 106.820513 
L 487.016329 95.503147 
L 488.193296 81.922309 
L 489.370262 74.377399 
L 490.547229 64.569016 
L 491.724196 57.778597 
L 492.901163 39.670812 
L 494.07813 49.479195 
L 495.255097 40.425303 
L 496.432064 44.197758 
L 497.609031 44.197758 
L 498.785997 34.389375 
L 499.962964 35.898357 
L 501.139931 41.179794 
L 502.316898 37.407339 
L 503.493865 42.688776 
L 504.670832 44.197758 
L 505.847799 41.179794 
L 507.024766 45.70674 
L 508.201733 46.461231 
L 509.378699 56.269615 
L 510.555666 55.515124 
L 511.732633 81.922309 
L 512.9096 87.958237 
L 514.086567 78.904345 
L 515.263534 87.203746 
L 516.440501 84.940273 
L 517.617468 81.922309 
L 518.794435 91.730692 
L 519.971401 78.904345 
L 521.148368 97.012129 
L 522.325335 89.467219 
L 523.502302 90.976201 
L 524.679269 99.275603 
L 525.856236 109.083986 
L 527.033203 109.838477 
L 528.21017 118.892369 
L 529.387136 125.682788 
L 530.564103 122.664824 
L 531.74107 127.19177 
L 532.918037 136.245662 
L 534.095004 133.227698 
L 535.271971 128.700752 
L 536.448938 113.610932 
L 537.625905 121.910333 
L 538.802872 124.173806 
L 539.979838 130.209734 
L 541.156805 118.892369 
L 542.333772 110.592968 
L 543.510739 123.419315 
L 544.687706 133.227698 
L 545.864673 118.137878 
L 547.04164 121.155842 
L 548.218607 115.874405 
L 549.395574 121.155842 
L 550.57254 122.664824 
L 551.749507 127.946261 
L 552.926474 121.155842 
L 554.103441 112.10195 
L 555.280408 109.838477 
L 556.457375 105.311531 
L 557.634342 107.575004 
L 558.811309 111.347459 
L 559.988275 100.030094 
L 561.165242 98.521112 
L 562.342209 97.766621 
L 563.519176 100.030094 
L 563.519176 100.030094 
" style="fill:none;stroke:#1f77b4;stroke-linecap:round;stroke-width:1.5;"/>
   </g>
   <g id="line2d_18">
    <path clip-path="url(#p4249ba957d)" d="M 56.246449 286.389375 
L 57.423416 286.389375 
L 58.600383 281.107938 
L 59.77735 281.107938 
L 60.954316 279.598956 
L 62.131283 272.054046 
L 63.30825 272.808537 
L 64.485217 269.790573 
L 69.193085 269.790573 
L 70.370051 270.545064 
L 71.547018 267.5271 
L 72.723985 269.036082 
L 73.900952 268.281591 
L 75.077919 265.263626 
L 76.254886 265.263626 
L 77.431853 261.491171 
L 78.60882 258.473207 
L 79.785787 258.473207 
L 80.962753 262.245662 
L 83.316687 262.245662 
L 84.493654 261.491171 
L 85.670621 257.718716 
L 86.847588 259.982189 
L 88.024555 264.509135 
L 89.201522 258.473207 
L 90.378489 253.19177 
L 91.555455 252.437279 
L 92.732422 245.64686 
L 93.909389 250.173806 
L 95.086356 248.664824 
L 96.263323 245.64686 
L 97.44029 238.856441 
L 98.617257 235.083986 
L 99.794224 232.820513 
L 100.97119 238.856441 
L 102.148157 238.856441 
L 104.502091 241.874405 
L 105.679058 238.856441 
L 106.856025 233.575004 
L 108.032992 231.311531 
L 109.209959 229.802549 
L 110.386926 230.55704 
L 111.563892 225.275603 
L 112.740859 225.275603 
L 113.917826 232.820513 
L 115.094793 234.329495 
L 116.27176 229.048058 
L 117.448727 229.048058 
L 119.802661 232.066022 
L 120.979628 236.592968 
L 122.156594 233.575004 
L 123.333561 231.311531 
L 124.510528 235.838477 
L 125.687495 229.048058 
L 126.864462 229.048058 
L 128.041429 227.539076 
L 129.218396 230.55704 
L 130.395363 226.030094 
L 131.572329 226.030094 
L 132.749296 222.257638 
L 133.926263 223.012129 
L 136.280197 221.503147 
L 137.457164 228.293567 
L 138.634131 230.55704 
L 139.811098 225.275603 
L 140.988065 229.048058 
L 142.165031 225.275603 
L 143.341998 220.748656 
L 144.518965 219.239674 
L 145.695932 218.485183 
L 146.872899 221.503147 
L 148.049866 219.239674 
L 149.226833 219.239674 
L 150.4038 214.712728 
L 151.580767 216.976201 
L 152.757733 215.467219 
L 153.9347 215.467219 
L 155.111667 207.922309 
L 156.288634 211.694764 
L 157.465601 216.976201 
L 158.642568 219.239674 
L 159.819535 212.449255 
L 160.996502 216.976201 
L 162.173468 223.012129 
L 163.350435 225.275603 
L 165.704369 223.766621 
L 166.881336 219.239674 
L 168.058303 221.503147 
L 169.23527 219.994165 
L 170.412237 223.012129 
L 171.589204 222.257638 
L 172.76617 223.012129 
L 173.943137 227.539076 
L 175.120104 234.329495 
L 176.297071 233.575004 
L 177.474038 230.55704 
L 178.651005 231.311531 
L 179.827972 234.329495 
L 181.004939 232.066022 
L 182.181906 230.55704 
L 183.358872 231.311531 
L 184.535839 231.311531 
L 185.712806 229.802549 
L 186.889773 236.592968 
L 188.06674 236.592968 
L 189.243707 235.838477 
L 190.420674 238.856441 
L 191.597641 240.365423 
L 192.774607 236.592968 
L 193.951574 231.311531 
L 195.128541 233.575004 
L 196.305508 227.539076 
L 197.482475 230.55704 
L 198.659442 236.592968 
L 199.836409 238.856441 
L 201.013376 237.347459 
L 202.190343 237.347459 
L 203.367309 238.856441 
L 204.544276 233.575004 
L 205.721243 235.083986 
L 206.89821 237.347459 
L 208.075177 237.347459 
L 209.252144 233.575004 
L 210.429111 233.575004 
L 211.606078 238.10195 
L 212.783045 238.10195 
L 213.960011 238.856441 
L 215.136978 241.874405 
L 216.313945 243.383387 
L 217.490912 244.137878 
L 218.667879 246.401351 
L 219.844846 250.173806 
L 221.021813 249.419315 
L 222.19878 246.401351 
L 223.375746 247.155842 
L 224.552713 252.437279 
L 225.72968 252.437279 
L 226.906647 251.682788 
L 228.083614 255.455243 
L 229.260581 254.700752 
L 230.437548 253.19177 
L 231.614515 250.173806 
L 232.791482 251.682788 
L 233.968448 251.682788 
L 235.145415 248.664824 
L 236.322382 253.946261 
L 237.499349 253.946261 
L 238.676316 258.473207 
L 239.853283 256.209734 
L 241.03025 259.227698 
L 242.207217 259.227698 
L 243.384184 259.982189 
L 244.56115 256.964225 
L 246.915084 256.964225 
L 248.092051 260.73668 
L 249.269018 254.700752 
L 250.445985 256.209734 
L 251.622952 252.437279 
L 252.799919 253.946261 
L 253.976885 253.19177 
L 255.153852 253.946261 
L 256.330819 251.682788 
L 257.507786 253.946261 
L 258.684753 255.455243 
L 259.86172 254.700752 
L 261.038687 250.173806 
L 262.215654 251.682788 
L 263.392621 247.910333 
L 264.569587 248.664824 
L 265.746554 253.19177 
L 266.923521 259.227698 
L 268.100488 255.455243 
L 269.277455 255.455243 
L 270.454422 256.209734 
L 271.631389 254.700752 
L 273.985323 256.209734 
L 275.162289 255.455243 
L 276.339256 256.964225 
L 277.516223 262.245662 
L 278.69319 261.491171 
L 279.870157 256.964225 
L 281.047124 257.718716 
L 282.224091 256.964225 
L 283.401058 254.700752 
L 284.578024 253.19177 
L 285.754991 253.19177 
L 286.931958 256.209734 
L 288.108925 257.718716 
L 289.285892 256.964225 
L 291.639826 256.964225 
L 292.816793 256.209734 
L 293.99376 254.700752 
L 295.170726 256.209734 
L 296.347693 256.964225 
L 297.52466 255.455243 
L 298.701627 254.700752 
L 299.878594 258.473207 
L 301.055561 261.491171 
L 302.232528 259.227698 
L 303.409495 261.491171 
L 304.586462 261.491171 
L 305.763428 259.982189 
L 306.940395 262.245662 
L 308.117362 258.473207 
L 309.294329 256.209734 
L 310.471296 255.455243 
L 311.648263 252.437279 
L 315.179163 252.437279 
L 317.533097 249.419315 
L 318.710064 246.401351 
L 319.887031 251.682788 
L 321.063998 251.682788 
L 322.240965 250.928297 
L 323.417932 249.419315 
L 324.594899 246.401351 
L 325.771865 247.155842 
L 328.125799 245.64686 
L 329.302766 244.137878 
L 330.479733 241.874405 
L 331.6567 244.892369 
L 332.833667 235.838477 
L 334.010634 233.575004 
L 335.187601 235.083986 
L 336.364567 234.329495 
L 337.541534 226.784585 
L 338.718501 234.329495 
L 339.895468 233.575004 
L 341.072435 235.838477 
L 342.249402 235.083986 
L 343.426369 227.539076 
L 344.603336 226.030094 
L 345.780302 226.030094 
L 346.957269 216.22171 
L 348.134236 219.994165 
L 349.311203 225.275603 
L 350.48817 221.503147 
L 351.665137 222.257638 
L 352.842104 222.257638 
L 354.019071 223.766621 
L 355.196038 223.012129 
L 356.373004 228.293567 
L 357.549971 229.048058 
L 358.726938 223.766621 
L 359.903905 220.748656 
L 361.080872 222.257638 
L 362.257839 226.784585 
L 363.434806 228.293567 
L 364.611773 226.784585 
L 365.78874 235.083986 
L 366.965706 229.048058 
L 368.142673 229.048058 
L 369.31964 225.275603 
L 370.496607 220.748656 
L 371.673574 223.766621 
L 372.850541 223.766621 
L 374.027508 229.048058 
L 375.204475 231.311531 
L 376.381441 229.048058 
L 377.558408 228.293567 
L 378.735375 231.311531 
L 379.912342 235.838477 
L 381.089309 232.820513 
L 382.266276 230.55704 
L 383.443243 232.066022 
L 384.62021 226.784585 
L 385.797177 232.066022 
L 386.974143 235.083986 
L 388.15111 235.083986 
L 389.328077 226.784585 
L 390.505044 235.083986 
L 391.682011 235.083986 
L 392.858978 238.856441 
L 394.035945 236.592968 
L 395.212912 235.083986 
L 396.389879 236.592968 
L 397.566845 237.347459 
L 398.743812 239.610932 
L 399.920779 241.119914 
L 401.097746 241.874405 
L 402.274713 243.383387 
L 403.45168 241.874405 
L 404.628647 238.856441 
L 405.805614 237.347459 
L 406.98258 232.820513 
L 408.159547 233.575004 
L 409.336514 228.293567 
L 410.513481 226.784585 
L 411.690448 223.766621 
L 412.867415 225.275603 
L 414.044382 227.539076 
L 416.398316 230.55704 
L 417.575282 231.311531 
L 418.752249 233.575004 
L 419.929216 232.066022 
L 421.106183 234.329495 
L 422.28315 229.048058 
L 423.460117 229.802549 
L 424.637084 232.066022 
L 425.814051 231.311531 
L 426.991018 236.592968 
L 430.521918 238.856441 
L 431.698885 235.838477 
L 432.875852 231.311531 
L 434.052819 235.838477 
L 435.229786 232.820513 
L 436.406753 236.592968 
L 437.583719 238.10195 
L 438.760686 242.628896 
L 439.937653 245.64686 
L 441.11462 247.155842 
L 442.291587 244.892369 
L 443.468554 245.64686 
L 444.645521 243.383387 
L 445.822488 250.928297 
L 446.999455 251.682788 
L 448.176421 240.365423 
L 449.353388 244.137878 
L 450.530355 242.628896 
L 451.707322 243.383387 
L 452.884289 239.610932 
L 454.061256 242.628896 
L 455.238223 244.137878 
L 456.41519 241.874405 
L 457.592157 243.383387 
L 458.769123 248.664824 
L 461.123057 239.610932 
L 462.300024 244.892369 
L 463.476991 240.365423 
L 464.653958 237.347459 
L 465.830925 239.610932 
L 467.007892 236.592968 
L 468.184858 236.592968 
L 469.361825 237.347459 
L 470.538792 243.383387 
L 471.715759 233.575004 
L 472.892726 236.592968 
L 474.069693 238.856441 
L 475.24666 232.066022 
L 476.423627 229.048058 
L 477.600594 223.766621 
L 478.77756 211.694764 
L 479.954527 204.904345 
L 481.131494 213.958237 
L 482.308461 201.886381 
L 483.485428 196.604944 
L 484.662395 198.113926 
L 485.839362 186.796561 
L 487.016329 190.569016 
L 488.193296 186.04207 
L 489.370262 187.551052 
L 490.547229 180.760632 
L 491.724196 177.742668 
L 492.901163 165.670812 
L 494.07813 163.407339 
L 495.255097 155.862429 
L 496.432064 151.335483 
L 497.609031 154.353447 
L 498.785997 152.089974 
L 499.962964 150.580992 
L 501.139931 147.563028 
L 503.493865 146.054046 
L 504.670832 149.07201 
L 505.847799 146.808537 
L 507.024766 146.054046 
L 509.378699 143.036082 
L 510.555666 144.545064 
L 511.732633 153.598956 
L 512.9096 153.598956 
L 515.263534 165.670812 
L 516.440501 162.652848 
L 517.617468 158.880393 
L 518.794435 168.688776 
L 519.971401 163.407339 
L 521.148368 172.461231 
L 523.502302 175.479195 
L 524.679269 180.760632 
L 525.856236 189.060034 
L 527.033203 189.814525 
L 528.21017 194.341471 
L 530.564103 192.832489 
L 531.74107 197.359435 
L 532.918037 202.640872 
L 534.095004 198.113926 
L 535.271971 202.640872 
L 536.448938 183.024106 
L 537.625905 198.868417 
L 538.802872 205.658836 
L 539.979838 208.6768 
L 541.156805 198.868417 
L 542.333772 197.359435 
L 543.510739 204.149854 
L 544.687706 200.377399 
L 545.864673 182.269615 
L 547.04164 194.341471 
L 548.218607 192.832489 
L 549.395574 193.58698 
L 550.57254 199.622908 
L 551.749507 204.904345 
L 552.926474 198.868417 
L 554.103441 198.113926 
L 555.280408 194.341471 
L 556.457375 189.814525 
L 557.634342 191.323507 
L 558.811309 195.850453 
L 559.988275 193.58698 
L 561.165242 183.778597 
L 562.342209 183.778597 
L 563.519176 186.04207 
L 563.519176 186.04207 
" style="fill:none;stroke:#ff7f0e;stroke-linecap:round;stroke-width:1.5;"/>
   </g>
   <g id="patch_3">
    <path d="M 30.882812 298.989375 
L 30.882812 21.789375 
" style="fill:none;stroke:#cccccc;stroke-linecap:square;stroke-linejoin:miter;stroke-width:0.8;"/>
   </g>
   <g id="patch_4">
    <path d="M 588.882812 298.989375 
L 588.882812 21.789375 
" style="fill:none;stroke:#cccccc;stroke-linecap:square;stroke-linejoin:miter;stroke-width:0.8;"/>
   </g>
   <g id="patch_5">
    <path d="M 30.882812 298.989375 
L 588.882812 298.989375 
" style="fill:none;stroke:#cccccc;stroke-linecap:square;stroke-linejoin:miter;stroke-width:0.8;"/>
   </g>
   <g id="patch_6">
    <path d="M 30.882812 21.789375 
L 588.882812 21.789375 
" style="fill:none;stroke:#cccccc;stroke-linecap:square;stroke-linejoin:miter;stroke-width:0.8;"/>
   </g>
   <g id="text_17">
    <!-- Internações -->
    <g style="fill:#262626;" transform="translate(278.531875 15.789375)scale(0.12 -0.12)">
     <defs>
      <path d="M 597 0 
L 597 4581 
L 1203 4581 
L 1203 0 
L 597 0 
z
" id="ArialMT-49" transform="scale(0.015625)"/>
      <path d="M 422 0 
L 422 3319 
L 928 3319 
L 928 2847 
Q 1294 3394 1984 3394 
Q 2284 3394 2536 3286 
Q 2788 3178 2913 3003 
Q 3038 2828 3088 2588 
Q 3119 2431 3119 2041 
L 3119 0 
L 2556 0 
L 2556 2019 
Q 2556 2363 2490 2533 
Q 2425 2703 2258 2804 
Q 2091 2906 1866 2906 
Q 1506 2906 1245 2678 
Q 984 2450 984 1813 
L 984 0 
L 422 0 
z
" id="ArialMT-6e" transform="scale(0.015625)"/>
      <path d="M 1650 503 
L 1731 6 
Q 1494 -44 1306 -44 
Q 1000 -44 831 53 
Q 663 150 594 308 
Q 525 466 525 972 
L 525 2881 
L 113 2881 
L 113 3319 
L 525 3319 
L 525 4141 
L 1084 4478 
L 1084 3319 
L 1650 3319 
L 1650 2881 
L 1084 2881 
L 1084 941 
Q 1084 700 1114 631 
Q 1144 563 1211 522 
Q 1278 481 1403 481 
Q 1497 481 1650 503 
z
" id="ArialMT-74" transform="scale(0.015625)"/>
      <path d="M 2694 1069 
L 3275 997 
Q 3138 488 2766 206 
Q 2394 -75 1816 -75 
Q 1088 -75 661 373 
Q 234 822 234 1631 
Q 234 2469 665 2931 
Q 1097 3394 1784 3394 
Q 2450 3394 2872 2941 
Q 3294 2488 3294 1666 
Q 3294 1616 3291 1516 
L 816 1516 
Q 847 969 1125 678 
Q 1403 388 1819 388 
Q 2128 388 2347 550 
Q 2566 713 2694 1069 
z
M 847 1978 
L 2700 1978 
Q 2663 2397 2488 2606 
Q 2219 2931 1791 2931 
Q 1403 2931 1139 2672 
Q 875 2413 847 1978 
z
" id="ArialMT-65" transform="scale(0.015625)"/>
      <path d="M 416 0 
L 416 3319 
L 922 3319 
L 922 2816 
Q 1116 3169 1280 3281 
Q 1444 3394 1641 3394 
Q 1925 3394 2219 3213 
L 2025 2691 
Q 1819 2813 1613 2813 
Q 1428 2813 1281 2702 
Q 1134 2591 1072 2394 
Q 978 2094 978 1738 
L 978 0 
L 416 0 
z
" id="ArialMT-72" transform="scale(0.015625)"/>
      <path d="M 2588 409 
Q 2275 144 1986 34 
Q 1697 -75 1366 -75 
Q 819 -75 525 192 
Q 231 459 231 875 
Q 231 1119 342 1320 
Q 453 1522 633 1644 
Q 813 1766 1038 1828 
Q 1203 1872 1538 1913 
Q 2219 1994 2541 2106 
Q 2544 2222 2544 2253 
Q 2544 2597 2384 2738 
Q 2169 2928 1744 2928 
Q 1347 2928 1158 2789 
Q 969 2650 878 2297 
L 328 2372 
Q 403 2725 575 2942 
Q 747 3159 1072 3276 
Q 1397 3394 1825 3394 
Q 2250 3394 2515 3294 
Q 2781 3194 2906 3042 
Q 3031 2891 3081 2659 
Q 3109 2516 3109 2141 
L 3109 1391 
Q 3109 606 3145 398 
Q 3181 191 3288 0 
L 2700 0 
Q 2613 175 2588 409 
z
M 2541 1666 
Q 2234 1541 1622 1453 
Q 1275 1403 1131 1340 
Q 988 1278 909 1158 
Q 831 1038 831 891 
Q 831 666 1001 516 
Q 1172 366 1500 366 
Q 1825 366 2078 508 
Q 2331 650 2450 897 
Q 2541 1088 2541 1459 
L 2541 1666 
z
" id="ArialMT-61" transform="scale(0.015625)"/>
      <path d="M 2588 1216 
L 3141 1144 
Q 3050 572 2676 248 
Q 2303 -75 1759 -75 
Q 1078 -75 664 370 
Q 250 816 250 1647 
Q 250 2184 428 2587 
Q 606 2991 970 3192 
Q 1334 3394 1763 3394 
Q 2303 3394 2647 3120 
Q 2991 2847 3088 2344 
L 2541 2259 
Q 2463 2594 2264 2762 
Q 2066 2931 1784 2931 
Q 1359 2931 1093 2626 
Q 828 2322 828 1663 
Q 828 994 1084 691 
Q 1341 388 1753 388 
Q 2084 388 2306 591 
Q 2528 794 2588 1216 
z
M 1283 -417 
L 1446 136 
L 1864 136 
L 1761 -199 
Q 2027 -230 2161 -362 
Q 2296 -495 2296 -658 
Q 2296 -892 2071 -1072 
Q 1846 -1252 1392 -1252 
Q 1136 -1252 942 -1214 
L 977 -849 
Q 1177 -861 1271 -861 
Q 1564 -861 1683 -780 
Q 1774 -717 1774 -627 
Q 1774 -570 1738 -526 
Q 1702 -483 1605 -451 
Q 1508 -420 1283 -417 
z
" id="ArialMT-e7" transform="scale(0.015625)"/>
      <path d="M 213 1659 
Q 213 2581 725 3025 
Q 1153 3394 1769 3394 
Q 2453 3394 2887 2945 
Q 3322 2497 3322 1706 
Q 3322 1066 3130 698 
Q 2938 331 2570 128 
Q 2203 -75 1769 -75 
Q 1072 -75 642 372 
Q 213 819 213 1659 
z
M 791 1659 
Q 791 1022 1069 705 
Q 1347 388 1769 388 
Q 2188 388 2466 706 
Q 2744 1025 2744 1678 
Q 2744 2294 2464 2611 
Q 2184 2928 1769 2928 
Q 1347 2928 1069 2612 
Q 791 2297 791 1659 
z
M 726 3809 
Q 723 4134 904 4328 
Q 1082 4522 1360 4522 
Q 1554 4522 1888 4353 
Q 2073 4259 2182 4259 
Q 2282 4259 2335 4314 
Q 2388 4369 2410 4531 
L 2817 4531 
Q 2807 4175 2637 3997 
Q 2467 3819 2204 3819 
Q 2007 3819 1685 3994 
Q 1476 4106 1379 4106 
Q 1273 4106 1207 4031 
Q 1138 3956 1142 3809 
L 726 3809 
z
" id="ArialMT-f5" transform="scale(0.015625)"/>
      <path d="M 197 991 
L 753 1078 
Q 800 744 1014 566 
Q 1228 388 1613 388 
Q 2000 388 2187 545 
Q 2375 703 2375 916 
Q 2375 1106 2209 1216 
Q 2094 1291 1634 1406 
Q 1016 1563 777 1677 
Q 538 1791 414 1992 
Q 291 2194 291 2438 
Q 291 2659 392 2848 
Q 494 3038 669 3163 
Q 800 3259 1026 3326 
Q 1253 3394 1513 3394 
Q 1903 3394 2198 3281 
Q 2494 3169 2634 2976 
Q 2775 2784 2828 2463 
L 2278 2388 
Q 2241 2644 2061 2787 
Q 1881 2931 1553 2931 
Q 1166 2931 1000 2803 
Q 834 2675 834 2503 
Q 834 2394 903 2306 
Q 972 2216 1119 2156 
Q 1203 2125 1616 2013 
Q 2213 1853 2448 1751 
Q 2684 1650 2818 1456 
Q 2953 1263 2953 975 
Q 2953 694 2789 445 
Q 2625 197 2315 61 
Q 2006 -75 1616 -75 
Q 969 -75 630 194 
Q 291 463 197 991 
z
" id="ArialMT-73" transform="scale(0.015625)"/>
     </defs>
     <use xlink:href="#ArialMT-49"/>
     <use x="27.783203" xlink:href="#ArialMT-6e"/>
     <use x="83.398438" xlink:href="#ArialMT-74"/>
     <use x="111.181641" xlink:href="#ArialMT-65"/>
     <use x="166.796875" xlink:href="#ArialMT-72"/>
     <use x="200.097656" xlink:href="#ArialMT-6e"/>
     <use x="255.712891" xlink:href="#ArialMT-61"/>
     <use x="311.328125" xlink:href="#ArialMT-e7"/>
     <use x="361.328125" xlink:href="#ArialMT-f5"/>
     <use x="416.943359" xlink:href="#ArialMT-65"/>
     <use x="472.558594" xlink:href="#ArialMT-73"/>
    </g>
   </g>
   <g id="legend_1">
    <g id="patch_7">
     <path d="M 37.882812 58.08 
L 122.134375 58.08 
Q 124.134375 58.08 124.134375 56.08 
L 124.134375 28.789375 
Q 124.134375 26.789375 122.134375 26.789375 
L 37.882812 26.789375 
Q 35.882812 26.789375 35.882812 28.789375 
L 35.882812 56.08 
Q 35.882812 58.08 37.882812 58.08 
z
" style="fill:#ffffff;opacity:0.8;stroke:#cccccc;stroke-linejoin:miter;"/>
    </g>
    <g id="line2d_19">
     <path d="M 39.882812 34.447187 
L 59.882812 34.447187 
" style="fill:none;stroke:#1f77b4;stroke-linecap:round;stroke-width:1.5;"/>
    </g>
    <g id="line2d_20"/>
    <g id="text_18">
     <!-- Internações -->
     <g style="fill:#262626;" transform="translate(67.882812 37.947187)scale(0.1 -0.1)">
      <use xlink:href="#ArialMT-49"/>
      <use x="27.783203" xlink:href="#ArialMT-6e"/>
      <use x="83.398438" xlink:href="#ArialMT-74"/>
      <use x="111.181641" xlink:href="#ArialMT-65"/>
      <use x="166.796875" xlink:href="#ArialMT-72"/>
      <use x="200.097656" xlink:href="#ArialMT-6e"/>
      <use x="255.712891" xlink:href="#ArialMT-61"/>
      <use x="311.328125" xlink:href="#ArialMT-e7"/>
      <use x="361.328125" xlink:href="#ArialMT-f5"/>
      <use x="416.943359" xlink:href="#ArialMT-65"/>
      <use x="472.558594" xlink:href="#ArialMT-73"/>
     </g>
    </g>
    <g id="line2d_21">
     <path d="M 39.882812 48.5925 
L 59.882812 48.5925 
" style="fill:none;stroke:#ff7f0e;stroke-linecap:round;stroke-width:1.5;"/>
    </g>
    <g id="line2d_22"/>
    <g id="text_19">
     <!-- UTI -->
     <g style="fill:#262626;" transform="translate(67.882812 52.0925)scale(0.1 -0.1)">
      <defs>
       <path d="M 3500 4581 
L 4106 4581 
L 4106 1934 
Q 4106 1244 3950 837 
Q 3794 431 3386 176 
Q 2978 -78 2316 -78 
Q 1672 -78 1262 144 
Q 853 366 678 786 
Q 503 1206 503 1934 
L 503 4581 
L 1109 4581 
L 1109 1938 
Q 1109 1341 1220 1058 
Q 1331 775 1601 622 
Q 1872 469 2263 469 
Q 2931 469 3215 772 
Q 3500 1075 3500 1938 
L 3500 4581 
z
" id="ArialMT-55" transform="scale(0.015625)"/>
       <path d="M 1659 0 
L 1659 4041 
L 150 4041 
L 150 4581 
L 3781 4581 
L 3781 4041 
L 2266 4041 
L 2266 0 
L 1659 0 
z
" id="ArialMT-54" transform="scale(0.015625)"/>
      </defs>
      <use xlink:href="#ArialMT-55"/>
      <use x="72.216797" xlink:href="#ArialMT-54"/>
      <use x="133.300781" xlink:href="#ArialMT-49"/>
     </g>
    </g>
   </g>
  </g>
 </g>
 <defs>
  <clipPath id="p4249ba957d">
   <rect height="277.2" width="558" x="30.882812" y="21.789375"/>
  </clipPath>
 </defs>
</svg>
