<?xml version="1.0" encoding="utf-8" standalone="no"?>
<!DOCTYPE svg PUBLIC "-//W3C//DTD SVG 1.1//EN"
  "http://www.w3.org/Graphics/SVG/1.1/DTD/svg11.dtd">
<svg height="316.934687pt" version="1.1" viewBox="0 0 596.082813 316.934687" width="596.082813pt" xmlns="http://www.w3.org/2000/svg" xmlns:xlink="http://www.w3.org/1999/xlink">
 <metadata>
  <rdf:RDF xmlns:cc="http://creativecommons.org/ns#" xmlns:dc="http://purl.org/dc/elements/1.1/" xmlns:rdf="http://www.w3.org/1999/02/22-rdf-syntax-ns#">
   <cc:Work>
    <dc:type rdf:resource="http://purl.org/dc/dcmitype/StillImage"/>
    <dc:date>2021-04-06T19:20:46.601817</dc:date>
    <dc:format>image/svg+xml</dc:format>
    <dc:creator>
     <cc:Agent>
      <dc:title>Matplotlib v3.4.1, https://matplotlib.org/</dc:title>
     </cc:Agent>
    </dc:creator>
   </cc:Work>
  </rdf:RDF>
 </metadata>
 <defs>
  <style type="text/css">*{stroke-linecap:butt;stroke-linejoin:round;}</style>
 </defs>
 <g id="figure_1">
  <g id="patch_1">
   <path d="M 0 316.934687 
L 596.082813 316.934687 
L 596.082813 0 
L 0 0 
z
" style="fill:#ffffff;"/>
  </g>
  <g id="axes_1">
   <g id="patch_2">
    <path d="M 30.882812 293.589375 
L 588.882812 293.589375 
L 588.882812 21.789375 
L 30.882812 21.789375 
z
" style="fill:#ffffff;"/>
   </g>
   <g id="matplotlib.axis_1">
    <g id="xtick_1">
     <g id="line2d_1">
      <path clip-path="url(#p6decbc4dd5)" d="M 32.405955 293.589375 
L 32.405955 21.789375 
" style="fill:none;stroke:#cccccc;stroke-linecap:round;stroke-width:0.8;"/>
     </g>
     <g id="text_1">
      <!-- 2020-03 -->
      <g style="fill:#262626;" transform="translate(14.058299 307.747187)scale(0.1 -0.1)">
       <defs>
        <path d="M 3222 541 
L 3222 0 
L 194 0 
Q 188 203 259 391 
Q 375 700 629 1000 
Q 884 1300 1366 1694 
Q 2113 2306 2375 2664 
Q 2638 3022 2638 3341 
Q 2638 3675 2398 3904 
Q 2159 4134 1775 4134 
Q 1369 4134 1125 3890 
Q 881 3647 878 3216 
L 300 3275 
Q 359 3922 746 4261 
Q 1134 4600 1788 4600 
Q 2447 4600 2831 4234 
Q 3216 3869 3216 3328 
Q 3216 3053 3103 2787 
Q 2991 2522 2730 2228 
Q 2469 1934 1863 1422 
Q 1356 997 1212 845 
Q 1069 694 975 541 
L 3222 541 
z
" id="ArialMT-32" transform="scale(0.015625)"/>
        <path d="M 266 2259 
Q 266 3072 433 3567 
Q 600 4063 929 4331 
Q 1259 4600 1759 4600 
Q 2128 4600 2406 4451 
Q 2684 4303 2865 4023 
Q 3047 3744 3150 3342 
Q 3253 2941 3253 2259 
Q 3253 1453 3087 958 
Q 2922 463 2592 192 
Q 2263 -78 1759 -78 
Q 1097 -78 719 397 
Q 266 969 266 2259 
z
M 844 2259 
Q 844 1131 1108 757 
Q 1372 384 1759 384 
Q 2147 384 2411 759 
Q 2675 1134 2675 2259 
Q 2675 3391 2411 3762 
Q 2147 4134 1753 4134 
Q 1366 4134 1134 3806 
Q 844 3388 844 2259 
z
" id="ArialMT-30" transform="scale(0.015625)"/>
        <path d="M 203 1375 
L 203 1941 
L 1931 1941 
L 1931 1375 
L 203 1375 
z
" id="ArialMT-2d" transform="scale(0.015625)"/>
        <path d="M 269 1209 
L 831 1284 
Q 928 806 1161 595 
Q 1394 384 1728 384 
Q 2125 384 2398 659 
Q 2672 934 2672 1341 
Q 2672 1728 2419 1979 
Q 2166 2231 1775 2231 
Q 1616 2231 1378 2169 
L 1441 2663 
Q 1497 2656 1531 2656 
Q 1891 2656 2178 2843 
Q 2466 3031 2466 3422 
Q 2466 3731 2256 3934 
Q 2047 4138 1716 4138 
Q 1388 4138 1169 3931 
Q 950 3725 888 3313 
L 325 3413 
Q 428 3978 793 4289 
Q 1159 4600 1703 4600 
Q 2078 4600 2393 4439 
Q 2709 4278 2876 4000 
Q 3044 3722 3044 3409 
Q 3044 3113 2884 2869 
Q 2725 2625 2413 2481 
Q 2819 2388 3044 2092 
Q 3269 1797 3269 1353 
Q 3269 753 2831 336 
Q 2394 -81 1725 -81 
Q 1122 -81 723 278 
Q 325 638 269 1209 
z
" id="ArialMT-33" transform="scale(0.015625)"/>
       </defs>
       <use xlink:href="#ArialMT-32"/>
       <use x="55.615234" xlink:href="#ArialMT-30"/>
       <use x="111.230469" xlink:href="#ArialMT-32"/>
       <use x="166.845703" xlink:href="#ArialMT-30"/>
       <use x="222.460938" xlink:href="#ArialMT-2d"/>
       <use x="255.761719" xlink:href="#ArialMT-30"/>
       <use x="311.376953" xlink:href="#ArialMT-33"/>
      </g>
     </g>
    </g>
    <g id="xtick_2">
     <g id="line2d_2">
      <path clip-path="url(#p6decbc4dd5)" d="M 113.198739 293.589375 
L 113.198739 21.789375 
" style="fill:none;stroke:#cccccc;stroke-linecap:round;stroke-width:0.8;"/>
     </g>
     <g id="text_2">
      <!-- 2020-05 -->
      <g style="fill:#262626;" transform="translate(94.851083 307.747187)scale(0.1 -0.1)">
       <defs>
        <path d="M 266 1200 
L 856 1250 
Q 922 819 1161 601 
Q 1400 384 1738 384 
Q 2144 384 2425 690 
Q 2706 997 2706 1503 
Q 2706 1984 2436 2262 
Q 2166 2541 1728 2541 
Q 1456 2541 1237 2417 
Q 1019 2294 894 2097 
L 366 2166 
L 809 4519 
L 3088 4519 
L 3088 3981 
L 1259 3981 
L 1013 2750 
Q 1425 3038 1878 3038 
Q 2478 3038 2890 2622 
Q 3303 2206 3303 1553 
Q 3303 931 2941 478 
Q 2500 -78 1738 -78 
Q 1113 -78 717 272 
Q 322 622 266 1200 
z
" id="ArialMT-35" transform="scale(0.015625)"/>
       </defs>
       <use xlink:href="#ArialMT-32"/>
       <use x="55.615234" xlink:href="#ArialMT-30"/>
       <use x="111.230469" xlink:href="#ArialMT-32"/>
       <use x="166.845703" xlink:href="#ArialMT-30"/>
       <use x="222.460938" xlink:href="#ArialMT-2d"/>
       <use x="255.761719" xlink:href="#ArialMT-30"/>
       <use x="311.376953" xlink:href="#ArialMT-35"/>
      </g>
     </g>
    </g>
    <g id="xtick_3">
     <g id="line2d_3">
      <path clip-path="url(#p6decbc4dd5)" d="M 193.991524 293.589375 
L 193.991524 21.789375 
" style="fill:none;stroke:#cccccc;stroke-linecap:round;stroke-width:0.8;"/>
     </g>
     <g id="text_3">
      <!-- 2020-07 -->
      <g style="fill:#262626;" transform="translate(175.643867 307.747187)scale(0.1 -0.1)">
       <defs>
        <path d="M 303 3981 
L 303 4522 
L 3269 4522 
L 3269 4084 
Q 2831 3619 2401 2847 
Q 1972 2075 1738 1259 
Q 1569 684 1522 0 
L 944 0 
Q 953 541 1156 1306 
Q 1359 2072 1739 2783 
Q 2119 3494 2547 3981 
L 303 3981 
z
" id="ArialMT-37" transform="scale(0.015625)"/>
       </defs>
       <use xlink:href="#ArialMT-32"/>
       <use x="55.615234" xlink:href="#ArialMT-30"/>
       <use x="111.230469" xlink:href="#ArialMT-32"/>
       <use x="166.845703" xlink:href="#ArialMT-30"/>
       <use x="222.460938" xlink:href="#ArialMT-2d"/>
       <use x="255.761719" xlink:href="#ArialMT-30"/>
       <use x="311.376953" xlink:href="#ArialMT-37"/>
      </g>
     </g>
    </g>
    <g id="xtick_4">
     <g id="line2d_4">
      <path clip-path="url(#p6decbc4dd5)" d="M 276.10878 293.589375 
L 276.10878 21.789375 
" style="fill:none;stroke:#cccccc;stroke-linecap:round;stroke-width:0.8;"/>
     </g>
     <g id="text_4">
      <!-- 2020-09 -->
      <g style="fill:#262626;" transform="translate(257.761123 307.747187)scale(0.1 -0.1)">
       <defs>
        <path d="M 350 1059 
L 891 1109 
Q 959 728 1153 556 
Q 1347 384 1650 384 
Q 1909 384 2104 503 
Q 2300 622 2425 820 
Q 2550 1019 2634 1356 
Q 2719 1694 2719 2044 
Q 2719 2081 2716 2156 
Q 2547 1888 2255 1720 
Q 1963 1553 1622 1553 
Q 1053 1553 659 1965 
Q 266 2378 266 3053 
Q 266 3750 677 4175 
Q 1088 4600 1706 4600 
Q 2153 4600 2523 4359 
Q 2894 4119 3086 3673 
Q 3278 3228 3278 2384 
Q 3278 1506 3087 986 
Q 2897 466 2520 194 
Q 2144 -78 1638 -78 
Q 1100 -78 759 220 
Q 419 519 350 1059 
z
M 2653 3081 
Q 2653 3566 2395 3850 
Q 2138 4134 1775 4134 
Q 1400 4134 1122 3828 
Q 844 3522 844 3034 
Q 844 2597 1108 2323 
Q 1372 2050 1759 2050 
Q 2150 2050 2401 2323 
Q 2653 2597 2653 3081 
z
" id="ArialMT-39" transform="scale(0.015625)"/>
       </defs>
       <use xlink:href="#ArialMT-32"/>
       <use x="55.615234" xlink:href="#ArialMT-30"/>
       <use x="111.230469" xlink:href="#ArialMT-32"/>
       <use x="166.845703" xlink:href="#ArialMT-30"/>
       <use x="222.460938" xlink:href="#ArialMT-2d"/>
       <use x="255.761719" xlink:href="#ArialMT-30"/>
       <use x="311.376953" xlink:href="#ArialMT-39"/>
      </g>
     </g>
    </g>
    <g id="xtick_5">
     <g id="line2d_5">
      <path clip-path="url(#p6decbc4dd5)" d="M 356.901564 293.589375 
L 356.901564 21.789375 
" style="fill:none;stroke:#cccccc;stroke-linecap:round;stroke-width:0.8;"/>
     </g>
     <g id="text_5">
      <!-- 2020-11 -->
      <g style="fill:#262626;" transform="translate(338.922658 307.747187)scale(0.1 -0.1)">
       <defs>
        <path d="M 2384 0 
L 1822 0 
L 1822 3584 
Q 1619 3391 1289 3197 
Q 959 3003 697 2906 
L 697 3450 
Q 1169 3672 1522 3987 
Q 1875 4303 2022 4600 
L 2384 4600 
L 2384 0 
z
" id="ArialMT-31" transform="scale(0.015625)"/>
       </defs>
       <use xlink:href="#ArialMT-32"/>
       <use x="55.615234" xlink:href="#ArialMT-30"/>
       <use x="111.230469" xlink:href="#ArialMT-32"/>
       <use x="166.845703" xlink:href="#ArialMT-30"/>
       <use x="222.460938" xlink:href="#ArialMT-2d"/>
       <use x="255.761719" xlink:href="#ArialMT-31"/>
       <use x="304.001953" xlink:href="#ArialMT-31"/>
      </g>
     </g>
    </g>
    <g id="xtick_6">
     <g id="line2d_6">
      <path clip-path="url(#p6decbc4dd5)" d="M 437.694348 293.589375 
L 437.694348 21.789375 
" style="fill:none;stroke:#cccccc;stroke-linecap:round;stroke-width:0.8;"/>
     </g>
     <g id="text_6">
      <!-- 2021-01 -->
      <g style="fill:#262626;" transform="translate(419.346692 307.747187)scale(0.1 -0.1)">
       <use xlink:href="#ArialMT-32"/>
       <use x="55.615234" xlink:href="#ArialMT-30"/>
       <use x="111.230469" xlink:href="#ArialMT-32"/>
       <use x="166.845703" xlink:href="#ArialMT-31"/>
       <use x="222.460938" xlink:href="#ArialMT-2d"/>
       <use x="255.761719" xlink:href="#ArialMT-30"/>
       <use x="311.376953" xlink:href="#ArialMT-31"/>
      </g>
     </g>
    </g>
    <g id="xtick_7">
     <g id="line2d_7">
      <path clip-path="url(#p6decbc4dd5)" d="M 515.838189 293.589375 
L 515.838189 21.789375 
" style="fill:none;stroke:#cccccc;stroke-linecap:round;stroke-width:0.8;"/>
     </g>
     <g id="text_7">
      <!-- 2021-03 -->
      <g style="fill:#262626;" transform="translate(497.490532 307.747187)scale(0.1 -0.1)">
       <use xlink:href="#ArialMT-32"/>
       <use x="55.615234" xlink:href="#ArialMT-30"/>
       <use x="111.230469" xlink:href="#ArialMT-32"/>
       <use x="166.845703" xlink:href="#ArialMT-31"/>
       <use x="222.460938" xlink:href="#ArialMT-2d"/>
       <use x="255.761719" xlink:href="#ArialMT-30"/>
       <use x="311.376953" xlink:href="#ArialMT-33"/>
      </g>
     </g>
    </g>
   </g>
   <g id="matplotlib.axis_2">
    <g id="ytick_1">
     <g id="line2d_8">
      <path clip-path="url(#p6decbc4dd5)" d="M 30.882812 281.23483 
L 588.882812 281.23483 
" style="fill:none;stroke:#cccccc;stroke-linecap:round;stroke-width:0.8;"/>
     </g>
     <g id="text_8">
      <!-- 0 -->
      <g style="fill:#262626;" transform="translate(18.321875 284.813736)scale(0.1 -0.1)">
       <use xlink:href="#ArialMT-30"/>
      </g>
     </g>
    </g>
    <g id="ytick_2">
     <g id="line2d_9">
      <path clip-path="url(#p6decbc4dd5)" d="M 30.882812 244.245172 
L 588.882812 244.245172 
" style="fill:none;stroke:#cccccc;stroke-linecap:round;stroke-width:0.8;"/>
     </g>
     <g id="text_9">
      <!-- 50 -->
      <g style="fill:#262626;" transform="translate(12.760937 247.824079)scale(0.1 -0.1)">
       <use xlink:href="#ArialMT-35"/>
       <use x="55.615234" xlink:href="#ArialMT-30"/>
      </g>
     </g>
    </g>
    <g id="ytick_3">
     <g id="line2d_10">
      <path clip-path="url(#p6decbc4dd5)" d="M 30.882812 207.255515 
L 588.882812 207.255515 
" style="fill:none;stroke:#cccccc;stroke-linecap:round;stroke-width:0.8;"/>
     </g>
     <g id="text_10">
      <!-- 100 -->
      <g style="fill:#262626;" transform="translate(7.2 210.834422)scale(0.1 -0.1)">
       <use xlink:href="#ArialMT-31"/>
       <use x="55.615234" xlink:href="#ArialMT-30"/>
       <use x="111.230469" xlink:href="#ArialMT-30"/>
      </g>
     </g>
    </g>
    <g id="ytick_4">
     <g id="line2d_11">
      <path clip-path="url(#p6decbc4dd5)" d="M 30.882812 170.265858 
L 588.882812 170.265858 
" style="fill:none;stroke:#cccccc;stroke-linecap:round;stroke-width:0.8;"/>
     </g>
     <g id="text_11">
      <!-- 150 -->
      <g style="fill:#262626;" transform="translate(7.2 173.844765)scale(0.1 -0.1)">
       <use xlink:href="#ArialMT-31"/>
       <use x="55.615234" xlink:href="#ArialMT-35"/>
       <use x="111.230469" xlink:href="#ArialMT-30"/>
      </g>
     </g>
    </g>
    <g id="ytick_5">
     <g id="line2d_12">
      <path clip-path="url(#p6decbc4dd5)" d="M 30.882812 133.276201 
L 588.882812 133.276201 
" style="fill:none;stroke:#cccccc;stroke-linecap:round;stroke-width:0.8;"/>
     </g>
     <g id="text_12">
      <!-- 200 -->
      <g style="fill:#262626;" transform="translate(7.2 136.855108)scale(0.1 -0.1)">
       <use xlink:href="#ArialMT-32"/>
       <use x="55.615234" xlink:href="#ArialMT-30"/>
       <use x="111.230469" xlink:href="#ArialMT-30"/>
      </g>
     </g>
    </g>
    <g id="ytick_6">
     <g id="line2d_13">
      <path clip-path="url(#p6decbc4dd5)" d="M 30.882812 96.286544 
L 588.882812 96.286544 
" style="fill:none;stroke:#cccccc;stroke-linecap:round;stroke-width:0.8;"/>
     </g>
     <g id="text_13">
      <!-- 250 -->
      <g style="fill:#262626;" transform="translate(7.2 99.865451)scale(0.1 -0.1)">
       <use xlink:href="#ArialMT-32"/>
       <use x="55.615234" xlink:href="#ArialMT-35"/>
       <use x="111.230469" xlink:href="#ArialMT-30"/>
      </g>
     </g>
    </g>
    <g id="ytick_7">
     <g id="line2d_14">
      <path clip-path="url(#p6decbc4dd5)" d="M 30.882812 59.296887 
L 588.882812 59.296887 
" style="fill:none;stroke:#cccccc;stroke-linecap:round;stroke-width:0.8;"/>
     </g>
     <g id="text_14">
      <!-- 300 -->
      <g style="fill:#262626;" transform="translate(7.2 62.875793)scale(0.1 -0.1)">
       <use xlink:href="#ArialMT-33"/>
       <use x="55.615234" xlink:href="#ArialMT-30"/>
       <use x="111.230469" xlink:href="#ArialMT-30"/>
      </g>
     </g>
    </g>
    <g id="ytick_8">
     <g id="line2d_15">
      <path clip-path="url(#p6decbc4dd5)" d="M 30.882812 22.30723 
L 588.882812 22.30723 
" style="fill:none;stroke:#cccccc;stroke-linecap:round;stroke-width:0.8;"/>
     </g>
     <g id="text_15">
      <!-- 350 -->
      <g style="fill:#262626;" transform="translate(7.2 25.886136)scale(0.1 -0.1)">
       <use xlink:href="#ArialMT-33"/>
       <use x="55.615234" xlink:href="#ArialMT-35"/>
       <use x="111.230469" xlink:href="#ArialMT-30"/>
      </g>
     </g>
    </g>
   </g>
   <g id="line2d_16">
    <path clip-path="url(#p6decbc4dd5)" d="M 56.246449 273.097105 
L 57.570921 273.097105 
L 58.895393 271.617519 
L 60.219864 271.617519 
L 61.544336 264.219587 
L 62.868808 250.903311 
L 64.19328 250.163518 
L 65.517752 247.204345 
L 66.842224 242.765586 
L 68.166696 242.025793 
L 69.491168 242.025793 
L 70.815639 241.286 
L 72.140111 238.326827 
L 73.464583 222.051378 
L 74.789055 220.571792 
L 76.113527 220.571792 
L 77.437999 198.377998 
L 78.762471 196.898411 
L 80.086943 210.214688 
L 81.411414 206.515722 
L 82.735886 200.597377 
L 84.060358 199.117791 
L 85.38483 196.158618 
L 86.709302 196.158618 
L 88.033774 194.679032 
L 89.358246 183.582135 
L 90.682718 182.102549 
L 92.007189 185.801514 
L 93.331661 173.225031 
L 94.656133 170.265858 
L 95.980605 168.046479 
L 97.305077 164.347513 
L 98.629549 173.964824 
L 99.954021 173.964824 
L 101.278493 171.005652 
L 102.602964 165.087306 
L 103.927436 139.93434 
L 105.251908 138.454753 
L 106.57638 173.225031 
L 107.900852 175.44441 
L 109.225324 178.403583 
L 110.549796 173.225031 
L 111.874268 178.403583 
L 113.198739 170.265858 
L 114.523211 165.8271 
L 115.847683 166.566893 
L 117.172155 164.347513 
L 118.496627 158.429168 
L 119.821099 155.469996 
L 121.145571 159.908754 
L 122.470043 162.867927 
L 123.794514 158.429168 
L 125.118986 155.469996 
L 126.443458 159.168961 
L 127.76793 143.633305 
L 129.092402 150.291444 
L 130.416874 147.332271 
L 131.741346 143.633305 
L 133.065817 149.55165 
L 134.390289 138.454753 
L 135.714761 136.975167 
L 137.039233 139.194546 
L 138.363705 131.796615 
L 139.688177 134.755788 
L 141.012649 136.975167 
L 142.337121 138.454753 
L 143.661592 136.235374 
L 144.986064 135.495581 
L 146.310536 131.056822 
L 147.635008 132.536408 
L 148.95948 133.276201 
L 150.283952 121.439511 
L 151.608424 120.699718 
L 152.932896 122.179304 
L 154.257367 127.357856 
L 155.581839 127.357856 
L 156.906311 126.618063 
L 158.230783 125.138477 
L 159.555255 120.699718 
L 160.879727 120.699718 
L 162.204199 108.863028 
L 163.528671 114.04158 
L 164.853142 107.383441 
L 166.177614 112.561993 
L 167.502086 105.164062 
L 168.826558 108.123235 
L 170.15103 102.204889 
L 171.475502 111.082407 
L 172.799974 118.480339 
L 174.124446 120.699718 
L 175.448917 124.398684 
L 176.773389 128.837443 
L 178.097861 125.87827 
L 179.422333 120.699718 
L 180.746805 119.959925 
L 182.071277 117.000752 
L 183.395749 121.439511 
L 184.720221 133.276201 
L 186.044692 134.755788 
L 187.369164 129.577236 
L 188.693636 132.536408 
L 190.018108 139.194546 
L 191.34258 142.153719 
L 192.667052 148.072064 
L 193.991524 148.072064 
L 195.315996 153.990409 
L 196.640467 146.592478 
L 197.964939 150.291444 
L 199.289411 151.77103 
L 200.613883 154.730202 
L 201.938355 145.852685 
L 203.262827 162.128134 
L 204.587299 159.908754 
L 205.91177 159.168961 
L 207.236242 163.60772 
L 208.560714 168.786272 
L 209.885186 167.306686 
L 211.209658 147.332271 
L 212.53413 159.168961 
L 213.858602 151.031237 
L 215.183074 145.852685 
L 216.507545 153.990409 
L 217.832017 151.77103 
L 220.480961 156.209789 
L 221.805433 151.77103 
L 223.129905 154.730202 
L 224.454377 150.291444 
L 225.778849 151.77103 
L 228.427792 156.209789 
L 229.752264 160.648548 
L 231.076736 168.046479 
L 232.401208 170.265858 
L 233.72568 171.005652 
L 235.050152 174.704617 
L 236.374624 176.923997 
L 237.699095 174.704617 
L 239.023567 181.362756 
L 240.348039 185.061721 
L 241.672511 193.199446 
L 242.996983 190.980066 
L 244.321455 192.459653 
L 245.645927 205.036136 
L 246.970399 199.857584 
L 248.29487 203.55655 
L 249.619342 207.995309 
L 250.943814 205.036136 
L 252.268286 204.296343 
L 253.592758 201.33717 
L 254.91723 199.857584 
L 256.241702 199.117791 
L 257.566174 186.541307 
L 258.890645 194.679032 
L 261.539589 203.55655 
L 262.864061 201.33717 
L 264.188533 210.954481 
L 265.513005 211.694274 
L 266.837477 209.474895 
L 268.161949 211.694274 
L 269.48642 215.39324 
L 270.810892 209.474895 
L 272.135364 217.612619 
L 273.459836 203.55655 
L 274.784308 193.939239 
L 276.10878 192.459653 
L 277.433252 196.158618 
L 278.757723 197.638205 
L 280.082195 197.638205 
L 281.406667 199.857584 
L 282.731139 199.857584 
L 284.055611 207.995309 
L 285.380083 206.515722 
L 286.704555 196.898411 
L 288.029027 199.857584 
L 289.353498 196.898411 
L 290.67797 196.158618 
L 292.002442 196.898411 
L 293.326914 199.857584 
L 295.975858 208.735102 
L 297.30033 209.474895 
L 298.624802 207.255515 
L 299.949273 205.775929 
L 302.598217 207.255515 
L 303.922689 213.913654 
L 305.247161 213.913654 
L 306.571633 227.22993 
L 307.896105 225.010551 
L 309.220577 223.530965 
L 310.545048 219.092206 
L 311.86952 217.612619 
L 313.193992 218.352413 
L 314.518464 215.39324 
L 315.842936 219.092206 
L 317.167408 218.352413 
L 318.49188 213.913654 
L 319.816352 215.39324 
L 321.140823 216.133033 
L 322.465295 210.954481 
L 323.789767 207.255515 
L 325.114239 209.474895 
L 326.438711 206.515722 
L 327.763183 208.735102 
L 329.087655 205.775929 
L 330.412127 210.954481 
L 331.736598 211.694274 
L 333.06107 210.954481 
L 334.385542 208.735102 
L 335.710014 210.214688 
L 337.034486 213.173861 
L 338.358958 212.434067 
L 339.68343 212.434067 
L 341.007902 209.474895 
L 342.332373 203.55655 
L 343.656845 201.33717 
L 344.981317 202.076963 
L 346.305789 204.296343 
L 347.630261 200.597377 
L 348.954733 200.597377 
L 350.279205 198.377998 
L 351.603676 191.719859 
L 352.928148 193.199446 
L 354.25262 190.240273 
L 355.577092 190.240273 
L 356.901564 187.281101 
L 358.226036 183.582135 
L 359.550508 177.66379 
L 360.87498 185.801514 
L 362.199451 190.980066 
L 363.523923 185.801514 
L 364.848395 179.883169 
L 366.172867 182.842342 
L 367.497339 176.184204 
L 368.821811 171.745445 
L 370.146283 162.128134 
L 371.470755 163.60772 
L 372.795226 166.566893 
L 374.119698 171.005652 
L 375.44417 170.265858 
L 376.768642 165.8271 
L 378.093114 166.566893 
L 379.417586 151.031237 
L 380.742058 147.332271 
L 382.06653 149.55165 
L 383.391001 136.235374 
L 384.715473 136.975167 
L 386.039945 141.413926 
L 387.364417 135.495581 
L 388.688889 130.317029 
L 390.013361 130.317029 
L 391.337833 132.536408 
L 392.662305 125.87827 
L 393.986776 136.235374 
L 395.311248 139.93434 
L 396.63572 145.112892 
L 397.960192 137.71496 
L 399.284664 139.194546 
L 400.609136 146.592478 
L 401.933608 142.893512 
L 403.25808 153.250616 
L 404.582551 162.128134 
L 405.907023 153.250616 
L 407.231495 139.93434 
L 408.555967 151.77103 
L 409.880439 148.072064 
L 411.204911 146.592478 
L 412.529383 153.250616 
L 416.502798 168.786272 
L 417.82727 167.306686 
L 419.151742 166.566893 
L 420.476214 171.745445 
L 421.800686 175.44441 
L 423.125158 171.005652 
L 424.449629 168.046479 
L 425.774101 168.046479 
L 427.098573 172.485238 
L 428.423045 179.143376 
L 429.747517 181.362756 
L 431.071989 175.44441 
L 432.396461 174.704617 
L 433.720933 170.265858 
L 435.045404 172.485238 
L 436.369876 171.005652 
L 437.694348 180.622962 
L 439.01882 177.66379 
L 440.343292 184.321928 
L 441.667764 193.939239 
L 442.992236 192.459653 
L 444.316708 191.719859 
L 445.641179 193.199446 
L 446.965651 189.50048 
L 449.614595 190.980066 
L 450.939067 181.362756 
L 452.263539 184.321928 
L 453.588011 176.184204 
L 454.912483 176.923997 
L 456.236954 173.225031 
L 458.885898 182.102549 
L 460.21037 175.44441 
L 461.534842 178.403583 
L 462.859314 184.321928 
L 464.183786 192.459653 
L 465.508258 185.801514 
L 466.832729 189.50048 
L 468.157201 186.541307 
L 469.481673 196.158618 
L 470.806145 200.597377 
L 472.130617 191.719859 
L 473.455089 197.638205 
L 474.779561 193.199446 
L 476.104033 198.377998 
L 477.428504 200.597377 
L 478.752976 191.719859 
L 480.077448 190.980066 
L 481.40192 188.020894 
L 482.726392 193.199446 
L 484.050864 192.459653 
L 485.375336 193.199446 
L 486.699808 196.898411 
L 488.024279 199.857584 
L 489.348751 206.515722 
L 490.673223 207.255515 
L 491.997695 205.775929 
L 493.322167 202.816757 
L 494.646639 213.173861 
L 495.971111 212.434067 
L 497.295582 202.816757 
L 498.620054 199.857584 
L 499.944526 210.954481 
L 501.268998 210.954481 
L 502.59347 207.995309 
L 503.917942 210.214688 
L 505.242414 205.775929 
L 506.566886 199.117791 
L 507.891357 194.679032 
L 509.215829 197.638205 
L 510.540301 188.020894 
L 511.864773 188.760687 
L 513.189245 202.076963 
L 514.513717 185.801514 
L 515.838189 177.66379 
L 517.162661 183.582135 
L 518.487132 175.44441 
L 519.811604 176.923997 
L 521.136076 174.704617 
L 522.460548 183.582135 
L 523.78502 180.622962 
L 525.109492 171.005652 
L 526.433964 166.566893 
L 529.082907 159.168961 
L 531.731851 145.852685 
L 533.056323 136.975167 
L 534.380795 131.796615 
L 535.705267 117.000752 
L 537.029739 114.04158 
L 538.354211 110.342614 
L 539.678682 105.164062 
L 541.003154 94.067165 
L 542.327626 80.750888 
L 543.652098 73.352957 
L 544.97657 63.735646 
L 546.301042 57.077508 
L 547.625514 39.322472 
L 548.949986 48.939783 
L 550.274457 40.062266 
L 551.598929 43.761231 
L 552.923401 43.761231 
L 554.247873 34.14392 
L 555.572345 35.623507 
L 556.896817 40.802059 
L 558.221289 37.103093 
L 559.545761 42.281645 
L 560.870232 43.761231 
L 562.194704 40.802059 
L 563.519176 45.240818 
L 563.519176 45.240818 
" style="fill:none;stroke:#1f77b4;stroke-linecap:round;stroke-width:1.5;"/>
   </g>
   <g id="line2d_17">
    <path clip-path="url(#p6decbc4dd5)" d="M 56.246449 281.23483 
L 57.570921 281.23483 
L 58.895393 276.056278 
L 60.219864 276.056278 
L 61.544336 274.576691 
L 62.868808 267.17876 
L 64.19328 267.918553 
L 65.517752 264.95938 
L 70.815639 264.95938 
L 72.140111 265.699174 
L 73.464583 262.740001 
L 74.789055 264.219587 
L 76.113527 263.479794 
L 77.437999 260.520622 
L 78.762471 260.520622 
L 80.086943 256.821656 
L 81.411414 253.862483 
L 82.735886 253.862483 
L 84.060358 257.561449 
L 86.709302 257.561449 
L 88.033774 256.821656 
L 89.358246 253.12269 
L 90.682718 255.34207 
L 92.007189 259.780828 
L 93.331661 253.862483 
L 94.656133 248.683931 
L 95.980605 247.944138 
L 97.305077 241.286 
L 98.629549 245.724759 
L 99.954021 244.245172 
L 101.278493 241.286 
L 102.602964 234.627862 
L 103.927436 230.928896 
L 105.251908 228.709517 
L 106.57638 234.627862 
L 107.900852 234.627862 
L 110.549796 237.587034 
L 111.874268 234.627862 
L 113.198739 229.44931 
L 114.523211 227.22993 
L 115.847683 225.750344 
L 117.172155 226.490137 
L 118.496627 221.311585 
L 119.821099 221.311585 
L 121.145571 228.709517 
L 122.470043 230.189103 
L 123.794514 225.010551 
L 125.118986 225.010551 
L 127.76793 227.969723 
L 129.092402 232.408482 
L 130.416874 229.44931 
L 131.741346 227.22993 
L 133.065817 231.668689 
L 134.390289 225.010551 
L 135.714761 225.010551 
L 137.039233 223.530965 
L 138.363705 226.490137 
L 139.688177 222.051378 
L 141.012649 222.051378 
L 142.337121 218.352413 
L 143.661592 219.092206 
L 146.310536 217.612619 
L 147.635008 224.270758 
L 148.95948 226.490137 
L 150.283952 221.311585 
L 151.608424 225.010551 
L 152.932896 221.311585 
L 154.257367 216.872826 
L 155.581839 215.39324 
L 156.906311 214.653447 
L 158.230783 217.612619 
L 159.555255 215.39324 
L 160.879727 215.39324 
L 162.204199 210.954481 
L 163.528671 213.173861 
L 164.853142 211.694274 
L 166.177614 211.694274 
L 167.502086 204.296343 
L 168.826558 207.995309 
L 170.15103 213.173861 
L 171.475502 215.39324 
L 172.799974 208.735102 
L 174.124446 213.173861 
L 175.448917 219.092206 
L 176.773389 221.311585 
L 179.422333 219.831999 
L 180.746805 215.39324 
L 182.071277 217.612619 
L 183.395749 216.133033 
L 184.720221 219.092206 
L 186.044692 218.352413 
L 187.369164 219.092206 
L 188.693636 223.530965 
L 190.018108 230.189103 
L 191.34258 229.44931 
L 192.667052 226.490137 
L 193.991524 227.22993 
L 195.315996 230.189103 
L 196.640467 227.969723 
L 197.964939 226.490137 
L 199.289411 227.22993 
L 200.613883 227.22993 
L 201.938355 225.750344 
L 203.262827 232.408482 
L 204.587299 232.408482 
L 205.91177 231.668689 
L 207.236242 234.627862 
L 208.560714 236.107448 
L 209.885186 232.408482 
L 211.209658 227.22993 
L 212.53413 229.44931 
L 213.858602 223.530965 
L 215.183074 226.490137 
L 216.507545 232.408482 
L 217.832017 234.627862 
L 219.156489 233.148275 
L 220.480961 233.148275 
L 221.805433 234.627862 
L 223.129905 229.44931 
L 224.454377 230.928896 
L 225.778849 233.148275 
L 227.10332 233.148275 
L 228.427792 229.44931 
L 229.752264 229.44931 
L 231.076736 233.888069 
L 232.401208 233.888069 
L 233.72568 234.627862 
L 235.050152 237.587034 
L 236.374624 239.066621 
L 237.699095 239.806414 
L 239.023567 242.025793 
L 240.348039 245.724759 
L 241.672511 244.984966 
L 242.996983 242.025793 
L 244.321455 242.765586 
L 245.645927 247.944138 
L 246.970399 247.944138 
L 248.29487 247.204345 
L 249.619342 250.903311 
L 250.943814 250.163518 
L 252.268286 248.683931 
L 253.592758 245.724759 
L 254.91723 247.204345 
L 256.241702 247.204345 
L 257.566174 244.245172 
L 258.890645 249.423724 
L 260.215117 249.423724 
L 261.539589 253.862483 
L 262.864061 251.643104 
L 264.188533 254.602276 
L 265.513005 254.602276 
L 266.837477 255.34207 
L 268.161949 252.382897 
L 270.810892 252.382897 
L 272.135364 256.081863 
L 273.459836 250.163518 
L 274.784308 251.643104 
L 276.10878 247.944138 
L 277.433252 249.423724 
L 278.757723 248.683931 
L 280.082195 249.423724 
L 281.406667 247.204345 
L 282.731139 249.423724 
L 284.055611 250.903311 
L 285.380083 250.163518 
L 286.704555 245.724759 
L 288.029027 247.204345 
L 289.353498 243.505379 
L 290.67797 244.245172 
L 292.002442 248.683931 
L 293.326914 254.602276 
L 294.651386 250.903311 
L 295.975858 250.903311 
L 297.30033 251.643104 
L 298.624802 250.163518 
L 301.273745 251.643104 
L 302.598217 250.903311 
L 303.922689 252.382897 
L 305.247161 257.561449 
L 306.571633 256.821656 
L 307.896105 252.382897 
L 309.220577 253.12269 
L 310.545048 252.382897 
L 311.86952 250.163518 
L 313.193992 248.683931 
L 314.518464 248.683931 
L 315.842936 251.643104 
L 317.167408 253.12269 
L 318.49188 252.382897 
L 321.140823 252.382897 
L 322.465295 251.643104 
L 323.789767 250.163518 
L 325.114239 251.643104 
L 326.438711 252.382897 
L 327.763183 250.903311 
L 329.087655 250.163518 
L 330.412127 253.862483 
L 331.736598 256.821656 
L 333.06107 254.602276 
L 334.385542 256.821656 
L 335.710014 256.821656 
L 337.034486 255.34207 
L 338.358958 257.561449 
L 339.68343 253.862483 
L 341.007902 251.643104 
L 342.332373 250.903311 
L 343.656845 247.944138 
L 347.630261 247.944138 
L 350.279205 244.984966 
L 351.603676 242.025793 
L 352.928148 247.204345 
L 354.25262 247.204345 
L 355.577092 246.464552 
L 356.901564 244.984966 
L 358.226036 242.025793 
L 359.550508 242.765586 
L 362.199451 241.286 
L 363.523923 239.806414 
L 364.848395 237.587034 
L 366.172867 240.546207 
L 367.497339 231.668689 
L 368.821811 229.44931 
L 370.146283 230.928896 
L 371.470755 230.189103 
L 372.795226 222.791171 
L 374.119698 230.189103 
L 375.44417 229.44931 
L 376.768642 231.668689 
L 378.093114 230.928896 
L 379.417586 223.530965 
L 380.742058 222.051378 
L 382.06653 222.051378 
L 383.391001 212.434067 
L 384.715473 216.133033 
L 386.039945 221.311585 
L 387.364417 217.612619 
L 388.688889 218.352413 
L 390.013361 218.352413 
L 391.337833 219.831999 
L 392.662305 219.092206 
L 393.986776 224.270758 
L 395.311248 225.010551 
L 396.63572 219.831999 
L 397.960192 216.872826 
L 399.284664 218.352413 
L 400.609136 222.791171 
L 401.933608 224.270758 
L 403.25808 222.791171 
L 404.582551 230.928896 
L 405.907023 225.010551 
L 407.231495 225.010551 
L 408.555967 221.311585 
L 409.880439 216.872826 
L 411.204911 219.831999 
L 412.529383 219.831999 
L 413.853855 225.010551 
L 415.178326 227.22993 
L 416.502798 225.010551 
L 417.82727 224.270758 
L 419.151742 227.22993 
L 420.476214 231.668689 
L 421.800686 228.709517 
L 423.125158 226.490137 
L 424.449629 227.969723 
L 425.774101 222.791171 
L 427.098573 227.969723 
L 428.423045 230.928896 
L 429.747517 230.928896 
L 431.071989 222.791171 
L 432.396461 230.928896 
L 433.720933 230.928896 
L 435.045404 234.627862 
L 436.369876 232.408482 
L 437.694348 230.928896 
L 439.01882 232.408482 
L 440.343292 233.148275 
L 441.667764 235.367655 
L 442.992236 236.847241 
L 444.316708 237.587034 
L 445.641179 239.066621 
L 446.965651 237.587034 
L 448.290123 234.627862 
L 449.614595 233.148275 
L 450.939067 228.709517 
L 452.263539 229.44931 
L 453.588011 224.270758 
L 454.912483 222.791171 
L 456.236954 219.831999 
L 457.561426 221.311585 
L 458.885898 223.530965 
L 461.534842 226.490137 
L 462.859314 227.22993 
L 464.183786 229.44931 
L 465.508258 227.969723 
L 466.832729 230.189103 
L 468.157201 225.010551 
L 469.481673 225.750344 
L 470.806145 227.969723 
L 472.130617 227.22993 
L 473.455089 232.408482 
L 477.428504 234.627862 
L 478.752976 231.668689 
L 480.077448 227.22993 
L 481.40192 231.668689 
L 482.726392 228.709517 
L 484.050864 232.408482 
L 485.375336 233.888069 
L 486.699808 238.326827 
L 488.024279 241.286 
L 489.348751 242.765586 
L 490.673223 240.546207 
L 491.997695 241.286 
L 493.322167 239.066621 
L 494.646639 246.464552 
L 495.971111 247.204345 
L 497.295582 236.107448 
L 498.620054 239.806414 
L 499.944526 238.326827 
L 501.268998 239.066621 
L 502.59347 235.367655 
L 503.917942 238.326827 
L 505.242414 239.806414 
L 506.566886 237.587034 
L 507.891357 239.066621 
L 509.215829 244.245172 
L 511.864773 235.367655 
L 513.189245 240.546207 
L 514.513717 236.107448 
L 515.838189 233.148275 
L 517.162661 235.367655 
L 518.487132 232.408482 
L 519.811604 232.408482 
L 521.136076 233.148275 
L 522.460548 239.066621 
L 523.78502 229.44931 
L 525.109492 232.408482 
L 526.433964 234.627862 
L 527.758436 227.969723 
L 529.082907 225.010551 
L 530.407379 219.831999 
L 531.731851 207.995309 
L 533.056323 201.33717 
L 534.380795 210.214688 
L 535.705267 198.377998 
L 537.029739 193.199446 
L 538.354211 194.679032 
L 539.678682 183.582135 
L 541.003154 187.281101 
L 542.327626 182.842342 
L 543.652098 184.321928 
L 544.97657 177.66379 
L 546.301042 174.704617 
L 547.625514 162.867927 
L 548.949986 160.648548 
L 550.274457 153.250616 
L 551.598929 148.811857 
L 552.923401 151.77103 
L 554.247873 149.55165 
L 555.572345 148.072064 
L 556.896817 145.112892 
L 559.545761 143.633305 
L 560.870232 146.592478 
L 562.194704 144.373098 
L 563.519176 143.633305 
L 563.519176 143.633305 
" style="fill:none;stroke:#ff7f0e;stroke-linecap:round;stroke-width:1.5;"/>
   </g>
   <g id="patch_3">
    <path d="M 30.882812 293.589375 
L 30.882812 21.789375 
" style="fill:none;stroke:#cccccc;stroke-linecap:square;stroke-linejoin:miter;stroke-width:0.8;"/>
   </g>
   <g id="patch_4">
    <path d="M 588.882812 293.589375 
L 588.882812 21.789375 
" style="fill:none;stroke:#cccccc;stroke-linecap:square;stroke-linejoin:miter;stroke-width:0.8;"/>
   </g>
   <g id="patch_5">
    <path d="M 30.882812 293.589375 
L 588.882812 293.589375 
" style="fill:none;stroke:#cccccc;stroke-linecap:square;stroke-linejoin:miter;stroke-width:0.8;"/>
   </g>
   <g id="patch_6">
    <path d="M 30.882812 21.789375 
L 588.882812 21.789375 
" style="fill:none;stroke:#cccccc;stroke-linecap:square;stroke-linejoin:miter;stroke-width:0.8;"/>
   </g>
   <g id="text_16">
    <!-- Internações -->
    <g style="fill:#262626;" transform="translate(278.531875 15.789375)scale(0.12 -0.12)">
     <defs>
      <path d="M 597 0 
L 597 4581 
L 1203 4581 
L 1203 0 
L 597 0 
z
" id="ArialMT-49" transform="scale(0.015625)"/>
      <path d="M 422 0 
L 422 3319 
L 928 3319 
L 928 2847 
Q 1294 3394 1984 3394 
Q 2284 3394 2536 3286 
Q 2788 3178 2913 3003 
Q 3038 2828 3088 2588 
Q 3119 2431 3119 2041 
L 3119 0 
L 2556 0 
L 2556 2019 
Q 2556 2363 2490 2533 
Q 2425 2703 2258 2804 
Q 2091 2906 1866 2906 
Q 1506 2906 1245 2678 
Q 984 2450 984 1813 
L 984 0 
L 422 0 
z
" id="ArialMT-6e" transform="scale(0.015625)"/>
      <path d="M 1650 503 
L 1731 6 
Q 1494 -44 1306 -44 
Q 1000 -44 831 53 
Q 663 150 594 308 
Q 525 466 525 972 
L 525 2881 
L 113 2881 
L 113 3319 
L 525 3319 
L 525 4141 
L 1084 4478 
L 1084 3319 
L 1650 3319 
L 1650 2881 
L 1084 2881 
L 1084 941 
Q 1084 700 1114 631 
Q 1144 563 1211 522 
Q 1278 481 1403 481 
Q 1497 481 1650 503 
z
" id="ArialMT-74" transform="scale(0.015625)"/>
      <path d="M 2694 1069 
L 3275 997 
Q 3138 488 2766 206 
Q 2394 -75 1816 -75 
Q 1088 -75 661 373 
Q 234 822 234 1631 
Q 234 2469 665 2931 
Q 1097 3394 1784 3394 
Q 2450 3394 2872 2941 
Q 3294 2488 3294 1666 
Q 3294 1616 3291 1516 
L 816 1516 
Q 847 969 1125 678 
Q 1403 388 1819 388 
Q 2128 388 2347 550 
Q 2566 713 2694 1069 
z
M 847 1978 
L 2700 1978 
Q 2663 2397 2488 2606 
Q 2219 2931 1791 2931 
Q 1403 2931 1139 2672 
Q 875 2413 847 1978 
z
" id="ArialMT-65" transform="scale(0.015625)"/>
      <path d="M 416 0 
L 416 3319 
L 922 3319 
L 922 2816 
Q 1116 3169 1280 3281 
Q 1444 3394 1641 3394 
Q 1925 3394 2219 3213 
L 2025 2691 
Q 1819 2813 1613 2813 
Q 1428 2813 1281 2702 
Q 1134 2591 1072 2394 
Q 978 2094 978 1738 
L 978 0 
L 416 0 
z
" id="ArialMT-72" transform="scale(0.015625)"/>
      <path d="M 2588 409 
Q 2275 144 1986 34 
Q 1697 -75 1366 -75 
Q 819 -75 525 192 
Q 231 459 231 875 
Q 231 1119 342 1320 
Q 453 1522 633 1644 
Q 813 1766 1038 1828 
Q 1203 1872 1538 1913 
Q 2219 1994 2541 2106 
Q 2544 2222 2544 2253 
Q 2544 2597 2384 2738 
Q 2169 2928 1744 2928 
Q 1347 2928 1158 2789 
Q 969 2650 878 2297 
L 328 2372 
Q 403 2725 575 2942 
Q 747 3159 1072 3276 
Q 1397 3394 1825 3394 
Q 2250 3394 2515 3294 
Q 2781 3194 2906 3042 
Q 3031 2891 3081 2659 
Q 3109 2516 3109 2141 
L 3109 1391 
Q 3109 606 3145 398 
Q 3181 191 3288 0 
L 2700 0 
Q 2613 175 2588 409 
z
M 2541 1666 
Q 2234 1541 1622 1453 
Q 1275 1403 1131 1340 
Q 988 1278 909 1158 
Q 831 1038 831 891 
Q 831 666 1001 516 
Q 1172 366 1500 366 
Q 1825 366 2078 508 
Q 2331 650 2450 897 
Q 2541 1088 2541 1459 
L 2541 1666 
z
" id="ArialMT-61" transform="scale(0.015625)"/>
      <path d="M 2588 1216 
L 3141 1144 
Q 3050 572 2676 248 
Q 2303 -75 1759 -75 
Q 1078 -75 664 370 
Q 250 816 250 1647 
Q 250 2184 428 2587 
Q 606 2991 970 3192 
Q 1334 3394 1763 3394 
Q 2303 3394 2647 3120 
Q 2991 2847 3088 2344 
L 2541 2259 
Q 2463 2594 2264 2762 
Q 2066 2931 1784 2931 
Q 1359 2931 1093 2626 
Q 828 2322 828 1663 
Q 828 994 1084 691 
Q 1341 388 1753 388 
Q 2084 388 2306 591 
Q 2528 794 2588 1216 
z
M 1284 -418 
L 1447 135 
L 1866 135 
L 1763 -200 
Q 2028 -231 2162 -363 
Q 2297 -496 2297 -659 
Q 2297 -893 2072 -1073 
Q 1847 -1253 1394 -1253 
Q 1138 -1253 944 -1215 
L 978 -850 
Q 1178 -862 1272 -862 
Q 1566 -862 1684 -781 
Q 1775 -718 1775 -628 
Q 1775 -571 1739 -527 
Q 1703 -484 1606 -452 
Q 1509 -421 1284 -418 
z
" id="ArialMT-e7" transform="scale(0.015625)"/>
      <path d="M 213 1659 
Q 213 2581 725 3025 
Q 1153 3394 1769 3394 
Q 2453 3394 2887 2945 
Q 3322 2497 3322 1706 
Q 3322 1066 3130 698 
Q 2938 331 2570 128 
Q 2203 -75 1769 -75 
Q 1072 -75 642 372 
Q 213 819 213 1659 
z
M 791 1659 
Q 791 1022 1069 705 
Q 1347 388 1769 388 
Q 2188 388 2466 706 
Q 2744 1025 2744 1678 
Q 2744 2294 2464 2611 
Q 2184 2928 1769 2928 
Q 1347 2928 1069 2612 
Q 791 2297 791 1659 
z
M 722 3809 
Q 719 4134 900 4328 
Q 1078 4522 1356 4522 
Q 1550 4522 1884 4353 
Q 2069 4259 2178 4259 
Q 2278 4259 2331 4314 
Q 2384 4369 2406 4531 
L 2813 4531 
Q 2803 4175 2633 3997 
Q 2463 3819 2200 3819 
Q 2003 3819 1681 3994 
Q 1472 4106 1375 4106 
Q 1269 4106 1203 4031 
Q 1134 3956 1138 3809 
L 722 3809 
z
" id="ArialMT-f5" transform="scale(0.015625)"/>
      <path d="M 197 991 
L 753 1078 
Q 800 744 1014 566 
Q 1228 388 1613 388 
Q 2000 388 2187 545 
Q 2375 703 2375 916 
Q 2375 1106 2209 1216 
Q 2094 1291 1634 1406 
Q 1016 1563 777 1677 
Q 538 1791 414 1992 
Q 291 2194 291 2438 
Q 291 2659 392 2848 
Q 494 3038 669 3163 
Q 800 3259 1026 3326 
Q 1253 3394 1513 3394 
Q 1903 3394 2198 3281 
Q 2494 3169 2634 2976 
Q 2775 2784 2828 2463 
L 2278 2388 
Q 2241 2644 2061 2787 
Q 1881 2931 1553 2931 
Q 1166 2931 1000 2803 
Q 834 2675 834 2503 
Q 834 2394 903 2306 
Q 972 2216 1119 2156 
Q 1203 2125 1616 2013 
Q 2213 1853 2448 1751 
Q 2684 1650 2818 1456 
Q 2953 1263 2953 975 
Q 2953 694 2789 445 
Q 2625 197 2315 61 
Q 2006 -75 1616 -75 
Q 969 -75 630 194 
Q 291 463 197 991 
z
" id="ArialMT-73" transform="scale(0.015625)"/>
     </defs>
     <use xlink:href="#ArialMT-49"/>
     <use x="27.783203" xlink:href="#ArialMT-6e"/>
     <use x="83.398438" xlink:href="#ArialMT-74"/>
     <use x="111.181641" xlink:href="#ArialMT-65"/>
     <use x="166.796875" xlink:href="#ArialMT-72"/>
     <use x="200.097656" xlink:href="#ArialMT-6e"/>
     <use x="255.712891" xlink:href="#ArialMT-61"/>
     <use x="311.328125" xlink:href="#ArialMT-e7"/>
     <use x="361.328125" xlink:href="#ArialMT-f5"/>
     <use x="416.943359" xlink:href="#ArialMT-65"/>
     <use x="472.558594" xlink:href="#ArialMT-73"/>
    </g>
   </g>
   <g id="legend_1">
    <g id="patch_7">
     <path d="M 37.882812 58.08 
L 122.134375 58.08 
Q 124.134375 58.08 124.134375 56.08 
L 124.134375 28.789375 
Q 124.134375 26.789375 122.134375 26.789375 
L 37.882812 26.789375 
Q 35.882812 26.789375 35.882812 28.789375 
L 35.882812 56.08 
Q 35.882812 58.08 37.882812 58.08 
z
" style="fill:#ffffff;opacity:0.8;stroke:#cccccc;stroke-linejoin:miter;"/>
    </g>
    <g id="line2d_18">
     <path d="M 39.882812 34.447187 
L 59.882812 34.447187 
" style="fill:none;stroke:#1f77b4;stroke-linecap:round;stroke-width:1.5;"/>
    </g>
    <g id="line2d_19"/>
    <g id="text_17">
     <!-- Internações -->
     <g style="fill:#262626;" transform="translate(67.882812 37.947187)scale(0.1 -0.1)">
      <use xlink:href="#ArialMT-49"/>
      <use x="27.783203" xlink:href="#ArialMT-6e"/>
      <use x="83.398438" xlink:href="#ArialMT-74"/>
      <use x="111.181641" xlink:href="#ArialMT-65"/>
      <use x="166.796875" xlink:href="#ArialMT-72"/>
      <use x="200.097656" xlink:href="#ArialMT-6e"/>
      <use x="255.712891" xlink:href="#ArialMT-61"/>
      <use x="311.328125" xlink:href="#ArialMT-e7"/>
      <use x="361.328125" xlink:href="#ArialMT-f5"/>
      <use x="416.943359" xlink:href="#ArialMT-65"/>
      <use x="472.558594" xlink:href="#ArialMT-73"/>
     </g>
    </g>
    <g id="line2d_20">
     <path d="M 39.882812 48.5925 
L 59.882812 48.5925 
" style="fill:none;stroke:#ff7f0e;stroke-linecap:round;stroke-width:1.5;"/>
    </g>
    <g id="line2d_21"/>
    <g id="text_18">
     <!-- UTI -->
     <g style="fill:#262626;" transform="translate(67.882812 52.0925)scale(0.1 -0.1)">
      <defs>
       <path d="M 3500 4581 
L 4106 4581 
L 4106 1934 
Q 4106 1244 3950 837 
Q 3794 431 3386 176 
Q 2978 -78 2316 -78 
Q 1672 -78 1262 144 
Q 853 366 678 786 
Q 503 1206 503 1934 
L 503 4581 
L 1109 4581 
L 1109 1938 
Q 1109 1341 1220 1058 
Q 1331 775 1601 622 
Q 1872 469 2263 469 
Q 2931 469 3215 772 
Q 3500 1075 3500 1938 
L 3500 4581 
z
" id="ArialMT-55" transform="scale(0.015625)"/>
       <path d="M 1659 0 
L 1659 4041 
L 150 4041 
L 150 4581 
L 3781 4581 
L 3781 4041 
L 2266 4041 
L 2266 0 
L 1659 0 
z
" id="ArialMT-54" transform="scale(0.015625)"/>
      </defs>
      <use xlink:href="#ArialMT-55"/>
      <use x="72.216797" xlink:href="#ArialMT-54"/>
      <use x="133.300781" xlink:href="#ArialMT-49"/>
     </g>
    </g>
   </g>
  </g>
 </g>
 <defs>
  <clipPath id="p6decbc4dd5">
   <rect height="271.8" width="558" x="30.882812" y="21.789375"/>
  </clipPath>
 </defs>
</svg>
