<?xml version="1.0" encoding="utf-8" standalone="no"?>
<!DOCTYPE svg PUBLIC "-//W3C//DTD SVG 1.1//EN"
  "http://www.w3.org/Graphics/SVG/1.1/DTD/svg11.dtd">
<!-- Created with matplotlib (https://matplotlib.org/) -->
<svg height="316.934687pt" version="1.1" viewBox="0 0 596.082813 316.934687" width="596.082813pt" xmlns="http://www.w3.org/2000/svg" xmlns:xlink="http://www.w3.org/1999/xlink">
 <metadata>
  <rdf:RDF xmlns:cc="http://creativecommons.org/ns#" xmlns:dc="http://purl.org/dc/elements/1.1/" xmlns:rdf="http://www.w3.org/1999/02/22-rdf-syntax-ns#">
   <cc:Work>
    <dc:type rdf:resource="http://purl.org/dc/dcmitype/StillImage"/>
    <dc:date>2021-03-08T18:16:26.422784</dc:date>
    <dc:format>image/svg+xml</dc:format>
    <dc:creator>
     <cc:Agent>
      <dc:title>Matplotlib v3.3.4, https://matplotlib.org/</dc:title>
     </cc:Agent>
    </dc:creator>
   </cc:Work>
  </rdf:RDF>
 </metadata>
 <defs>
  <style type="text/css">*{stroke-linecap:butt;stroke-linejoin:round;}</style>
 </defs>
 <g id="figure_1">
  <g id="patch_1">
   <path d="M 0 316.934687 
L 596.082813 316.934687 
L 596.082813 0 
L 0 0 
z
" style="fill:#ffffff;"/>
  </g>
  <g id="axes_1">
   <g id="patch_2">
    <path d="M 30.882812 293.589375 
L 588.882812 293.589375 
L 588.882812 21.789375 
L 30.882812 21.789375 
z
" style="fill:#ffffff;"/>
   </g>
   <g id="matplotlib.axis_1">
    <g id="xtick_1">
     <g id="line2d_1">
      <path clip-path="url(#pfcdb041fd8)" d="M 117.864323 293.589375 
L 117.864323 21.789375 
" style="fill:none;stroke:#cccccc;stroke-linecap:round;stroke-width:0.8;"/>
     </g>
     <g id="text_1">
      <!-- 2020-05 -->
      <g style="fill:#262626;" transform="translate(99.516666 307.747187)scale(0.1 -0.1)">
       <defs>
        <path d="M 50.34375 8.453125 
L 50.34375 0 
L 3.03125 0 
Q 2.9375 3.171875 4.046875 6.109375 
Q 5.859375 10.9375 9.828125 15.625 
Q 13.8125 20.3125 21.34375 26.46875 
Q 33.015625 36.03125 37.109375 41.625 
Q 41.21875 47.21875 41.21875 52.203125 
Q 41.21875 57.421875 37.46875 61 
Q 33.734375 64.59375 27.734375 64.59375 
Q 21.390625 64.59375 17.578125 60.78125 
Q 13.765625 56.984375 13.71875 50.25 
L 4.6875 51.171875 
Q 5.609375 61.28125 11.65625 66.578125 
Q 17.71875 71.875 27.9375 71.875 
Q 38.234375 71.875 44.234375 66.15625 
Q 50.25 60.453125 50.25 52 
Q 50.25 47.703125 48.484375 43.546875 
Q 46.734375 39.40625 42.65625 34.8125 
Q 38.578125 30.21875 29.109375 22.21875 
Q 21.1875 15.578125 18.9375 13.203125 
Q 16.703125 10.84375 15.234375 8.453125 
z
" id="ArialMT-50"/>
        <path d="M 4.15625 35.296875 
Q 4.15625 48 6.765625 55.734375 
Q 9.375 63.484375 14.515625 67.671875 
Q 19.671875 71.875 27.484375 71.875 
Q 33.25 71.875 37.59375 69.546875 
Q 41.9375 67.234375 44.765625 62.859375 
Q 47.609375 58.5 49.21875 52.21875 
Q 50.828125 45.953125 50.828125 35.296875 
Q 50.828125 22.703125 48.234375 14.96875 
Q 45.65625 7.234375 40.5 3 
Q 35.359375 -1.21875 27.484375 -1.21875 
Q 17.140625 -1.21875 11.234375 6.203125 
Q 4.15625 15.140625 4.15625 35.296875 
z
M 13.1875 35.296875 
Q 13.1875 17.671875 17.3125 11.828125 
Q 21.4375 6 27.484375 6 
Q 33.546875 6 37.671875 11.859375 
Q 41.796875 17.71875 41.796875 35.296875 
Q 41.796875 52.984375 37.671875 58.78125 
Q 33.546875 64.59375 27.390625 64.59375 
Q 21.34375 64.59375 17.71875 59.46875 
Q 13.1875 52.9375 13.1875 35.296875 
z
" id="ArialMT-48"/>
        <path d="M 3.171875 21.484375 
L 3.171875 30.328125 
L 30.171875 30.328125 
L 30.171875 21.484375 
z
" id="ArialMT-45"/>
        <path d="M 4.15625 18.75 
L 13.375 19.53125 
Q 14.40625 12.796875 18.140625 9.390625 
Q 21.875 6 27.15625 6 
Q 33.5 6 37.890625 10.78125 
Q 42.28125 15.578125 42.28125 23.484375 
Q 42.28125 31 38.0625 35.34375 
Q 33.84375 39.703125 27 39.703125 
Q 22.75 39.703125 19.328125 37.765625 
Q 15.921875 35.84375 13.96875 32.765625 
L 5.71875 33.84375 
L 12.640625 70.609375 
L 48.25 70.609375 
L 48.25 62.203125 
L 19.671875 62.203125 
L 15.828125 42.96875 
Q 22.265625 47.46875 29.34375 47.46875 
Q 38.71875 47.46875 45.15625 40.96875 
Q 51.609375 34.46875 51.609375 24.265625 
Q 51.609375 14.546875 45.953125 7.46875 
Q 39.0625 -1.21875 27.15625 -1.21875 
Q 17.390625 -1.21875 11.203125 4.25 
Q 5.03125 9.71875 4.15625 18.75 
z
" id="ArialMT-53"/>
       </defs>
       <use xlink:href="#ArialMT-50"/>
       <use x="55.615234" xlink:href="#ArialMT-48"/>
       <use x="111.230469" xlink:href="#ArialMT-50"/>
       <use x="166.845703" xlink:href="#ArialMT-48"/>
       <use x="222.460938" xlink:href="#ArialMT-45"/>
       <use x="255.761719" xlink:href="#ArialMT-48"/>
       <use x="311.376953" xlink:href="#ArialMT-53"/>
      </g>
     </g>
    </g>
    <g id="xtick_2">
     <g id="line2d_2">
      <path clip-path="url(#pfcdb041fd8)" d="M 205.275725 293.589375 
L 205.275725 21.789375 
" style="fill:none;stroke:#cccccc;stroke-linecap:round;stroke-width:0.8;"/>
     </g>
     <g id="text_2">
      <!-- 2020-07 -->
      <g style="fill:#262626;" transform="translate(186.928068 307.747187)scale(0.1 -0.1)">
       <defs>
        <path d="M 4.734375 62.203125 
L 4.734375 70.65625 
L 51.078125 70.65625 
L 51.078125 63.8125 
Q 44.234375 56.546875 37.515625 44.484375 
Q 30.8125 32.421875 27.15625 19.671875 
Q 24.515625 10.6875 23.78125 0 
L 14.75 0 
Q 14.890625 8.453125 18.0625 20.40625 
Q 21.234375 32.375 27.171875 43.484375 
Q 33.109375 54.59375 39.796875 62.203125 
z
" id="ArialMT-55"/>
       </defs>
       <use xlink:href="#ArialMT-50"/>
       <use x="55.615234" xlink:href="#ArialMT-48"/>
       <use x="111.230469" xlink:href="#ArialMT-50"/>
       <use x="166.845703" xlink:href="#ArialMT-48"/>
       <use x="222.460938" xlink:href="#ArialMT-45"/>
       <use x="255.761719" xlink:href="#ArialMT-48"/>
       <use x="311.376953" xlink:href="#ArialMT-55"/>
      </g>
     </g>
    </g>
    <g id="xtick_3">
     <g id="line2d_3">
      <path clip-path="url(#pfcdb041fd8)" d="M 294.120101 293.589375 
L 294.120101 21.789375 
" style="fill:none;stroke:#cccccc;stroke-linecap:round;stroke-width:0.8;"/>
     </g>
     <g id="text_3">
      <!-- 2020-09 -->
      <g style="fill:#262626;" transform="translate(275.772444 307.747187)scale(0.1 -0.1)">
       <defs>
        <path d="M 5.46875 16.546875 
L 13.921875 17.328125 
Q 14.984375 11.375 18.015625 8.6875 
Q 21.046875 6 25.78125 6 
Q 29.828125 6 32.875 7.859375 
Q 35.9375 9.71875 37.890625 12.8125 
Q 39.84375 15.921875 41.15625 21.1875 
Q 42.484375 26.46875 42.484375 31.9375 
Q 42.484375 32.515625 42.4375 33.6875 
Q 39.796875 29.5 35.234375 26.875 
Q 30.671875 24.265625 25.34375 24.265625 
Q 16.453125 24.265625 10.296875 30.703125 
Q 4.15625 37.15625 4.15625 47.703125 
Q 4.15625 58.59375 10.578125 65.234375 
Q 17 71.875 26.65625 71.875 
Q 33.640625 71.875 39.421875 68.109375 
Q 45.21875 64.359375 48.21875 57.390625 
Q 51.21875 50.4375 51.21875 37.25 
Q 51.21875 23.53125 48.234375 15.40625 
Q 45.265625 7.28125 39.375 3.03125 
Q 33.5 -1.21875 25.59375 -1.21875 
Q 17.1875 -1.21875 11.859375 3.4375 
Q 6.546875 8.109375 5.46875 16.546875 
z
M 41.453125 48.140625 
Q 41.453125 55.71875 37.421875 60.15625 
Q 33.40625 64.59375 27.734375 64.59375 
Q 21.875 64.59375 17.53125 59.8125 
Q 13.1875 55.03125 13.1875 47.40625 
Q 13.1875 40.578125 17.3125 36.296875 
Q 21.4375 32.03125 27.484375 32.03125 
Q 33.59375 32.03125 37.515625 36.296875 
Q 41.453125 40.578125 41.453125 48.140625 
z
" id="ArialMT-57"/>
       </defs>
       <use xlink:href="#ArialMT-50"/>
       <use x="55.615234" xlink:href="#ArialMT-48"/>
       <use x="111.230469" xlink:href="#ArialMT-50"/>
       <use x="166.845703" xlink:href="#ArialMT-48"/>
       <use x="222.460938" xlink:href="#ArialMT-45"/>
       <use x="255.761719" xlink:href="#ArialMT-48"/>
       <use x="311.376953" xlink:href="#ArialMT-57"/>
      </g>
     </g>
    </g>
    <g id="xtick_4">
     <g id="line2d_4">
      <path clip-path="url(#pfcdb041fd8)" d="M 381.531503 293.589375 
L 381.531503 21.789375 
" style="fill:none;stroke:#cccccc;stroke-linecap:round;stroke-width:0.8;"/>
     </g>
     <g id="text_4">
      <!-- 2020-11 -->
      <g style="fill:#262626;" transform="translate(363.552597 307.747187)scale(0.1 -0.1)">
       <defs>
        <path d="M 37.25 0 
L 28.46875 0 
L 28.46875 56 
Q 25.296875 52.984375 20.140625 49.953125 
Q 14.984375 46.921875 10.890625 45.40625 
L 10.890625 53.90625 
Q 18.265625 57.375 23.78125 62.296875 
Q 29.296875 67.234375 31.59375 71.875 
L 37.25 71.875 
z
" id="ArialMT-49"/>
       </defs>
       <use xlink:href="#ArialMT-50"/>
       <use x="55.615234" xlink:href="#ArialMT-48"/>
       <use x="111.230469" xlink:href="#ArialMT-50"/>
       <use x="166.845703" xlink:href="#ArialMT-48"/>
       <use x="222.460938" xlink:href="#ArialMT-45"/>
       <use x="255.761719" xlink:href="#ArialMT-49"/>
       <use x="304.001953" xlink:href="#ArialMT-49"/>
      </g>
     </g>
    </g>
    <g id="xtick_5">
     <g id="line2d_5">
      <path clip-path="url(#pfcdb041fd8)" d="M 468.942905 293.589375 
L 468.942905 21.789375 
" style="fill:none;stroke:#cccccc;stroke-linecap:round;stroke-width:0.8;"/>
     </g>
     <g id="text_5">
      <!-- 2021-01 -->
      <g style="fill:#262626;" transform="translate(450.595249 307.747187)scale(0.1 -0.1)">
       <use xlink:href="#ArialMT-50"/>
       <use x="55.615234" xlink:href="#ArialMT-48"/>
       <use x="111.230469" xlink:href="#ArialMT-50"/>
       <use x="166.845703" xlink:href="#ArialMT-49"/>
       <use x="222.460938" xlink:href="#ArialMT-45"/>
       <use x="255.761719" xlink:href="#ArialMT-48"/>
       <use x="311.376953" xlink:href="#ArialMT-49"/>
      </g>
     </g>
    </g>
    <g id="xtick_6">
     <g id="line2d_6">
      <path clip-path="url(#pfcdb041fd8)" d="M 553.488359 293.589375 
L 553.488359 21.789375 
" style="fill:none;stroke:#cccccc;stroke-linecap:round;stroke-width:0.8;"/>
     </g>
     <g id="text_6">
      <!-- 2021-03 -->
      <g style="fill:#262626;" transform="translate(535.140703 307.747187)scale(0.1 -0.1)">
       <defs>
        <path d="M 4.203125 18.890625 
L 12.984375 20.0625 
Q 14.5 12.59375 18.140625 9.296875 
Q 21.78125 6 27 6 
Q 33.203125 6 37.46875 10.296875 
Q 41.75 14.59375 41.75 20.953125 
Q 41.75 27 37.796875 30.921875 
Q 33.84375 34.859375 27.734375 34.859375 
Q 25.25 34.859375 21.53125 33.890625 
L 22.515625 41.609375 
Q 23.390625 41.5 23.921875 41.5 
Q 29.546875 41.5 34.03125 44.421875 
Q 38.53125 47.359375 38.53125 53.46875 
Q 38.53125 58.296875 35.25 61.46875 
Q 31.984375 64.65625 26.8125 64.65625 
Q 21.6875 64.65625 18.265625 61.421875 
Q 14.84375 58.203125 13.875 51.765625 
L 5.078125 53.328125 
Q 6.6875 62.15625 12.390625 67.015625 
Q 18.109375 71.875 26.609375 71.875 
Q 32.46875 71.875 37.390625 69.359375 
Q 42.328125 66.84375 44.9375 62.5 
Q 47.5625 58.15625 47.5625 53.265625 
Q 47.5625 48.640625 45.0625 44.828125 
Q 42.578125 41.015625 37.703125 38.765625 
Q 44.046875 37.3125 47.5625 32.6875 
Q 51.078125 28.078125 51.078125 21.140625 
Q 51.078125 11.765625 44.234375 5.25 
Q 37.40625 -1.265625 26.953125 -1.265625 
Q 17.53125 -1.265625 11.296875 4.34375 
Q 5.078125 9.96875 4.203125 18.890625 
z
" id="ArialMT-51"/>
       </defs>
       <use xlink:href="#ArialMT-50"/>
       <use x="55.615234" xlink:href="#ArialMT-48"/>
       <use x="111.230469" xlink:href="#ArialMT-50"/>
       <use x="166.845703" xlink:href="#ArialMT-49"/>
       <use x="222.460938" xlink:href="#ArialMT-45"/>
       <use x="255.761719" xlink:href="#ArialMT-48"/>
       <use x="311.376953" xlink:href="#ArialMT-51"/>
      </g>
     </g>
    </g>
   </g>
   <g id="matplotlib.axis_2">
    <g id="ytick_1">
     <g id="line2d_7">
      <path clip-path="url(#pfcdb041fd8)" d="M 30.882812 281.23483 
L 588.882812 281.23483 
" style="fill:none;stroke:#cccccc;stroke-linecap:round;stroke-width:0.8;"/>
     </g>
     <g id="text_7">
      <!-- 0 -->
      <g style="fill:#262626;" transform="translate(18.321875 284.813736)scale(0.1 -0.1)">
       <use xlink:href="#ArialMT-48"/>
      </g>
     </g>
    </g>
    <g id="ytick_2">
     <g id="line2d_8">
      <path clip-path="url(#pfcdb041fd8)" d="M 30.882812 230.182989 
L 588.882812 230.182989 
" style="fill:none;stroke:#cccccc;stroke-linecap:round;stroke-width:0.8;"/>
     </g>
     <g id="text_8">
      <!-- 50 -->
      <g style="fill:#262626;" transform="translate(12.760937 233.761895)scale(0.1 -0.1)">
       <use xlink:href="#ArialMT-53"/>
       <use x="55.615234" xlink:href="#ArialMT-48"/>
      </g>
     </g>
    </g>
    <g id="ytick_3">
     <g id="line2d_9">
      <path clip-path="url(#pfcdb041fd8)" d="M 30.882812 179.131148 
L 588.882812 179.131148 
" style="fill:none;stroke:#cccccc;stroke-linecap:round;stroke-width:0.8;"/>
     </g>
     <g id="text_9">
      <!-- 100 -->
      <g style="fill:#262626;" transform="translate(7.2 182.710054)scale(0.1 -0.1)">
       <use xlink:href="#ArialMT-49"/>
       <use x="55.615234" xlink:href="#ArialMT-48"/>
       <use x="111.230469" xlink:href="#ArialMT-48"/>
      </g>
     </g>
    </g>
    <g id="ytick_4">
     <g id="line2d_10">
      <path clip-path="url(#pfcdb041fd8)" d="M 30.882812 128.079307 
L 588.882812 128.079307 
" style="fill:none;stroke:#cccccc;stroke-linecap:round;stroke-width:0.8;"/>
     </g>
     <g id="text_10">
      <!-- 150 -->
      <g style="fill:#262626;" transform="translate(7.2 131.658214)scale(0.1 -0.1)">
       <use xlink:href="#ArialMT-49"/>
       <use x="55.615234" xlink:href="#ArialMT-53"/>
       <use x="111.230469" xlink:href="#ArialMT-48"/>
      </g>
     </g>
    </g>
    <g id="ytick_5">
     <g id="line2d_11">
      <path clip-path="url(#pfcdb041fd8)" d="M 30.882812 77.027467 
L 588.882812 77.027467 
" style="fill:none;stroke:#cccccc;stroke-linecap:round;stroke-width:0.8;"/>
     </g>
     <g id="text_11">
      <!-- 200 -->
      <g style="fill:#262626;" transform="translate(7.2 80.606373)scale(0.1 -0.1)">
       <use xlink:href="#ArialMT-50"/>
       <use x="55.615234" xlink:href="#ArialMT-48"/>
       <use x="111.230469" xlink:href="#ArialMT-48"/>
      </g>
     </g>
    </g>
    <g id="ytick_6">
     <g id="line2d_12">
      <path clip-path="url(#pfcdb041fd8)" d="M 30.882812 25.975626 
L 588.882812 25.975626 
" style="fill:none;stroke:#cccccc;stroke-linecap:round;stroke-width:0.8;"/>
     </g>
     <g id="text_12">
      <!-- 250 -->
      <g style="fill:#262626;" transform="translate(7.2 29.554532)scale(0.1 -0.1)">
       <use xlink:href="#ArialMT-50"/>
       <use x="55.615234" xlink:href="#ArialMT-53"/>
       <use x="111.230469" xlink:href="#ArialMT-48"/>
      </g>
     </g>
    </g>
   </g>
   <g id="line2d_13">
    <path clip-path="url(#pfcdb041fd8)" d="M 56.246449 270.003425 
L 57.679423 270.003425 
L 59.112396 267.961351 
L 60.54537 267.961351 
L 61.978344 257.750983 
L 63.411318 239.37232 
L 64.844292 238.351283 
L 66.277266 234.267136 
L 67.710239 228.140915 
L 69.143213 227.119878 
L 70.576187 227.119878 
L 72.009161 226.098842 
L 73.442135 222.014694 
L 74.875108 199.551884 
L 76.308082 197.509811 
L 77.741056 197.509811 
L 79.17403 166.878706 
L 80.607004 164.836633 
L 82.039977 183.215295 
L 83.472951 178.110111 
L 84.905925 169.941817 
L 86.338899 167.899743 
L 87.771873 163.815596 
L 89.204846 163.815596 
L 90.63782 161.773522 
L 92.070794 146.45797 
L 93.503768 144.415896 
L 94.936742 149.52108 
L 96.369715 132.163455 
L 97.802689 128.079307 
L 99.235663 125.016197 
L 100.668637 119.911013 
L 102.101611 133.184491 
L 103.534584 133.184491 
L 104.967558 129.100344 
L 106.400532 120.93205 
L 107.833506 86.216798 
L 109.26648 84.174724 
L 110.699453 132.163455 
L 112.132427 135.226565 
L 113.565401 139.310712 
L 114.998375 132.163455 
L 116.431349 139.310712 
L 117.864323 128.079307 
L 119.297296 121.953086 
L 120.73027 122.974123 
L 122.163244 119.911013 
L 123.596218 111.742718 
L 125.029192 107.658571 
L 126.462165 113.784792 
L 127.895139 117.868939 
L 129.328113 111.742718 
L 130.761087 107.658571 
L 132.194061 112.763755 
L 133.627034 91.321982 
L 135.060008 100.511313 
L 136.492982 96.427166 
L 137.925956 91.321982 
L 139.35893 99.490277 
L 140.791903 84.174724 
L 142.224877 82.132651 
L 143.657851 85.195761 
L 145.090825 74.985393 
L 146.523799 79.06954 
L 147.956772 82.132651 
L 149.389746 84.174724 
L 150.82272 81.111614 
L 152.255694 80.090577 
L 153.688668 73.964356 
L 155.121641 76.00643 
L 156.554615 77.027467 
L 157.987589 60.690878 
L 159.420563 59.669841 
L 160.853537 61.711914 
L 162.28651 68.859172 
L 163.719484 68.859172 
L 165.152458 67.838135 
L 166.585432 65.796062 
L 168.018406 59.669841 
L 169.45138 59.669841 
L 170.884353 43.333252 
L 172.317327 50.480509 
L 173.750301 41.291178 
L 175.183275 48.438436 
L 176.616249 38.228068 
L 178.049222 42.312215 
L 179.482196 34.14392 
L 180.91517 46.396362 
L 182.348144 56.60673 
L 183.781118 59.669841 
L 185.214091 64.775025 
L 186.647065 70.901246 
L 188.080039 66.817099 
L 189.513013 59.669841 
L 190.945987 58.648804 
L 192.37896 54.564657 
L 193.811934 60.690878 
L 195.244908 77.027467 
L 196.677882 79.06954 
L 198.110856 71.922283 
L 199.543829 76.00643 
L 200.976803 85.195761 
L 202.409777 89.279908 
L 203.842751 97.448203 
L 205.275725 97.448203 
L 206.708698 105.616497 
L 208.141672 95.406129 
L 209.574646 100.511313 
L 211.00762 102.553387 
L 212.440594 106.637534 
L 213.873568 94.385093 
L 215.306541 116.847902 
L 216.739515 113.784792 
L 218.172489 112.763755 
L 219.605463 118.889976 
L 221.038437 126.037234 
L 222.47141 123.99516 
L 223.904384 96.427166 
L 225.337358 112.763755 
L 226.770332 101.53235 
L 228.203306 94.385093 
L 229.636279 105.616497 
L 231.069253 102.553387 
L 233.935201 108.679608 
L 235.368175 102.553387 
L 236.801148 106.637534 
L 238.234122 100.511313 
L 239.667096 102.553387 
L 242.533044 108.679608 
L 243.966017 114.805829 
L 245.398991 125.016197 
L 246.831965 128.079307 
L 248.264939 129.100344 
L 249.697913 134.205528 
L 251.130886 137.268639 
L 252.56386 134.205528 
L 253.996834 143.39486 
L 255.429808 148.500044 
L 256.862782 159.731449 
L 258.295755 156.668338 
L 259.728729 158.710412 
L 261.161703 176.068038 
L 262.594677 168.92078 
L 264.027651 174.025964 
L 265.460625 180.152185 
L 266.893598 176.068038 
L 268.326572 175.047001 
L 269.759546 170.962854 
L 271.19252 168.92078 
L 272.625494 167.899743 
L 274.058467 150.542117 
L 275.491441 161.773522 
L 278.357389 174.025964 
L 279.790363 170.962854 
L 281.223336 184.236332 
L 282.65631 185.257369 
L 284.089284 182.194259 
L 285.522258 185.257369 
L 286.955232 190.362553 
L 288.388205 182.194259 
L 289.821179 193.425664 
L 291.254153 174.025964 
L 292.687127 160.752485 
L 294.120101 158.710412 
L 295.553074 163.815596 
L 296.986048 165.85767 
L 298.419022 165.85767 
L 299.851996 168.92078 
L 301.28497 168.92078 
L 302.717943 180.152185 
L 304.150917 178.110111 
L 305.583891 164.836633 
L 307.016865 168.92078 
L 308.449839 164.836633 
L 309.882812 163.815596 
L 311.315786 164.836633 
L 312.74876 168.92078 
L 315.614708 181.173222 
L 317.047682 182.194259 
L 318.480655 179.131148 
L 319.913629 177.089074 
L 322.779577 179.131148 
L 324.212551 188.320479 
L 325.645524 188.320479 
L 327.078498 206.699142 
L 328.511472 203.636032 
L 329.944446 201.593958 
L 331.37742 195.467737 
L 332.810393 193.425664 
L 334.243367 194.4467 
L 335.676341 190.362553 
L 337.109315 195.467737 
L 338.542289 194.4467 
L 339.975262 188.320479 
L 341.408236 190.362553 
L 342.84121 191.38359 
L 344.274184 184.236332 
L 345.707158 179.131148 
L 347.140131 182.194259 
L 348.573105 178.110111 
L 350.006079 181.173222 
L 351.439053 177.089074 
L 352.872027 184.236332 
L 354.305 185.257369 
L 355.737974 184.236332 
L 357.170948 181.173222 
L 358.603922 183.215295 
L 360.036896 187.299443 
L 361.46987 186.278406 
L 362.902843 186.278406 
L 364.335817 182.194259 
L 365.768791 174.025964 
L 367.201765 170.962854 
L 368.634739 171.98389 
L 370.067712 175.047001 
L 371.500686 169.941817 
L 372.93366 169.941817 
L 374.366634 166.878706 
L 375.799608 157.689375 
L 377.232581 159.731449 
L 378.665555 155.647301 
L 380.098529 155.647301 
L 381.531503 151.563154 
L 382.964477 146.45797 
L 384.39745 138.289676 
L 385.830424 149.52108 
L 387.263398 156.668338 
L 388.696372 149.52108 
L 390.129346 141.352786 
L 391.562319 145.436933 
L 392.995293 136.247602 
L 394.428267 130.121381 
L 395.861241 116.847902 
L 397.294215 118.889976 
L 398.727188 122.974123 
L 400.160162 129.100344 
L 401.593136 128.079307 
L 403.02611 121.953086 
L 404.459084 122.974123 
L 405.892057 101.53235 
L 407.325031 96.427166 
L 408.758005 99.490277 
L 410.190979 81.111614 
L 411.623953 82.132651 
L 413.056927 88.258872 
L 414.4899 80.090577 
L 415.922874 72.943319 
L 417.355848 72.943319 
L 418.788822 76.00643 
L 420.221796 66.817099 
L 421.654769 81.111614 
L 423.087743 86.216798 
L 424.520717 93.364056 
L 425.953691 83.153688 
L 427.386665 85.195761 
L 428.819638 95.406129 
L 430.252612 90.300945 
L 431.685586 104.595461 
L 433.11856 116.847902 
L 434.551534 104.595461 
L 435.984507 86.216798 
L 437.417481 102.553387 
L 438.850455 97.448203 
L 440.283429 95.406129 
L 441.716403 104.595461 
L 446.015324 126.037234 
L 447.448298 123.99516 
L 448.881272 122.974123 
L 450.314245 130.121381 
L 451.747219 135.226565 
L 453.180193 129.100344 
L 454.613167 125.016197 
L 456.046141 125.016197 
L 457.479115 131.142418 
L 458.912088 140.331749 
L 460.345062 143.39486 
L 461.778036 135.226565 
L 463.21101 134.205528 
L 464.643984 128.079307 
L 466.076957 131.142418 
L 467.509931 129.100344 
L 468.942905 142.373823 
L 470.375879 138.289676 
L 471.808853 147.479007 
L 473.241826 160.752485 
L 474.6748 158.710412 
L 476.107774 157.689375 
L 477.540748 159.731449 
L 478.973722 154.626265 
L 481.839669 156.668338 
L 483.272643 143.39486 
L 484.705617 147.479007 
L 486.138591 136.247602 
L 487.571564 137.268639 
L 489.004538 132.163455 
L 491.870486 144.415896 
L 493.30346 135.226565 
L 494.736433 139.310712 
L 496.169407 147.479007 
L 497.602381 158.710412 
L 499.035355 149.52108 
L 500.468329 154.626265 
L 501.901302 150.542117 
L 503.334276 163.815596 
L 504.76725 169.941817 
L 506.200224 157.689375 
L 507.633198 165.85767 
L 509.066172 159.731449 
L 510.499145 166.878706 
L 511.932119 169.941817 
L 513.365093 157.689375 
L 514.798067 156.668338 
L 516.231041 152.584191 
L 517.664014 159.731449 
L 519.096988 158.710412 
L 520.529962 159.731449 
L 521.962936 164.836633 
L 523.39591 168.92078 
L 524.828883 178.110111 
L 526.261857 179.131148 
L 527.694831 177.089074 
L 529.127805 173.004927 
L 530.560779 187.299443 
L 531.993752 186.278406 
L 533.426726 173.004927 
L 534.8597 168.92078 
L 536.292674 184.236332 
L 537.725648 184.236332 
L 539.158621 180.152185 
L 540.591595 183.215295 
L 542.024569 177.089074 
L 543.457543 167.899743 
L 544.890517 161.773522 
L 546.32349 165.85767 
L 547.756464 152.584191 
L 549.189438 153.605228 
L 550.622412 171.98389 
L 552.055386 149.52108 
L 553.488359 138.289676 
L 554.921333 146.45797 
L 556.354307 135.226565 
L 557.787281 137.268639 
L 559.220255 134.205528 
L 560.653229 146.45797 
L 562.086202 142.373823 
L 563.519176 129.100344 
L 563.519176 129.100344 
" style="fill:none;stroke:#1f77b4;stroke-linecap:round;stroke-width:1.5;"/>
   </g>
   <g id="line2d_14">
    <path clip-path="url(#pfcdb041fd8)" d="M 56.246449 281.23483 
L 57.679423 281.23483 
L 59.112396 274.087572 
L 60.54537 274.087572 
L 61.978344 272.045498 
L 63.411318 261.83513 
L 64.844292 262.856167 
L 66.277266 258.77202 
L 72.009161 258.77202 
L 73.442135 259.793056 
L 74.875108 255.708909 
L 76.308082 257.750983 
L 77.741056 256.729946 
L 79.17403 252.645799 
L 80.607004 252.645799 
L 82.039977 247.540615 
L 83.472951 243.456467 
L 84.905925 243.456467 
L 86.338899 248.561651 
L 89.204846 248.561651 
L 90.63782 247.540615 
L 92.070794 242.435431 
L 93.503768 245.498541 
L 94.936742 251.624762 
L 96.369715 243.456467 
L 97.802689 236.30921 
L 99.235663 235.288173 
L 100.668637 226.098842 
L 102.101611 232.225062 
L 103.534584 230.182989 
L 104.967558 226.098842 
L 106.400532 216.90951 
L 107.833506 211.804326 
L 109.26648 208.741216 
L 110.699453 216.90951 
L 112.132427 216.90951 
L 114.998375 220.993657 
L 116.431349 216.90951 
L 117.864323 209.762253 
L 119.297296 206.699142 
L 120.73027 204.657068 
L 122.163244 205.678105 
L 123.596218 198.530848 
L 125.029192 198.530848 
L 126.462165 208.741216 
L 127.895139 210.783289 
L 129.328113 203.636032 
L 130.761087 203.636032 
L 133.627034 207.720179 
L 135.060008 213.8464 
L 136.492982 209.762253 
L 137.925956 206.699142 
L 139.35893 212.825363 
L 140.791903 203.636032 
L 142.224877 203.636032 
L 143.657851 201.593958 
L 145.090825 205.678105 
L 146.523799 199.551884 
L 147.956772 199.551884 
L 149.389746 194.4467 
L 150.82272 195.467737 
L 153.688668 193.425664 
L 155.121641 202.614995 
L 156.554615 205.678105 
L 157.987589 198.530848 
L 159.420563 203.636032 
L 160.853537 198.530848 
L 162.28651 192.404627 
L 163.719484 190.362553 
L 165.152458 189.341516 
L 166.585432 193.425664 
L 168.018406 190.362553 
L 169.45138 190.362553 
L 170.884353 184.236332 
L 172.317327 187.299443 
L 173.750301 185.257369 
L 175.183275 185.257369 
L 176.616249 175.047001 
L 178.049222 180.152185 
L 179.482196 187.299443 
L 180.91517 190.362553 
L 182.348144 181.173222 
L 183.781118 187.299443 
L 185.214091 195.467737 
L 186.647065 198.530848 
L 189.513013 196.488774 
L 190.945987 190.362553 
L 192.37896 193.425664 
L 193.811934 191.38359 
L 195.244908 195.467737 
L 196.677882 194.4467 
L 198.110856 195.467737 
L 199.543829 201.593958 
L 200.976803 210.783289 
L 202.409777 209.762253 
L 203.842751 205.678105 
L 205.275725 206.699142 
L 206.708698 210.783289 
L 208.141672 207.720179 
L 209.574646 205.678105 
L 211.00762 206.699142 
L 212.440594 206.699142 
L 213.873568 204.657068 
L 215.306541 213.8464 
L 216.739515 213.8464 
L 218.172489 212.825363 
L 219.605463 216.90951 
L 221.038437 218.951584 
L 222.47141 213.8464 
L 223.904384 206.699142 
L 225.337358 209.762253 
L 226.770332 201.593958 
L 228.203306 205.678105 
L 229.636279 213.8464 
L 231.069253 216.90951 
L 232.502227 214.867437 
L 233.935201 214.867437 
L 235.368175 216.90951 
L 236.801148 209.762253 
L 238.234122 211.804326 
L 239.667096 214.867437 
L 241.10007 214.867437 
L 242.533044 209.762253 
L 243.966017 209.762253 
L 245.398991 215.888473 
L 246.831965 215.888473 
L 248.264939 216.90951 
L 249.697913 220.993657 
L 251.130886 223.035731 
L 252.56386 224.056768 
L 253.996834 227.119878 
L 255.429808 232.225062 
L 256.862782 231.204026 
L 258.295755 227.119878 
L 259.728729 228.140915 
L 261.161703 235.288173 
L 262.594677 235.288173 
L 264.027651 234.267136 
L 265.460625 239.37232 
L 266.893598 238.351283 
L 268.326572 236.30921 
L 269.759546 232.225062 
L 271.19252 234.267136 
L 272.625494 234.267136 
L 274.058467 230.182989 
L 275.491441 237.330247 
L 276.924415 237.330247 
L 278.357389 243.456467 
L 279.790363 240.393357 
L 281.223336 244.477504 
L 282.65631 244.477504 
L 284.089284 245.498541 
L 285.522258 241.414394 
L 288.388205 241.414394 
L 289.821179 246.519578 
L 291.254153 238.351283 
L 292.687127 240.393357 
L 294.120101 235.288173 
L 295.553074 237.330247 
L 296.986048 236.30921 
L 298.419022 237.330247 
L 299.851996 234.267136 
L 301.28497 237.330247 
L 302.717943 239.37232 
L 304.150917 238.351283 
L 305.583891 232.225062 
L 307.016865 234.267136 
L 308.449839 229.161952 
L 309.882812 230.182989 
L 311.315786 236.30921 
L 312.74876 244.477504 
L 314.181734 239.37232 
L 315.614708 239.37232 
L 317.047682 240.393357 
L 318.480655 238.351283 
L 321.346603 240.393357 
L 322.779577 239.37232 
L 324.212551 241.414394 
L 325.645524 248.561651 
L 327.078498 247.540615 
L 328.511472 241.414394 
L 329.944446 242.435431 
L 331.37742 241.414394 
L 332.810393 238.351283 
L 334.243367 236.30921 
L 335.676341 236.30921 
L 337.109315 240.393357 
L 338.542289 242.435431 
L 339.975262 241.414394 
L 342.84121 241.414394 
L 344.274184 240.393357 
L 345.707158 238.351283 
L 347.140131 240.393357 
L 348.573105 241.414394 
L 350.006079 239.37232 
L 351.439053 238.351283 
L 352.872027 243.456467 
L 354.305 247.540615 
L 355.737974 244.477504 
L 357.170948 247.540615 
L 358.603922 247.540615 
L 360.036896 245.498541 
L 361.46987 248.561651 
L 362.902843 243.456467 
L 364.335817 240.393357 
L 365.768791 239.37232 
L 367.201765 235.288173 
L 371.500686 235.288173 
L 374.366634 231.204026 
L 375.799608 227.119878 
L 377.232581 234.267136 
L 378.665555 234.267136 
L 380.098529 233.246099 
L 381.531503 231.204026 
L 382.964477 227.119878 
L 384.39745 228.140915 
L 387.263398 226.098842 
L 388.696372 224.056768 
L 390.129346 220.993657 
L 391.562319 225.077805 
L 392.995293 212.825363 
L 394.428267 209.762253 
L 395.861241 211.804326 
L 397.294215 210.783289 
L 398.727188 200.572921 
L 400.160162 210.783289 
L 401.593136 209.762253 
L 403.02611 212.825363 
L 404.459084 211.804326 
L 405.892057 201.593958 
L 407.325031 199.551884 
L 408.758005 199.551884 
L 410.190979 186.278406 
L 411.623953 191.38359 
L 413.056927 198.530848 
L 414.4899 193.425664 
L 415.922874 194.4467 
L 417.355848 194.4467 
L 418.788822 196.488774 
L 420.221796 195.467737 
L 421.654769 202.614995 
L 423.087743 203.636032 
L 424.520717 196.488774 
L 425.953691 192.404627 
L 427.386665 194.4467 
L 428.819638 200.572921 
L 430.252612 202.614995 
L 431.685586 200.572921 
L 433.11856 211.804326 
L 434.551534 203.636032 
L 435.984507 203.636032 
L 437.417481 198.530848 
L 438.850455 192.404627 
L 440.283429 196.488774 
L 441.716403 196.488774 
L 443.149376 203.636032 
L 444.58235 206.699142 
L 446.015324 203.636032 
L 447.448298 202.614995 
L 448.881272 206.699142 
L 450.314245 212.825363 
L 451.747219 208.741216 
L 453.180193 205.678105 
L 454.613167 207.720179 
L 456.046141 200.572921 
L 457.479115 207.720179 
L 458.912088 211.804326 
L 460.345062 211.804326 
L 461.778036 200.572921 
L 463.21101 211.804326 
L 464.643984 211.804326 
L 466.076957 216.90951 
L 467.509931 213.8464 
L 468.942905 211.804326 
L 470.375879 213.8464 
L 471.808853 214.867437 
L 473.241826 217.930547 
L 474.6748 219.972621 
L 476.107774 220.993657 
L 477.540748 223.035731 
L 478.973722 220.993657 
L 480.406695 216.90951 
L 481.839669 214.867437 
L 483.272643 208.741216 
L 484.705617 209.762253 
L 486.138591 202.614995 
L 487.571564 200.572921 
L 489.004538 196.488774 
L 490.437512 198.530848 
L 491.870486 201.593958 
L 494.736433 205.678105 
L 496.169407 206.699142 
L 497.602381 209.762253 
L 499.035355 207.720179 
L 500.468329 210.783289 
L 501.901302 203.636032 
L 503.334276 204.657068 
L 504.76725 207.720179 
L 506.200224 206.699142 
L 507.633198 213.8464 
L 511.932119 216.90951 
L 513.365093 212.825363 
L 514.798067 206.699142 
L 516.231041 212.825363 
L 517.664014 208.741216 
L 519.096988 213.8464 
L 520.529962 215.888473 
L 521.962936 222.014694 
L 523.39591 226.098842 
L 524.828883 228.140915 
L 526.261857 225.077805 
L 527.694831 226.098842 
L 529.127805 223.035731 
L 530.560779 233.246099 
L 531.993752 234.267136 
L 533.426726 218.951584 
L 534.8597 224.056768 
L 536.292674 222.014694 
L 537.725648 223.035731 
L 539.158621 217.930547 
L 540.591595 222.014694 
L 542.024569 224.056768 
L 543.457543 220.993657 
L 544.890517 223.035731 
L 546.32349 230.182989 
L 549.189438 217.930547 
L 550.622412 225.077805 
L 552.055386 218.951584 
L 553.488359 214.867437 
L 554.921333 217.930547 
L 556.354307 213.8464 
L 557.787281 213.8464 
L 559.220255 214.867437 
L 560.653229 223.035731 
L 562.086202 209.762253 
L 563.519176 213.8464 
L 563.519176 213.8464 
" style="fill:none;stroke:#ff7f0e;stroke-linecap:round;stroke-width:1.5;"/>
   </g>
   <g id="patch_3">
    <path d="M 30.882812 293.589375 
L 30.882812 21.789375 
" style="fill:none;stroke:#cccccc;stroke-linecap:square;stroke-linejoin:miter;stroke-width:0.8;"/>
   </g>
   <g id="patch_4">
    <path d="M 588.882812 293.589375 
L 588.882812 21.789375 
" style="fill:none;stroke:#cccccc;stroke-linecap:square;stroke-linejoin:miter;stroke-width:0.8;"/>
   </g>
   <g id="patch_5">
    <path d="M 30.882812 293.589375 
L 588.882812 293.589375 
" style="fill:none;stroke:#cccccc;stroke-linecap:square;stroke-linejoin:miter;stroke-width:0.8;"/>
   </g>
   <g id="patch_6">
    <path d="M 30.882812 21.789375 
L 588.882812 21.789375 
" style="fill:none;stroke:#cccccc;stroke-linecap:square;stroke-linejoin:miter;stroke-width:0.8;"/>
   </g>
   <g id="text_13">
    <!-- Internações -->
    <g style="fill:#262626;" transform="translate(278.531875 15.789375)scale(0.12 -0.12)">
     <defs>
      <path d="M 9.328125 0 
L 9.328125 71.578125 
L 18.796875 71.578125 
L 18.796875 0 
z
" id="ArialMT-73"/>
      <path d="M 6.59375 0 
L 6.59375 51.859375 
L 14.5 51.859375 
L 14.5 44.484375 
Q 20.21875 53.03125 31 53.03125 
Q 35.6875 53.03125 39.625 51.34375 
Q 43.5625 49.65625 45.515625 46.921875 
Q 47.46875 44.1875 48.25 40.4375 
Q 48.734375 37.984375 48.734375 31.890625 
L 48.734375 0 
L 39.9375 0 
L 39.9375 31.546875 
Q 39.9375 36.921875 38.90625 39.578125 
Q 37.890625 42.234375 35.28125 43.8125 
Q 32.671875 45.40625 29.15625 45.40625 
Q 23.53125 45.40625 19.453125 41.84375 
Q 15.375 38.28125 15.375 28.328125 
L 15.375 0 
z
" id="ArialMT-110"/>
      <path d="M 25.78125 7.859375 
L 27.046875 0.09375 
Q 23.34375 -0.6875 20.40625 -0.6875 
Q 15.625 -0.6875 12.984375 0.828125 
Q 10.359375 2.34375 9.28125 4.8125 
Q 8.203125 7.28125 8.203125 15.1875 
L 8.203125 45.015625 
L 1.765625 45.015625 
L 1.765625 51.859375 
L 8.203125 51.859375 
L 8.203125 64.703125 
L 16.9375 69.96875 
L 16.9375 51.859375 
L 25.78125 51.859375 
L 25.78125 45.015625 
L 16.9375 45.015625 
L 16.9375 14.703125 
Q 16.9375 10.9375 17.40625 9.859375 
Q 17.875 8.796875 18.921875 8.15625 
Q 19.96875 7.515625 21.921875 7.515625 
Q 23.390625 7.515625 25.78125 7.859375 
z
" id="ArialMT-116"/>
      <path d="M 42.09375 16.703125 
L 51.171875 15.578125 
Q 49.03125 7.625 43.21875 3.21875 
Q 37.40625 -1.171875 28.375 -1.171875 
Q 17 -1.171875 10.328125 5.828125 
Q 3.65625 12.84375 3.65625 25.484375 
Q 3.65625 38.578125 10.390625 45.796875 
Q 17.140625 53.03125 27.875 53.03125 
Q 38.28125 53.03125 44.875 45.953125 
Q 51.46875 38.875 51.46875 26.03125 
Q 51.46875 25.25 51.421875 23.6875 
L 12.75 23.6875 
Q 13.234375 15.140625 17.578125 10.59375 
Q 21.921875 6.0625 28.421875 6.0625 
Q 33.25 6.0625 36.671875 8.59375 
Q 40.09375 11.140625 42.09375 16.703125 
z
M 13.234375 30.90625 
L 42.1875 30.90625 
Q 41.609375 37.453125 38.875 40.71875 
Q 34.671875 45.796875 27.984375 45.796875 
Q 21.921875 45.796875 17.796875 41.75 
Q 13.671875 37.703125 13.234375 30.90625 
z
" id="ArialMT-101"/>
      <path d="M 6.5 0 
L 6.5 51.859375 
L 14.40625 51.859375 
L 14.40625 44 
Q 17.4375 49.515625 20 51.265625 
Q 22.5625 53.03125 25.640625 53.03125 
Q 30.078125 53.03125 34.671875 50.203125 
L 31.640625 42.046875 
Q 28.421875 43.953125 25.203125 43.953125 
Q 22.3125 43.953125 20.015625 42.21875 
Q 17.71875 40.484375 16.75 37.40625 
Q 15.28125 32.71875 15.28125 27.15625 
L 15.28125 0 
z
" id="ArialMT-114"/>
      <path d="M 40.4375 6.390625 
Q 35.546875 2.25 31.03125 0.53125 
Q 26.515625 -1.171875 21.34375 -1.171875 
Q 12.796875 -1.171875 8.203125 3 
Q 3.609375 7.171875 3.609375 13.671875 
Q 3.609375 17.484375 5.34375 20.625 
Q 7.078125 23.78125 9.890625 25.6875 
Q 12.703125 27.59375 16.21875 28.5625 
Q 18.796875 29.25 24.03125 29.890625 
Q 34.671875 31.15625 39.703125 32.90625 
Q 39.75 34.71875 39.75 35.203125 
Q 39.75 40.578125 37.25 42.78125 
Q 33.890625 45.75 27.25 45.75 
Q 21.046875 45.75 18.09375 43.578125 
Q 15.140625 41.40625 13.71875 35.890625 
L 5.125 37.0625 
Q 6.296875 42.578125 8.984375 45.96875 
Q 11.671875 49.359375 16.75 51.1875 
Q 21.828125 53.03125 28.515625 53.03125 
Q 35.15625 53.03125 39.296875 51.46875 
Q 43.453125 49.90625 45.40625 47.53125 
Q 47.359375 45.171875 48.140625 41.546875 
Q 48.578125 39.3125 48.578125 33.453125 
L 48.578125 21.734375 
Q 48.578125 9.46875 49.140625 6.21875 
Q 49.703125 2.984375 51.375 0 
L 42.1875 0 
Q 40.828125 2.734375 40.4375 6.390625 
z
M 39.703125 26.03125 
Q 34.90625 24.078125 25.34375 22.703125 
Q 19.921875 21.921875 17.671875 20.9375 
Q 15.4375 19.96875 14.203125 18.09375 
Q 12.984375 16.21875 12.984375 13.921875 
Q 12.984375 10.40625 15.640625 8.0625 
Q 18.3125 5.71875 23.4375 5.71875 
Q 28.515625 5.71875 32.46875 7.9375 
Q 36.421875 10.15625 38.28125 14.015625 
Q 39.703125 17 39.703125 22.796875 
z
" id="ArialMT-97"/>
      <path d="M 40.4375 19 
L 49.078125 17.875 
Q 47.65625 8.9375 41.8125 3.875 
Q 35.984375 -1.171875 27.484375 -1.171875 
Q 16.84375 -1.171875 10.375 5.78125 
Q 3.90625 12.75 3.90625 25.734375 
Q 3.90625 34.125 6.6875 40.421875 
Q 9.46875 46.734375 15.15625 49.875 
Q 20.84375 53.03125 27.546875 53.03125 
Q 35.984375 53.03125 41.359375 48.75 
Q 46.734375 44.484375 48.25 36.625 
L 39.703125 35.296875 
Q 38.484375 40.53125 35.375 43.15625 
Q 32.28125 45.796875 27.875 45.796875 
Q 21.234375 45.796875 17.078125 41.03125 
Q 12.9375 36.28125 12.9375 25.984375 
Q 12.9375 15.53125 16.9375 10.796875 
Q 20.953125 6.0625 27.390625 6.0625 
Q 32.5625 6.0625 36.03125 9.234375 
Q 39.5 12.40625 40.4375 19 
z
M 20.0625 -6.53125 
L 22.609375 2.109375 
L 29.15625 2.109375 
L 27.546875 -3.125 
Q 31.6875 -3.609375 33.78125 -5.671875 
Q 35.890625 -7.75 35.890625 -10.296875 
Q 35.890625 -13.953125 32.375 -16.765625 
Q 28.859375 -19.578125 21.78125 -19.578125 
Q 17.78125 -19.578125 14.75 -18.984375 
L 15.28125 -13.28125 
Q 18.40625 -13.46875 19.875 -13.46875 
Q 24.46875 -13.46875 26.3125 -12.203125 
Q 27.734375 -11.21875 27.734375 -9.8125 
Q 27.734375 -8.921875 27.171875 -8.234375 
Q 26.609375 -7.5625 25.09375 -7.0625 
Q 23.578125 -6.578125 20.0625 -6.53125 
z
" id="ArialMT-231"/>
      <path d="M 3.328125 25.921875 
Q 3.328125 40.328125 11.328125 47.265625 
Q 18.015625 53.03125 27.640625 53.03125 
Q 38.328125 53.03125 45.109375 46.015625 
Q 51.90625 39.015625 51.90625 26.65625 
Q 51.90625 16.65625 48.90625 10.90625 
Q 45.90625 5.171875 40.15625 2 
Q 34.421875 -1.171875 27.640625 -1.171875 
Q 16.75 -1.171875 10.03125 5.8125 
Q 3.328125 12.796875 3.328125 25.921875 
z
M 12.359375 25.921875 
Q 12.359375 15.96875 16.703125 11.015625 
Q 21.046875 6.0625 27.640625 6.0625 
Q 34.1875 6.0625 38.53125 11.03125 
Q 42.875 16.015625 42.875 26.21875 
Q 42.875 35.84375 38.5 40.796875 
Q 34.125 45.75 27.640625 45.75 
Q 21.046875 45.75 16.703125 40.8125 
Q 12.359375 35.890625 12.359375 25.921875 
z
M 11.28125 59.515625 
Q 11.234375 64.59375 14.0625 67.625 
Q 16.84375 70.65625 21.1875 70.65625 
Q 24.21875 70.65625 29.4375 68.015625 
Q 32.328125 66.546875 34.03125 66.546875 
Q 35.59375 66.546875 36.421875 67.40625 
Q 37.25 68.265625 37.59375 70.796875 
L 43.953125 70.796875 
Q 43.796875 65.234375 41.140625 62.453125 
Q 38.484375 59.671875 34.375 59.671875 
Q 31.296875 59.671875 26.265625 62.40625 
Q 23 64.15625 21.484375 64.15625 
Q 19.828125 64.15625 18.796875 62.984375 
Q 17.71875 61.8125 17.78125 59.515625 
z
" id="ArialMT-245"/>
      <path d="M 3.078125 15.484375 
L 11.765625 16.84375 
Q 12.5 11.625 15.84375 8.84375 
Q 19.1875 6.0625 25.203125 6.0625 
Q 31.25 6.0625 34.171875 8.515625 
Q 37.109375 10.984375 37.109375 14.3125 
Q 37.109375 17.28125 34.515625 19 
Q 32.71875 20.171875 25.53125 21.96875 
Q 15.875 24.421875 12.140625 26.203125 
Q 8.40625 27.984375 6.46875 31.125 
Q 4.546875 34.28125 4.546875 38.09375 
Q 4.546875 41.546875 6.125 44.5 
Q 7.71875 47.46875 10.453125 49.421875 
Q 12.5 50.921875 16.03125 51.96875 
Q 19.578125 53.03125 23.640625 53.03125 
Q 29.734375 53.03125 34.34375 51.265625 
Q 38.96875 49.515625 41.15625 46.5 
Q 43.359375 43.5 44.1875 38.484375 
L 35.59375 37.3125 
Q 35.015625 41.3125 32.203125 43.546875 
Q 29.390625 45.796875 24.265625 45.796875 
Q 18.21875 45.796875 15.625 43.796875 
Q 13.03125 41.796875 13.03125 39.109375 
Q 13.03125 37.40625 14.109375 36.03125 
Q 15.1875 34.625 17.484375 33.6875 
Q 18.796875 33.203125 25.25 31.453125 
Q 34.578125 28.953125 38.25 27.359375 
Q 41.9375 25.78125 44.03125 22.75 
Q 46.140625 19.734375 46.140625 15.234375 
Q 46.140625 10.84375 43.578125 6.953125 
Q 41.015625 3.078125 36.171875 0.953125 
Q 31.34375 -1.171875 25.25 -1.171875 
Q 15.140625 -1.171875 9.84375 3.03125 
Q 4.546875 7.234375 3.078125 15.484375 
z
" id="ArialMT-115"/>
     </defs>
     <use xlink:href="#ArialMT-73"/>
     <use x="27.783203" xlink:href="#ArialMT-110"/>
     <use x="83.398438" xlink:href="#ArialMT-116"/>
     <use x="111.181641" xlink:href="#ArialMT-101"/>
     <use x="166.796875" xlink:href="#ArialMT-114"/>
     <use x="200.097656" xlink:href="#ArialMT-110"/>
     <use x="255.712891" xlink:href="#ArialMT-97"/>
     <use x="311.328125" xlink:href="#ArialMT-231"/>
     <use x="361.328125" xlink:href="#ArialMT-245"/>
     <use x="416.943359" xlink:href="#ArialMT-101"/>
     <use x="472.558594" xlink:href="#ArialMT-115"/>
    </g>
   </g>
   <g id="legend_1">
    <g id="patch_7">
     <path d="M 497.63125 58.08 
L 581.882812 58.08 
Q 583.882812 58.08 583.882812 56.08 
L 583.882812 28.789375 
Q 583.882812 26.789375 581.882812 26.789375 
L 497.63125 26.789375 
Q 495.63125 26.789375 495.63125 28.789375 
L 495.63125 56.08 
Q 495.63125 58.08 497.63125 58.08 
z
" style="fill:#ffffff;opacity:0.8;stroke:#cccccc;stroke-linejoin:miter;"/>
    </g>
    <g id="line2d_15">
     <path d="M 499.63125 34.447187 
L 519.63125 34.447187 
" style="fill:none;stroke:#1f77b4;stroke-linecap:round;stroke-width:1.5;"/>
    </g>
    <g id="line2d_16"/>
    <g id="text_14">
     <!-- Internações -->
     <g style="fill:#262626;" transform="translate(527.63125 37.947187)scale(0.1 -0.1)">
      <use xlink:href="#ArialMT-73"/>
      <use x="27.783203" xlink:href="#ArialMT-110"/>
      <use x="83.398438" xlink:href="#ArialMT-116"/>
      <use x="111.181641" xlink:href="#ArialMT-101"/>
      <use x="166.796875" xlink:href="#ArialMT-114"/>
      <use x="200.097656" xlink:href="#ArialMT-110"/>
      <use x="255.712891" xlink:href="#ArialMT-97"/>
      <use x="311.328125" xlink:href="#ArialMT-231"/>
      <use x="361.328125" xlink:href="#ArialMT-245"/>
      <use x="416.943359" xlink:href="#ArialMT-101"/>
      <use x="472.558594" xlink:href="#ArialMT-115"/>
     </g>
    </g>
    <g id="line2d_17">
     <path d="M 499.63125 48.5925 
L 519.63125 48.5925 
" style="fill:none;stroke:#ff7f0e;stroke-linecap:round;stroke-width:1.5;"/>
    </g>
    <g id="line2d_18"/>
    <g id="text_15">
     <!-- UTI -->
     <g style="fill:#262626;" transform="translate(527.63125 52.0925)scale(0.1 -0.1)">
      <defs>
       <path d="M 54.6875 71.578125 
L 64.15625 71.578125 
L 64.15625 30.21875 
Q 64.15625 19.4375 61.71875 13.078125 
Q 59.28125 6.734375 52.90625 2.75 
Q 46.53125 -1.21875 36.1875 -1.21875 
Q 26.125 -1.21875 19.71875 2.25 
Q 13.328125 5.71875 10.59375 12.28125 
Q 7.859375 18.84375 7.859375 30.21875 
L 7.859375 71.578125 
L 17.328125 71.578125 
L 17.328125 30.28125 
Q 17.328125 20.953125 19.0625 16.53125 
Q 20.796875 12.109375 25.015625 9.71875 
Q 29.25 7.328125 35.359375 7.328125 
Q 45.796875 7.328125 50.234375 12.0625 
Q 54.6875 16.796875 54.6875 30.28125 
z
" id="ArialMT-85"/>
       <path d="M 25.921875 0 
L 25.921875 63.140625 
L 2.34375 63.140625 
L 2.34375 71.578125 
L 59.078125 71.578125 
L 59.078125 63.140625 
L 35.40625 63.140625 
L 35.40625 0 
z
" id="ArialMT-84"/>
      </defs>
      <use xlink:href="#ArialMT-85"/>
      <use x="72.216797" xlink:href="#ArialMT-84"/>
      <use x="133.300781" xlink:href="#ArialMT-73"/>
     </g>
    </g>
   </g>
  </g>
 </g>
 <defs>
  <clipPath id="pfcdb041fd8">
   <rect height="271.8" width="558" x="30.882812" y="21.789375"/>
  </clipPath>
 </defs>
</svg>
