<?xml version="1.0" encoding="utf-8" standalone="no"?>
<!DOCTYPE svg PUBLIC "-//W3C//DTD SVG 1.1//EN"
  "http://www.w3.org/Graphics/SVG/1.1/DTD/svg11.dtd">
<svg height="340.273125pt" version="1.1" viewBox="0 0 705.6 340.273125" width="705.6pt" xmlns="http://www.w3.org/2000/svg" xmlns:xlink="http://www.w3.org/1999/xlink">
 <metadata>
  <rdf:RDF xmlns:cc="http://creativecommons.org/ns#" xmlns:dc="http://purl.org/dc/elements/1.1/" xmlns:rdf="http://www.w3.org/1999/02/22-rdf-syntax-ns#">
   <cc:Work>
    <dc:type rdf:resource="http://purl.org/dc/dcmitype/StillImage"/>
    <dc:date>2021-08-31T18:28:57.307410</dc:date>
    <dc:format>image/svg+xml</dc:format>
    <dc:creator>
     <cc:Agent>
      <dc:title>Matplotlib v3.4.2, https://matplotlib.org/</dc:title>
     </cc:Agent>
    </dc:creator>
   </cc:Work>
  </rdf:RDF>
 </metadata>
 <defs>
  <style type="text/css">*{stroke-linecap:butt;stroke-linejoin:round;}</style>
 </defs>
 <g id="figure_1">
  <g id="patch_1">
   <path d="M 0 340.273125 
L 705.6 340.273125 
L 705.6 0 
L 0 0 
z
" style="fill:#ffffff;"/>
  </g>
  <g id="axes_1">
   <g id="patch_2">
    <path d="M 82.8 298.989375 
L 640.8 298.989375 
L 640.8 21.789375 
L 82.8 21.789375 
z
" style="fill:#ffffff;"/>
   </g>
   <g id="matplotlib.axis_1">
    <g id="xtick_1">
     <g id="line2d_1">
      <path clip-path="url(#p61dee79ab3)" d="M 90.935506 298.989375 
L 90.935506 21.789375 
" style="fill:none;stroke:#cccccc;stroke-linecap:round;stroke-width:0.8;"/>
     </g>
     <g id="text_1">
      <!-- 2020-03 -->
      <g style="fill:#262626;" transform="translate(72.58785 313.147188)scale(0.1 -0.1)">
       <defs>
        <path d="M 3222 541 
L 3222 0 
L 194 0 
Q 188 203 259 391 
Q 375 700 629 1000 
Q 884 1300 1366 1694 
Q 2113 2306 2375 2664 
Q 2638 3022 2638 3341 
Q 2638 3675 2398 3904 
Q 2159 4134 1775 4134 
Q 1369 4134 1125 3890 
Q 881 3647 878 3216 
L 300 3275 
Q 359 3922 746 4261 
Q 1134 4600 1788 4600 
Q 2447 4600 2831 4234 
Q 3216 3869 3216 3328 
Q 3216 3053 3103 2787 
Q 2991 2522 2730 2228 
Q 2469 1934 1863 1422 
Q 1356 997 1212 845 
Q 1069 694 975 541 
L 3222 541 
z
" id="ArialMT-32" transform="scale(0.015625)"/>
        <path d="M 266 2259 
Q 266 3072 433 3567 
Q 600 4063 929 4331 
Q 1259 4600 1759 4600 
Q 2128 4600 2406 4451 
Q 2684 4303 2865 4023 
Q 3047 3744 3150 3342 
Q 3253 2941 3253 2259 
Q 3253 1453 3087 958 
Q 2922 463 2592 192 
Q 2263 -78 1759 -78 
Q 1097 -78 719 397 
Q 266 969 266 2259 
z
M 844 2259 
Q 844 1131 1108 757 
Q 1372 384 1759 384 
Q 2147 384 2411 759 
Q 2675 1134 2675 2259 
Q 2675 3391 2411 3762 
Q 2147 4134 1753 4134 
Q 1366 4134 1134 3806 
Q 844 3388 844 2259 
z
" id="ArialMT-30" transform="scale(0.015625)"/>
        <path d="M 203 1375 
L 203 1941 
L 1931 1941 
L 1931 1375 
L 203 1375 
z
" id="ArialMT-2d" transform="scale(0.015625)"/>
        <path d="M 269 1209 
L 831 1284 
Q 928 806 1161 595 
Q 1394 384 1728 384 
Q 2125 384 2398 659 
Q 2672 934 2672 1341 
Q 2672 1728 2419 1979 
Q 2166 2231 1775 2231 
Q 1616 2231 1378 2169 
L 1441 2663 
Q 1497 2656 1531 2656 
Q 1891 2656 2178 2843 
Q 2466 3031 2466 3422 
Q 2466 3731 2256 3934 
Q 2047 4138 1716 4138 
Q 1388 4138 1169 3931 
Q 950 3725 888 3313 
L 325 3413 
Q 428 3978 793 4289 
Q 1159 4600 1703 4600 
Q 2078 4600 2393 4439 
Q 2709 4278 2876 4000 
Q 3044 3722 3044 3409 
Q 3044 3113 2884 2869 
Q 2725 2625 2413 2481 
Q 2819 2388 3044 2092 
Q 3269 1797 3269 1353 
Q 3269 753 2831 336 
Q 2394 -81 1725 -81 
Q 1122 -81 723 278 
Q 325 638 269 1209 
z
" id="ArialMT-33" transform="scale(0.015625)"/>
       </defs>
       <use xlink:href="#ArialMT-32"/>
       <use x="55.615234" xlink:href="#ArialMT-30"/>
       <use x="111.230469" xlink:href="#ArialMT-32"/>
       <use x="166.845703" xlink:href="#ArialMT-30"/>
       <use x="222.460938" xlink:href="#ArialMT-2d"/>
       <use x="255.761719" xlink:href="#ArialMT-30"/>
       <use x="311.376953" xlink:href="#ArialMT-33"/>
      </g>
     </g>
    </g>
    <g id="xtick_2">
     <g id="line2d_2">
      <path clip-path="url(#p61dee79ab3)" d="M 149.319726 298.989375 
L 149.319726 21.789375 
" style="fill:none;stroke:#cccccc;stroke-linecap:round;stroke-width:0.8;"/>
     </g>
     <g id="text_2">
      <!-- 2020-05 -->
      <g style="fill:#262626;" transform="translate(130.972069 313.147188)scale(0.1 -0.1)">
       <defs>
        <path d="M 266 1200 
L 856 1250 
Q 922 819 1161 601 
Q 1400 384 1738 384 
Q 2144 384 2425 690 
Q 2706 997 2706 1503 
Q 2706 1984 2436 2262 
Q 2166 2541 1728 2541 
Q 1456 2541 1237 2417 
Q 1019 2294 894 2097 
L 366 2166 
L 809 4519 
L 3088 4519 
L 3088 3981 
L 1259 3981 
L 1013 2750 
Q 1425 3038 1878 3038 
Q 2478 3038 2890 2622 
Q 3303 2206 3303 1553 
Q 3303 931 2941 478 
Q 2500 -78 1738 -78 
Q 1113 -78 717 272 
Q 322 622 266 1200 
z
" id="ArialMT-35" transform="scale(0.015625)"/>
       </defs>
       <use xlink:href="#ArialMT-32"/>
       <use x="55.615234" xlink:href="#ArialMT-30"/>
       <use x="111.230469" xlink:href="#ArialMT-32"/>
       <use x="166.845703" xlink:href="#ArialMT-30"/>
       <use x="222.460938" xlink:href="#ArialMT-2d"/>
       <use x="255.761719" xlink:href="#ArialMT-30"/>
       <use x="311.376953" xlink:href="#ArialMT-35"/>
      </g>
     </g>
    </g>
    <g id="xtick_3">
     <g id="line2d_3">
      <path clip-path="url(#p61dee79ab3)" d="M 207.703945 298.989375 
L 207.703945 21.789375 
" style="fill:none;stroke:#cccccc;stroke-linecap:round;stroke-width:0.8;"/>
     </g>
     <g id="text_3">
      <!-- 2020-07 -->
      <g style="fill:#262626;" transform="translate(189.356289 313.147188)scale(0.1 -0.1)">
       <defs>
        <path d="M 303 3981 
L 303 4522 
L 3269 4522 
L 3269 4084 
Q 2831 3619 2401 2847 
Q 1972 2075 1738 1259 
Q 1569 684 1522 0 
L 944 0 
Q 953 541 1156 1306 
Q 1359 2072 1739 2783 
Q 2119 3494 2547 3981 
L 303 3981 
z
" id="ArialMT-37" transform="scale(0.015625)"/>
       </defs>
       <use xlink:href="#ArialMT-32"/>
       <use x="55.615234" xlink:href="#ArialMT-30"/>
       <use x="111.230469" xlink:href="#ArialMT-32"/>
       <use x="166.845703" xlink:href="#ArialMT-30"/>
       <use x="222.460938" xlink:href="#ArialMT-2d"/>
       <use x="255.761719" xlink:href="#ArialMT-30"/>
       <use x="311.376953" xlink:href="#ArialMT-37"/>
      </g>
     </g>
    </g>
    <g id="xtick_4">
     <g id="line2d_4">
      <path clip-path="url(#p61dee79ab3)" d="M 267.045283 298.989375 
L 267.045283 21.789375 
" style="fill:none;stroke:#cccccc;stroke-linecap:round;stroke-width:0.8;"/>
     </g>
     <g id="text_4">
      <!-- 2020-09 -->
      <g style="fill:#262626;" transform="translate(248.697627 313.147188)scale(0.1 -0.1)">
       <defs>
        <path d="M 350 1059 
L 891 1109 
Q 959 728 1153 556 
Q 1347 384 1650 384 
Q 1909 384 2104 503 
Q 2300 622 2425 820 
Q 2550 1019 2634 1356 
Q 2719 1694 2719 2044 
Q 2719 2081 2716 2156 
Q 2547 1888 2255 1720 
Q 1963 1553 1622 1553 
Q 1053 1553 659 1965 
Q 266 2378 266 3053 
Q 266 3750 677 4175 
Q 1088 4600 1706 4600 
Q 2153 4600 2523 4359 
Q 2894 4119 3086 3673 
Q 3278 3228 3278 2384 
Q 3278 1506 3087 986 
Q 2897 466 2520 194 
Q 2144 -78 1638 -78 
Q 1100 -78 759 220 
Q 419 519 350 1059 
z
M 2653 3081 
Q 2653 3566 2395 3850 
Q 2138 4134 1775 4134 
Q 1400 4134 1122 3828 
Q 844 3522 844 3034 
Q 844 2597 1108 2323 
Q 1372 2050 1759 2050 
Q 2150 2050 2401 2323 
Q 2653 2597 2653 3081 
z
" id="ArialMT-39" transform="scale(0.015625)"/>
       </defs>
       <use xlink:href="#ArialMT-32"/>
       <use x="55.615234" xlink:href="#ArialMT-30"/>
       <use x="111.230469" xlink:href="#ArialMT-32"/>
       <use x="166.845703" xlink:href="#ArialMT-30"/>
       <use x="222.460938" xlink:href="#ArialMT-2d"/>
       <use x="255.761719" xlink:href="#ArialMT-30"/>
       <use x="311.376953" xlink:href="#ArialMT-39"/>
      </g>
     </g>
    </g>
    <g id="xtick_5">
     <g id="line2d_5">
      <path clip-path="url(#p61dee79ab3)" d="M 325.429503 298.989375 
L 325.429503 21.789375 
" style="fill:none;stroke:#cccccc;stroke-linecap:round;stroke-width:0.8;"/>
     </g>
     <g id="text_5">
      <!-- 2020-11 -->
      <g style="fill:#262626;" transform="translate(307.450596 313.147188)scale(0.1 -0.1)">
       <defs>
        <path d="M 2384 0 
L 1822 0 
L 1822 3584 
Q 1619 3391 1289 3197 
Q 959 3003 697 2906 
L 697 3450 
Q 1169 3672 1522 3987 
Q 1875 4303 2022 4600 
L 2384 4600 
L 2384 0 
z
" id="ArialMT-31" transform="scale(0.015625)"/>
       </defs>
       <use xlink:href="#ArialMT-32"/>
       <use x="55.615234" xlink:href="#ArialMT-30"/>
       <use x="111.230469" xlink:href="#ArialMT-32"/>
       <use x="166.845703" xlink:href="#ArialMT-30"/>
       <use x="222.460938" xlink:href="#ArialMT-2d"/>
       <use x="255.761719" xlink:href="#ArialMT-31"/>
       <use x="304.001953" xlink:href="#ArialMT-31"/>
      </g>
     </g>
    </g>
    <g id="xtick_6">
     <g id="line2d_6">
      <path clip-path="url(#p61dee79ab3)" d="M 383.813722 298.989375 
L 383.813722 21.789375 
" style="fill:none;stroke:#cccccc;stroke-linecap:round;stroke-width:0.8;"/>
     </g>
     <g id="text_6">
      <!-- 2021-01 -->
      <g style="fill:#262626;" transform="translate(365.466066 313.147188)scale(0.1 -0.1)">
       <use xlink:href="#ArialMT-32"/>
       <use x="55.615234" xlink:href="#ArialMT-30"/>
       <use x="111.230469" xlink:href="#ArialMT-32"/>
       <use x="166.845703" xlink:href="#ArialMT-31"/>
       <use x="222.460938" xlink:href="#ArialMT-2d"/>
       <use x="255.761719" xlink:href="#ArialMT-30"/>
       <use x="311.376953" xlink:href="#ArialMT-31"/>
      </g>
     </g>
    </g>
    <g id="xtick_7">
     <g id="line2d_7">
      <path clip-path="url(#p61dee79ab3)" d="M 440.283705 298.989375 
L 440.283705 21.789375 
" style="fill:none;stroke:#cccccc;stroke-linecap:round;stroke-width:0.8;"/>
     </g>
     <g id="text_7">
      <!-- 2021-03 -->
      <g style="fill:#262626;" transform="translate(421.936049 313.147188)scale(0.1 -0.1)">
       <use xlink:href="#ArialMT-32"/>
       <use x="55.615234" xlink:href="#ArialMT-30"/>
       <use x="111.230469" xlink:href="#ArialMT-32"/>
       <use x="166.845703" xlink:href="#ArialMT-31"/>
       <use x="222.460938" xlink:href="#ArialMT-2d"/>
       <use x="255.761719" xlink:href="#ArialMT-30"/>
       <use x="311.376953" xlink:href="#ArialMT-33"/>
      </g>
     </g>
    </g>
    <g id="xtick_8">
     <g id="line2d_8">
      <path clip-path="url(#p61dee79ab3)" d="M 498.667925 298.989375 
L 498.667925 21.789375 
" style="fill:none;stroke:#cccccc;stroke-linecap:round;stroke-width:0.8;"/>
     </g>
     <g id="text_8">
      <!-- 2021-05 -->
      <g style="fill:#262626;" transform="translate(480.320268 313.147188)scale(0.1 -0.1)">
       <use xlink:href="#ArialMT-32"/>
       <use x="55.615234" xlink:href="#ArialMT-30"/>
       <use x="111.230469" xlink:href="#ArialMT-32"/>
       <use x="166.845703" xlink:href="#ArialMT-31"/>
       <use x="222.460938" xlink:href="#ArialMT-2d"/>
       <use x="255.761719" xlink:href="#ArialMT-30"/>
       <use x="311.376953" xlink:href="#ArialMT-35"/>
      </g>
     </g>
    </g>
    <g id="xtick_9">
     <g id="line2d_9">
      <path clip-path="url(#p61dee79ab3)" d="M 557.052144 298.989375 
L 557.052144 21.789375 
" style="fill:none;stroke:#cccccc;stroke-linecap:round;stroke-width:0.8;"/>
     </g>
     <g id="text_9">
      <!-- 2021-07 -->
      <g style="fill:#262626;" transform="translate(538.704488 313.147188)scale(0.1 -0.1)">
       <use xlink:href="#ArialMT-32"/>
       <use x="55.615234" xlink:href="#ArialMT-30"/>
       <use x="111.230469" xlink:href="#ArialMT-32"/>
       <use x="166.845703" xlink:href="#ArialMT-31"/>
       <use x="222.460938" xlink:href="#ArialMT-2d"/>
       <use x="255.761719" xlink:href="#ArialMT-30"/>
       <use x="311.376953" xlink:href="#ArialMT-37"/>
      </g>
     </g>
    </g>
    <g id="xtick_10">
     <g id="line2d_10">
      <path clip-path="url(#p61dee79ab3)" d="M 616.393482 298.989375 
L 616.393482 21.789375 
" style="fill:none;stroke:#cccccc;stroke-linecap:round;stroke-width:0.8;"/>
     </g>
     <g id="text_10">
      <!-- 2021-09 -->
      <g style="fill:#262626;" transform="translate(598.045826 313.147188)scale(0.1 -0.1)">
       <use xlink:href="#ArialMT-32"/>
       <use x="55.615234" xlink:href="#ArialMT-30"/>
       <use x="111.230469" xlink:href="#ArialMT-32"/>
       <use x="166.845703" xlink:href="#ArialMT-31"/>
       <use x="222.460938" xlink:href="#ArialMT-2d"/>
       <use x="255.761719" xlink:href="#ArialMT-30"/>
       <use x="311.376953" xlink:href="#ArialMT-39"/>
      </g>
     </g>
    </g>
   </g>
   <g id="matplotlib.axis_2">
    <g id="ytick_1">
     <g id="line2d_11">
      <path clip-path="url(#p61dee79ab3)" d="M 82.8 286.389375 
L 640.8 286.389375 
" style="fill:none;stroke:#cccccc;stroke-linecap:round;stroke-width:0.8;"/>
     </g>
     <g id="text_11">
      <!-- 0 -->
      <g style="fill:#262626;" transform="translate(70.239063 289.968281)scale(0.1 -0.1)">
       <use xlink:href="#ArialMT-30"/>
      </g>
     </g>
    </g>
    <g id="ytick_2">
     <g id="line2d_12">
      <path clip-path="url(#p61dee79ab3)" d="M 82.8 248.664824 
L 640.8 248.664824 
" style="fill:none;stroke:#cccccc;stroke-linecap:round;stroke-width:0.8;"/>
     </g>
     <g id="text_12">
      <!-- 50 -->
      <g style="fill:#262626;" transform="translate(64.678125 252.24373)scale(0.1 -0.1)">
       <use xlink:href="#ArialMT-35"/>
       <use x="55.615234" xlink:href="#ArialMT-30"/>
      </g>
     </g>
    </g>
    <g id="ytick_3">
     <g id="line2d_13">
      <path clip-path="url(#p61dee79ab3)" d="M 82.8 210.940273 
L 640.8 210.940273 
" style="fill:none;stroke:#cccccc;stroke-linecap:round;stroke-width:0.8;"/>
     </g>
     <g id="text_13">
      <!-- 100 -->
      <g style="fill:#262626;" transform="translate(59.117188 214.519179)scale(0.1 -0.1)">
       <use xlink:href="#ArialMT-31"/>
       <use x="55.615234" xlink:href="#ArialMT-30"/>
       <use x="111.230469" xlink:href="#ArialMT-30"/>
      </g>
     </g>
    </g>
    <g id="ytick_4">
     <g id="line2d_14">
      <path clip-path="url(#p61dee79ab3)" d="M 82.8 173.215722 
L 640.8 173.215722 
" style="fill:none;stroke:#cccccc;stroke-linecap:round;stroke-width:0.8;"/>
     </g>
     <g id="text_14">
      <!-- 150 -->
      <g style="fill:#262626;" transform="translate(59.117188 176.794629)scale(0.1 -0.1)">
       <use xlink:href="#ArialMT-31"/>
       <use x="55.615234" xlink:href="#ArialMT-35"/>
       <use x="111.230469" xlink:href="#ArialMT-30"/>
      </g>
     </g>
    </g>
    <g id="ytick_5">
     <g id="line2d_15">
      <path clip-path="url(#p61dee79ab3)" d="M 82.8 135.491171 
L 640.8 135.491171 
" style="fill:none;stroke:#cccccc;stroke-linecap:round;stroke-width:0.8;"/>
     </g>
     <g id="text_15">
      <!-- 200 -->
      <g style="fill:#262626;" transform="translate(59.117188 139.070078)scale(0.1 -0.1)">
       <use xlink:href="#ArialMT-32"/>
       <use x="55.615234" xlink:href="#ArialMT-30"/>
       <use x="111.230469" xlink:href="#ArialMT-30"/>
      </g>
     </g>
    </g>
    <g id="ytick_6">
     <g id="line2d_16">
      <path clip-path="url(#p61dee79ab3)" d="M 82.8 97.766621 
L 640.8 97.766621 
" style="fill:none;stroke:#cccccc;stroke-linecap:round;stroke-width:0.8;"/>
     </g>
     <g id="text_16">
      <!-- 250 -->
      <g style="fill:#262626;" transform="translate(59.117188 101.345527)scale(0.1 -0.1)">
       <use xlink:href="#ArialMT-32"/>
       <use x="55.615234" xlink:href="#ArialMT-35"/>
       <use x="111.230469" xlink:href="#ArialMT-30"/>
      </g>
     </g>
    </g>
    <g id="ytick_7">
     <g id="line2d_17">
      <path clip-path="url(#p61dee79ab3)" d="M 82.8 60.04207 
L 640.8 60.04207 
" style="fill:none;stroke:#cccccc;stroke-linecap:round;stroke-width:0.8;"/>
     </g>
     <g id="text_17">
      <!-- 300 -->
      <g style="fill:#262626;" transform="translate(59.117188 63.620976)scale(0.1 -0.1)">
       <use xlink:href="#ArialMT-33"/>
       <use x="55.615234" xlink:href="#ArialMT-30"/>
       <use x="111.230469" xlink:href="#ArialMT-30"/>
      </g>
     </g>
    </g>
    <g id="ytick_8">
     <g id="line2d_18">
      <path clip-path="url(#p61dee79ab3)" d="M 82.8 22.317519 
L 640.8 22.317519 
" style="fill:none;stroke:#cccccc;stroke-linecap:round;stroke-width:0.8;"/>
     </g>
     <g id="text_18">
      <!-- 350 -->
      <g style="fill:#262626;" transform="translate(59.117188 25.896425)scale(0.1 -0.1)">
       <use xlink:href="#ArialMT-33"/>
       <use x="55.615234" xlink:href="#ArialMT-35"/>
       <use x="111.230469" xlink:href="#ArialMT-30"/>
      </g>
     </g>
    </g>
   </g>
   <g id="line2d_19">
    <path clip-path="url(#p61dee79ab3)" d="M 108.163636 278.089974 
L 109.120755 278.089974 
L 110.077873 276.580992 
L 111.034991 276.580992 
L 111.99211 269.036082 
L 112.949228 255.455243 
L 113.906346 254.700752 
L 114.863465 251.682788 
L 115.820583 247.155842 
L 116.777702 246.401351 
L 117.73482 246.401351 
L 118.691938 245.64686 
L 119.649057 242.628896 
L 120.606175 226.030094 
L 121.563293 224.521112 
L 122.520412 224.521112 
L 123.47753 201.886381 
L 124.434648 200.377399 
L 125.391767 213.958237 
L 126.348885 210.185782 
L 127.306003 204.149854 
L 128.263122 202.640872 
L 129.22024 199.622908 
L 130.177358 199.622908 
L 131.134477 198.113926 
L 132.091595 186.796561 
L 133.048714 185.287579 
L 134.005832 189.060034 
L 134.96295 176.233686 
L 135.920069 173.215722 
L 136.877187 170.952249 
L 137.834305 167.179794 
L 138.791424 176.988177 
L 139.748542 176.988177 
L 140.70566 173.970213 
L 141.662779 167.934285 
L 142.619897 142.281591 
L 143.577015 140.772609 
L 144.534134 176.233686 
L 145.491252 178.497159 
L 146.44837 181.515124 
L 147.405489 176.233686 
L 148.362607 181.515124 
L 149.319726 173.215722 
L 150.276844 168.688776 
L 151.233962 169.443267 
L 152.191081 167.179794 
L 153.148199 161.143866 
L 154.105317 158.125902 
L 155.062436 162.652848 
L 156.019554 165.670812 
L 156.976672 161.143866 
L 157.933791 158.125902 
L 158.890909 161.898357 
L 159.848027 146.054046 
L 160.805146 152.844465 
L 161.762264 149.826501 
L 162.719383 146.054046 
L 163.676501 152.089974 
L 164.633619 140.772609 
L 165.590738 139.263626 
L 166.547856 141.5271 
L 167.504974 133.982189 
L 168.462093 137.000153 
L 169.419211 139.263626 
L 170.376329 140.772609 
L 171.333448 138.509135 
L 172.290566 137.754644 
L 173.247684 133.227698 
L 174.204803 134.73668 
L 175.161921 135.491171 
L 176.119039 123.419315 
L 177.076158 122.664824 
L 178.033276 124.173806 
L 178.990395 129.455243 
L 179.947513 129.455243 
L 180.904631 128.700752 
L 181.86175 127.19177 
L 182.818868 122.664824 
L 183.775986 122.664824 
L 184.733105 110.592968 
L 185.690223 115.874405 
L 186.647341 109.083986 
L 187.60446 114.365423 
L 188.561578 106.820513 
L 189.518696 109.838477 
L 190.475815 103.802549 
L 191.432933 112.856441 
L 192.390051 120.401351 
L 193.34717 122.664824 
L 194.304288 126.437279 
L 195.261407 130.964225 
L 196.218525 127.946261 
L 197.175643 122.664824 
L 198.132762 121.910333 
L 199.08988 118.892369 
L 200.046998 123.419315 
L 201.004117 135.491171 
L 201.961235 137.000153 
L 202.918353 131.718716 
L 203.875472 134.73668 
L 204.83259 141.5271 
L 205.789708 144.545064 
L 206.746827 150.580992 
L 207.703945 150.580992 
L 208.661063 156.61692 
L 209.618182 149.07201 
L 210.5753 152.844465 
L 211.532419 154.353447 
L 212.489537 157.371411 
L 213.446655 148.317519 
L 214.403774 164.916321 
L 215.360892 162.652848 
L 216.31801 161.898357 
L 217.275129 166.425303 
L 218.232247 171.70674 
L 219.189365 170.197758 
L 220.146484 149.826501 
L 221.103602 161.898357 
L 222.06072 153.598956 
L 223.017839 148.317519 
L 223.974957 156.61692 
L 224.932075 154.353447 
L 226.846312 158.880393 
L 227.803431 154.353447 
L 228.760549 157.371411 
L 229.717667 152.844465 
L 230.674786 154.353447 
L 232.589022 158.880393 
L 233.546141 163.407339 
L 234.503259 170.952249 
L 235.460377 173.215722 
L 236.417496 173.970213 
L 237.374614 177.742668 
L 238.331732 180.006141 
L 239.288851 177.742668 
L 240.245969 184.533088 
L 241.203087 188.305543 
L 242.160206 196.604944 
L 243.117324 194.341471 
L 244.074443 195.850453 
L 245.031561 208.6768 
L 245.988679 203.395363 
L 246.945798 207.167818 
L 247.902916 211.694764 
L 248.860034 208.6768 
L 249.817153 207.922309 
L 250.774271 204.904345 
L 251.731389 203.395363 
L 252.688508 202.640872 
L 253.645626 189.814525 
L 254.602744 198.113926 
L 256.516981 207.167818 
L 257.474099 204.904345 
L 258.431218 214.712728 
L 259.388336 215.467219 
L 260.345455 213.203746 
L 261.302573 215.467219 
L 262.259691 219.239674 
L 263.21681 213.203746 
L 264.173928 221.503147 
L 265.131046 207.167818 
L 266.088165 197.359435 
L 267.045283 195.850453 
L 268.002401 199.622908 
L 268.95952 201.13189 
L 269.916638 201.13189 
L 270.873756 203.395363 
L 271.830875 203.395363 
L 272.787993 211.694764 
L 273.745111 210.185782 
L 274.70223 200.377399 
L 275.659348 203.395363 
L 276.616467 200.377399 
L 277.573585 199.622908 
L 278.530703 200.377399 
L 279.487822 203.395363 
L 281.402058 212.449255 
L 282.359177 213.203746 
L 283.316295 210.940273 
L 284.273413 209.431291 
L 286.18765 210.940273 
L 287.144768 217.730692 
L 288.101887 217.730692 
L 289.059005 231.311531 
L 290.016123 229.048058 
L 290.973242 227.539076 
L 291.93036 223.012129 
L 292.887479 221.503147 
L 293.844597 222.257638 
L 294.801715 219.239674 
L 295.758834 223.012129 
L 296.715952 222.257638 
L 297.67307 217.730692 
L 298.630189 219.239674 
L 299.587307 219.994165 
L 300.544425 214.712728 
L 301.501544 210.940273 
L 302.458662 213.203746 
L 303.41578 210.185782 
L 304.372899 212.449255 
L 305.330017 209.431291 
L 306.287136 214.712728 
L 307.244254 215.467219 
L 308.201372 214.712728 
L 309.158491 212.449255 
L 310.115609 213.958237 
L 311.072727 216.976201 
L 312.029846 216.22171 
L 312.986964 216.22171 
L 313.944082 213.203746 
L 314.901201 207.167818 
L 315.858319 204.904345 
L 316.815437 205.658836 
L 317.772556 207.922309 
L 318.729674 204.149854 
L 319.686792 204.149854 
L 320.643911 201.886381 
L 321.601029 195.095962 
L 322.558148 196.604944 
L 323.515266 193.58698 
L 324.472384 193.58698 
L 325.429503 190.569016 
L 326.386621 186.796561 
L 327.343739 180.760632 
L 328.300858 189.060034 
L 329.257976 194.341471 
L 330.215094 189.060034 
L 331.172213 183.024106 
L 332.129331 186.04207 
L 333.086449 179.25165 
L 334.043568 174.724704 
L 335.000686 164.916321 
L 335.957804 166.425303 
L 336.914923 169.443267 
L 337.872041 173.970213 
L 338.82916 173.215722 
L 339.786278 168.688776 
L 340.743396 169.443267 
L 341.700515 153.598956 
L 342.657633 149.826501 
L 343.614751 152.089974 
L 344.57187 138.509135 
L 345.528988 139.263626 
L 346.486106 143.790573 
L 347.443225 137.754644 
L 348.400343 132.473207 
L 349.357461 132.473207 
L 350.31458 134.73668 
L 351.271698 127.946261 
L 352.228816 138.509135 
L 353.185935 142.281591 
L 354.143053 147.563028 
L 355.100172 140.018118 
L 356.05729 141.5271 
L 357.014408 149.07201 
L 357.971527 145.299555 
L 358.928645 155.862429 
L 359.885763 164.916321 
L 360.842882 155.862429 
L 361.8 142.281591 
L 362.757118 154.353447 
L 363.714237 150.580992 
L 364.671355 149.07201 
L 365.628473 155.862429 
L 368.499828 171.70674 
L 369.456947 170.197758 
L 370.414065 169.443267 
L 371.371184 174.724704 
L 372.328302 178.497159 
L 373.28542 173.970213 
L 374.242539 170.952249 
L 375.199657 170.952249 
L 376.156775 175.479195 
L 377.113894 182.269615 
L 378.071012 184.533088 
L 379.02813 178.497159 
L 379.985249 177.742668 
L 380.942367 173.215722 
L 381.899485 175.479195 
L 382.856604 173.970213 
L 383.813722 183.778597 
L 384.77084 180.760632 
L 385.727959 187.551052 
L 386.685077 197.359435 
L 387.642196 195.850453 
L 388.599314 195.095962 
L 389.556432 196.604944 
L 390.513551 192.832489 
L 392.427787 194.341471 
L 393.384906 184.533088 
L 394.342024 187.551052 
L 395.299142 179.25165 
L 396.256261 180.006141 
L 397.213379 176.233686 
L 399.127616 185.287579 
L 400.084734 178.497159 
L 401.041852 181.515124 
L 401.998971 187.551052 
L 402.956089 195.850453 
L 403.913208 189.060034 
L 404.870326 192.832489 
L 405.827444 189.814525 
L 406.784563 199.622908 
L 407.741681 204.149854 
L 408.698799 195.095962 
L 409.655918 201.13189 
L 410.613036 196.604944 
L 411.570154 201.886381 
L 412.527273 204.149854 
L 413.484391 195.095962 
L 414.441509 194.341471 
L 415.398628 191.323507 
L 416.355746 196.604944 
L 417.312864 195.850453 
L 418.269983 196.604944 
L 419.227101 200.377399 
L 420.18422 203.395363 
L 421.141338 210.185782 
L 422.098456 210.940273 
L 423.055575 209.431291 
L 424.012693 206.413327 
L 424.969811 216.976201 
L 425.92693 216.22171 
L 426.884048 206.413327 
L 427.841166 203.395363 
L 428.798285 214.712728 
L 429.755403 214.712728 
L 430.712521 211.694764 
L 431.66964 213.958237 
L 432.626758 209.431291 
L 433.583877 202.640872 
L 434.540995 198.113926 
L 435.498113 201.13189 
L 436.455232 191.323507 
L 437.41235 192.077998 
L 438.369468 205.658836 
L 439.326587 189.060034 
L 440.283705 180.760632 
L 441.240823 186.796561 
L 442.197942 178.497159 
L 443.15506 180.006141 
L 444.112178 177.742668 
L 445.069297 186.796561 
L 446.026415 183.778597 
L 446.983533 173.970213 
L 447.940652 169.443267 
L 449.854889 161.898357 
L 451.769125 148.317519 
L 452.726244 139.263626 
L 453.683362 133.982189 
L 454.64048 118.892369 
L 455.597599 115.874405 
L 456.554717 112.10195 
L 457.511835 106.820513 
L 458.468954 95.503147 
L 459.426072 81.922309 
L 460.38319 74.377399 
L 461.340309 64.569016 
L 462.297427 57.778597 
L 463.254545 39.670812 
L 464.211664 49.479195 
L 465.168782 40.425303 
L 466.125901 44.197758 
L 467.083019 44.197758 
L 468.040137 34.389375 
L 468.997256 35.898357 
L 469.954374 41.179794 
L 470.911492 37.407339 
L 471.868611 42.688776 
L 472.825729 44.197758 
L 473.782847 41.179794 
L 474.739966 45.70674 
L 475.697084 46.461231 
L 476.654202 56.269615 
L 477.611321 55.515124 
L 478.568439 81.922309 
L 479.525557 87.958237 
L 480.482676 78.904345 
L 481.439794 87.203746 
L 482.396913 84.940273 
L 483.354031 81.922309 
L 484.311149 91.730692 
L 485.268268 78.904345 
L 486.225386 97.012129 
L 487.182504 89.467219 
L 488.139623 90.976201 
L 489.096741 99.275603 
L 490.053859 109.083986 
L 491.010978 109.838477 
L 491.968096 118.892369 
L 492.925214 125.682788 
L 493.882333 122.664824 
L 494.839451 127.19177 
L 495.796569 136.245662 
L 496.753688 133.227698 
L 497.710806 128.700752 
L 498.667925 113.610932 
L 499.625043 121.910333 
L 500.582161 124.173806 
L 501.53928 130.209734 
L 502.496398 118.892369 
L 503.453516 110.592968 
L 504.410635 123.419315 
L 505.367753 133.227698 
L 506.324871 118.137878 
L 507.28199 121.155842 
L 508.239108 115.874405 
L 509.196226 121.155842 
L 510.153345 122.664824 
L 511.110463 127.946261 
L 512.067581 121.155842 
L 513.0247 112.10195 
L 513.981818 109.838477 
L 514.938937 105.311531 
L 515.896055 107.575004 
L 516.853173 111.347459 
L 517.810292 100.030094 
L 518.76741 98.521112 
L 519.724528 97.766621 
L 520.681647 100.030094 
L 521.638765 94.748656 
L 522.595883 90.22171 
L 523.553002 80.413327 
L 524.51012 78.149854 
L 525.467238 68.341471 
L 526.424357 78.149854 
L 527.381475 74.377399 
L 528.338593 90.976201 
L 529.295712 92.485183 
L 530.25283 94.748656 
L 531.209949 93.239674 
L 532.167067 97.766621 
L 533.124185 93.239674 
L 534.081304 92.485183 
L 535.038422 92.485183 
L 535.99554 105.311531 
L 536.952659 112.856441 
L 537.909777 109.083986 
L 538.866895 115.119914 
L 539.824014 111.347459 
L 540.781132 115.874405 
L 541.73825 119.64686 
L 542.695369 117.383387 
L 543.652487 124.173806 
L 544.609605 124.173806 
L 545.566724 134.73668 
L 546.523842 140.018118 
L 547.480961 135.491171 
L 549.395197 148.317519 
L 550.352316 152.089974 
L 551.309434 158.880393 
L 552.266552 158.880393 
L 553.223671 167.934285 
L 554.180789 170.952249 
L 555.137907 176.988177 
L 556.095026 182.269615 
L 557.052144 188.305543 
L 558.009262 184.533088 
L 558.966381 192.832489 
L 559.923499 197.359435 
L 560.880617 191.323507 
L 561.837736 194.341471 
L 562.794854 192.832489 
L 564.709091 200.377399 
L 565.666209 199.622908 
L 566.623328 192.077998 
L 567.580446 195.095962 
L 568.537564 179.25165 
L 569.494683 182.269615 
L 570.451801 191.323507 
L 571.408919 186.796561 
L 572.366038 191.323507 
L 573.323156 196.604944 
L 574.280274 192.077998 
L 575.237393 200.377399 
L 576.194511 200.377399 
L 577.15163 204.904345 
L 578.108748 204.149854 
L 579.065866 211.694764 
L 580.022985 212.449255 
L 580.980103 219.239674 
L 581.937221 222.257638 
L 582.89434 214.712728 
L 583.851458 225.275603 
L 584.808576 225.275603 
L 585.765695 216.976201 
L 587.679931 219.994165 
L 588.63705 217.730692 
L 589.594168 216.976201 
L 590.551286 216.976201 
L 591.508405 214.712728 
L 592.465523 215.467219 
L 593.422642 211.694764 
L 594.37976 211.694764 
L 595.336878 212.449255 
L 596.293997 210.940273 
L 597.251115 220.748656 
L 598.208233 216.976201 
L 599.165352 219.239674 
L 600.12247 220.748656 
L 601.079588 223.766621 
L 602.036707 222.257638 
L 602.993825 222.257638 
L 603.950943 225.275603 
L 604.908062 227.539076 
L 606.822298 230.55704 
L 607.779417 236.592968 
L 608.736535 235.838477 
L 609.693654 245.64686 
L 610.650772 235.838477 
L 611.60789 232.820513 
L 612.565009 234.329495 
L 613.522127 236.592968 
L 614.479245 241.874405 
L 615.436364 242.628896 
L 615.436364 242.628896 
" style="fill:none;stroke:#1f77b4;stroke-linecap:round;stroke-width:1.5;"/>
   </g>
   <g id="line2d_20">
    <path clip-path="url(#p61dee79ab3)" d="M 108.163636 286.389375 
L 109.120755 286.389375 
L 110.077873 281.107938 
L 111.034991 281.107938 
L 111.99211 279.598956 
L 112.949228 272.054046 
L 113.906346 272.808537 
L 114.863465 269.790573 
L 118.691938 269.790573 
L 119.649057 270.545064 
L 120.606175 267.5271 
L 121.563293 269.036082 
L 122.520412 268.281591 
L 123.47753 265.263626 
L 124.434648 265.263626 
L 125.391767 261.491171 
L 126.348885 258.473207 
L 127.306003 258.473207 
L 128.263122 262.245662 
L 130.177358 262.245662 
L 131.134477 261.491171 
L 132.091595 257.718716 
L 133.048714 259.982189 
L 134.005832 264.509135 
L 134.96295 258.473207 
L 135.920069 253.19177 
L 136.877187 252.437279 
L 137.834305 245.64686 
L 138.791424 250.173806 
L 139.748542 248.664824 
L 140.70566 245.64686 
L 141.662779 238.856441 
L 142.619897 235.083986 
L 143.577015 232.820513 
L 144.534134 238.856441 
L 145.491252 238.856441 
L 147.405489 241.874405 
L 148.362607 238.856441 
L 149.319726 233.575004 
L 150.276844 231.311531 
L 151.233962 229.802549 
L 152.191081 230.55704 
L 153.148199 225.275603 
L 154.105317 225.275603 
L 155.062436 232.820513 
L 156.019554 234.329495 
L 156.976672 229.048058 
L 157.933791 229.048058 
L 159.848027 232.066022 
L 160.805146 236.592968 
L 161.762264 233.575004 
L 162.719383 231.311531 
L 163.676501 235.838477 
L 164.633619 229.048058 
L 165.590738 229.048058 
L 166.547856 227.539076 
L 167.504974 230.55704 
L 168.462093 226.030094 
L 169.419211 226.030094 
L 170.376329 222.257638 
L 171.333448 223.012129 
L 173.247684 221.503147 
L 174.204803 228.293567 
L 175.161921 230.55704 
L 176.119039 225.275603 
L 177.076158 229.048058 
L 178.033276 225.275603 
L 178.990395 220.748656 
L 179.947513 219.239674 
L 180.904631 218.485183 
L 181.86175 221.503147 
L 182.818868 219.239674 
L 183.775986 219.239674 
L 184.733105 214.712728 
L 185.690223 216.976201 
L 186.647341 215.467219 
L 187.60446 215.467219 
L 188.561578 207.922309 
L 189.518696 211.694764 
L 190.475815 216.976201 
L 191.432933 219.239674 
L 192.390051 212.449255 
L 193.34717 216.976201 
L 194.304288 223.012129 
L 195.261407 225.275603 
L 197.175643 223.766621 
L 198.132762 219.239674 
L 199.08988 221.503147 
L 200.046998 219.994165 
L 201.004117 223.012129 
L 201.961235 222.257638 
L 202.918353 223.012129 
L 203.875472 227.539076 
L 204.83259 234.329495 
L 205.789708 233.575004 
L 206.746827 230.55704 
L 207.703945 231.311531 
L 208.661063 234.329495 
L 209.618182 232.066022 
L 210.5753 230.55704 
L 211.532419 231.311531 
L 212.489537 231.311531 
L 213.446655 229.802549 
L 214.403774 236.592968 
L 215.360892 236.592968 
L 216.31801 235.838477 
L 217.275129 238.856441 
L 218.232247 240.365423 
L 219.189365 236.592968 
L 220.146484 231.311531 
L 221.103602 233.575004 
L 222.06072 227.539076 
L 223.017839 230.55704 
L 223.974957 236.592968 
L 224.932075 238.856441 
L 225.889194 237.347459 
L 226.846312 237.347459 
L 227.803431 238.856441 
L 228.760549 233.575004 
L 229.717667 235.083986 
L 230.674786 237.347459 
L 231.631904 237.347459 
L 232.589022 233.575004 
L 233.546141 233.575004 
L 234.503259 238.10195 
L 235.460377 238.10195 
L 236.417496 238.856441 
L 237.374614 241.874405 
L 238.331732 243.383387 
L 239.288851 244.137878 
L 240.245969 246.401351 
L 241.203087 250.173806 
L 242.160206 249.419315 
L 243.117324 246.401351 
L 244.074443 247.155842 
L 245.031561 252.437279 
L 245.988679 252.437279 
L 246.945798 251.682788 
L 247.902916 255.455243 
L 248.860034 254.700752 
L 249.817153 253.19177 
L 250.774271 250.173806 
L 251.731389 251.682788 
L 252.688508 251.682788 
L 253.645626 248.664824 
L 254.602744 253.946261 
L 255.559863 253.946261 
L 256.516981 258.473207 
L 257.474099 256.209734 
L 258.431218 259.227698 
L 259.388336 259.227698 
L 260.345455 259.982189 
L 261.302573 256.964225 
L 263.21681 256.964225 
L 264.173928 260.73668 
L 265.131046 254.700752 
L 266.088165 256.209734 
L 267.045283 252.437279 
L 268.002401 253.946261 
L 268.95952 253.19177 
L 269.916638 253.946261 
L 270.873756 251.682788 
L 271.830875 253.946261 
L 272.787993 255.455243 
L 273.745111 254.700752 
L 274.70223 250.173806 
L 275.659348 251.682788 
L 276.616467 247.910333 
L 277.573585 248.664824 
L 278.530703 253.19177 
L 279.487822 259.227698 
L 280.44494 255.455243 
L 281.402058 255.455243 
L 282.359177 256.209734 
L 283.316295 254.700752 
L 285.230532 256.209734 
L 286.18765 255.455243 
L 287.144768 256.964225 
L 288.101887 262.245662 
L 289.059005 261.491171 
L 290.016123 256.964225 
L 290.973242 257.718716 
L 291.93036 256.964225 
L 292.887479 254.700752 
L 293.844597 253.19177 
L 294.801715 253.19177 
L 295.758834 256.209734 
L 296.715952 257.718716 
L 297.67307 256.964225 
L 299.587307 256.964225 
L 300.544425 256.209734 
L 301.501544 254.700752 
L 302.458662 256.209734 
L 303.41578 256.964225 
L 304.372899 255.455243 
L 305.330017 254.700752 
L 306.287136 258.473207 
L 307.244254 261.491171 
L 308.201372 259.227698 
L 309.158491 261.491171 
L 310.115609 261.491171 
L 311.072727 259.982189 
L 312.029846 262.245662 
L 312.986964 258.473207 
L 313.944082 256.209734 
L 314.901201 255.455243 
L 315.858319 252.437279 
L 318.729674 252.437279 
L 320.643911 249.419315 
L 321.601029 246.401351 
L 322.558148 251.682788 
L 323.515266 251.682788 
L 324.472384 250.928297 
L 325.429503 249.419315 
L 326.386621 246.401351 
L 327.343739 247.155842 
L 329.257976 245.64686 
L 330.215094 244.137878 
L 331.172213 241.874405 
L 332.129331 244.892369 
L 333.086449 235.838477 
L 334.043568 233.575004 
L 335.000686 235.083986 
L 335.957804 234.329495 
L 336.914923 226.784585 
L 337.872041 234.329495 
L 338.82916 233.575004 
L 339.786278 235.838477 
L 340.743396 235.083986 
L 341.700515 227.539076 
L 342.657633 226.030094 
L 343.614751 226.030094 
L 344.57187 216.22171 
L 345.528988 219.994165 
L 346.486106 225.275603 
L 347.443225 221.503147 
L 348.400343 222.257638 
L 349.357461 222.257638 
L 350.31458 223.766621 
L 351.271698 223.012129 
L 352.228816 228.293567 
L 353.185935 229.048058 
L 354.143053 223.766621 
L 355.100172 220.748656 
L 356.05729 222.257638 
L 357.014408 226.784585 
L 357.971527 228.293567 
L 358.928645 226.784585 
L 359.885763 235.083986 
L 360.842882 229.048058 
L 361.8 229.048058 
L 362.757118 225.275603 
L 363.714237 220.748656 
L 364.671355 223.766621 
L 365.628473 223.766621 
L 366.585592 229.048058 
L 367.54271 231.311531 
L 368.499828 229.048058 
L 369.456947 228.293567 
L 370.414065 231.311531 
L 371.371184 235.838477 
L 372.328302 232.820513 
L 373.28542 230.55704 
L 374.242539 232.066022 
L 375.199657 226.784585 
L 376.156775 232.066022 
L 377.113894 235.083986 
L 378.071012 235.083986 
L 379.02813 226.784585 
L 379.985249 235.083986 
L 380.942367 235.083986 
L 381.899485 238.856441 
L 382.856604 236.592968 
L 383.813722 235.083986 
L 384.77084 236.592968 
L 385.727959 237.347459 
L 386.685077 239.610932 
L 387.642196 241.119914 
L 388.599314 241.874405 
L 389.556432 243.383387 
L 390.513551 241.874405 
L 391.470669 238.856441 
L 392.427787 237.347459 
L 393.384906 232.820513 
L 394.342024 233.575004 
L 395.299142 228.293567 
L 396.256261 226.784585 
L 397.213379 223.766621 
L 398.170497 225.275603 
L 399.127616 227.539076 
L 401.041852 230.55704 
L 401.998971 231.311531 
L 402.956089 233.575004 
L 403.913208 232.066022 
L 404.870326 234.329495 
L 405.827444 229.048058 
L 406.784563 229.802549 
L 407.741681 232.066022 
L 408.698799 231.311531 
L 409.655918 236.592968 
L 412.527273 238.856441 
L 413.484391 235.838477 
L 414.441509 231.311531 
L 415.398628 235.838477 
L 416.355746 232.820513 
L 417.312864 236.592968 
L 418.269983 238.10195 
L 419.227101 242.628896 
L 420.18422 245.64686 
L 421.141338 247.155842 
L 422.098456 244.892369 
L 423.055575 245.64686 
L 424.012693 243.383387 
L 424.969811 250.928297 
L 425.92693 251.682788 
L 426.884048 240.365423 
L 427.841166 244.137878 
L 428.798285 242.628896 
L 429.755403 243.383387 
L 430.712521 239.610932 
L 431.66964 242.628896 
L 432.626758 244.137878 
L 433.583877 241.874405 
L 434.540995 243.383387 
L 435.498113 248.664824 
L 437.41235 239.610932 
L 438.369468 244.892369 
L 439.326587 240.365423 
L 440.283705 237.347459 
L 441.240823 239.610932 
L 442.197942 236.592968 
L 443.15506 236.592968 
L 444.112178 237.347459 
L 445.069297 243.383387 
L 446.026415 233.575004 
L 446.983533 236.592968 
L 447.940652 238.856441 
L 448.89777 232.066022 
L 449.854889 229.048058 
L 450.812007 223.766621 
L 451.769125 211.694764 
L 452.726244 204.904345 
L 453.683362 213.958237 
L 454.64048 201.886381 
L 455.597599 196.604944 
L 456.554717 198.113926 
L 457.511835 186.796561 
L 458.468954 190.569016 
L 459.426072 186.04207 
L 460.38319 187.551052 
L 461.340309 180.760632 
L 462.297427 177.742668 
L 463.254545 165.670812 
L 464.211664 163.407339 
L 465.168782 155.862429 
L 466.125901 151.335483 
L 467.083019 154.353447 
L 468.040137 152.089974 
L 468.997256 150.580992 
L 469.954374 147.563028 
L 471.868611 146.054046 
L 472.825729 149.07201 
L 473.782847 146.808537 
L 474.739966 146.054046 
L 476.654202 143.036082 
L 477.611321 144.545064 
L 478.568439 153.598956 
L 479.525557 153.598956 
L 481.439794 165.670812 
L 482.396913 162.652848 
L 483.354031 158.880393 
L 484.311149 168.688776 
L 485.268268 163.407339 
L 486.225386 172.461231 
L 488.139623 175.479195 
L 489.096741 180.760632 
L 490.053859 189.060034 
L 491.010978 189.814525 
L 491.968096 194.341471 
L 493.882333 192.832489 
L 494.839451 197.359435 
L 495.796569 202.640872 
L 496.753688 198.113926 
L 497.710806 202.640872 
L 498.667925 183.024106 
L 499.625043 198.868417 
L 500.582161 205.658836 
L 501.53928 208.6768 
L 502.496398 198.868417 
L 503.453516 197.359435 
L 504.410635 204.149854 
L 505.367753 200.377399 
L 506.324871 182.269615 
L 507.28199 194.341471 
L 508.239108 192.832489 
L 509.196226 193.58698 
L 510.153345 199.622908 
L 511.110463 204.904345 
L 512.067581 198.868417 
L 513.0247 198.113926 
L 513.981818 194.341471 
L 514.938937 189.814525 
L 515.896055 191.323507 
L 516.853173 195.850453 
L 517.810292 193.58698 
L 518.76741 183.778597 
L 519.724528 183.778597 
L 520.681647 186.04207 
L 521.638765 186.796561 
L 522.595883 183.024106 
L 523.553002 180.760632 
L 524.51012 176.233686 
L 525.467238 174.724704 
L 526.424357 179.25165 
L 527.381475 167.934285 
L 528.338593 176.988177 
L 529.295712 178.497159 
L 530.25283 173.970213 
L 531.209949 168.688776 
L 532.167067 178.497159 
L 533.124185 180.760632 
L 534.081304 181.515124 
L 535.038422 183.778597 
L 535.99554 192.077998 
L 536.952659 195.850453 
L 537.909777 193.58698 
L 538.866895 198.868417 
L 539.824014 197.359435 
L 540.781132 198.868417 
L 541.73825 201.13189 
L 542.695369 200.377399 
L 543.652487 210.185782 
L 544.609605 207.922309 
L 545.566724 208.6768 
L 546.523842 211.694764 
L 547.480961 203.395363 
L 548.438079 204.904345 
L 549.395197 207.922309 
L 550.352316 213.958237 
L 551.309434 222.257638 
L 552.266552 226.030094 
L 553.223671 219.239674 
L 554.180789 219.994165 
L 555.137907 223.766621 
L 556.095026 225.275603 
L 557.052144 227.539076 
L 558.009262 222.257638 
L 558.966381 226.784585 
L 559.923499 230.55704 
L 560.880617 229.048058 
L 561.837736 228.293567 
L 563.751973 234.329495 
L 565.666209 237.347459 
L 566.623328 232.820513 
L 567.580446 235.838477 
L 568.537564 229.802549 
L 569.494683 226.784585 
L 570.451801 229.048058 
L 571.408919 228.293567 
L 572.366038 224.521112 
L 573.323156 229.802549 
L 574.280274 230.55704 
L 575.237393 234.329495 
L 578.108748 241.119914 
L 579.065866 242.628896 
L 580.022985 246.401351 
L 580.980103 244.137878 
L 581.937221 245.64686 
L 582.89434 240.365423 
L 583.851458 247.910333 
L 584.808576 247.910333 
L 585.765695 250.173806 
L 586.722813 247.155842 
L 588.63705 247.155842 
L 589.594168 245.64686 
L 590.551286 245.64686 
L 591.508405 242.628896 
L 592.465523 246.401351 
L 593.422642 247.155842 
L 594.37976 246.401351 
L 595.336878 241.874405 
L 596.293997 244.137878 
L 597.251115 245.64686 
L 598.208233 244.137878 
L 599.165352 247.155842 
L 600.12247 245.64686 
L 601.079588 244.892369 
L 602.036707 247.910333 
L 602.993825 250.173806 
L 603.950943 251.682788 
L 604.908062 251.682788 
L 605.86518 252.437279 
L 606.822298 253.946261 
L 607.779417 258.473207 
L 608.736535 257.718716 
L 609.693654 263.000153 
L 610.650772 257.718716 
L 611.60789 255.455243 
L 612.565009 253.946261 
L 613.522127 255.455243 
L 614.479245 256.209734 
L 615.436364 259.982189 
L 615.436364 259.982189 
" style="fill:none;stroke:#ff7f0e;stroke-linecap:round;stroke-width:1.5;"/>
   </g>
   <g id="patch_3">
    <path d="M 82.8 298.989375 
L 82.8 21.789375 
" style="fill:none;stroke:#cccccc;stroke-linecap:square;stroke-linejoin:miter;stroke-width:0.8;"/>
   </g>
   <g id="patch_4">
    <path d="M 640.8 298.989375 
L 640.8 21.789375 
" style="fill:none;stroke:#cccccc;stroke-linecap:square;stroke-linejoin:miter;stroke-width:0.8;"/>
   </g>
   <g id="patch_5">
    <path d="M 82.8 298.989375 
L 640.8 298.989375 
" style="fill:none;stroke:#cccccc;stroke-linecap:square;stroke-linejoin:miter;stroke-width:0.8;"/>
   </g>
   <g id="patch_6">
    <path d="M 82.8 21.789375 
L 640.8 21.789375 
" style="fill:none;stroke:#cccccc;stroke-linecap:square;stroke-linejoin:miter;stroke-width:0.8;"/>
   </g>
   <g id="text_19">
    <!-- Internações -->
    <g style="fill:#262626;" transform="translate(330.449063 15.789375)scale(0.12 -0.12)">
     <defs>
      <path d="M 597 0 
L 597 4581 
L 1203 4581 
L 1203 0 
L 597 0 
z
" id="ArialMT-49" transform="scale(0.015625)"/>
      <path d="M 422 0 
L 422 3319 
L 928 3319 
L 928 2847 
Q 1294 3394 1984 3394 
Q 2284 3394 2536 3286 
Q 2788 3178 2913 3003 
Q 3038 2828 3088 2588 
Q 3119 2431 3119 2041 
L 3119 0 
L 2556 0 
L 2556 2019 
Q 2556 2363 2490 2533 
Q 2425 2703 2258 2804 
Q 2091 2906 1866 2906 
Q 1506 2906 1245 2678 
Q 984 2450 984 1813 
L 984 0 
L 422 0 
z
" id="ArialMT-6e" transform="scale(0.015625)"/>
      <path d="M 1650 503 
L 1731 6 
Q 1494 -44 1306 -44 
Q 1000 -44 831 53 
Q 663 150 594 308 
Q 525 466 525 972 
L 525 2881 
L 113 2881 
L 113 3319 
L 525 3319 
L 525 4141 
L 1084 4478 
L 1084 3319 
L 1650 3319 
L 1650 2881 
L 1084 2881 
L 1084 941 
Q 1084 700 1114 631 
Q 1144 563 1211 522 
Q 1278 481 1403 481 
Q 1497 481 1650 503 
z
" id="ArialMT-74" transform="scale(0.015625)"/>
      <path d="M 2694 1069 
L 3275 997 
Q 3138 488 2766 206 
Q 2394 -75 1816 -75 
Q 1088 -75 661 373 
Q 234 822 234 1631 
Q 234 2469 665 2931 
Q 1097 3394 1784 3394 
Q 2450 3394 2872 2941 
Q 3294 2488 3294 1666 
Q 3294 1616 3291 1516 
L 816 1516 
Q 847 969 1125 678 
Q 1403 388 1819 388 
Q 2128 388 2347 550 
Q 2566 713 2694 1069 
z
M 847 1978 
L 2700 1978 
Q 2663 2397 2488 2606 
Q 2219 2931 1791 2931 
Q 1403 2931 1139 2672 
Q 875 2413 847 1978 
z
" id="ArialMT-65" transform="scale(0.015625)"/>
      <path d="M 416 0 
L 416 3319 
L 922 3319 
L 922 2816 
Q 1116 3169 1280 3281 
Q 1444 3394 1641 3394 
Q 1925 3394 2219 3213 
L 2025 2691 
Q 1819 2813 1613 2813 
Q 1428 2813 1281 2702 
Q 1134 2591 1072 2394 
Q 978 2094 978 1738 
L 978 0 
L 416 0 
z
" id="ArialMT-72" transform="scale(0.015625)"/>
      <path d="M 2588 409 
Q 2275 144 1986 34 
Q 1697 -75 1366 -75 
Q 819 -75 525 192 
Q 231 459 231 875 
Q 231 1119 342 1320 
Q 453 1522 633 1644 
Q 813 1766 1038 1828 
Q 1203 1872 1538 1913 
Q 2219 1994 2541 2106 
Q 2544 2222 2544 2253 
Q 2544 2597 2384 2738 
Q 2169 2928 1744 2928 
Q 1347 2928 1158 2789 
Q 969 2650 878 2297 
L 328 2372 
Q 403 2725 575 2942 
Q 747 3159 1072 3276 
Q 1397 3394 1825 3394 
Q 2250 3394 2515 3294 
Q 2781 3194 2906 3042 
Q 3031 2891 3081 2659 
Q 3109 2516 3109 2141 
L 3109 1391 
Q 3109 606 3145 398 
Q 3181 191 3288 0 
L 2700 0 
Q 2613 175 2588 409 
z
M 2541 1666 
Q 2234 1541 1622 1453 
Q 1275 1403 1131 1340 
Q 988 1278 909 1158 
Q 831 1038 831 891 
Q 831 666 1001 516 
Q 1172 366 1500 366 
Q 1825 366 2078 508 
Q 2331 650 2450 897 
Q 2541 1088 2541 1459 
L 2541 1666 
z
" id="ArialMT-61" transform="scale(0.015625)"/>
      <path d="M 2588 1216 
L 3141 1144 
Q 3050 572 2676 248 
Q 2303 -75 1759 -75 
Q 1078 -75 664 370 
Q 250 816 250 1647 
Q 250 2184 428 2587 
Q 606 2991 970 3192 
Q 1334 3394 1763 3394 
Q 2303 3394 2647 3120 
Q 2991 2847 3088 2344 
L 2541 2259 
Q 2463 2594 2264 2762 
Q 2066 2931 1784 2931 
Q 1359 2931 1093 2626 
Q 828 2322 828 1663 
Q 828 994 1084 691 
Q 1341 388 1753 388 
Q 2084 388 2306 591 
Q 2528 794 2588 1216 
z
M 1283 -417 
L 1446 136 
L 1864 136 
L 1761 -199 
Q 2027 -230 2161 -362 
Q 2296 -495 2296 -658 
Q 2296 -892 2071 -1072 
Q 1846 -1252 1392 -1252 
Q 1136 -1252 942 -1214 
L 977 -849 
Q 1177 -861 1271 -861 
Q 1564 -861 1683 -780 
Q 1774 -717 1774 -627 
Q 1774 -570 1738 -526 
Q 1702 -483 1605 -451 
Q 1508 -420 1283 -417 
z
" id="ArialMT-e7" transform="scale(0.015625)"/>
      <path d="M 213 1659 
Q 213 2581 725 3025 
Q 1153 3394 1769 3394 
Q 2453 3394 2887 2945 
Q 3322 2497 3322 1706 
Q 3322 1066 3130 698 
Q 2938 331 2570 128 
Q 2203 -75 1769 -75 
Q 1072 -75 642 372 
Q 213 819 213 1659 
z
M 791 1659 
Q 791 1022 1069 705 
Q 1347 388 1769 388 
Q 2188 388 2466 706 
Q 2744 1025 2744 1678 
Q 2744 2294 2464 2611 
Q 2184 2928 1769 2928 
Q 1347 2928 1069 2612 
Q 791 2297 791 1659 
z
M 726 3809 
Q 723 4134 904 4328 
Q 1082 4522 1360 4522 
Q 1554 4522 1888 4353 
Q 2073 4259 2182 4259 
Q 2282 4259 2335 4314 
Q 2388 4369 2410 4531 
L 2817 4531 
Q 2807 4175 2637 3997 
Q 2467 3819 2204 3819 
Q 2007 3819 1685 3994 
Q 1476 4106 1379 4106 
Q 1273 4106 1207 4031 
Q 1138 3956 1142 3809 
L 726 3809 
z
" id="ArialMT-f5" transform="scale(0.015625)"/>
      <path d="M 197 991 
L 753 1078 
Q 800 744 1014 566 
Q 1228 388 1613 388 
Q 2000 388 2187 545 
Q 2375 703 2375 916 
Q 2375 1106 2209 1216 
Q 2094 1291 1634 1406 
Q 1016 1563 777 1677 
Q 538 1791 414 1992 
Q 291 2194 291 2438 
Q 291 2659 392 2848 
Q 494 3038 669 3163 
Q 800 3259 1026 3326 
Q 1253 3394 1513 3394 
Q 1903 3394 2198 3281 
Q 2494 3169 2634 2976 
Q 2775 2784 2828 2463 
L 2278 2388 
Q 2241 2644 2061 2787 
Q 1881 2931 1553 2931 
Q 1166 2931 1000 2803 
Q 834 2675 834 2503 
Q 834 2394 903 2306 
Q 972 2216 1119 2156 
Q 1203 2125 1616 2013 
Q 2213 1853 2448 1751 
Q 2684 1650 2818 1456 
Q 2953 1263 2953 975 
Q 2953 694 2789 445 
Q 2625 197 2315 61 
Q 2006 -75 1616 -75 
Q 969 -75 630 194 
Q 291 463 197 991 
z
" id="ArialMT-73" transform="scale(0.015625)"/>
     </defs>
     <use xlink:href="#ArialMT-49"/>
     <use x="27.783203" xlink:href="#ArialMT-6e"/>
     <use x="83.398438" xlink:href="#ArialMT-74"/>
     <use x="111.181641" xlink:href="#ArialMT-65"/>
     <use x="166.796875" xlink:href="#ArialMT-72"/>
     <use x="200.097656" xlink:href="#ArialMT-6e"/>
     <use x="255.712891" xlink:href="#ArialMT-61"/>
     <use x="311.328125" xlink:href="#ArialMT-e7"/>
     <use x="361.328125" xlink:href="#ArialMT-f5"/>
     <use x="416.943359" xlink:href="#ArialMT-65"/>
     <use x="472.558594" xlink:href="#ArialMT-73"/>
    </g>
   </g>
   <g id="legend_1">
    <g id="patch_7">
     <path d="M 549.548437 58.08 
L 633.8 58.08 
Q 635.8 58.08 635.8 56.08 
L 635.8 28.789375 
Q 635.8 26.789375 633.8 26.789375 
L 549.548437 26.789375 
Q 547.548437 26.789375 547.548437 28.789375 
L 547.548437 56.08 
Q 547.548437 58.08 549.548437 58.08 
z
" style="fill:#ffffff;opacity:0.8;stroke:#cccccc;stroke-linejoin:miter;"/>
    </g>
    <g id="line2d_21">
     <path d="M 551.548437 34.447188 
L 571.548437 34.447188 
" style="fill:none;stroke:#1f77b4;stroke-linecap:round;stroke-width:1.5;"/>
    </g>
    <g id="line2d_22"/>
    <g id="text_20">
     <!-- Internações -->
     <g style="fill:#262626;" transform="translate(579.548437 37.947188)scale(0.1 -0.1)">
      <use xlink:href="#ArialMT-49"/>
      <use x="27.783203" xlink:href="#ArialMT-6e"/>
      <use x="83.398438" xlink:href="#ArialMT-74"/>
      <use x="111.181641" xlink:href="#ArialMT-65"/>
      <use x="166.796875" xlink:href="#ArialMT-72"/>
      <use x="200.097656" xlink:href="#ArialMT-6e"/>
      <use x="255.712891" xlink:href="#ArialMT-61"/>
      <use x="311.328125" xlink:href="#ArialMT-e7"/>
      <use x="361.328125" xlink:href="#ArialMT-f5"/>
      <use x="416.943359" xlink:href="#ArialMT-65"/>
      <use x="472.558594" xlink:href="#ArialMT-73"/>
     </g>
    </g>
    <g id="line2d_23">
     <path d="M 551.548437 48.5925 
L 571.548437 48.5925 
" style="fill:none;stroke:#ff7f0e;stroke-linecap:round;stroke-width:1.5;"/>
    </g>
    <g id="line2d_24"/>
    <g id="text_21">
     <!-- UTI -->
     <g style="fill:#262626;" transform="translate(579.548437 52.0925)scale(0.1 -0.1)">
      <defs>
       <path d="M 3500 4581 
L 4106 4581 
L 4106 1934 
Q 4106 1244 3950 837 
Q 3794 431 3386 176 
Q 2978 -78 2316 -78 
Q 1672 -78 1262 144 
Q 853 366 678 786 
Q 503 1206 503 1934 
L 503 4581 
L 1109 4581 
L 1109 1938 
Q 1109 1341 1220 1058 
Q 1331 775 1601 622 
Q 1872 469 2263 469 
Q 2931 469 3215 772 
Q 3500 1075 3500 1938 
L 3500 4581 
z
" id="ArialMT-55" transform="scale(0.015625)"/>
       <path d="M 1659 0 
L 1659 4041 
L 150 4041 
L 150 4581 
L 3781 4581 
L 3781 4041 
L 2266 4041 
L 2266 0 
L 1659 0 
z
" id="ArialMT-54" transform="scale(0.015625)"/>
      </defs>
      <use xlink:href="#ArialMT-55"/>
      <use x="72.216797" xlink:href="#ArialMT-54"/>
      <use x="133.300781" xlink:href="#ArialMT-49"/>
     </g>
    </g>
   </g>
  </g>
  <g id="text_22">
   <!-- Atualizado em 31/08/2021 -->
   <g style="fill:#262626;" transform="translate(7.2 331.389375)scale(0.08 -0.08)">
    <defs>
     <path d="M -9 0 
L 1750 4581 
L 2403 4581 
L 4278 0 
L 3588 0 
L 3053 1388 
L 1138 1388 
L 634 0 
L -9 0 
z
M 1313 1881 
L 2866 1881 
L 2388 3150 
Q 2169 3728 2063 4100 
Q 1975 3659 1816 3225 
L 1313 1881 
z
" id="ArialMT-41" transform="scale(0.015625)"/>
     <path d="M 2597 0 
L 2597 488 
Q 2209 -75 1544 -75 
Q 1250 -75 995 37 
Q 741 150 617 320 
Q 494 491 444 738 
Q 409 903 409 1263 
L 409 3319 
L 972 3319 
L 972 1478 
Q 972 1038 1006 884 
Q 1059 663 1231 536 
Q 1403 409 1656 409 
Q 1909 409 2131 539 
Q 2353 669 2445 892 
Q 2538 1116 2538 1541 
L 2538 3319 
L 3100 3319 
L 3100 0 
L 2597 0 
z
" id="ArialMT-75" transform="scale(0.015625)"/>
     <path d="M 409 0 
L 409 4581 
L 972 4581 
L 972 0 
L 409 0 
z
" id="ArialMT-6c" transform="scale(0.015625)"/>
     <path d="M 425 3934 
L 425 4581 
L 988 4581 
L 988 3934 
L 425 3934 
z
M 425 0 
L 425 3319 
L 988 3319 
L 988 0 
L 425 0 
z
" id="ArialMT-69" transform="scale(0.015625)"/>
     <path d="M 125 0 
L 125 456 
L 2238 2881 
Q 1878 2863 1603 2863 
L 250 2863 
L 250 3319 
L 2963 3319 
L 2963 2947 
L 1166 841 
L 819 456 
Q 1197 484 1528 484 
L 3063 484 
L 3063 0 
L 125 0 
z
" id="ArialMT-7a" transform="scale(0.015625)"/>
     <path d="M 2575 0 
L 2575 419 
Q 2259 -75 1647 -75 
Q 1250 -75 917 144 
Q 584 363 401 755 
Q 219 1147 219 1656 
Q 219 2153 384 2558 
Q 550 2963 881 3178 
Q 1213 3394 1622 3394 
Q 1922 3394 2156 3267 
Q 2391 3141 2538 2938 
L 2538 4581 
L 3097 4581 
L 3097 0 
L 2575 0 
z
M 797 1656 
Q 797 1019 1065 703 
Q 1334 388 1700 388 
Q 2069 388 2326 689 
Q 2584 991 2584 1609 
Q 2584 2291 2321 2609 
Q 2059 2928 1675 2928 
Q 1300 2928 1048 2622 
Q 797 2316 797 1656 
z
" id="ArialMT-64" transform="scale(0.015625)"/>
     <path d="M 213 1659 
Q 213 2581 725 3025 
Q 1153 3394 1769 3394 
Q 2453 3394 2887 2945 
Q 3322 2497 3322 1706 
Q 3322 1066 3130 698 
Q 2938 331 2570 128 
Q 2203 -75 1769 -75 
Q 1072 -75 642 372 
Q 213 819 213 1659 
z
M 791 1659 
Q 791 1022 1069 705 
Q 1347 388 1769 388 
Q 2188 388 2466 706 
Q 2744 1025 2744 1678 
Q 2744 2294 2464 2611 
Q 2184 2928 1769 2928 
Q 1347 2928 1069 2612 
Q 791 2297 791 1659 
z
" id="ArialMT-6f" transform="scale(0.015625)"/>
     <path id="ArialMT-20" transform="scale(0.015625)"/>
     <path d="M 422 0 
L 422 3319 
L 925 3319 
L 925 2853 
Q 1081 3097 1340 3245 
Q 1600 3394 1931 3394 
Q 2300 3394 2536 3241 
Q 2772 3088 2869 2813 
Q 3263 3394 3894 3394 
Q 4388 3394 4653 3120 
Q 4919 2847 4919 2278 
L 4919 0 
L 4359 0 
L 4359 2091 
Q 4359 2428 4304 2576 
Q 4250 2725 4106 2815 
Q 3963 2906 3769 2906 
Q 3419 2906 3187 2673 
Q 2956 2441 2956 1928 
L 2956 0 
L 2394 0 
L 2394 2156 
Q 2394 2531 2256 2718 
Q 2119 2906 1806 2906 
Q 1569 2906 1367 2781 
Q 1166 2656 1075 2415 
Q 984 2175 984 1722 
L 984 0 
L 422 0 
z
" id="ArialMT-6d" transform="scale(0.015625)"/>
     <path d="M 0 -78 
L 1328 4659 
L 1778 4659 
L 453 -78 
L 0 -78 
z
" id="ArialMT-2f" transform="scale(0.015625)"/>
     <path d="M 1131 2484 
Q 781 2613 612 2850 
Q 444 3088 444 3419 
Q 444 3919 803 4259 
Q 1163 4600 1759 4600 
Q 2359 4600 2725 4251 
Q 3091 3903 3091 3403 
Q 3091 3084 2923 2848 
Q 2756 2613 2416 2484 
Q 2838 2347 3058 2040 
Q 3278 1734 3278 1309 
Q 3278 722 2862 322 
Q 2447 -78 1769 -78 
Q 1091 -78 675 323 
Q 259 725 259 1325 
Q 259 1772 486 2073 
Q 713 2375 1131 2484 
z
M 1019 3438 
Q 1019 3113 1228 2906 
Q 1438 2700 1772 2700 
Q 2097 2700 2305 2904 
Q 2513 3109 2513 3406 
Q 2513 3716 2298 3927 
Q 2084 4138 1766 4138 
Q 1444 4138 1231 3931 
Q 1019 3725 1019 3438 
z
M 838 1322 
Q 838 1081 952 856 
Q 1066 631 1291 507 
Q 1516 384 1775 384 
Q 2178 384 2440 643 
Q 2703 903 2703 1303 
Q 2703 1709 2433 1975 
Q 2163 2241 1756 2241 
Q 1359 2241 1098 1978 
Q 838 1716 838 1322 
z
" id="ArialMT-38" transform="scale(0.015625)"/>
    </defs>
    <use xlink:href="#ArialMT-41"/>
    <use x="66.699219" xlink:href="#ArialMT-74"/>
    <use x="94.482422" xlink:href="#ArialMT-75"/>
    <use x="150.097656" xlink:href="#ArialMT-61"/>
    <use x="205.712891" xlink:href="#ArialMT-6c"/>
    <use x="227.929688" xlink:href="#ArialMT-69"/>
    <use x="250.146484" xlink:href="#ArialMT-7a"/>
    <use x="300.146484" xlink:href="#ArialMT-61"/>
    <use x="355.761719" xlink:href="#ArialMT-64"/>
    <use x="411.376953" xlink:href="#ArialMT-6f"/>
    <use x="466.992188" xlink:href="#ArialMT-20"/>
    <use x="494.775391" xlink:href="#ArialMT-65"/>
    <use x="550.390625" xlink:href="#ArialMT-6d"/>
    <use x="633.691406" xlink:href="#ArialMT-20"/>
    <use x="661.474609" xlink:href="#ArialMT-33"/>
    <use x="717.089844" xlink:href="#ArialMT-31"/>
    <use x="772.705078" xlink:href="#ArialMT-2f"/>
    <use x="800.488281" xlink:href="#ArialMT-30"/>
    <use x="856.103516" xlink:href="#ArialMT-38"/>
    <use x="911.71875" xlink:href="#ArialMT-2f"/>
    <use x="939.501953" xlink:href="#ArialMT-32"/>
    <use x="995.117188" xlink:href="#ArialMT-30"/>
    <use x="1050.732422" xlink:href="#ArialMT-32"/>
    <use x="1106.347656" xlink:href="#ArialMT-31"/>
   </g>
  </g>
  <g id="text_23">
   <!-- https://jmsvaz.github.io/covidsantos/ -->
   <g style="fill:#262626;" transform="translate(570.345 331.389375)scale(0.08 -0.08)">
    <defs>
     <path d="M 422 0 
L 422 4581 
L 984 4581 
L 984 2938 
Q 1378 3394 1978 3394 
Q 2347 3394 2619 3248 
Q 2891 3103 3008 2847 
Q 3125 2591 3125 2103 
L 3125 0 
L 2563 0 
L 2563 2103 
Q 2563 2525 2380 2717 
Q 2197 2909 1863 2909 
Q 1613 2909 1392 2779 
Q 1172 2650 1078 2428 
Q 984 2206 984 1816 
L 984 0 
L 422 0 
z
" id="ArialMT-68" transform="scale(0.015625)"/>
     <path d="M 422 -1272 
L 422 3319 
L 934 3319 
L 934 2888 
Q 1116 3141 1344 3267 
Q 1572 3394 1897 3394 
Q 2322 3394 2647 3175 
Q 2972 2956 3137 2557 
Q 3303 2159 3303 1684 
Q 3303 1175 3120 767 
Q 2938 359 2589 142 
Q 2241 -75 1856 -75 
Q 1575 -75 1351 44 
Q 1128 163 984 344 
L 984 -1272 
L 422 -1272 
z
M 931 1641 
Q 931 1000 1190 694 
Q 1450 388 1819 388 
Q 2194 388 2461 705 
Q 2728 1022 2728 1688 
Q 2728 2322 2467 2637 
Q 2206 2953 1844 2953 
Q 1484 2953 1207 2617 
Q 931 2281 931 1641 
z
" id="ArialMT-70" transform="scale(0.015625)"/>
     <path d="M 578 2678 
L 578 3319 
L 1219 3319 
L 1219 2678 
L 578 2678 
z
M 578 0 
L 578 641 
L 1219 641 
L 1219 0 
L 578 0 
z
" id="ArialMT-3a" transform="scale(0.015625)"/>
     <path d="M 419 3928 
L 419 4581 
L 981 4581 
L 981 3928 
L 419 3928 
z
M -294 -1288 
L -188 -809 
Q -19 -853 78 -853 
Q 250 -853 334 -739 
Q 419 -625 419 -169 
L 419 3319 
L 981 3319 
L 981 -181 
Q 981 -794 822 -1034 
Q 619 -1347 147 -1347 
Q -81 -1347 -294 -1288 
z
" id="ArialMT-6a" transform="scale(0.015625)"/>
     <path d="M 1344 0 
L 81 3319 
L 675 3319 
L 1388 1331 
Q 1503 1009 1600 663 
Q 1675 925 1809 1294 
L 2547 3319 
L 3125 3319 
L 1869 0 
L 1344 0 
z
" id="ArialMT-76" transform="scale(0.015625)"/>
     <path d="M 581 0 
L 581 641 
L 1222 641 
L 1222 0 
L 581 0 
z
" id="ArialMT-2e" transform="scale(0.015625)"/>
     <path d="M 319 -275 
L 866 -356 
Q 900 -609 1056 -725 
Q 1266 -881 1628 -881 
Q 2019 -881 2231 -725 
Q 2444 -569 2519 -288 
Q 2563 -116 2559 434 
Q 2191 0 1641 0 
Q 956 0 581 494 
Q 206 988 206 1678 
Q 206 2153 378 2554 
Q 550 2956 876 3175 
Q 1203 3394 1644 3394 
Q 2231 3394 2613 2919 
L 2613 3319 
L 3131 3319 
L 3131 450 
Q 3131 -325 2973 -648 
Q 2816 -972 2473 -1159 
Q 2131 -1347 1631 -1347 
Q 1038 -1347 672 -1080 
Q 306 -813 319 -275 
z
M 784 1719 
Q 784 1066 1043 766 
Q 1303 466 1694 466 
Q 2081 466 2343 764 
Q 2606 1063 2606 1700 
Q 2606 2309 2336 2618 
Q 2066 2928 1684 2928 
Q 1309 2928 1046 2623 
Q 784 2319 784 1719 
z
" id="ArialMT-67" transform="scale(0.015625)"/>
     <path d="M 941 0 
L 419 0 
L 419 4581 
L 981 4581 
L 981 2947 
Q 1338 3394 1891 3394 
Q 2197 3394 2470 3270 
Q 2744 3147 2920 2923 
Q 3097 2700 3197 2384 
Q 3297 2069 3297 1709 
Q 3297 856 2875 390 
Q 2453 -75 1863 -75 
Q 1275 -75 941 416 
L 941 0 
z
M 934 1684 
Q 934 1088 1097 822 
Q 1363 388 1816 388 
Q 2184 388 2453 708 
Q 2722 1028 2722 1663 
Q 2722 2313 2464 2622 
Q 2206 2931 1841 2931 
Q 1472 2931 1203 2611 
Q 934 2291 934 1684 
z
" id="ArialMT-62" transform="scale(0.015625)"/>
     <path d="M 2588 1216 
L 3141 1144 
Q 3050 572 2676 248 
Q 2303 -75 1759 -75 
Q 1078 -75 664 370 
Q 250 816 250 1647 
Q 250 2184 428 2587 
Q 606 2991 970 3192 
Q 1334 3394 1763 3394 
Q 2303 3394 2647 3120 
Q 2991 2847 3088 2344 
L 2541 2259 
Q 2463 2594 2264 2762 
Q 2066 2931 1784 2931 
Q 1359 2931 1093 2626 
Q 828 2322 828 1663 
Q 828 994 1084 691 
Q 1341 388 1753 388 
Q 2084 388 2306 591 
Q 2528 794 2588 1216 
z
" id="ArialMT-63" transform="scale(0.015625)"/>
    </defs>
    <use xlink:href="#ArialMT-68"/>
    <use x="55.615234" xlink:href="#ArialMT-74"/>
    <use x="83.398438" xlink:href="#ArialMT-74"/>
    <use x="111.181641" xlink:href="#ArialMT-70"/>
    <use x="166.796875" xlink:href="#ArialMT-73"/>
    <use x="216.796875" xlink:href="#ArialMT-3a"/>
    <use x="244.580078" xlink:href="#ArialMT-2f"/>
    <use x="272.363281" xlink:href="#ArialMT-2f"/>
    <use x="300.146484" xlink:href="#ArialMT-6a"/>
    <use x="322.363281" xlink:href="#ArialMT-6d"/>
    <use x="405.664062" xlink:href="#ArialMT-73"/>
    <use x="455.664062" xlink:href="#ArialMT-76"/>
    <use x="505.664062" xlink:href="#ArialMT-61"/>
    <use x="561.279297" xlink:href="#ArialMT-7a"/>
    <use x="611.279297" xlink:href="#ArialMT-2e"/>
    <use x="639.0625" xlink:href="#ArialMT-67"/>
    <use x="694.677734" xlink:href="#ArialMT-69"/>
    <use x="716.894531" xlink:href="#ArialMT-74"/>
    <use x="744.677734" xlink:href="#ArialMT-68"/>
    <use x="800.292969" xlink:href="#ArialMT-75"/>
    <use x="855.908203" xlink:href="#ArialMT-62"/>
    <use x="911.523438" xlink:href="#ArialMT-2e"/>
    <use x="939.306641" xlink:href="#ArialMT-69"/>
    <use x="961.523438" xlink:href="#ArialMT-6f"/>
    <use x="1017.138672" xlink:href="#ArialMT-2f"/>
    <use x="1044.921875" xlink:href="#ArialMT-63"/>
    <use x="1094.921875" xlink:href="#ArialMT-6f"/>
    <use x="1150.537109" xlink:href="#ArialMT-76"/>
    <use x="1200.537109" xlink:href="#ArialMT-69"/>
    <use x="1222.753906" xlink:href="#ArialMT-64"/>
    <use x="1278.369141" xlink:href="#ArialMT-73"/>
    <use x="1328.369141" xlink:href="#ArialMT-61"/>
    <use x="1383.984375" xlink:href="#ArialMT-6e"/>
    <use x="1439.599609" xlink:href="#ArialMT-74"/>
    <use x="1467.382812" xlink:href="#ArialMT-6f"/>
    <use x="1522.998047" xlink:href="#ArialMT-73"/>
    <use x="1572.998047" xlink:href="#ArialMT-2f"/>
   </g>
  </g>
 </g>
 <defs>
  <clipPath id="p61dee79ab3">
   <rect height="277.2" width="558" x="82.8" y="21.789375"/>
  </clipPath>
 </defs>
</svg>
