<?xml version="1.0" encoding="utf-8" standalone="no"?>
<!DOCTYPE svg PUBLIC "-//W3C//DTD SVG 1.1//EN"
  "http://www.w3.org/Graphics/SVG/1.1/DTD/svg11.dtd">
<svg height="340.273125pt" version="1.1" viewBox="0 0 705.6 340.273125" width="705.6pt" xmlns="http://www.w3.org/2000/svg" xmlns:xlink="http://www.w3.org/1999/xlink">
 <metadata>
  <rdf:RDF xmlns:cc="http://creativecommons.org/ns#" xmlns:dc="http://purl.org/dc/elements/1.1/" xmlns:rdf="http://www.w3.org/1999/02/22-rdf-syntax-ns#">
   <cc:Work>
    <dc:type rdf:resource="http://purl.org/dc/dcmitype/StillImage"/>
    <dc:date>2021-08-20T18:22:20.416149</dc:date>
    <dc:format>image/svg+xml</dc:format>
    <dc:creator>
     <cc:Agent>
      <dc:title>Matplotlib v3.4.2, https://matplotlib.org/</dc:title>
     </cc:Agent>
    </dc:creator>
   </cc:Work>
  </rdf:RDF>
 </metadata>
 <defs>
  <style type="text/css">*{stroke-linecap:butt;stroke-linejoin:round;}</style>
 </defs>
 <g id="figure_1">
  <g id="patch_1">
   <path d="M 0 340.273125 
L 705.6 340.273125 
L 705.6 0 
L 0 0 
z
" style="fill:#ffffff;"/>
  </g>
  <g id="axes_1">
   <g id="patch_2">
    <path d="M 82.8 298.989375 
L 640.8 298.989375 
L 640.8 21.789375 
L 82.8 21.789375 
z
" style="fill:#ffffff;"/>
   </g>
   <g id="matplotlib.axis_1">
    <g id="xtick_1">
     <g id="line2d_1">
      <path clip-path="url(#pa3d6389b2c)" d="M 90.570363 298.989375 
L 90.570363 21.789375 
" style="fill:none;stroke:#cccccc;stroke-linecap:round;stroke-width:0.8;"/>
     </g>
     <g id="text_1">
      <!-- 2020-03 -->
      <g style="fill:#262626;" transform="translate(72.222706 313.147188)scale(0.1 -0.1)">
       <defs>
        <path d="M 3222 541 
L 3222 0 
L 194 0 
Q 188 203 259 391 
Q 375 700 629 1000 
Q 884 1300 1366 1694 
Q 2113 2306 2375 2664 
Q 2638 3022 2638 3341 
Q 2638 3675 2398 3904 
Q 2159 4134 1775 4134 
Q 1369 4134 1125 3890 
Q 881 3647 878 3216 
L 300 3275 
Q 359 3922 746 4261 
Q 1134 4600 1788 4600 
Q 2447 4600 2831 4234 
Q 3216 3869 3216 3328 
Q 3216 3053 3103 2787 
Q 2991 2522 2730 2228 
Q 2469 1934 1863 1422 
Q 1356 997 1212 845 
Q 1069 694 975 541 
L 3222 541 
z
" id="ArialMT-32" transform="scale(0.015625)"/>
        <path d="M 266 2259 
Q 266 3072 433 3567 
Q 600 4063 929 4331 
Q 1259 4600 1759 4600 
Q 2128 4600 2406 4451 
Q 2684 4303 2865 4023 
Q 3047 3744 3150 3342 
Q 3253 2941 3253 2259 
Q 3253 1453 3087 958 
Q 2922 463 2592 192 
Q 2263 -78 1759 -78 
Q 1097 -78 719 397 
Q 266 969 266 2259 
z
M 844 2259 
Q 844 1131 1108 757 
Q 1372 384 1759 384 
Q 2147 384 2411 759 
Q 2675 1134 2675 2259 
Q 2675 3391 2411 3762 
Q 2147 4134 1753 4134 
Q 1366 4134 1134 3806 
Q 844 3388 844 2259 
z
" id="ArialMT-30" transform="scale(0.015625)"/>
        <path d="M 203 1375 
L 203 1941 
L 1931 1941 
L 1931 1375 
L 203 1375 
z
" id="ArialMT-2d" transform="scale(0.015625)"/>
        <path d="M 269 1209 
L 831 1284 
Q 928 806 1161 595 
Q 1394 384 1728 384 
Q 2125 384 2398 659 
Q 2672 934 2672 1341 
Q 2672 1728 2419 1979 
Q 2166 2231 1775 2231 
Q 1616 2231 1378 2169 
L 1441 2663 
Q 1497 2656 1531 2656 
Q 1891 2656 2178 2843 
Q 2466 3031 2466 3422 
Q 2466 3731 2256 3934 
Q 2047 4138 1716 4138 
Q 1388 4138 1169 3931 
Q 950 3725 888 3313 
L 325 3413 
Q 428 3978 793 4289 
Q 1159 4600 1703 4600 
Q 2078 4600 2393 4439 
Q 2709 4278 2876 4000 
Q 3044 3722 3044 3409 
Q 3044 3113 2884 2869 
Q 2725 2625 2413 2481 
Q 2819 2388 3044 2092 
Q 3269 1797 3269 1353 
Q 3269 753 2831 336 
Q 2394 -81 1725 -81 
Q 1122 -81 723 278 
Q 325 638 269 1209 
z
" id="ArialMT-33" transform="scale(0.015625)"/>
       </defs>
       <use xlink:href="#ArialMT-32"/>
       <use x="55.615234" xlink:href="#ArialMT-30"/>
       <use x="111.230469" xlink:href="#ArialMT-32"/>
       <use x="166.845703" xlink:href="#ArialMT-30"/>
       <use x="222.460938" xlink:href="#ArialMT-2d"/>
       <use x="255.761719" xlink:href="#ArialMT-30"/>
       <use x="311.376953" xlink:href="#ArialMT-33"/>
      </g>
     </g>
    </g>
    <g id="xtick_2">
     <g id="line2d_2">
      <path clip-path="url(#pa3d6389b2c)" d="M 150.192013 298.989375 
L 150.192013 21.789375 
" style="fill:none;stroke:#cccccc;stroke-linecap:round;stroke-width:0.8;"/>
     </g>
     <g id="text_2">
      <!-- 2020-05 -->
      <g style="fill:#262626;" transform="translate(131.844356 313.147188)scale(0.1 -0.1)">
       <defs>
        <path d="M 266 1200 
L 856 1250 
Q 922 819 1161 601 
Q 1400 384 1738 384 
Q 2144 384 2425 690 
Q 2706 997 2706 1503 
Q 2706 1984 2436 2262 
Q 2166 2541 1728 2541 
Q 1456 2541 1237 2417 
Q 1019 2294 894 2097 
L 366 2166 
L 809 4519 
L 3088 4519 
L 3088 3981 
L 1259 3981 
L 1013 2750 
Q 1425 3038 1878 3038 
Q 2478 3038 2890 2622 
Q 3303 2206 3303 1553 
Q 3303 931 2941 478 
Q 2500 -78 1738 -78 
Q 1113 -78 717 272 
Q 322 622 266 1200 
z
" id="ArialMT-35" transform="scale(0.015625)"/>
       </defs>
       <use xlink:href="#ArialMT-32"/>
       <use x="55.615234" xlink:href="#ArialMT-30"/>
       <use x="111.230469" xlink:href="#ArialMT-32"/>
       <use x="166.845703" xlink:href="#ArialMT-30"/>
       <use x="222.460938" xlink:href="#ArialMT-2d"/>
       <use x="255.761719" xlink:href="#ArialMT-30"/>
       <use x="311.376953" xlink:href="#ArialMT-35"/>
      </g>
     </g>
    </g>
    <g id="xtick_3">
     <g id="line2d_3">
      <path clip-path="url(#pa3d6389b2c)" d="M 209.813663 298.989375 
L 209.813663 21.789375 
" style="fill:none;stroke:#cccccc;stroke-linecap:round;stroke-width:0.8;"/>
     </g>
     <g id="text_3">
      <!-- 2020-07 -->
      <g style="fill:#262626;" transform="translate(191.466006 313.147188)scale(0.1 -0.1)">
       <defs>
        <path d="M 303 3981 
L 303 4522 
L 3269 4522 
L 3269 4084 
Q 2831 3619 2401 2847 
Q 1972 2075 1738 1259 
Q 1569 684 1522 0 
L 944 0 
Q 953 541 1156 1306 
Q 1359 2072 1739 2783 
Q 2119 3494 2547 3981 
L 303 3981 
z
" id="ArialMT-37" transform="scale(0.015625)"/>
       </defs>
       <use xlink:href="#ArialMT-32"/>
       <use x="55.615234" xlink:href="#ArialMT-30"/>
       <use x="111.230469" xlink:href="#ArialMT-32"/>
       <use x="166.845703" xlink:href="#ArialMT-30"/>
       <use x="222.460938" xlink:href="#ArialMT-2d"/>
       <use x="255.761719" xlink:href="#ArialMT-30"/>
       <use x="311.376953" xlink:href="#ArialMT-37"/>
      </g>
     </g>
    </g>
    <g id="xtick_4">
     <g id="line2d_4">
      <path clip-path="url(#pa3d6389b2c)" d="M 270.412717 298.989375 
L 270.412717 21.789375 
" style="fill:none;stroke:#cccccc;stroke-linecap:round;stroke-width:0.8;"/>
     </g>
     <g id="text_4">
      <!-- 2020-09 -->
      <g style="fill:#262626;" transform="translate(252.065061 313.147188)scale(0.1 -0.1)">
       <defs>
        <path d="M 350 1059 
L 891 1109 
Q 959 728 1153 556 
Q 1347 384 1650 384 
Q 1909 384 2104 503 
Q 2300 622 2425 820 
Q 2550 1019 2634 1356 
Q 2719 1694 2719 2044 
Q 2719 2081 2716 2156 
Q 2547 1888 2255 1720 
Q 1963 1553 1622 1553 
Q 1053 1553 659 1965 
Q 266 2378 266 3053 
Q 266 3750 677 4175 
Q 1088 4600 1706 4600 
Q 2153 4600 2523 4359 
Q 2894 4119 3086 3673 
Q 3278 3228 3278 2384 
Q 3278 1506 3087 986 
Q 2897 466 2520 194 
Q 2144 -78 1638 -78 
Q 1100 -78 759 220 
Q 419 519 350 1059 
z
M 2653 3081 
Q 2653 3566 2395 3850 
Q 2138 4134 1775 4134 
Q 1400 4134 1122 3828 
Q 844 3522 844 3034 
Q 844 2597 1108 2323 
Q 1372 2050 1759 2050 
Q 2150 2050 2401 2323 
Q 2653 2597 2653 3081 
z
" id="ArialMT-39" transform="scale(0.015625)"/>
       </defs>
       <use xlink:href="#ArialMT-32"/>
       <use x="55.615234" xlink:href="#ArialMT-30"/>
       <use x="111.230469" xlink:href="#ArialMT-32"/>
       <use x="166.845703" xlink:href="#ArialMT-30"/>
       <use x="222.460938" xlink:href="#ArialMT-2d"/>
       <use x="255.761719" xlink:href="#ArialMT-30"/>
       <use x="311.376953" xlink:href="#ArialMT-39"/>
      </g>
     </g>
    </g>
    <g id="xtick_5">
     <g id="line2d_5">
      <path clip-path="url(#pa3d6389b2c)" d="M 330.034367 298.989375 
L 330.034367 21.789375 
" style="fill:none;stroke:#cccccc;stroke-linecap:round;stroke-width:0.8;"/>
     </g>
     <g id="text_5">
      <!-- 2020-11 -->
      <g style="fill:#262626;" transform="translate(312.055461 313.147188)scale(0.1 -0.1)">
       <defs>
        <path d="M 2384 0 
L 1822 0 
L 1822 3584 
Q 1619 3391 1289 3197 
Q 959 3003 697 2906 
L 697 3450 
Q 1169 3672 1522 3987 
Q 1875 4303 2022 4600 
L 2384 4600 
L 2384 0 
z
" id="ArialMT-31" transform="scale(0.015625)"/>
       </defs>
       <use xlink:href="#ArialMT-32"/>
       <use x="55.615234" xlink:href="#ArialMT-30"/>
       <use x="111.230469" xlink:href="#ArialMT-32"/>
       <use x="166.845703" xlink:href="#ArialMT-30"/>
       <use x="222.460938" xlink:href="#ArialMT-2d"/>
       <use x="255.761719" xlink:href="#ArialMT-31"/>
       <use x="304.001953" xlink:href="#ArialMT-31"/>
      </g>
     </g>
    </g>
    <g id="xtick_6">
     <g id="line2d_6">
      <path clip-path="url(#pa3d6389b2c)" d="M 389.656017 298.989375 
L 389.656017 21.789375 
" style="fill:none;stroke:#cccccc;stroke-linecap:round;stroke-width:0.8;"/>
     </g>
     <g id="text_6">
      <!-- 2021-01 -->
      <g style="fill:#262626;" transform="translate(371.308361 313.147188)scale(0.1 -0.1)">
       <use xlink:href="#ArialMT-32"/>
       <use x="55.615234" xlink:href="#ArialMT-30"/>
       <use x="111.230469" xlink:href="#ArialMT-32"/>
       <use x="166.845703" xlink:href="#ArialMT-31"/>
       <use x="222.460938" xlink:href="#ArialMT-2d"/>
       <use x="255.761719" xlink:href="#ArialMT-30"/>
       <use x="311.376953" xlink:href="#ArialMT-31"/>
      </g>
     </g>
    </g>
    <g id="xtick_7">
     <g id="line2d_7">
      <path clip-path="url(#pa3d6389b2c)" d="M 447.322859 298.989375 
L 447.322859 21.789375 
" style="fill:none;stroke:#cccccc;stroke-linecap:round;stroke-width:0.8;"/>
     </g>
     <g id="text_7">
      <!-- 2021-03 -->
      <g style="fill:#262626;" transform="translate(428.975202 313.147188)scale(0.1 -0.1)">
       <use xlink:href="#ArialMT-32"/>
       <use x="55.615234" xlink:href="#ArialMT-30"/>
       <use x="111.230469" xlink:href="#ArialMT-32"/>
       <use x="166.845703" xlink:href="#ArialMT-31"/>
       <use x="222.460938" xlink:href="#ArialMT-2d"/>
       <use x="255.761719" xlink:href="#ArialMT-30"/>
       <use x="311.376953" xlink:href="#ArialMT-33"/>
      </g>
     </g>
    </g>
    <g id="xtick_8">
     <g id="line2d_8">
      <path clip-path="url(#pa3d6389b2c)" d="M 506.944509 298.989375 
L 506.944509 21.789375 
" style="fill:none;stroke:#cccccc;stroke-linecap:round;stroke-width:0.8;"/>
     </g>
     <g id="text_8">
      <!-- 2021-05 -->
      <g style="fill:#262626;" transform="translate(488.596852 313.147188)scale(0.1 -0.1)">
       <use xlink:href="#ArialMT-32"/>
       <use x="55.615234" xlink:href="#ArialMT-30"/>
       <use x="111.230469" xlink:href="#ArialMT-32"/>
       <use x="166.845703" xlink:href="#ArialMT-31"/>
       <use x="222.460938" xlink:href="#ArialMT-2d"/>
       <use x="255.761719" xlink:href="#ArialMT-30"/>
       <use x="311.376953" xlink:href="#ArialMT-35"/>
      </g>
     </g>
    </g>
    <g id="xtick_9">
     <g id="line2d_9">
      <path clip-path="url(#pa3d6389b2c)" d="M 566.566159 298.989375 
L 566.566159 21.789375 
" style="fill:none;stroke:#cccccc;stroke-linecap:round;stroke-width:0.8;"/>
     </g>
     <g id="text_9">
      <!-- 2021-07 -->
      <g style="fill:#262626;" transform="translate(548.218502 313.147188)scale(0.1 -0.1)">
       <use xlink:href="#ArialMT-32"/>
       <use x="55.615234" xlink:href="#ArialMT-30"/>
       <use x="111.230469" xlink:href="#ArialMT-32"/>
       <use x="166.845703" xlink:href="#ArialMT-31"/>
       <use x="222.460938" xlink:href="#ArialMT-2d"/>
       <use x="255.761719" xlink:href="#ArialMT-30"/>
       <use x="311.376953" xlink:href="#ArialMT-37"/>
      </g>
     </g>
    </g>
    <g id="xtick_10">
     <g id="line2d_10">
      <path clip-path="url(#pa3d6389b2c)" d="M 627.165213 298.989375 
L 627.165213 21.789375 
" style="fill:none;stroke:#cccccc;stroke-linecap:round;stroke-width:0.8;"/>
     </g>
     <g id="text_10">
      <!-- 2021-09 -->
      <g style="fill:#262626;" transform="translate(608.817557 313.147188)scale(0.1 -0.1)">
       <use xlink:href="#ArialMT-32"/>
       <use x="55.615234" xlink:href="#ArialMT-30"/>
       <use x="111.230469" xlink:href="#ArialMT-32"/>
       <use x="166.845703" xlink:href="#ArialMT-31"/>
       <use x="222.460938" xlink:href="#ArialMT-2d"/>
       <use x="255.761719" xlink:href="#ArialMT-30"/>
       <use x="311.376953" xlink:href="#ArialMT-39"/>
      </g>
     </g>
    </g>
   </g>
   <g id="matplotlib.axis_2">
    <g id="ytick_1">
     <g id="line2d_11">
      <path clip-path="url(#pa3d6389b2c)" d="M 82.8 286.389375 
L 640.8 286.389375 
" style="fill:none;stroke:#cccccc;stroke-linecap:round;stroke-width:0.8;"/>
     </g>
     <g id="text_11">
      <!-- 0 -->
      <g style="fill:#262626;" transform="translate(70.239063 289.968281)scale(0.1 -0.1)">
       <use xlink:href="#ArialMT-30"/>
      </g>
     </g>
    </g>
    <g id="ytick_2">
     <g id="line2d_12">
      <path clip-path="url(#pa3d6389b2c)" d="M 82.8 248.664824 
L 640.8 248.664824 
" style="fill:none;stroke:#cccccc;stroke-linecap:round;stroke-width:0.8;"/>
     </g>
     <g id="text_12">
      <!-- 50 -->
      <g style="fill:#262626;" transform="translate(64.678125 252.24373)scale(0.1 -0.1)">
       <use xlink:href="#ArialMT-35"/>
       <use x="55.615234" xlink:href="#ArialMT-30"/>
      </g>
     </g>
    </g>
    <g id="ytick_3">
     <g id="line2d_13">
      <path clip-path="url(#pa3d6389b2c)" d="M 82.8 210.940273 
L 640.8 210.940273 
" style="fill:none;stroke:#cccccc;stroke-linecap:round;stroke-width:0.8;"/>
     </g>
     <g id="text_13">
      <!-- 100 -->
      <g style="fill:#262626;" transform="translate(59.117188 214.519179)scale(0.1 -0.1)">
       <use xlink:href="#ArialMT-31"/>
       <use x="55.615234" xlink:href="#ArialMT-30"/>
       <use x="111.230469" xlink:href="#ArialMT-30"/>
      </g>
     </g>
    </g>
    <g id="ytick_4">
     <g id="line2d_14">
      <path clip-path="url(#pa3d6389b2c)" d="M 82.8 173.215722 
L 640.8 173.215722 
" style="fill:none;stroke:#cccccc;stroke-linecap:round;stroke-width:0.8;"/>
     </g>
     <g id="text_14">
      <!-- 150 -->
      <g style="fill:#262626;" transform="translate(59.117188 176.794629)scale(0.1 -0.1)">
       <use xlink:href="#ArialMT-31"/>
       <use x="55.615234" xlink:href="#ArialMT-35"/>
       <use x="111.230469" xlink:href="#ArialMT-30"/>
      </g>
     </g>
    </g>
    <g id="ytick_5">
     <g id="line2d_15">
      <path clip-path="url(#pa3d6389b2c)" d="M 82.8 135.491171 
L 640.8 135.491171 
" style="fill:none;stroke:#cccccc;stroke-linecap:round;stroke-width:0.8;"/>
     </g>
     <g id="text_15">
      <!-- 200 -->
      <g style="fill:#262626;" transform="translate(59.117188 139.070078)scale(0.1 -0.1)">
       <use xlink:href="#ArialMT-32"/>
       <use x="55.615234" xlink:href="#ArialMT-30"/>
       <use x="111.230469" xlink:href="#ArialMT-30"/>
      </g>
     </g>
    </g>
    <g id="ytick_6">
     <g id="line2d_16">
      <path clip-path="url(#pa3d6389b2c)" d="M 82.8 97.766621 
L 640.8 97.766621 
" style="fill:none;stroke:#cccccc;stroke-linecap:round;stroke-width:0.8;"/>
     </g>
     <g id="text_16">
      <!-- 250 -->
      <g style="fill:#262626;" transform="translate(59.117188 101.345527)scale(0.1 -0.1)">
       <use xlink:href="#ArialMT-32"/>
       <use x="55.615234" xlink:href="#ArialMT-35"/>
       <use x="111.230469" xlink:href="#ArialMT-30"/>
      </g>
     </g>
    </g>
    <g id="ytick_7">
     <g id="line2d_17">
      <path clip-path="url(#pa3d6389b2c)" d="M 82.8 60.04207 
L 640.8 60.04207 
" style="fill:none;stroke:#cccccc;stroke-linecap:round;stroke-width:0.8;"/>
     </g>
     <g id="text_17">
      <!-- 300 -->
      <g style="fill:#262626;" transform="translate(59.117188 63.620976)scale(0.1 -0.1)">
       <use xlink:href="#ArialMT-33"/>
       <use x="55.615234" xlink:href="#ArialMT-30"/>
       <use x="111.230469" xlink:href="#ArialMT-30"/>
      </g>
     </g>
    </g>
    <g id="ytick_8">
     <g id="line2d_18">
      <path clip-path="url(#pa3d6389b2c)" d="M 82.8 22.317519 
L 640.8 22.317519 
" style="fill:none;stroke:#cccccc;stroke-linecap:round;stroke-width:0.8;"/>
     </g>
     <g id="text_18">
      <!-- 350 -->
      <g style="fill:#262626;" transform="translate(59.117188 25.896425)scale(0.1 -0.1)">
       <use xlink:href="#ArialMT-33"/>
       <use x="55.615234" xlink:href="#ArialMT-35"/>
       <use x="111.230469" xlink:href="#ArialMT-30"/>
      </g>
     </g>
    </g>
   </g>
   <g id="line2d_19">
    <path clip-path="url(#pa3d6389b2c)" d="M 108.163636 278.089974 
L 109.14104 278.089974 
L 110.118445 276.580992 
L 111.095849 276.580992 
L 112.073253 269.036082 
L 113.050657 255.455243 
L 114.028061 254.700752 
L 115.005465 251.682788 
L 115.982869 247.155842 
L 116.960273 246.401351 
L 117.937677 246.401351 
L 118.915081 245.64686 
L 119.892486 242.628896 
L 120.86989 226.030094 
L 121.847294 224.521112 
L 122.824698 224.521112 
L 123.802102 201.886381 
L 124.779506 200.377399 
L 125.75691 213.958237 
L 126.734314 210.185782 
L 127.711718 204.149854 
L 128.689122 202.640872 
L 129.666527 199.622908 
L 130.643931 199.622908 
L 131.621335 198.113926 
L 132.598739 186.796561 
L 133.576143 185.287579 
L 134.553547 189.060034 
L 135.530951 176.233686 
L 136.508355 173.215722 
L 137.485759 170.952249 
L 138.463163 167.179794 
L 139.440568 176.988177 
L 140.417972 176.988177 
L 141.395376 173.970213 
L 142.37278 167.934285 
L 143.350184 142.281591 
L 144.327588 140.772609 
L 145.304992 176.233686 
L 146.282396 178.497159 
L 147.2598 181.515124 
L 148.237204 176.233686 
L 149.214609 181.515124 
L 150.192013 173.215722 
L 151.169417 168.688776 
L 152.146821 169.443267 
L 153.124225 167.179794 
L 154.101629 161.143866 
L 155.079033 158.125902 
L 156.056437 162.652848 
L 157.033841 165.670812 
L 158.011245 161.143866 
L 158.98865 158.125902 
L 159.966054 161.898357 
L 160.943458 146.054046 
L 161.920862 152.844465 
L 162.898266 149.826501 
L 163.87567 146.054046 
L 164.853074 152.089974 
L 165.830478 140.772609 
L 166.807882 139.263626 
L 167.785286 141.5271 
L 168.76269 133.982189 
L 169.740095 137.000153 
L 170.717499 139.263626 
L 171.694903 140.772609 
L 172.672307 138.509135 
L 173.649711 137.754644 
L 174.627115 133.227698 
L 175.604519 134.73668 
L 176.581923 135.491171 
L 177.559327 123.419315 
L 178.536731 122.664824 
L 179.514136 124.173806 
L 180.49154 129.455243 
L 181.468944 129.455243 
L 182.446348 128.700752 
L 183.423752 127.19177 
L 184.401156 122.664824 
L 185.37856 122.664824 
L 186.355964 110.592968 
L 187.333368 115.874405 
L 188.310772 109.083986 
L 189.288177 114.365423 
L 190.265581 106.820513 
L 191.242985 109.838477 
L 192.220389 103.802549 
L 193.197793 112.856441 
L 194.175197 120.401351 
L 195.152601 122.664824 
L 196.130005 126.437279 
L 197.107409 130.964225 
L 198.084813 127.946261 
L 199.062218 122.664824 
L 200.039622 121.910333 
L 201.017026 118.892369 
L 201.99443 123.419315 
L 202.971834 135.491171 
L 203.949238 137.000153 
L 204.926642 131.718716 
L 205.904046 134.73668 
L 206.88145 141.5271 
L 207.858854 144.545064 
L 208.836259 150.580992 
L 209.813663 150.580992 
L 210.791067 156.61692 
L 211.768471 149.07201 
L 212.745875 152.844465 
L 213.723279 154.353447 
L 214.700683 157.371411 
L 215.678087 148.317519 
L 216.655491 164.916321 
L 217.632895 162.652848 
L 218.6103 161.898357 
L 219.587704 166.425303 
L 220.565108 171.70674 
L 221.542512 170.197758 
L 222.519916 149.826501 
L 223.49732 161.898357 
L 224.474724 153.598956 
L 225.452128 148.317519 
L 226.429532 156.61692 
L 227.406936 154.353447 
L 229.361745 158.880393 
L 230.339149 154.353447 
L 231.316553 157.371411 
L 232.293957 152.844465 
L 233.271361 154.353447 
L 235.226169 158.880393 
L 236.203573 163.407339 
L 237.180977 170.952249 
L 238.158382 173.215722 
L 239.135786 173.970213 
L 240.11319 177.742668 
L 241.090594 180.006141 
L 242.067998 177.742668 
L 243.045402 184.533088 
L 244.022806 188.305543 
L 245.00021 196.604944 
L 245.977614 194.341471 
L 246.955018 195.850453 
L 247.932422 208.6768 
L 248.909827 203.395363 
L 249.887231 207.167818 
L 250.864635 211.694764 
L 251.842039 208.6768 
L 252.819443 207.922309 
L 253.796847 204.904345 
L 254.774251 203.395363 
L 255.751655 202.640872 
L 256.729059 189.814525 
L 257.706463 198.113926 
L 259.661272 207.167818 
L 260.638676 204.904345 
L 261.61608 214.712728 
L 262.593484 215.467219 
L 263.570888 213.203746 
L 264.548292 215.467219 
L 265.525696 219.239674 
L 266.5031 213.203746 
L 267.480504 221.503147 
L 268.457909 207.167818 
L 269.435313 197.359435 
L 270.412717 195.850453 
L 271.390121 199.622908 
L 272.367525 201.13189 
L 273.344929 201.13189 
L 274.322333 203.395363 
L 275.299737 203.395363 
L 276.277141 211.694764 
L 277.254545 210.185782 
L 278.23195 200.377399 
L 279.209354 203.395363 
L 280.186758 200.377399 
L 281.164162 199.622908 
L 282.141566 200.377399 
L 283.11897 203.395363 
L 285.073778 212.449255 
L 286.051182 213.203746 
L 287.028586 210.940273 
L 288.005991 209.431291 
L 289.960799 210.940273 
L 290.938203 217.730692 
L 291.915607 217.730692 
L 292.893011 231.311531 
L 293.870415 229.048058 
L 294.847819 227.539076 
L 295.825223 223.012129 
L 296.802627 221.503147 
L 297.780032 222.257638 
L 298.757436 219.239674 
L 299.73484 223.012129 
L 300.712244 222.257638 
L 301.689648 217.730692 
L 302.667052 219.239674 
L 303.644456 219.994165 
L 304.62186 214.712728 
L 305.599264 210.940273 
L 306.576668 213.203746 
L 307.554073 210.185782 
L 308.531477 212.449255 
L 309.508881 209.431291 
L 310.486285 214.712728 
L 311.463689 215.467219 
L 312.441093 214.712728 
L 313.418497 212.449255 
L 314.395901 213.958237 
L 315.373305 216.976201 
L 316.350709 216.22171 
L 317.328114 216.22171 
L 318.305518 213.203746 
L 319.282922 207.167818 
L 320.260326 204.904345 
L 321.23773 205.658836 
L 322.215134 207.922309 
L 323.192538 204.149854 
L 324.169942 204.149854 
L 325.147346 201.886381 
L 326.12475 195.095962 
L 327.102154 196.604944 
L 328.079559 193.58698 
L 329.056963 193.58698 
L 330.034367 190.569016 
L 331.011771 186.796561 
L 331.989175 180.760632 
L 332.966579 189.060034 
L 333.943983 194.341471 
L 334.921387 189.060034 
L 335.898791 183.024106 
L 336.876195 186.04207 
L 337.8536 179.25165 
L 338.831004 174.724704 
L 339.808408 164.916321 
L 340.785812 166.425303 
L 341.763216 169.443267 
L 342.74062 173.970213 
L 343.718024 173.215722 
L 344.695428 168.688776 
L 345.672832 169.443267 
L 346.650236 153.598956 
L 347.627641 149.826501 
L 348.605045 152.089974 
L 349.582449 138.509135 
L 350.559853 139.263626 
L 351.537257 143.790573 
L 352.514661 137.754644 
L 353.492065 132.473207 
L 354.469469 132.473207 
L 355.446873 134.73668 
L 356.424277 127.946261 
L 357.401682 138.509135 
L 358.379086 142.281591 
L 359.35649 147.563028 
L 360.333894 140.018118 
L 361.311298 141.5271 
L 362.288702 149.07201 
L 363.266106 145.299555 
L 364.24351 155.862429 
L 365.220914 164.916321 
L 366.198318 155.862429 
L 367.175723 142.281591 
L 368.153127 154.353447 
L 369.130531 150.580992 
L 370.107935 149.07201 
L 371.085339 155.862429 
L 374.017551 171.70674 
L 374.994955 170.197758 
L 375.972359 169.443267 
L 376.949764 174.724704 
L 377.927168 178.497159 
L 378.904572 173.970213 
L 379.881976 170.952249 
L 380.85938 170.952249 
L 381.836784 175.479195 
L 382.814188 182.269615 
L 383.791592 184.533088 
L 384.768996 178.497159 
L 385.7464 177.742668 
L 386.723805 173.215722 
L 387.701209 175.479195 
L 388.678613 173.970213 
L 389.656017 183.778597 
L 390.633421 180.760632 
L 391.610825 187.551052 
L 392.588229 197.359435 
L 393.565633 195.850453 
L 394.543037 195.095962 
L 395.520441 196.604944 
L 396.497846 192.832489 
L 398.452654 194.341471 
L 399.430058 184.533088 
L 400.407462 187.551052 
L 401.384866 179.25165 
L 402.36227 180.006141 
L 403.339674 176.233686 
L 405.294482 185.287579 
L 406.271886 178.497159 
L 407.249291 181.515124 
L 408.226695 187.551052 
L 409.204099 195.850453 
L 410.181503 189.060034 
L 411.158907 192.832489 
L 412.136311 189.814525 
L 413.113715 199.622908 
L 414.091119 204.149854 
L 415.068523 195.095962 
L 416.045927 201.13189 
L 417.023332 196.604944 
L 418.000736 201.886381 
L 418.97814 204.149854 
L 419.955544 195.095962 
L 420.932948 194.341471 
L 421.910352 191.323507 
L 422.887756 196.604944 
L 423.86516 195.850453 
L 424.842564 196.604944 
L 425.819968 200.377399 
L 426.797373 203.395363 
L 427.774777 210.185782 
L 428.752181 210.940273 
L 429.729585 209.431291 
L 430.706989 206.413327 
L 431.684393 216.976201 
L 432.661797 216.22171 
L 433.639201 206.413327 
L 434.616605 203.395363 
L 435.594009 214.712728 
L 436.571414 214.712728 
L 437.548818 211.694764 
L 438.526222 213.958237 
L 439.503626 209.431291 
L 440.48103 202.640872 
L 441.458434 198.113926 
L 442.435838 201.13189 
L 443.413242 191.323507 
L 444.390646 192.077998 
L 445.36805 205.658836 
L 446.345455 189.060034 
L 447.322859 180.760632 
L 448.300263 186.796561 
L 449.277667 178.497159 
L 450.255071 180.006141 
L 451.232475 177.742668 
L 452.209879 186.796561 
L 453.187283 183.778597 
L 454.164687 173.970213 
L 455.142091 169.443267 
L 457.0969 161.898357 
L 459.051708 148.317519 
L 460.029112 139.263626 
L 461.006516 133.982189 
L 461.98392 118.892369 
L 462.961324 115.874405 
L 463.938728 112.10195 
L 464.916132 106.820513 
L 465.893537 95.503147 
L 466.870941 81.922309 
L 467.848345 74.377399 
L 468.825749 64.569016 
L 469.803153 57.778597 
L 470.780557 39.670812 
L 471.757961 49.479195 
L 472.735365 40.425303 
L 473.712769 44.197758 
L 474.690173 44.197758 
L 475.667578 34.389375 
L 476.644982 35.898357 
L 477.622386 41.179794 
L 478.59979 37.407339 
L 479.577194 42.688776 
L 480.554598 44.197758 
L 481.532002 41.179794 
L 482.509406 45.70674 
L 483.48681 46.461231 
L 484.464214 56.269615 
L 485.441618 55.515124 
L 486.419023 81.922309 
L 487.396427 87.958237 
L 488.373831 78.904345 
L 489.351235 87.203746 
L 490.328639 84.940273 
L 491.306043 81.922309 
L 492.283447 91.730692 
L 493.260851 78.904345 
L 494.238255 97.012129 
L 495.215659 89.467219 
L 496.193064 90.976201 
L 497.170468 99.275603 
L 498.147872 109.083986 
L 499.125276 109.838477 
L 500.10268 118.892369 
L 501.080084 125.682788 
L 502.057488 122.664824 
L 503.034892 127.19177 
L 504.012296 136.245662 
L 504.9897 133.227698 
L 505.967105 128.700752 
L 506.944509 113.610932 
L 507.921913 121.910333 
L 508.899317 124.173806 
L 509.876721 130.209734 
L 510.854125 118.892369 
L 511.831529 110.592968 
L 512.808933 123.419315 
L 513.786337 133.227698 
L 514.763741 118.137878 
L 515.741146 121.155842 
L 516.71855 115.874405 
L 517.695954 121.155842 
L 518.673358 122.664824 
L 519.650762 127.946261 
L 520.628166 121.155842 
L 521.60557 112.10195 
L 522.582974 109.838477 
L 523.560378 105.311531 
L 524.537782 107.575004 
L 525.515187 111.347459 
L 526.492591 100.030094 
L 527.469995 98.521112 
L 528.447399 97.766621 
L 529.424803 100.030094 
L 530.402207 94.748656 
L 531.379611 90.22171 
L 532.357015 80.413327 
L 533.334419 78.149854 
L 534.311823 68.341471 
L 535.289228 78.149854 
L 536.266632 74.377399 
L 537.244036 90.976201 
L 538.22144 92.485183 
L 539.198844 94.748656 
L 540.176248 93.239674 
L 541.153652 97.766621 
L 542.131056 93.239674 
L 543.10846 92.485183 
L 544.085864 92.485183 
L 545.063269 105.311531 
L 546.040673 112.856441 
L 547.018077 109.083986 
L 547.995481 115.119914 
L 548.972885 111.347459 
L 549.950289 115.874405 
L 550.927693 119.64686 
L 551.905097 117.383387 
L 552.882501 124.173806 
L 553.859905 124.173806 
L 554.83731 134.73668 
L 555.814714 140.018118 
L 556.792118 135.491171 
L 558.746926 148.317519 
L 559.72433 152.089974 
L 560.701734 158.880393 
L 561.679138 158.880393 
L 562.656542 167.934285 
L 563.633946 170.952249 
L 564.61135 176.988177 
L 565.588755 182.269615 
L 566.566159 188.305543 
L 567.543563 184.533088 
L 568.520967 192.832489 
L 569.498371 197.359435 
L 570.475775 191.323507 
L 571.453179 194.341471 
L 572.430583 192.832489 
L 574.385391 200.377399 
L 575.362796 199.622908 
L 576.3402 192.077998 
L 577.317604 195.095962 
L 578.295008 179.25165 
L 579.272412 182.269615 
L 580.249816 191.323507 
L 581.22722 186.796561 
L 582.204624 191.323507 
L 583.182028 196.604944 
L 584.159432 192.077998 
L 585.136837 200.377399 
L 586.114241 200.377399 
L 587.091645 204.904345 
L 588.069049 204.149854 
L 589.046453 211.694764 
L 590.023857 212.449255 
L 591.001261 219.239674 
L 591.978665 222.257638 
L 592.956069 214.712728 
L 593.933473 225.275603 
L 594.910878 225.275603 
L 595.888282 216.976201 
L 597.84309 219.994165 
L 598.820494 217.730692 
L 599.797898 216.976201 
L 600.775302 216.976201 
L 601.752706 214.712728 
L 602.73011 215.467219 
L 603.707514 211.694764 
L 604.684919 211.694764 
L 605.662323 212.449255 
L 606.639727 210.940273 
L 607.617131 220.748656 
L 608.594535 216.976201 
L 609.571939 219.239674 
L 610.549343 220.748656 
L 611.526747 223.766621 
L 612.504151 222.257638 
L 613.481555 222.257638 
L 614.45896 225.275603 
L 615.436364 227.539076 
L 615.436364 227.539076 
" style="fill:none;stroke:#1f77b4;stroke-linecap:round;stroke-width:1.5;"/>
   </g>
   <g id="line2d_20">
    <path clip-path="url(#pa3d6389b2c)" d="M 108.163636 286.389375 
L 109.14104 286.389375 
L 110.118445 281.107938 
L 111.095849 281.107938 
L 112.073253 279.598956 
L 113.050657 272.054046 
L 114.028061 272.808537 
L 115.005465 269.790573 
L 118.915081 269.790573 
L 119.892486 270.545064 
L 120.86989 267.5271 
L 121.847294 269.036082 
L 122.824698 268.281591 
L 123.802102 265.263626 
L 124.779506 265.263626 
L 125.75691 261.491171 
L 126.734314 258.473207 
L 127.711718 258.473207 
L 128.689122 262.245662 
L 130.643931 262.245662 
L 131.621335 261.491171 
L 132.598739 257.718716 
L 133.576143 259.982189 
L 134.553547 264.509135 
L 135.530951 258.473207 
L 136.508355 253.19177 
L 137.485759 252.437279 
L 138.463163 245.64686 
L 139.440568 250.173806 
L 140.417972 248.664824 
L 141.395376 245.64686 
L 142.37278 238.856441 
L 143.350184 235.083986 
L 144.327588 232.820513 
L 145.304992 238.856441 
L 146.282396 238.856441 
L 148.237204 241.874405 
L 149.214609 238.856441 
L 150.192013 233.575004 
L 151.169417 231.311531 
L 152.146821 229.802549 
L 153.124225 230.55704 
L 154.101629 225.275603 
L 155.079033 225.275603 
L 156.056437 232.820513 
L 157.033841 234.329495 
L 158.011245 229.048058 
L 158.98865 229.048058 
L 160.943458 232.066022 
L 161.920862 236.592968 
L 162.898266 233.575004 
L 163.87567 231.311531 
L 164.853074 235.838477 
L 165.830478 229.048058 
L 166.807882 229.048058 
L 167.785286 227.539076 
L 168.76269 230.55704 
L 169.740095 226.030094 
L 170.717499 226.030094 
L 171.694903 222.257638 
L 172.672307 223.012129 
L 174.627115 221.503147 
L 175.604519 228.293567 
L 176.581923 230.55704 
L 177.559327 225.275603 
L 178.536731 229.048058 
L 179.514136 225.275603 
L 180.49154 220.748656 
L 181.468944 219.239674 
L 182.446348 218.485183 
L 183.423752 221.503147 
L 184.401156 219.239674 
L 185.37856 219.239674 
L 186.355964 214.712728 
L 187.333368 216.976201 
L 188.310772 215.467219 
L 189.288177 215.467219 
L 190.265581 207.922309 
L 191.242985 211.694764 
L 192.220389 216.976201 
L 193.197793 219.239674 
L 194.175197 212.449255 
L 195.152601 216.976201 
L 196.130005 223.012129 
L 197.107409 225.275603 
L 199.062218 223.766621 
L 200.039622 219.239674 
L 201.017026 221.503147 
L 201.99443 219.994165 
L 202.971834 223.012129 
L 203.949238 222.257638 
L 204.926642 223.012129 
L 205.904046 227.539076 
L 206.88145 234.329495 
L 207.858854 233.575004 
L 208.836259 230.55704 
L 209.813663 231.311531 
L 210.791067 234.329495 
L 211.768471 232.066022 
L 212.745875 230.55704 
L 213.723279 231.311531 
L 214.700683 231.311531 
L 215.678087 229.802549 
L 216.655491 236.592968 
L 217.632895 236.592968 
L 218.6103 235.838477 
L 219.587704 238.856441 
L 220.565108 240.365423 
L 221.542512 236.592968 
L 222.519916 231.311531 
L 223.49732 233.575004 
L 224.474724 227.539076 
L 225.452128 230.55704 
L 226.429532 236.592968 
L 227.406936 238.856441 
L 228.384341 237.347459 
L 229.361745 237.347459 
L 230.339149 238.856441 
L 231.316553 233.575004 
L 232.293957 235.083986 
L 233.271361 237.347459 
L 234.248765 237.347459 
L 235.226169 233.575004 
L 236.203573 233.575004 
L 237.180977 238.10195 
L 238.158382 238.10195 
L 239.135786 238.856441 
L 240.11319 241.874405 
L 241.090594 243.383387 
L 242.067998 244.137878 
L 243.045402 246.401351 
L 244.022806 250.173806 
L 245.00021 249.419315 
L 245.977614 246.401351 
L 246.955018 247.155842 
L 247.932422 252.437279 
L 248.909827 252.437279 
L 249.887231 251.682788 
L 250.864635 255.455243 
L 251.842039 254.700752 
L 252.819443 253.19177 
L 253.796847 250.173806 
L 254.774251 251.682788 
L 255.751655 251.682788 
L 256.729059 248.664824 
L 257.706463 253.946261 
L 258.683868 253.946261 
L 259.661272 258.473207 
L 260.638676 256.209734 
L 261.61608 259.227698 
L 262.593484 259.227698 
L 263.570888 259.982189 
L 264.548292 256.964225 
L 266.5031 256.964225 
L 267.480504 260.73668 
L 268.457909 254.700752 
L 269.435313 256.209734 
L 270.412717 252.437279 
L 271.390121 253.946261 
L 272.367525 253.19177 
L 273.344929 253.946261 
L 274.322333 251.682788 
L 275.299737 253.946261 
L 276.277141 255.455243 
L 277.254545 254.700752 
L 278.23195 250.173806 
L 279.209354 251.682788 
L 280.186758 247.910333 
L 281.164162 248.664824 
L 282.141566 253.19177 
L 283.11897 259.227698 
L 284.096374 255.455243 
L 285.073778 255.455243 
L 286.051182 256.209734 
L 287.028586 254.700752 
L 288.983395 256.209734 
L 289.960799 255.455243 
L 290.938203 256.964225 
L 291.915607 262.245662 
L 292.893011 261.491171 
L 293.870415 256.964225 
L 294.847819 257.718716 
L 295.825223 256.964225 
L 296.802627 254.700752 
L 297.780032 253.19177 
L 298.757436 253.19177 
L 299.73484 256.209734 
L 300.712244 257.718716 
L 301.689648 256.964225 
L 303.644456 256.964225 
L 304.62186 256.209734 
L 305.599264 254.700752 
L 306.576668 256.209734 
L 307.554073 256.964225 
L 308.531477 255.455243 
L 309.508881 254.700752 
L 310.486285 258.473207 
L 311.463689 261.491171 
L 312.441093 259.227698 
L 313.418497 261.491171 
L 314.395901 261.491171 
L 315.373305 259.982189 
L 316.350709 262.245662 
L 317.328114 258.473207 
L 318.305518 256.209734 
L 319.282922 255.455243 
L 320.260326 252.437279 
L 323.192538 252.437279 
L 325.147346 249.419315 
L 326.12475 246.401351 
L 327.102154 251.682788 
L 328.079559 251.682788 
L 329.056963 250.928297 
L 330.034367 249.419315 
L 331.011771 246.401351 
L 331.989175 247.155842 
L 333.943983 245.64686 
L 334.921387 244.137878 
L 335.898791 241.874405 
L 336.876195 244.892369 
L 337.8536 235.838477 
L 338.831004 233.575004 
L 339.808408 235.083986 
L 340.785812 234.329495 
L 341.763216 226.784585 
L 342.74062 234.329495 
L 343.718024 233.575004 
L 344.695428 235.838477 
L 345.672832 235.083986 
L 346.650236 227.539076 
L 347.627641 226.030094 
L 348.605045 226.030094 
L 349.582449 216.22171 
L 350.559853 219.994165 
L 351.537257 225.275603 
L 352.514661 221.503147 
L 353.492065 222.257638 
L 354.469469 222.257638 
L 355.446873 223.766621 
L 356.424277 223.012129 
L 357.401682 228.293567 
L 358.379086 229.048058 
L 359.35649 223.766621 
L 360.333894 220.748656 
L 361.311298 222.257638 
L 362.288702 226.784585 
L 363.266106 228.293567 
L 364.24351 226.784585 
L 365.220914 235.083986 
L 366.198318 229.048058 
L 367.175723 229.048058 
L 368.153127 225.275603 
L 369.130531 220.748656 
L 370.107935 223.766621 
L 371.085339 223.766621 
L 372.062743 229.048058 
L 373.040147 231.311531 
L 374.017551 229.048058 
L 374.994955 228.293567 
L 375.972359 231.311531 
L 376.949764 235.838477 
L 377.927168 232.820513 
L 378.904572 230.55704 
L 379.881976 232.066022 
L 380.85938 226.784585 
L 381.836784 232.066022 
L 382.814188 235.083986 
L 383.791592 235.083986 
L 384.768996 226.784585 
L 385.7464 235.083986 
L 386.723805 235.083986 
L 387.701209 238.856441 
L 388.678613 236.592968 
L 389.656017 235.083986 
L 390.633421 236.592968 
L 391.610825 237.347459 
L 392.588229 239.610932 
L 393.565633 241.119914 
L 394.543037 241.874405 
L 395.520441 243.383387 
L 396.497846 241.874405 
L 397.47525 238.856441 
L 398.452654 237.347459 
L 399.430058 232.820513 
L 400.407462 233.575004 
L 401.384866 228.293567 
L 402.36227 226.784585 
L 403.339674 223.766621 
L 404.317078 225.275603 
L 405.294482 227.539076 
L 407.249291 230.55704 
L 408.226695 231.311531 
L 409.204099 233.575004 
L 410.181503 232.066022 
L 411.158907 234.329495 
L 412.136311 229.048058 
L 413.113715 229.802549 
L 414.091119 232.066022 
L 415.068523 231.311531 
L 416.045927 236.592968 
L 418.97814 238.856441 
L 419.955544 235.838477 
L 420.932948 231.311531 
L 421.910352 235.838477 
L 422.887756 232.820513 
L 423.86516 236.592968 
L 424.842564 238.10195 
L 425.819968 242.628896 
L 426.797373 245.64686 
L 427.774777 247.155842 
L 428.752181 244.892369 
L 429.729585 245.64686 
L 430.706989 243.383387 
L 431.684393 250.928297 
L 432.661797 251.682788 
L 433.639201 240.365423 
L 434.616605 244.137878 
L 435.594009 242.628896 
L 436.571414 243.383387 
L 437.548818 239.610932 
L 438.526222 242.628896 
L 439.503626 244.137878 
L 440.48103 241.874405 
L 441.458434 243.383387 
L 442.435838 248.664824 
L 444.390646 239.610932 
L 445.36805 244.892369 
L 446.345455 240.365423 
L 447.322859 237.347459 
L 448.300263 239.610932 
L 449.277667 236.592968 
L 450.255071 236.592968 
L 451.232475 237.347459 
L 452.209879 243.383387 
L 453.187283 233.575004 
L 454.164687 236.592968 
L 455.142091 238.856441 
L 456.119496 232.066022 
L 457.0969 229.048058 
L 458.074304 223.766621 
L 459.051708 211.694764 
L 460.029112 204.904345 
L 461.006516 213.958237 
L 461.98392 201.886381 
L 462.961324 196.604944 
L 463.938728 198.113926 
L 464.916132 186.796561 
L 465.893537 190.569016 
L 466.870941 186.04207 
L 467.848345 187.551052 
L 468.825749 180.760632 
L 469.803153 177.742668 
L 470.780557 165.670812 
L 471.757961 163.407339 
L 472.735365 155.862429 
L 473.712769 151.335483 
L 474.690173 154.353447 
L 475.667578 152.089974 
L 476.644982 150.580992 
L 477.622386 147.563028 
L 479.577194 146.054046 
L 480.554598 149.07201 
L 481.532002 146.808537 
L 482.509406 146.054046 
L 484.464214 143.036082 
L 485.441618 144.545064 
L 486.419023 153.598956 
L 487.396427 153.598956 
L 489.351235 165.670812 
L 490.328639 162.652848 
L 491.306043 158.880393 
L 492.283447 168.688776 
L 493.260851 163.407339 
L 494.238255 172.461231 
L 496.193064 175.479195 
L 497.170468 180.760632 
L 498.147872 189.060034 
L 499.125276 189.814525 
L 500.10268 194.341471 
L 502.057488 192.832489 
L 503.034892 197.359435 
L 504.012296 202.640872 
L 504.9897 198.113926 
L 505.967105 202.640872 
L 506.944509 183.024106 
L 507.921913 198.868417 
L 508.899317 205.658836 
L 509.876721 208.6768 
L 510.854125 198.868417 
L 511.831529 197.359435 
L 512.808933 204.149854 
L 513.786337 200.377399 
L 514.763741 182.269615 
L 515.741146 194.341471 
L 516.71855 192.832489 
L 517.695954 193.58698 
L 518.673358 199.622908 
L 519.650762 204.904345 
L 520.628166 198.868417 
L 521.60557 198.113926 
L 522.582974 194.341471 
L 523.560378 189.814525 
L 524.537782 191.323507 
L 525.515187 195.850453 
L 526.492591 193.58698 
L 527.469995 183.778597 
L 528.447399 183.778597 
L 529.424803 186.04207 
L 530.402207 186.796561 
L 531.379611 183.024106 
L 532.357015 180.760632 
L 533.334419 176.233686 
L 534.311823 174.724704 
L 535.289228 179.25165 
L 536.266632 167.934285 
L 537.244036 176.988177 
L 538.22144 178.497159 
L 539.198844 173.970213 
L 540.176248 168.688776 
L 541.153652 178.497159 
L 542.131056 180.760632 
L 543.10846 181.515124 
L 544.085864 183.778597 
L 545.063269 192.077998 
L 546.040673 195.850453 
L 547.018077 193.58698 
L 547.995481 198.868417 
L 548.972885 197.359435 
L 549.950289 198.868417 
L 550.927693 201.13189 
L 551.905097 200.377399 
L 552.882501 210.185782 
L 553.859905 207.922309 
L 554.83731 208.6768 
L 555.814714 211.694764 
L 556.792118 203.395363 
L 557.769522 204.904345 
L 558.746926 207.922309 
L 559.72433 213.958237 
L 560.701734 222.257638 
L 561.679138 226.030094 
L 562.656542 219.239674 
L 563.633946 219.994165 
L 564.61135 223.766621 
L 565.588755 225.275603 
L 566.566159 227.539076 
L 567.543563 222.257638 
L 568.520967 226.784585 
L 569.498371 230.55704 
L 570.475775 229.048058 
L 571.453179 228.293567 
L 573.407987 234.329495 
L 575.362796 237.347459 
L 576.3402 232.820513 
L 577.317604 235.838477 
L 578.295008 229.802549 
L 579.272412 226.784585 
L 580.249816 229.048058 
L 581.22722 228.293567 
L 582.204624 224.521112 
L 583.182028 229.802549 
L 584.159432 230.55704 
L 585.136837 234.329495 
L 588.069049 241.119914 
L 589.046453 242.628896 
L 590.023857 246.401351 
L 591.001261 244.137878 
L 591.978665 245.64686 
L 592.956069 240.365423 
L 593.933473 247.910333 
L 594.910878 247.910333 
L 595.888282 250.173806 
L 596.865686 247.155842 
L 598.820494 247.155842 
L 599.797898 245.64686 
L 600.775302 245.64686 
L 601.752706 242.628896 
L 602.73011 246.401351 
L 603.707514 247.155842 
L 604.684919 246.401351 
L 605.662323 241.874405 
L 606.639727 244.137878 
L 607.617131 245.64686 
L 608.594535 244.137878 
L 609.571939 247.155842 
L 610.549343 245.64686 
L 611.526747 244.892369 
L 612.504151 247.910333 
L 613.481555 250.173806 
L 614.45896 251.682788 
L 615.436364 251.682788 
L 615.436364 251.682788 
" style="fill:none;stroke:#ff7f0e;stroke-linecap:round;stroke-width:1.5;"/>
   </g>
   <g id="patch_3">
    <path d="M 82.8 298.989375 
L 82.8 21.789375 
" style="fill:none;stroke:#cccccc;stroke-linecap:square;stroke-linejoin:miter;stroke-width:0.8;"/>
   </g>
   <g id="patch_4">
    <path d="M 640.8 298.989375 
L 640.8 21.789375 
" style="fill:none;stroke:#cccccc;stroke-linecap:square;stroke-linejoin:miter;stroke-width:0.8;"/>
   </g>
   <g id="patch_5">
    <path d="M 82.8 298.989375 
L 640.8 298.989375 
" style="fill:none;stroke:#cccccc;stroke-linecap:square;stroke-linejoin:miter;stroke-width:0.8;"/>
   </g>
   <g id="patch_6">
    <path d="M 82.8 21.789375 
L 640.8 21.789375 
" style="fill:none;stroke:#cccccc;stroke-linecap:square;stroke-linejoin:miter;stroke-width:0.8;"/>
   </g>
   <g id="text_19">
    <!-- Internações -->
    <g style="fill:#262626;" transform="translate(330.449063 15.789375)scale(0.12 -0.12)">
     <defs>
      <path d="M 597 0 
L 597 4581 
L 1203 4581 
L 1203 0 
L 597 0 
z
" id="ArialMT-49" transform="scale(0.015625)"/>
      <path d="M 422 0 
L 422 3319 
L 928 3319 
L 928 2847 
Q 1294 3394 1984 3394 
Q 2284 3394 2536 3286 
Q 2788 3178 2913 3003 
Q 3038 2828 3088 2588 
Q 3119 2431 3119 2041 
L 3119 0 
L 2556 0 
L 2556 2019 
Q 2556 2363 2490 2533 
Q 2425 2703 2258 2804 
Q 2091 2906 1866 2906 
Q 1506 2906 1245 2678 
Q 984 2450 984 1813 
L 984 0 
L 422 0 
z
" id="ArialMT-6e" transform="scale(0.015625)"/>
      <path d="M 1650 503 
L 1731 6 
Q 1494 -44 1306 -44 
Q 1000 -44 831 53 
Q 663 150 594 308 
Q 525 466 525 972 
L 525 2881 
L 113 2881 
L 113 3319 
L 525 3319 
L 525 4141 
L 1084 4478 
L 1084 3319 
L 1650 3319 
L 1650 2881 
L 1084 2881 
L 1084 941 
Q 1084 700 1114 631 
Q 1144 563 1211 522 
Q 1278 481 1403 481 
Q 1497 481 1650 503 
z
" id="ArialMT-74" transform="scale(0.015625)"/>
      <path d="M 2694 1069 
L 3275 997 
Q 3138 488 2766 206 
Q 2394 -75 1816 -75 
Q 1088 -75 661 373 
Q 234 822 234 1631 
Q 234 2469 665 2931 
Q 1097 3394 1784 3394 
Q 2450 3394 2872 2941 
Q 3294 2488 3294 1666 
Q 3294 1616 3291 1516 
L 816 1516 
Q 847 969 1125 678 
Q 1403 388 1819 388 
Q 2128 388 2347 550 
Q 2566 713 2694 1069 
z
M 847 1978 
L 2700 1978 
Q 2663 2397 2488 2606 
Q 2219 2931 1791 2931 
Q 1403 2931 1139 2672 
Q 875 2413 847 1978 
z
" id="ArialMT-65" transform="scale(0.015625)"/>
      <path d="M 416 0 
L 416 3319 
L 922 3319 
L 922 2816 
Q 1116 3169 1280 3281 
Q 1444 3394 1641 3394 
Q 1925 3394 2219 3213 
L 2025 2691 
Q 1819 2813 1613 2813 
Q 1428 2813 1281 2702 
Q 1134 2591 1072 2394 
Q 978 2094 978 1738 
L 978 0 
L 416 0 
z
" id="ArialMT-72" transform="scale(0.015625)"/>
      <path d="M 2588 409 
Q 2275 144 1986 34 
Q 1697 -75 1366 -75 
Q 819 -75 525 192 
Q 231 459 231 875 
Q 231 1119 342 1320 
Q 453 1522 633 1644 
Q 813 1766 1038 1828 
Q 1203 1872 1538 1913 
Q 2219 1994 2541 2106 
Q 2544 2222 2544 2253 
Q 2544 2597 2384 2738 
Q 2169 2928 1744 2928 
Q 1347 2928 1158 2789 
Q 969 2650 878 2297 
L 328 2372 
Q 403 2725 575 2942 
Q 747 3159 1072 3276 
Q 1397 3394 1825 3394 
Q 2250 3394 2515 3294 
Q 2781 3194 2906 3042 
Q 3031 2891 3081 2659 
Q 3109 2516 3109 2141 
L 3109 1391 
Q 3109 606 3145 398 
Q 3181 191 3288 0 
L 2700 0 
Q 2613 175 2588 409 
z
M 2541 1666 
Q 2234 1541 1622 1453 
Q 1275 1403 1131 1340 
Q 988 1278 909 1158 
Q 831 1038 831 891 
Q 831 666 1001 516 
Q 1172 366 1500 366 
Q 1825 366 2078 508 
Q 2331 650 2450 897 
Q 2541 1088 2541 1459 
L 2541 1666 
z
" id="ArialMT-61" transform="scale(0.015625)"/>
      <path d="M 2588 1216 
L 3141 1144 
Q 3050 572 2676 248 
Q 2303 -75 1759 -75 
Q 1078 -75 664 370 
Q 250 816 250 1647 
Q 250 2184 428 2587 
Q 606 2991 970 3192 
Q 1334 3394 1763 3394 
Q 2303 3394 2647 3120 
Q 2991 2847 3088 2344 
L 2541 2259 
Q 2463 2594 2264 2762 
Q 2066 2931 1784 2931 
Q 1359 2931 1093 2626 
Q 828 2322 828 1663 
Q 828 994 1084 691 
Q 1341 388 1753 388 
Q 2084 388 2306 591 
Q 2528 794 2588 1216 
z
M 1283 -417 
L 1446 136 
L 1864 136 
L 1761 -199 
Q 2027 -230 2161 -362 
Q 2296 -495 2296 -658 
Q 2296 -892 2071 -1072 
Q 1846 -1252 1392 -1252 
Q 1136 -1252 942 -1214 
L 977 -849 
Q 1177 -861 1271 -861 
Q 1564 -861 1683 -780 
Q 1774 -717 1774 -627 
Q 1774 -570 1738 -526 
Q 1702 -483 1605 -451 
Q 1508 -420 1283 -417 
z
" id="ArialMT-e7" transform="scale(0.015625)"/>
      <path d="M 213 1659 
Q 213 2581 725 3025 
Q 1153 3394 1769 3394 
Q 2453 3394 2887 2945 
Q 3322 2497 3322 1706 
Q 3322 1066 3130 698 
Q 2938 331 2570 128 
Q 2203 -75 1769 -75 
Q 1072 -75 642 372 
Q 213 819 213 1659 
z
M 791 1659 
Q 791 1022 1069 705 
Q 1347 388 1769 388 
Q 2188 388 2466 706 
Q 2744 1025 2744 1678 
Q 2744 2294 2464 2611 
Q 2184 2928 1769 2928 
Q 1347 2928 1069 2612 
Q 791 2297 791 1659 
z
M 726 3809 
Q 723 4134 904 4328 
Q 1082 4522 1360 4522 
Q 1554 4522 1888 4353 
Q 2073 4259 2182 4259 
Q 2282 4259 2335 4314 
Q 2388 4369 2410 4531 
L 2817 4531 
Q 2807 4175 2637 3997 
Q 2467 3819 2204 3819 
Q 2007 3819 1685 3994 
Q 1476 4106 1379 4106 
Q 1273 4106 1207 4031 
Q 1138 3956 1142 3809 
L 726 3809 
z
" id="ArialMT-f5" transform="scale(0.015625)"/>
      <path d="M 197 991 
L 753 1078 
Q 800 744 1014 566 
Q 1228 388 1613 388 
Q 2000 388 2187 545 
Q 2375 703 2375 916 
Q 2375 1106 2209 1216 
Q 2094 1291 1634 1406 
Q 1016 1563 777 1677 
Q 538 1791 414 1992 
Q 291 2194 291 2438 
Q 291 2659 392 2848 
Q 494 3038 669 3163 
Q 800 3259 1026 3326 
Q 1253 3394 1513 3394 
Q 1903 3394 2198 3281 
Q 2494 3169 2634 2976 
Q 2775 2784 2828 2463 
L 2278 2388 
Q 2241 2644 2061 2787 
Q 1881 2931 1553 2931 
Q 1166 2931 1000 2803 
Q 834 2675 834 2503 
Q 834 2394 903 2306 
Q 972 2216 1119 2156 
Q 1203 2125 1616 2013 
Q 2213 1853 2448 1751 
Q 2684 1650 2818 1456 
Q 2953 1263 2953 975 
Q 2953 694 2789 445 
Q 2625 197 2315 61 
Q 2006 -75 1616 -75 
Q 969 -75 630 194 
Q 291 463 197 991 
z
" id="ArialMT-73" transform="scale(0.015625)"/>
     </defs>
     <use xlink:href="#ArialMT-49"/>
     <use x="27.783203" xlink:href="#ArialMT-6e"/>
     <use x="83.398438" xlink:href="#ArialMT-74"/>
     <use x="111.181641" xlink:href="#ArialMT-65"/>
     <use x="166.796875" xlink:href="#ArialMT-72"/>
     <use x="200.097656" xlink:href="#ArialMT-6e"/>
     <use x="255.712891" xlink:href="#ArialMT-61"/>
     <use x="311.328125" xlink:href="#ArialMT-e7"/>
     <use x="361.328125" xlink:href="#ArialMT-f5"/>
     <use x="416.943359" xlink:href="#ArialMT-65"/>
     <use x="472.558594" xlink:href="#ArialMT-73"/>
    </g>
   </g>
   <g id="legend_1">
    <g id="patch_7">
     <path d="M 549.548437 58.08 
L 633.8 58.08 
Q 635.8 58.08 635.8 56.08 
L 635.8 28.789375 
Q 635.8 26.789375 633.8 26.789375 
L 549.548437 26.789375 
Q 547.548437 26.789375 547.548437 28.789375 
L 547.548437 56.08 
Q 547.548437 58.08 549.548437 58.08 
z
" style="fill:#ffffff;opacity:0.8;stroke:#cccccc;stroke-linejoin:miter;"/>
    </g>
    <g id="line2d_21">
     <path d="M 551.548437 34.447188 
L 571.548437 34.447188 
" style="fill:none;stroke:#1f77b4;stroke-linecap:round;stroke-width:1.5;"/>
    </g>
    <g id="line2d_22"/>
    <g id="text_20">
     <!-- Internações -->
     <g style="fill:#262626;" transform="translate(579.548437 37.947188)scale(0.1 -0.1)">
      <use xlink:href="#ArialMT-49"/>
      <use x="27.783203" xlink:href="#ArialMT-6e"/>
      <use x="83.398438" xlink:href="#ArialMT-74"/>
      <use x="111.181641" xlink:href="#ArialMT-65"/>
      <use x="166.796875" xlink:href="#ArialMT-72"/>
      <use x="200.097656" xlink:href="#ArialMT-6e"/>
      <use x="255.712891" xlink:href="#ArialMT-61"/>
      <use x="311.328125" xlink:href="#ArialMT-e7"/>
      <use x="361.328125" xlink:href="#ArialMT-f5"/>
      <use x="416.943359" xlink:href="#ArialMT-65"/>
      <use x="472.558594" xlink:href="#ArialMT-73"/>
     </g>
    </g>
    <g id="line2d_23">
     <path d="M 551.548437 48.5925 
L 571.548437 48.5925 
" style="fill:none;stroke:#ff7f0e;stroke-linecap:round;stroke-width:1.5;"/>
    </g>
    <g id="line2d_24"/>
    <g id="text_21">
     <!-- UTI -->
     <g style="fill:#262626;" transform="translate(579.548437 52.0925)scale(0.1 -0.1)">
      <defs>
       <path d="M 3500 4581 
L 4106 4581 
L 4106 1934 
Q 4106 1244 3950 837 
Q 3794 431 3386 176 
Q 2978 -78 2316 -78 
Q 1672 -78 1262 144 
Q 853 366 678 786 
Q 503 1206 503 1934 
L 503 4581 
L 1109 4581 
L 1109 1938 
Q 1109 1341 1220 1058 
Q 1331 775 1601 622 
Q 1872 469 2263 469 
Q 2931 469 3215 772 
Q 3500 1075 3500 1938 
L 3500 4581 
z
" id="ArialMT-55" transform="scale(0.015625)"/>
       <path d="M 1659 0 
L 1659 4041 
L 150 4041 
L 150 4581 
L 3781 4581 
L 3781 4041 
L 2266 4041 
L 2266 0 
L 1659 0 
z
" id="ArialMT-54" transform="scale(0.015625)"/>
      </defs>
      <use xlink:href="#ArialMT-55"/>
      <use x="72.216797" xlink:href="#ArialMT-54"/>
      <use x="133.300781" xlink:href="#ArialMT-49"/>
     </g>
    </g>
   </g>
  </g>
  <g id="text_22">
   <!-- Atualizado em 20/08/2021 -->
   <g style="fill:#262626;" transform="translate(7.2 331.389375)scale(0.08 -0.08)">
    <defs>
     <path d="M -9 0 
L 1750 4581 
L 2403 4581 
L 4278 0 
L 3588 0 
L 3053 1388 
L 1138 1388 
L 634 0 
L -9 0 
z
M 1313 1881 
L 2866 1881 
L 2388 3150 
Q 2169 3728 2063 4100 
Q 1975 3659 1816 3225 
L 1313 1881 
z
" id="ArialMT-41" transform="scale(0.015625)"/>
     <path d="M 2597 0 
L 2597 488 
Q 2209 -75 1544 -75 
Q 1250 -75 995 37 
Q 741 150 617 320 
Q 494 491 444 738 
Q 409 903 409 1263 
L 409 3319 
L 972 3319 
L 972 1478 
Q 972 1038 1006 884 
Q 1059 663 1231 536 
Q 1403 409 1656 409 
Q 1909 409 2131 539 
Q 2353 669 2445 892 
Q 2538 1116 2538 1541 
L 2538 3319 
L 3100 3319 
L 3100 0 
L 2597 0 
z
" id="ArialMT-75" transform="scale(0.015625)"/>
     <path d="M 409 0 
L 409 4581 
L 972 4581 
L 972 0 
L 409 0 
z
" id="ArialMT-6c" transform="scale(0.015625)"/>
     <path d="M 425 3934 
L 425 4581 
L 988 4581 
L 988 3934 
L 425 3934 
z
M 425 0 
L 425 3319 
L 988 3319 
L 988 0 
L 425 0 
z
" id="ArialMT-69" transform="scale(0.015625)"/>
     <path d="M 125 0 
L 125 456 
L 2238 2881 
Q 1878 2863 1603 2863 
L 250 2863 
L 250 3319 
L 2963 3319 
L 2963 2947 
L 1166 841 
L 819 456 
Q 1197 484 1528 484 
L 3063 484 
L 3063 0 
L 125 0 
z
" id="ArialMT-7a" transform="scale(0.015625)"/>
     <path d="M 2575 0 
L 2575 419 
Q 2259 -75 1647 -75 
Q 1250 -75 917 144 
Q 584 363 401 755 
Q 219 1147 219 1656 
Q 219 2153 384 2558 
Q 550 2963 881 3178 
Q 1213 3394 1622 3394 
Q 1922 3394 2156 3267 
Q 2391 3141 2538 2938 
L 2538 4581 
L 3097 4581 
L 3097 0 
L 2575 0 
z
M 797 1656 
Q 797 1019 1065 703 
Q 1334 388 1700 388 
Q 2069 388 2326 689 
Q 2584 991 2584 1609 
Q 2584 2291 2321 2609 
Q 2059 2928 1675 2928 
Q 1300 2928 1048 2622 
Q 797 2316 797 1656 
z
" id="ArialMT-64" transform="scale(0.015625)"/>
     <path d="M 213 1659 
Q 213 2581 725 3025 
Q 1153 3394 1769 3394 
Q 2453 3394 2887 2945 
Q 3322 2497 3322 1706 
Q 3322 1066 3130 698 
Q 2938 331 2570 128 
Q 2203 -75 1769 -75 
Q 1072 -75 642 372 
Q 213 819 213 1659 
z
M 791 1659 
Q 791 1022 1069 705 
Q 1347 388 1769 388 
Q 2188 388 2466 706 
Q 2744 1025 2744 1678 
Q 2744 2294 2464 2611 
Q 2184 2928 1769 2928 
Q 1347 2928 1069 2612 
Q 791 2297 791 1659 
z
" id="ArialMT-6f" transform="scale(0.015625)"/>
     <path id="ArialMT-20" transform="scale(0.015625)"/>
     <path d="M 422 0 
L 422 3319 
L 925 3319 
L 925 2853 
Q 1081 3097 1340 3245 
Q 1600 3394 1931 3394 
Q 2300 3394 2536 3241 
Q 2772 3088 2869 2813 
Q 3263 3394 3894 3394 
Q 4388 3394 4653 3120 
Q 4919 2847 4919 2278 
L 4919 0 
L 4359 0 
L 4359 2091 
Q 4359 2428 4304 2576 
Q 4250 2725 4106 2815 
Q 3963 2906 3769 2906 
Q 3419 2906 3187 2673 
Q 2956 2441 2956 1928 
L 2956 0 
L 2394 0 
L 2394 2156 
Q 2394 2531 2256 2718 
Q 2119 2906 1806 2906 
Q 1569 2906 1367 2781 
Q 1166 2656 1075 2415 
Q 984 2175 984 1722 
L 984 0 
L 422 0 
z
" id="ArialMT-6d" transform="scale(0.015625)"/>
     <path d="M 0 -78 
L 1328 4659 
L 1778 4659 
L 453 -78 
L 0 -78 
z
" id="ArialMT-2f" transform="scale(0.015625)"/>
     <path d="M 1131 2484 
Q 781 2613 612 2850 
Q 444 3088 444 3419 
Q 444 3919 803 4259 
Q 1163 4600 1759 4600 
Q 2359 4600 2725 4251 
Q 3091 3903 3091 3403 
Q 3091 3084 2923 2848 
Q 2756 2613 2416 2484 
Q 2838 2347 3058 2040 
Q 3278 1734 3278 1309 
Q 3278 722 2862 322 
Q 2447 -78 1769 -78 
Q 1091 -78 675 323 
Q 259 725 259 1325 
Q 259 1772 486 2073 
Q 713 2375 1131 2484 
z
M 1019 3438 
Q 1019 3113 1228 2906 
Q 1438 2700 1772 2700 
Q 2097 2700 2305 2904 
Q 2513 3109 2513 3406 
Q 2513 3716 2298 3927 
Q 2084 4138 1766 4138 
Q 1444 4138 1231 3931 
Q 1019 3725 1019 3438 
z
M 838 1322 
Q 838 1081 952 856 
Q 1066 631 1291 507 
Q 1516 384 1775 384 
Q 2178 384 2440 643 
Q 2703 903 2703 1303 
Q 2703 1709 2433 1975 
Q 2163 2241 1756 2241 
Q 1359 2241 1098 1978 
Q 838 1716 838 1322 
z
" id="ArialMT-38" transform="scale(0.015625)"/>
    </defs>
    <use xlink:href="#ArialMT-41"/>
    <use x="66.699219" xlink:href="#ArialMT-74"/>
    <use x="94.482422" xlink:href="#ArialMT-75"/>
    <use x="150.097656" xlink:href="#ArialMT-61"/>
    <use x="205.712891" xlink:href="#ArialMT-6c"/>
    <use x="227.929688" xlink:href="#ArialMT-69"/>
    <use x="250.146484" xlink:href="#ArialMT-7a"/>
    <use x="300.146484" xlink:href="#ArialMT-61"/>
    <use x="355.761719" xlink:href="#ArialMT-64"/>
    <use x="411.376953" xlink:href="#ArialMT-6f"/>
    <use x="466.992188" xlink:href="#ArialMT-20"/>
    <use x="494.775391" xlink:href="#ArialMT-65"/>
    <use x="550.390625" xlink:href="#ArialMT-6d"/>
    <use x="633.691406" xlink:href="#ArialMT-20"/>
    <use x="661.474609" xlink:href="#ArialMT-32"/>
    <use x="717.089844" xlink:href="#ArialMT-30"/>
    <use x="772.705078" xlink:href="#ArialMT-2f"/>
    <use x="800.488281" xlink:href="#ArialMT-30"/>
    <use x="856.103516" xlink:href="#ArialMT-38"/>
    <use x="911.71875" xlink:href="#ArialMT-2f"/>
    <use x="939.501953" xlink:href="#ArialMT-32"/>
    <use x="995.117188" xlink:href="#ArialMT-30"/>
    <use x="1050.732422" xlink:href="#ArialMT-32"/>
    <use x="1106.347656" xlink:href="#ArialMT-31"/>
   </g>
  </g>
  <g id="text_23">
   <!-- https://jmsvaz.github.io/covidsantos/ -->
   <g style="fill:#262626;" transform="translate(570.345 331.389375)scale(0.08 -0.08)">
    <defs>
     <path d="M 422 0 
L 422 4581 
L 984 4581 
L 984 2938 
Q 1378 3394 1978 3394 
Q 2347 3394 2619 3248 
Q 2891 3103 3008 2847 
Q 3125 2591 3125 2103 
L 3125 0 
L 2563 0 
L 2563 2103 
Q 2563 2525 2380 2717 
Q 2197 2909 1863 2909 
Q 1613 2909 1392 2779 
Q 1172 2650 1078 2428 
Q 984 2206 984 1816 
L 984 0 
L 422 0 
z
" id="ArialMT-68" transform="scale(0.015625)"/>
     <path d="M 422 -1272 
L 422 3319 
L 934 3319 
L 934 2888 
Q 1116 3141 1344 3267 
Q 1572 3394 1897 3394 
Q 2322 3394 2647 3175 
Q 2972 2956 3137 2557 
Q 3303 2159 3303 1684 
Q 3303 1175 3120 767 
Q 2938 359 2589 142 
Q 2241 -75 1856 -75 
Q 1575 -75 1351 44 
Q 1128 163 984 344 
L 984 -1272 
L 422 -1272 
z
M 931 1641 
Q 931 1000 1190 694 
Q 1450 388 1819 388 
Q 2194 388 2461 705 
Q 2728 1022 2728 1688 
Q 2728 2322 2467 2637 
Q 2206 2953 1844 2953 
Q 1484 2953 1207 2617 
Q 931 2281 931 1641 
z
" id="ArialMT-70" transform="scale(0.015625)"/>
     <path d="M 578 2678 
L 578 3319 
L 1219 3319 
L 1219 2678 
L 578 2678 
z
M 578 0 
L 578 641 
L 1219 641 
L 1219 0 
L 578 0 
z
" id="ArialMT-3a" transform="scale(0.015625)"/>
     <path d="M 419 3928 
L 419 4581 
L 981 4581 
L 981 3928 
L 419 3928 
z
M -294 -1288 
L -188 -809 
Q -19 -853 78 -853 
Q 250 -853 334 -739 
Q 419 -625 419 -169 
L 419 3319 
L 981 3319 
L 981 -181 
Q 981 -794 822 -1034 
Q 619 -1347 147 -1347 
Q -81 -1347 -294 -1288 
z
" id="ArialMT-6a" transform="scale(0.015625)"/>
     <path d="M 1344 0 
L 81 3319 
L 675 3319 
L 1388 1331 
Q 1503 1009 1600 663 
Q 1675 925 1809 1294 
L 2547 3319 
L 3125 3319 
L 1869 0 
L 1344 0 
z
" id="ArialMT-76" transform="scale(0.015625)"/>
     <path d="M 581 0 
L 581 641 
L 1222 641 
L 1222 0 
L 581 0 
z
" id="ArialMT-2e" transform="scale(0.015625)"/>
     <path d="M 319 -275 
L 866 -356 
Q 900 -609 1056 -725 
Q 1266 -881 1628 -881 
Q 2019 -881 2231 -725 
Q 2444 -569 2519 -288 
Q 2563 -116 2559 434 
Q 2191 0 1641 0 
Q 956 0 581 494 
Q 206 988 206 1678 
Q 206 2153 378 2554 
Q 550 2956 876 3175 
Q 1203 3394 1644 3394 
Q 2231 3394 2613 2919 
L 2613 3319 
L 3131 3319 
L 3131 450 
Q 3131 -325 2973 -648 
Q 2816 -972 2473 -1159 
Q 2131 -1347 1631 -1347 
Q 1038 -1347 672 -1080 
Q 306 -813 319 -275 
z
M 784 1719 
Q 784 1066 1043 766 
Q 1303 466 1694 466 
Q 2081 466 2343 764 
Q 2606 1063 2606 1700 
Q 2606 2309 2336 2618 
Q 2066 2928 1684 2928 
Q 1309 2928 1046 2623 
Q 784 2319 784 1719 
z
" id="ArialMT-67" transform="scale(0.015625)"/>
     <path d="M 941 0 
L 419 0 
L 419 4581 
L 981 4581 
L 981 2947 
Q 1338 3394 1891 3394 
Q 2197 3394 2470 3270 
Q 2744 3147 2920 2923 
Q 3097 2700 3197 2384 
Q 3297 2069 3297 1709 
Q 3297 856 2875 390 
Q 2453 -75 1863 -75 
Q 1275 -75 941 416 
L 941 0 
z
M 934 1684 
Q 934 1088 1097 822 
Q 1363 388 1816 388 
Q 2184 388 2453 708 
Q 2722 1028 2722 1663 
Q 2722 2313 2464 2622 
Q 2206 2931 1841 2931 
Q 1472 2931 1203 2611 
Q 934 2291 934 1684 
z
" id="ArialMT-62" transform="scale(0.015625)"/>
     <path d="M 2588 1216 
L 3141 1144 
Q 3050 572 2676 248 
Q 2303 -75 1759 -75 
Q 1078 -75 664 370 
Q 250 816 250 1647 
Q 250 2184 428 2587 
Q 606 2991 970 3192 
Q 1334 3394 1763 3394 
Q 2303 3394 2647 3120 
Q 2991 2847 3088 2344 
L 2541 2259 
Q 2463 2594 2264 2762 
Q 2066 2931 1784 2931 
Q 1359 2931 1093 2626 
Q 828 2322 828 1663 
Q 828 994 1084 691 
Q 1341 388 1753 388 
Q 2084 388 2306 591 
Q 2528 794 2588 1216 
z
" id="ArialMT-63" transform="scale(0.015625)"/>
    </defs>
    <use xlink:href="#ArialMT-68"/>
    <use x="55.615234" xlink:href="#ArialMT-74"/>
    <use x="83.398438" xlink:href="#ArialMT-74"/>
    <use x="111.181641" xlink:href="#ArialMT-70"/>
    <use x="166.796875" xlink:href="#ArialMT-73"/>
    <use x="216.796875" xlink:href="#ArialMT-3a"/>
    <use x="244.580078" xlink:href="#ArialMT-2f"/>
    <use x="272.363281" xlink:href="#ArialMT-2f"/>
    <use x="300.146484" xlink:href="#ArialMT-6a"/>
    <use x="322.363281" xlink:href="#ArialMT-6d"/>
    <use x="405.664062" xlink:href="#ArialMT-73"/>
    <use x="455.664062" xlink:href="#ArialMT-76"/>
    <use x="505.664062" xlink:href="#ArialMT-61"/>
    <use x="561.279297" xlink:href="#ArialMT-7a"/>
    <use x="611.279297" xlink:href="#ArialMT-2e"/>
    <use x="639.0625" xlink:href="#ArialMT-67"/>
    <use x="694.677734" xlink:href="#ArialMT-69"/>
    <use x="716.894531" xlink:href="#ArialMT-74"/>
    <use x="744.677734" xlink:href="#ArialMT-68"/>
    <use x="800.292969" xlink:href="#ArialMT-75"/>
    <use x="855.908203" xlink:href="#ArialMT-62"/>
    <use x="911.523438" xlink:href="#ArialMT-2e"/>
    <use x="939.306641" xlink:href="#ArialMT-69"/>
    <use x="961.523438" xlink:href="#ArialMT-6f"/>
    <use x="1017.138672" xlink:href="#ArialMT-2f"/>
    <use x="1044.921875" xlink:href="#ArialMT-63"/>
    <use x="1094.921875" xlink:href="#ArialMT-6f"/>
    <use x="1150.537109" xlink:href="#ArialMT-76"/>
    <use x="1200.537109" xlink:href="#ArialMT-69"/>
    <use x="1222.753906" xlink:href="#ArialMT-64"/>
    <use x="1278.369141" xlink:href="#ArialMT-73"/>
    <use x="1328.369141" xlink:href="#ArialMT-61"/>
    <use x="1383.984375" xlink:href="#ArialMT-6e"/>
    <use x="1439.599609" xlink:href="#ArialMT-74"/>
    <use x="1467.382812" xlink:href="#ArialMT-6f"/>
    <use x="1522.998047" xlink:href="#ArialMT-73"/>
    <use x="1572.998047" xlink:href="#ArialMT-2f"/>
   </g>
  </g>
 </g>
 <defs>
  <clipPath id="pa3d6389b2c">
   <rect height="277.2" width="558" x="82.8" y="21.789375"/>
  </clipPath>
 </defs>
</svg>
