<?xml version="1.0" encoding="utf-8" standalone="no"?>
<!DOCTYPE svg PUBLIC "-//W3C//DTD SVG 1.1//EN"
  "http://www.w3.org/Graphics/SVG/1.1/DTD/svg11.dtd">
<svg height="340.273125pt" version="1.1" viewBox="0 0 705.6 340.273125" width="705.6pt" xmlns="http://www.w3.org/2000/svg" xmlns:xlink="http://www.w3.org/1999/xlink">
 <metadata>
  <rdf:RDF xmlns:cc="http://creativecommons.org/ns#" xmlns:dc="http://purl.org/dc/elements/1.1/" xmlns:rdf="http://www.w3.org/1999/02/22-rdf-syntax-ns#">
   <cc:Work>
    <dc:type rdf:resource="http://purl.org/dc/dcmitype/StillImage"/>
    <dc:date>2021-08-04T19:52:25.154234</dc:date>
    <dc:format>image/svg+xml</dc:format>
    <dc:creator>
     <cc:Agent>
      <dc:title>Matplotlib v3.4.2, https://matplotlib.org/</dc:title>
     </cc:Agent>
    </dc:creator>
   </cc:Work>
  </rdf:RDF>
 </metadata>
 <defs>
  <style type="text/css">*{stroke-linecap:butt;stroke-linejoin:round;}</style>
 </defs>
 <g id="figure_1">
  <g id="patch_1">
   <path d="M 0 340.273125 
L 705.6 340.273125 
L 705.6 0 
L 0 0 
z
" style="fill:#ffffff;"/>
  </g>
  <g id="axes_1">
   <g id="patch_2">
    <path d="M 82.8 298.989375 
L 640.8 298.989375 
L 640.8 21.789375 
L 82.8 21.789375 
z
" style="fill:#ffffff;"/>
   </g>
   <g id="matplotlib.axis_1">
    <g id="xtick_1">
     <g id="line2d_1">
      <path clip-path="url(#p2050afbe5a)" d="M 90.010736 298.989375 
L 90.010736 21.789375 
" style="fill:none;stroke:#cccccc;stroke-linecap:round;stroke-width:0.8;"/>
     </g>
     <g id="text_1">
      <!-- 2020-03 -->
      <g style="fill:#262626;" transform="translate(71.663079 313.147188)scale(0.1 -0.1)">
       <defs>
        <path d="M 3222 541 
L 3222 0 
L 194 0 
Q 188 203 259 391 
Q 375 700 629 1000 
Q 884 1300 1366 1694 
Q 2113 2306 2375 2664 
Q 2638 3022 2638 3341 
Q 2638 3675 2398 3904 
Q 2159 4134 1775 4134 
Q 1369 4134 1125 3890 
Q 881 3647 878 3216 
L 300 3275 
Q 359 3922 746 4261 
Q 1134 4600 1788 4600 
Q 2447 4600 2831 4234 
Q 3216 3869 3216 3328 
Q 3216 3053 3103 2787 
Q 2991 2522 2730 2228 
Q 2469 1934 1863 1422 
Q 1356 997 1212 845 
Q 1069 694 975 541 
L 3222 541 
z
" id="ArialMT-32" transform="scale(0.015625)"/>
        <path d="M 266 2259 
Q 266 3072 433 3567 
Q 600 4063 929 4331 
Q 1259 4600 1759 4600 
Q 2128 4600 2406 4451 
Q 2684 4303 2865 4023 
Q 3047 3744 3150 3342 
Q 3253 2941 3253 2259 
Q 3253 1453 3087 958 
Q 2922 463 2592 192 
Q 2263 -78 1759 -78 
Q 1097 -78 719 397 
Q 266 969 266 2259 
z
M 844 2259 
Q 844 1131 1108 757 
Q 1372 384 1759 384 
Q 2147 384 2411 759 
Q 2675 1134 2675 2259 
Q 2675 3391 2411 3762 
Q 2147 4134 1753 4134 
Q 1366 4134 1134 3806 
Q 844 3388 844 2259 
z
" id="ArialMT-30" transform="scale(0.015625)"/>
        <path d="M 203 1375 
L 203 1941 
L 1931 1941 
L 1931 1375 
L 203 1375 
z
" id="ArialMT-2d" transform="scale(0.015625)"/>
        <path d="M 269 1209 
L 831 1284 
Q 928 806 1161 595 
Q 1394 384 1728 384 
Q 2125 384 2398 659 
Q 2672 934 2672 1341 
Q 2672 1728 2419 1979 
Q 2166 2231 1775 2231 
Q 1616 2231 1378 2169 
L 1441 2663 
Q 1497 2656 1531 2656 
Q 1891 2656 2178 2843 
Q 2466 3031 2466 3422 
Q 2466 3731 2256 3934 
Q 2047 4138 1716 4138 
Q 1388 4138 1169 3931 
Q 950 3725 888 3313 
L 325 3413 
Q 428 3978 793 4289 
Q 1159 4600 1703 4600 
Q 2078 4600 2393 4439 
Q 2709 4278 2876 4000 
Q 3044 3722 3044 3409 
Q 3044 3113 2884 2869 
Q 2725 2625 2413 2481 
Q 2819 2388 3044 2092 
Q 3269 1797 3269 1353 
Q 3269 753 2831 336 
Q 2394 -81 1725 -81 
Q 1122 -81 723 278 
Q 325 638 269 1209 
z
" id="ArialMT-33" transform="scale(0.015625)"/>
       </defs>
       <use xlink:href="#ArialMT-32"/>
       <use x="55.615234" xlink:href="#ArialMT-30"/>
       <use x="111.230469" xlink:href="#ArialMT-32"/>
       <use x="166.845703" xlink:href="#ArialMT-30"/>
       <use x="222.460938" xlink:href="#ArialMT-2d"/>
       <use x="255.761719" xlink:href="#ArialMT-30"/>
       <use x="311.376953" xlink:href="#ArialMT-33"/>
      </g>
     </g>
    </g>
    <g id="xtick_2">
     <g id="line2d_2">
      <path clip-path="url(#p2050afbe5a)" d="M 151.528899 298.989375 
L 151.528899 21.789375 
" style="fill:none;stroke:#cccccc;stroke-linecap:round;stroke-width:0.8;"/>
     </g>
     <g id="text_2">
      <!-- 2020-05 -->
      <g style="fill:#262626;" transform="translate(133.181243 313.147188)scale(0.1 -0.1)">
       <defs>
        <path d="M 266 1200 
L 856 1250 
Q 922 819 1161 601 
Q 1400 384 1738 384 
Q 2144 384 2425 690 
Q 2706 997 2706 1503 
Q 2706 1984 2436 2262 
Q 2166 2541 1728 2541 
Q 1456 2541 1237 2417 
Q 1019 2294 894 2097 
L 366 2166 
L 809 4519 
L 3088 4519 
L 3088 3981 
L 1259 3981 
L 1013 2750 
Q 1425 3038 1878 3038 
Q 2478 3038 2890 2622 
Q 3303 2206 3303 1553 
Q 3303 931 2941 478 
Q 2500 -78 1738 -78 
Q 1113 -78 717 272 
Q 322 622 266 1200 
z
" id="ArialMT-35" transform="scale(0.015625)"/>
       </defs>
       <use xlink:href="#ArialMT-32"/>
       <use x="55.615234" xlink:href="#ArialMT-30"/>
       <use x="111.230469" xlink:href="#ArialMT-32"/>
       <use x="166.845703" xlink:href="#ArialMT-30"/>
       <use x="222.460938" xlink:href="#ArialMT-2d"/>
       <use x="255.761719" xlink:href="#ArialMT-30"/>
       <use x="311.376953" xlink:href="#ArialMT-35"/>
      </g>
     </g>
    </g>
    <g id="xtick_3">
     <g id="line2d_3">
      <path clip-path="url(#p2050afbe5a)" d="M 213.047063 298.989375 
L 213.047063 21.789375 
" style="fill:none;stroke:#cccccc;stroke-linecap:round;stroke-width:0.8;"/>
     </g>
     <g id="text_3">
      <!-- 2020-07 -->
      <g style="fill:#262626;" transform="translate(194.699407 313.147188)scale(0.1 -0.1)">
       <defs>
        <path d="M 303 3981 
L 303 4522 
L 3269 4522 
L 3269 4084 
Q 2831 3619 2401 2847 
Q 1972 2075 1738 1259 
Q 1569 684 1522 0 
L 944 0 
Q 953 541 1156 1306 
Q 1359 2072 1739 2783 
Q 2119 3494 2547 3981 
L 303 3981 
z
" id="ArialMT-37" transform="scale(0.015625)"/>
       </defs>
       <use xlink:href="#ArialMT-32"/>
       <use x="55.615234" xlink:href="#ArialMT-30"/>
       <use x="111.230469" xlink:href="#ArialMT-32"/>
       <use x="166.845703" xlink:href="#ArialMT-30"/>
       <use x="222.460938" xlink:href="#ArialMT-2d"/>
       <use x="255.761719" xlink:href="#ArialMT-30"/>
       <use x="311.376953" xlink:href="#ArialMT-37"/>
      </g>
     </g>
    </g>
    <g id="xtick_4">
     <g id="line2d_4">
      <path clip-path="url(#p2050afbe5a)" d="M 275.573721 298.989375 
L 275.573721 21.789375 
" style="fill:none;stroke:#cccccc;stroke-linecap:round;stroke-width:0.8;"/>
     </g>
     <g id="text_4">
      <!-- 2020-09 -->
      <g style="fill:#262626;" transform="translate(257.226065 313.147188)scale(0.1 -0.1)">
       <defs>
        <path d="M 350 1059 
L 891 1109 
Q 959 728 1153 556 
Q 1347 384 1650 384 
Q 1909 384 2104 503 
Q 2300 622 2425 820 
Q 2550 1019 2634 1356 
Q 2719 1694 2719 2044 
Q 2719 2081 2716 2156 
Q 2547 1888 2255 1720 
Q 1963 1553 1622 1553 
Q 1053 1553 659 1965 
Q 266 2378 266 3053 
Q 266 3750 677 4175 
Q 1088 4600 1706 4600 
Q 2153 4600 2523 4359 
Q 2894 4119 3086 3673 
Q 3278 3228 3278 2384 
Q 3278 1506 3087 986 
Q 2897 466 2520 194 
Q 2144 -78 1638 -78 
Q 1100 -78 759 220 
Q 419 519 350 1059 
z
M 2653 3081 
Q 2653 3566 2395 3850 
Q 2138 4134 1775 4134 
Q 1400 4134 1122 3828 
Q 844 3522 844 3034 
Q 844 2597 1108 2323 
Q 1372 2050 1759 2050 
Q 2150 2050 2401 2323 
Q 2653 2597 2653 3081 
z
" id="ArialMT-39" transform="scale(0.015625)"/>
       </defs>
       <use xlink:href="#ArialMT-32"/>
       <use x="55.615234" xlink:href="#ArialMT-30"/>
       <use x="111.230469" xlink:href="#ArialMT-32"/>
       <use x="166.845703" xlink:href="#ArialMT-30"/>
       <use x="222.460938" xlink:href="#ArialMT-2d"/>
       <use x="255.761719" xlink:href="#ArialMT-30"/>
       <use x="311.376953" xlink:href="#ArialMT-39"/>
      </g>
     </g>
    </g>
    <g id="xtick_5">
     <g id="line2d_5">
      <path clip-path="url(#p2050afbe5a)" d="M 337.091885 298.989375 
L 337.091885 21.789375 
" style="fill:none;stroke:#cccccc;stroke-linecap:round;stroke-width:0.8;"/>
     </g>
     <g id="text_5">
      <!-- 2020-11 -->
      <g style="fill:#262626;" transform="translate(319.112979 313.147188)scale(0.1 -0.1)">
       <defs>
        <path d="M 2384 0 
L 1822 0 
L 1822 3584 
Q 1619 3391 1289 3197 
Q 959 3003 697 2906 
L 697 3450 
Q 1169 3672 1522 3987 
Q 1875 4303 2022 4600 
L 2384 4600 
L 2384 0 
z
" id="ArialMT-31" transform="scale(0.015625)"/>
       </defs>
       <use xlink:href="#ArialMT-32"/>
       <use x="55.615234" xlink:href="#ArialMT-30"/>
       <use x="111.230469" xlink:href="#ArialMT-32"/>
       <use x="166.845703" xlink:href="#ArialMT-30"/>
       <use x="222.460938" xlink:href="#ArialMT-2d"/>
       <use x="255.761719" xlink:href="#ArialMT-31"/>
       <use x="304.001953" xlink:href="#ArialMT-31"/>
      </g>
     </g>
    </g>
    <g id="xtick_6">
     <g id="line2d_6">
      <path clip-path="url(#p2050afbe5a)" d="M 398.610049 298.989375 
L 398.610049 21.789375 
" style="fill:none;stroke:#cccccc;stroke-linecap:round;stroke-width:0.8;"/>
     </g>
     <g id="text_6">
      <!-- 2021-01 -->
      <g style="fill:#262626;" transform="translate(380.262393 313.147188)scale(0.1 -0.1)">
       <use xlink:href="#ArialMT-32"/>
       <use x="55.615234" xlink:href="#ArialMT-30"/>
       <use x="111.230469" xlink:href="#ArialMT-32"/>
       <use x="166.845703" xlink:href="#ArialMT-31"/>
       <use x="222.460938" xlink:href="#ArialMT-2d"/>
       <use x="255.761719" xlink:href="#ArialMT-30"/>
       <use x="311.376953" xlink:href="#ArialMT-31"/>
      </g>
     </g>
    </g>
    <g id="xtick_7">
     <g id="line2d_7">
      <path clip-path="url(#p2050afbe5a)" d="M 458.111224 298.989375 
L 458.111224 21.789375 
" style="fill:none;stroke:#cccccc;stroke-linecap:round;stroke-width:0.8;"/>
     </g>
     <g id="text_7">
      <!-- 2021-03 -->
      <g style="fill:#262626;" transform="translate(439.763567 313.147188)scale(0.1 -0.1)">
       <use xlink:href="#ArialMT-32"/>
       <use x="55.615234" xlink:href="#ArialMT-30"/>
       <use x="111.230469" xlink:href="#ArialMT-32"/>
       <use x="166.845703" xlink:href="#ArialMT-31"/>
       <use x="222.460938" xlink:href="#ArialMT-2d"/>
       <use x="255.761719" xlink:href="#ArialMT-30"/>
       <use x="311.376953" xlink:href="#ArialMT-33"/>
      </g>
     </g>
    </g>
    <g id="xtick_8">
     <g id="line2d_8">
      <path clip-path="url(#p2050afbe5a)" d="M 519.629387 298.989375 
L 519.629387 21.789375 
" style="fill:none;stroke:#cccccc;stroke-linecap:round;stroke-width:0.8;"/>
     </g>
     <g id="text_8">
      <!-- 2021-05 -->
      <g style="fill:#262626;" transform="translate(501.281731 313.147188)scale(0.1 -0.1)">
       <use xlink:href="#ArialMT-32"/>
       <use x="55.615234" xlink:href="#ArialMT-30"/>
       <use x="111.230469" xlink:href="#ArialMT-32"/>
       <use x="166.845703" xlink:href="#ArialMT-31"/>
       <use x="222.460938" xlink:href="#ArialMT-2d"/>
       <use x="255.761719" xlink:href="#ArialMT-30"/>
       <use x="311.376953" xlink:href="#ArialMT-35"/>
      </g>
     </g>
    </g>
    <g id="xtick_9">
     <g id="line2d_9">
      <path clip-path="url(#p2050afbe5a)" d="M 581.147551 298.989375 
L 581.147551 21.789375 
" style="fill:none;stroke:#cccccc;stroke-linecap:round;stroke-width:0.8;"/>
     </g>
     <g id="text_9">
      <!-- 2021-07 -->
      <g style="fill:#262626;" transform="translate(562.799895 313.147188)scale(0.1 -0.1)">
       <use xlink:href="#ArialMT-32"/>
       <use x="55.615234" xlink:href="#ArialMT-30"/>
       <use x="111.230469" xlink:href="#ArialMT-32"/>
       <use x="166.845703" xlink:href="#ArialMT-31"/>
       <use x="222.460938" xlink:href="#ArialMT-2d"/>
       <use x="255.761719" xlink:href="#ArialMT-30"/>
       <use x="311.376953" xlink:href="#ArialMT-37"/>
      </g>
     </g>
    </g>
   </g>
   <g id="matplotlib.axis_2">
    <g id="ytick_1">
     <g id="line2d_10">
      <path clip-path="url(#p2050afbe5a)" d="M 82.8 286.389375 
L 640.8 286.389375 
" style="fill:none;stroke:#cccccc;stroke-linecap:round;stroke-width:0.8;"/>
     </g>
     <g id="text_10">
      <!-- 0 -->
      <g style="fill:#262626;" transform="translate(70.239063 289.968281)scale(0.1 -0.1)">
       <use xlink:href="#ArialMT-30"/>
      </g>
     </g>
    </g>
    <g id="ytick_2">
     <g id="line2d_11">
      <path clip-path="url(#p2050afbe5a)" d="M 82.8 248.664824 
L 640.8 248.664824 
" style="fill:none;stroke:#cccccc;stroke-linecap:round;stroke-width:0.8;"/>
     </g>
     <g id="text_11">
      <!-- 50 -->
      <g style="fill:#262626;" transform="translate(64.678125 252.24373)scale(0.1 -0.1)">
       <use xlink:href="#ArialMT-35"/>
       <use x="55.615234" xlink:href="#ArialMT-30"/>
      </g>
     </g>
    </g>
    <g id="ytick_3">
     <g id="line2d_12">
      <path clip-path="url(#p2050afbe5a)" d="M 82.8 210.940273 
L 640.8 210.940273 
" style="fill:none;stroke:#cccccc;stroke-linecap:round;stroke-width:0.8;"/>
     </g>
     <g id="text_12">
      <!-- 100 -->
      <g style="fill:#262626;" transform="translate(59.117188 214.519179)scale(0.1 -0.1)">
       <use xlink:href="#ArialMT-31"/>
       <use x="55.615234" xlink:href="#ArialMT-30"/>
       <use x="111.230469" xlink:href="#ArialMT-30"/>
      </g>
     </g>
    </g>
    <g id="ytick_4">
     <g id="line2d_13">
      <path clip-path="url(#p2050afbe5a)" d="M 82.8 173.215722 
L 640.8 173.215722 
" style="fill:none;stroke:#cccccc;stroke-linecap:round;stroke-width:0.8;"/>
     </g>
     <g id="text_13">
      <!-- 150 -->
      <g style="fill:#262626;" transform="translate(59.117188 176.794629)scale(0.1 -0.1)">
       <use xlink:href="#ArialMT-31"/>
       <use x="55.615234" xlink:href="#ArialMT-35"/>
       <use x="111.230469" xlink:href="#ArialMT-30"/>
      </g>
     </g>
    </g>
    <g id="ytick_5">
     <g id="line2d_14">
      <path clip-path="url(#p2050afbe5a)" d="M 82.8 135.491171 
L 640.8 135.491171 
" style="fill:none;stroke:#cccccc;stroke-linecap:round;stroke-width:0.8;"/>
     </g>
     <g id="text_14">
      <!-- 200 -->
      <g style="fill:#262626;" transform="translate(59.117188 139.070078)scale(0.1 -0.1)">
       <use xlink:href="#ArialMT-32"/>
       <use x="55.615234" xlink:href="#ArialMT-30"/>
       <use x="111.230469" xlink:href="#ArialMT-30"/>
      </g>
     </g>
    </g>
    <g id="ytick_6">
     <g id="line2d_15">
      <path clip-path="url(#p2050afbe5a)" d="M 82.8 97.766621 
L 640.8 97.766621 
" style="fill:none;stroke:#cccccc;stroke-linecap:round;stroke-width:0.8;"/>
     </g>
     <g id="text_15">
      <!-- 250 -->
      <g style="fill:#262626;" transform="translate(59.117188 101.345527)scale(0.1 -0.1)">
       <use xlink:href="#ArialMT-32"/>
       <use x="55.615234" xlink:href="#ArialMT-35"/>
       <use x="111.230469" xlink:href="#ArialMT-30"/>
      </g>
     </g>
    </g>
    <g id="ytick_7">
     <g id="line2d_16">
      <path clip-path="url(#p2050afbe5a)" d="M 82.8 60.04207 
L 640.8 60.04207 
" style="fill:none;stroke:#cccccc;stroke-linecap:round;stroke-width:0.8;"/>
     </g>
     <g id="text_16">
      <!-- 300 -->
      <g style="fill:#262626;" transform="translate(59.117188 63.620976)scale(0.1 -0.1)">
       <use xlink:href="#ArialMT-33"/>
       <use x="55.615234" xlink:href="#ArialMT-30"/>
       <use x="111.230469" xlink:href="#ArialMT-30"/>
      </g>
     </g>
    </g>
    <g id="ytick_8">
     <g id="line2d_17">
      <path clip-path="url(#p2050afbe5a)" d="M 82.8 22.317519 
L 640.8 22.317519 
" style="fill:none;stroke:#cccccc;stroke-linecap:round;stroke-width:0.8;"/>
     </g>
     <g id="text_17">
      <!-- 350 -->
      <g style="fill:#262626;" transform="translate(59.117188 25.896425)scale(0.1 -0.1)">
       <use xlink:href="#ArialMT-33"/>
       <use x="55.615234" xlink:href="#ArialMT-35"/>
       <use x="111.230469" xlink:href="#ArialMT-30"/>
      </g>
     </g>
    </g>
   </g>
   <g id="line2d_18">
    <path clip-path="url(#p2050afbe5a)" d="M 108.163636 278.089974 
L 109.172131 278.089974 
L 110.180625 276.580992 
L 111.18912 276.580992 
L 112.197614 269.036082 
L 113.206109 255.455243 
L 114.214603 254.700752 
L 115.223098 251.682788 
L 116.231592 247.155842 
L 117.240087 246.401351 
L 118.248581 246.401351 
L 119.257076 245.64686 
L 120.26557 242.628896 
L 121.274065 226.030094 
L 122.282559 224.521112 
L 123.291054 224.521112 
L 124.299548 201.886381 
L 125.308043 200.377399 
L 126.316537 213.958237 
L 127.325032 210.185782 
L 128.333526 204.149854 
L 129.342021 202.640872 
L 130.350515 199.622908 
L 131.35901 199.622908 
L 132.367504 198.113926 
L 133.375999 186.796561 
L 134.384493 185.287579 
L 135.392988 189.060034 
L 136.401482 176.233686 
L 137.409977 173.215722 
L 138.418471 170.952249 
L 139.426965 167.179794 
L 140.43546 176.988177 
L 141.443954 176.988177 
L 142.452449 173.970213 
L 143.460943 167.934285 
L 144.469438 142.281591 
L 145.477932 140.772609 
L 146.486427 176.233686 
L 147.494921 178.497159 
L 148.503416 181.515124 
L 149.51191 176.233686 
L 150.520405 181.515124 
L 151.528899 173.215722 
L 152.537394 168.688776 
L 153.545888 169.443267 
L 154.554383 167.179794 
L 155.562877 161.143866 
L 156.571372 158.125902 
L 157.579866 162.652848 
L 158.588361 165.670812 
L 159.596855 161.143866 
L 160.60535 158.125902 
L 161.613844 161.898357 
L 162.622339 146.054046 
L 163.630833 152.844465 
L 164.639328 149.826501 
L 165.647822 146.054046 
L 166.656317 152.089974 
L 167.664811 140.772609 
L 168.673306 139.263626 
L 169.6818 141.5271 
L 170.690295 133.982189 
L 171.698789 137.000153 
L 172.707284 139.263626 
L 173.715778 140.772609 
L 174.724273 138.509135 
L 175.732767 137.754644 
L 176.741262 133.227698 
L 177.749756 134.73668 
L 178.75825 135.491171 
L 179.766745 123.419315 
L 180.775239 122.664824 
L 181.783734 124.173806 
L 182.792228 129.455243 
L 183.800723 129.455243 
L 184.809217 128.700752 
L 185.817712 127.19177 
L 186.826206 122.664824 
L 187.834701 122.664824 
L 188.843195 110.592968 
L 189.85169 115.874405 
L 190.860184 109.083986 
L 191.868679 114.365423 
L 192.877173 106.820513 
L 193.885668 109.838477 
L 194.894162 103.802549 
L 195.902657 112.856441 
L 196.911151 120.401351 
L 197.919646 122.664824 
L 198.92814 126.437279 
L 199.936635 130.964225 
L 200.945129 127.946261 
L 201.953624 122.664824 
L 202.962118 121.910333 
L 203.970613 118.892369 
L 204.979107 123.419315 
L 205.987602 135.491171 
L 206.996096 137.000153 
L 208.004591 131.718716 
L 209.013085 134.73668 
L 210.02158 141.5271 
L 211.030074 144.545064 
L 212.038569 150.580992 
L 213.047063 150.580992 
L 214.055558 156.61692 
L 215.064052 149.07201 
L 216.072547 152.844465 
L 217.081041 154.353447 
L 218.089536 157.371411 
L 219.09803 148.317519 
L 220.106524 164.916321 
L 221.115019 162.652848 
L 222.123513 161.898357 
L 223.132008 166.425303 
L 224.140502 171.70674 
L 225.148997 170.197758 
L 226.157491 149.826501 
L 227.165986 161.898357 
L 228.17448 153.598956 
L 229.182975 148.317519 
L 230.191469 156.61692 
L 231.199964 154.353447 
L 233.216953 158.880393 
L 234.225447 154.353447 
L 235.233942 157.371411 
L 236.242436 152.844465 
L 237.250931 154.353447 
L 239.26792 158.880393 
L 240.276414 163.407339 
L 241.284909 170.952249 
L 242.293403 173.215722 
L 243.301898 173.970213 
L 244.310392 177.742668 
L 245.318887 180.006141 
L 246.327381 177.742668 
L 247.335876 184.533088 
L 248.34437 188.305543 
L 249.352865 196.604944 
L 250.361359 194.341471 
L 251.369854 195.850453 
L 252.378348 208.6768 
L 253.386843 203.395363 
L 254.395337 207.167818 
L 255.403832 211.694764 
L 256.412326 208.6768 
L 257.420821 207.922309 
L 258.429315 204.904345 
L 259.43781 203.395363 
L 260.446304 202.640872 
L 261.454798 189.814525 
L 262.463293 198.113926 
L 264.480282 207.167818 
L 265.488776 204.904345 
L 266.497271 214.712728 
L 267.505765 215.467219 
L 268.51426 213.203746 
L 269.522754 215.467219 
L 270.531249 219.239674 
L 271.539743 213.203746 
L 272.548238 221.503147 
L 273.556732 207.167818 
L 274.565227 197.359435 
L 275.573721 195.850453 
L 276.582216 199.622908 
L 277.59071 201.13189 
L 278.599205 201.13189 
L 279.607699 203.395363 
L 280.616194 203.395363 
L 281.624688 211.694764 
L 282.633183 210.185782 
L 283.641677 200.377399 
L 284.650172 203.395363 
L 285.658666 200.377399 
L 286.667161 199.622908 
L 287.675655 200.377399 
L 288.68415 203.395363 
L 290.701139 212.449255 
L 291.709633 213.203746 
L 292.718128 210.940273 
L 293.726622 209.431291 
L 295.743611 210.940273 
L 296.752106 217.730692 
L 297.7606 217.730692 
L 298.769095 231.311531 
L 299.777589 229.048058 
L 300.786083 227.539076 
L 301.794578 223.012129 
L 302.803072 221.503147 
L 303.811567 222.257638 
L 304.820061 219.239674 
L 305.828556 223.012129 
L 306.83705 222.257638 
L 307.845545 217.730692 
L 308.854039 219.239674 
L 309.862534 219.994165 
L 310.871028 214.712728 
L 311.879523 210.940273 
L 312.888017 213.203746 
L 313.896512 210.185782 
L 314.905006 212.449255 
L 315.913501 209.431291 
L 316.921995 214.712728 
L 317.93049 215.467219 
L 318.938984 214.712728 
L 319.947479 212.449255 
L 320.955973 213.958237 
L 321.964468 216.976201 
L 322.972962 216.22171 
L 323.981457 216.22171 
L 324.989951 213.203746 
L 325.998446 207.167818 
L 327.00694 204.904345 
L 328.015435 205.658836 
L 329.023929 207.922309 
L 330.032424 204.149854 
L 331.040918 204.149854 
L 332.049413 201.886381 
L 333.057907 195.095962 
L 334.066402 196.604944 
L 335.074896 193.58698 
L 336.083391 193.58698 
L 337.091885 190.569016 
L 338.10038 186.796561 
L 339.108874 180.760632 
L 340.117369 189.060034 
L 341.125863 194.341471 
L 342.134357 189.060034 
L 343.142852 183.024106 
L 344.151346 186.04207 
L 345.159841 179.25165 
L 346.168335 174.724704 
L 347.17683 164.916321 
L 348.185324 166.425303 
L 349.193819 169.443267 
L 350.202313 173.970213 
L 351.210808 173.215722 
L 352.219302 168.688776 
L 353.227797 169.443267 
L 354.236291 153.598956 
L 355.244786 149.826501 
L 356.25328 152.089974 
L 357.261775 138.509135 
L 358.270269 139.263626 
L 359.278764 143.790573 
L 360.287258 137.754644 
L 361.295753 132.473207 
L 362.304247 132.473207 
L 363.312742 134.73668 
L 364.321236 127.946261 
L 365.329731 138.509135 
L 366.338225 142.281591 
L 367.34672 147.563028 
L 368.355214 140.018118 
L 369.363709 141.5271 
L 370.372203 149.07201 
L 371.380698 145.299555 
L 372.389192 155.862429 
L 373.397687 164.916321 
L 374.406181 155.862429 
L 375.414676 142.281591 
L 376.42317 154.353447 
L 377.431665 150.580992 
L 378.440159 149.07201 
L 379.448654 155.862429 
L 382.474137 171.70674 
L 383.482631 170.197758 
L 384.491126 169.443267 
L 385.49962 174.724704 
L 386.508115 178.497159 
L 387.516609 173.970213 
L 388.525104 170.952249 
L 389.533598 170.952249 
L 390.542093 175.479195 
L 391.550587 182.269615 
L 392.559082 184.533088 
L 393.567576 178.497159 
L 394.576071 177.742668 
L 395.584565 173.215722 
L 396.59306 175.479195 
L 397.601554 173.970213 
L 398.610049 183.778597 
L 399.618543 180.760632 
L 400.627038 187.551052 
L 401.635532 197.359435 
L 402.644027 195.850453 
L 403.652521 195.095962 
L 404.661016 196.604944 
L 405.66951 192.832489 
L 407.686499 194.341471 
L 408.694994 184.533088 
L 409.703488 187.551052 
L 410.711983 179.25165 
L 411.720477 180.006141 
L 412.728972 176.233686 
L 414.745961 185.287579 
L 415.754455 178.497159 
L 416.76295 181.515124 
L 417.771444 187.551052 
L 418.779939 195.850453 
L 419.788433 189.060034 
L 420.796928 192.832489 
L 421.805422 189.814525 
L 422.813917 199.622908 
L 423.822411 204.149854 
L 424.830905 195.095962 
L 425.8394 201.13189 
L 426.847894 196.604944 
L 427.856389 201.886381 
L 428.864883 204.149854 
L 429.873378 195.095962 
L 430.881872 194.341471 
L 431.890367 191.323507 
L 432.898861 196.604944 
L 433.907356 195.850453 
L 434.91585 196.604944 
L 435.924345 200.377399 
L 436.932839 203.395363 
L 437.941334 210.185782 
L 438.949828 210.940273 
L 439.958323 209.431291 
L 440.966817 206.413327 
L 441.975312 216.976201 
L 442.983806 216.22171 
L 443.992301 206.413327 
L 445.000795 203.395363 
L 446.00929 214.712728 
L 447.017784 214.712728 
L 448.026279 211.694764 
L 449.034773 213.958237 
L 450.043268 209.431291 
L 451.051762 202.640872 
L 452.060257 198.113926 
L 453.068751 201.13189 
L 454.077246 191.323507 
L 455.08574 192.077998 
L 456.094235 205.658836 
L 457.102729 189.060034 
L 458.111224 180.760632 
L 459.119718 186.796561 
L 460.128213 178.497159 
L 461.136707 180.006141 
L 462.145202 177.742668 
L 463.153696 186.796561 
L 464.16219 183.778597 
L 465.170685 173.970213 
L 466.179179 169.443267 
L 468.196168 161.898357 
L 470.213157 148.317519 
L 471.221652 139.263626 
L 472.230146 133.982189 
L 473.238641 118.892369 
L 474.247135 115.874405 
L 475.25563 112.10195 
L 476.264124 106.820513 
L 477.272619 95.503147 
L 478.281113 81.922309 
L 479.289608 74.377399 
L 480.298102 64.569016 
L 481.306597 57.778597 
L 482.315091 39.670812 
L 483.323586 49.479195 
L 484.33208 40.425303 
L 485.340575 44.197758 
L 486.349069 44.197758 
L 487.357564 34.389375 
L 488.366058 35.898357 
L 489.374553 41.179794 
L 490.383047 37.407339 
L 491.391542 42.688776 
L 492.400036 44.197758 
L 493.408531 41.179794 
L 494.417025 45.70674 
L 495.42552 46.461231 
L 496.434014 56.269615 
L 497.442509 55.515124 
L 498.451003 81.922309 
L 499.459498 87.958237 
L 500.467992 78.904345 
L 501.476487 87.203746 
L 502.484981 84.940273 
L 503.493476 81.922309 
L 504.50197 91.730692 
L 505.510464 78.904345 
L 506.518959 97.012129 
L 507.527453 89.467219 
L 508.535948 90.976201 
L 509.544442 99.275603 
L 510.552937 109.083986 
L 511.561431 109.838477 
L 512.569926 118.892369 
L 513.57842 125.682788 
L 514.586915 122.664824 
L 515.595409 127.19177 
L 516.603904 136.245662 
L 517.612398 133.227698 
L 518.620893 128.700752 
L 519.629387 113.610932 
L 520.637882 121.910333 
L 521.646376 124.173806 
L 522.654871 130.209734 
L 523.663365 118.892369 
L 524.67186 110.592968 
L 525.680354 123.419315 
L 526.688849 133.227698 
L 527.697343 118.137878 
L 528.705838 121.155842 
L 529.714332 115.874405 
L 530.722827 121.155842 
L 531.731321 122.664824 
L 532.739816 127.946261 
L 533.74831 121.155842 
L 534.756805 112.10195 
L 535.765299 109.838477 
L 536.773794 105.311531 
L 537.782288 107.575004 
L 538.790783 111.347459 
L 539.799277 100.030094 
L 540.807772 98.521112 
L 541.816266 97.766621 
L 542.824761 100.030094 
L 543.833255 94.748656 
L 544.84175 90.22171 
L 545.850244 80.413327 
L 546.858738 78.149854 
L 547.867233 68.341471 
L 548.875727 78.149854 
L 549.884222 74.377399 
L 550.892716 90.976201 
L 551.901211 92.485183 
L 552.909705 94.748656 
L 553.9182 93.239674 
L 554.926694 97.766621 
L 555.935189 93.239674 
L 556.943683 92.485183 
L 557.952178 92.485183 
L 558.960672 105.311531 
L 559.969167 112.856441 
L 560.977661 109.083986 
L 561.986156 115.119914 
L 562.99465 111.347459 
L 564.003145 115.874405 
L 565.011639 119.64686 
L 566.020134 117.383387 
L 567.028628 124.173806 
L 568.037123 124.173806 
L 569.045617 134.73668 
L 570.054112 140.018118 
L 571.062606 135.491171 
L 573.079595 148.317519 
L 574.08809 152.089974 
L 575.096584 158.880393 
L 576.105079 158.880393 
L 577.113573 167.934285 
L 578.122068 170.952249 
L 579.130562 176.988177 
L 580.139057 182.269615 
L 581.147551 188.305543 
L 582.156046 184.533088 
L 583.16454 192.832489 
L 584.173035 197.359435 
L 585.181529 191.323507 
L 586.190023 194.341471 
L 587.198518 192.832489 
L 589.215507 200.377399 
L 590.224001 199.622908 
L 591.232496 192.077998 
L 592.24099 195.095962 
L 593.249485 179.25165 
L 594.257979 182.269615 
L 595.266474 191.323507 
L 596.274968 186.796561 
L 597.283463 191.323507 
L 598.291957 196.604944 
L 599.300452 192.077998 
L 600.308946 200.377399 
L 601.317441 200.377399 
L 602.325935 204.904345 
L 603.33443 204.149854 
L 604.342924 211.694764 
L 605.351419 212.449255 
L 606.359913 219.239674 
L 607.368408 222.257638 
L 608.376902 214.712728 
L 609.385397 225.275603 
L 610.393891 225.275603 
L 611.402386 216.976201 
L 613.419375 219.994165 
L 614.427869 217.730692 
L 615.436364 216.976201 
L 615.436364 216.976201 
" style="fill:none;stroke:#1f77b4;stroke-linecap:round;stroke-width:1.5;"/>
   </g>
   <g id="line2d_19">
    <path clip-path="url(#p2050afbe5a)" d="M 108.163636 286.389375 
L 109.172131 286.389375 
L 110.180625 281.107938 
L 111.18912 281.107938 
L 112.197614 279.598956 
L 113.206109 272.054046 
L 114.214603 272.808537 
L 115.223098 269.790573 
L 119.257076 269.790573 
L 120.26557 270.545064 
L 121.274065 267.5271 
L 122.282559 269.036082 
L 123.291054 268.281591 
L 124.299548 265.263626 
L 125.308043 265.263626 
L 126.316537 261.491171 
L 127.325032 258.473207 
L 128.333526 258.473207 
L 129.342021 262.245662 
L 131.35901 262.245662 
L 132.367504 261.491171 
L 133.375999 257.718716 
L 134.384493 259.982189 
L 135.392988 264.509135 
L 136.401482 258.473207 
L 137.409977 253.19177 
L 138.418471 252.437279 
L 139.426965 245.64686 
L 140.43546 250.173806 
L 141.443954 248.664824 
L 142.452449 245.64686 
L 143.460943 238.856441 
L 144.469438 235.083986 
L 145.477932 232.820513 
L 146.486427 238.856441 
L 147.494921 238.856441 
L 149.51191 241.874405 
L 150.520405 238.856441 
L 151.528899 233.575004 
L 152.537394 231.311531 
L 153.545888 229.802549 
L 154.554383 230.55704 
L 155.562877 225.275603 
L 156.571372 225.275603 
L 157.579866 232.820513 
L 158.588361 234.329495 
L 159.596855 229.048058 
L 160.60535 229.048058 
L 162.622339 232.066022 
L 163.630833 236.592968 
L 164.639328 233.575004 
L 165.647822 231.311531 
L 166.656317 235.838477 
L 167.664811 229.048058 
L 168.673306 229.048058 
L 169.6818 227.539076 
L 170.690295 230.55704 
L 171.698789 226.030094 
L 172.707284 226.030094 
L 173.715778 222.257638 
L 174.724273 223.012129 
L 176.741262 221.503147 
L 177.749756 228.293567 
L 178.75825 230.55704 
L 179.766745 225.275603 
L 180.775239 229.048058 
L 181.783734 225.275603 
L 182.792228 220.748656 
L 183.800723 219.239674 
L 184.809217 218.485183 
L 185.817712 221.503147 
L 186.826206 219.239674 
L 187.834701 219.239674 
L 188.843195 214.712728 
L 189.85169 216.976201 
L 190.860184 215.467219 
L 191.868679 215.467219 
L 192.877173 207.922309 
L 193.885668 211.694764 
L 194.894162 216.976201 
L 195.902657 219.239674 
L 196.911151 212.449255 
L 197.919646 216.976201 
L 198.92814 223.012129 
L 199.936635 225.275603 
L 201.953624 223.766621 
L 202.962118 219.239674 
L 203.970613 221.503147 
L 204.979107 219.994165 
L 205.987602 223.012129 
L 206.996096 222.257638 
L 208.004591 223.012129 
L 209.013085 227.539076 
L 210.02158 234.329495 
L 211.030074 233.575004 
L 212.038569 230.55704 
L 213.047063 231.311531 
L 214.055558 234.329495 
L 215.064052 232.066022 
L 216.072547 230.55704 
L 217.081041 231.311531 
L 218.089536 231.311531 
L 219.09803 229.802549 
L 220.106524 236.592968 
L 221.115019 236.592968 
L 222.123513 235.838477 
L 223.132008 238.856441 
L 224.140502 240.365423 
L 225.148997 236.592968 
L 226.157491 231.311531 
L 227.165986 233.575004 
L 228.17448 227.539076 
L 229.182975 230.55704 
L 230.191469 236.592968 
L 231.199964 238.856441 
L 232.208458 237.347459 
L 233.216953 237.347459 
L 234.225447 238.856441 
L 235.233942 233.575004 
L 236.242436 235.083986 
L 237.250931 237.347459 
L 238.259425 237.347459 
L 239.26792 233.575004 
L 240.276414 233.575004 
L 241.284909 238.10195 
L 242.293403 238.10195 
L 243.301898 238.856441 
L 244.310392 241.874405 
L 245.318887 243.383387 
L 246.327381 244.137878 
L 247.335876 246.401351 
L 248.34437 250.173806 
L 249.352865 249.419315 
L 250.361359 246.401351 
L 251.369854 247.155842 
L 252.378348 252.437279 
L 253.386843 252.437279 
L 254.395337 251.682788 
L 255.403832 255.455243 
L 256.412326 254.700752 
L 257.420821 253.19177 
L 258.429315 250.173806 
L 259.43781 251.682788 
L 260.446304 251.682788 
L 261.454798 248.664824 
L 262.463293 253.946261 
L 263.471787 253.946261 
L 264.480282 258.473207 
L 265.488776 256.209734 
L 266.497271 259.227698 
L 267.505765 259.227698 
L 268.51426 259.982189 
L 269.522754 256.964225 
L 271.539743 256.964225 
L 272.548238 260.73668 
L 273.556732 254.700752 
L 274.565227 256.209734 
L 275.573721 252.437279 
L 276.582216 253.946261 
L 277.59071 253.19177 
L 278.599205 253.946261 
L 279.607699 251.682788 
L 280.616194 253.946261 
L 281.624688 255.455243 
L 282.633183 254.700752 
L 283.641677 250.173806 
L 284.650172 251.682788 
L 285.658666 247.910333 
L 286.667161 248.664824 
L 287.675655 253.19177 
L 288.68415 259.227698 
L 289.692644 255.455243 
L 290.701139 255.455243 
L 291.709633 256.209734 
L 292.718128 254.700752 
L 294.735117 256.209734 
L 295.743611 255.455243 
L 296.752106 256.964225 
L 297.7606 262.245662 
L 298.769095 261.491171 
L 299.777589 256.964225 
L 300.786083 257.718716 
L 301.794578 256.964225 
L 302.803072 254.700752 
L 303.811567 253.19177 
L 304.820061 253.19177 
L 305.828556 256.209734 
L 306.83705 257.718716 
L 307.845545 256.964225 
L 309.862534 256.964225 
L 310.871028 256.209734 
L 311.879523 254.700752 
L 312.888017 256.209734 
L 313.896512 256.964225 
L 314.905006 255.455243 
L 315.913501 254.700752 
L 316.921995 258.473207 
L 317.93049 261.491171 
L 318.938984 259.227698 
L 319.947479 261.491171 
L 320.955973 261.491171 
L 321.964468 259.982189 
L 322.972962 262.245662 
L 323.981457 258.473207 
L 324.989951 256.209734 
L 325.998446 255.455243 
L 327.00694 252.437279 
L 330.032424 252.437279 
L 332.049413 249.419315 
L 333.057907 246.401351 
L 334.066402 251.682788 
L 335.074896 251.682788 
L 336.083391 250.928297 
L 337.091885 249.419315 
L 338.10038 246.401351 
L 339.108874 247.155842 
L 341.125863 245.64686 
L 342.134357 244.137878 
L 343.142852 241.874405 
L 344.151346 244.892369 
L 345.159841 235.838477 
L 346.168335 233.575004 
L 347.17683 235.083986 
L 348.185324 234.329495 
L 349.193819 226.784585 
L 350.202313 234.329495 
L 351.210808 233.575004 
L 352.219302 235.838477 
L 353.227797 235.083986 
L 354.236291 227.539076 
L 355.244786 226.030094 
L 356.25328 226.030094 
L 357.261775 216.22171 
L 358.270269 219.994165 
L 359.278764 225.275603 
L 360.287258 221.503147 
L 361.295753 222.257638 
L 362.304247 222.257638 
L 363.312742 223.766621 
L 364.321236 223.012129 
L 365.329731 228.293567 
L 366.338225 229.048058 
L 367.34672 223.766621 
L 368.355214 220.748656 
L 369.363709 222.257638 
L 370.372203 226.784585 
L 371.380698 228.293567 
L 372.389192 226.784585 
L 373.397687 235.083986 
L 374.406181 229.048058 
L 375.414676 229.048058 
L 376.42317 225.275603 
L 377.431665 220.748656 
L 378.440159 223.766621 
L 379.448654 223.766621 
L 380.457148 229.048058 
L 381.465643 231.311531 
L 382.474137 229.048058 
L 383.482631 228.293567 
L 384.491126 231.311531 
L 385.49962 235.838477 
L 386.508115 232.820513 
L 387.516609 230.55704 
L 388.525104 232.066022 
L 389.533598 226.784585 
L 390.542093 232.066022 
L 391.550587 235.083986 
L 392.559082 235.083986 
L 393.567576 226.784585 
L 394.576071 235.083986 
L 395.584565 235.083986 
L 396.59306 238.856441 
L 397.601554 236.592968 
L 398.610049 235.083986 
L 399.618543 236.592968 
L 400.627038 237.347459 
L 401.635532 239.610932 
L 402.644027 241.119914 
L 403.652521 241.874405 
L 404.661016 243.383387 
L 405.66951 241.874405 
L 406.678005 238.856441 
L 407.686499 237.347459 
L 408.694994 232.820513 
L 409.703488 233.575004 
L 410.711983 228.293567 
L 411.720477 226.784585 
L 412.728972 223.766621 
L 413.737466 225.275603 
L 414.745961 227.539076 
L 416.76295 230.55704 
L 417.771444 231.311531 
L 418.779939 233.575004 
L 419.788433 232.066022 
L 420.796928 234.329495 
L 421.805422 229.048058 
L 422.813917 229.802549 
L 423.822411 232.066022 
L 424.830905 231.311531 
L 425.8394 236.592968 
L 428.864883 238.856441 
L 429.873378 235.838477 
L 430.881872 231.311531 
L 431.890367 235.838477 
L 432.898861 232.820513 
L 433.907356 236.592968 
L 434.91585 238.10195 
L 435.924345 242.628896 
L 436.932839 245.64686 
L 437.941334 247.155842 
L 438.949828 244.892369 
L 439.958323 245.64686 
L 440.966817 243.383387 
L 441.975312 250.928297 
L 442.983806 251.682788 
L 443.992301 240.365423 
L 445.000795 244.137878 
L 446.00929 242.628896 
L 447.017784 243.383387 
L 448.026279 239.610932 
L 449.034773 242.628896 
L 450.043268 244.137878 
L 451.051762 241.874405 
L 452.060257 243.383387 
L 453.068751 248.664824 
L 455.08574 239.610932 
L 456.094235 244.892369 
L 457.102729 240.365423 
L 458.111224 237.347459 
L 459.119718 239.610932 
L 460.128213 236.592968 
L 461.136707 236.592968 
L 462.145202 237.347459 
L 463.153696 243.383387 
L 464.16219 233.575004 
L 465.170685 236.592968 
L 466.179179 238.856441 
L 467.187674 232.066022 
L 468.196168 229.048058 
L 469.204663 223.766621 
L 470.213157 211.694764 
L 471.221652 204.904345 
L 472.230146 213.958237 
L 473.238641 201.886381 
L 474.247135 196.604944 
L 475.25563 198.113926 
L 476.264124 186.796561 
L 477.272619 190.569016 
L 478.281113 186.04207 
L 479.289608 187.551052 
L 480.298102 180.760632 
L 481.306597 177.742668 
L 482.315091 165.670812 
L 483.323586 163.407339 
L 484.33208 155.862429 
L 485.340575 151.335483 
L 486.349069 154.353447 
L 487.357564 152.089974 
L 488.366058 150.580992 
L 489.374553 147.563028 
L 491.391542 146.054046 
L 492.400036 149.07201 
L 493.408531 146.808537 
L 494.417025 146.054046 
L 496.434014 143.036082 
L 497.442509 144.545064 
L 498.451003 153.598956 
L 499.459498 153.598956 
L 501.476487 165.670812 
L 502.484981 162.652848 
L 503.493476 158.880393 
L 504.50197 168.688776 
L 505.510464 163.407339 
L 506.518959 172.461231 
L 508.535948 175.479195 
L 509.544442 180.760632 
L 510.552937 189.060034 
L 511.561431 189.814525 
L 512.569926 194.341471 
L 514.586915 192.832489 
L 515.595409 197.359435 
L 516.603904 202.640872 
L 517.612398 198.113926 
L 518.620893 202.640872 
L 519.629387 183.024106 
L 520.637882 198.868417 
L 521.646376 205.658836 
L 522.654871 208.6768 
L 523.663365 198.868417 
L 524.67186 197.359435 
L 525.680354 204.149854 
L 526.688849 200.377399 
L 527.697343 182.269615 
L 528.705838 194.341471 
L 529.714332 192.832489 
L 530.722827 193.58698 
L 531.731321 199.622908 
L 532.739816 204.904345 
L 533.74831 198.868417 
L 534.756805 198.113926 
L 535.765299 194.341471 
L 536.773794 189.814525 
L 537.782288 191.323507 
L 538.790783 195.850453 
L 539.799277 193.58698 
L 540.807772 183.778597 
L 541.816266 183.778597 
L 542.824761 186.04207 
L 543.833255 186.796561 
L 544.84175 183.024106 
L 545.850244 180.760632 
L 546.858738 176.233686 
L 547.867233 174.724704 
L 548.875727 179.25165 
L 549.884222 167.934285 
L 550.892716 176.988177 
L 551.901211 178.497159 
L 552.909705 173.970213 
L 553.9182 168.688776 
L 554.926694 178.497159 
L 555.935189 180.760632 
L 556.943683 181.515124 
L 557.952178 183.778597 
L 558.960672 192.077998 
L 559.969167 195.850453 
L 560.977661 193.58698 
L 561.986156 198.868417 
L 562.99465 197.359435 
L 564.003145 198.868417 
L 565.011639 201.13189 
L 566.020134 200.377399 
L 567.028628 210.185782 
L 568.037123 207.922309 
L 569.045617 208.6768 
L 570.054112 211.694764 
L 571.062606 203.395363 
L 572.071101 204.904345 
L 573.079595 207.922309 
L 574.08809 213.958237 
L 575.096584 222.257638 
L 576.105079 226.030094 
L 577.113573 219.239674 
L 578.122068 219.994165 
L 579.130562 223.766621 
L 580.139057 225.275603 
L 581.147551 227.539076 
L 582.156046 222.257638 
L 583.16454 226.784585 
L 584.173035 230.55704 
L 585.181529 229.048058 
L 586.190023 228.293567 
L 588.207012 234.329495 
L 590.224001 237.347459 
L 591.232496 232.820513 
L 592.24099 235.838477 
L 593.249485 229.802549 
L 594.257979 226.784585 
L 595.266474 229.048058 
L 596.274968 228.293567 
L 597.283463 224.521112 
L 598.291957 229.802549 
L 599.300452 230.55704 
L 600.308946 234.329495 
L 603.33443 241.119914 
L 604.342924 242.628896 
L 605.351419 246.401351 
L 606.359913 244.137878 
L 607.368408 245.64686 
L 608.376902 240.365423 
L 609.385397 247.910333 
L 610.393891 247.910333 
L 611.402386 250.173806 
L 612.41088 247.155842 
L 614.427869 247.155842 
L 615.436364 245.64686 
L 615.436364 245.64686 
" style="fill:none;stroke:#ff7f0e;stroke-linecap:round;stroke-width:1.5;"/>
   </g>
   <g id="patch_3">
    <path d="M 82.8 298.989375 
L 82.8 21.789375 
" style="fill:none;stroke:#cccccc;stroke-linecap:square;stroke-linejoin:miter;stroke-width:0.8;"/>
   </g>
   <g id="patch_4">
    <path d="M 640.8 298.989375 
L 640.8 21.789375 
" style="fill:none;stroke:#cccccc;stroke-linecap:square;stroke-linejoin:miter;stroke-width:0.8;"/>
   </g>
   <g id="patch_5">
    <path d="M 82.8 298.989375 
L 640.8 298.989375 
" style="fill:none;stroke:#cccccc;stroke-linecap:square;stroke-linejoin:miter;stroke-width:0.8;"/>
   </g>
   <g id="patch_6">
    <path d="M 82.8 21.789375 
L 640.8 21.789375 
" style="fill:none;stroke:#cccccc;stroke-linecap:square;stroke-linejoin:miter;stroke-width:0.8;"/>
   </g>
   <g id="text_18">
    <!-- Internações -->
    <g style="fill:#262626;" transform="translate(330.449063 15.789375)scale(0.12 -0.12)">
     <defs>
      <path d="M 597 0 
L 597 4581 
L 1203 4581 
L 1203 0 
L 597 0 
z
" id="ArialMT-49" transform="scale(0.015625)"/>
      <path d="M 422 0 
L 422 3319 
L 928 3319 
L 928 2847 
Q 1294 3394 1984 3394 
Q 2284 3394 2536 3286 
Q 2788 3178 2913 3003 
Q 3038 2828 3088 2588 
Q 3119 2431 3119 2041 
L 3119 0 
L 2556 0 
L 2556 2019 
Q 2556 2363 2490 2533 
Q 2425 2703 2258 2804 
Q 2091 2906 1866 2906 
Q 1506 2906 1245 2678 
Q 984 2450 984 1813 
L 984 0 
L 422 0 
z
" id="ArialMT-6e" transform="scale(0.015625)"/>
      <path d="M 1650 503 
L 1731 6 
Q 1494 -44 1306 -44 
Q 1000 -44 831 53 
Q 663 150 594 308 
Q 525 466 525 972 
L 525 2881 
L 113 2881 
L 113 3319 
L 525 3319 
L 525 4141 
L 1084 4478 
L 1084 3319 
L 1650 3319 
L 1650 2881 
L 1084 2881 
L 1084 941 
Q 1084 700 1114 631 
Q 1144 563 1211 522 
Q 1278 481 1403 481 
Q 1497 481 1650 503 
z
" id="ArialMT-74" transform="scale(0.015625)"/>
      <path d="M 2694 1069 
L 3275 997 
Q 3138 488 2766 206 
Q 2394 -75 1816 -75 
Q 1088 -75 661 373 
Q 234 822 234 1631 
Q 234 2469 665 2931 
Q 1097 3394 1784 3394 
Q 2450 3394 2872 2941 
Q 3294 2488 3294 1666 
Q 3294 1616 3291 1516 
L 816 1516 
Q 847 969 1125 678 
Q 1403 388 1819 388 
Q 2128 388 2347 550 
Q 2566 713 2694 1069 
z
M 847 1978 
L 2700 1978 
Q 2663 2397 2488 2606 
Q 2219 2931 1791 2931 
Q 1403 2931 1139 2672 
Q 875 2413 847 1978 
z
" id="ArialMT-65" transform="scale(0.015625)"/>
      <path d="M 416 0 
L 416 3319 
L 922 3319 
L 922 2816 
Q 1116 3169 1280 3281 
Q 1444 3394 1641 3394 
Q 1925 3394 2219 3213 
L 2025 2691 
Q 1819 2813 1613 2813 
Q 1428 2813 1281 2702 
Q 1134 2591 1072 2394 
Q 978 2094 978 1738 
L 978 0 
L 416 0 
z
" id="ArialMT-72" transform="scale(0.015625)"/>
      <path d="M 2588 409 
Q 2275 144 1986 34 
Q 1697 -75 1366 -75 
Q 819 -75 525 192 
Q 231 459 231 875 
Q 231 1119 342 1320 
Q 453 1522 633 1644 
Q 813 1766 1038 1828 
Q 1203 1872 1538 1913 
Q 2219 1994 2541 2106 
Q 2544 2222 2544 2253 
Q 2544 2597 2384 2738 
Q 2169 2928 1744 2928 
Q 1347 2928 1158 2789 
Q 969 2650 878 2297 
L 328 2372 
Q 403 2725 575 2942 
Q 747 3159 1072 3276 
Q 1397 3394 1825 3394 
Q 2250 3394 2515 3294 
Q 2781 3194 2906 3042 
Q 3031 2891 3081 2659 
Q 3109 2516 3109 2141 
L 3109 1391 
Q 3109 606 3145 398 
Q 3181 191 3288 0 
L 2700 0 
Q 2613 175 2588 409 
z
M 2541 1666 
Q 2234 1541 1622 1453 
Q 1275 1403 1131 1340 
Q 988 1278 909 1158 
Q 831 1038 831 891 
Q 831 666 1001 516 
Q 1172 366 1500 366 
Q 1825 366 2078 508 
Q 2331 650 2450 897 
Q 2541 1088 2541 1459 
L 2541 1666 
z
" id="ArialMT-61" transform="scale(0.015625)"/>
      <path d="M 2588 1216 
L 3141 1144 
Q 3050 572 2676 248 
Q 2303 -75 1759 -75 
Q 1078 -75 664 370 
Q 250 816 250 1647 
Q 250 2184 428 2587 
Q 606 2991 970 3192 
Q 1334 3394 1763 3394 
Q 2303 3394 2647 3120 
Q 2991 2847 3088 2344 
L 2541 2259 
Q 2463 2594 2264 2762 
Q 2066 2931 1784 2931 
Q 1359 2931 1093 2626 
Q 828 2322 828 1663 
Q 828 994 1084 691 
Q 1341 388 1753 388 
Q 2084 388 2306 591 
Q 2528 794 2588 1216 
z
M 1283 -417 
L 1446 136 
L 1864 136 
L 1761 -199 
Q 2027 -230 2161 -362 
Q 2296 -495 2296 -658 
Q 2296 -892 2071 -1072 
Q 1846 -1252 1392 -1252 
Q 1136 -1252 942 -1214 
L 977 -849 
Q 1177 -861 1271 -861 
Q 1564 -861 1683 -780 
Q 1774 -717 1774 -627 
Q 1774 -570 1738 -526 
Q 1702 -483 1605 -451 
Q 1508 -420 1283 -417 
z
" id="ArialMT-e7" transform="scale(0.015625)"/>
      <path d="M 213 1659 
Q 213 2581 725 3025 
Q 1153 3394 1769 3394 
Q 2453 3394 2887 2945 
Q 3322 2497 3322 1706 
Q 3322 1066 3130 698 
Q 2938 331 2570 128 
Q 2203 -75 1769 -75 
Q 1072 -75 642 372 
Q 213 819 213 1659 
z
M 791 1659 
Q 791 1022 1069 705 
Q 1347 388 1769 388 
Q 2188 388 2466 706 
Q 2744 1025 2744 1678 
Q 2744 2294 2464 2611 
Q 2184 2928 1769 2928 
Q 1347 2928 1069 2612 
Q 791 2297 791 1659 
z
M 726 3809 
Q 723 4134 904 4328 
Q 1082 4522 1360 4522 
Q 1554 4522 1888 4353 
Q 2073 4259 2182 4259 
Q 2282 4259 2335 4314 
Q 2388 4369 2410 4531 
L 2817 4531 
Q 2807 4175 2637 3997 
Q 2467 3819 2204 3819 
Q 2007 3819 1685 3994 
Q 1476 4106 1379 4106 
Q 1273 4106 1207 4031 
Q 1138 3956 1142 3809 
L 726 3809 
z
" id="ArialMT-f5" transform="scale(0.015625)"/>
      <path d="M 197 991 
L 753 1078 
Q 800 744 1014 566 
Q 1228 388 1613 388 
Q 2000 388 2187 545 
Q 2375 703 2375 916 
Q 2375 1106 2209 1216 
Q 2094 1291 1634 1406 
Q 1016 1563 777 1677 
Q 538 1791 414 1992 
Q 291 2194 291 2438 
Q 291 2659 392 2848 
Q 494 3038 669 3163 
Q 800 3259 1026 3326 
Q 1253 3394 1513 3394 
Q 1903 3394 2198 3281 
Q 2494 3169 2634 2976 
Q 2775 2784 2828 2463 
L 2278 2388 
Q 2241 2644 2061 2787 
Q 1881 2931 1553 2931 
Q 1166 2931 1000 2803 
Q 834 2675 834 2503 
Q 834 2394 903 2306 
Q 972 2216 1119 2156 
Q 1203 2125 1616 2013 
Q 2213 1853 2448 1751 
Q 2684 1650 2818 1456 
Q 2953 1263 2953 975 
Q 2953 694 2789 445 
Q 2625 197 2315 61 
Q 2006 -75 1616 -75 
Q 969 -75 630 194 
Q 291 463 197 991 
z
" id="ArialMT-73" transform="scale(0.015625)"/>
     </defs>
     <use xlink:href="#ArialMT-49"/>
     <use x="27.783203" xlink:href="#ArialMT-6e"/>
     <use x="83.398438" xlink:href="#ArialMT-74"/>
     <use x="111.181641" xlink:href="#ArialMT-65"/>
     <use x="166.796875" xlink:href="#ArialMT-72"/>
     <use x="200.097656" xlink:href="#ArialMT-6e"/>
     <use x="255.712891" xlink:href="#ArialMT-61"/>
     <use x="311.328125" xlink:href="#ArialMT-e7"/>
     <use x="361.328125" xlink:href="#ArialMT-f5"/>
     <use x="416.943359" xlink:href="#ArialMT-65"/>
     <use x="472.558594" xlink:href="#ArialMT-73"/>
    </g>
   </g>
   <g id="legend_1">
    <g id="patch_7">
     <path d="M 549.548437 58.08 
L 633.8 58.08 
Q 635.8 58.08 635.8 56.08 
L 635.8 28.789375 
Q 635.8 26.789375 633.8 26.789375 
L 549.548437 26.789375 
Q 547.548437 26.789375 547.548437 28.789375 
L 547.548437 56.08 
Q 547.548437 58.08 549.548437 58.08 
z
" style="fill:#ffffff;opacity:0.8;stroke:#cccccc;stroke-linejoin:miter;"/>
    </g>
    <g id="line2d_20">
     <path d="M 551.548437 34.447188 
L 571.548437 34.447188 
" style="fill:none;stroke:#1f77b4;stroke-linecap:round;stroke-width:1.5;"/>
    </g>
    <g id="line2d_21"/>
    <g id="text_19">
     <!-- Internações -->
     <g style="fill:#262626;" transform="translate(579.548437 37.947188)scale(0.1 -0.1)">
      <use xlink:href="#ArialMT-49"/>
      <use x="27.783203" xlink:href="#ArialMT-6e"/>
      <use x="83.398438" xlink:href="#ArialMT-74"/>
      <use x="111.181641" xlink:href="#ArialMT-65"/>
      <use x="166.796875" xlink:href="#ArialMT-72"/>
      <use x="200.097656" xlink:href="#ArialMT-6e"/>
      <use x="255.712891" xlink:href="#ArialMT-61"/>
      <use x="311.328125" xlink:href="#ArialMT-e7"/>
      <use x="361.328125" xlink:href="#ArialMT-f5"/>
      <use x="416.943359" xlink:href="#ArialMT-65"/>
      <use x="472.558594" xlink:href="#ArialMT-73"/>
     </g>
    </g>
    <g id="line2d_22">
     <path d="M 551.548437 48.5925 
L 571.548437 48.5925 
" style="fill:none;stroke:#ff7f0e;stroke-linecap:round;stroke-width:1.5;"/>
    </g>
    <g id="line2d_23"/>
    <g id="text_20">
     <!-- UTI -->
     <g style="fill:#262626;" transform="translate(579.548437 52.0925)scale(0.1 -0.1)">
      <defs>
       <path d="M 3500 4581 
L 4106 4581 
L 4106 1934 
Q 4106 1244 3950 837 
Q 3794 431 3386 176 
Q 2978 -78 2316 -78 
Q 1672 -78 1262 144 
Q 853 366 678 786 
Q 503 1206 503 1934 
L 503 4581 
L 1109 4581 
L 1109 1938 
Q 1109 1341 1220 1058 
Q 1331 775 1601 622 
Q 1872 469 2263 469 
Q 2931 469 3215 772 
Q 3500 1075 3500 1938 
L 3500 4581 
z
" id="ArialMT-55" transform="scale(0.015625)"/>
       <path d="M 1659 0 
L 1659 4041 
L 150 4041 
L 150 4581 
L 3781 4581 
L 3781 4041 
L 2266 4041 
L 2266 0 
L 1659 0 
z
" id="ArialMT-54" transform="scale(0.015625)"/>
      </defs>
      <use xlink:href="#ArialMT-55"/>
      <use x="72.216797" xlink:href="#ArialMT-54"/>
      <use x="133.300781" xlink:href="#ArialMT-49"/>
     </g>
    </g>
   </g>
  </g>
  <g id="text_21">
   <!-- Atualizado em 04/08/2021 -->
   <g style="fill:#262626;" transform="translate(7.2 331.389375)scale(0.08 -0.08)">
    <defs>
     <path d="M -9 0 
L 1750 4581 
L 2403 4581 
L 4278 0 
L 3588 0 
L 3053 1388 
L 1138 1388 
L 634 0 
L -9 0 
z
M 1313 1881 
L 2866 1881 
L 2388 3150 
Q 2169 3728 2063 4100 
Q 1975 3659 1816 3225 
L 1313 1881 
z
" id="ArialMT-41" transform="scale(0.015625)"/>
     <path d="M 2597 0 
L 2597 488 
Q 2209 -75 1544 -75 
Q 1250 -75 995 37 
Q 741 150 617 320 
Q 494 491 444 738 
Q 409 903 409 1263 
L 409 3319 
L 972 3319 
L 972 1478 
Q 972 1038 1006 884 
Q 1059 663 1231 536 
Q 1403 409 1656 409 
Q 1909 409 2131 539 
Q 2353 669 2445 892 
Q 2538 1116 2538 1541 
L 2538 3319 
L 3100 3319 
L 3100 0 
L 2597 0 
z
" id="ArialMT-75" transform="scale(0.015625)"/>
     <path d="M 409 0 
L 409 4581 
L 972 4581 
L 972 0 
L 409 0 
z
" id="ArialMT-6c" transform="scale(0.015625)"/>
     <path d="M 425 3934 
L 425 4581 
L 988 4581 
L 988 3934 
L 425 3934 
z
M 425 0 
L 425 3319 
L 988 3319 
L 988 0 
L 425 0 
z
" id="ArialMT-69" transform="scale(0.015625)"/>
     <path d="M 125 0 
L 125 456 
L 2238 2881 
Q 1878 2863 1603 2863 
L 250 2863 
L 250 3319 
L 2963 3319 
L 2963 2947 
L 1166 841 
L 819 456 
Q 1197 484 1528 484 
L 3063 484 
L 3063 0 
L 125 0 
z
" id="ArialMT-7a" transform="scale(0.015625)"/>
     <path d="M 2575 0 
L 2575 419 
Q 2259 -75 1647 -75 
Q 1250 -75 917 144 
Q 584 363 401 755 
Q 219 1147 219 1656 
Q 219 2153 384 2558 
Q 550 2963 881 3178 
Q 1213 3394 1622 3394 
Q 1922 3394 2156 3267 
Q 2391 3141 2538 2938 
L 2538 4581 
L 3097 4581 
L 3097 0 
L 2575 0 
z
M 797 1656 
Q 797 1019 1065 703 
Q 1334 388 1700 388 
Q 2069 388 2326 689 
Q 2584 991 2584 1609 
Q 2584 2291 2321 2609 
Q 2059 2928 1675 2928 
Q 1300 2928 1048 2622 
Q 797 2316 797 1656 
z
" id="ArialMT-64" transform="scale(0.015625)"/>
     <path d="M 213 1659 
Q 213 2581 725 3025 
Q 1153 3394 1769 3394 
Q 2453 3394 2887 2945 
Q 3322 2497 3322 1706 
Q 3322 1066 3130 698 
Q 2938 331 2570 128 
Q 2203 -75 1769 -75 
Q 1072 -75 642 372 
Q 213 819 213 1659 
z
M 791 1659 
Q 791 1022 1069 705 
Q 1347 388 1769 388 
Q 2188 388 2466 706 
Q 2744 1025 2744 1678 
Q 2744 2294 2464 2611 
Q 2184 2928 1769 2928 
Q 1347 2928 1069 2612 
Q 791 2297 791 1659 
z
" id="ArialMT-6f" transform="scale(0.015625)"/>
     <path id="ArialMT-20" transform="scale(0.015625)"/>
     <path d="M 422 0 
L 422 3319 
L 925 3319 
L 925 2853 
Q 1081 3097 1340 3245 
Q 1600 3394 1931 3394 
Q 2300 3394 2536 3241 
Q 2772 3088 2869 2813 
Q 3263 3394 3894 3394 
Q 4388 3394 4653 3120 
Q 4919 2847 4919 2278 
L 4919 0 
L 4359 0 
L 4359 2091 
Q 4359 2428 4304 2576 
Q 4250 2725 4106 2815 
Q 3963 2906 3769 2906 
Q 3419 2906 3187 2673 
Q 2956 2441 2956 1928 
L 2956 0 
L 2394 0 
L 2394 2156 
Q 2394 2531 2256 2718 
Q 2119 2906 1806 2906 
Q 1569 2906 1367 2781 
Q 1166 2656 1075 2415 
Q 984 2175 984 1722 
L 984 0 
L 422 0 
z
" id="ArialMT-6d" transform="scale(0.015625)"/>
     <path d="M 2069 0 
L 2069 1097 
L 81 1097 
L 81 1613 
L 2172 4581 
L 2631 4581 
L 2631 1613 
L 3250 1613 
L 3250 1097 
L 2631 1097 
L 2631 0 
L 2069 0 
z
M 2069 1613 
L 2069 3678 
L 634 1613 
L 2069 1613 
z
" id="ArialMT-34" transform="scale(0.015625)"/>
     <path d="M 0 -78 
L 1328 4659 
L 1778 4659 
L 453 -78 
L 0 -78 
z
" id="ArialMT-2f" transform="scale(0.015625)"/>
     <path d="M 1131 2484 
Q 781 2613 612 2850 
Q 444 3088 444 3419 
Q 444 3919 803 4259 
Q 1163 4600 1759 4600 
Q 2359 4600 2725 4251 
Q 3091 3903 3091 3403 
Q 3091 3084 2923 2848 
Q 2756 2613 2416 2484 
Q 2838 2347 3058 2040 
Q 3278 1734 3278 1309 
Q 3278 722 2862 322 
Q 2447 -78 1769 -78 
Q 1091 -78 675 323 
Q 259 725 259 1325 
Q 259 1772 486 2073 
Q 713 2375 1131 2484 
z
M 1019 3438 
Q 1019 3113 1228 2906 
Q 1438 2700 1772 2700 
Q 2097 2700 2305 2904 
Q 2513 3109 2513 3406 
Q 2513 3716 2298 3927 
Q 2084 4138 1766 4138 
Q 1444 4138 1231 3931 
Q 1019 3725 1019 3438 
z
M 838 1322 
Q 838 1081 952 856 
Q 1066 631 1291 507 
Q 1516 384 1775 384 
Q 2178 384 2440 643 
Q 2703 903 2703 1303 
Q 2703 1709 2433 1975 
Q 2163 2241 1756 2241 
Q 1359 2241 1098 1978 
Q 838 1716 838 1322 
z
" id="ArialMT-38" transform="scale(0.015625)"/>
    </defs>
    <use xlink:href="#ArialMT-41"/>
    <use x="66.699219" xlink:href="#ArialMT-74"/>
    <use x="94.482422" xlink:href="#ArialMT-75"/>
    <use x="150.097656" xlink:href="#ArialMT-61"/>
    <use x="205.712891" xlink:href="#ArialMT-6c"/>
    <use x="227.929688" xlink:href="#ArialMT-69"/>
    <use x="250.146484" xlink:href="#ArialMT-7a"/>
    <use x="300.146484" xlink:href="#ArialMT-61"/>
    <use x="355.761719" xlink:href="#ArialMT-64"/>
    <use x="411.376953" xlink:href="#ArialMT-6f"/>
    <use x="466.992188" xlink:href="#ArialMT-20"/>
    <use x="494.775391" xlink:href="#ArialMT-65"/>
    <use x="550.390625" xlink:href="#ArialMT-6d"/>
    <use x="633.691406" xlink:href="#ArialMT-20"/>
    <use x="661.474609" xlink:href="#ArialMT-30"/>
    <use x="717.089844" xlink:href="#ArialMT-34"/>
    <use x="772.705078" xlink:href="#ArialMT-2f"/>
    <use x="800.488281" xlink:href="#ArialMT-30"/>
    <use x="856.103516" xlink:href="#ArialMT-38"/>
    <use x="911.71875" xlink:href="#ArialMT-2f"/>
    <use x="939.501953" xlink:href="#ArialMT-32"/>
    <use x="995.117188" xlink:href="#ArialMT-30"/>
    <use x="1050.732422" xlink:href="#ArialMT-32"/>
    <use x="1106.347656" xlink:href="#ArialMT-31"/>
   </g>
  </g>
  <g id="text_22">
   <!-- https://jmsvaz.github.io/covidsantos/ -->
   <g style="fill:#262626;" transform="translate(570.345 331.389375)scale(0.08 -0.08)">
    <defs>
     <path d="M 422 0 
L 422 4581 
L 984 4581 
L 984 2938 
Q 1378 3394 1978 3394 
Q 2347 3394 2619 3248 
Q 2891 3103 3008 2847 
Q 3125 2591 3125 2103 
L 3125 0 
L 2563 0 
L 2563 2103 
Q 2563 2525 2380 2717 
Q 2197 2909 1863 2909 
Q 1613 2909 1392 2779 
Q 1172 2650 1078 2428 
Q 984 2206 984 1816 
L 984 0 
L 422 0 
z
" id="ArialMT-68" transform="scale(0.015625)"/>
     <path d="M 422 -1272 
L 422 3319 
L 934 3319 
L 934 2888 
Q 1116 3141 1344 3267 
Q 1572 3394 1897 3394 
Q 2322 3394 2647 3175 
Q 2972 2956 3137 2557 
Q 3303 2159 3303 1684 
Q 3303 1175 3120 767 
Q 2938 359 2589 142 
Q 2241 -75 1856 -75 
Q 1575 -75 1351 44 
Q 1128 163 984 344 
L 984 -1272 
L 422 -1272 
z
M 931 1641 
Q 931 1000 1190 694 
Q 1450 388 1819 388 
Q 2194 388 2461 705 
Q 2728 1022 2728 1688 
Q 2728 2322 2467 2637 
Q 2206 2953 1844 2953 
Q 1484 2953 1207 2617 
Q 931 2281 931 1641 
z
" id="ArialMT-70" transform="scale(0.015625)"/>
     <path d="M 578 2678 
L 578 3319 
L 1219 3319 
L 1219 2678 
L 578 2678 
z
M 578 0 
L 578 641 
L 1219 641 
L 1219 0 
L 578 0 
z
" id="ArialMT-3a" transform="scale(0.015625)"/>
     <path d="M 419 3928 
L 419 4581 
L 981 4581 
L 981 3928 
L 419 3928 
z
M -294 -1288 
L -188 -809 
Q -19 -853 78 -853 
Q 250 -853 334 -739 
Q 419 -625 419 -169 
L 419 3319 
L 981 3319 
L 981 -181 
Q 981 -794 822 -1034 
Q 619 -1347 147 -1347 
Q -81 -1347 -294 -1288 
z
" id="ArialMT-6a" transform="scale(0.015625)"/>
     <path d="M 1344 0 
L 81 3319 
L 675 3319 
L 1388 1331 
Q 1503 1009 1600 663 
Q 1675 925 1809 1294 
L 2547 3319 
L 3125 3319 
L 1869 0 
L 1344 0 
z
" id="ArialMT-76" transform="scale(0.015625)"/>
     <path d="M 581 0 
L 581 641 
L 1222 641 
L 1222 0 
L 581 0 
z
" id="ArialMT-2e" transform="scale(0.015625)"/>
     <path d="M 319 -275 
L 866 -356 
Q 900 -609 1056 -725 
Q 1266 -881 1628 -881 
Q 2019 -881 2231 -725 
Q 2444 -569 2519 -288 
Q 2563 -116 2559 434 
Q 2191 0 1641 0 
Q 956 0 581 494 
Q 206 988 206 1678 
Q 206 2153 378 2554 
Q 550 2956 876 3175 
Q 1203 3394 1644 3394 
Q 2231 3394 2613 2919 
L 2613 3319 
L 3131 3319 
L 3131 450 
Q 3131 -325 2973 -648 
Q 2816 -972 2473 -1159 
Q 2131 -1347 1631 -1347 
Q 1038 -1347 672 -1080 
Q 306 -813 319 -275 
z
M 784 1719 
Q 784 1066 1043 766 
Q 1303 466 1694 466 
Q 2081 466 2343 764 
Q 2606 1063 2606 1700 
Q 2606 2309 2336 2618 
Q 2066 2928 1684 2928 
Q 1309 2928 1046 2623 
Q 784 2319 784 1719 
z
" id="ArialMT-67" transform="scale(0.015625)"/>
     <path d="M 941 0 
L 419 0 
L 419 4581 
L 981 4581 
L 981 2947 
Q 1338 3394 1891 3394 
Q 2197 3394 2470 3270 
Q 2744 3147 2920 2923 
Q 3097 2700 3197 2384 
Q 3297 2069 3297 1709 
Q 3297 856 2875 390 
Q 2453 -75 1863 -75 
Q 1275 -75 941 416 
L 941 0 
z
M 934 1684 
Q 934 1088 1097 822 
Q 1363 388 1816 388 
Q 2184 388 2453 708 
Q 2722 1028 2722 1663 
Q 2722 2313 2464 2622 
Q 2206 2931 1841 2931 
Q 1472 2931 1203 2611 
Q 934 2291 934 1684 
z
" id="ArialMT-62" transform="scale(0.015625)"/>
     <path d="M 2588 1216 
L 3141 1144 
Q 3050 572 2676 248 
Q 2303 -75 1759 -75 
Q 1078 -75 664 370 
Q 250 816 250 1647 
Q 250 2184 428 2587 
Q 606 2991 970 3192 
Q 1334 3394 1763 3394 
Q 2303 3394 2647 3120 
Q 2991 2847 3088 2344 
L 2541 2259 
Q 2463 2594 2264 2762 
Q 2066 2931 1784 2931 
Q 1359 2931 1093 2626 
Q 828 2322 828 1663 
Q 828 994 1084 691 
Q 1341 388 1753 388 
Q 2084 388 2306 591 
Q 2528 794 2588 1216 
z
" id="ArialMT-63" transform="scale(0.015625)"/>
    </defs>
    <use xlink:href="#ArialMT-68"/>
    <use x="55.615234" xlink:href="#ArialMT-74"/>
    <use x="83.398438" xlink:href="#ArialMT-74"/>
    <use x="111.181641" xlink:href="#ArialMT-70"/>
    <use x="166.796875" xlink:href="#ArialMT-73"/>
    <use x="216.796875" xlink:href="#ArialMT-3a"/>
    <use x="244.580078" xlink:href="#ArialMT-2f"/>
    <use x="272.363281" xlink:href="#ArialMT-2f"/>
    <use x="300.146484" xlink:href="#ArialMT-6a"/>
    <use x="322.363281" xlink:href="#ArialMT-6d"/>
    <use x="405.664062" xlink:href="#ArialMT-73"/>
    <use x="455.664062" xlink:href="#ArialMT-76"/>
    <use x="505.664062" xlink:href="#ArialMT-61"/>
    <use x="561.279297" xlink:href="#ArialMT-7a"/>
    <use x="611.279297" xlink:href="#ArialMT-2e"/>
    <use x="639.0625" xlink:href="#ArialMT-67"/>
    <use x="694.677734" xlink:href="#ArialMT-69"/>
    <use x="716.894531" xlink:href="#ArialMT-74"/>
    <use x="744.677734" xlink:href="#ArialMT-68"/>
    <use x="800.292969" xlink:href="#ArialMT-75"/>
    <use x="855.908203" xlink:href="#ArialMT-62"/>
    <use x="911.523438" xlink:href="#ArialMT-2e"/>
    <use x="939.306641" xlink:href="#ArialMT-69"/>
    <use x="961.523438" xlink:href="#ArialMT-6f"/>
    <use x="1017.138672" xlink:href="#ArialMT-2f"/>
    <use x="1044.921875" xlink:href="#ArialMT-63"/>
    <use x="1094.921875" xlink:href="#ArialMT-6f"/>
    <use x="1150.537109" xlink:href="#ArialMT-76"/>
    <use x="1200.537109" xlink:href="#ArialMT-69"/>
    <use x="1222.753906" xlink:href="#ArialMT-64"/>
    <use x="1278.369141" xlink:href="#ArialMT-73"/>
    <use x="1328.369141" xlink:href="#ArialMT-61"/>
    <use x="1383.984375" xlink:href="#ArialMT-6e"/>
    <use x="1439.599609" xlink:href="#ArialMT-74"/>
    <use x="1467.382812" xlink:href="#ArialMT-6f"/>
    <use x="1522.998047" xlink:href="#ArialMT-73"/>
    <use x="1572.998047" xlink:href="#ArialMT-2f"/>
   </g>
  </g>
 </g>
 <defs>
  <clipPath id="p2050afbe5a">
   <rect height="277.2" width="558" x="82.8" y="21.789375"/>
  </clipPath>
 </defs>
</svg>
