<?xml version="1.0" encoding="utf-8" standalone="no"?>
<!DOCTYPE svg PUBLIC "-//W3C//DTD SVG 1.1//EN"
  "http://www.w3.org/Graphics/SVG/1.1/DTD/svg11.dtd">
<svg height="322.334688pt" version="1.1" viewBox="0 0 596.082813 322.334688" width="596.082813pt" xmlns="http://www.w3.org/2000/svg" xmlns:xlink="http://www.w3.org/1999/xlink">
 <metadata>
  <rdf:RDF xmlns:cc="http://creativecommons.org/ns#" xmlns:dc="http://purl.org/dc/elements/1.1/" xmlns:rdf="http://www.w3.org/1999/02/22-rdf-syntax-ns#">
   <cc:Work>
    <dc:type rdf:resource="http://purl.org/dc/dcmitype/StillImage"/>
    <dc:date>2021-05-05T18:25:51.073858</dc:date>
    <dc:format>image/svg+xml</dc:format>
    <dc:creator>
     <cc:Agent>
      <dc:title>Matplotlib v3.4.1, https://matplotlib.org/</dc:title>
     </cc:Agent>
    </dc:creator>
   </cc:Work>
  </rdf:RDF>
 </metadata>
 <defs>
  <style type="text/css">*{stroke-linecap:butt;stroke-linejoin:round;}</style>
 </defs>
 <g id="figure_1">
  <g id="patch_1">
   <path d="M 0 322.334688 
L 596.082813 322.334688 
L 596.082813 0 
L 0 0 
z
" style="fill:#ffffff;"/>
  </g>
  <g id="axes_1">
   <g id="patch_2">
    <path d="M 30.882812 298.989375 
L 588.882812 298.989375 
L 588.882812 21.789375 
L 30.882812 21.789375 
z
" style="fill:#ffffff;"/>
   </g>
   <g id="matplotlib.axis_1">
    <g id="xtick_1">
     <g id="line2d_1">
      <path clip-path="url(#p78b67a2e5a)" d="M 34.084048 298.989375 
L 34.084048 21.789375 
" style="fill:none;stroke:#cccccc;stroke-linecap:round;stroke-width:0.8;"/>
     </g>
     <g id="text_1">
      <!-- 2020-03 -->
      <g style="fill:#262626;" transform="translate(15.736392 313.147188)scale(0.1 -0.1)">
       <defs>
        <path d="M 3222 541 
L 3222 0 
L 194 0 
Q 188 203 259 391 
Q 375 700 629 1000 
Q 884 1300 1366 1694 
Q 2113 2306 2375 2664 
Q 2638 3022 2638 3341 
Q 2638 3675 2398 3904 
Q 2159 4134 1775 4134 
Q 1369 4134 1125 3890 
Q 881 3647 878 3216 
L 300 3275 
Q 359 3922 746 4261 
Q 1134 4600 1788 4600 
Q 2447 4600 2831 4234 
Q 3216 3869 3216 3328 
Q 3216 3053 3103 2787 
Q 2991 2522 2730 2228 
Q 2469 1934 1863 1422 
Q 1356 997 1212 845 
Q 1069 694 975 541 
L 3222 541 
z
" id="ArialMT-32" transform="scale(0.015625)"/>
        <path d="M 266 2259 
Q 266 3072 433 3567 
Q 600 4063 929 4331 
Q 1259 4600 1759 4600 
Q 2128 4600 2406 4451 
Q 2684 4303 2865 4023 
Q 3047 3744 3150 3342 
Q 3253 2941 3253 2259 
Q 3253 1453 3087 958 
Q 2922 463 2592 192 
Q 2263 -78 1759 -78 
Q 1097 -78 719 397 
Q 266 969 266 2259 
z
M 844 2259 
Q 844 1131 1108 757 
Q 1372 384 1759 384 
Q 2147 384 2411 759 
Q 2675 1134 2675 2259 
Q 2675 3391 2411 3762 
Q 2147 4134 1753 4134 
Q 1366 4134 1134 3806 
Q 844 3388 844 2259 
z
" id="ArialMT-30" transform="scale(0.015625)"/>
        <path d="M 203 1375 
L 203 1941 
L 1931 1941 
L 1931 1375 
L 203 1375 
z
" id="ArialMT-2d" transform="scale(0.015625)"/>
        <path d="M 269 1209 
L 831 1284 
Q 928 806 1161 595 
Q 1394 384 1728 384 
Q 2125 384 2398 659 
Q 2672 934 2672 1341 
Q 2672 1728 2419 1979 
Q 2166 2231 1775 2231 
Q 1616 2231 1378 2169 
L 1441 2663 
Q 1497 2656 1531 2656 
Q 1891 2656 2178 2843 
Q 2466 3031 2466 3422 
Q 2466 3731 2256 3934 
Q 2047 4138 1716 4138 
Q 1388 4138 1169 3931 
Q 950 3725 888 3313 
L 325 3413 
Q 428 3978 793 4289 
Q 1159 4600 1703 4600 
Q 2078 4600 2393 4439 
Q 2709 4278 2876 4000 
Q 3044 3722 3044 3409 
Q 3044 3113 2884 2869 
Q 2725 2625 2413 2481 
Q 2819 2388 3044 2092 
Q 3269 1797 3269 1353 
Q 3269 753 2831 336 
Q 2394 -81 1725 -81 
Q 1122 -81 723 278 
Q 325 638 269 1209 
z
" id="ArialMT-33" transform="scale(0.015625)"/>
       </defs>
       <use xlink:href="#ArialMT-32"/>
       <use x="55.615234" xlink:href="#ArialMT-30"/>
       <use x="111.230469" xlink:href="#ArialMT-32"/>
       <use x="166.845703" xlink:href="#ArialMT-30"/>
       <use x="222.460938" xlink:href="#ArialMT-2d"/>
       <use x="255.761719" xlink:href="#ArialMT-30"/>
       <use x="311.376953" xlink:href="#ArialMT-33"/>
      </g>
     </g>
    </g>
    <g id="xtick_2">
     <g id="line2d_2">
      <path clip-path="url(#p78b67a2e5a)" d="M 109.189962 298.989375 
L 109.189962 21.789375 
" style="fill:none;stroke:#cccccc;stroke-linecap:round;stroke-width:0.8;"/>
     </g>
     <g id="text_2">
      <!-- 2020-05 -->
      <g style="fill:#262626;" transform="translate(90.842305 313.147188)scale(0.1 -0.1)">
       <defs>
        <path d="M 266 1200 
L 856 1250 
Q 922 819 1161 601 
Q 1400 384 1738 384 
Q 2144 384 2425 690 
Q 2706 997 2706 1503 
Q 2706 1984 2436 2262 
Q 2166 2541 1728 2541 
Q 1456 2541 1237 2417 
Q 1019 2294 894 2097 
L 366 2166 
L 809 4519 
L 3088 4519 
L 3088 3981 
L 1259 3981 
L 1013 2750 
Q 1425 3038 1878 3038 
Q 2478 3038 2890 2622 
Q 3303 2206 3303 1553 
Q 3303 931 2941 478 
Q 2500 -78 1738 -78 
Q 1113 -78 717 272 
Q 322 622 266 1200 
z
" id="ArialMT-35" transform="scale(0.015625)"/>
       </defs>
       <use xlink:href="#ArialMT-32"/>
       <use x="55.615234" xlink:href="#ArialMT-30"/>
       <use x="111.230469" xlink:href="#ArialMT-32"/>
       <use x="166.845703" xlink:href="#ArialMT-30"/>
       <use x="222.460938" xlink:href="#ArialMT-2d"/>
       <use x="255.761719" xlink:href="#ArialMT-30"/>
       <use x="311.376953" xlink:href="#ArialMT-35"/>
      </g>
     </g>
    </g>
    <g id="xtick_3">
     <g id="line2d_3">
      <path clip-path="url(#p78b67a2e5a)" d="M 184.295875 298.989375 
L 184.295875 21.789375 
" style="fill:none;stroke:#cccccc;stroke-linecap:round;stroke-width:0.8;"/>
     </g>
     <g id="text_3">
      <!-- 2020-07 -->
      <g style="fill:#262626;" transform="translate(165.948219 313.147188)scale(0.1 -0.1)">
       <defs>
        <path d="M 303 3981 
L 303 4522 
L 3269 4522 
L 3269 4084 
Q 2831 3619 2401 2847 
Q 1972 2075 1738 1259 
Q 1569 684 1522 0 
L 944 0 
Q 953 541 1156 1306 
Q 1359 2072 1739 2783 
Q 2119 3494 2547 3981 
L 303 3981 
z
" id="ArialMT-37" transform="scale(0.015625)"/>
       </defs>
       <use xlink:href="#ArialMT-32"/>
       <use x="55.615234" xlink:href="#ArialMT-30"/>
       <use x="111.230469" xlink:href="#ArialMT-32"/>
       <use x="166.845703" xlink:href="#ArialMT-30"/>
       <use x="222.460938" xlink:href="#ArialMT-2d"/>
       <use x="255.761719" xlink:href="#ArialMT-30"/>
       <use x="311.376953" xlink:href="#ArialMT-37"/>
      </g>
     </g>
    </g>
    <g id="xtick_4">
     <g id="line2d_4">
      <path clip-path="url(#p78b67a2e5a)" d="M 260.633033 298.989375 
L 260.633033 21.789375 
" style="fill:none;stroke:#cccccc;stroke-linecap:round;stroke-width:0.8;"/>
     </g>
     <g id="text_4">
      <!-- 2020-09 -->
      <g style="fill:#262626;" transform="translate(242.285377 313.147188)scale(0.1 -0.1)">
       <defs>
        <path d="M 350 1059 
L 891 1109 
Q 959 728 1153 556 
Q 1347 384 1650 384 
Q 1909 384 2104 503 
Q 2300 622 2425 820 
Q 2550 1019 2634 1356 
Q 2719 1694 2719 2044 
Q 2719 2081 2716 2156 
Q 2547 1888 2255 1720 
Q 1963 1553 1622 1553 
Q 1053 1553 659 1965 
Q 266 2378 266 3053 
Q 266 3750 677 4175 
Q 1088 4600 1706 4600 
Q 2153 4600 2523 4359 
Q 2894 4119 3086 3673 
Q 3278 3228 3278 2384 
Q 3278 1506 3087 986 
Q 2897 466 2520 194 
Q 2144 -78 1638 -78 
Q 1100 -78 759 220 
Q 419 519 350 1059 
z
M 2653 3081 
Q 2653 3566 2395 3850 
Q 2138 4134 1775 4134 
Q 1400 4134 1122 3828 
Q 844 3522 844 3034 
Q 844 2597 1108 2323 
Q 1372 2050 1759 2050 
Q 2150 2050 2401 2323 
Q 2653 2597 2653 3081 
z
" id="ArialMT-39" transform="scale(0.015625)"/>
       </defs>
       <use xlink:href="#ArialMT-32"/>
       <use x="55.615234" xlink:href="#ArialMT-30"/>
       <use x="111.230469" xlink:href="#ArialMT-32"/>
       <use x="166.845703" xlink:href="#ArialMT-30"/>
       <use x="222.460938" xlink:href="#ArialMT-2d"/>
       <use x="255.761719" xlink:href="#ArialMT-30"/>
       <use x="311.376953" xlink:href="#ArialMT-39"/>
      </g>
     </g>
    </g>
    <g id="xtick_5">
     <g id="line2d_5">
      <path clip-path="url(#p78b67a2e5a)" d="M 335.738947 298.989375 
L 335.738947 21.789375 
" style="fill:none;stroke:#cccccc;stroke-linecap:round;stroke-width:0.8;"/>
     </g>
     <g id="text_5">
      <!-- 2020-11 -->
      <g style="fill:#262626;" transform="translate(317.76004 313.147188)scale(0.1 -0.1)">
       <defs>
        <path d="M 2384 0 
L 1822 0 
L 1822 3584 
Q 1619 3391 1289 3197 
Q 959 3003 697 2906 
L 697 3450 
Q 1169 3672 1522 3987 
Q 1875 4303 2022 4600 
L 2384 4600 
L 2384 0 
z
" id="ArialMT-31" transform="scale(0.015625)"/>
       </defs>
       <use xlink:href="#ArialMT-32"/>
       <use x="55.615234" xlink:href="#ArialMT-30"/>
       <use x="111.230469" xlink:href="#ArialMT-32"/>
       <use x="166.845703" xlink:href="#ArialMT-30"/>
       <use x="222.460938" xlink:href="#ArialMT-2d"/>
       <use x="255.761719" xlink:href="#ArialMT-31"/>
       <use x="304.001953" xlink:href="#ArialMT-31"/>
      </g>
     </g>
    </g>
    <g id="xtick_6">
     <g id="line2d_6">
      <path clip-path="url(#p78b67a2e5a)" d="M 410.84486 298.989375 
L 410.84486 21.789375 
" style="fill:none;stroke:#cccccc;stroke-linecap:round;stroke-width:0.8;"/>
     </g>
     <g id="text_6">
      <!-- 2021-01 -->
      <g style="fill:#262626;" transform="translate(392.497204 313.147188)scale(0.1 -0.1)">
       <use xlink:href="#ArialMT-32"/>
       <use x="55.615234" xlink:href="#ArialMT-30"/>
       <use x="111.230469" xlink:href="#ArialMT-32"/>
       <use x="166.845703" xlink:href="#ArialMT-31"/>
       <use x="222.460938" xlink:href="#ArialMT-2d"/>
       <use x="255.761719" xlink:href="#ArialMT-30"/>
       <use x="311.376953" xlink:href="#ArialMT-31"/>
      </g>
     </g>
    </g>
    <g id="xtick_7">
     <g id="line2d_7">
      <path clip-path="url(#p78b67a2e5a)" d="M 483.488285 298.989375 
L 483.488285 21.789375 
" style="fill:none;stroke:#cccccc;stroke-linecap:round;stroke-width:0.8;"/>
     </g>
     <g id="text_7">
      <!-- 2021-03 -->
      <g style="fill:#262626;" transform="translate(465.140628 313.147188)scale(0.1 -0.1)">
       <use xlink:href="#ArialMT-32"/>
       <use x="55.615234" xlink:href="#ArialMT-30"/>
       <use x="111.230469" xlink:href="#ArialMT-32"/>
       <use x="166.845703" xlink:href="#ArialMT-31"/>
       <use x="222.460938" xlink:href="#ArialMT-2d"/>
       <use x="255.761719" xlink:href="#ArialMT-30"/>
       <use x="311.376953" xlink:href="#ArialMT-33"/>
      </g>
     </g>
    </g>
    <g id="xtick_8">
     <g id="line2d_8">
      <path clip-path="url(#p78b67a2e5a)" d="M 558.594198 298.989375 
L 558.594198 21.789375 
" style="fill:none;stroke:#cccccc;stroke-linecap:round;stroke-width:0.8;"/>
     </g>
     <g id="text_8">
      <!-- 2021-05 -->
      <g style="fill:#262626;" transform="translate(540.246542 313.147188)scale(0.1 -0.1)">
       <use xlink:href="#ArialMT-32"/>
       <use x="55.615234" xlink:href="#ArialMT-30"/>
       <use x="111.230469" xlink:href="#ArialMT-32"/>
       <use x="166.845703" xlink:href="#ArialMT-31"/>
       <use x="222.460938" xlink:href="#ArialMT-2d"/>
       <use x="255.761719" xlink:href="#ArialMT-30"/>
       <use x="311.376953" xlink:href="#ArialMT-35"/>
      </g>
     </g>
    </g>
   </g>
   <g id="matplotlib.axis_2">
    <g id="ytick_1">
     <g id="line2d_9">
      <path clip-path="url(#p78b67a2e5a)" d="M 30.882812 286.389375 
L 588.882812 286.389375 
" style="fill:none;stroke:#cccccc;stroke-linecap:round;stroke-width:0.8;"/>
     </g>
     <g id="text_9">
      <!-- 0 -->
      <g style="fill:#262626;" transform="translate(18.321875 289.968281)scale(0.1 -0.1)">
       <use xlink:href="#ArialMT-30"/>
      </g>
     </g>
    </g>
    <g id="ytick_2">
     <g id="line2d_10">
      <path clip-path="url(#p78b67a2e5a)" d="M 30.882812 248.664824 
L 588.882812 248.664824 
" style="fill:none;stroke:#cccccc;stroke-linecap:round;stroke-width:0.8;"/>
     </g>
     <g id="text_10">
      <!-- 50 -->
      <g style="fill:#262626;" transform="translate(12.760937 252.24373)scale(0.1 -0.1)">
       <use xlink:href="#ArialMT-35"/>
       <use x="55.615234" xlink:href="#ArialMT-30"/>
      </g>
     </g>
    </g>
    <g id="ytick_3">
     <g id="line2d_11">
      <path clip-path="url(#p78b67a2e5a)" d="M 30.882812 210.940273 
L 588.882812 210.940273 
" style="fill:none;stroke:#cccccc;stroke-linecap:round;stroke-width:0.8;"/>
     </g>
     <g id="text_11">
      <!-- 100 -->
      <g style="fill:#262626;" transform="translate(7.2 214.519179)scale(0.1 -0.1)">
       <use xlink:href="#ArialMT-31"/>
       <use x="55.615234" xlink:href="#ArialMT-30"/>
       <use x="111.230469" xlink:href="#ArialMT-30"/>
      </g>
     </g>
    </g>
    <g id="ytick_4">
     <g id="line2d_12">
      <path clip-path="url(#p78b67a2e5a)" d="M 30.882812 173.215722 
L 588.882812 173.215722 
" style="fill:none;stroke:#cccccc;stroke-linecap:round;stroke-width:0.8;"/>
     </g>
     <g id="text_12">
      <!-- 150 -->
      <g style="fill:#262626;" transform="translate(7.2 176.794629)scale(0.1 -0.1)">
       <use xlink:href="#ArialMT-31"/>
       <use x="55.615234" xlink:href="#ArialMT-35"/>
       <use x="111.230469" xlink:href="#ArialMT-30"/>
      </g>
     </g>
    </g>
    <g id="ytick_5">
     <g id="line2d_13">
      <path clip-path="url(#p78b67a2e5a)" d="M 30.882812 135.491171 
L 588.882812 135.491171 
" style="fill:none;stroke:#cccccc;stroke-linecap:round;stroke-width:0.8;"/>
     </g>
     <g id="text_13">
      <!-- 200 -->
      <g style="fill:#262626;" transform="translate(7.2 139.070078)scale(0.1 -0.1)">
       <use xlink:href="#ArialMT-32"/>
       <use x="55.615234" xlink:href="#ArialMT-30"/>
       <use x="111.230469" xlink:href="#ArialMT-30"/>
      </g>
     </g>
    </g>
    <g id="ytick_6">
     <g id="line2d_14">
      <path clip-path="url(#p78b67a2e5a)" d="M 30.882812 97.766621 
L 588.882812 97.766621 
" style="fill:none;stroke:#cccccc;stroke-linecap:round;stroke-width:0.8;"/>
     </g>
     <g id="text_14">
      <!-- 250 -->
      <g style="fill:#262626;" transform="translate(7.2 101.345527)scale(0.1 -0.1)">
       <use xlink:href="#ArialMT-32"/>
       <use x="55.615234" xlink:href="#ArialMT-35"/>
       <use x="111.230469" xlink:href="#ArialMT-30"/>
      </g>
     </g>
    </g>
    <g id="ytick_7">
     <g id="line2d_15">
      <path clip-path="url(#p78b67a2e5a)" d="M 30.882812 60.04207 
L 588.882812 60.04207 
" style="fill:none;stroke:#cccccc;stroke-linecap:round;stroke-width:0.8;"/>
     </g>
     <g id="text_15">
      <!-- 300 -->
      <g style="fill:#262626;" transform="translate(7.2 63.620976)scale(0.1 -0.1)">
       <use xlink:href="#ArialMT-33"/>
       <use x="55.615234" xlink:href="#ArialMT-30"/>
       <use x="111.230469" xlink:href="#ArialMT-30"/>
      </g>
     </g>
    </g>
    <g id="ytick_8">
     <g id="line2d_16">
      <path clip-path="url(#p78b67a2e5a)" d="M 30.882812 22.317519 
L 588.882812 22.317519 
" style="fill:none;stroke:#cccccc;stroke-linecap:round;stroke-width:0.8;"/>
     </g>
     <g id="text_16">
      <!-- 350 -->
      <g style="fill:#262626;" transform="translate(7.2 25.896425)scale(0.1 -0.1)">
       <use xlink:href="#ArialMT-33"/>
       <use x="55.615234" xlink:href="#ArialMT-35"/>
       <use x="111.230469" xlink:href="#ArialMT-30"/>
      </g>
     </g>
    </g>
   </g>
   <g id="line2d_17">
    <path clip-path="url(#p78b67a2e5a)" d="M 56.246449 278.089974 
L 57.477693 278.089974 
L 58.708938 276.580992 
L 59.940182 276.580992 
L 61.171427 269.036082 
L 62.402671 255.455243 
L 63.633916 254.700752 
L 64.86516 251.682788 
L 66.096405 247.155842 
L 67.327649 246.401351 
L 68.558894 246.401351 
L 69.790138 245.64686 
L 71.021383 242.628896 
L 72.252627 226.030094 
L 73.483872 224.521112 
L 74.715116 224.521112 
L 75.946361 201.886381 
L 77.177605 200.377399 
L 78.40885 213.958237 
L 79.640094 210.185782 
L 80.871339 204.149854 
L 82.102583 202.640872 
L 83.333828 199.622908 
L 84.565072 199.622908 
L 85.796316 198.113926 
L 87.027561 186.796561 
L 88.258805 185.287579 
L 89.49005 189.060034 
L 90.721294 176.233686 
L 91.952539 173.215722 
L 93.183783 170.952249 
L 94.415028 167.179794 
L 95.646272 176.988177 
L 96.877517 176.988177 
L 98.108761 173.970213 
L 99.340006 167.934285 
L 100.57125 142.281591 
L 101.802495 140.772609 
L 103.033739 176.233686 
L 104.264984 178.497159 
L 105.496228 181.515124 
L 106.727473 176.233686 
L 107.958717 181.515124 
L 109.189962 173.215722 
L 110.421206 168.688776 
L 111.652451 169.443267 
L 112.883695 167.179794 
L 114.11494 161.143866 
L 115.346184 158.125902 
L 116.577429 162.652848 
L 117.808673 165.670812 
L 119.039918 161.143866 
L 120.271162 158.125902 
L 121.502406 161.898357 
L 122.733651 146.054046 
L 123.964895 152.844465 
L 125.19614 149.826501 
L 126.427384 146.054046 
L 127.658629 152.089974 
L 128.889873 140.772609 
L 130.121118 139.263626 
L 131.352362 141.5271 
L 132.583607 133.982189 
L 133.814851 137.000153 
L 135.046096 139.263626 
L 136.27734 140.772609 
L 137.508585 138.509135 
L 138.739829 137.754644 
L 139.971074 133.227698 
L 141.202318 134.73668 
L 142.433563 135.491171 
L 143.664807 123.419315 
L 144.896052 122.664824 
L 146.127296 124.173806 
L 147.358541 129.455243 
L 148.589785 129.455243 
L 149.82103 128.700752 
L 151.052274 127.19177 
L 152.283519 122.664824 
L 153.514763 122.664824 
L 154.746008 110.592968 
L 155.977252 115.874405 
L 157.208497 109.083986 
L 158.439741 114.365423 
L 159.670985 106.820513 
L 160.90223 109.838477 
L 162.133474 103.802549 
L 163.364719 112.856441 
L 164.595963 120.401351 
L 165.827208 122.664824 
L 167.058452 126.437279 
L 168.289697 130.964225 
L 169.520941 127.946261 
L 170.752186 122.664824 
L 171.98343 121.910333 
L 173.214675 118.892369 
L 174.445919 123.419315 
L 175.677164 135.491171 
L 176.908408 137.000153 
L 178.139653 131.718716 
L 179.370897 134.73668 
L 180.602142 141.5271 
L 181.833386 144.545064 
L 183.064631 150.580992 
L 184.295875 150.580992 
L 185.52712 156.61692 
L 186.758364 149.07201 
L 187.989609 152.844465 
L 189.220853 154.353447 
L 190.452098 157.371411 
L 191.683342 148.317519 
L 192.914587 164.916321 
L 194.145831 162.652848 
L 195.377076 161.898357 
L 196.60832 166.425303 
L 197.839564 171.70674 
L 199.070809 170.197758 
L 200.302053 149.826501 
L 201.533298 161.898357 
L 202.764542 153.598956 
L 203.995787 148.317519 
L 205.227031 156.61692 
L 206.458276 154.353447 
L 208.920765 158.880393 
L 210.152009 154.353447 
L 211.383254 157.371411 
L 212.614498 152.844465 
L 213.845743 154.353447 
L 216.308232 158.880393 
L 217.539476 163.407339 
L 218.770721 170.952249 
L 220.001965 173.215722 
L 221.23321 173.970213 
L 222.464454 177.742668 
L 223.695699 180.006141 
L 224.926943 177.742668 
L 226.158188 184.533088 
L 227.389432 188.305543 
L 228.620677 196.604944 
L 229.851921 194.341471 
L 231.083166 195.850453 
L 232.31441 208.6768 
L 233.545655 203.395363 
L 234.776899 207.167818 
L 236.008143 211.694764 
L 237.239388 208.6768 
L 238.470632 207.922309 
L 239.701877 204.904345 
L 240.933121 203.395363 
L 242.164366 202.640872 
L 243.39561 189.814525 
L 244.626855 198.113926 
L 247.089344 207.167818 
L 248.320588 204.904345 
L 249.551833 214.712728 
L 250.783077 215.467219 
L 252.014322 213.203746 
L 253.245566 215.467219 
L 254.476811 219.239674 
L 255.708055 213.203746 
L 256.9393 221.503147 
L 258.170544 207.167818 
L 259.401789 197.359435 
L 260.633033 195.850453 
L 261.864278 199.622908 
L 263.095522 201.13189 
L 264.326767 201.13189 
L 265.558011 203.395363 
L 266.789256 203.395363 
L 268.0205 211.694764 
L 269.251745 210.185782 
L 270.482989 200.377399 
L 271.714234 203.395363 
L 272.945478 200.377399 
L 274.176722 199.622908 
L 275.407967 200.377399 
L 276.639211 203.395363 
L 279.1017 212.449255 
L 280.332945 213.203746 
L 281.564189 210.940273 
L 282.795434 209.431291 
L 285.257923 210.940273 
L 286.489167 217.730692 
L 287.720412 217.730692 
L 288.951656 231.311531 
L 290.182901 229.048058 
L 291.414145 227.539076 
L 292.64539 223.012129 
L 293.876634 221.503147 
L 295.107879 222.257638 
L 296.339123 219.239674 
L 297.570368 223.012129 
L 298.801612 222.257638 
L 300.032857 217.730692 
L 301.264101 219.239674 
L 302.495346 219.994165 
L 303.72659 214.712728 
L 304.957835 210.940273 
L 306.189079 213.203746 
L 307.420324 210.185782 
L 308.651568 212.449255 
L 309.882812 209.431291 
L 311.114057 214.712728 
L 312.345301 215.467219 
L 313.576546 214.712728 
L 314.80779 212.449255 
L 316.039035 213.958237 
L 317.270279 216.976201 
L 318.501524 216.22171 
L 319.732768 216.22171 
L 320.964013 213.203746 
L 322.195257 207.167818 
L 323.426502 204.904345 
L 324.657746 205.658836 
L 325.888991 207.922309 
L 327.120235 204.149854 
L 328.35148 204.149854 
L 329.582724 201.886381 
L 330.813969 195.095962 
L 332.045213 196.604944 
L 333.276458 193.58698 
L 334.507702 193.58698 
L 335.738947 190.569016 
L 336.970191 186.796561 
L 338.201436 180.760632 
L 339.43268 189.060034 
L 340.663925 194.341471 
L 341.895169 189.060034 
L 343.126414 183.024106 
L 344.357658 186.04207 
L 345.588903 179.25165 
L 346.820147 174.724704 
L 348.051391 164.916321 
L 349.282636 166.425303 
L 350.51388 169.443267 
L 351.745125 173.970213 
L 352.976369 173.215722 
L 354.207614 168.688776 
L 355.438858 169.443267 
L 356.670103 153.598956 
L 357.901347 149.826501 
L 359.132592 152.089974 
L 360.363836 138.509135 
L 361.595081 139.263626 
L 362.826325 143.790573 
L 364.05757 137.754644 
L 365.288814 132.473207 
L 366.520059 132.473207 
L 367.751303 134.73668 
L 368.982548 127.946261 
L 370.213792 138.509135 
L 371.445037 142.281591 
L 372.676281 147.563028 
L 373.907526 140.018118 
L 375.13877 141.5271 
L 376.370015 149.07201 
L 377.601259 145.299555 
L 378.832504 155.862429 
L 380.063748 164.916321 
L 381.294993 155.862429 
L 382.526237 142.281591 
L 383.757482 154.353447 
L 384.988726 150.580992 
L 386.21997 149.07201 
L 387.451215 155.862429 
L 391.144948 171.70674 
L 392.376193 170.197758 
L 393.607437 169.443267 
L 394.838682 174.724704 
L 396.069926 178.497159 
L 397.301171 173.970213 
L 398.532415 170.952249 
L 399.76366 170.952249 
L 400.994904 175.479195 
L 402.226149 182.269615 
L 403.457393 184.533088 
L 404.688638 178.497159 
L 405.919882 177.742668 
L 407.151127 173.215722 
L 408.382371 175.479195 
L 409.613616 173.970213 
L 410.84486 183.778597 
L 412.076105 180.760632 
L 413.307349 187.551052 
L 414.538594 197.359435 
L 415.769838 195.850453 
L 417.001083 195.095962 
L 418.232327 196.604944 
L 419.463572 192.832489 
L 421.926061 194.341471 
L 423.157305 184.533088 
L 424.388549 187.551052 
L 425.619794 179.25165 
L 426.851038 180.006141 
L 428.082283 176.233686 
L 430.544772 185.287579 
L 431.776016 178.497159 
L 433.007261 181.515124 
L 434.238505 187.551052 
L 435.46975 195.850453 
L 436.700994 189.060034 
L 437.932239 192.832489 
L 439.163483 189.814525 
L 440.394728 199.622908 
L 441.625972 204.149854 
L 442.857217 195.095962 
L 444.088461 201.13189 
L 445.319706 196.604944 
L 446.55095 201.886381 
L 447.782195 204.149854 
L 449.013439 195.095962 
L 450.244684 194.341471 
L 451.475928 191.323507 
L 452.707173 196.604944 
L 453.938417 195.850453 
L 455.169662 196.604944 
L 456.400906 200.377399 
L 457.632151 203.395363 
L 458.863395 210.185782 
L 460.09464 210.940273 
L 461.325884 209.431291 
L 462.557128 206.413327 
L 463.788373 216.976201 
L 465.019617 216.22171 
L 466.250862 206.413327 
L 467.482106 203.395363 
L 468.713351 214.712728 
L 469.944595 214.712728 
L 471.17584 211.694764 
L 472.407084 213.958237 
L 473.638329 209.431291 
L 474.869573 202.640872 
L 476.100818 198.113926 
L 477.332062 201.13189 
L 478.563307 191.323507 
L 479.794551 192.077998 
L 481.025796 205.658836 
L 482.25704 189.060034 
L 483.488285 180.760632 
L 484.719529 186.796561 
L 485.950774 178.497159 
L 487.182018 180.006141 
L 488.413263 177.742668 
L 489.644507 186.796561 
L 490.875752 183.778597 
L 492.106996 173.970213 
L 493.338241 169.443267 
L 495.80073 161.898357 
L 498.263219 148.317519 
L 499.494463 139.263626 
L 500.725707 133.982189 
L 501.956952 118.892369 
L 503.188196 115.874405 
L 504.419441 112.10195 
L 505.650685 106.820513 
L 506.88193 95.503147 
L 508.113174 81.922309 
L 509.344419 74.377399 
L 510.575663 64.569016 
L 511.806908 57.778597 
L 513.038152 39.670812 
L 514.269397 49.479195 
L 515.500641 40.425303 
L 516.731886 44.197758 
L 517.96313 44.197758 
L 519.194375 34.389375 
L 520.425619 35.898357 
L 521.656864 41.179794 
L 522.888108 37.407339 
L 524.119353 42.688776 
L 525.350597 44.197758 
L 526.581842 41.179794 
L 527.813086 45.70674 
L 529.044331 46.461231 
L 530.275575 56.269615 
L 531.50682 55.515124 
L 532.738064 81.922309 
L 533.969309 87.958237 
L 535.200553 78.904345 
L 536.431797 87.203746 
L 537.663042 84.940273 
L 538.894286 81.922309 
L 540.125531 91.730692 
L 541.356775 78.904345 
L 542.58802 97.012129 
L 543.819264 89.467219 
L 545.050509 90.976201 
L 546.281753 99.275603 
L 547.512998 109.083986 
L 548.744242 109.838477 
L 549.975487 118.892369 
L 551.206731 125.682788 
L 552.437976 122.664824 
L 553.66922 127.19177 
L 554.900465 136.245662 
L 556.131709 133.227698 
L 557.362954 128.700752 
L 558.594198 113.610932 
L 559.825443 121.910333 
L 561.056687 124.173806 
L 562.287932 130.209734 
L 563.519176 118.892369 
L 563.519176 118.892369 
" style="fill:none;stroke:#1f77b4;stroke-linecap:round;stroke-width:1.5;"/>
   </g>
   <g id="line2d_18">
    <path clip-path="url(#p78b67a2e5a)" d="M 56.246449 286.389375 
L 57.477693 286.389375 
L 58.708938 281.107938 
L 59.940182 281.107938 
L 61.171427 279.598956 
L 62.402671 272.054046 
L 63.633916 272.808537 
L 64.86516 269.790573 
L 69.790138 269.790573 
L 71.021383 270.545064 
L 72.252627 267.5271 
L 73.483872 269.036082 
L 74.715116 268.281591 
L 75.946361 265.263626 
L 77.177605 265.263626 
L 78.40885 261.491171 
L 79.640094 258.473207 
L 80.871339 258.473207 
L 82.102583 262.245662 
L 84.565072 262.245662 
L 85.796316 261.491171 
L 87.027561 257.718716 
L 88.258805 259.982189 
L 89.49005 264.509135 
L 90.721294 258.473207 
L 91.952539 253.19177 
L 93.183783 252.437279 
L 94.415028 245.64686 
L 95.646272 250.173806 
L 96.877517 248.664824 
L 98.108761 245.64686 
L 99.340006 238.856441 
L 100.57125 235.083986 
L 101.802495 232.820513 
L 103.033739 238.856441 
L 104.264984 238.856441 
L 106.727473 241.874405 
L 107.958717 238.856441 
L 109.189962 233.575004 
L 110.421206 231.311531 
L 111.652451 229.802549 
L 112.883695 230.55704 
L 114.11494 225.275603 
L 115.346184 225.275603 
L 116.577429 232.820513 
L 117.808673 234.329495 
L 119.039918 229.048058 
L 120.271162 229.048058 
L 122.733651 232.066022 
L 123.964895 236.592968 
L 125.19614 233.575004 
L 126.427384 231.311531 
L 127.658629 235.838477 
L 128.889873 229.048058 
L 130.121118 229.048058 
L 131.352362 227.539076 
L 132.583607 230.55704 
L 133.814851 226.030094 
L 135.046096 226.030094 
L 136.27734 222.257638 
L 137.508585 223.012129 
L 139.971074 221.503147 
L 141.202318 228.293567 
L 142.433563 230.55704 
L 143.664807 225.275603 
L 144.896052 229.048058 
L 146.127296 225.275603 
L 147.358541 220.748656 
L 148.589785 219.239674 
L 149.82103 218.485183 
L 151.052274 221.503147 
L 152.283519 219.239674 
L 153.514763 219.239674 
L 154.746008 214.712728 
L 155.977252 216.976201 
L 157.208497 215.467219 
L 158.439741 215.467219 
L 159.670985 207.922309 
L 160.90223 211.694764 
L 162.133474 216.976201 
L 163.364719 219.239674 
L 164.595963 212.449255 
L 165.827208 216.976201 
L 167.058452 223.012129 
L 168.289697 225.275603 
L 170.752186 223.766621 
L 171.98343 219.239674 
L 173.214675 221.503147 
L 174.445919 219.994165 
L 175.677164 223.012129 
L 176.908408 222.257638 
L 178.139653 223.012129 
L 179.370897 227.539076 
L 180.602142 234.329495 
L 181.833386 233.575004 
L 183.064631 230.55704 
L 184.295875 231.311531 
L 185.52712 234.329495 
L 186.758364 232.066022 
L 187.989609 230.55704 
L 189.220853 231.311531 
L 190.452098 231.311531 
L 191.683342 229.802549 
L 192.914587 236.592968 
L 194.145831 236.592968 
L 195.377076 235.838477 
L 196.60832 238.856441 
L 197.839564 240.365423 
L 199.070809 236.592968 
L 200.302053 231.311531 
L 201.533298 233.575004 
L 202.764542 227.539076 
L 203.995787 230.55704 
L 205.227031 236.592968 
L 206.458276 238.856441 
L 207.68952 237.347459 
L 208.920765 237.347459 
L 210.152009 238.856441 
L 211.383254 233.575004 
L 212.614498 235.083986 
L 213.845743 237.347459 
L 215.076987 237.347459 
L 216.308232 233.575004 
L 217.539476 233.575004 
L 218.770721 238.10195 
L 220.001965 238.10195 
L 221.23321 238.856441 
L 222.464454 241.874405 
L 223.695699 243.383387 
L 224.926943 244.137878 
L 226.158188 246.401351 
L 227.389432 250.173806 
L 228.620677 249.419315 
L 229.851921 246.401351 
L 231.083166 247.155842 
L 232.31441 252.437279 
L 233.545655 252.437279 
L 234.776899 251.682788 
L 236.008143 255.455243 
L 237.239388 254.700752 
L 238.470632 253.19177 
L 239.701877 250.173806 
L 240.933121 251.682788 
L 242.164366 251.682788 
L 243.39561 248.664824 
L 244.626855 253.946261 
L 245.858099 253.946261 
L 247.089344 258.473207 
L 248.320588 256.209734 
L 249.551833 259.227698 
L 250.783077 259.227698 
L 252.014322 259.982189 
L 253.245566 256.964225 
L 255.708055 256.964225 
L 256.9393 260.73668 
L 258.170544 254.700752 
L 259.401789 256.209734 
L 260.633033 252.437279 
L 261.864278 253.946261 
L 263.095522 253.19177 
L 264.326767 253.946261 
L 265.558011 251.682788 
L 266.789256 253.946261 
L 268.0205 255.455243 
L 269.251745 254.700752 
L 270.482989 250.173806 
L 271.714234 251.682788 
L 272.945478 247.910333 
L 274.176722 248.664824 
L 275.407967 253.19177 
L 276.639211 259.227698 
L 277.870456 255.455243 
L 279.1017 255.455243 
L 280.332945 256.209734 
L 281.564189 254.700752 
L 284.026678 256.209734 
L 285.257923 255.455243 
L 286.489167 256.964225 
L 287.720412 262.245662 
L 288.951656 261.491171 
L 290.182901 256.964225 
L 291.414145 257.718716 
L 292.64539 256.964225 
L 293.876634 254.700752 
L 295.107879 253.19177 
L 296.339123 253.19177 
L 297.570368 256.209734 
L 298.801612 257.718716 
L 300.032857 256.964225 
L 302.495346 256.964225 
L 303.72659 256.209734 
L 304.957835 254.700752 
L 306.189079 256.209734 
L 307.420324 256.964225 
L 308.651568 255.455243 
L 309.882812 254.700752 
L 311.114057 258.473207 
L 312.345301 261.491171 
L 313.576546 259.227698 
L 314.80779 261.491171 
L 316.039035 261.491171 
L 317.270279 259.982189 
L 318.501524 262.245662 
L 319.732768 258.473207 
L 320.964013 256.209734 
L 322.195257 255.455243 
L 323.426502 252.437279 
L 327.120235 252.437279 
L 329.582724 249.419315 
L 330.813969 246.401351 
L 332.045213 251.682788 
L 333.276458 251.682788 
L 334.507702 250.928297 
L 335.738947 249.419315 
L 336.970191 246.401351 
L 338.201436 247.155842 
L 340.663925 245.64686 
L 341.895169 244.137878 
L 343.126414 241.874405 
L 344.357658 244.892369 
L 345.588903 235.838477 
L 346.820147 233.575004 
L 348.051391 235.083986 
L 349.282636 234.329495 
L 350.51388 226.784585 
L 351.745125 234.329495 
L 352.976369 233.575004 
L 354.207614 235.838477 
L 355.438858 235.083986 
L 356.670103 227.539076 
L 357.901347 226.030094 
L 359.132592 226.030094 
L 360.363836 216.22171 
L 361.595081 219.994165 
L 362.826325 225.275603 
L 364.05757 221.503147 
L 365.288814 222.257638 
L 366.520059 222.257638 
L 367.751303 223.766621 
L 368.982548 223.012129 
L 370.213792 228.293567 
L 371.445037 229.048058 
L 372.676281 223.766621 
L 373.907526 220.748656 
L 375.13877 222.257638 
L 376.370015 226.784585 
L 377.601259 228.293567 
L 378.832504 226.784585 
L 380.063748 235.083986 
L 381.294993 229.048058 
L 382.526237 229.048058 
L 383.757482 225.275603 
L 384.988726 220.748656 
L 386.21997 223.766621 
L 387.451215 223.766621 
L 388.682459 229.048058 
L 389.913704 231.311531 
L 391.144948 229.048058 
L 392.376193 228.293567 
L 393.607437 231.311531 
L 394.838682 235.838477 
L 396.069926 232.820513 
L 397.301171 230.55704 
L 398.532415 232.066022 
L 399.76366 226.784585 
L 400.994904 232.066022 
L 402.226149 235.083986 
L 403.457393 235.083986 
L 404.688638 226.784585 
L 405.919882 235.083986 
L 407.151127 235.083986 
L 408.382371 238.856441 
L 409.613616 236.592968 
L 410.84486 235.083986 
L 412.076105 236.592968 
L 413.307349 237.347459 
L 414.538594 239.610932 
L 415.769838 241.119914 
L 417.001083 241.874405 
L 418.232327 243.383387 
L 419.463572 241.874405 
L 420.694816 238.856441 
L 421.926061 237.347459 
L 423.157305 232.820513 
L 424.388549 233.575004 
L 425.619794 228.293567 
L 426.851038 226.784585 
L 428.082283 223.766621 
L 429.313527 225.275603 
L 430.544772 227.539076 
L 433.007261 230.55704 
L 434.238505 231.311531 
L 435.46975 233.575004 
L 436.700994 232.066022 
L 437.932239 234.329495 
L 439.163483 229.048058 
L 440.394728 229.802549 
L 441.625972 232.066022 
L 442.857217 231.311531 
L 444.088461 236.592968 
L 447.782195 238.856441 
L 449.013439 235.838477 
L 450.244684 231.311531 
L 451.475928 235.838477 
L 452.707173 232.820513 
L 453.938417 236.592968 
L 455.169662 238.10195 
L 456.400906 242.628896 
L 457.632151 245.64686 
L 458.863395 247.155842 
L 460.09464 244.892369 
L 461.325884 245.64686 
L 462.557128 243.383387 
L 463.788373 250.928297 
L 465.019617 251.682788 
L 466.250862 240.365423 
L 467.482106 244.137878 
L 468.713351 242.628896 
L 469.944595 243.383387 
L 471.17584 239.610932 
L 472.407084 242.628896 
L 473.638329 244.137878 
L 474.869573 241.874405 
L 476.100818 243.383387 
L 477.332062 248.664824 
L 479.794551 239.610932 
L 481.025796 244.892369 
L 482.25704 240.365423 
L 483.488285 237.347459 
L 484.719529 239.610932 
L 485.950774 236.592968 
L 487.182018 236.592968 
L 488.413263 237.347459 
L 489.644507 243.383387 
L 490.875752 233.575004 
L 492.106996 236.592968 
L 493.338241 238.856441 
L 494.569485 232.066022 
L 495.80073 229.048058 
L 497.031974 223.766621 
L 498.263219 211.694764 
L 499.494463 204.904345 
L 500.725707 213.958237 
L 501.956952 201.886381 
L 503.188196 196.604944 
L 504.419441 198.113926 
L 505.650685 186.796561 
L 506.88193 190.569016 
L 508.113174 186.04207 
L 509.344419 187.551052 
L 510.575663 180.760632 
L 511.806908 177.742668 
L 513.038152 165.670812 
L 514.269397 163.407339 
L 515.500641 155.862429 
L 516.731886 151.335483 
L 517.96313 154.353447 
L 519.194375 152.089974 
L 520.425619 150.580992 
L 521.656864 147.563028 
L 524.119353 146.054046 
L 525.350597 149.07201 
L 526.581842 146.808537 
L 527.813086 146.054046 
L 530.275575 143.036082 
L 531.50682 144.545064 
L 532.738064 153.598956 
L 533.969309 153.598956 
L 536.431797 165.670812 
L 537.663042 162.652848 
L 538.894286 158.880393 
L 540.125531 168.688776 
L 541.356775 163.407339 
L 542.58802 172.461231 
L 545.050509 175.479195 
L 546.281753 180.760632 
L 547.512998 189.060034 
L 548.744242 189.814525 
L 549.975487 194.341471 
L 552.437976 192.832489 
L 553.66922 197.359435 
L 554.900465 202.640872 
L 556.131709 198.113926 
L 557.362954 202.640872 
L 558.594198 183.024106 
L 559.825443 198.868417 
L 561.056687 205.658836 
L 562.287932 208.6768 
L 563.519176 198.868417 
L 563.519176 198.868417 
" style="fill:none;stroke:#ff7f0e;stroke-linecap:round;stroke-width:1.5;"/>
   </g>
   <g id="patch_3">
    <path d="M 30.882812 298.989375 
L 30.882812 21.789375 
" style="fill:none;stroke:#cccccc;stroke-linecap:square;stroke-linejoin:miter;stroke-width:0.8;"/>
   </g>
   <g id="patch_4">
    <path d="M 588.882812 298.989375 
L 588.882812 21.789375 
" style="fill:none;stroke:#cccccc;stroke-linecap:square;stroke-linejoin:miter;stroke-width:0.8;"/>
   </g>
   <g id="patch_5">
    <path d="M 30.882812 298.989375 
L 588.882812 298.989375 
" style="fill:none;stroke:#cccccc;stroke-linecap:square;stroke-linejoin:miter;stroke-width:0.8;"/>
   </g>
   <g id="patch_6">
    <path d="M 30.882812 21.789375 
L 588.882812 21.789375 
" style="fill:none;stroke:#cccccc;stroke-linecap:square;stroke-linejoin:miter;stroke-width:0.8;"/>
   </g>
   <g id="text_17">
    <!-- Internações -->
    <g style="fill:#262626;" transform="translate(278.531875 15.789375)scale(0.12 -0.12)">
     <defs>
      <path d="M 597 0 
L 597 4581 
L 1203 4581 
L 1203 0 
L 597 0 
z
" id="ArialMT-49" transform="scale(0.015625)"/>
      <path d="M 422 0 
L 422 3319 
L 928 3319 
L 928 2847 
Q 1294 3394 1984 3394 
Q 2284 3394 2536 3286 
Q 2788 3178 2913 3003 
Q 3038 2828 3088 2588 
Q 3119 2431 3119 2041 
L 3119 0 
L 2556 0 
L 2556 2019 
Q 2556 2363 2490 2533 
Q 2425 2703 2258 2804 
Q 2091 2906 1866 2906 
Q 1506 2906 1245 2678 
Q 984 2450 984 1813 
L 984 0 
L 422 0 
z
" id="ArialMT-6e" transform="scale(0.015625)"/>
      <path d="M 1650 503 
L 1731 6 
Q 1494 -44 1306 -44 
Q 1000 -44 831 53 
Q 663 150 594 308 
Q 525 466 525 972 
L 525 2881 
L 113 2881 
L 113 3319 
L 525 3319 
L 525 4141 
L 1084 4478 
L 1084 3319 
L 1650 3319 
L 1650 2881 
L 1084 2881 
L 1084 941 
Q 1084 700 1114 631 
Q 1144 563 1211 522 
Q 1278 481 1403 481 
Q 1497 481 1650 503 
z
" id="ArialMT-74" transform="scale(0.015625)"/>
      <path d="M 2694 1069 
L 3275 997 
Q 3138 488 2766 206 
Q 2394 -75 1816 -75 
Q 1088 -75 661 373 
Q 234 822 234 1631 
Q 234 2469 665 2931 
Q 1097 3394 1784 3394 
Q 2450 3394 2872 2941 
Q 3294 2488 3294 1666 
Q 3294 1616 3291 1516 
L 816 1516 
Q 847 969 1125 678 
Q 1403 388 1819 388 
Q 2128 388 2347 550 
Q 2566 713 2694 1069 
z
M 847 1978 
L 2700 1978 
Q 2663 2397 2488 2606 
Q 2219 2931 1791 2931 
Q 1403 2931 1139 2672 
Q 875 2413 847 1978 
z
" id="ArialMT-65" transform="scale(0.015625)"/>
      <path d="M 416 0 
L 416 3319 
L 922 3319 
L 922 2816 
Q 1116 3169 1280 3281 
Q 1444 3394 1641 3394 
Q 1925 3394 2219 3213 
L 2025 2691 
Q 1819 2813 1613 2813 
Q 1428 2813 1281 2702 
Q 1134 2591 1072 2394 
Q 978 2094 978 1738 
L 978 0 
L 416 0 
z
" id="ArialMT-72" transform="scale(0.015625)"/>
      <path d="M 2588 409 
Q 2275 144 1986 34 
Q 1697 -75 1366 -75 
Q 819 -75 525 192 
Q 231 459 231 875 
Q 231 1119 342 1320 
Q 453 1522 633 1644 
Q 813 1766 1038 1828 
Q 1203 1872 1538 1913 
Q 2219 1994 2541 2106 
Q 2544 2222 2544 2253 
Q 2544 2597 2384 2738 
Q 2169 2928 1744 2928 
Q 1347 2928 1158 2789 
Q 969 2650 878 2297 
L 328 2372 
Q 403 2725 575 2942 
Q 747 3159 1072 3276 
Q 1397 3394 1825 3394 
Q 2250 3394 2515 3294 
Q 2781 3194 2906 3042 
Q 3031 2891 3081 2659 
Q 3109 2516 3109 2141 
L 3109 1391 
Q 3109 606 3145 398 
Q 3181 191 3288 0 
L 2700 0 
Q 2613 175 2588 409 
z
M 2541 1666 
Q 2234 1541 1622 1453 
Q 1275 1403 1131 1340 
Q 988 1278 909 1158 
Q 831 1038 831 891 
Q 831 666 1001 516 
Q 1172 366 1500 366 
Q 1825 366 2078 508 
Q 2331 650 2450 897 
Q 2541 1088 2541 1459 
L 2541 1666 
z
" id="ArialMT-61" transform="scale(0.015625)"/>
      <path d="M 2588 1216 
L 3141 1144 
Q 3050 572 2676 248 
Q 2303 -75 1759 -75 
Q 1078 -75 664 370 
Q 250 816 250 1647 
Q 250 2184 428 2587 
Q 606 2991 970 3192 
Q 1334 3394 1763 3394 
Q 2303 3394 2647 3120 
Q 2991 2847 3088 2344 
L 2541 2259 
Q 2463 2594 2264 2762 
Q 2066 2931 1784 2931 
Q 1359 2931 1093 2626 
Q 828 2322 828 1663 
Q 828 994 1084 691 
Q 1341 388 1753 388 
Q 2084 388 2306 591 
Q 2528 794 2588 1216 
z
M 1283 -417 
L 1446 136 
L 1864 136 
L 1761 -199 
Q 2027 -230 2161 -362 
Q 2296 -495 2296 -658 
Q 2296 -892 2071 -1072 
Q 1846 -1252 1392 -1252 
Q 1136 -1252 942 -1214 
L 977 -849 
Q 1177 -861 1271 -861 
Q 1564 -861 1683 -780 
Q 1774 -717 1774 -627 
Q 1774 -570 1738 -526 
Q 1702 -483 1605 -451 
Q 1508 -420 1283 -417 
z
" id="ArialMT-e7" transform="scale(0.015625)"/>
      <path d="M 213 1659 
Q 213 2581 725 3025 
Q 1153 3394 1769 3394 
Q 2453 3394 2887 2945 
Q 3322 2497 3322 1706 
Q 3322 1066 3130 698 
Q 2938 331 2570 128 
Q 2203 -75 1769 -75 
Q 1072 -75 642 372 
Q 213 819 213 1659 
z
M 791 1659 
Q 791 1022 1069 705 
Q 1347 388 1769 388 
Q 2188 388 2466 706 
Q 2744 1025 2744 1678 
Q 2744 2294 2464 2611 
Q 2184 2928 1769 2928 
Q 1347 2928 1069 2612 
Q 791 2297 791 1659 
z
M 726 3809 
Q 723 4134 904 4328 
Q 1082 4522 1360 4522 
Q 1554 4522 1888 4353 
Q 2073 4259 2182 4259 
Q 2282 4259 2335 4314 
Q 2388 4369 2410 4531 
L 2817 4531 
Q 2807 4175 2637 3997 
Q 2467 3819 2204 3819 
Q 2007 3819 1685 3994 
Q 1476 4106 1379 4106 
Q 1273 4106 1207 4031 
Q 1138 3956 1142 3809 
L 726 3809 
z
" id="ArialMT-f5" transform="scale(0.015625)"/>
      <path d="M 197 991 
L 753 1078 
Q 800 744 1014 566 
Q 1228 388 1613 388 
Q 2000 388 2187 545 
Q 2375 703 2375 916 
Q 2375 1106 2209 1216 
Q 2094 1291 1634 1406 
Q 1016 1563 777 1677 
Q 538 1791 414 1992 
Q 291 2194 291 2438 
Q 291 2659 392 2848 
Q 494 3038 669 3163 
Q 800 3259 1026 3326 
Q 1253 3394 1513 3394 
Q 1903 3394 2198 3281 
Q 2494 3169 2634 2976 
Q 2775 2784 2828 2463 
L 2278 2388 
Q 2241 2644 2061 2787 
Q 1881 2931 1553 2931 
Q 1166 2931 1000 2803 
Q 834 2675 834 2503 
Q 834 2394 903 2306 
Q 972 2216 1119 2156 
Q 1203 2125 1616 2013 
Q 2213 1853 2448 1751 
Q 2684 1650 2818 1456 
Q 2953 1263 2953 975 
Q 2953 694 2789 445 
Q 2625 197 2315 61 
Q 2006 -75 1616 -75 
Q 969 -75 630 194 
Q 291 463 197 991 
z
" id="ArialMT-73" transform="scale(0.015625)"/>
     </defs>
     <use xlink:href="#ArialMT-49"/>
     <use x="27.783203" xlink:href="#ArialMT-6e"/>
     <use x="83.398438" xlink:href="#ArialMT-74"/>
     <use x="111.181641" xlink:href="#ArialMT-65"/>
     <use x="166.796875" xlink:href="#ArialMT-72"/>
     <use x="200.097656" xlink:href="#ArialMT-6e"/>
     <use x="255.712891" xlink:href="#ArialMT-61"/>
     <use x="311.328125" xlink:href="#ArialMT-e7"/>
     <use x="361.328125" xlink:href="#ArialMT-f5"/>
     <use x="416.943359" xlink:href="#ArialMT-65"/>
     <use x="472.558594" xlink:href="#ArialMT-73"/>
    </g>
   </g>
   <g id="legend_1">
    <g id="patch_7">
     <path d="M 37.882812 58.08 
L 122.134375 58.08 
Q 124.134375 58.08 124.134375 56.08 
L 124.134375 28.789375 
Q 124.134375 26.789375 122.134375 26.789375 
L 37.882812 26.789375 
Q 35.882812 26.789375 35.882812 28.789375 
L 35.882812 56.08 
Q 35.882812 58.08 37.882812 58.08 
z
" style="fill:#ffffff;opacity:0.8;stroke:#cccccc;stroke-linejoin:miter;"/>
    </g>
    <g id="line2d_19">
     <path d="M 39.882812 34.447187 
L 59.882812 34.447187 
" style="fill:none;stroke:#1f77b4;stroke-linecap:round;stroke-width:1.5;"/>
    </g>
    <g id="line2d_20"/>
    <g id="text_18">
     <!-- Internações -->
     <g style="fill:#262626;" transform="translate(67.882812 37.947187)scale(0.1 -0.1)">
      <use xlink:href="#ArialMT-49"/>
      <use x="27.783203" xlink:href="#ArialMT-6e"/>
      <use x="83.398438" xlink:href="#ArialMT-74"/>
      <use x="111.181641" xlink:href="#ArialMT-65"/>
      <use x="166.796875" xlink:href="#ArialMT-72"/>
      <use x="200.097656" xlink:href="#ArialMT-6e"/>
      <use x="255.712891" xlink:href="#ArialMT-61"/>
      <use x="311.328125" xlink:href="#ArialMT-e7"/>
      <use x="361.328125" xlink:href="#ArialMT-f5"/>
      <use x="416.943359" xlink:href="#ArialMT-65"/>
      <use x="472.558594" xlink:href="#ArialMT-73"/>
     </g>
    </g>
    <g id="line2d_21">
     <path d="M 39.882812 48.5925 
L 59.882812 48.5925 
" style="fill:none;stroke:#ff7f0e;stroke-linecap:round;stroke-width:1.5;"/>
    </g>
    <g id="line2d_22"/>
    <g id="text_19">
     <!-- UTI -->
     <g style="fill:#262626;" transform="translate(67.882812 52.0925)scale(0.1 -0.1)">
      <defs>
       <path d="M 3500 4581 
L 4106 4581 
L 4106 1934 
Q 4106 1244 3950 837 
Q 3794 431 3386 176 
Q 2978 -78 2316 -78 
Q 1672 -78 1262 144 
Q 853 366 678 786 
Q 503 1206 503 1934 
L 503 4581 
L 1109 4581 
L 1109 1938 
Q 1109 1341 1220 1058 
Q 1331 775 1601 622 
Q 1872 469 2263 469 
Q 2931 469 3215 772 
Q 3500 1075 3500 1938 
L 3500 4581 
z
" id="ArialMT-55" transform="scale(0.015625)"/>
       <path d="M 1659 0 
L 1659 4041 
L 150 4041 
L 150 4581 
L 3781 4581 
L 3781 4041 
L 2266 4041 
L 2266 0 
L 1659 0 
z
" id="ArialMT-54" transform="scale(0.015625)"/>
      </defs>
      <use xlink:href="#ArialMT-55"/>
      <use x="72.216797" xlink:href="#ArialMT-54"/>
      <use x="133.300781" xlink:href="#ArialMT-49"/>
     </g>
    </g>
   </g>
  </g>
 </g>
 <defs>
  <clipPath id="p78b67a2e5a">
   <rect height="277.2" width="558" x="30.882812" y="21.789375"/>
  </clipPath>
 </defs>
</svg>
