<?xml version="1.0" encoding="utf-8" standalone="no"?>
<!DOCTYPE svg PUBLIC "-//W3C//DTD SVG 1.1//EN"
  "http://www.w3.org/Graphics/SVG/1.1/DTD/svg11.dtd">
<svg height="340.273125pt" version="1.1" viewBox="0 0 705.6 340.273125" width="705.6pt" xmlns="http://www.w3.org/2000/svg" xmlns:xlink="http://www.w3.org/1999/xlink">
 <metadata>
  <rdf:RDF xmlns:cc="http://creativecommons.org/ns#" xmlns:dc="http://purl.org/dc/elements/1.1/" xmlns:rdf="http://www.w3.org/1999/02/22-rdf-syntax-ns#">
   <cc:Work>
    <dc:type rdf:resource="http://purl.org/dc/dcmitype/StillImage"/>
    <dc:date>2021-08-13T18:26:09.627252</dc:date>
    <dc:format>image/svg+xml</dc:format>
    <dc:creator>
     <cc:Agent>
      <dc:title>Matplotlib v3.4.2, https://matplotlib.org/</dc:title>
     </cc:Agent>
    </dc:creator>
   </cc:Work>
  </rdf:RDF>
 </metadata>
 <defs>
  <style type="text/css">*{stroke-linecap:butt;stroke-linejoin:round;}</style>
 </defs>
 <g id="figure_1">
  <g id="patch_1">
   <path d="M 0 340.273125 
L 705.6 340.273125 
L 705.6 0 
L 0 0 
z
" style="fill:#ffffff;"/>
  </g>
  <g id="axes_1">
   <g id="patch_2">
    <path d="M 82.8 298.989375 
L 640.8 298.989375 
L 640.8 21.789375 
L 82.8 21.789375 
z
" style="fill:#ffffff;"/>
   </g>
   <g id="matplotlib.axis_1">
    <g id="xtick_1">
     <g id="line2d_1">
      <path clip-path="url(#p1200edc287)" d="M 90.32983 298.989375 
L 90.32983 21.789375 
" style="fill:none;stroke:#cccccc;stroke-linecap:round;stroke-width:0.8;"/>
     </g>
     <g id="text_1">
      <!-- 2020-03 -->
      <g style="fill:#262626;" transform="translate(71.982173 313.147188)scale(0.1 -0.1)">
       <defs>
        <path d="M 3222 541 
L 3222 0 
L 194 0 
Q 188 203 259 391 
Q 375 700 629 1000 
Q 884 1300 1366 1694 
Q 2113 2306 2375 2664 
Q 2638 3022 2638 3341 
Q 2638 3675 2398 3904 
Q 2159 4134 1775 4134 
Q 1369 4134 1125 3890 
Q 881 3647 878 3216 
L 300 3275 
Q 359 3922 746 4261 
Q 1134 4600 1788 4600 
Q 2447 4600 2831 4234 
Q 3216 3869 3216 3328 
Q 3216 3053 3103 2787 
Q 2991 2522 2730 2228 
Q 2469 1934 1863 1422 
Q 1356 997 1212 845 
Q 1069 694 975 541 
L 3222 541 
z
" id="ArialMT-32" transform="scale(0.015625)"/>
        <path d="M 266 2259 
Q 266 3072 433 3567 
Q 600 4063 929 4331 
Q 1259 4600 1759 4600 
Q 2128 4600 2406 4451 
Q 2684 4303 2865 4023 
Q 3047 3744 3150 3342 
Q 3253 2941 3253 2259 
Q 3253 1453 3087 958 
Q 2922 463 2592 192 
Q 2263 -78 1759 -78 
Q 1097 -78 719 397 
Q 266 969 266 2259 
z
M 844 2259 
Q 844 1131 1108 757 
Q 1372 384 1759 384 
Q 2147 384 2411 759 
Q 2675 1134 2675 2259 
Q 2675 3391 2411 3762 
Q 2147 4134 1753 4134 
Q 1366 4134 1134 3806 
Q 844 3388 844 2259 
z
" id="ArialMT-30" transform="scale(0.015625)"/>
        <path d="M 203 1375 
L 203 1941 
L 1931 1941 
L 1931 1375 
L 203 1375 
z
" id="ArialMT-2d" transform="scale(0.015625)"/>
        <path d="M 269 1209 
L 831 1284 
Q 928 806 1161 595 
Q 1394 384 1728 384 
Q 2125 384 2398 659 
Q 2672 934 2672 1341 
Q 2672 1728 2419 1979 
Q 2166 2231 1775 2231 
Q 1616 2231 1378 2169 
L 1441 2663 
Q 1497 2656 1531 2656 
Q 1891 2656 2178 2843 
Q 2466 3031 2466 3422 
Q 2466 3731 2256 3934 
Q 2047 4138 1716 4138 
Q 1388 4138 1169 3931 
Q 950 3725 888 3313 
L 325 3413 
Q 428 3978 793 4289 
Q 1159 4600 1703 4600 
Q 2078 4600 2393 4439 
Q 2709 4278 2876 4000 
Q 3044 3722 3044 3409 
Q 3044 3113 2884 2869 
Q 2725 2625 2413 2481 
Q 2819 2388 3044 2092 
Q 3269 1797 3269 1353 
Q 3269 753 2831 336 
Q 2394 -81 1725 -81 
Q 1122 -81 723 278 
Q 325 638 269 1209 
z
" id="ArialMT-33" transform="scale(0.015625)"/>
       </defs>
       <use xlink:href="#ArialMT-32"/>
       <use x="55.615234" xlink:href="#ArialMT-30"/>
       <use x="111.230469" xlink:href="#ArialMT-32"/>
       <use x="166.845703" xlink:href="#ArialMT-30"/>
       <use x="222.460938" xlink:href="#ArialMT-2d"/>
       <use x="255.761719" xlink:href="#ArialMT-30"/>
       <use x="311.376953" xlink:href="#ArialMT-33"/>
      </g>
     </g>
    </g>
    <g id="xtick_2">
     <g id="line2d_2">
      <path clip-path="url(#p1200edc287)" d="M 150.766619 298.989375 
L 150.766619 21.789375 
" style="fill:none;stroke:#cccccc;stroke-linecap:round;stroke-width:0.8;"/>
     </g>
     <g id="text_2">
      <!-- 2020-05 -->
      <g style="fill:#262626;" transform="translate(132.418963 313.147188)scale(0.1 -0.1)">
       <defs>
        <path d="M 266 1200 
L 856 1250 
Q 922 819 1161 601 
Q 1400 384 1738 384 
Q 2144 384 2425 690 
Q 2706 997 2706 1503 
Q 2706 1984 2436 2262 
Q 2166 2541 1728 2541 
Q 1456 2541 1237 2417 
Q 1019 2294 894 2097 
L 366 2166 
L 809 4519 
L 3088 4519 
L 3088 3981 
L 1259 3981 
L 1013 2750 
Q 1425 3038 1878 3038 
Q 2478 3038 2890 2622 
Q 3303 2206 3303 1553 
Q 3303 931 2941 478 
Q 2500 -78 1738 -78 
Q 1113 -78 717 272 
Q 322 622 266 1200 
z
" id="ArialMT-35" transform="scale(0.015625)"/>
       </defs>
       <use xlink:href="#ArialMT-32"/>
       <use x="55.615234" xlink:href="#ArialMT-30"/>
       <use x="111.230469" xlink:href="#ArialMT-32"/>
       <use x="166.845703" xlink:href="#ArialMT-30"/>
       <use x="222.460938" xlink:href="#ArialMT-2d"/>
       <use x="255.761719" xlink:href="#ArialMT-30"/>
       <use x="311.376953" xlink:href="#ArialMT-35"/>
      </g>
     </g>
    </g>
    <g id="xtick_3">
     <g id="line2d_3">
      <path clip-path="url(#p1200edc287)" d="M 211.203409 298.989375 
L 211.203409 21.789375 
" style="fill:none;stroke:#cccccc;stroke-linecap:round;stroke-width:0.8;"/>
     </g>
     <g id="text_3">
      <!-- 2020-07 -->
      <g style="fill:#262626;" transform="translate(192.855753 313.147188)scale(0.1 -0.1)">
       <defs>
        <path d="M 303 3981 
L 303 4522 
L 3269 4522 
L 3269 4084 
Q 2831 3619 2401 2847 
Q 1972 2075 1738 1259 
Q 1569 684 1522 0 
L 944 0 
Q 953 541 1156 1306 
Q 1359 2072 1739 2783 
Q 2119 3494 2547 3981 
L 303 3981 
z
" id="ArialMT-37" transform="scale(0.015625)"/>
       </defs>
       <use xlink:href="#ArialMT-32"/>
       <use x="55.615234" xlink:href="#ArialMT-30"/>
       <use x="111.230469" xlink:href="#ArialMT-32"/>
       <use x="166.845703" xlink:href="#ArialMT-30"/>
       <use x="222.460938" xlink:href="#ArialMT-2d"/>
       <use x="255.761719" xlink:href="#ArialMT-30"/>
       <use x="311.376953" xlink:href="#ArialMT-37"/>
      </g>
     </g>
    </g>
    <g id="xtick_4">
     <g id="line2d_4">
      <path clip-path="url(#p1200edc287)" d="M 272.630966 298.989375 
L 272.630966 21.789375 
" style="fill:none;stroke:#cccccc;stroke-linecap:round;stroke-width:0.8;"/>
     </g>
     <g id="text_4">
      <!-- 2020-09 -->
      <g style="fill:#262626;" transform="translate(254.28331 313.147188)scale(0.1 -0.1)">
       <defs>
        <path d="M 350 1059 
L 891 1109 
Q 959 728 1153 556 
Q 1347 384 1650 384 
Q 1909 384 2104 503 
Q 2300 622 2425 820 
Q 2550 1019 2634 1356 
Q 2719 1694 2719 2044 
Q 2719 2081 2716 2156 
Q 2547 1888 2255 1720 
Q 1963 1553 1622 1553 
Q 1053 1553 659 1965 
Q 266 2378 266 3053 
Q 266 3750 677 4175 
Q 1088 4600 1706 4600 
Q 2153 4600 2523 4359 
Q 2894 4119 3086 3673 
Q 3278 3228 3278 2384 
Q 3278 1506 3087 986 
Q 2897 466 2520 194 
Q 2144 -78 1638 -78 
Q 1100 -78 759 220 
Q 419 519 350 1059 
z
M 2653 3081 
Q 2653 3566 2395 3850 
Q 2138 4134 1775 4134 
Q 1400 4134 1122 3828 
Q 844 3522 844 3034 
Q 844 2597 1108 2323 
Q 1372 2050 1759 2050 
Q 2150 2050 2401 2323 
Q 2653 2597 2653 3081 
z
" id="ArialMT-39" transform="scale(0.015625)"/>
       </defs>
       <use xlink:href="#ArialMT-32"/>
       <use x="55.615234" xlink:href="#ArialMT-30"/>
       <use x="111.230469" xlink:href="#ArialMT-32"/>
       <use x="166.845703" xlink:href="#ArialMT-30"/>
       <use x="222.460938" xlink:href="#ArialMT-2d"/>
       <use x="255.761719" xlink:href="#ArialMT-30"/>
       <use x="311.376953" xlink:href="#ArialMT-39"/>
      </g>
     </g>
    </g>
    <g id="xtick_5">
     <g id="line2d_5">
      <path clip-path="url(#p1200edc287)" d="M 333.067756 298.989375 
L 333.067756 21.789375 
" style="fill:none;stroke:#cccccc;stroke-linecap:round;stroke-width:0.8;"/>
     </g>
     <g id="text_5">
      <!-- 2020-11 -->
      <g style="fill:#262626;" transform="translate(315.088849 313.147188)scale(0.1 -0.1)">
       <defs>
        <path d="M 2384 0 
L 1822 0 
L 1822 3584 
Q 1619 3391 1289 3197 
Q 959 3003 697 2906 
L 697 3450 
Q 1169 3672 1522 3987 
Q 1875 4303 2022 4600 
L 2384 4600 
L 2384 0 
z
" id="ArialMT-31" transform="scale(0.015625)"/>
       </defs>
       <use xlink:href="#ArialMT-32"/>
       <use x="55.615234" xlink:href="#ArialMT-30"/>
       <use x="111.230469" xlink:href="#ArialMT-32"/>
       <use x="166.845703" xlink:href="#ArialMT-30"/>
       <use x="222.460938" xlink:href="#ArialMT-2d"/>
       <use x="255.761719" xlink:href="#ArialMT-31"/>
       <use x="304.001953" xlink:href="#ArialMT-31"/>
      </g>
     </g>
    </g>
    <g id="xtick_6">
     <g id="line2d_6">
      <path clip-path="url(#p1200edc287)" d="M 393.504545 298.989375 
L 393.504545 21.789375 
" style="fill:none;stroke:#cccccc;stroke-linecap:round;stroke-width:0.8;"/>
     </g>
     <g id="text_6">
      <!-- 2021-01 -->
      <g style="fill:#262626;" transform="translate(375.156889 313.147188)scale(0.1 -0.1)">
       <use xlink:href="#ArialMT-32"/>
       <use x="55.615234" xlink:href="#ArialMT-30"/>
       <use x="111.230469" xlink:href="#ArialMT-32"/>
       <use x="166.845703" xlink:href="#ArialMT-31"/>
       <use x="222.460938" xlink:href="#ArialMT-2d"/>
       <use x="255.761719" xlink:href="#ArialMT-30"/>
       <use x="311.376953" xlink:href="#ArialMT-31"/>
      </g>
     </g>
    </g>
    <g id="xtick_7">
     <g id="line2d_7">
      <path clip-path="url(#p1200edc287)" d="M 451.959801 298.989375 
L 451.959801 21.789375 
" style="fill:none;stroke:#cccccc;stroke-linecap:round;stroke-width:0.8;"/>
     </g>
     <g id="text_7">
      <!-- 2021-03 -->
      <g style="fill:#262626;" transform="translate(433.612145 313.147188)scale(0.1 -0.1)">
       <use xlink:href="#ArialMT-32"/>
       <use x="55.615234" xlink:href="#ArialMT-30"/>
       <use x="111.230469" xlink:href="#ArialMT-32"/>
       <use x="166.845703" xlink:href="#ArialMT-31"/>
       <use x="222.460938" xlink:href="#ArialMT-2d"/>
       <use x="255.761719" xlink:href="#ArialMT-30"/>
       <use x="311.376953" xlink:href="#ArialMT-33"/>
      </g>
     </g>
    </g>
    <g id="xtick_8">
     <g id="line2d_8">
      <path clip-path="url(#p1200edc287)" d="M 512.396591 298.989375 
L 512.396591 21.789375 
" style="fill:none;stroke:#cccccc;stroke-linecap:round;stroke-width:0.8;"/>
     </g>
     <g id="text_8">
      <!-- 2021-05 -->
      <g style="fill:#262626;" transform="translate(494.048935 313.147188)scale(0.1 -0.1)">
       <use xlink:href="#ArialMT-32"/>
       <use x="55.615234" xlink:href="#ArialMT-30"/>
       <use x="111.230469" xlink:href="#ArialMT-32"/>
       <use x="166.845703" xlink:href="#ArialMT-31"/>
       <use x="222.460938" xlink:href="#ArialMT-2d"/>
       <use x="255.761719" xlink:href="#ArialMT-30"/>
       <use x="311.376953" xlink:href="#ArialMT-35"/>
      </g>
     </g>
    </g>
    <g id="xtick_9">
     <g id="line2d_9">
      <path clip-path="url(#p1200edc287)" d="M 572.833381 298.989375 
L 572.833381 21.789375 
" style="fill:none;stroke:#cccccc;stroke-linecap:round;stroke-width:0.8;"/>
     </g>
     <g id="text_9">
      <!-- 2021-07 -->
      <g style="fill:#262626;" transform="translate(554.485724 313.147188)scale(0.1 -0.1)">
       <use xlink:href="#ArialMT-32"/>
       <use x="55.615234" xlink:href="#ArialMT-30"/>
       <use x="111.230469" xlink:href="#ArialMT-32"/>
       <use x="166.845703" xlink:href="#ArialMT-31"/>
       <use x="222.460938" xlink:href="#ArialMT-2d"/>
       <use x="255.761719" xlink:href="#ArialMT-30"/>
       <use x="311.376953" xlink:href="#ArialMT-37"/>
      </g>
     </g>
    </g>
    <g id="xtick_10">
     <g id="line2d_10">
      <path clip-path="url(#p1200edc287)" d="M 634.260937 298.989375 
L 634.260937 21.789375 
" style="fill:none;stroke:#cccccc;stroke-linecap:round;stroke-width:0.8;"/>
     </g>
     <g id="text_10">
      <!-- 2021-09 -->
      <g style="fill:#262626;" transform="translate(615.913281 313.147188)scale(0.1 -0.1)">
       <use xlink:href="#ArialMT-32"/>
       <use x="55.615234" xlink:href="#ArialMT-30"/>
       <use x="111.230469" xlink:href="#ArialMT-32"/>
       <use x="166.845703" xlink:href="#ArialMT-31"/>
       <use x="222.460938" xlink:href="#ArialMT-2d"/>
       <use x="255.761719" xlink:href="#ArialMT-30"/>
       <use x="311.376953" xlink:href="#ArialMT-39"/>
      </g>
     </g>
    </g>
   </g>
   <g id="matplotlib.axis_2">
    <g id="ytick_1">
     <g id="line2d_11">
      <path clip-path="url(#p1200edc287)" d="M 82.8 286.389375 
L 640.8 286.389375 
" style="fill:none;stroke:#cccccc;stroke-linecap:round;stroke-width:0.8;"/>
     </g>
     <g id="text_11">
      <!-- 0 -->
      <g style="fill:#262626;" transform="translate(70.239063 289.968281)scale(0.1 -0.1)">
       <use xlink:href="#ArialMT-30"/>
      </g>
     </g>
    </g>
    <g id="ytick_2">
     <g id="line2d_12">
      <path clip-path="url(#p1200edc287)" d="M 82.8 248.664824 
L 640.8 248.664824 
" style="fill:none;stroke:#cccccc;stroke-linecap:round;stroke-width:0.8;"/>
     </g>
     <g id="text_12">
      <!-- 50 -->
      <g style="fill:#262626;" transform="translate(64.678125 252.24373)scale(0.1 -0.1)">
       <use xlink:href="#ArialMT-35"/>
       <use x="55.615234" xlink:href="#ArialMT-30"/>
      </g>
     </g>
    </g>
    <g id="ytick_3">
     <g id="line2d_13">
      <path clip-path="url(#p1200edc287)" d="M 82.8 210.940273 
L 640.8 210.940273 
" style="fill:none;stroke:#cccccc;stroke-linecap:round;stroke-width:0.8;"/>
     </g>
     <g id="text_13">
      <!-- 100 -->
      <g style="fill:#262626;" transform="translate(59.117188 214.519179)scale(0.1 -0.1)">
       <use xlink:href="#ArialMT-31"/>
       <use x="55.615234" xlink:href="#ArialMT-30"/>
       <use x="111.230469" xlink:href="#ArialMT-30"/>
      </g>
     </g>
    </g>
    <g id="ytick_4">
     <g id="line2d_14">
      <path clip-path="url(#p1200edc287)" d="M 82.8 173.215722 
L 640.8 173.215722 
" style="fill:none;stroke:#cccccc;stroke-linecap:round;stroke-width:0.8;"/>
     </g>
     <g id="text_14">
      <!-- 150 -->
      <g style="fill:#262626;" transform="translate(59.117188 176.794629)scale(0.1 -0.1)">
       <use xlink:href="#ArialMT-31"/>
       <use x="55.615234" xlink:href="#ArialMT-35"/>
       <use x="111.230469" xlink:href="#ArialMT-30"/>
      </g>
     </g>
    </g>
    <g id="ytick_5">
     <g id="line2d_15">
      <path clip-path="url(#p1200edc287)" d="M 82.8 135.491171 
L 640.8 135.491171 
" style="fill:none;stroke:#cccccc;stroke-linecap:round;stroke-width:0.8;"/>
     </g>
     <g id="text_15">
      <!-- 200 -->
      <g style="fill:#262626;" transform="translate(59.117188 139.070078)scale(0.1 -0.1)">
       <use xlink:href="#ArialMT-32"/>
       <use x="55.615234" xlink:href="#ArialMT-30"/>
       <use x="111.230469" xlink:href="#ArialMT-30"/>
      </g>
     </g>
    </g>
    <g id="ytick_6">
     <g id="line2d_16">
      <path clip-path="url(#p1200edc287)" d="M 82.8 97.766621 
L 640.8 97.766621 
" style="fill:none;stroke:#cccccc;stroke-linecap:round;stroke-width:0.8;"/>
     </g>
     <g id="text_16">
      <!-- 250 -->
      <g style="fill:#262626;" transform="translate(59.117188 101.345527)scale(0.1 -0.1)">
       <use xlink:href="#ArialMT-32"/>
       <use x="55.615234" xlink:href="#ArialMT-35"/>
       <use x="111.230469" xlink:href="#ArialMT-30"/>
      </g>
     </g>
    </g>
    <g id="ytick_7">
     <g id="line2d_17">
      <path clip-path="url(#p1200edc287)" d="M 82.8 60.04207 
L 640.8 60.04207 
" style="fill:none;stroke:#cccccc;stroke-linecap:round;stroke-width:0.8;"/>
     </g>
     <g id="text_17">
      <!-- 300 -->
      <g style="fill:#262626;" transform="translate(59.117188 63.620976)scale(0.1 -0.1)">
       <use xlink:href="#ArialMT-33"/>
       <use x="55.615234" xlink:href="#ArialMT-30"/>
       <use x="111.230469" xlink:href="#ArialMT-30"/>
      </g>
     </g>
    </g>
    <g id="ytick_8">
     <g id="line2d_18">
      <path clip-path="url(#p1200edc287)" d="M 82.8 22.317519 
L 640.8 22.317519 
" style="fill:none;stroke:#cccccc;stroke-linecap:round;stroke-width:0.8;"/>
     </g>
     <g id="text_18">
      <!-- 350 -->
      <g style="fill:#262626;" transform="translate(59.117188 25.896425)scale(0.1 -0.1)">
       <use xlink:href="#ArialMT-33"/>
       <use x="55.615234" xlink:href="#ArialMT-35"/>
       <use x="111.230469" xlink:href="#ArialMT-30"/>
      </g>
     </g>
    </g>
   </g>
   <g id="line2d_19">
    <path clip-path="url(#p1200edc287)" d="M 108.163636 278.089974 
L 109.154403 278.089974 
L 110.14517 276.580992 
L 111.135937 276.580992 
L 112.126705 269.036082 
L 113.117472 255.455243 
L 114.108239 254.700752 
L 115.099006 251.682788 
L 116.089773 247.155842 
L 117.08054 246.401351 
L 118.071307 246.401351 
L 119.062074 245.64686 
L 120.052841 242.628896 
L 121.043608 226.030094 
L 122.034375 224.521112 
L 123.025142 224.521112 
L 124.015909 201.886381 
L 125.006676 200.377399 
L 125.997443 213.958237 
L 126.98821 210.185782 
L 127.978977 204.149854 
L 128.969744 202.640872 
L 129.960511 199.622908 
L 130.951278 199.622908 
L 131.942045 198.113926 
L 132.932812 186.796561 
L 133.92358 185.287579 
L 134.914347 189.060034 
L 135.905114 176.233686 
L 136.895881 173.215722 
L 137.886648 170.952249 
L 138.877415 167.179794 
L 139.868182 176.988177 
L 140.858949 176.988177 
L 141.849716 173.970213 
L 142.840483 167.934285 
L 143.83125 142.281591 
L 144.822017 140.772609 
L 145.812784 176.233686 
L 146.803551 178.497159 
L 147.794318 181.515124 
L 148.785085 176.233686 
L 149.775852 181.515124 
L 150.766619 173.215722 
L 151.757386 168.688776 
L 152.748153 169.443267 
L 153.73892 167.179794 
L 154.729687 161.143866 
L 155.720455 158.125902 
L 156.711222 162.652848 
L 157.701989 165.670812 
L 158.692756 161.143866 
L 159.683523 158.125902 
L 160.67429 161.898357 
L 161.665057 146.054046 
L 162.655824 152.844465 
L 163.646591 149.826501 
L 164.637358 146.054046 
L 165.628125 152.089974 
L 166.618892 140.772609 
L 167.609659 139.263626 
L 168.600426 141.5271 
L 169.591193 133.982189 
L 170.58196 137.000153 
L 171.572727 139.263626 
L 172.563494 140.772609 
L 173.554261 138.509135 
L 174.545028 137.754644 
L 175.535795 133.227698 
L 176.526562 134.73668 
L 177.51733 135.491171 
L 178.508097 123.419315 
L 179.498864 122.664824 
L 180.489631 124.173806 
L 181.480398 129.455243 
L 182.471165 129.455243 
L 183.461932 128.700752 
L 184.452699 127.19177 
L 185.443466 122.664824 
L 186.434233 122.664824 
L 187.425 110.592968 
L 188.415767 115.874405 
L 189.406534 109.083986 
L 190.397301 114.365423 
L 191.388068 106.820513 
L 192.378835 109.838477 
L 193.369602 103.802549 
L 194.360369 112.856441 
L 195.351136 120.401351 
L 196.341903 122.664824 
L 197.33267 126.437279 
L 198.323437 130.964225 
L 199.314205 127.946261 
L 200.304972 122.664824 
L 201.295739 121.910333 
L 202.286506 118.892369 
L 203.277273 123.419315 
L 204.26804 135.491171 
L 205.258807 137.000153 
L 206.249574 131.718716 
L 207.240341 134.73668 
L 208.231108 141.5271 
L 209.221875 144.545064 
L 210.212642 150.580992 
L 211.203409 150.580992 
L 212.194176 156.61692 
L 213.184943 149.07201 
L 214.17571 152.844465 
L 215.166477 154.353447 
L 216.157244 157.371411 
L 217.148011 148.317519 
L 218.138778 164.916321 
L 219.129545 162.652848 
L 220.120312 161.898357 
L 221.11108 166.425303 
L 222.101847 171.70674 
L 223.092614 170.197758 
L 224.083381 149.826501 
L 225.074148 161.898357 
L 226.064915 153.598956 
L 227.055682 148.317519 
L 228.046449 156.61692 
L 229.037216 154.353447 
L 231.01875 158.880393 
L 232.009517 154.353447 
L 233.000284 157.371411 
L 233.991051 152.844465 
L 234.981818 154.353447 
L 236.963352 158.880393 
L 237.954119 163.407339 
L 238.944886 170.952249 
L 239.935653 173.215722 
L 240.92642 173.970213 
L 241.917187 177.742668 
L 242.907955 180.006141 
L 243.898722 177.742668 
L 244.889489 184.533088 
L 245.880256 188.305543 
L 246.871023 196.604944 
L 247.86179 194.341471 
L 248.852557 195.850453 
L 249.843324 208.6768 
L 250.834091 203.395363 
L 251.824858 207.167818 
L 252.815625 211.694764 
L 253.806392 208.6768 
L 254.797159 207.922309 
L 255.787926 204.904345 
L 256.778693 203.395363 
L 257.76946 202.640872 
L 258.760227 189.814525 
L 259.750994 198.113926 
L 261.732528 207.167818 
L 262.723295 204.904345 
L 263.714062 214.712728 
L 264.70483 215.467219 
L 265.695597 213.203746 
L 266.686364 215.467219 
L 267.677131 219.239674 
L 268.667898 213.203746 
L 269.658665 221.503147 
L 270.649432 207.167818 
L 271.640199 197.359435 
L 272.630966 195.850453 
L 273.621733 199.622908 
L 274.6125 201.13189 
L 275.603267 201.13189 
L 276.594034 203.395363 
L 277.584801 203.395363 
L 278.575568 211.694764 
L 279.566335 210.185782 
L 280.557102 200.377399 
L 281.547869 203.395363 
L 282.538636 200.377399 
L 283.529403 199.622908 
L 284.52017 200.377399 
L 285.510937 203.395363 
L 287.492472 212.449255 
L 288.483239 213.203746 
L 289.474006 210.940273 
L 290.464773 209.431291 
L 292.446307 210.940273 
L 293.437074 217.730692 
L 294.427841 217.730692 
L 295.418608 231.311531 
L 296.409375 229.048058 
L 297.400142 227.539076 
L 298.390909 223.012129 
L 299.381676 221.503147 
L 300.372443 222.257638 
L 301.36321 219.239674 
L 302.353977 223.012129 
L 303.344744 222.257638 
L 304.335511 217.730692 
L 305.326278 219.239674 
L 306.317045 219.994165 
L 307.307812 214.712728 
L 308.29858 210.940273 
L 309.289347 213.203746 
L 310.280114 210.185782 
L 311.270881 212.449255 
L 312.261648 209.431291 
L 313.252415 214.712728 
L 314.243182 215.467219 
L 315.233949 214.712728 
L 316.224716 212.449255 
L 317.215483 213.958237 
L 318.20625 216.976201 
L 319.197017 216.22171 
L 320.187784 216.22171 
L 321.178551 213.203746 
L 322.169318 207.167818 
L 323.160085 204.904345 
L 324.150852 205.658836 
L 325.141619 207.922309 
L 326.132386 204.149854 
L 327.123153 204.149854 
L 328.11392 201.886381 
L 329.104687 195.095962 
L 330.095455 196.604944 
L 331.086222 193.58698 
L 332.076989 193.58698 
L 333.067756 190.569016 
L 334.058523 186.796561 
L 335.04929 180.760632 
L 336.040057 189.060034 
L 337.030824 194.341471 
L 338.021591 189.060034 
L 339.012358 183.024106 
L 340.003125 186.04207 
L 340.993892 179.25165 
L 341.984659 174.724704 
L 342.975426 164.916321 
L 343.966193 166.425303 
L 344.95696 169.443267 
L 345.947727 173.970213 
L 346.938494 173.215722 
L 347.929261 168.688776 
L 348.920028 169.443267 
L 349.910795 153.598956 
L 350.901562 149.826501 
L 351.89233 152.089974 
L 352.883097 138.509135 
L 353.873864 139.263626 
L 354.864631 143.790573 
L 355.855398 137.754644 
L 356.846165 132.473207 
L 357.836932 132.473207 
L 358.827699 134.73668 
L 359.818466 127.946261 
L 360.809233 138.509135 
L 361.8 142.281591 
L 362.790767 147.563028 
L 363.781534 140.018118 
L 364.772301 141.5271 
L 365.763068 149.07201 
L 366.753835 145.299555 
L 367.744602 155.862429 
L 368.735369 164.916321 
L 369.726136 155.862429 
L 370.716903 142.281591 
L 371.70767 154.353447 
L 372.698437 150.580992 
L 373.689205 149.07201 
L 374.679972 155.862429 
L 377.652273 171.70674 
L 378.64304 170.197758 
L 379.633807 169.443267 
L 380.624574 174.724704 
L 381.615341 178.497159 
L 382.606108 173.970213 
L 383.596875 170.952249 
L 384.587642 170.952249 
L 385.578409 175.479195 
L 386.569176 182.269615 
L 387.559943 184.533088 
L 388.55071 178.497159 
L 389.541477 177.742668 
L 390.532244 173.215722 
L 391.523011 175.479195 
L 392.513778 173.970213 
L 393.504545 183.778597 
L 394.495312 180.760632 
L 395.48608 187.551052 
L 396.476847 197.359435 
L 397.467614 195.850453 
L 398.458381 195.095962 
L 399.449148 196.604944 
L 400.439915 192.832489 
L 402.421449 194.341471 
L 403.412216 184.533088 
L 404.402983 187.551052 
L 405.39375 179.25165 
L 406.384517 180.006141 
L 407.375284 176.233686 
L 409.356818 185.287579 
L 410.347585 178.497159 
L 411.338352 181.515124 
L 412.329119 187.551052 
L 413.319886 195.850453 
L 414.310653 189.060034 
L 415.30142 192.832489 
L 416.292187 189.814525 
L 417.282955 199.622908 
L 418.273722 204.149854 
L 419.264489 195.095962 
L 420.255256 201.13189 
L 421.246023 196.604944 
L 422.23679 201.886381 
L 423.227557 204.149854 
L 424.218324 195.095962 
L 425.209091 194.341471 
L 426.199858 191.323507 
L 427.190625 196.604944 
L 428.181392 195.850453 
L 429.172159 196.604944 
L 430.162926 200.377399 
L 431.153693 203.395363 
L 432.14446 210.185782 
L 433.135227 210.940273 
L 434.125994 209.431291 
L 435.116761 206.413327 
L 436.107528 216.976201 
L 437.098295 216.22171 
L 438.089062 206.413327 
L 439.07983 203.395363 
L 440.070597 214.712728 
L 441.061364 214.712728 
L 442.052131 211.694764 
L 443.042898 213.958237 
L 444.033665 209.431291 
L 445.024432 202.640872 
L 446.015199 198.113926 
L 447.005966 201.13189 
L 447.996733 191.323507 
L 448.9875 192.077998 
L 449.978267 205.658836 
L 450.969034 189.060034 
L 451.959801 180.760632 
L 452.950568 186.796561 
L 453.941335 178.497159 
L 454.932102 180.006141 
L 455.922869 177.742668 
L 456.913636 186.796561 
L 457.904403 183.778597 
L 458.89517 173.970213 
L 459.885937 169.443267 
L 461.867472 161.898357 
L 463.849006 148.317519 
L 464.839773 139.263626 
L 465.83054 133.982189 
L 466.821307 118.892369 
L 467.812074 115.874405 
L 468.802841 112.10195 
L 469.793608 106.820513 
L 470.784375 95.503147 
L 471.775142 81.922309 
L 472.765909 74.377399 
L 473.756676 64.569016 
L 474.747443 57.778597 
L 475.73821 39.670812 
L 476.728977 49.479195 
L 477.719744 40.425303 
L 478.710511 44.197758 
L 479.701278 44.197758 
L 480.692045 34.389375 
L 481.682812 35.898357 
L 482.67358 41.179794 
L 483.664347 37.407339 
L 484.655114 42.688776 
L 485.645881 44.197758 
L 486.636648 41.179794 
L 487.627415 45.70674 
L 488.618182 46.461231 
L 489.608949 56.269615 
L 490.599716 55.515124 
L 491.590483 81.922309 
L 492.58125 87.958237 
L 493.572017 78.904345 
L 494.562784 87.203746 
L 495.553551 84.940273 
L 496.544318 81.922309 
L 497.535085 91.730692 
L 498.525852 78.904345 
L 499.516619 97.012129 
L 500.507386 89.467219 
L 501.498153 90.976201 
L 502.48892 99.275603 
L 503.479687 109.083986 
L 504.470455 109.838477 
L 505.461222 118.892369 
L 506.451989 125.682788 
L 507.442756 122.664824 
L 508.433523 127.19177 
L 509.42429 136.245662 
L 510.415057 133.227698 
L 511.405824 128.700752 
L 512.396591 113.610932 
L 513.387358 121.910333 
L 514.378125 124.173806 
L 515.368892 130.209734 
L 516.359659 118.892369 
L 517.350426 110.592968 
L 518.341193 123.419315 
L 519.33196 133.227698 
L 520.322727 118.137878 
L 521.313494 121.155842 
L 522.304261 115.874405 
L 523.295028 121.155842 
L 524.285795 122.664824 
L 525.276562 127.946261 
L 526.26733 121.155842 
L 527.258097 112.10195 
L 528.248864 109.838477 
L 529.239631 105.311531 
L 530.230398 107.575004 
L 531.221165 111.347459 
L 532.211932 100.030094 
L 533.202699 98.521112 
L 534.193466 97.766621 
L 535.184233 100.030094 
L 536.175 94.748656 
L 537.165767 90.22171 
L 538.156534 80.413327 
L 539.147301 78.149854 
L 540.138068 68.341471 
L 541.128835 78.149854 
L 542.119602 74.377399 
L 543.110369 90.976201 
L 544.101136 92.485183 
L 545.091903 94.748656 
L 546.08267 93.239674 
L 547.073437 97.766621 
L 548.064205 93.239674 
L 549.054972 92.485183 
L 550.045739 92.485183 
L 551.036506 105.311531 
L 552.027273 112.856441 
L 553.01804 109.083986 
L 554.008807 115.119914 
L 554.999574 111.347459 
L 555.990341 115.874405 
L 556.981108 119.64686 
L 557.971875 117.383387 
L 558.962642 124.173806 
L 559.953409 124.173806 
L 560.944176 134.73668 
L 561.934943 140.018118 
L 562.92571 135.491171 
L 564.907244 148.317519 
L 565.898011 152.089974 
L 566.888778 158.880393 
L 567.879545 158.880393 
L 568.870312 167.934285 
L 569.86108 170.952249 
L 570.851847 176.988177 
L 571.842614 182.269615 
L 572.833381 188.305543 
L 573.824148 184.533088 
L 574.814915 192.832489 
L 575.805682 197.359435 
L 576.796449 191.323507 
L 577.787216 194.341471 
L 578.777983 192.832489 
L 580.759517 200.377399 
L 581.750284 199.622908 
L 582.741051 192.077998 
L 583.731818 195.095962 
L 584.722585 179.25165 
L 585.713352 182.269615 
L 586.704119 191.323507 
L 587.694886 186.796561 
L 588.685653 191.323507 
L 589.67642 196.604944 
L 590.667187 192.077998 
L 591.657955 200.377399 
L 592.648722 200.377399 
L 593.639489 204.904345 
L 594.630256 204.149854 
L 595.621023 211.694764 
L 596.61179 212.449255 
L 597.602557 219.239674 
L 598.593324 222.257638 
L 599.584091 214.712728 
L 600.574858 225.275603 
L 601.565625 225.275603 
L 602.556392 216.976201 
L 604.537926 219.994165 
L 605.528693 217.730692 
L 606.51946 216.976201 
L 607.510227 216.976201 
L 608.500994 214.712728 
L 609.491761 215.467219 
L 610.482528 211.694764 
L 611.473295 211.694764 
L 612.464062 212.449255 
L 613.45483 210.940273 
L 614.445597 220.748656 
L 615.436364 216.976201 
L 615.436364 216.976201 
" style="fill:none;stroke:#1f77b4;stroke-linecap:round;stroke-width:1.5;"/>
   </g>
   <g id="line2d_20">
    <path clip-path="url(#p1200edc287)" d="M 108.163636 286.389375 
L 109.154403 286.389375 
L 110.14517 281.107938 
L 111.135937 281.107938 
L 112.126705 279.598956 
L 113.117472 272.054046 
L 114.108239 272.808537 
L 115.099006 269.790573 
L 119.062074 269.790573 
L 120.052841 270.545064 
L 121.043608 267.5271 
L 122.034375 269.036082 
L 123.025142 268.281591 
L 124.015909 265.263626 
L 125.006676 265.263626 
L 125.997443 261.491171 
L 126.98821 258.473207 
L 127.978977 258.473207 
L 128.969744 262.245662 
L 130.951278 262.245662 
L 131.942045 261.491171 
L 132.932812 257.718716 
L 133.92358 259.982189 
L 134.914347 264.509135 
L 135.905114 258.473207 
L 136.895881 253.19177 
L 137.886648 252.437279 
L 138.877415 245.64686 
L 139.868182 250.173806 
L 140.858949 248.664824 
L 141.849716 245.64686 
L 142.840483 238.856441 
L 143.83125 235.083986 
L 144.822017 232.820513 
L 145.812784 238.856441 
L 146.803551 238.856441 
L 148.785085 241.874405 
L 149.775852 238.856441 
L 150.766619 233.575004 
L 151.757386 231.311531 
L 152.748153 229.802549 
L 153.73892 230.55704 
L 154.729687 225.275603 
L 155.720455 225.275603 
L 156.711222 232.820513 
L 157.701989 234.329495 
L 158.692756 229.048058 
L 159.683523 229.048058 
L 161.665057 232.066022 
L 162.655824 236.592968 
L 163.646591 233.575004 
L 164.637358 231.311531 
L 165.628125 235.838477 
L 166.618892 229.048058 
L 167.609659 229.048058 
L 168.600426 227.539076 
L 169.591193 230.55704 
L 170.58196 226.030094 
L 171.572727 226.030094 
L 172.563494 222.257638 
L 173.554261 223.012129 
L 175.535795 221.503147 
L 176.526562 228.293567 
L 177.51733 230.55704 
L 178.508097 225.275603 
L 179.498864 229.048058 
L 180.489631 225.275603 
L 181.480398 220.748656 
L 182.471165 219.239674 
L 183.461932 218.485183 
L 184.452699 221.503147 
L 185.443466 219.239674 
L 186.434233 219.239674 
L 187.425 214.712728 
L 188.415767 216.976201 
L 189.406534 215.467219 
L 190.397301 215.467219 
L 191.388068 207.922309 
L 192.378835 211.694764 
L 193.369602 216.976201 
L 194.360369 219.239674 
L 195.351136 212.449255 
L 196.341903 216.976201 
L 197.33267 223.012129 
L 198.323437 225.275603 
L 200.304972 223.766621 
L 201.295739 219.239674 
L 202.286506 221.503147 
L 203.277273 219.994165 
L 204.26804 223.012129 
L 205.258807 222.257638 
L 206.249574 223.012129 
L 207.240341 227.539076 
L 208.231108 234.329495 
L 209.221875 233.575004 
L 210.212642 230.55704 
L 211.203409 231.311531 
L 212.194176 234.329495 
L 213.184943 232.066022 
L 214.17571 230.55704 
L 215.166477 231.311531 
L 216.157244 231.311531 
L 217.148011 229.802549 
L 218.138778 236.592968 
L 219.129545 236.592968 
L 220.120312 235.838477 
L 221.11108 238.856441 
L 222.101847 240.365423 
L 223.092614 236.592968 
L 224.083381 231.311531 
L 225.074148 233.575004 
L 226.064915 227.539076 
L 227.055682 230.55704 
L 228.046449 236.592968 
L 229.037216 238.856441 
L 230.027983 237.347459 
L 231.01875 237.347459 
L 232.009517 238.856441 
L 233.000284 233.575004 
L 233.991051 235.083986 
L 234.981818 237.347459 
L 235.972585 237.347459 
L 236.963352 233.575004 
L 237.954119 233.575004 
L 238.944886 238.10195 
L 239.935653 238.10195 
L 240.92642 238.856441 
L 241.917187 241.874405 
L 242.907955 243.383387 
L 243.898722 244.137878 
L 244.889489 246.401351 
L 245.880256 250.173806 
L 246.871023 249.419315 
L 247.86179 246.401351 
L 248.852557 247.155842 
L 249.843324 252.437279 
L 250.834091 252.437279 
L 251.824858 251.682788 
L 252.815625 255.455243 
L 253.806392 254.700752 
L 254.797159 253.19177 
L 255.787926 250.173806 
L 256.778693 251.682788 
L 257.76946 251.682788 
L 258.760227 248.664824 
L 259.750994 253.946261 
L 260.741761 253.946261 
L 261.732528 258.473207 
L 262.723295 256.209734 
L 263.714062 259.227698 
L 264.70483 259.227698 
L 265.695597 259.982189 
L 266.686364 256.964225 
L 268.667898 256.964225 
L 269.658665 260.73668 
L 270.649432 254.700752 
L 271.640199 256.209734 
L 272.630966 252.437279 
L 273.621733 253.946261 
L 274.6125 253.19177 
L 275.603267 253.946261 
L 276.594034 251.682788 
L 277.584801 253.946261 
L 278.575568 255.455243 
L 279.566335 254.700752 
L 280.557102 250.173806 
L 281.547869 251.682788 
L 282.538636 247.910333 
L 283.529403 248.664824 
L 284.52017 253.19177 
L 285.510937 259.227698 
L 286.501705 255.455243 
L 287.492472 255.455243 
L 288.483239 256.209734 
L 289.474006 254.700752 
L 291.45554 256.209734 
L 292.446307 255.455243 
L 293.437074 256.964225 
L 294.427841 262.245662 
L 295.418608 261.491171 
L 296.409375 256.964225 
L 297.400142 257.718716 
L 298.390909 256.964225 
L 299.381676 254.700752 
L 300.372443 253.19177 
L 301.36321 253.19177 
L 302.353977 256.209734 
L 303.344744 257.718716 
L 304.335511 256.964225 
L 306.317045 256.964225 
L 307.307812 256.209734 
L 308.29858 254.700752 
L 309.289347 256.209734 
L 310.280114 256.964225 
L 311.270881 255.455243 
L 312.261648 254.700752 
L 313.252415 258.473207 
L 314.243182 261.491171 
L 315.233949 259.227698 
L 316.224716 261.491171 
L 317.215483 261.491171 
L 318.20625 259.982189 
L 319.197017 262.245662 
L 320.187784 258.473207 
L 321.178551 256.209734 
L 322.169318 255.455243 
L 323.160085 252.437279 
L 326.132386 252.437279 
L 328.11392 249.419315 
L 329.104687 246.401351 
L 330.095455 251.682788 
L 331.086222 251.682788 
L 332.076989 250.928297 
L 333.067756 249.419315 
L 334.058523 246.401351 
L 335.04929 247.155842 
L 337.030824 245.64686 
L 338.021591 244.137878 
L 339.012358 241.874405 
L 340.003125 244.892369 
L 340.993892 235.838477 
L 341.984659 233.575004 
L 342.975426 235.083986 
L 343.966193 234.329495 
L 344.95696 226.784585 
L 345.947727 234.329495 
L 346.938494 233.575004 
L 347.929261 235.838477 
L 348.920028 235.083986 
L 349.910795 227.539076 
L 350.901562 226.030094 
L 351.89233 226.030094 
L 352.883097 216.22171 
L 353.873864 219.994165 
L 354.864631 225.275603 
L 355.855398 221.503147 
L 356.846165 222.257638 
L 357.836932 222.257638 
L 358.827699 223.766621 
L 359.818466 223.012129 
L 360.809233 228.293567 
L 361.8 229.048058 
L 362.790767 223.766621 
L 363.781534 220.748656 
L 364.772301 222.257638 
L 365.763068 226.784585 
L 366.753835 228.293567 
L 367.744602 226.784585 
L 368.735369 235.083986 
L 369.726136 229.048058 
L 370.716903 229.048058 
L 371.70767 225.275603 
L 372.698437 220.748656 
L 373.689205 223.766621 
L 374.679972 223.766621 
L 375.670739 229.048058 
L 376.661506 231.311531 
L 377.652273 229.048058 
L 378.64304 228.293567 
L 379.633807 231.311531 
L 380.624574 235.838477 
L 381.615341 232.820513 
L 382.606108 230.55704 
L 383.596875 232.066022 
L 384.587642 226.784585 
L 385.578409 232.066022 
L 386.569176 235.083986 
L 387.559943 235.083986 
L 388.55071 226.784585 
L 389.541477 235.083986 
L 390.532244 235.083986 
L 391.523011 238.856441 
L 392.513778 236.592968 
L 393.504545 235.083986 
L 394.495312 236.592968 
L 395.48608 237.347459 
L 396.476847 239.610932 
L 397.467614 241.119914 
L 398.458381 241.874405 
L 399.449148 243.383387 
L 400.439915 241.874405 
L 401.430682 238.856441 
L 402.421449 237.347459 
L 403.412216 232.820513 
L 404.402983 233.575004 
L 405.39375 228.293567 
L 406.384517 226.784585 
L 407.375284 223.766621 
L 408.366051 225.275603 
L 409.356818 227.539076 
L 411.338352 230.55704 
L 412.329119 231.311531 
L 413.319886 233.575004 
L 414.310653 232.066022 
L 415.30142 234.329495 
L 416.292187 229.048058 
L 417.282955 229.802549 
L 418.273722 232.066022 
L 419.264489 231.311531 
L 420.255256 236.592968 
L 423.227557 238.856441 
L 424.218324 235.838477 
L 425.209091 231.311531 
L 426.199858 235.838477 
L 427.190625 232.820513 
L 428.181392 236.592968 
L 429.172159 238.10195 
L 430.162926 242.628896 
L 431.153693 245.64686 
L 432.14446 247.155842 
L 433.135227 244.892369 
L 434.125994 245.64686 
L 435.116761 243.383387 
L 436.107528 250.928297 
L 437.098295 251.682788 
L 438.089062 240.365423 
L 439.07983 244.137878 
L 440.070597 242.628896 
L 441.061364 243.383387 
L 442.052131 239.610932 
L 443.042898 242.628896 
L 444.033665 244.137878 
L 445.024432 241.874405 
L 446.015199 243.383387 
L 447.005966 248.664824 
L 448.9875 239.610932 
L 449.978267 244.892369 
L 450.969034 240.365423 
L 451.959801 237.347459 
L 452.950568 239.610932 
L 453.941335 236.592968 
L 454.932102 236.592968 
L 455.922869 237.347459 
L 456.913636 243.383387 
L 457.904403 233.575004 
L 458.89517 236.592968 
L 459.885937 238.856441 
L 460.876705 232.066022 
L 461.867472 229.048058 
L 462.858239 223.766621 
L 463.849006 211.694764 
L 464.839773 204.904345 
L 465.83054 213.958237 
L 466.821307 201.886381 
L 467.812074 196.604944 
L 468.802841 198.113926 
L 469.793608 186.796561 
L 470.784375 190.569016 
L 471.775142 186.04207 
L 472.765909 187.551052 
L 473.756676 180.760632 
L 474.747443 177.742668 
L 475.73821 165.670812 
L 476.728977 163.407339 
L 477.719744 155.862429 
L 478.710511 151.335483 
L 479.701278 154.353447 
L 480.692045 152.089974 
L 481.682812 150.580992 
L 482.67358 147.563028 
L 484.655114 146.054046 
L 485.645881 149.07201 
L 486.636648 146.808537 
L 487.627415 146.054046 
L 489.608949 143.036082 
L 490.599716 144.545064 
L 491.590483 153.598956 
L 492.58125 153.598956 
L 494.562784 165.670812 
L 495.553551 162.652848 
L 496.544318 158.880393 
L 497.535085 168.688776 
L 498.525852 163.407339 
L 499.516619 172.461231 
L 501.498153 175.479195 
L 502.48892 180.760632 
L 503.479687 189.060034 
L 504.470455 189.814525 
L 505.461222 194.341471 
L 507.442756 192.832489 
L 508.433523 197.359435 
L 509.42429 202.640872 
L 510.415057 198.113926 
L 511.405824 202.640872 
L 512.396591 183.024106 
L 513.387358 198.868417 
L 514.378125 205.658836 
L 515.368892 208.6768 
L 516.359659 198.868417 
L 517.350426 197.359435 
L 518.341193 204.149854 
L 519.33196 200.377399 
L 520.322727 182.269615 
L 521.313494 194.341471 
L 522.304261 192.832489 
L 523.295028 193.58698 
L 524.285795 199.622908 
L 525.276562 204.904345 
L 526.26733 198.868417 
L 527.258097 198.113926 
L 528.248864 194.341471 
L 529.239631 189.814525 
L 530.230398 191.323507 
L 531.221165 195.850453 
L 532.211932 193.58698 
L 533.202699 183.778597 
L 534.193466 183.778597 
L 535.184233 186.04207 
L 536.175 186.796561 
L 537.165767 183.024106 
L 538.156534 180.760632 
L 539.147301 176.233686 
L 540.138068 174.724704 
L 541.128835 179.25165 
L 542.119602 167.934285 
L 543.110369 176.988177 
L 544.101136 178.497159 
L 545.091903 173.970213 
L 546.08267 168.688776 
L 547.073437 178.497159 
L 548.064205 180.760632 
L 549.054972 181.515124 
L 550.045739 183.778597 
L 551.036506 192.077998 
L 552.027273 195.850453 
L 553.01804 193.58698 
L 554.008807 198.868417 
L 554.999574 197.359435 
L 555.990341 198.868417 
L 556.981108 201.13189 
L 557.971875 200.377399 
L 558.962642 210.185782 
L 559.953409 207.922309 
L 560.944176 208.6768 
L 561.934943 211.694764 
L 562.92571 203.395363 
L 563.916477 204.904345 
L 564.907244 207.922309 
L 565.898011 213.958237 
L 566.888778 222.257638 
L 567.879545 226.030094 
L 568.870312 219.239674 
L 569.86108 219.994165 
L 570.851847 223.766621 
L 571.842614 225.275603 
L 572.833381 227.539076 
L 573.824148 222.257638 
L 574.814915 226.784585 
L 575.805682 230.55704 
L 576.796449 229.048058 
L 577.787216 228.293567 
L 579.76875 234.329495 
L 581.750284 237.347459 
L 582.741051 232.820513 
L 583.731818 235.838477 
L 584.722585 229.802549 
L 585.713352 226.784585 
L 586.704119 229.048058 
L 587.694886 228.293567 
L 588.685653 224.521112 
L 589.67642 229.802549 
L 590.667187 230.55704 
L 591.657955 234.329495 
L 594.630256 241.119914 
L 595.621023 242.628896 
L 596.61179 246.401351 
L 597.602557 244.137878 
L 598.593324 245.64686 
L 599.584091 240.365423 
L 600.574858 247.910333 
L 601.565625 247.910333 
L 602.556392 250.173806 
L 603.547159 247.155842 
L 605.528693 247.155842 
L 606.51946 245.64686 
L 607.510227 245.64686 
L 608.500994 242.628896 
L 609.491761 246.401351 
L 610.482528 247.155842 
L 611.473295 246.401351 
L 612.464062 241.874405 
L 613.45483 244.137878 
L 614.445597 245.64686 
L 615.436364 244.137878 
L 615.436364 244.137878 
" style="fill:none;stroke:#ff7f0e;stroke-linecap:round;stroke-width:1.5;"/>
   </g>
   <g id="patch_3">
    <path d="M 82.8 298.989375 
L 82.8 21.789375 
" style="fill:none;stroke:#cccccc;stroke-linecap:square;stroke-linejoin:miter;stroke-width:0.8;"/>
   </g>
   <g id="patch_4">
    <path d="M 640.8 298.989375 
L 640.8 21.789375 
" style="fill:none;stroke:#cccccc;stroke-linecap:square;stroke-linejoin:miter;stroke-width:0.8;"/>
   </g>
   <g id="patch_5">
    <path d="M 82.8 298.989375 
L 640.8 298.989375 
" style="fill:none;stroke:#cccccc;stroke-linecap:square;stroke-linejoin:miter;stroke-width:0.8;"/>
   </g>
   <g id="patch_6">
    <path d="M 82.8 21.789375 
L 640.8 21.789375 
" style="fill:none;stroke:#cccccc;stroke-linecap:square;stroke-linejoin:miter;stroke-width:0.8;"/>
   </g>
   <g id="text_19">
    <!-- Internações -->
    <g style="fill:#262626;" transform="translate(330.449063 15.789375)scale(0.12 -0.12)">
     <defs>
      <path d="M 597 0 
L 597 4581 
L 1203 4581 
L 1203 0 
L 597 0 
z
" id="ArialMT-49" transform="scale(0.015625)"/>
      <path d="M 422 0 
L 422 3319 
L 928 3319 
L 928 2847 
Q 1294 3394 1984 3394 
Q 2284 3394 2536 3286 
Q 2788 3178 2913 3003 
Q 3038 2828 3088 2588 
Q 3119 2431 3119 2041 
L 3119 0 
L 2556 0 
L 2556 2019 
Q 2556 2363 2490 2533 
Q 2425 2703 2258 2804 
Q 2091 2906 1866 2906 
Q 1506 2906 1245 2678 
Q 984 2450 984 1813 
L 984 0 
L 422 0 
z
" id="ArialMT-6e" transform="scale(0.015625)"/>
      <path d="M 1650 503 
L 1731 6 
Q 1494 -44 1306 -44 
Q 1000 -44 831 53 
Q 663 150 594 308 
Q 525 466 525 972 
L 525 2881 
L 113 2881 
L 113 3319 
L 525 3319 
L 525 4141 
L 1084 4478 
L 1084 3319 
L 1650 3319 
L 1650 2881 
L 1084 2881 
L 1084 941 
Q 1084 700 1114 631 
Q 1144 563 1211 522 
Q 1278 481 1403 481 
Q 1497 481 1650 503 
z
" id="ArialMT-74" transform="scale(0.015625)"/>
      <path d="M 2694 1069 
L 3275 997 
Q 3138 488 2766 206 
Q 2394 -75 1816 -75 
Q 1088 -75 661 373 
Q 234 822 234 1631 
Q 234 2469 665 2931 
Q 1097 3394 1784 3394 
Q 2450 3394 2872 2941 
Q 3294 2488 3294 1666 
Q 3294 1616 3291 1516 
L 816 1516 
Q 847 969 1125 678 
Q 1403 388 1819 388 
Q 2128 388 2347 550 
Q 2566 713 2694 1069 
z
M 847 1978 
L 2700 1978 
Q 2663 2397 2488 2606 
Q 2219 2931 1791 2931 
Q 1403 2931 1139 2672 
Q 875 2413 847 1978 
z
" id="ArialMT-65" transform="scale(0.015625)"/>
      <path d="M 416 0 
L 416 3319 
L 922 3319 
L 922 2816 
Q 1116 3169 1280 3281 
Q 1444 3394 1641 3394 
Q 1925 3394 2219 3213 
L 2025 2691 
Q 1819 2813 1613 2813 
Q 1428 2813 1281 2702 
Q 1134 2591 1072 2394 
Q 978 2094 978 1738 
L 978 0 
L 416 0 
z
" id="ArialMT-72" transform="scale(0.015625)"/>
      <path d="M 2588 409 
Q 2275 144 1986 34 
Q 1697 -75 1366 -75 
Q 819 -75 525 192 
Q 231 459 231 875 
Q 231 1119 342 1320 
Q 453 1522 633 1644 
Q 813 1766 1038 1828 
Q 1203 1872 1538 1913 
Q 2219 1994 2541 2106 
Q 2544 2222 2544 2253 
Q 2544 2597 2384 2738 
Q 2169 2928 1744 2928 
Q 1347 2928 1158 2789 
Q 969 2650 878 2297 
L 328 2372 
Q 403 2725 575 2942 
Q 747 3159 1072 3276 
Q 1397 3394 1825 3394 
Q 2250 3394 2515 3294 
Q 2781 3194 2906 3042 
Q 3031 2891 3081 2659 
Q 3109 2516 3109 2141 
L 3109 1391 
Q 3109 606 3145 398 
Q 3181 191 3288 0 
L 2700 0 
Q 2613 175 2588 409 
z
M 2541 1666 
Q 2234 1541 1622 1453 
Q 1275 1403 1131 1340 
Q 988 1278 909 1158 
Q 831 1038 831 891 
Q 831 666 1001 516 
Q 1172 366 1500 366 
Q 1825 366 2078 508 
Q 2331 650 2450 897 
Q 2541 1088 2541 1459 
L 2541 1666 
z
" id="ArialMT-61" transform="scale(0.015625)"/>
      <path d="M 2588 1216 
L 3141 1144 
Q 3050 572 2676 248 
Q 2303 -75 1759 -75 
Q 1078 -75 664 370 
Q 250 816 250 1647 
Q 250 2184 428 2587 
Q 606 2991 970 3192 
Q 1334 3394 1763 3394 
Q 2303 3394 2647 3120 
Q 2991 2847 3088 2344 
L 2541 2259 
Q 2463 2594 2264 2762 
Q 2066 2931 1784 2931 
Q 1359 2931 1093 2626 
Q 828 2322 828 1663 
Q 828 994 1084 691 
Q 1341 388 1753 388 
Q 2084 388 2306 591 
Q 2528 794 2588 1216 
z
M 1283 -417 
L 1446 136 
L 1864 136 
L 1761 -199 
Q 2027 -230 2161 -362 
Q 2296 -495 2296 -658 
Q 2296 -892 2071 -1072 
Q 1846 -1252 1392 -1252 
Q 1136 -1252 942 -1214 
L 977 -849 
Q 1177 -861 1271 -861 
Q 1564 -861 1683 -780 
Q 1774 -717 1774 -627 
Q 1774 -570 1738 -526 
Q 1702 -483 1605 -451 
Q 1508 -420 1283 -417 
z
" id="ArialMT-e7" transform="scale(0.015625)"/>
      <path d="M 213 1659 
Q 213 2581 725 3025 
Q 1153 3394 1769 3394 
Q 2453 3394 2887 2945 
Q 3322 2497 3322 1706 
Q 3322 1066 3130 698 
Q 2938 331 2570 128 
Q 2203 -75 1769 -75 
Q 1072 -75 642 372 
Q 213 819 213 1659 
z
M 791 1659 
Q 791 1022 1069 705 
Q 1347 388 1769 388 
Q 2188 388 2466 706 
Q 2744 1025 2744 1678 
Q 2744 2294 2464 2611 
Q 2184 2928 1769 2928 
Q 1347 2928 1069 2612 
Q 791 2297 791 1659 
z
M 726 3809 
Q 723 4134 904 4328 
Q 1082 4522 1360 4522 
Q 1554 4522 1888 4353 
Q 2073 4259 2182 4259 
Q 2282 4259 2335 4314 
Q 2388 4369 2410 4531 
L 2817 4531 
Q 2807 4175 2637 3997 
Q 2467 3819 2204 3819 
Q 2007 3819 1685 3994 
Q 1476 4106 1379 4106 
Q 1273 4106 1207 4031 
Q 1138 3956 1142 3809 
L 726 3809 
z
" id="ArialMT-f5" transform="scale(0.015625)"/>
      <path d="M 197 991 
L 753 1078 
Q 800 744 1014 566 
Q 1228 388 1613 388 
Q 2000 388 2187 545 
Q 2375 703 2375 916 
Q 2375 1106 2209 1216 
Q 2094 1291 1634 1406 
Q 1016 1563 777 1677 
Q 538 1791 414 1992 
Q 291 2194 291 2438 
Q 291 2659 392 2848 
Q 494 3038 669 3163 
Q 800 3259 1026 3326 
Q 1253 3394 1513 3394 
Q 1903 3394 2198 3281 
Q 2494 3169 2634 2976 
Q 2775 2784 2828 2463 
L 2278 2388 
Q 2241 2644 2061 2787 
Q 1881 2931 1553 2931 
Q 1166 2931 1000 2803 
Q 834 2675 834 2503 
Q 834 2394 903 2306 
Q 972 2216 1119 2156 
Q 1203 2125 1616 2013 
Q 2213 1853 2448 1751 
Q 2684 1650 2818 1456 
Q 2953 1263 2953 975 
Q 2953 694 2789 445 
Q 2625 197 2315 61 
Q 2006 -75 1616 -75 
Q 969 -75 630 194 
Q 291 463 197 991 
z
" id="ArialMT-73" transform="scale(0.015625)"/>
     </defs>
     <use xlink:href="#ArialMT-49"/>
     <use x="27.783203" xlink:href="#ArialMT-6e"/>
     <use x="83.398438" xlink:href="#ArialMT-74"/>
     <use x="111.181641" xlink:href="#ArialMT-65"/>
     <use x="166.796875" xlink:href="#ArialMT-72"/>
     <use x="200.097656" xlink:href="#ArialMT-6e"/>
     <use x="255.712891" xlink:href="#ArialMT-61"/>
     <use x="311.328125" xlink:href="#ArialMT-e7"/>
     <use x="361.328125" xlink:href="#ArialMT-f5"/>
     <use x="416.943359" xlink:href="#ArialMT-65"/>
     <use x="472.558594" xlink:href="#ArialMT-73"/>
    </g>
   </g>
   <g id="legend_1">
    <g id="patch_7">
     <path d="M 549.548437 58.08 
L 633.8 58.08 
Q 635.8 58.08 635.8 56.08 
L 635.8 28.789375 
Q 635.8 26.789375 633.8 26.789375 
L 549.548437 26.789375 
Q 547.548437 26.789375 547.548437 28.789375 
L 547.548437 56.08 
Q 547.548437 58.08 549.548437 58.08 
z
" style="fill:#ffffff;opacity:0.8;stroke:#cccccc;stroke-linejoin:miter;"/>
    </g>
    <g id="line2d_21">
     <path d="M 551.548437 34.447188 
L 571.548437 34.447188 
" style="fill:none;stroke:#1f77b4;stroke-linecap:round;stroke-width:1.5;"/>
    </g>
    <g id="line2d_22"/>
    <g id="text_20">
     <!-- Internações -->
     <g style="fill:#262626;" transform="translate(579.548437 37.947188)scale(0.1 -0.1)">
      <use xlink:href="#ArialMT-49"/>
      <use x="27.783203" xlink:href="#ArialMT-6e"/>
      <use x="83.398438" xlink:href="#ArialMT-74"/>
      <use x="111.181641" xlink:href="#ArialMT-65"/>
      <use x="166.796875" xlink:href="#ArialMT-72"/>
      <use x="200.097656" xlink:href="#ArialMT-6e"/>
      <use x="255.712891" xlink:href="#ArialMT-61"/>
      <use x="311.328125" xlink:href="#ArialMT-e7"/>
      <use x="361.328125" xlink:href="#ArialMT-f5"/>
      <use x="416.943359" xlink:href="#ArialMT-65"/>
      <use x="472.558594" xlink:href="#ArialMT-73"/>
     </g>
    </g>
    <g id="line2d_23">
     <path d="M 551.548437 48.5925 
L 571.548437 48.5925 
" style="fill:none;stroke:#ff7f0e;stroke-linecap:round;stroke-width:1.5;"/>
    </g>
    <g id="line2d_24"/>
    <g id="text_21">
     <!-- UTI -->
     <g style="fill:#262626;" transform="translate(579.548437 52.0925)scale(0.1 -0.1)">
      <defs>
       <path d="M 3500 4581 
L 4106 4581 
L 4106 1934 
Q 4106 1244 3950 837 
Q 3794 431 3386 176 
Q 2978 -78 2316 -78 
Q 1672 -78 1262 144 
Q 853 366 678 786 
Q 503 1206 503 1934 
L 503 4581 
L 1109 4581 
L 1109 1938 
Q 1109 1341 1220 1058 
Q 1331 775 1601 622 
Q 1872 469 2263 469 
Q 2931 469 3215 772 
Q 3500 1075 3500 1938 
L 3500 4581 
z
" id="ArialMT-55" transform="scale(0.015625)"/>
       <path d="M 1659 0 
L 1659 4041 
L 150 4041 
L 150 4581 
L 3781 4581 
L 3781 4041 
L 2266 4041 
L 2266 0 
L 1659 0 
z
" id="ArialMT-54" transform="scale(0.015625)"/>
      </defs>
      <use xlink:href="#ArialMT-55"/>
      <use x="72.216797" xlink:href="#ArialMT-54"/>
      <use x="133.300781" xlink:href="#ArialMT-49"/>
     </g>
    </g>
   </g>
  </g>
  <g id="text_22">
   <!-- Atualizado em 13/08/2021 -->
   <g style="fill:#262626;" transform="translate(7.2 331.389375)scale(0.08 -0.08)">
    <defs>
     <path d="M -9 0 
L 1750 4581 
L 2403 4581 
L 4278 0 
L 3588 0 
L 3053 1388 
L 1138 1388 
L 634 0 
L -9 0 
z
M 1313 1881 
L 2866 1881 
L 2388 3150 
Q 2169 3728 2063 4100 
Q 1975 3659 1816 3225 
L 1313 1881 
z
" id="ArialMT-41" transform="scale(0.015625)"/>
     <path d="M 2597 0 
L 2597 488 
Q 2209 -75 1544 -75 
Q 1250 -75 995 37 
Q 741 150 617 320 
Q 494 491 444 738 
Q 409 903 409 1263 
L 409 3319 
L 972 3319 
L 972 1478 
Q 972 1038 1006 884 
Q 1059 663 1231 536 
Q 1403 409 1656 409 
Q 1909 409 2131 539 
Q 2353 669 2445 892 
Q 2538 1116 2538 1541 
L 2538 3319 
L 3100 3319 
L 3100 0 
L 2597 0 
z
" id="ArialMT-75" transform="scale(0.015625)"/>
     <path d="M 409 0 
L 409 4581 
L 972 4581 
L 972 0 
L 409 0 
z
" id="ArialMT-6c" transform="scale(0.015625)"/>
     <path d="M 425 3934 
L 425 4581 
L 988 4581 
L 988 3934 
L 425 3934 
z
M 425 0 
L 425 3319 
L 988 3319 
L 988 0 
L 425 0 
z
" id="ArialMT-69" transform="scale(0.015625)"/>
     <path d="M 125 0 
L 125 456 
L 2238 2881 
Q 1878 2863 1603 2863 
L 250 2863 
L 250 3319 
L 2963 3319 
L 2963 2947 
L 1166 841 
L 819 456 
Q 1197 484 1528 484 
L 3063 484 
L 3063 0 
L 125 0 
z
" id="ArialMT-7a" transform="scale(0.015625)"/>
     <path d="M 2575 0 
L 2575 419 
Q 2259 -75 1647 -75 
Q 1250 -75 917 144 
Q 584 363 401 755 
Q 219 1147 219 1656 
Q 219 2153 384 2558 
Q 550 2963 881 3178 
Q 1213 3394 1622 3394 
Q 1922 3394 2156 3267 
Q 2391 3141 2538 2938 
L 2538 4581 
L 3097 4581 
L 3097 0 
L 2575 0 
z
M 797 1656 
Q 797 1019 1065 703 
Q 1334 388 1700 388 
Q 2069 388 2326 689 
Q 2584 991 2584 1609 
Q 2584 2291 2321 2609 
Q 2059 2928 1675 2928 
Q 1300 2928 1048 2622 
Q 797 2316 797 1656 
z
" id="ArialMT-64" transform="scale(0.015625)"/>
     <path d="M 213 1659 
Q 213 2581 725 3025 
Q 1153 3394 1769 3394 
Q 2453 3394 2887 2945 
Q 3322 2497 3322 1706 
Q 3322 1066 3130 698 
Q 2938 331 2570 128 
Q 2203 -75 1769 -75 
Q 1072 -75 642 372 
Q 213 819 213 1659 
z
M 791 1659 
Q 791 1022 1069 705 
Q 1347 388 1769 388 
Q 2188 388 2466 706 
Q 2744 1025 2744 1678 
Q 2744 2294 2464 2611 
Q 2184 2928 1769 2928 
Q 1347 2928 1069 2612 
Q 791 2297 791 1659 
z
" id="ArialMT-6f" transform="scale(0.015625)"/>
     <path id="ArialMT-20" transform="scale(0.015625)"/>
     <path d="M 422 0 
L 422 3319 
L 925 3319 
L 925 2853 
Q 1081 3097 1340 3245 
Q 1600 3394 1931 3394 
Q 2300 3394 2536 3241 
Q 2772 3088 2869 2813 
Q 3263 3394 3894 3394 
Q 4388 3394 4653 3120 
Q 4919 2847 4919 2278 
L 4919 0 
L 4359 0 
L 4359 2091 
Q 4359 2428 4304 2576 
Q 4250 2725 4106 2815 
Q 3963 2906 3769 2906 
Q 3419 2906 3187 2673 
Q 2956 2441 2956 1928 
L 2956 0 
L 2394 0 
L 2394 2156 
Q 2394 2531 2256 2718 
Q 2119 2906 1806 2906 
Q 1569 2906 1367 2781 
Q 1166 2656 1075 2415 
Q 984 2175 984 1722 
L 984 0 
L 422 0 
z
" id="ArialMT-6d" transform="scale(0.015625)"/>
     <path d="M 0 -78 
L 1328 4659 
L 1778 4659 
L 453 -78 
L 0 -78 
z
" id="ArialMT-2f" transform="scale(0.015625)"/>
     <path d="M 1131 2484 
Q 781 2613 612 2850 
Q 444 3088 444 3419 
Q 444 3919 803 4259 
Q 1163 4600 1759 4600 
Q 2359 4600 2725 4251 
Q 3091 3903 3091 3403 
Q 3091 3084 2923 2848 
Q 2756 2613 2416 2484 
Q 2838 2347 3058 2040 
Q 3278 1734 3278 1309 
Q 3278 722 2862 322 
Q 2447 -78 1769 -78 
Q 1091 -78 675 323 
Q 259 725 259 1325 
Q 259 1772 486 2073 
Q 713 2375 1131 2484 
z
M 1019 3438 
Q 1019 3113 1228 2906 
Q 1438 2700 1772 2700 
Q 2097 2700 2305 2904 
Q 2513 3109 2513 3406 
Q 2513 3716 2298 3927 
Q 2084 4138 1766 4138 
Q 1444 4138 1231 3931 
Q 1019 3725 1019 3438 
z
M 838 1322 
Q 838 1081 952 856 
Q 1066 631 1291 507 
Q 1516 384 1775 384 
Q 2178 384 2440 643 
Q 2703 903 2703 1303 
Q 2703 1709 2433 1975 
Q 2163 2241 1756 2241 
Q 1359 2241 1098 1978 
Q 838 1716 838 1322 
z
" id="ArialMT-38" transform="scale(0.015625)"/>
    </defs>
    <use xlink:href="#ArialMT-41"/>
    <use x="66.699219" xlink:href="#ArialMT-74"/>
    <use x="94.482422" xlink:href="#ArialMT-75"/>
    <use x="150.097656" xlink:href="#ArialMT-61"/>
    <use x="205.712891" xlink:href="#ArialMT-6c"/>
    <use x="227.929688" xlink:href="#ArialMT-69"/>
    <use x="250.146484" xlink:href="#ArialMT-7a"/>
    <use x="300.146484" xlink:href="#ArialMT-61"/>
    <use x="355.761719" xlink:href="#ArialMT-64"/>
    <use x="411.376953" xlink:href="#ArialMT-6f"/>
    <use x="466.992188" xlink:href="#ArialMT-20"/>
    <use x="494.775391" xlink:href="#ArialMT-65"/>
    <use x="550.390625" xlink:href="#ArialMT-6d"/>
    <use x="633.691406" xlink:href="#ArialMT-20"/>
    <use x="661.474609" xlink:href="#ArialMT-31"/>
    <use x="717.089844" xlink:href="#ArialMT-33"/>
    <use x="772.705078" xlink:href="#ArialMT-2f"/>
    <use x="800.488281" xlink:href="#ArialMT-30"/>
    <use x="856.103516" xlink:href="#ArialMT-38"/>
    <use x="911.71875" xlink:href="#ArialMT-2f"/>
    <use x="939.501953" xlink:href="#ArialMT-32"/>
    <use x="995.117188" xlink:href="#ArialMT-30"/>
    <use x="1050.732422" xlink:href="#ArialMT-32"/>
    <use x="1106.347656" xlink:href="#ArialMT-31"/>
   </g>
  </g>
  <g id="text_23">
   <!-- https://jmsvaz.github.io/covidsantos/ -->
   <g style="fill:#262626;" transform="translate(570.345 331.389375)scale(0.08 -0.08)">
    <defs>
     <path d="M 422 0 
L 422 4581 
L 984 4581 
L 984 2938 
Q 1378 3394 1978 3394 
Q 2347 3394 2619 3248 
Q 2891 3103 3008 2847 
Q 3125 2591 3125 2103 
L 3125 0 
L 2563 0 
L 2563 2103 
Q 2563 2525 2380 2717 
Q 2197 2909 1863 2909 
Q 1613 2909 1392 2779 
Q 1172 2650 1078 2428 
Q 984 2206 984 1816 
L 984 0 
L 422 0 
z
" id="ArialMT-68" transform="scale(0.015625)"/>
     <path d="M 422 -1272 
L 422 3319 
L 934 3319 
L 934 2888 
Q 1116 3141 1344 3267 
Q 1572 3394 1897 3394 
Q 2322 3394 2647 3175 
Q 2972 2956 3137 2557 
Q 3303 2159 3303 1684 
Q 3303 1175 3120 767 
Q 2938 359 2589 142 
Q 2241 -75 1856 -75 
Q 1575 -75 1351 44 
Q 1128 163 984 344 
L 984 -1272 
L 422 -1272 
z
M 931 1641 
Q 931 1000 1190 694 
Q 1450 388 1819 388 
Q 2194 388 2461 705 
Q 2728 1022 2728 1688 
Q 2728 2322 2467 2637 
Q 2206 2953 1844 2953 
Q 1484 2953 1207 2617 
Q 931 2281 931 1641 
z
" id="ArialMT-70" transform="scale(0.015625)"/>
     <path d="M 578 2678 
L 578 3319 
L 1219 3319 
L 1219 2678 
L 578 2678 
z
M 578 0 
L 578 641 
L 1219 641 
L 1219 0 
L 578 0 
z
" id="ArialMT-3a" transform="scale(0.015625)"/>
     <path d="M 419 3928 
L 419 4581 
L 981 4581 
L 981 3928 
L 419 3928 
z
M -294 -1288 
L -188 -809 
Q -19 -853 78 -853 
Q 250 -853 334 -739 
Q 419 -625 419 -169 
L 419 3319 
L 981 3319 
L 981 -181 
Q 981 -794 822 -1034 
Q 619 -1347 147 -1347 
Q -81 -1347 -294 -1288 
z
" id="ArialMT-6a" transform="scale(0.015625)"/>
     <path d="M 1344 0 
L 81 3319 
L 675 3319 
L 1388 1331 
Q 1503 1009 1600 663 
Q 1675 925 1809 1294 
L 2547 3319 
L 3125 3319 
L 1869 0 
L 1344 0 
z
" id="ArialMT-76" transform="scale(0.015625)"/>
     <path d="M 581 0 
L 581 641 
L 1222 641 
L 1222 0 
L 581 0 
z
" id="ArialMT-2e" transform="scale(0.015625)"/>
     <path d="M 319 -275 
L 866 -356 
Q 900 -609 1056 -725 
Q 1266 -881 1628 -881 
Q 2019 -881 2231 -725 
Q 2444 -569 2519 -288 
Q 2563 -116 2559 434 
Q 2191 0 1641 0 
Q 956 0 581 494 
Q 206 988 206 1678 
Q 206 2153 378 2554 
Q 550 2956 876 3175 
Q 1203 3394 1644 3394 
Q 2231 3394 2613 2919 
L 2613 3319 
L 3131 3319 
L 3131 450 
Q 3131 -325 2973 -648 
Q 2816 -972 2473 -1159 
Q 2131 -1347 1631 -1347 
Q 1038 -1347 672 -1080 
Q 306 -813 319 -275 
z
M 784 1719 
Q 784 1066 1043 766 
Q 1303 466 1694 466 
Q 2081 466 2343 764 
Q 2606 1063 2606 1700 
Q 2606 2309 2336 2618 
Q 2066 2928 1684 2928 
Q 1309 2928 1046 2623 
Q 784 2319 784 1719 
z
" id="ArialMT-67" transform="scale(0.015625)"/>
     <path d="M 941 0 
L 419 0 
L 419 4581 
L 981 4581 
L 981 2947 
Q 1338 3394 1891 3394 
Q 2197 3394 2470 3270 
Q 2744 3147 2920 2923 
Q 3097 2700 3197 2384 
Q 3297 2069 3297 1709 
Q 3297 856 2875 390 
Q 2453 -75 1863 -75 
Q 1275 -75 941 416 
L 941 0 
z
M 934 1684 
Q 934 1088 1097 822 
Q 1363 388 1816 388 
Q 2184 388 2453 708 
Q 2722 1028 2722 1663 
Q 2722 2313 2464 2622 
Q 2206 2931 1841 2931 
Q 1472 2931 1203 2611 
Q 934 2291 934 1684 
z
" id="ArialMT-62" transform="scale(0.015625)"/>
     <path d="M 2588 1216 
L 3141 1144 
Q 3050 572 2676 248 
Q 2303 -75 1759 -75 
Q 1078 -75 664 370 
Q 250 816 250 1647 
Q 250 2184 428 2587 
Q 606 2991 970 3192 
Q 1334 3394 1763 3394 
Q 2303 3394 2647 3120 
Q 2991 2847 3088 2344 
L 2541 2259 
Q 2463 2594 2264 2762 
Q 2066 2931 1784 2931 
Q 1359 2931 1093 2626 
Q 828 2322 828 1663 
Q 828 994 1084 691 
Q 1341 388 1753 388 
Q 2084 388 2306 591 
Q 2528 794 2588 1216 
z
" id="ArialMT-63" transform="scale(0.015625)"/>
    </defs>
    <use xlink:href="#ArialMT-68"/>
    <use x="55.615234" xlink:href="#ArialMT-74"/>
    <use x="83.398438" xlink:href="#ArialMT-74"/>
    <use x="111.181641" xlink:href="#ArialMT-70"/>
    <use x="166.796875" xlink:href="#ArialMT-73"/>
    <use x="216.796875" xlink:href="#ArialMT-3a"/>
    <use x="244.580078" xlink:href="#ArialMT-2f"/>
    <use x="272.363281" xlink:href="#ArialMT-2f"/>
    <use x="300.146484" xlink:href="#ArialMT-6a"/>
    <use x="322.363281" xlink:href="#ArialMT-6d"/>
    <use x="405.664062" xlink:href="#ArialMT-73"/>
    <use x="455.664062" xlink:href="#ArialMT-76"/>
    <use x="505.664062" xlink:href="#ArialMT-61"/>
    <use x="561.279297" xlink:href="#ArialMT-7a"/>
    <use x="611.279297" xlink:href="#ArialMT-2e"/>
    <use x="639.0625" xlink:href="#ArialMT-67"/>
    <use x="694.677734" xlink:href="#ArialMT-69"/>
    <use x="716.894531" xlink:href="#ArialMT-74"/>
    <use x="744.677734" xlink:href="#ArialMT-68"/>
    <use x="800.292969" xlink:href="#ArialMT-75"/>
    <use x="855.908203" xlink:href="#ArialMT-62"/>
    <use x="911.523438" xlink:href="#ArialMT-2e"/>
    <use x="939.306641" xlink:href="#ArialMT-69"/>
    <use x="961.523438" xlink:href="#ArialMT-6f"/>
    <use x="1017.138672" xlink:href="#ArialMT-2f"/>
    <use x="1044.921875" xlink:href="#ArialMT-63"/>
    <use x="1094.921875" xlink:href="#ArialMT-6f"/>
    <use x="1150.537109" xlink:href="#ArialMT-76"/>
    <use x="1200.537109" xlink:href="#ArialMT-69"/>
    <use x="1222.753906" xlink:href="#ArialMT-64"/>
    <use x="1278.369141" xlink:href="#ArialMT-73"/>
    <use x="1328.369141" xlink:href="#ArialMT-61"/>
    <use x="1383.984375" xlink:href="#ArialMT-6e"/>
    <use x="1439.599609" xlink:href="#ArialMT-74"/>
    <use x="1467.382812" xlink:href="#ArialMT-6f"/>
    <use x="1522.998047" xlink:href="#ArialMT-73"/>
    <use x="1572.998047" xlink:href="#ArialMT-2f"/>
   </g>
  </g>
 </g>
 <defs>
  <clipPath id="p1200edc287">
   <rect height="277.2" width="558" x="82.8" y="21.789375"/>
  </clipPath>
 </defs>
</svg>
