<?xml version="1.0" encoding="utf-8" standalone="no"?>
<!DOCTYPE svg PUBLIC "-//W3C//DTD SVG 1.1//EN"
  "http://www.w3.org/Graphics/SVG/1.1/DTD/svg11.dtd">
<svg height="316.934687pt" version="1.1" viewBox="0 0 596.082813 316.934687" width="596.082813pt" xmlns="http://www.w3.org/2000/svg" xmlns:xlink="http://www.w3.org/1999/xlink">
 <metadata>
  <rdf:RDF xmlns:cc="http://creativecommons.org/ns#" xmlns:dc="http://purl.org/dc/elements/1.1/" xmlns:rdf="http://www.w3.org/1999/02/22-rdf-syntax-ns#">
   <cc:Work>
    <dc:type rdf:resource="http://purl.org/dc/dcmitype/StillImage"/>
    <dc:date>2021-03-30T19:02:03.548257</dc:date>
    <dc:format>image/svg+xml</dc:format>
    <dc:creator>
     <cc:Agent>
      <dc:title>Matplotlib v3.4.0, https://matplotlib.org/</dc:title>
     </cc:Agent>
    </dc:creator>
   </cc:Work>
  </rdf:RDF>
 </metadata>
 <defs>
  <style type="text/css">*{stroke-linecap:butt;stroke-linejoin:round;}</style>
 </defs>
 <g id="figure_1">
  <g id="patch_1">
   <path d="M 0 316.934687 
L 596.082813 316.934687 
L 596.082813 0 
L 0 0 
z
" style="fill:#ffffff;"/>
  </g>
  <g id="axes_1">
   <g id="patch_2">
    <path d="M 30.882812 293.589375 
L 588.882812 293.589375 
L 588.882812 21.789375 
L 30.882812 21.789375 
z
" style="fill:#ffffff;"/>
   </g>
   <g id="matplotlib.axis_1">
    <g id="xtick_1">
     <g id="line2d_1">
      <path clip-path="url(#pc03cd4fe8a)" d="M 31.962116 293.589375 
L 31.962116 21.789375 
" style="fill:none;stroke:#cccccc;stroke-linecap:round;stroke-width:0.8;"/>
     </g>
     <g id="text_1">
      <!-- 2020-03 -->
      <g style="fill:#262626;" transform="translate(13.61446 307.747187)scale(0.1 -0.1)">
       <defs>
        <path d="M 3222 541 
L 3222 0 
L 194 0 
Q 188 203 259 391 
Q 375 700 629 1000 
Q 884 1300 1366 1694 
Q 2113 2306 2375 2664 
Q 2638 3022 2638 3341 
Q 2638 3675 2398 3904 
Q 2159 4134 1775 4134 
Q 1369 4134 1125 3890 
Q 881 3647 878 3216 
L 300 3275 
Q 359 3922 746 4261 
Q 1134 4600 1788 4600 
Q 2447 4600 2831 4234 
Q 3216 3869 3216 3328 
Q 3216 3053 3103 2787 
Q 2991 2522 2730 2228 
Q 2469 1934 1863 1422 
Q 1356 997 1212 845 
Q 1069 694 975 541 
L 3222 541 
z
" id="ArialMT-32" transform="scale(0.015625)"/>
        <path d="M 266 2259 
Q 266 3072 433 3567 
Q 600 4063 929 4331 
Q 1259 4600 1759 4600 
Q 2128 4600 2406 4451 
Q 2684 4303 2865 4023 
Q 3047 3744 3150 3342 
Q 3253 2941 3253 2259 
Q 3253 1453 3087 958 
Q 2922 463 2592 192 
Q 2263 -78 1759 -78 
Q 1097 -78 719 397 
Q 266 969 266 2259 
z
M 844 2259 
Q 844 1131 1108 757 
Q 1372 384 1759 384 
Q 2147 384 2411 759 
Q 2675 1134 2675 2259 
Q 2675 3391 2411 3762 
Q 2147 4134 1753 4134 
Q 1366 4134 1134 3806 
Q 844 3388 844 2259 
z
" id="ArialMT-30" transform="scale(0.015625)"/>
        <path d="M 203 1375 
L 203 1941 
L 1931 1941 
L 1931 1375 
L 203 1375 
z
" id="ArialMT-2d" transform="scale(0.015625)"/>
        <path d="M 269 1209 
L 831 1284 
Q 928 806 1161 595 
Q 1394 384 1728 384 
Q 2125 384 2398 659 
Q 2672 934 2672 1341 
Q 2672 1728 2419 1979 
Q 2166 2231 1775 2231 
Q 1616 2231 1378 2169 
L 1441 2663 
Q 1497 2656 1531 2656 
Q 1891 2656 2178 2843 
Q 2466 3031 2466 3422 
Q 2466 3731 2256 3934 
Q 2047 4138 1716 4138 
Q 1388 4138 1169 3931 
Q 950 3725 888 3313 
L 325 3413 
Q 428 3978 793 4289 
Q 1159 4600 1703 4600 
Q 2078 4600 2393 4439 
Q 2709 4278 2876 4000 
Q 3044 3722 3044 3409 
Q 3044 3113 2884 2869 
Q 2725 2625 2413 2481 
Q 2819 2388 3044 2092 
Q 3269 1797 3269 1353 
Q 3269 753 2831 336 
Q 2394 -81 1725 -81 
Q 1122 -81 723 278 
Q 325 638 269 1209 
z
" id="ArialMT-33" transform="scale(0.015625)"/>
       </defs>
       <use xlink:href="#ArialMT-32"/>
       <use x="55.615234" xlink:href="#ArialMT-30"/>
       <use x="111.230469" xlink:href="#ArialMT-32"/>
       <use x="166.845703" xlink:href="#ArialMT-30"/>
       <use x="222.460938" xlink:href="#ArialMT-2d"/>
       <use x="255.761719" xlink:href="#ArialMT-30"/>
       <use x="311.376953" xlink:href="#ArialMT-33"/>
      </g>
     </g>
    </g>
    <g id="xtick_2">
     <g id="line2d_2">
      <path clip-path="url(#pc03cd4fe8a)" d="M 114.259021 293.589375 
L 114.259021 21.789375 
" style="fill:none;stroke:#cccccc;stroke-linecap:round;stroke-width:0.8;"/>
     </g>
     <g id="text_2">
      <!-- 2020-05 -->
      <g style="fill:#262626;" transform="translate(95.911365 307.747187)scale(0.1 -0.1)">
       <defs>
        <path d="M 266 1200 
L 856 1250 
Q 922 819 1161 601 
Q 1400 384 1738 384 
Q 2144 384 2425 690 
Q 2706 997 2706 1503 
Q 2706 1984 2436 2262 
Q 2166 2541 1728 2541 
Q 1456 2541 1237 2417 
Q 1019 2294 894 2097 
L 366 2166 
L 809 4519 
L 3088 4519 
L 3088 3981 
L 1259 3981 
L 1013 2750 
Q 1425 3038 1878 3038 
Q 2478 3038 2890 2622 
Q 3303 2206 3303 1553 
Q 3303 931 2941 478 
Q 2500 -78 1738 -78 
Q 1113 -78 717 272 
Q 322 622 266 1200 
z
" id="ArialMT-35" transform="scale(0.015625)"/>
       </defs>
       <use xlink:href="#ArialMT-32"/>
       <use x="55.615234" xlink:href="#ArialMT-30"/>
       <use x="111.230469" xlink:href="#ArialMT-32"/>
       <use x="166.845703" xlink:href="#ArialMT-30"/>
       <use x="222.460938" xlink:href="#ArialMT-2d"/>
       <use x="255.761719" xlink:href="#ArialMT-30"/>
       <use x="311.376953" xlink:href="#ArialMT-35"/>
      </g>
     </g>
    </g>
    <g id="xtick_3">
     <g id="line2d_3">
      <path clip-path="url(#pc03cd4fe8a)" d="M 196.555927 293.589375 
L 196.555927 21.789375 
" style="fill:none;stroke:#cccccc;stroke-linecap:round;stroke-width:0.8;"/>
     </g>
     <g id="text_3">
      <!-- 2020-07 -->
      <g style="fill:#262626;" transform="translate(178.20827 307.747187)scale(0.1 -0.1)">
       <defs>
        <path d="M 303 3981 
L 303 4522 
L 3269 4522 
L 3269 4084 
Q 2831 3619 2401 2847 
Q 1972 2075 1738 1259 
Q 1569 684 1522 0 
L 944 0 
Q 953 541 1156 1306 
Q 1359 2072 1739 2783 
Q 2119 3494 2547 3981 
L 303 3981 
z
" id="ArialMT-37" transform="scale(0.015625)"/>
       </defs>
       <use xlink:href="#ArialMT-32"/>
       <use x="55.615234" xlink:href="#ArialMT-30"/>
       <use x="111.230469" xlink:href="#ArialMT-32"/>
       <use x="166.845703" xlink:href="#ArialMT-30"/>
       <use x="222.460938" xlink:href="#ArialMT-2d"/>
       <use x="255.761719" xlink:href="#ArialMT-30"/>
       <use x="311.376953" xlink:href="#ArialMT-37"/>
      </g>
     </g>
    </g>
    <g id="xtick_4">
     <g id="line2d_4">
      <path clip-path="url(#pc03cd4fe8a)" d="M 280.201961 293.589375 
L 280.201961 21.789375 
" style="fill:none;stroke:#cccccc;stroke-linecap:round;stroke-width:0.8;"/>
     </g>
     <g id="text_4">
      <!-- 2020-09 -->
      <g style="fill:#262626;" transform="translate(261.854305 307.747187)scale(0.1 -0.1)">
       <defs>
        <path d="M 350 1059 
L 891 1109 
Q 959 728 1153 556 
Q 1347 384 1650 384 
Q 1909 384 2104 503 
Q 2300 622 2425 820 
Q 2550 1019 2634 1356 
Q 2719 1694 2719 2044 
Q 2719 2081 2716 2156 
Q 2547 1888 2255 1720 
Q 1963 1553 1622 1553 
Q 1053 1553 659 1965 
Q 266 2378 266 3053 
Q 266 3750 677 4175 
Q 1088 4600 1706 4600 
Q 2153 4600 2523 4359 
Q 2894 4119 3086 3673 
Q 3278 3228 3278 2384 
Q 3278 1506 3087 986 
Q 2897 466 2520 194 
Q 2144 -78 1638 -78 
Q 1100 -78 759 220 
Q 419 519 350 1059 
z
M 2653 3081 
Q 2653 3566 2395 3850 
Q 2138 4134 1775 4134 
Q 1400 4134 1122 3828 
Q 844 3522 844 3034 
Q 844 2597 1108 2323 
Q 1372 2050 1759 2050 
Q 2150 2050 2401 2323 
Q 2653 2597 2653 3081 
z
" id="ArialMT-39" transform="scale(0.015625)"/>
       </defs>
       <use xlink:href="#ArialMT-32"/>
       <use x="55.615234" xlink:href="#ArialMT-30"/>
       <use x="111.230469" xlink:href="#ArialMT-32"/>
       <use x="166.845703" xlink:href="#ArialMT-30"/>
       <use x="222.460938" xlink:href="#ArialMT-2d"/>
       <use x="255.761719" xlink:href="#ArialMT-30"/>
       <use x="311.376953" xlink:href="#ArialMT-39"/>
      </g>
     </g>
    </g>
    <g id="xtick_5">
     <g id="line2d_5">
      <path clip-path="url(#pc03cd4fe8a)" d="M 362.498867 293.589375 
L 362.498867 21.789375 
" style="fill:none;stroke:#cccccc;stroke-linecap:round;stroke-width:0.8;"/>
     </g>
     <g id="text_5">
      <!-- 2020-11 -->
      <g style="fill:#262626;" transform="translate(344.51996 307.747187)scale(0.1 -0.1)">
       <defs>
        <path d="M 2384 0 
L 1822 0 
L 1822 3584 
Q 1619 3391 1289 3197 
Q 959 3003 697 2906 
L 697 3450 
Q 1169 3672 1522 3987 
Q 1875 4303 2022 4600 
L 2384 4600 
L 2384 0 
z
" id="ArialMT-31" transform="scale(0.015625)"/>
       </defs>
       <use xlink:href="#ArialMT-32"/>
       <use x="55.615234" xlink:href="#ArialMT-30"/>
       <use x="111.230469" xlink:href="#ArialMT-32"/>
       <use x="166.845703" xlink:href="#ArialMT-30"/>
       <use x="222.460938" xlink:href="#ArialMT-2d"/>
       <use x="255.761719" xlink:href="#ArialMT-31"/>
       <use x="304.001953" xlink:href="#ArialMT-31"/>
      </g>
     </g>
    </g>
    <g id="xtick_6">
     <g id="line2d_6">
      <path clip-path="url(#pc03cd4fe8a)" d="M 444.795772 293.589375 
L 444.795772 21.789375 
" style="fill:none;stroke:#cccccc;stroke-linecap:round;stroke-width:0.8;"/>
     </g>
     <g id="text_6">
      <!-- 2021-01 -->
      <g style="fill:#262626;" transform="translate(426.448116 307.747187)scale(0.1 -0.1)">
       <use xlink:href="#ArialMT-32"/>
       <use x="55.615234" xlink:href="#ArialMT-30"/>
       <use x="111.230469" xlink:href="#ArialMT-32"/>
       <use x="166.845703" xlink:href="#ArialMT-31"/>
       <use x="222.460938" xlink:href="#ArialMT-2d"/>
       <use x="255.761719" xlink:href="#ArialMT-30"/>
       <use x="311.376953" xlink:href="#ArialMT-31"/>
      </g>
     </g>
    </g>
    <g id="xtick_7">
     <g id="line2d_7">
      <path clip-path="url(#pc03cd4fe8a)" d="M 524.394418 293.589375 
L 524.394418 21.789375 
" style="fill:none;stroke:#cccccc;stroke-linecap:round;stroke-width:0.8;"/>
     </g>
     <g id="text_7">
      <!-- 2021-03 -->
      <g style="fill:#262626;" transform="translate(506.046762 307.747187)scale(0.1 -0.1)">
       <use xlink:href="#ArialMT-32"/>
       <use x="55.615234" xlink:href="#ArialMT-30"/>
       <use x="111.230469" xlink:href="#ArialMT-32"/>
       <use x="166.845703" xlink:href="#ArialMT-31"/>
       <use x="222.460938" xlink:href="#ArialMT-2d"/>
       <use x="255.761719" xlink:href="#ArialMT-30"/>
       <use x="311.376953" xlink:href="#ArialMT-33"/>
      </g>
     </g>
    </g>
   </g>
   <g id="matplotlib.axis_2">
    <g id="ytick_1">
     <g id="line2d_8">
      <path clip-path="url(#pc03cd4fe8a)" d="M 30.882812 281.23483 
L 588.882812 281.23483 
" style="fill:none;stroke:#cccccc;stroke-linecap:round;stroke-width:0.8;"/>
     </g>
     <g id="text_8">
      <!-- 0 -->
      <g style="fill:#262626;" transform="translate(18.321875 284.813736)scale(0.1 -0.1)">
       <use xlink:href="#ArialMT-30"/>
      </g>
     </g>
    </g>
    <g id="ytick_2">
     <g id="line2d_9">
      <path clip-path="url(#pc03cd4fe8a)" d="M 30.882812 244.245172 
L 588.882812 244.245172 
" style="fill:none;stroke:#cccccc;stroke-linecap:round;stroke-width:0.8;"/>
     </g>
     <g id="text_9">
      <!-- 50 -->
      <g style="fill:#262626;" transform="translate(12.760937 247.824079)scale(0.1 -0.1)">
       <use xlink:href="#ArialMT-35"/>
       <use x="55.615234" xlink:href="#ArialMT-30"/>
      </g>
     </g>
    </g>
    <g id="ytick_3">
     <g id="line2d_10">
      <path clip-path="url(#pc03cd4fe8a)" d="M 30.882812 207.255515 
L 588.882812 207.255515 
" style="fill:none;stroke:#cccccc;stroke-linecap:round;stroke-width:0.8;"/>
     </g>
     <g id="text_10">
      <!-- 100 -->
      <g style="fill:#262626;" transform="translate(7.2 210.834422)scale(0.1 -0.1)">
       <use xlink:href="#ArialMT-31"/>
       <use x="55.615234" xlink:href="#ArialMT-30"/>
       <use x="111.230469" xlink:href="#ArialMT-30"/>
      </g>
     </g>
    </g>
    <g id="ytick_4">
     <g id="line2d_11">
      <path clip-path="url(#pc03cd4fe8a)" d="M 30.882812 170.265858 
L 588.882812 170.265858 
" style="fill:none;stroke:#cccccc;stroke-linecap:round;stroke-width:0.8;"/>
     </g>
     <g id="text_11">
      <!-- 150 -->
      <g style="fill:#262626;" transform="translate(7.2 173.844765)scale(0.1 -0.1)">
       <use xlink:href="#ArialMT-31"/>
       <use x="55.615234" xlink:href="#ArialMT-35"/>
       <use x="111.230469" xlink:href="#ArialMT-30"/>
      </g>
     </g>
    </g>
    <g id="ytick_5">
     <g id="line2d_12">
      <path clip-path="url(#pc03cd4fe8a)" d="M 30.882812 133.276201 
L 588.882812 133.276201 
" style="fill:none;stroke:#cccccc;stroke-linecap:round;stroke-width:0.8;"/>
     </g>
     <g id="text_12">
      <!-- 200 -->
      <g style="fill:#262626;" transform="translate(7.2 136.855108)scale(0.1 -0.1)">
       <use xlink:href="#ArialMT-32"/>
       <use x="55.615234" xlink:href="#ArialMT-30"/>
       <use x="111.230469" xlink:href="#ArialMT-30"/>
      </g>
     </g>
    </g>
    <g id="ytick_6">
     <g id="line2d_13">
      <path clip-path="url(#pc03cd4fe8a)" d="M 30.882812 96.286544 
L 588.882812 96.286544 
" style="fill:none;stroke:#cccccc;stroke-linecap:round;stroke-width:0.8;"/>
     </g>
     <g id="text_13">
      <!-- 250 -->
      <g style="fill:#262626;" transform="translate(7.2 99.865451)scale(0.1 -0.1)">
       <use xlink:href="#ArialMT-32"/>
       <use x="55.615234" xlink:href="#ArialMT-35"/>
       <use x="111.230469" xlink:href="#ArialMT-30"/>
      </g>
     </g>
    </g>
    <g id="ytick_7">
     <g id="line2d_14">
      <path clip-path="url(#pc03cd4fe8a)" d="M 30.882812 59.296887 
L 588.882812 59.296887 
" style="fill:none;stroke:#cccccc;stroke-linecap:round;stroke-width:0.8;"/>
     </g>
     <g id="text_14">
      <!-- 300 -->
      <g style="fill:#262626;" transform="translate(7.2 62.875793)scale(0.1 -0.1)">
       <use xlink:href="#ArialMT-33"/>
       <use x="55.615234" xlink:href="#ArialMT-30"/>
       <use x="111.230469" xlink:href="#ArialMT-30"/>
      </g>
     </g>
    </g>
    <g id="ytick_8">
     <g id="line2d_15">
      <path clip-path="url(#pc03cd4fe8a)" d="M 30.882812 22.30723 
L 588.882812 22.30723 
" style="fill:none;stroke:#cccccc;stroke-linecap:round;stroke-width:0.8;"/>
     </g>
     <g id="text_15">
      <!-- 350 -->
      <g style="fill:#262626;" transform="translate(7.2 25.886136)scale(0.1 -0.1)">
       <use xlink:href="#ArialMT-33"/>
       <use x="55.615234" xlink:href="#ArialMT-35"/>
       <use x="111.230469" xlink:href="#ArialMT-30"/>
      </g>
     </g>
    </g>
   </g>
   <g id="line2d_16">
    <path clip-path="url(#pc03cd4fe8a)" d="M 56.246449 273.097105 
L 57.595578 273.097105 
L 58.944708 271.617519 
L 60.293838 271.617519 
L 61.642967 264.219587 
L 62.992097 250.903311 
L 64.341226 250.163518 
L 65.690356 247.204345 
L 67.039486 242.765586 
L 68.388615 242.025793 
L 69.737745 242.025793 
L 71.086874 241.286 
L 72.436004 238.326827 
L 73.785134 222.051378 
L 75.134263 220.571792 
L 76.483393 220.571792 
L 77.832522 198.377998 
L 79.181652 196.898411 
L 80.530782 210.214688 
L 81.879911 206.515722 
L 83.229041 200.597377 
L 84.57817 199.117791 
L 85.9273 196.158618 
L 87.27643 196.158618 
L 88.625559 194.679032 
L 89.974689 183.582135 
L 91.323818 182.102549 
L 92.672948 185.801514 
L 94.022077 173.225031 
L 95.371207 170.265858 
L 96.720337 168.046479 
L 98.069466 164.347513 
L 99.418596 173.964824 
L 100.767725 173.964824 
L 102.116855 171.005652 
L 103.465985 165.087306 
L 104.815114 139.93434 
L 106.164244 138.454753 
L 107.513373 173.225031 
L 108.862503 175.44441 
L 110.211633 178.403583 
L 111.560762 173.225031 
L 112.909892 178.403583 
L 114.259021 170.265858 
L 115.608151 165.8271 
L 116.957281 166.566893 
L 118.30641 164.347513 
L 119.65554 158.429168 
L 121.004669 155.469996 
L 122.353799 159.908754 
L 123.702929 162.867927 
L 125.052058 158.429168 
L 126.401188 155.469996 
L 127.750317 159.168961 
L 129.099447 143.633305 
L 130.448577 150.291444 
L 131.797706 147.332271 
L 133.146836 143.633305 
L 134.495965 149.55165 
L 135.845095 138.454753 
L 137.194224 136.975167 
L 138.543354 139.194546 
L 139.892484 131.796615 
L 141.241613 134.755788 
L 142.590743 136.975167 
L 143.939872 138.454753 
L 145.289002 136.235374 
L 146.638132 135.495581 
L 147.987261 131.056822 
L 149.336391 132.536408 
L 150.68552 133.276201 
L 152.03465 121.439511 
L 153.38378 120.699718 
L 154.732909 122.179304 
L 156.082039 127.357856 
L 157.431168 127.357856 
L 158.780298 126.618063 
L 160.129428 125.138477 
L 161.478557 120.699718 
L 162.827687 120.699718 
L 164.176816 108.863028 
L 165.525946 114.04158 
L 166.875076 107.383441 
L 168.224205 112.561993 
L 169.573335 105.164062 
L 170.922464 108.123235 
L 172.271594 102.204889 
L 173.620724 111.082407 
L 174.969853 118.480339 
L 176.318983 120.699718 
L 177.668112 124.398684 
L 179.017242 128.837443 
L 180.366371 125.87827 
L 181.715501 120.699718 
L 183.064631 119.959925 
L 184.41376 117.000752 
L 185.76289 121.439511 
L 187.112019 133.276201 
L 188.461149 134.755788 
L 189.810279 129.577236 
L 191.159408 132.536408 
L 192.508538 139.194546 
L 193.857667 142.153719 
L 195.206797 148.072064 
L 196.555927 148.072064 
L 197.905056 153.990409 
L 199.254186 146.592478 
L 200.603315 150.291444 
L 201.952445 151.77103 
L 203.301575 154.730202 
L 204.650704 145.852685 
L 205.999834 162.128134 
L 207.348963 159.908754 
L 208.698093 159.168961 
L 210.047223 163.60772 
L 211.396352 168.786272 
L 212.745482 167.306686 
L 214.094611 147.332271 
L 215.443741 159.168961 
L 216.792871 151.031237 
L 218.142 145.852685 
L 219.49113 153.990409 
L 220.840259 151.77103 
L 223.538518 156.209789 
L 224.887648 151.77103 
L 226.236778 154.730202 
L 227.585907 150.291444 
L 228.935037 151.77103 
L 231.633296 156.209789 
L 232.982426 160.648548 
L 234.331555 168.046479 
L 235.680685 170.265858 
L 237.029814 171.005652 
L 238.378944 174.704617 
L 239.728074 176.923997 
L 241.077203 174.704617 
L 242.426333 181.362756 
L 243.775462 185.061721 
L 245.124592 193.199446 
L 246.473722 190.980066 
L 247.822851 192.459653 
L 249.171981 205.036136 
L 250.52111 199.857584 
L 251.87024 203.55655 
L 253.21937 207.995309 
L 254.568499 205.036136 
L 255.917629 204.296343 
L 257.266758 201.33717 
L 258.615888 199.857584 
L 259.965018 199.117791 
L 261.314147 186.541307 
L 262.663277 194.679032 
L 265.361536 203.55655 
L 266.710665 201.33717 
L 268.059795 210.954481 
L 269.408925 211.694274 
L 270.758054 209.474895 
L 272.107184 211.694274 
L 273.456313 215.39324 
L 274.805443 209.474895 
L 276.154573 217.612619 
L 277.503702 203.55655 
L 278.852832 193.939239 
L 280.201961 192.459653 
L 281.551091 196.158618 
L 282.900221 197.638205 
L 284.24935 197.638205 
L 285.59848 199.857584 
L 286.947609 199.857584 
L 288.296739 207.995309 
L 289.645869 206.515722 
L 290.994998 196.898411 
L 292.344128 199.857584 
L 293.693257 196.898411 
L 295.042387 196.158618 
L 296.391517 196.898411 
L 297.740646 199.857584 
L 300.438905 208.735102 
L 301.788035 209.474895 
L 303.137165 207.255515 
L 304.486294 205.775929 
L 307.184553 207.255515 
L 308.533683 213.913654 
L 309.882812 213.913654 
L 311.231942 227.22993 
L 312.581072 225.010551 
L 313.930201 223.530965 
L 315.279331 219.092206 
L 316.62846 217.612619 
L 317.97759 218.352413 
L 319.32672 215.39324 
L 320.675849 219.092206 
L 322.024979 218.352413 
L 323.374108 213.913654 
L 324.723238 215.39324 
L 326.072368 216.133033 
L 327.421497 210.954481 
L 328.770627 207.255515 
L 330.119756 209.474895 
L 331.468886 206.515722 
L 332.818016 208.735102 
L 334.167145 205.775929 
L 335.516275 210.954481 
L 336.865404 211.694274 
L 338.214534 210.954481 
L 339.563664 208.735102 
L 340.912793 210.214688 
L 342.261923 213.173861 
L 343.611052 212.434067 
L 344.960182 212.434067 
L 346.309312 209.474895 
L 347.658441 203.55655 
L 349.007571 201.33717 
L 350.3567 202.076963 
L 351.70583 204.296343 
L 353.05496 200.597377 
L 354.404089 200.597377 
L 355.753219 198.377998 
L 357.102348 191.719859 
L 358.451478 193.199446 
L 359.800607 190.240273 
L 361.149737 190.240273 
L 362.498867 187.281101 
L 363.847996 183.582135 
L 365.197126 177.66379 
L 366.546255 185.801514 
L 367.895385 190.980066 
L 369.244515 185.801514 
L 370.593644 179.883169 
L 371.942774 182.842342 
L 373.291903 176.184204 
L 374.641033 171.745445 
L 375.990163 162.128134 
L 377.339292 163.60772 
L 378.688422 166.566893 
L 380.037551 171.005652 
L 381.386681 170.265858 
L 382.735811 165.8271 
L 384.08494 166.566893 
L 385.43407 151.031237 
L 386.783199 147.332271 
L 388.132329 149.55165 
L 389.481459 136.235374 
L 390.830588 136.975167 
L 392.179718 141.413926 
L 393.528847 135.495581 
L 394.877977 130.317029 
L 396.227107 130.317029 
L 397.576236 132.536408 
L 398.925366 125.87827 
L 400.274495 136.235374 
L 401.623625 139.93434 
L 402.972754 145.112892 
L 404.321884 137.71496 
L 405.671014 139.194546 
L 407.020143 146.592478 
L 408.369273 142.893512 
L 409.718402 153.250616 
L 411.067532 162.128134 
L 412.416662 153.250616 
L 413.765791 139.93434 
L 415.114921 151.77103 
L 416.46405 148.072064 
L 417.81318 146.592478 
L 419.16231 153.250616 
L 423.209698 168.786272 
L 424.558828 167.306686 
L 425.907958 166.566893 
L 427.257087 171.745445 
L 428.606217 175.44441 
L 429.955346 171.005652 
L 431.304476 168.046479 
L 432.653606 168.046479 
L 434.002735 172.485238 
L 435.351865 179.143376 
L 436.700994 181.362756 
L 438.050124 175.44441 
L 439.399254 174.704617 
L 440.748383 170.265858 
L 442.097513 172.485238 
L 443.446642 171.005652 
L 444.795772 180.622962 
L 446.144901 177.66379 
L 447.494031 184.321928 
L 448.843161 193.939239 
L 450.19229 192.459653 
L 451.54142 191.719859 
L 452.890549 193.199446 
L 454.239679 189.50048 
L 456.937938 190.980066 
L 458.287068 181.362756 
L 459.636197 184.321928 
L 460.985327 176.184204 
L 462.334457 176.923997 
L 463.683586 173.225031 
L 466.381845 182.102549 
L 467.730975 175.44441 
L 469.080105 178.403583 
L 470.429234 184.321928 
L 471.778364 192.459653 
L 473.127493 185.801514 
L 474.476623 189.50048 
L 475.825753 186.541307 
L 477.174882 196.158618 
L 478.524012 200.597377 
L 479.873141 191.719859 
L 481.222271 197.638205 
L 482.571401 193.199446 
L 483.92053 198.377998 
L 485.26966 200.597377 
L 486.618789 191.719859 
L 487.967919 190.980066 
L 489.317048 188.020894 
L 490.666178 193.199446 
L 492.015308 192.459653 
L 493.364437 193.199446 
L 494.713567 196.898411 
L 496.062696 199.857584 
L 497.411826 206.515722 
L 498.760956 207.255515 
L 500.110085 205.775929 
L 501.459215 202.816757 
L 502.808344 213.173861 
L 504.157474 212.434067 
L 505.506604 202.816757 
L 506.855733 199.857584 
L 508.204863 210.954481 
L 509.553992 210.954481 
L 510.903122 207.995309 
L 512.252252 210.214688 
L 513.601381 205.775929 
L 514.950511 199.117791 
L 516.29964 194.679032 
L 517.64877 197.638205 
L 518.9979 188.020894 
L 520.347029 188.760687 
L 521.696159 202.076963 
L 523.045288 185.801514 
L 524.394418 177.66379 
L 525.743548 183.582135 
L 527.092677 175.44441 
L 528.441807 176.923997 
L 529.790936 174.704617 
L 531.140066 183.582135 
L 532.489195 180.622962 
L 533.838325 171.005652 
L 535.187455 166.566893 
L 537.885714 159.168961 
L 540.583973 145.852685 
L 541.933103 136.975167 
L 543.282232 131.796615 
L 544.631362 117.000752 
L 545.980491 114.04158 
L 547.329621 110.342614 
L 548.678751 105.164062 
L 550.02788 94.067165 
L 551.37701 80.750888 
L 552.726139 73.352957 
L 554.075269 63.735646 
L 555.424399 57.077508 
L 556.773528 39.322472 
L 558.122658 48.939783 
L 559.471787 40.062266 
L 560.820917 43.761231 
L 562.170047 43.761231 
L 563.519176 34.14392 
L 563.519176 34.14392 
" style="fill:none;stroke:#1f77b4;stroke-linecap:round;stroke-width:1.5;"/>
   </g>
   <g id="line2d_17">
    <path clip-path="url(#pc03cd4fe8a)" d="M 56.246449 281.23483 
L 57.595578 281.23483 
L 58.944708 276.056278 
L 60.293838 276.056278 
L 61.642967 274.576691 
L 62.992097 267.17876 
L 64.341226 267.918553 
L 65.690356 264.95938 
L 71.086874 264.95938 
L 72.436004 265.699174 
L 73.785134 262.740001 
L 75.134263 264.219587 
L 76.483393 263.479794 
L 77.832522 260.520622 
L 79.181652 260.520622 
L 80.530782 256.821656 
L 81.879911 253.862483 
L 83.229041 253.862483 
L 84.57817 257.561449 
L 87.27643 257.561449 
L 88.625559 256.821656 
L 89.974689 253.12269 
L 91.323818 255.34207 
L 92.672948 259.780828 
L 94.022077 253.862483 
L 95.371207 248.683931 
L 96.720337 247.944138 
L 98.069466 241.286 
L 99.418596 245.724759 
L 100.767725 244.245172 
L 102.116855 241.286 
L 103.465985 234.627862 
L 104.815114 230.928896 
L 106.164244 228.709517 
L 107.513373 234.627862 
L 108.862503 234.627862 
L 111.560762 237.587034 
L 112.909892 234.627862 
L 114.259021 229.44931 
L 115.608151 227.22993 
L 116.957281 225.750344 
L 118.30641 226.490137 
L 119.65554 221.311585 
L 121.004669 221.311585 
L 122.353799 228.709517 
L 123.702929 230.189103 
L 125.052058 225.010551 
L 126.401188 225.010551 
L 129.099447 227.969723 
L 130.448577 232.408482 
L 131.797706 229.44931 
L 133.146836 227.22993 
L 134.495965 231.668689 
L 135.845095 225.010551 
L 137.194224 225.010551 
L 138.543354 223.530965 
L 139.892484 226.490137 
L 141.241613 222.051378 
L 142.590743 222.051378 
L 143.939872 218.352413 
L 145.289002 219.092206 
L 147.987261 217.612619 
L 149.336391 224.270758 
L 150.68552 226.490137 
L 152.03465 221.311585 
L 153.38378 225.010551 
L 154.732909 221.311585 
L 156.082039 216.872826 
L 157.431168 215.39324 
L 158.780298 214.653447 
L 160.129428 217.612619 
L 161.478557 215.39324 
L 162.827687 215.39324 
L 164.176816 210.954481 
L 165.525946 213.173861 
L 166.875076 211.694274 
L 168.224205 211.694274 
L 169.573335 204.296343 
L 170.922464 207.995309 
L 172.271594 213.173861 
L 173.620724 215.39324 
L 174.969853 208.735102 
L 176.318983 213.173861 
L 177.668112 219.092206 
L 179.017242 221.311585 
L 181.715501 219.831999 
L 183.064631 215.39324 
L 184.41376 217.612619 
L 185.76289 216.133033 
L 187.112019 219.092206 
L 188.461149 218.352413 
L 189.810279 219.092206 
L 191.159408 223.530965 
L 192.508538 230.189103 
L 193.857667 229.44931 
L 195.206797 226.490137 
L 196.555927 227.22993 
L 197.905056 230.189103 
L 199.254186 227.969723 
L 200.603315 226.490137 
L 201.952445 227.22993 
L 203.301575 227.22993 
L 204.650704 225.750344 
L 205.999834 232.408482 
L 207.348963 232.408482 
L 208.698093 231.668689 
L 210.047223 234.627862 
L 211.396352 236.107448 
L 212.745482 232.408482 
L 214.094611 227.22993 
L 215.443741 229.44931 
L 216.792871 223.530965 
L 218.142 226.490137 
L 219.49113 232.408482 
L 220.840259 234.627862 
L 222.189389 233.148275 
L 223.538518 233.148275 
L 224.887648 234.627862 
L 226.236778 229.44931 
L 227.585907 230.928896 
L 228.935037 233.148275 
L 230.284166 233.148275 
L 231.633296 229.44931 
L 232.982426 229.44931 
L 234.331555 233.888069 
L 235.680685 233.888069 
L 237.029814 234.627862 
L 238.378944 237.587034 
L 239.728074 239.066621 
L 241.077203 239.806414 
L 242.426333 242.025793 
L 243.775462 245.724759 
L 245.124592 244.984966 
L 246.473722 242.025793 
L 247.822851 242.765586 
L 249.171981 247.944138 
L 250.52111 247.944138 
L 251.87024 247.204345 
L 253.21937 250.903311 
L 254.568499 250.163518 
L 255.917629 248.683931 
L 257.266758 245.724759 
L 258.615888 247.204345 
L 259.965018 247.204345 
L 261.314147 244.245172 
L 262.663277 249.423724 
L 264.012406 249.423724 
L 265.361536 253.862483 
L 266.710665 251.643104 
L 268.059795 254.602276 
L 269.408925 254.602276 
L 270.758054 255.34207 
L 272.107184 252.382897 
L 274.805443 252.382897 
L 276.154573 256.081863 
L 277.503702 250.163518 
L 278.852832 251.643104 
L 280.201961 247.944138 
L 281.551091 249.423724 
L 282.900221 248.683931 
L 284.24935 249.423724 
L 285.59848 247.204345 
L 286.947609 249.423724 
L 288.296739 250.903311 
L 289.645869 250.163518 
L 290.994998 245.724759 
L 292.344128 247.204345 
L 293.693257 243.505379 
L 295.042387 244.245172 
L 296.391517 248.683931 
L 297.740646 254.602276 
L 299.089776 250.903311 
L 300.438905 250.903311 
L 301.788035 251.643104 
L 303.137165 250.163518 
L 305.835424 251.643104 
L 307.184553 250.903311 
L 308.533683 252.382897 
L 309.882812 257.561449 
L 311.231942 256.821656 
L 312.581072 252.382897 
L 313.930201 253.12269 
L 315.279331 252.382897 
L 316.62846 250.163518 
L 317.97759 248.683931 
L 319.32672 248.683931 
L 320.675849 251.643104 
L 322.024979 253.12269 
L 323.374108 252.382897 
L 326.072368 252.382897 
L 327.421497 251.643104 
L 328.770627 250.163518 
L 330.119756 251.643104 
L 331.468886 252.382897 
L 332.818016 250.903311 
L 334.167145 250.163518 
L 335.516275 253.862483 
L 336.865404 256.821656 
L 338.214534 254.602276 
L 339.563664 256.821656 
L 340.912793 256.821656 
L 342.261923 255.34207 
L 343.611052 257.561449 
L 344.960182 253.862483 
L 346.309312 251.643104 
L 347.658441 250.903311 
L 349.007571 247.944138 
L 353.05496 247.944138 
L 355.753219 244.984966 
L 357.102348 242.025793 
L 358.451478 247.204345 
L 359.800607 247.204345 
L 361.149737 246.464552 
L 362.498867 244.984966 
L 363.847996 242.025793 
L 365.197126 242.765586 
L 367.895385 241.286 
L 369.244515 239.806414 
L 370.593644 237.587034 
L 371.942774 240.546207 
L 373.291903 231.668689 
L 374.641033 229.44931 
L 375.990163 230.928896 
L 377.339292 230.189103 
L 378.688422 222.791171 
L 380.037551 230.189103 
L 381.386681 229.44931 
L 382.735811 231.668689 
L 384.08494 230.928896 
L 385.43407 223.530965 
L 386.783199 222.051378 
L 388.132329 222.051378 
L 389.481459 212.434067 
L 390.830588 216.133033 
L 392.179718 221.311585 
L 393.528847 217.612619 
L 394.877977 218.352413 
L 396.227107 218.352413 
L 397.576236 219.831999 
L 398.925366 219.092206 
L 400.274495 224.270758 
L 401.623625 225.010551 
L 402.972754 219.831999 
L 404.321884 216.872826 
L 405.671014 218.352413 
L 407.020143 222.791171 
L 408.369273 224.270758 
L 409.718402 222.791171 
L 411.067532 230.928896 
L 412.416662 225.010551 
L 413.765791 225.010551 
L 415.114921 221.311585 
L 416.46405 216.872826 
L 417.81318 219.831999 
L 419.16231 219.831999 
L 420.511439 225.010551 
L 421.860569 227.22993 
L 423.209698 225.010551 
L 424.558828 224.270758 
L 425.907958 227.22993 
L 427.257087 231.668689 
L 428.606217 228.709517 
L 429.955346 226.490137 
L 431.304476 227.969723 
L 432.653606 222.791171 
L 434.002735 227.969723 
L 435.351865 230.928896 
L 436.700994 230.928896 
L 438.050124 222.791171 
L 439.399254 230.928896 
L 440.748383 230.928896 
L 442.097513 234.627862 
L 443.446642 232.408482 
L 444.795772 230.928896 
L 446.144901 232.408482 
L 447.494031 233.148275 
L 448.843161 235.367655 
L 450.19229 236.847241 
L 451.54142 237.587034 
L 452.890549 239.066621 
L 454.239679 237.587034 
L 455.588809 234.627862 
L 456.937938 233.148275 
L 458.287068 228.709517 
L 459.636197 229.44931 
L 460.985327 224.270758 
L 462.334457 222.791171 
L 463.683586 219.831999 
L 465.032716 221.311585 
L 466.381845 223.530965 
L 469.080105 226.490137 
L 470.429234 227.22993 
L 471.778364 229.44931 
L 473.127493 227.969723 
L 474.476623 230.189103 
L 475.825753 225.010551 
L 477.174882 225.750344 
L 478.524012 227.969723 
L 479.873141 227.22993 
L 481.222271 232.408482 
L 485.26966 234.627862 
L 486.618789 231.668689 
L 487.967919 227.22993 
L 489.317048 231.668689 
L 490.666178 228.709517 
L 492.015308 232.408482 
L 493.364437 233.888069 
L 494.713567 238.326827 
L 496.062696 241.286 
L 497.411826 242.765586 
L 498.760956 240.546207 
L 500.110085 241.286 
L 501.459215 239.066621 
L 502.808344 246.464552 
L 504.157474 247.204345 
L 505.506604 236.107448 
L 506.855733 239.806414 
L 508.204863 238.326827 
L 509.553992 239.066621 
L 510.903122 235.367655 
L 512.252252 238.326827 
L 513.601381 239.806414 
L 514.950511 237.587034 
L 516.29964 239.066621 
L 517.64877 244.245172 
L 520.347029 235.367655 
L 521.696159 240.546207 
L 523.045288 236.107448 
L 524.394418 233.148275 
L 525.743548 235.367655 
L 527.092677 232.408482 
L 528.441807 232.408482 
L 529.790936 233.148275 
L 531.140066 239.066621 
L 532.489195 229.44931 
L 533.838325 232.408482 
L 535.187455 234.627862 
L 536.536584 227.969723 
L 537.885714 225.010551 
L 539.234843 219.831999 
L 540.583973 207.995309 
L 541.933103 201.33717 
L 543.282232 210.214688 
L 544.631362 198.377998 
L 545.980491 193.199446 
L 547.329621 194.679032 
L 548.678751 183.582135 
L 550.02788 187.281101 
L 551.37701 182.842342 
L 552.726139 184.321928 
L 554.075269 177.66379 
L 555.424399 174.704617 
L 556.773528 162.867927 
L 558.122658 160.648548 
L 559.471787 153.250616 
L 560.820917 148.811857 
L 562.170047 151.77103 
L 563.519176 149.55165 
L 563.519176 149.55165 
" style="fill:none;stroke:#ff7f0e;stroke-linecap:round;stroke-width:1.5;"/>
   </g>
   <g id="patch_3">
    <path d="M 30.882812 293.589375 
L 30.882812 21.789375 
" style="fill:none;stroke:#cccccc;stroke-linecap:square;stroke-linejoin:miter;stroke-width:0.8;"/>
   </g>
   <g id="patch_4">
    <path d="M 588.882812 293.589375 
L 588.882812 21.789375 
" style="fill:none;stroke:#cccccc;stroke-linecap:square;stroke-linejoin:miter;stroke-width:0.8;"/>
   </g>
   <g id="patch_5">
    <path d="M 30.882812 293.589375 
L 588.882812 293.589375 
" style="fill:none;stroke:#cccccc;stroke-linecap:square;stroke-linejoin:miter;stroke-width:0.8;"/>
   </g>
   <g id="patch_6">
    <path d="M 30.882812 21.789375 
L 588.882812 21.789375 
" style="fill:none;stroke:#cccccc;stroke-linecap:square;stroke-linejoin:miter;stroke-width:0.8;"/>
   </g>
   <g id="text_16">
    <!-- Internações -->
    <g style="fill:#262626;" transform="translate(278.531875 15.789375)scale(0.12 -0.12)">
     <defs>
      <path d="M 597 0 
L 597 4581 
L 1203 4581 
L 1203 0 
L 597 0 
z
" id="ArialMT-49" transform="scale(0.015625)"/>
      <path d="M 422 0 
L 422 3319 
L 928 3319 
L 928 2847 
Q 1294 3394 1984 3394 
Q 2284 3394 2536 3286 
Q 2788 3178 2913 3003 
Q 3038 2828 3088 2588 
Q 3119 2431 3119 2041 
L 3119 0 
L 2556 0 
L 2556 2019 
Q 2556 2363 2490 2533 
Q 2425 2703 2258 2804 
Q 2091 2906 1866 2906 
Q 1506 2906 1245 2678 
Q 984 2450 984 1813 
L 984 0 
L 422 0 
z
" id="ArialMT-6e" transform="scale(0.015625)"/>
      <path d="M 1650 503 
L 1731 6 
Q 1494 -44 1306 -44 
Q 1000 -44 831 53 
Q 663 150 594 308 
Q 525 466 525 972 
L 525 2881 
L 113 2881 
L 113 3319 
L 525 3319 
L 525 4141 
L 1084 4478 
L 1084 3319 
L 1650 3319 
L 1650 2881 
L 1084 2881 
L 1084 941 
Q 1084 700 1114 631 
Q 1144 563 1211 522 
Q 1278 481 1403 481 
Q 1497 481 1650 503 
z
" id="ArialMT-74" transform="scale(0.015625)"/>
      <path d="M 2694 1069 
L 3275 997 
Q 3138 488 2766 206 
Q 2394 -75 1816 -75 
Q 1088 -75 661 373 
Q 234 822 234 1631 
Q 234 2469 665 2931 
Q 1097 3394 1784 3394 
Q 2450 3394 2872 2941 
Q 3294 2488 3294 1666 
Q 3294 1616 3291 1516 
L 816 1516 
Q 847 969 1125 678 
Q 1403 388 1819 388 
Q 2128 388 2347 550 
Q 2566 713 2694 1069 
z
M 847 1978 
L 2700 1978 
Q 2663 2397 2488 2606 
Q 2219 2931 1791 2931 
Q 1403 2931 1139 2672 
Q 875 2413 847 1978 
z
" id="ArialMT-65" transform="scale(0.015625)"/>
      <path d="M 416 0 
L 416 3319 
L 922 3319 
L 922 2816 
Q 1116 3169 1280 3281 
Q 1444 3394 1641 3394 
Q 1925 3394 2219 3213 
L 2025 2691 
Q 1819 2813 1613 2813 
Q 1428 2813 1281 2702 
Q 1134 2591 1072 2394 
Q 978 2094 978 1738 
L 978 0 
L 416 0 
z
" id="ArialMT-72" transform="scale(0.015625)"/>
      <path d="M 2588 409 
Q 2275 144 1986 34 
Q 1697 -75 1366 -75 
Q 819 -75 525 192 
Q 231 459 231 875 
Q 231 1119 342 1320 
Q 453 1522 633 1644 
Q 813 1766 1038 1828 
Q 1203 1872 1538 1913 
Q 2219 1994 2541 2106 
Q 2544 2222 2544 2253 
Q 2544 2597 2384 2738 
Q 2169 2928 1744 2928 
Q 1347 2928 1158 2789 
Q 969 2650 878 2297 
L 328 2372 
Q 403 2725 575 2942 
Q 747 3159 1072 3276 
Q 1397 3394 1825 3394 
Q 2250 3394 2515 3294 
Q 2781 3194 2906 3042 
Q 3031 2891 3081 2659 
Q 3109 2516 3109 2141 
L 3109 1391 
Q 3109 606 3145 398 
Q 3181 191 3288 0 
L 2700 0 
Q 2613 175 2588 409 
z
M 2541 1666 
Q 2234 1541 1622 1453 
Q 1275 1403 1131 1340 
Q 988 1278 909 1158 
Q 831 1038 831 891 
Q 831 666 1001 516 
Q 1172 366 1500 366 
Q 1825 366 2078 508 
Q 2331 650 2450 897 
Q 2541 1088 2541 1459 
L 2541 1666 
z
" id="ArialMT-61" transform="scale(0.015625)"/>
      <path d="M 2588 1216 
L 3141 1144 
Q 3050 572 2676 248 
Q 2303 -75 1759 -75 
Q 1078 -75 664 370 
Q 250 816 250 1647 
Q 250 2184 428 2587 
Q 606 2991 970 3192 
Q 1334 3394 1763 3394 
Q 2303 3394 2647 3120 
Q 2991 2847 3088 2344 
L 2541 2259 
Q 2463 2594 2264 2762 
Q 2066 2931 1784 2931 
Q 1359 2931 1093 2626 
Q 828 2322 828 1663 
Q 828 994 1084 691 
Q 1341 388 1753 388 
Q 2084 388 2306 591 
Q 2528 794 2588 1216 
z
M 1284 -418 
L 1447 135 
L 1866 135 
L 1763 -200 
Q 2028 -231 2162 -363 
Q 2297 -496 2297 -659 
Q 2297 -893 2072 -1073 
Q 1847 -1253 1394 -1253 
Q 1138 -1253 944 -1215 
L 978 -850 
Q 1178 -862 1272 -862 
Q 1566 -862 1684 -781 
Q 1775 -718 1775 -628 
Q 1775 -571 1739 -527 
Q 1703 -484 1606 -452 
Q 1509 -421 1284 -418 
z
" id="ArialMT-e7" transform="scale(0.015625)"/>
      <path d="M 213 1659 
Q 213 2581 725 3025 
Q 1153 3394 1769 3394 
Q 2453 3394 2887 2945 
Q 3322 2497 3322 1706 
Q 3322 1066 3130 698 
Q 2938 331 2570 128 
Q 2203 -75 1769 -75 
Q 1072 -75 642 372 
Q 213 819 213 1659 
z
M 791 1659 
Q 791 1022 1069 705 
Q 1347 388 1769 388 
Q 2188 388 2466 706 
Q 2744 1025 2744 1678 
Q 2744 2294 2464 2611 
Q 2184 2928 1769 2928 
Q 1347 2928 1069 2612 
Q 791 2297 791 1659 
z
M 722 3809 
Q 719 4134 900 4328 
Q 1078 4522 1356 4522 
Q 1550 4522 1884 4353 
Q 2069 4259 2178 4259 
Q 2278 4259 2331 4314 
Q 2384 4369 2406 4531 
L 2813 4531 
Q 2803 4175 2633 3997 
Q 2463 3819 2200 3819 
Q 2003 3819 1681 3994 
Q 1472 4106 1375 4106 
Q 1269 4106 1203 4031 
Q 1134 3956 1138 3809 
L 722 3809 
z
" id="ArialMT-f5" transform="scale(0.015625)"/>
      <path d="M 197 991 
L 753 1078 
Q 800 744 1014 566 
Q 1228 388 1613 388 
Q 2000 388 2187 545 
Q 2375 703 2375 916 
Q 2375 1106 2209 1216 
Q 2094 1291 1634 1406 
Q 1016 1563 777 1677 
Q 538 1791 414 1992 
Q 291 2194 291 2438 
Q 291 2659 392 2848 
Q 494 3038 669 3163 
Q 800 3259 1026 3326 
Q 1253 3394 1513 3394 
Q 1903 3394 2198 3281 
Q 2494 3169 2634 2976 
Q 2775 2784 2828 2463 
L 2278 2388 
Q 2241 2644 2061 2787 
Q 1881 2931 1553 2931 
Q 1166 2931 1000 2803 
Q 834 2675 834 2503 
Q 834 2394 903 2306 
Q 972 2216 1119 2156 
Q 1203 2125 1616 2013 
Q 2213 1853 2448 1751 
Q 2684 1650 2818 1456 
Q 2953 1263 2953 975 
Q 2953 694 2789 445 
Q 2625 197 2315 61 
Q 2006 -75 1616 -75 
Q 969 -75 630 194 
Q 291 463 197 991 
z
" id="ArialMT-73" transform="scale(0.015625)"/>
     </defs>
     <use xlink:href="#ArialMT-49"/>
     <use x="27.783203" xlink:href="#ArialMT-6e"/>
     <use x="83.398438" xlink:href="#ArialMT-74"/>
     <use x="111.181641" xlink:href="#ArialMT-65"/>
     <use x="166.796875" xlink:href="#ArialMT-72"/>
     <use x="200.097656" xlink:href="#ArialMT-6e"/>
     <use x="255.712891" xlink:href="#ArialMT-61"/>
     <use x="311.328125" xlink:href="#ArialMT-e7"/>
     <use x="361.328125" xlink:href="#ArialMT-f5"/>
     <use x="416.943359" xlink:href="#ArialMT-65"/>
     <use x="472.558594" xlink:href="#ArialMT-73"/>
    </g>
   </g>
   <g id="legend_1">
    <g id="patch_7">
     <path d="M 37.882812 58.08 
L 122.134375 58.08 
Q 124.134375 58.08 124.134375 56.08 
L 124.134375 28.789375 
Q 124.134375 26.789375 122.134375 26.789375 
L 37.882812 26.789375 
Q 35.882812 26.789375 35.882812 28.789375 
L 35.882812 56.08 
Q 35.882812 58.08 37.882812 58.08 
z
" style="fill:#ffffff;opacity:0.8;stroke:#cccccc;stroke-linejoin:miter;"/>
    </g>
    <g id="line2d_18">
     <path d="M 39.882812 34.447187 
L 59.882812 34.447187 
" style="fill:none;stroke:#1f77b4;stroke-linecap:round;stroke-width:1.5;"/>
    </g>
    <g id="line2d_19"/>
    <g id="text_17">
     <!-- Internações -->
     <g style="fill:#262626;" transform="translate(67.882812 37.947187)scale(0.1 -0.1)">
      <use xlink:href="#ArialMT-49"/>
      <use x="27.783203" xlink:href="#ArialMT-6e"/>
      <use x="83.398438" xlink:href="#ArialMT-74"/>
      <use x="111.181641" xlink:href="#ArialMT-65"/>
      <use x="166.796875" xlink:href="#ArialMT-72"/>
      <use x="200.097656" xlink:href="#ArialMT-6e"/>
      <use x="255.712891" xlink:href="#ArialMT-61"/>
      <use x="311.328125" xlink:href="#ArialMT-e7"/>
      <use x="361.328125" xlink:href="#ArialMT-f5"/>
      <use x="416.943359" xlink:href="#ArialMT-65"/>
      <use x="472.558594" xlink:href="#ArialMT-73"/>
     </g>
    </g>
    <g id="line2d_20">
     <path d="M 39.882812 48.5925 
L 59.882812 48.5925 
" style="fill:none;stroke:#ff7f0e;stroke-linecap:round;stroke-width:1.5;"/>
    </g>
    <g id="line2d_21"/>
    <g id="text_18">
     <!-- UTI -->
     <g style="fill:#262626;" transform="translate(67.882812 52.0925)scale(0.1 -0.1)">
      <defs>
       <path d="M 3500 4581 
L 4106 4581 
L 4106 1934 
Q 4106 1244 3950 837 
Q 3794 431 3386 176 
Q 2978 -78 2316 -78 
Q 1672 -78 1262 144 
Q 853 366 678 786 
Q 503 1206 503 1934 
L 503 4581 
L 1109 4581 
L 1109 1938 
Q 1109 1341 1220 1058 
Q 1331 775 1601 622 
Q 1872 469 2263 469 
Q 2931 469 3215 772 
Q 3500 1075 3500 1938 
L 3500 4581 
z
" id="ArialMT-55" transform="scale(0.015625)"/>
       <path d="M 1659 0 
L 1659 4041 
L 150 4041 
L 150 4581 
L 3781 4581 
L 3781 4041 
L 2266 4041 
L 2266 0 
L 1659 0 
z
" id="ArialMT-54" transform="scale(0.015625)"/>
      </defs>
      <use xlink:href="#ArialMT-55"/>
      <use x="72.216797" xlink:href="#ArialMT-54"/>
      <use x="133.300781" xlink:href="#ArialMT-49"/>
     </g>
    </g>
   </g>
  </g>
 </g>
 <defs>
  <clipPath id="pc03cd4fe8a">
   <rect height="271.8" width="558" x="30.882812" y="21.789375"/>
  </clipPath>
 </defs>
</svg>
