<?xml version="1.0" encoding="utf-8" standalone="no"?>
<!DOCTYPE svg PUBLIC "-//W3C//DTD SVG 1.1//EN"
  "http://www.w3.org/Graphics/SVG/1.1/DTD/svg11.dtd">
<svg height="340.273125pt" version="1.1" viewBox="0 0 705.6 340.273125" width="705.6pt" xmlns="http://www.w3.org/2000/svg" xmlns:xlink="http://www.w3.org/1999/xlink">
 <metadata>
  <rdf:RDF xmlns:cc="http://creativecommons.org/ns#" xmlns:dc="http://purl.org/dc/elements/1.1/" xmlns:rdf="http://www.w3.org/1999/02/22-rdf-syntax-ns#">
   <cc:Work>
    <dc:type rdf:resource="http://purl.org/dc/dcmitype/StillImage"/>
    <dc:date>2021-08-10T18:19:37.285164</dc:date>
    <dc:format>image/svg+xml</dc:format>
    <dc:creator>
     <cc:Agent>
      <dc:title>Matplotlib v3.4.2, https://matplotlib.org/</dc:title>
     </cc:Agent>
    </dc:creator>
   </cc:Work>
  </rdf:RDF>
 </metadata>
 <defs>
  <style type="text/css">*{stroke-linecap:butt;stroke-linejoin:round;}</style>
 </defs>
 <g id="figure_1">
  <g id="patch_1">
   <path d="M 0 340.273125 
L 705.6 340.273125 
L 705.6 0 
L 0 0 
z
" style="fill:#ffffff;"/>
  </g>
  <g id="axes_1">
   <g id="patch_2">
    <path d="M 82.8 298.989375 
L 640.8 298.989375 
L 640.8 21.789375 
L 82.8 21.789375 
z
" style="fill:#ffffff;"/>
   </g>
   <g id="matplotlib.axis_1">
    <g id="xtick_1">
     <g id="line2d_1">
      <path clip-path="url(#p850d8c3931)" d="M 90.224719 298.989375 
L 90.224719 21.789375 
" style="fill:none;stroke:#cccccc;stroke-linecap:round;stroke-width:0.8;"/>
     </g>
     <g id="text_1">
      <!-- 2020-03 -->
      <g style="fill:#262626;" transform="translate(71.877062 313.147188)scale(0.1 -0.1)">
       <defs>
        <path d="M 3222 541 
L 3222 0 
L 194 0 
Q 188 203 259 391 
Q 375 700 629 1000 
Q 884 1300 1366 1694 
Q 2113 2306 2375 2664 
Q 2638 3022 2638 3341 
Q 2638 3675 2398 3904 
Q 2159 4134 1775 4134 
Q 1369 4134 1125 3890 
Q 881 3647 878 3216 
L 300 3275 
Q 359 3922 746 4261 
Q 1134 4600 1788 4600 
Q 2447 4600 2831 4234 
Q 3216 3869 3216 3328 
Q 3216 3053 3103 2787 
Q 2991 2522 2730 2228 
Q 2469 1934 1863 1422 
Q 1356 997 1212 845 
Q 1069 694 975 541 
L 3222 541 
z
" id="ArialMT-32" transform="scale(0.015625)"/>
        <path d="M 266 2259 
Q 266 3072 433 3567 
Q 600 4063 929 4331 
Q 1259 4600 1759 4600 
Q 2128 4600 2406 4451 
Q 2684 4303 2865 4023 
Q 3047 3744 3150 3342 
Q 3253 2941 3253 2259 
Q 3253 1453 3087 958 
Q 2922 463 2592 192 
Q 2263 -78 1759 -78 
Q 1097 -78 719 397 
Q 266 969 266 2259 
z
M 844 2259 
Q 844 1131 1108 757 
Q 1372 384 1759 384 
Q 2147 384 2411 759 
Q 2675 1134 2675 2259 
Q 2675 3391 2411 3762 
Q 2147 4134 1753 4134 
Q 1366 4134 1134 3806 
Q 844 3388 844 2259 
z
" id="ArialMT-30" transform="scale(0.015625)"/>
        <path d="M 203 1375 
L 203 1941 
L 1931 1941 
L 1931 1375 
L 203 1375 
z
" id="ArialMT-2d" transform="scale(0.015625)"/>
        <path d="M 269 1209 
L 831 1284 
Q 928 806 1161 595 
Q 1394 384 1728 384 
Q 2125 384 2398 659 
Q 2672 934 2672 1341 
Q 2672 1728 2419 1979 
Q 2166 2231 1775 2231 
Q 1616 2231 1378 2169 
L 1441 2663 
Q 1497 2656 1531 2656 
Q 1891 2656 2178 2843 
Q 2466 3031 2466 3422 
Q 2466 3731 2256 3934 
Q 2047 4138 1716 4138 
Q 1388 4138 1169 3931 
Q 950 3725 888 3313 
L 325 3413 
Q 428 3978 793 4289 
Q 1159 4600 1703 4600 
Q 2078 4600 2393 4439 
Q 2709 4278 2876 4000 
Q 3044 3722 3044 3409 
Q 3044 3113 2884 2869 
Q 2725 2625 2413 2481 
Q 2819 2388 3044 2092 
Q 3269 1797 3269 1353 
Q 3269 753 2831 336 
Q 2394 -81 1725 -81 
Q 1122 -81 723 278 
Q 325 638 269 1209 
z
" id="ArialMT-33" transform="scale(0.015625)"/>
       </defs>
       <use xlink:href="#ArialMT-32"/>
       <use x="55.615234" xlink:href="#ArialMT-30"/>
       <use x="111.230469" xlink:href="#ArialMT-32"/>
       <use x="166.845703" xlink:href="#ArialMT-30"/>
       <use x="222.460938" xlink:href="#ArialMT-2d"/>
       <use x="255.761719" xlink:href="#ArialMT-30"/>
       <use x="311.376953" xlink:href="#ArialMT-33"/>
      </g>
     </g>
    </g>
    <g id="xtick_2">
     <g id="line2d_2">
      <path clip-path="url(#p850d8c3931)" d="M 151.017717 298.989375 
L 151.017717 21.789375 
" style="fill:none;stroke:#cccccc;stroke-linecap:round;stroke-width:0.8;"/>
     </g>
     <g id="text_2">
      <!-- 2020-05 -->
      <g style="fill:#262626;" transform="translate(132.670061 313.147188)scale(0.1 -0.1)">
       <defs>
        <path d="M 266 1200 
L 856 1250 
Q 922 819 1161 601 
Q 1400 384 1738 384 
Q 2144 384 2425 690 
Q 2706 997 2706 1503 
Q 2706 1984 2436 2262 
Q 2166 2541 1728 2541 
Q 1456 2541 1237 2417 
Q 1019 2294 894 2097 
L 366 2166 
L 809 4519 
L 3088 4519 
L 3088 3981 
L 1259 3981 
L 1013 2750 
Q 1425 3038 1878 3038 
Q 2478 3038 2890 2622 
Q 3303 2206 3303 1553 
Q 3303 931 2941 478 
Q 2500 -78 1738 -78 
Q 1113 -78 717 272 
Q 322 622 266 1200 
z
" id="ArialMT-35" transform="scale(0.015625)"/>
       </defs>
       <use xlink:href="#ArialMT-32"/>
       <use x="55.615234" xlink:href="#ArialMT-30"/>
       <use x="111.230469" xlink:href="#ArialMT-32"/>
       <use x="166.845703" xlink:href="#ArialMT-30"/>
       <use x="222.460938" xlink:href="#ArialMT-2d"/>
       <use x="255.761719" xlink:href="#ArialMT-30"/>
       <use x="311.376953" xlink:href="#ArialMT-35"/>
      </g>
     </g>
    </g>
    <g id="xtick_3">
     <g id="line2d_3">
      <path clip-path="url(#p850d8c3931)" d="M 211.810716 298.989375 
L 211.810716 21.789375 
" style="fill:none;stroke:#cccccc;stroke-linecap:round;stroke-width:0.8;"/>
     </g>
     <g id="text_3">
      <!-- 2020-07 -->
      <g style="fill:#262626;" transform="translate(193.46306 313.147188)scale(0.1 -0.1)">
       <defs>
        <path d="M 303 3981 
L 303 4522 
L 3269 4522 
L 3269 4084 
Q 2831 3619 2401 2847 
Q 1972 2075 1738 1259 
Q 1569 684 1522 0 
L 944 0 
Q 953 541 1156 1306 
Q 1359 2072 1739 2783 
Q 2119 3494 2547 3981 
L 303 3981 
z
" id="ArialMT-37" transform="scale(0.015625)"/>
       </defs>
       <use xlink:href="#ArialMT-32"/>
       <use x="55.615234" xlink:href="#ArialMT-30"/>
       <use x="111.230469" xlink:href="#ArialMT-32"/>
       <use x="166.845703" xlink:href="#ArialMT-30"/>
       <use x="222.460938" xlink:href="#ArialMT-2d"/>
       <use x="255.761719" xlink:href="#ArialMT-30"/>
       <use x="311.376953" xlink:href="#ArialMT-37"/>
      </g>
     </g>
    </g>
    <g id="xtick_4">
     <g id="line2d_4">
      <path clip-path="url(#p850d8c3931)" d="M 273.600321 298.989375 
L 273.600321 21.789375 
" style="fill:none;stroke:#cccccc;stroke-linecap:round;stroke-width:0.8;"/>
     </g>
     <g id="text_4">
      <!-- 2020-09 -->
      <g style="fill:#262626;" transform="translate(255.252665 313.147188)scale(0.1 -0.1)">
       <defs>
        <path d="M 350 1059 
L 891 1109 
Q 959 728 1153 556 
Q 1347 384 1650 384 
Q 1909 384 2104 503 
Q 2300 622 2425 820 
Q 2550 1019 2634 1356 
Q 2719 1694 2719 2044 
Q 2719 2081 2716 2156 
Q 2547 1888 2255 1720 
Q 1963 1553 1622 1553 
Q 1053 1553 659 1965 
Q 266 2378 266 3053 
Q 266 3750 677 4175 
Q 1088 4600 1706 4600 
Q 2153 4600 2523 4359 
Q 2894 4119 3086 3673 
Q 3278 3228 3278 2384 
Q 3278 1506 3087 986 
Q 2897 466 2520 194 
Q 2144 -78 1638 -78 
Q 1100 -78 759 220 
Q 419 519 350 1059 
z
M 2653 3081 
Q 2653 3566 2395 3850 
Q 2138 4134 1775 4134 
Q 1400 4134 1122 3828 
Q 844 3522 844 3034 
Q 844 2597 1108 2323 
Q 1372 2050 1759 2050 
Q 2150 2050 2401 2323 
Q 2653 2597 2653 3081 
z
" id="ArialMT-39" transform="scale(0.015625)"/>
       </defs>
       <use xlink:href="#ArialMT-32"/>
       <use x="55.615234" xlink:href="#ArialMT-30"/>
       <use x="111.230469" xlink:href="#ArialMT-32"/>
       <use x="166.845703" xlink:href="#ArialMT-30"/>
       <use x="222.460938" xlink:href="#ArialMT-2d"/>
       <use x="255.761719" xlink:href="#ArialMT-30"/>
       <use x="311.376953" xlink:href="#ArialMT-39"/>
      </g>
     </g>
    </g>
    <g id="xtick_5">
     <g id="line2d_5">
      <path clip-path="url(#p850d8c3931)" d="M 334.39332 298.989375 
L 334.39332 21.789375 
" style="fill:none;stroke:#cccccc;stroke-linecap:round;stroke-width:0.8;"/>
     </g>
     <g id="text_5">
      <!-- 2020-11 -->
      <g style="fill:#262626;" transform="translate(316.414414 313.147188)scale(0.1 -0.1)">
       <defs>
        <path d="M 2384 0 
L 1822 0 
L 1822 3584 
Q 1619 3391 1289 3197 
Q 959 3003 697 2906 
L 697 3450 
Q 1169 3672 1522 3987 
Q 1875 4303 2022 4600 
L 2384 4600 
L 2384 0 
z
" id="ArialMT-31" transform="scale(0.015625)"/>
       </defs>
       <use xlink:href="#ArialMT-32"/>
       <use x="55.615234" xlink:href="#ArialMT-30"/>
       <use x="111.230469" xlink:href="#ArialMT-32"/>
       <use x="166.845703" xlink:href="#ArialMT-30"/>
       <use x="222.460938" xlink:href="#ArialMT-2d"/>
       <use x="255.761719" xlink:href="#ArialMT-31"/>
       <use x="304.001953" xlink:href="#ArialMT-31"/>
      </g>
     </g>
    </g>
    <g id="xtick_6">
     <g id="line2d_6">
      <path clip-path="url(#p850d8c3931)" d="M 395.186319 298.989375 
L 395.186319 21.789375 
" style="fill:none;stroke:#cccccc;stroke-linecap:round;stroke-width:0.8;"/>
     </g>
     <g id="text_6">
      <!-- 2021-01 -->
      <g style="fill:#262626;" transform="translate(376.838663 313.147188)scale(0.1 -0.1)">
       <use xlink:href="#ArialMT-32"/>
       <use x="55.615234" xlink:href="#ArialMT-30"/>
       <use x="111.230469" xlink:href="#ArialMT-32"/>
       <use x="166.845703" xlink:href="#ArialMT-31"/>
       <use x="222.460938" xlink:href="#ArialMT-2d"/>
       <use x="255.761719" xlink:href="#ArialMT-30"/>
       <use x="311.376953" xlink:href="#ArialMT-31"/>
      </g>
     </g>
    </g>
    <g id="xtick_7">
     <g id="line2d_7">
      <path clip-path="url(#p850d8c3931)" d="M 453.986105 298.989375 
L 453.986105 21.789375 
" style="fill:none;stroke:#cccccc;stroke-linecap:round;stroke-width:0.8;"/>
     </g>
     <g id="text_7">
      <!-- 2021-03 -->
      <g style="fill:#262626;" transform="translate(435.638448 313.147188)scale(0.1 -0.1)">
       <use xlink:href="#ArialMT-32"/>
       <use x="55.615234" xlink:href="#ArialMT-30"/>
       <use x="111.230469" xlink:href="#ArialMT-32"/>
       <use x="166.845703" xlink:href="#ArialMT-31"/>
       <use x="222.460938" xlink:href="#ArialMT-2d"/>
       <use x="255.761719" xlink:href="#ArialMT-30"/>
       <use x="311.376953" xlink:href="#ArialMT-33"/>
      </g>
     </g>
    </g>
    <g id="xtick_8">
     <g id="line2d_8">
      <path clip-path="url(#p850d8c3931)" d="M 514.779103 298.989375 
L 514.779103 21.789375 
" style="fill:none;stroke:#cccccc;stroke-linecap:round;stroke-width:0.8;"/>
     </g>
     <g id="text_8">
      <!-- 2021-05 -->
      <g style="fill:#262626;" transform="translate(496.431447 313.147188)scale(0.1 -0.1)">
       <use xlink:href="#ArialMT-32"/>
       <use x="55.615234" xlink:href="#ArialMT-30"/>
       <use x="111.230469" xlink:href="#ArialMT-32"/>
       <use x="166.845703" xlink:href="#ArialMT-31"/>
       <use x="222.460938" xlink:href="#ArialMT-2d"/>
       <use x="255.761719" xlink:href="#ArialMT-30"/>
       <use x="311.376953" xlink:href="#ArialMT-35"/>
      </g>
     </g>
    </g>
    <g id="xtick_9">
     <g id="line2d_9">
      <path clip-path="url(#p850d8c3931)" d="M 575.572102 298.989375 
L 575.572102 21.789375 
" style="fill:none;stroke:#cccccc;stroke-linecap:round;stroke-width:0.8;"/>
     </g>
     <g id="text_9">
      <!-- 2021-07 -->
      <g style="fill:#262626;" transform="translate(557.224446 313.147188)scale(0.1 -0.1)">
       <use xlink:href="#ArialMT-32"/>
       <use x="55.615234" xlink:href="#ArialMT-30"/>
       <use x="111.230469" xlink:href="#ArialMT-32"/>
       <use x="166.845703" xlink:href="#ArialMT-31"/>
       <use x="222.460938" xlink:href="#ArialMT-2d"/>
       <use x="255.761719" xlink:href="#ArialMT-30"/>
       <use x="311.376953" xlink:href="#ArialMT-37"/>
      </g>
     </g>
    </g>
    <g id="xtick_10">
     <g id="line2d_10">
      <path clip-path="url(#p850d8c3931)" d="M 637.361707 298.989375 
L 637.361707 21.789375 
" style="fill:none;stroke:#cccccc;stroke-linecap:round;stroke-width:0.8;"/>
     </g>
     <g id="text_10">
      <!-- 2021-09 -->
      <g style="fill:#262626;" transform="translate(619.014051 313.147188)scale(0.1 -0.1)">
       <use xlink:href="#ArialMT-32"/>
       <use x="55.615234" xlink:href="#ArialMT-30"/>
       <use x="111.230469" xlink:href="#ArialMT-32"/>
       <use x="166.845703" xlink:href="#ArialMT-31"/>
       <use x="222.460938" xlink:href="#ArialMT-2d"/>
       <use x="255.761719" xlink:href="#ArialMT-30"/>
       <use x="311.376953" xlink:href="#ArialMT-39"/>
      </g>
     </g>
    </g>
   </g>
   <g id="matplotlib.axis_2">
    <g id="ytick_1">
     <g id="line2d_11">
      <path clip-path="url(#p850d8c3931)" d="M 82.8 286.389375 
L 640.8 286.389375 
" style="fill:none;stroke:#cccccc;stroke-linecap:round;stroke-width:0.8;"/>
     </g>
     <g id="text_11">
      <!-- 0 -->
      <g style="fill:#262626;" transform="translate(70.239063 289.968281)scale(0.1 -0.1)">
       <use xlink:href="#ArialMT-30"/>
      </g>
     </g>
    </g>
    <g id="ytick_2">
     <g id="line2d_12">
      <path clip-path="url(#p850d8c3931)" d="M 82.8 248.664824 
L 640.8 248.664824 
" style="fill:none;stroke:#cccccc;stroke-linecap:round;stroke-width:0.8;"/>
     </g>
     <g id="text_12">
      <!-- 50 -->
      <g style="fill:#262626;" transform="translate(64.678125 252.24373)scale(0.1 -0.1)">
       <use xlink:href="#ArialMT-35"/>
       <use x="55.615234" xlink:href="#ArialMT-30"/>
      </g>
     </g>
    </g>
    <g id="ytick_3">
     <g id="line2d_13">
      <path clip-path="url(#p850d8c3931)" d="M 82.8 210.940273 
L 640.8 210.940273 
" style="fill:none;stroke:#cccccc;stroke-linecap:round;stroke-width:0.8;"/>
     </g>
     <g id="text_13">
      <!-- 100 -->
      <g style="fill:#262626;" transform="translate(59.117188 214.519179)scale(0.1 -0.1)">
       <use xlink:href="#ArialMT-31"/>
       <use x="55.615234" xlink:href="#ArialMT-30"/>
       <use x="111.230469" xlink:href="#ArialMT-30"/>
      </g>
     </g>
    </g>
    <g id="ytick_4">
     <g id="line2d_14">
      <path clip-path="url(#p850d8c3931)" d="M 82.8 173.215722 
L 640.8 173.215722 
" style="fill:none;stroke:#cccccc;stroke-linecap:round;stroke-width:0.8;"/>
     </g>
     <g id="text_14">
      <!-- 150 -->
      <g style="fill:#262626;" transform="translate(59.117188 176.794629)scale(0.1 -0.1)">
       <use xlink:href="#ArialMT-31"/>
       <use x="55.615234" xlink:href="#ArialMT-35"/>
       <use x="111.230469" xlink:href="#ArialMT-30"/>
      </g>
     </g>
    </g>
    <g id="ytick_5">
     <g id="line2d_15">
      <path clip-path="url(#p850d8c3931)" d="M 82.8 135.491171 
L 640.8 135.491171 
" style="fill:none;stroke:#cccccc;stroke-linecap:round;stroke-width:0.8;"/>
     </g>
     <g id="text_15">
      <!-- 200 -->
      <g style="fill:#262626;" transform="translate(59.117188 139.070078)scale(0.1 -0.1)">
       <use xlink:href="#ArialMT-32"/>
       <use x="55.615234" xlink:href="#ArialMT-30"/>
       <use x="111.230469" xlink:href="#ArialMT-30"/>
      </g>
     </g>
    </g>
    <g id="ytick_6">
     <g id="line2d_16">
      <path clip-path="url(#p850d8c3931)" d="M 82.8 97.766621 
L 640.8 97.766621 
" style="fill:none;stroke:#cccccc;stroke-linecap:round;stroke-width:0.8;"/>
     </g>
     <g id="text_16">
      <!-- 250 -->
      <g style="fill:#262626;" transform="translate(59.117188 101.345527)scale(0.1 -0.1)">
       <use xlink:href="#ArialMT-32"/>
       <use x="55.615234" xlink:href="#ArialMT-35"/>
       <use x="111.230469" xlink:href="#ArialMT-30"/>
      </g>
     </g>
    </g>
    <g id="ytick_7">
     <g id="line2d_17">
      <path clip-path="url(#p850d8c3931)" d="M 82.8 60.04207 
L 640.8 60.04207 
" style="fill:none;stroke:#cccccc;stroke-linecap:round;stroke-width:0.8;"/>
     </g>
     <g id="text_17">
      <!-- 300 -->
      <g style="fill:#262626;" transform="translate(59.117188 63.620976)scale(0.1 -0.1)">
       <use xlink:href="#ArialMT-33"/>
       <use x="55.615234" xlink:href="#ArialMT-30"/>
       <use x="111.230469" xlink:href="#ArialMT-30"/>
      </g>
     </g>
    </g>
    <g id="ytick_8">
     <g id="line2d_18">
      <path clip-path="url(#p850d8c3931)" d="M 82.8 22.317519 
L 640.8 22.317519 
" style="fill:none;stroke:#cccccc;stroke-linecap:round;stroke-width:0.8;"/>
     </g>
     <g id="text_18">
      <!-- 350 -->
      <g style="fill:#262626;" transform="translate(59.117188 25.896425)scale(0.1 -0.1)">
       <use xlink:href="#ArialMT-33"/>
       <use x="55.615234" xlink:href="#ArialMT-35"/>
       <use x="111.230469" xlink:href="#ArialMT-30"/>
      </g>
     </g>
    </g>
   </g>
   <g id="line2d_19">
    <path clip-path="url(#p850d8c3931)" d="M 108.163636 278.089974 
L 109.160243 278.089974 
L 110.156849 276.580992 
L 111.153456 276.580992 
L 112.150063 269.036082 
L 113.146669 255.455243 
L 114.143276 254.700752 
L 115.139882 251.682788 
L 116.136489 247.155842 
L 117.133095 246.401351 
L 118.129702 246.401351 
L 119.126308 245.64686 
L 120.122915 242.628896 
L 121.119521 226.030094 
L 122.116128 224.521112 
L 123.112734 224.521112 
L 124.109341 201.886381 
L 125.105947 200.377399 
L 126.102554 213.958237 
L 127.099161 210.185782 
L 128.095767 204.149854 
L 129.092374 202.640872 
L 130.08898 199.622908 
L 131.085587 199.622908 
L 132.082193 198.113926 
L 133.0788 186.796561 
L 134.075406 185.287579 
L 135.072013 189.060034 
L 136.068619 176.233686 
L 137.065226 173.215722 
L 138.061832 170.952249 
L 139.058439 167.179794 
L 140.055046 176.988177 
L 141.051652 176.988177 
L 142.048259 173.970213 
L 143.044865 167.934285 
L 144.041472 142.281591 
L 145.038078 140.772609 
L 146.034685 176.233686 
L 147.031291 178.497159 
L 148.027898 181.515124 
L 149.024504 176.233686 
L 150.021111 181.515124 
L 151.017717 173.215722 
L 152.014324 168.688776 
L 153.010931 169.443267 
L 154.007537 167.179794 
L 155.004144 161.143866 
L 156.00075 158.125902 
L 156.997357 162.652848 
L 157.993963 165.670812 
L 158.99057 161.143866 
L 159.987176 158.125902 
L 160.983783 161.898357 
L 161.980389 146.054046 
L 162.976996 152.844465 
L 163.973602 149.826501 
L 164.970209 146.054046 
L 165.966816 152.089974 
L 166.963422 140.772609 
L 167.960029 139.263626 
L 168.956635 141.5271 
L 169.953242 133.982189 
L 170.949848 137.000153 
L 171.946455 139.263626 
L 172.943061 140.772609 
L 173.939668 138.509135 
L 174.936274 137.754644 
L 175.932881 133.227698 
L 176.929487 134.73668 
L 177.926094 135.491171 
L 178.9227 123.419315 
L 179.919307 122.664824 
L 180.915914 124.173806 
L 181.91252 129.455243 
L 182.909127 129.455243 
L 183.905733 128.700752 
L 184.90234 127.19177 
L 185.898946 122.664824 
L 186.895553 122.664824 
L 187.892159 110.592968 
L 188.888766 115.874405 
L 189.885372 109.083986 
L 190.881979 114.365423 
L 191.878585 106.820513 
L 192.875192 109.838477 
L 193.871799 103.802549 
L 194.868405 112.856441 
L 195.865012 120.401351 
L 196.861618 122.664824 
L 197.858225 126.437279 
L 198.854831 130.964225 
L 199.851438 127.946261 
L 200.848044 122.664824 
L 201.844651 121.910333 
L 202.841257 118.892369 
L 203.837864 123.419315 
L 204.83447 135.491171 
L 205.831077 137.000153 
L 206.827684 131.718716 
L 207.82429 134.73668 
L 208.820897 141.5271 
L 209.817503 144.545064 
L 210.81411 150.580992 
L 211.810716 150.580992 
L 212.807323 156.61692 
L 213.803929 149.07201 
L 214.800536 152.844465 
L 215.797142 154.353447 
L 216.793749 157.371411 
L 217.790355 148.317519 
L 218.786962 164.916321 
L 219.783568 162.652848 
L 220.780175 161.898357 
L 221.776782 166.425303 
L 222.773388 171.70674 
L 223.769995 170.197758 
L 224.766601 149.826501 
L 225.763208 161.898357 
L 226.759814 153.598956 
L 227.756421 148.317519 
L 228.753027 156.61692 
L 229.749634 154.353447 
L 231.742847 158.880393 
L 232.739453 154.353447 
L 233.73606 157.371411 
L 234.732667 152.844465 
L 235.729273 154.353447 
L 237.722486 158.880393 
L 238.719093 163.407339 
L 239.715699 170.952249 
L 240.712306 173.215722 
L 241.708912 173.970213 
L 242.705519 177.742668 
L 243.702125 180.006141 
L 244.698732 177.742668 
L 245.695338 184.533088 
L 246.691945 188.305543 
L 247.688552 196.604944 
L 248.685158 194.341471 
L 249.681765 195.850453 
L 250.678371 208.6768 
L 251.674978 203.395363 
L 252.671584 207.167818 
L 253.668191 211.694764 
L 254.664797 208.6768 
L 255.661404 207.922309 
L 256.65801 204.904345 
L 257.654617 203.395363 
L 258.651223 202.640872 
L 259.64783 189.814525 
L 260.644437 198.113926 
L 262.63765 207.167818 
L 263.634256 204.904345 
L 264.630863 214.712728 
L 265.627469 215.467219 
L 266.624076 213.203746 
L 267.620682 215.467219 
L 268.617289 219.239674 
L 269.613895 213.203746 
L 270.610502 221.503147 
L 271.607108 207.167818 
L 272.603715 197.359435 
L 273.600321 195.850453 
L 274.596928 199.622908 
L 275.593535 201.13189 
L 276.590141 201.13189 
L 277.586748 203.395363 
L 278.583354 203.395363 
L 279.579961 211.694764 
L 280.576567 210.185782 
L 281.573174 200.377399 
L 282.56978 203.395363 
L 283.566387 200.377399 
L 284.562993 199.622908 
L 285.5596 200.377399 
L 286.556206 203.395363 
L 288.54942 212.449255 
L 289.546026 213.203746 
L 290.542633 210.940273 
L 291.539239 209.431291 
L 293.532452 210.940273 
L 294.529059 217.730692 
L 295.525665 217.730692 
L 296.522272 231.311531 
L 297.518878 229.048058 
L 298.515485 227.539076 
L 299.512091 223.012129 
L 300.508698 221.503147 
L 301.505305 222.257638 
L 302.501911 219.239674 
L 303.498518 223.012129 
L 304.495124 222.257638 
L 305.491731 217.730692 
L 306.488337 219.239674 
L 307.484944 219.994165 
L 308.48155 214.712728 
L 309.478157 210.940273 
L 310.474763 213.203746 
L 311.47137 210.185782 
L 312.467976 212.449255 
L 313.464583 209.431291 
L 314.461189 214.712728 
L 315.457796 215.467219 
L 316.454403 214.712728 
L 317.451009 212.449255 
L 318.447616 213.958237 
L 319.444222 216.976201 
L 320.440829 216.22171 
L 321.437435 216.22171 
L 322.434042 213.203746 
L 323.430648 207.167818 
L 324.427255 204.904345 
L 325.423861 205.658836 
L 326.420468 207.922309 
L 327.417074 204.149854 
L 328.413681 204.149854 
L 329.410288 201.886381 
L 330.406894 195.095962 
L 331.403501 196.604944 
L 332.400107 193.58698 
L 333.396714 193.58698 
L 334.39332 190.569016 
L 335.389927 186.796561 
L 336.386533 180.760632 
L 337.38314 189.060034 
L 338.379746 194.341471 
L 339.376353 189.060034 
L 340.372959 183.024106 
L 341.369566 186.04207 
L 342.366173 179.25165 
L 343.362779 174.724704 
L 344.359386 164.916321 
L 345.355992 166.425303 
L 346.352599 169.443267 
L 347.349205 173.970213 
L 348.345812 173.215722 
L 349.342418 168.688776 
L 350.339025 169.443267 
L 351.335631 153.598956 
L 352.332238 149.826501 
L 353.328844 152.089974 
L 354.325451 138.509135 
L 355.322058 139.263626 
L 356.318664 143.790573 
L 357.315271 137.754644 
L 358.311877 132.473207 
L 359.308484 132.473207 
L 360.30509 134.73668 
L 361.301697 127.946261 
L 362.298303 138.509135 
L 363.29491 142.281591 
L 364.291516 147.563028 
L 365.288123 140.018118 
L 366.284729 141.5271 
L 367.281336 149.07201 
L 368.277942 145.299555 
L 369.274549 155.862429 
L 370.271156 164.916321 
L 371.267762 155.862429 
L 372.264369 142.281591 
L 373.260975 154.353447 
L 374.257582 150.580992 
L 375.254188 149.07201 
L 376.250795 155.862429 
L 379.240614 171.70674 
L 380.237221 170.197758 
L 381.233827 169.443267 
L 382.230434 174.724704 
L 383.227041 178.497159 
L 384.223647 173.970213 
L 385.220254 170.952249 
L 386.21686 170.952249 
L 387.213467 175.479195 
L 388.210073 182.269615 
L 389.20668 184.533088 
L 390.203286 178.497159 
L 391.199893 177.742668 
L 392.196499 173.215722 
L 393.193106 175.479195 
L 394.189712 173.970213 
L 395.186319 183.778597 
L 396.182926 180.760632 
L 397.179532 187.551052 
L 398.176139 197.359435 
L 399.172745 195.850453 
L 400.169352 195.095962 
L 401.165958 196.604944 
L 402.162565 192.832489 
L 404.155778 194.341471 
L 405.152384 184.533088 
L 406.148991 187.551052 
L 407.145597 179.25165 
L 408.142204 180.006141 
L 409.138811 176.233686 
L 411.132024 185.287579 
L 412.12863 178.497159 
L 413.125237 181.515124 
L 414.121843 187.551052 
L 415.11845 195.850453 
L 416.115056 189.060034 
L 417.111663 192.832489 
L 418.108269 189.814525 
L 419.104876 199.622908 
L 420.101482 204.149854 
L 421.098089 195.095962 
L 422.094695 201.13189 
L 423.091302 196.604944 
L 424.087909 201.886381 
L 425.084515 204.149854 
L 426.081122 195.095962 
L 427.077728 194.341471 
L 428.074335 191.323507 
L 429.070941 196.604944 
L 430.067548 195.850453 
L 431.064154 196.604944 
L 432.060761 200.377399 
L 433.057367 203.395363 
L 434.053974 210.185782 
L 435.05058 210.940273 
L 436.047187 209.431291 
L 437.043794 206.413327 
L 438.0404 216.976201 
L 439.037007 216.22171 
L 440.033613 206.413327 
L 441.03022 203.395363 
L 442.026826 214.712728 
L 443.023433 214.712728 
L 444.020039 211.694764 
L 445.016646 213.958237 
L 446.013252 209.431291 
L 447.009859 202.640872 
L 448.006465 198.113926 
L 449.003072 201.13189 
L 449.999679 191.323507 
L 450.996285 192.077998 
L 451.992892 205.658836 
L 452.989498 189.060034 
L 453.986105 180.760632 
L 454.982711 186.796561 
L 455.979318 178.497159 
L 456.975924 180.006141 
L 457.972531 177.742668 
L 458.969137 186.796561 
L 459.965744 183.778597 
L 460.96235 173.970213 
L 461.958957 169.443267 
L 463.95217 161.898357 
L 465.945383 148.317519 
L 466.94199 139.263626 
L 467.938596 133.982189 
L 468.935203 118.892369 
L 469.931809 115.874405 
L 470.928416 112.10195 
L 471.925022 106.820513 
L 472.921629 95.503147 
L 473.918235 81.922309 
L 474.914842 74.377399 
L 475.911448 64.569016 
L 476.908055 57.778597 
L 477.904662 39.670812 
L 478.901268 49.479195 
L 479.897875 40.425303 
L 480.894481 44.197758 
L 481.891088 44.197758 
L 482.887694 34.389375 
L 483.884301 35.898357 
L 484.880907 41.179794 
L 485.877514 37.407339 
L 486.87412 42.688776 
L 487.870727 44.197758 
L 488.867333 41.179794 
L 489.86394 45.70674 
L 490.860547 46.461231 
L 491.857153 56.269615 
L 492.85376 55.515124 
L 493.850366 81.922309 
L 494.846973 87.958237 
L 495.843579 78.904345 
L 496.840186 87.203746 
L 497.836792 84.940273 
L 498.833399 81.922309 
L 499.830005 91.730692 
L 500.826612 78.904345 
L 501.823218 97.012129 
L 502.819825 89.467219 
L 503.816432 90.976201 
L 504.813038 99.275603 
L 505.809645 109.083986 
L 506.806251 109.838477 
L 507.802858 118.892369 
L 508.799464 125.682788 
L 509.796071 122.664824 
L 510.792677 127.19177 
L 511.789284 136.245662 
L 512.78589 133.227698 
L 513.782497 128.700752 
L 514.779103 113.610932 
L 515.77571 121.910333 
L 516.772316 124.173806 
L 517.768923 130.209734 
L 518.76553 118.892369 
L 519.762136 110.592968 
L 520.758743 123.419315 
L 521.755349 133.227698 
L 522.751956 118.137878 
L 523.748562 121.155842 
L 524.745169 115.874405 
L 525.741775 121.155842 
L 526.738382 122.664824 
L 527.734988 127.946261 
L 528.731595 121.155842 
L 529.728201 112.10195 
L 530.724808 109.838477 
L 531.721415 105.311531 
L 532.718021 107.575004 
L 533.714628 111.347459 
L 534.711234 100.030094 
L 535.707841 98.521112 
L 536.704447 97.766621 
L 537.701054 100.030094 
L 538.69766 94.748656 
L 539.694267 90.22171 
L 540.690873 80.413327 
L 541.68748 78.149854 
L 542.684086 68.341471 
L 543.680693 78.149854 
L 544.6773 74.377399 
L 545.673906 90.976201 
L 546.670513 92.485183 
L 547.667119 94.748656 
L 548.663726 93.239674 
L 549.660332 97.766621 
L 550.656939 93.239674 
L 551.653545 92.485183 
L 552.650152 92.485183 
L 553.646758 105.311531 
L 554.643365 112.856441 
L 555.639971 109.083986 
L 556.636578 115.119914 
L 557.633184 111.347459 
L 558.629791 115.874405 
L 559.626398 119.64686 
L 560.623004 117.383387 
L 561.619611 124.173806 
L 562.616217 124.173806 
L 563.612824 134.73668 
L 564.60943 140.018118 
L 565.606037 135.491171 
L 567.59925 148.317519 
L 568.595856 152.089974 
L 569.592463 158.880393 
L 570.589069 158.880393 
L 571.585676 167.934285 
L 572.582283 170.952249 
L 573.578889 176.988177 
L 574.575496 182.269615 
L 575.572102 188.305543 
L 576.568709 184.533088 
L 577.565315 192.832489 
L 578.561922 197.359435 
L 579.558528 191.323507 
L 580.555135 194.341471 
L 581.551741 192.832489 
L 583.544954 200.377399 
L 584.541561 199.622908 
L 585.538168 192.077998 
L 586.534774 195.095962 
L 587.531381 179.25165 
L 588.527987 182.269615 
L 589.524594 191.323507 
L 590.5212 186.796561 
L 591.517807 191.323507 
L 592.514413 196.604944 
L 593.51102 192.077998 
L 594.507626 200.377399 
L 595.504233 200.377399 
L 596.500839 204.904345 
L 597.497446 204.149854 
L 598.494053 211.694764 
L 599.490659 212.449255 
L 600.487266 219.239674 
L 601.483872 222.257638 
L 602.480479 214.712728 
L 603.477085 225.275603 
L 604.473692 225.275603 
L 605.470298 216.976201 
L 607.463511 219.994165 
L 608.460118 217.730692 
L 609.456724 216.976201 
L 610.453331 216.976201 
L 611.449937 214.712728 
L 612.446544 215.467219 
L 613.443151 211.694764 
L 614.439757 211.694764 
L 615.436364 212.449255 
L 615.436364 212.449255 
" style="fill:none;stroke:#1f77b4;stroke-linecap:round;stroke-width:1.5;"/>
   </g>
   <g id="line2d_20">
    <path clip-path="url(#p850d8c3931)" d="M 108.163636 286.389375 
L 109.160243 286.389375 
L 110.156849 281.107938 
L 111.153456 281.107938 
L 112.150063 279.598956 
L 113.146669 272.054046 
L 114.143276 272.808537 
L 115.139882 269.790573 
L 119.126308 269.790573 
L 120.122915 270.545064 
L 121.119521 267.5271 
L 122.116128 269.036082 
L 123.112734 268.281591 
L 124.109341 265.263626 
L 125.105947 265.263626 
L 126.102554 261.491171 
L 127.099161 258.473207 
L 128.095767 258.473207 
L 129.092374 262.245662 
L 131.085587 262.245662 
L 132.082193 261.491171 
L 133.0788 257.718716 
L 134.075406 259.982189 
L 135.072013 264.509135 
L 136.068619 258.473207 
L 137.065226 253.19177 
L 138.061832 252.437279 
L 139.058439 245.64686 
L 140.055046 250.173806 
L 141.051652 248.664824 
L 142.048259 245.64686 
L 143.044865 238.856441 
L 144.041472 235.083986 
L 145.038078 232.820513 
L 146.034685 238.856441 
L 147.031291 238.856441 
L 149.024504 241.874405 
L 150.021111 238.856441 
L 151.017717 233.575004 
L 152.014324 231.311531 
L 153.010931 229.802549 
L 154.007537 230.55704 
L 155.004144 225.275603 
L 156.00075 225.275603 
L 156.997357 232.820513 
L 157.993963 234.329495 
L 158.99057 229.048058 
L 159.987176 229.048058 
L 161.980389 232.066022 
L 162.976996 236.592968 
L 163.973602 233.575004 
L 164.970209 231.311531 
L 165.966816 235.838477 
L 166.963422 229.048058 
L 167.960029 229.048058 
L 168.956635 227.539076 
L 169.953242 230.55704 
L 170.949848 226.030094 
L 171.946455 226.030094 
L 172.943061 222.257638 
L 173.939668 223.012129 
L 175.932881 221.503147 
L 176.929487 228.293567 
L 177.926094 230.55704 
L 178.9227 225.275603 
L 179.919307 229.048058 
L 180.915914 225.275603 
L 181.91252 220.748656 
L 182.909127 219.239674 
L 183.905733 218.485183 
L 184.90234 221.503147 
L 185.898946 219.239674 
L 186.895553 219.239674 
L 187.892159 214.712728 
L 188.888766 216.976201 
L 189.885372 215.467219 
L 190.881979 215.467219 
L 191.878585 207.922309 
L 192.875192 211.694764 
L 193.871799 216.976201 
L 194.868405 219.239674 
L 195.865012 212.449255 
L 196.861618 216.976201 
L 197.858225 223.012129 
L 198.854831 225.275603 
L 200.848044 223.766621 
L 201.844651 219.239674 
L 202.841257 221.503147 
L 203.837864 219.994165 
L 204.83447 223.012129 
L 205.831077 222.257638 
L 206.827684 223.012129 
L 207.82429 227.539076 
L 208.820897 234.329495 
L 209.817503 233.575004 
L 210.81411 230.55704 
L 211.810716 231.311531 
L 212.807323 234.329495 
L 213.803929 232.066022 
L 214.800536 230.55704 
L 215.797142 231.311531 
L 216.793749 231.311531 
L 217.790355 229.802549 
L 218.786962 236.592968 
L 219.783568 236.592968 
L 220.780175 235.838477 
L 221.776782 238.856441 
L 222.773388 240.365423 
L 223.769995 236.592968 
L 224.766601 231.311531 
L 225.763208 233.575004 
L 226.759814 227.539076 
L 227.756421 230.55704 
L 228.753027 236.592968 
L 229.749634 238.856441 
L 230.74624 237.347459 
L 231.742847 237.347459 
L 232.739453 238.856441 
L 233.73606 233.575004 
L 234.732667 235.083986 
L 235.729273 237.347459 
L 236.72588 237.347459 
L 237.722486 233.575004 
L 238.719093 233.575004 
L 239.715699 238.10195 
L 240.712306 238.10195 
L 241.708912 238.856441 
L 242.705519 241.874405 
L 243.702125 243.383387 
L 244.698732 244.137878 
L 245.695338 246.401351 
L 246.691945 250.173806 
L 247.688552 249.419315 
L 248.685158 246.401351 
L 249.681765 247.155842 
L 250.678371 252.437279 
L 251.674978 252.437279 
L 252.671584 251.682788 
L 253.668191 255.455243 
L 254.664797 254.700752 
L 255.661404 253.19177 
L 256.65801 250.173806 
L 257.654617 251.682788 
L 258.651223 251.682788 
L 259.64783 248.664824 
L 260.644437 253.946261 
L 261.641043 253.946261 
L 262.63765 258.473207 
L 263.634256 256.209734 
L 264.630863 259.227698 
L 265.627469 259.227698 
L 266.624076 259.982189 
L 267.620682 256.964225 
L 269.613895 256.964225 
L 270.610502 260.73668 
L 271.607108 254.700752 
L 272.603715 256.209734 
L 273.600321 252.437279 
L 274.596928 253.946261 
L 275.593535 253.19177 
L 276.590141 253.946261 
L 277.586748 251.682788 
L 278.583354 253.946261 
L 279.579961 255.455243 
L 280.576567 254.700752 
L 281.573174 250.173806 
L 282.56978 251.682788 
L 283.566387 247.910333 
L 284.562993 248.664824 
L 285.5596 253.19177 
L 286.556206 259.227698 
L 287.552813 255.455243 
L 288.54942 255.455243 
L 289.546026 256.209734 
L 290.542633 254.700752 
L 292.535846 256.209734 
L 293.532452 255.455243 
L 294.529059 256.964225 
L 295.525665 262.245662 
L 296.522272 261.491171 
L 297.518878 256.964225 
L 298.515485 257.718716 
L 299.512091 256.964225 
L 300.508698 254.700752 
L 301.505305 253.19177 
L 302.501911 253.19177 
L 303.498518 256.209734 
L 304.495124 257.718716 
L 305.491731 256.964225 
L 307.484944 256.964225 
L 308.48155 256.209734 
L 309.478157 254.700752 
L 310.474763 256.209734 
L 311.47137 256.964225 
L 312.467976 255.455243 
L 313.464583 254.700752 
L 314.461189 258.473207 
L 315.457796 261.491171 
L 316.454403 259.227698 
L 317.451009 261.491171 
L 318.447616 261.491171 
L 319.444222 259.982189 
L 320.440829 262.245662 
L 321.437435 258.473207 
L 322.434042 256.209734 
L 323.430648 255.455243 
L 324.427255 252.437279 
L 327.417074 252.437279 
L 329.410288 249.419315 
L 330.406894 246.401351 
L 331.403501 251.682788 
L 332.400107 251.682788 
L 333.396714 250.928297 
L 334.39332 249.419315 
L 335.389927 246.401351 
L 336.386533 247.155842 
L 338.379746 245.64686 
L 339.376353 244.137878 
L 340.372959 241.874405 
L 341.369566 244.892369 
L 342.366173 235.838477 
L 343.362779 233.575004 
L 344.359386 235.083986 
L 345.355992 234.329495 
L 346.352599 226.784585 
L 347.349205 234.329495 
L 348.345812 233.575004 
L 349.342418 235.838477 
L 350.339025 235.083986 
L 351.335631 227.539076 
L 352.332238 226.030094 
L 353.328844 226.030094 
L 354.325451 216.22171 
L 355.322058 219.994165 
L 356.318664 225.275603 
L 357.315271 221.503147 
L 358.311877 222.257638 
L 359.308484 222.257638 
L 360.30509 223.766621 
L 361.301697 223.012129 
L 362.298303 228.293567 
L 363.29491 229.048058 
L 364.291516 223.766621 
L 365.288123 220.748656 
L 366.284729 222.257638 
L 367.281336 226.784585 
L 368.277942 228.293567 
L 369.274549 226.784585 
L 370.271156 235.083986 
L 371.267762 229.048058 
L 372.264369 229.048058 
L 373.260975 225.275603 
L 374.257582 220.748656 
L 375.254188 223.766621 
L 376.250795 223.766621 
L 377.247401 229.048058 
L 378.244008 231.311531 
L 379.240614 229.048058 
L 380.237221 228.293567 
L 381.233827 231.311531 
L 382.230434 235.838477 
L 383.227041 232.820513 
L 384.223647 230.55704 
L 385.220254 232.066022 
L 386.21686 226.784585 
L 387.213467 232.066022 
L 388.210073 235.083986 
L 389.20668 235.083986 
L 390.203286 226.784585 
L 391.199893 235.083986 
L 392.196499 235.083986 
L 393.193106 238.856441 
L 394.189712 236.592968 
L 395.186319 235.083986 
L 396.182926 236.592968 
L 397.179532 237.347459 
L 398.176139 239.610932 
L 399.172745 241.119914 
L 400.169352 241.874405 
L 401.165958 243.383387 
L 402.162565 241.874405 
L 403.159171 238.856441 
L 404.155778 237.347459 
L 405.152384 232.820513 
L 406.148991 233.575004 
L 407.145597 228.293567 
L 408.142204 226.784585 
L 409.138811 223.766621 
L 410.135417 225.275603 
L 411.132024 227.539076 
L 413.125237 230.55704 
L 414.121843 231.311531 
L 415.11845 233.575004 
L 416.115056 232.066022 
L 417.111663 234.329495 
L 418.108269 229.048058 
L 419.104876 229.802549 
L 420.101482 232.066022 
L 421.098089 231.311531 
L 422.094695 236.592968 
L 425.084515 238.856441 
L 426.081122 235.838477 
L 427.077728 231.311531 
L 428.074335 235.838477 
L 429.070941 232.820513 
L 430.067548 236.592968 
L 431.064154 238.10195 
L 432.060761 242.628896 
L 433.057367 245.64686 
L 434.053974 247.155842 
L 435.05058 244.892369 
L 436.047187 245.64686 
L 437.043794 243.383387 
L 438.0404 250.928297 
L 439.037007 251.682788 
L 440.033613 240.365423 
L 441.03022 244.137878 
L 442.026826 242.628896 
L 443.023433 243.383387 
L 444.020039 239.610932 
L 445.016646 242.628896 
L 446.013252 244.137878 
L 447.009859 241.874405 
L 448.006465 243.383387 
L 449.003072 248.664824 
L 450.996285 239.610932 
L 451.992892 244.892369 
L 452.989498 240.365423 
L 453.986105 237.347459 
L 454.982711 239.610932 
L 455.979318 236.592968 
L 456.975924 236.592968 
L 457.972531 237.347459 
L 458.969137 243.383387 
L 459.965744 233.575004 
L 460.96235 236.592968 
L 461.958957 238.856441 
L 462.955563 232.066022 
L 463.95217 229.048058 
L 464.948777 223.766621 
L 465.945383 211.694764 
L 466.94199 204.904345 
L 467.938596 213.958237 
L 468.935203 201.886381 
L 469.931809 196.604944 
L 470.928416 198.113926 
L 471.925022 186.796561 
L 472.921629 190.569016 
L 473.918235 186.04207 
L 474.914842 187.551052 
L 475.911448 180.760632 
L 476.908055 177.742668 
L 477.904662 165.670812 
L 478.901268 163.407339 
L 479.897875 155.862429 
L 480.894481 151.335483 
L 481.891088 154.353447 
L 482.887694 152.089974 
L 483.884301 150.580992 
L 484.880907 147.563028 
L 486.87412 146.054046 
L 487.870727 149.07201 
L 488.867333 146.808537 
L 489.86394 146.054046 
L 491.857153 143.036082 
L 492.85376 144.545064 
L 493.850366 153.598956 
L 494.846973 153.598956 
L 496.840186 165.670812 
L 497.836792 162.652848 
L 498.833399 158.880393 
L 499.830005 168.688776 
L 500.826612 163.407339 
L 501.823218 172.461231 
L 503.816432 175.479195 
L 504.813038 180.760632 
L 505.809645 189.060034 
L 506.806251 189.814525 
L 507.802858 194.341471 
L 509.796071 192.832489 
L 510.792677 197.359435 
L 511.789284 202.640872 
L 512.78589 198.113926 
L 513.782497 202.640872 
L 514.779103 183.024106 
L 515.77571 198.868417 
L 516.772316 205.658836 
L 517.768923 208.6768 
L 518.76553 198.868417 
L 519.762136 197.359435 
L 520.758743 204.149854 
L 521.755349 200.377399 
L 522.751956 182.269615 
L 523.748562 194.341471 
L 524.745169 192.832489 
L 525.741775 193.58698 
L 526.738382 199.622908 
L 527.734988 204.904345 
L 528.731595 198.868417 
L 529.728201 198.113926 
L 530.724808 194.341471 
L 531.721415 189.814525 
L 532.718021 191.323507 
L 533.714628 195.850453 
L 534.711234 193.58698 
L 535.707841 183.778597 
L 536.704447 183.778597 
L 537.701054 186.04207 
L 538.69766 186.796561 
L 539.694267 183.024106 
L 540.690873 180.760632 
L 541.68748 176.233686 
L 542.684086 174.724704 
L 543.680693 179.25165 
L 544.6773 167.934285 
L 545.673906 176.988177 
L 546.670513 178.497159 
L 547.667119 173.970213 
L 548.663726 168.688776 
L 549.660332 178.497159 
L 550.656939 180.760632 
L 551.653545 181.515124 
L 552.650152 183.778597 
L 553.646758 192.077998 
L 554.643365 195.850453 
L 555.639971 193.58698 
L 556.636578 198.868417 
L 557.633184 197.359435 
L 558.629791 198.868417 
L 559.626398 201.13189 
L 560.623004 200.377399 
L 561.619611 210.185782 
L 562.616217 207.922309 
L 563.612824 208.6768 
L 564.60943 211.694764 
L 565.606037 203.395363 
L 566.602643 204.904345 
L 567.59925 207.922309 
L 568.595856 213.958237 
L 569.592463 222.257638 
L 570.589069 226.030094 
L 571.585676 219.239674 
L 572.582283 219.994165 
L 573.578889 223.766621 
L 574.575496 225.275603 
L 575.572102 227.539076 
L 576.568709 222.257638 
L 577.565315 226.784585 
L 578.561922 230.55704 
L 579.558528 229.048058 
L 580.555135 228.293567 
L 582.548348 234.329495 
L 584.541561 237.347459 
L 585.538168 232.820513 
L 586.534774 235.838477 
L 587.531381 229.802549 
L 588.527987 226.784585 
L 589.524594 229.048058 
L 590.5212 228.293567 
L 591.517807 224.521112 
L 592.514413 229.802549 
L 593.51102 230.55704 
L 594.507626 234.329495 
L 597.497446 241.119914 
L 598.494053 242.628896 
L 599.490659 246.401351 
L 600.487266 244.137878 
L 601.483872 245.64686 
L 602.480479 240.365423 
L 603.477085 247.910333 
L 604.473692 247.910333 
L 605.470298 250.173806 
L 606.466905 247.155842 
L 608.460118 247.155842 
L 609.456724 245.64686 
L 610.453331 245.64686 
L 611.449937 242.628896 
L 612.446544 246.401351 
L 613.443151 247.155842 
L 614.439757 246.401351 
L 615.436364 241.874405 
L 615.436364 241.874405 
" style="fill:none;stroke:#ff7f0e;stroke-linecap:round;stroke-width:1.5;"/>
   </g>
   <g id="patch_3">
    <path d="M 82.8 298.989375 
L 82.8 21.789375 
" style="fill:none;stroke:#cccccc;stroke-linecap:square;stroke-linejoin:miter;stroke-width:0.8;"/>
   </g>
   <g id="patch_4">
    <path d="M 640.8 298.989375 
L 640.8 21.789375 
" style="fill:none;stroke:#cccccc;stroke-linecap:square;stroke-linejoin:miter;stroke-width:0.8;"/>
   </g>
   <g id="patch_5">
    <path d="M 82.8 298.989375 
L 640.8 298.989375 
" style="fill:none;stroke:#cccccc;stroke-linecap:square;stroke-linejoin:miter;stroke-width:0.8;"/>
   </g>
   <g id="patch_6">
    <path d="M 82.8 21.789375 
L 640.8 21.789375 
" style="fill:none;stroke:#cccccc;stroke-linecap:square;stroke-linejoin:miter;stroke-width:0.8;"/>
   </g>
   <g id="text_19">
    <!-- Internações -->
    <g style="fill:#262626;" transform="translate(330.449063 15.789375)scale(0.12 -0.12)">
     <defs>
      <path d="M 597 0 
L 597 4581 
L 1203 4581 
L 1203 0 
L 597 0 
z
" id="ArialMT-49" transform="scale(0.015625)"/>
      <path d="M 422 0 
L 422 3319 
L 928 3319 
L 928 2847 
Q 1294 3394 1984 3394 
Q 2284 3394 2536 3286 
Q 2788 3178 2913 3003 
Q 3038 2828 3088 2588 
Q 3119 2431 3119 2041 
L 3119 0 
L 2556 0 
L 2556 2019 
Q 2556 2363 2490 2533 
Q 2425 2703 2258 2804 
Q 2091 2906 1866 2906 
Q 1506 2906 1245 2678 
Q 984 2450 984 1813 
L 984 0 
L 422 0 
z
" id="ArialMT-6e" transform="scale(0.015625)"/>
      <path d="M 1650 503 
L 1731 6 
Q 1494 -44 1306 -44 
Q 1000 -44 831 53 
Q 663 150 594 308 
Q 525 466 525 972 
L 525 2881 
L 113 2881 
L 113 3319 
L 525 3319 
L 525 4141 
L 1084 4478 
L 1084 3319 
L 1650 3319 
L 1650 2881 
L 1084 2881 
L 1084 941 
Q 1084 700 1114 631 
Q 1144 563 1211 522 
Q 1278 481 1403 481 
Q 1497 481 1650 503 
z
" id="ArialMT-74" transform="scale(0.015625)"/>
      <path d="M 2694 1069 
L 3275 997 
Q 3138 488 2766 206 
Q 2394 -75 1816 -75 
Q 1088 -75 661 373 
Q 234 822 234 1631 
Q 234 2469 665 2931 
Q 1097 3394 1784 3394 
Q 2450 3394 2872 2941 
Q 3294 2488 3294 1666 
Q 3294 1616 3291 1516 
L 816 1516 
Q 847 969 1125 678 
Q 1403 388 1819 388 
Q 2128 388 2347 550 
Q 2566 713 2694 1069 
z
M 847 1978 
L 2700 1978 
Q 2663 2397 2488 2606 
Q 2219 2931 1791 2931 
Q 1403 2931 1139 2672 
Q 875 2413 847 1978 
z
" id="ArialMT-65" transform="scale(0.015625)"/>
      <path d="M 416 0 
L 416 3319 
L 922 3319 
L 922 2816 
Q 1116 3169 1280 3281 
Q 1444 3394 1641 3394 
Q 1925 3394 2219 3213 
L 2025 2691 
Q 1819 2813 1613 2813 
Q 1428 2813 1281 2702 
Q 1134 2591 1072 2394 
Q 978 2094 978 1738 
L 978 0 
L 416 0 
z
" id="ArialMT-72" transform="scale(0.015625)"/>
      <path d="M 2588 409 
Q 2275 144 1986 34 
Q 1697 -75 1366 -75 
Q 819 -75 525 192 
Q 231 459 231 875 
Q 231 1119 342 1320 
Q 453 1522 633 1644 
Q 813 1766 1038 1828 
Q 1203 1872 1538 1913 
Q 2219 1994 2541 2106 
Q 2544 2222 2544 2253 
Q 2544 2597 2384 2738 
Q 2169 2928 1744 2928 
Q 1347 2928 1158 2789 
Q 969 2650 878 2297 
L 328 2372 
Q 403 2725 575 2942 
Q 747 3159 1072 3276 
Q 1397 3394 1825 3394 
Q 2250 3394 2515 3294 
Q 2781 3194 2906 3042 
Q 3031 2891 3081 2659 
Q 3109 2516 3109 2141 
L 3109 1391 
Q 3109 606 3145 398 
Q 3181 191 3288 0 
L 2700 0 
Q 2613 175 2588 409 
z
M 2541 1666 
Q 2234 1541 1622 1453 
Q 1275 1403 1131 1340 
Q 988 1278 909 1158 
Q 831 1038 831 891 
Q 831 666 1001 516 
Q 1172 366 1500 366 
Q 1825 366 2078 508 
Q 2331 650 2450 897 
Q 2541 1088 2541 1459 
L 2541 1666 
z
" id="ArialMT-61" transform="scale(0.015625)"/>
      <path d="M 2588 1216 
L 3141 1144 
Q 3050 572 2676 248 
Q 2303 -75 1759 -75 
Q 1078 -75 664 370 
Q 250 816 250 1647 
Q 250 2184 428 2587 
Q 606 2991 970 3192 
Q 1334 3394 1763 3394 
Q 2303 3394 2647 3120 
Q 2991 2847 3088 2344 
L 2541 2259 
Q 2463 2594 2264 2762 
Q 2066 2931 1784 2931 
Q 1359 2931 1093 2626 
Q 828 2322 828 1663 
Q 828 994 1084 691 
Q 1341 388 1753 388 
Q 2084 388 2306 591 
Q 2528 794 2588 1216 
z
M 1283 -417 
L 1446 136 
L 1864 136 
L 1761 -199 
Q 2027 -230 2161 -362 
Q 2296 -495 2296 -658 
Q 2296 -892 2071 -1072 
Q 1846 -1252 1392 -1252 
Q 1136 -1252 942 -1214 
L 977 -849 
Q 1177 -861 1271 -861 
Q 1564 -861 1683 -780 
Q 1774 -717 1774 -627 
Q 1774 -570 1738 -526 
Q 1702 -483 1605 -451 
Q 1508 -420 1283 -417 
z
" id="ArialMT-e7" transform="scale(0.015625)"/>
      <path d="M 213 1659 
Q 213 2581 725 3025 
Q 1153 3394 1769 3394 
Q 2453 3394 2887 2945 
Q 3322 2497 3322 1706 
Q 3322 1066 3130 698 
Q 2938 331 2570 128 
Q 2203 -75 1769 -75 
Q 1072 -75 642 372 
Q 213 819 213 1659 
z
M 791 1659 
Q 791 1022 1069 705 
Q 1347 388 1769 388 
Q 2188 388 2466 706 
Q 2744 1025 2744 1678 
Q 2744 2294 2464 2611 
Q 2184 2928 1769 2928 
Q 1347 2928 1069 2612 
Q 791 2297 791 1659 
z
M 726 3809 
Q 723 4134 904 4328 
Q 1082 4522 1360 4522 
Q 1554 4522 1888 4353 
Q 2073 4259 2182 4259 
Q 2282 4259 2335 4314 
Q 2388 4369 2410 4531 
L 2817 4531 
Q 2807 4175 2637 3997 
Q 2467 3819 2204 3819 
Q 2007 3819 1685 3994 
Q 1476 4106 1379 4106 
Q 1273 4106 1207 4031 
Q 1138 3956 1142 3809 
L 726 3809 
z
" id="ArialMT-f5" transform="scale(0.015625)"/>
      <path d="M 197 991 
L 753 1078 
Q 800 744 1014 566 
Q 1228 388 1613 388 
Q 2000 388 2187 545 
Q 2375 703 2375 916 
Q 2375 1106 2209 1216 
Q 2094 1291 1634 1406 
Q 1016 1563 777 1677 
Q 538 1791 414 1992 
Q 291 2194 291 2438 
Q 291 2659 392 2848 
Q 494 3038 669 3163 
Q 800 3259 1026 3326 
Q 1253 3394 1513 3394 
Q 1903 3394 2198 3281 
Q 2494 3169 2634 2976 
Q 2775 2784 2828 2463 
L 2278 2388 
Q 2241 2644 2061 2787 
Q 1881 2931 1553 2931 
Q 1166 2931 1000 2803 
Q 834 2675 834 2503 
Q 834 2394 903 2306 
Q 972 2216 1119 2156 
Q 1203 2125 1616 2013 
Q 2213 1853 2448 1751 
Q 2684 1650 2818 1456 
Q 2953 1263 2953 975 
Q 2953 694 2789 445 
Q 2625 197 2315 61 
Q 2006 -75 1616 -75 
Q 969 -75 630 194 
Q 291 463 197 991 
z
" id="ArialMT-73" transform="scale(0.015625)"/>
     </defs>
     <use xlink:href="#ArialMT-49"/>
     <use x="27.783203" xlink:href="#ArialMT-6e"/>
     <use x="83.398438" xlink:href="#ArialMT-74"/>
     <use x="111.181641" xlink:href="#ArialMT-65"/>
     <use x="166.796875" xlink:href="#ArialMT-72"/>
     <use x="200.097656" xlink:href="#ArialMT-6e"/>
     <use x="255.712891" xlink:href="#ArialMT-61"/>
     <use x="311.328125" xlink:href="#ArialMT-e7"/>
     <use x="361.328125" xlink:href="#ArialMT-f5"/>
     <use x="416.943359" xlink:href="#ArialMT-65"/>
     <use x="472.558594" xlink:href="#ArialMT-73"/>
    </g>
   </g>
   <g id="legend_1">
    <g id="patch_7">
     <path d="M 549.548437 58.08 
L 633.8 58.08 
Q 635.8 58.08 635.8 56.08 
L 635.8 28.789375 
Q 635.8 26.789375 633.8 26.789375 
L 549.548437 26.789375 
Q 547.548437 26.789375 547.548437 28.789375 
L 547.548437 56.08 
Q 547.548437 58.08 549.548437 58.08 
z
" style="fill:#ffffff;opacity:0.8;stroke:#cccccc;stroke-linejoin:miter;"/>
    </g>
    <g id="line2d_21">
     <path d="M 551.548437 34.447188 
L 571.548437 34.447188 
" style="fill:none;stroke:#1f77b4;stroke-linecap:round;stroke-width:1.5;"/>
    </g>
    <g id="line2d_22"/>
    <g id="text_20">
     <!-- Internações -->
     <g style="fill:#262626;" transform="translate(579.548437 37.947188)scale(0.1 -0.1)">
      <use xlink:href="#ArialMT-49"/>
      <use x="27.783203" xlink:href="#ArialMT-6e"/>
      <use x="83.398438" xlink:href="#ArialMT-74"/>
      <use x="111.181641" xlink:href="#ArialMT-65"/>
      <use x="166.796875" xlink:href="#ArialMT-72"/>
      <use x="200.097656" xlink:href="#ArialMT-6e"/>
      <use x="255.712891" xlink:href="#ArialMT-61"/>
      <use x="311.328125" xlink:href="#ArialMT-e7"/>
      <use x="361.328125" xlink:href="#ArialMT-f5"/>
      <use x="416.943359" xlink:href="#ArialMT-65"/>
      <use x="472.558594" xlink:href="#ArialMT-73"/>
     </g>
    </g>
    <g id="line2d_23">
     <path d="M 551.548437 48.5925 
L 571.548437 48.5925 
" style="fill:none;stroke:#ff7f0e;stroke-linecap:round;stroke-width:1.5;"/>
    </g>
    <g id="line2d_24"/>
    <g id="text_21">
     <!-- UTI -->
     <g style="fill:#262626;" transform="translate(579.548437 52.0925)scale(0.1 -0.1)">
      <defs>
       <path d="M 3500 4581 
L 4106 4581 
L 4106 1934 
Q 4106 1244 3950 837 
Q 3794 431 3386 176 
Q 2978 -78 2316 -78 
Q 1672 -78 1262 144 
Q 853 366 678 786 
Q 503 1206 503 1934 
L 503 4581 
L 1109 4581 
L 1109 1938 
Q 1109 1341 1220 1058 
Q 1331 775 1601 622 
Q 1872 469 2263 469 
Q 2931 469 3215 772 
Q 3500 1075 3500 1938 
L 3500 4581 
z
" id="ArialMT-55" transform="scale(0.015625)"/>
       <path d="M 1659 0 
L 1659 4041 
L 150 4041 
L 150 4581 
L 3781 4581 
L 3781 4041 
L 2266 4041 
L 2266 0 
L 1659 0 
z
" id="ArialMT-54" transform="scale(0.015625)"/>
      </defs>
      <use xlink:href="#ArialMT-55"/>
      <use x="72.216797" xlink:href="#ArialMT-54"/>
      <use x="133.300781" xlink:href="#ArialMT-49"/>
     </g>
    </g>
   </g>
  </g>
  <g id="text_22">
   <!-- Atualizado em 10/08/2021 -->
   <g style="fill:#262626;" transform="translate(7.2 331.389375)scale(0.08 -0.08)">
    <defs>
     <path d="M -9 0 
L 1750 4581 
L 2403 4581 
L 4278 0 
L 3588 0 
L 3053 1388 
L 1138 1388 
L 634 0 
L -9 0 
z
M 1313 1881 
L 2866 1881 
L 2388 3150 
Q 2169 3728 2063 4100 
Q 1975 3659 1816 3225 
L 1313 1881 
z
" id="ArialMT-41" transform="scale(0.015625)"/>
     <path d="M 2597 0 
L 2597 488 
Q 2209 -75 1544 -75 
Q 1250 -75 995 37 
Q 741 150 617 320 
Q 494 491 444 738 
Q 409 903 409 1263 
L 409 3319 
L 972 3319 
L 972 1478 
Q 972 1038 1006 884 
Q 1059 663 1231 536 
Q 1403 409 1656 409 
Q 1909 409 2131 539 
Q 2353 669 2445 892 
Q 2538 1116 2538 1541 
L 2538 3319 
L 3100 3319 
L 3100 0 
L 2597 0 
z
" id="ArialMT-75" transform="scale(0.015625)"/>
     <path d="M 409 0 
L 409 4581 
L 972 4581 
L 972 0 
L 409 0 
z
" id="ArialMT-6c" transform="scale(0.015625)"/>
     <path d="M 425 3934 
L 425 4581 
L 988 4581 
L 988 3934 
L 425 3934 
z
M 425 0 
L 425 3319 
L 988 3319 
L 988 0 
L 425 0 
z
" id="ArialMT-69" transform="scale(0.015625)"/>
     <path d="M 125 0 
L 125 456 
L 2238 2881 
Q 1878 2863 1603 2863 
L 250 2863 
L 250 3319 
L 2963 3319 
L 2963 2947 
L 1166 841 
L 819 456 
Q 1197 484 1528 484 
L 3063 484 
L 3063 0 
L 125 0 
z
" id="ArialMT-7a" transform="scale(0.015625)"/>
     <path d="M 2575 0 
L 2575 419 
Q 2259 -75 1647 -75 
Q 1250 -75 917 144 
Q 584 363 401 755 
Q 219 1147 219 1656 
Q 219 2153 384 2558 
Q 550 2963 881 3178 
Q 1213 3394 1622 3394 
Q 1922 3394 2156 3267 
Q 2391 3141 2538 2938 
L 2538 4581 
L 3097 4581 
L 3097 0 
L 2575 0 
z
M 797 1656 
Q 797 1019 1065 703 
Q 1334 388 1700 388 
Q 2069 388 2326 689 
Q 2584 991 2584 1609 
Q 2584 2291 2321 2609 
Q 2059 2928 1675 2928 
Q 1300 2928 1048 2622 
Q 797 2316 797 1656 
z
" id="ArialMT-64" transform="scale(0.015625)"/>
     <path d="M 213 1659 
Q 213 2581 725 3025 
Q 1153 3394 1769 3394 
Q 2453 3394 2887 2945 
Q 3322 2497 3322 1706 
Q 3322 1066 3130 698 
Q 2938 331 2570 128 
Q 2203 -75 1769 -75 
Q 1072 -75 642 372 
Q 213 819 213 1659 
z
M 791 1659 
Q 791 1022 1069 705 
Q 1347 388 1769 388 
Q 2188 388 2466 706 
Q 2744 1025 2744 1678 
Q 2744 2294 2464 2611 
Q 2184 2928 1769 2928 
Q 1347 2928 1069 2612 
Q 791 2297 791 1659 
z
" id="ArialMT-6f" transform="scale(0.015625)"/>
     <path id="ArialMT-20" transform="scale(0.015625)"/>
     <path d="M 422 0 
L 422 3319 
L 925 3319 
L 925 2853 
Q 1081 3097 1340 3245 
Q 1600 3394 1931 3394 
Q 2300 3394 2536 3241 
Q 2772 3088 2869 2813 
Q 3263 3394 3894 3394 
Q 4388 3394 4653 3120 
Q 4919 2847 4919 2278 
L 4919 0 
L 4359 0 
L 4359 2091 
Q 4359 2428 4304 2576 
Q 4250 2725 4106 2815 
Q 3963 2906 3769 2906 
Q 3419 2906 3187 2673 
Q 2956 2441 2956 1928 
L 2956 0 
L 2394 0 
L 2394 2156 
Q 2394 2531 2256 2718 
Q 2119 2906 1806 2906 
Q 1569 2906 1367 2781 
Q 1166 2656 1075 2415 
Q 984 2175 984 1722 
L 984 0 
L 422 0 
z
" id="ArialMT-6d" transform="scale(0.015625)"/>
     <path d="M 0 -78 
L 1328 4659 
L 1778 4659 
L 453 -78 
L 0 -78 
z
" id="ArialMT-2f" transform="scale(0.015625)"/>
     <path d="M 1131 2484 
Q 781 2613 612 2850 
Q 444 3088 444 3419 
Q 444 3919 803 4259 
Q 1163 4600 1759 4600 
Q 2359 4600 2725 4251 
Q 3091 3903 3091 3403 
Q 3091 3084 2923 2848 
Q 2756 2613 2416 2484 
Q 2838 2347 3058 2040 
Q 3278 1734 3278 1309 
Q 3278 722 2862 322 
Q 2447 -78 1769 -78 
Q 1091 -78 675 323 
Q 259 725 259 1325 
Q 259 1772 486 2073 
Q 713 2375 1131 2484 
z
M 1019 3438 
Q 1019 3113 1228 2906 
Q 1438 2700 1772 2700 
Q 2097 2700 2305 2904 
Q 2513 3109 2513 3406 
Q 2513 3716 2298 3927 
Q 2084 4138 1766 4138 
Q 1444 4138 1231 3931 
Q 1019 3725 1019 3438 
z
M 838 1322 
Q 838 1081 952 856 
Q 1066 631 1291 507 
Q 1516 384 1775 384 
Q 2178 384 2440 643 
Q 2703 903 2703 1303 
Q 2703 1709 2433 1975 
Q 2163 2241 1756 2241 
Q 1359 2241 1098 1978 
Q 838 1716 838 1322 
z
" id="ArialMT-38" transform="scale(0.015625)"/>
    </defs>
    <use xlink:href="#ArialMT-41"/>
    <use x="66.699219" xlink:href="#ArialMT-74"/>
    <use x="94.482422" xlink:href="#ArialMT-75"/>
    <use x="150.097656" xlink:href="#ArialMT-61"/>
    <use x="205.712891" xlink:href="#ArialMT-6c"/>
    <use x="227.929688" xlink:href="#ArialMT-69"/>
    <use x="250.146484" xlink:href="#ArialMT-7a"/>
    <use x="300.146484" xlink:href="#ArialMT-61"/>
    <use x="355.761719" xlink:href="#ArialMT-64"/>
    <use x="411.376953" xlink:href="#ArialMT-6f"/>
    <use x="466.992188" xlink:href="#ArialMT-20"/>
    <use x="494.775391" xlink:href="#ArialMT-65"/>
    <use x="550.390625" xlink:href="#ArialMT-6d"/>
    <use x="633.691406" xlink:href="#ArialMT-20"/>
    <use x="661.474609" xlink:href="#ArialMT-31"/>
    <use x="717.089844" xlink:href="#ArialMT-30"/>
    <use x="772.705078" xlink:href="#ArialMT-2f"/>
    <use x="800.488281" xlink:href="#ArialMT-30"/>
    <use x="856.103516" xlink:href="#ArialMT-38"/>
    <use x="911.71875" xlink:href="#ArialMT-2f"/>
    <use x="939.501953" xlink:href="#ArialMT-32"/>
    <use x="995.117188" xlink:href="#ArialMT-30"/>
    <use x="1050.732422" xlink:href="#ArialMT-32"/>
    <use x="1106.347656" xlink:href="#ArialMT-31"/>
   </g>
  </g>
  <g id="text_23">
   <!-- https://jmsvaz.github.io/covidsantos/ -->
   <g style="fill:#262626;" transform="translate(570.345 331.389375)scale(0.08 -0.08)">
    <defs>
     <path d="M 422 0 
L 422 4581 
L 984 4581 
L 984 2938 
Q 1378 3394 1978 3394 
Q 2347 3394 2619 3248 
Q 2891 3103 3008 2847 
Q 3125 2591 3125 2103 
L 3125 0 
L 2563 0 
L 2563 2103 
Q 2563 2525 2380 2717 
Q 2197 2909 1863 2909 
Q 1613 2909 1392 2779 
Q 1172 2650 1078 2428 
Q 984 2206 984 1816 
L 984 0 
L 422 0 
z
" id="ArialMT-68" transform="scale(0.015625)"/>
     <path d="M 422 -1272 
L 422 3319 
L 934 3319 
L 934 2888 
Q 1116 3141 1344 3267 
Q 1572 3394 1897 3394 
Q 2322 3394 2647 3175 
Q 2972 2956 3137 2557 
Q 3303 2159 3303 1684 
Q 3303 1175 3120 767 
Q 2938 359 2589 142 
Q 2241 -75 1856 -75 
Q 1575 -75 1351 44 
Q 1128 163 984 344 
L 984 -1272 
L 422 -1272 
z
M 931 1641 
Q 931 1000 1190 694 
Q 1450 388 1819 388 
Q 2194 388 2461 705 
Q 2728 1022 2728 1688 
Q 2728 2322 2467 2637 
Q 2206 2953 1844 2953 
Q 1484 2953 1207 2617 
Q 931 2281 931 1641 
z
" id="ArialMT-70" transform="scale(0.015625)"/>
     <path d="M 578 2678 
L 578 3319 
L 1219 3319 
L 1219 2678 
L 578 2678 
z
M 578 0 
L 578 641 
L 1219 641 
L 1219 0 
L 578 0 
z
" id="ArialMT-3a" transform="scale(0.015625)"/>
     <path d="M 419 3928 
L 419 4581 
L 981 4581 
L 981 3928 
L 419 3928 
z
M -294 -1288 
L -188 -809 
Q -19 -853 78 -853 
Q 250 -853 334 -739 
Q 419 -625 419 -169 
L 419 3319 
L 981 3319 
L 981 -181 
Q 981 -794 822 -1034 
Q 619 -1347 147 -1347 
Q -81 -1347 -294 -1288 
z
" id="ArialMT-6a" transform="scale(0.015625)"/>
     <path d="M 1344 0 
L 81 3319 
L 675 3319 
L 1388 1331 
Q 1503 1009 1600 663 
Q 1675 925 1809 1294 
L 2547 3319 
L 3125 3319 
L 1869 0 
L 1344 0 
z
" id="ArialMT-76" transform="scale(0.015625)"/>
     <path d="M 581 0 
L 581 641 
L 1222 641 
L 1222 0 
L 581 0 
z
" id="ArialMT-2e" transform="scale(0.015625)"/>
     <path d="M 319 -275 
L 866 -356 
Q 900 -609 1056 -725 
Q 1266 -881 1628 -881 
Q 2019 -881 2231 -725 
Q 2444 -569 2519 -288 
Q 2563 -116 2559 434 
Q 2191 0 1641 0 
Q 956 0 581 494 
Q 206 988 206 1678 
Q 206 2153 378 2554 
Q 550 2956 876 3175 
Q 1203 3394 1644 3394 
Q 2231 3394 2613 2919 
L 2613 3319 
L 3131 3319 
L 3131 450 
Q 3131 -325 2973 -648 
Q 2816 -972 2473 -1159 
Q 2131 -1347 1631 -1347 
Q 1038 -1347 672 -1080 
Q 306 -813 319 -275 
z
M 784 1719 
Q 784 1066 1043 766 
Q 1303 466 1694 466 
Q 2081 466 2343 764 
Q 2606 1063 2606 1700 
Q 2606 2309 2336 2618 
Q 2066 2928 1684 2928 
Q 1309 2928 1046 2623 
Q 784 2319 784 1719 
z
" id="ArialMT-67" transform="scale(0.015625)"/>
     <path d="M 941 0 
L 419 0 
L 419 4581 
L 981 4581 
L 981 2947 
Q 1338 3394 1891 3394 
Q 2197 3394 2470 3270 
Q 2744 3147 2920 2923 
Q 3097 2700 3197 2384 
Q 3297 2069 3297 1709 
Q 3297 856 2875 390 
Q 2453 -75 1863 -75 
Q 1275 -75 941 416 
L 941 0 
z
M 934 1684 
Q 934 1088 1097 822 
Q 1363 388 1816 388 
Q 2184 388 2453 708 
Q 2722 1028 2722 1663 
Q 2722 2313 2464 2622 
Q 2206 2931 1841 2931 
Q 1472 2931 1203 2611 
Q 934 2291 934 1684 
z
" id="ArialMT-62" transform="scale(0.015625)"/>
     <path d="M 2588 1216 
L 3141 1144 
Q 3050 572 2676 248 
Q 2303 -75 1759 -75 
Q 1078 -75 664 370 
Q 250 816 250 1647 
Q 250 2184 428 2587 
Q 606 2991 970 3192 
Q 1334 3394 1763 3394 
Q 2303 3394 2647 3120 
Q 2991 2847 3088 2344 
L 2541 2259 
Q 2463 2594 2264 2762 
Q 2066 2931 1784 2931 
Q 1359 2931 1093 2626 
Q 828 2322 828 1663 
Q 828 994 1084 691 
Q 1341 388 1753 388 
Q 2084 388 2306 591 
Q 2528 794 2588 1216 
z
" id="ArialMT-63" transform="scale(0.015625)"/>
    </defs>
    <use xlink:href="#ArialMT-68"/>
    <use x="55.615234" xlink:href="#ArialMT-74"/>
    <use x="83.398438" xlink:href="#ArialMT-74"/>
    <use x="111.181641" xlink:href="#ArialMT-70"/>
    <use x="166.796875" xlink:href="#ArialMT-73"/>
    <use x="216.796875" xlink:href="#ArialMT-3a"/>
    <use x="244.580078" xlink:href="#ArialMT-2f"/>
    <use x="272.363281" xlink:href="#ArialMT-2f"/>
    <use x="300.146484" xlink:href="#ArialMT-6a"/>
    <use x="322.363281" xlink:href="#ArialMT-6d"/>
    <use x="405.664062" xlink:href="#ArialMT-73"/>
    <use x="455.664062" xlink:href="#ArialMT-76"/>
    <use x="505.664062" xlink:href="#ArialMT-61"/>
    <use x="561.279297" xlink:href="#ArialMT-7a"/>
    <use x="611.279297" xlink:href="#ArialMT-2e"/>
    <use x="639.0625" xlink:href="#ArialMT-67"/>
    <use x="694.677734" xlink:href="#ArialMT-69"/>
    <use x="716.894531" xlink:href="#ArialMT-74"/>
    <use x="744.677734" xlink:href="#ArialMT-68"/>
    <use x="800.292969" xlink:href="#ArialMT-75"/>
    <use x="855.908203" xlink:href="#ArialMT-62"/>
    <use x="911.523438" xlink:href="#ArialMT-2e"/>
    <use x="939.306641" xlink:href="#ArialMT-69"/>
    <use x="961.523438" xlink:href="#ArialMT-6f"/>
    <use x="1017.138672" xlink:href="#ArialMT-2f"/>
    <use x="1044.921875" xlink:href="#ArialMT-63"/>
    <use x="1094.921875" xlink:href="#ArialMT-6f"/>
    <use x="1150.537109" xlink:href="#ArialMT-76"/>
    <use x="1200.537109" xlink:href="#ArialMT-69"/>
    <use x="1222.753906" xlink:href="#ArialMT-64"/>
    <use x="1278.369141" xlink:href="#ArialMT-73"/>
    <use x="1328.369141" xlink:href="#ArialMT-61"/>
    <use x="1383.984375" xlink:href="#ArialMT-6e"/>
    <use x="1439.599609" xlink:href="#ArialMT-74"/>
    <use x="1467.382812" xlink:href="#ArialMT-6f"/>
    <use x="1522.998047" xlink:href="#ArialMT-73"/>
    <use x="1572.998047" xlink:href="#ArialMT-2f"/>
   </g>
  </g>
 </g>
 <defs>
  <clipPath id="p850d8c3931">
   <rect height="277.2" width="558" x="82.8" y="21.789375"/>
  </clipPath>
 </defs>
</svg>
