<?xml version="1.0" encoding="utf-8" standalone="no"?>
<!DOCTYPE svg PUBLIC "-//W3C//DTD SVG 1.1//EN"
  "http://www.w3.org/Graphics/SVG/1.1/DTD/svg11.dtd">
<svg height="322.334688pt" version="1.1" viewBox="0 0 596.082813 322.334688" width="596.082813pt" xmlns="http://www.w3.org/2000/svg" xmlns:xlink="http://www.w3.org/1999/xlink">
 <metadata>
  <rdf:RDF xmlns:cc="http://creativecommons.org/ns#" xmlns:dc="http://purl.org/dc/elements/1.1/" xmlns:rdf="http://www.w3.org/1999/02/22-rdf-syntax-ns#">
   <cc:Work>
    <dc:type rdf:resource="http://purl.org/dc/dcmitype/StillImage"/>
    <dc:date>2021-05-30T14:48:47.040127</dc:date>
    <dc:format>image/svg+xml</dc:format>
    <dc:creator>
     <cc:Agent>
      <dc:title>Matplotlib v3.4.2, https://matplotlib.org/</dc:title>
     </cc:Agent>
    </dc:creator>
   </cc:Work>
  </rdf:RDF>
 </metadata>
 <defs>
  <style type="text/css">*{stroke-linecap:butt;stroke-linejoin:round;}</style>
 </defs>
 <g id="figure_1">
  <g id="patch_1">
   <path d="M 0 322.334688 
L 596.082813 322.334688 
L 596.082813 0 
L 0 0 
z
" style="fill:#ffffff;"/>
  </g>
  <g id="axes_1">
   <g id="patch_2">
    <path d="M 30.882812 298.989375 
L 588.882812 298.989375 
L 588.882812 21.789375 
L 30.882812 21.789375 
z
" style="fill:#ffffff;"/>
   </g>
   <g id="matplotlib.axis_1">
    <g id="xtick_1">
     <g id="line2d_1">
      <path clip-path="url(#pbe6a1b93b5)" d="M 35.303997 298.989375 
L 35.303997 21.789375 
" style="fill:none;stroke:#cccccc;stroke-linecap:round;stroke-width:0.8;"/>
     </g>
     <g id="text_1">
      <!-- 2020-03 -->
      <g style="fill:#262626;" transform="translate(16.956341 313.147188)scale(0.1 -0.1)">
       <defs>
        <path d="M 3222 541 
L 3222 0 
L 194 0 
Q 188 203 259 391 
Q 375 700 629 1000 
Q 884 1300 1366 1694 
Q 2113 2306 2375 2664 
Q 2638 3022 2638 3341 
Q 2638 3675 2398 3904 
Q 2159 4134 1775 4134 
Q 1369 4134 1125 3890 
Q 881 3647 878 3216 
L 300 3275 
Q 359 3922 746 4261 
Q 1134 4600 1788 4600 
Q 2447 4600 2831 4234 
Q 3216 3869 3216 3328 
Q 3216 3053 3103 2787 
Q 2991 2522 2730 2228 
Q 2469 1934 1863 1422 
Q 1356 997 1212 845 
Q 1069 694 975 541 
L 3222 541 
z
" id="ArialMT-32" transform="scale(0.015625)"/>
        <path d="M 266 2259 
Q 266 3072 433 3567 
Q 600 4063 929 4331 
Q 1259 4600 1759 4600 
Q 2128 4600 2406 4451 
Q 2684 4303 2865 4023 
Q 3047 3744 3150 3342 
Q 3253 2941 3253 2259 
Q 3253 1453 3087 958 
Q 2922 463 2592 192 
Q 2263 -78 1759 -78 
Q 1097 -78 719 397 
Q 266 969 266 2259 
z
M 844 2259 
Q 844 1131 1108 757 
Q 1372 384 1759 384 
Q 2147 384 2411 759 
Q 2675 1134 2675 2259 
Q 2675 3391 2411 3762 
Q 2147 4134 1753 4134 
Q 1366 4134 1134 3806 
Q 844 3388 844 2259 
z
" id="ArialMT-30" transform="scale(0.015625)"/>
        <path d="M 203 1375 
L 203 1941 
L 1931 1941 
L 1931 1375 
L 203 1375 
z
" id="ArialMT-2d" transform="scale(0.015625)"/>
        <path d="M 269 1209 
L 831 1284 
Q 928 806 1161 595 
Q 1394 384 1728 384 
Q 2125 384 2398 659 
Q 2672 934 2672 1341 
Q 2672 1728 2419 1979 
Q 2166 2231 1775 2231 
Q 1616 2231 1378 2169 
L 1441 2663 
Q 1497 2656 1531 2656 
Q 1891 2656 2178 2843 
Q 2466 3031 2466 3422 
Q 2466 3731 2256 3934 
Q 2047 4138 1716 4138 
Q 1388 4138 1169 3931 
Q 950 3725 888 3313 
L 325 3413 
Q 428 3978 793 4289 
Q 1159 4600 1703 4600 
Q 2078 4600 2393 4439 
Q 2709 4278 2876 4000 
Q 3044 3722 3044 3409 
Q 3044 3113 2884 2869 
Q 2725 2625 2413 2481 
Q 2819 2388 3044 2092 
Q 3269 1797 3269 1353 
Q 3269 753 2831 336 
Q 2394 -81 1725 -81 
Q 1122 -81 723 278 
Q 325 638 269 1209 
z
" id="ArialMT-33" transform="scale(0.015625)"/>
       </defs>
       <use xlink:href="#ArialMT-32"/>
       <use x="55.615234" xlink:href="#ArialMT-30"/>
       <use x="111.230469" xlink:href="#ArialMT-32"/>
       <use x="166.845703" xlink:href="#ArialMT-30"/>
       <use x="222.460938" xlink:href="#ArialMT-2d"/>
       <use x="255.761719" xlink:href="#ArialMT-30"/>
       <use x="311.376953" xlink:href="#ArialMT-33"/>
      </g>
     </g>
    </g>
    <g id="xtick_2">
     <g id="line2d_2">
      <path clip-path="url(#pbe6a1b93b5)" d="M 106.27564 298.989375 
L 106.27564 21.789375 
" style="fill:none;stroke:#cccccc;stroke-linecap:round;stroke-width:0.8;"/>
     </g>
     <g id="text_2">
      <!-- 2020-05 -->
      <g style="fill:#262626;" transform="translate(87.927984 313.147188)scale(0.1 -0.1)">
       <defs>
        <path d="M 266 1200 
L 856 1250 
Q 922 819 1161 601 
Q 1400 384 1738 384 
Q 2144 384 2425 690 
Q 2706 997 2706 1503 
Q 2706 1984 2436 2262 
Q 2166 2541 1728 2541 
Q 1456 2541 1237 2417 
Q 1019 2294 894 2097 
L 366 2166 
L 809 4519 
L 3088 4519 
L 3088 3981 
L 1259 3981 
L 1013 2750 
Q 1425 3038 1878 3038 
Q 2478 3038 2890 2622 
Q 3303 2206 3303 1553 
Q 3303 931 2941 478 
Q 2500 -78 1738 -78 
Q 1113 -78 717 272 
Q 322 622 266 1200 
z
" id="ArialMT-35" transform="scale(0.015625)"/>
       </defs>
       <use xlink:href="#ArialMT-32"/>
       <use x="55.615234" xlink:href="#ArialMT-30"/>
       <use x="111.230469" xlink:href="#ArialMT-32"/>
       <use x="166.845703" xlink:href="#ArialMT-30"/>
       <use x="222.460938" xlink:href="#ArialMT-2d"/>
       <use x="255.761719" xlink:href="#ArialMT-30"/>
       <use x="311.376953" xlink:href="#ArialMT-35"/>
      </g>
     </g>
    </g>
    <g id="xtick_3">
     <g id="line2d_3">
      <path clip-path="url(#pbe6a1b93b5)" d="M 177.247283 298.989375 
L 177.247283 21.789375 
" style="fill:none;stroke:#cccccc;stroke-linecap:round;stroke-width:0.8;"/>
     </g>
     <g id="text_3">
      <!-- 2020-07 -->
      <g style="fill:#262626;" transform="translate(158.899627 313.147188)scale(0.1 -0.1)">
       <defs>
        <path d="M 303 3981 
L 303 4522 
L 3269 4522 
L 3269 4084 
Q 2831 3619 2401 2847 
Q 1972 2075 1738 1259 
Q 1569 684 1522 0 
L 944 0 
Q 953 541 1156 1306 
Q 1359 2072 1739 2783 
Q 2119 3494 2547 3981 
L 303 3981 
z
" id="ArialMT-37" transform="scale(0.015625)"/>
       </defs>
       <use xlink:href="#ArialMT-32"/>
       <use x="55.615234" xlink:href="#ArialMT-30"/>
       <use x="111.230469" xlink:href="#ArialMT-32"/>
       <use x="166.845703" xlink:href="#ArialMT-30"/>
       <use x="222.460938" xlink:href="#ArialMT-2d"/>
       <use x="255.761719" xlink:href="#ArialMT-30"/>
       <use x="311.376953" xlink:href="#ArialMT-37"/>
      </g>
     </g>
    </g>
    <g id="xtick_4">
     <g id="line2d_4">
      <path clip-path="url(#pbe6a1b93b5)" d="M 249.382395 298.989375 
L 249.382395 21.789375 
" style="fill:none;stroke:#cccccc;stroke-linecap:round;stroke-width:0.8;"/>
     </g>
     <g id="text_4">
      <!-- 2020-09 -->
      <g style="fill:#262626;" transform="translate(231.034739 313.147188)scale(0.1 -0.1)">
       <defs>
        <path d="M 350 1059 
L 891 1109 
Q 959 728 1153 556 
Q 1347 384 1650 384 
Q 1909 384 2104 503 
Q 2300 622 2425 820 
Q 2550 1019 2634 1356 
Q 2719 1694 2719 2044 
Q 2719 2081 2716 2156 
Q 2547 1888 2255 1720 
Q 1963 1553 1622 1553 
Q 1053 1553 659 1965 
Q 266 2378 266 3053 
Q 266 3750 677 4175 
Q 1088 4600 1706 4600 
Q 2153 4600 2523 4359 
Q 2894 4119 3086 3673 
Q 3278 3228 3278 2384 
Q 3278 1506 3087 986 
Q 2897 466 2520 194 
Q 2144 -78 1638 -78 
Q 1100 -78 759 220 
Q 419 519 350 1059 
z
M 2653 3081 
Q 2653 3566 2395 3850 
Q 2138 4134 1775 4134 
Q 1400 4134 1122 3828 
Q 844 3522 844 3034 
Q 844 2597 1108 2323 
Q 1372 2050 1759 2050 
Q 2150 2050 2401 2323 
Q 2653 2597 2653 3081 
z
" id="ArialMT-39" transform="scale(0.015625)"/>
       </defs>
       <use xlink:href="#ArialMT-32"/>
       <use x="55.615234" xlink:href="#ArialMT-30"/>
       <use x="111.230469" xlink:href="#ArialMT-32"/>
       <use x="166.845703" xlink:href="#ArialMT-30"/>
       <use x="222.460938" xlink:href="#ArialMT-2d"/>
       <use x="255.761719" xlink:href="#ArialMT-30"/>
       <use x="311.376953" xlink:href="#ArialMT-39"/>
      </g>
     </g>
    </g>
    <g id="xtick_5">
     <g id="line2d_5">
      <path clip-path="url(#pbe6a1b93b5)" d="M 320.354039 298.989375 
L 320.354039 21.789375 
" style="fill:none;stroke:#cccccc;stroke-linecap:round;stroke-width:0.8;"/>
     </g>
     <g id="text_5">
      <!-- 2020-11 -->
      <g style="fill:#262626;" transform="translate(302.375132 313.147188)scale(0.1 -0.1)">
       <defs>
        <path d="M 2384 0 
L 1822 0 
L 1822 3584 
Q 1619 3391 1289 3197 
Q 959 3003 697 2906 
L 697 3450 
Q 1169 3672 1522 3987 
Q 1875 4303 2022 4600 
L 2384 4600 
L 2384 0 
z
" id="ArialMT-31" transform="scale(0.015625)"/>
       </defs>
       <use xlink:href="#ArialMT-32"/>
       <use x="55.615234" xlink:href="#ArialMT-30"/>
       <use x="111.230469" xlink:href="#ArialMT-32"/>
       <use x="166.845703" xlink:href="#ArialMT-30"/>
       <use x="222.460938" xlink:href="#ArialMT-2d"/>
       <use x="255.761719" xlink:href="#ArialMT-31"/>
       <use x="304.001953" xlink:href="#ArialMT-31"/>
      </g>
     </g>
    </g>
    <g id="xtick_6">
     <g id="line2d_6">
      <path clip-path="url(#pbe6a1b93b5)" d="M 391.325682 298.989375 
L 391.325682 21.789375 
" style="fill:none;stroke:#cccccc;stroke-linecap:round;stroke-width:0.8;"/>
     </g>
     <g id="text_6">
      <!-- 2021-01 -->
      <g style="fill:#262626;" transform="translate(372.978025 313.147188)scale(0.1 -0.1)">
       <use xlink:href="#ArialMT-32"/>
       <use x="55.615234" xlink:href="#ArialMT-30"/>
       <use x="111.230469" xlink:href="#ArialMT-32"/>
       <use x="166.845703" xlink:href="#ArialMT-31"/>
       <use x="222.460938" xlink:href="#ArialMT-2d"/>
       <use x="255.761719" xlink:href="#ArialMT-30"/>
       <use x="311.376953" xlink:href="#ArialMT-31"/>
      </g>
     </g>
    </g>
    <g id="xtick_7">
     <g id="line2d_7">
      <path clip-path="url(#pbe6a1b93b5)" d="M 459.970385 298.989375 
L 459.970385 21.789375 
" style="fill:none;stroke:#cccccc;stroke-linecap:round;stroke-width:0.8;"/>
     </g>
     <g id="text_7">
      <!-- 2021-03 -->
      <g style="fill:#262626;" transform="translate(441.622729 313.147188)scale(0.1 -0.1)">
       <use xlink:href="#ArialMT-32"/>
       <use x="55.615234" xlink:href="#ArialMT-30"/>
       <use x="111.230469" xlink:href="#ArialMT-32"/>
       <use x="166.845703" xlink:href="#ArialMT-31"/>
       <use x="222.460938" xlink:href="#ArialMT-2d"/>
       <use x="255.761719" xlink:href="#ArialMT-30"/>
       <use x="311.376953" xlink:href="#ArialMT-33"/>
      </g>
     </g>
    </g>
    <g id="xtick_8">
     <g id="line2d_8">
      <path clip-path="url(#pbe6a1b93b5)" d="M 530.942029 298.989375 
L 530.942029 21.789375 
" style="fill:none;stroke:#cccccc;stroke-linecap:round;stroke-width:0.8;"/>
     </g>
     <g id="text_8">
      <!-- 2021-05 -->
      <g style="fill:#262626;" transform="translate(512.594372 313.147188)scale(0.1 -0.1)">
       <use xlink:href="#ArialMT-32"/>
       <use x="55.615234" xlink:href="#ArialMT-30"/>
       <use x="111.230469" xlink:href="#ArialMT-32"/>
       <use x="166.845703" xlink:href="#ArialMT-31"/>
       <use x="222.460938" xlink:href="#ArialMT-2d"/>
       <use x="255.761719" xlink:href="#ArialMT-30"/>
       <use x="311.376953" xlink:href="#ArialMT-35"/>
      </g>
     </g>
    </g>
   </g>
   <g id="matplotlib.axis_2">
    <g id="ytick_1">
     <g id="line2d_9">
      <path clip-path="url(#pbe6a1b93b5)" d="M 30.882812 286.389375 
L 588.882812 286.389375 
" style="fill:none;stroke:#cccccc;stroke-linecap:round;stroke-width:0.8;"/>
     </g>
     <g id="text_9">
      <!-- 0 -->
      <g style="fill:#262626;" transform="translate(18.321875 289.968281)scale(0.1 -0.1)">
       <use xlink:href="#ArialMT-30"/>
      </g>
     </g>
    </g>
    <g id="ytick_2">
     <g id="line2d_10">
      <path clip-path="url(#pbe6a1b93b5)" d="M 30.882812 248.664824 
L 588.882812 248.664824 
" style="fill:none;stroke:#cccccc;stroke-linecap:round;stroke-width:0.8;"/>
     </g>
     <g id="text_10">
      <!-- 50 -->
      <g style="fill:#262626;" transform="translate(12.760937 252.24373)scale(0.1 -0.1)">
       <use xlink:href="#ArialMT-35"/>
       <use x="55.615234" xlink:href="#ArialMT-30"/>
      </g>
     </g>
    </g>
    <g id="ytick_3">
     <g id="line2d_11">
      <path clip-path="url(#pbe6a1b93b5)" d="M 30.882812 210.940273 
L 588.882812 210.940273 
" style="fill:none;stroke:#cccccc;stroke-linecap:round;stroke-width:0.8;"/>
     </g>
     <g id="text_11">
      <!-- 100 -->
      <g style="fill:#262626;" transform="translate(7.2 214.519179)scale(0.1 -0.1)">
       <use xlink:href="#ArialMT-31"/>
       <use x="55.615234" xlink:href="#ArialMT-30"/>
       <use x="111.230469" xlink:href="#ArialMT-30"/>
      </g>
     </g>
    </g>
    <g id="ytick_4">
     <g id="line2d_12">
      <path clip-path="url(#pbe6a1b93b5)" d="M 30.882812 173.215722 
L 588.882812 173.215722 
" style="fill:none;stroke:#cccccc;stroke-linecap:round;stroke-width:0.8;"/>
     </g>
     <g id="text_12">
      <!-- 150 -->
      <g style="fill:#262626;" transform="translate(7.2 176.794629)scale(0.1 -0.1)">
       <use xlink:href="#ArialMT-31"/>
       <use x="55.615234" xlink:href="#ArialMT-35"/>
       <use x="111.230469" xlink:href="#ArialMT-30"/>
      </g>
     </g>
    </g>
    <g id="ytick_5">
     <g id="line2d_13">
      <path clip-path="url(#pbe6a1b93b5)" d="M 30.882812 135.491171 
L 588.882812 135.491171 
" style="fill:none;stroke:#cccccc;stroke-linecap:round;stroke-width:0.8;"/>
     </g>
     <g id="text_13">
      <!-- 200 -->
      <g style="fill:#262626;" transform="translate(7.2 139.070078)scale(0.1 -0.1)">
       <use xlink:href="#ArialMT-32"/>
       <use x="55.615234" xlink:href="#ArialMT-30"/>
       <use x="111.230469" xlink:href="#ArialMT-30"/>
      </g>
     </g>
    </g>
    <g id="ytick_6">
     <g id="line2d_14">
      <path clip-path="url(#pbe6a1b93b5)" d="M 30.882812 97.766621 
L 588.882812 97.766621 
" style="fill:none;stroke:#cccccc;stroke-linecap:round;stroke-width:0.8;"/>
     </g>
     <g id="text_14">
      <!-- 250 -->
      <g style="fill:#262626;" transform="translate(7.2 101.345527)scale(0.1 -0.1)">
       <use xlink:href="#ArialMT-32"/>
       <use x="55.615234" xlink:href="#ArialMT-35"/>
       <use x="111.230469" xlink:href="#ArialMT-30"/>
      </g>
     </g>
    </g>
    <g id="ytick_7">
     <g id="line2d_15">
      <path clip-path="url(#pbe6a1b93b5)" d="M 30.882812 60.04207 
L 588.882812 60.04207 
" style="fill:none;stroke:#cccccc;stroke-linecap:round;stroke-width:0.8;"/>
     </g>
     <g id="text_15">
      <!-- 300 -->
      <g style="fill:#262626;" transform="translate(7.2 63.620976)scale(0.1 -0.1)">
       <use xlink:href="#ArialMT-33"/>
       <use x="55.615234" xlink:href="#ArialMT-30"/>
       <use x="111.230469" xlink:href="#ArialMT-30"/>
      </g>
     </g>
    </g>
    <g id="ytick_8">
     <g id="line2d_16">
      <path clip-path="url(#pbe6a1b93b5)" d="M 30.882812 22.317519 
L 588.882812 22.317519 
" style="fill:none;stroke:#cccccc;stroke-linecap:round;stroke-width:0.8;"/>
     </g>
     <g id="text_16">
      <!-- 350 -->
      <g style="fill:#262626;" transform="translate(7.2 25.896425)scale(0.1 -0.1)">
       <use xlink:href="#ArialMT-33"/>
       <use x="55.615234" xlink:href="#ArialMT-35"/>
       <use x="111.230469" xlink:href="#ArialMT-30"/>
      </g>
     </g>
    </g>
   </g>
   <g id="line2d_17">
    <path clip-path="url(#pbe6a1b93b5)" d="M 56.246449 278.089974 
L 57.409918 278.089974 
L 58.573388 276.580992 
L 59.736858 276.580992 
L 60.900327 269.036082 
L 62.063797 255.455243 
L 63.227266 254.700752 
L 64.390736 251.682788 
L 65.554205 247.155842 
L 66.717675 246.401351 
L 67.881144 246.401351 
L 69.044614 245.64686 
L 70.208084 242.628896 
L 71.371553 226.030094 
L 72.535023 224.521112 
L 73.698492 224.521112 
L 74.861962 201.886381 
L 76.025431 200.377399 
L 77.188901 213.958237 
L 78.35237 210.185782 
L 79.51584 204.149854 
L 80.67931 202.640872 
L 81.842779 199.622908 
L 83.006249 199.622908 
L 84.169718 198.113926 
L 85.333188 186.796561 
L 86.496657 185.287579 
L 87.660127 189.060034 
L 88.823596 176.233686 
L 89.987066 173.215722 
L 91.150536 170.952249 
L 92.314005 167.179794 
L 93.477475 176.988177 
L 94.640944 176.988177 
L 95.804414 173.970213 
L 96.967883 167.934285 
L 98.131353 142.281591 
L 99.294823 140.772609 
L 100.458292 176.233686 
L 101.621762 178.497159 
L 102.785231 181.515124 
L 103.948701 176.233686 
L 105.11217 181.515124 
L 106.27564 173.215722 
L 107.439109 168.688776 
L 108.602579 169.443267 
L 109.766049 167.179794 
L 110.929518 161.143866 
L 112.092988 158.125902 
L 113.256457 162.652848 
L 114.419927 165.670812 
L 115.583396 161.143866 
L 116.746866 158.125902 
L 117.910335 161.898357 
L 119.073805 146.054046 
L 120.237275 152.844465 
L 121.400744 149.826501 
L 122.564214 146.054046 
L 123.727683 152.089974 
L 124.891153 140.772609 
L 126.054622 139.263626 
L 127.218092 141.5271 
L 128.381561 133.982189 
L 129.545031 137.000153 
L 130.708501 139.263626 
L 131.87197 140.772609 
L 133.03544 138.509135 
L 134.198909 137.754644 
L 135.362379 133.227698 
L 136.525848 134.73668 
L 137.689318 135.491171 
L 138.852787 123.419315 
L 140.016257 122.664824 
L 141.179727 124.173806 
L 142.343196 129.455243 
L 143.506666 129.455243 
L 144.670135 128.700752 
L 145.833605 127.19177 
L 146.997074 122.664824 
L 148.160544 122.664824 
L 149.324014 110.592968 
L 150.487483 115.874405 
L 151.650953 109.083986 
L 152.814422 114.365423 
L 153.977892 106.820513 
L 155.141361 109.838477 
L 156.304831 103.802549 
L 157.4683 112.856441 
L 158.63177 120.401351 
L 159.79524 122.664824 
L 160.958709 126.437279 
L 162.122179 130.964225 
L 163.285648 127.946261 
L 164.449118 122.664824 
L 165.612587 121.910333 
L 166.776057 118.892369 
L 167.939526 123.419315 
L 169.102996 135.491171 
L 170.266466 137.000153 
L 171.429935 131.718716 
L 172.593405 134.73668 
L 173.756874 141.5271 
L 174.920344 144.545064 
L 176.083813 150.580992 
L 177.247283 150.580992 
L 178.410752 156.61692 
L 179.574222 149.07201 
L 180.737692 152.844465 
L 181.901161 154.353447 
L 183.064631 157.371411 
L 184.2281 148.317519 
L 185.39157 164.916321 
L 186.555039 162.652848 
L 187.718509 161.898357 
L 188.881978 166.425303 
L 190.045448 171.70674 
L 191.208918 170.197758 
L 192.372387 149.826501 
L 193.535857 161.898357 
L 194.699326 153.598956 
L 195.862796 148.317519 
L 197.026265 156.61692 
L 198.189735 154.353447 
L 200.516674 158.880393 
L 201.680144 154.353447 
L 202.843613 157.371411 
L 204.007083 152.844465 
L 205.170552 154.353447 
L 207.497491 158.880393 
L 208.660961 163.407339 
L 209.824431 170.952249 
L 210.9879 173.215722 
L 212.15137 173.970213 
L 213.314839 177.742668 
L 214.478309 180.006141 
L 215.641778 177.742668 
L 216.805248 184.533088 
L 217.968717 188.305543 
L 219.132187 196.604944 
L 220.295657 194.341471 
L 221.459126 195.850453 
L 222.622596 208.6768 
L 223.786065 203.395363 
L 224.949535 207.167818 
L 226.113004 211.694764 
L 227.276474 208.6768 
L 228.439943 207.922309 
L 229.603413 204.904345 
L 230.766883 203.395363 
L 231.930352 202.640872 
L 233.093822 189.814525 
L 234.257291 198.113926 
L 236.58423 207.167818 
L 237.7477 204.904345 
L 238.911169 214.712728 
L 240.074639 215.467219 
L 241.238109 213.203746 
L 242.401578 215.467219 
L 243.565048 219.239674 
L 244.728517 213.203746 
L 245.891987 221.503147 
L 247.055456 207.167818 
L 248.218926 197.359435 
L 249.382395 195.850453 
L 250.545865 199.622908 
L 251.709335 201.13189 
L 252.872804 201.13189 
L 254.036274 203.395363 
L 255.199743 203.395363 
L 256.363213 211.694764 
L 257.526682 210.185782 
L 258.690152 200.377399 
L 259.853622 203.395363 
L 261.017091 200.377399 
L 262.180561 199.622908 
L 263.34403 200.377399 
L 264.5075 203.395363 
L 266.834439 212.449255 
L 267.997908 213.203746 
L 269.161378 210.940273 
L 270.324848 209.431291 
L 272.651787 210.940273 
L 273.815256 217.730692 
L 274.978726 217.730692 
L 276.142195 231.311531 
L 277.305665 229.048058 
L 278.469134 227.539076 
L 279.632604 223.012129 
L 280.796074 221.503147 
L 281.959543 222.257638 
L 283.123013 219.239674 
L 284.286482 223.012129 
L 285.449952 222.257638 
L 286.613421 217.730692 
L 287.776891 219.239674 
L 288.94036 219.994165 
L 290.10383 214.712728 
L 291.2673 210.940273 
L 292.430769 213.203746 
L 293.594239 210.185782 
L 294.757708 212.449255 
L 295.921178 209.431291 
L 297.084647 214.712728 
L 298.248117 215.467219 
L 299.411586 214.712728 
L 300.575056 212.449255 
L 301.738526 213.958237 
L 302.901995 216.976201 
L 304.065465 216.22171 
L 305.228934 216.22171 
L 306.392404 213.203746 
L 307.555873 207.167818 
L 308.719343 204.904345 
L 309.882812 205.658836 
L 311.046282 207.922309 
L 312.209752 204.149854 
L 313.373221 204.149854 
L 314.536691 201.886381 
L 315.70016 195.095962 
L 316.86363 196.604944 
L 318.027099 193.58698 
L 319.190569 193.58698 
L 320.354039 190.569016 
L 321.517508 186.796561 
L 322.680978 180.760632 
L 323.844447 189.060034 
L 325.007917 194.341471 
L 326.171386 189.060034 
L 327.334856 183.024106 
L 328.498325 186.04207 
L 329.661795 179.25165 
L 330.825265 174.724704 
L 331.988734 164.916321 
L 333.152204 166.425303 
L 334.315673 169.443267 
L 335.479143 173.970213 
L 336.642612 173.215722 
L 337.806082 168.688776 
L 338.969551 169.443267 
L 340.133021 153.598956 
L 341.296491 149.826501 
L 342.45996 152.089974 
L 343.62343 138.509135 
L 344.786899 139.263626 
L 345.950369 143.790573 
L 347.113838 137.754644 
L 348.277308 132.473207 
L 349.440777 132.473207 
L 350.604247 134.73668 
L 351.767717 127.946261 
L 352.931186 138.509135 
L 354.094656 142.281591 
L 355.258125 147.563028 
L 356.421595 140.018118 
L 357.585064 141.5271 
L 358.748534 149.07201 
L 359.912003 145.299555 
L 361.075473 155.862429 
L 362.238943 164.916321 
L 363.402412 155.862429 
L 364.565882 142.281591 
L 365.729351 154.353447 
L 366.892821 150.580992 
L 368.05629 149.07201 
L 369.21976 155.862429 
L 372.710169 171.70674 
L 373.873638 170.197758 
L 375.037108 169.443267 
L 376.200577 174.724704 
L 377.364047 178.497159 
L 378.527516 173.970213 
L 379.690986 170.952249 
L 380.854456 170.952249 
L 382.017925 175.479195 
L 383.181395 182.269615 
L 384.344864 184.533088 
L 385.508334 178.497159 
L 386.671803 177.742668 
L 387.835273 173.215722 
L 388.998742 175.479195 
L 390.162212 173.970213 
L 391.325682 183.778597 
L 392.489151 180.760632 
L 393.652621 187.551052 
L 394.81609 197.359435 
L 395.97956 195.850453 
L 397.143029 195.095962 
L 398.306499 196.604944 
L 399.469968 192.832489 
L 401.796908 194.341471 
L 402.960377 184.533088 
L 404.123847 187.551052 
L 405.287316 179.25165 
L 406.450786 180.006141 
L 407.614255 176.233686 
L 409.941194 185.287579 
L 411.104664 178.497159 
L 412.268134 181.515124 
L 413.431603 187.551052 
L 414.595073 195.850453 
L 415.758542 189.060034 
L 416.922012 192.832489 
L 418.085481 189.814525 
L 419.248951 199.622908 
L 420.412421 204.149854 
L 421.57589 195.095962 
L 422.73936 201.13189 
L 423.902829 196.604944 
L 425.066299 201.886381 
L 426.229768 204.149854 
L 427.393238 195.095962 
L 428.556707 194.341471 
L 429.720177 191.323507 
L 430.883647 196.604944 
L 432.047116 195.850453 
L 433.210586 196.604944 
L 434.374055 200.377399 
L 435.537525 203.395363 
L 436.700994 210.185782 
L 437.864464 210.940273 
L 439.027933 209.431291 
L 440.191403 206.413327 
L 441.354873 216.976201 
L 442.518342 216.22171 
L 443.681812 206.413327 
L 444.845281 203.395363 
L 446.008751 214.712728 
L 447.17222 214.712728 
L 448.33569 211.694764 
L 449.499159 213.958237 
L 450.662629 209.431291 
L 451.826099 202.640872 
L 452.989568 198.113926 
L 454.153038 201.13189 
L 455.316507 191.323507 
L 456.479977 192.077998 
L 457.643446 205.658836 
L 458.806916 189.060034 
L 459.970385 180.760632 
L 461.133855 186.796561 
L 462.297325 178.497159 
L 463.460794 180.006141 
L 464.624264 177.742668 
L 465.787733 186.796561 
L 466.951203 183.778597 
L 468.114672 173.970213 
L 469.278142 169.443267 
L 471.605081 161.898357 
L 473.93202 148.317519 
L 475.09549 139.263626 
L 476.258959 133.982189 
L 477.422429 118.892369 
L 478.585898 115.874405 
L 479.749368 112.10195 
L 480.912838 106.820513 
L 482.076307 95.503147 
L 483.239777 81.922309 
L 484.403246 74.377399 
L 485.566716 64.569016 
L 486.730185 57.778597 
L 487.893655 39.670812 
L 489.057124 49.479195 
L 490.220594 40.425303 
L 491.384064 44.197758 
L 492.547533 44.197758 
L 493.711003 34.389375 
L 494.874472 35.898357 
L 496.037942 41.179794 
L 497.201411 37.407339 
L 498.364881 42.688776 
L 499.52835 44.197758 
L 500.69182 41.179794 
L 501.85529 45.70674 
L 503.018759 46.461231 
L 504.182229 56.269615 
L 505.345698 55.515124 
L 506.509168 81.922309 
L 507.672637 87.958237 
L 508.836107 78.904345 
L 509.999576 87.203746 
L 511.163046 84.940273 
L 512.326516 81.922309 
L 513.489985 91.730692 
L 514.653455 78.904345 
L 515.816924 97.012129 
L 516.980394 89.467219 
L 518.143863 90.976201 
L 519.307333 99.275603 
L 520.470802 109.083986 
L 521.634272 109.838477 
L 522.797742 118.892369 
L 523.961211 125.682788 
L 525.124681 122.664824 
L 526.28815 127.19177 
L 527.45162 136.245662 
L 528.615089 133.227698 
L 529.778559 128.700752 
L 530.942029 113.610932 
L 532.105498 121.910333 
L 533.268968 124.173806 
L 534.432437 130.209734 
L 535.595907 118.892369 
L 536.759376 110.592968 
L 537.922846 123.419315 
L 539.086315 133.227698 
L 540.249785 118.137878 
L 541.413255 121.155842 
L 542.576724 115.874405 
L 543.740194 121.155842 
L 544.903663 122.664824 
L 546.067133 127.946261 
L 547.230602 121.155842 
L 548.394072 112.10195 
L 549.557541 109.838477 
L 550.721011 105.311531 
L 551.884481 107.575004 
L 553.04795 111.347459 
L 554.21142 100.030094 
L 555.374889 98.521112 
L 556.538359 97.766621 
L 557.701828 100.030094 
L 558.865298 94.748656 
L 560.028767 90.22171 
L 561.192237 80.413327 
L 562.355707 78.149854 
L 563.519176 68.341471 
L 563.519176 68.341471 
" style="fill:none;stroke:#1f77b4;stroke-linecap:round;stroke-width:1.5;"/>
   </g>
   <g id="line2d_18">
    <path clip-path="url(#pbe6a1b93b5)" d="M 56.246449 286.389375 
L 57.409918 286.389375 
L 58.573388 281.107938 
L 59.736858 281.107938 
L 60.900327 279.598956 
L 62.063797 272.054046 
L 63.227266 272.808537 
L 64.390736 269.790573 
L 69.044614 269.790573 
L 70.208084 270.545064 
L 71.371553 267.5271 
L 72.535023 269.036082 
L 73.698492 268.281591 
L 74.861962 265.263626 
L 76.025431 265.263626 
L 77.188901 261.491171 
L 78.35237 258.473207 
L 79.51584 258.473207 
L 80.67931 262.245662 
L 83.006249 262.245662 
L 84.169718 261.491171 
L 85.333188 257.718716 
L 86.496657 259.982189 
L 87.660127 264.509135 
L 88.823596 258.473207 
L 89.987066 253.19177 
L 91.150536 252.437279 
L 92.314005 245.64686 
L 93.477475 250.173806 
L 94.640944 248.664824 
L 95.804414 245.64686 
L 96.967883 238.856441 
L 98.131353 235.083986 
L 99.294823 232.820513 
L 100.458292 238.856441 
L 101.621762 238.856441 
L 103.948701 241.874405 
L 105.11217 238.856441 
L 106.27564 233.575004 
L 107.439109 231.311531 
L 108.602579 229.802549 
L 109.766049 230.55704 
L 110.929518 225.275603 
L 112.092988 225.275603 
L 113.256457 232.820513 
L 114.419927 234.329495 
L 115.583396 229.048058 
L 116.746866 229.048058 
L 119.073805 232.066022 
L 120.237275 236.592968 
L 121.400744 233.575004 
L 122.564214 231.311531 
L 123.727683 235.838477 
L 124.891153 229.048058 
L 126.054622 229.048058 
L 127.218092 227.539076 
L 128.381561 230.55704 
L 129.545031 226.030094 
L 130.708501 226.030094 
L 131.87197 222.257638 
L 133.03544 223.012129 
L 135.362379 221.503147 
L 136.525848 228.293567 
L 137.689318 230.55704 
L 138.852787 225.275603 
L 140.016257 229.048058 
L 141.179727 225.275603 
L 142.343196 220.748656 
L 143.506666 219.239674 
L 144.670135 218.485183 
L 145.833605 221.503147 
L 146.997074 219.239674 
L 148.160544 219.239674 
L 149.324014 214.712728 
L 150.487483 216.976201 
L 151.650953 215.467219 
L 152.814422 215.467219 
L 153.977892 207.922309 
L 155.141361 211.694764 
L 156.304831 216.976201 
L 157.4683 219.239674 
L 158.63177 212.449255 
L 159.79524 216.976201 
L 160.958709 223.012129 
L 162.122179 225.275603 
L 164.449118 223.766621 
L 165.612587 219.239674 
L 166.776057 221.503147 
L 167.939526 219.994165 
L 169.102996 223.012129 
L 170.266466 222.257638 
L 171.429935 223.012129 
L 172.593405 227.539076 
L 173.756874 234.329495 
L 174.920344 233.575004 
L 176.083813 230.55704 
L 177.247283 231.311531 
L 178.410752 234.329495 
L 179.574222 232.066022 
L 180.737692 230.55704 
L 181.901161 231.311531 
L 183.064631 231.311531 
L 184.2281 229.802549 
L 185.39157 236.592968 
L 186.555039 236.592968 
L 187.718509 235.838477 
L 188.881978 238.856441 
L 190.045448 240.365423 
L 191.208918 236.592968 
L 192.372387 231.311531 
L 193.535857 233.575004 
L 194.699326 227.539076 
L 195.862796 230.55704 
L 197.026265 236.592968 
L 198.189735 238.856441 
L 199.353204 237.347459 
L 200.516674 237.347459 
L 201.680144 238.856441 
L 202.843613 233.575004 
L 204.007083 235.083986 
L 205.170552 237.347459 
L 206.334022 237.347459 
L 207.497491 233.575004 
L 208.660961 233.575004 
L 209.824431 238.10195 
L 210.9879 238.10195 
L 212.15137 238.856441 
L 213.314839 241.874405 
L 214.478309 243.383387 
L 215.641778 244.137878 
L 216.805248 246.401351 
L 217.968717 250.173806 
L 219.132187 249.419315 
L 220.295657 246.401351 
L 221.459126 247.155842 
L 222.622596 252.437279 
L 223.786065 252.437279 
L 224.949535 251.682788 
L 226.113004 255.455243 
L 227.276474 254.700752 
L 228.439943 253.19177 
L 229.603413 250.173806 
L 230.766883 251.682788 
L 231.930352 251.682788 
L 233.093822 248.664824 
L 234.257291 253.946261 
L 235.420761 253.946261 
L 236.58423 258.473207 
L 237.7477 256.209734 
L 238.911169 259.227698 
L 240.074639 259.227698 
L 241.238109 259.982189 
L 242.401578 256.964225 
L 244.728517 256.964225 
L 245.891987 260.73668 
L 247.055456 254.700752 
L 248.218926 256.209734 
L 249.382395 252.437279 
L 250.545865 253.946261 
L 251.709335 253.19177 
L 252.872804 253.946261 
L 254.036274 251.682788 
L 255.199743 253.946261 
L 256.363213 255.455243 
L 257.526682 254.700752 
L 258.690152 250.173806 
L 259.853622 251.682788 
L 261.017091 247.910333 
L 262.180561 248.664824 
L 263.34403 253.19177 
L 264.5075 259.227698 
L 265.670969 255.455243 
L 266.834439 255.455243 
L 267.997908 256.209734 
L 269.161378 254.700752 
L 271.488317 256.209734 
L 272.651787 255.455243 
L 273.815256 256.964225 
L 274.978726 262.245662 
L 276.142195 261.491171 
L 277.305665 256.964225 
L 278.469134 257.718716 
L 279.632604 256.964225 
L 280.796074 254.700752 
L 281.959543 253.19177 
L 283.123013 253.19177 
L 284.286482 256.209734 
L 285.449952 257.718716 
L 286.613421 256.964225 
L 288.94036 256.964225 
L 290.10383 256.209734 
L 291.2673 254.700752 
L 292.430769 256.209734 
L 293.594239 256.964225 
L 294.757708 255.455243 
L 295.921178 254.700752 
L 297.084647 258.473207 
L 298.248117 261.491171 
L 299.411586 259.227698 
L 300.575056 261.491171 
L 301.738526 261.491171 
L 302.901995 259.982189 
L 304.065465 262.245662 
L 305.228934 258.473207 
L 306.392404 256.209734 
L 307.555873 255.455243 
L 308.719343 252.437279 
L 312.209752 252.437279 
L 314.536691 249.419315 
L 315.70016 246.401351 
L 316.86363 251.682788 
L 318.027099 251.682788 
L 319.190569 250.928297 
L 320.354039 249.419315 
L 321.517508 246.401351 
L 322.680978 247.155842 
L 325.007917 245.64686 
L 326.171386 244.137878 
L 327.334856 241.874405 
L 328.498325 244.892369 
L 329.661795 235.838477 
L 330.825265 233.575004 
L 331.988734 235.083986 
L 333.152204 234.329495 
L 334.315673 226.784585 
L 335.479143 234.329495 
L 336.642612 233.575004 
L 337.806082 235.838477 
L 338.969551 235.083986 
L 340.133021 227.539076 
L 341.296491 226.030094 
L 342.45996 226.030094 
L 343.62343 216.22171 
L 344.786899 219.994165 
L 345.950369 225.275603 
L 347.113838 221.503147 
L 348.277308 222.257638 
L 349.440777 222.257638 
L 350.604247 223.766621 
L 351.767717 223.012129 
L 352.931186 228.293567 
L 354.094656 229.048058 
L 355.258125 223.766621 
L 356.421595 220.748656 
L 357.585064 222.257638 
L 358.748534 226.784585 
L 359.912003 228.293567 
L 361.075473 226.784585 
L 362.238943 235.083986 
L 363.402412 229.048058 
L 364.565882 229.048058 
L 365.729351 225.275603 
L 366.892821 220.748656 
L 368.05629 223.766621 
L 369.21976 223.766621 
L 370.38323 229.048058 
L 371.546699 231.311531 
L 372.710169 229.048058 
L 373.873638 228.293567 
L 375.037108 231.311531 
L 376.200577 235.838477 
L 377.364047 232.820513 
L 378.527516 230.55704 
L 379.690986 232.066022 
L 380.854456 226.784585 
L 382.017925 232.066022 
L 383.181395 235.083986 
L 384.344864 235.083986 
L 385.508334 226.784585 
L 386.671803 235.083986 
L 387.835273 235.083986 
L 388.998742 238.856441 
L 390.162212 236.592968 
L 391.325682 235.083986 
L 392.489151 236.592968 
L 393.652621 237.347459 
L 394.81609 239.610932 
L 395.97956 241.119914 
L 397.143029 241.874405 
L 398.306499 243.383387 
L 399.469968 241.874405 
L 400.633438 238.856441 
L 401.796908 237.347459 
L 402.960377 232.820513 
L 404.123847 233.575004 
L 405.287316 228.293567 
L 406.450786 226.784585 
L 407.614255 223.766621 
L 408.777725 225.275603 
L 409.941194 227.539076 
L 412.268134 230.55704 
L 413.431603 231.311531 
L 414.595073 233.575004 
L 415.758542 232.066022 
L 416.922012 234.329495 
L 418.085481 229.048058 
L 419.248951 229.802549 
L 420.412421 232.066022 
L 421.57589 231.311531 
L 422.73936 236.592968 
L 426.229768 238.856441 
L 427.393238 235.838477 
L 428.556707 231.311531 
L 429.720177 235.838477 
L 430.883647 232.820513 
L 432.047116 236.592968 
L 433.210586 238.10195 
L 434.374055 242.628896 
L 435.537525 245.64686 
L 436.700994 247.155842 
L 437.864464 244.892369 
L 439.027933 245.64686 
L 440.191403 243.383387 
L 441.354873 250.928297 
L 442.518342 251.682788 
L 443.681812 240.365423 
L 444.845281 244.137878 
L 446.008751 242.628896 
L 447.17222 243.383387 
L 448.33569 239.610932 
L 449.499159 242.628896 
L 450.662629 244.137878 
L 451.826099 241.874405 
L 452.989568 243.383387 
L 454.153038 248.664824 
L 456.479977 239.610932 
L 457.643446 244.892369 
L 458.806916 240.365423 
L 459.970385 237.347459 
L 461.133855 239.610932 
L 462.297325 236.592968 
L 463.460794 236.592968 
L 464.624264 237.347459 
L 465.787733 243.383387 
L 466.951203 233.575004 
L 468.114672 236.592968 
L 469.278142 238.856441 
L 470.441611 232.066022 
L 471.605081 229.048058 
L 472.768551 223.766621 
L 473.93202 211.694764 
L 475.09549 204.904345 
L 476.258959 213.958237 
L 477.422429 201.886381 
L 478.585898 196.604944 
L 479.749368 198.113926 
L 480.912838 186.796561 
L 482.076307 190.569016 
L 483.239777 186.04207 
L 484.403246 187.551052 
L 485.566716 180.760632 
L 486.730185 177.742668 
L 487.893655 165.670812 
L 489.057124 163.407339 
L 490.220594 155.862429 
L 491.384064 151.335483 
L 492.547533 154.353447 
L 493.711003 152.089974 
L 494.874472 150.580992 
L 496.037942 147.563028 
L 498.364881 146.054046 
L 499.52835 149.07201 
L 500.69182 146.808537 
L 501.85529 146.054046 
L 504.182229 143.036082 
L 505.345698 144.545064 
L 506.509168 153.598956 
L 507.672637 153.598956 
L 509.999576 165.670812 
L 511.163046 162.652848 
L 512.326516 158.880393 
L 513.489985 168.688776 
L 514.653455 163.407339 
L 515.816924 172.461231 
L 518.143863 175.479195 
L 519.307333 180.760632 
L 520.470802 189.060034 
L 521.634272 189.814525 
L 522.797742 194.341471 
L 525.124681 192.832489 
L 526.28815 197.359435 
L 527.45162 202.640872 
L 528.615089 198.113926 
L 529.778559 202.640872 
L 530.942029 183.024106 
L 532.105498 198.868417 
L 533.268968 205.658836 
L 534.432437 208.6768 
L 535.595907 198.868417 
L 536.759376 197.359435 
L 537.922846 204.149854 
L 539.086315 200.377399 
L 540.249785 182.269615 
L 541.413255 194.341471 
L 542.576724 192.832489 
L 543.740194 193.58698 
L 544.903663 199.622908 
L 546.067133 204.904345 
L 547.230602 198.868417 
L 548.394072 198.113926 
L 549.557541 194.341471 
L 550.721011 189.814525 
L 551.884481 191.323507 
L 553.04795 195.850453 
L 554.21142 193.58698 
L 555.374889 183.778597 
L 556.538359 183.778597 
L 557.701828 186.04207 
L 558.865298 186.796561 
L 560.028767 183.024106 
L 561.192237 180.760632 
L 562.355707 176.233686 
L 563.519176 174.724704 
L 563.519176 174.724704 
" style="fill:none;stroke:#ff7f0e;stroke-linecap:round;stroke-width:1.5;"/>
   </g>
   <g id="patch_3">
    <path d="M 30.882812 298.989375 
L 30.882812 21.789375 
" style="fill:none;stroke:#cccccc;stroke-linecap:square;stroke-linejoin:miter;stroke-width:0.8;"/>
   </g>
   <g id="patch_4">
    <path d="M 588.882812 298.989375 
L 588.882812 21.789375 
" style="fill:none;stroke:#cccccc;stroke-linecap:square;stroke-linejoin:miter;stroke-width:0.8;"/>
   </g>
   <g id="patch_5">
    <path d="M 30.882812 298.989375 
L 588.882812 298.989375 
" style="fill:none;stroke:#cccccc;stroke-linecap:square;stroke-linejoin:miter;stroke-width:0.8;"/>
   </g>
   <g id="patch_6">
    <path d="M 30.882812 21.789375 
L 588.882812 21.789375 
" style="fill:none;stroke:#cccccc;stroke-linecap:square;stroke-linejoin:miter;stroke-width:0.8;"/>
   </g>
   <g id="text_17">
    <!-- Internações -->
    <g style="fill:#262626;" transform="translate(278.531875 15.789375)scale(0.12 -0.12)">
     <defs>
      <path d="M 597 0 
L 597 4581 
L 1203 4581 
L 1203 0 
L 597 0 
z
" id="ArialMT-49" transform="scale(0.015625)"/>
      <path d="M 422 0 
L 422 3319 
L 928 3319 
L 928 2847 
Q 1294 3394 1984 3394 
Q 2284 3394 2536 3286 
Q 2788 3178 2913 3003 
Q 3038 2828 3088 2588 
Q 3119 2431 3119 2041 
L 3119 0 
L 2556 0 
L 2556 2019 
Q 2556 2363 2490 2533 
Q 2425 2703 2258 2804 
Q 2091 2906 1866 2906 
Q 1506 2906 1245 2678 
Q 984 2450 984 1813 
L 984 0 
L 422 0 
z
" id="ArialMT-6e" transform="scale(0.015625)"/>
      <path d="M 1650 503 
L 1731 6 
Q 1494 -44 1306 -44 
Q 1000 -44 831 53 
Q 663 150 594 308 
Q 525 466 525 972 
L 525 2881 
L 113 2881 
L 113 3319 
L 525 3319 
L 525 4141 
L 1084 4478 
L 1084 3319 
L 1650 3319 
L 1650 2881 
L 1084 2881 
L 1084 941 
Q 1084 700 1114 631 
Q 1144 563 1211 522 
Q 1278 481 1403 481 
Q 1497 481 1650 503 
z
" id="ArialMT-74" transform="scale(0.015625)"/>
      <path d="M 2694 1069 
L 3275 997 
Q 3138 488 2766 206 
Q 2394 -75 1816 -75 
Q 1088 -75 661 373 
Q 234 822 234 1631 
Q 234 2469 665 2931 
Q 1097 3394 1784 3394 
Q 2450 3394 2872 2941 
Q 3294 2488 3294 1666 
Q 3294 1616 3291 1516 
L 816 1516 
Q 847 969 1125 678 
Q 1403 388 1819 388 
Q 2128 388 2347 550 
Q 2566 713 2694 1069 
z
M 847 1978 
L 2700 1978 
Q 2663 2397 2488 2606 
Q 2219 2931 1791 2931 
Q 1403 2931 1139 2672 
Q 875 2413 847 1978 
z
" id="ArialMT-65" transform="scale(0.015625)"/>
      <path d="M 416 0 
L 416 3319 
L 922 3319 
L 922 2816 
Q 1116 3169 1280 3281 
Q 1444 3394 1641 3394 
Q 1925 3394 2219 3213 
L 2025 2691 
Q 1819 2813 1613 2813 
Q 1428 2813 1281 2702 
Q 1134 2591 1072 2394 
Q 978 2094 978 1738 
L 978 0 
L 416 0 
z
" id="ArialMT-72" transform="scale(0.015625)"/>
      <path d="M 2588 409 
Q 2275 144 1986 34 
Q 1697 -75 1366 -75 
Q 819 -75 525 192 
Q 231 459 231 875 
Q 231 1119 342 1320 
Q 453 1522 633 1644 
Q 813 1766 1038 1828 
Q 1203 1872 1538 1913 
Q 2219 1994 2541 2106 
Q 2544 2222 2544 2253 
Q 2544 2597 2384 2738 
Q 2169 2928 1744 2928 
Q 1347 2928 1158 2789 
Q 969 2650 878 2297 
L 328 2372 
Q 403 2725 575 2942 
Q 747 3159 1072 3276 
Q 1397 3394 1825 3394 
Q 2250 3394 2515 3294 
Q 2781 3194 2906 3042 
Q 3031 2891 3081 2659 
Q 3109 2516 3109 2141 
L 3109 1391 
Q 3109 606 3145 398 
Q 3181 191 3288 0 
L 2700 0 
Q 2613 175 2588 409 
z
M 2541 1666 
Q 2234 1541 1622 1453 
Q 1275 1403 1131 1340 
Q 988 1278 909 1158 
Q 831 1038 831 891 
Q 831 666 1001 516 
Q 1172 366 1500 366 
Q 1825 366 2078 508 
Q 2331 650 2450 897 
Q 2541 1088 2541 1459 
L 2541 1666 
z
" id="ArialMT-61" transform="scale(0.015625)"/>
      <path d="M 2588 1216 
L 3141 1144 
Q 3050 572 2676 248 
Q 2303 -75 1759 -75 
Q 1078 -75 664 370 
Q 250 816 250 1647 
Q 250 2184 428 2587 
Q 606 2991 970 3192 
Q 1334 3394 1763 3394 
Q 2303 3394 2647 3120 
Q 2991 2847 3088 2344 
L 2541 2259 
Q 2463 2594 2264 2762 
Q 2066 2931 1784 2931 
Q 1359 2931 1093 2626 
Q 828 2322 828 1663 
Q 828 994 1084 691 
Q 1341 388 1753 388 
Q 2084 388 2306 591 
Q 2528 794 2588 1216 
z
M 1283 -417 
L 1446 136 
L 1864 136 
L 1761 -199 
Q 2027 -230 2161 -362 
Q 2296 -495 2296 -658 
Q 2296 -892 2071 -1072 
Q 1846 -1252 1392 -1252 
Q 1136 -1252 942 -1214 
L 977 -849 
Q 1177 -861 1271 -861 
Q 1564 -861 1683 -780 
Q 1774 -717 1774 -627 
Q 1774 -570 1738 -526 
Q 1702 -483 1605 -451 
Q 1508 -420 1283 -417 
z
" id="ArialMT-e7" transform="scale(0.015625)"/>
      <path d="M 213 1659 
Q 213 2581 725 3025 
Q 1153 3394 1769 3394 
Q 2453 3394 2887 2945 
Q 3322 2497 3322 1706 
Q 3322 1066 3130 698 
Q 2938 331 2570 128 
Q 2203 -75 1769 -75 
Q 1072 -75 642 372 
Q 213 819 213 1659 
z
M 791 1659 
Q 791 1022 1069 705 
Q 1347 388 1769 388 
Q 2188 388 2466 706 
Q 2744 1025 2744 1678 
Q 2744 2294 2464 2611 
Q 2184 2928 1769 2928 
Q 1347 2928 1069 2612 
Q 791 2297 791 1659 
z
M 726 3809 
Q 723 4134 904 4328 
Q 1082 4522 1360 4522 
Q 1554 4522 1888 4353 
Q 2073 4259 2182 4259 
Q 2282 4259 2335 4314 
Q 2388 4369 2410 4531 
L 2817 4531 
Q 2807 4175 2637 3997 
Q 2467 3819 2204 3819 
Q 2007 3819 1685 3994 
Q 1476 4106 1379 4106 
Q 1273 4106 1207 4031 
Q 1138 3956 1142 3809 
L 726 3809 
z
" id="ArialMT-f5" transform="scale(0.015625)"/>
      <path d="M 197 991 
L 753 1078 
Q 800 744 1014 566 
Q 1228 388 1613 388 
Q 2000 388 2187 545 
Q 2375 703 2375 916 
Q 2375 1106 2209 1216 
Q 2094 1291 1634 1406 
Q 1016 1563 777 1677 
Q 538 1791 414 1992 
Q 291 2194 291 2438 
Q 291 2659 392 2848 
Q 494 3038 669 3163 
Q 800 3259 1026 3326 
Q 1253 3394 1513 3394 
Q 1903 3394 2198 3281 
Q 2494 3169 2634 2976 
Q 2775 2784 2828 2463 
L 2278 2388 
Q 2241 2644 2061 2787 
Q 1881 2931 1553 2931 
Q 1166 2931 1000 2803 
Q 834 2675 834 2503 
Q 834 2394 903 2306 
Q 972 2216 1119 2156 
Q 1203 2125 1616 2013 
Q 2213 1853 2448 1751 
Q 2684 1650 2818 1456 
Q 2953 1263 2953 975 
Q 2953 694 2789 445 
Q 2625 197 2315 61 
Q 2006 -75 1616 -75 
Q 969 -75 630 194 
Q 291 463 197 991 
z
" id="ArialMT-73" transform="scale(0.015625)"/>
     </defs>
     <use xlink:href="#ArialMT-49"/>
     <use x="27.783203" xlink:href="#ArialMT-6e"/>
     <use x="83.398438" xlink:href="#ArialMT-74"/>
     <use x="111.181641" xlink:href="#ArialMT-65"/>
     <use x="166.796875" xlink:href="#ArialMT-72"/>
     <use x="200.097656" xlink:href="#ArialMT-6e"/>
     <use x="255.712891" xlink:href="#ArialMT-61"/>
     <use x="311.328125" xlink:href="#ArialMT-e7"/>
     <use x="361.328125" xlink:href="#ArialMT-f5"/>
     <use x="416.943359" xlink:href="#ArialMT-65"/>
     <use x="472.558594" xlink:href="#ArialMT-73"/>
    </g>
   </g>
   <g id="legend_1">
    <g id="patch_7">
     <path d="M 37.882812 58.08 
L 122.134375 58.08 
Q 124.134375 58.08 124.134375 56.08 
L 124.134375 28.789375 
Q 124.134375 26.789375 122.134375 26.789375 
L 37.882812 26.789375 
Q 35.882812 26.789375 35.882812 28.789375 
L 35.882812 56.08 
Q 35.882812 58.08 37.882812 58.08 
z
" style="fill:#ffffff;opacity:0.8;stroke:#cccccc;stroke-linejoin:miter;"/>
    </g>
    <g id="line2d_19">
     <path d="M 39.882812 34.447187 
L 59.882812 34.447187 
" style="fill:none;stroke:#1f77b4;stroke-linecap:round;stroke-width:1.5;"/>
    </g>
    <g id="line2d_20"/>
    <g id="text_18">
     <!-- Internações -->
     <g style="fill:#262626;" transform="translate(67.882812 37.947187)scale(0.1 -0.1)">
      <use xlink:href="#ArialMT-49"/>
      <use x="27.783203" xlink:href="#ArialMT-6e"/>
      <use x="83.398438" xlink:href="#ArialMT-74"/>
      <use x="111.181641" xlink:href="#ArialMT-65"/>
      <use x="166.796875" xlink:href="#ArialMT-72"/>
      <use x="200.097656" xlink:href="#ArialMT-6e"/>
      <use x="255.712891" xlink:href="#ArialMT-61"/>
      <use x="311.328125" xlink:href="#ArialMT-e7"/>
      <use x="361.328125" xlink:href="#ArialMT-f5"/>
      <use x="416.943359" xlink:href="#ArialMT-65"/>
      <use x="472.558594" xlink:href="#ArialMT-73"/>
     </g>
    </g>
    <g id="line2d_21">
     <path d="M 39.882812 48.5925 
L 59.882812 48.5925 
" style="fill:none;stroke:#ff7f0e;stroke-linecap:round;stroke-width:1.5;"/>
    </g>
    <g id="line2d_22"/>
    <g id="text_19">
     <!-- UTI -->
     <g style="fill:#262626;" transform="translate(67.882812 52.0925)scale(0.1 -0.1)">
      <defs>
       <path d="M 3500 4581 
L 4106 4581 
L 4106 1934 
Q 4106 1244 3950 837 
Q 3794 431 3386 176 
Q 2978 -78 2316 -78 
Q 1672 -78 1262 144 
Q 853 366 678 786 
Q 503 1206 503 1934 
L 503 4581 
L 1109 4581 
L 1109 1938 
Q 1109 1341 1220 1058 
Q 1331 775 1601 622 
Q 1872 469 2263 469 
Q 2931 469 3215 772 
Q 3500 1075 3500 1938 
L 3500 4581 
z
" id="ArialMT-55" transform="scale(0.015625)"/>
       <path d="M 1659 0 
L 1659 4041 
L 150 4041 
L 150 4581 
L 3781 4581 
L 3781 4041 
L 2266 4041 
L 2266 0 
L 1659 0 
z
" id="ArialMT-54" transform="scale(0.015625)"/>
      </defs>
      <use xlink:href="#ArialMT-55"/>
      <use x="72.216797" xlink:href="#ArialMT-54"/>
      <use x="133.300781" xlink:href="#ArialMT-49"/>
     </g>
    </g>
   </g>
  </g>
 </g>
 <defs>
  <clipPath id="pbe6a1b93b5">
   <rect height="277.2" width="558" x="30.882812" y="21.789375"/>
  </clipPath>
 </defs>
</svg>
