<?xml version="1.0" encoding="utf-8" standalone="no"?>
<!DOCTYPE svg PUBLIC "-//W3C//DTD SVG 1.1//EN"
  "http://www.w3.org/Graphics/SVG/1.1/DTD/svg11.dtd">
<svg xmlns:xlink="http://www.w3.org/1999/xlink" width="705.6pt" height="340.273125pt" viewBox="0 0 705.6 340.273125" xmlns="http://www.w3.org/2000/svg" version="1.1">
 <metadata>
  <rdf:RDF xmlns:dc="http://purl.org/dc/elements/1.1/" xmlns:cc="http://creativecommons.org/ns#" xmlns:rdf="http://www.w3.org/1999/02/22-rdf-syntax-ns#">
   <cc:Work>
    <dc:type rdf:resource="http://purl.org/dc/dcmitype/StillImage"/>
    <dc:date>2022-03-18T15:12:01.692458</dc:date>
    <dc:format>image/svg+xml</dc:format>
    <dc:creator>
     <cc:Agent>
      <dc:title>Matplotlib v3.5.1, https://matplotlib.org/</dc:title>
     </cc:Agent>
    </dc:creator>
   </cc:Work>
  </rdf:RDF>
 </metadata>
 <defs>
  <style type="text/css">*{stroke-linejoin: round; stroke-linecap: butt}</style>
 </defs>
 <g id="figure_1">
  <g id="patch_1">
   <path d="M 0 340.273125 
L 705.6 340.273125 
L 705.6 0 
L 0 0 
z
" style="fill: #ffffff"/>
  </g>
  <g id="axes_1">
   <g id="patch_2">
    <path d="M 82.8 298.989375 
L 640.8 298.989375 
L 640.8 21.789375 
L 82.8 21.789375 
z
" style="fill: #ffffff"/>
   </g>
   <g id="matplotlib.axis_1">
    <g id="xtick_1">
     <g id="line2d_1">
      <path d="M 92.764286 298.989375 
L 92.764286 21.789375 
" clip-path="url(#pc46f578cd7)" style="fill: none; stroke: #cccccc; stroke-width: 0.8; stroke-linecap: round"/>
     </g>
     <g id="text_1">
      <!-- 2020-04 -->
      <g style="fill: #262626" transform="translate(74.416629 313.147188)scale(0.1 -0.1)">
       <defs>
        <path id="ArialMT-32" d="M 3222 541 
L 3222 0 
L 194 0 
Q 188 203 259 391 
Q 375 700 629 1000 
Q 884 1300 1366 1694 
Q 2113 2306 2375 2664 
Q 2638 3022 2638 3341 
Q 2638 3675 2398 3904 
Q 2159 4134 1775 4134 
Q 1369 4134 1125 3890 
Q 881 3647 878 3216 
L 300 3275 
Q 359 3922 746 4261 
Q 1134 4600 1788 4600 
Q 2447 4600 2831 4234 
Q 3216 3869 3216 3328 
Q 3216 3053 3103 2787 
Q 2991 2522 2730 2228 
Q 2469 1934 1863 1422 
Q 1356 997 1212 845 
Q 1069 694 975 541 
L 3222 541 
z
" transform="scale(0.015625)"/>
        <path id="ArialMT-30" d="M 266 2259 
Q 266 3072 433 3567 
Q 600 4063 929 4331 
Q 1259 4600 1759 4600 
Q 2128 4600 2406 4451 
Q 2684 4303 2865 4023 
Q 3047 3744 3150 3342 
Q 3253 2941 3253 2259 
Q 3253 1453 3087 958 
Q 2922 463 2592 192 
Q 2263 -78 1759 -78 
Q 1097 -78 719 397 
Q 266 969 266 2259 
z
M 844 2259 
Q 844 1131 1108 757 
Q 1372 384 1759 384 
Q 2147 384 2411 759 
Q 2675 1134 2675 2259 
Q 2675 3391 2411 3762 
Q 2147 4134 1753 4134 
Q 1366 4134 1134 3806 
Q 844 3388 844 2259 
z
" transform="scale(0.015625)"/>
        <path id="ArialMT-2d" d="M 203 1375 
L 203 1941 
L 1931 1941 
L 1931 1375 
L 203 1375 
z
" transform="scale(0.015625)"/>
        <path id="ArialMT-34" d="M 2069 0 
L 2069 1097 
L 81 1097 
L 81 1613 
L 2172 4581 
L 2631 4581 
L 2631 1613 
L 3250 1613 
L 3250 1097 
L 2631 1097 
L 2631 0 
L 2069 0 
z
M 2069 1613 
L 2069 3678 
L 634 1613 
L 2069 1613 
z
" transform="scale(0.015625)"/>
       </defs>
       <use xlink:href="#ArialMT-32"/>
       <use xlink:href="#ArialMT-30" x="55.615234"/>
       <use xlink:href="#ArialMT-32" x="111.230469"/>
       <use xlink:href="#ArialMT-30" x="166.845703"/>
       <use xlink:href="#ArialMT-2d" x="222.460938"/>
       <use xlink:href="#ArialMT-30" x="255.761719"/>
       <use xlink:href="#ArialMT-34" x="311.376953"/>
      </g>
     </g>
    </g>
    <g id="xtick_2">
     <g id="line2d_2">
      <path d="M 162.514286 298.989375 
L 162.514286 21.789375 
" clip-path="url(#pc46f578cd7)" style="fill: none; stroke: #cccccc; stroke-width: 0.8; stroke-linecap: round"/>
     </g>
     <g id="text_2">
      <!-- 2020-07 -->
      <g style="fill: #262626" transform="translate(144.166629 313.147188)scale(0.1 -0.1)">
       <defs>
        <path id="ArialMT-37" d="M 303 3981 
L 303 4522 
L 3269 4522 
L 3269 4084 
Q 2831 3619 2401 2847 
Q 1972 2075 1738 1259 
Q 1569 684 1522 0 
L 944 0 
Q 953 541 1156 1306 
Q 1359 2072 1739 2783 
Q 2119 3494 2547 3981 
L 303 3981 
z
" transform="scale(0.015625)"/>
       </defs>
       <use xlink:href="#ArialMT-32"/>
       <use xlink:href="#ArialMT-30" x="55.615234"/>
       <use xlink:href="#ArialMT-32" x="111.230469"/>
       <use xlink:href="#ArialMT-30" x="166.845703"/>
       <use xlink:href="#ArialMT-2d" x="222.460938"/>
       <use xlink:href="#ArialMT-30" x="255.761719"/>
       <use xlink:href="#ArialMT-37" x="311.376953"/>
      </g>
     </g>
    </g>
    <g id="xtick_3">
     <g id="line2d_3">
      <path d="M 233.030769 298.989375 
L 233.030769 21.789375 
" clip-path="url(#pc46f578cd7)" style="fill: none; stroke: #cccccc; stroke-width: 0.8; stroke-linecap: round"/>
     </g>
     <g id="text_3">
      <!-- 2020-10 -->
      <g style="fill: #262626" transform="translate(214.683113 313.147188)scale(0.1 -0.1)">
       <defs>
        <path id="ArialMT-31" d="M 2384 0 
L 1822 0 
L 1822 3584 
Q 1619 3391 1289 3197 
Q 959 3003 697 2906 
L 697 3450 
Q 1169 3672 1522 3987 
Q 1875 4303 2022 4600 
L 2384 4600 
L 2384 0 
z
" transform="scale(0.015625)"/>
       </defs>
       <use xlink:href="#ArialMT-32"/>
       <use xlink:href="#ArialMT-30" x="55.615234"/>
       <use xlink:href="#ArialMT-32" x="111.230469"/>
       <use xlink:href="#ArialMT-30" x="166.845703"/>
       <use xlink:href="#ArialMT-2d" x="222.460938"/>
       <use xlink:href="#ArialMT-31" x="255.761719"/>
       <use xlink:href="#ArialMT-30" x="311.376953"/>
      </g>
     </g>
    </g>
    <g id="xtick_4">
     <g id="line2d_4">
      <path d="M 303.547253 298.989375 
L 303.547253 21.789375 
" clip-path="url(#pc46f578cd7)" style="fill: none; stroke: #cccccc; stroke-width: 0.8; stroke-linecap: round"/>
     </g>
     <g id="text_4">
      <!-- 2021-01 -->
      <g style="fill: #262626" transform="translate(285.199596 313.147188)scale(0.1 -0.1)">
       <use xlink:href="#ArialMT-32"/>
       <use xlink:href="#ArialMT-30" x="55.615234"/>
       <use xlink:href="#ArialMT-32" x="111.230469"/>
       <use xlink:href="#ArialMT-31" x="166.845703"/>
       <use xlink:href="#ArialMT-2d" x="222.460938"/>
       <use xlink:href="#ArialMT-30" x="255.761719"/>
       <use xlink:href="#ArialMT-31" x="311.376953"/>
      </g>
     </g>
    </g>
    <g id="xtick_5">
     <g id="line2d_5">
      <path d="M 372.530769 298.989375 
L 372.530769 21.789375 
" clip-path="url(#pc46f578cd7)" style="fill: none; stroke: #cccccc; stroke-width: 0.8; stroke-linecap: round"/>
     </g>
     <g id="text_5">
      <!-- 2021-04 -->
      <g style="fill: #262626" transform="translate(354.183113 313.147188)scale(0.1 -0.1)">
       <use xlink:href="#ArialMT-32"/>
       <use xlink:href="#ArialMT-30" x="55.615234"/>
       <use xlink:href="#ArialMT-32" x="111.230469"/>
       <use xlink:href="#ArialMT-31" x="166.845703"/>
       <use xlink:href="#ArialMT-2d" x="222.460938"/>
       <use xlink:href="#ArialMT-30" x="255.761719"/>
       <use xlink:href="#ArialMT-34" x="311.376953"/>
      </g>
     </g>
    </g>
    <g id="xtick_6">
     <g id="line2d_6">
      <path d="M 442.280769 298.989375 
L 442.280769 21.789375 
" clip-path="url(#pc46f578cd7)" style="fill: none; stroke: #cccccc; stroke-width: 0.8; stroke-linecap: round"/>
     </g>
     <g id="text_6">
      <!-- 2021-07 -->
      <g style="fill: #262626" transform="translate(423.933113 313.147188)scale(0.1 -0.1)">
       <use xlink:href="#ArialMT-32"/>
       <use xlink:href="#ArialMT-30" x="55.615234"/>
       <use xlink:href="#ArialMT-32" x="111.230469"/>
       <use xlink:href="#ArialMT-31" x="166.845703"/>
       <use xlink:href="#ArialMT-2d" x="222.460938"/>
       <use xlink:href="#ArialMT-30" x="255.761719"/>
       <use xlink:href="#ArialMT-37" x="311.376953"/>
      </g>
     </g>
    </g>
    <g id="xtick_7">
     <g id="line2d_7">
      <path d="M 512.797253 298.989375 
L 512.797253 21.789375 
" clip-path="url(#pc46f578cd7)" style="fill: none; stroke: #cccccc; stroke-width: 0.8; stroke-linecap: round"/>
     </g>
     <g id="text_7">
      <!-- 2021-10 -->
      <g style="fill: #262626" transform="translate(494.449596 313.147188)scale(0.1 -0.1)">
       <use xlink:href="#ArialMT-32"/>
       <use xlink:href="#ArialMT-30" x="55.615234"/>
       <use xlink:href="#ArialMT-32" x="111.230469"/>
       <use xlink:href="#ArialMT-31" x="166.845703"/>
       <use xlink:href="#ArialMT-2d" x="222.460938"/>
       <use xlink:href="#ArialMT-31" x="255.761719"/>
       <use xlink:href="#ArialMT-30" x="311.376953"/>
      </g>
     </g>
    </g>
    <g id="xtick_8">
     <g id="line2d_8">
      <path d="M 583.313736 298.989375 
L 583.313736 21.789375 
" clip-path="url(#pc46f578cd7)" style="fill: none; stroke: #cccccc; stroke-width: 0.8; stroke-linecap: round"/>
     </g>
     <g id="text_8">
      <!-- 2022-01 -->
      <g style="fill: #262626" transform="translate(564.96608 313.147188)scale(0.1 -0.1)">
       <use xlink:href="#ArialMT-32"/>
       <use xlink:href="#ArialMT-30" x="55.615234"/>
       <use xlink:href="#ArialMT-32" x="111.230469"/>
       <use xlink:href="#ArialMT-32" x="166.845703"/>
       <use xlink:href="#ArialMT-2d" x="222.460938"/>
       <use xlink:href="#ArialMT-30" x="255.761719"/>
       <use xlink:href="#ArialMT-31" x="311.376953"/>
      </g>
     </g>
    </g>
   </g>
   <g id="matplotlib.axis_2">
    <g id="ytick_1">
     <g id="line2d_9">
      <path d="M 82.8 286.389375 
L 640.8 286.389375 
" clip-path="url(#pc46f578cd7)" style="fill: none; stroke: #cccccc; stroke-width: 0.8; stroke-linecap: round"/>
     </g>
     <g id="text_9">
      <!-- 0 -->
      <g style="fill: #262626" transform="translate(70.239063 289.968281)scale(0.1 -0.1)">
       <use xlink:href="#ArialMT-30"/>
      </g>
     </g>
    </g>
    <g id="ytick_2">
     <g id="line2d_10">
      <path d="M 82.8 248.664824 
L 640.8 248.664824 
" clip-path="url(#pc46f578cd7)" style="fill: none; stroke: #cccccc; stroke-width: 0.8; stroke-linecap: round"/>
     </g>
     <g id="text_10">
      <!-- 50 -->
      <g style="fill: #262626" transform="translate(64.678125 252.24373)scale(0.1 -0.1)">
       <defs>
        <path id="ArialMT-35" d="M 266 1200 
L 856 1250 
Q 922 819 1161 601 
Q 1400 384 1738 384 
Q 2144 384 2425 690 
Q 2706 997 2706 1503 
Q 2706 1984 2436 2262 
Q 2166 2541 1728 2541 
Q 1456 2541 1237 2417 
Q 1019 2294 894 2097 
L 366 2166 
L 809 4519 
L 3088 4519 
L 3088 3981 
L 1259 3981 
L 1013 2750 
Q 1425 3038 1878 3038 
Q 2478 3038 2890 2622 
Q 3303 2206 3303 1553 
Q 3303 931 2941 478 
Q 2500 -78 1738 -78 
Q 1113 -78 717 272 
Q 322 622 266 1200 
z
" transform="scale(0.015625)"/>
       </defs>
       <use xlink:href="#ArialMT-35"/>
       <use xlink:href="#ArialMT-30" x="55.615234"/>
      </g>
     </g>
    </g>
    <g id="ytick_3">
     <g id="line2d_11">
      <path d="M 82.8 210.940273 
L 640.8 210.940273 
" clip-path="url(#pc46f578cd7)" style="fill: none; stroke: #cccccc; stroke-width: 0.8; stroke-linecap: round"/>
     </g>
     <g id="text_11">
      <!-- 100 -->
      <g style="fill: #262626" transform="translate(59.117188 214.519179)scale(0.1 -0.1)">
       <use xlink:href="#ArialMT-31"/>
       <use xlink:href="#ArialMT-30" x="55.615234"/>
       <use xlink:href="#ArialMT-30" x="111.230469"/>
      </g>
     </g>
    </g>
    <g id="ytick_4">
     <g id="line2d_12">
      <path d="M 82.8 173.215722 
L 640.8 173.215722 
" clip-path="url(#pc46f578cd7)" style="fill: none; stroke: #cccccc; stroke-width: 0.8; stroke-linecap: round"/>
     </g>
     <g id="text_12">
      <!-- 150 -->
      <g style="fill: #262626" transform="translate(59.117188 176.794629)scale(0.1 -0.1)">
       <use xlink:href="#ArialMT-31"/>
       <use xlink:href="#ArialMT-35" x="55.615234"/>
       <use xlink:href="#ArialMT-30" x="111.230469"/>
      </g>
     </g>
    </g>
    <g id="ytick_5">
     <g id="line2d_13">
      <path d="M 82.8 135.491171 
L 640.8 135.491171 
" clip-path="url(#pc46f578cd7)" style="fill: none; stroke: #cccccc; stroke-width: 0.8; stroke-linecap: round"/>
     </g>
     <g id="text_13">
      <!-- 200 -->
      <g style="fill: #262626" transform="translate(59.117188 139.070078)scale(0.1 -0.1)">
       <use xlink:href="#ArialMT-32"/>
       <use xlink:href="#ArialMT-30" x="55.615234"/>
       <use xlink:href="#ArialMT-30" x="111.230469"/>
      </g>
     </g>
    </g>
    <g id="ytick_6">
     <g id="line2d_14">
      <path d="M 82.8 97.766621 
L 640.8 97.766621 
" clip-path="url(#pc46f578cd7)" style="fill: none; stroke: #cccccc; stroke-width: 0.8; stroke-linecap: round"/>
     </g>
     <g id="text_14">
      <!-- 250 -->
      <g style="fill: #262626" transform="translate(59.117188 101.345527)scale(0.1 -0.1)">
       <use xlink:href="#ArialMT-32"/>
       <use xlink:href="#ArialMT-35" x="55.615234"/>
       <use xlink:href="#ArialMT-30" x="111.230469"/>
      </g>
     </g>
    </g>
    <g id="ytick_7">
     <g id="line2d_15">
      <path d="M 82.8 60.04207 
L 640.8 60.04207 
" clip-path="url(#pc46f578cd7)" style="fill: none; stroke: #cccccc; stroke-width: 0.8; stroke-linecap: round"/>
     </g>
     <g id="text_15">
      <!-- 300 -->
      <g style="fill: #262626" transform="translate(59.117188 63.620976)scale(0.1 -0.1)">
       <defs>
        <path id="ArialMT-33" d="M 269 1209 
L 831 1284 
Q 928 806 1161 595 
Q 1394 384 1728 384 
Q 2125 384 2398 659 
Q 2672 934 2672 1341 
Q 2672 1728 2419 1979 
Q 2166 2231 1775 2231 
Q 1616 2231 1378 2169 
L 1441 2663 
Q 1497 2656 1531 2656 
Q 1891 2656 2178 2843 
Q 2466 3031 2466 3422 
Q 2466 3731 2256 3934 
Q 2047 4138 1716 4138 
Q 1388 4138 1169 3931 
Q 950 3725 888 3313 
L 325 3413 
Q 428 3978 793 4289 
Q 1159 4600 1703 4600 
Q 2078 4600 2393 4439 
Q 2709 4278 2876 4000 
Q 3044 3722 3044 3409 
Q 3044 3113 2884 2869 
Q 2725 2625 2413 2481 
Q 2819 2388 3044 2092 
Q 3269 1797 3269 1353 
Q 3269 753 2831 336 
Q 2394 -81 1725 -81 
Q 1122 -81 723 278 
Q 325 638 269 1209 
z
" transform="scale(0.015625)"/>
       </defs>
       <use xlink:href="#ArialMT-33"/>
       <use xlink:href="#ArialMT-30" x="55.615234"/>
       <use xlink:href="#ArialMT-30" x="111.230469"/>
      </g>
     </g>
    </g>
    <g id="ytick_8">
     <g id="line2d_16">
      <path d="M 82.8 22.317519 
L 640.8 22.317519 
" clip-path="url(#pc46f578cd7)" style="fill: none; stroke: #cccccc; stroke-width: 0.8; stroke-linecap: round"/>
     </g>
     <g id="text_16">
      <!-- 350 -->
      <g style="fill: #262626" transform="translate(59.117188 25.896425)scale(0.1 -0.1)">
       <use xlink:href="#ArialMT-33"/>
       <use xlink:href="#ArialMT-35" x="55.615234"/>
       <use xlink:href="#ArialMT-30" x="111.230469"/>
      </g>
     </g>
    </g>
   </g>
   <g id="line2d_17">
    <path d="M 82.8 278.089974 
L 83.566484 278.089974 
L 84.332967 276.580992 
L 85.099451 276.580992 
L 85.865934 269.036082 
L 86.632418 255.455243 
L 87.398901 254.700752 
L 88.165385 251.682788 
L 88.931868 247.155842 
L 89.698352 246.401351 
L 90.464835 246.401351 
L 91.231319 245.64686 
L 91.997802 242.628896 
L 92.764286 226.030094 
L 93.530769 224.521112 
L 94.297253 224.521112 
L 95.063736 201.886381 
L 95.83022 200.377399 
L 96.596703 213.958237 
L 97.363187 210.185782 
L 98.12967 204.149854 
L 98.896154 202.640872 
L 99.662637 199.622908 
L 100.429121 199.622908 
L 101.195604 198.113926 
L 101.962088 186.796561 
L 102.728571 185.287579 
L 103.495055 189.060034 
L 104.261538 176.233686 
L 105.028022 173.215722 
L 105.794505 170.952249 
L 106.560989 167.179794 
L 107.327473 176.988177 
L 108.093956 176.988177 
L 108.86044 173.970213 
L 109.626923 167.934285 
L 110.393407 142.281591 
L 111.15989 140.772609 
L 111.926374 176.233686 
L 112.692857 178.497159 
L 113.459341 181.515124 
L 114.225824 176.233686 
L 114.992308 181.515124 
L 115.758791 173.215722 
L 116.525275 168.688776 
L 117.291758 169.443267 
L 118.058242 167.179794 
L 118.824725 161.143866 
L 119.591209 158.125902 
L 120.357692 162.652848 
L 121.124176 165.670812 
L 121.890659 161.143866 
L 122.657143 158.125902 
L 123.423626 161.898357 
L 124.19011 146.054046 
L 124.956593 152.844465 
L 125.723077 149.826501 
L 126.48956 146.054046 
L 127.256044 152.089974 
L 128.022527 140.772609 
L 128.789011 139.263626 
L 129.555495 141.5271 
L 130.321978 133.982189 
L 131.088462 137.000153 
L 131.854945 139.263626 
L 132.621429 140.772609 
L 133.387912 138.509135 
L 134.154396 137.754644 
L 134.920879 133.227698 
L 135.687363 134.73668 
L 136.453846 135.491171 
L 137.22033 123.419315 
L 137.986813 122.664824 
L 138.753297 124.173806 
L 139.51978 129.455243 
L 140.286264 129.455243 
L 141.052747 128.700752 
L 141.819231 127.19177 
L 142.585714 122.664824 
L 143.352198 122.664824 
L 144.118681 110.592968 
L 144.885165 115.874405 
L 145.651648 109.083986 
L 146.418132 114.365423 
L 147.184615 106.820513 
L 147.951099 109.838477 
L 148.717582 103.802549 
L 149.484066 112.856441 
L 150.250549 120.401351 
L 151.017033 122.664824 
L 151.783516 126.437279 
L 152.55 130.964225 
L 153.316484 127.946261 
L 154.082967 122.664824 
L 154.849451 121.910333 
L 155.615934 118.892369 
L 156.382418 123.419315 
L 157.148901 135.491171 
L 157.915385 137.000153 
L 158.681868 131.718716 
L 159.448352 134.73668 
L 160.214835 141.5271 
L 160.981319 144.545064 
L 161.747802 150.580992 
L 162.514286 150.580992 
L 163.280769 156.61692 
L 164.047253 149.07201 
L 164.813736 152.844465 
L 165.58022 154.353447 
L 166.346703 157.371411 
L 167.113187 148.317519 
L 167.87967 164.916321 
L 168.646154 162.652848 
L 169.412637 161.898357 
L 170.179121 166.425303 
L 170.945604 171.70674 
L 171.712088 170.197758 
L 172.478571 149.826501 
L 173.245055 161.898357 
L 174.011538 153.598956 
L 174.778022 148.317519 
L 175.544505 156.61692 
L 176.310989 154.353447 
L 177.843956 158.880393 
L 178.61044 154.353447 
L 179.376923 157.371411 
L 180.143407 152.844465 
L 180.90989 154.353447 
L 182.442857 158.880393 
L 183.209341 163.407339 
L 183.975824 170.952249 
L 184.742308 173.215722 
L 185.508791 173.970213 
L 186.275275 177.742668 
L 187.041758 180.006141 
L 187.808242 177.742668 
L 188.574725 184.533088 
L 189.341209 188.305543 
L 190.107692 196.604944 
L 190.874176 194.341471 
L 191.640659 195.850453 
L 192.407143 208.6768 
L 193.173626 203.395363 
L 193.94011 207.167818 
L 194.706593 211.694764 
L 195.473077 208.6768 
L 196.23956 207.922309 
L 197.006044 204.904345 
L 197.772527 203.395363 
L 198.539011 202.640872 
L 199.305495 189.814525 
L 200.071978 198.113926 
L 201.604945 207.167818 
L 202.371429 204.904345 
L 203.137912 214.712728 
L 203.904396 215.467219 
L 204.670879 213.203746 
L 205.437363 215.467219 
L 206.203846 219.239674 
L 206.97033 213.203746 
L 207.736813 221.503147 
L 208.503297 207.167818 
L 209.26978 197.359435 
L 210.036264 195.850453 
L 210.802747 199.622908 
L 211.569231 201.13189 
L 212.335714 201.13189 
L 213.102198 203.395363 
L 213.868681 203.395363 
L 214.635165 211.694764 
L 215.401648 210.185782 
L 216.168132 200.377399 
L 216.934615 203.395363 
L 217.701099 200.377399 
L 218.467582 199.622908 
L 219.234066 200.377399 
L 220.000549 203.395363 
L 221.533516 212.449255 
L 222.3 213.203746 
L 223.066484 210.940273 
L 223.832967 209.431291 
L 225.365934 210.940273 
L 226.132418 217.730692 
L 226.898901 217.730692 
L 227.665385 231.311531 
L 228.431868 229.048058 
L 229.198352 227.539076 
L 229.964835 223.012129 
L 230.731319 221.503147 
L 231.497802 222.257638 
L 232.264286 219.239674 
L 233.030769 223.012129 
L 233.797253 222.257638 
L 234.563736 217.730692 
L 235.33022 219.239674 
L 236.096703 219.994165 
L 236.863187 214.712728 
L 237.62967 210.940273 
L 238.396154 213.203746 
L 239.162637 210.185782 
L 239.929121 212.449255 
L 240.695604 209.431291 
L 241.462088 214.712728 
L 242.228571 215.467219 
L 242.995055 214.712728 
L 243.761538 212.449255 
L 244.528022 213.958237 
L 245.294505 216.976201 
L 246.060989 216.22171 
L 246.827473 216.22171 
L 247.593956 213.203746 
L 248.36044 207.167818 
L 249.126923 204.904345 
L 249.893407 205.658836 
L 250.65989 207.922309 
L 251.426374 204.149854 
L 252.192857 204.149854 
L 252.959341 201.886381 
L 253.725824 195.095962 
L 254.492308 196.604944 
L 255.258791 193.58698 
L 256.025275 193.58698 
L 256.791758 190.569016 
L 257.558242 186.796561 
L 258.324725 180.760632 
L 259.091209 189.060034 
L 259.857692 194.341471 
L 261.390659 183.024106 
L 262.157143 186.04207 
L 262.923626 179.25165 
L 263.69011 174.724704 
L 264.456593 164.916321 
L 265.223077 166.425303 
L 265.98956 169.443267 
L 266.756044 173.970213 
L 267.522527 173.215722 
L 268.289011 168.688776 
L 269.055495 169.443267 
L 269.821978 153.598956 
L 270.588462 149.826501 
L 271.354945 152.089974 
L 272.121429 138.509135 
L 272.887912 139.263626 
L 273.654396 143.790573 
L 275.187363 132.473207 
L 275.953846 132.473207 
L 276.72033 134.73668 
L 277.486813 127.946261 
L 278.253297 138.509135 
L 279.01978 142.281591 
L 279.786264 147.563028 
L 280.552747 140.018118 
L 281.319231 141.5271 
L 282.085714 149.07201 
L 282.852198 145.299555 
L 284.385165 164.916321 
L 285.151648 155.862429 
L 285.918132 142.281591 
L 286.684615 154.353447 
L 287.451099 150.580992 
L 288.217582 149.07201 
L 288.984066 155.862429 
L 291.283516 171.70674 
L 292.05 170.197758 
L 292.816484 169.443267 
L 293.582967 174.724704 
L 294.349451 178.497159 
L 295.115934 173.970213 
L 295.882418 170.952249 
L 296.648901 170.952249 
L 297.415385 175.479195 
L 298.181868 182.269615 
L 298.948352 184.533088 
L 299.714835 178.497159 
L 300.481319 177.742668 
L 301.247802 173.215722 
L 302.014286 175.479195 
L 302.780769 173.970213 
L 303.547253 183.778597 
L 304.313736 180.760632 
L 305.08022 187.551052 
L 305.846703 197.359435 
L 306.613187 195.850453 
L 307.37967 195.095962 
L 308.146154 196.604944 
L 308.912637 192.832489 
L 310.445604 194.341471 
L 311.212088 184.533088 
L 311.978571 187.551052 
L 312.745055 179.25165 
L 313.511538 180.006141 
L 314.278022 176.233686 
L 315.810989 185.287579 
L 316.577473 178.497159 
L 317.343956 181.515124 
L 318.11044 187.551052 
L 318.876923 195.850453 
L 319.643407 189.060034 
L 320.40989 192.832489 
L 321.176374 189.814525 
L 321.942857 199.622908 
L 322.709341 204.149854 
L 323.475824 195.095962 
L 324.242308 201.13189 
L 325.008791 196.604944 
L 325.775275 201.886381 
L 326.541758 204.149854 
L 327.308242 195.095962 
L 328.074725 194.341471 
L 328.841209 191.323507 
L 329.607692 196.604944 
L 330.374176 195.850453 
L 331.140659 196.604944 
L 331.907143 200.377399 
L 332.673626 203.395363 
L 333.44011 210.185782 
L 334.206593 210.940273 
L 334.973077 209.431291 
L 335.73956 206.413327 
L 336.506044 216.976201 
L 337.272527 216.22171 
L 338.039011 206.413327 
L 338.805495 203.395363 
L 339.571978 214.712728 
L 340.338462 214.712728 
L 341.104945 211.694764 
L 341.871429 213.958237 
L 342.637912 209.431291 
L 343.404396 202.640872 
L 344.170879 198.113926 
L 344.937363 201.13189 
L 345.703846 191.323507 
L 346.47033 192.077998 
L 347.236813 205.658836 
L 348.003297 189.060034 
L 348.76978 180.760632 
L 349.536264 186.796561 
L 350.302747 178.497159 
L 351.069231 180.006141 
L 351.835714 177.742668 
L 352.602198 186.796561 
L 353.368681 183.778597 
L 354.135165 173.970213 
L 354.901648 169.443267 
L 356.434615 161.898357 
L 357.967582 148.317519 
L 358.734066 139.263626 
L 359.500549 133.982189 
L 360.267033 118.892369 
L 361.033516 115.874405 
L 361.8 112.10195 
L 362.566484 106.820513 
L 363.332967 95.503147 
L 364.099451 81.922309 
L 364.865934 74.377399 
L 365.632418 64.569016 
L 366.398901 57.778597 
L 367.165385 39.670812 
L 367.931868 49.479195 
L 368.698352 40.425303 
L 369.464835 44.197758 
L 370.231319 44.197758 
L 370.997802 34.389375 
L 371.764286 35.898357 
L 372.530769 41.179794 
L 373.297253 37.407339 
L 374.063736 42.688776 
L 374.83022 44.197758 
L 375.596703 41.179794 
L 376.363187 45.70674 
L 377.12967 46.461231 
L 377.896154 56.269615 
L 378.662637 55.515124 
L 379.429121 81.922309 
L 380.195604 87.958237 
L 380.962088 78.904345 
L 381.728571 87.203746 
L 382.495055 84.940273 
L 383.261538 81.922309 
L 384.028022 91.730692 
L 384.794505 78.904345 
L 385.560989 97.012129 
L 386.327473 89.467219 
L 387.093956 90.976201 
L 387.86044 99.275603 
L 388.626923 109.083986 
L 389.393407 109.838477 
L 390.15989 118.892369 
L 390.926374 125.682788 
L 391.692857 122.664824 
L 392.459341 127.19177 
L 393.225824 136.245662 
L 393.992308 133.227698 
L 394.758791 128.700752 
L 395.525275 113.610932 
L 396.291758 121.910333 
L 397.058242 124.173806 
L 397.824725 130.209734 
L 398.591209 118.892369 
L 399.357692 110.592968 
L 400.124176 123.419315 
L 400.890659 133.227698 
L 401.657143 118.137878 
L 402.423626 121.155842 
L 403.19011 115.874405 
L 403.956593 121.155842 
L 404.723077 122.664824 
L 405.48956 127.946261 
L 406.256044 121.155842 
L 407.022527 112.10195 
L 407.789011 109.838477 
L 408.555495 105.311531 
L 409.321978 107.575004 
L 410.088462 111.347459 
L 410.854945 100.030094 
L 411.621429 98.521112 
L 412.387912 97.766621 
L 413.154396 100.030094 
L 414.687363 90.22171 
L 415.453846 80.413327 
L 416.22033 78.149854 
L 416.986813 68.341471 
L 417.753297 78.149854 
L 418.51978 74.377399 
L 419.286264 90.976201 
L 420.052747 92.485183 
L 420.819231 94.748656 
L 421.585714 93.239674 
L 422.352198 97.766621 
L 423.118681 93.239674 
L 423.885165 92.485183 
L 424.651648 92.485183 
L 425.418132 105.311531 
L 426.184615 112.856441 
L 426.951099 109.083986 
L 427.717582 115.119914 
L 428.484066 111.347459 
L 429.250549 115.874405 
L 430.017033 119.64686 
L 430.783516 117.383387 
L 431.55 124.173806 
L 432.316484 124.173806 
L 433.082967 134.73668 
L 433.849451 140.018118 
L 434.615934 135.491171 
L 436.148901 148.317519 
L 436.915385 152.089974 
L 437.681868 158.880393 
L 438.448352 158.880393 
L 439.214835 167.934285 
L 439.981319 170.952249 
L 442.280769 188.305543 
L 443.047253 184.533088 
L 443.813736 192.832489 
L 444.58022 197.359435 
L 445.346703 191.323507 
L 446.113187 194.341471 
L 446.87967 192.832489 
L 448.412637 200.377399 
L 449.179121 199.622908 
L 449.945604 192.077998 
L 450.712088 195.095962 
L 451.478571 179.25165 
L 452.245055 182.269615 
L 453.011538 191.323507 
L 453.778022 186.796561 
L 454.544505 191.323507 
L 455.310989 196.604944 
L 456.077473 192.077998 
L 456.843956 200.377399 
L 457.61044 200.377399 
L 458.376923 204.904345 
L 459.143407 204.149854 
L 459.90989 211.694764 
L 460.676374 212.449255 
L 461.442857 219.239674 
L 462.209341 222.257638 
L 462.975824 214.712728 
L 463.742308 225.275603 
L 464.508791 225.275603 
L 465.275275 216.976201 
L 466.808242 219.994165 
L 467.574725 217.730692 
L 468.341209 216.976201 
L 469.107692 216.976201 
L 469.874176 214.712728 
L 470.640659 215.467219 
L 471.407143 211.694764 
L 472.173626 211.694764 
L 472.94011 212.449255 
L 473.706593 210.940273 
L 474.473077 220.748656 
L 475.23956 216.976201 
L 476.006044 219.239674 
L 476.772527 220.748656 
L 477.539011 223.766621 
L 478.305495 222.257638 
L 479.071978 222.257638 
L 479.838462 225.275603 
L 480.604945 227.539076 
L 482.137912 230.55704 
L 482.904396 236.592968 
L 483.670879 235.838477 
L 484.437363 245.64686 
L 485.203846 235.838477 
L 485.97033 232.820513 
L 486.736813 234.329495 
L 487.503297 236.592968 
L 488.26978 241.874405 
L 489.036264 242.628896 
L 489.802747 244.137878 
L 490.569231 244.892369 
L 491.335714 241.874405 
L 492.102198 233.575004 
L 492.868681 239.610932 
L 493.635165 234.329495 
L 494.401648 235.083986 
L 495.168132 236.592968 
L 495.934615 244.892369 
L 496.701099 238.10195 
L 498.234066 238.10195 
L 499.767033 241.119914 
L 500.533516 244.892369 
L 501.3 242.628896 
L 502.066484 237.347459 
L 502.832967 239.610932 
L 503.599451 234.329495 
L 504.365934 242.628896 
L 505.132418 240.365423 
L 505.898901 246.401351 
L 506.665385 246.401351 
L 507.431868 245.64686 
L 508.198352 249.419315 
L 508.964835 247.910333 
L 509.731319 250.928297 
L 510.497802 250.928297 
L 511.264286 251.682788 
L 512.030769 251.682788 
L 512.797253 249.419315 
L 513.563736 252.437279 
L 514.33022 253.946261 
L 515.096703 256.964225 
L 515.863187 258.473207 
L 516.62967 261.491171 
L 517.396154 262.245662 
L 518.162637 260.73668 
L 518.929121 262.245662 
L 519.695604 261.491171 
L 520.462088 259.982189 
L 521.228571 260.73668 
L 521.995055 262.245662 
L 522.761538 261.491171 
L 523.528022 259.227698 
L 524.294505 258.473207 
L 525.060989 256.209734 
L 525.827473 256.209734 
L 526.593956 255.455243 
L 527.36044 257.718716 
L 528.126923 252.437279 
L 528.893407 256.964225 
L 529.65989 256.209734 
L 530.426374 256.964225 
L 531.192857 254.700752 
L 531.959341 258.473207 
L 533.492308 255.455243 
L 534.258791 256.964225 
L 535.791758 264.509135 
L 536.558242 257.718716 
L 537.324725 259.227698 
L 538.857692 257.718716 
L 539.624176 262.245662 
L 540.390659 265.263626 
L 541.157143 263.000153 
L 541.923626 263.000153 
L 542.69011 267.5271 
L 543.456593 268.281591 
L 544.223077 268.281591 
L 544.98956 267.5271 
L 546.522527 263.000153 
L 547.289011 263.754644 
L 548.055495 259.982189 
L 548.821978 260.73668 
L 549.588462 259.982189 
L 550.354945 256.964225 
L 551.887912 263.000153 
L 552.654396 259.227698 
L 553.420879 257.718716 
L 554.187363 260.73668 
L 554.953846 262.245662 
L 555.72033 262.245662 
L 556.486813 263.754644 
L 557.253297 261.491171 
L 558.01978 264.509135 
L 558.786264 261.491171 
L 559.552747 263.754644 
L 561.085714 260.73668 
L 562.618681 263.754644 
L 563.385165 260.73668 
L 564.151648 266.018118 
L 564.918132 268.281591 
L 565.684615 269.790573 
L 566.451099 270.545064 
L 567.217582 272.054046 
L 567.984066 269.036082 
L 568.750549 264.509135 
L 570.283516 259.982189 
L 571.05 263.000153 
L 571.816484 261.491171 
L 572.582967 255.455243 
L 573.349451 256.964225 
L 574.115934 261.491171 
L 574.882418 263.000153 
L 575.648901 263.000153 
L 576.415385 270.545064 
L 577.181868 261.491171 
L 577.948352 265.263626 
L 578.714835 259.227698 
L 579.481319 259.227698 
L 581.014286 254.700752 
L 581.780769 257.718716 
L 582.547253 254.700752 
L 583.313736 253.946261 
L 584.08022 253.946261 
L 584.846703 253.19177 
L 585.613187 250.928297 
L 586.37967 253.946261 
L 587.146154 255.455243 
L 587.912637 248.664824 
L 588.679121 253.946261 
L 589.445604 250.173806 
L 590.212088 241.119914 
L 590.978571 241.874405 
L 591.745055 233.575004 
L 592.511538 235.083986 
L 593.278022 229.048058 
L 594.044505 235.083986 
L 594.810989 232.066022 
L 595.577473 226.784585 
L 596.343956 216.976201 
L 597.11044 198.868417 
L 597.876923 193.58698 
L 598.643407 192.832489 
L 599.40989 192.832489 
L 600.176374 201.13189 
L 600.942857 184.533088 
L 601.709341 182.269615 
L 602.475824 185.287579 
L 603.242308 186.796561 
L 604.008791 189.060034 
L 604.775275 202.640872 
L 605.541758 197.359435 
L 606.308242 190.569016 
L 607.074725 185.287579 
L 607.841209 193.58698 
L 608.607692 188.305543 
L 609.374176 203.395363 
L 610.140659 204.149854 
L 610.907143 206.413327 
L 611.673626 207.922309 
L 612.44011 206.413327 
L 613.206593 215.467219 
L 613.973077 221.503147 
L 614.73956 223.766621 
L 615.506044 234.329495 
L 616.272527 238.856441 
L 617.039011 239.610932 
L 617.805495 242.628896 
L 618.571978 247.910333 
L 619.338462 247.155842 
L 620.104945 247.910333 
L 620.871429 253.946261 
L 621.637912 254.700752 
L 623.170879 254.700752 
L 623.937363 252.437279 
L 624.703846 253.946261 
L 625.47033 259.227698 
L 626.236813 256.964225 
L 627.76978 263.000153 
L 628.536264 259.982189 
L 629.302747 260.73668 
L 630.069231 260.73668 
L 631.602198 263.754644 
L 632.368681 263.000153 
L 633.135165 263.754644 
L 633.901648 267.5271 
L 635.434615 270.545064 
L 636.201099 274.317519 
L 636.967582 270.545064 
L 637.734066 270.545064 
L 638.500549 273.563028 
L 639.267033 270.545064 
L 640.033516 272.808537 
L 640.8 275.826501 
L 640.8 275.826501 
" clip-path="url(#pc46f578cd7)" style="fill: none; stroke: #1f77b4; stroke-width: 1.5; stroke-linecap: round"/>
   </g>
   <g id="line2d_18">
    <path d="M 82.8 286.389375 
L 83.566484 286.389375 
L 84.332967 281.107938 
L 85.099451 281.107938 
L 85.865934 279.598956 
L 86.632418 272.054046 
L 87.398901 272.808537 
L 88.165385 269.790573 
L 91.231319 269.790573 
L 91.997802 270.545064 
L 92.764286 267.5271 
L 93.530769 269.036082 
L 94.297253 268.281591 
L 95.063736 265.263626 
L 95.83022 265.263626 
L 96.596703 261.491171 
L 97.363187 258.473207 
L 98.12967 258.473207 
L 98.896154 262.245662 
L 100.429121 262.245662 
L 101.195604 261.491171 
L 101.962088 257.718716 
L 102.728571 259.982189 
L 103.495055 264.509135 
L 105.028022 253.19177 
L 105.794505 252.437279 
L 106.560989 245.64686 
L 107.327473 250.173806 
L 108.093956 248.664824 
L 108.86044 245.64686 
L 109.626923 238.856441 
L 110.393407 235.083986 
L 111.15989 232.820513 
L 111.926374 238.856441 
L 112.692857 238.856441 
L 114.225824 241.874405 
L 114.992308 238.856441 
L 115.758791 233.575004 
L 116.525275 231.311531 
L 117.291758 229.802549 
L 118.058242 230.55704 
L 118.824725 225.275603 
L 119.591209 225.275603 
L 120.357692 232.820513 
L 121.124176 234.329495 
L 121.890659 229.048058 
L 122.657143 229.048058 
L 124.19011 232.066022 
L 124.956593 236.592968 
L 125.723077 233.575004 
L 126.48956 231.311531 
L 127.256044 235.838477 
L 128.022527 229.048058 
L 128.789011 229.048058 
L 129.555495 227.539076 
L 130.321978 230.55704 
L 131.088462 226.030094 
L 131.854945 226.030094 
L 132.621429 222.257638 
L 133.387912 223.012129 
L 134.920879 221.503147 
L 135.687363 228.293567 
L 136.453846 230.55704 
L 137.22033 225.275603 
L 137.986813 229.048058 
L 138.753297 225.275603 
L 139.51978 220.748656 
L 140.286264 219.239674 
L 141.052747 218.485183 
L 141.819231 221.503147 
L 142.585714 219.239674 
L 143.352198 219.239674 
L 144.118681 214.712728 
L 144.885165 216.976201 
L 145.651648 215.467219 
L 146.418132 215.467219 
L 147.184615 207.922309 
L 147.951099 211.694764 
L 148.717582 216.976201 
L 149.484066 219.239674 
L 150.250549 212.449255 
L 151.017033 216.976201 
L 151.783516 223.012129 
L 152.55 225.275603 
L 154.082967 223.766621 
L 154.849451 219.239674 
L 155.615934 221.503147 
L 156.382418 219.994165 
L 157.148901 223.012129 
L 157.915385 222.257638 
L 158.681868 223.012129 
L 159.448352 227.539076 
L 160.214835 234.329495 
L 160.981319 233.575004 
L 161.747802 230.55704 
L 162.514286 231.311531 
L 163.280769 234.329495 
L 164.047253 232.066022 
L 164.813736 230.55704 
L 165.58022 231.311531 
L 166.346703 231.311531 
L 167.113187 229.802549 
L 167.87967 236.592968 
L 168.646154 236.592968 
L 169.412637 235.838477 
L 170.179121 238.856441 
L 170.945604 240.365423 
L 171.712088 236.592968 
L 172.478571 231.311531 
L 173.245055 233.575004 
L 174.011538 227.539076 
L 174.778022 230.55704 
L 175.544505 236.592968 
L 176.310989 238.856441 
L 177.077473 237.347459 
L 177.843956 237.347459 
L 178.61044 238.856441 
L 179.376923 233.575004 
L 180.143407 235.083986 
L 180.90989 237.347459 
L 181.676374 237.347459 
L 182.442857 233.575004 
L 183.209341 233.575004 
L 183.975824 238.10195 
L 184.742308 238.10195 
L 185.508791 238.856441 
L 186.275275 241.874405 
L 187.041758 243.383387 
L 187.808242 244.137878 
L 188.574725 246.401351 
L 189.341209 250.173806 
L 190.107692 249.419315 
L 190.874176 246.401351 
L 191.640659 247.155842 
L 192.407143 252.437279 
L 193.173626 252.437279 
L 193.94011 251.682788 
L 194.706593 255.455243 
L 195.473077 254.700752 
L 196.23956 253.19177 
L 197.006044 250.173806 
L 197.772527 251.682788 
L 198.539011 251.682788 
L 199.305495 248.664824 
L 200.071978 253.946261 
L 200.838462 253.946261 
L 201.604945 258.473207 
L 202.371429 256.209734 
L 203.137912 259.227698 
L 203.904396 259.227698 
L 204.670879 259.982189 
L 205.437363 256.964225 
L 206.97033 256.964225 
L 207.736813 260.73668 
L 208.503297 254.700752 
L 209.26978 256.209734 
L 210.036264 252.437279 
L 210.802747 253.946261 
L 211.569231 253.19177 
L 212.335714 253.946261 
L 213.102198 251.682788 
L 213.868681 253.946261 
L 214.635165 255.455243 
L 215.401648 254.700752 
L 216.168132 250.173806 
L 216.934615 251.682788 
L 217.701099 247.910333 
L 218.467582 248.664824 
L 219.234066 253.19177 
L 220.000549 259.227698 
L 220.767033 255.455243 
L 221.533516 255.455243 
L 222.3 256.209734 
L 223.066484 254.700752 
L 224.599451 256.209734 
L 225.365934 255.455243 
L 226.132418 256.964225 
L 226.898901 262.245662 
L 227.665385 261.491171 
L 228.431868 256.964225 
L 229.198352 257.718716 
L 229.964835 256.964225 
L 230.731319 254.700752 
L 231.497802 253.19177 
L 232.264286 253.19177 
L 233.030769 256.209734 
L 233.797253 257.718716 
L 234.563736 256.964225 
L 236.096703 256.964225 
L 236.863187 256.209734 
L 237.62967 254.700752 
L 238.396154 256.209734 
L 239.162637 256.964225 
L 239.929121 255.455243 
L 240.695604 254.700752 
L 241.462088 258.473207 
L 242.228571 261.491171 
L 242.995055 259.227698 
L 243.761538 261.491171 
L 244.528022 261.491171 
L 245.294505 259.982189 
L 246.060989 262.245662 
L 246.827473 258.473207 
L 247.593956 256.209734 
L 248.36044 255.455243 
L 249.126923 252.437279 
L 251.426374 252.437279 
L 252.959341 249.419315 
L 253.725824 246.401351 
L 254.492308 251.682788 
L 255.258791 251.682788 
L 256.025275 250.928297 
L 256.791758 249.419315 
L 257.558242 246.401351 
L 258.324725 247.155842 
L 259.857692 245.64686 
L 260.624176 244.137878 
L 261.390659 241.874405 
L 262.157143 244.892369 
L 262.923626 235.838477 
L 263.69011 233.575004 
L 264.456593 235.083986 
L 265.223077 234.329495 
L 265.98956 226.784585 
L 266.756044 234.329495 
L 267.522527 233.575004 
L 268.289011 235.838477 
L 269.055495 235.083986 
L 269.821978 227.539076 
L 270.588462 226.030094 
L 271.354945 226.030094 
L 272.121429 216.22171 
L 272.887912 219.994165 
L 273.654396 225.275603 
L 274.420879 221.503147 
L 275.187363 222.257638 
L 275.953846 222.257638 
L 276.72033 223.766621 
L 277.486813 223.012129 
L 278.253297 228.293567 
L 279.01978 229.048058 
L 279.786264 223.766621 
L 280.552747 220.748656 
L 281.319231 222.257638 
L 282.085714 226.784585 
L 282.852198 228.293567 
L 283.618681 226.784585 
L 284.385165 235.083986 
L 285.151648 229.048058 
L 285.918132 229.048058 
L 286.684615 225.275603 
L 287.451099 220.748656 
L 288.217582 223.766621 
L 288.984066 223.766621 
L 289.750549 229.048058 
L 290.517033 231.311531 
L 291.283516 229.048058 
L 292.05 228.293567 
L 292.816484 231.311531 
L 293.582967 235.838477 
L 294.349451 232.820513 
L 295.115934 230.55704 
L 295.882418 232.066022 
L 296.648901 226.784585 
L 297.415385 232.066022 
L 298.181868 235.083986 
L 298.948352 235.083986 
L 299.714835 226.784585 
L 300.481319 235.083986 
L 301.247802 235.083986 
L 302.014286 238.856441 
L 302.780769 236.592968 
L 303.547253 235.083986 
L 304.313736 236.592968 
L 305.08022 237.347459 
L 305.846703 239.610932 
L 306.613187 241.119914 
L 307.37967 241.874405 
L 308.146154 243.383387 
L 308.912637 241.874405 
L 309.679121 238.856441 
L 310.445604 237.347459 
L 311.212088 232.820513 
L 311.978571 233.575004 
L 312.745055 228.293567 
L 313.511538 226.784585 
L 314.278022 223.766621 
L 315.044505 225.275603 
L 315.810989 227.539076 
L 317.343956 230.55704 
L 318.11044 231.311531 
L 318.876923 233.575004 
L 319.643407 232.066022 
L 320.40989 234.329495 
L 321.176374 229.048058 
L 321.942857 229.802549 
L 322.709341 232.066022 
L 323.475824 231.311531 
L 324.242308 236.592968 
L 326.541758 238.856441 
L 327.308242 235.838477 
L 328.074725 231.311531 
L 328.841209 235.838477 
L 329.607692 232.820513 
L 330.374176 236.592968 
L 331.140659 238.10195 
L 331.907143 242.628896 
L 332.673626 245.64686 
L 333.44011 247.155842 
L 334.206593 244.892369 
L 334.973077 245.64686 
L 335.73956 243.383387 
L 336.506044 250.928297 
L 337.272527 251.682788 
L 338.039011 240.365423 
L 338.805495 244.137878 
L 339.571978 242.628896 
L 340.338462 243.383387 
L 341.104945 239.610932 
L 341.871429 242.628896 
L 342.637912 244.137878 
L 343.404396 241.874405 
L 344.170879 243.383387 
L 344.937363 248.664824 
L 346.47033 239.610932 
L 347.236813 244.892369 
L 348.003297 240.365423 
L 348.76978 237.347459 
L 349.536264 239.610932 
L 350.302747 236.592968 
L 351.069231 236.592968 
L 351.835714 237.347459 
L 352.602198 243.383387 
L 353.368681 233.575004 
L 354.135165 236.592968 
L 354.901648 238.856441 
L 355.668132 232.066022 
L 356.434615 229.048058 
L 357.201099 223.766621 
L 357.967582 211.694764 
L 358.734066 204.904345 
L 359.500549 213.958237 
L 360.267033 201.886381 
L 361.033516 196.604944 
L 361.8 198.113926 
L 362.566484 186.796561 
L 363.332967 190.569016 
L 364.099451 186.04207 
L 364.865934 187.551052 
L 365.632418 180.760632 
L 366.398901 177.742668 
L 367.165385 165.670812 
L 367.931868 163.407339 
L 368.698352 155.862429 
L 369.464835 151.335483 
L 370.231319 154.353447 
L 370.997802 152.089974 
L 371.764286 150.580992 
L 372.530769 147.563028 
L 374.063736 146.054046 
L 374.83022 149.07201 
L 375.596703 146.808537 
L 376.363187 146.054046 
L 377.896154 143.036082 
L 378.662637 144.545064 
L 379.429121 153.598956 
L 380.195604 153.598956 
L 381.728571 165.670812 
L 382.495055 162.652848 
L 383.261538 158.880393 
L 384.028022 168.688776 
L 384.794505 163.407339 
L 385.560989 172.461231 
L 387.093956 175.479195 
L 387.86044 180.760632 
L 388.626923 189.060034 
L 389.393407 189.814525 
L 390.15989 194.341471 
L 391.692857 192.832489 
L 392.459341 197.359435 
L 393.225824 202.640872 
L 393.992308 198.113926 
L 394.758791 202.640872 
L 395.525275 183.024106 
L 396.291758 198.868417 
L 397.058242 205.658836 
L 397.824725 208.6768 
L 398.591209 198.868417 
L 399.357692 197.359435 
L 400.124176 204.149854 
L 400.890659 200.377399 
L 401.657143 182.269615 
L 402.423626 194.341471 
L 403.19011 192.832489 
L 403.956593 193.58698 
L 405.48956 204.904345 
L 406.256044 198.868417 
L 407.022527 198.113926 
L 407.789011 194.341471 
L 408.555495 189.814525 
L 409.321978 191.323507 
L 410.088462 195.850453 
L 410.854945 193.58698 
L 411.621429 183.778597 
L 412.387912 183.778597 
L 413.154396 186.04207 
L 413.920879 186.796561 
L 414.687363 183.024106 
L 415.453846 180.760632 
L 416.22033 176.233686 
L 416.986813 174.724704 
L 417.753297 179.25165 
L 418.51978 167.934285 
L 419.286264 176.988177 
L 420.052747 178.497159 
L 420.819231 173.970213 
L 421.585714 168.688776 
L 422.352198 178.497159 
L 423.118681 180.760632 
L 423.885165 181.515124 
L 424.651648 183.778597 
L 425.418132 192.077998 
L 426.184615 195.850453 
L 426.951099 193.58698 
L 427.717582 198.868417 
L 428.484066 197.359435 
L 429.250549 198.868417 
L 430.017033 201.13189 
L 430.783516 200.377399 
L 431.55 210.185782 
L 432.316484 207.922309 
L 433.082967 208.6768 
L 433.849451 211.694764 
L 434.615934 203.395363 
L 435.382418 204.904345 
L 436.148901 207.922309 
L 436.915385 213.958237 
L 437.681868 222.257638 
L 438.448352 226.030094 
L 439.214835 219.239674 
L 439.981319 219.994165 
L 440.747802 223.766621 
L 441.514286 225.275603 
L 442.280769 227.539076 
L 443.047253 222.257638 
L 443.813736 226.784585 
L 444.58022 230.55704 
L 445.346703 229.048058 
L 446.113187 228.293567 
L 447.646154 234.329495 
L 449.179121 237.347459 
L 449.945604 232.820513 
L 450.712088 235.838477 
L 451.478571 229.802549 
L 452.245055 226.784585 
L 453.011538 229.048058 
L 453.778022 228.293567 
L 454.544505 224.521112 
L 455.310989 229.802549 
L 456.077473 230.55704 
L 456.843956 234.329495 
L 459.143407 241.119914 
L 459.90989 242.628896 
L 460.676374 246.401351 
L 461.442857 244.137878 
L 462.209341 245.64686 
L 462.975824 240.365423 
L 463.742308 247.910333 
L 464.508791 247.910333 
L 465.275275 250.173806 
L 466.041758 247.155842 
L 467.574725 247.155842 
L 468.341209 245.64686 
L 469.107692 245.64686 
L 469.874176 242.628896 
L 470.640659 246.401351 
L 471.407143 247.155842 
L 472.173626 246.401351 
L 472.94011 241.874405 
L 473.706593 244.137878 
L 474.473077 245.64686 
L 475.23956 244.137878 
L 476.006044 247.155842 
L 476.772527 245.64686 
L 477.539011 244.892369 
L 478.305495 247.910333 
L 479.071978 250.173806 
L 479.838462 251.682788 
L 480.604945 251.682788 
L 481.371429 252.437279 
L 482.137912 253.946261 
L 482.904396 258.473207 
L 483.670879 257.718716 
L 484.437363 263.000153 
L 485.203846 257.718716 
L 485.97033 255.455243 
L 486.736813 253.946261 
L 487.503297 255.455243 
L 488.26978 256.209734 
L 489.036264 259.982189 
L 489.802747 263.000153 
L 490.569231 263.000153 
L 491.335714 259.227698 
L 492.102198 256.964225 
L 492.868681 262.245662 
L 494.401648 260.73668 
L 495.168132 261.491171 
L 495.934615 265.263626 
L 496.701099 263.754644 
L 497.467582 259.982189 
L 498.234066 259.227698 
L 499.000549 261.491171 
L 499.767033 259.227698 
L 500.533516 263.000153 
L 501.3 256.964225 
L 502.066484 256.964225 
L 503.599451 259.982189 
L 504.365934 263.754644 
L 505.898901 265.263626 
L 506.665385 265.263626 
L 507.431868 263.000153 
L 508.198352 268.281591 
L 509.731319 266.772609 
L 510.497802 266.772609 
L 512.030769 271.299555 
L 512.797253 268.281591 
L 513.563736 268.281591 
L 514.33022 270.545064 
L 515.096703 271.299555 
L 515.863187 272.808537 
L 516.62967 272.054046 
L 517.396154 272.808537 
L 518.162637 271.299555 
L 518.929121 273.563028 
L 519.695604 274.317519 
L 520.462088 272.808537 
L 523.528022 269.790573 
L 524.294505 269.790573 
L 525.060989 271.299555 
L 526.593956 271.299555 
L 527.36044 270.545064 
L 528.126923 264.509135 
L 528.893407 268.281591 
L 529.65989 271.299555 
L 530.426374 272.054046 
L 531.192857 270.545064 
L 531.959341 269.790573 
L 532.725824 264.509135 
L 534.258791 270.545064 
L 535.025275 270.545064 
L 535.791758 271.299555 
L 536.558242 269.036082 
L 537.324725 270.545064 
L 538.091209 271.299555 
L 538.857692 269.790573 
L 539.624176 272.808537 
L 540.390659 273.563028 
L 541.923626 273.563028 
L 542.69011 275.826501 
L 543.456593 276.580992 
L 544.223077 275.07201 
L 544.98956 275.826501 
L 545.756044 277.335483 
L 546.522527 273.563028 
L 547.289011 272.808537 
L 548.055495 273.563028 
L 548.821978 275.07201 
L 550.354945 275.07201 
L 551.121429 275.826501 
L 551.887912 275.826501 
L 552.654396 272.808537 
L 553.420879 272.054046 
L 554.187363 272.054046 
L 554.953846 271.299555 
L 555.72033 274.317519 
L 556.486813 275.826501 
L 558.01978 272.808537 
L 558.786264 274.317519 
L 560.319231 274.317519 
L 561.085714 275.07201 
L 561.852198 276.580992 
L 562.618681 275.826501 
L 563.385165 272.808537 
L 564.151648 275.07201 
L 564.918132 275.07201 
L 566.451099 276.580992 
L 567.217582 278.089974 
L 567.984066 278.844465 
L 568.750549 275.826501 
L 569.517033 273.563028 
L 570.283516 273.563028 
L 571.05 274.317519 
L 571.816484 274.317519 
L 572.582967 273.563028 
L 573.349451 273.563028 
L 574.115934 275.07201 
L 574.882418 275.07201 
L 575.648901 275.826501 
L 576.415385 278.089974 
L 577.181868 275.826501 
L 577.948352 275.826501 
L 578.714835 273.563028 
L 579.481319 270.545064 
L 580.247802 268.281591 
L 581.014286 267.5271 
L 581.780769 270.545064 
L 582.547253 268.281591 
L 583.313736 264.509135 
L 584.08022 269.790573 
L 584.846703 272.808537 
L 586.37967 271.299555 
L 587.146154 269.790573 
L 587.912637 269.036082 
L 588.679121 270.545064 
L 589.445604 271.299555 
L 590.212088 264.509135 
L 590.978571 266.018118 
L 591.745055 262.245662 
L 592.511538 264.509135 
L 593.278022 259.982189 
L 594.044505 262.245662 
L 594.810989 262.245662 
L 595.577473 263.000153 
L 596.343956 253.946261 
L 597.11044 252.437279 
L 597.876923 250.173806 
L 598.643407 253.19177 
L 599.40989 257.718716 
L 600.176374 253.19177 
L 600.942857 249.419315 
L 602.475824 247.910333 
L 603.242308 249.419315 
L 604.008791 247.155842 
L 604.775275 250.928297 
L 605.541758 244.892369 
L 606.308242 243.383387 
L 607.074725 236.592968 
L 607.841209 243.383387 
L 608.607692 240.365423 
L 609.374176 246.401351 
L 610.140659 246.401351 
L 610.907143 247.910333 
L 611.673626 247.910333 
L 612.44011 250.173806 
L 613.206593 253.19177 
L 613.973077 255.455243 
L 614.73956 258.473207 
L 617.039011 263.000153 
L 617.805495 265.263626 
L 618.571978 266.018118 
L 619.338462 271.299555 
L 620.104945 272.808537 
L 621.637912 274.317519 
L 622.404396 275.826501 
L 623.170879 272.054046 
L 623.937363 269.790573 
L 624.703846 274.317519 
L 625.47033 275.826501 
L 626.236813 275.826501 
L 627.003297 275.07201 
L 627.76978 276.580992 
L 629.302747 275.07201 
L 630.069231 275.07201 
L 630.835714 274.317519 
L 631.602198 275.07201 
L 632.368681 275.07201 
L 633.135165 272.808537 
L 633.901648 275.07201 
L 634.668132 275.07201 
L 635.434615 277.335483 
L 636.201099 281.862429 
L 636.967582 277.335483 
L 637.734066 278.089974 
L 638.500549 281.862429 
L 639.267033 279.598956 
L 640.033516 281.862429 
L 640.8 283.371411 
L 640.8 283.371411 
" clip-path="url(#pc46f578cd7)" style="fill: none; stroke: #ff7f0e; stroke-width: 1.5; stroke-linecap: round"/>
   </g>
   <g id="patch_3">
    <path d="M 82.8 298.989375 
L 82.8 21.789375 
" style="fill: none; stroke: #cccccc; stroke-width: 0.8; stroke-linejoin: miter; stroke-linecap: square"/>
   </g>
   <g id="patch_4">
    <path d="M 640.8 298.989375 
L 640.8 21.789375 
" style="fill: none; stroke: #cccccc; stroke-width: 0.8; stroke-linejoin: miter; stroke-linecap: square"/>
   </g>
   <g id="patch_5">
    <path d="M 82.8 298.989375 
L 640.8 298.989375 
" style="fill: none; stroke: #cccccc; stroke-width: 0.8; stroke-linejoin: miter; stroke-linecap: square"/>
   </g>
   <g id="patch_6">
    <path d="M 82.8 21.789375 
L 640.8 21.789375 
" style="fill: none; stroke: #cccccc; stroke-width: 0.8; stroke-linejoin: miter; stroke-linecap: square"/>
   </g>
   <g id="text_17">
    <!-- Internações -->
    <g style="fill: #262626" transform="translate(330.449063 15.789375)scale(0.12 -0.12)">
     <defs>
      <path id="ArialMT-49" d="M 597 0 
L 597 4581 
L 1203 4581 
L 1203 0 
L 597 0 
z
" transform="scale(0.015625)"/>
      <path id="ArialMT-6e" d="M 422 0 
L 422 3319 
L 928 3319 
L 928 2847 
Q 1294 3394 1984 3394 
Q 2284 3394 2536 3286 
Q 2788 3178 2913 3003 
Q 3038 2828 3088 2588 
Q 3119 2431 3119 2041 
L 3119 0 
L 2556 0 
L 2556 2019 
Q 2556 2363 2490 2533 
Q 2425 2703 2258 2804 
Q 2091 2906 1866 2906 
Q 1506 2906 1245 2678 
Q 984 2450 984 1813 
L 984 0 
L 422 0 
z
" transform="scale(0.015625)"/>
      <path id="ArialMT-74" d="M 1650 503 
L 1731 6 
Q 1494 -44 1306 -44 
Q 1000 -44 831 53 
Q 663 150 594 308 
Q 525 466 525 972 
L 525 2881 
L 113 2881 
L 113 3319 
L 525 3319 
L 525 4141 
L 1084 4478 
L 1084 3319 
L 1650 3319 
L 1650 2881 
L 1084 2881 
L 1084 941 
Q 1084 700 1114 631 
Q 1144 563 1211 522 
Q 1278 481 1403 481 
Q 1497 481 1650 503 
z
" transform="scale(0.015625)"/>
      <path id="ArialMT-65" d="M 2694 1069 
L 3275 997 
Q 3138 488 2766 206 
Q 2394 -75 1816 -75 
Q 1088 -75 661 373 
Q 234 822 234 1631 
Q 234 2469 665 2931 
Q 1097 3394 1784 3394 
Q 2450 3394 2872 2941 
Q 3294 2488 3294 1666 
Q 3294 1616 3291 1516 
L 816 1516 
Q 847 969 1125 678 
Q 1403 388 1819 388 
Q 2128 388 2347 550 
Q 2566 713 2694 1069 
z
M 847 1978 
L 2700 1978 
Q 2663 2397 2488 2606 
Q 2219 2931 1791 2931 
Q 1403 2931 1139 2672 
Q 875 2413 847 1978 
z
" transform="scale(0.015625)"/>
      <path id="ArialMT-72" d="M 416 0 
L 416 3319 
L 922 3319 
L 922 2816 
Q 1116 3169 1280 3281 
Q 1444 3394 1641 3394 
Q 1925 3394 2219 3213 
L 2025 2691 
Q 1819 2813 1613 2813 
Q 1428 2813 1281 2702 
Q 1134 2591 1072 2394 
Q 978 2094 978 1738 
L 978 0 
L 416 0 
z
" transform="scale(0.015625)"/>
      <path id="ArialMT-61" d="M 2588 409 
Q 2275 144 1986 34 
Q 1697 -75 1366 -75 
Q 819 -75 525 192 
Q 231 459 231 875 
Q 231 1119 342 1320 
Q 453 1522 633 1644 
Q 813 1766 1038 1828 
Q 1203 1872 1538 1913 
Q 2219 1994 2541 2106 
Q 2544 2222 2544 2253 
Q 2544 2597 2384 2738 
Q 2169 2928 1744 2928 
Q 1347 2928 1158 2789 
Q 969 2650 878 2297 
L 328 2372 
Q 403 2725 575 2942 
Q 747 3159 1072 3276 
Q 1397 3394 1825 3394 
Q 2250 3394 2515 3294 
Q 2781 3194 2906 3042 
Q 3031 2891 3081 2659 
Q 3109 2516 3109 2141 
L 3109 1391 
Q 3109 606 3145 398 
Q 3181 191 3288 0 
L 2700 0 
Q 2613 175 2588 409 
z
M 2541 1666 
Q 2234 1541 1622 1453 
Q 1275 1403 1131 1340 
Q 988 1278 909 1158 
Q 831 1038 831 891 
Q 831 666 1001 516 
Q 1172 366 1500 366 
Q 1825 366 2078 508 
Q 2331 650 2450 897 
Q 2541 1088 2541 1459 
L 2541 1666 
z
" transform="scale(0.015625)"/>
      <path id="ArialMT-e7" d="M 2588 1216 
L 3141 1144 
Q 3050 572 2676 248 
Q 2303 -75 1759 -75 
Q 1078 -75 664 370 
Q 250 816 250 1647 
Q 250 2184 428 2587 
Q 606 2991 970 3192 
Q 1334 3394 1763 3394 
Q 2303 3394 2647 3120 
Q 2991 2847 3088 2344 
L 2541 2259 
Q 2463 2594 2264 2762 
Q 2066 2931 1784 2931 
Q 1359 2931 1093 2626 
Q 828 2322 828 1663 
Q 828 994 1084 691 
Q 1341 388 1753 388 
Q 2084 388 2306 591 
Q 2528 794 2588 1216 
z
M 1283 -417 
L 1446 136 
L 1864 136 
L 1761 -199 
Q 2027 -230 2161 -362 
Q 2296 -495 2296 -658 
Q 2296 -892 2071 -1072 
Q 1846 -1252 1392 -1252 
Q 1136 -1252 942 -1214 
L 977 -849 
Q 1177 -861 1271 -861 
Q 1564 -861 1683 -780 
Q 1774 -717 1774 -627 
Q 1774 -570 1738 -526 
Q 1702 -483 1605 -451 
Q 1508 -420 1283 -417 
z
" transform="scale(0.015625)"/>
      <path id="ArialMT-f5" d="M 213 1659 
Q 213 2581 725 3025 
Q 1153 3394 1769 3394 
Q 2453 3394 2887 2945 
Q 3322 2497 3322 1706 
Q 3322 1066 3130 698 
Q 2938 331 2570 128 
Q 2203 -75 1769 -75 
Q 1072 -75 642 372 
Q 213 819 213 1659 
z
M 791 1659 
Q 791 1022 1069 705 
Q 1347 388 1769 388 
Q 2188 388 2466 706 
Q 2744 1025 2744 1678 
Q 2744 2294 2464 2611 
Q 2184 2928 1769 2928 
Q 1347 2928 1069 2612 
Q 791 2297 791 1659 
z
M 726 3809 
Q 723 4134 904 4328 
Q 1082 4522 1360 4522 
Q 1554 4522 1888 4353 
Q 2073 4259 2182 4259 
Q 2282 4259 2335 4314 
Q 2388 4369 2410 4531 
L 2817 4531 
Q 2807 4175 2637 3997 
Q 2467 3819 2204 3819 
Q 2007 3819 1685 3994 
Q 1476 4106 1379 4106 
Q 1273 4106 1207 4031 
Q 1138 3956 1142 3809 
L 726 3809 
z
" transform="scale(0.015625)"/>
      <path id="ArialMT-73" d="M 197 991 
L 753 1078 
Q 800 744 1014 566 
Q 1228 388 1613 388 
Q 2000 388 2187 545 
Q 2375 703 2375 916 
Q 2375 1106 2209 1216 
Q 2094 1291 1634 1406 
Q 1016 1563 777 1677 
Q 538 1791 414 1992 
Q 291 2194 291 2438 
Q 291 2659 392 2848 
Q 494 3038 669 3163 
Q 800 3259 1026 3326 
Q 1253 3394 1513 3394 
Q 1903 3394 2198 3281 
Q 2494 3169 2634 2976 
Q 2775 2784 2828 2463 
L 2278 2388 
Q 2241 2644 2061 2787 
Q 1881 2931 1553 2931 
Q 1166 2931 1000 2803 
Q 834 2675 834 2503 
Q 834 2394 903 2306 
Q 972 2216 1119 2156 
Q 1203 2125 1616 2013 
Q 2213 1853 2448 1751 
Q 2684 1650 2818 1456 
Q 2953 1263 2953 975 
Q 2953 694 2789 445 
Q 2625 197 2315 61 
Q 2006 -75 1616 -75 
Q 969 -75 630 194 
Q 291 463 197 991 
z
" transform="scale(0.015625)"/>
     </defs>
     <use xlink:href="#ArialMT-49"/>
     <use xlink:href="#ArialMT-6e" x="27.783203"/>
     <use xlink:href="#ArialMT-74" x="83.398438"/>
     <use xlink:href="#ArialMT-65" x="111.181641"/>
     <use xlink:href="#ArialMT-72" x="166.796875"/>
     <use xlink:href="#ArialMT-6e" x="200.097656"/>
     <use xlink:href="#ArialMT-61" x="255.712891"/>
     <use xlink:href="#ArialMT-e7" x="311.328125"/>
     <use xlink:href="#ArialMT-f5" x="361.328125"/>
     <use xlink:href="#ArialMT-65" x="416.943359"/>
     <use xlink:href="#ArialMT-73" x="472.558594"/>
    </g>
   </g>
   <g id="legend_1">
    <g id="patch_7">
     <path d="M 549.548437 58.08 
L 633.8 58.08 
Q 635.8 58.08 635.8 56.08 
L 635.8 28.789375 
Q 635.8 26.789375 633.8 26.789375 
L 549.548437 26.789375 
Q 547.548437 26.789375 547.548437 28.789375 
L 547.548437 56.08 
Q 547.548437 58.08 549.548437 58.08 
z
" style="fill: #ffffff; opacity: 0.8; stroke: #cccccc; stroke-linejoin: miter"/>
    </g>
    <g id="line2d_19">
     <path d="M 551.548437 34.447188 
L 561.548437 34.447188 
L 571.548437 34.447188 
" style="fill: none; stroke: #1f77b4; stroke-width: 1.5; stroke-linecap: round"/>
    </g>
    <g id="text_18">
     <!-- Internações -->
     <g style="fill: #262626" transform="translate(579.548437 37.947188)scale(0.1 -0.1)">
      <use xlink:href="#ArialMT-49"/>
      <use xlink:href="#ArialMT-6e" x="27.783203"/>
      <use xlink:href="#ArialMT-74" x="83.398438"/>
      <use xlink:href="#ArialMT-65" x="111.181641"/>
      <use xlink:href="#ArialMT-72" x="166.796875"/>
      <use xlink:href="#ArialMT-6e" x="200.097656"/>
      <use xlink:href="#ArialMT-61" x="255.712891"/>
      <use xlink:href="#ArialMT-e7" x="311.328125"/>
      <use xlink:href="#ArialMT-f5" x="361.328125"/>
      <use xlink:href="#ArialMT-65" x="416.943359"/>
      <use xlink:href="#ArialMT-73" x="472.558594"/>
     </g>
    </g>
    <g id="line2d_20">
     <path d="M 551.548437 48.5925 
L 561.548437 48.5925 
L 571.548437 48.5925 
" style="fill: none; stroke: #ff7f0e; stroke-width: 1.5; stroke-linecap: round"/>
    </g>
    <g id="text_19">
     <!-- UTI -->
     <g style="fill: #262626" transform="translate(579.548437 52.0925)scale(0.1 -0.1)">
      <defs>
       <path id="ArialMT-55" d="M 3500 4581 
L 4106 4581 
L 4106 1934 
Q 4106 1244 3950 837 
Q 3794 431 3386 176 
Q 2978 -78 2316 -78 
Q 1672 -78 1262 144 
Q 853 366 678 786 
Q 503 1206 503 1934 
L 503 4581 
L 1109 4581 
L 1109 1938 
Q 1109 1341 1220 1058 
Q 1331 775 1601 622 
Q 1872 469 2263 469 
Q 2931 469 3215 772 
Q 3500 1075 3500 1938 
L 3500 4581 
z
" transform="scale(0.015625)"/>
       <path id="ArialMT-54" d="M 1659 0 
L 1659 4041 
L 150 4041 
L 150 4581 
L 3781 4581 
L 3781 4041 
L 2266 4041 
L 2266 0 
L 1659 0 
z
" transform="scale(0.015625)"/>
      </defs>
      <use xlink:href="#ArialMT-55"/>
      <use xlink:href="#ArialMT-54" x="72.216797"/>
      <use xlink:href="#ArialMT-49" x="133.300781"/>
     </g>
    </g>
   </g>
  </g>
  <g id="text_20">
   <!-- Atualizado em 17/03/2022 -->
   <g style="fill: #262626" transform="translate(7.2 331.389375)scale(0.08 -0.08)">
    <defs>
     <path id="ArialMT-41" d="M -9 0 
L 1750 4581 
L 2403 4581 
L 4278 0 
L 3588 0 
L 3053 1388 
L 1138 1388 
L 634 0 
L -9 0 
z
M 1313 1881 
L 2866 1881 
L 2388 3150 
Q 2169 3728 2063 4100 
Q 1975 3659 1816 3225 
L 1313 1881 
z
" transform="scale(0.015625)"/>
     <path id="ArialMT-75" d="M 2597 0 
L 2597 488 
Q 2209 -75 1544 -75 
Q 1250 -75 995 37 
Q 741 150 617 320 
Q 494 491 444 738 
Q 409 903 409 1263 
L 409 3319 
L 972 3319 
L 972 1478 
Q 972 1038 1006 884 
Q 1059 663 1231 536 
Q 1403 409 1656 409 
Q 1909 409 2131 539 
Q 2353 669 2445 892 
Q 2538 1116 2538 1541 
L 2538 3319 
L 3100 3319 
L 3100 0 
L 2597 0 
z
" transform="scale(0.015625)"/>
     <path id="ArialMT-6c" d="M 409 0 
L 409 4581 
L 972 4581 
L 972 0 
L 409 0 
z
" transform="scale(0.015625)"/>
     <path id="ArialMT-69" d="M 425 3934 
L 425 4581 
L 988 4581 
L 988 3934 
L 425 3934 
z
M 425 0 
L 425 3319 
L 988 3319 
L 988 0 
L 425 0 
z
" transform="scale(0.015625)"/>
     <path id="ArialMT-7a" d="M 125 0 
L 125 456 
L 2238 2881 
Q 1878 2863 1603 2863 
L 250 2863 
L 250 3319 
L 2963 3319 
L 2963 2947 
L 1166 841 
L 819 456 
Q 1197 484 1528 484 
L 3063 484 
L 3063 0 
L 125 0 
z
" transform="scale(0.015625)"/>
     <path id="ArialMT-64" d="M 2575 0 
L 2575 419 
Q 2259 -75 1647 -75 
Q 1250 -75 917 144 
Q 584 363 401 755 
Q 219 1147 219 1656 
Q 219 2153 384 2558 
Q 550 2963 881 3178 
Q 1213 3394 1622 3394 
Q 1922 3394 2156 3267 
Q 2391 3141 2538 2938 
L 2538 4581 
L 3097 4581 
L 3097 0 
L 2575 0 
z
M 797 1656 
Q 797 1019 1065 703 
Q 1334 388 1700 388 
Q 2069 388 2326 689 
Q 2584 991 2584 1609 
Q 2584 2291 2321 2609 
Q 2059 2928 1675 2928 
Q 1300 2928 1048 2622 
Q 797 2316 797 1656 
z
" transform="scale(0.015625)"/>
     <path id="ArialMT-6f" d="M 213 1659 
Q 213 2581 725 3025 
Q 1153 3394 1769 3394 
Q 2453 3394 2887 2945 
Q 3322 2497 3322 1706 
Q 3322 1066 3130 698 
Q 2938 331 2570 128 
Q 2203 -75 1769 -75 
Q 1072 -75 642 372 
Q 213 819 213 1659 
z
M 791 1659 
Q 791 1022 1069 705 
Q 1347 388 1769 388 
Q 2188 388 2466 706 
Q 2744 1025 2744 1678 
Q 2744 2294 2464 2611 
Q 2184 2928 1769 2928 
Q 1347 2928 1069 2612 
Q 791 2297 791 1659 
z
" transform="scale(0.015625)"/>
     <path id="ArialMT-20" transform="scale(0.015625)"/>
     <path id="ArialMT-6d" d="M 422 0 
L 422 3319 
L 925 3319 
L 925 2853 
Q 1081 3097 1340 3245 
Q 1600 3394 1931 3394 
Q 2300 3394 2536 3241 
Q 2772 3088 2869 2813 
Q 3263 3394 3894 3394 
Q 4388 3394 4653 3120 
Q 4919 2847 4919 2278 
L 4919 0 
L 4359 0 
L 4359 2091 
Q 4359 2428 4304 2576 
Q 4250 2725 4106 2815 
Q 3963 2906 3769 2906 
Q 3419 2906 3187 2673 
Q 2956 2441 2956 1928 
L 2956 0 
L 2394 0 
L 2394 2156 
Q 2394 2531 2256 2718 
Q 2119 2906 1806 2906 
Q 1569 2906 1367 2781 
Q 1166 2656 1075 2415 
Q 984 2175 984 1722 
L 984 0 
L 422 0 
z
" transform="scale(0.015625)"/>
     <path id="ArialMT-2f" d="M 0 -78 
L 1328 4659 
L 1778 4659 
L 453 -78 
L 0 -78 
z
" transform="scale(0.015625)"/>
    </defs>
    <use xlink:href="#ArialMT-41"/>
    <use xlink:href="#ArialMT-74" x="66.699219"/>
    <use xlink:href="#ArialMT-75" x="94.482422"/>
    <use xlink:href="#ArialMT-61" x="150.097656"/>
    <use xlink:href="#ArialMT-6c" x="205.712891"/>
    <use xlink:href="#ArialMT-69" x="227.929688"/>
    <use xlink:href="#ArialMT-7a" x="250.146484"/>
    <use xlink:href="#ArialMT-61" x="300.146484"/>
    <use xlink:href="#ArialMT-64" x="355.761719"/>
    <use xlink:href="#ArialMT-6f" x="411.376953"/>
    <use xlink:href="#ArialMT-20" x="466.992188"/>
    <use xlink:href="#ArialMT-65" x="494.775391"/>
    <use xlink:href="#ArialMT-6d" x="550.390625"/>
    <use xlink:href="#ArialMT-20" x="633.691406"/>
    <use xlink:href="#ArialMT-31" x="661.474609"/>
    <use xlink:href="#ArialMT-37" x="717.089844"/>
    <use xlink:href="#ArialMT-2f" x="772.705078"/>
    <use xlink:href="#ArialMT-30" x="800.488281"/>
    <use xlink:href="#ArialMT-33" x="856.103516"/>
    <use xlink:href="#ArialMT-2f" x="911.71875"/>
    <use xlink:href="#ArialMT-32" x="939.501953"/>
    <use xlink:href="#ArialMT-30" x="995.117188"/>
    <use xlink:href="#ArialMT-32" x="1050.732422"/>
    <use xlink:href="#ArialMT-32" x="1106.347656"/>
   </g>
  </g>
  <g id="text_21">
   <!-- https://jmsvaz.github.io/covidsantos/ -->
   <g style="fill: #262626" transform="translate(570.345 331.389375)scale(0.08 -0.08)">
    <defs>
     <path id="ArialMT-68" d="M 422 0 
L 422 4581 
L 984 4581 
L 984 2938 
Q 1378 3394 1978 3394 
Q 2347 3394 2619 3248 
Q 2891 3103 3008 2847 
Q 3125 2591 3125 2103 
L 3125 0 
L 2563 0 
L 2563 2103 
Q 2563 2525 2380 2717 
Q 2197 2909 1863 2909 
Q 1613 2909 1392 2779 
Q 1172 2650 1078 2428 
Q 984 2206 984 1816 
L 984 0 
L 422 0 
z
" transform="scale(0.015625)"/>
     <path id="ArialMT-70" d="M 422 -1272 
L 422 3319 
L 934 3319 
L 934 2888 
Q 1116 3141 1344 3267 
Q 1572 3394 1897 3394 
Q 2322 3394 2647 3175 
Q 2972 2956 3137 2557 
Q 3303 2159 3303 1684 
Q 3303 1175 3120 767 
Q 2938 359 2589 142 
Q 2241 -75 1856 -75 
Q 1575 -75 1351 44 
Q 1128 163 984 344 
L 984 -1272 
L 422 -1272 
z
M 931 1641 
Q 931 1000 1190 694 
Q 1450 388 1819 388 
Q 2194 388 2461 705 
Q 2728 1022 2728 1688 
Q 2728 2322 2467 2637 
Q 2206 2953 1844 2953 
Q 1484 2953 1207 2617 
Q 931 2281 931 1641 
z
" transform="scale(0.015625)"/>
     <path id="ArialMT-3a" d="M 578 2678 
L 578 3319 
L 1219 3319 
L 1219 2678 
L 578 2678 
z
M 578 0 
L 578 641 
L 1219 641 
L 1219 0 
L 578 0 
z
" transform="scale(0.015625)"/>
     <path id="ArialMT-6a" d="M 419 3928 
L 419 4581 
L 981 4581 
L 981 3928 
L 419 3928 
z
M -294 -1288 
L -188 -809 
Q -19 -853 78 -853 
Q 250 -853 334 -739 
Q 419 -625 419 -169 
L 419 3319 
L 981 3319 
L 981 -181 
Q 981 -794 822 -1034 
Q 619 -1347 147 -1347 
Q -81 -1347 -294 -1288 
z
" transform="scale(0.015625)"/>
     <path id="ArialMT-76" d="M 1344 0 
L 81 3319 
L 675 3319 
L 1388 1331 
Q 1503 1009 1600 663 
Q 1675 925 1809 1294 
L 2547 3319 
L 3125 3319 
L 1869 0 
L 1344 0 
z
" transform="scale(0.015625)"/>
     <path id="ArialMT-2e" d="M 581 0 
L 581 641 
L 1222 641 
L 1222 0 
L 581 0 
z
" transform="scale(0.015625)"/>
     <path id="ArialMT-67" d="M 319 -275 
L 866 -356 
Q 900 -609 1056 -725 
Q 1266 -881 1628 -881 
Q 2019 -881 2231 -725 
Q 2444 -569 2519 -288 
Q 2563 -116 2559 434 
Q 2191 0 1641 0 
Q 956 0 581 494 
Q 206 988 206 1678 
Q 206 2153 378 2554 
Q 550 2956 876 3175 
Q 1203 3394 1644 3394 
Q 2231 3394 2613 2919 
L 2613 3319 
L 3131 3319 
L 3131 450 
Q 3131 -325 2973 -648 
Q 2816 -972 2473 -1159 
Q 2131 -1347 1631 -1347 
Q 1038 -1347 672 -1080 
Q 306 -813 319 -275 
z
M 784 1719 
Q 784 1066 1043 766 
Q 1303 466 1694 466 
Q 2081 466 2343 764 
Q 2606 1063 2606 1700 
Q 2606 2309 2336 2618 
Q 2066 2928 1684 2928 
Q 1309 2928 1046 2623 
Q 784 2319 784 1719 
z
" transform="scale(0.015625)"/>
     <path id="ArialMT-62" d="M 941 0 
L 419 0 
L 419 4581 
L 981 4581 
L 981 2947 
Q 1338 3394 1891 3394 
Q 2197 3394 2470 3270 
Q 2744 3147 2920 2923 
Q 3097 2700 3197 2384 
Q 3297 2069 3297 1709 
Q 3297 856 2875 390 
Q 2453 -75 1863 -75 
Q 1275 -75 941 416 
L 941 0 
z
M 934 1684 
Q 934 1088 1097 822 
Q 1363 388 1816 388 
Q 2184 388 2453 708 
Q 2722 1028 2722 1663 
Q 2722 2313 2464 2622 
Q 2206 2931 1841 2931 
Q 1472 2931 1203 2611 
Q 934 2291 934 1684 
z
" transform="scale(0.015625)"/>
     <path id="ArialMT-63" d="M 2588 1216 
L 3141 1144 
Q 3050 572 2676 248 
Q 2303 -75 1759 -75 
Q 1078 -75 664 370 
Q 250 816 250 1647 
Q 250 2184 428 2587 
Q 606 2991 970 3192 
Q 1334 3394 1763 3394 
Q 2303 3394 2647 3120 
Q 2991 2847 3088 2344 
L 2541 2259 
Q 2463 2594 2264 2762 
Q 2066 2931 1784 2931 
Q 1359 2931 1093 2626 
Q 828 2322 828 1663 
Q 828 994 1084 691 
Q 1341 388 1753 388 
Q 2084 388 2306 591 
Q 2528 794 2588 1216 
z
" transform="scale(0.015625)"/>
    </defs>
    <use xlink:href="#ArialMT-68"/>
    <use xlink:href="#ArialMT-74" x="55.615234"/>
    <use xlink:href="#ArialMT-74" x="83.398438"/>
    <use xlink:href="#ArialMT-70" x="111.181641"/>
    <use xlink:href="#ArialMT-73" x="166.796875"/>
    <use xlink:href="#ArialMT-3a" x="216.796875"/>
    <use xlink:href="#ArialMT-2f" x="244.580078"/>
    <use xlink:href="#ArialMT-2f" x="272.363281"/>
    <use xlink:href="#ArialMT-6a" x="300.146484"/>
    <use xlink:href="#ArialMT-6d" x="322.363281"/>
    <use xlink:href="#ArialMT-73" x="405.664062"/>
    <use xlink:href="#ArialMT-76" x="455.664062"/>
    <use xlink:href="#ArialMT-61" x="505.664062"/>
    <use xlink:href="#ArialMT-7a" x="561.279297"/>
    <use xlink:href="#ArialMT-2e" x="611.279297"/>
    <use xlink:href="#ArialMT-67" x="639.0625"/>
    <use xlink:href="#ArialMT-69" x="694.677734"/>
    <use xlink:href="#ArialMT-74" x="716.894531"/>
    <use xlink:href="#ArialMT-68" x="744.677734"/>
    <use xlink:href="#ArialMT-75" x="800.292969"/>
    <use xlink:href="#ArialMT-62" x="855.908203"/>
    <use xlink:href="#ArialMT-2e" x="911.523438"/>
    <use xlink:href="#ArialMT-69" x="939.306641"/>
    <use xlink:href="#ArialMT-6f" x="961.523438"/>
    <use xlink:href="#ArialMT-2f" x="1017.138672"/>
    <use xlink:href="#ArialMT-63" x="1044.921875"/>
    <use xlink:href="#ArialMT-6f" x="1094.921875"/>
    <use xlink:href="#ArialMT-76" x="1150.537109"/>
    <use xlink:href="#ArialMT-69" x="1200.537109"/>
    <use xlink:href="#ArialMT-64" x="1222.753906"/>
    <use xlink:href="#ArialMT-73" x="1278.369141"/>
    <use xlink:href="#ArialMT-61" x="1328.369141"/>
    <use xlink:href="#ArialMT-6e" x="1383.984375"/>
    <use xlink:href="#ArialMT-74" x="1439.599609"/>
    <use xlink:href="#ArialMT-6f" x="1467.382812"/>
    <use xlink:href="#ArialMT-73" x="1522.998047"/>
    <use xlink:href="#ArialMT-2f" x="1572.998047"/>
   </g>
  </g>
 </g>
 <defs>
  <clipPath id="pc46f578cd7">
   <rect x="82.8" y="21.789375" width="558" height="277.2"/>
  </clipPath>
 </defs>
</svg>
