<?xml version="1.0" encoding="utf-8" standalone="no"?>
<!DOCTYPE svg PUBLIC "-//W3C//DTD SVG 1.1//EN"
  "http://www.w3.org/Graphics/SVG/1.1/DTD/svg11.dtd">
<svg height="316.934687pt" version="1.1" viewBox="0 0 596.082813 316.934687" width="596.082813pt" xmlns="http://www.w3.org/2000/svg" xmlns:xlink="http://www.w3.org/1999/xlink">
 <metadata>
  <rdf:RDF xmlns:cc="http://creativecommons.org/ns#" xmlns:dc="http://purl.org/dc/elements/1.1/" xmlns:rdf="http://www.w3.org/1999/02/22-rdf-syntax-ns#">
   <cc:Work>
    <dc:type rdf:resource="http://purl.org/dc/dcmitype/StillImage"/>
    <dc:date>2021-04-02T09:15:23.463814</dc:date>
    <dc:format>image/svg+xml</dc:format>
    <dc:creator>
     <cc:Agent>
      <dc:title>Matplotlib v3.4.0, https://matplotlib.org/</dc:title>
     </cc:Agent>
    </dc:creator>
   </cc:Work>
  </rdf:RDF>
 </metadata>
 <defs>
  <style type="text/css">*{stroke-linecap:butt;stroke-linejoin:round;}</style>
 </defs>
 <g id="figure_1">
  <g id="patch_1">
   <path d="M 0 316.934687 
L 596.082813 316.934687 
L 596.082813 0 
L 0 0 
z
" style="fill:#ffffff;"/>
  </g>
  <g id="axes_1">
   <g id="patch_2">
    <path d="M 30.882812 293.589375 
L 588.882812 293.589375 
L 588.882812 21.789375 
L 30.882812 21.789375 
z
" style="fill:#ffffff;"/>
   </g>
   <g id="matplotlib.axis_1">
    <g id="xtick_1">
     <g id="line2d_1">
      <path clip-path="url(#pfa8ffbc1fb)" d="M 32.090605 293.589375 
L 32.090605 21.789375 
" style="fill:none;stroke:#cccccc;stroke-linecap:round;stroke-width:0.8;"/>
     </g>
     <g id="text_1">
      <!-- 2020-03 -->
      <g style="fill:#262626;" transform="translate(13.742948 307.747187)scale(0.1 -0.1)">
       <defs>
        <path d="M 3222 541 
L 3222 0 
L 194 0 
Q 188 203 259 391 
Q 375 700 629 1000 
Q 884 1300 1366 1694 
Q 2113 2306 2375 2664 
Q 2638 3022 2638 3341 
Q 2638 3675 2398 3904 
Q 2159 4134 1775 4134 
Q 1369 4134 1125 3890 
Q 881 3647 878 3216 
L 300 3275 
Q 359 3922 746 4261 
Q 1134 4600 1788 4600 
Q 2447 4600 2831 4234 
Q 3216 3869 3216 3328 
Q 3216 3053 3103 2787 
Q 2991 2522 2730 2228 
Q 2469 1934 1863 1422 
Q 1356 997 1212 845 
Q 1069 694 975 541 
L 3222 541 
z
" id="ArialMT-32" transform="scale(0.015625)"/>
        <path d="M 266 2259 
Q 266 3072 433 3567 
Q 600 4063 929 4331 
Q 1259 4600 1759 4600 
Q 2128 4600 2406 4451 
Q 2684 4303 2865 4023 
Q 3047 3744 3150 3342 
Q 3253 2941 3253 2259 
Q 3253 1453 3087 958 
Q 2922 463 2592 192 
Q 2263 -78 1759 -78 
Q 1097 -78 719 397 
Q 266 969 266 2259 
z
M 844 2259 
Q 844 1131 1108 757 
Q 1372 384 1759 384 
Q 2147 384 2411 759 
Q 2675 1134 2675 2259 
Q 2675 3391 2411 3762 
Q 2147 4134 1753 4134 
Q 1366 4134 1134 3806 
Q 844 3388 844 2259 
z
" id="ArialMT-30" transform="scale(0.015625)"/>
        <path d="M 203 1375 
L 203 1941 
L 1931 1941 
L 1931 1375 
L 203 1375 
z
" id="ArialMT-2d" transform="scale(0.015625)"/>
        <path d="M 269 1209 
L 831 1284 
Q 928 806 1161 595 
Q 1394 384 1728 384 
Q 2125 384 2398 659 
Q 2672 934 2672 1341 
Q 2672 1728 2419 1979 
Q 2166 2231 1775 2231 
Q 1616 2231 1378 2169 
L 1441 2663 
Q 1497 2656 1531 2656 
Q 1891 2656 2178 2843 
Q 2466 3031 2466 3422 
Q 2466 3731 2256 3934 
Q 2047 4138 1716 4138 
Q 1388 4138 1169 3931 
Q 950 3725 888 3313 
L 325 3413 
Q 428 3978 793 4289 
Q 1159 4600 1703 4600 
Q 2078 4600 2393 4439 
Q 2709 4278 2876 4000 
Q 3044 3722 3044 3409 
Q 3044 3113 2884 2869 
Q 2725 2625 2413 2481 
Q 2819 2388 3044 2092 
Q 3269 1797 3269 1353 
Q 3269 753 2831 336 
Q 2394 -81 1725 -81 
Q 1122 -81 723 278 
Q 325 638 269 1209 
z
" id="ArialMT-33" transform="scale(0.015625)"/>
       </defs>
       <use xlink:href="#ArialMT-32"/>
       <use x="55.615234" xlink:href="#ArialMT-30"/>
       <use x="111.230469" xlink:href="#ArialMT-32"/>
       <use x="166.845703" xlink:href="#ArialMT-30"/>
       <use x="222.460938" xlink:href="#ArialMT-2d"/>
       <use x="255.761719" xlink:href="#ArialMT-30"/>
       <use x="311.376953" xlink:href="#ArialMT-33"/>
      </g>
     </g>
    </g>
    <g id="xtick_2">
     <g id="line2d_2">
      <path clip-path="url(#pfa8ffbc1fb)" d="M 113.952077 293.589375 
L 113.952077 21.789375 
" style="fill:none;stroke:#cccccc;stroke-linecap:round;stroke-width:0.8;"/>
     </g>
     <g id="text_2">
      <!-- 2020-05 -->
      <g style="fill:#262626;" transform="translate(95.60442 307.747187)scale(0.1 -0.1)">
       <defs>
        <path d="M 266 1200 
L 856 1250 
Q 922 819 1161 601 
Q 1400 384 1738 384 
Q 2144 384 2425 690 
Q 2706 997 2706 1503 
Q 2706 1984 2436 2262 
Q 2166 2541 1728 2541 
Q 1456 2541 1237 2417 
Q 1019 2294 894 2097 
L 366 2166 
L 809 4519 
L 3088 4519 
L 3088 3981 
L 1259 3981 
L 1013 2750 
Q 1425 3038 1878 3038 
Q 2478 3038 2890 2622 
Q 3303 2206 3303 1553 
Q 3303 931 2941 478 
Q 2500 -78 1738 -78 
Q 1113 -78 717 272 
Q 322 622 266 1200 
z
" id="ArialMT-35" transform="scale(0.015625)"/>
       </defs>
       <use xlink:href="#ArialMT-32"/>
       <use x="55.615234" xlink:href="#ArialMT-30"/>
       <use x="111.230469" xlink:href="#ArialMT-32"/>
       <use x="166.845703" xlink:href="#ArialMT-30"/>
       <use x="222.460938" xlink:href="#ArialMT-2d"/>
       <use x="255.761719" xlink:href="#ArialMT-30"/>
       <use x="311.376953" xlink:href="#ArialMT-35"/>
      </g>
     </g>
    </g>
    <g id="xtick_3">
     <g id="line2d_3">
      <path clip-path="url(#pfa8ffbc1fb)" d="M 195.813548 293.589375 
L 195.813548 21.789375 
" style="fill:none;stroke:#cccccc;stroke-linecap:round;stroke-width:0.8;"/>
     </g>
     <g id="text_3">
      <!-- 2020-07 -->
      <g style="fill:#262626;" transform="translate(177.465892 307.747187)scale(0.1 -0.1)">
       <defs>
        <path d="M 303 3981 
L 303 4522 
L 3269 4522 
L 3269 4084 
Q 2831 3619 2401 2847 
Q 1972 2075 1738 1259 
Q 1569 684 1522 0 
L 944 0 
Q 953 541 1156 1306 
Q 1359 2072 1739 2783 
Q 2119 3494 2547 3981 
L 303 3981 
z
" id="ArialMT-37" transform="scale(0.015625)"/>
       </defs>
       <use xlink:href="#ArialMT-32"/>
       <use x="55.615234" xlink:href="#ArialMT-30"/>
       <use x="111.230469" xlink:href="#ArialMT-32"/>
       <use x="166.845703" xlink:href="#ArialMT-30"/>
       <use x="222.460938" xlink:href="#ArialMT-2d"/>
       <use x="255.761719" xlink:href="#ArialMT-30"/>
       <use x="311.376953" xlink:href="#ArialMT-37"/>
      </g>
     </g>
    </g>
    <g id="xtick_4">
     <g id="line2d_4">
      <path clip-path="url(#pfa8ffbc1fb)" d="M 279.017012 293.589375 
L 279.017012 21.789375 
" style="fill:none;stroke:#cccccc;stroke-linecap:round;stroke-width:0.8;"/>
     </g>
     <g id="text_4">
      <!-- 2020-09 -->
      <g style="fill:#262626;" transform="translate(260.669355 307.747187)scale(0.1 -0.1)">
       <defs>
        <path d="M 350 1059 
L 891 1109 
Q 959 728 1153 556 
Q 1347 384 1650 384 
Q 1909 384 2104 503 
Q 2300 622 2425 820 
Q 2550 1019 2634 1356 
Q 2719 1694 2719 2044 
Q 2719 2081 2716 2156 
Q 2547 1888 2255 1720 
Q 1963 1553 1622 1553 
Q 1053 1553 659 1965 
Q 266 2378 266 3053 
Q 266 3750 677 4175 
Q 1088 4600 1706 4600 
Q 2153 4600 2523 4359 
Q 2894 4119 3086 3673 
Q 3278 3228 3278 2384 
Q 3278 1506 3087 986 
Q 2897 466 2520 194 
Q 2144 -78 1638 -78 
Q 1100 -78 759 220 
Q 419 519 350 1059 
z
M 2653 3081 
Q 2653 3566 2395 3850 
Q 2138 4134 1775 4134 
Q 1400 4134 1122 3828 
Q 844 3522 844 3034 
Q 844 2597 1108 2323 
Q 1372 2050 1759 2050 
Q 2150 2050 2401 2323 
Q 2653 2597 2653 3081 
z
" id="ArialMT-39" transform="scale(0.015625)"/>
       </defs>
       <use xlink:href="#ArialMT-32"/>
       <use x="55.615234" xlink:href="#ArialMT-30"/>
       <use x="111.230469" xlink:href="#ArialMT-32"/>
       <use x="166.845703" xlink:href="#ArialMT-30"/>
       <use x="222.460938" xlink:href="#ArialMT-2d"/>
       <use x="255.761719" xlink:href="#ArialMT-30"/>
       <use x="311.376953" xlink:href="#ArialMT-39"/>
      </g>
     </g>
    </g>
    <g id="xtick_5">
     <g id="line2d_5">
      <path clip-path="url(#pfa8ffbc1fb)" d="M 360.878483 293.589375 
L 360.878483 21.789375 
" style="fill:none;stroke:#cccccc;stroke-linecap:round;stroke-width:0.8;"/>
     </g>
     <g id="text_5">
      <!-- 2020-11 -->
      <g style="fill:#262626;" transform="translate(342.899577 307.747187)scale(0.1 -0.1)">
       <defs>
        <path d="M 2384 0 
L 1822 0 
L 1822 3584 
Q 1619 3391 1289 3197 
Q 959 3003 697 2906 
L 697 3450 
Q 1169 3672 1522 3987 
Q 1875 4303 2022 4600 
L 2384 4600 
L 2384 0 
z
" id="ArialMT-31" transform="scale(0.015625)"/>
       </defs>
       <use xlink:href="#ArialMT-32"/>
       <use x="55.615234" xlink:href="#ArialMT-30"/>
       <use x="111.230469" xlink:href="#ArialMT-32"/>
       <use x="166.845703" xlink:href="#ArialMT-30"/>
       <use x="222.460938" xlink:href="#ArialMT-2d"/>
       <use x="255.761719" xlink:href="#ArialMT-31"/>
       <use x="304.001953" xlink:href="#ArialMT-31"/>
      </g>
     </g>
    </g>
    <g id="xtick_6">
     <g id="line2d_6">
      <path clip-path="url(#pfa8ffbc1fb)" d="M 442.739955 293.589375 
L 442.739955 21.789375 
" style="fill:none;stroke:#cccccc;stroke-linecap:round;stroke-width:0.8;"/>
     </g>
     <g id="text_6">
      <!-- 2021-01 -->
      <g style="fill:#262626;" transform="translate(424.392299 307.747187)scale(0.1 -0.1)">
       <use xlink:href="#ArialMT-32"/>
       <use x="55.615234" xlink:href="#ArialMT-30"/>
       <use x="111.230469" xlink:href="#ArialMT-32"/>
       <use x="166.845703" xlink:href="#ArialMT-31"/>
       <use x="222.460938" xlink:href="#ArialMT-2d"/>
       <use x="255.761719" xlink:href="#ArialMT-30"/>
       <use x="311.376953" xlink:href="#ArialMT-31"/>
      </g>
     </g>
    </g>
    <g id="xtick_7">
     <g id="line2d_7">
      <path clip-path="url(#pfa8ffbc1fb)" d="M 521.917445 293.589375 
L 521.917445 21.789375 
" style="fill:none;stroke:#cccccc;stroke-linecap:round;stroke-width:0.8;"/>
     </g>
     <g id="text_7">
      <!-- 2021-03 -->
      <g style="fill:#262626;" transform="translate(503.569788 307.747187)scale(0.1 -0.1)">
       <use xlink:href="#ArialMT-32"/>
       <use x="55.615234" xlink:href="#ArialMT-30"/>
       <use x="111.230469" xlink:href="#ArialMT-32"/>
       <use x="166.845703" xlink:href="#ArialMT-31"/>
       <use x="222.460938" xlink:href="#ArialMT-2d"/>
       <use x="255.761719" xlink:href="#ArialMT-30"/>
       <use x="311.376953" xlink:href="#ArialMT-33"/>
      </g>
     </g>
    </g>
   </g>
   <g id="matplotlib.axis_2">
    <g id="ytick_1">
     <g id="line2d_8">
      <path clip-path="url(#pfa8ffbc1fb)" d="M 30.882812 281.23483 
L 588.882812 281.23483 
" style="fill:none;stroke:#cccccc;stroke-linecap:round;stroke-width:0.8;"/>
     </g>
     <g id="text_8">
      <!-- 0 -->
      <g style="fill:#262626;" transform="translate(18.321875 284.813736)scale(0.1 -0.1)">
       <use xlink:href="#ArialMT-30"/>
      </g>
     </g>
    </g>
    <g id="ytick_2">
     <g id="line2d_9">
      <path clip-path="url(#pfa8ffbc1fb)" d="M 30.882812 244.245172 
L 588.882812 244.245172 
" style="fill:none;stroke:#cccccc;stroke-linecap:round;stroke-width:0.8;"/>
     </g>
     <g id="text_9">
      <!-- 50 -->
      <g style="fill:#262626;" transform="translate(12.760937 247.824079)scale(0.1 -0.1)">
       <use xlink:href="#ArialMT-35"/>
       <use x="55.615234" xlink:href="#ArialMT-30"/>
      </g>
     </g>
    </g>
    <g id="ytick_3">
     <g id="line2d_10">
      <path clip-path="url(#pfa8ffbc1fb)" d="M 30.882812 207.255515 
L 588.882812 207.255515 
" style="fill:none;stroke:#cccccc;stroke-linecap:round;stroke-width:0.8;"/>
     </g>
     <g id="text_10">
      <!-- 100 -->
      <g style="fill:#262626;" transform="translate(7.2 210.834422)scale(0.1 -0.1)">
       <use xlink:href="#ArialMT-31"/>
       <use x="55.615234" xlink:href="#ArialMT-30"/>
       <use x="111.230469" xlink:href="#ArialMT-30"/>
      </g>
     </g>
    </g>
    <g id="ytick_4">
     <g id="line2d_11">
      <path clip-path="url(#pfa8ffbc1fb)" d="M 30.882812 170.265858 
L 588.882812 170.265858 
" style="fill:none;stroke:#cccccc;stroke-linecap:round;stroke-width:0.8;"/>
     </g>
     <g id="text_11">
      <!-- 150 -->
      <g style="fill:#262626;" transform="translate(7.2 173.844765)scale(0.1 -0.1)">
       <use xlink:href="#ArialMT-31"/>
       <use x="55.615234" xlink:href="#ArialMT-35"/>
       <use x="111.230469" xlink:href="#ArialMT-30"/>
      </g>
     </g>
    </g>
    <g id="ytick_5">
     <g id="line2d_12">
      <path clip-path="url(#pfa8ffbc1fb)" d="M 30.882812 133.276201 
L 588.882812 133.276201 
" style="fill:none;stroke:#cccccc;stroke-linecap:round;stroke-width:0.8;"/>
     </g>
     <g id="text_12">
      <!-- 200 -->
      <g style="fill:#262626;" transform="translate(7.2 136.855108)scale(0.1 -0.1)">
       <use xlink:href="#ArialMT-32"/>
       <use x="55.615234" xlink:href="#ArialMT-30"/>
       <use x="111.230469" xlink:href="#ArialMT-30"/>
      </g>
     </g>
    </g>
    <g id="ytick_6">
     <g id="line2d_13">
      <path clip-path="url(#pfa8ffbc1fb)" d="M 30.882812 96.286544 
L 588.882812 96.286544 
" style="fill:none;stroke:#cccccc;stroke-linecap:round;stroke-width:0.8;"/>
     </g>
     <g id="text_13">
      <!-- 250 -->
      <g style="fill:#262626;" transform="translate(7.2 99.865451)scale(0.1 -0.1)">
       <use xlink:href="#ArialMT-32"/>
       <use x="55.615234" xlink:href="#ArialMT-35"/>
       <use x="111.230469" xlink:href="#ArialMT-30"/>
      </g>
     </g>
    </g>
    <g id="ytick_7">
     <g id="line2d_14">
      <path clip-path="url(#pfa8ffbc1fb)" d="M 30.882812 59.296887 
L 588.882812 59.296887 
" style="fill:none;stroke:#cccccc;stroke-linecap:round;stroke-width:0.8;"/>
     </g>
     <g id="text_14">
      <!-- 300 -->
      <g style="fill:#262626;" transform="translate(7.2 62.875793)scale(0.1 -0.1)">
       <use xlink:href="#ArialMT-33"/>
       <use x="55.615234" xlink:href="#ArialMT-30"/>
       <use x="111.230469" xlink:href="#ArialMT-30"/>
      </g>
     </g>
    </g>
    <g id="ytick_8">
     <g id="line2d_15">
      <path clip-path="url(#pfa8ffbc1fb)" d="M 30.882812 22.30723 
L 588.882812 22.30723 
" style="fill:none;stroke:#cccccc;stroke-linecap:round;stroke-width:0.8;"/>
     </g>
     <g id="text_15">
      <!-- 350 -->
      <g style="fill:#262626;" transform="translate(7.2 25.886136)scale(0.1 -0.1)">
       <use xlink:href="#ArialMT-33"/>
       <use x="55.615234" xlink:href="#ArialMT-35"/>
       <use x="111.230469" xlink:href="#ArialMT-30"/>
      </g>
     </g>
    </g>
   </g>
   <g id="line2d_16">
    <path clip-path="url(#pfa8ffbc1fb)" d="M 56.246449 273.097105 
L 57.58844 273.097105 
L 58.930432 271.617519 
L 60.272423 271.617519 
L 61.614414 264.219587 
L 62.956406 250.903311 
L 64.298397 250.163518 
L 65.640388 247.204345 
L 66.98238 242.765586 
L 68.324371 242.025793 
L 69.666362 242.025793 
L 71.008354 241.286 
L 72.350345 238.326827 
L 73.692336 222.051378 
L 75.034328 220.571792 
L 76.376319 220.571792 
L 77.71831 198.377998 
L 79.060302 196.898411 
L 80.402293 210.214688 
L 81.744284 206.515722 
L 83.086276 200.597377 
L 84.428267 199.117791 
L 85.770258 196.158618 
L 87.11225 196.158618 
L 88.454241 194.679032 
L 89.796232 183.582135 
L 91.138224 182.102549 
L 92.480215 185.801514 
L 93.822206 173.225031 
L 95.164198 170.265858 
L 96.506189 168.046479 
L 97.84818 164.347513 
L 99.190172 173.964824 
L 100.532163 173.964824 
L 101.874154 171.005652 
L 103.216146 165.087306 
L 104.558137 139.93434 
L 105.900129 138.454753 
L 107.24212 173.225031 
L 108.584111 175.44441 
L 109.926103 178.403583 
L 111.268094 173.225031 
L 112.610085 178.403583 
L 113.952077 170.265858 
L 115.294068 165.8271 
L 116.636059 166.566893 
L 117.978051 164.347513 
L 119.320042 158.429168 
L 120.662033 155.469996 
L 122.004025 159.908754 
L 123.346016 162.867927 
L 124.688007 158.429168 
L 126.029999 155.469996 
L 127.37199 159.168961 
L 128.713981 143.633305 
L 130.055973 150.291444 
L 131.397964 147.332271 
L 132.739955 143.633305 
L 134.081947 149.55165 
L 135.423938 138.454753 
L 136.765929 136.975167 
L 138.107921 139.194546 
L 139.449912 131.796615 
L 140.791903 134.755788 
L 142.133895 136.975167 
L 143.475886 138.454753 
L 144.817877 136.235374 
L 146.159869 135.495581 
L 147.50186 131.056822 
L 148.843851 132.536408 
L 150.185843 133.276201 
L 151.527834 121.439511 
L 152.869825 120.699718 
L 154.211817 122.179304 
L 155.553808 127.357856 
L 156.8958 127.357856 
L 158.237791 126.618063 
L 159.579782 125.138477 
L 160.921774 120.699718 
L 162.263765 120.699718 
L 163.605756 108.863028 
L 164.947748 114.04158 
L 166.289739 107.383441 
L 167.63173 112.561993 
L 168.973722 105.164062 
L 170.315713 108.123235 
L 171.657704 102.204889 
L 172.999696 111.082407 
L 174.341687 118.480339 
L 175.683678 120.699718 
L 177.02567 124.398684 
L 178.367661 128.837443 
L 179.709652 125.87827 
L 181.051644 120.699718 
L 182.393635 119.959925 
L 183.735626 117.000752 
L 185.077618 121.439511 
L 186.419609 133.276201 
L 187.7616 134.755788 
L 189.103592 129.577236 
L 190.445583 132.536408 
L 191.787574 139.194546 
L 193.129566 142.153719 
L 194.471557 148.072064 
L 195.813548 148.072064 
L 197.15554 153.990409 
L 198.497531 146.592478 
L 199.839522 150.291444 
L 201.181514 151.77103 
L 202.523505 154.730202 
L 203.865496 145.852685 
L 205.207488 162.128134 
L 206.549479 159.908754 
L 207.891471 159.168961 
L 209.233462 163.60772 
L 210.575453 168.786272 
L 211.917445 167.306686 
L 213.259436 147.332271 
L 214.601427 159.168961 
L 215.943419 151.031237 
L 217.28541 145.852685 
L 218.627401 153.990409 
L 219.969393 151.77103 
L 222.653375 156.209789 
L 223.995367 151.77103 
L 225.337358 154.730202 
L 226.679349 150.291444 
L 228.021341 151.77103 
L 230.705323 156.209789 
L 232.047315 160.648548 
L 233.389306 168.046479 
L 234.731297 170.265858 
L 236.073289 171.005652 
L 237.41528 174.704617 
L 238.757271 176.923997 
L 240.099263 174.704617 
L 241.441254 181.362756 
L 242.783245 185.061721 
L 244.125237 193.199446 
L 245.467228 190.980066 
L 246.809219 192.459653 
L 248.151211 205.036136 
L 249.493202 199.857584 
L 250.835193 203.55655 
L 252.177185 207.995309 
L 253.519176 205.036136 
L 254.861167 204.296343 
L 256.203159 201.33717 
L 257.54515 199.857584 
L 258.887142 199.117791 
L 260.229133 186.541307 
L 261.571124 194.679032 
L 264.255107 203.55655 
L 265.597098 201.33717 
L 266.93909 210.954481 
L 268.281081 211.694274 
L 269.623072 209.474895 
L 270.965064 211.694274 
L 272.307055 215.39324 
L 273.649046 209.474895 
L 274.991038 217.612619 
L 276.333029 203.55655 
L 277.67502 193.939239 
L 279.017012 192.459653 
L 280.359003 196.158618 
L 281.700994 197.638205 
L 283.042986 197.638205 
L 284.384977 199.857584 
L 285.726968 199.857584 
L 287.06896 207.995309 
L 288.410951 206.515722 
L 289.752942 196.898411 
L 291.094934 199.857584 
L 292.436925 196.898411 
L 293.778916 196.158618 
L 295.120908 196.898411 
L 296.462899 199.857584 
L 299.146882 208.735102 
L 300.488873 209.474895 
L 301.830864 207.255515 
L 303.172856 205.775929 
L 305.856838 207.255515 
L 307.19883 213.913654 
L 308.540821 213.913654 
L 309.882813 227.22993 
L 311.224804 225.010551 
L 312.566795 223.530965 
L 313.908787 219.092206 
L 315.250778 217.612619 
L 316.592769 218.352413 
L 317.934761 215.39324 
L 319.276752 219.092206 
L 320.618743 218.352413 
L 321.960735 213.913654 
L 323.302726 215.39324 
L 324.644717 216.133033 
L 325.986709 210.954481 
L 327.3287 207.255515 
L 328.670691 209.474895 
L 330.012683 206.515722 
L 331.354674 208.735102 
L 332.696665 205.775929 
L 334.038657 210.954481 
L 335.380648 211.694274 
L 336.722639 210.954481 
L 338.064631 208.735102 
L 339.406622 210.214688 
L 340.748613 213.173861 
L 342.090605 212.434067 
L 343.432596 212.434067 
L 344.774587 209.474895 
L 346.116579 203.55655 
L 347.45857 201.33717 
L 348.800561 202.076963 
L 350.142553 204.296343 
L 351.484544 200.597377 
L 352.826535 200.597377 
L 354.168527 198.377998 
L 355.510518 191.719859 
L 356.852509 193.199446 
L 358.194501 190.240273 
L 359.536492 190.240273 
L 360.878483 187.281101 
L 362.220475 183.582135 
L 363.562466 177.66379 
L 364.904458 185.801514 
L 366.246449 190.980066 
L 367.58844 185.801514 
L 368.930432 179.883169 
L 370.272423 182.842342 
L 371.614414 176.184204 
L 372.956406 171.745445 
L 374.298397 162.128134 
L 375.640388 163.60772 
L 376.98238 166.566893 
L 378.324371 171.005652 
L 379.666362 170.265858 
L 381.008354 165.8271 
L 382.350345 166.566893 
L 383.692336 151.031237 
L 385.034328 147.332271 
L 386.376319 149.55165 
L 387.71831 136.235374 
L 389.060302 136.975167 
L 390.402293 141.413926 
L 391.744284 135.495581 
L 393.086276 130.317029 
L 394.428267 130.317029 
L 395.770258 132.536408 
L 397.11225 125.87827 
L 398.454241 136.235374 
L 399.796232 139.93434 
L 401.138224 145.112892 
L 402.480215 137.71496 
L 403.822206 139.194546 
L 405.164198 146.592478 
L 406.506189 142.893512 
L 407.84818 153.250616 
L 409.190172 162.128134 
L 410.532163 153.250616 
L 411.874154 139.93434 
L 413.216146 151.77103 
L 414.558137 148.072064 
L 415.900129 146.592478 
L 417.24212 153.250616 
L 421.268094 168.786272 
L 422.610085 167.306686 
L 423.952077 166.566893 
L 425.294068 171.745445 
L 426.636059 175.44441 
L 427.978051 171.005652 
L 429.320042 168.046479 
L 430.662033 168.046479 
L 432.004025 172.485238 
L 433.346016 179.143376 
L 434.688007 181.362756 
L 436.029999 175.44441 
L 437.37199 174.704617 
L 438.713981 170.265858 
L 440.055973 172.485238 
L 441.397964 171.005652 
L 442.739955 180.622962 
L 444.081947 177.66379 
L 445.423938 184.321928 
L 446.765929 193.939239 
L 448.107921 192.459653 
L 449.449912 191.719859 
L 450.791903 193.199446 
L 452.133895 189.50048 
L 454.817877 190.980066 
L 456.159869 181.362756 
L 457.50186 184.321928 
L 458.843851 176.184204 
L 460.185843 176.923997 
L 461.527834 173.225031 
L 464.211817 182.102549 
L 465.553808 175.44441 
L 466.8958 178.403583 
L 468.237791 184.321928 
L 469.579782 192.459653 
L 470.921774 185.801514 
L 472.263765 189.50048 
L 473.605756 186.541307 
L 474.947748 196.158618 
L 476.289739 200.597377 
L 477.63173 191.719859 
L 478.973722 197.638205 
L 480.315713 193.199446 
L 481.657704 198.377998 
L 482.999696 200.597377 
L 484.341687 191.719859 
L 485.683678 190.980066 
L 487.02567 188.020894 
L 488.367661 193.199446 
L 489.709652 192.459653 
L 491.051644 193.199446 
L 492.393635 196.898411 
L 493.735626 199.857584 
L 495.077618 206.515722 
L 496.419609 207.255515 
L 497.7616 205.775929 
L 499.103592 202.816757 
L 500.445583 213.173861 
L 501.787574 212.434067 
L 503.129566 202.816757 
L 504.471557 199.857584 
L 505.813548 210.954481 
L 507.15554 210.954481 
L 508.497531 207.995309 
L 509.839522 210.214688 
L 511.181514 205.775929 
L 512.523505 199.117791 
L 513.865496 194.679032 
L 515.207488 197.638205 
L 516.549479 188.020894 
L 517.891471 188.760687 
L 519.233462 202.076963 
L 520.575453 185.801514 
L 521.917445 177.66379 
L 523.259436 183.582135 
L 524.601427 175.44441 
L 525.943419 176.923997 
L 527.28541 174.704617 
L 528.627401 183.582135 
L 529.969393 180.622962 
L 531.311384 171.005652 
L 532.653375 166.566893 
L 535.337358 159.168961 
L 538.021341 145.852685 
L 539.363332 136.975167 
L 540.705323 131.796615 
L 542.047315 117.000752 
L 543.389306 114.04158 
L 544.731297 110.342614 
L 546.073289 105.164062 
L 547.41528 94.067165 
L 548.757271 80.750888 
L 550.099263 73.352957 
L 551.441254 63.735646 
L 552.783245 57.077508 
L 554.125237 39.322472 
L 555.467228 48.939783 
L 556.809219 40.062266 
L 558.151211 43.761231 
L 559.493202 43.761231 
L 560.835193 34.14392 
L 562.177185 35.623507 
L 563.519176 40.802059 
L 563.519176 40.802059 
" style="fill:none;stroke:#1f77b4;stroke-linecap:round;stroke-width:1.5;"/>
   </g>
   <g id="line2d_17">
    <path clip-path="url(#pfa8ffbc1fb)" d="M 56.246449 281.23483 
L 57.58844 281.23483 
L 58.930432 276.056278 
L 60.272423 276.056278 
L 61.614414 274.576691 
L 62.956406 267.17876 
L 64.298397 267.918553 
L 65.640388 264.95938 
L 71.008354 264.95938 
L 72.350345 265.699174 
L 73.692336 262.740001 
L 75.034328 264.219587 
L 76.376319 263.479794 
L 77.71831 260.520622 
L 79.060302 260.520622 
L 80.402293 256.821656 
L 81.744284 253.862483 
L 83.086276 253.862483 
L 84.428267 257.561449 
L 87.11225 257.561449 
L 88.454241 256.821656 
L 89.796232 253.12269 
L 91.138224 255.34207 
L 92.480215 259.780828 
L 93.822206 253.862483 
L 95.164198 248.683931 
L 96.506189 247.944138 
L 97.84818 241.286 
L 99.190172 245.724759 
L 100.532163 244.245172 
L 101.874154 241.286 
L 103.216146 234.627862 
L 104.558137 230.928896 
L 105.900129 228.709517 
L 107.24212 234.627862 
L 108.584111 234.627862 
L 111.268094 237.587034 
L 112.610085 234.627862 
L 113.952077 229.44931 
L 115.294068 227.22993 
L 116.636059 225.750344 
L 117.978051 226.490137 
L 119.320042 221.311585 
L 120.662033 221.311585 
L 122.004025 228.709517 
L 123.346016 230.189103 
L 124.688007 225.010551 
L 126.029999 225.010551 
L 128.713981 227.969723 
L 130.055973 232.408482 
L 131.397964 229.44931 
L 132.739955 227.22993 
L 134.081947 231.668689 
L 135.423938 225.010551 
L 136.765929 225.010551 
L 138.107921 223.530965 
L 139.449912 226.490137 
L 140.791903 222.051378 
L 142.133895 222.051378 
L 143.475886 218.352413 
L 144.817877 219.092206 
L 147.50186 217.612619 
L 148.843851 224.270758 
L 150.185843 226.490137 
L 151.527834 221.311585 
L 152.869825 225.010551 
L 154.211817 221.311585 
L 155.553808 216.872826 
L 156.8958 215.39324 
L 158.237791 214.653447 
L 159.579782 217.612619 
L 160.921774 215.39324 
L 162.263765 215.39324 
L 163.605756 210.954481 
L 164.947748 213.173861 
L 166.289739 211.694274 
L 167.63173 211.694274 
L 168.973722 204.296343 
L 170.315713 207.995309 
L 171.657704 213.173861 
L 172.999696 215.39324 
L 174.341687 208.735102 
L 175.683678 213.173861 
L 177.02567 219.092206 
L 178.367661 221.311585 
L 181.051644 219.831999 
L 182.393635 215.39324 
L 183.735626 217.612619 
L 185.077618 216.133033 
L 186.419609 219.092206 
L 187.7616 218.352413 
L 189.103592 219.092206 
L 190.445583 223.530965 
L 191.787574 230.189103 
L 193.129566 229.44931 
L 194.471557 226.490137 
L 195.813548 227.22993 
L 197.15554 230.189103 
L 198.497531 227.969723 
L 199.839522 226.490137 
L 201.181514 227.22993 
L 202.523505 227.22993 
L 203.865496 225.750344 
L 205.207488 232.408482 
L 206.549479 232.408482 
L 207.891471 231.668689 
L 209.233462 234.627862 
L 210.575453 236.107448 
L 211.917445 232.408482 
L 213.259436 227.22993 
L 214.601427 229.44931 
L 215.943419 223.530965 
L 217.28541 226.490137 
L 218.627401 232.408482 
L 219.969393 234.627862 
L 221.311384 233.148275 
L 222.653375 233.148275 
L 223.995367 234.627862 
L 225.337358 229.44931 
L 226.679349 230.928896 
L 228.021341 233.148275 
L 229.363332 233.148275 
L 230.705323 229.44931 
L 232.047315 229.44931 
L 233.389306 233.888069 
L 234.731297 233.888069 
L 236.073289 234.627862 
L 237.41528 237.587034 
L 238.757271 239.066621 
L 240.099263 239.806414 
L 241.441254 242.025793 
L 242.783245 245.724759 
L 244.125237 244.984966 
L 245.467228 242.025793 
L 246.809219 242.765586 
L 248.151211 247.944138 
L 249.493202 247.944138 
L 250.835193 247.204345 
L 252.177185 250.903311 
L 253.519176 250.163518 
L 254.861167 248.683931 
L 256.203159 245.724759 
L 257.54515 247.204345 
L 258.887142 247.204345 
L 260.229133 244.245172 
L 261.571124 249.423724 
L 262.913116 249.423724 
L 264.255107 253.862483 
L 265.597098 251.643104 
L 266.93909 254.602276 
L 268.281081 254.602276 
L 269.623072 255.34207 
L 270.965064 252.382897 
L 273.649046 252.382897 
L 274.991038 256.081863 
L 276.333029 250.163518 
L 277.67502 251.643104 
L 279.017012 247.944138 
L 280.359003 249.423724 
L 281.700994 248.683931 
L 283.042986 249.423724 
L 284.384977 247.204345 
L 285.726968 249.423724 
L 287.06896 250.903311 
L 288.410951 250.163518 
L 289.752942 245.724759 
L 291.094934 247.204345 
L 292.436925 243.505379 
L 293.778916 244.245172 
L 295.120908 248.683931 
L 296.462899 254.602276 
L 297.80489 250.903311 
L 299.146882 250.903311 
L 300.488873 251.643104 
L 301.830864 250.163518 
L 304.514847 251.643104 
L 305.856838 250.903311 
L 307.19883 252.382897 
L 308.540821 257.561449 
L 309.882813 256.821656 
L 311.224804 252.382897 
L 312.566795 253.12269 
L 313.908787 252.382897 
L 315.250778 250.163518 
L 316.592769 248.683931 
L 317.934761 248.683931 
L 319.276752 251.643104 
L 320.618743 253.12269 
L 321.960735 252.382897 
L 324.644717 252.382897 
L 325.986709 251.643104 
L 327.3287 250.163518 
L 328.670691 251.643104 
L 330.012683 252.382897 
L 331.354674 250.903311 
L 332.696665 250.163518 
L 334.038657 253.862483 
L 335.380648 256.821656 
L 336.722639 254.602276 
L 338.064631 256.821656 
L 339.406622 256.821656 
L 340.748613 255.34207 
L 342.090605 257.561449 
L 343.432596 253.862483 
L 344.774587 251.643104 
L 346.116579 250.903311 
L 347.45857 247.944138 
L 351.484544 247.944138 
L 354.168527 244.984966 
L 355.510518 242.025793 
L 356.852509 247.204345 
L 358.194501 247.204345 
L 359.536492 246.464552 
L 360.878483 244.984966 
L 362.220475 242.025793 
L 363.562466 242.765586 
L 366.246449 241.286 
L 367.58844 239.806414 
L 368.930432 237.587034 
L 370.272423 240.546207 
L 371.614414 231.668689 
L 372.956406 229.44931 
L 374.298397 230.928896 
L 375.640388 230.189103 
L 376.98238 222.791171 
L 378.324371 230.189103 
L 379.666362 229.44931 
L 381.008354 231.668689 
L 382.350345 230.928896 
L 383.692336 223.530965 
L 385.034328 222.051378 
L 386.376319 222.051378 
L 387.71831 212.434067 
L 389.060302 216.133033 
L 390.402293 221.311585 
L 391.744284 217.612619 
L 393.086276 218.352413 
L 394.428267 218.352413 
L 395.770258 219.831999 
L 397.11225 219.092206 
L 398.454241 224.270758 
L 399.796232 225.010551 
L 401.138224 219.831999 
L 402.480215 216.872826 
L 403.822206 218.352413 
L 405.164198 222.791171 
L 406.506189 224.270758 
L 407.84818 222.791171 
L 409.190172 230.928896 
L 410.532163 225.010551 
L 411.874154 225.010551 
L 413.216146 221.311585 
L 414.558137 216.872826 
L 415.900129 219.831999 
L 417.24212 219.831999 
L 418.584111 225.010551 
L 419.926103 227.22993 
L 421.268094 225.010551 
L 422.610085 224.270758 
L 423.952077 227.22993 
L 425.294068 231.668689 
L 426.636059 228.709517 
L 427.978051 226.490137 
L 429.320042 227.969723 
L 430.662033 222.791171 
L 432.004025 227.969723 
L 433.346016 230.928896 
L 434.688007 230.928896 
L 436.029999 222.791171 
L 437.37199 230.928896 
L 438.713981 230.928896 
L 440.055973 234.627862 
L 441.397964 232.408482 
L 442.739955 230.928896 
L 444.081947 232.408482 
L 445.423938 233.148275 
L 446.765929 235.367655 
L 448.107921 236.847241 
L 449.449912 237.587034 
L 450.791903 239.066621 
L 452.133895 237.587034 
L 453.475886 234.627862 
L 454.817877 233.148275 
L 456.159869 228.709517 
L 457.50186 229.44931 
L 458.843851 224.270758 
L 460.185843 222.791171 
L 461.527834 219.831999 
L 462.869825 221.311585 
L 464.211817 223.530965 
L 466.8958 226.490137 
L 468.237791 227.22993 
L 469.579782 229.44931 
L 470.921774 227.969723 
L 472.263765 230.189103 
L 473.605756 225.010551 
L 474.947748 225.750344 
L 476.289739 227.969723 
L 477.63173 227.22993 
L 478.973722 232.408482 
L 482.999696 234.627862 
L 484.341687 231.668689 
L 485.683678 227.22993 
L 487.02567 231.668689 
L 488.367661 228.709517 
L 489.709652 232.408482 
L 491.051644 233.888069 
L 492.393635 238.326827 
L 493.735626 241.286 
L 495.077618 242.765586 
L 496.419609 240.546207 
L 497.7616 241.286 
L 499.103592 239.066621 
L 500.445583 246.464552 
L 501.787574 247.204345 
L 503.129566 236.107448 
L 504.471557 239.806414 
L 505.813548 238.326827 
L 507.15554 239.066621 
L 508.497531 235.367655 
L 509.839522 238.326827 
L 511.181514 239.806414 
L 512.523505 237.587034 
L 513.865496 239.066621 
L 515.207488 244.245172 
L 517.891471 235.367655 
L 519.233462 240.546207 
L 520.575453 236.107448 
L 521.917445 233.148275 
L 523.259436 235.367655 
L 524.601427 232.408482 
L 525.943419 232.408482 
L 527.28541 233.148275 
L 528.627401 239.066621 
L 529.969393 229.44931 
L 531.311384 232.408482 
L 532.653375 234.627862 
L 533.995367 227.969723 
L 535.337358 225.010551 
L 536.679349 219.831999 
L 538.021341 207.995309 
L 539.363332 201.33717 
L 540.705323 210.214688 
L 542.047315 198.377998 
L 543.389306 193.199446 
L 544.731297 194.679032 
L 546.073289 183.582135 
L 547.41528 187.281101 
L 548.757271 182.842342 
L 550.099263 184.321928 
L 551.441254 177.66379 
L 552.783245 174.704617 
L 554.125237 162.867927 
L 555.467228 160.648548 
L 556.809219 153.250616 
L 558.151211 148.811857 
L 559.493202 151.77103 
L 560.835193 149.55165 
L 562.177185 148.072064 
L 563.519176 145.112892 
L 563.519176 145.112892 
" style="fill:none;stroke:#ff7f0e;stroke-linecap:round;stroke-width:1.5;"/>
   </g>
   <g id="patch_3">
    <path d="M 30.882812 293.589375 
L 30.882812 21.789375 
" style="fill:none;stroke:#cccccc;stroke-linecap:square;stroke-linejoin:miter;stroke-width:0.8;"/>
   </g>
   <g id="patch_4">
    <path d="M 588.882812 293.589375 
L 588.882812 21.789375 
" style="fill:none;stroke:#cccccc;stroke-linecap:square;stroke-linejoin:miter;stroke-width:0.8;"/>
   </g>
   <g id="patch_5">
    <path d="M 30.882813 293.589375 
L 588.882813 293.589375 
" style="fill:none;stroke:#cccccc;stroke-linecap:square;stroke-linejoin:miter;stroke-width:0.8;"/>
   </g>
   <g id="patch_6">
    <path d="M 30.882813 21.789375 
L 588.882813 21.789375 
" style="fill:none;stroke:#cccccc;stroke-linecap:square;stroke-linejoin:miter;stroke-width:0.8;"/>
   </g>
   <g id="text_16">
    <!-- Internações -->
    <g style="fill:#262626;" transform="translate(278.531875 15.789375)scale(0.12 -0.12)">
     <defs>
      <path d="M 597 0 
L 597 4581 
L 1203 4581 
L 1203 0 
L 597 0 
z
" id="ArialMT-49" transform="scale(0.015625)"/>
      <path d="M 422 0 
L 422 3319 
L 928 3319 
L 928 2847 
Q 1294 3394 1984 3394 
Q 2284 3394 2536 3286 
Q 2788 3178 2913 3003 
Q 3038 2828 3088 2588 
Q 3119 2431 3119 2041 
L 3119 0 
L 2556 0 
L 2556 2019 
Q 2556 2363 2490 2533 
Q 2425 2703 2258 2804 
Q 2091 2906 1866 2906 
Q 1506 2906 1245 2678 
Q 984 2450 984 1813 
L 984 0 
L 422 0 
z
" id="ArialMT-6e" transform="scale(0.015625)"/>
      <path d="M 1650 503 
L 1731 6 
Q 1494 -44 1306 -44 
Q 1000 -44 831 53 
Q 663 150 594 308 
Q 525 466 525 972 
L 525 2881 
L 113 2881 
L 113 3319 
L 525 3319 
L 525 4141 
L 1084 4478 
L 1084 3319 
L 1650 3319 
L 1650 2881 
L 1084 2881 
L 1084 941 
Q 1084 700 1114 631 
Q 1144 563 1211 522 
Q 1278 481 1403 481 
Q 1497 481 1650 503 
z
" id="ArialMT-74" transform="scale(0.015625)"/>
      <path d="M 2694 1069 
L 3275 997 
Q 3138 488 2766 206 
Q 2394 -75 1816 -75 
Q 1088 -75 661 373 
Q 234 822 234 1631 
Q 234 2469 665 2931 
Q 1097 3394 1784 3394 
Q 2450 3394 2872 2941 
Q 3294 2488 3294 1666 
Q 3294 1616 3291 1516 
L 816 1516 
Q 847 969 1125 678 
Q 1403 388 1819 388 
Q 2128 388 2347 550 
Q 2566 713 2694 1069 
z
M 847 1978 
L 2700 1978 
Q 2663 2397 2488 2606 
Q 2219 2931 1791 2931 
Q 1403 2931 1139 2672 
Q 875 2413 847 1978 
z
" id="ArialMT-65" transform="scale(0.015625)"/>
      <path d="M 416 0 
L 416 3319 
L 922 3319 
L 922 2816 
Q 1116 3169 1280 3281 
Q 1444 3394 1641 3394 
Q 1925 3394 2219 3213 
L 2025 2691 
Q 1819 2813 1613 2813 
Q 1428 2813 1281 2702 
Q 1134 2591 1072 2394 
Q 978 2094 978 1738 
L 978 0 
L 416 0 
z
" id="ArialMT-72" transform="scale(0.015625)"/>
      <path d="M 2588 409 
Q 2275 144 1986 34 
Q 1697 -75 1366 -75 
Q 819 -75 525 192 
Q 231 459 231 875 
Q 231 1119 342 1320 
Q 453 1522 633 1644 
Q 813 1766 1038 1828 
Q 1203 1872 1538 1913 
Q 2219 1994 2541 2106 
Q 2544 2222 2544 2253 
Q 2544 2597 2384 2738 
Q 2169 2928 1744 2928 
Q 1347 2928 1158 2789 
Q 969 2650 878 2297 
L 328 2372 
Q 403 2725 575 2942 
Q 747 3159 1072 3276 
Q 1397 3394 1825 3394 
Q 2250 3394 2515 3294 
Q 2781 3194 2906 3042 
Q 3031 2891 3081 2659 
Q 3109 2516 3109 2141 
L 3109 1391 
Q 3109 606 3145 398 
Q 3181 191 3288 0 
L 2700 0 
Q 2613 175 2588 409 
z
M 2541 1666 
Q 2234 1541 1622 1453 
Q 1275 1403 1131 1340 
Q 988 1278 909 1158 
Q 831 1038 831 891 
Q 831 666 1001 516 
Q 1172 366 1500 366 
Q 1825 366 2078 508 
Q 2331 650 2450 897 
Q 2541 1088 2541 1459 
L 2541 1666 
z
" id="ArialMT-61" transform="scale(0.015625)"/>
      <path d="M 2588 1216 
L 3141 1144 
Q 3050 572 2676 248 
Q 2303 -75 1759 -75 
Q 1078 -75 664 370 
Q 250 816 250 1647 
Q 250 2184 428 2587 
Q 606 2991 970 3192 
Q 1334 3394 1763 3394 
Q 2303 3394 2647 3120 
Q 2991 2847 3088 2344 
L 2541 2259 
Q 2463 2594 2264 2762 
Q 2066 2931 1784 2931 
Q 1359 2931 1093 2626 
Q 828 2322 828 1663 
Q 828 994 1084 691 
Q 1341 388 1753 388 
Q 2084 388 2306 591 
Q 2528 794 2588 1216 
z
M 1284 -418 
L 1447 135 
L 1866 135 
L 1763 -200 
Q 2028 -231 2162 -363 
Q 2297 -496 2297 -659 
Q 2297 -893 2072 -1073 
Q 1847 -1253 1394 -1253 
Q 1138 -1253 944 -1215 
L 978 -850 
Q 1178 -862 1272 -862 
Q 1566 -862 1684 -781 
Q 1775 -718 1775 -628 
Q 1775 -571 1739 -527 
Q 1703 -484 1606 -452 
Q 1509 -421 1284 -418 
z
" id="ArialMT-e7" transform="scale(0.015625)"/>
      <path d="M 213 1659 
Q 213 2581 725 3025 
Q 1153 3394 1769 3394 
Q 2453 3394 2887 2945 
Q 3322 2497 3322 1706 
Q 3322 1066 3130 698 
Q 2938 331 2570 128 
Q 2203 -75 1769 -75 
Q 1072 -75 642 372 
Q 213 819 213 1659 
z
M 791 1659 
Q 791 1022 1069 705 
Q 1347 388 1769 388 
Q 2188 388 2466 706 
Q 2744 1025 2744 1678 
Q 2744 2294 2464 2611 
Q 2184 2928 1769 2928 
Q 1347 2928 1069 2612 
Q 791 2297 791 1659 
z
M 722 3809 
Q 719 4134 900 4328 
Q 1078 4522 1356 4522 
Q 1550 4522 1884 4353 
Q 2069 4259 2178 4259 
Q 2278 4259 2331 4314 
Q 2384 4369 2406 4531 
L 2813 4531 
Q 2803 4175 2633 3997 
Q 2463 3819 2200 3819 
Q 2003 3819 1681 3994 
Q 1472 4106 1375 4106 
Q 1269 4106 1203 4031 
Q 1134 3956 1138 3809 
L 722 3809 
z
" id="ArialMT-f5" transform="scale(0.015625)"/>
      <path d="M 197 991 
L 753 1078 
Q 800 744 1014 566 
Q 1228 388 1613 388 
Q 2000 388 2187 545 
Q 2375 703 2375 916 
Q 2375 1106 2209 1216 
Q 2094 1291 1634 1406 
Q 1016 1563 777 1677 
Q 538 1791 414 1992 
Q 291 2194 291 2438 
Q 291 2659 392 2848 
Q 494 3038 669 3163 
Q 800 3259 1026 3326 
Q 1253 3394 1513 3394 
Q 1903 3394 2198 3281 
Q 2494 3169 2634 2976 
Q 2775 2784 2828 2463 
L 2278 2388 
Q 2241 2644 2061 2787 
Q 1881 2931 1553 2931 
Q 1166 2931 1000 2803 
Q 834 2675 834 2503 
Q 834 2394 903 2306 
Q 972 2216 1119 2156 
Q 1203 2125 1616 2013 
Q 2213 1853 2448 1751 
Q 2684 1650 2818 1456 
Q 2953 1263 2953 975 
Q 2953 694 2789 445 
Q 2625 197 2315 61 
Q 2006 -75 1616 -75 
Q 969 -75 630 194 
Q 291 463 197 991 
z
" id="ArialMT-73" transform="scale(0.015625)"/>
     </defs>
     <use xlink:href="#ArialMT-49"/>
     <use x="27.783203" xlink:href="#ArialMT-6e"/>
     <use x="83.398438" xlink:href="#ArialMT-74"/>
     <use x="111.181641" xlink:href="#ArialMT-65"/>
     <use x="166.796875" xlink:href="#ArialMT-72"/>
     <use x="200.097656" xlink:href="#ArialMT-6e"/>
     <use x="255.712891" xlink:href="#ArialMT-61"/>
     <use x="311.328125" xlink:href="#ArialMT-e7"/>
     <use x="361.328125" xlink:href="#ArialMT-f5"/>
     <use x="416.943359" xlink:href="#ArialMT-65"/>
     <use x="472.558594" xlink:href="#ArialMT-73"/>
    </g>
   </g>
   <g id="legend_1">
    <g id="patch_7">
     <path d="M 37.882812 58.08 
L 122.134375 58.08 
Q 124.134375 58.08 124.134375 56.08 
L 124.134375 28.789375 
Q 124.134375 26.789375 122.134375 26.789375 
L 37.882812 26.789375 
Q 35.882812 26.789375 35.882812 28.789375 
L 35.882812 56.08 
Q 35.882812 58.08 37.882812 58.08 
z
" style="fill:#ffffff;opacity:0.8;stroke:#cccccc;stroke-linejoin:miter;"/>
    </g>
    <g id="line2d_18">
     <path d="M 39.882812 34.447187 
L 59.882812 34.447187 
" style="fill:none;stroke:#1f77b4;stroke-linecap:round;stroke-width:1.5;"/>
    </g>
    <g id="line2d_19"/>
    <g id="text_17">
     <!-- Internações -->
     <g style="fill:#262626;" transform="translate(67.882812 37.947187)scale(0.1 -0.1)">
      <use xlink:href="#ArialMT-49"/>
      <use x="27.783203" xlink:href="#ArialMT-6e"/>
      <use x="83.398438" xlink:href="#ArialMT-74"/>
      <use x="111.181641" xlink:href="#ArialMT-65"/>
      <use x="166.796875" xlink:href="#ArialMT-72"/>
      <use x="200.097656" xlink:href="#ArialMT-6e"/>
      <use x="255.712891" xlink:href="#ArialMT-61"/>
      <use x="311.328125" xlink:href="#ArialMT-e7"/>
      <use x="361.328125" xlink:href="#ArialMT-f5"/>
      <use x="416.943359" xlink:href="#ArialMT-65"/>
      <use x="472.558594" xlink:href="#ArialMT-73"/>
     </g>
    </g>
    <g id="line2d_20">
     <path d="M 39.882812 48.5925 
L 59.882812 48.5925 
" style="fill:none;stroke:#ff7f0e;stroke-linecap:round;stroke-width:1.5;"/>
    </g>
    <g id="line2d_21"/>
    <g id="text_18">
     <!-- UTI -->
     <g style="fill:#262626;" transform="translate(67.882812 52.0925)scale(0.1 -0.1)">
      <defs>
       <path d="M 3500 4581 
L 4106 4581 
L 4106 1934 
Q 4106 1244 3950 837 
Q 3794 431 3386 176 
Q 2978 -78 2316 -78 
Q 1672 -78 1262 144 
Q 853 366 678 786 
Q 503 1206 503 1934 
L 503 4581 
L 1109 4581 
L 1109 1938 
Q 1109 1341 1220 1058 
Q 1331 775 1601 622 
Q 1872 469 2263 469 
Q 2931 469 3215 772 
Q 3500 1075 3500 1938 
L 3500 4581 
z
" id="ArialMT-55" transform="scale(0.015625)"/>
       <path d="M 1659 0 
L 1659 4041 
L 150 4041 
L 150 4581 
L 3781 4581 
L 3781 4041 
L 2266 4041 
L 2266 0 
L 1659 0 
z
" id="ArialMT-54" transform="scale(0.015625)"/>
      </defs>
      <use xlink:href="#ArialMT-55"/>
      <use x="72.216797" xlink:href="#ArialMT-54"/>
      <use x="133.300781" xlink:href="#ArialMT-49"/>
     </g>
    </g>
   </g>
  </g>
 </g>
 <defs>
  <clipPath id="pfa8ffbc1fb">
   <rect height="271.8" width="558" x="30.882812" y="21.789375"/>
  </clipPath>
 </defs>
</svg>
