<?xml version="1.0" encoding="utf-8" standalone="no"?>
<!DOCTYPE svg PUBLIC "-//W3C//DTD SVG 1.1//EN"
  "http://www.w3.org/Graphics/SVG/1.1/DTD/svg11.dtd">
<svg height="340.694063pt" version="1.1" viewBox="0 0 705.6 340.694063" width="705.6pt" xmlns="http://www.w3.org/2000/svg" xmlns:xlink="http://www.w3.org/1999/xlink">
 <metadata>
  <rdf:RDF xmlns:cc="http://creativecommons.org/ns#" xmlns:dc="http://purl.org/dc/elements/1.1/" xmlns:rdf="http://www.w3.org/1999/02/22-rdf-syntax-ns#">
   <cc:Work>
    <dc:type rdf:resource="http://purl.org/dc/dcmitype/StillImage"/>
    <dc:date>2021-06-30T18:30:16.443702</dc:date>
    <dc:format>image/svg+xml</dc:format>
    <dc:creator>
     <cc:Agent>
      <dc:title>Matplotlib v3.4.2, https://matplotlib.org/</dc:title>
     </cc:Agent>
    </dc:creator>
   </cc:Work>
  </rdf:RDF>
 </metadata>
 <defs>
  <style type="text/css">*{stroke-linecap:butt;stroke-linejoin:round;}</style>
 </defs>
 <g id="figure_1">
  <g id="patch_1">
   <path d="M 0 340.694063 
L 705.6 340.694063 
L 705.6 0 
L 0 0 
z
" style="fill:#ffffff;"/>
  </g>
  <g id="axes_1">
   <g id="patch_2">
    <path d="M 82.8 298.989375 
L 640.8 298.989375 
L 640.8 21.789375 
L 82.8 21.789375 
z
" style="fill:#ffffff;"/>
   </g>
   <g id="matplotlib.axis_1">
    <g id="xtick_1">
     <g id="line2d_1">
      <path clip-path="url(#pec33ee2f86)" d="M 88.653147 298.989375 
L 88.653147 21.789375 
" style="fill:none;stroke:#cccccc;stroke-linecap:round;stroke-width:0.8;"/>
     </g>
     <g id="text_1">
      <!-- 2020-03 -->
      <g style="fill:#262626;" transform="translate(70.305491 313.147188)scale(0.1 -0.1)">
       <defs>
        <path d="M 3222 541 
L 3222 0 
L 194 0 
Q 188 203 259 391 
Q 375 700 629 1000 
Q 884 1300 1366 1694 
Q 2113 2306 2375 2664 
Q 2638 3022 2638 3341 
Q 2638 3675 2398 3904 
Q 2159 4134 1775 4134 
Q 1369 4134 1125 3890 
Q 881 3647 878 3216 
L 300 3275 
Q 359 3922 746 4261 
Q 1134 4600 1788 4600 
Q 2447 4600 2831 4234 
Q 3216 3869 3216 3328 
Q 3216 3053 3103 2787 
Q 2991 2522 2730 2228 
Q 2469 1934 1863 1422 
Q 1356 997 1212 845 
Q 1069 694 975 541 
L 3222 541 
z
" id="ArialMT-32" transform="scale(0.015625)"/>
        <path d="M 266 2259 
Q 266 3072 433 3567 
Q 600 4063 929 4331 
Q 1259 4600 1759 4600 
Q 2128 4600 2406 4451 
Q 2684 4303 2865 4023 
Q 3047 3744 3150 3342 
Q 3253 2941 3253 2259 
Q 3253 1453 3087 958 
Q 2922 463 2592 192 
Q 2263 -78 1759 -78 
Q 1097 -78 719 397 
Q 266 969 266 2259 
z
M 844 2259 
Q 844 1131 1108 757 
Q 1372 384 1759 384 
Q 2147 384 2411 759 
Q 2675 1134 2675 2259 
Q 2675 3391 2411 3762 
Q 2147 4134 1753 4134 
Q 1366 4134 1134 3806 
Q 844 3388 844 2259 
z
" id="ArialMT-30" transform="scale(0.015625)"/>
        <path d="M 203 1375 
L 203 1941 
L 1931 1941 
L 1931 1375 
L 203 1375 
z
" id="ArialMT-2d" transform="scale(0.015625)"/>
        <path d="M 269 1209 
L 831 1284 
Q 928 806 1161 595 
Q 1394 384 1728 384 
Q 2125 384 2398 659 
Q 2672 934 2672 1341 
Q 2672 1728 2419 1979 
Q 2166 2231 1775 2231 
Q 1616 2231 1378 2169 
L 1441 2663 
Q 1497 2656 1531 2656 
Q 1891 2656 2178 2843 
Q 2466 3031 2466 3422 
Q 2466 3731 2256 3934 
Q 2047 4138 1716 4138 
Q 1388 4138 1169 3931 
Q 950 3725 888 3313 
L 325 3413 
Q 428 3978 793 4289 
Q 1159 4600 1703 4600 
Q 2078 4600 2393 4439 
Q 2709 4278 2876 4000 
Q 3044 3722 3044 3409 
Q 3044 3113 2884 2869 
Q 2725 2625 2413 2481 
Q 2819 2388 3044 2092 
Q 3269 1797 3269 1353 
Q 3269 753 2831 336 
Q 2394 -81 1725 -81 
Q 1122 -81 723 278 
Q 325 638 269 1209 
z
" id="ArialMT-33" transform="scale(0.015625)"/>
       </defs>
       <use xlink:href="#ArialMT-32"/>
       <use x="55.615234" xlink:href="#ArialMT-30"/>
       <use x="111.230469" xlink:href="#ArialMT-32"/>
       <use x="166.845703" xlink:href="#ArialMT-30"/>
       <use x="222.460938" xlink:href="#ArialMT-2d"/>
       <use x="255.761719" xlink:href="#ArialMT-30"/>
       <use x="311.376953" xlink:href="#ArialMT-33"/>
      </g>
     </g>
    </g>
    <g id="xtick_2">
     <g id="line2d_2">
      <path clip-path="url(#pec33ee2f86)" d="M 154.772028 298.989375 
L 154.772028 21.789375 
" style="fill:none;stroke:#cccccc;stroke-linecap:round;stroke-width:0.8;"/>
     </g>
     <g id="text_2">
      <!-- 2020-05 -->
      <g style="fill:#262626;" transform="translate(136.424372 313.147188)scale(0.1 -0.1)">
       <defs>
        <path d="M 266 1200 
L 856 1250 
Q 922 819 1161 601 
Q 1400 384 1738 384 
Q 2144 384 2425 690 
Q 2706 997 2706 1503 
Q 2706 1984 2436 2262 
Q 2166 2541 1728 2541 
Q 1456 2541 1237 2417 
Q 1019 2294 894 2097 
L 366 2166 
L 809 4519 
L 3088 4519 
L 3088 3981 
L 1259 3981 
L 1013 2750 
Q 1425 3038 1878 3038 
Q 2478 3038 2890 2622 
Q 3303 2206 3303 1553 
Q 3303 931 2941 478 
Q 2500 -78 1738 -78 
Q 1113 -78 717 272 
Q 322 622 266 1200 
z
" id="ArialMT-35" transform="scale(0.015625)"/>
       </defs>
       <use xlink:href="#ArialMT-32"/>
       <use x="55.615234" xlink:href="#ArialMT-30"/>
       <use x="111.230469" xlink:href="#ArialMT-32"/>
       <use x="166.845703" xlink:href="#ArialMT-30"/>
       <use x="222.460938" xlink:href="#ArialMT-2d"/>
       <use x="255.761719" xlink:href="#ArialMT-30"/>
       <use x="311.376953" xlink:href="#ArialMT-35"/>
      </g>
     </g>
    </g>
    <g id="xtick_3">
     <g id="line2d_3">
      <path clip-path="url(#pec33ee2f86)" d="M 220.890909 298.989375 
L 220.890909 21.789375 
" style="fill:none;stroke:#cccccc;stroke-linecap:round;stroke-width:0.8;"/>
     </g>
     <g id="text_3">
      <!-- 2020-07 -->
      <g style="fill:#262626;" transform="translate(202.543253 313.147188)scale(0.1 -0.1)">
       <defs>
        <path d="M 303 3981 
L 303 4522 
L 3269 4522 
L 3269 4084 
Q 2831 3619 2401 2847 
Q 1972 2075 1738 1259 
Q 1569 684 1522 0 
L 944 0 
Q 953 541 1156 1306 
Q 1359 2072 1739 2783 
Q 2119 3494 2547 3981 
L 303 3981 
z
" id="ArialMT-37" transform="scale(0.015625)"/>
       </defs>
       <use xlink:href="#ArialMT-32"/>
       <use x="55.615234" xlink:href="#ArialMT-30"/>
       <use x="111.230469" xlink:href="#ArialMT-32"/>
       <use x="166.845703" xlink:href="#ArialMT-30"/>
       <use x="222.460938" xlink:href="#ArialMT-2d"/>
       <use x="255.761719" xlink:href="#ArialMT-30"/>
       <use x="311.376953" xlink:href="#ArialMT-37"/>
      </g>
     </g>
    </g>
    <g id="xtick_4">
     <g id="line2d_4">
      <path clip-path="url(#pec33ee2f86)" d="M 288.093706 298.989375 
L 288.093706 21.789375 
" style="fill:none;stroke:#cccccc;stroke-linecap:round;stroke-width:0.8;"/>
     </g>
     <g id="text_4">
      <!-- 2020-09 -->
      <g style="fill:#262626;" transform="translate(269.74605 313.147188)scale(0.1 -0.1)">
       <defs>
        <path d="M 350 1059 
L 891 1109 
Q 959 728 1153 556 
Q 1347 384 1650 384 
Q 1909 384 2104 503 
Q 2300 622 2425 820 
Q 2550 1019 2634 1356 
Q 2719 1694 2719 2044 
Q 2719 2081 2716 2156 
Q 2547 1888 2255 1720 
Q 1963 1553 1622 1553 
Q 1053 1553 659 1965 
Q 266 2378 266 3053 
Q 266 3750 677 4175 
Q 1088 4600 1706 4600 
Q 2153 4600 2523 4359 
Q 2894 4119 3086 3673 
Q 3278 3228 3278 2384 
Q 3278 1506 3087 986 
Q 2897 466 2520 194 
Q 2144 -78 1638 -78 
Q 1100 -78 759 220 
Q 419 519 350 1059 
z
M 2653 3081 
Q 2653 3566 2395 3850 
Q 2138 4134 1775 4134 
Q 1400 4134 1122 3828 
Q 844 3522 844 3034 
Q 844 2597 1108 2323 
Q 1372 2050 1759 2050 
Q 2150 2050 2401 2323 
Q 2653 2597 2653 3081 
z
" id="ArialMT-39" transform="scale(0.015625)"/>
       </defs>
       <use xlink:href="#ArialMT-32"/>
       <use x="55.615234" xlink:href="#ArialMT-30"/>
       <use x="111.230469" xlink:href="#ArialMT-32"/>
       <use x="166.845703" xlink:href="#ArialMT-30"/>
       <use x="222.460938" xlink:href="#ArialMT-2d"/>
       <use x="255.761719" xlink:href="#ArialMT-30"/>
       <use x="311.376953" xlink:href="#ArialMT-39"/>
      </g>
     </g>
    </g>
    <g id="xtick_5">
     <g id="line2d_5">
      <path clip-path="url(#pec33ee2f86)" d="M 354.212587 298.989375 
L 354.212587 21.789375 
" style="fill:none;stroke:#cccccc;stroke-linecap:round;stroke-width:0.8;"/>
     </g>
     <g id="text_5">
      <!-- 2020-11 -->
      <g style="fill:#262626;" transform="translate(336.233681 313.147188)scale(0.1 -0.1)">
       <defs>
        <path d="M 2384 0 
L 1822 0 
L 1822 3584 
Q 1619 3391 1289 3197 
Q 959 3003 697 2906 
L 697 3450 
Q 1169 3672 1522 3987 
Q 1875 4303 2022 4600 
L 2384 4600 
L 2384 0 
z
" id="ArialMT-31" transform="scale(0.015625)"/>
       </defs>
       <use xlink:href="#ArialMT-32"/>
       <use x="55.615234" xlink:href="#ArialMT-30"/>
       <use x="111.230469" xlink:href="#ArialMT-32"/>
       <use x="166.845703" xlink:href="#ArialMT-30"/>
       <use x="222.460938" xlink:href="#ArialMT-2d"/>
       <use x="255.761719" xlink:href="#ArialMT-31"/>
       <use x="304.001953" xlink:href="#ArialMT-31"/>
      </g>
     </g>
    </g>
    <g id="xtick_6">
     <g id="line2d_6">
      <path clip-path="url(#pec33ee2f86)" d="M 420.331469 298.989375 
L 420.331469 21.789375 
" style="fill:none;stroke:#cccccc;stroke-linecap:round;stroke-width:0.8;"/>
     </g>
     <g id="text_6">
      <!-- 2021-01 -->
      <g style="fill:#262626;" transform="translate(401.983812 313.147188)scale(0.1 -0.1)">
       <use xlink:href="#ArialMT-32"/>
       <use x="55.615234" xlink:href="#ArialMT-30"/>
       <use x="111.230469" xlink:href="#ArialMT-32"/>
       <use x="166.845703" xlink:href="#ArialMT-31"/>
       <use x="222.460938" xlink:href="#ArialMT-2d"/>
       <use x="255.761719" xlink:href="#ArialMT-30"/>
       <use x="311.376953" xlink:href="#ArialMT-31"/>
      </g>
     </g>
    </g>
    <g id="xtick_7">
     <g id="line2d_7">
      <path clip-path="url(#pec33ee2f86)" d="M 484.282517 298.989375 
L 484.282517 21.789375 
" style="fill:none;stroke:#cccccc;stroke-linecap:round;stroke-width:0.8;"/>
     </g>
     <g id="text_7">
      <!-- 2021-03 -->
      <g style="fill:#262626;" transform="translate(465.934861 313.147188)scale(0.1 -0.1)">
       <use xlink:href="#ArialMT-32"/>
       <use x="55.615234" xlink:href="#ArialMT-30"/>
       <use x="111.230469" xlink:href="#ArialMT-32"/>
       <use x="166.845703" xlink:href="#ArialMT-31"/>
       <use x="222.460938" xlink:href="#ArialMT-2d"/>
       <use x="255.761719" xlink:href="#ArialMT-30"/>
       <use x="311.376953" xlink:href="#ArialMT-33"/>
      </g>
     </g>
    </g>
    <g id="xtick_8">
     <g id="line2d_8">
      <path clip-path="url(#pec33ee2f86)" d="M 550.401399 298.989375 
L 550.401399 21.789375 
" style="fill:none;stroke:#cccccc;stroke-linecap:round;stroke-width:0.8;"/>
     </g>
     <g id="text_8">
      <!-- 2021-05 -->
      <g style="fill:#262626;" transform="translate(532.053742 313.147188)scale(0.1 -0.1)">
       <use xlink:href="#ArialMT-32"/>
       <use x="55.615234" xlink:href="#ArialMT-30"/>
       <use x="111.230469" xlink:href="#ArialMT-32"/>
       <use x="166.845703" xlink:href="#ArialMT-31"/>
       <use x="222.460938" xlink:href="#ArialMT-2d"/>
       <use x="255.761719" xlink:href="#ArialMT-30"/>
       <use x="311.376953" xlink:href="#ArialMT-35"/>
      </g>
     </g>
    </g>
    <g id="xtick_9">
     <g id="line2d_9">
      <path clip-path="url(#pec33ee2f86)" d="M 616.52028 298.989375 
L 616.52028 21.789375 
" style="fill:none;stroke:#cccccc;stroke-linecap:round;stroke-width:0.8;"/>
     </g>
     <g id="text_9">
      <!-- 2021-07 -->
      <g style="fill:#262626;" transform="translate(598.172623 313.147188)scale(0.1 -0.1)">
       <use xlink:href="#ArialMT-32"/>
       <use x="55.615234" xlink:href="#ArialMT-30"/>
       <use x="111.230469" xlink:href="#ArialMT-32"/>
       <use x="166.845703" xlink:href="#ArialMT-31"/>
       <use x="222.460938" xlink:href="#ArialMT-2d"/>
       <use x="255.761719" xlink:href="#ArialMT-30"/>
       <use x="311.376953" xlink:href="#ArialMT-37"/>
      </g>
     </g>
    </g>
   </g>
   <g id="matplotlib.axis_2">
    <g id="ytick_1">
     <g id="line2d_10">
      <path clip-path="url(#pec33ee2f86)" d="M 82.8 286.389375 
L 640.8 286.389375 
" style="fill:none;stroke:#cccccc;stroke-linecap:round;stroke-width:0.8;"/>
     </g>
     <g id="text_10">
      <!-- 0 -->
      <g style="fill:#262626;" transform="translate(70.239063 289.968281)scale(0.1 -0.1)">
       <use xlink:href="#ArialMT-30"/>
      </g>
     </g>
    </g>
    <g id="ytick_2">
     <g id="line2d_11">
      <path clip-path="url(#pec33ee2f86)" d="M 82.8 248.664824 
L 640.8 248.664824 
" style="fill:none;stroke:#cccccc;stroke-linecap:round;stroke-width:0.8;"/>
     </g>
     <g id="text_11">
      <!-- 50 -->
      <g style="fill:#262626;" transform="translate(64.678125 252.24373)scale(0.1 -0.1)">
       <use xlink:href="#ArialMT-35"/>
       <use x="55.615234" xlink:href="#ArialMT-30"/>
      </g>
     </g>
    </g>
    <g id="ytick_3">
     <g id="line2d_12">
      <path clip-path="url(#pec33ee2f86)" d="M 82.8 210.940273 
L 640.8 210.940273 
" style="fill:none;stroke:#cccccc;stroke-linecap:round;stroke-width:0.8;"/>
     </g>
     <g id="text_12">
      <!-- 100 -->
      <g style="fill:#262626;" transform="translate(59.117188 214.519179)scale(0.1 -0.1)">
       <use xlink:href="#ArialMT-31"/>
       <use x="55.615234" xlink:href="#ArialMT-30"/>
       <use x="111.230469" xlink:href="#ArialMT-30"/>
      </g>
     </g>
    </g>
    <g id="ytick_4">
     <g id="line2d_13">
      <path clip-path="url(#pec33ee2f86)" d="M 82.8 173.215722 
L 640.8 173.215722 
" style="fill:none;stroke:#cccccc;stroke-linecap:round;stroke-width:0.8;"/>
     </g>
     <g id="text_13">
      <!-- 150 -->
      <g style="fill:#262626;" transform="translate(59.117188 176.794629)scale(0.1 -0.1)">
       <use xlink:href="#ArialMT-31"/>
       <use x="55.615234" xlink:href="#ArialMT-35"/>
       <use x="111.230469" xlink:href="#ArialMT-30"/>
      </g>
     </g>
    </g>
    <g id="ytick_5">
     <g id="line2d_14">
      <path clip-path="url(#pec33ee2f86)" d="M 82.8 135.491171 
L 640.8 135.491171 
" style="fill:none;stroke:#cccccc;stroke-linecap:round;stroke-width:0.8;"/>
     </g>
     <g id="text_14">
      <!-- 200 -->
      <g style="fill:#262626;" transform="translate(59.117188 139.070078)scale(0.1 -0.1)">
       <use xlink:href="#ArialMT-32"/>
       <use x="55.615234" xlink:href="#ArialMT-30"/>
       <use x="111.230469" xlink:href="#ArialMT-30"/>
      </g>
     </g>
    </g>
    <g id="ytick_6">
     <g id="line2d_15">
      <path clip-path="url(#pec33ee2f86)" d="M 82.8 97.766621 
L 640.8 97.766621 
" style="fill:none;stroke:#cccccc;stroke-linecap:round;stroke-width:0.8;"/>
     </g>
     <g id="text_15">
      <!-- 250 -->
      <g style="fill:#262626;" transform="translate(59.117188 101.345527)scale(0.1 -0.1)">
       <use xlink:href="#ArialMT-32"/>
       <use x="55.615234" xlink:href="#ArialMT-35"/>
       <use x="111.230469" xlink:href="#ArialMT-30"/>
      </g>
     </g>
    </g>
    <g id="ytick_7">
     <g id="line2d_16">
      <path clip-path="url(#pec33ee2f86)" d="M 82.8 60.04207 
L 640.8 60.04207 
" style="fill:none;stroke:#cccccc;stroke-linecap:round;stroke-width:0.8;"/>
     </g>
     <g id="text_16">
      <!-- 300 -->
      <g style="fill:#262626;" transform="translate(59.117188 63.620976)scale(0.1 -0.1)">
       <use xlink:href="#ArialMT-33"/>
       <use x="55.615234" xlink:href="#ArialMT-30"/>
       <use x="111.230469" xlink:href="#ArialMT-30"/>
      </g>
     </g>
    </g>
    <g id="ytick_8">
     <g id="line2d_17">
      <path clip-path="url(#pec33ee2f86)" d="M 82.8 22.317519 
L 640.8 22.317519 
" style="fill:none;stroke:#cccccc;stroke-linecap:round;stroke-width:0.8;"/>
     </g>
     <g id="text_17">
      <!-- 350 -->
      <g style="fill:#262626;" transform="translate(59.117188 25.896425)scale(0.1 -0.1)">
       <use xlink:href="#ArialMT-33"/>
       <use x="55.615234" xlink:href="#ArialMT-35"/>
       <use x="111.230469" xlink:href="#ArialMT-30"/>
      </g>
     </g>
    </g>
   </g>
   <g id="line2d_18">
    <path clip-path="url(#pec33ee2f86)" d="M 108.163636 278.089974 
L 109.247552 278.089974 
L 110.331469 276.580992 
L 111.415385 276.580992 
L 112.499301 269.036082 
L 113.583217 255.455243 
L 114.667133 254.700752 
L 115.751049 251.682788 
L 116.834965 247.155842 
L 117.918881 246.401351 
L 119.002797 246.401351 
L 120.086713 245.64686 
L 121.170629 242.628896 
L 122.254545 226.030094 
L 123.338462 224.521112 
L 124.422378 224.521112 
L 125.506294 201.886381 
L 126.59021 200.377399 
L 127.674126 213.958237 
L 128.758042 210.185782 
L 129.841958 204.149854 
L 130.925874 202.640872 
L 132.00979 199.622908 
L 133.093706 199.622908 
L 134.177622 198.113926 
L 135.261538 186.796561 
L 136.345455 185.287579 
L 137.429371 189.060034 
L 138.513287 176.233686 
L 139.597203 173.215722 
L 140.681119 170.952249 
L 141.765035 167.179794 
L 142.848951 176.988177 
L 143.932867 176.988177 
L 145.016783 173.970213 
L 146.100699 167.934285 
L 147.184615 142.281591 
L 148.268531 140.772609 
L 149.352448 176.233686 
L 150.436364 178.497159 
L 151.52028 181.515124 
L 152.604196 176.233686 
L 153.688112 181.515124 
L 154.772028 173.215722 
L 155.855944 168.688776 
L 156.93986 169.443267 
L 158.023776 167.179794 
L 159.107692 161.143866 
L 160.191608 158.125902 
L 161.275524 162.652848 
L 162.359441 165.670812 
L 163.443357 161.143866 
L 164.527273 158.125902 
L 165.611189 161.898357 
L 166.695105 146.054046 
L 167.779021 152.844465 
L 168.862937 149.826501 
L 169.946853 146.054046 
L 171.030769 152.089974 
L 172.114685 140.772609 
L 173.198601 139.263626 
L 174.282517 141.5271 
L 175.366434 133.982189 
L 176.45035 137.000153 
L 177.534266 139.263626 
L 178.618182 140.772609 
L 179.702098 138.509135 
L 180.786014 137.754644 
L 181.86993 133.227698 
L 182.953846 134.73668 
L 184.037762 135.491171 
L 185.121678 123.419315 
L 186.205594 122.664824 
L 187.28951 124.173806 
L 188.373427 129.455243 
L 189.457343 129.455243 
L 190.541259 128.700752 
L 191.625175 127.19177 
L 192.709091 122.664824 
L 193.793007 122.664824 
L 194.876923 110.592968 
L 195.960839 115.874405 
L 197.044755 109.083986 
L 198.128671 114.365423 
L 199.212587 106.820513 
L 200.296503 109.838477 
L 201.38042 103.802549 
L 202.464336 112.856441 
L 203.548252 120.401351 
L 204.632168 122.664824 
L 205.716084 126.437279 
L 206.8 130.964225 
L 207.883916 127.946261 
L 208.967832 122.664824 
L 210.051748 121.910333 
L 211.135664 118.892369 
L 212.21958 123.419315 
L 213.303497 135.491171 
L 214.387413 137.000153 
L 215.471329 131.718716 
L 216.555245 134.73668 
L 217.639161 141.5271 
L 218.723077 144.545064 
L 219.806993 150.580992 
L 220.890909 150.580992 
L 221.974825 156.61692 
L 223.058741 149.07201 
L 224.142657 152.844465 
L 225.226573 154.353447 
L 226.31049 157.371411 
L 227.394406 148.317519 
L 228.478322 164.916321 
L 229.562238 162.652848 
L 230.646154 161.898357 
L 231.73007 166.425303 
L 232.813986 171.70674 
L 233.897902 170.197758 
L 234.981818 149.826501 
L 236.065734 161.898357 
L 237.14965 153.598956 
L 238.233566 148.317519 
L 239.317483 156.61692 
L 240.401399 154.353447 
L 242.569231 158.880393 
L 243.653147 154.353447 
L 244.737063 157.371411 
L 245.820979 152.844465 
L 246.904895 154.353447 
L 249.072727 158.880393 
L 250.156643 163.407339 
L 251.240559 170.952249 
L 252.324476 173.215722 
L 253.408392 173.970213 
L 254.492308 177.742668 
L 255.576224 180.006141 
L 256.66014 177.742668 
L 257.744056 184.533088 
L 258.827972 188.305543 
L 259.911888 196.604944 
L 260.995804 194.341471 
L 262.07972 195.850453 
L 263.163636 208.6768 
L 264.247552 203.395363 
L 265.331469 207.167818 
L 266.415385 211.694764 
L 267.499301 208.6768 
L 268.583217 207.922309 
L 269.667133 204.904345 
L 270.751049 203.395363 
L 271.834965 202.640872 
L 272.918881 189.814525 
L 274.002797 198.113926 
L 276.170629 207.167818 
L 277.254545 204.904345 
L 278.338462 214.712728 
L 279.422378 215.467219 
L 280.506294 213.203746 
L 281.59021 215.467219 
L 282.674126 219.239674 
L 283.758042 213.203746 
L 284.841958 221.503147 
L 285.925874 207.167818 
L 287.00979 197.359435 
L 288.093706 195.850453 
L 289.177622 199.622908 
L 290.261538 201.13189 
L 291.345455 201.13189 
L 292.429371 203.395363 
L 293.513287 203.395363 
L 294.597203 211.694764 
L 295.681119 210.185782 
L 296.765035 200.377399 
L 297.848951 203.395363 
L 298.932867 200.377399 
L 300.016783 199.622908 
L 301.100699 200.377399 
L 302.184615 203.395363 
L 304.352448 212.449255 
L 305.436364 213.203746 
L 306.52028 210.940273 
L 307.604196 209.431291 
L 309.772028 210.940273 
L 310.855944 217.730692 
L 311.93986 217.730692 
L 313.023776 231.311531 
L 314.107692 229.048058 
L 315.191608 227.539076 
L 316.275524 223.012129 
L 317.359441 221.503147 
L 318.443357 222.257638 
L 319.527273 219.239674 
L 320.611189 223.012129 
L 321.695105 222.257638 
L 322.779021 217.730692 
L 323.862937 219.239674 
L 324.946853 219.994165 
L 326.030769 214.712728 
L 327.114685 210.940273 
L 328.198601 213.203746 
L 329.282517 210.185782 
L 330.366434 212.449255 
L 331.45035 209.431291 
L 332.534266 214.712728 
L 333.618182 215.467219 
L 334.702098 214.712728 
L 335.786014 212.449255 
L 336.86993 213.958237 
L 337.953846 216.976201 
L 339.037762 216.22171 
L 340.121678 216.22171 
L 341.205594 213.203746 
L 342.28951 207.167818 
L 343.373427 204.904345 
L 344.457343 205.658836 
L 345.541259 207.922309 
L 346.625175 204.149854 
L 347.709091 204.149854 
L 348.793007 201.886381 
L 349.876923 195.095962 
L 350.960839 196.604944 
L 352.044755 193.58698 
L 353.128671 193.58698 
L 354.212587 190.569016 
L 355.296503 186.796561 
L 356.38042 180.760632 
L 357.464336 189.060034 
L 358.548252 194.341471 
L 359.632168 189.060034 
L 360.716084 183.024106 
L 361.8 186.04207 
L 362.883916 179.25165 
L 363.967832 174.724704 
L 365.051748 164.916321 
L 366.135664 166.425303 
L 367.21958 169.443267 
L 368.303497 173.970213 
L 369.387413 173.215722 
L 370.471329 168.688776 
L 371.555245 169.443267 
L 372.639161 153.598956 
L 373.723077 149.826501 
L 374.806993 152.089974 
L 375.890909 138.509135 
L 376.974825 139.263626 
L 378.058741 143.790573 
L 379.142657 137.754644 
L 380.226573 132.473207 
L 381.31049 132.473207 
L 382.394406 134.73668 
L 383.478322 127.946261 
L 384.562238 138.509135 
L 385.646154 142.281591 
L 386.73007 147.563028 
L 387.813986 140.018118 
L 388.897902 141.5271 
L 389.981818 149.07201 
L 391.065734 145.299555 
L 392.14965 155.862429 
L 393.233566 164.916321 
L 394.317483 155.862429 
L 395.401399 142.281591 
L 396.485315 154.353447 
L 397.569231 150.580992 
L 398.653147 149.07201 
L 399.737063 155.862429 
L 402.988811 171.70674 
L 404.072727 170.197758 
L 405.156643 169.443267 
L 406.240559 174.724704 
L 407.324476 178.497159 
L 408.408392 173.970213 
L 409.492308 170.952249 
L 410.576224 170.952249 
L 411.66014 175.479195 
L 412.744056 182.269615 
L 413.827972 184.533088 
L 414.911888 178.497159 
L 415.995804 177.742668 
L 417.07972 173.215722 
L 418.163636 175.479195 
L 419.247552 173.970213 
L 420.331469 183.778597 
L 421.415385 180.760632 
L 422.499301 187.551052 
L 423.583217 197.359435 
L 424.667133 195.850453 
L 425.751049 195.095962 
L 426.834965 196.604944 
L 427.918881 192.832489 
L 430.086713 194.341471 
L 431.170629 184.533088 
L 432.254545 187.551052 
L 433.338462 179.25165 
L 434.422378 180.006141 
L 435.506294 176.233686 
L 437.674126 185.287579 
L 438.758042 178.497159 
L 439.841958 181.515124 
L 440.925874 187.551052 
L 442.00979 195.850453 
L 443.093706 189.060034 
L 444.177622 192.832489 
L 445.261538 189.814525 
L 446.345455 199.622908 
L 447.429371 204.149854 
L 448.513287 195.095962 
L 449.597203 201.13189 
L 450.681119 196.604944 
L 451.765035 201.886381 
L 452.848951 204.149854 
L 453.932867 195.095962 
L 455.016783 194.341471 
L 456.100699 191.323507 
L 457.184615 196.604944 
L 458.268531 195.850453 
L 459.352448 196.604944 
L 460.436364 200.377399 
L 461.52028 203.395363 
L 462.604196 210.185782 
L 463.688112 210.940273 
L 464.772028 209.431291 
L 465.855944 206.413327 
L 466.93986 216.976201 
L 468.023776 216.22171 
L 469.107692 206.413327 
L 470.191608 203.395363 
L 471.275524 214.712728 
L 472.359441 214.712728 
L 473.443357 211.694764 
L 474.527273 213.958237 
L 475.611189 209.431291 
L 476.695105 202.640872 
L 477.779021 198.113926 
L 478.862937 201.13189 
L 479.946853 191.323507 
L 481.030769 192.077998 
L 482.114685 205.658836 
L 483.198601 189.060034 
L 484.282517 180.760632 
L 485.366434 186.796561 
L 486.45035 178.497159 
L 487.534266 180.006141 
L 488.618182 177.742668 
L 489.702098 186.796561 
L 490.786014 183.778597 
L 491.86993 173.970213 
L 492.953846 169.443267 
L 495.121678 161.898357 
L 497.28951 148.317519 
L 498.373427 139.263626 
L 499.457343 133.982189 
L 500.541259 118.892369 
L 501.625175 115.874405 
L 502.709091 112.10195 
L 503.793007 106.820513 
L 504.876923 95.503147 
L 505.960839 81.922309 
L 507.044755 74.377399 
L 508.128671 64.569016 
L 509.212587 57.778597 
L 510.296503 39.670812 
L 511.38042 49.479195 
L 512.464336 40.425303 
L 513.548252 44.197758 
L 514.632168 44.197758 
L 515.716084 34.389375 
L 516.8 35.898357 
L 517.883916 41.179794 
L 518.967832 37.407339 
L 520.051748 42.688776 
L 521.135664 44.197758 
L 522.21958 41.179794 
L 523.303497 45.70674 
L 524.387413 46.461231 
L 525.471329 56.269615 
L 526.555245 55.515124 
L 527.639161 81.922309 
L 528.723077 87.958237 
L 529.806993 78.904345 
L 530.890909 87.203746 
L 531.974825 84.940273 
L 533.058741 81.922309 
L 534.142657 91.730692 
L 535.226573 78.904345 
L 536.31049 97.012129 
L 537.394406 89.467219 
L 538.478322 90.976201 
L 539.562238 99.275603 
L 540.646154 109.083986 
L 541.73007 109.838477 
L 542.813986 118.892369 
L 543.897902 125.682788 
L 544.981818 122.664824 
L 546.065734 127.19177 
L 547.14965 136.245662 
L 548.233566 133.227698 
L 549.317483 128.700752 
L 550.401399 113.610932 
L 551.485315 121.910333 
L 552.569231 124.173806 
L 553.653147 130.209734 
L 554.737063 118.892369 
L 555.820979 110.592968 
L 556.904895 123.419315 
L 557.988811 133.227698 
L 559.072727 118.137878 
L 560.156643 121.155842 
L 561.240559 115.874405 
L 562.324476 121.155842 
L 563.408392 122.664824 
L 564.492308 127.946261 
L 565.576224 121.155842 
L 566.66014 112.10195 
L 567.744056 109.838477 
L 568.827972 105.311531 
L 569.911888 107.575004 
L 570.995804 111.347459 
L 572.07972 100.030094 
L 573.163636 98.521112 
L 574.247552 97.766621 
L 575.331469 100.030094 
L 576.415385 94.748656 
L 577.499301 90.22171 
L 578.583217 80.413327 
L 579.667133 78.149854 
L 580.751049 68.341471 
L 581.834965 78.149854 
L 582.918881 74.377399 
L 584.002797 90.976201 
L 585.086713 92.485183 
L 586.170629 94.748656 
L 587.254545 93.239674 
L 588.338462 97.766621 
L 589.422378 93.239674 
L 590.506294 92.485183 
L 591.59021 92.485183 
L 592.674126 105.311531 
L 593.758042 112.856441 
L 594.841958 109.083986 
L 595.925874 115.119914 
L 597.00979 111.347459 
L 598.093706 115.874405 
L 599.177622 119.64686 
L 600.261538 117.383387 
L 601.345455 124.173806 
L 602.429371 124.173806 
L 603.513287 134.73668 
L 604.597203 140.018118 
L 605.681119 135.491171 
L 606.765035 142.281591 
L 607.848951 148.317519 
L 608.932867 152.089974 
L 610.016783 158.880393 
L 611.100699 158.880393 
L 612.184615 167.934285 
L 613.268531 170.952249 
L 614.352448 176.988177 
L 615.436364 182.269615 
L 615.436364 182.269615 
" style="fill:none;stroke:#1f77b4;stroke-linecap:round;stroke-width:1.5;"/>
   </g>
   <g id="line2d_19">
    <path clip-path="url(#pec33ee2f86)" d="M 108.163636 286.389375 
L 109.247552 286.389375 
L 110.331469 281.107938 
L 111.415385 281.107938 
L 112.499301 279.598956 
L 113.583217 272.054046 
L 114.667133 272.808537 
L 115.751049 269.790573 
L 120.086713 269.790573 
L 121.170629 270.545064 
L 122.254545 267.5271 
L 123.338462 269.036082 
L 124.422378 268.281591 
L 125.506294 265.263626 
L 126.59021 265.263626 
L 127.674126 261.491171 
L 128.758042 258.473207 
L 129.841958 258.473207 
L 130.925874 262.245662 
L 133.093706 262.245662 
L 134.177622 261.491171 
L 135.261538 257.718716 
L 136.345455 259.982189 
L 137.429371 264.509135 
L 138.513287 258.473207 
L 139.597203 253.19177 
L 140.681119 252.437279 
L 141.765035 245.64686 
L 142.848951 250.173806 
L 143.932867 248.664824 
L 145.016783 245.64686 
L 146.100699 238.856441 
L 147.184615 235.083986 
L 148.268531 232.820513 
L 149.352448 238.856441 
L 150.436364 238.856441 
L 152.604196 241.874405 
L 153.688112 238.856441 
L 154.772028 233.575004 
L 155.855944 231.311531 
L 156.93986 229.802549 
L 158.023776 230.55704 
L 159.107692 225.275603 
L 160.191608 225.275603 
L 161.275524 232.820513 
L 162.359441 234.329495 
L 163.443357 229.048058 
L 164.527273 229.048058 
L 166.695105 232.066022 
L 167.779021 236.592968 
L 168.862937 233.575004 
L 169.946853 231.311531 
L 171.030769 235.838477 
L 172.114685 229.048058 
L 173.198601 229.048058 
L 174.282517 227.539076 
L 175.366434 230.55704 
L 176.45035 226.030094 
L 177.534266 226.030094 
L 178.618182 222.257638 
L 179.702098 223.012129 
L 181.86993 221.503147 
L 182.953846 228.293567 
L 184.037762 230.55704 
L 185.121678 225.275603 
L 186.205594 229.048058 
L 187.28951 225.275603 
L 188.373427 220.748656 
L 189.457343 219.239674 
L 190.541259 218.485183 
L 191.625175 221.503147 
L 192.709091 219.239674 
L 193.793007 219.239674 
L 194.876923 214.712728 
L 195.960839 216.976201 
L 197.044755 215.467219 
L 198.128671 215.467219 
L 199.212587 207.922309 
L 200.296503 211.694764 
L 201.38042 216.976201 
L 202.464336 219.239674 
L 203.548252 212.449255 
L 204.632168 216.976201 
L 205.716084 223.012129 
L 206.8 225.275603 
L 208.967832 223.766621 
L 210.051748 219.239674 
L 211.135664 221.503147 
L 212.21958 219.994165 
L 213.303497 223.012129 
L 214.387413 222.257638 
L 215.471329 223.012129 
L 216.555245 227.539076 
L 217.639161 234.329495 
L 218.723077 233.575004 
L 219.806993 230.55704 
L 220.890909 231.311531 
L 221.974825 234.329495 
L 223.058741 232.066022 
L 224.142657 230.55704 
L 225.226573 231.311531 
L 226.31049 231.311531 
L 227.394406 229.802549 
L 228.478322 236.592968 
L 229.562238 236.592968 
L 230.646154 235.838477 
L 231.73007 238.856441 
L 232.813986 240.365423 
L 233.897902 236.592968 
L 234.981818 231.311531 
L 236.065734 233.575004 
L 237.14965 227.539076 
L 238.233566 230.55704 
L 239.317483 236.592968 
L 240.401399 238.856441 
L 241.485315 237.347459 
L 242.569231 237.347459 
L 243.653147 238.856441 
L 244.737063 233.575004 
L 245.820979 235.083986 
L 246.904895 237.347459 
L 247.988811 237.347459 
L 249.072727 233.575004 
L 250.156643 233.575004 
L 251.240559 238.10195 
L 252.324476 238.10195 
L 253.408392 238.856441 
L 254.492308 241.874405 
L 255.576224 243.383387 
L 256.66014 244.137878 
L 257.744056 246.401351 
L 258.827972 250.173806 
L 259.911888 249.419315 
L 260.995804 246.401351 
L 262.07972 247.155842 
L 263.163636 252.437279 
L 264.247552 252.437279 
L 265.331469 251.682788 
L 266.415385 255.455243 
L 267.499301 254.700752 
L 268.583217 253.19177 
L 269.667133 250.173806 
L 270.751049 251.682788 
L 271.834965 251.682788 
L 272.918881 248.664824 
L 274.002797 253.946261 
L 275.086713 253.946261 
L 276.170629 258.473207 
L 277.254545 256.209734 
L 278.338462 259.227698 
L 279.422378 259.227698 
L 280.506294 259.982189 
L 281.59021 256.964225 
L 283.758042 256.964225 
L 284.841958 260.73668 
L 285.925874 254.700752 
L 287.00979 256.209734 
L 288.093706 252.437279 
L 289.177622 253.946261 
L 290.261538 253.19177 
L 291.345455 253.946261 
L 292.429371 251.682788 
L 293.513287 253.946261 
L 294.597203 255.455243 
L 295.681119 254.700752 
L 296.765035 250.173806 
L 297.848951 251.682788 
L 298.932867 247.910333 
L 300.016783 248.664824 
L 301.100699 253.19177 
L 302.184615 259.227698 
L 303.268531 255.455243 
L 304.352448 255.455243 
L 305.436364 256.209734 
L 306.52028 254.700752 
L 308.688112 256.209734 
L 309.772028 255.455243 
L 310.855944 256.964225 
L 311.93986 262.245662 
L 313.023776 261.491171 
L 314.107692 256.964225 
L 315.191608 257.718716 
L 316.275524 256.964225 
L 317.359441 254.700752 
L 318.443357 253.19177 
L 319.527273 253.19177 
L 320.611189 256.209734 
L 321.695105 257.718716 
L 322.779021 256.964225 
L 324.946853 256.964225 
L 326.030769 256.209734 
L 327.114685 254.700752 
L 328.198601 256.209734 
L 329.282517 256.964225 
L 330.366434 255.455243 
L 331.45035 254.700752 
L 332.534266 258.473207 
L 333.618182 261.491171 
L 334.702098 259.227698 
L 335.786014 261.491171 
L 336.86993 261.491171 
L 337.953846 259.982189 
L 339.037762 262.245662 
L 340.121678 258.473207 
L 341.205594 256.209734 
L 342.28951 255.455243 
L 343.373427 252.437279 
L 346.625175 252.437279 
L 348.793007 249.419315 
L 349.876923 246.401351 
L 350.960839 251.682788 
L 352.044755 251.682788 
L 353.128671 250.928297 
L 354.212587 249.419315 
L 355.296503 246.401351 
L 356.38042 247.155842 
L 358.548252 245.64686 
L 359.632168 244.137878 
L 360.716084 241.874405 
L 361.8 244.892369 
L 362.883916 235.838477 
L 363.967832 233.575004 
L 365.051748 235.083986 
L 366.135664 234.329495 
L 367.21958 226.784585 
L 368.303497 234.329495 
L 369.387413 233.575004 
L 370.471329 235.838477 
L 371.555245 235.083986 
L 372.639161 227.539076 
L 373.723077 226.030094 
L 374.806993 226.030094 
L 375.890909 216.22171 
L 376.974825 219.994165 
L 378.058741 225.275603 
L 379.142657 221.503147 
L 380.226573 222.257638 
L 381.31049 222.257638 
L 382.394406 223.766621 
L 383.478322 223.012129 
L 384.562238 228.293567 
L 385.646154 229.048058 
L 386.73007 223.766621 
L 387.813986 220.748656 
L 388.897902 222.257638 
L 389.981818 226.784585 
L 391.065734 228.293567 
L 392.14965 226.784585 
L 393.233566 235.083986 
L 394.317483 229.048058 
L 395.401399 229.048058 
L 396.485315 225.275603 
L 397.569231 220.748656 
L 398.653147 223.766621 
L 399.737063 223.766621 
L 400.820979 229.048058 
L 401.904895 231.311531 
L 402.988811 229.048058 
L 404.072727 228.293567 
L 405.156643 231.311531 
L 406.240559 235.838477 
L 407.324476 232.820513 
L 408.408392 230.55704 
L 409.492308 232.066022 
L 410.576224 226.784585 
L 411.66014 232.066022 
L 412.744056 235.083986 
L 413.827972 235.083986 
L 414.911888 226.784585 
L 415.995804 235.083986 
L 417.07972 235.083986 
L 418.163636 238.856441 
L 419.247552 236.592968 
L 420.331469 235.083986 
L 421.415385 236.592968 
L 422.499301 237.347459 
L 423.583217 239.610932 
L 424.667133 241.119914 
L 425.751049 241.874405 
L 426.834965 243.383387 
L 427.918881 241.874405 
L 429.002797 238.856441 
L 430.086713 237.347459 
L 431.170629 232.820513 
L 432.254545 233.575004 
L 433.338462 228.293567 
L 434.422378 226.784585 
L 435.506294 223.766621 
L 436.59021 225.275603 
L 437.674126 227.539076 
L 439.841958 230.55704 
L 440.925874 231.311531 
L 442.00979 233.575004 
L 443.093706 232.066022 
L 444.177622 234.329495 
L 445.261538 229.048058 
L 446.345455 229.802549 
L 447.429371 232.066022 
L 448.513287 231.311531 
L 449.597203 236.592968 
L 452.848951 238.856441 
L 453.932867 235.838477 
L 455.016783 231.311531 
L 456.100699 235.838477 
L 457.184615 232.820513 
L 458.268531 236.592968 
L 459.352448 238.10195 
L 460.436364 242.628896 
L 461.52028 245.64686 
L 462.604196 247.155842 
L 463.688112 244.892369 
L 464.772028 245.64686 
L 465.855944 243.383387 
L 466.93986 250.928297 
L 468.023776 251.682788 
L 469.107692 240.365423 
L 470.191608 244.137878 
L 471.275524 242.628896 
L 472.359441 243.383387 
L 473.443357 239.610932 
L 474.527273 242.628896 
L 475.611189 244.137878 
L 476.695105 241.874405 
L 477.779021 243.383387 
L 478.862937 248.664824 
L 481.030769 239.610932 
L 482.114685 244.892369 
L 483.198601 240.365423 
L 484.282517 237.347459 
L 485.366434 239.610932 
L 486.45035 236.592968 
L 487.534266 236.592968 
L 488.618182 237.347459 
L 489.702098 243.383387 
L 490.786014 233.575004 
L 491.86993 236.592968 
L 492.953846 238.856441 
L 494.037762 232.066022 
L 495.121678 229.048058 
L 496.205594 223.766621 
L 497.28951 211.694764 
L 498.373427 204.904345 
L 499.457343 213.958237 
L 500.541259 201.886381 
L 501.625175 196.604944 
L 502.709091 198.113926 
L 503.793007 186.796561 
L 504.876923 190.569016 
L 505.960839 186.04207 
L 507.044755 187.551052 
L 508.128671 180.760632 
L 509.212587 177.742668 
L 510.296503 165.670812 
L 511.38042 163.407339 
L 512.464336 155.862429 
L 513.548252 151.335483 
L 514.632168 154.353447 
L 515.716084 152.089974 
L 516.8 150.580992 
L 517.883916 147.563028 
L 520.051748 146.054046 
L 521.135664 149.07201 
L 522.21958 146.808537 
L 523.303497 146.054046 
L 525.471329 143.036082 
L 526.555245 144.545064 
L 527.639161 153.598956 
L 528.723077 153.598956 
L 530.890909 165.670812 
L 531.974825 162.652848 
L 533.058741 158.880393 
L 534.142657 168.688776 
L 535.226573 163.407339 
L 536.31049 172.461231 
L 538.478322 175.479195 
L 539.562238 180.760632 
L 540.646154 189.060034 
L 541.73007 189.814525 
L 542.813986 194.341471 
L 544.981818 192.832489 
L 546.065734 197.359435 
L 547.14965 202.640872 
L 548.233566 198.113926 
L 549.317483 202.640872 
L 550.401399 183.024106 
L 551.485315 198.868417 
L 552.569231 205.658836 
L 553.653147 208.6768 
L 554.737063 198.868417 
L 555.820979 197.359435 
L 556.904895 204.149854 
L 557.988811 200.377399 
L 559.072727 182.269615 
L 560.156643 194.341471 
L 561.240559 192.832489 
L 562.324476 193.58698 
L 563.408392 199.622908 
L 564.492308 204.904345 
L 565.576224 198.868417 
L 566.66014 198.113926 
L 567.744056 194.341471 
L 568.827972 189.814525 
L 569.911888 191.323507 
L 570.995804 195.850453 
L 572.07972 193.58698 
L 573.163636 183.778597 
L 574.247552 183.778597 
L 575.331469 186.04207 
L 576.415385 186.796561 
L 577.499301 183.024106 
L 578.583217 180.760632 
L 579.667133 176.233686 
L 580.751049 174.724704 
L 581.834965 179.25165 
L 582.918881 167.934285 
L 584.002797 176.988177 
L 585.086713 178.497159 
L 586.170629 173.970213 
L 587.254545 168.688776 
L 588.338462 178.497159 
L 589.422378 180.760632 
L 590.506294 181.515124 
L 591.59021 183.778597 
L 592.674126 192.077998 
L 593.758042 195.850453 
L 594.841958 193.58698 
L 595.925874 198.868417 
L 597.00979 197.359435 
L 598.093706 198.868417 
L 599.177622 201.13189 
L 600.261538 200.377399 
L 601.345455 210.185782 
L 602.429371 207.922309 
L 603.513287 208.6768 
L 604.597203 211.694764 
L 605.681119 203.395363 
L 606.765035 204.904345 
L 607.848951 207.922309 
L 608.932867 213.958237 
L 610.016783 222.257638 
L 611.100699 226.030094 
L 612.184615 219.239674 
L 613.268531 219.994165 
L 614.352448 223.766621 
L 615.436364 225.275603 
L 615.436364 225.275603 
" style="fill:none;stroke:#ff7f0e;stroke-linecap:round;stroke-width:1.5;"/>
   </g>
   <g id="patch_3">
    <path d="M 82.8 298.989375 
L 82.8 21.789375 
" style="fill:none;stroke:#cccccc;stroke-linecap:square;stroke-linejoin:miter;stroke-width:0.8;"/>
   </g>
   <g id="patch_4">
    <path d="M 640.8 298.989375 
L 640.8 21.789375 
" style="fill:none;stroke:#cccccc;stroke-linecap:square;stroke-linejoin:miter;stroke-width:0.8;"/>
   </g>
   <g id="patch_5">
    <path d="M 82.8 298.989375 
L 640.8 298.989375 
" style="fill:none;stroke:#cccccc;stroke-linecap:square;stroke-linejoin:miter;stroke-width:0.8;"/>
   </g>
   <g id="patch_6">
    <path d="M 82.8 21.789375 
L 640.8 21.789375 
" style="fill:none;stroke:#cccccc;stroke-linecap:square;stroke-linejoin:miter;stroke-width:0.8;"/>
   </g>
   <g id="text_18">
    <!-- Internações -->
    <g style="fill:#262626;" transform="translate(330.449063 15.789375)scale(0.12 -0.12)">
     <defs>
      <path d="M 597 0 
L 597 4581 
L 1203 4581 
L 1203 0 
L 597 0 
z
" id="ArialMT-49" transform="scale(0.015625)"/>
      <path d="M 422 0 
L 422 3319 
L 928 3319 
L 928 2847 
Q 1294 3394 1984 3394 
Q 2284 3394 2536 3286 
Q 2788 3178 2913 3003 
Q 3038 2828 3088 2588 
Q 3119 2431 3119 2041 
L 3119 0 
L 2556 0 
L 2556 2019 
Q 2556 2363 2490 2533 
Q 2425 2703 2258 2804 
Q 2091 2906 1866 2906 
Q 1506 2906 1245 2678 
Q 984 2450 984 1813 
L 984 0 
L 422 0 
z
" id="ArialMT-6e" transform="scale(0.015625)"/>
      <path d="M 1650 503 
L 1731 6 
Q 1494 -44 1306 -44 
Q 1000 -44 831 53 
Q 663 150 594 308 
Q 525 466 525 972 
L 525 2881 
L 113 2881 
L 113 3319 
L 525 3319 
L 525 4141 
L 1084 4478 
L 1084 3319 
L 1650 3319 
L 1650 2881 
L 1084 2881 
L 1084 941 
Q 1084 700 1114 631 
Q 1144 563 1211 522 
Q 1278 481 1403 481 
Q 1497 481 1650 503 
z
" id="ArialMT-74" transform="scale(0.015625)"/>
      <path d="M 2694 1069 
L 3275 997 
Q 3138 488 2766 206 
Q 2394 -75 1816 -75 
Q 1088 -75 661 373 
Q 234 822 234 1631 
Q 234 2469 665 2931 
Q 1097 3394 1784 3394 
Q 2450 3394 2872 2941 
Q 3294 2488 3294 1666 
Q 3294 1616 3291 1516 
L 816 1516 
Q 847 969 1125 678 
Q 1403 388 1819 388 
Q 2128 388 2347 550 
Q 2566 713 2694 1069 
z
M 847 1978 
L 2700 1978 
Q 2663 2397 2488 2606 
Q 2219 2931 1791 2931 
Q 1403 2931 1139 2672 
Q 875 2413 847 1978 
z
" id="ArialMT-65" transform="scale(0.015625)"/>
      <path d="M 416 0 
L 416 3319 
L 922 3319 
L 922 2816 
Q 1116 3169 1280 3281 
Q 1444 3394 1641 3394 
Q 1925 3394 2219 3213 
L 2025 2691 
Q 1819 2813 1613 2813 
Q 1428 2813 1281 2702 
Q 1134 2591 1072 2394 
Q 978 2094 978 1738 
L 978 0 
L 416 0 
z
" id="ArialMT-72" transform="scale(0.015625)"/>
      <path d="M 2588 409 
Q 2275 144 1986 34 
Q 1697 -75 1366 -75 
Q 819 -75 525 192 
Q 231 459 231 875 
Q 231 1119 342 1320 
Q 453 1522 633 1644 
Q 813 1766 1038 1828 
Q 1203 1872 1538 1913 
Q 2219 1994 2541 2106 
Q 2544 2222 2544 2253 
Q 2544 2597 2384 2738 
Q 2169 2928 1744 2928 
Q 1347 2928 1158 2789 
Q 969 2650 878 2297 
L 328 2372 
Q 403 2725 575 2942 
Q 747 3159 1072 3276 
Q 1397 3394 1825 3394 
Q 2250 3394 2515 3294 
Q 2781 3194 2906 3042 
Q 3031 2891 3081 2659 
Q 3109 2516 3109 2141 
L 3109 1391 
Q 3109 606 3145 398 
Q 3181 191 3288 0 
L 2700 0 
Q 2613 175 2588 409 
z
M 2541 1666 
Q 2234 1541 1622 1453 
Q 1275 1403 1131 1340 
Q 988 1278 909 1158 
Q 831 1038 831 891 
Q 831 666 1001 516 
Q 1172 366 1500 366 
Q 1825 366 2078 508 
Q 2331 650 2450 897 
Q 2541 1088 2541 1459 
L 2541 1666 
z
" id="ArialMT-61" transform="scale(0.015625)"/>
      <path d="M 2588 1216 
L 3141 1144 
Q 3050 572 2676 248 
Q 2303 -75 1759 -75 
Q 1078 -75 664 370 
Q 250 816 250 1647 
Q 250 2184 428 2587 
Q 606 2991 970 3192 
Q 1334 3394 1763 3394 
Q 2303 3394 2647 3120 
Q 2991 2847 3088 2344 
L 2541 2259 
Q 2463 2594 2264 2762 
Q 2066 2931 1784 2931 
Q 1359 2931 1093 2626 
Q 828 2322 828 1663 
Q 828 994 1084 691 
Q 1341 388 1753 388 
Q 2084 388 2306 591 
Q 2528 794 2588 1216 
z
M 1283 -417 
L 1446 136 
L 1864 136 
L 1761 -199 
Q 2027 -230 2161 -362 
Q 2296 -495 2296 -658 
Q 2296 -892 2071 -1072 
Q 1846 -1252 1392 -1252 
Q 1136 -1252 942 -1214 
L 977 -849 
Q 1177 -861 1271 -861 
Q 1564 -861 1683 -780 
Q 1774 -717 1774 -627 
Q 1774 -570 1738 -526 
Q 1702 -483 1605 -451 
Q 1508 -420 1283 -417 
z
" id="ArialMT-e7" transform="scale(0.015625)"/>
      <path d="M 213 1659 
Q 213 2581 725 3025 
Q 1153 3394 1769 3394 
Q 2453 3394 2887 2945 
Q 3322 2497 3322 1706 
Q 3322 1066 3130 698 
Q 2938 331 2570 128 
Q 2203 -75 1769 -75 
Q 1072 -75 642 372 
Q 213 819 213 1659 
z
M 791 1659 
Q 791 1022 1069 705 
Q 1347 388 1769 388 
Q 2188 388 2466 706 
Q 2744 1025 2744 1678 
Q 2744 2294 2464 2611 
Q 2184 2928 1769 2928 
Q 1347 2928 1069 2612 
Q 791 2297 791 1659 
z
M 726 3809 
Q 723 4134 904 4328 
Q 1082 4522 1360 4522 
Q 1554 4522 1888 4353 
Q 2073 4259 2182 4259 
Q 2282 4259 2335 4314 
Q 2388 4369 2410 4531 
L 2817 4531 
Q 2807 4175 2637 3997 
Q 2467 3819 2204 3819 
Q 2007 3819 1685 3994 
Q 1476 4106 1379 4106 
Q 1273 4106 1207 4031 
Q 1138 3956 1142 3809 
L 726 3809 
z
" id="ArialMT-f5" transform="scale(0.015625)"/>
      <path d="M 197 991 
L 753 1078 
Q 800 744 1014 566 
Q 1228 388 1613 388 
Q 2000 388 2187 545 
Q 2375 703 2375 916 
Q 2375 1106 2209 1216 
Q 2094 1291 1634 1406 
Q 1016 1563 777 1677 
Q 538 1791 414 1992 
Q 291 2194 291 2438 
Q 291 2659 392 2848 
Q 494 3038 669 3163 
Q 800 3259 1026 3326 
Q 1253 3394 1513 3394 
Q 1903 3394 2198 3281 
Q 2494 3169 2634 2976 
Q 2775 2784 2828 2463 
L 2278 2388 
Q 2241 2644 2061 2787 
Q 1881 2931 1553 2931 
Q 1166 2931 1000 2803 
Q 834 2675 834 2503 
Q 834 2394 903 2306 
Q 972 2216 1119 2156 
Q 1203 2125 1616 2013 
Q 2213 1853 2448 1751 
Q 2684 1650 2818 1456 
Q 2953 1263 2953 975 
Q 2953 694 2789 445 
Q 2625 197 2315 61 
Q 2006 -75 1616 -75 
Q 969 -75 630 194 
Q 291 463 197 991 
z
" id="ArialMT-73" transform="scale(0.015625)"/>
     </defs>
     <use xlink:href="#ArialMT-49"/>
     <use x="27.783203" xlink:href="#ArialMT-6e"/>
     <use x="83.398438" xlink:href="#ArialMT-74"/>
     <use x="111.181641" xlink:href="#ArialMT-65"/>
     <use x="166.796875" xlink:href="#ArialMT-72"/>
     <use x="200.097656" xlink:href="#ArialMT-6e"/>
     <use x="255.712891" xlink:href="#ArialMT-61"/>
     <use x="311.328125" xlink:href="#ArialMT-e7"/>
     <use x="361.328125" xlink:href="#ArialMT-f5"/>
     <use x="416.943359" xlink:href="#ArialMT-65"/>
     <use x="472.558594" xlink:href="#ArialMT-73"/>
    </g>
   </g>
   <g id="legend_1">
    <g id="patch_7">
     <path d="M 549.548437 58.08 
L 633.8 58.08 
Q 635.8 58.08 635.8 56.08 
L 635.8 28.789375 
Q 635.8 26.789375 633.8 26.789375 
L 549.548437 26.789375 
Q 547.548437 26.789375 547.548437 28.789375 
L 547.548437 56.08 
Q 547.548437 58.08 549.548437 58.08 
z
" style="fill:#ffffff;opacity:0.8;stroke:#cccccc;stroke-linejoin:miter;"/>
    </g>
    <g id="line2d_20">
     <path d="M 551.548437 34.447187 
L 571.548437 34.447187 
" style="fill:none;stroke:#1f77b4;stroke-linecap:round;stroke-width:1.5;"/>
    </g>
    <g id="line2d_21"/>
    <g id="text_19">
     <!-- Internações -->
     <g style="fill:#262626;" transform="translate(579.548437 37.947187)scale(0.1 -0.1)">
      <use xlink:href="#ArialMT-49"/>
      <use x="27.783203" xlink:href="#ArialMT-6e"/>
      <use x="83.398438" xlink:href="#ArialMT-74"/>
      <use x="111.181641" xlink:href="#ArialMT-65"/>
      <use x="166.796875" xlink:href="#ArialMT-72"/>
      <use x="200.097656" xlink:href="#ArialMT-6e"/>
      <use x="255.712891" xlink:href="#ArialMT-61"/>
      <use x="311.328125" xlink:href="#ArialMT-e7"/>
      <use x="361.328125" xlink:href="#ArialMT-f5"/>
      <use x="416.943359" xlink:href="#ArialMT-65"/>
      <use x="472.558594" xlink:href="#ArialMT-73"/>
     </g>
    </g>
    <g id="line2d_22">
     <path d="M 551.548437 48.5925 
L 571.548437 48.5925 
" style="fill:none;stroke:#ff7f0e;stroke-linecap:round;stroke-width:1.5;"/>
    </g>
    <g id="line2d_23"/>
    <g id="text_20">
     <!-- UTI -->
     <g style="fill:#262626;" transform="translate(579.548437 52.0925)scale(0.1 -0.1)">
      <defs>
       <path d="M 3500 4581 
L 4106 4581 
L 4106 1934 
Q 4106 1244 3950 837 
Q 3794 431 3386 176 
Q 2978 -78 2316 -78 
Q 1672 -78 1262 144 
Q 853 366 678 786 
Q 503 1206 503 1934 
L 503 4581 
L 1109 4581 
L 1109 1938 
Q 1109 1341 1220 1058 
Q 1331 775 1601 622 
Q 1872 469 2263 469 
Q 2931 469 3215 772 
Q 3500 1075 3500 1938 
L 3500 4581 
z
" id="ArialMT-55" transform="scale(0.015625)"/>
       <path d="M 1659 0 
L 1659 4041 
L 150 4041 
L 150 4581 
L 3781 4581 
L 3781 4041 
L 2266 4041 
L 2266 0 
L 1659 0 
z
" id="ArialMT-54" transform="scale(0.015625)"/>
      </defs>
      <use xlink:href="#ArialMT-55"/>
      <use x="72.216797" xlink:href="#ArialMT-54"/>
      <use x="133.300781" xlink:href="#ArialMT-49"/>
     </g>
    </g>
   </g>
  </g>
  <g id="text_21">
   <!-- Atualizado em 30/06/2021 -->
   <g style="fill:#262626;" transform="translate(7.2 331.389375)scale(0.1 -0.1)">
    <defs>
     <path d="M -9 0 
L 1750 4581 
L 2403 4581 
L 4278 0 
L 3588 0 
L 3053 1388 
L 1138 1388 
L 634 0 
L -9 0 
z
M 1313 1881 
L 2866 1881 
L 2388 3150 
Q 2169 3728 2063 4100 
Q 1975 3659 1816 3225 
L 1313 1881 
z
" id="ArialMT-41" transform="scale(0.015625)"/>
     <path d="M 2597 0 
L 2597 488 
Q 2209 -75 1544 -75 
Q 1250 -75 995 37 
Q 741 150 617 320 
Q 494 491 444 738 
Q 409 903 409 1263 
L 409 3319 
L 972 3319 
L 972 1478 
Q 972 1038 1006 884 
Q 1059 663 1231 536 
Q 1403 409 1656 409 
Q 1909 409 2131 539 
Q 2353 669 2445 892 
Q 2538 1116 2538 1541 
L 2538 3319 
L 3100 3319 
L 3100 0 
L 2597 0 
z
" id="ArialMT-75" transform="scale(0.015625)"/>
     <path d="M 409 0 
L 409 4581 
L 972 4581 
L 972 0 
L 409 0 
z
" id="ArialMT-6c" transform="scale(0.015625)"/>
     <path d="M 425 3934 
L 425 4581 
L 988 4581 
L 988 3934 
L 425 3934 
z
M 425 0 
L 425 3319 
L 988 3319 
L 988 0 
L 425 0 
z
" id="ArialMT-69" transform="scale(0.015625)"/>
     <path d="M 125 0 
L 125 456 
L 2238 2881 
Q 1878 2863 1603 2863 
L 250 2863 
L 250 3319 
L 2963 3319 
L 2963 2947 
L 1166 841 
L 819 456 
Q 1197 484 1528 484 
L 3063 484 
L 3063 0 
L 125 0 
z
" id="ArialMT-7a" transform="scale(0.015625)"/>
     <path d="M 2575 0 
L 2575 419 
Q 2259 -75 1647 -75 
Q 1250 -75 917 144 
Q 584 363 401 755 
Q 219 1147 219 1656 
Q 219 2153 384 2558 
Q 550 2963 881 3178 
Q 1213 3394 1622 3394 
Q 1922 3394 2156 3267 
Q 2391 3141 2538 2938 
L 2538 4581 
L 3097 4581 
L 3097 0 
L 2575 0 
z
M 797 1656 
Q 797 1019 1065 703 
Q 1334 388 1700 388 
Q 2069 388 2326 689 
Q 2584 991 2584 1609 
Q 2584 2291 2321 2609 
Q 2059 2928 1675 2928 
Q 1300 2928 1048 2622 
Q 797 2316 797 1656 
z
" id="ArialMT-64" transform="scale(0.015625)"/>
     <path d="M 213 1659 
Q 213 2581 725 3025 
Q 1153 3394 1769 3394 
Q 2453 3394 2887 2945 
Q 3322 2497 3322 1706 
Q 3322 1066 3130 698 
Q 2938 331 2570 128 
Q 2203 -75 1769 -75 
Q 1072 -75 642 372 
Q 213 819 213 1659 
z
M 791 1659 
Q 791 1022 1069 705 
Q 1347 388 1769 388 
Q 2188 388 2466 706 
Q 2744 1025 2744 1678 
Q 2744 2294 2464 2611 
Q 2184 2928 1769 2928 
Q 1347 2928 1069 2612 
Q 791 2297 791 1659 
z
" id="ArialMT-6f" transform="scale(0.015625)"/>
     <path id="ArialMT-20" transform="scale(0.015625)"/>
     <path d="M 422 0 
L 422 3319 
L 925 3319 
L 925 2853 
Q 1081 3097 1340 3245 
Q 1600 3394 1931 3394 
Q 2300 3394 2536 3241 
Q 2772 3088 2869 2813 
Q 3263 3394 3894 3394 
Q 4388 3394 4653 3120 
Q 4919 2847 4919 2278 
L 4919 0 
L 4359 0 
L 4359 2091 
Q 4359 2428 4304 2576 
Q 4250 2725 4106 2815 
Q 3963 2906 3769 2906 
Q 3419 2906 3187 2673 
Q 2956 2441 2956 1928 
L 2956 0 
L 2394 0 
L 2394 2156 
Q 2394 2531 2256 2718 
Q 2119 2906 1806 2906 
Q 1569 2906 1367 2781 
Q 1166 2656 1075 2415 
Q 984 2175 984 1722 
L 984 0 
L 422 0 
z
" id="ArialMT-6d" transform="scale(0.015625)"/>
     <path d="M 0 -78 
L 1328 4659 
L 1778 4659 
L 453 -78 
L 0 -78 
z
" id="ArialMT-2f" transform="scale(0.015625)"/>
     <path d="M 3184 3459 
L 2625 3416 
Q 2550 3747 2413 3897 
Q 2184 4138 1850 4138 
Q 1581 4138 1378 3988 
Q 1113 3794 959 3422 
Q 806 3050 800 2363 
Q 1003 2672 1297 2822 
Q 1591 2972 1913 2972 
Q 2475 2972 2870 2558 
Q 3266 2144 3266 1488 
Q 3266 1056 3080 686 
Q 2894 316 2569 119 
Q 2244 -78 1831 -78 
Q 1128 -78 684 439 
Q 241 956 241 2144 
Q 241 3472 731 4075 
Q 1159 4600 1884 4600 
Q 2425 4600 2770 4297 
Q 3116 3994 3184 3459 
z
M 888 1484 
Q 888 1194 1011 928 
Q 1134 663 1356 523 
Q 1578 384 1822 384 
Q 2178 384 2434 671 
Q 2691 959 2691 1453 
Q 2691 1928 2437 2201 
Q 2184 2475 1800 2475 
Q 1419 2475 1153 2201 
Q 888 1928 888 1484 
z
" id="ArialMT-36" transform="scale(0.015625)"/>
    </defs>
    <use xlink:href="#ArialMT-41"/>
    <use x="66.699219" xlink:href="#ArialMT-74"/>
    <use x="94.482422" xlink:href="#ArialMT-75"/>
    <use x="150.097656" xlink:href="#ArialMT-61"/>
    <use x="205.712891" xlink:href="#ArialMT-6c"/>
    <use x="227.929688" xlink:href="#ArialMT-69"/>
    <use x="250.146484" xlink:href="#ArialMT-7a"/>
    <use x="300.146484" xlink:href="#ArialMT-61"/>
    <use x="355.761719" xlink:href="#ArialMT-64"/>
    <use x="411.376953" xlink:href="#ArialMT-6f"/>
    <use x="466.992188" xlink:href="#ArialMT-20"/>
    <use x="494.775391" xlink:href="#ArialMT-65"/>
    <use x="550.390625" xlink:href="#ArialMT-6d"/>
    <use x="633.691406" xlink:href="#ArialMT-20"/>
    <use x="661.474609" xlink:href="#ArialMT-33"/>
    <use x="717.089844" xlink:href="#ArialMT-30"/>
    <use x="772.705078" xlink:href="#ArialMT-2f"/>
    <use x="800.488281" xlink:href="#ArialMT-30"/>
    <use x="856.103516" xlink:href="#ArialMT-36"/>
    <use x="911.71875" xlink:href="#ArialMT-2f"/>
    <use x="939.501953" xlink:href="#ArialMT-32"/>
    <use x="995.117188" xlink:href="#ArialMT-30"/>
    <use x="1050.732422" xlink:href="#ArialMT-32"/>
    <use x="1106.347656" xlink:href="#ArialMT-31"/>
   </g>
  </g>
  <g id="text_22">
   <!-- https://jmsvaz.github.io/covidsantos/ -->
   <g style="fill:#262626;" transform="translate(538.33125 331.389375)scale(0.1 -0.1)">
    <defs>
     <path d="M 422 0 
L 422 4581 
L 984 4581 
L 984 2938 
Q 1378 3394 1978 3394 
Q 2347 3394 2619 3248 
Q 2891 3103 3008 2847 
Q 3125 2591 3125 2103 
L 3125 0 
L 2563 0 
L 2563 2103 
Q 2563 2525 2380 2717 
Q 2197 2909 1863 2909 
Q 1613 2909 1392 2779 
Q 1172 2650 1078 2428 
Q 984 2206 984 1816 
L 984 0 
L 422 0 
z
" id="ArialMT-68" transform="scale(0.015625)"/>
     <path d="M 422 -1272 
L 422 3319 
L 934 3319 
L 934 2888 
Q 1116 3141 1344 3267 
Q 1572 3394 1897 3394 
Q 2322 3394 2647 3175 
Q 2972 2956 3137 2557 
Q 3303 2159 3303 1684 
Q 3303 1175 3120 767 
Q 2938 359 2589 142 
Q 2241 -75 1856 -75 
Q 1575 -75 1351 44 
Q 1128 163 984 344 
L 984 -1272 
L 422 -1272 
z
M 931 1641 
Q 931 1000 1190 694 
Q 1450 388 1819 388 
Q 2194 388 2461 705 
Q 2728 1022 2728 1688 
Q 2728 2322 2467 2637 
Q 2206 2953 1844 2953 
Q 1484 2953 1207 2617 
Q 931 2281 931 1641 
z
" id="ArialMT-70" transform="scale(0.015625)"/>
     <path d="M 578 2678 
L 578 3319 
L 1219 3319 
L 1219 2678 
L 578 2678 
z
M 578 0 
L 578 641 
L 1219 641 
L 1219 0 
L 578 0 
z
" id="ArialMT-3a" transform="scale(0.015625)"/>
     <path d="M 419 3928 
L 419 4581 
L 981 4581 
L 981 3928 
L 419 3928 
z
M -294 -1288 
L -188 -809 
Q -19 -853 78 -853 
Q 250 -853 334 -739 
Q 419 -625 419 -169 
L 419 3319 
L 981 3319 
L 981 -181 
Q 981 -794 822 -1034 
Q 619 -1347 147 -1347 
Q -81 -1347 -294 -1288 
z
" id="ArialMT-6a" transform="scale(0.015625)"/>
     <path d="M 1344 0 
L 81 3319 
L 675 3319 
L 1388 1331 
Q 1503 1009 1600 663 
Q 1675 925 1809 1294 
L 2547 3319 
L 3125 3319 
L 1869 0 
L 1344 0 
z
" id="ArialMT-76" transform="scale(0.015625)"/>
     <path d="M 581 0 
L 581 641 
L 1222 641 
L 1222 0 
L 581 0 
z
" id="ArialMT-2e" transform="scale(0.015625)"/>
     <path d="M 319 -275 
L 866 -356 
Q 900 -609 1056 -725 
Q 1266 -881 1628 -881 
Q 2019 -881 2231 -725 
Q 2444 -569 2519 -288 
Q 2563 -116 2559 434 
Q 2191 0 1641 0 
Q 956 0 581 494 
Q 206 988 206 1678 
Q 206 2153 378 2554 
Q 550 2956 876 3175 
Q 1203 3394 1644 3394 
Q 2231 3394 2613 2919 
L 2613 3319 
L 3131 3319 
L 3131 450 
Q 3131 -325 2973 -648 
Q 2816 -972 2473 -1159 
Q 2131 -1347 1631 -1347 
Q 1038 -1347 672 -1080 
Q 306 -813 319 -275 
z
M 784 1719 
Q 784 1066 1043 766 
Q 1303 466 1694 466 
Q 2081 466 2343 764 
Q 2606 1063 2606 1700 
Q 2606 2309 2336 2618 
Q 2066 2928 1684 2928 
Q 1309 2928 1046 2623 
Q 784 2319 784 1719 
z
" id="ArialMT-67" transform="scale(0.015625)"/>
     <path d="M 941 0 
L 419 0 
L 419 4581 
L 981 4581 
L 981 2947 
Q 1338 3394 1891 3394 
Q 2197 3394 2470 3270 
Q 2744 3147 2920 2923 
Q 3097 2700 3197 2384 
Q 3297 2069 3297 1709 
Q 3297 856 2875 390 
Q 2453 -75 1863 -75 
Q 1275 -75 941 416 
L 941 0 
z
M 934 1684 
Q 934 1088 1097 822 
Q 1363 388 1816 388 
Q 2184 388 2453 708 
Q 2722 1028 2722 1663 
Q 2722 2313 2464 2622 
Q 2206 2931 1841 2931 
Q 1472 2931 1203 2611 
Q 934 2291 934 1684 
z
" id="ArialMT-62" transform="scale(0.015625)"/>
     <path d="M 2588 1216 
L 3141 1144 
Q 3050 572 2676 248 
Q 2303 -75 1759 -75 
Q 1078 -75 664 370 
Q 250 816 250 1647 
Q 250 2184 428 2587 
Q 606 2991 970 3192 
Q 1334 3394 1763 3394 
Q 2303 3394 2647 3120 
Q 2991 2847 3088 2344 
L 2541 2259 
Q 2463 2594 2264 2762 
Q 2066 2931 1784 2931 
Q 1359 2931 1093 2626 
Q 828 2322 828 1663 
Q 828 994 1084 691 
Q 1341 388 1753 388 
Q 2084 388 2306 591 
Q 2528 794 2588 1216 
z
" id="ArialMT-63" transform="scale(0.015625)"/>
    </defs>
    <use xlink:href="#ArialMT-68"/>
    <use x="55.615234" xlink:href="#ArialMT-74"/>
    <use x="83.398438" xlink:href="#ArialMT-74"/>
    <use x="111.181641" xlink:href="#ArialMT-70"/>
    <use x="166.796875" xlink:href="#ArialMT-73"/>
    <use x="216.796875" xlink:href="#ArialMT-3a"/>
    <use x="244.580078" xlink:href="#ArialMT-2f"/>
    <use x="272.363281" xlink:href="#ArialMT-2f"/>
    <use x="300.146484" xlink:href="#ArialMT-6a"/>
    <use x="322.363281" xlink:href="#ArialMT-6d"/>
    <use x="405.664062" xlink:href="#ArialMT-73"/>
    <use x="455.664062" xlink:href="#ArialMT-76"/>
    <use x="505.664062" xlink:href="#ArialMT-61"/>
    <use x="561.279297" xlink:href="#ArialMT-7a"/>
    <use x="611.279297" xlink:href="#ArialMT-2e"/>
    <use x="639.0625" xlink:href="#ArialMT-67"/>
    <use x="694.677734" xlink:href="#ArialMT-69"/>
    <use x="716.894531" xlink:href="#ArialMT-74"/>
    <use x="744.677734" xlink:href="#ArialMT-68"/>
    <use x="800.292969" xlink:href="#ArialMT-75"/>
    <use x="855.908203" xlink:href="#ArialMT-62"/>
    <use x="911.523438" xlink:href="#ArialMT-2e"/>
    <use x="939.306641" xlink:href="#ArialMT-69"/>
    <use x="961.523438" xlink:href="#ArialMT-6f"/>
    <use x="1017.138672" xlink:href="#ArialMT-2f"/>
    <use x="1044.921875" xlink:href="#ArialMT-63"/>
    <use x="1094.921875" xlink:href="#ArialMT-6f"/>
    <use x="1150.537109" xlink:href="#ArialMT-76"/>
    <use x="1200.537109" xlink:href="#ArialMT-69"/>
    <use x="1222.753906" xlink:href="#ArialMT-64"/>
    <use x="1278.369141" xlink:href="#ArialMT-73"/>
    <use x="1328.369141" xlink:href="#ArialMT-61"/>
    <use x="1383.984375" xlink:href="#ArialMT-6e"/>
    <use x="1439.599609" xlink:href="#ArialMT-74"/>
    <use x="1467.382812" xlink:href="#ArialMT-6f"/>
    <use x="1522.998047" xlink:href="#ArialMT-73"/>
    <use x="1572.998047" xlink:href="#ArialMT-2f"/>
   </g>
  </g>
 </g>
 <defs>
  <clipPath id="pec33ee2f86">
   <rect height="277.2" width="558" x="82.8" y="21.789375"/>
  </clipPath>
 </defs>
</svg>
