<?xml version="1.0" encoding="utf-8" standalone="no"?>
<!DOCTYPE svg PUBLIC "-//W3C//DTD SVG 1.1//EN"
  "http://www.w3.org/Graphics/SVG/1.1/DTD/svg11.dtd">
<svg height="322.334688pt" version="1.1" viewBox="0 0 596.082813 322.334688" width="596.082813pt" xmlns="http://www.w3.org/2000/svg" xmlns:xlink="http://www.w3.org/1999/xlink">
 <metadata>
  <rdf:RDF xmlns:cc="http://creativecommons.org/ns#" xmlns:dc="http://purl.org/dc/elements/1.1/" xmlns:rdf="http://www.w3.org/1999/02/22-rdf-syntax-ns#">
   <cc:Work>
    <dc:type rdf:resource="http://purl.org/dc/dcmitype/StillImage"/>
    <dc:date>2021-04-29T18:59:26.645565</dc:date>
    <dc:format>image/svg+xml</dc:format>
    <dc:creator>
     <cc:Agent>
      <dc:title>Matplotlib v3.4.1, https://matplotlib.org/</dc:title>
     </cc:Agent>
    </dc:creator>
   </cc:Work>
  </rdf:RDF>
 </metadata>
 <defs>
  <style type="text/css">*{stroke-linecap:butt;stroke-linejoin:round;}</style>
 </defs>
 <g id="figure_1">
  <g id="patch_1">
   <path d="M 0 322.334688 
L 596.082813 322.334688 
L 596.082813 0 
L 0 0 
z
" style="fill:#ffffff;"/>
  </g>
  <g id="axes_1">
   <g id="patch_2">
    <path d="M 30.882812 298.989375 
L 588.882812 298.989375 
L 588.882812 21.789375 
L 30.882812 21.789375 
z
" style="fill:#ffffff;"/>
   </g>
   <g id="matplotlib.axis_1">
    <g id="xtick_1">
     <g id="line2d_1">
      <path clip-path="url(#p3575d7e0d2)" d="M 33.756525 298.989375 
L 33.756525 21.789375 
" style="fill:none;stroke:#cccccc;stroke-linecap:round;stroke-width:0.8;"/>
     </g>
     <g id="text_1">
      <!-- 2020-03 -->
      <g style="fill:#262626;" transform="translate(15.408869 313.147188)scale(0.1 -0.1)">
       <defs>
        <path d="M 3222 541 
L 3222 0 
L 194 0 
Q 188 203 259 391 
Q 375 700 629 1000 
Q 884 1300 1366 1694 
Q 2113 2306 2375 2664 
Q 2638 3022 2638 3341 
Q 2638 3675 2398 3904 
Q 2159 4134 1775 4134 
Q 1369 4134 1125 3890 
Q 881 3647 878 3216 
L 300 3275 
Q 359 3922 746 4261 
Q 1134 4600 1788 4600 
Q 2447 4600 2831 4234 
Q 3216 3869 3216 3328 
Q 3216 3053 3103 2787 
Q 2991 2522 2730 2228 
Q 2469 1934 1863 1422 
Q 1356 997 1212 845 
Q 1069 694 975 541 
L 3222 541 
z
" id="ArialMT-32" transform="scale(0.015625)"/>
        <path d="M 266 2259 
Q 266 3072 433 3567 
Q 600 4063 929 4331 
Q 1259 4600 1759 4600 
Q 2128 4600 2406 4451 
Q 2684 4303 2865 4023 
Q 3047 3744 3150 3342 
Q 3253 2941 3253 2259 
Q 3253 1453 3087 958 
Q 2922 463 2592 192 
Q 2263 -78 1759 -78 
Q 1097 -78 719 397 
Q 266 969 266 2259 
z
M 844 2259 
Q 844 1131 1108 757 
Q 1372 384 1759 384 
Q 2147 384 2411 759 
Q 2675 1134 2675 2259 
Q 2675 3391 2411 3762 
Q 2147 4134 1753 4134 
Q 1366 4134 1134 3806 
Q 844 3388 844 2259 
z
" id="ArialMT-30" transform="scale(0.015625)"/>
        <path d="M 203 1375 
L 203 1941 
L 1931 1941 
L 1931 1375 
L 203 1375 
z
" id="ArialMT-2d" transform="scale(0.015625)"/>
        <path d="M 269 1209 
L 831 1284 
Q 928 806 1161 595 
Q 1394 384 1728 384 
Q 2125 384 2398 659 
Q 2672 934 2672 1341 
Q 2672 1728 2419 1979 
Q 2166 2231 1775 2231 
Q 1616 2231 1378 2169 
L 1441 2663 
Q 1497 2656 1531 2656 
Q 1891 2656 2178 2843 
Q 2466 3031 2466 3422 
Q 2466 3731 2256 3934 
Q 2047 4138 1716 4138 
Q 1388 4138 1169 3931 
Q 950 3725 888 3313 
L 325 3413 
Q 428 3978 793 4289 
Q 1159 4600 1703 4600 
Q 2078 4600 2393 4439 
Q 2709 4278 2876 4000 
Q 3044 3722 3044 3409 
Q 3044 3113 2884 2869 
Q 2725 2625 2413 2481 
Q 2819 2388 3044 2092 
Q 3269 1797 3269 1353 
Q 3269 753 2831 336 
Q 2394 -81 1725 -81 
Q 1122 -81 723 278 
Q 325 638 269 1209 
z
" id="ArialMT-33" transform="scale(0.015625)"/>
       </defs>
       <use xlink:href="#ArialMT-32"/>
       <use x="55.615234" xlink:href="#ArialMT-30"/>
       <use x="111.230469" xlink:href="#ArialMT-32"/>
       <use x="166.845703" xlink:href="#ArialMT-30"/>
       <use x="222.460938" xlink:href="#ArialMT-2d"/>
       <use x="255.761719" xlink:href="#ArialMT-30"/>
       <use x="311.376953" xlink:href="#ArialMT-33"/>
      </g>
     </g>
    </g>
    <g id="xtick_2">
     <g id="line2d_2">
      <path clip-path="url(#p3575d7e0d2)" d="M 109.972378 298.989375 
L 109.972378 21.789375 
" style="fill:none;stroke:#cccccc;stroke-linecap:round;stroke-width:0.8;"/>
     </g>
     <g id="text_2">
      <!-- 2020-05 -->
      <g style="fill:#262626;" transform="translate(91.624722 313.147188)scale(0.1 -0.1)">
       <defs>
        <path d="M 266 1200 
L 856 1250 
Q 922 819 1161 601 
Q 1400 384 1738 384 
Q 2144 384 2425 690 
Q 2706 997 2706 1503 
Q 2706 1984 2436 2262 
Q 2166 2541 1728 2541 
Q 1456 2541 1237 2417 
Q 1019 2294 894 2097 
L 366 2166 
L 809 4519 
L 3088 4519 
L 3088 3981 
L 1259 3981 
L 1013 2750 
Q 1425 3038 1878 3038 
Q 2478 3038 2890 2622 
Q 3303 2206 3303 1553 
Q 3303 931 2941 478 
Q 2500 -78 1738 -78 
Q 1113 -78 717 272 
Q 322 622 266 1200 
z
" id="ArialMT-35" transform="scale(0.015625)"/>
       </defs>
       <use xlink:href="#ArialMT-32"/>
       <use x="55.615234" xlink:href="#ArialMT-30"/>
       <use x="111.230469" xlink:href="#ArialMT-32"/>
       <use x="166.845703" xlink:href="#ArialMT-30"/>
       <use x="222.460938" xlink:href="#ArialMT-2d"/>
       <use x="255.761719" xlink:href="#ArialMT-30"/>
       <use x="311.376953" xlink:href="#ArialMT-35"/>
      </g>
     </g>
    </g>
    <g id="xtick_3">
     <g id="line2d_3">
      <path clip-path="url(#p3575d7e0d2)" d="M 186.188231 298.989375 
L 186.188231 21.789375 
" style="fill:none;stroke:#cccccc;stroke-linecap:round;stroke-width:0.8;"/>
     </g>
     <g id="text_3">
      <!-- 2020-07 -->
      <g style="fill:#262626;" transform="translate(167.840575 313.147188)scale(0.1 -0.1)">
       <defs>
        <path d="M 303 3981 
L 303 4522 
L 3269 4522 
L 3269 4084 
Q 2831 3619 2401 2847 
Q 1972 2075 1738 1259 
Q 1569 684 1522 0 
L 944 0 
Q 953 541 1156 1306 
Q 1359 2072 1739 2783 
Q 2119 3494 2547 3981 
L 303 3981 
z
" id="ArialMT-37" transform="scale(0.015625)"/>
       </defs>
       <use xlink:href="#ArialMT-32"/>
       <use x="55.615234" xlink:href="#ArialMT-30"/>
       <use x="111.230469" xlink:href="#ArialMT-32"/>
       <use x="166.845703" xlink:href="#ArialMT-30"/>
       <use x="222.460938" xlink:href="#ArialMT-2d"/>
       <use x="255.761719" xlink:href="#ArialMT-30"/>
       <use x="311.376953" xlink:href="#ArialMT-37"/>
      </g>
     </g>
    </g>
    <g id="xtick_4">
     <g id="line2d_4">
      <path clip-path="url(#p3575d7e0d2)" d="M 263.653525 298.989375 
L 263.653525 21.789375 
" style="fill:none;stroke:#cccccc;stroke-linecap:round;stroke-width:0.8;"/>
     </g>
     <g id="text_4">
      <!-- 2020-09 -->
      <g style="fill:#262626;" transform="translate(245.305868 313.147188)scale(0.1 -0.1)">
       <defs>
        <path d="M 350 1059 
L 891 1109 
Q 959 728 1153 556 
Q 1347 384 1650 384 
Q 1909 384 2104 503 
Q 2300 622 2425 820 
Q 2550 1019 2634 1356 
Q 2719 1694 2719 2044 
Q 2719 2081 2716 2156 
Q 2547 1888 2255 1720 
Q 1963 1553 1622 1553 
Q 1053 1553 659 1965 
Q 266 2378 266 3053 
Q 266 3750 677 4175 
Q 1088 4600 1706 4600 
Q 2153 4600 2523 4359 
Q 2894 4119 3086 3673 
Q 3278 3228 3278 2384 
Q 3278 1506 3087 986 
Q 2897 466 2520 194 
Q 2144 -78 1638 -78 
Q 1100 -78 759 220 
Q 419 519 350 1059 
z
M 2653 3081 
Q 2653 3566 2395 3850 
Q 2138 4134 1775 4134 
Q 1400 4134 1122 3828 
Q 844 3522 844 3034 
Q 844 2597 1108 2323 
Q 1372 2050 1759 2050 
Q 2150 2050 2401 2323 
Q 2653 2597 2653 3081 
z
" id="ArialMT-39" transform="scale(0.015625)"/>
       </defs>
       <use xlink:href="#ArialMT-32"/>
       <use x="55.615234" xlink:href="#ArialMT-30"/>
       <use x="111.230469" xlink:href="#ArialMT-32"/>
       <use x="166.845703" xlink:href="#ArialMT-30"/>
       <use x="222.460938" xlink:href="#ArialMT-2d"/>
       <use x="255.761719" xlink:href="#ArialMT-30"/>
       <use x="311.376953" xlink:href="#ArialMT-39"/>
      </g>
     </g>
    </g>
    <g id="xtick_5">
     <g id="line2d_5">
      <path clip-path="url(#p3575d7e0d2)" d="M 339.869378 298.989375 
L 339.869378 21.789375 
" style="fill:none;stroke:#cccccc;stroke-linecap:round;stroke-width:0.8;"/>
     </g>
     <g id="text_5">
      <!-- 2020-11 -->
      <g style="fill:#262626;" transform="translate(321.890471 313.147188)scale(0.1 -0.1)">
       <defs>
        <path d="M 2384 0 
L 1822 0 
L 1822 3584 
Q 1619 3391 1289 3197 
Q 959 3003 697 2906 
L 697 3450 
Q 1169 3672 1522 3987 
Q 1875 4303 2022 4600 
L 2384 4600 
L 2384 0 
z
" id="ArialMT-31" transform="scale(0.015625)"/>
       </defs>
       <use xlink:href="#ArialMT-32"/>
       <use x="55.615234" xlink:href="#ArialMT-30"/>
       <use x="111.230469" xlink:href="#ArialMT-32"/>
       <use x="166.845703" xlink:href="#ArialMT-30"/>
       <use x="222.460938" xlink:href="#ArialMT-2d"/>
       <use x="255.761719" xlink:href="#ArialMT-31"/>
       <use x="304.001953" xlink:href="#ArialMT-31"/>
      </g>
     </g>
    </g>
    <g id="xtick_6">
     <g id="line2d_6">
      <path clip-path="url(#p3575d7e0d2)" d="M 416.085231 298.989375 
L 416.085231 21.789375 
" style="fill:none;stroke:#cccccc;stroke-linecap:round;stroke-width:0.8;"/>
     </g>
     <g id="text_6">
      <!-- 2021-01 -->
      <g style="fill:#262626;" transform="translate(397.737575 313.147188)scale(0.1 -0.1)">
       <use xlink:href="#ArialMT-32"/>
       <use x="55.615234" xlink:href="#ArialMT-30"/>
       <use x="111.230469" xlink:href="#ArialMT-32"/>
       <use x="166.845703" xlink:href="#ArialMT-31"/>
       <use x="222.460938" xlink:href="#ArialMT-2d"/>
       <use x="255.761719" xlink:href="#ArialMT-30"/>
       <use x="311.376953" xlink:href="#ArialMT-31"/>
      </g>
     </g>
    </g>
    <g id="xtick_7">
     <g id="line2d_7">
      <path clip-path="url(#p3575d7e0d2)" d="M 489.802203 298.989375 
L 489.802203 21.789375 
" style="fill:none;stroke:#cccccc;stroke-linecap:round;stroke-width:0.8;"/>
     </g>
     <g id="text_7">
      <!-- 2021-03 -->
      <g style="fill:#262626;" transform="translate(471.454547 313.147188)scale(0.1 -0.1)">
       <use xlink:href="#ArialMT-32"/>
       <use x="55.615234" xlink:href="#ArialMT-30"/>
       <use x="111.230469" xlink:href="#ArialMT-32"/>
       <use x="166.845703" xlink:href="#ArialMT-31"/>
       <use x="222.460938" xlink:href="#ArialMT-2d"/>
       <use x="255.761719" xlink:href="#ArialMT-30"/>
       <use x="311.376953" xlink:href="#ArialMT-33"/>
      </g>
     </g>
    </g>
    <g id="xtick_8">
     <g id="line2d_8">
      <path clip-path="url(#p3575d7e0d2)" d="M 566.018057 298.989375 
L 566.018057 21.789375 
" style="fill:none;stroke:#cccccc;stroke-linecap:round;stroke-width:0.8;"/>
     </g>
     <g id="text_8">
      <!-- 2021-05 -->
      <g style="fill:#262626;" transform="translate(547.6704 313.147188)scale(0.1 -0.1)">
       <use xlink:href="#ArialMT-32"/>
       <use x="55.615234" xlink:href="#ArialMT-30"/>
       <use x="111.230469" xlink:href="#ArialMT-32"/>
       <use x="166.845703" xlink:href="#ArialMT-31"/>
       <use x="222.460938" xlink:href="#ArialMT-2d"/>
       <use x="255.761719" xlink:href="#ArialMT-30"/>
       <use x="311.376953" xlink:href="#ArialMT-35"/>
      </g>
     </g>
    </g>
   </g>
   <g id="matplotlib.axis_2">
    <g id="ytick_1">
     <g id="line2d_9">
      <path clip-path="url(#p3575d7e0d2)" d="M 30.882812 286.389375 
L 588.882812 286.389375 
" style="fill:none;stroke:#cccccc;stroke-linecap:round;stroke-width:0.8;"/>
     </g>
     <g id="text_9">
      <!-- 0 -->
      <g style="fill:#262626;" transform="translate(18.321875 289.968281)scale(0.1 -0.1)">
       <use xlink:href="#ArialMT-30"/>
      </g>
     </g>
    </g>
    <g id="ytick_2">
     <g id="line2d_10">
      <path clip-path="url(#p3575d7e0d2)" d="M 30.882812 248.664824 
L 588.882812 248.664824 
" style="fill:none;stroke:#cccccc;stroke-linecap:round;stroke-width:0.8;"/>
     </g>
     <g id="text_10">
      <!-- 50 -->
      <g style="fill:#262626;" transform="translate(12.760937 252.24373)scale(0.1 -0.1)">
       <use xlink:href="#ArialMT-35"/>
       <use x="55.615234" xlink:href="#ArialMT-30"/>
      </g>
     </g>
    </g>
    <g id="ytick_3">
     <g id="line2d_11">
      <path clip-path="url(#p3575d7e0d2)" d="M 30.882812 210.940273 
L 588.882812 210.940273 
" style="fill:none;stroke:#cccccc;stroke-linecap:round;stroke-width:0.8;"/>
     </g>
     <g id="text_11">
      <!-- 100 -->
      <g style="fill:#262626;" transform="translate(7.2 214.519179)scale(0.1 -0.1)">
       <use xlink:href="#ArialMT-31"/>
       <use x="55.615234" xlink:href="#ArialMT-30"/>
       <use x="111.230469" xlink:href="#ArialMT-30"/>
      </g>
     </g>
    </g>
    <g id="ytick_4">
     <g id="line2d_12">
      <path clip-path="url(#p3575d7e0d2)" d="M 30.882812 173.215722 
L 588.882812 173.215722 
" style="fill:none;stroke:#cccccc;stroke-linecap:round;stroke-width:0.8;"/>
     </g>
     <g id="text_12">
      <!-- 150 -->
      <g style="fill:#262626;" transform="translate(7.2 176.794629)scale(0.1 -0.1)">
       <use xlink:href="#ArialMT-31"/>
       <use x="55.615234" xlink:href="#ArialMT-35"/>
       <use x="111.230469" xlink:href="#ArialMT-30"/>
      </g>
     </g>
    </g>
    <g id="ytick_5">
     <g id="line2d_13">
      <path clip-path="url(#p3575d7e0d2)" d="M 30.882812 135.491171 
L 588.882812 135.491171 
" style="fill:none;stroke:#cccccc;stroke-linecap:round;stroke-width:0.8;"/>
     </g>
     <g id="text_13">
      <!-- 200 -->
      <g style="fill:#262626;" transform="translate(7.2 139.070078)scale(0.1 -0.1)">
       <use xlink:href="#ArialMT-32"/>
       <use x="55.615234" xlink:href="#ArialMT-30"/>
       <use x="111.230469" xlink:href="#ArialMT-30"/>
      </g>
     </g>
    </g>
    <g id="ytick_6">
     <g id="line2d_14">
      <path clip-path="url(#p3575d7e0d2)" d="M 30.882812 97.766621 
L 588.882812 97.766621 
" style="fill:none;stroke:#cccccc;stroke-linecap:round;stroke-width:0.8;"/>
     </g>
     <g id="text_14">
      <!-- 250 -->
      <g style="fill:#262626;" transform="translate(7.2 101.345527)scale(0.1 -0.1)">
       <use xlink:href="#ArialMT-32"/>
       <use x="55.615234" xlink:href="#ArialMT-35"/>
       <use x="111.230469" xlink:href="#ArialMT-30"/>
      </g>
     </g>
    </g>
    <g id="ytick_7">
     <g id="line2d_15">
      <path clip-path="url(#p3575d7e0d2)" d="M 30.882812 60.04207 
L 588.882812 60.04207 
" style="fill:none;stroke:#cccccc;stroke-linecap:round;stroke-width:0.8;"/>
     </g>
     <g id="text_15">
      <!-- 300 -->
      <g style="fill:#262626;" transform="translate(7.2 63.620976)scale(0.1 -0.1)">
       <use xlink:href="#ArialMT-33"/>
       <use x="55.615234" xlink:href="#ArialMT-30"/>
       <use x="111.230469" xlink:href="#ArialMT-30"/>
      </g>
     </g>
    </g>
    <g id="ytick_8">
     <g id="line2d_16">
      <path clip-path="url(#p3575d7e0d2)" d="M 30.882812 22.317519 
L 588.882812 22.317519 
" style="fill:none;stroke:#cccccc;stroke-linecap:round;stroke-width:0.8;"/>
     </g>
     <g id="text_16">
      <!-- 350 -->
      <g style="fill:#262626;" transform="translate(7.2 25.896425)scale(0.1 -0.1)">
       <use xlink:href="#ArialMT-33"/>
       <use x="55.615234" xlink:href="#ArialMT-35"/>
       <use x="111.230469" xlink:href="#ArialMT-30"/>
      </g>
     </g>
    </g>
   </g>
   <g id="line2d_17">
    <path clip-path="url(#p3575d7e0d2)" d="M 56.246449 278.089974 
L 57.495889 278.089974 
L 58.745329 276.580992 
L 59.99477 276.580992 
L 61.24421 269.036082 
L 62.49365 255.455243 
L 63.74309 254.700752 
L 64.99253 251.682788 
L 66.241971 247.155842 
L 67.491411 246.401351 
L 68.740851 246.401351 
L 69.990291 245.64686 
L 71.239731 242.628896 
L 72.489172 226.030094 
L 73.738612 224.521112 
L 74.988052 224.521112 
L 76.237492 201.886381 
L 77.486933 200.377399 
L 78.736373 213.958237 
L 79.985813 210.185782 
L 81.235253 204.149854 
L 82.484693 202.640872 
L 83.734134 199.622908 
L 84.983574 199.622908 
L 86.233014 198.113926 
L 87.482454 186.796561 
L 88.731894 185.287579 
L 89.981335 189.060034 
L 91.230775 176.233686 
L 92.480215 173.215722 
L 93.729655 170.952249 
L 94.979096 167.179794 
L 96.228536 176.988177 
L 97.477976 176.988177 
L 98.727416 173.970213 
L 99.976856 167.934285 
L 101.226297 142.281591 
L 102.475737 140.772609 
L 103.725177 176.233686 
L 104.974617 178.497159 
L 106.224057 181.515124 
L 107.473498 176.233686 
L 108.722938 181.515124 
L 109.972378 173.215722 
L 111.221818 168.688776 
L 112.471259 169.443267 
L 113.720699 167.179794 
L 114.970139 161.143866 
L 116.219579 158.125902 
L 117.469019 162.652848 
L 118.71846 165.670812 
L 119.9679 161.143866 
L 121.21734 158.125902 
L 122.46678 161.898357 
L 123.71622 146.054046 
L 124.965661 152.844465 
L 126.215101 149.826501 
L 127.464541 146.054046 
L 128.713981 152.089974 
L 129.963422 140.772609 
L 131.212862 139.263626 
L 132.462302 141.5271 
L 133.711742 133.982189 
L 134.961182 137.000153 
L 136.210623 139.263626 
L 137.460063 140.772609 
L 138.709503 138.509135 
L 139.958943 137.754644 
L 141.208383 133.227698 
L 142.457824 134.73668 
L 143.707264 135.491171 
L 144.956704 123.419315 
L 146.206144 122.664824 
L 147.455585 124.173806 
L 148.705025 129.455243 
L 149.954465 129.455243 
L 151.203905 128.700752 
L 152.453345 127.19177 
L 153.702786 122.664824 
L 154.952226 122.664824 
L 156.201666 110.592968 
L 157.451106 115.874405 
L 158.700546 109.083986 
L 159.949987 114.365423 
L 161.199427 106.820513 
L 162.448867 109.838477 
L 163.698307 103.802549 
L 164.947748 112.856441 
L 166.197188 120.401351 
L 167.446628 122.664824 
L 168.696068 126.437279 
L 169.945508 130.964225 
L 171.194949 127.946261 
L 172.444389 122.664824 
L 173.693829 121.910333 
L 174.943269 118.892369 
L 176.192709 123.419315 
L 177.44215 135.491171 
L 178.69159 137.000153 
L 179.94103 131.718716 
L 181.19047 134.73668 
L 182.439911 141.5271 
L 183.689351 144.545064 
L 184.938791 150.580992 
L 186.188231 150.580992 
L 187.437671 156.61692 
L 188.687112 149.07201 
L 189.936552 152.844465 
L 191.185992 154.353447 
L 192.435432 157.371411 
L 193.684873 148.317519 
L 194.934313 164.916321 
L 196.183753 162.652848 
L 197.433193 161.898357 
L 198.682633 166.425303 
L 199.932074 171.70674 
L 201.181514 170.197758 
L 202.430954 149.826501 
L 203.680394 161.898357 
L 204.929834 153.598956 
L 206.179275 148.317519 
L 207.428715 156.61692 
L 208.678155 154.353447 
L 211.177036 158.880393 
L 212.426476 154.353447 
L 213.675916 157.371411 
L 214.925356 152.844465 
L 216.174796 154.353447 
L 218.673677 158.880393 
L 219.923117 163.407339 
L 221.172557 170.952249 
L 222.421997 173.215722 
L 223.671438 173.970213 
L 224.920878 177.742668 
L 226.170318 180.006141 
L 227.419758 177.742668 
L 228.669199 184.533088 
L 229.918639 188.305543 
L 231.168079 196.604944 
L 232.417519 194.341471 
L 233.666959 195.850453 
L 234.9164 208.6768 
L 236.16584 203.395363 
L 237.41528 207.167818 
L 238.66472 211.694764 
L 239.91416 208.6768 
L 241.163601 207.922309 
L 242.413041 204.904345 
L 243.662481 203.395363 
L 244.911921 202.640872 
L 246.161362 189.814525 
L 247.410802 198.113926 
L 249.909682 207.167818 
L 251.159122 204.904345 
L 252.408563 214.712728 
L 253.658003 215.467219 
L 254.907443 213.203746 
L 256.156883 215.467219 
L 257.406323 219.239674 
L 258.655764 213.203746 
L 259.905204 221.503147 
L 261.154644 207.167818 
L 262.404084 197.359435 
L 263.653525 195.850453 
L 264.902965 199.622908 
L 266.152405 201.13189 
L 267.401845 201.13189 
L 268.651285 203.395363 
L 269.900726 203.395363 
L 271.150166 211.694764 
L 272.399606 210.185782 
L 273.649046 200.377399 
L 274.898486 203.395363 
L 276.147927 200.377399 
L 277.397367 199.622908 
L 278.646807 200.377399 
L 279.896247 203.395363 
L 282.395128 212.449255 
L 283.644568 213.203746 
L 284.894008 210.940273 
L 286.143448 209.431291 
L 288.642329 210.940273 
L 289.891769 217.730692 
L 291.141209 217.730692 
L 292.390649 231.311531 
L 293.64009 229.048058 
L 294.88953 227.539076 
L 296.13897 223.012129 
L 297.38841 221.503147 
L 298.637851 222.257638 
L 299.887291 219.239674 
L 301.136731 223.012129 
L 302.386171 222.257638 
L 303.635611 217.730692 
L 304.885052 219.239674 
L 306.134492 219.994165 
L 307.383932 214.712728 
L 308.633372 210.940273 
L 309.882813 213.203746 
L 311.132253 210.185782 
L 312.381693 212.449255 
L 313.631133 209.431291 
L 314.880573 214.712728 
L 316.130014 215.467219 
L 317.379454 214.712728 
L 318.628894 212.449255 
L 319.878334 213.958237 
L 321.127774 216.976201 
L 322.377215 216.22171 
L 323.626655 216.22171 
L 324.876095 213.203746 
L 326.125535 207.167818 
L 327.374976 204.904345 
L 328.624416 205.658836 
L 329.873856 207.922309 
L 331.123296 204.149854 
L 332.372736 204.149854 
L 333.622177 201.886381 
L 334.871617 195.095962 
L 336.121057 196.604944 
L 337.370497 193.58698 
L 338.619937 193.58698 
L 339.869378 190.569016 
L 341.118818 186.796561 
L 342.368258 180.760632 
L 343.617698 189.060034 
L 344.867139 194.341471 
L 346.116579 189.060034 
L 347.366019 183.024106 
L 348.615459 186.04207 
L 349.864899 179.25165 
L 351.11434 174.724704 
L 352.36378 164.916321 
L 353.61322 166.425303 
L 354.86266 169.443267 
L 356.1121 173.970213 
L 357.361541 173.215722 
L 358.610981 168.688776 
L 359.860421 169.443267 
L 361.109861 153.598956 
L 362.359302 149.826501 
L 363.608742 152.089974 
L 364.858182 138.509135 
L 366.107622 139.263626 
L 367.357062 143.790573 
L 368.606503 137.754644 
L 369.855943 132.473207 
L 371.105383 132.473207 
L 372.354823 134.73668 
L 373.604263 127.946261 
L 374.853704 138.509135 
L 376.103144 142.281591 
L 377.352584 147.563028 
L 378.602024 140.018118 
L 379.851465 141.5271 
L 381.100905 149.07201 
L 382.350345 145.299555 
L 383.599785 155.862429 
L 384.849225 164.916321 
L 386.098666 155.862429 
L 387.348106 142.281591 
L 388.597546 154.353447 
L 389.846986 150.580992 
L 391.096426 149.07201 
L 392.345867 155.862429 
L 396.094187 171.70674 
L 397.343628 170.197758 
L 398.593068 169.443267 
L 399.842508 174.724704 
L 401.091948 178.497159 
L 402.341388 173.970213 
L 403.590829 170.952249 
L 404.840269 170.952249 
L 406.089709 175.479195 
L 407.339149 182.269615 
L 408.588589 184.533088 
L 409.83803 178.497159 
L 411.08747 177.742668 
L 412.33691 173.215722 
L 413.58635 175.479195 
L 414.835791 173.970213 
L 416.085231 183.778597 
L 417.334671 180.760632 
L 418.584111 187.551052 
L 419.833551 197.359435 
L 421.082992 195.850453 
L 422.332432 195.095962 
L 423.581872 196.604944 
L 424.831312 192.832489 
L 427.330193 194.341471 
L 428.579633 184.533088 
L 429.829073 187.551052 
L 431.078513 179.25165 
L 432.327954 180.006141 
L 433.577394 176.233686 
L 436.076274 185.287579 
L 437.325714 178.497159 
L 438.575155 181.515124 
L 439.824595 187.551052 
L 441.074035 195.850453 
L 442.323475 189.060034 
L 443.572916 192.832489 
L 444.822356 189.814525 
L 446.071796 199.622908 
L 447.321236 204.149854 
L 448.570676 195.095962 
L 449.820117 201.13189 
L 451.069557 196.604944 
L 452.318997 201.886381 
L 453.568437 204.149854 
L 454.817877 195.095962 
L 456.067318 194.341471 
L 457.316758 191.323507 
L 458.566198 196.604944 
L 459.815638 195.850453 
L 461.065079 196.604944 
L 462.314519 200.377399 
L 463.563959 203.395363 
L 464.813399 210.185782 
L 466.062839 210.940273 
L 467.31228 209.431291 
L 468.56172 206.413327 
L 469.81116 216.976201 
L 471.0606 216.22171 
L 472.31004 206.413327 
L 473.559481 203.395363 
L 474.808921 214.712728 
L 476.058361 214.712728 
L 477.307801 211.694764 
L 478.557242 213.958237 
L 479.806682 209.431291 
L 481.056122 202.640872 
L 482.305562 198.113926 
L 483.555002 201.13189 
L 484.804443 191.323507 
L 486.053883 192.077998 
L 487.303323 205.658836 
L 488.552763 189.060034 
L 489.802203 180.760632 
L 491.051644 186.796561 
L 492.301084 178.497159 
L 493.550524 180.006141 
L 494.799964 177.742668 
L 496.049405 186.796561 
L 497.298845 183.778597 
L 498.548285 173.970213 
L 499.797725 169.443267 
L 502.296606 161.898357 
L 504.795486 148.317519 
L 506.044926 139.263626 
L 507.294366 133.982189 
L 508.543807 118.892369 
L 509.793247 115.874405 
L 511.042687 112.10195 
L 512.292127 106.820513 
L 513.541568 95.503147 
L 514.791008 81.922309 
L 516.040448 74.377399 
L 517.289888 64.569016 
L 518.539328 57.778597 
L 519.788769 39.670812 
L 521.038209 49.479195 
L 522.287649 40.425303 
L 523.537089 44.197758 
L 524.786529 44.197758 
L 526.03597 34.389375 
L 527.28541 35.898357 
L 528.53485 41.179794 
L 529.78429 37.407339 
L 531.033731 42.688776 
L 532.283171 44.197758 
L 533.532611 41.179794 
L 534.782051 45.70674 
L 536.031491 46.461231 
L 537.280932 56.269615 
L 538.530372 55.515124 
L 539.779812 81.922309 
L 541.029252 87.958237 
L 542.278692 78.904345 
L 543.528133 87.203746 
L 544.777573 84.940273 
L 546.027013 81.922309 
L 547.276453 91.730692 
L 548.525894 78.904345 
L 549.775334 97.012129 
L 551.024774 89.467219 
L 552.274214 90.976201 
L 553.523654 99.275603 
L 554.773095 109.083986 
L 556.022535 109.838477 
L 557.271975 118.892369 
L 558.521415 125.682788 
L 559.770855 122.664824 
L 561.020296 127.19177 
L 562.269736 136.245662 
L 563.519176 133.227698 
L 563.519176 133.227698 
" style="fill:none;stroke:#1f77b4;stroke-linecap:round;stroke-width:1.5;"/>
   </g>
   <g id="line2d_18">
    <path clip-path="url(#p3575d7e0d2)" d="M 56.246449 286.389375 
L 57.495889 286.389375 
L 58.745329 281.107938 
L 59.99477 281.107938 
L 61.24421 279.598956 
L 62.49365 272.054046 
L 63.74309 272.808537 
L 64.99253 269.790573 
L 69.990291 269.790573 
L 71.239731 270.545064 
L 72.489172 267.5271 
L 73.738612 269.036082 
L 74.988052 268.281591 
L 76.237492 265.263626 
L 77.486933 265.263626 
L 78.736373 261.491171 
L 79.985813 258.473207 
L 81.235253 258.473207 
L 82.484693 262.245662 
L 84.983574 262.245662 
L 86.233014 261.491171 
L 87.482454 257.718716 
L 88.731894 259.982189 
L 89.981335 264.509135 
L 91.230775 258.473207 
L 92.480215 253.19177 
L 93.729655 252.437279 
L 94.979096 245.64686 
L 96.228536 250.173806 
L 97.477976 248.664824 
L 98.727416 245.64686 
L 99.976856 238.856441 
L 101.226297 235.083986 
L 102.475737 232.820513 
L 103.725177 238.856441 
L 104.974617 238.856441 
L 107.473498 241.874405 
L 108.722938 238.856441 
L 109.972378 233.575004 
L 111.221818 231.311531 
L 112.471259 229.802549 
L 113.720699 230.55704 
L 114.970139 225.275603 
L 116.219579 225.275603 
L 117.469019 232.820513 
L 118.71846 234.329495 
L 119.9679 229.048058 
L 121.21734 229.048058 
L 123.71622 232.066022 
L 124.965661 236.592968 
L 126.215101 233.575004 
L 127.464541 231.311531 
L 128.713981 235.838477 
L 129.963422 229.048058 
L 131.212862 229.048058 
L 132.462302 227.539076 
L 133.711742 230.55704 
L 134.961182 226.030094 
L 136.210623 226.030094 
L 137.460063 222.257638 
L 138.709503 223.012129 
L 141.208383 221.503147 
L 142.457824 228.293567 
L 143.707264 230.55704 
L 144.956704 225.275603 
L 146.206144 229.048058 
L 147.455585 225.275603 
L 148.705025 220.748656 
L 149.954465 219.239674 
L 151.203905 218.485183 
L 152.453345 221.503147 
L 153.702786 219.239674 
L 154.952226 219.239674 
L 156.201666 214.712728 
L 157.451106 216.976201 
L 158.700546 215.467219 
L 159.949987 215.467219 
L 161.199427 207.922309 
L 162.448867 211.694764 
L 163.698307 216.976201 
L 164.947748 219.239674 
L 166.197188 212.449255 
L 167.446628 216.976201 
L 168.696068 223.012129 
L 169.945508 225.275603 
L 172.444389 223.766621 
L 173.693829 219.239674 
L 174.943269 221.503147 
L 176.192709 219.994165 
L 177.44215 223.012129 
L 178.69159 222.257638 
L 179.94103 223.012129 
L 181.19047 227.539076 
L 182.439911 234.329495 
L 183.689351 233.575004 
L 184.938791 230.55704 
L 186.188231 231.311531 
L 187.437671 234.329495 
L 188.687112 232.066022 
L 189.936552 230.55704 
L 191.185992 231.311531 
L 192.435432 231.311531 
L 193.684873 229.802549 
L 194.934313 236.592968 
L 196.183753 236.592968 
L 197.433193 235.838477 
L 198.682633 238.856441 
L 199.932074 240.365423 
L 201.181514 236.592968 
L 202.430954 231.311531 
L 203.680394 233.575004 
L 204.929834 227.539076 
L 206.179275 230.55704 
L 207.428715 236.592968 
L 208.678155 238.856441 
L 209.927595 237.347459 
L 211.177036 237.347459 
L 212.426476 238.856441 
L 213.675916 233.575004 
L 214.925356 235.083986 
L 216.174796 237.347459 
L 217.424237 237.347459 
L 218.673677 233.575004 
L 219.923117 233.575004 
L 221.172557 238.10195 
L 222.421997 238.10195 
L 223.671438 238.856441 
L 224.920878 241.874405 
L 226.170318 243.383387 
L 227.419758 244.137878 
L 228.669199 246.401351 
L 229.918639 250.173806 
L 231.168079 249.419315 
L 232.417519 246.401351 
L 233.666959 247.155842 
L 234.9164 252.437279 
L 236.16584 252.437279 
L 237.41528 251.682788 
L 238.66472 255.455243 
L 239.91416 254.700752 
L 241.163601 253.19177 
L 242.413041 250.173806 
L 243.662481 251.682788 
L 244.911921 251.682788 
L 246.161362 248.664824 
L 247.410802 253.946261 
L 248.660242 253.946261 
L 249.909682 258.473207 
L 251.159122 256.209734 
L 252.408563 259.227698 
L 253.658003 259.227698 
L 254.907443 259.982189 
L 256.156883 256.964225 
L 258.655764 256.964225 
L 259.905204 260.73668 
L 261.154644 254.700752 
L 262.404084 256.209734 
L 263.653525 252.437279 
L 264.902965 253.946261 
L 266.152405 253.19177 
L 267.401845 253.946261 
L 268.651285 251.682788 
L 269.900726 253.946261 
L 271.150166 255.455243 
L 272.399606 254.700752 
L 273.649046 250.173806 
L 274.898486 251.682788 
L 276.147927 247.910333 
L 277.397367 248.664824 
L 278.646807 253.19177 
L 279.896247 259.227698 
L 281.145688 255.455243 
L 282.395128 255.455243 
L 283.644568 256.209734 
L 284.894008 254.700752 
L 287.392889 256.209734 
L 288.642329 255.455243 
L 289.891769 256.964225 
L 291.141209 262.245662 
L 292.390649 261.491171 
L 293.64009 256.964225 
L 294.88953 257.718716 
L 296.13897 256.964225 
L 297.38841 254.700752 
L 298.637851 253.19177 
L 299.887291 253.19177 
L 301.136731 256.209734 
L 302.386171 257.718716 
L 303.635611 256.964225 
L 306.134492 256.964225 
L 307.383932 256.209734 
L 308.633372 254.700752 
L 309.882813 256.209734 
L 311.132253 256.964225 
L 312.381693 255.455243 
L 313.631133 254.700752 
L 314.880573 258.473207 
L 316.130014 261.491171 
L 317.379454 259.227698 
L 318.628894 261.491171 
L 319.878334 261.491171 
L 321.127774 259.982189 
L 322.377215 262.245662 
L 323.626655 258.473207 
L 324.876095 256.209734 
L 326.125535 255.455243 
L 327.374976 252.437279 
L 331.123296 252.437279 
L 333.622177 249.419315 
L 334.871617 246.401351 
L 336.121057 251.682788 
L 337.370497 251.682788 
L 338.619937 250.928297 
L 339.869378 249.419315 
L 341.118818 246.401351 
L 342.368258 247.155842 
L 344.867139 245.64686 
L 346.116579 244.137878 
L 347.366019 241.874405 
L 348.615459 244.892369 
L 349.864899 235.838477 
L 351.11434 233.575004 
L 352.36378 235.083986 
L 353.61322 234.329495 
L 354.86266 226.784585 
L 356.1121 234.329495 
L 357.361541 233.575004 
L 358.610981 235.838477 
L 359.860421 235.083986 
L 361.109861 227.539076 
L 362.359302 226.030094 
L 363.608742 226.030094 
L 364.858182 216.22171 
L 366.107622 219.994165 
L 367.357062 225.275603 
L 368.606503 221.503147 
L 369.855943 222.257638 
L 371.105383 222.257638 
L 372.354823 223.766621 
L 373.604263 223.012129 
L 374.853704 228.293567 
L 376.103144 229.048058 
L 377.352584 223.766621 
L 378.602024 220.748656 
L 379.851465 222.257638 
L 381.100905 226.784585 
L 382.350345 228.293567 
L 383.599785 226.784585 
L 384.849225 235.083986 
L 386.098666 229.048058 
L 387.348106 229.048058 
L 388.597546 225.275603 
L 389.846986 220.748656 
L 391.096426 223.766621 
L 392.345867 223.766621 
L 393.595307 229.048058 
L 394.844747 231.311531 
L 396.094187 229.048058 
L 397.343628 228.293567 
L 398.593068 231.311531 
L 399.842508 235.838477 
L 401.091948 232.820513 
L 402.341388 230.55704 
L 403.590829 232.066022 
L 404.840269 226.784585 
L 406.089709 232.066022 
L 407.339149 235.083986 
L 408.588589 235.083986 
L 409.83803 226.784585 
L 411.08747 235.083986 
L 412.33691 235.083986 
L 413.58635 238.856441 
L 414.835791 236.592968 
L 416.085231 235.083986 
L 417.334671 236.592968 
L 418.584111 237.347459 
L 419.833551 239.610932 
L 421.082992 241.119914 
L 422.332432 241.874405 
L 423.581872 243.383387 
L 424.831312 241.874405 
L 426.080752 238.856441 
L 427.330193 237.347459 
L 428.579633 232.820513 
L 429.829073 233.575004 
L 431.078513 228.293567 
L 432.327954 226.784585 
L 433.577394 223.766621 
L 434.826834 225.275603 
L 436.076274 227.539076 
L 438.575155 230.55704 
L 439.824595 231.311531 
L 441.074035 233.575004 
L 442.323475 232.066022 
L 443.572916 234.329495 
L 444.822356 229.048058 
L 446.071796 229.802549 
L 447.321236 232.066022 
L 448.570676 231.311531 
L 449.820117 236.592968 
L 453.568437 238.856441 
L 454.817877 235.838477 
L 456.067318 231.311531 
L 457.316758 235.838477 
L 458.566198 232.820513 
L 459.815638 236.592968 
L 461.065079 238.10195 
L 462.314519 242.628896 
L 463.563959 245.64686 
L 464.813399 247.155842 
L 466.062839 244.892369 
L 467.31228 245.64686 
L 468.56172 243.383387 
L 469.81116 250.928297 
L 471.0606 251.682788 
L 472.31004 240.365423 
L 473.559481 244.137878 
L 474.808921 242.628896 
L 476.058361 243.383387 
L 477.307801 239.610932 
L 478.557242 242.628896 
L 479.806682 244.137878 
L 481.056122 241.874405 
L 482.305562 243.383387 
L 483.555002 248.664824 
L 486.053883 239.610932 
L 487.303323 244.892369 
L 488.552763 240.365423 
L 489.802203 237.347459 
L 491.051644 239.610932 
L 492.301084 236.592968 
L 493.550524 236.592968 
L 494.799964 237.347459 
L 496.049405 243.383387 
L 497.298845 233.575004 
L 498.548285 236.592968 
L 499.797725 238.856441 
L 501.047165 232.066022 
L 502.296606 229.048058 
L 503.546046 223.766621 
L 504.795486 211.694764 
L 506.044926 204.904345 
L 507.294366 213.958237 
L 508.543807 201.886381 
L 509.793247 196.604944 
L 511.042687 198.113926 
L 512.292127 186.796561 
L 513.541568 190.569016 
L 514.791008 186.04207 
L 516.040448 187.551052 
L 517.289888 180.760632 
L 518.539328 177.742668 
L 519.788769 165.670812 
L 521.038209 163.407339 
L 522.287649 155.862429 
L 523.537089 151.335483 
L 524.786529 154.353447 
L 526.03597 152.089974 
L 527.28541 150.580992 
L 528.53485 147.563028 
L 531.033731 146.054046 
L 532.283171 149.07201 
L 533.532611 146.808537 
L 534.782051 146.054046 
L 537.280932 143.036082 
L 538.530372 144.545064 
L 539.779812 153.598956 
L 541.029252 153.598956 
L 543.528133 165.670812 
L 544.777573 162.652848 
L 546.027013 158.880393 
L 547.276453 168.688776 
L 548.525894 163.407339 
L 549.775334 172.461231 
L 552.274214 175.479195 
L 553.523654 180.760632 
L 554.773095 189.060034 
L 556.022535 189.814525 
L 557.271975 194.341471 
L 559.770855 192.832489 
L 561.020296 197.359435 
L 562.269736 202.640872 
L 563.519176 198.113926 
L 563.519176 198.113926 
" style="fill:none;stroke:#ff7f0e;stroke-linecap:round;stroke-width:1.5;"/>
   </g>
   <g id="patch_3">
    <path d="M 30.882812 298.989375 
L 30.882812 21.789375 
" style="fill:none;stroke:#cccccc;stroke-linecap:square;stroke-linejoin:miter;stroke-width:0.8;"/>
   </g>
   <g id="patch_4">
    <path d="M 588.882812 298.989375 
L 588.882812 21.789375 
" style="fill:none;stroke:#cccccc;stroke-linecap:square;stroke-linejoin:miter;stroke-width:0.8;"/>
   </g>
   <g id="patch_5">
    <path d="M 30.882813 298.989375 
L 588.882813 298.989375 
" style="fill:none;stroke:#cccccc;stroke-linecap:square;stroke-linejoin:miter;stroke-width:0.8;"/>
   </g>
   <g id="patch_6">
    <path d="M 30.882813 21.789375 
L 588.882813 21.789375 
" style="fill:none;stroke:#cccccc;stroke-linecap:square;stroke-linejoin:miter;stroke-width:0.8;"/>
   </g>
   <g id="text_17">
    <!-- Internações -->
    <g style="fill:#262626;" transform="translate(278.531875 15.789375)scale(0.12 -0.12)">
     <defs>
      <path d="M 597 0 
L 597 4581 
L 1203 4581 
L 1203 0 
L 597 0 
z
" id="ArialMT-49" transform="scale(0.015625)"/>
      <path d="M 422 0 
L 422 3319 
L 928 3319 
L 928 2847 
Q 1294 3394 1984 3394 
Q 2284 3394 2536 3286 
Q 2788 3178 2913 3003 
Q 3038 2828 3088 2588 
Q 3119 2431 3119 2041 
L 3119 0 
L 2556 0 
L 2556 2019 
Q 2556 2363 2490 2533 
Q 2425 2703 2258 2804 
Q 2091 2906 1866 2906 
Q 1506 2906 1245 2678 
Q 984 2450 984 1813 
L 984 0 
L 422 0 
z
" id="ArialMT-6e" transform="scale(0.015625)"/>
      <path d="M 1650 503 
L 1731 6 
Q 1494 -44 1306 -44 
Q 1000 -44 831 53 
Q 663 150 594 308 
Q 525 466 525 972 
L 525 2881 
L 113 2881 
L 113 3319 
L 525 3319 
L 525 4141 
L 1084 4478 
L 1084 3319 
L 1650 3319 
L 1650 2881 
L 1084 2881 
L 1084 941 
Q 1084 700 1114 631 
Q 1144 563 1211 522 
Q 1278 481 1403 481 
Q 1497 481 1650 503 
z
" id="ArialMT-74" transform="scale(0.015625)"/>
      <path d="M 2694 1069 
L 3275 997 
Q 3138 488 2766 206 
Q 2394 -75 1816 -75 
Q 1088 -75 661 373 
Q 234 822 234 1631 
Q 234 2469 665 2931 
Q 1097 3394 1784 3394 
Q 2450 3394 2872 2941 
Q 3294 2488 3294 1666 
Q 3294 1616 3291 1516 
L 816 1516 
Q 847 969 1125 678 
Q 1403 388 1819 388 
Q 2128 388 2347 550 
Q 2566 713 2694 1069 
z
M 847 1978 
L 2700 1978 
Q 2663 2397 2488 2606 
Q 2219 2931 1791 2931 
Q 1403 2931 1139 2672 
Q 875 2413 847 1978 
z
" id="ArialMT-65" transform="scale(0.015625)"/>
      <path d="M 416 0 
L 416 3319 
L 922 3319 
L 922 2816 
Q 1116 3169 1280 3281 
Q 1444 3394 1641 3394 
Q 1925 3394 2219 3213 
L 2025 2691 
Q 1819 2813 1613 2813 
Q 1428 2813 1281 2702 
Q 1134 2591 1072 2394 
Q 978 2094 978 1738 
L 978 0 
L 416 0 
z
" id="ArialMT-72" transform="scale(0.015625)"/>
      <path d="M 2588 409 
Q 2275 144 1986 34 
Q 1697 -75 1366 -75 
Q 819 -75 525 192 
Q 231 459 231 875 
Q 231 1119 342 1320 
Q 453 1522 633 1644 
Q 813 1766 1038 1828 
Q 1203 1872 1538 1913 
Q 2219 1994 2541 2106 
Q 2544 2222 2544 2253 
Q 2544 2597 2384 2738 
Q 2169 2928 1744 2928 
Q 1347 2928 1158 2789 
Q 969 2650 878 2297 
L 328 2372 
Q 403 2725 575 2942 
Q 747 3159 1072 3276 
Q 1397 3394 1825 3394 
Q 2250 3394 2515 3294 
Q 2781 3194 2906 3042 
Q 3031 2891 3081 2659 
Q 3109 2516 3109 2141 
L 3109 1391 
Q 3109 606 3145 398 
Q 3181 191 3288 0 
L 2700 0 
Q 2613 175 2588 409 
z
M 2541 1666 
Q 2234 1541 1622 1453 
Q 1275 1403 1131 1340 
Q 988 1278 909 1158 
Q 831 1038 831 891 
Q 831 666 1001 516 
Q 1172 366 1500 366 
Q 1825 366 2078 508 
Q 2331 650 2450 897 
Q 2541 1088 2541 1459 
L 2541 1666 
z
" id="ArialMT-61" transform="scale(0.015625)"/>
      <path d="M 2588 1216 
L 3141 1144 
Q 3050 572 2676 248 
Q 2303 -75 1759 -75 
Q 1078 -75 664 370 
Q 250 816 250 1647 
Q 250 2184 428 2587 
Q 606 2991 970 3192 
Q 1334 3394 1763 3394 
Q 2303 3394 2647 3120 
Q 2991 2847 3088 2344 
L 2541 2259 
Q 2463 2594 2264 2762 
Q 2066 2931 1784 2931 
Q 1359 2931 1093 2626 
Q 828 2322 828 1663 
Q 828 994 1084 691 
Q 1341 388 1753 388 
Q 2084 388 2306 591 
Q 2528 794 2588 1216 
z
M 1283 -417 
L 1446 136 
L 1864 136 
L 1761 -199 
Q 2027 -230 2161 -362 
Q 2296 -495 2296 -658 
Q 2296 -892 2071 -1072 
Q 1846 -1252 1392 -1252 
Q 1136 -1252 942 -1214 
L 977 -849 
Q 1177 -861 1271 -861 
Q 1564 -861 1683 -780 
Q 1774 -717 1774 -627 
Q 1774 -570 1738 -526 
Q 1702 -483 1605 -451 
Q 1508 -420 1283 -417 
z
" id="ArialMT-e7" transform="scale(0.015625)"/>
      <path d="M 213 1659 
Q 213 2581 725 3025 
Q 1153 3394 1769 3394 
Q 2453 3394 2887 2945 
Q 3322 2497 3322 1706 
Q 3322 1066 3130 698 
Q 2938 331 2570 128 
Q 2203 -75 1769 -75 
Q 1072 -75 642 372 
Q 213 819 213 1659 
z
M 791 1659 
Q 791 1022 1069 705 
Q 1347 388 1769 388 
Q 2188 388 2466 706 
Q 2744 1025 2744 1678 
Q 2744 2294 2464 2611 
Q 2184 2928 1769 2928 
Q 1347 2928 1069 2612 
Q 791 2297 791 1659 
z
M 726 3809 
Q 723 4134 904 4328 
Q 1082 4522 1360 4522 
Q 1554 4522 1888 4353 
Q 2073 4259 2182 4259 
Q 2282 4259 2335 4314 
Q 2388 4369 2410 4531 
L 2817 4531 
Q 2807 4175 2637 3997 
Q 2467 3819 2204 3819 
Q 2007 3819 1685 3994 
Q 1476 4106 1379 4106 
Q 1273 4106 1207 4031 
Q 1138 3956 1142 3809 
L 726 3809 
z
" id="ArialMT-f5" transform="scale(0.015625)"/>
      <path d="M 197 991 
L 753 1078 
Q 800 744 1014 566 
Q 1228 388 1613 388 
Q 2000 388 2187 545 
Q 2375 703 2375 916 
Q 2375 1106 2209 1216 
Q 2094 1291 1634 1406 
Q 1016 1563 777 1677 
Q 538 1791 414 1992 
Q 291 2194 291 2438 
Q 291 2659 392 2848 
Q 494 3038 669 3163 
Q 800 3259 1026 3326 
Q 1253 3394 1513 3394 
Q 1903 3394 2198 3281 
Q 2494 3169 2634 2976 
Q 2775 2784 2828 2463 
L 2278 2388 
Q 2241 2644 2061 2787 
Q 1881 2931 1553 2931 
Q 1166 2931 1000 2803 
Q 834 2675 834 2503 
Q 834 2394 903 2306 
Q 972 2216 1119 2156 
Q 1203 2125 1616 2013 
Q 2213 1853 2448 1751 
Q 2684 1650 2818 1456 
Q 2953 1263 2953 975 
Q 2953 694 2789 445 
Q 2625 197 2315 61 
Q 2006 -75 1616 -75 
Q 969 -75 630 194 
Q 291 463 197 991 
z
" id="ArialMT-73" transform="scale(0.015625)"/>
     </defs>
     <use xlink:href="#ArialMT-49"/>
     <use x="27.783203" xlink:href="#ArialMT-6e"/>
     <use x="83.398438" xlink:href="#ArialMT-74"/>
     <use x="111.181641" xlink:href="#ArialMT-65"/>
     <use x="166.796875" xlink:href="#ArialMT-72"/>
     <use x="200.097656" xlink:href="#ArialMT-6e"/>
     <use x="255.712891" xlink:href="#ArialMT-61"/>
     <use x="311.328125" xlink:href="#ArialMT-e7"/>
     <use x="361.328125" xlink:href="#ArialMT-f5"/>
     <use x="416.943359" xlink:href="#ArialMT-65"/>
     <use x="472.558594" xlink:href="#ArialMT-73"/>
    </g>
   </g>
   <g id="legend_1">
    <g id="patch_7">
     <path d="M 37.882812 58.08 
L 122.134375 58.08 
Q 124.134375 58.08 124.134375 56.08 
L 124.134375 28.789375 
Q 124.134375 26.789375 122.134375 26.789375 
L 37.882812 26.789375 
Q 35.882812 26.789375 35.882812 28.789375 
L 35.882812 56.08 
Q 35.882812 58.08 37.882812 58.08 
z
" style="fill:#ffffff;opacity:0.8;stroke:#cccccc;stroke-linejoin:miter;"/>
    </g>
    <g id="line2d_19">
     <path d="M 39.882812 34.447187 
L 59.882812 34.447187 
" style="fill:none;stroke:#1f77b4;stroke-linecap:round;stroke-width:1.5;"/>
    </g>
    <g id="line2d_20"/>
    <g id="text_18">
     <!-- Internações -->
     <g style="fill:#262626;" transform="translate(67.882812 37.947187)scale(0.1 -0.1)">
      <use xlink:href="#ArialMT-49"/>
      <use x="27.783203" xlink:href="#ArialMT-6e"/>
      <use x="83.398438" xlink:href="#ArialMT-74"/>
      <use x="111.181641" xlink:href="#ArialMT-65"/>
      <use x="166.796875" xlink:href="#ArialMT-72"/>
      <use x="200.097656" xlink:href="#ArialMT-6e"/>
      <use x="255.712891" xlink:href="#ArialMT-61"/>
      <use x="311.328125" xlink:href="#ArialMT-e7"/>
      <use x="361.328125" xlink:href="#ArialMT-f5"/>
      <use x="416.943359" xlink:href="#ArialMT-65"/>
      <use x="472.558594" xlink:href="#ArialMT-73"/>
     </g>
    </g>
    <g id="line2d_21">
     <path d="M 39.882812 48.5925 
L 59.882812 48.5925 
" style="fill:none;stroke:#ff7f0e;stroke-linecap:round;stroke-width:1.5;"/>
    </g>
    <g id="line2d_22"/>
    <g id="text_19">
     <!-- UTI -->
     <g style="fill:#262626;" transform="translate(67.882812 52.0925)scale(0.1 -0.1)">
      <defs>
       <path d="M 3500 4581 
L 4106 4581 
L 4106 1934 
Q 4106 1244 3950 837 
Q 3794 431 3386 176 
Q 2978 -78 2316 -78 
Q 1672 -78 1262 144 
Q 853 366 678 786 
Q 503 1206 503 1934 
L 503 4581 
L 1109 4581 
L 1109 1938 
Q 1109 1341 1220 1058 
Q 1331 775 1601 622 
Q 1872 469 2263 469 
Q 2931 469 3215 772 
Q 3500 1075 3500 1938 
L 3500 4581 
z
" id="ArialMT-55" transform="scale(0.015625)"/>
       <path d="M 1659 0 
L 1659 4041 
L 150 4041 
L 150 4581 
L 3781 4581 
L 3781 4041 
L 2266 4041 
L 2266 0 
L 1659 0 
z
" id="ArialMT-54" transform="scale(0.015625)"/>
      </defs>
      <use xlink:href="#ArialMT-55"/>
      <use x="72.216797" xlink:href="#ArialMT-54"/>
      <use x="133.300781" xlink:href="#ArialMT-49"/>
     </g>
    </g>
   </g>
  </g>
 </g>
 <defs>
  <clipPath id="p3575d7e0d2">
   <rect height="277.2" width="558" x="30.882812" y="21.789375"/>
  </clipPath>
 </defs>
</svg>
