<?xml version="1.0" encoding="utf-8" standalone="no"?>
<!DOCTYPE svg PUBLIC "-//W3C//DTD SVG 1.1//EN"
  "http://www.w3.org/Graphics/SVG/1.1/DTD/svg11.dtd">
<svg height="340.273125pt" version="1.1" viewBox="0 0 705.6 340.273125" width="705.6pt" xmlns="http://www.w3.org/2000/svg" xmlns:xlink="http://www.w3.org/1999/xlink">
 <metadata>
  <rdf:RDF xmlns:cc="http://creativecommons.org/ns#" xmlns:dc="http://purl.org/dc/elements/1.1/" xmlns:rdf="http://www.w3.org/1999/02/22-rdf-syntax-ns#">
   <cc:Work>
    <dc:type rdf:resource="http://purl.org/dc/dcmitype/StillImage"/>
    <dc:date>2021-10-08T18:13:39.394203</dc:date>
    <dc:format>image/svg+xml</dc:format>
    <dc:creator>
     <cc:Agent>
      <dc:title>Matplotlib v3.4.2, https://matplotlib.org/</dc:title>
     </cc:Agent>
    </dc:creator>
   </cc:Work>
  </rdf:RDF>
 </metadata>
 <defs>
  <style type="text/css">*{stroke-linecap:butt;stroke-linejoin:round;}</style>
 </defs>
 <g id="figure_1">
  <g id="patch_1">
   <path d="M 0 340.273125 
L 705.6 340.273125 
L 705.6 0 
L 0 0 
z
" style="fill:#ffffff;"/>
  </g>
  <g id="axes_1">
   <g id="patch_2">
    <path d="M 82.8 298.989375 
L 640.8 298.989375 
L 640.8 21.789375 
L 82.8 21.789375 
z
" style="fill:#ffffff;"/>
   </g>
   <g id="matplotlib.axis_1">
    <g id="xtick_1">
     <g id="line2d_1">
      <path clip-path="url(#pf53d904037)" d="M 92.088092 298.989375 
L 92.088092 21.789375 
" style="fill:none;stroke:#cccccc;stroke-linecap:round;stroke-width:0.8;"/>
     </g>
     <g id="text_1">
      <!-- 2020-03 -->
      <g style="fill:#262626;" transform="translate(73.740436 313.147188)scale(0.1 -0.1)">
       <defs>
        <path d="M 3222 541 
L 3222 0 
L 194 0 
Q 188 203 259 391 
Q 375 700 629 1000 
Q 884 1300 1366 1694 
Q 2113 2306 2375 2664 
Q 2638 3022 2638 3341 
Q 2638 3675 2398 3904 
Q 2159 4134 1775 4134 
Q 1369 4134 1125 3890 
Q 881 3647 878 3216 
L 300 3275 
Q 359 3922 746 4261 
Q 1134 4600 1788 4600 
Q 2447 4600 2831 4234 
Q 3216 3869 3216 3328 
Q 3216 3053 3103 2787 
Q 2991 2522 2730 2228 
Q 2469 1934 1863 1422 
Q 1356 997 1212 845 
Q 1069 694 975 541 
L 3222 541 
z
" id="ArialMT-32" transform="scale(0.015625)"/>
        <path d="M 266 2259 
Q 266 3072 433 3567 
Q 600 4063 929 4331 
Q 1259 4600 1759 4600 
Q 2128 4600 2406 4451 
Q 2684 4303 2865 4023 
Q 3047 3744 3150 3342 
Q 3253 2941 3253 2259 
Q 3253 1453 3087 958 
Q 2922 463 2592 192 
Q 2263 -78 1759 -78 
Q 1097 -78 719 397 
Q 266 969 266 2259 
z
M 844 2259 
Q 844 1131 1108 757 
Q 1372 384 1759 384 
Q 2147 384 2411 759 
Q 2675 1134 2675 2259 
Q 2675 3391 2411 3762 
Q 2147 4134 1753 4134 
Q 1366 4134 1134 3806 
Q 844 3388 844 2259 
z
" id="ArialMT-30" transform="scale(0.015625)"/>
        <path d="M 203 1375 
L 203 1941 
L 1931 1941 
L 1931 1375 
L 203 1375 
z
" id="ArialMT-2d" transform="scale(0.015625)"/>
        <path d="M 269 1209 
L 831 1284 
Q 928 806 1161 595 
Q 1394 384 1728 384 
Q 2125 384 2398 659 
Q 2672 934 2672 1341 
Q 2672 1728 2419 1979 
Q 2166 2231 1775 2231 
Q 1616 2231 1378 2169 
L 1441 2663 
Q 1497 2656 1531 2656 
Q 1891 2656 2178 2843 
Q 2466 3031 2466 3422 
Q 2466 3731 2256 3934 
Q 2047 4138 1716 4138 
Q 1388 4138 1169 3931 
Q 950 3725 888 3313 
L 325 3413 
Q 428 3978 793 4289 
Q 1159 4600 1703 4600 
Q 2078 4600 2393 4439 
Q 2709 4278 2876 4000 
Q 3044 3722 3044 3409 
Q 3044 3113 2884 2869 
Q 2725 2625 2413 2481 
Q 2819 2388 3044 2092 
Q 3269 1797 3269 1353 
Q 3269 753 2831 336 
Q 2394 -81 1725 -81 
Q 1122 -81 723 278 
Q 325 638 269 1209 
z
" id="ArialMT-33" transform="scale(0.015625)"/>
       </defs>
       <use xlink:href="#ArialMT-32"/>
       <use x="55.615234" xlink:href="#ArialMT-30"/>
       <use x="111.230469" xlink:href="#ArialMT-32"/>
       <use x="166.845703" xlink:href="#ArialMT-30"/>
       <use x="222.460938" xlink:href="#ArialMT-2d"/>
       <use x="255.761719" xlink:href="#ArialMT-30"/>
       <use x="311.376953" xlink:href="#ArialMT-33"/>
      </g>
     </g>
    </g>
    <g id="xtick_2">
     <g id="line2d_2">
      <path clip-path="url(#pf53d904037)" d="M 146.566325 298.989375 
L 146.566325 21.789375 
" style="fill:none;stroke:#cccccc;stroke-linecap:round;stroke-width:0.8;"/>
     </g>
     <g id="text_2">
      <!-- 2020-05 -->
      <g style="fill:#262626;" transform="translate(128.218669 313.147188)scale(0.1 -0.1)">
       <defs>
        <path d="M 266 1200 
L 856 1250 
Q 922 819 1161 601 
Q 1400 384 1738 384 
Q 2144 384 2425 690 
Q 2706 997 2706 1503 
Q 2706 1984 2436 2262 
Q 2166 2541 1728 2541 
Q 1456 2541 1237 2417 
Q 1019 2294 894 2097 
L 366 2166 
L 809 4519 
L 3088 4519 
L 3088 3981 
L 1259 3981 
L 1013 2750 
Q 1425 3038 1878 3038 
Q 2478 3038 2890 2622 
Q 3303 2206 3303 1553 
Q 3303 931 2941 478 
Q 2500 -78 1738 -78 
Q 1113 -78 717 272 
Q 322 622 266 1200 
z
" id="ArialMT-35" transform="scale(0.015625)"/>
       </defs>
       <use xlink:href="#ArialMT-32"/>
       <use x="55.615234" xlink:href="#ArialMT-30"/>
       <use x="111.230469" xlink:href="#ArialMT-32"/>
       <use x="166.845703" xlink:href="#ArialMT-30"/>
       <use x="222.460938" xlink:href="#ArialMT-2d"/>
       <use x="255.761719" xlink:href="#ArialMT-30"/>
       <use x="311.376953" xlink:href="#ArialMT-35"/>
      </g>
     </g>
    </g>
    <g id="xtick_3">
     <g id="line2d_3">
      <path clip-path="url(#pf53d904037)" d="M 201.044558 298.989375 
L 201.044558 21.789375 
" style="fill:none;stroke:#cccccc;stroke-linecap:round;stroke-width:0.8;"/>
     </g>
     <g id="text_3">
      <!-- 2020-07 -->
      <g style="fill:#262626;" transform="translate(182.696902 313.147188)scale(0.1 -0.1)">
       <defs>
        <path d="M 303 3981 
L 303 4522 
L 3269 4522 
L 3269 4084 
Q 2831 3619 2401 2847 
Q 1972 2075 1738 1259 
Q 1569 684 1522 0 
L 944 0 
Q 953 541 1156 1306 
Q 1359 2072 1739 2783 
Q 2119 3494 2547 3981 
L 303 3981 
z
" id="ArialMT-37" transform="scale(0.015625)"/>
       </defs>
       <use xlink:href="#ArialMT-32"/>
       <use x="55.615234" xlink:href="#ArialMT-30"/>
       <use x="111.230469" xlink:href="#ArialMT-32"/>
       <use x="166.845703" xlink:href="#ArialMT-30"/>
       <use x="222.460938" xlink:href="#ArialMT-2d"/>
       <use x="255.761719" xlink:href="#ArialMT-30"/>
       <use x="311.376953" xlink:href="#ArialMT-37"/>
      </g>
     </g>
    </g>
    <g id="xtick_4">
     <g id="line2d_4">
      <path clip-path="url(#pf53d904037)" d="M 256.415877 298.989375 
L 256.415877 21.789375 
" style="fill:none;stroke:#cccccc;stroke-linecap:round;stroke-width:0.8;"/>
     </g>
     <g id="text_4">
      <!-- 2020-09 -->
      <g style="fill:#262626;" transform="translate(238.068221 313.147188)scale(0.1 -0.1)">
       <defs>
        <path d="M 350 1059 
L 891 1109 
Q 959 728 1153 556 
Q 1347 384 1650 384 
Q 1909 384 2104 503 
Q 2300 622 2425 820 
Q 2550 1019 2634 1356 
Q 2719 1694 2719 2044 
Q 2719 2081 2716 2156 
Q 2547 1888 2255 1720 
Q 1963 1553 1622 1553 
Q 1053 1553 659 1965 
Q 266 2378 266 3053 
Q 266 3750 677 4175 
Q 1088 4600 1706 4600 
Q 2153 4600 2523 4359 
Q 2894 4119 3086 3673 
Q 3278 3228 3278 2384 
Q 3278 1506 3087 986 
Q 2897 466 2520 194 
Q 2144 -78 1638 -78 
Q 1100 -78 759 220 
Q 419 519 350 1059 
z
M 2653 3081 
Q 2653 3566 2395 3850 
Q 2138 4134 1775 4134 
Q 1400 4134 1122 3828 
Q 844 3522 844 3034 
Q 844 2597 1108 2323 
Q 1372 2050 1759 2050 
Q 2150 2050 2401 2323 
Q 2653 2597 2653 3081 
z
" id="ArialMT-39" transform="scale(0.015625)"/>
       </defs>
       <use xlink:href="#ArialMT-32"/>
       <use x="55.615234" xlink:href="#ArialMT-30"/>
       <use x="111.230469" xlink:href="#ArialMT-32"/>
       <use x="166.845703" xlink:href="#ArialMT-30"/>
       <use x="222.460938" xlink:href="#ArialMT-2d"/>
       <use x="255.761719" xlink:href="#ArialMT-30"/>
       <use x="311.376953" xlink:href="#ArialMT-39"/>
      </g>
     </g>
    </g>
    <g id="xtick_5">
     <g id="line2d_5">
      <path clip-path="url(#pf53d904037)" d="M 310.89411 298.989375 
L 310.89411 21.789375 
" style="fill:none;stroke:#cccccc;stroke-linecap:round;stroke-width:0.8;"/>
     </g>
     <g id="text_5">
      <!-- 2020-11 -->
      <g style="fill:#262626;" transform="translate(292.915204 313.147188)scale(0.1 -0.1)">
       <defs>
        <path d="M 2384 0 
L 1822 0 
L 1822 3584 
Q 1619 3391 1289 3197 
Q 959 3003 697 2906 
L 697 3450 
Q 1169 3672 1522 3987 
Q 1875 4303 2022 4600 
L 2384 4600 
L 2384 0 
z
" id="ArialMT-31" transform="scale(0.015625)"/>
       </defs>
       <use xlink:href="#ArialMT-32"/>
       <use x="55.615234" xlink:href="#ArialMT-30"/>
       <use x="111.230469" xlink:href="#ArialMT-32"/>
       <use x="166.845703" xlink:href="#ArialMT-30"/>
       <use x="222.460938" xlink:href="#ArialMT-2d"/>
       <use x="255.761719" xlink:href="#ArialMT-31"/>
       <use x="304.001953" xlink:href="#ArialMT-31"/>
      </g>
     </g>
    </g>
    <g id="xtick_6">
     <g id="line2d_6">
      <path clip-path="url(#pf53d904037)" d="M 365.372343 298.989375 
L 365.372343 21.789375 
" style="fill:none;stroke:#cccccc;stroke-linecap:round;stroke-width:0.8;"/>
     </g>
     <g id="text_6">
      <!-- 2021-01 -->
      <g style="fill:#262626;" transform="translate(347.024687 313.147188)scale(0.1 -0.1)">
       <use xlink:href="#ArialMT-32"/>
       <use x="55.615234" xlink:href="#ArialMT-30"/>
       <use x="111.230469" xlink:href="#ArialMT-32"/>
       <use x="166.845703" xlink:href="#ArialMT-31"/>
       <use x="222.460938" xlink:href="#ArialMT-2d"/>
       <use x="255.761719" xlink:href="#ArialMT-30"/>
       <use x="311.376953" xlink:href="#ArialMT-31"/>
      </g>
     </g>
    </g>
    <g id="xtick_7">
     <g id="line2d_7">
      <path clip-path="url(#pf53d904037)" d="M 418.064405 298.989375 
L 418.064405 21.789375 
" style="fill:none;stroke:#cccccc;stroke-linecap:round;stroke-width:0.8;"/>
     </g>
     <g id="text_7">
      <!-- 2021-03 -->
      <g style="fill:#262626;" transform="translate(399.716748 313.147188)scale(0.1 -0.1)">
       <use xlink:href="#ArialMT-32"/>
       <use x="55.615234" xlink:href="#ArialMT-30"/>
       <use x="111.230469" xlink:href="#ArialMT-32"/>
       <use x="166.845703" xlink:href="#ArialMT-31"/>
       <use x="222.460938" xlink:href="#ArialMT-2d"/>
       <use x="255.761719" xlink:href="#ArialMT-30"/>
       <use x="311.376953" xlink:href="#ArialMT-33"/>
      </g>
     </g>
    </g>
    <g id="xtick_8">
     <g id="line2d_8">
      <path clip-path="url(#pf53d904037)" d="M 472.542638 298.989375 
L 472.542638 21.789375 
" style="fill:none;stroke:#cccccc;stroke-linecap:round;stroke-width:0.8;"/>
     </g>
     <g id="text_8">
      <!-- 2021-05 -->
      <g style="fill:#262626;" transform="translate(454.194981 313.147188)scale(0.1 -0.1)">
       <use xlink:href="#ArialMT-32"/>
       <use x="55.615234" xlink:href="#ArialMT-30"/>
       <use x="111.230469" xlink:href="#ArialMT-32"/>
       <use x="166.845703" xlink:href="#ArialMT-31"/>
       <use x="222.460938" xlink:href="#ArialMT-2d"/>
       <use x="255.761719" xlink:href="#ArialMT-30"/>
       <use x="311.376953" xlink:href="#ArialMT-35"/>
      </g>
     </g>
    </g>
    <g id="xtick_9">
     <g id="line2d_9">
      <path clip-path="url(#pf53d904037)" d="M 527.020871 298.989375 
L 527.020871 21.789375 
" style="fill:none;stroke:#cccccc;stroke-linecap:round;stroke-width:0.8;"/>
     </g>
     <g id="text_9">
      <!-- 2021-07 -->
      <g style="fill:#262626;" transform="translate(508.673214 313.147188)scale(0.1 -0.1)">
       <use xlink:href="#ArialMT-32"/>
       <use x="55.615234" xlink:href="#ArialMT-30"/>
       <use x="111.230469" xlink:href="#ArialMT-32"/>
       <use x="166.845703" xlink:href="#ArialMT-31"/>
       <use x="222.460938" xlink:href="#ArialMT-2d"/>
       <use x="255.761719" xlink:href="#ArialMT-30"/>
       <use x="311.376953" xlink:href="#ArialMT-37"/>
      </g>
     </g>
    </g>
    <g id="xtick_10">
     <g id="line2d_10">
      <path clip-path="url(#pf53d904037)" d="M 582.39219 298.989375 
L 582.39219 21.789375 
" style="fill:none;stroke:#cccccc;stroke-linecap:round;stroke-width:0.8;"/>
     </g>
     <g id="text_10">
      <!-- 2021-09 -->
      <g style="fill:#262626;" transform="translate(564.044533 313.147188)scale(0.1 -0.1)">
       <use xlink:href="#ArialMT-32"/>
       <use x="55.615234" xlink:href="#ArialMT-30"/>
       <use x="111.230469" xlink:href="#ArialMT-32"/>
       <use x="166.845703" xlink:href="#ArialMT-31"/>
       <use x="222.460938" xlink:href="#ArialMT-2d"/>
       <use x="255.761719" xlink:href="#ArialMT-30"/>
       <use x="311.376953" xlink:href="#ArialMT-39"/>
      </g>
     </g>
    </g>
    <g id="xtick_11">
     <g id="line2d_11">
      <path clip-path="url(#pf53d904037)" d="M 636.870423 298.989375 
L 636.870423 21.789375 
" style="fill:none;stroke:#cccccc;stroke-linecap:round;stroke-width:0.8;"/>
     </g>
     <g id="text_11">
      <!-- 2021-11 -->
      <g style="fill:#262626;" transform="translate(618.891516 313.147188)scale(0.1 -0.1)">
       <use xlink:href="#ArialMT-32"/>
       <use x="55.615234" xlink:href="#ArialMT-30"/>
       <use x="111.230469" xlink:href="#ArialMT-32"/>
       <use x="166.845703" xlink:href="#ArialMT-31"/>
       <use x="222.460938" xlink:href="#ArialMT-2d"/>
       <use x="255.761719" xlink:href="#ArialMT-31"/>
       <use x="304.001953" xlink:href="#ArialMT-31"/>
      </g>
     </g>
    </g>
   </g>
   <g id="matplotlib.axis_2">
    <g id="ytick_1">
     <g id="line2d_12">
      <path clip-path="url(#pf53d904037)" d="M 82.8 286.389375 
L 640.8 286.389375 
" style="fill:none;stroke:#cccccc;stroke-linecap:round;stroke-width:0.8;"/>
     </g>
     <g id="text_12">
      <!-- 0 -->
      <g style="fill:#262626;" transform="translate(70.239063 289.968281)scale(0.1 -0.1)">
       <use xlink:href="#ArialMT-30"/>
      </g>
     </g>
    </g>
    <g id="ytick_2">
     <g id="line2d_13">
      <path clip-path="url(#pf53d904037)" d="M 82.8 248.664824 
L 640.8 248.664824 
" style="fill:none;stroke:#cccccc;stroke-linecap:round;stroke-width:0.8;"/>
     </g>
     <g id="text_13">
      <!-- 50 -->
      <g style="fill:#262626;" transform="translate(64.678125 252.24373)scale(0.1 -0.1)">
       <use xlink:href="#ArialMT-35"/>
       <use x="55.615234" xlink:href="#ArialMT-30"/>
      </g>
     </g>
    </g>
    <g id="ytick_3">
     <g id="line2d_14">
      <path clip-path="url(#pf53d904037)" d="M 82.8 210.940273 
L 640.8 210.940273 
" style="fill:none;stroke:#cccccc;stroke-linecap:round;stroke-width:0.8;"/>
     </g>
     <g id="text_14">
      <!-- 100 -->
      <g style="fill:#262626;" transform="translate(59.117188 214.519179)scale(0.1 -0.1)">
       <use xlink:href="#ArialMT-31"/>
       <use x="55.615234" xlink:href="#ArialMT-30"/>
       <use x="111.230469" xlink:href="#ArialMT-30"/>
      </g>
     </g>
    </g>
    <g id="ytick_4">
     <g id="line2d_15">
      <path clip-path="url(#pf53d904037)" d="M 82.8 173.215722 
L 640.8 173.215722 
" style="fill:none;stroke:#cccccc;stroke-linecap:round;stroke-width:0.8;"/>
     </g>
     <g id="text_15">
      <!-- 150 -->
      <g style="fill:#262626;" transform="translate(59.117188 176.794629)scale(0.1 -0.1)">
       <use xlink:href="#ArialMT-31"/>
       <use x="55.615234" xlink:href="#ArialMT-35"/>
       <use x="111.230469" xlink:href="#ArialMT-30"/>
      </g>
     </g>
    </g>
    <g id="ytick_5">
     <g id="line2d_16">
      <path clip-path="url(#pf53d904037)" d="M 82.8 135.491171 
L 640.8 135.491171 
" style="fill:none;stroke:#cccccc;stroke-linecap:round;stroke-width:0.8;"/>
     </g>
     <g id="text_16">
      <!-- 200 -->
      <g style="fill:#262626;" transform="translate(59.117188 139.070078)scale(0.1 -0.1)">
       <use xlink:href="#ArialMT-32"/>
       <use x="55.615234" xlink:href="#ArialMT-30"/>
       <use x="111.230469" xlink:href="#ArialMT-30"/>
      </g>
     </g>
    </g>
    <g id="ytick_6">
     <g id="line2d_17">
      <path clip-path="url(#pf53d904037)" d="M 82.8 97.766621 
L 640.8 97.766621 
" style="fill:none;stroke:#cccccc;stroke-linecap:round;stroke-width:0.8;"/>
     </g>
     <g id="text_17">
      <!-- 250 -->
      <g style="fill:#262626;" transform="translate(59.117188 101.345527)scale(0.1 -0.1)">
       <use xlink:href="#ArialMT-32"/>
       <use x="55.615234" xlink:href="#ArialMT-35"/>
       <use x="111.230469" xlink:href="#ArialMT-30"/>
      </g>
     </g>
    </g>
    <g id="ytick_7">
     <g id="line2d_18">
      <path clip-path="url(#pf53d904037)" d="M 82.8 60.04207 
L 640.8 60.04207 
" style="fill:none;stroke:#cccccc;stroke-linecap:round;stroke-width:0.8;"/>
     </g>
     <g id="text_18">
      <!-- 300 -->
      <g style="fill:#262626;" transform="translate(59.117188 63.620976)scale(0.1 -0.1)">
       <use xlink:href="#ArialMT-33"/>
       <use x="55.615234" xlink:href="#ArialMT-30"/>
       <use x="111.230469" xlink:href="#ArialMT-30"/>
      </g>
     </g>
    </g>
    <g id="ytick_8">
     <g id="line2d_19">
      <path clip-path="url(#pf53d904037)" d="M 82.8 22.317519 
L 640.8 22.317519 
" style="fill:none;stroke:#cccccc;stroke-linecap:round;stroke-width:0.8;"/>
     </g>
     <g id="text_19">
      <!-- 350 -->
      <g style="fill:#262626;" transform="translate(59.117188 25.896425)scale(0.1 -0.1)">
       <use xlink:href="#ArialMT-33"/>
       <use x="55.615234" xlink:href="#ArialMT-35"/>
       <use x="111.230469" xlink:href="#ArialMT-30"/>
      </g>
     </g>
    </g>
   </g>
   <g id="line2d_20">
    <path clip-path="url(#pf53d904037)" d="M 108.163636 278.089974 
L 109.056722 278.089974 
L 109.949808 276.580992 
L 110.842894 276.580992 
L 111.73598 269.036082 
L 112.629065 255.455243 
L 113.522151 254.700752 
L 114.415237 251.682788 
L 115.308323 247.155842 
L 116.201408 246.401351 
L 117.094494 246.401351 
L 117.98758 245.64686 
L 118.880666 242.628896 
L 119.773752 226.030094 
L 120.666837 224.521112 
L 121.559923 224.521112 
L 122.453009 201.886381 
L 123.346095 200.377399 
L 124.239181 213.958237 
L 125.132266 210.185782 
L 126.025352 204.149854 
L 126.918438 202.640872 
L 127.811524 199.622908 
L 128.704609 199.622908 
L 129.597695 198.113926 
L 130.490781 186.796561 
L 131.383867 185.287579 
L 132.276953 189.060034 
L 133.170038 176.233686 
L 134.063124 173.215722 
L 134.95621 170.952249 
L 135.849296 167.179794 
L 136.742382 176.988177 
L 137.635467 176.988177 
L 138.528553 173.970213 
L 139.421639 167.934285 
L 140.314725 142.281591 
L 141.20781 140.772609 
L 142.100896 176.233686 
L 142.993982 178.497159 
L 143.887068 181.515124 
L 144.780154 176.233686 
L 145.673239 181.515124 
L 146.566325 173.215722 
L 147.459411 168.688776 
L 148.352497 169.443267 
L 149.245583 167.179794 
L 150.138668 161.143866 
L 151.031754 158.125902 
L 151.92484 162.652848 
L 152.817926 165.670812 
L 153.711012 161.143866 
L 154.604097 158.125902 
L 155.497183 161.898357 
L 156.390269 146.054046 
L 157.283355 152.844465 
L 158.17644 149.826501 
L 159.069526 146.054046 
L 159.962612 152.089974 
L 160.855698 140.772609 
L 161.748784 139.263626 
L 162.641869 141.5271 
L 163.534955 133.982189 
L 164.428041 137.000153 
L 165.321127 139.263626 
L 166.214213 140.772609 
L 167.107298 138.509135 
L 168.000384 137.754644 
L 168.89347 133.227698 
L 169.786556 134.73668 
L 170.679641 135.491171 
L 171.572727 123.419315 
L 172.465813 122.664824 
L 173.358899 124.173806 
L 174.251985 129.455243 
L 175.14507 129.455243 
L 176.038156 128.700752 
L 176.931242 127.19177 
L 177.824328 122.664824 
L 178.717414 122.664824 
L 179.610499 110.592968 
L 180.503585 115.874405 
L 181.396671 109.083986 
L 182.289757 114.365423 
L 183.182843 106.820513 
L 184.075928 109.838477 
L 184.969014 103.802549 
L 185.8621 112.856441 
L 186.755186 120.401351 
L 187.648271 122.664824 
L 188.541357 126.437279 
L 189.434443 130.964225 
L 190.327529 127.946261 
L 191.220615 122.664824 
L 192.1137 121.910333 
L 193.006786 118.892369 
L 193.899872 123.419315 
L 194.792958 135.491171 
L 195.686044 137.000153 
L 196.579129 131.718716 
L 197.472215 134.73668 
L 198.365301 141.5271 
L 199.258387 144.545064 
L 200.151472 150.580992 
L 201.044558 150.580992 
L 201.937644 156.61692 
L 202.83073 149.07201 
L 203.723816 152.844465 
L 204.616901 154.353447 
L 205.509987 157.371411 
L 206.403073 148.317519 
L 207.296159 164.916321 
L 208.189245 162.652848 
L 209.08233 161.898357 
L 209.975416 166.425303 
L 210.868502 171.70674 
L 211.761588 170.197758 
L 212.654673 149.826501 
L 213.547759 161.898357 
L 214.440845 153.598956 
L 215.333931 148.317519 
L 216.227017 156.61692 
L 217.120102 154.353447 
L 218.906274 158.880393 
L 219.79936 154.353447 
L 220.692446 157.371411 
L 221.585531 152.844465 
L 222.478617 154.353447 
L 224.264789 158.880393 
L 225.157875 163.407339 
L 226.05096 170.952249 
L 226.944046 173.215722 
L 227.837132 173.970213 
L 228.730218 177.742668 
L 229.623303 180.006141 
L 230.516389 177.742668 
L 231.409475 184.533088 
L 232.302561 188.305543 
L 233.195647 196.604944 
L 234.088732 194.341471 
L 234.981818 195.850453 
L 235.874904 208.6768 
L 236.76799 203.395363 
L 237.661076 207.167818 
L 238.554161 211.694764 
L 239.447247 208.6768 
L 240.340333 207.922309 
L 241.233419 204.904345 
L 242.126504 203.395363 
L 243.01959 202.640872 
L 243.912676 189.814525 
L 244.805762 198.113926 
L 246.591933 207.167818 
L 247.485019 204.904345 
L 248.378105 214.712728 
L 249.271191 215.467219 
L 250.164277 213.203746 
L 251.057362 215.467219 
L 251.950448 219.239674 
L 252.843534 213.203746 
L 253.73662 221.503147 
L 254.629706 207.167818 
L 255.522791 197.359435 
L 256.415877 195.850453 
L 257.308963 199.622908 
L 258.202049 201.13189 
L 259.095134 201.13189 
L 259.98822 203.395363 
L 260.881306 203.395363 
L 261.774392 211.694764 
L 262.667478 210.185782 
L 263.560563 200.377399 
L 264.453649 203.395363 
L 265.346735 200.377399 
L 266.239821 199.622908 
L 267.132907 200.377399 
L 268.025992 203.395363 
L 269.812164 212.449255 
L 270.70525 213.203746 
L 271.598335 210.940273 
L 272.491421 209.431291 
L 274.277593 210.940273 
L 275.170679 217.730692 
L 276.063764 217.730692 
L 276.95685 231.311531 
L 277.849936 229.048058 
L 278.743022 227.539076 
L 279.636108 223.012129 
L 280.529193 221.503147 
L 281.422279 222.257638 
L 282.315365 219.239674 
L 283.208451 223.012129 
L 284.101536 222.257638 
L 284.994622 217.730692 
L 285.887708 219.239674 
L 286.780794 219.994165 
L 287.67388 214.712728 
L 288.566965 210.940273 
L 289.460051 213.203746 
L 290.353137 210.185782 
L 291.246223 212.449255 
L 292.139309 209.431291 
L 293.032394 214.712728 
L 293.92548 215.467219 
L 294.818566 214.712728 
L 295.711652 212.449255 
L 296.604738 213.958237 
L 297.497823 216.976201 
L 298.390909 216.22171 
L 299.283995 216.22171 
L 300.177081 213.203746 
L 301.070166 207.167818 
L 301.963252 204.904345 
L 302.856338 205.658836 
L 303.749424 207.922309 
L 304.64251 204.149854 
L 305.535595 204.149854 
L 306.428681 201.886381 
L 307.321767 195.095962 
L 308.214853 196.604944 
L 309.107939 193.58698 
L 310.001024 193.58698 
L 310.89411 190.569016 
L 311.787196 186.796561 
L 312.680282 180.760632 
L 313.573367 189.060034 
L 314.466453 194.341471 
L 315.359539 189.060034 
L 316.252625 183.024106 
L 317.145711 186.04207 
L 318.038796 179.25165 
L 318.931882 174.724704 
L 319.824968 164.916321 
L 320.718054 166.425303 
L 321.61114 169.443267 
L 322.504225 173.970213 
L 323.397311 173.215722 
L 324.290397 168.688776 
L 325.183483 169.443267 
L 326.076569 153.598956 
L 326.969654 149.826501 
L 327.86274 152.089974 
L 328.755826 138.509135 
L 329.648912 139.263626 
L 330.541997 143.790573 
L 332.328169 132.473207 
L 333.221255 132.473207 
L 334.114341 134.73668 
L 335.007426 127.946261 
L 335.900512 138.509135 
L 336.793598 142.281591 
L 337.686684 147.563028 
L 338.57977 140.018118 
L 339.472855 141.5271 
L 340.365941 149.07201 
L 341.259027 145.299555 
L 342.152113 155.862429 
L 343.045198 164.916321 
L 343.938284 155.862429 
L 344.83137 142.281591 
L 345.724456 154.353447 
L 346.617542 150.580992 
L 347.510627 149.07201 
L 348.403713 155.862429 
L 351.082971 171.70674 
L 351.976056 170.197758 
L 352.869142 169.443267 
L 353.762228 174.724704 
L 354.655314 178.497159 
L 355.548399 173.970213 
L 356.441485 170.952249 
L 357.334571 170.952249 
L 358.227657 175.479195 
L 359.120743 182.269615 
L 360.013828 184.533088 
L 360.906914 178.497159 
L 361.8 177.742668 
L 362.693086 173.215722 
L 363.586172 175.479195 
L 364.479257 173.970213 
L 365.372343 183.778597 
L 366.265429 180.760632 
L 367.158515 187.551052 
L 368.051601 197.359435 
L 368.944686 195.850453 
L 369.837772 195.095962 
L 370.730858 196.604944 
L 371.623944 192.832489 
L 373.410115 194.341471 
L 374.303201 184.533088 
L 375.196287 187.551052 
L 376.089373 179.25165 
L 376.982458 180.006141 
L 377.875544 176.233686 
L 379.661716 185.287579 
L 380.554802 178.497159 
L 381.447887 181.515124 
L 382.340973 187.551052 
L 383.234059 195.850453 
L 384.127145 189.060034 
L 385.02023 192.832489 
L 385.913316 189.814525 
L 386.806402 199.622908 
L 387.699488 204.149854 
L 388.592574 195.095962 
L 389.485659 201.13189 
L 390.378745 196.604944 
L 391.271831 201.886381 
L 392.164917 204.149854 
L 393.058003 195.095962 
L 393.951088 194.341471 
L 394.844174 191.323507 
L 395.73726 196.604944 
L 396.630346 195.850453 
L 397.523431 196.604944 
L 398.416517 200.377399 
L 399.309603 203.395363 
L 400.202689 210.185782 
L 401.095775 210.940273 
L 401.98886 209.431291 
L 402.881946 206.413327 
L 403.775032 216.976201 
L 404.668118 216.22171 
L 405.561204 206.413327 
L 406.454289 203.395363 
L 407.347375 214.712728 
L 408.240461 214.712728 
L 409.133547 211.694764 
L 410.026633 213.958237 
L 410.919718 209.431291 
L 411.812804 202.640872 
L 412.70589 198.113926 
L 413.598976 201.13189 
L 414.492061 191.323507 
L 415.385147 192.077998 
L 416.278233 205.658836 
L 417.171319 189.060034 
L 418.064405 180.760632 
L 418.95749 186.796561 
L 419.850576 178.497159 
L 420.743662 180.006141 
L 421.636748 177.742668 
L 422.529834 186.796561 
L 423.422919 183.778597 
L 424.316005 173.970213 
L 425.209091 169.443267 
L 426.995262 161.898357 
L 428.781434 148.317519 
L 429.67452 139.263626 
L 430.567606 133.982189 
L 431.460691 118.892369 
L 432.353777 115.874405 
L 433.246863 112.10195 
L 434.139949 106.820513 
L 435.033035 95.503147 
L 435.92612 81.922309 
L 436.819206 74.377399 
L 437.712292 64.569016 
L 438.605378 57.778597 
L 439.498464 39.670812 
L 440.391549 49.479195 
L 441.284635 40.425303 
L 442.177721 44.197758 
L 443.070807 44.197758 
L 443.963892 34.389375 
L 444.856978 35.898357 
L 445.750064 41.179794 
L 446.64315 37.407339 
L 447.536236 42.688776 
L 448.429321 44.197758 
L 449.322407 41.179794 
L 450.215493 45.70674 
L 451.108579 46.461231 
L 452.001665 56.269615 
L 452.89475 55.515124 
L 453.787836 81.922309 
L 454.680922 87.958237 
L 455.574008 78.904345 
L 456.467093 87.203746 
L 457.360179 84.940273 
L 458.253265 81.922309 
L 459.146351 91.730692 
L 460.039437 78.904345 
L 460.932522 97.012129 
L 461.825608 89.467219 
L 462.718694 90.976201 
L 463.61178 99.275603 
L 464.504866 109.083986 
L 465.397951 109.838477 
L 466.291037 118.892369 
L 467.184123 125.682788 
L 468.077209 122.664824 
L 468.970294 127.19177 
L 469.86338 136.245662 
L 470.756466 133.227698 
L 471.649552 128.700752 
L 472.542638 113.610932 
L 473.435723 121.910333 
L 474.328809 124.173806 
L 475.221895 130.209734 
L 476.114981 118.892369 
L 477.008067 110.592968 
L 477.901152 123.419315 
L 478.794238 133.227698 
L 479.687324 118.137878 
L 480.58041 121.155842 
L 481.473496 115.874405 
L 482.366581 121.155842 
L 483.259667 122.664824 
L 484.152753 127.946261 
L 485.045839 121.155842 
L 485.938924 112.10195 
L 486.83201 109.838477 
L 487.725096 105.311531 
L 488.618182 107.575004 
L 489.511268 111.347459 
L 490.404353 100.030094 
L 491.297439 98.521112 
L 492.190525 97.766621 
L 493.083611 100.030094 
L 493.976697 94.748656 
L 494.869782 90.22171 
L 495.762868 80.413327 
L 496.655954 78.149854 
L 497.54904 68.341471 
L 498.442125 78.149854 
L 499.335211 74.377399 
L 500.228297 90.976201 
L 501.121383 92.485183 
L 502.014469 94.748656 
L 502.907554 93.239674 
L 503.80064 97.766621 
L 504.693726 93.239674 
L 505.586812 92.485183 
L 506.479898 92.485183 
L 507.372983 105.311531 
L 508.266069 112.856441 
L 509.159155 109.083986 
L 510.052241 115.119914 
L 510.945327 111.347459 
L 511.838412 115.874405 
L 512.731498 119.64686 
L 513.624584 117.383387 
L 514.51767 124.173806 
L 515.410755 124.173806 
L 516.303841 134.73668 
L 517.196927 140.018118 
L 518.090013 135.491171 
L 519.876184 148.317519 
L 520.76927 152.089974 
L 521.662356 158.880393 
L 522.555442 158.880393 
L 523.448528 167.934285 
L 524.341613 170.952249 
L 527.020871 188.305543 
L 527.913956 184.533088 
L 528.807042 192.832489 
L 529.700128 197.359435 
L 530.593214 191.323507 
L 531.4863 194.341471 
L 532.379385 192.832489 
L 534.165557 200.377399 
L 535.058643 199.622908 
L 535.951729 192.077998 
L 536.844814 195.095962 
L 537.7379 179.25165 
L 538.630986 182.269615 
L 539.524072 191.323507 
L 540.417157 186.796561 
L 541.310243 191.323507 
L 542.203329 196.604944 
L 543.096415 192.077998 
L 543.989501 200.377399 
L 544.882586 200.377399 
L 545.775672 204.904345 
L 546.668758 204.149854 
L 547.561844 211.694764 
L 548.45493 212.449255 
L 549.348015 219.239674 
L 550.241101 222.257638 
L 551.134187 214.712728 
L 552.027273 225.275603 
L 552.920359 225.275603 
L 553.813444 216.976201 
L 555.599616 219.994165 
L 556.492702 217.730692 
L 557.385787 216.976201 
L 558.278873 216.976201 
L 559.171959 214.712728 
L 560.065045 215.467219 
L 560.958131 211.694764 
L 561.851216 211.694764 
L 562.744302 212.449255 
L 563.637388 210.940273 
L 564.530474 220.748656 
L 565.42356 216.976201 
L 566.316645 219.239674 
L 567.209731 220.748656 
L 568.102817 223.766621 
L 568.995903 222.257638 
L 569.888988 222.257638 
L 570.782074 225.275603 
L 571.67516 227.539076 
L 573.461332 230.55704 
L 574.354417 236.592968 
L 575.247503 235.838477 
L 576.140589 245.64686 
L 577.033675 235.838477 
L 577.926761 232.820513 
L 578.819846 234.329495 
L 579.712932 236.592968 
L 580.606018 241.874405 
L 581.499104 242.628896 
L 582.39219 244.137878 
L 583.285275 244.892369 
L 584.178361 241.874405 
L 585.071447 233.575004 
L 585.964533 239.610932 
L 586.857618 234.329495 
L 587.750704 235.083986 
L 588.64379 236.592968 
L 589.536876 244.892369 
L 590.429962 238.10195 
L 592.216133 238.10195 
L 594.002305 241.119914 
L 594.895391 244.892369 
L 595.788476 242.628896 
L 596.681562 237.347459 
L 597.574648 239.610932 
L 598.467734 234.329495 
L 599.360819 242.628896 
L 600.253905 240.365423 
L 601.146991 246.401351 
L 602.040077 246.401351 
L 602.933163 245.64686 
L 603.826248 249.419315 
L 604.719334 247.910333 
L 605.61242 250.928297 
L 606.505506 250.928297 
L 607.398592 251.682788 
L 608.291677 251.682788 
L 609.184763 249.419315 
L 610.077849 252.437279 
L 610.970935 253.946261 
L 611.86402 256.964225 
L 612.757106 258.473207 
L 613.650192 261.491171 
L 614.543278 262.245662 
L 615.436364 260.73668 
L 615.436364 260.73668 
" style="fill:none;stroke:#1f77b4;stroke-linecap:round;stroke-width:1.5;"/>
   </g>
   <g id="line2d_21">
    <path clip-path="url(#pf53d904037)" d="M 108.163636 286.389375 
L 109.056722 286.389375 
L 109.949808 281.107938 
L 110.842894 281.107938 
L 111.73598 279.598956 
L 112.629065 272.054046 
L 113.522151 272.808537 
L 114.415237 269.790573 
L 117.98758 269.790573 
L 118.880666 270.545064 
L 119.773752 267.5271 
L 120.666837 269.036082 
L 121.559923 268.281591 
L 122.453009 265.263626 
L 123.346095 265.263626 
L 124.239181 261.491171 
L 125.132266 258.473207 
L 126.025352 258.473207 
L 126.918438 262.245662 
L 128.704609 262.245662 
L 129.597695 261.491171 
L 130.490781 257.718716 
L 131.383867 259.982189 
L 132.276953 264.509135 
L 134.063124 253.19177 
L 134.95621 252.437279 
L 135.849296 245.64686 
L 136.742382 250.173806 
L 137.635467 248.664824 
L 138.528553 245.64686 
L 139.421639 238.856441 
L 140.314725 235.083986 
L 141.20781 232.820513 
L 142.100896 238.856441 
L 142.993982 238.856441 
L 144.780154 241.874405 
L 145.673239 238.856441 
L 146.566325 233.575004 
L 147.459411 231.311531 
L 148.352497 229.802549 
L 149.245583 230.55704 
L 150.138668 225.275603 
L 151.031754 225.275603 
L 151.92484 232.820513 
L 152.817926 234.329495 
L 153.711012 229.048058 
L 154.604097 229.048058 
L 156.390269 232.066022 
L 157.283355 236.592968 
L 158.17644 233.575004 
L 159.069526 231.311531 
L 159.962612 235.838477 
L 160.855698 229.048058 
L 161.748784 229.048058 
L 162.641869 227.539076 
L 163.534955 230.55704 
L 164.428041 226.030094 
L 165.321127 226.030094 
L 166.214213 222.257638 
L 167.107298 223.012129 
L 168.89347 221.503147 
L 169.786556 228.293567 
L 170.679641 230.55704 
L 171.572727 225.275603 
L 172.465813 229.048058 
L 173.358899 225.275603 
L 174.251985 220.748656 
L 175.14507 219.239674 
L 176.038156 218.485183 
L 176.931242 221.503147 
L 177.824328 219.239674 
L 178.717414 219.239674 
L 179.610499 214.712728 
L 180.503585 216.976201 
L 181.396671 215.467219 
L 182.289757 215.467219 
L 183.182843 207.922309 
L 184.075928 211.694764 
L 184.969014 216.976201 
L 185.8621 219.239674 
L 186.755186 212.449255 
L 187.648271 216.976201 
L 188.541357 223.012129 
L 189.434443 225.275603 
L 191.220615 223.766621 
L 192.1137 219.239674 
L 193.006786 221.503147 
L 193.899872 219.994165 
L 194.792958 223.012129 
L 195.686044 222.257638 
L 196.579129 223.012129 
L 197.472215 227.539076 
L 198.365301 234.329495 
L 199.258387 233.575004 
L 200.151472 230.55704 
L 201.044558 231.311531 
L 201.937644 234.329495 
L 202.83073 232.066022 
L 203.723816 230.55704 
L 204.616901 231.311531 
L 205.509987 231.311531 
L 206.403073 229.802549 
L 207.296159 236.592968 
L 208.189245 236.592968 
L 209.08233 235.838477 
L 209.975416 238.856441 
L 210.868502 240.365423 
L 211.761588 236.592968 
L 212.654673 231.311531 
L 213.547759 233.575004 
L 214.440845 227.539076 
L 215.333931 230.55704 
L 216.227017 236.592968 
L 217.120102 238.856441 
L 218.013188 237.347459 
L 218.906274 237.347459 
L 219.79936 238.856441 
L 220.692446 233.575004 
L 221.585531 235.083986 
L 222.478617 237.347459 
L 223.371703 237.347459 
L 224.264789 233.575004 
L 225.157875 233.575004 
L 226.05096 238.10195 
L 226.944046 238.10195 
L 227.837132 238.856441 
L 228.730218 241.874405 
L 229.623303 243.383387 
L 230.516389 244.137878 
L 231.409475 246.401351 
L 232.302561 250.173806 
L 233.195647 249.419315 
L 234.088732 246.401351 
L 234.981818 247.155842 
L 235.874904 252.437279 
L 236.76799 252.437279 
L 237.661076 251.682788 
L 238.554161 255.455243 
L 239.447247 254.700752 
L 240.340333 253.19177 
L 241.233419 250.173806 
L 242.126504 251.682788 
L 243.01959 251.682788 
L 243.912676 248.664824 
L 244.805762 253.946261 
L 245.698848 253.946261 
L 246.591933 258.473207 
L 247.485019 256.209734 
L 248.378105 259.227698 
L 249.271191 259.227698 
L 250.164277 259.982189 
L 251.057362 256.964225 
L 252.843534 256.964225 
L 253.73662 260.73668 
L 254.629706 254.700752 
L 255.522791 256.209734 
L 256.415877 252.437279 
L 257.308963 253.946261 
L 258.202049 253.19177 
L 259.095134 253.946261 
L 259.98822 251.682788 
L 260.881306 253.946261 
L 261.774392 255.455243 
L 262.667478 254.700752 
L 263.560563 250.173806 
L 264.453649 251.682788 
L 265.346735 247.910333 
L 266.239821 248.664824 
L 267.132907 253.19177 
L 268.025992 259.227698 
L 268.919078 255.455243 
L 269.812164 255.455243 
L 270.70525 256.209734 
L 271.598335 254.700752 
L 273.384507 256.209734 
L 274.277593 255.455243 
L 275.170679 256.964225 
L 276.063764 262.245662 
L 276.95685 261.491171 
L 277.849936 256.964225 
L 278.743022 257.718716 
L 279.636108 256.964225 
L 280.529193 254.700752 
L 281.422279 253.19177 
L 282.315365 253.19177 
L 283.208451 256.209734 
L 284.101536 257.718716 
L 284.994622 256.964225 
L 286.780794 256.964225 
L 287.67388 256.209734 
L 288.566965 254.700752 
L 289.460051 256.209734 
L 290.353137 256.964225 
L 291.246223 255.455243 
L 292.139309 254.700752 
L 293.032394 258.473207 
L 293.92548 261.491171 
L 294.818566 259.227698 
L 295.711652 261.491171 
L 296.604738 261.491171 
L 297.497823 259.982189 
L 298.390909 262.245662 
L 299.283995 258.473207 
L 300.177081 256.209734 
L 301.070166 255.455243 
L 301.963252 252.437279 
L 304.64251 252.437279 
L 306.428681 249.419315 
L 307.321767 246.401351 
L 308.214853 251.682788 
L 309.107939 251.682788 
L 310.001024 250.928297 
L 310.89411 249.419315 
L 311.787196 246.401351 
L 312.680282 247.155842 
L 314.466453 245.64686 
L 315.359539 244.137878 
L 316.252625 241.874405 
L 317.145711 244.892369 
L 318.038796 235.838477 
L 318.931882 233.575004 
L 319.824968 235.083986 
L 320.718054 234.329495 
L 321.61114 226.784585 
L 322.504225 234.329495 
L 323.397311 233.575004 
L 324.290397 235.838477 
L 325.183483 235.083986 
L 326.076569 227.539076 
L 326.969654 226.030094 
L 327.86274 226.030094 
L 328.755826 216.22171 
L 329.648912 219.994165 
L 330.541997 225.275603 
L 331.435083 221.503147 
L 332.328169 222.257638 
L 333.221255 222.257638 
L 334.114341 223.766621 
L 335.007426 223.012129 
L 335.900512 228.293567 
L 336.793598 229.048058 
L 337.686684 223.766621 
L 338.57977 220.748656 
L 339.472855 222.257638 
L 340.365941 226.784585 
L 341.259027 228.293567 
L 342.152113 226.784585 
L 343.045198 235.083986 
L 343.938284 229.048058 
L 344.83137 229.048058 
L 345.724456 225.275603 
L 346.617542 220.748656 
L 347.510627 223.766621 
L 348.403713 223.766621 
L 349.296799 229.048058 
L 350.189885 231.311531 
L 351.082971 229.048058 
L 351.976056 228.293567 
L 352.869142 231.311531 
L 353.762228 235.838477 
L 354.655314 232.820513 
L 355.548399 230.55704 
L 356.441485 232.066022 
L 357.334571 226.784585 
L 358.227657 232.066022 
L 359.120743 235.083986 
L 360.013828 235.083986 
L 360.906914 226.784585 
L 361.8 235.083986 
L 362.693086 235.083986 
L 363.586172 238.856441 
L 364.479257 236.592968 
L 365.372343 235.083986 
L 366.265429 236.592968 
L 367.158515 237.347459 
L 368.051601 239.610932 
L 368.944686 241.119914 
L 369.837772 241.874405 
L 370.730858 243.383387 
L 371.623944 241.874405 
L 372.517029 238.856441 
L 373.410115 237.347459 
L 374.303201 232.820513 
L 375.196287 233.575004 
L 376.089373 228.293567 
L 376.982458 226.784585 
L 377.875544 223.766621 
L 378.76863 225.275603 
L 379.661716 227.539076 
L 381.447887 230.55704 
L 382.340973 231.311531 
L 383.234059 233.575004 
L 384.127145 232.066022 
L 385.02023 234.329495 
L 385.913316 229.048058 
L 386.806402 229.802549 
L 387.699488 232.066022 
L 388.592574 231.311531 
L 389.485659 236.592968 
L 392.164917 238.856441 
L 393.058003 235.838477 
L 393.951088 231.311531 
L 394.844174 235.838477 
L 395.73726 232.820513 
L 396.630346 236.592968 
L 397.523431 238.10195 
L 398.416517 242.628896 
L 399.309603 245.64686 
L 400.202689 247.155842 
L 401.095775 244.892369 
L 401.98886 245.64686 
L 402.881946 243.383387 
L 403.775032 250.928297 
L 404.668118 251.682788 
L 405.561204 240.365423 
L 406.454289 244.137878 
L 407.347375 242.628896 
L 408.240461 243.383387 
L 409.133547 239.610932 
L 410.026633 242.628896 
L 410.919718 244.137878 
L 411.812804 241.874405 
L 412.70589 243.383387 
L 413.598976 248.664824 
L 415.385147 239.610932 
L 416.278233 244.892369 
L 417.171319 240.365423 
L 418.064405 237.347459 
L 418.95749 239.610932 
L 419.850576 236.592968 
L 420.743662 236.592968 
L 421.636748 237.347459 
L 422.529834 243.383387 
L 423.422919 233.575004 
L 424.316005 236.592968 
L 425.209091 238.856441 
L 426.102177 232.066022 
L 426.995262 229.048058 
L 427.888348 223.766621 
L 428.781434 211.694764 
L 429.67452 204.904345 
L 430.567606 213.958237 
L 431.460691 201.886381 
L 432.353777 196.604944 
L 433.246863 198.113926 
L 434.139949 186.796561 
L 435.033035 190.569016 
L 435.92612 186.04207 
L 436.819206 187.551052 
L 437.712292 180.760632 
L 438.605378 177.742668 
L 439.498464 165.670812 
L 440.391549 163.407339 
L 441.284635 155.862429 
L 442.177721 151.335483 
L 443.070807 154.353447 
L 443.963892 152.089974 
L 444.856978 150.580992 
L 445.750064 147.563028 
L 447.536236 146.054046 
L 448.429321 149.07201 
L 449.322407 146.808537 
L 450.215493 146.054046 
L 452.001665 143.036082 
L 452.89475 144.545064 
L 453.787836 153.598956 
L 454.680922 153.598956 
L 456.467093 165.670812 
L 457.360179 162.652848 
L 458.253265 158.880393 
L 459.146351 168.688776 
L 460.039437 163.407339 
L 460.932522 172.461231 
L 462.718694 175.479195 
L 463.61178 180.760632 
L 464.504866 189.060034 
L 465.397951 189.814525 
L 466.291037 194.341471 
L 468.077209 192.832489 
L 468.970294 197.359435 
L 469.86338 202.640872 
L 470.756466 198.113926 
L 471.649552 202.640872 
L 472.542638 183.024106 
L 473.435723 198.868417 
L 474.328809 205.658836 
L 475.221895 208.6768 
L 476.114981 198.868417 
L 477.008067 197.359435 
L 477.901152 204.149854 
L 478.794238 200.377399 
L 479.687324 182.269615 
L 480.58041 194.341471 
L 481.473496 192.832489 
L 482.366581 193.58698 
L 484.152753 204.904345 
L 485.045839 198.868417 
L 485.938924 198.113926 
L 486.83201 194.341471 
L 487.725096 189.814525 
L 488.618182 191.323507 
L 489.511268 195.850453 
L 490.404353 193.58698 
L 491.297439 183.778597 
L 492.190525 183.778597 
L 493.083611 186.04207 
L 493.976697 186.796561 
L 494.869782 183.024106 
L 495.762868 180.760632 
L 496.655954 176.233686 
L 497.54904 174.724704 
L 498.442125 179.25165 
L 499.335211 167.934285 
L 500.228297 176.988177 
L 501.121383 178.497159 
L 502.014469 173.970213 
L 502.907554 168.688776 
L 503.80064 178.497159 
L 504.693726 180.760632 
L 505.586812 181.515124 
L 506.479898 183.778597 
L 507.372983 192.077998 
L 508.266069 195.850453 
L 509.159155 193.58698 
L 510.052241 198.868417 
L 510.945327 197.359435 
L 511.838412 198.868417 
L 512.731498 201.13189 
L 513.624584 200.377399 
L 514.51767 210.185782 
L 515.410755 207.922309 
L 516.303841 208.6768 
L 517.196927 211.694764 
L 518.090013 203.395363 
L 518.983099 204.904345 
L 519.876184 207.922309 
L 520.76927 213.958237 
L 521.662356 222.257638 
L 522.555442 226.030094 
L 523.448528 219.239674 
L 524.341613 219.994165 
L 525.234699 223.766621 
L 526.127785 225.275603 
L 527.020871 227.539076 
L 527.913956 222.257638 
L 528.807042 226.784585 
L 529.700128 230.55704 
L 530.593214 229.048058 
L 531.4863 228.293567 
L 533.272471 234.329495 
L 535.058643 237.347459 
L 535.951729 232.820513 
L 536.844814 235.838477 
L 537.7379 229.802549 
L 538.630986 226.784585 
L 539.524072 229.048058 
L 540.417157 228.293567 
L 541.310243 224.521112 
L 542.203329 229.802549 
L 543.096415 230.55704 
L 543.989501 234.329495 
L 546.668758 241.119914 
L 547.561844 242.628896 
L 548.45493 246.401351 
L 549.348015 244.137878 
L 550.241101 245.64686 
L 551.134187 240.365423 
L 552.027273 247.910333 
L 552.920359 247.910333 
L 553.813444 250.173806 
L 554.70653 247.155842 
L 556.492702 247.155842 
L 557.385787 245.64686 
L 558.278873 245.64686 
L 559.171959 242.628896 
L 560.065045 246.401351 
L 560.958131 247.155842 
L 561.851216 246.401351 
L 562.744302 241.874405 
L 563.637388 244.137878 
L 564.530474 245.64686 
L 565.42356 244.137878 
L 566.316645 247.155842 
L 567.209731 245.64686 
L 568.102817 244.892369 
L 568.995903 247.910333 
L 569.888988 250.173806 
L 570.782074 251.682788 
L 571.67516 251.682788 
L 572.568246 252.437279 
L 573.461332 253.946261 
L 574.354417 258.473207 
L 575.247503 257.718716 
L 576.140589 263.000153 
L 577.033675 257.718716 
L 577.926761 255.455243 
L 578.819846 253.946261 
L 579.712932 255.455243 
L 580.606018 256.209734 
L 581.499104 259.982189 
L 582.39219 263.000153 
L 583.285275 263.000153 
L 584.178361 259.227698 
L 585.071447 256.964225 
L 585.964533 262.245662 
L 587.750704 260.73668 
L 588.64379 261.491171 
L 589.536876 265.263626 
L 590.429962 263.754644 
L 591.323047 259.982189 
L 592.216133 259.227698 
L 593.109219 261.491171 
L 594.002305 259.227698 
L 594.895391 263.000153 
L 595.788476 256.964225 
L 596.681562 256.964225 
L 598.467734 259.982189 
L 599.360819 263.754644 
L 601.146991 265.263626 
L 602.040077 265.263626 
L 602.933163 263.000153 
L 603.826248 268.281591 
L 605.61242 266.772609 
L 606.505506 266.772609 
L 608.291677 271.299555 
L 609.184763 268.281591 
L 610.077849 268.281591 
L 610.970935 270.545064 
L 611.86402 271.299555 
L 612.757106 272.808537 
L 613.650192 272.054046 
L 614.543278 272.808537 
L 615.436364 271.299555 
L 615.436364 271.299555 
" style="fill:none;stroke:#ff7f0e;stroke-linecap:round;stroke-width:1.5;"/>
   </g>
   <g id="patch_3">
    <path d="M 82.8 298.989375 
L 82.8 21.789375 
" style="fill:none;stroke:#cccccc;stroke-linecap:square;stroke-linejoin:miter;stroke-width:0.8;"/>
   </g>
   <g id="patch_4">
    <path d="M 640.8 298.989375 
L 640.8 21.789375 
" style="fill:none;stroke:#cccccc;stroke-linecap:square;stroke-linejoin:miter;stroke-width:0.8;"/>
   </g>
   <g id="patch_5">
    <path d="M 82.8 298.989375 
L 640.8 298.989375 
" style="fill:none;stroke:#cccccc;stroke-linecap:square;stroke-linejoin:miter;stroke-width:0.8;"/>
   </g>
   <g id="patch_6">
    <path d="M 82.8 21.789375 
L 640.8 21.789375 
" style="fill:none;stroke:#cccccc;stroke-linecap:square;stroke-linejoin:miter;stroke-width:0.8;"/>
   </g>
   <g id="text_20">
    <!-- Internações -->
    <g style="fill:#262626;" transform="translate(330.449063 15.789375)scale(0.12 -0.12)">
     <defs>
      <path d="M 597 0 
L 597 4581 
L 1203 4581 
L 1203 0 
L 597 0 
z
" id="ArialMT-49" transform="scale(0.015625)"/>
      <path d="M 422 0 
L 422 3319 
L 928 3319 
L 928 2847 
Q 1294 3394 1984 3394 
Q 2284 3394 2536 3286 
Q 2788 3178 2913 3003 
Q 3038 2828 3088 2588 
Q 3119 2431 3119 2041 
L 3119 0 
L 2556 0 
L 2556 2019 
Q 2556 2363 2490 2533 
Q 2425 2703 2258 2804 
Q 2091 2906 1866 2906 
Q 1506 2906 1245 2678 
Q 984 2450 984 1813 
L 984 0 
L 422 0 
z
" id="ArialMT-6e" transform="scale(0.015625)"/>
      <path d="M 1650 503 
L 1731 6 
Q 1494 -44 1306 -44 
Q 1000 -44 831 53 
Q 663 150 594 308 
Q 525 466 525 972 
L 525 2881 
L 113 2881 
L 113 3319 
L 525 3319 
L 525 4141 
L 1084 4478 
L 1084 3319 
L 1650 3319 
L 1650 2881 
L 1084 2881 
L 1084 941 
Q 1084 700 1114 631 
Q 1144 563 1211 522 
Q 1278 481 1403 481 
Q 1497 481 1650 503 
z
" id="ArialMT-74" transform="scale(0.015625)"/>
      <path d="M 2694 1069 
L 3275 997 
Q 3138 488 2766 206 
Q 2394 -75 1816 -75 
Q 1088 -75 661 373 
Q 234 822 234 1631 
Q 234 2469 665 2931 
Q 1097 3394 1784 3394 
Q 2450 3394 2872 2941 
Q 3294 2488 3294 1666 
Q 3294 1616 3291 1516 
L 816 1516 
Q 847 969 1125 678 
Q 1403 388 1819 388 
Q 2128 388 2347 550 
Q 2566 713 2694 1069 
z
M 847 1978 
L 2700 1978 
Q 2663 2397 2488 2606 
Q 2219 2931 1791 2931 
Q 1403 2931 1139 2672 
Q 875 2413 847 1978 
z
" id="ArialMT-65" transform="scale(0.015625)"/>
      <path d="M 416 0 
L 416 3319 
L 922 3319 
L 922 2816 
Q 1116 3169 1280 3281 
Q 1444 3394 1641 3394 
Q 1925 3394 2219 3213 
L 2025 2691 
Q 1819 2813 1613 2813 
Q 1428 2813 1281 2702 
Q 1134 2591 1072 2394 
Q 978 2094 978 1738 
L 978 0 
L 416 0 
z
" id="ArialMT-72" transform="scale(0.015625)"/>
      <path d="M 2588 409 
Q 2275 144 1986 34 
Q 1697 -75 1366 -75 
Q 819 -75 525 192 
Q 231 459 231 875 
Q 231 1119 342 1320 
Q 453 1522 633 1644 
Q 813 1766 1038 1828 
Q 1203 1872 1538 1913 
Q 2219 1994 2541 2106 
Q 2544 2222 2544 2253 
Q 2544 2597 2384 2738 
Q 2169 2928 1744 2928 
Q 1347 2928 1158 2789 
Q 969 2650 878 2297 
L 328 2372 
Q 403 2725 575 2942 
Q 747 3159 1072 3276 
Q 1397 3394 1825 3394 
Q 2250 3394 2515 3294 
Q 2781 3194 2906 3042 
Q 3031 2891 3081 2659 
Q 3109 2516 3109 2141 
L 3109 1391 
Q 3109 606 3145 398 
Q 3181 191 3288 0 
L 2700 0 
Q 2613 175 2588 409 
z
M 2541 1666 
Q 2234 1541 1622 1453 
Q 1275 1403 1131 1340 
Q 988 1278 909 1158 
Q 831 1038 831 891 
Q 831 666 1001 516 
Q 1172 366 1500 366 
Q 1825 366 2078 508 
Q 2331 650 2450 897 
Q 2541 1088 2541 1459 
L 2541 1666 
z
" id="ArialMT-61" transform="scale(0.015625)"/>
      <path d="M 2588 1216 
L 3141 1144 
Q 3050 572 2676 248 
Q 2303 -75 1759 -75 
Q 1078 -75 664 370 
Q 250 816 250 1647 
Q 250 2184 428 2587 
Q 606 2991 970 3192 
Q 1334 3394 1763 3394 
Q 2303 3394 2647 3120 
Q 2991 2847 3088 2344 
L 2541 2259 
Q 2463 2594 2264 2762 
Q 2066 2931 1784 2931 
Q 1359 2931 1093 2626 
Q 828 2322 828 1663 
Q 828 994 1084 691 
Q 1341 388 1753 388 
Q 2084 388 2306 591 
Q 2528 794 2588 1216 
z
M 1283 -417 
L 1446 136 
L 1864 136 
L 1761 -199 
Q 2027 -230 2161 -362 
Q 2296 -495 2296 -658 
Q 2296 -892 2071 -1072 
Q 1846 -1252 1392 -1252 
Q 1136 -1252 942 -1214 
L 977 -849 
Q 1177 -861 1271 -861 
Q 1564 -861 1683 -780 
Q 1774 -717 1774 -627 
Q 1774 -570 1738 -526 
Q 1702 -483 1605 -451 
Q 1508 -420 1283 -417 
z
" id="ArialMT-e7" transform="scale(0.015625)"/>
      <path d="M 213 1659 
Q 213 2581 725 3025 
Q 1153 3394 1769 3394 
Q 2453 3394 2887 2945 
Q 3322 2497 3322 1706 
Q 3322 1066 3130 698 
Q 2938 331 2570 128 
Q 2203 -75 1769 -75 
Q 1072 -75 642 372 
Q 213 819 213 1659 
z
M 791 1659 
Q 791 1022 1069 705 
Q 1347 388 1769 388 
Q 2188 388 2466 706 
Q 2744 1025 2744 1678 
Q 2744 2294 2464 2611 
Q 2184 2928 1769 2928 
Q 1347 2928 1069 2612 
Q 791 2297 791 1659 
z
M 726 3809 
Q 723 4134 904 4328 
Q 1082 4522 1360 4522 
Q 1554 4522 1888 4353 
Q 2073 4259 2182 4259 
Q 2282 4259 2335 4314 
Q 2388 4369 2410 4531 
L 2817 4531 
Q 2807 4175 2637 3997 
Q 2467 3819 2204 3819 
Q 2007 3819 1685 3994 
Q 1476 4106 1379 4106 
Q 1273 4106 1207 4031 
Q 1138 3956 1142 3809 
L 726 3809 
z
" id="ArialMT-f5" transform="scale(0.015625)"/>
      <path d="M 197 991 
L 753 1078 
Q 800 744 1014 566 
Q 1228 388 1613 388 
Q 2000 388 2187 545 
Q 2375 703 2375 916 
Q 2375 1106 2209 1216 
Q 2094 1291 1634 1406 
Q 1016 1563 777 1677 
Q 538 1791 414 1992 
Q 291 2194 291 2438 
Q 291 2659 392 2848 
Q 494 3038 669 3163 
Q 800 3259 1026 3326 
Q 1253 3394 1513 3394 
Q 1903 3394 2198 3281 
Q 2494 3169 2634 2976 
Q 2775 2784 2828 2463 
L 2278 2388 
Q 2241 2644 2061 2787 
Q 1881 2931 1553 2931 
Q 1166 2931 1000 2803 
Q 834 2675 834 2503 
Q 834 2394 903 2306 
Q 972 2216 1119 2156 
Q 1203 2125 1616 2013 
Q 2213 1853 2448 1751 
Q 2684 1650 2818 1456 
Q 2953 1263 2953 975 
Q 2953 694 2789 445 
Q 2625 197 2315 61 
Q 2006 -75 1616 -75 
Q 969 -75 630 194 
Q 291 463 197 991 
z
" id="ArialMT-73" transform="scale(0.015625)"/>
     </defs>
     <use xlink:href="#ArialMT-49"/>
     <use x="27.783203" xlink:href="#ArialMT-6e"/>
     <use x="83.398438" xlink:href="#ArialMT-74"/>
     <use x="111.181641" xlink:href="#ArialMT-65"/>
     <use x="166.796875" xlink:href="#ArialMT-72"/>
     <use x="200.097656" xlink:href="#ArialMT-6e"/>
     <use x="255.712891" xlink:href="#ArialMT-61"/>
     <use x="311.328125" xlink:href="#ArialMT-e7"/>
     <use x="361.328125" xlink:href="#ArialMT-f5"/>
     <use x="416.943359" xlink:href="#ArialMT-65"/>
     <use x="472.558594" xlink:href="#ArialMT-73"/>
    </g>
   </g>
   <g id="legend_1">
    <g id="patch_7">
     <path d="M 549.548437 58.08 
L 633.8 58.08 
Q 635.8 58.08 635.8 56.08 
L 635.8 28.789375 
Q 635.8 26.789375 633.8 26.789375 
L 549.548437 26.789375 
Q 547.548437 26.789375 547.548437 28.789375 
L 547.548437 56.08 
Q 547.548437 58.08 549.548437 58.08 
z
" style="fill:#ffffff;opacity:0.8;stroke:#cccccc;stroke-linejoin:miter;"/>
    </g>
    <g id="line2d_22">
     <path d="M 551.548437 34.447188 
L 571.548437 34.447188 
" style="fill:none;stroke:#1f77b4;stroke-linecap:round;stroke-width:1.5;"/>
    </g>
    <g id="line2d_23"/>
    <g id="text_21">
     <!-- Internações -->
     <g style="fill:#262626;" transform="translate(579.548437 37.947188)scale(0.1 -0.1)">
      <use xlink:href="#ArialMT-49"/>
      <use x="27.783203" xlink:href="#ArialMT-6e"/>
      <use x="83.398438" xlink:href="#ArialMT-74"/>
      <use x="111.181641" xlink:href="#ArialMT-65"/>
      <use x="166.796875" xlink:href="#ArialMT-72"/>
      <use x="200.097656" xlink:href="#ArialMT-6e"/>
      <use x="255.712891" xlink:href="#ArialMT-61"/>
      <use x="311.328125" xlink:href="#ArialMT-e7"/>
      <use x="361.328125" xlink:href="#ArialMT-f5"/>
      <use x="416.943359" xlink:href="#ArialMT-65"/>
      <use x="472.558594" xlink:href="#ArialMT-73"/>
     </g>
    </g>
    <g id="line2d_24">
     <path d="M 551.548437 48.5925 
L 571.548437 48.5925 
" style="fill:none;stroke:#ff7f0e;stroke-linecap:round;stroke-width:1.5;"/>
    </g>
    <g id="line2d_25"/>
    <g id="text_22">
     <!-- UTI -->
     <g style="fill:#262626;" transform="translate(579.548437 52.0925)scale(0.1 -0.1)">
      <defs>
       <path d="M 3500 4581 
L 4106 4581 
L 4106 1934 
Q 4106 1244 3950 837 
Q 3794 431 3386 176 
Q 2978 -78 2316 -78 
Q 1672 -78 1262 144 
Q 853 366 678 786 
Q 503 1206 503 1934 
L 503 4581 
L 1109 4581 
L 1109 1938 
Q 1109 1341 1220 1058 
Q 1331 775 1601 622 
Q 1872 469 2263 469 
Q 2931 469 3215 772 
Q 3500 1075 3500 1938 
L 3500 4581 
z
" id="ArialMT-55" transform="scale(0.015625)"/>
       <path d="M 1659 0 
L 1659 4041 
L 150 4041 
L 150 4581 
L 3781 4581 
L 3781 4041 
L 2266 4041 
L 2266 0 
L 1659 0 
z
" id="ArialMT-54" transform="scale(0.015625)"/>
      </defs>
      <use xlink:href="#ArialMT-55"/>
      <use x="72.216797" xlink:href="#ArialMT-54"/>
      <use x="133.300781" xlink:href="#ArialMT-49"/>
     </g>
    </g>
   </g>
  </g>
  <g id="text_23">
   <!-- Atualizado em 08/10/2021 -->
   <g style="fill:#262626;" transform="translate(7.2 331.389375)scale(0.08 -0.08)">
    <defs>
     <path d="M -9 0 
L 1750 4581 
L 2403 4581 
L 4278 0 
L 3588 0 
L 3053 1388 
L 1138 1388 
L 634 0 
L -9 0 
z
M 1313 1881 
L 2866 1881 
L 2388 3150 
Q 2169 3728 2063 4100 
Q 1975 3659 1816 3225 
L 1313 1881 
z
" id="ArialMT-41" transform="scale(0.015625)"/>
     <path d="M 2597 0 
L 2597 488 
Q 2209 -75 1544 -75 
Q 1250 -75 995 37 
Q 741 150 617 320 
Q 494 491 444 738 
Q 409 903 409 1263 
L 409 3319 
L 972 3319 
L 972 1478 
Q 972 1038 1006 884 
Q 1059 663 1231 536 
Q 1403 409 1656 409 
Q 1909 409 2131 539 
Q 2353 669 2445 892 
Q 2538 1116 2538 1541 
L 2538 3319 
L 3100 3319 
L 3100 0 
L 2597 0 
z
" id="ArialMT-75" transform="scale(0.015625)"/>
     <path d="M 409 0 
L 409 4581 
L 972 4581 
L 972 0 
L 409 0 
z
" id="ArialMT-6c" transform="scale(0.015625)"/>
     <path d="M 425 3934 
L 425 4581 
L 988 4581 
L 988 3934 
L 425 3934 
z
M 425 0 
L 425 3319 
L 988 3319 
L 988 0 
L 425 0 
z
" id="ArialMT-69" transform="scale(0.015625)"/>
     <path d="M 125 0 
L 125 456 
L 2238 2881 
Q 1878 2863 1603 2863 
L 250 2863 
L 250 3319 
L 2963 3319 
L 2963 2947 
L 1166 841 
L 819 456 
Q 1197 484 1528 484 
L 3063 484 
L 3063 0 
L 125 0 
z
" id="ArialMT-7a" transform="scale(0.015625)"/>
     <path d="M 2575 0 
L 2575 419 
Q 2259 -75 1647 -75 
Q 1250 -75 917 144 
Q 584 363 401 755 
Q 219 1147 219 1656 
Q 219 2153 384 2558 
Q 550 2963 881 3178 
Q 1213 3394 1622 3394 
Q 1922 3394 2156 3267 
Q 2391 3141 2538 2938 
L 2538 4581 
L 3097 4581 
L 3097 0 
L 2575 0 
z
M 797 1656 
Q 797 1019 1065 703 
Q 1334 388 1700 388 
Q 2069 388 2326 689 
Q 2584 991 2584 1609 
Q 2584 2291 2321 2609 
Q 2059 2928 1675 2928 
Q 1300 2928 1048 2622 
Q 797 2316 797 1656 
z
" id="ArialMT-64" transform="scale(0.015625)"/>
     <path d="M 213 1659 
Q 213 2581 725 3025 
Q 1153 3394 1769 3394 
Q 2453 3394 2887 2945 
Q 3322 2497 3322 1706 
Q 3322 1066 3130 698 
Q 2938 331 2570 128 
Q 2203 -75 1769 -75 
Q 1072 -75 642 372 
Q 213 819 213 1659 
z
M 791 1659 
Q 791 1022 1069 705 
Q 1347 388 1769 388 
Q 2188 388 2466 706 
Q 2744 1025 2744 1678 
Q 2744 2294 2464 2611 
Q 2184 2928 1769 2928 
Q 1347 2928 1069 2612 
Q 791 2297 791 1659 
z
" id="ArialMT-6f" transform="scale(0.015625)"/>
     <path id="ArialMT-20" transform="scale(0.015625)"/>
     <path d="M 422 0 
L 422 3319 
L 925 3319 
L 925 2853 
Q 1081 3097 1340 3245 
Q 1600 3394 1931 3394 
Q 2300 3394 2536 3241 
Q 2772 3088 2869 2813 
Q 3263 3394 3894 3394 
Q 4388 3394 4653 3120 
Q 4919 2847 4919 2278 
L 4919 0 
L 4359 0 
L 4359 2091 
Q 4359 2428 4304 2576 
Q 4250 2725 4106 2815 
Q 3963 2906 3769 2906 
Q 3419 2906 3187 2673 
Q 2956 2441 2956 1928 
L 2956 0 
L 2394 0 
L 2394 2156 
Q 2394 2531 2256 2718 
Q 2119 2906 1806 2906 
Q 1569 2906 1367 2781 
Q 1166 2656 1075 2415 
Q 984 2175 984 1722 
L 984 0 
L 422 0 
z
" id="ArialMT-6d" transform="scale(0.015625)"/>
     <path d="M 1131 2484 
Q 781 2613 612 2850 
Q 444 3088 444 3419 
Q 444 3919 803 4259 
Q 1163 4600 1759 4600 
Q 2359 4600 2725 4251 
Q 3091 3903 3091 3403 
Q 3091 3084 2923 2848 
Q 2756 2613 2416 2484 
Q 2838 2347 3058 2040 
Q 3278 1734 3278 1309 
Q 3278 722 2862 322 
Q 2447 -78 1769 -78 
Q 1091 -78 675 323 
Q 259 725 259 1325 
Q 259 1772 486 2073 
Q 713 2375 1131 2484 
z
M 1019 3438 
Q 1019 3113 1228 2906 
Q 1438 2700 1772 2700 
Q 2097 2700 2305 2904 
Q 2513 3109 2513 3406 
Q 2513 3716 2298 3927 
Q 2084 4138 1766 4138 
Q 1444 4138 1231 3931 
Q 1019 3725 1019 3438 
z
M 838 1322 
Q 838 1081 952 856 
Q 1066 631 1291 507 
Q 1516 384 1775 384 
Q 2178 384 2440 643 
Q 2703 903 2703 1303 
Q 2703 1709 2433 1975 
Q 2163 2241 1756 2241 
Q 1359 2241 1098 1978 
Q 838 1716 838 1322 
z
" id="ArialMT-38" transform="scale(0.015625)"/>
     <path d="M 0 -78 
L 1328 4659 
L 1778 4659 
L 453 -78 
L 0 -78 
z
" id="ArialMT-2f" transform="scale(0.015625)"/>
    </defs>
    <use xlink:href="#ArialMT-41"/>
    <use x="66.699219" xlink:href="#ArialMT-74"/>
    <use x="94.482422" xlink:href="#ArialMT-75"/>
    <use x="150.097656" xlink:href="#ArialMT-61"/>
    <use x="205.712891" xlink:href="#ArialMT-6c"/>
    <use x="227.929688" xlink:href="#ArialMT-69"/>
    <use x="250.146484" xlink:href="#ArialMT-7a"/>
    <use x="300.146484" xlink:href="#ArialMT-61"/>
    <use x="355.761719" xlink:href="#ArialMT-64"/>
    <use x="411.376953" xlink:href="#ArialMT-6f"/>
    <use x="466.992188" xlink:href="#ArialMT-20"/>
    <use x="494.775391" xlink:href="#ArialMT-65"/>
    <use x="550.390625" xlink:href="#ArialMT-6d"/>
    <use x="633.691406" xlink:href="#ArialMT-20"/>
    <use x="661.474609" xlink:href="#ArialMT-30"/>
    <use x="717.089844" xlink:href="#ArialMT-38"/>
    <use x="772.705078" xlink:href="#ArialMT-2f"/>
    <use x="800.488281" xlink:href="#ArialMT-31"/>
    <use x="856.103516" xlink:href="#ArialMT-30"/>
    <use x="911.71875" xlink:href="#ArialMT-2f"/>
    <use x="939.501953" xlink:href="#ArialMT-32"/>
    <use x="995.117188" xlink:href="#ArialMT-30"/>
    <use x="1050.732422" xlink:href="#ArialMT-32"/>
    <use x="1106.347656" xlink:href="#ArialMT-31"/>
   </g>
  </g>
  <g id="text_24">
   <!-- https://jmsvaz.github.io/covidsantos/ -->
   <g style="fill:#262626;" transform="translate(570.345 331.389375)scale(0.08 -0.08)">
    <defs>
     <path d="M 422 0 
L 422 4581 
L 984 4581 
L 984 2938 
Q 1378 3394 1978 3394 
Q 2347 3394 2619 3248 
Q 2891 3103 3008 2847 
Q 3125 2591 3125 2103 
L 3125 0 
L 2563 0 
L 2563 2103 
Q 2563 2525 2380 2717 
Q 2197 2909 1863 2909 
Q 1613 2909 1392 2779 
Q 1172 2650 1078 2428 
Q 984 2206 984 1816 
L 984 0 
L 422 0 
z
" id="ArialMT-68" transform="scale(0.015625)"/>
     <path d="M 422 -1272 
L 422 3319 
L 934 3319 
L 934 2888 
Q 1116 3141 1344 3267 
Q 1572 3394 1897 3394 
Q 2322 3394 2647 3175 
Q 2972 2956 3137 2557 
Q 3303 2159 3303 1684 
Q 3303 1175 3120 767 
Q 2938 359 2589 142 
Q 2241 -75 1856 -75 
Q 1575 -75 1351 44 
Q 1128 163 984 344 
L 984 -1272 
L 422 -1272 
z
M 931 1641 
Q 931 1000 1190 694 
Q 1450 388 1819 388 
Q 2194 388 2461 705 
Q 2728 1022 2728 1688 
Q 2728 2322 2467 2637 
Q 2206 2953 1844 2953 
Q 1484 2953 1207 2617 
Q 931 2281 931 1641 
z
" id="ArialMT-70" transform="scale(0.015625)"/>
     <path d="M 578 2678 
L 578 3319 
L 1219 3319 
L 1219 2678 
L 578 2678 
z
M 578 0 
L 578 641 
L 1219 641 
L 1219 0 
L 578 0 
z
" id="ArialMT-3a" transform="scale(0.015625)"/>
     <path d="M 419 3928 
L 419 4581 
L 981 4581 
L 981 3928 
L 419 3928 
z
M -294 -1288 
L -188 -809 
Q -19 -853 78 -853 
Q 250 -853 334 -739 
Q 419 -625 419 -169 
L 419 3319 
L 981 3319 
L 981 -181 
Q 981 -794 822 -1034 
Q 619 -1347 147 -1347 
Q -81 -1347 -294 -1288 
z
" id="ArialMT-6a" transform="scale(0.015625)"/>
     <path d="M 1344 0 
L 81 3319 
L 675 3319 
L 1388 1331 
Q 1503 1009 1600 663 
Q 1675 925 1809 1294 
L 2547 3319 
L 3125 3319 
L 1869 0 
L 1344 0 
z
" id="ArialMT-76" transform="scale(0.015625)"/>
     <path d="M 581 0 
L 581 641 
L 1222 641 
L 1222 0 
L 581 0 
z
" id="ArialMT-2e" transform="scale(0.015625)"/>
     <path d="M 319 -275 
L 866 -356 
Q 900 -609 1056 -725 
Q 1266 -881 1628 -881 
Q 2019 -881 2231 -725 
Q 2444 -569 2519 -288 
Q 2563 -116 2559 434 
Q 2191 0 1641 0 
Q 956 0 581 494 
Q 206 988 206 1678 
Q 206 2153 378 2554 
Q 550 2956 876 3175 
Q 1203 3394 1644 3394 
Q 2231 3394 2613 2919 
L 2613 3319 
L 3131 3319 
L 3131 450 
Q 3131 -325 2973 -648 
Q 2816 -972 2473 -1159 
Q 2131 -1347 1631 -1347 
Q 1038 -1347 672 -1080 
Q 306 -813 319 -275 
z
M 784 1719 
Q 784 1066 1043 766 
Q 1303 466 1694 466 
Q 2081 466 2343 764 
Q 2606 1063 2606 1700 
Q 2606 2309 2336 2618 
Q 2066 2928 1684 2928 
Q 1309 2928 1046 2623 
Q 784 2319 784 1719 
z
" id="ArialMT-67" transform="scale(0.015625)"/>
     <path d="M 941 0 
L 419 0 
L 419 4581 
L 981 4581 
L 981 2947 
Q 1338 3394 1891 3394 
Q 2197 3394 2470 3270 
Q 2744 3147 2920 2923 
Q 3097 2700 3197 2384 
Q 3297 2069 3297 1709 
Q 3297 856 2875 390 
Q 2453 -75 1863 -75 
Q 1275 -75 941 416 
L 941 0 
z
M 934 1684 
Q 934 1088 1097 822 
Q 1363 388 1816 388 
Q 2184 388 2453 708 
Q 2722 1028 2722 1663 
Q 2722 2313 2464 2622 
Q 2206 2931 1841 2931 
Q 1472 2931 1203 2611 
Q 934 2291 934 1684 
z
" id="ArialMT-62" transform="scale(0.015625)"/>
     <path d="M 2588 1216 
L 3141 1144 
Q 3050 572 2676 248 
Q 2303 -75 1759 -75 
Q 1078 -75 664 370 
Q 250 816 250 1647 
Q 250 2184 428 2587 
Q 606 2991 970 3192 
Q 1334 3394 1763 3394 
Q 2303 3394 2647 3120 
Q 2991 2847 3088 2344 
L 2541 2259 
Q 2463 2594 2264 2762 
Q 2066 2931 1784 2931 
Q 1359 2931 1093 2626 
Q 828 2322 828 1663 
Q 828 994 1084 691 
Q 1341 388 1753 388 
Q 2084 388 2306 591 
Q 2528 794 2588 1216 
z
" id="ArialMT-63" transform="scale(0.015625)"/>
    </defs>
    <use xlink:href="#ArialMT-68"/>
    <use x="55.615234" xlink:href="#ArialMT-74"/>
    <use x="83.398438" xlink:href="#ArialMT-74"/>
    <use x="111.181641" xlink:href="#ArialMT-70"/>
    <use x="166.796875" xlink:href="#ArialMT-73"/>
    <use x="216.796875" xlink:href="#ArialMT-3a"/>
    <use x="244.580078" xlink:href="#ArialMT-2f"/>
    <use x="272.363281" xlink:href="#ArialMT-2f"/>
    <use x="300.146484" xlink:href="#ArialMT-6a"/>
    <use x="322.363281" xlink:href="#ArialMT-6d"/>
    <use x="405.664062" xlink:href="#ArialMT-73"/>
    <use x="455.664062" xlink:href="#ArialMT-76"/>
    <use x="505.664062" xlink:href="#ArialMT-61"/>
    <use x="561.279297" xlink:href="#ArialMT-7a"/>
    <use x="611.279297" xlink:href="#ArialMT-2e"/>
    <use x="639.0625" xlink:href="#ArialMT-67"/>
    <use x="694.677734" xlink:href="#ArialMT-69"/>
    <use x="716.894531" xlink:href="#ArialMT-74"/>
    <use x="744.677734" xlink:href="#ArialMT-68"/>
    <use x="800.292969" xlink:href="#ArialMT-75"/>
    <use x="855.908203" xlink:href="#ArialMT-62"/>
    <use x="911.523438" xlink:href="#ArialMT-2e"/>
    <use x="939.306641" xlink:href="#ArialMT-69"/>
    <use x="961.523438" xlink:href="#ArialMT-6f"/>
    <use x="1017.138672" xlink:href="#ArialMT-2f"/>
    <use x="1044.921875" xlink:href="#ArialMT-63"/>
    <use x="1094.921875" xlink:href="#ArialMT-6f"/>
    <use x="1150.537109" xlink:href="#ArialMT-76"/>
    <use x="1200.537109" xlink:href="#ArialMT-69"/>
    <use x="1222.753906" xlink:href="#ArialMT-64"/>
    <use x="1278.369141" xlink:href="#ArialMT-73"/>
    <use x="1328.369141" xlink:href="#ArialMT-61"/>
    <use x="1383.984375" xlink:href="#ArialMT-6e"/>
    <use x="1439.599609" xlink:href="#ArialMT-74"/>
    <use x="1467.382812" xlink:href="#ArialMT-6f"/>
    <use x="1522.998047" xlink:href="#ArialMT-73"/>
    <use x="1572.998047" xlink:href="#ArialMT-2f"/>
   </g>
  </g>
 </g>
 <defs>
  <clipPath id="pf53d904037">
   <rect height="277.2" width="558" x="82.8" y="21.789375"/>
  </clipPath>
 </defs>
</svg>
