<?xml version="1.0" encoding="utf-8" standalone="no"?>
<!DOCTYPE svg PUBLIC "-//W3C//DTD SVG 1.1//EN"
  "http://www.w3.org/Graphics/SVG/1.1/DTD/svg11.dtd">
<svg height="316.934687pt" version="1.1" viewBox="0 0 596.082813 316.934687" width="596.082813pt" xmlns="http://www.w3.org/2000/svg" xmlns:xlink="http://www.w3.org/1999/xlink">
 <metadata>
  <rdf:RDF xmlns:cc="http://creativecommons.org/ns#" xmlns:dc="http://purl.org/dc/elements/1.1/" xmlns:rdf="http://www.w3.org/1999/02/22-rdf-syntax-ns#">
   <cc:Work>
    <dc:type rdf:resource="http://purl.org/dc/dcmitype/StillImage"/>
    <dc:date>2021-04-03T19:06:27.337403</dc:date>
    <dc:format>image/svg+xml</dc:format>
    <dc:creator>
     <cc:Agent>
      <dc:title>Matplotlib v3.4.1, https://matplotlib.org/</dc:title>
     </cc:Agent>
    </dc:creator>
   </cc:Work>
  </rdf:RDF>
 </metadata>
 <defs>
  <style type="text/css">*{stroke-linecap:butt;stroke-linejoin:round;}</style>
 </defs>
 <g id="figure_1">
  <g id="patch_1">
   <path d="M 0 316.934687 
L 596.082813 316.934687 
L 596.082813 0 
L 0 0 
z
" style="fill:#ffffff;"/>
  </g>
  <g id="axes_1">
   <g id="patch_2">
    <path d="M 30.882812 293.589375 
L 588.882812 293.589375 
L 588.882812 21.789375 
L 30.882812 21.789375 
z
" style="fill:#ffffff;"/>
   </g>
   <g id="matplotlib.axis_1">
    <g id="xtick_1">
     <g id="line2d_1">
      <path clip-path="url(#p42921ecde9)" d="M 32.217741 293.589375 
L 32.217741 21.789375 
" style="fill:none;stroke:#cccccc;stroke-linecap:round;stroke-width:0.8;"/>
     </g>
     <g id="text_1">
      <!-- 2020-03 -->
      <g style="fill:#262626;" transform="translate(13.870084 307.747187)scale(0.1 -0.1)">
       <defs>
        <path d="M 3222 541 
L 3222 0 
L 194 0 
Q 188 203 259 391 
Q 375 700 629 1000 
Q 884 1300 1366 1694 
Q 2113 2306 2375 2664 
Q 2638 3022 2638 3341 
Q 2638 3675 2398 3904 
Q 2159 4134 1775 4134 
Q 1369 4134 1125 3890 
Q 881 3647 878 3216 
L 300 3275 
Q 359 3922 746 4261 
Q 1134 4600 1788 4600 
Q 2447 4600 2831 4234 
Q 3216 3869 3216 3328 
Q 3216 3053 3103 2787 
Q 2991 2522 2730 2228 
Q 2469 1934 1863 1422 
Q 1356 997 1212 845 
Q 1069 694 975 541 
L 3222 541 
z
" id="ArialMT-32" transform="scale(0.015625)"/>
        <path d="M 266 2259 
Q 266 3072 433 3567 
Q 600 4063 929 4331 
Q 1259 4600 1759 4600 
Q 2128 4600 2406 4451 
Q 2684 4303 2865 4023 
Q 3047 3744 3150 3342 
Q 3253 2941 3253 2259 
Q 3253 1453 3087 958 
Q 2922 463 2592 192 
Q 2263 -78 1759 -78 
Q 1097 -78 719 397 
Q 266 969 266 2259 
z
M 844 2259 
Q 844 1131 1108 757 
Q 1372 384 1759 384 
Q 2147 384 2411 759 
Q 2675 1134 2675 2259 
Q 2675 3391 2411 3762 
Q 2147 4134 1753 4134 
Q 1366 4134 1134 3806 
Q 844 3388 844 2259 
z
" id="ArialMT-30" transform="scale(0.015625)"/>
        <path d="M 203 1375 
L 203 1941 
L 1931 1941 
L 1931 1375 
L 203 1375 
z
" id="ArialMT-2d" transform="scale(0.015625)"/>
        <path d="M 269 1209 
L 831 1284 
Q 928 806 1161 595 
Q 1394 384 1728 384 
Q 2125 384 2398 659 
Q 2672 934 2672 1341 
Q 2672 1728 2419 1979 
Q 2166 2231 1775 2231 
Q 1616 2231 1378 2169 
L 1441 2663 
Q 1497 2656 1531 2656 
Q 1891 2656 2178 2843 
Q 2466 3031 2466 3422 
Q 2466 3731 2256 3934 
Q 2047 4138 1716 4138 
Q 1388 4138 1169 3931 
Q 950 3725 888 3313 
L 325 3413 
Q 428 3978 793 4289 
Q 1159 4600 1703 4600 
Q 2078 4600 2393 4439 
Q 2709 4278 2876 4000 
Q 3044 3722 3044 3409 
Q 3044 3113 2884 2869 
Q 2725 2625 2413 2481 
Q 2819 2388 3044 2092 
Q 3269 1797 3269 1353 
Q 3269 753 2831 336 
Q 2394 -81 1725 -81 
Q 1122 -81 723 278 
Q 325 638 269 1209 
z
" id="ArialMT-33" transform="scale(0.015625)"/>
       </defs>
       <use xlink:href="#ArialMT-32"/>
       <use x="55.615234" xlink:href="#ArialMT-30"/>
       <use x="111.230469" xlink:href="#ArialMT-32"/>
       <use x="166.845703" xlink:href="#ArialMT-30"/>
       <use x="222.460938" xlink:href="#ArialMT-2d"/>
       <use x="255.761719" xlink:href="#ArialMT-30"/>
       <use x="311.376953" xlink:href="#ArialMT-33"/>
      </g>
     </g>
    </g>
    <g id="xtick_2">
     <g id="line2d_2">
      <path clip-path="url(#p42921ecde9)" d="M 113.648363 293.589375 
L 113.648363 21.789375 
" style="fill:none;stroke:#cccccc;stroke-linecap:round;stroke-width:0.8;"/>
     </g>
     <g id="text_2">
      <!-- 2020-05 -->
      <g style="fill:#262626;" transform="translate(95.300706 307.747187)scale(0.1 -0.1)">
       <defs>
        <path d="M 266 1200 
L 856 1250 
Q 922 819 1161 601 
Q 1400 384 1738 384 
Q 2144 384 2425 690 
Q 2706 997 2706 1503 
Q 2706 1984 2436 2262 
Q 2166 2541 1728 2541 
Q 1456 2541 1237 2417 
Q 1019 2294 894 2097 
L 366 2166 
L 809 4519 
L 3088 4519 
L 3088 3981 
L 1259 3981 
L 1013 2750 
Q 1425 3038 1878 3038 
Q 2478 3038 2890 2622 
Q 3303 2206 3303 1553 
Q 3303 931 2941 478 
Q 2500 -78 1738 -78 
Q 1113 -78 717 272 
Q 322 622 266 1200 
z
" id="ArialMT-35" transform="scale(0.015625)"/>
       </defs>
       <use xlink:href="#ArialMT-32"/>
       <use x="55.615234" xlink:href="#ArialMT-30"/>
       <use x="111.230469" xlink:href="#ArialMT-32"/>
       <use x="166.845703" xlink:href="#ArialMT-30"/>
       <use x="222.460938" xlink:href="#ArialMT-2d"/>
       <use x="255.761719" xlink:href="#ArialMT-30"/>
       <use x="311.376953" xlink:href="#ArialMT-35"/>
      </g>
     </g>
    </g>
    <g id="xtick_3">
     <g id="line2d_3">
      <path clip-path="url(#p42921ecde9)" d="M 195.078985 293.589375 
L 195.078985 21.789375 
" style="fill:none;stroke:#cccccc;stroke-linecap:round;stroke-width:0.8;"/>
     </g>
     <g id="text_3">
      <!-- 2020-07 -->
      <g style="fill:#262626;" transform="translate(176.731328 307.747187)scale(0.1 -0.1)">
       <defs>
        <path d="M 303 3981 
L 303 4522 
L 3269 4522 
L 3269 4084 
Q 2831 3619 2401 2847 
Q 1972 2075 1738 1259 
Q 1569 684 1522 0 
L 944 0 
Q 953 541 1156 1306 
Q 1359 2072 1739 2783 
Q 2119 3494 2547 3981 
L 303 3981 
z
" id="ArialMT-37" transform="scale(0.015625)"/>
       </defs>
       <use xlink:href="#ArialMT-32"/>
       <use x="55.615234" xlink:href="#ArialMT-30"/>
       <use x="111.230469" xlink:href="#ArialMT-32"/>
       <use x="166.845703" xlink:href="#ArialMT-30"/>
       <use x="222.460938" xlink:href="#ArialMT-2d"/>
       <use x="255.761719" xlink:href="#ArialMT-30"/>
       <use x="311.376953" xlink:href="#ArialMT-37"/>
      </g>
     </g>
    </g>
    <g id="xtick_4">
     <g id="line2d_4">
      <path clip-path="url(#p42921ecde9)" d="M 277.844535 293.589375 
L 277.844535 21.789375 
" style="fill:none;stroke:#cccccc;stroke-linecap:round;stroke-width:0.8;"/>
     </g>
     <g id="text_4">
      <!-- 2020-09 -->
      <g style="fill:#262626;" transform="translate(259.496879 307.747187)scale(0.1 -0.1)">
       <defs>
        <path d="M 350 1059 
L 891 1109 
Q 959 728 1153 556 
Q 1347 384 1650 384 
Q 1909 384 2104 503 
Q 2300 622 2425 820 
Q 2550 1019 2634 1356 
Q 2719 1694 2719 2044 
Q 2719 2081 2716 2156 
Q 2547 1888 2255 1720 
Q 1963 1553 1622 1553 
Q 1053 1553 659 1965 
Q 266 2378 266 3053 
Q 266 3750 677 4175 
Q 1088 4600 1706 4600 
Q 2153 4600 2523 4359 
Q 2894 4119 3086 3673 
Q 3278 3228 3278 2384 
Q 3278 1506 3087 986 
Q 2897 466 2520 194 
Q 2144 -78 1638 -78 
Q 1100 -78 759 220 
Q 419 519 350 1059 
z
M 2653 3081 
Q 2653 3566 2395 3850 
Q 2138 4134 1775 4134 
Q 1400 4134 1122 3828 
Q 844 3522 844 3034 
Q 844 2597 1108 2323 
Q 1372 2050 1759 2050 
Q 2150 2050 2401 2323 
Q 2653 2597 2653 3081 
z
" id="ArialMT-39" transform="scale(0.015625)"/>
       </defs>
       <use xlink:href="#ArialMT-32"/>
       <use x="55.615234" xlink:href="#ArialMT-30"/>
       <use x="111.230469" xlink:href="#ArialMT-32"/>
       <use x="166.845703" xlink:href="#ArialMT-30"/>
       <use x="222.460938" xlink:href="#ArialMT-2d"/>
       <use x="255.761719" xlink:href="#ArialMT-30"/>
       <use x="311.376953" xlink:href="#ArialMT-39"/>
      </g>
     </g>
    </g>
    <g id="xtick_5">
     <g id="line2d_5">
      <path clip-path="url(#p42921ecde9)" d="M 359.275157 293.589375 
L 359.275157 21.789375 
" style="fill:none;stroke:#cccccc;stroke-linecap:round;stroke-width:0.8;"/>
     </g>
     <g id="text_5">
      <!-- 2020-11 -->
      <g style="fill:#262626;" transform="translate(341.296251 307.747187)scale(0.1 -0.1)">
       <defs>
        <path d="M 2384 0 
L 1822 0 
L 1822 3584 
Q 1619 3391 1289 3197 
Q 959 3003 697 2906 
L 697 3450 
Q 1169 3672 1522 3987 
Q 1875 4303 2022 4600 
L 2384 4600 
L 2384 0 
z
" id="ArialMT-31" transform="scale(0.015625)"/>
       </defs>
       <use xlink:href="#ArialMT-32"/>
       <use x="55.615234" xlink:href="#ArialMT-30"/>
       <use x="111.230469" xlink:href="#ArialMT-32"/>
       <use x="166.845703" xlink:href="#ArialMT-30"/>
       <use x="222.460938" xlink:href="#ArialMT-2d"/>
       <use x="255.761719" xlink:href="#ArialMT-31"/>
       <use x="304.001953" xlink:href="#ArialMT-31"/>
      </g>
     </g>
    </g>
    <g id="xtick_6">
     <g id="line2d_6">
      <path clip-path="url(#p42921ecde9)" d="M 440.705779 293.589375 
L 440.705779 21.789375 
" style="fill:none;stroke:#cccccc;stroke-linecap:round;stroke-width:0.8;"/>
     </g>
     <g id="text_6">
      <!-- 2021-01 -->
      <g style="fill:#262626;" transform="translate(422.358123 307.747187)scale(0.1 -0.1)">
       <use xlink:href="#ArialMT-32"/>
       <use x="55.615234" xlink:href="#ArialMT-30"/>
       <use x="111.230469" xlink:href="#ArialMT-32"/>
       <use x="166.845703" xlink:href="#ArialMT-31"/>
       <use x="222.460938" xlink:href="#ArialMT-2d"/>
       <use x="255.761719" xlink:href="#ArialMT-30"/>
       <use x="311.376953" xlink:href="#ArialMT-31"/>
      </g>
     </g>
    </g>
    <g id="xtick_7">
     <g id="line2d_7">
      <path clip-path="url(#p42921ecde9)" d="M 519.466545 293.589375 
L 519.466545 21.789375 
" style="fill:none;stroke:#cccccc;stroke-linecap:round;stroke-width:0.8;"/>
     </g>
     <g id="text_7">
      <!-- 2021-03 -->
      <g style="fill:#262626;" transform="translate(501.118888 307.747187)scale(0.1 -0.1)">
       <use xlink:href="#ArialMT-32"/>
       <use x="55.615234" xlink:href="#ArialMT-30"/>
       <use x="111.230469" xlink:href="#ArialMT-32"/>
       <use x="166.845703" xlink:href="#ArialMT-31"/>
       <use x="222.460938" xlink:href="#ArialMT-2d"/>
       <use x="255.761719" xlink:href="#ArialMT-30"/>
       <use x="311.376953" xlink:href="#ArialMT-33"/>
      </g>
     </g>
    </g>
   </g>
   <g id="matplotlib.axis_2">
    <g id="ytick_1">
     <g id="line2d_8">
      <path clip-path="url(#p42921ecde9)" d="M 30.882812 281.23483 
L 588.882812 281.23483 
" style="fill:none;stroke:#cccccc;stroke-linecap:round;stroke-width:0.8;"/>
     </g>
     <g id="text_8">
      <!-- 0 -->
      <g style="fill:#262626;" transform="translate(18.321875 284.813736)scale(0.1 -0.1)">
       <use xlink:href="#ArialMT-30"/>
      </g>
     </g>
    </g>
    <g id="ytick_2">
     <g id="line2d_9">
      <path clip-path="url(#p42921ecde9)" d="M 30.882812 244.245172 
L 588.882812 244.245172 
" style="fill:none;stroke:#cccccc;stroke-linecap:round;stroke-width:0.8;"/>
     </g>
     <g id="text_9">
      <!-- 50 -->
      <g style="fill:#262626;" transform="translate(12.760937 247.824079)scale(0.1 -0.1)">
       <use xlink:href="#ArialMT-35"/>
       <use x="55.615234" xlink:href="#ArialMT-30"/>
      </g>
     </g>
    </g>
    <g id="ytick_3">
     <g id="line2d_10">
      <path clip-path="url(#p42921ecde9)" d="M 30.882812 207.255515 
L 588.882812 207.255515 
" style="fill:none;stroke:#cccccc;stroke-linecap:round;stroke-width:0.8;"/>
     </g>
     <g id="text_10">
      <!-- 100 -->
      <g style="fill:#262626;" transform="translate(7.2 210.834422)scale(0.1 -0.1)">
       <use xlink:href="#ArialMT-31"/>
       <use x="55.615234" xlink:href="#ArialMT-30"/>
       <use x="111.230469" xlink:href="#ArialMT-30"/>
      </g>
     </g>
    </g>
    <g id="ytick_4">
     <g id="line2d_11">
      <path clip-path="url(#p42921ecde9)" d="M 30.882812 170.265858 
L 588.882812 170.265858 
" style="fill:none;stroke:#cccccc;stroke-linecap:round;stroke-width:0.8;"/>
     </g>
     <g id="text_11">
      <!-- 150 -->
      <g style="fill:#262626;" transform="translate(7.2 173.844765)scale(0.1 -0.1)">
       <use xlink:href="#ArialMT-31"/>
       <use x="55.615234" xlink:href="#ArialMT-35"/>
       <use x="111.230469" xlink:href="#ArialMT-30"/>
      </g>
     </g>
    </g>
    <g id="ytick_5">
     <g id="line2d_12">
      <path clip-path="url(#p42921ecde9)" d="M 30.882812 133.276201 
L 588.882812 133.276201 
" style="fill:none;stroke:#cccccc;stroke-linecap:round;stroke-width:0.8;"/>
     </g>
     <g id="text_12">
      <!-- 200 -->
      <g style="fill:#262626;" transform="translate(7.2 136.855108)scale(0.1 -0.1)">
       <use xlink:href="#ArialMT-32"/>
       <use x="55.615234" xlink:href="#ArialMT-30"/>
       <use x="111.230469" xlink:href="#ArialMT-30"/>
      </g>
     </g>
    </g>
    <g id="ytick_6">
     <g id="line2d_13">
      <path clip-path="url(#p42921ecde9)" d="M 30.882812 96.286544 
L 588.882812 96.286544 
" style="fill:none;stroke:#cccccc;stroke-linecap:round;stroke-width:0.8;"/>
     </g>
     <g id="text_13">
      <!-- 250 -->
      <g style="fill:#262626;" transform="translate(7.2 99.865451)scale(0.1 -0.1)">
       <use xlink:href="#ArialMT-32"/>
       <use x="55.615234" xlink:href="#ArialMT-35"/>
       <use x="111.230469" xlink:href="#ArialMT-30"/>
      </g>
     </g>
    </g>
    <g id="ytick_7">
     <g id="line2d_14">
      <path clip-path="url(#p42921ecde9)" d="M 30.882812 59.296887 
L 588.882812 59.296887 
" style="fill:none;stroke:#cccccc;stroke-linecap:round;stroke-width:0.8;"/>
     </g>
     <g id="text_14">
      <!-- 300 -->
      <g style="fill:#262626;" transform="translate(7.2 62.875793)scale(0.1 -0.1)">
       <use xlink:href="#ArialMT-33"/>
       <use x="55.615234" xlink:href="#ArialMT-30"/>
       <use x="111.230469" xlink:href="#ArialMT-30"/>
      </g>
     </g>
    </g>
    <g id="ytick_8">
     <g id="line2d_15">
      <path clip-path="url(#p42921ecde9)" d="M 30.882812 22.30723 
L 588.882812 22.30723 
" style="fill:none;stroke:#cccccc;stroke-linecap:round;stroke-width:0.8;"/>
     </g>
     <g id="text_15">
      <!-- 350 -->
      <g style="fill:#262626;" transform="translate(7.2 25.886136)scale(0.1 -0.1)">
       <use xlink:href="#ArialMT-33"/>
       <use x="55.615234" xlink:href="#ArialMT-35"/>
       <use x="111.230469" xlink:href="#ArialMT-30"/>
      </g>
     </g>
    </g>
   </g>
   <g id="line2d_16">
    <path clip-path="url(#p42921ecde9)" d="M 56.246449 273.097105 
L 57.581377 273.097105 
L 58.916305 271.617519 
L 60.251234 271.617519 
L 61.586162 264.219587 
L 62.92109 250.903311 
L 64.256018 250.163518 
L 65.590946 247.204345 
L 66.925875 242.765586 
L 68.260803 242.025793 
L 69.595731 242.025793 
L 70.930659 241.286 
L 72.265588 238.326827 
L 73.600516 222.051378 
L 74.935444 220.571792 
L 76.270372 220.571792 
L 77.605301 198.377998 
L 78.940229 196.898411 
L 80.275157 210.214688 
L 81.610085 206.515722 
L 82.945013 200.597377 
L 84.279942 199.117791 
L 85.61487 196.158618 
L 86.949798 196.158618 
L 88.284726 194.679032 
L 89.619655 183.582135 
L 90.954583 182.102549 
L 92.289511 185.801514 
L 93.624439 173.225031 
L 94.959368 170.265858 
L 96.294296 168.046479 
L 97.629224 164.347513 
L 98.964152 173.964824 
L 100.29908 173.964824 
L 101.634009 171.005652 
L 102.968937 165.087306 
L 104.303865 139.93434 
L 105.638793 138.454753 
L 106.973722 173.225031 
L 108.30865 175.44441 
L 109.643578 178.403583 
L 110.978506 173.225031 
L 112.313435 178.403583 
L 113.648363 170.265858 
L 114.983291 165.8271 
L 116.318219 166.566893 
L 117.653147 164.347513 
L 118.988076 158.429168 
L 120.323004 155.469996 
L 121.657932 159.908754 
L 122.99286 162.867927 
L 124.327789 158.429168 
L 125.662717 155.469996 
L 126.997645 159.168961 
L 128.332573 143.633305 
L 129.667501 150.291444 
L 131.00243 147.332271 
L 132.337358 143.633305 
L 133.672286 149.55165 
L 135.007214 138.454753 
L 136.342143 136.975167 
L 137.677071 139.194546 
L 139.011999 131.796615 
L 140.346927 134.755788 
L 141.681856 136.975167 
L 143.016784 138.454753 
L 144.351712 136.235374 
L 145.68664 135.495581 
L 147.021568 131.056822 
L 148.356497 132.536408 
L 149.691425 133.276201 
L 151.026353 121.439511 
L 152.361281 120.699718 
L 153.69621 122.179304 
L 155.031138 127.357856 
L 156.366066 127.357856 
L 157.700994 126.618063 
L 159.035923 125.138477 
L 160.370851 120.699718 
L 161.705779 120.699718 
L 163.040707 108.863028 
L 164.375635 114.04158 
L 165.710564 107.383441 
L 167.045492 112.561993 
L 168.38042 105.164062 
L 169.715348 108.123235 
L 171.050277 102.204889 
L 172.385205 111.082407 
L 173.720133 118.480339 
L 175.055061 120.699718 
L 176.38999 124.398684 
L 177.724918 128.837443 
L 179.059846 125.87827 
L 180.394774 120.699718 
L 181.729702 119.959925 
L 183.064631 117.000752 
L 184.399559 121.439511 
L 185.734487 133.276201 
L 187.069415 134.755788 
L 188.404344 129.577236 
L 189.739272 132.536408 
L 191.0742 139.194546 
L 192.409128 142.153719 
L 193.744057 148.072064 
L 195.078985 148.072064 
L 196.413913 153.990409 
L 197.748841 146.592478 
L 199.083769 150.291444 
L 200.418698 151.77103 
L 201.753626 154.730202 
L 203.088554 145.852685 
L 204.423482 162.128134 
L 205.758411 159.908754 
L 207.093339 159.168961 
L 208.428267 163.60772 
L 209.763195 168.786272 
L 211.098124 167.306686 
L 212.433052 147.332271 
L 213.76798 159.168961 
L 215.102908 151.031237 
L 216.437836 145.852685 
L 217.772765 153.990409 
L 219.107693 151.77103 
L 221.777549 156.209789 
L 223.112478 151.77103 
L 224.447406 154.730202 
L 225.782334 150.291444 
L 227.117262 151.77103 
L 229.787119 156.209789 
L 231.122047 160.648548 
L 232.456975 168.046479 
L 233.791903 170.265858 
L 235.126832 171.005652 
L 236.46176 174.704617 
L 237.796688 176.923997 
L 239.131616 174.704617 
L 240.466545 181.362756 
L 241.801473 185.061721 
L 243.136401 193.199446 
L 244.471329 190.980066 
L 245.806257 192.459653 
L 247.141186 205.036136 
L 248.476114 199.857584 
L 249.811042 203.55655 
L 251.14597 207.995309 
L 252.480899 205.036136 
L 253.815827 204.296343 
L 255.150755 201.33717 
L 256.485683 199.857584 
L 257.820612 199.117791 
L 259.15554 186.541307 
L 260.490468 194.679032 
L 263.160324 203.55655 
L 264.495253 201.33717 
L 265.830181 210.954481 
L 267.165109 211.694274 
L 268.500037 209.474895 
L 269.834966 211.694274 
L 271.169894 215.39324 
L 272.504822 209.474895 
L 273.83975 217.612619 
L 275.174679 203.55655 
L 276.509607 193.939239 
L 277.844535 192.459653 
L 279.179463 196.158618 
L 280.514391 197.638205 
L 281.84932 197.638205 
L 283.184248 199.857584 
L 284.519176 199.857584 
L 285.854104 207.995309 
L 287.189033 206.515722 
L 288.523961 196.898411 
L 289.858889 199.857584 
L 291.193817 196.898411 
L 292.528746 196.158618 
L 293.863674 196.898411 
L 295.198602 199.857584 
L 297.868458 208.735102 
L 299.203387 209.474895 
L 300.538315 207.255515 
L 301.873243 205.775929 
L 304.5431 207.255515 
L 305.878028 213.913654 
L 307.212956 213.913654 
L 308.547884 227.22993 
L 309.882812 225.010551 
L 311.217741 223.530965 
L 312.552669 219.092206 
L 313.887597 217.612619 
L 315.222525 218.352413 
L 316.557454 215.39324 
L 317.892382 219.092206 
L 319.22731 218.352413 
L 320.562238 213.913654 
L 321.897167 215.39324 
L 323.232095 216.133033 
L 324.567023 210.954481 
L 325.901951 207.255515 
L 327.236879 209.474895 
L 328.571808 206.515722 
L 329.906736 208.735102 
L 331.241664 205.775929 
L 332.576592 210.954481 
L 333.911521 211.694274 
L 335.246449 210.954481 
L 336.581377 208.735102 
L 337.916305 210.214688 
L 339.251234 213.173861 
L 340.586162 212.434067 
L 341.92109 212.434067 
L 343.256018 209.474895 
L 344.590946 203.55655 
L 345.925875 201.33717 
L 347.260803 202.076963 
L 348.595731 204.296343 
L 349.930659 200.597377 
L 351.265588 200.597377 
L 352.600516 198.377998 
L 353.935444 191.719859 
L 355.270372 193.199446 
L 356.605301 190.240273 
L 357.940229 190.240273 
L 359.275157 187.281101 
L 360.610085 183.582135 
L 361.945013 177.66379 
L 363.279942 185.801514 
L 364.61487 190.980066 
L 365.949798 185.801514 
L 367.284726 179.883169 
L 368.619655 182.842342 
L 369.954583 176.184204 
L 371.289511 171.745445 
L 372.624439 162.128134 
L 373.959368 163.60772 
L 375.294296 166.566893 
L 376.629224 171.005652 
L 377.964152 170.265858 
L 379.29908 165.8271 
L 380.634009 166.566893 
L 381.968937 151.031237 
L 383.303865 147.332271 
L 384.638793 149.55165 
L 385.973722 136.235374 
L 387.30865 136.975167 
L 388.643578 141.413926 
L 389.978506 135.495581 
L 391.313435 130.317029 
L 392.648363 130.317029 
L 393.983291 132.536408 
L 395.318219 125.87827 
L 396.653147 136.235374 
L 397.988076 139.93434 
L 399.323004 145.112892 
L 400.657932 137.71496 
L 401.99286 139.194546 
L 403.327789 146.592478 
L 404.662717 142.893512 
L 405.997645 153.250616 
L 407.332573 162.128134 
L 408.667501 153.250616 
L 410.00243 139.93434 
L 411.337358 151.77103 
L 412.672286 148.072064 
L 414.007214 146.592478 
L 415.342143 153.250616 
L 419.346927 168.786272 
L 420.681856 167.306686 
L 422.016784 166.566893 
L 423.351712 171.745445 
L 424.68664 175.44441 
L 426.021568 171.005652 
L 427.356497 168.046479 
L 428.691425 168.046479 
L 430.026353 172.485238 
L 431.361281 179.143376 
L 432.69621 181.362756 
L 434.031138 175.44441 
L 435.366066 174.704617 
L 436.700994 170.265858 
L 438.035923 172.485238 
L 439.370851 171.005652 
L 440.705779 180.622962 
L 442.040707 177.66379 
L 443.375635 184.321928 
L 444.710564 193.939239 
L 446.045492 192.459653 
L 447.38042 191.719859 
L 448.715348 193.199446 
L 450.050277 189.50048 
L 452.720133 190.980066 
L 454.055061 181.362756 
L 455.38999 184.321928 
L 456.724918 176.184204 
L 458.059846 176.923997 
L 459.394774 173.225031 
L 462.064631 182.102549 
L 463.399559 175.44441 
L 464.734487 178.403583 
L 466.069415 184.321928 
L 467.404344 192.459653 
L 468.739272 185.801514 
L 470.0742 189.50048 
L 471.409128 186.541307 
L 472.744057 196.158618 
L 474.078985 200.597377 
L 475.413913 191.719859 
L 476.748841 197.638205 
L 478.083769 193.199446 
L 479.418698 198.377998 
L 480.753626 200.597377 
L 482.088554 191.719859 
L 483.423482 190.980066 
L 484.758411 188.020894 
L 486.093339 193.199446 
L 487.428267 192.459653 
L 488.763195 193.199446 
L 490.098124 196.898411 
L 491.433052 199.857584 
L 492.76798 206.515722 
L 494.102908 207.255515 
L 495.437836 205.775929 
L 496.772765 202.816757 
L 498.107693 213.173861 
L 499.442621 212.434067 
L 500.777549 202.816757 
L 502.112478 199.857584 
L 503.447406 210.954481 
L 504.782334 210.954481 
L 506.117262 207.995309 
L 507.45219 210.214688 
L 508.787119 205.775929 
L 510.122047 199.117791 
L 511.456975 194.679032 
L 512.791903 197.638205 
L 514.126832 188.020894 
L 515.46176 188.760687 
L 516.796688 202.076963 
L 518.131616 185.801514 
L 519.466545 177.66379 
L 520.801473 183.582135 
L 522.136401 175.44441 
L 523.471329 176.923997 
L 524.806257 174.704617 
L 526.141186 183.582135 
L 527.476114 180.622962 
L 528.811042 171.005652 
L 530.14597 166.566893 
L 532.815827 159.168961 
L 535.485683 145.852685 
L 536.820612 136.975167 
L 538.15554 131.796615 
L 539.490468 117.000752 
L 540.825396 114.04158 
L 542.160324 110.342614 
L 543.495253 105.164062 
L 544.830181 94.067165 
L 546.165109 80.750888 
L 547.500037 73.352957 
L 548.834966 63.735646 
L 550.169894 57.077508 
L 551.504822 39.322472 
L 552.83975 48.939783 
L 554.174679 40.062266 
L 555.509607 43.761231 
L 556.844535 43.761231 
L 558.179463 34.14392 
L 559.514391 35.623507 
L 560.84932 40.802059 
L 562.184248 37.103093 
L 563.519176 42.281645 
L 563.519176 42.281645 
" style="fill:none;stroke:#1f77b4;stroke-linecap:round;stroke-width:1.5;"/>
   </g>
   <g id="line2d_17">
    <path clip-path="url(#p42921ecde9)" d="M 56.246449 281.23483 
L 57.581377 281.23483 
L 58.916305 276.056278 
L 60.251234 276.056278 
L 61.586162 274.576691 
L 62.92109 267.17876 
L 64.256018 267.918553 
L 65.590946 264.95938 
L 70.930659 264.95938 
L 72.265588 265.699174 
L 73.600516 262.740001 
L 74.935444 264.219587 
L 76.270372 263.479794 
L 77.605301 260.520622 
L 78.940229 260.520622 
L 80.275157 256.821656 
L 81.610085 253.862483 
L 82.945013 253.862483 
L 84.279942 257.561449 
L 86.949798 257.561449 
L 88.284726 256.821656 
L 89.619655 253.12269 
L 90.954583 255.34207 
L 92.289511 259.780828 
L 93.624439 253.862483 
L 94.959368 248.683931 
L 96.294296 247.944138 
L 97.629224 241.286 
L 98.964152 245.724759 
L 100.29908 244.245172 
L 101.634009 241.286 
L 102.968937 234.627862 
L 104.303865 230.928896 
L 105.638793 228.709517 
L 106.973722 234.627862 
L 108.30865 234.627862 
L 110.978506 237.587034 
L 112.313435 234.627862 
L 113.648363 229.44931 
L 114.983291 227.22993 
L 116.318219 225.750344 
L 117.653147 226.490137 
L 118.988076 221.311585 
L 120.323004 221.311585 
L 121.657932 228.709517 
L 122.99286 230.189103 
L 124.327789 225.010551 
L 125.662717 225.010551 
L 128.332573 227.969723 
L 129.667501 232.408482 
L 131.00243 229.44931 
L 132.337358 227.22993 
L 133.672286 231.668689 
L 135.007214 225.010551 
L 136.342143 225.010551 
L 137.677071 223.530965 
L 139.011999 226.490137 
L 140.346927 222.051378 
L 141.681856 222.051378 
L 143.016784 218.352413 
L 144.351712 219.092206 
L 147.021568 217.612619 
L 148.356497 224.270758 
L 149.691425 226.490137 
L 151.026353 221.311585 
L 152.361281 225.010551 
L 153.69621 221.311585 
L 155.031138 216.872826 
L 156.366066 215.39324 
L 157.700994 214.653447 
L 159.035923 217.612619 
L 160.370851 215.39324 
L 161.705779 215.39324 
L 163.040707 210.954481 
L 164.375635 213.173861 
L 165.710564 211.694274 
L 167.045492 211.694274 
L 168.38042 204.296343 
L 169.715348 207.995309 
L 171.050277 213.173861 
L 172.385205 215.39324 
L 173.720133 208.735102 
L 175.055061 213.173861 
L 176.38999 219.092206 
L 177.724918 221.311585 
L 180.394774 219.831999 
L 181.729702 215.39324 
L 183.064631 217.612619 
L 184.399559 216.133033 
L 185.734487 219.092206 
L 187.069415 218.352413 
L 188.404344 219.092206 
L 189.739272 223.530965 
L 191.0742 230.189103 
L 192.409128 229.44931 
L 193.744057 226.490137 
L 195.078985 227.22993 
L 196.413913 230.189103 
L 197.748841 227.969723 
L 199.083769 226.490137 
L 200.418698 227.22993 
L 201.753626 227.22993 
L 203.088554 225.750344 
L 204.423482 232.408482 
L 205.758411 232.408482 
L 207.093339 231.668689 
L 208.428267 234.627862 
L 209.763195 236.107448 
L 211.098124 232.408482 
L 212.433052 227.22993 
L 213.76798 229.44931 
L 215.102908 223.530965 
L 216.437836 226.490137 
L 217.772765 232.408482 
L 219.107693 234.627862 
L 220.442621 233.148275 
L 221.777549 233.148275 
L 223.112478 234.627862 
L 224.447406 229.44931 
L 225.782334 230.928896 
L 227.117262 233.148275 
L 228.45219 233.148275 
L 229.787119 229.44931 
L 231.122047 229.44931 
L 232.456975 233.888069 
L 233.791903 233.888069 
L 235.126832 234.627862 
L 236.46176 237.587034 
L 237.796688 239.066621 
L 239.131616 239.806414 
L 240.466545 242.025793 
L 241.801473 245.724759 
L 243.136401 244.984966 
L 244.471329 242.025793 
L 245.806257 242.765586 
L 247.141186 247.944138 
L 248.476114 247.944138 
L 249.811042 247.204345 
L 251.14597 250.903311 
L 252.480899 250.163518 
L 253.815827 248.683931 
L 255.150755 245.724759 
L 256.485683 247.204345 
L 257.820612 247.204345 
L 259.15554 244.245172 
L 260.490468 249.423724 
L 261.825396 249.423724 
L 263.160324 253.862483 
L 264.495253 251.643104 
L 265.830181 254.602276 
L 267.165109 254.602276 
L 268.500037 255.34207 
L 269.834966 252.382897 
L 272.504822 252.382897 
L 273.83975 256.081863 
L 275.174679 250.163518 
L 276.509607 251.643104 
L 277.844535 247.944138 
L 279.179463 249.423724 
L 280.514391 248.683931 
L 281.84932 249.423724 
L 283.184248 247.204345 
L 284.519176 249.423724 
L 285.854104 250.903311 
L 287.189033 250.163518 
L 288.523961 245.724759 
L 289.858889 247.204345 
L 291.193817 243.505379 
L 292.528746 244.245172 
L 293.863674 248.683931 
L 295.198602 254.602276 
L 296.53353 250.903311 
L 297.868458 250.903311 
L 299.203387 251.643104 
L 300.538315 250.163518 
L 303.208171 251.643104 
L 304.5431 250.903311 
L 305.878028 252.382897 
L 307.212956 257.561449 
L 308.547884 256.821656 
L 309.882812 252.382897 
L 311.217741 253.12269 
L 312.552669 252.382897 
L 313.887597 250.163518 
L 315.222525 248.683931 
L 316.557454 248.683931 
L 317.892382 251.643104 
L 319.22731 253.12269 
L 320.562238 252.382897 
L 323.232095 252.382897 
L 324.567023 251.643104 
L 325.901951 250.163518 
L 327.236879 251.643104 
L 328.571808 252.382897 
L 329.906736 250.903311 
L 331.241664 250.163518 
L 332.576592 253.862483 
L 333.911521 256.821656 
L 335.246449 254.602276 
L 336.581377 256.821656 
L 337.916305 256.821656 
L 339.251234 255.34207 
L 340.586162 257.561449 
L 341.92109 253.862483 
L 343.256018 251.643104 
L 344.590946 250.903311 
L 345.925875 247.944138 
L 349.930659 247.944138 
L 352.600516 244.984966 
L 353.935444 242.025793 
L 355.270372 247.204345 
L 356.605301 247.204345 
L 357.940229 246.464552 
L 359.275157 244.984966 
L 360.610085 242.025793 
L 361.945013 242.765586 
L 364.61487 241.286 
L 365.949798 239.806414 
L 367.284726 237.587034 
L 368.619655 240.546207 
L 369.954583 231.668689 
L 371.289511 229.44931 
L 372.624439 230.928896 
L 373.959368 230.189103 
L 375.294296 222.791171 
L 376.629224 230.189103 
L 377.964152 229.44931 
L 379.29908 231.668689 
L 380.634009 230.928896 
L 381.968937 223.530965 
L 383.303865 222.051378 
L 384.638793 222.051378 
L 385.973722 212.434067 
L 387.30865 216.133033 
L 388.643578 221.311585 
L 389.978506 217.612619 
L 391.313435 218.352413 
L 392.648363 218.352413 
L 393.983291 219.831999 
L 395.318219 219.092206 
L 396.653147 224.270758 
L 397.988076 225.010551 
L 399.323004 219.831999 
L 400.657932 216.872826 
L 401.99286 218.352413 
L 403.327789 222.791171 
L 404.662717 224.270758 
L 405.997645 222.791171 
L 407.332573 230.928896 
L 408.667501 225.010551 
L 410.00243 225.010551 
L 411.337358 221.311585 
L 412.672286 216.872826 
L 414.007214 219.831999 
L 415.342143 219.831999 
L 416.677071 225.010551 
L 418.011999 227.22993 
L 419.346927 225.010551 
L 420.681856 224.270758 
L 422.016784 227.22993 
L 423.351712 231.668689 
L 424.68664 228.709517 
L 426.021568 226.490137 
L 427.356497 227.969723 
L 428.691425 222.791171 
L 430.026353 227.969723 
L 431.361281 230.928896 
L 432.69621 230.928896 
L 434.031138 222.791171 
L 435.366066 230.928896 
L 436.700994 230.928896 
L 438.035923 234.627862 
L 439.370851 232.408482 
L 440.705779 230.928896 
L 442.040707 232.408482 
L 443.375635 233.148275 
L 444.710564 235.367655 
L 446.045492 236.847241 
L 447.38042 237.587034 
L 448.715348 239.066621 
L 450.050277 237.587034 
L 451.385205 234.627862 
L 452.720133 233.148275 
L 454.055061 228.709517 
L 455.38999 229.44931 
L 456.724918 224.270758 
L 458.059846 222.791171 
L 459.394774 219.831999 
L 460.729702 221.311585 
L 462.064631 223.530965 
L 464.734487 226.490137 
L 466.069415 227.22993 
L 467.404344 229.44931 
L 468.739272 227.969723 
L 470.0742 230.189103 
L 471.409128 225.010551 
L 472.744057 225.750344 
L 474.078985 227.969723 
L 475.413913 227.22993 
L 476.748841 232.408482 
L 480.753626 234.627862 
L 482.088554 231.668689 
L 483.423482 227.22993 
L 484.758411 231.668689 
L 486.093339 228.709517 
L 487.428267 232.408482 
L 488.763195 233.888069 
L 490.098124 238.326827 
L 491.433052 241.286 
L 492.76798 242.765586 
L 494.102908 240.546207 
L 495.437836 241.286 
L 496.772765 239.066621 
L 498.107693 246.464552 
L 499.442621 247.204345 
L 500.777549 236.107448 
L 502.112478 239.806414 
L 503.447406 238.326827 
L 504.782334 239.066621 
L 506.117262 235.367655 
L 507.45219 238.326827 
L 508.787119 239.806414 
L 510.122047 237.587034 
L 511.456975 239.066621 
L 512.791903 244.245172 
L 515.46176 235.367655 
L 516.796688 240.546207 
L 518.131616 236.107448 
L 519.466545 233.148275 
L 520.801473 235.367655 
L 522.136401 232.408482 
L 523.471329 232.408482 
L 524.806257 233.148275 
L 526.141186 239.066621 
L 527.476114 229.44931 
L 528.811042 232.408482 
L 530.14597 234.627862 
L 531.480899 227.969723 
L 532.815827 225.010551 
L 534.150755 219.831999 
L 535.485683 207.995309 
L 536.820612 201.33717 
L 538.15554 210.214688 
L 539.490468 198.377998 
L 540.825396 193.199446 
L 542.160324 194.679032 
L 543.495253 183.582135 
L 544.830181 187.281101 
L 546.165109 182.842342 
L 547.500037 184.321928 
L 548.834966 177.66379 
L 550.169894 174.704617 
L 551.504822 162.867927 
L 552.83975 160.648548 
L 554.174679 153.250616 
L 555.509607 148.811857 
L 556.844535 151.77103 
L 558.179463 149.55165 
L 559.514391 148.072064 
L 560.84932 145.112892 
L 563.519176 143.633305 
L 563.519176 143.633305 
" style="fill:none;stroke:#ff7f0e;stroke-linecap:round;stroke-width:1.5;"/>
   </g>
   <g id="patch_3">
    <path d="M 30.882812 293.589375 
L 30.882812 21.789375 
" style="fill:none;stroke:#cccccc;stroke-linecap:square;stroke-linejoin:miter;stroke-width:0.8;"/>
   </g>
   <g id="patch_4">
    <path d="M 588.882812 293.589375 
L 588.882812 21.789375 
" style="fill:none;stroke:#cccccc;stroke-linecap:square;stroke-linejoin:miter;stroke-width:0.8;"/>
   </g>
   <g id="patch_5">
    <path d="M 30.882812 293.589375 
L 588.882812 293.589375 
" style="fill:none;stroke:#cccccc;stroke-linecap:square;stroke-linejoin:miter;stroke-width:0.8;"/>
   </g>
   <g id="patch_6">
    <path d="M 30.882812 21.789375 
L 588.882812 21.789375 
" style="fill:none;stroke:#cccccc;stroke-linecap:square;stroke-linejoin:miter;stroke-width:0.8;"/>
   </g>
   <g id="text_16">
    <!-- Internações -->
    <g style="fill:#262626;" transform="translate(278.531875 15.789375)scale(0.12 -0.12)">
     <defs>
      <path d="M 597 0 
L 597 4581 
L 1203 4581 
L 1203 0 
L 597 0 
z
" id="ArialMT-49" transform="scale(0.015625)"/>
      <path d="M 422 0 
L 422 3319 
L 928 3319 
L 928 2847 
Q 1294 3394 1984 3394 
Q 2284 3394 2536 3286 
Q 2788 3178 2913 3003 
Q 3038 2828 3088 2588 
Q 3119 2431 3119 2041 
L 3119 0 
L 2556 0 
L 2556 2019 
Q 2556 2363 2490 2533 
Q 2425 2703 2258 2804 
Q 2091 2906 1866 2906 
Q 1506 2906 1245 2678 
Q 984 2450 984 1813 
L 984 0 
L 422 0 
z
" id="ArialMT-6e" transform="scale(0.015625)"/>
      <path d="M 1650 503 
L 1731 6 
Q 1494 -44 1306 -44 
Q 1000 -44 831 53 
Q 663 150 594 308 
Q 525 466 525 972 
L 525 2881 
L 113 2881 
L 113 3319 
L 525 3319 
L 525 4141 
L 1084 4478 
L 1084 3319 
L 1650 3319 
L 1650 2881 
L 1084 2881 
L 1084 941 
Q 1084 700 1114 631 
Q 1144 563 1211 522 
Q 1278 481 1403 481 
Q 1497 481 1650 503 
z
" id="ArialMT-74" transform="scale(0.015625)"/>
      <path d="M 2694 1069 
L 3275 997 
Q 3138 488 2766 206 
Q 2394 -75 1816 -75 
Q 1088 -75 661 373 
Q 234 822 234 1631 
Q 234 2469 665 2931 
Q 1097 3394 1784 3394 
Q 2450 3394 2872 2941 
Q 3294 2488 3294 1666 
Q 3294 1616 3291 1516 
L 816 1516 
Q 847 969 1125 678 
Q 1403 388 1819 388 
Q 2128 388 2347 550 
Q 2566 713 2694 1069 
z
M 847 1978 
L 2700 1978 
Q 2663 2397 2488 2606 
Q 2219 2931 1791 2931 
Q 1403 2931 1139 2672 
Q 875 2413 847 1978 
z
" id="ArialMT-65" transform="scale(0.015625)"/>
      <path d="M 416 0 
L 416 3319 
L 922 3319 
L 922 2816 
Q 1116 3169 1280 3281 
Q 1444 3394 1641 3394 
Q 1925 3394 2219 3213 
L 2025 2691 
Q 1819 2813 1613 2813 
Q 1428 2813 1281 2702 
Q 1134 2591 1072 2394 
Q 978 2094 978 1738 
L 978 0 
L 416 0 
z
" id="ArialMT-72" transform="scale(0.015625)"/>
      <path d="M 2588 409 
Q 2275 144 1986 34 
Q 1697 -75 1366 -75 
Q 819 -75 525 192 
Q 231 459 231 875 
Q 231 1119 342 1320 
Q 453 1522 633 1644 
Q 813 1766 1038 1828 
Q 1203 1872 1538 1913 
Q 2219 1994 2541 2106 
Q 2544 2222 2544 2253 
Q 2544 2597 2384 2738 
Q 2169 2928 1744 2928 
Q 1347 2928 1158 2789 
Q 969 2650 878 2297 
L 328 2372 
Q 403 2725 575 2942 
Q 747 3159 1072 3276 
Q 1397 3394 1825 3394 
Q 2250 3394 2515 3294 
Q 2781 3194 2906 3042 
Q 3031 2891 3081 2659 
Q 3109 2516 3109 2141 
L 3109 1391 
Q 3109 606 3145 398 
Q 3181 191 3288 0 
L 2700 0 
Q 2613 175 2588 409 
z
M 2541 1666 
Q 2234 1541 1622 1453 
Q 1275 1403 1131 1340 
Q 988 1278 909 1158 
Q 831 1038 831 891 
Q 831 666 1001 516 
Q 1172 366 1500 366 
Q 1825 366 2078 508 
Q 2331 650 2450 897 
Q 2541 1088 2541 1459 
L 2541 1666 
z
" id="ArialMT-61" transform="scale(0.015625)"/>
      <path d="M 2588 1216 
L 3141 1144 
Q 3050 572 2676 248 
Q 2303 -75 1759 -75 
Q 1078 -75 664 370 
Q 250 816 250 1647 
Q 250 2184 428 2587 
Q 606 2991 970 3192 
Q 1334 3394 1763 3394 
Q 2303 3394 2647 3120 
Q 2991 2847 3088 2344 
L 2541 2259 
Q 2463 2594 2264 2762 
Q 2066 2931 1784 2931 
Q 1359 2931 1093 2626 
Q 828 2322 828 1663 
Q 828 994 1084 691 
Q 1341 388 1753 388 
Q 2084 388 2306 591 
Q 2528 794 2588 1216 
z
M 1284 -418 
L 1447 135 
L 1866 135 
L 1763 -200 
Q 2028 -231 2162 -363 
Q 2297 -496 2297 -659 
Q 2297 -893 2072 -1073 
Q 1847 -1253 1394 -1253 
Q 1138 -1253 944 -1215 
L 978 -850 
Q 1178 -862 1272 -862 
Q 1566 -862 1684 -781 
Q 1775 -718 1775 -628 
Q 1775 -571 1739 -527 
Q 1703 -484 1606 -452 
Q 1509 -421 1284 -418 
z
" id="ArialMT-e7" transform="scale(0.015625)"/>
      <path d="M 213 1659 
Q 213 2581 725 3025 
Q 1153 3394 1769 3394 
Q 2453 3394 2887 2945 
Q 3322 2497 3322 1706 
Q 3322 1066 3130 698 
Q 2938 331 2570 128 
Q 2203 -75 1769 -75 
Q 1072 -75 642 372 
Q 213 819 213 1659 
z
M 791 1659 
Q 791 1022 1069 705 
Q 1347 388 1769 388 
Q 2188 388 2466 706 
Q 2744 1025 2744 1678 
Q 2744 2294 2464 2611 
Q 2184 2928 1769 2928 
Q 1347 2928 1069 2612 
Q 791 2297 791 1659 
z
M 722 3809 
Q 719 4134 900 4328 
Q 1078 4522 1356 4522 
Q 1550 4522 1884 4353 
Q 2069 4259 2178 4259 
Q 2278 4259 2331 4314 
Q 2384 4369 2406 4531 
L 2813 4531 
Q 2803 4175 2633 3997 
Q 2463 3819 2200 3819 
Q 2003 3819 1681 3994 
Q 1472 4106 1375 4106 
Q 1269 4106 1203 4031 
Q 1134 3956 1138 3809 
L 722 3809 
z
" id="ArialMT-f5" transform="scale(0.015625)"/>
      <path d="M 197 991 
L 753 1078 
Q 800 744 1014 566 
Q 1228 388 1613 388 
Q 2000 388 2187 545 
Q 2375 703 2375 916 
Q 2375 1106 2209 1216 
Q 2094 1291 1634 1406 
Q 1016 1563 777 1677 
Q 538 1791 414 1992 
Q 291 2194 291 2438 
Q 291 2659 392 2848 
Q 494 3038 669 3163 
Q 800 3259 1026 3326 
Q 1253 3394 1513 3394 
Q 1903 3394 2198 3281 
Q 2494 3169 2634 2976 
Q 2775 2784 2828 2463 
L 2278 2388 
Q 2241 2644 2061 2787 
Q 1881 2931 1553 2931 
Q 1166 2931 1000 2803 
Q 834 2675 834 2503 
Q 834 2394 903 2306 
Q 972 2216 1119 2156 
Q 1203 2125 1616 2013 
Q 2213 1853 2448 1751 
Q 2684 1650 2818 1456 
Q 2953 1263 2953 975 
Q 2953 694 2789 445 
Q 2625 197 2315 61 
Q 2006 -75 1616 -75 
Q 969 -75 630 194 
Q 291 463 197 991 
z
" id="ArialMT-73" transform="scale(0.015625)"/>
     </defs>
     <use xlink:href="#ArialMT-49"/>
     <use x="27.783203" xlink:href="#ArialMT-6e"/>
     <use x="83.398438" xlink:href="#ArialMT-74"/>
     <use x="111.181641" xlink:href="#ArialMT-65"/>
     <use x="166.796875" xlink:href="#ArialMT-72"/>
     <use x="200.097656" xlink:href="#ArialMT-6e"/>
     <use x="255.712891" xlink:href="#ArialMT-61"/>
     <use x="311.328125" xlink:href="#ArialMT-e7"/>
     <use x="361.328125" xlink:href="#ArialMT-f5"/>
     <use x="416.943359" xlink:href="#ArialMT-65"/>
     <use x="472.558594" xlink:href="#ArialMT-73"/>
    </g>
   </g>
   <g id="legend_1">
    <g id="patch_7">
     <path d="M 37.882812 58.08 
L 122.134375 58.08 
Q 124.134375 58.08 124.134375 56.08 
L 124.134375 28.789375 
Q 124.134375 26.789375 122.134375 26.789375 
L 37.882812 26.789375 
Q 35.882812 26.789375 35.882812 28.789375 
L 35.882812 56.08 
Q 35.882812 58.08 37.882812 58.08 
z
" style="fill:#ffffff;opacity:0.8;stroke:#cccccc;stroke-linejoin:miter;"/>
    </g>
    <g id="line2d_18">
     <path d="M 39.882812 34.447187 
L 59.882812 34.447187 
" style="fill:none;stroke:#1f77b4;stroke-linecap:round;stroke-width:1.5;"/>
    </g>
    <g id="line2d_19"/>
    <g id="text_17">
     <!-- Internações -->
     <g style="fill:#262626;" transform="translate(67.882812 37.947187)scale(0.1 -0.1)">
      <use xlink:href="#ArialMT-49"/>
      <use x="27.783203" xlink:href="#ArialMT-6e"/>
      <use x="83.398438" xlink:href="#ArialMT-74"/>
      <use x="111.181641" xlink:href="#ArialMT-65"/>
      <use x="166.796875" xlink:href="#ArialMT-72"/>
      <use x="200.097656" xlink:href="#ArialMT-6e"/>
      <use x="255.712891" xlink:href="#ArialMT-61"/>
      <use x="311.328125" xlink:href="#ArialMT-e7"/>
      <use x="361.328125" xlink:href="#ArialMT-f5"/>
      <use x="416.943359" xlink:href="#ArialMT-65"/>
      <use x="472.558594" xlink:href="#ArialMT-73"/>
     </g>
    </g>
    <g id="line2d_20">
     <path d="M 39.882812 48.5925 
L 59.882812 48.5925 
" style="fill:none;stroke:#ff7f0e;stroke-linecap:round;stroke-width:1.5;"/>
    </g>
    <g id="line2d_21"/>
    <g id="text_18">
     <!-- UTI -->
     <g style="fill:#262626;" transform="translate(67.882812 52.0925)scale(0.1 -0.1)">
      <defs>
       <path d="M 3500 4581 
L 4106 4581 
L 4106 1934 
Q 4106 1244 3950 837 
Q 3794 431 3386 176 
Q 2978 -78 2316 -78 
Q 1672 -78 1262 144 
Q 853 366 678 786 
Q 503 1206 503 1934 
L 503 4581 
L 1109 4581 
L 1109 1938 
Q 1109 1341 1220 1058 
Q 1331 775 1601 622 
Q 1872 469 2263 469 
Q 2931 469 3215 772 
Q 3500 1075 3500 1938 
L 3500 4581 
z
" id="ArialMT-55" transform="scale(0.015625)"/>
       <path d="M 1659 0 
L 1659 4041 
L 150 4041 
L 150 4581 
L 3781 4581 
L 3781 4041 
L 2266 4041 
L 2266 0 
L 1659 0 
z
" id="ArialMT-54" transform="scale(0.015625)"/>
      </defs>
      <use xlink:href="#ArialMT-55"/>
      <use x="72.216797" xlink:href="#ArialMT-54"/>
      <use x="133.300781" xlink:href="#ArialMT-49"/>
     </g>
    </g>
   </g>
  </g>
 </g>
 <defs>
  <clipPath id="p42921ecde9">
   <rect height="271.8" width="558" x="30.882812" y="21.789375"/>
  </clipPath>
 </defs>
</svg>
