<?xml version="1.0" encoding="utf-8" standalone="no"?>
<!DOCTYPE svg PUBLIC "-//W3C//DTD SVG 1.1//EN"
  "http://www.w3.org/Graphics/SVG/1.1/DTD/svg11.dtd">
<!-- Created with matplotlib (https://matplotlib.org/) -->
<svg height="322.334688pt" version="1.1" viewBox="0 0 596.082813 322.334688" width="596.082813pt" xmlns="http://www.w3.org/2000/svg" xmlns:xlink="http://www.w3.org/1999/xlink">
 <metadata>
  <rdf:RDF xmlns:cc="http://creativecommons.org/ns#" xmlns:dc="http://purl.org/dc/elements/1.1/" xmlns:rdf="http://www.w3.org/1999/02/22-rdf-syntax-ns#">
   <cc:Work>
    <dc:type rdf:resource="http://purl.org/dc/dcmitype/StillImage"/>
    <dc:date>2021-03-16T18:44:28.005354</dc:date>
    <dc:format>image/svg+xml</dc:format>
    <dc:creator>
     <cc:Agent>
      <dc:title>Matplotlib v3.3.4, https://matplotlib.org/</dc:title>
     </cc:Agent>
    </dc:creator>
   </cc:Work>
  </rdf:RDF>
 </metadata>
 <defs>
  <style type="text/css">*{stroke-linecap:butt;stroke-linejoin:round;}</style>
 </defs>
 <g id="figure_1">
  <g id="patch_1">
   <path d="M 0 322.334688 
L 596.082813 322.334688 
L 596.082813 0 
L 0 0 
z
" style="fill:#ffffff;"/>
  </g>
  <g id="axes_1">
   <g id="patch_2">
    <path d="M 30.882812 298.989375 
L 588.882812 298.989375 
L 588.882812 21.789375 
L 30.882812 21.789375 
z
" style="fill:#ffffff;"/>
   </g>
   <g id="matplotlib.axis_1">
    <g id="xtick_1">
     <g id="line2d_1">
      <path clip-path="url(#p7438fb639b)" d="M 31.022943 298.989375 
L 31.022943 21.789375 
" style="fill:none;stroke:#cccccc;stroke-linecap:round;stroke-width:0.8;"/>
     </g>
     <g id="text_1">
      <!-- 2020-03 -->
      <g style="fill:#262626;" transform="translate(12.675287 313.147188)scale(0.1 -0.1)">
       <defs>
        <path d="M 50.34375 8.453125 
L 50.34375 0 
L 3.03125 0 
Q 2.9375 3.171875 4.046875 6.109375 
Q 5.859375 10.9375 9.828125 15.625 
Q 13.8125 20.3125 21.34375 26.46875 
Q 33.015625 36.03125 37.109375 41.625 
Q 41.21875 47.21875 41.21875 52.203125 
Q 41.21875 57.421875 37.46875 61 
Q 33.734375 64.59375 27.734375 64.59375 
Q 21.390625 64.59375 17.578125 60.78125 
Q 13.765625 56.984375 13.71875 50.25 
L 4.6875 51.171875 
Q 5.609375 61.28125 11.65625 66.578125 
Q 17.71875 71.875 27.9375 71.875 
Q 38.234375 71.875 44.234375 66.15625 
Q 50.25 60.453125 50.25 52 
Q 50.25 47.703125 48.484375 43.546875 
Q 46.734375 39.40625 42.65625 34.8125 
Q 38.578125 30.21875 29.109375 22.21875 
Q 21.1875 15.578125 18.9375 13.203125 
Q 16.703125 10.84375 15.234375 8.453125 
z
" id="ArialMT-50"/>
        <path d="M 4.15625 35.296875 
Q 4.15625 48 6.765625 55.734375 
Q 9.375 63.484375 14.515625 67.671875 
Q 19.671875 71.875 27.484375 71.875 
Q 33.25 71.875 37.59375 69.546875 
Q 41.9375 67.234375 44.765625 62.859375 
Q 47.609375 58.5 49.21875 52.21875 
Q 50.828125 45.953125 50.828125 35.296875 
Q 50.828125 22.703125 48.234375 14.96875 
Q 45.65625 7.234375 40.5 3 
Q 35.359375 -1.21875 27.484375 -1.21875 
Q 17.140625 -1.21875 11.234375 6.203125 
Q 4.15625 15.140625 4.15625 35.296875 
z
M 13.1875 35.296875 
Q 13.1875 17.671875 17.3125 11.828125 
Q 21.4375 6 27.484375 6 
Q 33.546875 6 37.671875 11.859375 
Q 41.796875 17.71875 41.796875 35.296875 
Q 41.796875 52.984375 37.671875 58.78125 
Q 33.546875 64.59375 27.390625 64.59375 
Q 21.34375 64.59375 17.71875 59.46875 
Q 13.1875 52.9375 13.1875 35.296875 
z
" id="ArialMT-48"/>
        <path d="M 3.171875 21.484375 
L 3.171875 30.328125 
L 30.171875 30.328125 
L 30.171875 21.484375 
z
" id="ArialMT-45"/>
        <path d="M 4.203125 18.890625 
L 12.984375 20.0625 
Q 14.5 12.59375 18.140625 9.296875 
Q 21.78125 6 27 6 
Q 33.203125 6 37.46875 10.296875 
Q 41.75 14.59375 41.75 20.953125 
Q 41.75 27 37.796875 30.921875 
Q 33.84375 34.859375 27.734375 34.859375 
Q 25.25 34.859375 21.53125 33.890625 
L 22.515625 41.609375 
Q 23.390625 41.5 23.921875 41.5 
Q 29.546875 41.5 34.03125 44.421875 
Q 38.53125 47.359375 38.53125 53.46875 
Q 38.53125 58.296875 35.25 61.46875 
Q 31.984375 64.65625 26.8125 64.65625 
Q 21.6875 64.65625 18.265625 61.421875 
Q 14.84375 58.203125 13.875 51.765625 
L 5.078125 53.328125 
Q 6.6875 62.15625 12.390625 67.015625 
Q 18.109375 71.875 26.609375 71.875 
Q 32.46875 71.875 37.390625 69.359375 
Q 42.328125 66.84375 44.9375 62.5 
Q 47.5625 58.15625 47.5625 53.265625 
Q 47.5625 48.640625 45.0625 44.828125 
Q 42.578125 41.015625 37.703125 38.765625 
Q 44.046875 37.3125 47.5625 32.6875 
Q 51.078125 28.078125 51.078125 21.140625 
Q 51.078125 11.765625 44.234375 5.25 
Q 37.40625 -1.265625 26.953125 -1.265625 
Q 17.53125 -1.265625 11.296875 4.34375 
Q 5.078125 9.96875 4.203125 18.890625 
z
" id="ArialMT-51"/>
       </defs>
       <use xlink:href="#ArialMT-50"/>
       <use x="55.615234" xlink:href="#ArialMT-48"/>
       <use x="111.230469" xlink:href="#ArialMT-50"/>
       <use x="166.845703" xlink:href="#ArialMT-48"/>
       <use x="222.460938" xlink:href="#ArialMT-45"/>
       <use x="255.761719" xlink:href="#ArialMT-48"/>
       <use x="311.376953" xlink:href="#ArialMT-51"/>
      </g>
     </g>
    </g>
    <g id="xtick_2">
     <g id="line2d_2">
      <path clip-path="url(#p7438fb639b)" d="M 116.502602 298.989375 
L 116.502602 21.789375 
" style="fill:none;stroke:#cccccc;stroke-linecap:round;stroke-width:0.8;"/>
     </g>
     <g id="text_2">
      <!-- 2020-05 -->
      <g style="fill:#262626;" transform="translate(98.154945 313.147188)scale(0.1 -0.1)">
       <defs>
        <path d="M 4.15625 18.75 
L 13.375 19.53125 
Q 14.40625 12.796875 18.140625 9.390625 
Q 21.875 6 27.15625 6 
Q 33.5 6 37.890625 10.78125 
Q 42.28125 15.578125 42.28125 23.484375 
Q 42.28125 31 38.0625 35.34375 
Q 33.84375 39.703125 27 39.703125 
Q 22.75 39.703125 19.328125 37.765625 
Q 15.921875 35.84375 13.96875 32.765625 
L 5.71875 33.84375 
L 12.640625 70.609375 
L 48.25 70.609375 
L 48.25 62.203125 
L 19.671875 62.203125 
L 15.828125 42.96875 
Q 22.265625 47.46875 29.34375 47.46875 
Q 38.71875 47.46875 45.15625 40.96875 
Q 51.609375 34.46875 51.609375 24.265625 
Q 51.609375 14.546875 45.953125 7.46875 
Q 39.0625 -1.21875 27.15625 -1.21875 
Q 17.390625 -1.21875 11.203125 4.25 
Q 5.03125 9.71875 4.15625 18.75 
z
" id="ArialMT-53"/>
       </defs>
       <use xlink:href="#ArialMT-50"/>
       <use x="55.615234" xlink:href="#ArialMT-48"/>
       <use x="111.230469" xlink:href="#ArialMT-50"/>
       <use x="166.845703" xlink:href="#ArialMT-48"/>
       <use x="222.460938" xlink:href="#ArialMT-45"/>
       <use x="255.761719" xlink:href="#ArialMT-48"/>
       <use x="311.376953" xlink:href="#ArialMT-53"/>
      </g>
     </g>
    </g>
    <g id="xtick_3">
     <g id="line2d_3">
      <path clip-path="url(#p7438fb639b)" d="M 201.98226 298.989375 
L 201.98226 21.789375 
" style="fill:none;stroke:#cccccc;stroke-linecap:round;stroke-width:0.8;"/>
     </g>
     <g id="text_3">
      <!-- 2020-07 -->
      <g style="fill:#262626;" transform="translate(183.634604 313.147188)scale(0.1 -0.1)">
       <defs>
        <path d="M 4.734375 62.203125 
L 4.734375 70.65625 
L 51.078125 70.65625 
L 51.078125 63.8125 
Q 44.234375 56.546875 37.515625 44.484375 
Q 30.8125 32.421875 27.15625 19.671875 
Q 24.515625 10.6875 23.78125 0 
L 14.75 0 
Q 14.890625 8.453125 18.0625 20.40625 
Q 21.234375 32.375 27.171875 43.484375 
Q 33.109375 54.59375 39.796875 62.203125 
z
" id="ArialMT-55"/>
       </defs>
       <use xlink:href="#ArialMT-50"/>
       <use x="55.615234" xlink:href="#ArialMT-48"/>
       <use x="111.230469" xlink:href="#ArialMT-50"/>
       <use x="166.845703" xlink:href="#ArialMT-48"/>
       <use x="222.460938" xlink:href="#ArialMT-45"/>
       <use x="255.761719" xlink:href="#ArialMT-48"/>
       <use x="311.376953" xlink:href="#ArialMT-55"/>
      </g>
     </g>
    </g>
    <g id="xtick_4">
     <g id="line2d_4">
      <path clip-path="url(#p7438fb639b)" d="M 288.863224 298.989375 
L 288.863224 21.789375 
" style="fill:none;stroke:#cccccc;stroke-linecap:round;stroke-width:0.8;"/>
     </g>
     <g id="text_4">
      <!-- 2020-09 -->
      <g style="fill:#262626;" transform="translate(270.515568 313.147188)scale(0.1 -0.1)">
       <defs>
        <path d="M 5.46875 16.546875 
L 13.921875 17.328125 
Q 14.984375 11.375 18.015625 8.6875 
Q 21.046875 6 25.78125 6 
Q 29.828125 6 32.875 7.859375 
Q 35.9375 9.71875 37.890625 12.8125 
Q 39.84375 15.921875 41.15625 21.1875 
Q 42.484375 26.46875 42.484375 31.9375 
Q 42.484375 32.515625 42.4375 33.6875 
Q 39.796875 29.5 35.234375 26.875 
Q 30.671875 24.265625 25.34375 24.265625 
Q 16.453125 24.265625 10.296875 30.703125 
Q 4.15625 37.15625 4.15625 47.703125 
Q 4.15625 58.59375 10.578125 65.234375 
Q 17 71.875 26.65625 71.875 
Q 33.640625 71.875 39.421875 68.109375 
Q 45.21875 64.359375 48.21875 57.390625 
Q 51.21875 50.4375 51.21875 37.25 
Q 51.21875 23.53125 48.234375 15.40625 
Q 45.265625 7.28125 39.375 3.03125 
Q 33.5 -1.21875 25.59375 -1.21875 
Q 17.1875 -1.21875 11.859375 3.4375 
Q 6.546875 8.109375 5.46875 16.546875 
z
M 41.453125 48.140625 
Q 41.453125 55.71875 37.421875 60.15625 
Q 33.40625 64.59375 27.734375 64.59375 
Q 21.875 64.59375 17.53125 59.8125 
Q 13.1875 55.03125 13.1875 47.40625 
Q 13.1875 40.578125 17.3125 36.296875 
Q 21.4375 32.03125 27.484375 32.03125 
Q 33.59375 32.03125 37.515625 36.296875 
Q 41.453125 40.578125 41.453125 48.140625 
z
" id="ArialMT-57"/>
       </defs>
       <use xlink:href="#ArialMT-50"/>
       <use x="55.615234" xlink:href="#ArialMT-48"/>
       <use x="111.230469" xlink:href="#ArialMT-50"/>
       <use x="166.845703" xlink:href="#ArialMT-48"/>
       <use x="222.460938" xlink:href="#ArialMT-45"/>
       <use x="255.761719" xlink:href="#ArialMT-48"/>
       <use x="311.376953" xlink:href="#ArialMT-57"/>
      </g>
     </g>
    </g>
    <g id="xtick_5">
     <g id="line2d_5">
      <path clip-path="url(#p7438fb639b)" d="M 374.342883 298.989375 
L 374.342883 21.789375 
" style="fill:none;stroke:#cccccc;stroke-linecap:round;stroke-width:0.8;"/>
     </g>
     <g id="text_5">
      <!-- 2020-11 -->
      <g style="fill:#262626;" transform="translate(356.363977 313.147188)scale(0.1 -0.1)">
       <defs>
        <path d="M 37.25 0 
L 28.46875 0 
L 28.46875 56 
Q 25.296875 52.984375 20.140625 49.953125 
Q 14.984375 46.921875 10.890625 45.40625 
L 10.890625 53.90625 
Q 18.265625 57.375 23.78125 62.296875 
Q 29.296875 67.234375 31.59375 71.875 
L 37.25 71.875 
z
" id="ArialMT-49"/>
       </defs>
       <use xlink:href="#ArialMT-50"/>
       <use x="55.615234" xlink:href="#ArialMT-48"/>
       <use x="111.230469" xlink:href="#ArialMT-50"/>
       <use x="166.845703" xlink:href="#ArialMT-48"/>
       <use x="222.460938" xlink:href="#ArialMT-45"/>
       <use x="255.761719" xlink:href="#ArialMT-49"/>
       <use x="304.001953" xlink:href="#ArialMT-49"/>
      </g>
     </g>
    </g>
    <g id="xtick_6">
     <g id="line2d_6">
      <path clip-path="url(#p7438fb639b)" d="M 459.822541 298.989375 
L 459.822541 21.789375 
" style="fill:none;stroke:#cccccc;stroke-linecap:round;stroke-width:0.8;"/>
     </g>
     <g id="text_6">
      <!-- 2021-01 -->
      <g style="fill:#262626;" transform="translate(441.474885 313.147188)scale(0.1 -0.1)">
       <use xlink:href="#ArialMT-50"/>
       <use x="55.615234" xlink:href="#ArialMT-48"/>
       <use x="111.230469" xlink:href="#ArialMT-50"/>
       <use x="166.845703" xlink:href="#ArialMT-49"/>
       <use x="222.460938" xlink:href="#ArialMT-45"/>
       <use x="255.761719" xlink:href="#ArialMT-48"/>
       <use x="311.376953" xlink:href="#ArialMT-49"/>
      </g>
     </g>
    </g>
    <g id="xtick_7">
     <g id="line2d_7">
      <path clip-path="url(#p7438fb639b)" d="M 542.499588 298.989375 
L 542.499588 21.789375 
" style="fill:none;stroke:#cccccc;stroke-linecap:round;stroke-width:0.8;"/>
     </g>
     <g id="text_7">
      <!-- 2021-03 -->
      <g style="fill:#262626;" transform="translate(524.151932 313.147188)scale(0.1 -0.1)">
       <use xlink:href="#ArialMT-50"/>
       <use x="55.615234" xlink:href="#ArialMT-48"/>
       <use x="111.230469" xlink:href="#ArialMT-50"/>
       <use x="166.845703" xlink:href="#ArialMT-49"/>
       <use x="222.460938" xlink:href="#ArialMT-45"/>
       <use x="255.761719" xlink:href="#ArialMT-48"/>
       <use x="311.376953" xlink:href="#ArialMT-51"/>
      </g>
     </g>
    </g>
   </g>
   <g id="matplotlib.axis_2">
    <g id="ytick_1">
     <g id="line2d_8">
      <path clip-path="url(#p7438fb639b)" d="M 30.882812 286.389375 
L 588.882812 286.389375 
" style="fill:none;stroke:#cccccc;stroke-linecap:round;stroke-width:0.8;"/>
     </g>
     <g id="text_8">
      <!-- 0 -->
      <g style="fill:#262626;" transform="translate(18.321875 289.968281)scale(0.1 -0.1)">
       <use xlink:href="#ArialMT-48"/>
      </g>
     </g>
    </g>
    <g id="ytick_2">
     <g id="line2d_9">
      <path clip-path="url(#p7438fb639b)" d="M 30.882812 234.323259 
L 588.882812 234.323259 
" style="fill:none;stroke:#cccccc;stroke-linecap:round;stroke-width:0.8;"/>
     </g>
     <g id="text_9">
      <!-- 50 -->
      <g style="fill:#262626;" transform="translate(12.760937 237.902166)scale(0.1 -0.1)">
       <use xlink:href="#ArialMT-53"/>
       <use x="55.615234" xlink:href="#ArialMT-48"/>
      </g>
     </g>
    </g>
    <g id="ytick_3">
     <g id="line2d_10">
      <path clip-path="url(#p7438fb639b)" d="M 30.882812 182.257144 
L 588.882812 182.257144 
" style="fill:none;stroke:#cccccc;stroke-linecap:round;stroke-width:0.8;"/>
     </g>
     <g id="text_10">
      <!-- 100 -->
      <g style="fill:#262626;" transform="translate(7.2 185.83605)scale(0.1 -0.1)">
       <use xlink:href="#ArialMT-49"/>
       <use x="55.615234" xlink:href="#ArialMT-48"/>
       <use x="111.230469" xlink:href="#ArialMT-48"/>
      </g>
     </g>
    </g>
    <g id="ytick_4">
     <g id="line2d_11">
      <path clip-path="url(#p7438fb639b)" d="M 30.882812 130.191028 
L 588.882812 130.191028 
" style="fill:none;stroke:#cccccc;stroke-linecap:round;stroke-width:0.8;"/>
     </g>
     <g id="text_11">
      <!-- 150 -->
      <g style="fill:#262626;" transform="translate(7.2 133.769934)scale(0.1 -0.1)">
       <use xlink:href="#ArialMT-49"/>
       <use x="55.615234" xlink:href="#ArialMT-53"/>
       <use x="111.230469" xlink:href="#ArialMT-48"/>
      </g>
     </g>
    </g>
    <g id="ytick_5">
     <g id="line2d_12">
      <path clip-path="url(#p7438fb639b)" d="M 30.882812 78.124912 
L 588.882812 78.124912 
" style="fill:none;stroke:#cccccc;stroke-linecap:round;stroke-width:0.8;"/>
     </g>
     <g id="text_12">
      <!-- 200 -->
      <g style="fill:#262626;" transform="translate(7.2 81.703818)scale(0.1 -0.1)">
       <use xlink:href="#ArialMT-50"/>
       <use x="55.615234" xlink:href="#ArialMT-48"/>
       <use x="111.230469" xlink:href="#ArialMT-48"/>
      </g>
     </g>
    </g>
    <g id="ytick_6">
     <g id="line2d_13">
      <path clip-path="url(#p7438fb639b)" d="M 30.882812 26.058796 
L 588.882812 26.058796 
" style="fill:none;stroke:#cccccc;stroke-linecap:round;stroke-width:0.8;"/>
     </g>
     <g id="text_13">
      <!-- 250 -->
      <g style="fill:#262626;" transform="translate(7.2 29.637703)scale(0.1 -0.1)">
       <use xlink:href="#ArialMT-50"/>
       <use x="55.615234" xlink:href="#ArialMT-53"/>
       <use x="111.230469" xlink:href="#ArialMT-48"/>
      </g>
     </g>
    </g>
   </g>
   <g id="line2d_14">
    <path clip-path="url(#p7438fb639b)" d="M 56.246449 274.93483 
L 57.647755 274.93483 
L 59.049061 272.852185 
L 60.450366 272.852185 
L 61.851672 262.438962 
L 63.252978 243.69516 
L 64.654284 242.653838 
L 66.05559 238.488549 
L 67.456896 232.240615 
L 68.858202 231.199292 
L 70.259508 231.199292 
L 71.660814 230.15797 
L 73.062119 225.992681 
L 74.463425 203.08359 
L 75.864731 201.000945 
L 77.266037 201.000945 
L 78.667343 169.761276 
L 80.068649 167.678631 
L 81.469955 186.422433 
L 82.871261 181.215821 
L 84.272566 172.885243 
L 85.673872 170.802598 
L 87.075178 166.637309 
L 88.476484 166.637309 
L 89.87779 164.554664 
L 91.279096 148.93483 
L 92.680402 146.852185 
L 94.081708 152.058796 
L 95.483013 134.356317 
L 96.884319 130.191028 
L 98.285625 127.067061 
L 99.686931 121.860449 
L 101.088237 135.397639 
L 102.489543 135.397639 
L 103.890849 131.23235 
L 105.292155 122.901772 
L 106.69346 87.496813 
L 108.094766 85.414168 
L 109.496072 134.356317 
L 110.897378 137.480284 
L 112.298684 141.645573 
L 113.69999 134.356317 
L 115.101296 141.645573 
L 116.502602 130.191028 
L 117.903907 123.943094 
L 119.305213 124.984416 
L 120.706519 121.860449 
L 122.107825 113.529871 
L 123.509131 109.364582 
L 124.910437 115.612515 
L 126.311743 119.777805 
L 127.713049 113.529871 
L 129.114354 109.364582 
L 130.51566 114.571193 
L 131.916966 92.703425 
L 133.318272 102.075325 
L 134.719578 97.910036 
L 136.120884 92.703425 
L 137.52219 101.034003 
L 138.923496 85.414168 
L 140.324801 83.331524 
L 141.726107 86.455491 
L 143.127413 76.042268 
L 144.528719 80.207557 
L 145.930025 83.331524 
L 147.331331 85.414168 
L 148.732637 82.290201 
L 150.133943 81.248879 
L 151.535248 75.000945 
L 152.936554 77.08359 
L 154.33786 78.124912 
L 155.739166 61.463755 
L 157.140472 60.422433 
L 158.541778 62.505077 
L 159.943084 69.794334 
L 161.34439 69.794334 
L 162.745695 68.753011 
L 164.147001 66.670367 
L 165.548307 60.422433 
L 166.949613 60.422433 
L 168.350919 43.761276 
L 169.752225 51.050532 
L 171.153531 41.678631 
L 172.554837 48.967887 
L 173.956142 38.554664 
L 175.357448 42.719954 
L 176.758754 34.389375 
L 178.16006 46.885243 
L 179.561366 57.298466 
L 180.962672 60.422433 
L 182.363978 65.629044 
L 183.765284 71.876978 
L 185.166589 67.711689 
L 186.567895 60.422433 
L 187.969201 59.381111 
L 189.370507 55.215821 
L 190.771813 61.463755 
L 192.173119 78.124912 
L 193.574425 80.207557 
L 194.975731 72.918301 
L 196.377037 77.08359 
L 197.778342 86.455491 
L 199.179648 90.62078 
L 200.580954 98.951358 
L 201.98226 98.951358 
L 203.383566 107.281937 
L 204.784872 96.868714 
L 206.186178 102.075325 
L 207.587484 104.15797 
L 208.988789 108.323259 
L 210.390095 95.827392 
L 211.791401 118.736482 
L 213.192707 115.612515 
L 214.594013 114.571193 
L 215.995319 120.819127 
L 217.396625 128.108383 
L 218.797931 126.025739 
L 220.199236 97.910036 
L 221.600542 114.571193 
L 223.001848 103.116648 
L 224.403154 95.827392 
L 225.80446 107.281937 
L 227.205766 104.15797 
L 230.008378 110.405904 
L 231.409683 104.15797 
L 232.810989 108.323259 
L 234.212295 102.075325 
L 235.613601 104.15797 
L 238.416213 110.405904 
L 239.817519 116.653838 
L 241.218825 127.067061 
L 242.62013 130.191028 
L 244.021436 131.23235 
L 245.422742 136.438962 
L 246.824048 139.562929 
L 248.225354 136.438962 
L 249.62666 145.810863 
L 251.027966 151.017474 
L 252.429272 162.47202 
L 253.830577 159.348053 
L 255.231883 161.430697 
L 256.633189 179.133177 
L 258.034495 171.84392 
L 259.435801 177.050532 
L 260.837107 183.298466 
L 262.238413 179.133177 
L 263.639719 178.091854 
L 265.041024 173.926565 
L 266.44233 171.84392 
L 267.843636 170.802598 
L 269.244942 153.100119 
L 270.646248 164.554664 
L 273.44886 177.050532 
L 274.850166 173.926565 
L 276.251471 187.463755 
L 277.652777 188.505077 
L 279.054083 185.381111 
L 280.455389 188.505077 
L 281.856695 193.711689 
L 283.258001 185.381111 
L 284.659307 196.835656 
L 286.060613 177.050532 
L 287.461918 163.513342 
L 288.863224 161.430697 
L 290.26453 166.637309 
L 291.665836 168.719954 
L 293.067142 168.719954 
L 294.468448 171.84392 
L 295.869754 171.84392 
L 297.27106 183.298466 
L 298.672365 181.215821 
L 300.073671 167.678631 
L 301.474977 171.84392 
L 302.876283 167.678631 
L 304.277589 166.637309 
L 305.678895 167.678631 
L 307.080201 171.84392 
L 309.882813 184.339788 
L 311.284118 185.381111 
L 312.685424 182.257144 
L 314.08673 180.174499 
L 316.889342 182.257144 
L 318.290648 191.629044 
L 319.691954 191.629044 
L 321.09326 210.372846 
L 322.494565 207.248879 
L 323.895871 205.166235 
L 325.297177 198.918301 
L 326.698483 196.835656 
L 328.099789 197.876978 
L 329.501095 193.711689 
L 330.902401 198.918301 
L 332.303707 197.876978 
L 333.705012 191.629044 
L 335.106318 193.711689 
L 336.507624 194.753011 
L 337.90893 187.463755 
L 339.310236 182.257144 
L 340.711542 185.381111 
L 342.112848 181.215821 
L 343.514154 184.339788 
L 344.915459 180.174499 
L 346.316765 187.463755 
L 347.718071 188.505077 
L 349.119377 187.463755 
L 350.520683 184.339788 
L 351.921989 186.422433 
L 353.323295 190.587722 
L 354.724601 189.5464 
L 356.125906 189.5464 
L 357.527212 185.381111 
L 358.928518 177.050532 
L 360.329824 173.926565 
L 361.73113 174.967887 
L 363.132436 178.091854 
L 364.533742 172.885243 
L 365.935048 172.885243 
L 367.336353 169.761276 
L 368.737659 160.389375 
L 370.138965 162.47202 
L 371.540271 158.30673 
L 372.941577 158.30673 
L 374.342883 154.141441 
L 375.744189 148.93483 
L 377.145495 140.604251 
L 378.5468 152.058796 
L 379.948106 159.348053 
L 381.349412 152.058796 
L 382.750718 143.728218 
L 384.152024 147.893507 
L 385.55333 138.521606 
L 386.954636 132.273673 
L 388.355942 118.736482 
L 389.757247 120.819127 
L 391.158553 124.984416 
L 392.559859 131.23235 
L 393.961165 130.191028 
L 395.362471 123.943094 
L 396.763777 124.984416 
L 398.165083 103.116648 
L 399.566389 97.910036 
L 400.967694 101.034003 
L 402.369 82.290201 
L 403.770306 83.331524 
L 405.171612 89.579458 
L 406.572918 81.248879 
L 407.974224 73.959623 
L 409.37553 73.959623 
L 410.776836 77.08359 
L 412.178141 67.711689 
L 413.579447 82.290201 
L 414.980753 87.496813 
L 416.382059 94.786069 
L 417.783365 84.372846 
L 419.184671 86.455491 
L 420.585977 96.868714 
L 421.987283 91.662102 
L 423.388588 106.240615 
L 424.789894 118.736482 
L 426.1912 106.240615 
L 427.592506 87.496813 
L 428.993812 104.15797 
L 430.395118 98.951358 
L 431.796424 96.868714 
L 433.19773 106.240615 
L 437.401647 128.108383 
L 438.802953 126.025739 
L 440.204259 124.984416 
L 441.605565 132.273673 
L 443.006871 137.480284 
L 444.408177 131.23235 
L 445.809483 127.067061 
L 447.210788 127.067061 
L 448.612094 133.314995 
L 450.0134 142.686896 
L 451.414706 145.810863 
L 452.816012 137.480284 
L 454.217318 136.438962 
L 455.618624 130.191028 
L 457.01993 133.314995 
L 458.421235 131.23235 
L 459.822541 144.76954 
L 461.223847 140.604251 
L 462.625153 149.976152 
L 464.026459 163.513342 
L 465.427765 161.430697 
L 466.829071 160.389375 
L 468.230377 162.47202 
L 469.631682 157.265408 
L 472.434294 159.348053 
L 473.8356 145.810863 
L 475.236906 149.976152 
L 476.638212 138.521606 
L 478.039518 139.562929 
L 479.440824 134.356317 
L 482.243435 146.852185 
L 483.644741 137.480284 
L 485.046047 141.645573 
L 486.447353 149.976152 
L 487.848659 161.430697 
L 489.249965 152.058796 
L 490.651271 157.265408 
L 492.052576 153.100119 
L 493.453882 166.637309 
L 494.855188 172.885243 
L 496.256494 160.389375 
L 497.6578 168.719954 
L 499.059106 162.47202 
L 500.460412 169.761276 
L 501.861718 172.885243 
L 503.263023 160.389375 
L 504.664329 159.348053 
L 506.065635 155.182763 
L 507.466941 162.47202 
L 508.868247 161.430697 
L 510.269553 162.47202 
L 511.670859 167.678631 
L 513.072165 171.84392 
L 514.47347 181.215821 
L 515.874776 182.257144 
L 517.276082 180.174499 
L 518.677388 176.00921 
L 520.078694 190.587722 
L 521.48 189.5464 
L 522.881306 176.00921 
L 524.282612 171.84392 
L 525.683917 187.463755 
L 527.085223 187.463755 
L 528.486529 183.298466 
L 529.887835 186.422433 
L 531.289141 180.174499 
L 532.690447 170.802598 
L 534.091753 164.554664 
L 535.493059 168.719954 
L 536.894364 155.182763 
L 538.29567 156.224086 
L 539.696976 174.967887 
L 541.098282 152.058796 
L 542.499588 140.604251 
L 543.900894 148.93483 
L 545.3022 137.480284 
L 546.703506 139.562929 
L 548.104811 136.438962 
L 549.506117 148.93483 
L 550.907423 144.76954 
L 552.308729 131.23235 
L 553.710035 124.984416 
L 556.512647 114.571193 
L 559.315259 95.827392 
L 560.716564 83.331524 
L 562.11787 76.042268 
L 563.519176 55.215821 
L 563.519176 55.215821 
" style="fill:none;stroke:#1f77b4;stroke-linecap:round;stroke-width:1.5;"/>
   </g>
   <g id="line2d_15">
    <path clip-path="url(#p7438fb639b)" d="M 56.246449 286.389375 
L 57.647755 286.389375 
L 59.049061 279.100119 
L 60.450366 279.100119 
L 61.851672 277.017474 
L 63.252978 266.604251 
L 64.654284 267.645573 
L 66.05559 263.480284 
L 71.660814 263.480284 
L 73.062119 264.521606 
L 74.463425 260.356317 
L 75.864731 262.438962 
L 77.266037 261.397639 
L 78.667343 257.23235 
L 80.068649 257.23235 
L 81.469955 252.025739 
L 82.871261 247.860449 
L 84.272566 247.860449 
L 85.673872 253.067061 
L 88.476484 253.067061 
L 89.87779 252.025739 
L 91.279096 246.819127 
L 92.680402 249.943094 
L 94.081708 256.191028 
L 95.483013 247.860449 
L 96.884319 240.571193 
L 98.285625 239.529871 
L 99.686931 230.15797 
L 101.088237 236.405904 
L 102.489543 234.323259 
L 103.890849 230.15797 
L 105.292155 220.786069 
L 106.69346 215.579458 
L 108.094766 212.455491 
L 109.496072 220.786069 
L 110.897378 220.786069 
L 113.69999 224.951358 
L 115.101296 220.786069 
L 116.502602 213.496813 
L 117.903907 210.372846 
L 119.305213 208.290201 
L 120.706519 209.331524 
L 122.107825 202.042268 
L 123.509131 202.042268 
L 124.910437 212.455491 
L 126.311743 214.538135 
L 127.713049 207.248879 
L 129.114354 207.248879 
L 131.916966 211.414168 
L 133.318272 217.662102 
L 134.719578 213.496813 
L 136.120884 210.372846 
L 137.52219 216.62078 
L 138.923496 207.248879 
L 140.324801 207.248879 
L 141.726107 205.166235 
L 143.127413 209.331524 
L 144.528719 203.08359 
L 145.930025 203.08359 
L 147.331331 197.876978 
L 148.732637 198.918301 
L 151.535248 196.835656 
L 152.936554 206.207557 
L 154.33786 209.331524 
L 155.739166 202.042268 
L 157.140472 207.248879 
L 158.541778 202.042268 
L 159.943084 195.794334 
L 161.34439 193.711689 
L 162.745695 192.670367 
L 164.147001 196.835656 
L 165.548307 193.711689 
L 166.949613 193.711689 
L 168.350919 187.463755 
L 169.752225 190.587722 
L 171.153531 188.505077 
L 172.554837 188.505077 
L 173.956142 178.091854 
L 175.357448 183.298466 
L 176.758754 190.587722 
L 178.16006 193.711689 
L 179.561366 184.339788 
L 180.962672 190.587722 
L 182.363978 198.918301 
L 183.765284 202.042268 
L 186.567895 199.959623 
L 187.969201 193.711689 
L 189.370507 196.835656 
L 190.771813 194.753011 
L 192.173119 198.918301 
L 193.574425 197.876978 
L 194.975731 198.918301 
L 196.377037 205.166235 
L 197.778342 214.538135 
L 199.179648 213.496813 
L 200.580954 209.331524 
L 201.98226 210.372846 
L 203.383566 214.538135 
L 204.784872 211.414168 
L 206.186178 209.331524 
L 207.587484 210.372846 
L 208.988789 210.372846 
L 210.390095 208.290201 
L 211.791401 217.662102 
L 213.192707 217.662102 
L 214.594013 216.62078 
L 215.995319 220.786069 
L 217.396625 222.868714 
L 218.797931 217.662102 
L 220.199236 210.372846 
L 221.600542 213.496813 
L 223.001848 205.166235 
L 224.403154 209.331524 
L 225.80446 217.662102 
L 227.205766 220.786069 
L 228.607072 218.703425 
L 230.008378 218.703425 
L 231.409683 220.786069 
L 232.810989 213.496813 
L 234.212295 215.579458 
L 235.613601 218.703425 
L 237.014907 218.703425 
L 238.416213 213.496813 
L 239.817519 213.496813 
L 241.218825 219.744747 
L 242.62013 219.744747 
L 244.021436 220.786069 
L 245.422742 224.951358 
L 246.824048 227.034003 
L 248.225354 228.075325 
L 249.62666 231.199292 
L 251.027966 236.405904 
L 252.429272 235.364582 
L 253.830577 231.199292 
L 255.231883 232.240615 
L 256.633189 239.529871 
L 258.034495 239.529871 
L 259.435801 238.488549 
L 260.837107 243.69516 
L 262.238413 242.653838 
L 263.639719 240.571193 
L 265.041024 236.405904 
L 266.44233 238.488549 
L 267.843636 238.488549 
L 269.244942 234.323259 
L 270.646248 241.612515 
L 272.047554 241.612515 
L 273.44886 247.860449 
L 274.850166 244.736482 
L 276.251471 248.901772 
L 277.652777 248.901772 
L 279.054083 249.943094 
L 280.455389 245.777805 
L 283.258001 245.777805 
L 284.659307 250.984416 
L 286.060613 242.653838 
L 287.461918 244.736482 
L 288.863224 239.529871 
L 290.26453 241.612515 
L 291.665836 240.571193 
L 293.067142 241.612515 
L 294.468448 238.488549 
L 295.869754 241.612515 
L 297.27106 243.69516 
L 298.672365 242.653838 
L 300.073671 236.405904 
L 301.474977 238.488549 
L 302.876283 233.281937 
L 304.277589 234.323259 
L 305.678895 240.571193 
L 307.080201 248.901772 
L 308.481507 243.69516 
L 309.882813 243.69516 
L 311.284118 244.736482 
L 312.685424 242.653838 
L 315.488036 244.736482 
L 316.889342 243.69516 
L 318.290648 245.777805 
L 319.691954 253.067061 
L 321.09326 252.025739 
L 322.494565 245.777805 
L 323.895871 246.819127 
L 325.297177 245.777805 
L 326.698483 242.653838 
L 328.099789 240.571193 
L 329.501095 240.571193 
L 330.902401 244.736482 
L 332.303707 246.819127 
L 333.705012 245.777805 
L 336.507624 245.777805 
L 337.90893 244.736482 
L 339.310236 242.653838 
L 340.711542 244.736482 
L 342.112848 245.777805 
L 343.514154 243.69516 
L 344.915459 242.653838 
L 346.316765 247.860449 
L 347.718071 252.025739 
L 349.119377 248.901772 
L 350.520683 252.025739 
L 351.921989 252.025739 
L 353.323295 249.943094 
L 354.724601 253.067061 
L 356.125906 247.860449 
L 357.527212 244.736482 
L 358.928518 243.69516 
L 360.329824 239.529871 
L 364.533742 239.529871 
L 367.336353 235.364582 
L 368.737659 231.199292 
L 370.138965 238.488549 
L 371.540271 238.488549 
L 372.941577 237.447226 
L 374.342883 235.364582 
L 375.744189 231.199292 
L 377.145495 232.240615 
L 379.948106 230.15797 
L 381.349412 228.075325 
L 382.750718 224.951358 
L 384.152024 229.116648 
L 385.55333 216.62078 
L 386.954636 213.496813 
L 388.355942 215.579458 
L 389.757247 214.538135 
L 391.158553 204.124912 
L 392.559859 214.538135 
L 393.961165 213.496813 
L 395.362471 216.62078 
L 396.763777 215.579458 
L 398.165083 205.166235 
L 399.566389 203.08359 
L 400.967694 203.08359 
L 402.369 189.5464 
L 403.770306 194.753011 
L 405.171612 202.042268 
L 406.572918 196.835656 
L 407.974224 197.876978 
L 409.37553 197.876978 
L 410.776836 199.959623 
L 412.178141 198.918301 
L 413.579447 206.207557 
L 414.980753 207.248879 
L 416.382059 199.959623 
L 417.783365 195.794334 
L 419.184671 197.876978 
L 420.585977 204.124912 
L 421.987283 206.207557 
L 423.388588 204.124912 
L 424.789894 215.579458 
L 426.1912 207.248879 
L 427.592506 207.248879 
L 428.993812 202.042268 
L 430.395118 195.794334 
L 431.796424 199.959623 
L 433.19773 199.959623 
L 434.599036 207.248879 
L 436.000341 210.372846 
L 437.401647 207.248879 
L 438.802953 206.207557 
L 440.204259 210.372846 
L 441.605565 216.62078 
L 443.006871 212.455491 
L 444.408177 209.331524 
L 445.809483 211.414168 
L 447.210788 204.124912 
L 448.612094 211.414168 
L 450.0134 215.579458 
L 451.414706 215.579458 
L 452.816012 204.124912 
L 454.217318 215.579458 
L 455.618624 215.579458 
L 457.01993 220.786069 
L 458.421235 217.662102 
L 459.822541 215.579458 
L 461.223847 217.662102 
L 462.625153 218.703425 
L 464.026459 221.827392 
L 465.427765 223.910036 
L 466.829071 224.951358 
L 468.230377 227.034003 
L 469.631682 224.951358 
L 471.032988 220.786069 
L 472.434294 218.703425 
L 473.8356 212.455491 
L 475.236906 213.496813 
L 476.638212 206.207557 
L 478.039518 204.124912 
L 479.440824 199.959623 
L 480.842129 202.042268 
L 482.243435 205.166235 
L 485.046047 209.331524 
L 486.447353 210.372846 
L 487.848659 213.496813 
L 489.249965 211.414168 
L 490.651271 214.538135 
L 492.052576 207.248879 
L 493.453882 208.290201 
L 494.855188 211.414168 
L 496.256494 210.372846 
L 497.6578 217.662102 
L 501.861718 220.786069 
L 503.263023 216.62078 
L 504.664329 210.372846 
L 506.065635 216.62078 
L 507.466941 212.455491 
L 508.868247 217.662102 
L 510.269553 219.744747 
L 511.670859 225.992681 
L 513.072165 230.15797 
L 514.47347 232.240615 
L 515.874776 229.116648 
L 517.276082 230.15797 
L 518.677388 227.034003 
L 520.078694 237.447226 
L 521.48 238.488549 
L 522.881306 222.868714 
L 524.282612 228.075325 
L 525.683917 225.992681 
L 527.085223 227.034003 
L 528.486529 221.827392 
L 529.887835 225.992681 
L 531.289141 228.075325 
L 532.690447 224.951358 
L 534.091753 227.034003 
L 535.493059 234.323259 
L 538.29567 221.827392 
L 539.696976 229.116648 
L 541.098282 222.868714 
L 542.499588 218.703425 
L 543.900894 221.827392 
L 545.3022 217.662102 
L 546.703506 217.662102 
L 548.104811 218.703425 
L 549.506117 227.034003 
L 550.907423 213.496813 
L 552.308729 217.662102 
L 553.710035 220.786069 
L 555.111341 211.414168 
L 556.512647 207.248879 
L 557.913953 199.959623 
L 559.315259 183.298466 
L 560.716564 173.926565 
L 562.11787 186.422433 
L 563.519176 169.761276 
L 563.519176 169.761276 
" style="fill:none;stroke:#ff7f0e;stroke-linecap:round;stroke-width:1.5;"/>
   </g>
   <g id="patch_3">
    <path d="M 30.882812 298.989375 
L 30.882812 21.789375 
" style="fill:none;stroke:#cccccc;stroke-linecap:square;stroke-linejoin:miter;stroke-width:0.8;"/>
   </g>
   <g id="patch_4">
    <path d="M 588.882812 298.989375 
L 588.882812 21.789375 
" style="fill:none;stroke:#cccccc;stroke-linecap:square;stroke-linejoin:miter;stroke-width:0.8;"/>
   </g>
   <g id="patch_5">
    <path d="M 30.882813 298.989375 
L 588.882813 298.989375 
" style="fill:none;stroke:#cccccc;stroke-linecap:square;stroke-linejoin:miter;stroke-width:0.8;"/>
   </g>
   <g id="patch_6">
    <path d="M 30.882813 21.789375 
L 588.882813 21.789375 
" style="fill:none;stroke:#cccccc;stroke-linecap:square;stroke-linejoin:miter;stroke-width:0.8;"/>
   </g>
   <g id="text_14">
    <!-- Internações -->
    <g style="fill:#262626;" transform="translate(278.531875 15.789375)scale(0.12 -0.12)">
     <defs>
      <path d="M 9.328125 0 
L 9.328125 71.578125 
L 18.796875 71.578125 
L 18.796875 0 
z
" id="ArialMT-73"/>
      <path d="M 6.59375 0 
L 6.59375 51.859375 
L 14.5 51.859375 
L 14.5 44.484375 
Q 20.21875 53.03125 31 53.03125 
Q 35.6875 53.03125 39.625 51.34375 
Q 43.5625 49.65625 45.515625 46.921875 
Q 47.46875 44.1875 48.25 40.4375 
Q 48.734375 37.984375 48.734375 31.890625 
L 48.734375 0 
L 39.9375 0 
L 39.9375 31.546875 
Q 39.9375 36.921875 38.90625 39.578125 
Q 37.890625 42.234375 35.28125 43.8125 
Q 32.671875 45.40625 29.15625 45.40625 
Q 23.53125 45.40625 19.453125 41.84375 
Q 15.375 38.28125 15.375 28.328125 
L 15.375 0 
z
" id="ArialMT-110"/>
      <path d="M 25.78125 7.859375 
L 27.046875 0.09375 
Q 23.34375 -0.6875 20.40625 -0.6875 
Q 15.625 -0.6875 12.984375 0.828125 
Q 10.359375 2.34375 9.28125 4.8125 
Q 8.203125 7.28125 8.203125 15.1875 
L 8.203125 45.015625 
L 1.765625 45.015625 
L 1.765625 51.859375 
L 8.203125 51.859375 
L 8.203125 64.703125 
L 16.9375 69.96875 
L 16.9375 51.859375 
L 25.78125 51.859375 
L 25.78125 45.015625 
L 16.9375 45.015625 
L 16.9375 14.703125 
Q 16.9375 10.9375 17.40625 9.859375 
Q 17.875 8.796875 18.921875 8.15625 
Q 19.96875 7.515625 21.921875 7.515625 
Q 23.390625 7.515625 25.78125 7.859375 
z
" id="ArialMT-116"/>
      <path d="M 42.09375 16.703125 
L 51.171875 15.578125 
Q 49.03125 7.625 43.21875 3.21875 
Q 37.40625 -1.171875 28.375 -1.171875 
Q 17 -1.171875 10.328125 5.828125 
Q 3.65625 12.84375 3.65625 25.484375 
Q 3.65625 38.578125 10.390625 45.796875 
Q 17.140625 53.03125 27.875 53.03125 
Q 38.28125 53.03125 44.875 45.953125 
Q 51.46875 38.875 51.46875 26.03125 
Q 51.46875 25.25 51.421875 23.6875 
L 12.75 23.6875 
Q 13.234375 15.140625 17.578125 10.59375 
Q 21.921875 6.0625 28.421875 6.0625 
Q 33.25 6.0625 36.671875 8.59375 
Q 40.09375 11.140625 42.09375 16.703125 
z
M 13.234375 30.90625 
L 42.1875 30.90625 
Q 41.609375 37.453125 38.875 40.71875 
Q 34.671875 45.796875 27.984375 45.796875 
Q 21.921875 45.796875 17.796875 41.75 
Q 13.671875 37.703125 13.234375 30.90625 
z
" id="ArialMT-101"/>
      <path d="M 6.5 0 
L 6.5 51.859375 
L 14.40625 51.859375 
L 14.40625 44 
Q 17.4375 49.515625 20 51.265625 
Q 22.5625 53.03125 25.640625 53.03125 
Q 30.078125 53.03125 34.671875 50.203125 
L 31.640625 42.046875 
Q 28.421875 43.953125 25.203125 43.953125 
Q 22.3125 43.953125 20.015625 42.21875 
Q 17.71875 40.484375 16.75 37.40625 
Q 15.28125 32.71875 15.28125 27.15625 
L 15.28125 0 
z
" id="ArialMT-114"/>
      <path d="M 40.4375 6.390625 
Q 35.546875 2.25 31.03125 0.53125 
Q 26.515625 -1.171875 21.34375 -1.171875 
Q 12.796875 -1.171875 8.203125 3 
Q 3.609375 7.171875 3.609375 13.671875 
Q 3.609375 17.484375 5.34375 20.625 
Q 7.078125 23.78125 9.890625 25.6875 
Q 12.703125 27.59375 16.21875 28.5625 
Q 18.796875 29.25 24.03125 29.890625 
Q 34.671875 31.15625 39.703125 32.90625 
Q 39.75 34.71875 39.75 35.203125 
Q 39.75 40.578125 37.25 42.78125 
Q 33.890625 45.75 27.25 45.75 
Q 21.046875 45.75 18.09375 43.578125 
Q 15.140625 41.40625 13.71875 35.890625 
L 5.125 37.0625 
Q 6.296875 42.578125 8.984375 45.96875 
Q 11.671875 49.359375 16.75 51.1875 
Q 21.828125 53.03125 28.515625 53.03125 
Q 35.15625 53.03125 39.296875 51.46875 
Q 43.453125 49.90625 45.40625 47.53125 
Q 47.359375 45.171875 48.140625 41.546875 
Q 48.578125 39.3125 48.578125 33.453125 
L 48.578125 21.734375 
Q 48.578125 9.46875 49.140625 6.21875 
Q 49.703125 2.984375 51.375 0 
L 42.1875 0 
Q 40.828125 2.734375 40.4375 6.390625 
z
M 39.703125 26.03125 
Q 34.90625 24.078125 25.34375 22.703125 
Q 19.921875 21.921875 17.671875 20.9375 
Q 15.4375 19.96875 14.203125 18.09375 
Q 12.984375 16.21875 12.984375 13.921875 
Q 12.984375 10.40625 15.640625 8.0625 
Q 18.3125 5.71875 23.4375 5.71875 
Q 28.515625 5.71875 32.46875 7.9375 
Q 36.421875 10.15625 38.28125 14.015625 
Q 39.703125 17 39.703125 22.796875 
z
" id="ArialMT-97"/>
      <path d="M 40.4375 19 
L 49.078125 17.875 
Q 47.65625 8.9375 41.8125 3.875 
Q 35.984375 -1.171875 27.484375 -1.171875 
Q 16.84375 -1.171875 10.375 5.78125 
Q 3.90625 12.75 3.90625 25.734375 
Q 3.90625 34.125 6.6875 40.421875 
Q 9.46875 46.734375 15.15625 49.875 
Q 20.84375 53.03125 27.546875 53.03125 
Q 35.984375 53.03125 41.359375 48.75 
Q 46.734375 44.484375 48.25 36.625 
L 39.703125 35.296875 
Q 38.484375 40.53125 35.375 43.15625 
Q 32.28125 45.796875 27.875 45.796875 
Q 21.234375 45.796875 17.078125 41.03125 
Q 12.9375 36.28125 12.9375 25.984375 
Q 12.9375 15.53125 16.9375 10.796875 
Q 20.953125 6.0625 27.390625 6.0625 
Q 32.5625 6.0625 36.03125 9.234375 
Q 39.5 12.40625 40.4375 19 
z
M 20.0625 -6.53125 
L 22.609375 2.109375 
L 29.15625 2.109375 
L 27.546875 -3.125 
Q 31.6875 -3.609375 33.78125 -5.671875 
Q 35.890625 -7.75 35.890625 -10.296875 
Q 35.890625 -13.953125 32.375 -16.765625 
Q 28.859375 -19.578125 21.78125 -19.578125 
Q 17.78125 -19.578125 14.75 -18.984375 
L 15.28125 -13.28125 
Q 18.40625 -13.46875 19.875 -13.46875 
Q 24.46875 -13.46875 26.3125 -12.203125 
Q 27.734375 -11.21875 27.734375 -9.8125 
Q 27.734375 -8.921875 27.171875 -8.234375 
Q 26.609375 -7.5625 25.09375 -7.0625 
Q 23.578125 -6.578125 20.0625 -6.53125 
z
" id="ArialMT-231"/>
      <path d="M 3.328125 25.921875 
Q 3.328125 40.328125 11.328125 47.265625 
Q 18.015625 53.03125 27.640625 53.03125 
Q 38.328125 53.03125 45.109375 46.015625 
Q 51.90625 39.015625 51.90625 26.65625 
Q 51.90625 16.65625 48.90625 10.90625 
Q 45.90625 5.171875 40.15625 2 
Q 34.421875 -1.171875 27.640625 -1.171875 
Q 16.75 -1.171875 10.03125 5.8125 
Q 3.328125 12.796875 3.328125 25.921875 
z
M 12.359375 25.921875 
Q 12.359375 15.96875 16.703125 11.015625 
Q 21.046875 6.0625 27.640625 6.0625 
Q 34.1875 6.0625 38.53125 11.03125 
Q 42.875 16.015625 42.875 26.21875 
Q 42.875 35.84375 38.5 40.796875 
Q 34.125 45.75 27.640625 45.75 
Q 21.046875 45.75 16.703125 40.8125 
Q 12.359375 35.890625 12.359375 25.921875 
z
M 11.28125 59.515625 
Q 11.234375 64.59375 14.0625 67.625 
Q 16.84375 70.65625 21.1875 70.65625 
Q 24.21875 70.65625 29.4375 68.015625 
Q 32.328125 66.546875 34.03125 66.546875 
Q 35.59375 66.546875 36.421875 67.40625 
Q 37.25 68.265625 37.59375 70.796875 
L 43.953125 70.796875 
Q 43.796875 65.234375 41.140625 62.453125 
Q 38.484375 59.671875 34.375 59.671875 
Q 31.296875 59.671875 26.265625 62.40625 
Q 23 64.15625 21.484375 64.15625 
Q 19.828125 64.15625 18.796875 62.984375 
Q 17.71875 61.8125 17.78125 59.515625 
z
" id="ArialMT-245"/>
      <path d="M 3.078125 15.484375 
L 11.765625 16.84375 
Q 12.5 11.625 15.84375 8.84375 
Q 19.1875 6.0625 25.203125 6.0625 
Q 31.25 6.0625 34.171875 8.515625 
Q 37.109375 10.984375 37.109375 14.3125 
Q 37.109375 17.28125 34.515625 19 
Q 32.71875 20.171875 25.53125 21.96875 
Q 15.875 24.421875 12.140625 26.203125 
Q 8.40625 27.984375 6.46875 31.125 
Q 4.546875 34.28125 4.546875 38.09375 
Q 4.546875 41.546875 6.125 44.5 
Q 7.71875 47.46875 10.453125 49.421875 
Q 12.5 50.921875 16.03125 51.96875 
Q 19.578125 53.03125 23.640625 53.03125 
Q 29.734375 53.03125 34.34375 51.265625 
Q 38.96875 49.515625 41.15625 46.5 
Q 43.359375 43.5 44.1875 38.484375 
L 35.59375 37.3125 
Q 35.015625 41.3125 32.203125 43.546875 
Q 29.390625 45.796875 24.265625 45.796875 
Q 18.21875 45.796875 15.625 43.796875 
Q 13.03125 41.796875 13.03125 39.109375 
Q 13.03125 37.40625 14.109375 36.03125 
Q 15.1875 34.625 17.484375 33.6875 
Q 18.796875 33.203125 25.25 31.453125 
Q 34.578125 28.953125 38.25 27.359375 
Q 41.9375 25.78125 44.03125 22.75 
Q 46.140625 19.734375 46.140625 15.234375 
Q 46.140625 10.84375 43.578125 6.953125 
Q 41.015625 3.078125 36.171875 0.953125 
Q 31.34375 -1.171875 25.25 -1.171875 
Q 15.140625 -1.171875 9.84375 3.03125 
Q 4.546875 7.234375 3.078125 15.484375 
z
" id="ArialMT-115"/>
     </defs>
     <use xlink:href="#ArialMT-73"/>
     <use x="27.783203" xlink:href="#ArialMT-110"/>
     <use x="83.398438" xlink:href="#ArialMT-116"/>
     <use x="111.181641" xlink:href="#ArialMT-101"/>
     <use x="166.796875" xlink:href="#ArialMT-114"/>
     <use x="200.097656" xlink:href="#ArialMT-110"/>
     <use x="255.712891" xlink:href="#ArialMT-97"/>
     <use x="311.328125" xlink:href="#ArialMT-231"/>
     <use x="361.328125" xlink:href="#ArialMT-245"/>
     <use x="416.943359" xlink:href="#ArialMT-101"/>
     <use x="472.558594" xlink:href="#ArialMT-115"/>
    </g>
   </g>
   <g id="legend_1">
    <g id="patch_7">
     <path d="M 37.882812 58.08 
L 122.134375 58.08 
Q 124.134375 58.08 124.134375 56.08 
L 124.134375 28.789375 
Q 124.134375 26.789375 122.134375 26.789375 
L 37.882812 26.789375 
Q 35.882812 26.789375 35.882812 28.789375 
L 35.882812 56.08 
Q 35.882812 58.08 37.882812 58.08 
z
" style="fill:#ffffff;opacity:0.8;stroke:#cccccc;stroke-linejoin:miter;"/>
    </g>
    <g id="line2d_16">
     <path d="M 39.882812 34.447187 
L 59.882812 34.447187 
" style="fill:none;stroke:#1f77b4;stroke-linecap:round;stroke-width:1.5;"/>
    </g>
    <g id="line2d_17"/>
    <g id="text_15">
     <!-- Internações -->
     <g style="fill:#262626;" transform="translate(67.882812 37.947187)scale(0.1 -0.1)">
      <use xlink:href="#ArialMT-73"/>
      <use x="27.783203" xlink:href="#ArialMT-110"/>
      <use x="83.398438" xlink:href="#ArialMT-116"/>
      <use x="111.181641" xlink:href="#ArialMT-101"/>
      <use x="166.796875" xlink:href="#ArialMT-114"/>
      <use x="200.097656" xlink:href="#ArialMT-110"/>
      <use x="255.712891" xlink:href="#ArialMT-97"/>
      <use x="311.328125" xlink:href="#ArialMT-231"/>
      <use x="361.328125" xlink:href="#ArialMT-245"/>
      <use x="416.943359" xlink:href="#ArialMT-101"/>
      <use x="472.558594" xlink:href="#ArialMT-115"/>
     </g>
    </g>
    <g id="line2d_18">
     <path d="M 39.882812 48.5925 
L 59.882812 48.5925 
" style="fill:none;stroke:#ff7f0e;stroke-linecap:round;stroke-width:1.5;"/>
    </g>
    <g id="line2d_19"/>
    <g id="text_16">
     <!-- UTI -->
     <g style="fill:#262626;" transform="translate(67.882812 52.0925)scale(0.1 -0.1)">
      <defs>
       <path d="M 54.6875 71.578125 
L 64.15625 71.578125 
L 64.15625 30.21875 
Q 64.15625 19.4375 61.71875 13.078125 
Q 59.28125 6.734375 52.90625 2.75 
Q 46.53125 -1.21875 36.1875 -1.21875 
Q 26.125 -1.21875 19.71875 2.25 
Q 13.328125 5.71875 10.59375 12.28125 
Q 7.859375 18.84375 7.859375 30.21875 
L 7.859375 71.578125 
L 17.328125 71.578125 
L 17.328125 30.28125 
Q 17.328125 20.953125 19.0625 16.53125 
Q 20.796875 12.109375 25.015625 9.71875 
Q 29.25 7.328125 35.359375 7.328125 
Q 45.796875 7.328125 50.234375 12.0625 
Q 54.6875 16.796875 54.6875 30.28125 
z
" id="ArialMT-85"/>
       <path d="M 25.921875 0 
L 25.921875 63.140625 
L 2.34375 63.140625 
L 2.34375 71.578125 
L 59.078125 71.578125 
L 59.078125 63.140625 
L 35.40625 63.140625 
L 35.40625 0 
z
" id="ArialMT-84"/>
      </defs>
      <use xlink:href="#ArialMT-85"/>
      <use x="72.216797" xlink:href="#ArialMT-84"/>
      <use x="133.300781" xlink:href="#ArialMT-73"/>
     </g>
    </g>
   </g>
  </g>
 </g>
 <defs>
  <clipPath id="p7438fb639b">
   <rect height="277.2" width="558" x="30.882812" y="21.789375"/>
  </clipPath>
 </defs>
</svg>
