<?xml version="1.0" encoding="utf-8" standalone="no"?>
<!DOCTYPE svg PUBLIC "-//W3C//DTD SVG 1.1//EN"
  "http://www.w3.org/Graphics/SVG/1.1/DTD/svg11.dtd">
<svg height="340.273125pt" version="1.1" viewBox="0 0 705.6 340.273125" width="705.6pt" xmlns="http://www.w3.org/2000/svg" xmlns:xlink="http://www.w3.org/1999/xlink">
 <metadata>
  <rdf:RDF xmlns:cc="http://creativecommons.org/ns#" xmlns:dc="http://purl.org/dc/elements/1.1/" xmlns:rdf="http://www.w3.org/1999/02/22-rdf-syntax-ns#">
   <cc:Work>
    <dc:type rdf:resource="http://purl.org/dc/dcmitype/StillImage"/>
    <dc:date>2021-07-29T19:59:16.219837</dc:date>
    <dc:format>image/svg+xml</dc:format>
    <dc:creator>
     <cc:Agent>
      <dc:title>Matplotlib v3.4.2, https://matplotlib.org/</dc:title>
     </cc:Agent>
    </dc:creator>
   </cc:Work>
  </rdf:RDF>
 </metadata>
 <defs>
  <style type="text/css">*{stroke-linecap:butt;stroke-linejoin:round;}</style>
 </defs>
 <g id="figure_1">
  <g id="patch_1">
   <path d="M 0 340.273125 
L 705.6 340.273125 
L 705.6 0 
L 0 0 
z
" style="fill:#ffffff;"/>
  </g>
  <g id="axes_1">
   <g id="patch_2">
    <path d="M 82.8 298.989375 
L 640.8 298.989375 
L 640.8 21.789375 
L 82.8 21.789375 
z
" style="fill:#ffffff;"/>
   </g>
   <g id="matplotlib.axis_1">
    <g id="xtick_1">
     <g id="line2d_1">
      <path clip-path="url(#pfe501df0e5)" d="M 89.791586 298.989375 
L 89.791586 21.789375 
" style="fill:none;stroke:#cccccc;stroke-linecap:round;stroke-width:0.8;"/>
     </g>
     <g id="text_1">
      <!-- 2020-03 -->
      <g style="fill:#262626;" transform="translate(71.44393 313.147188)scale(0.1 -0.1)">
       <defs>
        <path d="M 3222 541 
L 3222 0 
L 194 0 
Q 188 203 259 391 
Q 375 700 629 1000 
Q 884 1300 1366 1694 
Q 2113 2306 2375 2664 
Q 2638 3022 2638 3341 
Q 2638 3675 2398 3904 
Q 2159 4134 1775 4134 
Q 1369 4134 1125 3890 
Q 881 3647 878 3216 
L 300 3275 
Q 359 3922 746 4261 
Q 1134 4600 1788 4600 
Q 2447 4600 2831 4234 
Q 3216 3869 3216 3328 
Q 3216 3053 3103 2787 
Q 2991 2522 2730 2228 
Q 2469 1934 1863 1422 
Q 1356 997 1212 845 
Q 1069 694 975 541 
L 3222 541 
z
" id="ArialMT-32" transform="scale(0.015625)"/>
        <path d="M 266 2259 
Q 266 3072 433 3567 
Q 600 4063 929 4331 
Q 1259 4600 1759 4600 
Q 2128 4600 2406 4451 
Q 2684 4303 2865 4023 
Q 3047 3744 3150 3342 
Q 3253 2941 3253 2259 
Q 3253 1453 3087 958 
Q 2922 463 2592 192 
Q 2263 -78 1759 -78 
Q 1097 -78 719 397 
Q 266 969 266 2259 
z
M 844 2259 
Q 844 1131 1108 757 
Q 1372 384 1759 384 
Q 2147 384 2411 759 
Q 2675 1134 2675 2259 
Q 2675 3391 2411 3762 
Q 2147 4134 1753 4134 
Q 1366 4134 1134 3806 
Q 844 3388 844 2259 
z
" id="ArialMT-30" transform="scale(0.015625)"/>
        <path d="M 203 1375 
L 203 1941 
L 1931 1941 
L 1931 1375 
L 203 1375 
z
" id="ArialMT-2d" transform="scale(0.015625)"/>
        <path d="M 269 1209 
L 831 1284 
Q 928 806 1161 595 
Q 1394 384 1728 384 
Q 2125 384 2398 659 
Q 2672 934 2672 1341 
Q 2672 1728 2419 1979 
Q 2166 2231 1775 2231 
Q 1616 2231 1378 2169 
L 1441 2663 
Q 1497 2656 1531 2656 
Q 1891 2656 2178 2843 
Q 2466 3031 2466 3422 
Q 2466 3731 2256 3934 
Q 2047 4138 1716 4138 
Q 1388 4138 1169 3931 
Q 950 3725 888 3313 
L 325 3413 
Q 428 3978 793 4289 
Q 1159 4600 1703 4600 
Q 2078 4600 2393 4439 
Q 2709 4278 2876 4000 
Q 3044 3722 3044 3409 
Q 3044 3113 2884 2869 
Q 2725 2625 2413 2481 
Q 2819 2388 3044 2092 
Q 3269 1797 3269 1353 
Q 3269 753 2831 336 
Q 2394 -81 1725 -81 
Q 1122 -81 723 278 
Q 325 638 269 1209 
z
" id="ArialMT-33" transform="scale(0.015625)"/>
       </defs>
       <use xlink:href="#ArialMT-32"/>
       <use x="55.615234" xlink:href="#ArialMT-30"/>
       <use x="111.230469" xlink:href="#ArialMT-32"/>
       <use x="166.845703" xlink:href="#ArialMT-30"/>
       <use x="222.460938" xlink:href="#ArialMT-2d"/>
       <use x="255.761719" xlink:href="#ArialMT-30"/>
       <use x="311.376953" xlink:href="#ArialMT-33"/>
      </g>
     </g>
    </g>
    <g id="xtick_2">
     <g id="line2d_2">
      <path clip-path="url(#pfe501df0e5)" d="M 152.052424 298.989375 
L 152.052424 21.789375 
" style="fill:none;stroke:#cccccc;stroke-linecap:round;stroke-width:0.8;"/>
     </g>
     <g id="text_2">
      <!-- 2020-05 -->
      <g style="fill:#262626;" transform="translate(133.704767 313.147188)scale(0.1 -0.1)">
       <defs>
        <path d="M 266 1200 
L 856 1250 
Q 922 819 1161 601 
Q 1400 384 1738 384 
Q 2144 384 2425 690 
Q 2706 997 2706 1503 
Q 2706 1984 2436 2262 
Q 2166 2541 1728 2541 
Q 1456 2541 1237 2417 
Q 1019 2294 894 2097 
L 366 2166 
L 809 4519 
L 3088 4519 
L 3088 3981 
L 1259 3981 
L 1013 2750 
Q 1425 3038 1878 3038 
Q 2478 3038 2890 2622 
Q 3303 2206 3303 1553 
Q 3303 931 2941 478 
Q 2500 -78 1738 -78 
Q 1113 -78 717 272 
Q 322 622 266 1200 
z
" id="ArialMT-35" transform="scale(0.015625)"/>
       </defs>
       <use xlink:href="#ArialMT-32"/>
       <use x="55.615234" xlink:href="#ArialMT-30"/>
       <use x="111.230469" xlink:href="#ArialMT-32"/>
       <use x="166.845703" xlink:href="#ArialMT-30"/>
       <use x="222.460938" xlink:href="#ArialMT-2d"/>
       <use x="255.761719" xlink:href="#ArialMT-30"/>
       <use x="311.376953" xlink:href="#ArialMT-35"/>
      </g>
     </g>
    </g>
    <g id="xtick_3">
     <g id="line2d_3">
      <path clip-path="url(#pfe501df0e5)" d="M 214.313261 298.989375 
L 214.313261 21.789375 
" style="fill:none;stroke:#cccccc;stroke-linecap:round;stroke-width:0.8;"/>
     </g>
     <g id="text_3">
      <!-- 2020-07 -->
      <g style="fill:#262626;" transform="translate(195.965605 313.147188)scale(0.1 -0.1)">
       <defs>
        <path d="M 303 3981 
L 303 4522 
L 3269 4522 
L 3269 4084 
Q 2831 3619 2401 2847 
Q 1972 2075 1738 1259 
Q 1569 684 1522 0 
L 944 0 
Q 953 541 1156 1306 
Q 1359 2072 1739 2783 
Q 2119 3494 2547 3981 
L 303 3981 
z
" id="ArialMT-37" transform="scale(0.015625)"/>
       </defs>
       <use xlink:href="#ArialMT-32"/>
       <use x="55.615234" xlink:href="#ArialMT-30"/>
       <use x="111.230469" xlink:href="#ArialMT-32"/>
       <use x="166.845703" xlink:href="#ArialMT-30"/>
       <use x="222.460938" xlink:href="#ArialMT-2d"/>
       <use x="255.761719" xlink:href="#ArialMT-30"/>
       <use x="311.376953" xlink:href="#ArialMT-37"/>
      </g>
     </g>
    </g>
    <g id="xtick_4">
     <g id="line2d_4">
      <path clip-path="url(#pfe501df0e5)" d="M 277.594769 298.989375 
L 277.594769 21.789375 
" style="fill:none;stroke:#cccccc;stroke-linecap:round;stroke-width:0.8;"/>
     </g>
     <g id="text_4">
      <!-- 2020-09 -->
      <g style="fill:#262626;" transform="translate(259.247112 313.147188)scale(0.1 -0.1)">
       <defs>
        <path d="M 350 1059 
L 891 1109 
Q 959 728 1153 556 
Q 1347 384 1650 384 
Q 1909 384 2104 503 
Q 2300 622 2425 820 
Q 2550 1019 2634 1356 
Q 2719 1694 2719 2044 
Q 2719 2081 2716 2156 
Q 2547 1888 2255 1720 
Q 1963 1553 1622 1553 
Q 1053 1553 659 1965 
Q 266 2378 266 3053 
Q 266 3750 677 4175 
Q 1088 4600 1706 4600 
Q 2153 4600 2523 4359 
Q 2894 4119 3086 3673 
Q 3278 3228 3278 2384 
Q 3278 1506 3087 986 
Q 2897 466 2520 194 
Q 2144 -78 1638 -78 
Q 1100 -78 759 220 
Q 419 519 350 1059 
z
M 2653 3081 
Q 2653 3566 2395 3850 
Q 2138 4134 1775 4134 
Q 1400 4134 1122 3828 
Q 844 3522 844 3034 
Q 844 2597 1108 2323 
Q 1372 2050 1759 2050 
Q 2150 2050 2401 2323 
Q 2653 2597 2653 3081 
z
" id="ArialMT-39" transform="scale(0.015625)"/>
       </defs>
       <use xlink:href="#ArialMT-32"/>
       <use x="55.615234" xlink:href="#ArialMT-30"/>
       <use x="111.230469" xlink:href="#ArialMT-32"/>
       <use x="166.845703" xlink:href="#ArialMT-30"/>
       <use x="222.460938" xlink:href="#ArialMT-2d"/>
       <use x="255.761719" xlink:href="#ArialMT-30"/>
       <use x="311.376953" xlink:href="#ArialMT-39"/>
      </g>
     </g>
    </g>
    <g id="xtick_5">
     <g id="line2d_5">
      <path clip-path="url(#pfe501df0e5)" d="M 339.855606 298.989375 
L 339.855606 21.789375 
" style="fill:none;stroke:#cccccc;stroke-linecap:round;stroke-width:0.8;"/>
     </g>
     <g id="text_5">
      <!-- 2020-11 -->
      <g style="fill:#262626;" transform="translate(321.8767 313.147188)scale(0.1 -0.1)">
       <defs>
        <path d="M 2384 0 
L 1822 0 
L 1822 3584 
Q 1619 3391 1289 3197 
Q 959 3003 697 2906 
L 697 3450 
Q 1169 3672 1522 3987 
Q 1875 4303 2022 4600 
L 2384 4600 
L 2384 0 
z
" id="ArialMT-31" transform="scale(0.015625)"/>
       </defs>
       <use xlink:href="#ArialMT-32"/>
       <use x="55.615234" xlink:href="#ArialMT-30"/>
       <use x="111.230469" xlink:href="#ArialMT-32"/>
       <use x="166.845703" xlink:href="#ArialMT-30"/>
       <use x="222.460938" xlink:href="#ArialMT-2d"/>
       <use x="255.761719" xlink:href="#ArialMT-31"/>
       <use x="304.001953" xlink:href="#ArialMT-31"/>
      </g>
     </g>
    </g>
    <g id="xtick_6">
     <g id="line2d_6">
      <path clip-path="url(#pfe501df0e5)" d="M 402.116444 298.989375 
L 402.116444 21.789375 
" style="fill:none;stroke:#cccccc;stroke-linecap:round;stroke-width:0.8;"/>
     </g>
     <g id="text_6">
      <!-- 2021-01 -->
      <g style="fill:#262626;" transform="translate(383.768788 313.147188)scale(0.1 -0.1)">
       <use xlink:href="#ArialMT-32"/>
       <use x="55.615234" xlink:href="#ArialMT-30"/>
       <use x="111.230469" xlink:href="#ArialMT-32"/>
       <use x="166.845703" xlink:href="#ArialMT-31"/>
       <use x="222.460938" xlink:href="#ArialMT-2d"/>
       <use x="255.761719" xlink:href="#ArialMT-30"/>
       <use x="311.376953" xlink:href="#ArialMT-31"/>
      </g>
     </g>
    </g>
    <g id="xtick_7">
     <g id="line2d_7">
      <path clip-path="url(#pfe501df0e5)" d="M 462.335943 298.989375 
L 462.335943 21.789375 
" style="fill:none;stroke:#cccccc;stroke-linecap:round;stroke-width:0.8;"/>
     </g>
     <g id="text_7">
      <!-- 2021-03 -->
      <g style="fill:#262626;" transform="translate(443.988287 313.147188)scale(0.1 -0.1)">
       <use xlink:href="#ArialMT-32"/>
       <use x="55.615234" xlink:href="#ArialMT-30"/>
       <use x="111.230469" xlink:href="#ArialMT-32"/>
       <use x="166.845703" xlink:href="#ArialMT-31"/>
       <use x="222.460938" xlink:href="#ArialMT-2d"/>
       <use x="255.761719" xlink:href="#ArialMT-30"/>
       <use x="311.376953" xlink:href="#ArialMT-33"/>
      </g>
     </g>
    </g>
    <g id="xtick_8">
     <g id="line2d_8">
      <path clip-path="url(#pfe501df0e5)" d="M 524.596781 298.989375 
L 524.596781 21.789375 
" style="fill:none;stroke:#cccccc;stroke-linecap:round;stroke-width:0.8;"/>
     </g>
     <g id="text_8">
      <!-- 2021-05 -->
      <g style="fill:#262626;" transform="translate(506.249124 313.147188)scale(0.1 -0.1)">
       <use xlink:href="#ArialMT-32"/>
       <use x="55.615234" xlink:href="#ArialMT-30"/>
       <use x="111.230469" xlink:href="#ArialMT-32"/>
       <use x="166.845703" xlink:href="#ArialMT-31"/>
       <use x="222.460938" xlink:href="#ArialMT-2d"/>
       <use x="255.761719" xlink:href="#ArialMT-30"/>
       <use x="311.376953" xlink:href="#ArialMT-35"/>
      </g>
     </g>
    </g>
    <g id="xtick_9">
     <g id="line2d_9">
      <path clip-path="url(#pfe501df0e5)" d="M 586.857618 298.989375 
L 586.857618 21.789375 
" style="fill:none;stroke:#cccccc;stroke-linecap:round;stroke-width:0.8;"/>
     </g>
     <g id="text_9">
      <!-- 2021-07 -->
      <g style="fill:#262626;" transform="translate(568.509962 313.147188)scale(0.1 -0.1)">
       <use xlink:href="#ArialMT-32"/>
       <use x="55.615234" xlink:href="#ArialMT-30"/>
       <use x="111.230469" xlink:href="#ArialMT-32"/>
       <use x="166.845703" xlink:href="#ArialMT-31"/>
       <use x="222.460938" xlink:href="#ArialMT-2d"/>
       <use x="255.761719" xlink:href="#ArialMT-30"/>
       <use x="311.376953" xlink:href="#ArialMT-37"/>
      </g>
     </g>
    </g>
   </g>
   <g id="matplotlib.axis_2">
    <g id="ytick_1">
     <g id="line2d_10">
      <path clip-path="url(#pfe501df0e5)" d="M 82.8 286.389375 
L 640.8 286.389375 
" style="fill:none;stroke:#cccccc;stroke-linecap:round;stroke-width:0.8;"/>
     </g>
     <g id="text_10">
      <!-- 0 -->
      <g style="fill:#262626;" transform="translate(70.239063 289.968281)scale(0.1 -0.1)">
       <use xlink:href="#ArialMT-30"/>
      </g>
     </g>
    </g>
    <g id="ytick_2">
     <g id="line2d_11">
      <path clip-path="url(#pfe501df0e5)" d="M 82.8 248.664824 
L 640.8 248.664824 
" style="fill:none;stroke:#cccccc;stroke-linecap:round;stroke-width:0.8;"/>
     </g>
     <g id="text_11">
      <!-- 50 -->
      <g style="fill:#262626;" transform="translate(64.678125 252.24373)scale(0.1 -0.1)">
       <use xlink:href="#ArialMT-35"/>
       <use x="55.615234" xlink:href="#ArialMT-30"/>
      </g>
     </g>
    </g>
    <g id="ytick_3">
     <g id="line2d_12">
      <path clip-path="url(#pfe501df0e5)" d="M 82.8 210.940273 
L 640.8 210.940273 
" style="fill:none;stroke:#cccccc;stroke-linecap:round;stroke-width:0.8;"/>
     </g>
     <g id="text_12">
      <!-- 100 -->
      <g style="fill:#262626;" transform="translate(59.117188 214.519179)scale(0.1 -0.1)">
       <use xlink:href="#ArialMT-31"/>
       <use x="55.615234" xlink:href="#ArialMT-30"/>
       <use x="111.230469" xlink:href="#ArialMT-30"/>
      </g>
     </g>
    </g>
    <g id="ytick_4">
     <g id="line2d_13">
      <path clip-path="url(#pfe501df0e5)" d="M 82.8 173.215722 
L 640.8 173.215722 
" style="fill:none;stroke:#cccccc;stroke-linecap:round;stroke-width:0.8;"/>
     </g>
     <g id="text_13">
      <!-- 150 -->
      <g style="fill:#262626;" transform="translate(59.117188 176.794629)scale(0.1 -0.1)">
       <use xlink:href="#ArialMT-31"/>
       <use x="55.615234" xlink:href="#ArialMT-35"/>
       <use x="111.230469" xlink:href="#ArialMT-30"/>
      </g>
     </g>
    </g>
    <g id="ytick_5">
     <g id="line2d_14">
      <path clip-path="url(#pfe501df0e5)" d="M 82.8 135.491171 
L 640.8 135.491171 
" style="fill:none;stroke:#cccccc;stroke-linecap:round;stroke-width:0.8;"/>
     </g>
     <g id="text_14">
      <!-- 200 -->
      <g style="fill:#262626;" transform="translate(59.117188 139.070078)scale(0.1 -0.1)">
       <use xlink:href="#ArialMT-32"/>
       <use x="55.615234" xlink:href="#ArialMT-30"/>
       <use x="111.230469" xlink:href="#ArialMT-30"/>
      </g>
     </g>
    </g>
    <g id="ytick_6">
     <g id="line2d_15">
      <path clip-path="url(#pfe501df0e5)" d="M 82.8 97.766621 
L 640.8 97.766621 
" style="fill:none;stroke:#cccccc;stroke-linecap:round;stroke-width:0.8;"/>
     </g>
     <g id="text_15">
      <!-- 250 -->
      <g style="fill:#262626;" transform="translate(59.117188 101.345527)scale(0.1 -0.1)">
       <use xlink:href="#ArialMT-32"/>
       <use x="55.615234" xlink:href="#ArialMT-35"/>
       <use x="111.230469" xlink:href="#ArialMT-30"/>
      </g>
     </g>
    </g>
    <g id="ytick_7">
     <g id="line2d_16">
      <path clip-path="url(#pfe501df0e5)" d="M 82.8 60.04207 
L 640.8 60.04207 
" style="fill:none;stroke:#cccccc;stroke-linecap:round;stroke-width:0.8;"/>
     </g>
     <g id="text_16">
      <!-- 300 -->
      <g style="fill:#262626;" transform="translate(59.117188 63.620976)scale(0.1 -0.1)">
       <use xlink:href="#ArialMT-33"/>
       <use x="55.615234" xlink:href="#ArialMT-30"/>
       <use x="111.230469" xlink:href="#ArialMT-30"/>
      </g>
     </g>
    </g>
    <g id="ytick_8">
     <g id="line2d_17">
      <path clip-path="url(#pfe501df0e5)" d="M 82.8 22.317519 
L 640.8 22.317519 
" style="fill:none;stroke:#cccccc;stroke-linecap:round;stroke-width:0.8;"/>
     </g>
     <g id="text_17">
      <!-- 350 -->
      <g style="fill:#262626;" transform="translate(59.117188 25.896425)scale(0.1 -0.1)">
       <use xlink:href="#ArialMT-33"/>
       <use x="55.615234" xlink:href="#ArialMT-35"/>
       <use x="111.230469" xlink:href="#ArialMT-30"/>
      </g>
     </g>
    </g>
   </g>
   <g id="line2d_18">
    <path clip-path="url(#pfe501df0e5)" d="M 108.163636 278.089974 
L 109.184306 278.089974 
L 110.204975 276.580992 
L 111.225645 276.580992 
L 112.246314 269.036082 
L 113.266984 255.455243 
L 114.287653 254.700752 
L 115.308323 251.682788 
L 116.328992 247.155842 
L 117.349662 246.401351 
L 118.370331 246.401351 
L 119.391001 245.64686 
L 120.41167 242.628896 
L 121.432339 226.030094 
L 122.453009 224.521112 
L 123.473678 224.521112 
L 124.494348 201.886381 
L 125.515017 200.377399 
L 126.535687 213.958237 
L 127.556356 210.185782 
L 128.577026 204.149854 
L 129.597695 202.640872 
L 130.618365 199.622908 
L 131.639034 199.622908 
L 132.659704 198.113926 
L 133.680373 186.796561 
L 134.701043 185.287579 
L 135.721712 189.060034 
L 136.742382 176.233686 
L 137.763051 173.215722 
L 138.783721 170.952249 
L 139.80439 167.179794 
L 140.825059 176.988177 
L 141.845729 176.988177 
L 142.866398 173.970213 
L 143.887068 167.934285 
L 144.907737 142.281591 
L 145.928407 140.772609 
L 146.949076 176.233686 
L 147.969746 178.497159 
L 148.990415 181.515124 
L 150.011085 176.233686 
L 151.031754 181.515124 
L 152.052424 173.215722 
L 153.073093 168.688776 
L 154.093763 169.443267 
L 155.114432 167.179794 
L 156.135102 161.143866 
L 157.155771 158.125902 
L 158.17644 162.652848 
L 159.19711 165.670812 
L 160.217779 161.143866 
L 161.238449 158.125902 
L 162.259118 161.898357 
L 163.279788 146.054046 
L 164.300457 152.844465 
L 165.321127 149.826501 
L 166.341796 146.054046 
L 167.362466 152.089974 
L 168.383135 140.772609 
L 169.403805 139.263626 
L 170.424474 141.5271 
L 171.445144 133.982189 
L 172.465813 137.000153 
L 173.486483 139.263626 
L 174.507152 140.772609 
L 175.527821 138.509135 
L 176.548491 137.754644 
L 177.56916 133.227698 
L 178.58983 134.73668 
L 179.610499 135.491171 
L 180.631169 123.419315 
L 181.651838 122.664824 
L 182.672508 124.173806 
L 183.693177 129.455243 
L 184.713847 129.455243 
L 185.734516 128.700752 
L 186.755186 127.19177 
L 187.775855 122.664824 
L 188.796525 122.664824 
L 189.817194 110.592968 
L 190.837864 115.874405 
L 191.858533 109.083986 
L 192.879202 114.365423 
L 193.899872 106.820513 
L 194.920541 109.838477 
L 195.941211 103.802549 
L 196.96188 112.856441 
L 197.98255 120.401351 
L 199.003219 122.664824 
L 200.023889 126.437279 
L 201.044558 130.964225 
L 202.065228 127.946261 
L 203.085897 122.664824 
L 204.106567 121.910333 
L 205.127236 118.892369 
L 206.147906 123.419315 
L 207.168575 135.491171 
L 208.189245 137.000153 
L 209.209914 131.718716 
L 210.230584 134.73668 
L 211.251253 141.5271 
L 212.271922 144.545064 
L 213.292592 150.580992 
L 214.313261 150.580992 
L 215.333931 156.61692 
L 216.3546 149.07201 
L 217.37527 152.844465 
L 218.395939 154.353447 
L 219.416609 157.371411 
L 220.437278 148.317519 
L 221.457948 164.916321 
L 222.478617 162.652848 
L 223.499287 161.898357 
L 224.519956 166.425303 
L 225.540626 171.70674 
L 226.561295 170.197758 
L 227.581965 149.826501 
L 228.602634 161.898357 
L 229.623303 153.598956 
L 230.643973 148.317519 
L 231.664642 156.61692 
L 232.685312 154.353447 
L 234.726651 158.880393 
L 235.74732 154.353447 
L 236.76799 157.371411 
L 237.788659 152.844465 
L 238.809329 154.353447 
L 240.850668 158.880393 
L 241.871337 163.407339 
L 242.892007 170.952249 
L 243.912676 173.215722 
L 244.933346 173.970213 
L 245.954015 177.742668 
L 246.974684 180.006141 
L 247.995354 177.742668 
L 249.016023 184.533088 
L 250.036693 188.305543 
L 251.057362 196.604944 
L 252.078032 194.341471 
L 253.098701 195.850453 
L 254.119371 208.6768 
L 255.14004 203.395363 
L 256.16071 207.167818 
L 257.181379 211.694764 
L 258.202049 208.6768 
L 259.222718 207.922309 
L 260.243388 204.904345 
L 261.264057 203.395363 
L 262.284727 202.640872 
L 263.305396 189.814525 
L 264.326065 198.113926 
L 266.367404 207.167818 
L 267.388074 204.904345 
L 268.408743 214.712728 
L 269.429413 215.467219 
L 270.450082 213.203746 
L 271.470752 215.467219 
L 272.491421 219.239674 
L 273.512091 213.203746 
L 274.53276 221.503147 
L 275.55343 207.167818 
L 276.574099 197.359435 
L 277.594769 195.850453 
L 278.615438 199.622908 
L 279.636108 201.13189 
L 280.656777 201.13189 
L 281.677446 203.395363 
L 282.698116 203.395363 
L 283.718785 211.694764 
L 284.739455 210.185782 
L 285.760124 200.377399 
L 286.780794 203.395363 
L 287.801463 200.377399 
L 288.822133 199.622908 
L 289.842802 200.377399 
L 290.863472 203.395363 
L 292.904811 212.449255 
L 293.92548 213.203746 
L 294.94615 210.940273 
L 295.966819 209.431291 
L 298.008158 210.940273 
L 299.028828 217.730692 
L 300.049497 217.730692 
L 301.070166 231.311531 
L 302.090836 229.048058 
L 303.111505 227.539076 
L 304.132175 223.012129 
L 305.152844 221.503147 
L 306.173514 222.257638 
L 307.194183 219.239674 
L 308.214853 223.012129 
L 309.235522 222.257638 
L 310.256192 217.730692 
L 311.276861 219.239674 
L 312.297531 219.994165 
L 313.3182 214.712728 
L 314.33887 210.940273 
L 315.359539 213.203746 
L 316.380209 210.185782 
L 317.400878 212.449255 
L 318.421547 209.431291 
L 319.442217 214.712728 
L 320.462886 215.467219 
L 321.483556 214.712728 
L 322.504225 212.449255 
L 323.524895 213.958237 
L 324.545564 216.976201 
L 325.566234 216.22171 
L 326.586903 216.22171 
L 327.607573 213.203746 
L 328.628242 207.167818 
L 329.648912 204.904345 
L 330.669581 205.658836 
L 331.690251 207.922309 
L 332.71092 204.149854 
L 333.73159 204.149854 
L 334.752259 201.886381 
L 335.772928 195.095962 
L 336.793598 196.604944 
L 337.814267 193.58698 
L 338.834937 193.58698 
L 339.855606 190.569016 
L 340.876276 186.796561 
L 341.896945 180.760632 
L 342.917615 189.060034 
L 343.938284 194.341471 
L 344.958954 189.060034 
L 345.979623 183.024106 
L 347.000293 186.04207 
L 348.020962 179.25165 
L 349.041632 174.724704 
L 350.062301 164.916321 
L 351.082971 166.425303 
L 352.10364 169.443267 
L 353.124309 173.970213 
L 354.144979 173.215722 
L 355.165648 168.688776 
L 356.186318 169.443267 
L 357.206987 153.598956 
L 358.227657 149.826501 
L 359.248326 152.089974 
L 360.268996 138.509135 
L 361.289665 139.263626 
L 362.310335 143.790573 
L 363.331004 137.754644 
L 364.351674 132.473207 
L 365.372343 132.473207 
L 366.393013 134.73668 
L 367.413682 127.946261 
L 368.434352 138.509135 
L 369.455021 142.281591 
L 370.475691 147.563028 
L 371.49636 140.018118 
L 372.517029 141.5271 
L 373.537699 149.07201 
L 374.558368 145.299555 
L 375.579038 155.862429 
L 376.599707 164.916321 
L 377.620377 155.862429 
L 378.641046 142.281591 
L 379.661716 154.353447 
L 380.682385 150.580992 
L 381.703055 149.07201 
L 382.723724 155.862429 
L 385.785733 171.70674 
L 386.806402 170.197758 
L 387.827072 169.443267 
L 388.847741 174.724704 
L 389.86841 178.497159 
L 390.88908 173.970213 
L 391.909749 170.952249 
L 392.930419 170.952249 
L 393.951088 175.479195 
L 394.971758 182.269615 
L 395.992427 184.533088 
L 397.013097 178.497159 
L 398.033766 177.742668 
L 399.054436 173.215722 
L 400.075105 175.479195 
L 401.095775 173.970213 
L 402.116444 183.778597 
L 403.137114 180.760632 
L 404.157783 187.551052 
L 405.178453 197.359435 
L 406.199122 195.850453 
L 407.219791 195.095962 
L 408.240461 196.604944 
L 409.26113 192.832489 
L 411.302469 194.341471 
L 412.323139 184.533088 
L 413.343808 187.551052 
L 414.364478 179.25165 
L 415.385147 180.006141 
L 416.405817 176.233686 
L 418.447156 185.287579 
L 419.467825 178.497159 
L 420.488495 181.515124 
L 421.509164 187.551052 
L 422.529834 195.850453 
L 423.550503 189.060034 
L 424.571172 192.832489 
L 425.591842 189.814525 
L 426.612511 199.622908 
L 427.633181 204.149854 
L 428.65385 195.095962 
L 429.67452 201.13189 
L 430.695189 196.604944 
L 431.715859 201.886381 
L 432.736528 204.149854 
L 433.757198 195.095962 
L 434.777867 194.341471 
L 435.798537 191.323507 
L 436.819206 196.604944 
L 437.839876 195.850453 
L 438.860545 196.604944 
L 439.881215 200.377399 
L 440.901884 203.395363 
L 441.922554 210.185782 
L 442.943223 210.940273 
L 443.963892 209.431291 
L 444.984562 206.413327 
L 446.005231 216.976201 
L 447.025901 216.22171 
L 448.04657 206.413327 
L 449.06724 203.395363 
L 450.087909 214.712728 
L 451.108579 214.712728 
L 452.129248 211.694764 
L 453.149918 213.958237 
L 454.170587 209.431291 
L 455.191257 202.640872 
L 456.211926 198.113926 
L 457.232596 201.13189 
L 458.253265 191.323507 
L 459.273935 192.077998 
L 460.294604 205.658836 
L 461.315273 189.060034 
L 462.335943 180.760632 
L 463.356612 186.796561 
L 464.377282 178.497159 
L 465.397951 180.006141 
L 466.418621 177.742668 
L 467.43929 186.796561 
L 468.45996 183.778597 
L 469.480629 173.970213 
L 470.501299 169.443267 
L 472.542638 161.898357 
L 474.583977 148.317519 
L 475.604646 139.263626 
L 476.625316 133.982189 
L 477.645985 118.892369 
L 478.666654 115.874405 
L 479.687324 112.10195 
L 480.707993 106.820513 
L 481.728663 95.503147 
L 482.749332 81.922309 
L 483.770002 74.377399 
L 484.790671 64.569016 
L 485.811341 57.778597 
L 486.83201 39.670812 
L 487.85268 49.479195 
L 488.873349 40.425303 
L 489.894019 44.197758 
L 490.914688 44.197758 
L 491.935358 34.389375 
L 492.956027 35.898357 
L 493.976697 41.179794 
L 494.997366 37.407339 
L 496.018035 42.688776 
L 497.038705 44.197758 
L 498.059374 41.179794 
L 499.080044 45.70674 
L 500.100713 46.461231 
L 501.121383 56.269615 
L 502.142052 55.515124 
L 503.162722 81.922309 
L 504.183391 87.958237 
L 505.204061 78.904345 
L 506.22473 87.203746 
L 507.2454 84.940273 
L 508.266069 81.922309 
L 509.286739 91.730692 
L 510.307408 78.904345 
L 511.328078 97.012129 
L 512.348747 89.467219 
L 513.369416 90.976201 
L 514.390086 99.275603 
L 515.410755 109.083986 
L 516.431425 109.838477 
L 517.452094 118.892369 
L 518.472764 125.682788 
L 519.493433 122.664824 
L 520.514103 127.19177 
L 521.534772 136.245662 
L 522.555442 133.227698 
L 523.576111 128.700752 
L 524.596781 113.610932 
L 525.61745 121.910333 
L 526.63812 124.173806 
L 527.658789 130.209734 
L 528.679459 118.892369 
L 529.700128 110.592968 
L 530.720798 123.419315 
L 531.741467 133.227698 
L 532.762136 118.137878 
L 533.782806 121.155842 
L 534.803475 115.874405 
L 535.824145 121.155842 
L 536.844814 122.664824 
L 537.865484 127.946261 
L 538.886153 121.155842 
L 539.906823 112.10195 
L 540.927492 109.838477 
L 541.948162 105.311531 
L 542.968831 107.575004 
L 543.989501 111.347459 
L 545.01017 100.030094 
L 546.03084 98.521112 
L 547.051509 97.766621 
L 548.072179 100.030094 
L 549.092848 94.748656 
L 550.113517 90.22171 
L 551.134187 80.413327 
L 552.154856 78.149854 
L 553.175526 68.341471 
L 554.196195 78.149854 
L 555.216865 74.377399 
L 556.237534 90.976201 
L 557.258204 92.485183 
L 558.278873 94.748656 
L 559.299543 93.239674 
L 560.320212 97.766621 
L 561.340882 93.239674 
L 562.361551 92.485183 
L 563.382221 92.485183 
L 564.40289 105.311531 
L 565.42356 112.856441 
L 566.444229 109.083986 
L 567.464898 115.119914 
L 568.485568 111.347459 
L 569.506237 115.874405 
L 570.526907 119.64686 
L 571.547576 117.383387 
L 572.568246 124.173806 
L 573.588915 124.173806 
L 574.609585 134.73668 
L 575.630254 140.018118 
L 576.650924 135.491171 
L 577.671593 142.281591 
L 578.692263 148.317519 
L 579.712932 152.089974 
L 580.733602 158.880393 
L 581.754271 158.880393 
L 582.774941 167.934285 
L 583.79561 170.952249 
L 584.816279 176.988177 
L 585.836949 182.269615 
L 586.857618 188.305543 
L 587.878288 184.533088 
L 588.898957 192.832489 
L 589.919627 197.359435 
L 590.940296 191.323507 
L 591.960966 194.341471 
L 592.981635 192.832489 
L 595.022974 200.377399 
L 596.043644 199.622908 
L 597.064313 192.077998 
L 598.084983 195.095962 
L 599.105652 179.25165 
L 600.126322 182.269615 
L 601.146991 191.323507 
L 602.167661 186.796561 
L 603.18833 191.323507 
L 604.208999 196.604944 
L 605.229669 192.077998 
L 606.250338 200.377399 
L 607.271008 200.377399 
L 608.291677 204.904345 
L 609.312347 204.149854 
L 610.333016 211.694764 
L 611.353686 212.449255 
L 612.374355 219.239674 
L 613.395025 222.257638 
L 614.415694 214.712728 
L 615.436364 225.275603 
L 615.436364 225.275603 
" style="fill:none;stroke:#1f77b4;stroke-linecap:round;stroke-width:1.5;"/>
   </g>
   <g id="line2d_19">
    <path clip-path="url(#pfe501df0e5)" d="M 108.163636 286.389375 
L 109.184306 286.389375 
L 110.204975 281.107938 
L 111.225645 281.107938 
L 112.246314 279.598956 
L 113.266984 272.054046 
L 114.287653 272.808537 
L 115.308323 269.790573 
L 119.391001 269.790573 
L 120.41167 270.545064 
L 121.432339 267.5271 
L 122.453009 269.036082 
L 123.473678 268.281591 
L 124.494348 265.263626 
L 125.515017 265.263626 
L 126.535687 261.491171 
L 127.556356 258.473207 
L 128.577026 258.473207 
L 129.597695 262.245662 
L 131.639034 262.245662 
L 132.659704 261.491171 
L 133.680373 257.718716 
L 134.701043 259.982189 
L 135.721712 264.509135 
L 136.742382 258.473207 
L 137.763051 253.19177 
L 138.783721 252.437279 
L 139.80439 245.64686 
L 140.825059 250.173806 
L 141.845729 248.664824 
L 142.866398 245.64686 
L 143.887068 238.856441 
L 144.907737 235.083986 
L 145.928407 232.820513 
L 146.949076 238.856441 
L 147.969746 238.856441 
L 150.011085 241.874405 
L 151.031754 238.856441 
L 152.052424 233.575004 
L 153.073093 231.311531 
L 154.093763 229.802549 
L 155.114432 230.55704 
L 156.135102 225.275603 
L 157.155771 225.275603 
L 158.17644 232.820513 
L 159.19711 234.329495 
L 160.217779 229.048058 
L 161.238449 229.048058 
L 163.279788 232.066022 
L 164.300457 236.592968 
L 165.321127 233.575004 
L 166.341796 231.311531 
L 167.362466 235.838477 
L 168.383135 229.048058 
L 169.403805 229.048058 
L 170.424474 227.539076 
L 171.445144 230.55704 
L 172.465813 226.030094 
L 173.486483 226.030094 
L 174.507152 222.257638 
L 175.527821 223.012129 
L 177.56916 221.503147 
L 178.58983 228.293567 
L 179.610499 230.55704 
L 180.631169 225.275603 
L 181.651838 229.048058 
L 182.672508 225.275603 
L 183.693177 220.748656 
L 184.713847 219.239674 
L 185.734516 218.485183 
L 186.755186 221.503147 
L 187.775855 219.239674 
L 188.796525 219.239674 
L 189.817194 214.712728 
L 190.837864 216.976201 
L 191.858533 215.467219 
L 192.879202 215.467219 
L 193.899872 207.922309 
L 194.920541 211.694764 
L 195.941211 216.976201 
L 196.96188 219.239674 
L 197.98255 212.449255 
L 199.003219 216.976201 
L 200.023889 223.012129 
L 201.044558 225.275603 
L 203.085897 223.766621 
L 204.106567 219.239674 
L 205.127236 221.503147 
L 206.147906 219.994165 
L 207.168575 223.012129 
L 208.189245 222.257638 
L 209.209914 223.012129 
L 210.230584 227.539076 
L 211.251253 234.329495 
L 212.271922 233.575004 
L 213.292592 230.55704 
L 214.313261 231.311531 
L 215.333931 234.329495 
L 216.3546 232.066022 
L 217.37527 230.55704 
L 218.395939 231.311531 
L 219.416609 231.311531 
L 220.437278 229.802549 
L 221.457948 236.592968 
L 222.478617 236.592968 
L 223.499287 235.838477 
L 224.519956 238.856441 
L 225.540626 240.365423 
L 226.561295 236.592968 
L 227.581965 231.311531 
L 228.602634 233.575004 
L 229.623303 227.539076 
L 230.643973 230.55704 
L 231.664642 236.592968 
L 232.685312 238.856441 
L 233.705981 237.347459 
L 234.726651 237.347459 
L 235.74732 238.856441 
L 236.76799 233.575004 
L 237.788659 235.083986 
L 238.809329 237.347459 
L 239.829998 237.347459 
L 240.850668 233.575004 
L 241.871337 233.575004 
L 242.892007 238.10195 
L 243.912676 238.10195 
L 244.933346 238.856441 
L 245.954015 241.874405 
L 246.974684 243.383387 
L 247.995354 244.137878 
L 249.016023 246.401351 
L 250.036693 250.173806 
L 251.057362 249.419315 
L 252.078032 246.401351 
L 253.098701 247.155842 
L 254.119371 252.437279 
L 255.14004 252.437279 
L 256.16071 251.682788 
L 257.181379 255.455243 
L 258.202049 254.700752 
L 259.222718 253.19177 
L 260.243388 250.173806 
L 261.264057 251.682788 
L 262.284727 251.682788 
L 263.305396 248.664824 
L 264.326065 253.946261 
L 265.346735 253.946261 
L 266.367404 258.473207 
L 267.388074 256.209734 
L 268.408743 259.227698 
L 269.429413 259.227698 
L 270.450082 259.982189 
L 271.470752 256.964225 
L 273.512091 256.964225 
L 274.53276 260.73668 
L 275.55343 254.700752 
L 276.574099 256.209734 
L 277.594769 252.437279 
L 278.615438 253.946261 
L 279.636108 253.19177 
L 280.656777 253.946261 
L 281.677446 251.682788 
L 282.698116 253.946261 
L 283.718785 255.455243 
L 284.739455 254.700752 
L 285.760124 250.173806 
L 286.780794 251.682788 
L 287.801463 247.910333 
L 288.822133 248.664824 
L 289.842802 253.19177 
L 290.863472 259.227698 
L 291.884141 255.455243 
L 292.904811 255.455243 
L 293.92548 256.209734 
L 294.94615 254.700752 
L 296.987489 256.209734 
L 298.008158 255.455243 
L 299.028828 256.964225 
L 300.049497 262.245662 
L 301.070166 261.491171 
L 302.090836 256.964225 
L 303.111505 257.718716 
L 304.132175 256.964225 
L 305.152844 254.700752 
L 306.173514 253.19177 
L 307.194183 253.19177 
L 308.214853 256.209734 
L 309.235522 257.718716 
L 310.256192 256.964225 
L 312.297531 256.964225 
L 313.3182 256.209734 
L 314.33887 254.700752 
L 315.359539 256.209734 
L 316.380209 256.964225 
L 317.400878 255.455243 
L 318.421547 254.700752 
L 319.442217 258.473207 
L 320.462886 261.491171 
L 321.483556 259.227698 
L 322.504225 261.491171 
L 323.524895 261.491171 
L 324.545564 259.982189 
L 325.566234 262.245662 
L 326.586903 258.473207 
L 327.607573 256.209734 
L 328.628242 255.455243 
L 329.648912 252.437279 
L 332.71092 252.437279 
L 334.752259 249.419315 
L 335.772928 246.401351 
L 336.793598 251.682788 
L 337.814267 251.682788 
L 338.834937 250.928297 
L 339.855606 249.419315 
L 340.876276 246.401351 
L 341.896945 247.155842 
L 343.938284 245.64686 
L 344.958954 244.137878 
L 345.979623 241.874405 
L 347.000293 244.892369 
L 348.020962 235.838477 
L 349.041632 233.575004 
L 350.062301 235.083986 
L 351.082971 234.329495 
L 352.10364 226.784585 
L 353.124309 234.329495 
L 354.144979 233.575004 
L 355.165648 235.838477 
L 356.186318 235.083986 
L 357.206987 227.539076 
L 358.227657 226.030094 
L 359.248326 226.030094 
L 360.268996 216.22171 
L 361.289665 219.994165 
L 362.310335 225.275603 
L 363.331004 221.503147 
L 364.351674 222.257638 
L 365.372343 222.257638 
L 366.393013 223.766621 
L 367.413682 223.012129 
L 368.434352 228.293567 
L 369.455021 229.048058 
L 370.475691 223.766621 
L 371.49636 220.748656 
L 372.517029 222.257638 
L 373.537699 226.784585 
L 374.558368 228.293567 
L 375.579038 226.784585 
L 376.599707 235.083986 
L 377.620377 229.048058 
L 378.641046 229.048058 
L 379.661716 225.275603 
L 380.682385 220.748656 
L 381.703055 223.766621 
L 382.723724 223.766621 
L 383.744394 229.048058 
L 384.765063 231.311531 
L 385.785733 229.048058 
L 386.806402 228.293567 
L 387.827072 231.311531 
L 388.847741 235.838477 
L 389.86841 232.820513 
L 390.88908 230.55704 
L 391.909749 232.066022 
L 392.930419 226.784585 
L 393.951088 232.066022 
L 394.971758 235.083986 
L 395.992427 235.083986 
L 397.013097 226.784585 
L 398.033766 235.083986 
L 399.054436 235.083986 
L 400.075105 238.856441 
L 401.095775 236.592968 
L 402.116444 235.083986 
L 403.137114 236.592968 
L 404.157783 237.347459 
L 405.178453 239.610932 
L 406.199122 241.119914 
L 407.219791 241.874405 
L 408.240461 243.383387 
L 409.26113 241.874405 
L 410.2818 238.856441 
L 411.302469 237.347459 
L 412.323139 232.820513 
L 413.343808 233.575004 
L 414.364478 228.293567 
L 415.385147 226.784585 
L 416.405817 223.766621 
L 417.426486 225.275603 
L 418.447156 227.539076 
L 420.488495 230.55704 
L 421.509164 231.311531 
L 422.529834 233.575004 
L 423.550503 232.066022 
L 424.571172 234.329495 
L 425.591842 229.048058 
L 426.612511 229.802549 
L 427.633181 232.066022 
L 428.65385 231.311531 
L 429.67452 236.592968 
L 432.736528 238.856441 
L 433.757198 235.838477 
L 434.777867 231.311531 
L 435.798537 235.838477 
L 436.819206 232.820513 
L 437.839876 236.592968 
L 438.860545 238.10195 
L 439.881215 242.628896 
L 440.901884 245.64686 
L 441.922554 247.155842 
L 442.943223 244.892369 
L 443.963892 245.64686 
L 444.984562 243.383387 
L 446.005231 250.928297 
L 447.025901 251.682788 
L 448.04657 240.365423 
L 449.06724 244.137878 
L 450.087909 242.628896 
L 451.108579 243.383387 
L 452.129248 239.610932 
L 453.149918 242.628896 
L 454.170587 244.137878 
L 455.191257 241.874405 
L 456.211926 243.383387 
L 457.232596 248.664824 
L 459.273935 239.610932 
L 460.294604 244.892369 
L 461.315273 240.365423 
L 462.335943 237.347459 
L 463.356612 239.610932 
L 464.377282 236.592968 
L 465.397951 236.592968 
L 466.418621 237.347459 
L 467.43929 243.383387 
L 468.45996 233.575004 
L 469.480629 236.592968 
L 470.501299 238.856441 
L 471.521968 232.066022 
L 472.542638 229.048058 
L 473.563307 223.766621 
L 474.583977 211.694764 
L 475.604646 204.904345 
L 476.625316 213.958237 
L 477.645985 201.886381 
L 478.666654 196.604944 
L 479.687324 198.113926 
L 480.707993 186.796561 
L 481.728663 190.569016 
L 482.749332 186.04207 
L 483.770002 187.551052 
L 484.790671 180.760632 
L 485.811341 177.742668 
L 486.83201 165.670812 
L 487.85268 163.407339 
L 488.873349 155.862429 
L 489.894019 151.335483 
L 490.914688 154.353447 
L 491.935358 152.089974 
L 492.956027 150.580992 
L 493.976697 147.563028 
L 496.018035 146.054046 
L 497.038705 149.07201 
L 498.059374 146.808537 
L 499.080044 146.054046 
L 501.121383 143.036082 
L 502.142052 144.545064 
L 503.162722 153.598956 
L 504.183391 153.598956 
L 506.22473 165.670812 
L 507.2454 162.652848 
L 508.266069 158.880393 
L 509.286739 168.688776 
L 510.307408 163.407339 
L 511.328078 172.461231 
L 513.369416 175.479195 
L 514.390086 180.760632 
L 515.410755 189.060034 
L 516.431425 189.814525 
L 517.452094 194.341471 
L 519.493433 192.832489 
L 520.514103 197.359435 
L 521.534772 202.640872 
L 522.555442 198.113926 
L 523.576111 202.640872 
L 524.596781 183.024106 
L 525.61745 198.868417 
L 526.63812 205.658836 
L 527.658789 208.6768 
L 528.679459 198.868417 
L 529.700128 197.359435 
L 530.720798 204.149854 
L 531.741467 200.377399 
L 532.762136 182.269615 
L 533.782806 194.341471 
L 534.803475 192.832489 
L 535.824145 193.58698 
L 536.844814 199.622908 
L 537.865484 204.904345 
L 538.886153 198.868417 
L 539.906823 198.113926 
L 540.927492 194.341471 
L 541.948162 189.814525 
L 542.968831 191.323507 
L 543.989501 195.850453 
L 545.01017 193.58698 
L 546.03084 183.778597 
L 547.051509 183.778597 
L 548.072179 186.04207 
L 549.092848 186.796561 
L 550.113517 183.024106 
L 551.134187 180.760632 
L 552.154856 176.233686 
L 553.175526 174.724704 
L 554.196195 179.25165 
L 555.216865 167.934285 
L 556.237534 176.988177 
L 557.258204 178.497159 
L 558.278873 173.970213 
L 559.299543 168.688776 
L 560.320212 178.497159 
L 561.340882 180.760632 
L 562.361551 181.515124 
L 563.382221 183.778597 
L 564.40289 192.077998 
L 565.42356 195.850453 
L 566.444229 193.58698 
L 567.464898 198.868417 
L 568.485568 197.359435 
L 569.506237 198.868417 
L 570.526907 201.13189 
L 571.547576 200.377399 
L 572.568246 210.185782 
L 573.588915 207.922309 
L 574.609585 208.6768 
L 575.630254 211.694764 
L 576.650924 203.395363 
L 577.671593 204.904345 
L 578.692263 207.922309 
L 579.712932 213.958237 
L 580.733602 222.257638 
L 581.754271 226.030094 
L 582.774941 219.239674 
L 583.79561 219.994165 
L 584.816279 223.766621 
L 585.836949 225.275603 
L 586.857618 227.539076 
L 587.878288 222.257638 
L 588.898957 226.784585 
L 589.919627 230.55704 
L 590.940296 229.048058 
L 591.960966 228.293567 
L 594.002305 234.329495 
L 596.043644 237.347459 
L 597.064313 232.820513 
L 598.084983 235.838477 
L 599.105652 229.802549 
L 600.126322 226.784585 
L 601.146991 229.048058 
L 602.167661 228.293567 
L 603.18833 224.521112 
L 604.208999 229.802549 
L 605.229669 230.55704 
L 606.250338 234.329495 
L 609.312347 241.119914 
L 610.333016 242.628896 
L 611.353686 246.401351 
L 612.374355 244.137878 
L 613.395025 245.64686 
L 614.415694 240.365423 
L 615.436364 247.910333 
L 615.436364 247.910333 
" style="fill:none;stroke:#ff7f0e;stroke-linecap:round;stroke-width:1.5;"/>
   </g>
   <g id="patch_3">
    <path d="M 82.8 298.989375 
L 82.8 21.789375 
" style="fill:none;stroke:#cccccc;stroke-linecap:square;stroke-linejoin:miter;stroke-width:0.8;"/>
   </g>
   <g id="patch_4">
    <path d="M 640.8 298.989375 
L 640.8 21.789375 
" style="fill:none;stroke:#cccccc;stroke-linecap:square;stroke-linejoin:miter;stroke-width:0.8;"/>
   </g>
   <g id="patch_5">
    <path d="M 82.8 298.989375 
L 640.8 298.989375 
" style="fill:none;stroke:#cccccc;stroke-linecap:square;stroke-linejoin:miter;stroke-width:0.8;"/>
   </g>
   <g id="patch_6">
    <path d="M 82.8 21.789375 
L 640.8 21.789375 
" style="fill:none;stroke:#cccccc;stroke-linecap:square;stroke-linejoin:miter;stroke-width:0.8;"/>
   </g>
   <g id="text_18">
    <!-- Internações -->
    <g style="fill:#262626;" transform="translate(330.449063 15.789375)scale(0.12 -0.12)">
     <defs>
      <path d="M 597 0 
L 597 4581 
L 1203 4581 
L 1203 0 
L 597 0 
z
" id="ArialMT-49" transform="scale(0.015625)"/>
      <path d="M 422 0 
L 422 3319 
L 928 3319 
L 928 2847 
Q 1294 3394 1984 3394 
Q 2284 3394 2536 3286 
Q 2788 3178 2913 3003 
Q 3038 2828 3088 2588 
Q 3119 2431 3119 2041 
L 3119 0 
L 2556 0 
L 2556 2019 
Q 2556 2363 2490 2533 
Q 2425 2703 2258 2804 
Q 2091 2906 1866 2906 
Q 1506 2906 1245 2678 
Q 984 2450 984 1813 
L 984 0 
L 422 0 
z
" id="ArialMT-6e" transform="scale(0.015625)"/>
      <path d="M 1650 503 
L 1731 6 
Q 1494 -44 1306 -44 
Q 1000 -44 831 53 
Q 663 150 594 308 
Q 525 466 525 972 
L 525 2881 
L 113 2881 
L 113 3319 
L 525 3319 
L 525 4141 
L 1084 4478 
L 1084 3319 
L 1650 3319 
L 1650 2881 
L 1084 2881 
L 1084 941 
Q 1084 700 1114 631 
Q 1144 563 1211 522 
Q 1278 481 1403 481 
Q 1497 481 1650 503 
z
" id="ArialMT-74" transform="scale(0.015625)"/>
      <path d="M 2694 1069 
L 3275 997 
Q 3138 488 2766 206 
Q 2394 -75 1816 -75 
Q 1088 -75 661 373 
Q 234 822 234 1631 
Q 234 2469 665 2931 
Q 1097 3394 1784 3394 
Q 2450 3394 2872 2941 
Q 3294 2488 3294 1666 
Q 3294 1616 3291 1516 
L 816 1516 
Q 847 969 1125 678 
Q 1403 388 1819 388 
Q 2128 388 2347 550 
Q 2566 713 2694 1069 
z
M 847 1978 
L 2700 1978 
Q 2663 2397 2488 2606 
Q 2219 2931 1791 2931 
Q 1403 2931 1139 2672 
Q 875 2413 847 1978 
z
" id="ArialMT-65" transform="scale(0.015625)"/>
      <path d="M 416 0 
L 416 3319 
L 922 3319 
L 922 2816 
Q 1116 3169 1280 3281 
Q 1444 3394 1641 3394 
Q 1925 3394 2219 3213 
L 2025 2691 
Q 1819 2813 1613 2813 
Q 1428 2813 1281 2702 
Q 1134 2591 1072 2394 
Q 978 2094 978 1738 
L 978 0 
L 416 0 
z
" id="ArialMT-72" transform="scale(0.015625)"/>
      <path d="M 2588 409 
Q 2275 144 1986 34 
Q 1697 -75 1366 -75 
Q 819 -75 525 192 
Q 231 459 231 875 
Q 231 1119 342 1320 
Q 453 1522 633 1644 
Q 813 1766 1038 1828 
Q 1203 1872 1538 1913 
Q 2219 1994 2541 2106 
Q 2544 2222 2544 2253 
Q 2544 2597 2384 2738 
Q 2169 2928 1744 2928 
Q 1347 2928 1158 2789 
Q 969 2650 878 2297 
L 328 2372 
Q 403 2725 575 2942 
Q 747 3159 1072 3276 
Q 1397 3394 1825 3394 
Q 2250 3394 2515 3294 
Q 2781 3194 2906 3042 
Q 3031 2891 3081 2659 
Q 3109 2516 3109 2141 
L 3109 1391 
Q 3109 606 3145 398 
Q 3181 191 3288 0 
L 2700 0 
Q 2613 175 2588 409 
z
M 2541 1666 
Q 2234 1541 1622 1453 
Q 1275 1403 1131 1340 
Q 988 1278 909 1158 
Q 831 1038 831 891 
Q 831 666 1001 516 
Q 1172 366 1500 366 
Q 1825 366 2078 508 
Q 2331 650 2450 897 
Q 2541 1088 2541 1459 
L 2541 1666 
z
" id="ArialMT-61" transform="scale(0.015625)"/>
      <path d="M 2588 1216 
L 3141 1144 
Q 3050 572 2676 248 
Q 2303 -75 1759 -75 
Q 1078 -75 664 370 
Q 250 816 250 1647 
Q 250 2184 428 2587 
Q 606 2991 970 3192 
Q 1334 3394 1763 3394 
Q 2303 3394 2647 3120 
Q 2991 2847 3088 2344 
L 2541 2259 
Q 2463 2594 2264 2762 
Q 2066 2931 1784 2931 
Q 1359 2931 1093 2626 
Q 828 2322 828 1663 
Q 828 994 1084 691 
Q 1341 388 1753 388 
Q 2084 388 2306 591 
Q 2528 794 2588 1216 
z
M 1283 -417 
L 1446 136 
L 1864 136 
L 1761 -199 
Q 2027 -230 2161 -362 
Q 2296 -495 2296 -658 
Q 2296 -892 2071 -1072 
Q 1846 -1252 1392 -1252 
Q 1136 -1252 942 -1214 
L 977 -849 
Q 1177 -861 1271 -861 
Q 1564 -861 1683 -780 
Q 1774 -717 1774 -627 
Q 1774 -570 1738 -526 
Q 1702 -483 1605 -451 
Q 1508 -420 1283 -417 
z
" id="ArialMT-e7" transform="scale(0.015625)"/>
      <path d="M 213 1659 
Q 213 2581 725 3025 
Q 1153 3394 1769 3394 
Q 2453 3394 2887 2945 
Q 3322 2497 3322 1706 
Q 3322 1066 3130 698 
Q 2938 331 2570 128 
Q 2203 -75 1769 -75 
Q 1072 -75 642 372 
Q 213 819 213 1659 
z
M 791 1659 
Q 791 1022 1069 705 
Q 1347 388 1769 388 
Q 2188 388 2466 706 
Q 2744 1025 2744 1678 
Q 2744 2294 2464 2611 
Q 2184 2928 1769 2928 
Q 1347 2928 1069 2612 
Q 791 2297 791 1659 
z
M 726 3809 
Q 723 4134 904 4328 
Q 1082 4522 1360 4522 
Q 1554 4522 1888 4353 
Q 2073 4259 2182 4259 
Q 2282 4259 2335 4314 
Q 2388 4369 2410 4531 
L 2817 4531 
Q 2807 4175 2637 3997 
Q 2467 3819 2204 3819 
Q 2007 3819 1685 3994 
Q 1476 4106 1379 4106 
Q 1273 4106 1207 4031 
Q 1138 3956 1142 3809 
L 726 3809 
z
" id="ArialMT-f5" transform="scale(0.015625)"/>
      <path d="M 197 991 
L 753 1078 
Q 800 744 1014 566 
Q 1228 388 1613 388 
Q 2000 388 2187 545 
Q 2375 703 2375 916 
Q 2375 1106 2209 1216 
Q 2094 1291 1634 1406 
Q 1016 1563 777 1677 
Q 538 1791 414 1992 
Q 291 2194 291 2438 
Q 291 2659 392 2848 
Q 494 3038 669 3163 
Q 800 3259 1026 3326 
Q 1253 3394 1513 3394 
Q 1903 3394 2198 3281 
Q 2494 3169 2634 2976 
Q 2775 2784 2828 2463 
L 2278 2388 
Q 2241 2644 2061 2787 
Q 1881 2931 1553 2931 
Q 1166 2931 1000 2803 
Q 834 2675 834 2503 
Q 834 2394 903 2306 
Q 972 2216 1119 2156 
Q 1203 2125 1616 2013 
Q 2213 1853 2448 1751 
Q 2684 1650 2818 1456 
Q 2953 1263 2953 975 
Q 2953 694 2789 445 
Q 2625 197 2315 61 
Q 2006 -75 1616 -75 
Q 969 -75 630 194 
Q 291 463 197 991 
z
" id="ArialMT-73" transform="scale(0.015625)"/>
     </defs>
     <use xlink:href="#ArialMT-49"/>
     <use x="27.783203" xlink:href="#ArialMT-6e"/>
     <use x="83.398438" xlink:href="#ArialMT-74"/>
     <use x="111.181641" xlink:href="#ArialMT-65"/>
     <use x="166.796875" xlink:href="#ArialMT-72"/>
     <use x="200.097656" xlink:href="#ArialMT-6e"/>
     <use x="255.712891" xlink:href="#ArialMT-61"/>
     <use x="311.328125" xlink:href="#ArialMT-e7"/>
     <use x="361.328125" xlink:href="#ArialMT-f5"/>
     <use x="416.943359" xlink:href="#ArialMT-65"/>
     <use x="472.558594" xlink:href="#ArialMT-73"/>
    </g>
   </g>
   <g id="legend_1">
    <g id="patch_7">
     <path d="M 549.548437 58.08 
L 633.8 58.08 
Q 635.8 58.08 635.8 56.08 
L 635.8 28.789375 
Q 635.8 26.789375 633.8 26.789375 
L 549.548437 26.789375 
Q 547.548437 26.789375 547.548437 28.789375 
L 547.548437 56.08 
Q 547.548437 58.08 549.548437 58.08 
z
" style="fill:#ffffff;opacity:0.8;stroke:#cccccc;stroke-linejoin:miter;"/>
    </g>
    <g id="line2d_20">
     <path d="M 551.548437 34.447188 
L 571.548437 34.447188 
" style="fill:none;stroke:#1f77b4;stroke-linecap:round;stroke-width:1.5;"/>
    </g>
    <g id="line2d_21"/>
    <g id="text_19">
     <!-- Internações -->
     <g style="fill:#262626;" transform="translate(579.548437 37.947188)scale(0.1 -0.1)">
      <use xlink:href="#ArialMT-49"/>
      <use x="27.783203" xlink:href="#ArialMT-6e"/>
      <use x="83.398438" xlink:href="#ArialMT-74"/>
      <use x="111.181641" xlink:href="#ArialMT-65"/>
      <use x="166.796875" xlink:href="#ArialMT-72"/>
      <use x="200.097656" xlink:href="#ArialMT-6e"/>
      <use x="255.712891" xlink:href="#ArialMT-61"/>
      <use x="311.328125" xlink:href="#ArialMT-e7"/>
      <use x="361.328125" xlink:href="#ArialMT-f5"/>
      <use x="416.943359" xlink:href="#ArialMT-65"/>
      <use x="472.558594" xlink:href="#ArialMT-73"/>
     </g>
    </g>
    <g id="line2d_22">
     <path d="M 551.548437 48.5925 
L 571.548437 48.5925 
" style="fill:none;stroke:#ff7f0e;stroke-linecap:round;stroke-width:1.5;"/>
    </g>
    <g id="line2d_23"/>
    <g id="text_20">
     <!-- UTI -->
     <g style="fill:#262626;" transform="translate(579.548437 52.0925)scale(0.1 -0.1)">
      <defs>
       <path d="M 3500 4581 
L 4106 4581 
L 4106 1934 
Q 4106 1244 3950 837 
Q 3794 431 3386 176 
Q 2978 -78 2316 -78 
Q 1672 -78 1262 144 
Q 853 366 678 786 
Q 503 1206 503 1934 
L 503 4581 
L 1109 4581 
L 1109 1938 
Q 1109 1341 1220 1058 
Q 1331 775 1601 622 
Q 1872 469 2263 469 
Q 2931 469 3215 772 
Q 3500 1075 3500 1938 
L 3500 4581 
z
" id="ArialMT-55" transform="scale(0.015625)"/>
       <path d="M 1659 0 
L 1659 4041 
L 150 4041 
L 150 4581 
L 3781 4581 
L 3781 4041 
L 2266 4041 
L 2266 0 
L 1659 0 
z
" id="ArialMT-54" transform="scale(0.015625)"/>
      </defs>
      <use xlink:href="#ArialMT-55"/>
      <use x="72.216797" xlink:href="#ArialMT-54"/>
      <use x="133.300781" xlink:href="#ArialMT-49"/>
     </g>
    </g>
   </g>
  </g>
  <g id="text_21">
   <!-- Atualizado em 29/07/2021 -->
   <g style="fill:#262626;" transform="translate(7.2 331.389375)scale(0.08 -0.08)">
    <defs>
     <path d="M -9 0 
L 1750 4581 
L 2403 4581 
L 4278 0 
L 3588 0 
L 3053 1388 
L 1138 1388 
L 634 0 
L -9 0 
z
M 1313 1881 
L 2866 1881 
L 2388 3150 
Q 2169 3728 2063 4100 
Q 1975 3659 1816 3225 
L 1313 1881 
z
" id="ArialMT-41" transform="scale(0.015625)"/>
     <path d="M 2597 0 
L 2597 488 
Q 2209 -75 1544 -75 
Q 1250 -75 995 37 
Q 741 150 617 320 
Q 494 491 444 738 
Q 409 903 409 1263 
L 409 3319 
L 972 3319 
L 972 1478 
Q 972 1038 1006 884 
Q 1059 663 1231 536 
Q 1403 409 1656 409 
Q 1909 409 2131 539 
Q 2353 669 2445 892 
Q 2538 1116 2538 1541 
L 2538 3319 
L 3100 3319 
L 3100 0 
L 2597 0 
z
" id="ArialMT-75" transform="scale(0.015625)"/>
     <path d="M 409 0 
L 409 4581 
L 972 4581 
L 972 0 
L 409 0 
z
" id="ArialMT-6c" transform="scale(0.015625)"/>
     <path d="M 425 3934 
L 425 4581 
L 988 4581 
L 988 3934 
L 425 3934 
z
M 425 0 
L 425 3319 
L 988 3319 
L 988 0 
L 425 0 
z
" id="ArialMT-69" transform="scale(0.015625)"/>
     <path d="M 125 0 
L 125 456 
L 2238 2881 
Q 1878 2863 1603 2863 
L 250 2863 
L 250 3319 
L 2963 3319 
L 2963 2947 
L 1166 841 
L 819 456 
Q 1197 484 1528 484 
L 3063 484 
L 3063 0 
L 125 0 
z
" id="ArialMT-7a" transform="scale(0.015625)"/>
     <path d="M 2575 0 
L 2575 419 
Q 2259 -75 1647 -75 
Q 1250 -75 917 144 
Q 584 363 401 755 
Q 219 1147 219 1656 
Q 219 2153 384 2558 
Q 550 2963 881 3178 
Q 1213 3394 1622 3394 
Q 1922 3394 2156 3267 
Q 2391 3141 2538 2938 
L 2538 4581 
L 3097 4581 
L 3097 0 
L 2575 0 
z
M 797 1656 
Q 797 1019 1065 703 
Q 1334 388 1700 388 
Q 2069 388 2326 689 
Q 2584 991 2584 1609 
Q 2584 2291 2321 2609 
Q 2059 2928 1675 2928 
Q 1300 2928 1048 2622 
Q 797 2316 797 1656 
z
" id="ArialMT-64" transform="scale(0.015625)"/>
     <path d="M 213 1659 
Q 213 2581 725 3025 
Q 1153 3394 1769 3394 
Q 2453 3394 2887 2945 
Q 3322 2497 3322 1706 
Q 3322 1066 3130 698 
Q 2938 331 2570 128 
Q 2203 -75 1769 -75 
Q 1072 -75 642 372 
Q 213 819 213 1659 
z
M 791 1659 
Q 791 1022 1069 705 
Q 1347 388 1769 388 
Q 2188 388 2466 706 
Q 2744 1025 2744 1678 
Q 2744 2294 2464 2611 
Q 2184 2928 1769 2928 
Q 1347 2928 1069 2612 
Q 791 2297 791 1659 
z
" id="ArialMT-6f" transform="scale(0.015625)"/>
     <path id="ArialMT-20" transform="scale(0.015625)"/>
     <path d="M 422 0 
L 422 3319 
L 925 3319 
L 925 2853 
Q 1081 3097 1340 3245 
Q 1600 3394 1931 3394 
Q 2300 3394 2536 3241 
Q 2772 3088 2869 2813 
Q 3263 3394 3894 3394 
Q 4388 3394 4653 3120 
Q 4919 2847 4919 2278 
L 4919 0 
L 4359 0 
L 4359 2091 
Q 4359 2428 4304 2576 
Q 4250 2725 4106 2815 
Q 3963 2906 3769 2906 
Q 3419 2906 3187 2673 
Q 2956 2441 2956 1928 
L 2956 0 
L 2394 0 
L 2394 2156 
Q 2394 2531 2256 2718 
Q 2119 2906 1806 2906 
Q 1569 2906 1367 2781 
Q 1166 2656 1075 2415 
Q 984 2175 984 1722 
L 984 0 
L 422 0 
z
" id="ArialMT-6d" transform="scale(0.015625)"/>
     <path d="M 0 -78 
L 1328 4659 
L 1778 4659 
L 453 -78 
L 0 -78 
z
" id="ArialMT-2f" transform="scale(0.015625)"/>
    </defs>
    <use xlink:href="#ArialMT-41"/>
    <use x="66.699219" xlink:href="#ArialMT-74"/>
    <use x="94.482422" xlink:href="#ArialMT-75"/>
    <use x="150.097656" xlink:href="#ArialMT-61"/>
    <use x="205.712891" xlink:href="#ArialMT-6c"/>
    <use x="227.929688" xlink:href="#ArialMT-69"/>
    <use x="250.146484" xlink:href="#ArialMT-7a"/>
    <use x="300.146484" xlink:href="#ArialMT-61"/>
    <use x="355.761719" xlink:href="#ArialMT-64"/>
    <use x="411.376953" xlink:href="#ArialMT-6f"/>
    <use x="466.992188" xlink:href="#ArialMT-20"/>
    <use x="494.775391" xlink:href="#ArialMT-65"/>
    <use x="550.390625" xlink:href="#ArialMT-6d"/>
    <use x="633.691406" xlink:href="#ArialMT-20"/>
    <use x="661.474609" xlink:href="#ArialMT-32"/>
    <use x="717.089844" xlink:href="#ArialMT-39"/>
    <use x="772.705078" xlink:href="#ArialMT-2f"/>
    <use x="800.488281" xlink:href="#ArialMT-30"/>
    <use x="856.103516" xlink:href="#ArialMT-37"/>
    <use x="911.71875" xlink:href="#ArialMT-2f"/>
    <use x="939.501953" xlink:href="#ArialMT-32"/>
    <use x="995.117188" xlink:href="#ArialMT-30"/>
    <use x="1050.732422" xlink:href="#ArialMT-32"/>
    <use x="1106.347656" xlink:href="#ArialMT-31"/>
   </g>
  </g>
  <g id="text_22">
   <!-- https://jmsvaz.github.io/covidsantos/ -->
   <g style="fill:#262626;" transform="translate(570.345 331.389375)scale(0.08 -0.08)">
    <defs>
     <path d="M 422 0 
L 422 4581 
L 984 4581 
L 984 2938 
Q 1378 3394 1978 3394 
Q 2347 3394 2619 3248 
Q 2891 3103 3008 2847 
Q 3125 2591 3125 2103 
L 3125 0 
L 2563 0 
L 2563 2103 
Q 2563 2525 2380 2717 
Q 2197 2909 1863 2909 
Q 1613 2909 1392 2779 
Q 1172 2650 1078 2428 
Q 984 2206 984 1816 
L 984 0 
L 422 0 
z
" id="ArialMT-68" transform="scale(0.015625)"/>
     <path d="M 422 -1272 
L 422 3319 
L 934 3319 
L 934 2888 
Q 1116 3141 1344 3267 
Q 1572 3394 1897 3394 
Q 2322 3394 2647 3175 
Q 2972 2956 3137 2557 
Q 3303 2159 3303 1684 
Q 3303 1175 3120 767 
Q 2938 359 2589 142 
Q 2241 -75 1856 -75 
Q 1575 -75 1351 44 
Q 1128 163 984 344 
L 984 -1272 
L 422 -1272 
z
M 931 1641 
Q 931 1000 1190 694 
Q 1450 388 1819 388 
Q 2194 388 2461 705 
Q 2728 1022 2728 1688 
Q 2728 2322 2467 2637 
Q 2206 2953 1844 2953 
Q 1484 2953 1207 2617 
Q 931 2281 931 1641 
z
" id="ArialMT-70" transform="scale(0.015625)"/>
     <path d="M 578 2678 
L 578 3319 
L 1219 3319 
L 1219 2678 
L 578 2678 
z
M 578 0 
L 578 641 
L 1219 641 
L 1219 0 
L 578 0 
z
" id="ArialMT-3a" transform="scale(0.015625)"/>
     <path d="M 419 3928 
L 419 4581 
L 981 4581 
L 981 3928 
L 419 3928 
z
M -294 -1288 
L -188 -809 
Q -19 -853 78 -853 
Q 250 -853 334 -739 
Q 419 -625 419 -169 
L 419 3319 
L 981 3319 
L 981 -181 
Q 981 -794 822 -1034 
Q 619 -1347 147 -1347 
Q -81 -1347 -294 -1288 
z
" id="ArialMT-6a" transform="scale(0.015625)"/>
     <path d="M 1344 0 
L 81 3319 
L 675 3319 
L 1388 1331 
Q 1503 1009 1600 663 
Q 1675 925 1809 1294 
L 2547 3319 
L 3125 3319 
L 1869 0 
L 1344 0 
z
" id="ArialMT-76" transform="scale(0.015625)"/>
     <path d="M 581 0 
L 581 641 
L 1222 641 
L 1222 0 
L 581 0 
z
" id="ArialMT-2e" transform="scale(0.015625)"/>
     <path d="M 319 -275 
L 866 -356 
Q 900 -609 1056 -725 
Q 1266 -881 1628 -881 
Q 2019 -881 2231 -725 
Q 2444 -569 2519 -288 
Q 2563 -116 2559 434 
Q 2191 0 1641 0 
Q 956 0 581 494 
Q 206 988 206 1678 
Q 206 2153 378 2554 
Q 550 2956 876 3175 
Q 1203 3394 1644 3394 
Q 2231 3394 2613 2919 
L 2613 3319 
L 3131 3319 
L 3131 450 
Q 3131 -325 2973 -648 
Q 2816 -972 2473 -1159 
Q 2131 -1347 1631 -1347 
Q 1038 -1347 672 -1080 
Q 306 -813 319 -275 
z
M 784 1719 
Q 784 1066 1043 766 
Q 1303 466 1694 466 
Q 2081 466 2343 764 
Q 2606 1063 2606 1700 
Q 2606 2309 2336 2618 
Q 2066 2928 1684 2928 
Q 1309 2928 1046 2623 
Q 784 2319 784 1719 
z
" id="ArialMT-67" transform="scale(0.015625)"/>
     <path d="M 941 0 
L 419 0 
L 419 4581 
L 981 4581 
L 981 2947 
Q 1338 3394 1891 3394 
Q 2197 3394 2470 3270 
Q 2744 3147 2920 2923 
Q 3097 2700 3197 2384 
Q 3297 2069 3297 1709 
Q 3297 856 2875 390 
Q 2453 -75 1863 -75 
Q 1275 -75 941 416 
L 941 0 
z
M 934 1684 
Q 934 1088 1097 822 
Q 1363 388 1816 388 
Q 2184 388 2453 708 
Q 2722 1028 2722 1663 
Q 2722 2313 2464 2622 
Q 2206 2931 1841 2931 
Q 1472 2931 1203 2611 
Q 934 2291 934 1684 
z
" id="ArialMT-62" transform="scale(0.015625)"/>
     <path d="M 2588 1216 
L 3141 1144 
Q 3050 572 2676 248 
Q 2303 -75 1759 -75 
Q 1078 -75 664 370 
Q 250 816 250 1647 
Q 250 2184 428 2587 
Q 606 2991 970 3192 
Q 1334 3394 1763 3394 
Q 2303 3394 2647 3120 
Q 2991 2847 3088 2344 
L 2541 2259 
Q 2463 2594 2264 2762 
Q 2066 2931 1784 2931 
Q 1359 2931 1093 2626 
Q 828 2322 828 1663 
Q 828 994 1084 691 
Q 1341 388 1753 388 
Q 2084 388 2306 591 
Q 2528 794 2588 1216 
z
" id="ArialMT-63" transform="scale(0.015625)"/>
    </defs>
    <use xlink:href="#ArialMT-68"/>
    <use x="55.615234" xlink:href="#ArialMT-74"/>
    <use x="83.398438" xlink:href="#ArialMT-74"/>
    <use x="111.181641" xlink:href="#ArialMT-70"/>
    <use x="166.796875" xlink:href="#ArialMT-73"/>
    <use x="216.796875" xlink:href="#ArialMT-3a"/>
    <use x="244.580078" xlink:href="#ArialMT-2f"/>
    <use x="272.363281" xlink:href="#ArialMT-2f"/>
    <use x="300.146484" xlink:href="#ArialMT-6a"/>
    <use x="322.363281" xlink:href="#ArialMT-6d"/>
    <use x="405.664062" xlink:href="#ArialMT-73"/>
    <use x="455.664062" xlink:href="#ArialMT-76"/>
    <use x="505.664062" xlink:href="#ArialMT-61"/>
    <use x="561.279297" xlink:href="#ArialMT-7a"/>
    <use x="611.279297" xlink:href="#ArialMT-2e"/>
    <use x="639.0625" xlink:href="#ArialMT-67"/>
    <use x="694.677734" xlink:href="#ArialMT-69"/>
    <use x="716.894531" xlink:href="#ArialMT-74"/>
    <use x="744.677734" xlink:href="#ArialMT-68"/>
    <use x="800.292969" xlink:href="#ArialMT-75"/>
    <use x="855.908203" xlink:href="#ArialMT-62"/>
    <use x="911.523438" xlink:href="#ArialMT-2e"/>
    <use x="939.306641" xlink:href="#ArialMT-69"/>
    <use x="961.523438" xlink:href="#ArialMT-6f"/>
    <use x="1017.138672" xlink:href="#ArialMT-2f"/>
    <use x="1044.921875" xlink:href="#ArialMT-63"/>
    <use x="1094.921875" xlink:href="#ArialMT-6f"/>
    <use x="1150.537109" xlink:href="#ArialMT-76"/>
    <use x="1200.537109" xlink:href="#ArialMT-69"/>
    <use x="1222.753906" xlink:href="#ArialMT-64"/>
    <use x="1278.369141" xlink:href="#ArialMT-73"/>
    <use x="1328.369141" xlink:href="#ArialMT-61"/>
    <use x="1383.984375" xlink:href="#ArialMT-6e"/>
    <use x="1439.599609" xlink:href="#ArialMT-74"/>
    <use x="1467.382812" xlink:href="#ArialMT-6f"/>
    <use x="1522.998047" xlink:href="#ArialMT-73"/>
    <use x="1572.998047" xlink:href="#ArialMT-2f"/>
   </g>
  </g>
 </g>
 <defs>
  <clipPath id="pfe501df0e5">
   <rect height="277.2" width="558" x="82.8" y="21.789375"/>
  </clipPath>
 </defs>
</svg>
