<?xml version="1.0" encoding="utf-8" standalone="no"?>
<!DOCTYPE svg PUBLIC "-//W3C//DTD SVG 1.1//EN"
  "http://www.w3.org/Graphics/SVG/1.1/DTD/svg11.dtd">
<svg height="322.334688pt" version="1.1" viewBox="0 0 608.428387 322.334688" width="608.428387pt" xmlns="http://www.w3.org/2000/svg" xmlns:xlink="http://www.w3.org/1999/xlink">
 <metadata>
  <rdf:RDF xmlns:cc="http://creativecommons.org/ns#" xmlns:dc="http://purl.org/dc/elements/1.1/" xmlns:rdf="http://www.w3.org/1999/02/22-rdf-syntax-ns#">
   <cc:Work>
    <dc:type rdf:resource="http://purl.org/dc/dcmitype/StillImage"/>
    <dc:date>2021-04-17T19:02:20.138096</dc:date>
    <dc:format>image/svg+xml</dc:format>
    <dc:creator>
     <cc:Agent>
      <dc:title>Matplotlib v3.4.1, https://matplotlib.org/</dc:title>
     </cc:Agent>
    </dc:creator>
   </cc:Work>
  </rdf:RDF>
 </metadata>
 <defs>
  <style type="text/css">*{stroke-linecap:butt;stroke-linejoin:round;}</style>
 </defs>
 <g id="figure_1">
  <g id="patch_1">
   <path d="M 0 322.334688 
L 608.428387 322.334688 
L 608.428387 0 
L 0 0 
z
" style="fill:#ffffff;"/>
  </g>
  <g id="axes_1">
   <g id="patch_2">
    <path d="M 30.882812 298.989375 
L 588.882812 298.989375 
L 588.882812 21.789375 
L 30.882812 21.789375 
z
" style="fill:#ffffff;"/>
   </g>
   <g id="matplotlib.axis_1">
    <g id="xtick_1">
     <g id="line2d_1">
      <path clip-path="url(#p61d98871b4)" d="M 33.012583 298.989375 
L 33.012583 21.789375 
" style="fill:none;stroke:#cccccc;stroke-linecap:round;stroke-width:0.8;"/>
     </g>
     <g id="text_1">
      <!-- 2020-03 -->
      <g style="fill:#262626;" transform="translate(14.664927 313.147188)scale(0.1 -0.1)">
       <defs>
        <path d="M 3222 541 
L 3222 0 
L 194 0 
Q 188 203 259 391 
Q 375 700 629 1000 
Q 884 1300 1366 1694 
Q 2113 2306 2375 2664 
Q 2638 3022 2638 3341 
Q 2638 3675 2398 3904 
Q 2159 4134 1775 4134 
Q 1369 4134 1125 3890 
Q 881 3647 878 3216 
L 300 3275 
Q 359 3922 746 4261 
Q 1134 4600 1788 4600 
Q 2447 4600 2831 4234 
Q 3216 3869 3216 3328 
Q 3216 3053 3103 2787 
Q 2991 2522 2730 2228 
Q 2469 1934 1863 1422 
Q 1356 997 1212 845 
Q 1069 694 975 541 
L 3222 541 
z
" id="ArialMT-32" transform="scale(0.015625)"/>
        <path d="M 266 2259 
Q 266 3072 433 3567 
Q 600 4063 929 4331 
Q 1259 4600 1759 4600 
Q 2128 4600 2406 4451 
Q 2684 4303 2865 4023 
Q 3047 3744 3150 3342 
Q 3253 2941 3253 2259 
Q 3253 1453 3087 958 
Q 2922 463 2592 192 
Q 2263 -78 1759 -78 
Q 1097 -78 719 397 
Q 266 969 266 2259 
z
M 844 2259 
Q 844 1131 1108 757 
Q 1372 384 1759 384 
Q 2147 384 2411 759 
Q 2675 1134 2675 2259 
Q 2675 3391 2411 3762 
Q 2147 4134 1753 4134 
Q 1366 4134 1134 3806 
Q 844 3388 844 2259 
z
" id="ArialMT-30" transform="scale(0.015625)"/>
        <path d="M 203 1375 
L 203 1941 
L 1931 1941 
L 1931 1375 
L 203 1375 
z
" id="ArialMT-2d" transform="scale(0.015625)"/>
        <path d="M 269 1209 
L 831 1284 
Q 928 806 1161 595 
Q 1394 384 1728 384 
Q 2125 384 2398 659 
Q 2672 934 2672 1341 
Q 2672 1728 2419 1979 
Q 2166 2231 1775 2231 
Q 1616 2231 1378 2169 
L 1441 2663 
Q 1497 2656 1531 2656 
Q 1891 2656 2178 2843 
Q 2466 3031 2466 3422 
Q 2466 3731 2256 3934 
Q 2047 4138 1716 4138 
Q 1388 4138 1169 3931 
Q 950 3725 888 3313 
L 325 3413 
Q 428 3978 793 4289 
Q 1159 4600 1703 4600 
Q 2078 4600 2393 4439 
Q 2709 4278 2876 4000 
Q 3044 3722 3044 3409 
Q 3044 3113 2884 2869 
Q 2725 2625 2413 2481 
Q 2819 2388 3044 2092 
Q 3269 1797 3269 1353 
Q 3269 753 2831 336 
Q 2394 -81 1725 -81 
Q 1122 -81 723 278 
Q 325 638 269 1209 
z
" id="ArialMT-33" transform="scale(0.015625)"/>
       </defs>
       <use xlink:href="#ArialMT-32"/>
       <use x="55.615234" xlink:href="#ArialMT-30"/>
       <use x="111.230469" xlink:href="#ArialMT-32"/>
       <use x="166.845703" xlink:href="#ArialMT-30"/>
       <use x="222.460938" xlink:href="#ArialMT-2d"/>
       <use x="255.761719" xlink:href="#ArialMT-30"/>
       <use x="311.376953" xlink:href="#ArialMT-33"/>
      </g>
     </g>
    </g>
    <g id="xtick_2">
     <g id="line2d_2">
      <path clip-path="url(#p61d98871b4)" d="M 111.749572 298.989375 
L 111.749572 21.789375 
" style="fill:none;stroke:#cccccc;stroke-linecap:round;stroke-width:0.8;"/>
     </g>
     <g id="text_2">
      <!-- 2020-05 -->
      <g style="fill:#262626;" transform="translate(93.401915 313.147188)scale(0.1 -0.1)">
       <defs>
        <path d="M 266 1200 
L 856 1250 
Q 922 819 1161 601 
Q 1400 384 1738 384 
Q 2144 384 2425 690 
Q 2706 997 2706 1503 
Q 2706 1984 2436 2262 
Q 2166 2541 1728 2541 
Q 1456 2541 1237 2417 
Q 1019 2294 894 2097 
L 366 2166 
L 809 4519 
L 3088 4519 
L 3088 3981 
L 1259 3981 
L 1013 2750 
Q 1425 3038 1878 3038 
Q 2478 3038 2890 2622 
Q 3303 2206 3303 1553 
Q 3303 931 2941 478 
Q 2500 -78 1738 -78 
Q 1113 -78 717 272 
Q 322 622 266 1200 
z
" id="ArialMT-35" transform="scale(0.015625)"/>
       </defs>
       <use xlink:href="#ArialMT-32"/>
       <use x="55.615234" xlink:href="#ArialMT-30"/>
       <use x="111.230469" xlink:href="#ArialMT-32"/>
       <use x="166.845703" xlink:href="#ArialMT-30"/>
       <use x="222.460938" xlink:href="#ArialMT-2d"/>
       <use x="255.761719" xlink:href="#ArialMT-30"/>
       <use x="311.376953" xlink:href="#ArialMT-35"/>
      </g>
     </g>
    </g>
    <g id="xtick_3">
     <g id="line2d_3">
      <path clip-path="url(#p61d98871b4)" d="M 190.48656 298.989375 
L 190.48656 21.789375 
" style="fill:none;stroke:#cccccc;stroke-linecap:round;stroke-width:0.8;"/>
     </g>
     <g id="text_3">
      <!-- 2020-07 -->
      <g style="fill:#262626;" transform="translate(172.138904 313.147188)scale(0.1 -0.1)">
       <defs>
        <path d="M 303 3981 
L 303 4522 
L 3269 4522 
L 3269 4084 
Q 2831 3619 2401 2847 
Q 1972 2075 1738 1259 
Q 1569 684 1522 0 
L 944 0 
Q 953 541 1156 1306 
Q 1359 2072 1739 2783 
Q 2119 3494 2547 3981 
L 303 3981 
z
" id="ArialMT-37" transform="scale(0.015625)"/>
       </defs>
       <use xlink:href="#ArialMT-32"/>
       <use x="55.615234" xlink:href="#ArialMT-30"/>
       <use x="111.230469" xlink:href="#ArialMT-32"/>
       <use x="166.845703" xlink:href="#ArialMT-30"/>
       <use x="222.460938" xlink:href="#ArialMT-2d"/>
       <use x="255.761719" xlink:href="#ArialMT-30"/>
       <use x="311.376953" xlink:href="#ArialMT-37"/>
      </g>
     </g>
    </g>
    <g id="xtick_4">
     <g id="line2d_4">
      <path clip-path="url(#p61d98871b4)" d="M 270.514318 298.989375 
L 270.514318 21.789375 
" style="fill:none;stroke:#cccccc;stroke-linecap:round;stroke-width:0.8;"/>
     </g>
     <g id="text_4">
      <!-- 2020-09 -->
      <g style="fill:#262626;" transform="translate(252.166662 313.147188)scale(0.1 -0.1)">
       <defs>
        <path d="M 350 1059 
L 891 1109 
Q 959 728 1153 556 
Q 1347 384 1650 384 
Q 1909 384 2104 503 
Q 2300 622 2425 820 
Q 2550 1019 2634 1356 
Q 2719 1694 2719 2044 
Q 2719 2081 2716 2156 
Q 2547 1888 2255 1720 
Q 1963 1553 1622 1553 
Q 1053 1553 659 1965 
Q 266 2378 266 3053 
Q 266 3750 677 4175 
Q 1088 4600 1706 4600 
Q 2153 4600 2523 4359 
Q 2894 4119 3086 3673 
Q 3278 3228 3278 2384 
Q 3278 1506 3087 986 
Q 2897 466 2520 194 
Q 2144 -78 1638 -78 
Q 1100 -78 759 220 
Q 419 519 350 1059 
z
M 2653 3081 
Q 2653 3566 2395 3850 
Q 2138 4134 1775 4134 
Q 1400 4134 1122 3828 
Q 844 3522 844 3034 
Q 844 2597 1108 2323 
Q 1372 2050 1759 2050 
Q 2150 2050 2401 2323 
Q 2653 2597 2653 3081 
z
" id="ArialMT-39" transform="scale(0.015625)"/>
       </defs>
       <use xlink:href="#ArialMT-32"/>
       <use x="55.615234" xlink:href="#ArialMT-30"/>
       <use x="111.230469" xlink:href="#ArialMT-32"/>
       <use x="166.845703" xlink:href="#ArialMT-30"/>
       <use x="222.460938" xlink:href="#ArialMT-2d"/>
       <use x="255.761719" xlink:href="#ArialMT-30"/>
       <use x="311.376953" xlink:href="#ArialMT-39"/>
      </g>
     </g>
    </g>
    <g id="xtick_5">
     <g id="line2d_5">
      <path clip-path="url(#p61d98871b4)" d="M 349.251307 298.989375 
L 349.251307 21.789375 
" style="fill:none;stroke:#cccccc;stroke-linecap:round;stroke-width:0.8;"/>
     </g>
     <g id="text_5">
      <!-- 2020-11 -->
      <g style="fill:#262626;" transform="translate(331.2724 313.147188)scale(0.1 -0.1)">
       <defs>
        <path d="M 2384 0 
L 1822 0 
L 1822 3584 
Q 1619 3391 1289 3197 
Q 959 3003 697 2906 
L 697 3450 
Q 1169 3672 1522 3987 
Q 1875 4303 2022 4600 
L 2384 4600 
L 2384 0 
z
" id="ArialMT-31" transform="scale(0.015625)"/>
       </defs>
       <use xlink:href="#ArialMT-32"/>
       <use x="55.615234" xlink:href="#ArialMT-30"/>
       <use x="111.230469" xlink:href="#ArialMT-32"/>
       <use x="166.845703" xlink:href="#ArialMT-30"/>
       <use x="222.460938" xlink:href="#ArialMT-2d"/>
       <use x="255.761719" xlink:href="#ArialMT-31"/>
       <use x="304.001953" xlink:href="#ArialMT-31"/>
      </g>
     </g>
    </g>
    <g id="xtick_6">
     <g id="line2d_6">
      <path clip-path="url(#p61d98871b4)" d="M 427.988295 298.989375 
L 427.988295 21.789375 
" style="fill:none;stroke:#cccccc;stroke-linecap:round;stroke-width:0.8;"/>
     </g>
     <g id="text_6">
      <!-- 2021-01 -->
      <g style="fill:#262626;" transform="translate(409.640639 313.147188)scale(0.1 -0.1)">
       <use xlink:href="#ArialMT-32"/>
       <use x="55.615234" xlink:href="#ArialMT-30"/>
       <use x="111.230469" xlink:href="#ArialMT-32"/>
       <use x="166.845703" xlink:href="#ArialMT-31"/>
       <use x="222.460938" xlink:href="#ArialMT-2d"/>
       <use x="255.761719" xlink:href="#ArialMT-30"/>
       <use x="311.376953" xlink:href="#ArialMT-31"/>
      </g>
     </g>
    </g>
    <g id="xtick_7">
     <g id="line2d_7">
      <path clip-path="url(#p61d98871b4)" d="M 504.143742 298.989375 
L 504.143742 21.789375 
" style="fill:none;stroke:#cccccc;stroke-linecap:round;stroke-width:0.8;"/>
     </g>
     <g id="text_7">
      <!-- 2021-03 -->
      <g style="fill:#262626;" transform="translate(485.796086 313.147188)scale(0.1 -0.1)">
       <use xlink:href="#ArialMT-32"/>
       <use x="55.615234" xlink:href="#ArialMT-30"/>
       <use x="111.230469" xlink:href="#ArialMT-32"/>
       <use x="166.845703" xlink:href="#ArialMT-31"/>
       <use x="222.460938" xlink:href="#ArialMT-2d"/>
       <use x="255.761719" xlink:href="#ArialMT-30"/>
       <use x="311.376953" xlink:href="#ArialMT-33"/>
      </g>
     </g>
    </g>
    <g id="xtick_8">
     <g id="line2d_8">
      <path clip-path="url(#p61d98871b4)" d="M 582.880731 298.989375 
L 582.880731 21.789375 
" style="fill:none;stroke:#cccccc;stroke-linecap:round;stroke-width:0.8;"/>
     </g>
     <g id="text_8">
      <!-- 2021-05 -->
      <g style="fill:#262626;" transform="translate(564.533074 313.147188)scale(0.1 -0.1)">
       <use xlink:href="#ArialMT-32"/>
       <use x="55.615234" xlink:href="#ArialMT-30"/>
       <use x="111.230469" xlink:href="#ArialMT-32"/>
       <use x="166.845703" xlink:href="#ArialMT-31"/>
       <use x="222.460938" xlink:href="#ArialMT-2d"/>
       <use x="255.761719" xlink:href="#ArialMT-30"/>
       <use x="311.376953" xlink:href="#ArialMT-35"/>
      </g>
     </g>
    </g>
   </g>
   <g id="matplotlib.axis_2">
    <g id="ytick_1">
     <g id="line2d_9">
      <path clip-path="url(#p61d98871b4)" d="M 30.882812 286.389375 
L 588.882812 286.389375 
" style="fill:none;stroke:#cccccc;stroke-linecap:round;stroke-width:0.8;"/>
     </g>
     <g id="text_9">
      <!-- 0 -->
      <g style="fill:#262626;" transform="translate(18.321875 289.968281)scale(0.1 -0.1)">
       <use xlink:href="#ArialMT-30"/>
      </g>
     </g>
    </g>
    <g id="ytick_2">
     <g id="line2d_10">
      <path clip-path="url(#p61d98871b4)" d="M 30.882812 248.664824 
L 588.882812 248.664824 
" style="fill:none;stroke:#cccccc;stroke-linecap:round;stroke-width:0.8;"/>
     </g>
     <g id="text_10">
      <!-- 50 -->
      <g style="fill:#262626;" transform="translate(12.760937 252.24373)scale(0.1 -0.1)">
       <use xlink:href="#ArialMT-35"/>
       <use x="55.615234" xlink:href="#ArialMT-30"/>
      </g>
     </g>
    </g>
    <g id="ytick_3">
     <g id="line2d_11">
      <path clip-path="url(#p61d98871b4)" d="M 30.882812 210.940273 
L 588.882812 210.940273 
" style="fill:none;stroke:#cccccc;stroke-linecap:round;stroke-width:0.8;"/>
     </g>
     <g id="text_11">
      <!-- 100 -->
      <g style="fill:#262626;" transform="translate(7.2 214.519179)scale(0.1 -0.1)">
       <use xlink:href="#ArialMT-31"/>
       <use x="55.615234" xlink:href="#ArialMT-30"/>
       <use x="111.230469" xlink:href="#ArialMT-30"/>
      </g>
     </g>
    </g>
    <g id="ytick_4">
     <g id="line2d_12">
      <path clip-path="url(#p61d98871b4)" d="M 30.882812 173.215722 
L 588.882812 173.215722 
" style="fill:none;stroke:#cccccc;stroke-linecap:round;stroke-width:0.8;"/>
     </g>
     <g id="text_12">
      <!-- 150 -->
      <g style="fill:#262626;" transform="translate(7.2 176.794629)scale(0.1 -0.1)">
       <use xlink:href="#ArialMT-31"/>
       <use x="55.615234" xlink:href="#ArialMT-35"/>
       <use x="111.230469" xlink:href="#ArialMT-30"/>
      </g>
     </g>
    </g>
    <g id="ytick_5">
     <g id="line2d_13">
      <path clip-path="url(#p61d98871b4)" d="M 30.882812 135.491171 
L 588.882812 135.491171 
" style="fill:none;stroke:#cccccc;stroke-linecap:round;stroke-width:0.8;"/>
     </g>
     <g id="text_13">
      <!-- 200 -->
      <g style="fill:#262626;" transform="translate(7.2 139.070078)scale(0.1 -0.1)">
       <use xlink:href="#ArialMT-32"/>
       <use x="55.615234" xlink:href="#ArialMT-30"/>
       <use x="111.230469" xlink:href="#ArialMT-30"/>
      </g>
     </g>
    </g>
    <g id="ytick_6">
     <g id="line2d_14">
      <path clip-path="url(#p61d98871b4)" d="M 30.882812 97.766621 
L 588.882812 97.766621 
" style="fill:none;stroke:#cccccc;stroke-linecap:round;stroke-width:0.8;"/>
     </g>
     <g id="text_14">
      <!-- 250 -->
      <g style="fill:#262626;" transform="translate(7.2 101.345527)scale(0.1 -0.1)">
       <use xlink:href="#ArialMT-32"/>
       <use x="55.615234" xlink:href="#ArialMT-35"/>
       <use x="111.230469" xlink:href="#ArialMT-30"/>
      </g>
     </g>
    </g>
    <g id="ytick_7">
     <g id="line2d_15">
      <path clip-path="url(#p61d98871b4)" d="M 30.882812 60.04207 
L 588.882812 60.04207 
" style="fill:none;stroke:#cccccc;stroke-linecap:round;stroke-width:0.8;"/>
     </g>
     <g id="text_15">
      <!-- 300 -->
      <g style="fill:#262626;" transform="translate(7.2 63.620976)scale(0.1 -0.1)">
       <use xlink:href="#ArialMT-33"/>
       <use x="55.615234" xlink:href="#ArialMT-30"/>
       <use x="111.230469" xlink:href="#ArialMT-30"/>
      </g>
     </g>
    </g>
    <g id="ytick_8">
     <g id="line2d_16">
      <path clip-path="url(#p61d98871b4)" d="M 30.882812 22.317519 
L 588.882812 22.317519 
" style="fill:none;stroke:#cccccc;stroke-linecap:round;stroke-width:0.8;"/>
     </g>
     <g id="text_16">
      <!-- 350 -->
      <g style="fill:#262626;" transform="translate(7.2 25.896425)scale(0.1 -0.1)">
       <use xlink:href="#ArialMT-33"/>
       <use x="55.615234" xlink:href="#ArialMT-35"/>
       <use x="111.230469" xlink:href="#ArialMT-30"/>
      </g>
     </g>
    </g>
   </g>
   <g id="line2d_17">
    <path clip-path="url(#p61d98871b4)" d="M 56.246449 278.089974 
L 57.537219 278.089974 
L 58.827989 276.580992 
L 60.11876 276.580992 
L 61.40953 269.036082 
L 62.7003 255.455243 
L 63.991071 254.700752 
L 65.281841 251.682788 
L 66.572611 247.155842 
L 67.863382 246.401351 
L 69.154152 246.401351 
L 70.444922 245.64686 
L 71.735692 242.628896 
L 73.026463 226.030094 
L 74.317233 224.521112 
L 75.608003 224.521112 
L 76.898774 201.886381 
L 78.189544 200.377399 
L 79.480314 213.958237 
L 80.771085 210.185782 
L 82.061855 204.149854 
L 83.352625 202.640872 
L 84.643395 199.622908 
L 85.934166 199.622908 
L 87.224936 198.113926 
L 88.515706 186.796561 
L 89.806477 185.287579 
L 91.097247 189.060034 
L 92.388017 176.233686 
L 93.678788 173.215722 
L 94.969558 170.952249 
L 96.260328 167.179794 
L 97.551098 176.988177 
L 98.841869 176.988177 
L 100.132639 173.970213 
L 101.423409 167.934285 
L 102.71418 142.281591 
L 104.00495 140.772609 
L 105.29572 176.233686 
L 106.586491 178.497159 
L 107.877261 181.515124 
L 109.168031 176.233686 
L 110.458801 181.515124 
L 111.749572 173.215722 
L 113.040342 168.688776 
L 114.331112 169.443267 
L 115.621883 167.179794 
L 116.912653 161.143866 
L 118.203423 158.125902 
L 119.494193 162.652848 
L 120.784964 165.670812 
L 122.075734 161.143866 
L 123.366504 158.125902 
L 124.657275 161.898357 
L 125.948045 146.054046 
L 127.238815 152.844465 
L 128.529586 149.826501 
L 129.820356 146.054046 
L 131.111126 152.089974 
L 132.401896 140.772609 
L 133.692667 139.263626 
L 134.983437 141.5271 
L 136.274207 133.982189 
L 137.564978 137.000153 
L 138.855748 139.263626 
L 140.146518 140.772609 
L 141.437289 138.509135 
L 142.728059 137.754644 
L 144.018829 133.227698 
L 145.309599 134.73668 
L 146.60037 135.491171 
L 147.89114 123.419315 
L 149.18191 122.664824 
L 150.472681 124.173806 
L 151.763451 129.455243 
L 153.054221 129.455243 
L 154.344992 128.700752 
L 155.635762 127.19177 
L 156.926532 122.664824 
L 158.217302 122.664824 
L 159.508073 110.592968 
L 160.798843 115.874405 
L 162.089613 109.083986 
L 163.380384 114.365423 
L 164.671154 106.820513 
L 165.961924 109.838477 
L 167.252695 103.802549 
L 168.543465 112.856441 
L 169.834235 120.401351 
L 171.125005 122.664824 
L 172.415776 126.437279 
L 173.706546 130.964225 
L 174.997316 127.946261 
L 176.288087 122.664824 
L 177.578857 121.910333 
L 178.869627 118.892369 
L 180.160398 123.419315 
L 181.451168 135.491171 
L 182.741938 137.000153 
L 184.032708 131.718716 
L 185.323479 134.73668 
L 186.614249 141.5271 
L 187.905019 144.545064 
L 189.19579 150.580992 
L 190.48656 150.580992 
L 191.77733 156.61692 
L 193.0681 149.07201 
L 194.358871 152.844465 
L 195.649641 154.353447 
L 196.940411 157.371411 
L 198.231182 148.317519 
L 199.521952 164.916321 
L 200.812722 162.652848 
L 202.103493 161.898357 
L 203.394263 166.425303 
L 204.685033 171.70674 
L 205.975803 170.197758 
L 207.266574 149.826501 
L 208.557344 161.898357 
L 209.848114 153.598956 
L 211.138885 148.317519 
L 212.429655 156.61692 
L 213.720425 154.353447 
L 216.301966 158.880393 
L 217.592736 154.353447 
L 218.883506 157.371411 
L 220.174277 152.844465 
L 221.465047 154.353447 
L 224.046588 158.880393 
L 225.337358 163.407339 
L 226.628128 170.952249 
L 227.918899 173.215722 
L 229.209669 173.970213 
L 230.500439 177.742668 
L 231.791209 180.006141 
L 233.08198 177.742668 
L 234.37275 184.533088 
L 235.66352 188.305543 
L 236.954291 196.604944 
L 238.245061 194.341471 
L 239.535831 195.850453 
L 240.826602 208.6768 
L 242.117372 203.395363 
L 243.408142 207.167818 
L 244.698912 211.694764 
L 245.989683 208.6768 
L 247.280453 207.922309 
L 248.571223 204.904345 
L 249.861994 203.395363 
L 251.152764 202.640872 
L 252.443534 189.814525 
L 253.734305 198.113926 
L 256.315845 207.167818 
L 257.606615 204.904345 
L 258.897386 214.712728 
L 260.188156 215.467219 
L 261.478926 213.203746 
L 262.769697 215.467219 
L 264.060467 219.239674 
L 265.351237 213.203746 
L 266.642008 221.503147 
L 267.932778 207.167818 
L 269.223548 197.359435 
L 270.514318 195.850453 
L 271.805089 199.622908 
L 273.095859 201.13189 
L 274.386629 201.13189 
L 275.6774 203.395363 
L 276.96817 203.395363 
L 278.25894 211.694764 
L 279.54971 210.185782 
L 280.840481 200.377399 
L 282.131251 203.395363 
L 283.422021 200.377399 
L 284.712792 199.622908 
L 286.003562 200.377399 
L 287.294332 203.395363 
L 289.875873 212.449255 
L 291.166643 213.203746 
L 292.457413 210.940273 
L 293.748184 209.431291 
L 296.329724 210.940273 
L 297.620495 217.730692 
L 298.911265 217.730692 
L 300.202035 231.311531 
L 301.492806 229.048058 
L 302.783576 227.539076 
L 304.074346 223.012129 
L 305.365116 221.503147 
L 306.655887 222.257638 
L 307.946657 219.239674 
L 309.237427 223.012129 
L 310.528198 222.257638 
L 311.818968 217.730692 
L 313.109738 219.239674 
L 314.400509 219.994165 
L 315.691279 214.712728 
L 316.982049 210.940273 
L 318.272819 213.203746 
L 319.56359 210.185782 
L 320.85436 212.449255 
L 322.14513 209.431291 
L 323.435901 214.712728 
L 324.726671 215.467219 
L 326.017441 214.712728 
L 327.308212 212.449255 
L 328.598982 213.958237 
L 329.889752 216.976201 
L 331.180522 216.22171 
L 332.471293 216.22171 
L 333.762063 213.203746 
L 335.052833 207.167818 
L 336.343604 204.904345 
L 337.634374 205.658836 
L 338.925144 207.922309 
L 340.215915 204.149854 
L 341.506685 204.149854 
L 342.797455 201.886381 
L 344.088225 195.095962 
L 345.378996 196.604944 
L 346.669766 193.58698 
L 347.960536 193.58698 
L 349.251307 190.569016 
L 350.542077 186.796561 
L 351.832847 180.760632 
L 353.123617 189.060034 
L 354.414388 194.341471 
L 355.705158 189.060034 
L 356.995928 183.024106 
L 358.286699 186.04207 
L 359.577469 179.25165 
L 360.868239 174.724704 
L 362.15901 164.916321 
L 363.44978 166.425303 
L 364.74055 169.443267 
L 366.03132 173.970213 
L 367.322091 173.215722 
L 368.612861 168.688776 
L 369.903631 169.443267 
L 371.194402 153.598956 
L 372.485172 149.826501 
L 373.775942 152.089974 
L 375.066713 138.509135 
L 376.357483 139.263626 
L 377.648253 143.790573 
L 378.939023 137.754644 
L 380.229794 132.473207 
L 381.520564 132.473207 
L 382.811334 134.73668 
L 384.102105 127.946261 
L 385.392875 138.509135 
L 386.683645 142.281591 
L 387.974416 147.563028 
L 389.265186 140.018118 
L 390.555956 141.5271 
L 391.846726 149.07201 
L 393.137497 145.299555 
L 394.428267 155.862429 
L 395.719037 164.916321 
L 397.009808 155.862429 
L 398.300578 142.281591 
L 399.591348 154.353447 
L 400.882119 150.580992 
L 402.172889 149.07201 
L 403.463659 155.862429 
L 407.33597 171.70674 
L 408.62674 170.197758 
L 409.917511 169.443267 
L 411.208281 174.724704 
L 412.499051 178.497159 
L 413.789822 173.970213 
L 415.080592 170.952249 
L 416.371362 170.952249 
L 417.662132 175.479195 
L 418.952903 182.269615 
L 420.243673 184.533088 
L 421.534443 178.497159 
L 422.825214 177.742668 
L 424.115984 173.215722 
L 425.406754 175.479195 
L 426.697525 173.970213 
L 427.988295 183.778597 
L 429.279065 180.760632 
L 430.569835 187.551052 
L 431.860606 197.359435 
L 433.151376 195.850453 
L 434.442146 195.095962 
L 435.732917 196.604944 
L 437.023687 192.832489 
L 439.605227 194.341471 
L 440.895998 184.533088 
L 442.186768 187.551052 
L 443.477538 179.25165 
L 444.768309 180.006141 
L 446.059079 176.233686 
L 448.64062 185.287579 
L 449.93139 178.497159 
L 451.22216 181.515124 
L 452.51293 187.551052 
L 453.803701 195.850453 
L 455.094471 189.060034 
L 456.385241 192.832489 
L 457.676012 189.814525 
L 458.966782 199.622908 
L 460.257552 204.149854 
L 461.548323 195.095962 
L 462.839093 201.13189 
L 464.129863 196.604944 
L 465.420633 201.886381 
L 466.711404 204.149854 
L 468.002174 195.095962 
L 469.292944 194.341471 
L 470.583715 191.323507 
L 471.874485 196.604944 
L 473.165255 195.850453 
L 474.456026 196.604944 
L 475.746796 200.377399 
L 477.037566 203.395363 
L 478.328336 210.185782 
L 479.619107 210.940273 
L 480.909877 209.431291 
L 482.200647 206.413327 
L 483.491418 216.976201 
L 484.782188 216.22171 
L 486.072958 206.413327 
L 487.363729 203.395363 
L 488.654499 214.712728 
L 489.945269 214.712728 
L 491.236039 211.694764 
L 492.52681 213.958237 
L 493.81758 209.431291 
L 495.10835 202.640872 
L 496.399121 198.113926 
L 497.689891 201.13189 
L 498.980661 191.323507 
L 500.271432 192.077998 
L 501.562202 205.658836 
L 502.852972 189.060034 
L 504.143742 180.760632 
L 505.434513 186.796561 
L 506.725283 178.497159 
L 508.016053 180.006141 
L 509.306824 177.742668 
L 510.597594 186.796561 
L 511.888364 183.778597 
L 513.179134 173.970213 
L 514.469905 169.443267 
L 517.051445 161.898357 
L 519.632986 148.317519 
L 520.923756 139.263626 
L 522.214527 133.982189 
L 523.505297 118.892369 
L 524.796067 115.874405 
L 526.086837 112.10195 
L 527.377608 106.820513 
L 528.668378 95.503147 
L 529.959148 81.922309 
L 531.249919 74.377399 
L 532.540689 64.569016 
L 533.831459 57.778597 
L 535.12223 39.670812 
L 536.413 49.479195 
L 537.70377 40.425303 
L 538.99454 44.197758 
L 540.285311 44.197758 
L 541.576081 34.389375 
L 542.866851 35.898357 
L 544.157622 41.179794 
L 545.448392 37.407339 
L 546.739162 42.688776 
L 548.029933 44.197758 
L 549.320703 41.179794 
L 550.611473 45.70674 
L 551.902243 46.461231 
L 553.193014 56.269615 
L 554.483784 55.515124 
L 555.774554 81.922309 
L 557.065325 87.958237 
L 558.356095 78.904345 
L 559.646865 87.203746 
L 560.937636 84.940273 
L 563.519176 78.904345 
L 563.519176 78.904345 
" style="fill:none;stroke:#1f77b4;stroke-linecap:round;stroke-width:1.5;"/>
   </g>
   <g id="line2d_18">
    <path clip-path="url(#p61d98871b4)" d="M 56.246449 286.389375 
L 57.537219 286.389375 
L 58.827989 281.107938 
L 60.11876 281.107938 
L 61.40953 279.598956 
L 62.7003 272.054046 
L 63.991071 272.808537 
L 65.281841 269.790573 
L 70.444922 269.790573 
L 71.735692 270.545064 
L 73.026463 267.5271 
L 74.317233 269.036082 
L 75.608003 268.281591 
L 76.898774 265.263626 
L 78.189544 265.263626 
L 79.480314 261.491171 
L 80.771085 258.473207 
L 82.061855 258.473207 
L 83.352625 262.245662 
L 85.934166 262.245662 
L 87.224936 261.491171 
L 88.515706 257.718716 
L 89.806477 259.982189 
L 91.097247 264.509135 
L 92.388017 258.473207 
L 93.678788 253.19177 
L 94.969558 252.437279 
L 96.260328 245.64686 
L 97.551098 250.173806 
L 98.841869 248.664824 
L 100.132639 245.64686 
L 101.423409 238.856441 
L 102.71418 235.083986 
L 104.00495 232.820513 
L 105.29572 238.856441 
L 106.586491 238.856441 
L 109.168031 241.874405 
L 110.458801 238.856441 
L 111.749572 233.575004 
L 113.040342 231.311531 
L 114.331112 229.802549 
L 115.621883 230.55704 
L 116.912653 225.275603 
L 118.203423 225.275603 
L 119.494193 232.820513 
L 120.784964 234.329495 
L 122.075734 229.048058 
L 123.366504 229.048058 
L 125.948045 232.066022 
L 127.238815 236.592968 
L 128.529586 233.575004 
L 129.820356 231.311531 
L 131.111126 235.838477 
L 132.401896 229.048058 
L 133.692667 229.048058 
L 134.983437 227.539076 
L 136.274207 230.55704 
L 137.564978 226.030094 
L 138.855748 226.030094 
L 140.146518 222.257638 
L 141.437289 223.012129 
L 144.018829 221.503147 
L 145.309599 228.293567 
L 146.60037 230.55704 
L 147.89114 225.275603 
L 149.18191 229.048058 
L 150.472681 225.275603 
L 151.763451 220.748656 
L 153.054221 219.239674 
L 154.344992 218.485183 
L 155.635762 221.503147 
L 156.926532 219.239674 
L 158.217302 219.239674 
L 159.508073 214.712728 
L 160.798843 216.976201 
L 162.089613 215.467219 
L 163.380384 215.467219 
L 164.671154 207.922309 
L 165.961924 211.694764 
L 167.252695 216.976201 
L 168.543465 219.239674 
L 169.834235 212.449255 
L 171.125005 216.976201 
L 172.415776 223.012129 
L 173.706546 225.275603 
L 176.288087 223.766621 
L 177.578857 219.239674 
L 178.869627 221.503147 
L 180.160398 219.994165 
L 181.451168 223.012129 
L 182.741938 222.257638 
L 184.032708 223.012129 
L 185.323479 227.539076 
L 186.614249 234.329495 
L 187.905019 233.575004 
L 189.19579 230.55704 
L 190.48656 231.311531 
L 191.77733 234.329495 
L 193.0681 232.066022 
L 194.358871 230.55704 
L 195.649641 231.311531 
L 196.940411 231.311531 
L 198.231182 229.802549 
L 199.521952 236.592968 
L 200.812722 236.592968 
L 202.103493 235.838477 
L 203.394263 238.856441 
L 204.685033 240.365423 
L 205.975803 236.592968 
L 207.266574 231.311531 
L 208.557344 233.575004 
L 209.848114 227.539076 
L 211.138885 230.55704 
L 212.429655 236.592968 
L 213.720425 238.856441 
L 215.011196 237.347459 
L 216.301966 237.347459 
L 217.592736 238.856441 
L 218.883506 233.575004 
L 220.174277 235.083986 
L 221.465047 237.347459 
L 222.755817 237.347459 
L 224.046588 233.575004 
L 225.337358 233.575004 
L 226.628128 238.10195 
L 227.918899 238.10195 
L 229.209669 238.856441 
L 230.500439 241.874405 
L 231.791209 243.383387 
L 233.08198 244.137878 
L 234.37275 246.401351 
L 235.66352 250.173806 
L 236.954291 249.419315 
L 238.245061 246.401351 
L 239.535831 247.155842 
L 240.826602 252.437279 
L 242.117372 252.437279 
L 243.408142 251.682788 
L 244.698912 255.455243 
L 245.989683 254.700752 
L 247.280453 253.19177 
L 248.571223 250.173806 
L 249.861994 251.682788 
L 251.152764 251.682788 
L 252.443534 248.664824 
L 253.734305 253.946261 
L 255.025075 253.946261 
L 256.315845 258.473207 
L 257.606615 256.209734 
L 258.897386 259.227698 
L 260.188156 259.227698 
L 261.478926 259.982189 
L 262.769697 256.964225 
L 265.351237 256.964225 
L 266.642008 260.73668 
L 267.932778 254.700752 
L 269.223548 256.209734 
L 270.514318 252.437279 
L 271.805089 253.946261 
L 273.095859 253.19177 
L 274.386629 253.946261 
L 275.6774 251.682788 
L 276.96817 253.946261 
L 278.25894 255.455243 
L 279.54971 254.700752 
L 280.840481 250.173806 
L 282.131251 251.682788 
L 283.422021 247.910333 
L 284.712792 248.664824 
L 286.003562 253.19177 
L 287.294332 259.227698 
L 288.585103 255.455243 
L 289.875873 255.455243 
L 291.166643 256.209734 
L 292.457413 254.700752 
L 295.038954 256.209734 
L 296.329724 255.455243 
L 297.620495 256.964225 
L 298.911265 262.245662 
L 300.202035 261.491171 
L 301.492806 256.964225 
L 302.783576 257.718716 
L 304.074346 256.964225 
L 305.365116 254.700752 
L 306.655887 253.19177 
L 307.946657 253.19177 
L 309.237427 256.209734 
L 310.528198 257.718716 
L 311.818968 256.964225 
L 314.400509 256.964225 
L 315.691279 256.209734 
L 316.982049 254.700752 
L 318.272819 256.209734 
L 319.56359 256.964225 
L 320.85436 255.455243 
L 322.14513 254.700752 
L 323.435901 258.473207 
L 324.726671 261.491171 
L 326.017441 259.227698 
L 327.308212 261.491171 
L 328.598982 261.491171 
L 329.889752 259.982189 
L 331.180522 262.245662 
L 332.471293 258.473207 
L 333.762063 256.209734 
L 335.052833 255.455243 
L 336.343604 252.437279 
L 340.215915 252.437279 
L 342.797455 249.419315 
L 344.088225 246.401351 
L 345.378996 251.682788 
L 346.669766 251.682788 
L 347.960536 250.928297 
L 349.251307 249.419315 
L 350.542077 246.401351 
L 351.832847 247.155842 
L 354.414388 245.64686 
L 355.705158 244.137878 
L 356.995928 241.874405 
L 358.286699 244.892369 
L 359.577469 235.838477 
L 360.868239 233.575004 
L 362.15901 235.083986 
L 363.44978 234.329495 
L 364.74055 226.784585 
L 366.03132 234.329495 
L 367.322091 233.575004 
L 368.612861 235.838477 
L 369.903631 235.083986 
L 371.194402 227.539076 
L 372.485172 226.030094 
L 373.775942 226.030094 
L 375.066713 216.22171 
L 376.357483 219.994165 
L 377.648253 225.275603 
L 378.939023 221.503147 
L 380.229794 222.257638 
L 381.520564 222.257638 
L 382.811334 223.766621 
L 384.102105 223.012129 
L 385.392875 228.293567 
L 386.683645 229.048058 
L 387.974416 223.766621 
L 389.265186 220.748656 
L 390.555956 222.257638 
L 391.846726 226.784585 
L 393.137497 228.293567 
L 394.428267 226.784585 
L 395.719037 235.083986 
L 397.009808 229.048058 
L 398.300578 229.048058 
L 399.591348 225.275603 
L 400.882119 220.748656 
L 402.172889 223.766621 
L 403.463659 223.766621 
L 404.754429 229.048058 
L 406.0452 231.311531 
L 407.33597 229.048058 
L 408.62674 228.293567 
L 409.917511 231.311531 
L 411.208281 235.838477 
L 412.499051 232.820513 
L 413.789822 230.55704 
L 415.080592 232.066022 
L 416.371362 226.784585 
L 417.662132 232.066022 
L 418.952903 235.083986 
L 420.243673 235.083986 
L 421.534443 226.784585 
L 422.825214 235.083986 
L 424.115984 235.083986 
L 425.406754 238.856441 
L 426.697525 236.592968 
L 427.988295 235.083986 
L 429.279065 236.592968 
L 430.569835 237.347459 
L 431.860606 239.610932 
L 433.151376 241.119914 
L 434.442146 241.874405 
L 435.732917 243.383387 
L 437.023687 241.874405 
L 438.314457 238.856441 
L 439.605227 237.347459 
L 440.895998 232.820513 
L 442.186768 233.575004 
L 443.477538 228.293567 
L 444.768309 226.784585 
L 446.059079 223.766621 
L 447.349849 225.275603 
L 448.64062 227.539076 
L 451.22216 230.55704 
L 452.51293 231.311531 
L 453.803701 233.575004 
L 455.094471 232.066022 
L 456.385241 234.329495 
L 457.676012 229.048058 
L 458.966782 229.802549 
L 460.257552 232.066022 
L 461.548323 231.311531 
L 462.839093 236.592968 
L 466.711404 238.856441 
L 468.002174 235.838477 
L 469.292944 231.311531 
L 470.583715 235.838477 
L 471.874485 232.820513 
L 473.165255 236.592968 
L 474.456026 238.10195 
L 475.746796 242.628896 
L 477.037566 245.64686 
L 478.328336 247.155842 
L 479.619107 244.892369 
L 480.909877 245.64686 
L 482.200647 243.383387 
L 483.491418 250.928297 
L 484.782188 251.682788 
L 486.072958 240.365423 
L 487.363729 244.137878 
L 488.654499 242.628896 
L 489.945269 243.383387 
L 491.236039 239.610932 
L 492.52681 242.628896 
L 493.81758 244.137878 
L 495.10835 241.874405 
L 496.399121 243.383387 
L 497.689891 248.664824 
L 500.271432 239.610932 
L 501.562202 244.892369 
L 502.852972 240.365423 
L 504.143742 237.347459 
L 505.434513 239.610932 
L 506.725283 236.592968 
L 508.016053 236.592968 
L 509.306824 237.347459 
L 510.597594 243.383387 
L 511.888364 233.575004 
L 513.179134 236.592968 
L 514.469905 238.856441 
L 515.760675 232.066022 
L 517.051445 229.048058 
L 518.342216 223.766621 
L 519.632986 211.694764 
L 520.923756 204.904345 
L 522.214527 213.958237 
L 523.505297 201.886381 
L 524.796067 196.604944 
L 526.086837 198.113926 
L 527.377608 186.796561 
L 528.668378 190.569016 
L 529.959148 186.04207 
L 531.249919 187.551052 
L 532.540689 180.760632 
L 533.831459 177.742668 
L 535.12223 165.670812 
L 536.413 163.407339 
L 537.70377 155.862429 
L 538.99454 151.335483 
L 540.285311 154.353447 
L 541.576081 152.089974 
L 542.866851 150.580992 
L 544.157622 147.563028 
L 546.739162 146.054046 
L 548.029933 149.07201 
L 549.320703 146.808537 
L 550.611473 146.054046 
L 553.193014 143.036082 
L 554.483784 144.545064 
L 555.774554 153.598956 
L 557.065325 153.598956 
L 559.646865 165.670812 
L 560.937636 162.652848 
L 562.228406 158.880393 
L 563.519176 163.407339 
L 563.519176 163.407339 
" style="fill:none;stroke:#ff7f0e;stroke-linecap:round;stroke-width:1.5;"/>
   </g>
   <g id="patch_3">
    <path d="M 30.882812 298.989375 
L 30.882812 21.789375 
" style="fill:none;stroke:#cccccc;stroke-linecap:square;stroke-linejoin:miter;stroke-width:0.8;"/>
   </g>
   <g id="patch_4">
    <path d="M 588.882812 298.989375 
L 588.882812 21.789375 
" style="fill:none;stroke:#cccccc;stroke-linecap:square;stroke-linejoin:miter;stroke-width:0.8;"/>
   </g>
   <g id="patch_5">
    <path d="M 30.882812 298.989375 
L 588.882812 298.989375 
" style="fill:none;stroke:#cccccc;stroke-linecap:square;stroke-linejoin:miter;stroke-width:0.8;"/>
   </g>
   <g id="patch_6">
    <path d="M 30.882812 21.789375 
L 588.882812 21.789375 
" style="fill:none;stroke:#cccccc;stroke-linecap:square;stroke-linejoin:miter;stroke-width:0.8;"/>
   </g>
   <g id="text_17">
    <!-- Internações -->
    <g style="fill:#262626;" transform="translate(278.531875 15.789375)scale(0.12 -0.12)">
     <defs>
      <path d="M 597 0 
L 597 4581 
L 1203 4581 
L 1203 0 
L 597 0 
z
" id="ArialMT-49" transform="scale(0.015625)"/>
      <path d="M 422 0 
L 422 3319 
L 928 3319 
L 928 2847 
Q 1294 3394 1984 3394 
Q 2284 3394 2536 3286 
Q 2788 3178 2913 3003 
Q 3038 2828 3088 2588 
Q 3119 2431 3119 2041 
L 3119 0 
L 2556 0 
L 2556 2019 
Q 2556 2363 2490 2533 
Q 2425 2703 2258 2804 
Q 2091 2906 1866 2906 
Q 1506 2906 1245 2678 
Q 984 2450 984 1813 
L 984 0 
L 422 0 
z
" id="ArialMT-6e" transform="scale(0.015625)"/>
      <path d="M 1650 503 
L 1731 6 
Q 1494 -44 1306 -44 
Q 1000 -44 831 53 
Q 663 150 594 308 
Q 525 466 525 972 
L 525 2881 
L 113 2881 
L 113 3319 
L 525 3319 
L 525 4141 
L 1084 4478 
L 1084 3319 
L 1650 3319 
L 1650 2881 
L 1084 2881 
L 1084 941 
Q 1084 700 1114 631 
Q 1144 563 1211 522 
Q 1278 481 1403 481 
Q 1497 481 1650 503 
z
" id="ArialMT-74" transform="scale(0.015625)"/>
      <path d="M 2694 1069 
L 3275 997 
Q 3138 488 2766 206 
Q 2394 -75 1816 -75 
Q 1088 -75 661 373 
Q 234 822 234 1631 
Q 234 2469 665 2931 
Q 1097 3394 1784 3394 
Q 2450 3394 2872 2941 
Q 3294 2488 3294 1666 
Q 3294 1616 3291 1516 
L 816 1516 
Q 847 969 1125 678 
Q 1403 388 1819 388 
Q 2128 388 2347 550 
Q 2566 713 2694 1069 
z
M 847 1978 
L 2700 1978 
Q 2663 2397 2488 2606 
Q 2219 2931 1791 2931 
Q 1403 2931 1139 2672 
Q 875 2413 847 1978 
z
" id="ArialMT-65" transform="scale(0.015625)"/>
      <path d="M 416 0 
L 416 3319 
L 922 3319 
L 922 2816 
Q 1116 3169 1280 3281 
Q 1444 3394 1641 3394 
Q 1925 3394 2219 3213 
L 2025 2691 
Q 1819 2813 1613 2813 
Q 1428 2813 1281 2702 
Q 1134 2591 1072 2394 
Q 978 2094 978 1738 
L 978 0 
L 416 0 
z
" id="ArialMT-72" transform="scale(0.015625)"/>
      <path d="M 2588 409 
Q 2275 144 1986 34 
Q 1697 -75 1366 -75 
Q 819 -75 525 192 
Q 231 459 231 875 
Q 231 1119 342 1320 
Q 453 1522 633 1644 
Q 813 1766 1038 1828 
Q 1203 1872 1538 1913 
Q 2219 1994 2541 2106 
Q 2544 2222 2544 2253 
Q 2544 2597 2384 2738 
Q 2169 2928 1744 2928 
Q 1347 2928 1158 2789 
Q 969 2650 878 2297 
L 328 2372 
Q 403 2725 575 2942 
Q 747 3159 1072 3276 
Q 1397 3394 1825 3394 
Q 2250 3394 2515 3294 
Q 2781 3194 2906 3042 
Q 3031 2891 3081 2659 
Q 3109 2516 3109 2141 
L 3109 1391 
Q 3109 606 3145 398 
Q 3181 191 3288 0 
L 2700 0 
Q 2613 175 2588 409 
z
M 2541 1666 
Q 2234 1541 1622 1453 
Q 1275 1403 1131 1340 
Q 988 1278 909 1158 
Q 831 1038 831 891 
Q 831 666 1001 516 
Q 1172 366 1500 366 
Q 1825 366 2078 508 
Q 2331 650 2450 897 
Q 2541 1088 2541 1459 
L 2541 1666 
z
" id="ArialMT-61" transform="scale(0.015625)"/>
      <path d="M 2588 1216 
L 3141 1144 
Q 3050 572 2676 248 
Q 2303 -75 1759 -75 
Q 1078 -75 664 370 
Q 250 816 250 1647 
Q 250 2184 428 2587 
Q 606 2991 970 3192 
Q 1334 3394 1763 3394 
Q 2303 3394 2647 3120 
Q 2991 2847 3088 2344 
L 2541 2259 
Q 2463 2594 2264 2762 
Q 2066 2931 1784 2931 
Q 1359 2931 1093 2626 
Q 828 2322 828 1663 
Q 828 994 1084 691 
Q 1341 388 1753 388 
Q 2084 388 2306 591 
Q 2528 794 2588 1216 
z
M 1284 -418 
L 1447 135 
L 1866 135 
L 1763 -200 
Q 2028 -231 2162 -363 
Q 2297 -496 2297 -659 
Q 2297 -893 2072 -1073 
Q 1847 -1253 1394 -1253 
Q 1138 -1253 944 -1215 
L 978 -850 
Q 1178 -862 1272 -862 
Q 1566 -862 1684 -781 
Q 1775 -718 1775 -628 
Q 1775 -571 1739 -527 
Q 1703 -484 1606 -452 
Q 1509 -421 1284 -418 
z
" id="ArialMT-e7" transform="scale(0.015625)"/>
      <path d="M 213 1659 
Q 213 2581 725 3025 
Q 1153 3394 1769 3394 
Q 2453 3394 2887 2945 
Q 3322 2497 3322 1706 
Q 3322 1066 3130 698 
Q 2938 331 2570 128 
Q 2203 -75 1769 -75 
Q 1072 -75 642 372 
Q 213 819 213 1659 
z
M 791 1659 
Q 791 1022 1069 705 
Q 1347 388 1769 388 
Q 2188 388 2466 706 
Q 2744 1025 2744 1678 
Q 2744 2294 2464 2611 
Q 2184 2928 1769 2928 
Q 1347 2928 1069 2612 
Q 791 2297 791 1659 
z
M 722 3809 
Q 719 4134 900 4328 
Q 1078 4522 1356 4522 
Q 1550 4522 1884 4353 
Q 2069 4259 2178 4259 
Q 2278 4259 2331 4314 
Q 2384 4369 2406 4531 
L 2813 4531 
Q 2803 4175 2633 3997 
Q 2463 3819 2200 3819 
Q 2003 3819 1681 3994 
Q 1472 4106 1375 4106 
Q 1269 4106 1203 4031 
Q 1134 3956 1138 3809 
L 722 3809 
z
" id="ArialMT-f5" transform="scale(0.015625)"/>
      <path d="M 197 991 
L 753 1078 
Q 800 744 1014 566 
Q 1228 388 1613 388 
Q 2000 388 2187 545 
Q 2375 703 2375 916 
Q 2375 1106 2209 1216 
Q 2094 1291 1634 1406 
Q 1016 1563 777 1677 
Q 538 1791 414 1992 
Q 291 2194 291 2438 
Q 291 2659 392 2848 
Q 494 3038 669 3163 
Q 800 3259 1026 3326 
Q 1253 3394 1513 3394 
Q 1903 3394 2198 3281 
Q 2494 3169 2634 2976 
Q 2775 2784 2828 2463 
L 2278 2388 
Q 2241 2644 2061 2787 
Q 1881 2931 1553 2931 
Q 1166 2931 1000 2803 
Q 834 2675 834 2503 
Q 834 2394 903 2306 
Q 972 2216 1119 2156 
Q 1203 2125 1616 2013 
Q 2213 1853 2448 1751 
Q 2684 1650 2818 1456 
Q 2953 1263 2953 975 
Q 2953 694 2789 445 
Q 2625 197 2315 61 
Q 2006 -75 1616 -75 
Q 969 -75 630 194 
Q 291 463 197 991 
z
" id="ArialMT-73" transform="scale(0.015625)"/>
     </defs>
     <use xlink:href="#ArialMT-49"/>
     <use x="27.783203" xlink:href="#ArialMT-6e"/>
     <use x="83.398438" xlink:href="#ArialMT-74"/>
     <use x="111.181641" xlink:href="#ArialMT-65"/>
     <use x="166.796875" xlink:href="#ArialMT-72"/>
     <use x="200.097656" xlink:href="#ArialMT-6e"/>
     <use x="255.712891" xlink:href="#ArialMT-61"/>
     <use x="311.328125" xlink:href="#ArialMT-e7"/>
     <use x="361.328125" xlink:href="#ArialMT-f5"/>
     <use x="416.943359" xlink:href="#ArialMT-65"/>
     <use x="472.558594" xlink:href="#ArialMT-73"/>
    </g>
   </g>
   <g id="legend_1">
    <g id="patch_7">
     <path d="M 37.882812 58.08 
L 122.134375 58.08 
Q 124.134375 58.08 124.134375 56.08 
L 124.134375 28.789375 
Q 124.134375 26.789375 122.134375 26.789375 
L 37.882812 26.789375 
Q 35.882812 26.789375 35.882812 28.789375 
L 35.882812 56.08 
Q 35.882812 58.08 37.882812 58.08 
z
" style="fill:#ffffff;opacity:0.8;stroke:#cccccc;stroke-linejoin:miter;"/>
    </g>
    <g id="line2d_19">
     <path d="M 39.882812 34.447187 
L 59.882812 34.447187 
" style="fill:none;stroke:#1f77b4;stroke-linecap:round;stroke-width:1.5;"/>
    </g>
    <g id="line2d_20"/>
    <g id="text_18">
     <!-- Internações -->
     <g style="fill:#262626;" transform="translate(67.882812 37.947187)scale(0.1 -0.1)">
      <use xlink:href="#ArialMT-49"/>
      <use x="27.783203" xlink:href="#ArialMT-6e"/>
      <use x="83.398438" xlink:href="#ArialMT-74"/>
      <use x="111.181641" xlink:href="#ArialMT-65"/>
      <use x="166.796875" xlink:href="#ArialMT-72"/>
      <use x="200.097656" xlink:href="#ArialMT-6e"/>
      <use x="255.712891" xlink:href="#ArialMT-61"/>
      <use x="311.328125" xlink:href="#ArialMT-e7"/>
      <use x="361.328125" xlink:href="#ArialMT-f5"/>
      <use x="416.943359" xlink:href="#ArialMT-65"/>
      <use x="472.558594" xlink:href="#ArialMT-73"/>
     </g>
    </g>
    <g id="line2d_21">
     <path d="M 39.882812 48.5925 
L 59.882812 48.5925 
" style="fill:none;stroke:#ff7f0e;stroke-linecap:round;stroke-width:1.5;"/>
    </g>
    <g id="line2d_22"/>
    <g id="text_19">
     <!-- UTI -->
     <g style="fill:#262626;" transform="translate(67.882812 52.0925)scale(0.1 -0.1)">
      <defs>
       <path d="M 3500 4581 
L 4106 4581 
L 4106 1934 
Q 4106 1244 3950 837 
Q 3794 431 3386 176 
Q 2978 -78 2316 -78 
Q 1672 -78 1262 144 
Q 853 366 678 786 
Q 503 1206 503 1934 
L 503 4581 
L 1109 4581 
L 1109 1938 
Q 1109 1341 1220 1058 
Q 1331 775 1601 622 
Q 1872 469 2263 469 
Q 2931 469 3215 772 
Q 3500 1075 3500 1938 
L 3500 4581 
z
" id="ArialMT-55" transform="scale(0.015625)"/>
       <path d="M 1659 0 
L 1659 4041 
L 150 4041 
L 150 4581 
L 3781 4581 
L 3781 4041 
L 2266 4041 
L 2266 0 
L 1659 0 
z
" id="ArialMT-54" transform="scale(0.015625)"/>
      </defs>
      <use xlink:href="#ArialMT-55"/>
      <use x="72.216797" xlink:href="#ArialMT-54"/>
      <use x="133.300781" xlink:href="#ArialMT-49"/>
     </g>
    </g>
   </g>
  </g>
 </g>
 <defs>
  <clipPath id="p61d98871b4">
   <rect height="277.2" width="558" x="30.882812" y="21.789375"/>
  </clipPath>
 </defs>
</svg>
