<?xml version="1.0" encoding="utf-8" standalone="no"?>
<!DOCTYPE svg PUBLIC "-//W3C//DTD SVG 1.1//EN"
  "http://www.w3.org/Graphics/SVG/1.1/DTD/svg11.dtd">
<!-- Created with matplotlib (https://matplotlib.org/) -->
<svg height="316.934687pt" version="1.1" viewBox="0 0 596.082813 316.934687" width="596.082813pt" xmlns="http://www.w3.org/2000/svg" xmlns:xlink="http://www.w3.org/1999/xlink">
 <metadata>
  <rdf:RDF xmlns:cc="http://creativecommons.org/ns#" xmlns:dc="http://purl.org/dc/elements/1.1/" xmlns:rdf="http://www.w3.org/1999/02/22-rdf-syntax-ns#">
   <cc:Work>
    <dc:type rdf:resource="http://purl.org/dc/dcmitype/StillImage"/>
    <dc:date>2021-03-11T20:17:30.611109</dc:date>
    <dc:format>image/svg+xml</dc:format>
    <dc:creator>
     <cc:Agent>
      <dc:title>Matplotlib v3.3.4, https://matplotlib.org/</dc:title>
     </cc:Agent>
    </dc:creator>
   </cc:Work>
  </rdf:RDF>
 </metadata>
 <defs>
  <style type="text/css">*{stroke-linecap:butt;stroke-linejoin:round;}</style>
 </defs>
 <g id="figure_1">
  <g id="patch_1">
   <path d="M 0 316.934687 
L 596.082813 316.934687 
L 596.082813 0 
L 0 0 
z
" style="fill:#ffffff;"/>
  </g>
  <g id="axes_1">
   <g id="patch_2">
    <path d="M 30.882812 293.589375 
L 588.882812 293.589375 
L 588.882812 21.789375 
L 30.882812 21.789375 
z
" style="fill:#ffffff;"/>
   </g>
   <g id="matplotlib.axis_1">
    <g id="xtick_1">
     <g id="line2d_1">
      <path clip-path="url(#pbcf9e2b394)" d="M 117.346525 293.589375 
L 117.346525 21.789375 
" style="fill:none;stroke:#cccccc;stroke-linecap:round;stroke-width:0.8;"/>
     </g>
     <g id="text_1">
      <!-- 2020-05 -->
      <g style="fill:#262626;" transform="translate(98.998869 307.747187)scale(0.1 -0.1)">
       <defs>
        <path d="M 50.34375 8.453125 
L 50.34375 0 
L 3.03125 0 
Q 2.9375 3.171875 4.046875 6.109375 
Q 5.859375 10.9375 9.828125 15.625 
Q 13.8125 20.3125 21.34375 26.46875 
Q 33.015625 36.03125 37.109375 41.625 
Q 41.21875 47.21875 41.21875 52.203125 
Q 41.21875 57.421875 37.46875 61 
Q 33.734375 64.59375 27.734375 64.59375 
Q 21.390625 64.59375 17.578125 60.78125 
Q 13.765625 56.984375 13.71875 50.25 
L 4.6875 51.171875 
Q 5.609375 61.28125 11.65625 66.578125 
Q 17.71875 71.875 27.9375 71.875 
Q 38.234375 71.875 44.234375 66.15625 
Q 50.25 60.453125 50.25 52 
Q 50.25 47.703125 48.484375 43.546875 
Q 46.734375 39.40625 42.65625 34.8125 
Q 38.578125 30.21875 29.109375 22.21875 
Q 21.1875 15.578125 18.9375 13.203125 
Q 16.703125 10.84375 15.234375 8.453125 
z
" id="ArialMT-50"/>
        <path d="M 4.15625 35.296875 
Q 4.15625 48 6.765625 55.734375 
Q 9.375 63.484375 14.515625 67.671875 
Q 19.671875 71.875 27.484375 71.875 
Q 33.25 71.875 37.59375 69.546875 
Q 41.9375 67.234375 44.765625 62.859375 
Q 47.609375 58.5 49.21875 52.21875 
Q 50.828125 45.953125 50.828125 35.296875 
Q 50.828125 22.703125 48.234375 14.96875 
Q 45.65625 7.234375 40.5 3 
Q 35.359375 -1.21875 27.484375 -1.21875 
Q 17.140625 -1.21875 11.234375 6.203125 
Q 4.15625 15.140625 4.15625 35.296875 
z
M 13.1875 35.296875 
Q 13.1875 17.671875 17.3125 11.828125 
Q 21.4375 6 27.484375 6 
Q 33.546875 6 37.671875 11.859375 
Q 41.796875 17.71875 41.796875 35.296875 
Q 41.796875 52.984375 37.671875 58.78125 
Q 33.546875 64.59375 27.390625 64.59375 
Q 21.34375 64.59375 17.71875 59.46875 
Q 13.1875 52.9375 13.1875 35.296875 
z
" id="ArialMT-48"/>
        <path d="M 3.171875 21.484375 
L 3.171875 30.328125 
L 30.171875 30.328125 
L 30.171875 21.484375 
z
" id="ArialMT-45"/>
        <path d="M 4.15625 18.75 
L 13.375 19.53125 
Q 14.40625 12.796875 18.140625 9.390625 
Q 21.875 6 27.15625 6 
Q 33.5 6 37.890625 10.78125 
Q 42.28125 15.578125 42.28125 23.484375 
Q 42.28125 31 38.0625 35.34375 
Q 33.84375 39.703125 27 39.703125 
Q 22.75 39.703125 19.328125 37.765625 
Q 15.921875 35.84375 13.96875 32.765625 
L 5.71875 33.84375 
L 12.640625 70.609375 
L 48.25 70.609375 
L 48.25 62.203125 
L 19.671875 62.203125 
L 15.828125 42.96875 
Q 22.265625 47.46875 29.34375 47.46875 
Q 38.71875 47.46875 45.15625 40.96875 
Q 51.609375 34.46875 51.609375 24.265625 
Q 51.609375 14.546875 45.953125 7.46875 
Q 39.0625 -1.21875 27.15625 -1.21875 
Q 17.390625 -1.21875 11.203125 4.25 
Q 5.03125 9.71875 4.15625 18.75 
z
" id="ArialMT-53"/>
       </defs>
       <use xlink:href="#ArialMT-50"/>
       <use x="55.615234" xlink:href="#ArialMT-48"/>
       <use x="111.230469" xlink:href="#ArialMT-50"/>
       <use x="166.845703" xlink:href="#ArialMT-48"/>
       <use x="222.460938" xlink:href="#ArialMT-45"/>
       <use x="255.761719" xlink:href="#ArialMT-48"/>
       <use x="311.376953" xlink:href="#ArialMT-53"/>
      </g>
     </g>
    </g>
    <g id="xtick_2">
     <g id="line2d_2">
      <path clip-path="url(#pbcf9e2b394)" d="M 204.023378 293.589375 
L 204.023378 21.789375 
" style="fill:none;stroke:#cccccc;stroke-linecap:round;stroke-width:0.8;"/>
     </g>
     <g id="text_2">
      <!-- 2020-07 -->
      <g style="fill:#262626;" transform="translate(185.675722 307.747187)scale(0.1 -0.1)">
       <defs>
        <path d="M 4.734375 62.203125 
L 4.734375 70.65625 
L 51.078125 70.65625 
L 51.078125 63.8125 
Q 44.234375 56.546875 37.515625 44.484375 
Q 30.8125 32.421875 27.15625 19.671875 
Q 24.515625 10.6875 23.78125 0 
L 14.75 0 
Q 14.890625 8.453125 18.0625 20.40625 
Q 21.234375 32.375 27.171875 43.484375 
Q 33.109375 54.59375 39.796875 62.203125 
z
" id="ArialMT-55"/>
       </defs>
       <use xlink:href="#ArialMT-50"/>
       <use x="55.615234" xlink:href="#ArialMT-48"/>
       <use x="111.230469" xlink:href="#ArialMT-50"/>
       <use x="166.845703" xlink:href="#ArialMT-48"/>
       <use x="222.460938" xlink:href="#ArialMT-45"/>
       <use x="255.761719" xlink:href="#ArialMT-48"/>
       <use x="311.376953" xlink:href="#ArialMT-55"/>
      </g>
     </g>
    </g>
    <g id="xtick_3">
     <g id="line2d_3">
      <path clip-path="url(#pbcf9e2b394)" d="M 292.121162 293.589375 
L 292.121162 21.789375 
" style="fill:none;stroke:#cccccc;stroke-linecap:round;stroke-width:0.8;"/>
     </g>
     <g id="text_3">
      <!-- 2020-09 -->
      <g style="fill:#262626;" transform="translate(273.773506 307.747187)scale(0.1 -0.1)">
       <defs>
        <path d="M 5.46875 16.546875 
L 13.921875 17.328125 
Q 14.984375 11.375 18.015625 8.6875 
Q 21.046875 6 25.78125 6 
Q 29.828125 6 32.875 7.859375 
Q 35.9375 9.71875 37.890625 12.8125 
Q 39.84375 15.921875 41.15625 21.1875 
Q 42.484375 26.46875 42.484375 31.9375 
Q 42.484375 32.515625 42.4375 33.6875 
Q 39.796875 29.5 35.234375 26.875 
Q 30.671875 24.265625 25.34375 24.265625 
Q 16.453125 24.265625 10.296875 30.703125 
Q 4.15625 37.15625 4.15625 47.703125 
Q 4.15625 58.59375 10.578125 65.234375 
Q 17 71.875 26.65625 71.875 
Q 33.640625 71.875 39.421875 68.109375 
Q 45.21875 64.359375 48.21875 57.390625 
Q 51.21875 50.4375 51.21875 37.25 
Q 51.21875 23.53125 48.234375 15.40625 
Q 45.265625 7.28125 39.375 3.03125 
Q 33.5 -1.21875 25.59375 -1.21875 
Q 17.1875 -1.21875 11.859375 3.4375 
Q 6.546875 8.109375 5.46875 16.546875 
z
M 41.453125 48.140625 
Q 41.453125 55.71875 37.421875 60.15625 
Q 33.40625 64.59375 27.734375 64.59375 
Q 21.875 64.59375 17.53125 59.8125 
Q 13.1875 55.03125 13.1875 47.40625 
Q 13.1875 40.578125 17.3125 36.296875 
Q 21.4375 32.03125 27.484375 32.03125 
Q 33.59375 32.03125 37.515625 36.296875 
Q 41.453125 40.578125 41.453125 48.140625 
z
" id="ArialMT-57"/>
       </defs>
       <use xlink:href="#ArialMT-50"/>
       <use x="55.615234" xlink:href="#ArialMT-48"/>
       <use x="111.230469" xlink:href="#ArialMT-50"/>
       <use x="166.845703" xlink:href="#ArialMT-48"/>
       <use x="222.460938" xlink:href="#ArialMT-45"/>
       <use x="255.761719" xlink:href="#ArialMT-48"/>
       <use x="311.376953" xlink:href="#ArialMT-57"/>
      </g>
     </g>
    </g>
    <g id="xtick_4">
     <g id="line2d_4">
      <path clip-path="url(#pbcf9e2b394)" d="M 378.798015 293.589375 
L 378.798015 21.789375 
" style="fill:none;stroke:#cccccc;stroke-linecap:round;stroke-width:0.8;"/>
     </g>
     <g id="text_4">
      <!-- 2020-11 -->
      <g style="fill:#262626;" transform="translate(360.819109 307.747187)scale(0.1 -0.1)">
       <defs>
        <path d="M 37.25 0 
L 28.46875 0 
L 28.46875 56 
Q 25.296875 52.984375 20.140625 49.953125 
Q 14.984375 46.921875 10.890625 45.40625 
L 10.890625 53.90625 
Q 18.265625 57.375 23.78125 62.296875 
Q 29.296875 67.234375 31.59375 71.875 
L 37.25 71.875 
z
" id="ArialMT-49"/>
       </defs>
       <use xlink:href="#ArialMT-50"/>
       <use x="55.615234" xlink:href="#ArialMT-48"/>
       <use x="111.230469" xlink:href="#ArialMT-50"/>
       <use x="166.845703" xlink:href="#ArialMT-48"/>
       <use x="222.460938" xlink:href="#ArialMT-45"/>
       <use x="255.761719" xlink:href="#ArialMT-49"/>
       <use x="304.001953" xlink:href="#ArialMT-49"/>
      </g>
     </g>
    </g>
    <g id="xtick_5">
     <g id="line2d_5">
      <path clip-path="url(#pbcf9e2b394)" d="M 465.474868 293.589375 
L 465.474868 21.789375 
" style="fill:none;stroke:#cccccc;stroke-linecap:round;stroke-width:0.8;"/>
     </g>
     <g id="text_5">
      <!-- 2021-01 -->
      <g style="fill:#262626;" transform="translate(447.127211 307.747187)scale(0.1 -0.1)">
       <use xlink:href="#ArialMT-50"/>
       <use x="55.615234" xlink:href="#ArialMT-48"/>
       <use x="111.230469" xlink:href="#ArialMT-50"/>
       <use x="166.845703" xlink:href="#ArialMT-49"/>
       <use x="222.460938" xlink:href="#ArialMT-45"/>
       <use x="255.761719" xlink:href="#ArialMT-48"/>
       <use x="311.376953" xlink:href="#ArialMT-49"/>
      </g>
     </g>
    </g>
    <g id="xtick_6">
     <g id="line2d_6">
      <path clip-path="url(#pbcf9e2b394)" d="M 549.309856 293.589375 
L 549.309856 21.789375 
" style="fill:none;stroke:#cccccc;stroke-linecap:round;stroke-width:0.8;"/>
     </g>
     <g id="text_6">
      <!-- 2021-03 -->
      <g style="fill:#262626;" transform="translate(530.9622 307.747187)scale(0.1 -0.1)">
       <defs>
        <path d="M 4.203125 18.890625 
L 12.984375 20.0625 
Q 14.5 12.59375 18.140625 9.296875 
Q 21.78125 6 27 6 
Q 33.203125 6 37.46875 10.296875 
Q 41.75 14.59375 41.75 20.953125 
Q 41.75 27 37.796875 30.921875 
Q 33.84375 34.859375 27.734375 34.859375 
Q 25.25 34.859375 21.53125 33.890625 
L 22.515625 41.609375 
Q 23.390625 41.5 23.921875 41.5 
Q 29.546875 41.5 34.03125 44.421875 
Q 38.53125 47.359375 38.53125 53.46875 
Q 38.53125 58.296875 35.25 61.46875 
Q 31.984375 64.65625 26.8125 64.65625 
Q 21.6875 64.65625 18.265625 61.421875 
Q 14.84375 58.203125 13.875 51.765625 
L 5.078125 53.328125 
Q 6.6875 62.15625 12.390625 67.015625 
Q 18.109375 71.875 26.609375 71.875 
Q 32.46875 71.875 37.390625 69.359375 
Q 42.328125 66.84375 44.9375 62.5 
Q 47.5625 58.15625 47.5625 53.265625 
Q 47.5625 48.640625 45.0625 44.828125 
Q 42.578125 41.015625 37.703125 38.765625 
Q 44.046875 37.3125 47.5625 32.6875 
Q 51.078125 28.078125 51.078125 21.140625 
Q 51.078125 11.765625 44.234375 5.25 
Q 37.40625 -1.265625 26.953125 -1.265625 
Q 17.53125 -1.265625 11.296875 4.34375 
Q 5.078125 9.96875 4.203125 18.890625 
z
" id="ArialMT-51"/>
       </defs>
       <use xlink:href="#ArialMT-50"/>
       <use x="55.615234" xlink:href="#ArialMT-48"/>
       <use x="111.230469" xlink:href="#ArialMT-50"/>
       <use x="166.845703" xlink:href="#ArialMT-49"/>
       <use x="222.460938" xlink:href="#ArialMT-45"/>
       <use x="255.761719" xlink:href="#ArialMT-48"/>
       <use x="311.376953" xlink:href="#ArialMT-51"/>
      </g>
     </g>
    </g>
   </g>
   <g id="matplotlib.axis_2">
    <g id="ytick_1">
     <g id="line2d_7">
      <path clip-path="url(#pbcf9e2b394)" d="M 30.882812 281.23483 
L 588.882812 281.23483 
" style="fill:none;stroke:#cccccc;stroke-linecap:round;stroke-width:0.8;"/>
     </g>
     <g id="text_7">
      <!-- 0 -->
      <g style="fill:#262626;" transform="translate(18.321875 284.813736)scale(0.1 -0.1)">
       <use xlink:href="#ArialMT-48"/>
      </g>
     </g>
    </g>
    <g id="ytick_2">
     <g id="line2d_8">
      <path clip-path="url(#pbcf9e2b394)" d="M 30.882812 230.182989 
L 588.882812 230.182989 
" style="fill:none;stroke:#cccccc;stroke-linecap:round;stroke-width:0.8;"/>
     </g>
     <g id="text_8">
      <!-- 50 -->
      <g style="fill:#262626;" transform="translate(12.760937 233.761895)scale(0.1 -0.1)">
       <use xlink:href="#ArialMT-53"/>
       <use x="55.615234" xlink:href="#ArialMT-48"/>
      </g>
     </g>
    </g>
    <g id="ytick_3">
     <g id="line2d_9">
      <path clip-path="url(#pbcf9e2b394)" d="M 30.882812 179.131148 
L 588.882812 179.131148 
" style="fill:none;stroke:#cccccc;stroke-linecap:round;stroke-width:0.8;"/>
     </g>
     <g id="text_9">
      <!-- 100 -->
      <g style="fill:#262626;" transform="translate(7.2 182.710054)scale(0.1 -0.1)">
       <use xlink:href="#ArialMT-49"/>
       <use x="55.615234" xlink:href="#ArialMT-48"/>
       <use x="111.230469" xlink:href="#ArialMT-48"/>
      </g>
     </g>
    </g>
    <g id="ytick_4">
     <g id="line2d_10">
      <path clip-path="url(#pbcf9e2b394)" d="M 30.882812 128.079307 
L 588.882812 128.079307 
" style="fill:none;stroke:#cccccc;stroke-linecap:round;stroke-width:0.8;"/>
     </g>
     <g id="text_10">
      <!-- 150 -->
      <g style="fill:#262626;" transform="translate(7.2 131.658214)scale(0.1 -0.1)">
       <use xlink:href="#ArialMT-49"/>
       <use x="55.615234" xlink:href="#ArialMT-53"/>
       <use x="111.230469" xlink:href="#ArialMT-48"/>
      </g>
     </g>
    </g>
    <g id="ytick_5">
     <g id="line2d_11">
      <path clip-path="url(#pbcf9e2b394)" d="M 30.882812 77.027467 
L 588.882812 77.027467 
" style="fill:none;stroke:#cccccc;stroke-linecap:round;stroke-width:0.8;"/>
     </g>
     <g id="text_11">
      <!-- 200 -->
      <g style="fill:#262626;" transform="translate(7.2 80.606373)scale(0.1 -0.1)">
       <use xlink:href="#ArialMT-50"/>
       <use x="55.615234" xlink:href="#ArialMT-48"/>
       <use x="111.230469" xlink:href="#ArialMT-48"/>
      </g>
     </g>
    </g>
    <g id="ytick_6">
     <g id="line2d_12">
      <path clip-path="url(#pbcf9e2b394)" d="M 30.882812 25.975626 
L 588.882812 25.975626 
" style="fill:none;stroke:#cccccc;stroke-linecap:round;stroke-width:0.8;"/>
     </g>
     <g id="text_12">
      <!-- 250 -->
      <g style="fill:#262626;" transform="translate(7.2 29.554532)scale(0.1 -0.1)">
       <use xlink:href="#ArialMT-50"/>
       <use x="55.615234" xlink:href="#ArialMT-53"/>
       <use x="111.230469" xlink:href="#ArialMT-48"/>
      </g>
     </g>
    </g>
   </g>
   <g id="line2d_13">
    <path clip-path="url(#pbcf9e2b394)" d="M 56.246449 270.003425 
L 57.667381 270.003425 
L 59.088313 267.961351 
L 60.509245 267.961351 
L 61.930177 257.750983 
L 63.351109 239.37232 
L 64.772041 238.351283 
L 66.192973 234.267136 
L 67.613905 228.140915 
L 69.034837 227.119878 
L 70.455769 227.119878 
L 71.876701 226.098842 
L 73.297633 222.014694 
L 74.718565 199.551884 
L 76.139497 197.509811 
L 77.560429 197.509811 
L 78.981361 166.878706 
L 80.402293 164.836633 
L 81.823225 183.215295 
L 83.244157 178.110111 
L 84.665089 169.941817 
L 86.086021 167.899743 
L 87.506953 163.815596 
L 88.927885 163.815596 
L 90.348817 161.773522 
L 91.769749 146.45797 
L 93.190681 144.415896 
L 94.611613 149.52108 
L 96.032545 132.163455 
L 97.453477 128.079307 
L 98.874409 125.016197 
L 100.295341 119.911013 
L 101.716273 133.184491 
L 103.137205 133.184491 
L 104.558137 129.100344 
L 105.979069 120.93205 
L 107.400001 86.216798 
L 108.820933 84.174724 
L 110.241865 132.163455 
L 111.662797 135.226565 
L 113.083729 139.310712 
L 114.504661 132.163455 
L 115.925593 139.310712 
L 117.346525 128.079307 
L 118.767457 121.953086 
L 120.188389 122.974123 
L 121.609321 119.911013 
L 123.030253 111.742718 
L 124.451185 107.658571 
L 125.872117 113.784792 
L 127.293049 117.868939 
L 128.713981 111.742718 
L 130.134913 107.658571 
L 131.555845 112.763755 
L 132.976777 91.321982 
L 134.397709 100.511313 
L 135.818641 96.427166 
L 137.239573 91.321982 
L 138.660505 99.490277 
L 140.081437 84.174724 
L 141.502369 82.132651 
L 142.923301 85.195761 
L 144.344233 74.985393 
L 145.765165 79.06954 
L 147.186097 82.132651 
L 148.607029 84.174724 
L 150.027961 81.111614 
L 151.448893 80.090577 
L 152.869825 73.964356 
L 154.290757 76.00643 
L 155.71169 77.027467 
L 157.132622 60.690878 
L 158.553554 59.669841 
L 159.974486 61.711914 
L 161.395418 68.859172 
L 162.81635 68.859172 
L 164.237282 67.838135 
L 165.658214 65.796062 
L 167.079146 59.669841 
L 168.500078 59.669841 
L 169.92101 43.333252 
L 171.341942 50.480509 
L 172.762874 41.291178 
L 174.183806 48.438436 
L 175.604738 38.228068 
L 177.02567 42.312215 
L 178.446602 34.14392 
L 179.867534 46.396362 
L 181.288466 56.60673 
L 182.709398 59.669841 
L 184.13033 64.775025 
L 185.551262 70.901246 
L 186.972194 66.817099 
L 188.393126 59.669841 
L 189.814058 58.648804 
L 191.23499 54.564657 
L 192.655922 60.690878 
L 194.076854 77.027467 
L 195.497786 79.06954 
L 196.918718 71.922283 
L 198.33965 76.00643 
L 199.760582 85.195761 
L 201.181514 89.279908 
L 202.602446 97.448203 
L 204.023378 97.448203 
L 205.44431 105.616497 
L 206.865242 95.406129 
L 208.286174 100.511313 
L 209.707106 102.553387 
L 211.128038 106.637534 
L 212.54897 94.385093 
L 213.969902 116.847902 
L 215.390834 113.784792 
L 216.811766 112.763755 
L 218.232698 118.889976 
L 219.65363 126.037234 
L 221.074562 123.99516 
L 222.495494 96.427166 
L 223.916426 112.763755 
L 225.337358 101.53235 
L 226.75829 94.385093 
L 228.179222 105.616497 
L 229.600154 102.553387 
L 232.442018 108.679608 
L 233.86295 102.553387 
L 235.283882 106.637534 
L 236.704814 100.511313 
L 238.125746 102.553387 
L 240.96761 108.679608 
L 242.388542 114.805829 
L 243.809474 125.016197 
L 245.230406 128.079307 
L 246.651338 129.100344 
L 248.07227 134.205528 
L 249.493202 137.268639 
L 250.914134 134.205528 
L 252.335066 143.39486 
L 253.755998 148.500044 
L 255.17693 159.731449 
L 256.597862 156.668338 
L 258.018794 158.710412 
L 259.439726 176.068038 
L 260.860658 168.92078 
L 262.28159 174.025964 
L 263.702522 180.152185 
L 265.123454 176.068038 
L 266.544386 175.047001 
L 267.965318 170.962854 
L 269.38625 168.92078 
L 270.807182 167.899743 
L 272.228114 150.542117 
L 273.649046 161.773522 
L 276.49091 174.025964 
L 277.911842 170.962854 
L 279.332774 184.236332 
L 280.753706 185.257369 
L 282.174638 182.194259 
L 283.59557 185.257369 
L 285.016502 190.362553 
L 286.437434 182.194259 
L 287.858366 193.425664 
L 289.279298 174.025964 
L 290.70023 160.752485 
L 292.121162 158.710412 
L 293.542094 163.815596 
L 294.963026 165.85767 
L 296.383958 165.85767 
L 297.80489 168.92078 
L 299.225822 168.92078 
L 300.646754 180.152185 
L 302.067686 178.110111 
L 303.488618 164.836633 
L 304.90955 168.92078 
L 306.330482 164.836633 
L 307.751414 163.815596 
L 309.172346 164.836633 
L 310.593279 168.92078 
L 313.435143 181.173222 
L 314.856075 182.194259 
L 316.277007 179.131148 
L 317.697939 177.089074 
L 320.539803 179.131148 
L 321.960735 188.320479 
L 323.381667 188.320479 
L 324.802599 206.699142 
L 326.223531 203.636032 
L 327.644463 201.593958 
L 329.065395 195.467737 
L 330.486327 193.425664 
L 331.907259 194.4467 
L 333.328191 190.362553 
L 334.749123 195.467737 
L 336.170055 194.4467 
L 337.590987 188.320479 
L 339.011919 190.362553 
L 340.432851 191.38359 
L 341.853783 184.236332 
L 343.274715 179.131148 
L 344.695647 182.194259 
L 346.116579 178.110111 
L 347.537511 181.173222 
L 348.958443 177.089074 
L 350.379375 184.236332 
L 351.800307 185.257369 
L 353.221239 184.236332 
L 354.642171 181.173222 
L 356.063103 183.215295 
L 357.484035 187.299443 
L 358.904967 186.278406 
L 360.325899 186.278406 
L 361.746831 182.194259 
L 363.167763 174.025964 
L 364.588695 170.962854 
L 366.009627 171.98389 
L 367.430559 175.047001 
L 368.851491 169.941817 
L 370.272423 169.941817 
L 371.693355 166.878706 
L 373.114287 157.689375 
L 374.535219 159.731449 
L 375.956151 155.647301 
L 377.377083 155.647301 
L 378.798015 151.563154 
L 380.218947 146.45797 
L 381.639879 138.289676 
L 383.060811 149.52108 
L 384.481743 156.668338 
L 385.902675 149.52108 
L 387.323607 141.352786 
L 388.744539 145.436933 
L 390.165471 136.247602 
L 391.586403 130.121381 
L 393.007335 116.847902 
L 394.428267 118.889976 
L 395.849199 122.974123 
L 397.270131 129.100344 
L 398.691063 128.079307 
L 400.111995 121.953086 
L 401.532927 122.974123 
L 402.953859 101.53235 
L 404.374791 96.427166 
L 405.795723 99.490277 
L 407.216655 81.111614 
L 408.637587 82.132651 
L 410.058519 88.258872 
L 411.479451 80.090577 
L 412.900383 72.943319 
L 414.321315 72.943319 
L 415.742247 76.00643 
L 417.163179 66.817099 
L 418.584111 81.111614 
L 420.005043 86.216798 
L 421.425975 93.364056 
L 422.846907 83.153688 
L 424.267839 85.195761 
L 425.688771 95.406129 
L 427.109703 90.300945 
L 428.530635 104.595461 
L 429.951567 116.847902 
L 431.372499 104.595461 
L 432.793431 86.216798 
L 434.214363 102.553387 
L 435.635295 97.448203 
L 437.056227 95.406129 
L 438.477159 104.595461 
L 442.739955 126.037234 
L 444.160887 123.99516 
L 445.581819 122.974123 
L 447.002751 130.121381 
L 448.423683 135.226565 
L 449.844615 129.100344 
L 451.265547 125.016197 
L 452.686479 125.016197 
L 454.107411 131.142418 
L 455.528343 140.331749 
L 456.949275 143.39486 
L 458.370207 135.226565 
L 459.791139 134.205528 
L 461.212071 128.079307 
L 462.633003 131.142418 
L 464.053935 129.100344 
L 465.474868 142.373823 
L 466.8958 138.289676 
L 468.316732 147.479007 
L 469.737664 160.752485 
L 471.158596 158.710412 
L 472.579528 157.689375 
L 474.00046 159.731449 
L 475.421392 154.626265 
L 478.263256 156.668338 
L 479.684188 143.39486 
L 481.10512 147.479007 
L 482.526052 136.247602 
L 483.946984 137.268639 
L 485.367916 132.163455 
L 488.20978 144.415896 
L 489.630712 135.226565 
L 491.051644 139.310712 
L 492.472576 147.479007 
L 493.893508 158.710412 
L 495.31444 149.52108 
L 496.735372 154.626265 
L 498.156304 150.542117 
L 499.577236 163.815596 
L 500.998168 169.941817 
L 502.4191 157.689375 
L 503.840032 165.85767 
L 505.260964 159.731449 
L 506.681896 166.878706 
L 508.102828 169.941817 
L 509.52376 157.689375 
L 510.944692 156.668338 
L 512.365624 152.584191 
L 513.786556 159.731449 
L 515.207488 158.710412 
L 516.62842 159.731449 
L 518.049352 164.836633 
L 519.470284 168.92078 
L 520.891216 178.110111 
L 522.312148 179.131148 
L 523.73308 177.089074 
L 525.154012 173.004927 
L 526.574944 187.299443 
L 527.995876 186.278406 
L 529.416808 173.004927 
L 530.83774 168.92078 
L 532.258672 184.236332 
L 533.679604 184.236332 
L 535.100536 180.152185 
L 536.521468 183.215295 
L 537.9424 177.089074 
L 539.363332 167.899743 
L 540.784264 161.773522 
L 542.205196 165.85767 
L 543.626128 152.584191 
L 545.04706 153.605228 
L 546.467992 171.98389 
L 547.888924 149.52108 
L 549.309856 138.289676 
L 550.730788 146.45797 
L 552.15172 135.226565 
L 553.572652 137.268639 
L 554.993584 134.205528 
L 556.414516 146.45797 
L 557.835448 142.373823 
L 559.25638 129.100344 
L 560.677312 122.974123 
L 563.519176 112.763755 
L 563.519176 112.763755 
" style="fill:none;stroke:#1f77b4;stroke-linecap:round;stroke-width:1.5;"/>
   </g>
   <g id="line2d_14">
    <path clip-path="url(#pbcf9e2b394)" d="M 56.246449 281.23483 
L 57.667381 281.23483 
L 59.088313 274.087572 
L 60.509245 274.087572 
L 61.930177 272.045498 
L 63.351109 261.83513 
L 64.772041 262.856167 
L 66.192973 258.77202 
L 71.876701 258.77202 
L 73.297633 259.793056 
L 74.718565 255.708909 
L 76.139497 257.750983 
L 77.560429 256.729946 
L 78.981361 252.645799 
L 80.402293 252.645799 
L 81.823225 247.540615 
L 83.244157 243.456467 
L 84.665089 243.456467 
L 86.086021 248.561651 
L 88.927885 248.561651 
L 90.348817 247.540615 
L 91.769749 242.435431 
L 93.190681 245.498541 
L 94.611613 251.624762 
L 96.032545 243.456467 
L 97.453477 236.30921 
L 98.874409 235.288173 
L 100.295341 226.098842 
L 101.716273 232.225062 
L 103.137205 230.182989 
L 104.558137 226.098842 
L 105.979069 216.90951 
L 107.400001 211.804326 
L 108.820933 208.741216 
L 110.241865 216.90951 
L 111.662797 216.90951 
L 114.504661 220.993657 
L 115.925593 216.90951 
L 117.346525 209.762253 
L 118.767457 206.699142 
L 120.188389 204.657068 
L 121.609321 205.678105 
L 123.030253 198.530848 
L 124.451185 198.530848 
L 125.872117 208.741216 
L 127.293049 210.783289 
L 128.713981 203.636032 
L 130.134913 203.636032 
L 132.976777 207.720179 
L 134.397709 213.8464 
L 135.818641 209.762253 
L 137.239573 206.699142 
L 138.660505 212.825363 
L 140.081437 203.636032 
L 141.502369 203.636032 
L 142.923301 201.593958 
L 144.344233 205.678105 
L 145.765165 199.551884 
L 147.186097 199.551884 
L 148.607029 194.4467 
L 150.027961 195.467737 
L 152.869825 193.425664 
L 154.290757 202.614995 
L 155.71169 205.678105 
L 157.132622 198.530848 
L 158.553554 203.636032 
L 159.974486 198.530848 
L 161.395418 192.404627 
L 162.81635 190.362553 
L 164.237282 189.341516 
L 165.658214 193.425664 
L 167.079146 190.362553 
L 168.500078 190.362553 
L 169.92101 184.236332 
L 171.341942 187.299443 
L 172.762874 185.257369 
L 174.183806 185.257369 
L 175.604738 175.047001 
L 177.02567 180.152185 
L 178.446602 187.299443 
L 179.867534 190.362553 
L 181.288466 181.173222 
L 182.709398 187.299443 
L 184.13033 195.467737 
L 185.551262 198.530848 
L 188.393126 196.488774 
L 189.814058 190.362553 
L 191.23499 193.425664 
L 192.655922 191.38359 
L 194.076854 195.467737 
L 195.497786 194.4467 
L 196.918718 195.467737 
L 198.33965 201.593958 
L 199.760582 210.783289 
L 201.181514 209.762253 
L 202.602446 205.678105 
L 204.023378 206.699142 
L 205.44431 210.783289 
L 206.865242 207.720179 
L 208.286174 205.678105 
L 209.707106 206.699142 
L 211.128038 206.699142 
L 212.54897 204.657068 
L 213.969902 213.8464 
L 215.390834 213.8464 
L 216.811766 212.825363 
L 218.232698 216.90951 
L 219.65363 218.951584 
L 221.074562 213.8464 
L 222.495494 206.699142 
L 223.916426 209.762253 
L 225.337358 201.593958 
L 226.75829 205.678105 
L 228.179222 213.8464 
L 229.600154 216.90951 
L 231.021086 214.867437 
L 232.442018 214.867437 
L 233.86295 216.90951 
L 235.283882 209.762253 
L 236.704814 211.804326 
L 238.125746 214.867437 
L 239.546678 214.867437 
L 240.96761 209.762253 
L 242.388542 209.762253 
L 243.809474 215.888473 
L 245.230406 215.888473 
L 246.651338 216.90951 
L 248.07227 220.993657 
L 249.493202 223.035731 
L 250.914134 224.056768 
L 252.335066 227.119878 
L 253.755998 232.225062 
L 255.17693 231.204026 
L 256.597862 227.119878 
L 258.018794 228.140915 
L 259.439726 235.288173 
L 260.860658 235.288173 
L 262.28159 234.267136 
L 263.702522 239.37232 
L 265.123454 238.351283 
L 266.544386 236.30921 
L 267.965318 232.225062 
L 269.38625 234.267136 
L 270.807182 234.267136 
L 272.228114 230.182989 
L 273.649046 237.330247 
L 275.069978 237.330247 
L 276.49091 243.456467 
L 277.911842 240.393357 
L 279.332774 244.477504 
L 280.753706 244.477504 
L 282.174638 245.498541 
L 283.59557 241.414394 
L 286.437434 241.414394 
L 287.858366 246.519578 
L 289.279298 238.351283 
L 290.70023 240.393357 
L 292.121162 235.288173 
L 293.542094 237.330247 
L 294.963026 236.30921 
L 296.383958 237.330247 
L 297.80489 234.267136 
L 299.225822 237.330247 
L 300.646754 239.37232 
L 302.067686 238.351283 
L 303.488618 232.225062 
L 304.90955 234.267136 
L 306.330482 229.161952 
L 307.751414 230.182989 
L 309.172346 236.30921 
L 310.593279 244.477504 
L 312.014211 239.37232 
L 313.435143 239.37232 
L 314.856075 240.393357 
L 316.277007 238.351283 
L 319.118871 240.393357 
L 320.539803 239.37232 
L 321.960735 241.414394 
L 323.381667 248.561651 
L 324.802599 247.540615 
L 326.223531 241.414394 
L 327.644463 242.435431 
L 329.065395 241.414394 
L 330.486327 238.351283 
L 331.907259 236.30921 
L 333.328191 236.30921 
L 334.749123 240.393357 
L 336.170055 242.435431 
L 337.590987 241.414394 
L 340.432851 241.414394 
L 341.853783 240.393357 
L 343.274715 238.351283 
L 344.695647 240.393357 
L 346.116579 241.414394 
L 347.537511 239.37232 
L 348.958443 238.351283 
L 350.379375 243.456467 
L 351.800307 247.540615 
L 353.221239 244.477504 
L 354.642171 247.540615 
L 356.063103 247.540615 
L 357.484035 245.498541 
L 358.904967 248.561651 
L 360.325899 243.456467 
L 361.746831 240.393357 
L 363.167763 239.37232 
L 364.588695 235.288173 
L 368.851491 235.288173 
L 371.693355 231.204026 
L 373.114287 227.119878 
L 374.535219 234.267136 
L 375.956151 234.267136 
L 377.377083 233.246099 
L 378.798015 231.204026 
L 380.218947 227.119878 
L 381.639879 228.140915 
L 384.481743 226.098842 
L 385.902675 224.056768 
L 387.323607 220.993657 
L 388.744539 225.077805 
L 390.165471 212.825363 
L 391.586403 209.762253 
L 393.007335 211.804326 
L 394.428267 210.783289 
L 395.849199 200.572921 
L 397.270131 210.783289 
L 398.691063 209.762253 
L 400.111995 212.825363 
L 401.532927 211.804326 
L 402.953859 201.593958 
L 404.374791 199.551884 
L 405.795723 199.551884 
L 407.216655 186.278406 
L 408.637587 191.38359 
L 410.058519 198.530848 
L 411.479451 193.425664 
L 412.900383 194.4467 
L 414.321315 194.4467 
L 415.742247 196.488774 
L 417.163179 195.467737 
L 418.584111 202.614995 
L 420.005043 203.636032 
L 421.425975 196.488774 
L 422.846907 192.404627 
L 424.267839 194.4467 
L 425.688771 200.572921 
L 427.109703 202.614995 
L 428.530635 200.572921 
L 429.951567 211.804326 
L 431.372499 203.636032 
L 432.793431 203.636032 
L 434.214363 198.530848 
L 435.635295 192.404627 
L 437.056227 196.488774 
L 438.477159 196.488774 
L 439.898091 203.636032 
L 441.319023 206.699142 
L 442.739955 203.636032 
L 444.160887 202.614995 
L 445.581819 206.699142 
L 447.002751 212.825363 
L 448.423683 208.741216 
L 449.844615 205.678105 
L 451.265547 207.720179 
L 452.686479 200.572921 
L 454.107411 207.720179 
L 455.528343 211.804326 
L 456.949275 211.804326 
L 458.370207 200.572921 
L 459.791139 211.804326 
L 461.212071 211.804326 
L 462.633003 216.90951 
L 464.053935 213.8464 
L 465.474868 211.804326 
L 466.8958 213.8464 
L 468.316732 214.867437 
L 469.737664 217.930547 
L 471.158596 219.972621 
L 472.579528 220.993657 
L 474.00046 223.035731 
L 475.421392 220.993657 
L 476.842324 216.90951 
L 478.263256 214.867437 
L 479.684188 208.741216 
L 481.10512 209.762253 
L 482.526052 202.614995 
L 483.946984 200.572921 
L 485.367916 196.488774 
L 486.788848 198.530848 
L 488.20978 201.593958 
L 491.051644 205.678105 
L 492.472576 206.699142 
L 493.893508 209.762253 
L 495.31444 207.720179 
L 496.735372 210.783289 
L 498.156304 203.636032 
L 499.577236 204.657068 
L 500.998168 207.720179 
L 502.4191 206.699142 
L 503.840032 213.8464 
L 508.102828 216.90951 
L 509.52376 212.825363 
L 510.944692 206.699142 
L 512.365624 212.825363 
L 513.786556 208.741216 
L 515.207488 213.8464 
L 516.62842 215.888473 
L 518.049352 222.014694 
L 519.470284 226.098842 
L 520.891216 228.140915 
L 522.312148 225.077805 
L 523.73308 226.098842 
L 525.154012 223.035731 
L 526.574944 233.246099 
L 527.995876 234.267136 
L 529.416808 218.951584 
L 530.83774 224.056768 
L 532.258672 222.014694 
L 533.679604 223.035731 
L 535.100536 217.930547 
L 536.521468 222.014694 
L 537.9424 224.056768 
L 539.363332 220.993657 
L 540.784264 223.035731 
L 542.205196 230.182989 
L 545.04706 217.930547 
L 546.467992 225.077805 
L 547.888924 218.951584 
L 549.309856 214.867437 
L 550.730788 217.930547 
L 552.15172 213.8464 
L 553.572652 213.8464 
L 554.993584 214.867437 
L 556.414516 223.035731 
L 557.835448 209.762253 
L 559.25638 213.8464 
L 560.677312 216.90951 
L 562.098244 207.720179 
L 563.519176 203.636032 
L 563.519176 203.636032 
" style="fill:none;stroke:#ff7f0e;stroke-linecap:round;stroke-width:1.5;"/>
   </g>
   <g id="patch_3">
    <path d="M 30.882812 293.589375 
L 30.882812 21.789375 
" style="fill:none;stroke:#cccccc;stroke-linecap:square;stroke-linejoin:miter;stroke-width:0.8;"/>
   </g>
   <g id="patch_4">
    <path d="M 588.882812 293.589375 
L 588.882812 21.789375 
" style="fill:none;stroke:#cccccc;stroke-linecap:square;stroke-linejoin:miter;stroke-width:0.8;"/>
   </g>
   <g id="patch_5">
    <path d="M 30.882812 293.589375 
L 588.882812 293.589375 
" style="fill:none;stroke:#cccccc;stroke-linecap:square;stroke-linejoin:miter;stroke-width:0.8;"/>
   </g>
   <g id="patch_6">
    <path d="M 30.882812 21.789375 
L 588.882812 21.789375 
" style="fill:none;stroke:#cccccc;stroke-linecap:square;stroke-linejoin:miter;stroke-width:0.8;"/>
   </g>
   <g id="text_13">
    <!-- Internações -->
    <g style="fill:#262626;" transform="translate(278.531875 15.789375)scale(0.12 -0.12)">
     <defs>
      <path d="M 9.328125 0 
L 9.328125 71.578125 
L 18.796875 71.578125 
L 18.796875 0 
z
" id="ArialMT-73"/>
      <path d="M 6.59375 0 
L 6.59375 51.859375 
L 14.5 51.859375 
L 14.5 44.484375 
Q 20.21875 53.03125 31 53.03125 
Q 35.6875 53.03125 39.625 51.34375 
Q 43.5625 49.65625 45.515625 46.921875 
Q 47.46875 44.1875 48.25 40.4375 
Q 48.734375 37.984375 48.734375 31.890625 
L 48.734375 0 
L 39.9375 0 
L 39.9375 31.546875 
Q 39.9375 36.921875 38.90625 39.578125 
Q 37.890625 42.234375 35.28125 43.8125 
Q 32.671875 45.40625 29.15625 45.40625 
Q 23.53125 45.40625 19.453125 41.84375 
Q 15.375 38.28125 15.375 28.328125 
L 15.375 0 
z
" id="ArialMT-110"/>
      <path d="M 25.78125 7.859375 
L 27.046875 0.09375 
Q 23.34375 -0.6875 20.40625 -0.6875 
Q 15.625 -0.6875 12.984375 0.828125 
Q 10.359375 2.34375 9.28125 4.8125 
Q 8.203125 7.28125 8.203125 15.1875 
L 8.203125 45.015625 
L 1.765625 45.015625 
L 1.765625 51.859375 
L 8.203125 51.859375 
L 8.203125 64.703125 
L 16.9375 69.96875 
L 16.9375 51.859375 
L 25.78125 51.859375 
L 25.78125 45.015625 
L 16.9375 45.015625 
L 16.9375 14.703125 
Q 16.9375 10.9375 17.40625 9.859375 
Q 17.875 8.796875 18.921875 8.15625 
Q 19.96875 7.515625 21.921875 7.515625 
Q 23.390625 7.515625 25.78125 7.859375 
z
" id="ArialMT-116"/>
      <path d="M 42.09375 16.703125 
L 51.171875 15.578125 
Q 49.03125 7.625 43.21875 3.21875 
Q 37.40625 -1.171875 28.375 -1.171875 
Q 17 -1.171875 10.328125 5.828125 
Q 3.65625 12.84375 3.65625 25.484375 
Q 3.65625 38.578125 10.390625 45.796875 
Q 17.140625 53.03125 27.875 53.03125 
Q 38.28125 53.03125 44.875 45.953125 
Q 51.46875 38.875 51.46875 26.03125 
Q 51.46875 25.25 51.421875 23.6875 
L 12.75 23.6875 
Q 13.234375 15.140625 17.578125 10.59375 
Q 21.921875 6.0625 28.421875 6.0625 
Q 33.25 6.0625 36.671875 8.59375 
Q 40.09375 11.140625 42.09375 16.703125 
z
M 13.234375 30.90625 
L 42.1875 30.90625 
Q 41.609375 37.453125 38.875 40.71875 
Q 34.671875 45.796875 27.984375 45.796875 
Q 21.921875 45.796875 17.796875 41.75 
Q 13.671875 37.703125 13.234375 30.90625 
z
" id="ArialMT-101"/>
      <path d="M 6.5 0 
L 6.5 51.859375 
L 14.40625 51.859375 
L 14.40625 44 
Q 17.4375 49.515625 20 51.265625 
Q 22.5625 53.03125 25.640625 53.03125 
Q 30.078125 53.03125 34.671875 50.203125 
L 31.640625 42.046875 
Q 28.421875 43.953125 25.203125 43.953125 
Q 22.3125 43.953125 20.015625 42.21875 
Q 17.71875 40.484375 16.75 37.40625 
Q 15.28125 32.71875 15.28125 27.15625 
L 15.28125 0 
z
" id="ArialMT-114"/>
      <path d="M 40.4375 6.390625 
Q 35.546875 2.25 31.03125 0.53125 
Q 26.515625 -1.171875 21.34375 -1.171875 
Q 12.796875 -1.171875 8.203125 3 
Q 3.609375 7.171875 3.609375 13.671875 
Q 3.609375 17.484375 5.34375 20.625 
Q 7.078125 23.78125 9.890625 25.6875 
Q 12.703125 27.59375 16.21875 28.5625 
Q 18.796875 29.25 24.03125 29.890625 
Q 34.671875 31.15625 39.703125 32.90625 
Q 39.75 34.71875 39.75 35.203125 
Q 39.75 40.578125 37.25 42.78125 
Q 33.890625 45.75 27.25 45.75 
Q 21.046875 45.75 18.09375 43.578125 
Q 15.140625 41.40625 13.71875 35.890625 
L 5.125 37.0625 
Q 6.296875 42.578125 8.984375 45.96875 
Q 11.671875 49.359375 16.75 51.1875 
Q 21.828125 53.03125 28.515625 53.03125 
Q 35.15625 53.03125 39.296875 51.46875 
Q 43.453125 49.90625 45.40625 47.53125 
Q 47.359375 45.171875 48.140625 41.546875 
Q 48.578125 39.3125 48.578125 33.453125 
L 48.578125 21.734375 
Q 48.578125 9.46875 49.140625 6.21875 
Q 49.703125 2.984375 51.375 0 
L 42.1875 0 
Q 40.828125 2.734375 40.4375 6.390625 
z
M 39.703125 26.03125 
Q 34.90625 24.078125 25.34375 22.703125 
Q 19.921875 21.921875 17.671875 20.9375 
Q 15.4375 19.96875 14.203125 18.09375 
Q 12.984375 16.21875 12.984375 13.921875 
Q 12.984375 10.40625 15.640625 8.0625 
Q 18.3125 5.71875 23.4375 5.71875 
Q 28.515625 5.71875 32.46875 7.9375 
Q 36.421875 10.15625 38.28125 14.015625 
Q 39.703125 17 39.703125 22.796875 
z
" id="ArialMT-97"/>
      <path d="M 40.4375 19 
L 49.078125 17.875 
Q 47.65625 8.9375 41.8125 3.875 
Q 35.984375 -1.171875 27.484375 -1.171875 
Q 16.84375 -1.171875 10.375 5.78125 
Q 3.90625 12.75 3.90625 25.734375 
Q 3.90625 34.125 6.6875 40.421875 
Q 9.46875 46.734375 15.15625 49.875 
Q 20.84375 53.03125 27.546875 53.03125 
Q 35.984375 53.03125 41.359375 48.75 
Q 46.734375 44.484375 48.25 36.625 
L 39.703125 35.296875 
Q 38.484375 40.53125 35.375 43.15625 
Q 32.28125 45.796875 27.875 45.796875 
Q 21.234375 45.796875 17.078125 41.03125 
Q 12.9375 36.28125 12.9375 25.984375 
Q 12.9375 15.53125 16.9375 10.796875 
Q 20.953125 6.0625 27.390625 6.0625 
Q 32.5625 6.0625 36.03125 9.234375 
Q 39.5 12.40625 40.4375 19 
z
M 20.0625 -6.53125 
L 22.609375 2.109375 
L 29.15625 2.109375 
L 27.546875 -3.125 
Q 31.6875 -3.609375 33.78125 -5.671875 
Q 35.890625 -7.75 35.890625 -10.296875 
Q 35.890625 -13.953125 32.375 -16.765625 
Q 28.859375 -19.578125 21.78125 -19.578125 
Q 17.78125 -19.578125 14.75 -18.984375 
L 15.28125 -13.28125 
Q 18.40625 -13.46875 19.875 -13.46875 
Q 24.46875 -13.46875 26.3125 -12.203125 
Q 27.734375 -11.21875 27.734375 -9.8125 
Q 27.734375 -8.921875 27.171875 -8.234375 
Q 26.609375 -7.5625 25.09375 -7.0625 
Q 23.578125 -6.578125 20.0625 -6.53125 
z
" id="ArialMT-231"/>
      <path d="M 3.328125 25.921875 
Q 3.328125 40.328125 11.328125 47.265625 
Q 18.015625 53.03125 27.640625 53.03125 
Q 38.328125 53.03125 45.109375 46.015625 
Q 51.90625 39.015625 51.90625 26.65625 
Q 51.90625 16.65625 48.90625 10.90625 
Q 45.90625 5.171875 40.15625 2 
Q 34.421875 -1.171875 27.640625 -1.171875 
Q 16.75 -1.171875 10.03125 5.8125 
Q 3.328125 12.796875 3.328125 25.921875 
z
M 12.359375 25.921875 
Q 12.359375 15.96875 16.703125 11.015625 
Q 21.046875 6.0625 27.640625 6.0625 
Q 34.1875 6.0625 38.53125 11.03125 
Q 42.875 16.015625 42.875 26.21875 
Q 42.875 35.84375 38.5 40.796875 
Q 34.125 45.75 27.640625 45.75 
Q 21.046875 45.75 16.703125 40.8125 
Q 12.359375 35.890625 12.359375 25.921875 
z
M 11.28125 59.515625 
Q 11.234375 64.59375 14.0625 67.625 
Q 16.84375 70.65625 21.1875 70.65625 
Q 24.21875 70.65625 29.4375 68.015625 
Q 32.328125 66.546875 34.03125 66.546875 
Q 35.59375 66.546875 36.421875 67.40625 
Q 37.25 68.265625 37.59375 70.796875 
L 43.953125 70.796875 
Q 43.796875 65.234375 41.140625 62.453125 
Q 38.484375 59.671875 34.375 59.671875 
Q 31.296875 59.671875 26.265625 62.40625 
Q 23 64.15625 21.484375 64.15625 
Q 19.828125 64.15625 18.796875 62.984375 
Q 17.71875 61.8125 17.78125 59.515625 
z
" id="ArialMT-245"/>
      <path d="M 3.078125 15.484375 
L 11.765625 16.84375 
Q 12.5 11.625 15.84375 8.84375 
Q 19.1875 6.0625 25.203125 6.0625 
Q 31.25 6.0625 34.171875 8.515625 
Q 37.109375 10.984375 37.109375 14.3125 
Q 37.109375 17.28125 34.515625 19 
Q 32.71875 20.171875 25.53125 21.96875 
Q 15.875 24.421875 12.140625 26.203125 
Q 8.40625 27.984375 6.46875 31.125 
Q 4.546875 34.28125 4.546875 38.09375 
Q 4.546875 41.546875 6.125 44.5 
Q 7.71875 47.46875 10.453125 49.421875 
Q 12.5 50.921875 16.03125 51.96875 
Q 19.578125 53.03125 23.640625 53.03125 
Q 29.734375 53.03125 34.34375 51.265625 
Q 38.96875 49.515625 41.15625 46.5 
Q 43.359375 43.5 44.1875 38.484375 
L 35.59375 37.3125 
Q 35.015625 41.3125 32.203125 43.546875 
Q 29.390625 45.796875 24.265625 45.796875 
Q 18.21875 45.796875 15.625 43.796875 
Q 13.03125 41.796875 13.03125 39.109375 
Q 13.03125 37.40625 14.109375 36.03125 
Q 15.1875 34.625 17.484375 33.6875 
Q 18.796875 33.203125 25.25 31.453125 
Q 34.578125 28.953125 38.25 27.359375 
Q 41.9375 25.78125 44.03125 22.75 
Q 46.140625 19.734375 46.140625 15.234375 
Q 46.140625 10.84375 43.578125 6.953125 
Q 41.015625 3.078125 36.171875 0.953125 
Q 31.34375 -1.171875 25.25 -1.171875 
Q 15.140625 -1.171875 9.84375 3.03125 
Q 4.546875 7.234375 3.078125 15.484375 
z
" id="ArialMT-115"/>
     </defs>
     <use xlink:href="#ArialMT-73"/>
     <use x="27.783203" xlink:href="#ArialMT-110"/>
     <use x="83.398438" xlink:href="#ArialMT-116"/>
     <use x="111.181641" xlink:href="#ArialMT-101"/>
     <use x="166.796875" xlink:href="#ArialMT-114"/>
     <use x="200.097656" xlink:href="#ArialMT-110"/>
     <use x="255.712891" xlink:href="#ArialMT-97"/>
     <use x="311.328125" xlink:href="#ArialMT-231"/>
     <use x="361.328125" xlink:href="#ArialMT-245"/>
     <use x="416.943359" xlink:href="#ArialMT-101"/>
     <use x="472.558594" xlink:href="#ArialMT-115"/>
    </g>
   </g>
   <g id="legend_1">
    <g id="patch_7">
     <path d="M 497.63125 58.08 
L 581.882812 58.08 
Q 583.882812 58.08 583.882812 56.08 
L 583.882812 28.789375 
Q 583.882812 26.789375 581.882812 26.789375 
L 497.63125 26.789375 
Q 495.63125 26.789375 495.63125 28.789375 
L 495.63125 56.08 
Q 495.63125 58.08 497.63125 58.08 
z
" style="fill:#ffffff;opacity:0.8;stroke:#cccccc;stroke-linejoin:miter;"/>
    </g>
    <g id="line2d_15">
     <path d="M 499.63125 34.447187 
L 519.63125 34.447187 
" style="fill:none;stroke:#1f77b4;stroke-linecap:round;stroke-width:1.5;"/>
    </g>
    <g id="line2d_16"/>
    <g id="text_14">
     <!-- Internações -->
     <g style="fill:#262626;" transform="translate(527.63125 37.947187)scale(0.1 -0.1)">
      <use xlink:href="#ArialMT-73"/>
      <use x="27.783203" xlink:href="#ArialMT-110"/>
      <use x="83.398438" xlink:href="#ArialMT-116"/>
      <use x="111.181641" xlink:href="#ArialMT-101"/>
      <use x="166.796875" xlink:href="#ArialMT-114"/>
      <use x="200.097656" xlink:href="#ArialMT-110"/>
      <use x="255.712891" xlink:href="#ArialMT-97"/>
      <use x="311.328125" xlink:href="#ArialMT-231"/>
      <use x="361.328125" xlink:href="#ArialMT-245"/>
      <use x="416.943359" xlink:href="#ArialMT-101"/>
      <use x="472.558594" xlink:href="#ArialMT-115"/>
     </g>
    </g>
    <g id="line2d_17">
     <path d="M 499.63125 48.5925 
L 519.63125 48.5925 
" style="fill:none;stroke:#ff7f0e;stroke-linecap:round;stroke-width:1.5;"/>
    </g>
    <g id="line2d_18"/>
    <g id="text_15">
     <!-- UTI -->
     <g style="fill:#262626;" transform="translate(527.63125 52.0925)scale(0.1 -0.1)">
      <defs>
       <path d="M 54.6875 71.578125 
L 64.15625 71.578125 
L 64.15625 30.21875 
Q 64.15625 19.4375 61.71875 13.078125 
Q 59.28125 6.734375 52.90625 2.75 
Q 46.53125 -1.21875 36.1875 -1.21875 
Q 26.125 -1.21875 19.71875 2.25 
Q 13.328125 5.71875 10.59375 12.28125 
Q 7.859375 18.84375 7.859375 30.21875 
L 7.859375 71.578125 
L 17.328125 71.578125 
L 17.328125 30.28125 
Q 17.328125 20.953125 19.0625 16.53125 
Q 20.796875 12.109375 25.015625 9.71875 
Q 29.25 7.328125 35.359375 7.328125 
Q 45.796875 7.328125 50.234375 12.0625 
Q 54.6875 16.796875 54.6875 30.28125 
z
" id="ArialMT-85"/>
       <path d="M 25.921875 0 
L 25.921875 63.140625 
L 2.34375 63.140625 
L 2.34375 71.578125 
L 59.078125 71.578125 
L 59.078125 63.140625 
L 35.40625 63.140625 
L 35.40625 0 
z
" id="ArialMT-84"/>
      </defs>
      <use xlink:href="#ArialMT-85"/>
      <use x="72.216797" xlink:href="#ArialMT-84"/>
      <use x="133.300781" xlink:href="#ArialMT-73"/>
     </g>
    </g>
   </g>
  </g>
 </g>
 <defs>
  <clipPath id="pbcf9e2b394">
   <rect height="271.8" width="558" x="30.882812" y="21.789375"/>
  </clipPath>
 </defs>
</svg>
