<?xml version="1.0" encoding="utf-8" standalone="no"?>
<!DOCTYPE svg PUBLIC "-//W3C//DTD SVG 1.1//EN"
  "http://www.w3.org/Graphics/SVG/1.1/DTD/svg11.dtd">
<svg height="322.334688pt" version="1.1" viewBox="0 0 596.082813 322.334688" width="596.082813pt" xmlns="http://www.w3.org/2000/svg" xmlns:xlink="http://www.w3.org/1999/xlink">
 <metadata>
  <rdf:RDF xmlns:cc="http://creativecommons.org/ns#" xmlns:dc="http://purl.org/dc/elements/1.1/" xmlns:rdf="http://www.w3.org/1999/02/22-rdf-syntax-ns#">
   <cc:Work>
    <dc:type rdf:resource="http://purl.org/dc/dcmitype/StillImage"/>
    <dc:date>2021-05-10T18:29:39.636155</dc:date>
    <dc:format>image/svg+xml</dc:format>
    <dc:creator>
     <cc:Agent>
      <dc:title>Matplotlib v3.4.1, https://matplotlib.org/</dc:title>
     </cc:Agent>
    </dc:creator>
   </cc:Work>
  </rdf:RDF>
 </metadata>
 <defs>
  <style type="text/css">*{stroke-linecap:butt;stroke-linejoin:round;}</style>
 </defs>
 <g id="figure_1">
  <g id="patch_1">
   <path d="M 0 322.334688 
L 596.082813 322.334688 
L 596.082813 0 
L 0 0 
z
" style="fill:#ffffff;"/>
  </g>
  <g id="axes_1">
   <g id="patch_2">
    <path d="M 30.882812 298.989375 
L 588.882812 298.989375 
L 588.882812 21.789375 
L 30.882812 21.789375 
z
" style="fill:#ffffff;"/>
   </g>
   <g id="matplotlib.axis_1">
    <g id="xtick_1">
     <g id="line2d_1">
      <path clip-path="url(#pbe86feb480)" d="M 34.349784 298.989375 
L 34.349784 21.789375 
" style="fill:none;stroke:#cccccc;stroke-linecap:round;stroke-width:0.8;"/>
     </g>
     <g id="text_1">
      <!-- 2020-03 -->
      <g style="fill:#262626;" transform="translate(16.002128 313.147188)scale(0.1 -0.1)">
       <defs>
        <path d="M 3222 541 
L 3222 0 
L 194 0 
Q 188 203 259 391 
Q 375 700 629 1000 
Q 884 1300 1366 1694 
Q 2113 2306 2375 2664 
Q 2638 3022 2638 3341 
Q 2638 3675 2398 3904 
Q 2159 4134 1775 4134 
Q 1369 4134 1125 3890 
Q 881 3647 878 3216 
L 300 3275 
Q 359 3922 746 4261 
Q 1134 4600 1788 4600 
Q 2447 4600 2831 4234 
Q 3216 3869 3216 3328 
Q 3216 3053 3103 2787 
Q 2991 2522 2730 2228 
Q 2469 1934 1863 1422 
Q 1356 997 1212 845 
Q 1069 694 975 541 
L 3222 541 
z
" id="ArialMT-32" transform="scale(0.015625)"/>
        <path d="M 266 2259 
Q 266 3072 433 3567 
Q 600 4063 929 4331 
Q 1259 4600 1759 4600 
Q 2128 4600 2406 4451 
Q 2684 4303 2865 4023 
Q 3047 3744 3150 3342 
Q 3253 2941 3253 2259 
Q 3253 1453 3087 958 
Q 2922 463 2592 192 
Q 2263 -78 1759 -78 
Q 1097 -78 719 397 
Q 266 969 266 2259 
z
M 844 2259 
Q 844 1131 1108 757 
Q 1372 384 1759 384 
Q 2147 384 2411 759 
Q 2675 1134 2675 2259 
Q 2675 3391 2411 3762 
Q 2147 4134 1753 4134 
Q 1366 4134 1134 3806 
Q 844 3388 844 2259 
z
" id="ArialMT-30" transform="scale(0.015625)"/>
        <path d="M 203 1375 
L 203 1941 
L 1931 1941 
L 1931 1375 
L 203 1375 
z
" id="ArialMT-2d" transform="scale(0.015625)"/>
        <path d="M 269 1209 
L 831 1284 
Q 928 806 1161 595 
Q 1394 384 1728 384 
Q 2125 384 2398 659 
Q 2672 934 2672 1341 
Q 2672 1728 2419 1979 
Q 2166 2231 1775 2231 
Q 1616 2231 1378 2169 
L 1441 2663 
Q 1497 2656 1531 2656 
Q 1891 2656 2178 2843 
Q 2466 3031 2466 3422 
Q 2466 3731 2256 3934 
Q 2047 4138 1716 4138 
Q 1388 4138 1169 3931 
Q 950 3725 888 3313 
L 325 3413 
Q 428 3978 793 4289 
Q 1159 4600 1703 4600 
Q 2078 4600 2393 4439 
Q 2709 4278 2876 4000 
Q 3044 3722 3044 3409 
Q 3044 3113 2884 2869 
Q 2725 2625 2413 2481 
Q 2819 2388 3044 2092 
Q 3269 1797 3269 1353 
Q 3269 753 2831 336 
Q 2394 -81 1725 -81 
Q 1122 -81 723 278 
Q 325 638 269 1209 
z
" id="ArialMT-33" transform="scale(0.015625)"/>
       </defs>
       <use xlink:href="#ArialMT-32"/>
       <use x="55.615234" xlink:href="#ArialMT-30"/>
       <use x="111.230469" xlink:href="#ArialMT-32"/>
       <use x="166.845703" xlink:href="#ArialMT-30"/>
       <use x="222.460938" xlink:href="#ArialMT-2d"/>
       <use x="255.761719" xlink:href="#ArialMT-30"/>
       <use x="311.376953" xlink:href="#ArialMT-33"/>
      </g>
     </g>
    </g>
    <g id="xtick_2">
     <g id="line2d_2">
      <path clip-path="url(#pbe86feb480)" d="M 108.555147 298.989375 
L 108.555147 21.789375 
" style="fill:none;stroke:#cccccc;stroke-linecap:round;stroke-width:0.8;"/>
     </g>
     <g id="text_2">
      <!-- 2020-05 -->
      <g style="fill:#262626;" transform="translate(90.207491 313.147188)scale(0.1 -0.1)">
       <defs>
        <path d="M 266 1200 
L 856 1250 
Q 922 819 1161 601 
Q 1400 384 1738 384 
Q 2144 384 2425 690 
Q 2706 997 2706 1503 
Q 2706 1984 2436 2262 
Q 2166 2541 1728 2541 
Q 1456 2541 1237 2417 
Q 1019 2294 894 2097 
L 366 2166 
L 809 4519 
L 3088 4519 
L 3088 3981 
L 1259 3981 
L 1013 2750 
Q 1425 3038 1878 3038 
Q 2478 3038 2890 2622 
Q 3303 2206 3303 1553 
Q 3303 931 2941 478 
Q 2500 -78 1738 -78 
Q 1113 -78 717 272 
Q 322 622 266 1200 
z
" id="ArialMT-35" transform="scale(0.015625)"/>
       </defs>
       <use xlink:href="#ArialMT-32"/>
       <use x="55.615234" xlink:href="#ArialMT-30"/>
       <use x="111.230469" xlink:href="#ArialMT-32"/>
       <use x="166.845703" xlink:href="#ArialMT-30"/>
       <use x="222.460938" xlink:href="#ArialMT-2d"/>
       <use x="255.761719" xlink:href="#ArialMT-30"/>
       <use x="311.376953" xlink:href="#ArialMT-35"/>
      </g>
     </g>
    </g>
    <g id="xtick_3">
     <g id="line2d_3">
      <path clip-path="url(#pbe86feb480)" d="M 182.76051 298.989375 
L 182.76051 21.789375 
" style="fill:none;stroke:#cccccc;stroke-linecap:round;stroke-width:0.8;"/>
     </g>
     <g id="text_3">
      <!-- 2020-07 -->
      <g style="fill:#262626;" transform="translate(164.412854 313.147188)scale(0.1 -0.1)">
       <defs>
        <path d="M 303 3981 
L 303 4522 
L 3269 4522 
L 3269 4084 
Q 2831 3619 2401 2847 
Q 1972 2075 1738 1259 
Q 1569 684 1522 0 
L 944 0 
Q 953 541 1156 1306 
Q 1359 2072 1739 2783 
Q 2119 3494 2547 3981 
L 303 3981 
z
" id="ArialMT-37" transform="scale(0.015625)"/>
       </defs>
       <use xlink:href="#ArialMT-32"/>
       <use x="55.615234" xlink:href="#ArialMT-30"/>
       <use x="111.230469" xlink:href="#ArialMT-32"/>
       <use x="166.845703" xlink:href="#ArialMT-30"/>
       <use x="222.460938" xlink:href="#ArialMT-2d"/>
       <use x="255.761719" xlink:href="#ArialMT-30"/>
       <use x="311.376953" xlink:href="#ArialMT-37"/>
      </g>
     </g>
    </g>
    <g id="xtick_4">
     <g id="line2d_4">
      <path clip-path="url(#pbe86feb480)" d="M 258.182355 298.989375 
L 258.182355 21.789375 
" style="fill:none;stroke:#cccccc;stroke-linecap:round;stroke-width:0.8;"/>
     </g>
     <g id="text_4">
      <!-- 2020-09 -->
      <g style="fill:#262626;" transform="translate(239.834698 313.147188)scale(0.1 -0.1)">
       <defs>
        <path d="M 350 1059 
L 891 1109 
Q 959 728 1153 556 
Q 1347 384 1650 384 
Q 1909 384 2104 503 
Q 2300 622 2425 820 
Q 2550 1019 2634 1356 
Q 2719 1694 2719 2044 
Q 2719 2081 2716 2156 
Q 2547 1888 2255 1720 
Q 1963 1553 1622 1553 
Q 1053 1553 659 1965 
Q 266 2378 266 3053 
Q 266 3750 677 4175 
Q 1088 4600 1706 4600 
Q 2153 4600 2523 4359 
Q 2894 4119 3086 3673 
Q 3278 3228 3278 2384 
Q 3278 1506 3087 986 
Q 2897 466 2520 194 
Q 2144 -78 1638 -78 
Q 1100 -78 759 220 
Q 419 519 350 1059 
z
M 2653 3081 
Q 2653 3566 2395 3850 
Q 2138 4134 1775 4134 
Q 1400 4134 1122 3828 
Q 844 3522 844 3034 
Q 844 2597 1108 2323 
Q 1372 2050 1759 2050 
Q 2150 2050 2401 2323 
Q 2653 2597 2653 3081 
z
" id="ArialMT-39" transform="scale(0.015625)"/>
       </defs>
       <use xlink:href="#ArialMT-32"/>
       <use x="55.615234" xlink:href="#ArialMT-30"/>
       <use x="111.230469" xlink:href="#ArialMT-32"/>
       <use x="166.845703" xlink:href="#ArialMT-30"/>
       <use x="222.460938" xlink:href="#ArialMT-2d"/>
       <use x="255.761719" xlink:href="#ArialMT-30"/>
       <use x="311.376953" xlink:href="#ArialMT-39"/>
      </g>
     </g>
    </g>
    <g id="xtick_5">
     <g id="line2d_5">
      <path clip-path="url(#pbe86feb480)" d="M 332.387718 298.989375 
L 332.387718 21.789375 
" style="fill:none;stroke:#cccccc;stroke-linecap:round;stroke-width:0.8;"/>
     </g>
     <g id="text_5">
      <!-- 2020-11 -->
      <g style="fill:#262626;" transform="translate(314.408811 313.147188)scale(0.1 -0.1)">
       <defs>
        <path d="M 2384 0 
L 1822 0 
L 1822 3584 
Q 1619 3391 1289 3197 
Q 959 3003 697 2906 
L 697 3450 
Q 1169 3672 1522 3987 
Q 1875 4303 2022 4600 
L 2384 4600 
L 2384 0 
z
" id="ArialMT-31" transform="scale(0.015625)"/>
       </defs>
       <use xlink:href="#ArialMT-32"/>
       <use x="55.615234" xlink:href="#ArialMT-30"/>
       <use x="111.230469" xlink:href="#ArialMT-32"/>
       <use x="166.845703" xlink:href="#ArialMT-30"/>
       <use x="222.460938" xlink:href="#ArialMT-2d"/>
       <use x="255.761719" xlink:href="#ArialMT-31"/>
       <use x="304.001953" xlink:href="#ArialMT-31"/>
      </g>
     </g>
    </g>
    <g id="xtick_6">
     <g id="line2d_6">
      <path clip-path="url(#pbe86feb480)" d="M 406.593081 298.989375 
L 406.593081 21.789375 
" style="fill:none;stroke:#cccccc;stroke-linecap:round;stroke-width:0.8;"/>
     </g>
     <g id="text_6">
      <!-- 2021-01 -->
      <g style="fill:#262626;" transform="translate(388.245424 313.147188)scale(0.1 -0.1)">
       <use xlink:href="#ArialMT-32"/>
       <use x="55.615234" xlink:href="#ArialMT-30"/>
       <use x="111.230469" xlink:href="#ArialMT-32"/>
       <use x="166.845703" xlink:href="#ArialMT-31"/>
       <use x="222.460938" xlink:href="#ArialMT-2d"/>
       <use x="255.761719" xlink:href="#ArialMT-30"/>
       <use x="311.376953" xlink:href="#ArialMT-31"/>
      </g>
     </g>
    </g>
    <g id="xtick_7">
     <g id="line2d_7">
      <path clip-path="url(#pbe86feb480)" d="M 478.365481 298.989375 
L 478.365481 21.789375 
" style="fill:none;stroke:#cccccc;stroke-linecap:round;stroke-width:0.8;"/>
     </g>
     <g id="text_7">
      <!-- 2021-03 -->
      <g style="fill:#262626;" transform="translate(460.017825 313.147188)scale(0.1 -0.1)">
       <use xlink:href="#ArialMT-32"/>
       <use x="55.615234" xlink:href="#ArialMT-30"/>
       <use x="111.230469" xlink:href="#ArialMT-32"/>
       <use x="166.845703" xlink:href="#ArialMT-31"/>
       <use x="222.460938" xlink:href="#ArialMT-2d"/>
       <use x="255.761719" xlink:href="#ArialMT-30"/>
       <use x="311.376953" xlink:href="#ArialMT-33"/>
      </g>
     </g>
    </g>
    <g id="xtick_8">
     <g id="line2d_8">
      <path clip-path="url(#pbe86feb480)" d="M 552.570844 298.989375 
L 552.570844 21.789375 
" style="fill:none;stroke:#cccccc;stroke-linecap:round;stroke-width:0.8;"/>
     </g>
     <g id="text_8">
      <!-- 2021-05 -->
      <g style="fill:#262626;" transform="translate(534.223188 313.147188)scale(0.1 -0.1)">
       <use xlink:href="#ArialMT-32"/>
       <use x="55.615234" xlink:href="#ArialMT-30"/>
       <use x="111.230469" xlink:href="#ArialMT-32"/>
       <use x="166.845703" xlink:href="#ArialMT-31"/>
       <use x="222.460938" xlink:href="#ArialMT-2d"/>
       <use x="255.761719" xlink:href="#ArialMT-30"/>
       <use x="311.376953" xlink:href="#ArialMT-35"/>
      </g>
     </g>
    </g>
   </g>
   <g id="matplotlib.axis_2">
    <g id="ytick_1">
     <g id="line2d_9">
      <path clip-path="url(#pbe86feb480)" d="M 30.882812 286.389375 
L 588.882812 286.389375 
" style="fill:none;stroke:#cccccc;stroke-linecap:round;stroke-width:0.8;"/>
     </g>
     <g id="text_9">
      <!-- 0 -->
      <g style="fill:#262626;" transform="translate(18.321875 289.968281)scale(0.1 -0.1)">
       <use xlink:href="#ArialMT-30"/>
      </g>
     </g>
    </g>
    <g id="ytick_2">
     <g id="line2d_10">
      <path clip-path="url(#pbe86feb480)" d="M 30.882812 248.664824 
L 588.882812 248.664824 
" style="fill:none;stroke:#cccccc;stroke-linecap:round;stroke-width:0.8;"/>
     </g>
     <g id="text_10">
      <!-- 50 -->
      <g style="fill:#262626;" transform="translate(12.760937 252.24373)scale(0.1 -0.1)">
       <use xlink:href="#ArialMT-35"/>
       <use x="55.615234" xlink:href="#ArialMT-30"/>
      </g>
     </g>
    </g>
    <g id="ytick_3">
     <g id="line2d_11">
      <path clip-path="url(#pbe86feb480)" d="M 30.882812 210.940273 
L 588.882812 210.940273 
" style="fill:none;stroke:#cccccc;stroke-linecap:round;stroke-width:0.8;"/>
     </g>
     <g id="text_11">
      <!-- 100 -->
      <g style="fill:#262626;" transform="translate(7.2 214.519179)scale(0.1 -0.1)">
       <use xlink:href="#ArialMT-31"/>
       <use x="55.615234" xlink:href="#ArialMT-30"/>
       <use x="111.230469" xlink:href="#ArialMT-30"/>
      </g>
     </g>
    </g>
    <g id="ytick_4">
     <g id="line2d_12">
      <path clip-path="url(#pbe86feb480)" d="M 30.882812 173.215722 
L 588.882812 173.215722 
" style="fill:none;stroke:#cccccc;stroke-linecap:round;stroke-width:0.8;"/>
     </g>
     <g id="text_12">
      <!-- 150 -->
      <g style="fill:#262626;" transform="translate(7.2 176.794629)scale(0.1 -0.1)">
       <use xlink:href="#ArialMT-31"/>
       <use x="55.615234" xlink:href="#ArialMT-35"/>
       <use x="111.230469" xlink:href="#ArialMT-30"/>
      </g>
     </g>
    </g>
    <g id="ytick_5">
     <g id="line2d_13">
      <path clip-path="url(#pbe86feb480)" d="M 30.882812 135.491171 
L 588.882812 135.491171 
" style="fill:none;stroke:#cccccc;stroke-linecap:round;stroke-width:0.8;"/>
     </g>
     <g id="text_13">
      <!-- 200 -->
      <g style="fill:#262626;" transform="translate(7.2 139.070078)scale(0.1 -0.1)">
       <use xlink:href="#ArialMT-32"/>
       <use x="55.615234" xlink:href="#ArialMT-30"/>
       <use x="111.230469" xlink:href="#ArialMT-30"/>
      </g>
     </g>
    </g>
    <g id="ytick_6">
     <g id="line2d_14">
      <path clip-path="url(#pbe86feb480)" d="M 30.882812 97.766621 
L 588.882812 97.766621 
" style="fill:none;stroke:#cccccc;stroke-linecap:round;stroke-width:0.8;"/>
     </g>
     <g id="text_14">
      <!-- 250 -->
      <g style="fill:#262626;" transform="translate(7.2 101.345527)scale(0.1 -0.1)">
       <use xlink:href="#ArialMT-32"/>
       <use x="55.615234" xlink:href="#ArialMT-35"/>
       <use x="111.230469" xlink:href="#ArialMT-30"/>
      </g>
     </g>
    </g>
    <g id="ytick_7">
     <g id="line2d_15">
      <path clip-path="url(#pbe86feb480)" d="M 30.882812 60.04207 
L 588.882812 60.04207 
" style="fill:none;stroke:#cccccc;stroke-linecap:round;stroke-width:0.8;"/>
     </g>
     <g id="text_15">
      <!-- 300 -->
      <g style="fill:#262626;" transform="translate(7.2 63.620976)scale(0.1 -0.1)">
       <use xlink:href="#ArialMT-33"/>
       <use x="55.615234" xlink:href="#ArialMT-30"/>
       <use x="111.230469" xlink:href="#ArialMT-30"/>
      </g>
     </g>
    </g>
    <g id="ytick_8">
     <g id="line2d_16">
      <path clip-path="url(#pbe86feb480)" d="M 30.882812 22.317519 
L 588.882812 22.317519 
" style="fill:none;stroke:#cccccc;stroke-linecap:round;stroke-width:0.8;"/>
     </g>
     <g id="text_16">
      <!-- 350 -->
      <g style="fill:#262626;" transform="translate(7.2 25.896425)scale(0.1 -0.1)">
       <use xlink:href="#ArialMT-33"/>
       <use x="55.615234" xlink:href="#ArialMT-35"/>
       <use x="111.230469" xlink:href="#ArialMT-30"/>
      </g>
     </g>
    </g>
   </g>
   <g id="line2d_17">
    <path clip-path="url(#pbe86feb480)" d="M 56.246449 278.089974 
L 57.46293 278.089974 
L 58.679412 276.580992 
L 59.895893 276.580992 
L 61.112374 269.036082 
L 62.328856 255.455243 
L 63.545337 254.700752 
L 64.761818 251.682788 
L 65.9783 247.155842 
L 67.194781 246.401351 
L 68.411262 246.401351 
L 69.627744 245.64686 
L 70.844225 242.628896 
L 72.060707 226.030094 
L 73.277188 224.521112 
L 74.493669 224.521112 
L 75.710151 201.886381 
L 76.926632 200.377399 
L 78.143113 213.958237 
L 79.359595 210.185782 
L 80.576076 204.149854 
L 81.792557 202.640872 
L 83.009039 199.622908 
L 84.22552 199.622908 
L 85.442002 198.113926 
L 86.658483 186.796561 
L 87.874964 185.287579 
L 89.091446 189.060034 
L 90.307927 176.233686 
L 91.524408 173.215722 
L 92.74089 170.952249 
L 93.957371 167.179794 
L 95.173852 176.988177 
L 96.390334 176.988177 
L 97.606815 173.970213 
L 98.823296 167.934285 
L 100.039778 142.281591 
L 101.256259 140.772609 
L 102.472741 176.233686 
L 103.689222 178.497159 
L 104.905703 181.515124 
L 106.122185 176.233686 
L 107.338666 181.515124 
L 108.555147 173.215722 
L 109.771629 168.688776 
L 110.98811 169.443267 
L 112.204591 167.179794 
L 113.421073 161.143866 
L 114.637554 158.125902 
L 115.854036 162.652848 
L 117.070517 165.670812 
L 118.286998 161.143866 
L 119.50348 158.125902 
L 120.719961 161.898357 
L 121.936442 146.054046 
L 123.152924 152.844465 
L 124.369405 149.826501 
L 125.585886 146.054046 
L 126.802368 152.089974 
L 128.018849 140.772609 
L 129.23533 139.263626 
L 130.451812 141.5271 
L 131.668293 133.982189 
L 132.884775 137.000153 
L 134.101256 139.263626 
L 135.317737 140.772609 
L 136.534219 138.509135 
L 137.7507 137.754644 
L 138.967181 133.227698 
L 140.183663 134.73668 
L 141.400144 135.491171 
L 142.616625 123.419315 
L 143.833107 122.664824 
L 145.049588 124.173806 
L 146.26607 129.455243 
L 147.482551 129.455243 
L 148.699032 128.700752 
L 149.915514 127.19177 
L 151.131995 122.664824 
L 152.348476 122.664824 
L 153.564958 110.592968 
L 154.781439 115.874405 
L 155.99792 109.083986 
L 157.214402 114.365423 
L 158.430883 106.820513 
L 159.647364 109.838477 
L 160.863846 103.802549 
L 162.080327 112.856441 
L 163.296809 120.401351 
L 164.51329 122.664824 
L 165.729771 126.437279 
L 166.946253 130.964225 
L 168.162734 127.946261 
L 169.379215 122.664824 
L 170.595697 121.910333 
L 171.812178 118.892369 
L 173.028659 123.419315 
L 174.245141 135.491171 
L 175.461622 137.000153 
L 176.678104 131.718716 
L 177.894585 134.73668 
L 179.111066 141.5271 
L 180.327548 144.545064 
L 181.544029 150.580992 
L 182.76051 150.580992 
L 183.976992 156.61692 
L 185.193473 149.07201 
L 186.409954 152.844465 
L 187.626436 154.353447 
L 188.842917 157.371411 
L 190.059399 148.317519 
L 191.27588 164.916321 
L 192.492361 162.652848 
L 193.708843 161.898357 
L 194.925324 166.425303 
L 196.141805 171.70674 
L 197.358287 170.197758 
L 198.574768 149.826501 
L 199.791249 161.898357 
L 201.007731 153.598956 
L 202.224212 148.317519 
L 203.440693 156.61692 
L 204.657175 154.353447 
L 207.090138 158.880393 
L 208.306619 154.353447 
L 209.5231 157.371411 
L 210.739582 152.844465 
L 211.956063 154.353447 
L 214.389026 158.880393 
L 215.605507 163.407339 
L 216.821988 170.952249 
L 218.03847 173.215722 
L 219.254951 173.970213 
L 220.471433 177.742668 
L 221.687914 180.006141 
L 222.904395 177.742668 
L 224.120877 184.533088 
L 225.337358 188.305543 
L 226.553839 196.604944 
L 227.770321 194.341471 
L 228.986802 195.850453 
L 230.203283 208.6768 
L 231.419765 203.395363 
L 232.636246 207.167818 
L 233.852727 211.694764 
L 235.069209 208.6768 
L 236.28569 207.922309 
L 237.502172 204.904345 
L 238.718653 203.395363 
L 239.935134 202.640872 
L 241.151616 189.814525 
L 242.368097 198.113926 
L 244.80106 207.167818 
L 246.017541 204.904345 
L 247.234022 214.712728 
L 248.450504 215.467219 
L 249.666985 213.203746 
L 250.883467 215.467219 
L 252.099948 219.239674 
L 253.316429 213.203746 
L 254.532911 221.503147 
L 255.749392 207.167818 
L 256.965873 197.359435 
L 258.182355 195.850453 
L 259.398836 199.622908 
L 260.615317 201.13189 
L 261.831799 201.13189 
L 263.04828 203.395363 
L 264.264761 203.395363 
L 265.481243 211.694764 
L 266.697724 210.185782 
L 267.914206 200.377399 
L 269.130687 203.395363 
L 270.347168 200.377399 
L 271.56365 199.622908 
L 272.780131 200.377399 
L 273.996612 203.395363 
L 276.429575 212.449255 
L 277.646056 213.203746 
L 278.862538 210.940273 
L 280.079019 209.431291 
L 282.511982 210.940273 
L 283.728463 217.730692 
L 284.944945 217.730692 
L 286.161426 231.311531 
L 287.377907 229.048058 
L 288.594389 227.539076 
L 289.81087 223.012129 
L 291.027351 221.503147 
L 292.243833 222.257638 
L 293.460314 219.239674 
L 294.676795 223.012129 
L 295.893277 222.257638 
L 297.109758 217.730692 
L 298.32624 219.239674 
L 299.542721 219.994165 
L 300.759202 214.712728 
L 301.975684 210.940273 
L 303.192165 213.203746 
L 304.408646 210.185782 
L 305.625128 212.449255 
L 306.841609 209.431291 
L 308.05809 214.712728 
L 309.274572 215.467219 
L 310.491053 214.712728 
L 311.707535 212.449255 
L 312.924016 213.958237 
L 314.140497 216.976201 
L 315.356979 216.22171 
L 316.57346 216.22171 
L 317.789941 213.203746 
L 319.006423 207.167818 
L 320.222904 204.904345 
L 321.439385 205.658836 
L 322.655867 207.922309 
L 323.872348 204.149854 
L 325.08883 204.149854 
L 326.305311 201.886381 
L 327.521792 195.095962 
L 328.738274 196.604944 
L 329.954755 193.58698 
L 331.171236 193.58698 
L 332.387718 190.569016 
L 333.604199 186.796561 
L 334.82068 180.760632 
L 336.037162 189.060034 
L 337.253643 194.341471 
L 338.470124 189.060034 
L 339.686606 183.024106 
L 340.903087 186.04207 
L 342.119569 179.25165 
L 343.33605 174.724704 
L 344.552531 164.916321 
L 345.769013 166.425303 
L 346.985494 169.443267 
L 348.201975 173.970213 
L 349.418457 173.215722 
L 350.634938 168.688776 
L 351.851419 169.443267 
L 353.067901 153.598956 
L 354.284382 149.826501 
L 355.500864 152.089974 
L 356.717345 138.509135 
L 357.933826 139.263626 
L 359.150308 143.790573 
L 360.366789 137.754644 
L 361.58327 132.473207 
L 362.799752 132.473207 
L 364.016233 134.73668 
L 365.232714 127.946261 
L 366.449196 138.509135 
L 367.665677 142.281591 
L 368.882158 147.563028 
L 370.09864 140.018118 
L 371.315121 141.5271 
L 372.531603 149.07201 
L 373.748084 145.299555 
L 374.964565 155.862429 
L 376.181047 164.916321 
L 377.397528 155.862429 
L 378.614009 142.281591 
L 379.830491 154.353447 
L 381.046972 150.580992 
L 382.263453 149.07201 
L 383.479935 155.862429 
L 387.129379 171.70674 
L 388.34586 170.197758 
L 389.562342 169.443267 
L 390.778823 174.724704 
L 391.995304 178.497159 
L 393.211786 173.970213 
L 394.428267 170.952249 
L 395.644748 170.952249 
L 396.86123 175.479195 
L 398.077711 182.269615 
L 399.294192 184.533088 
L 400.510674 178.497159 
L 401.727155 177.742668 
L 402.943637 173.215722 
L 404.160118 175.479195 
L 405.376599 173.970213 
L 406.593081 183.778597 
L 407.809562 180.760632 
L 409.026043 187.551052 
L 410.242525 197.359435 
L 411.459006 195.850453 
L 412.675487 195.095962 
L 413.891969 196.604944 
L 415.10845 192.832489 
L 417.541413 194.341471 
L 418.757894 184.533088 
L 419.974376 187.551052 
L 421.190857 179.25165 
L 422.407338 180.006141 
L 423.62382 176.233686 
L 426.056782 185.287579 
L 427.273264 178.497159 
L 428.489745 181.515124 
L 429.706226 187.551052 
L 430.922708 195.850453 
L 432.139189 189.060034 
L 433.355671 192.832489 
L 434.572152 189.814525 
L 435.788633 199.622908 
L 437.005115 204.149854 
L 438.221596 195.095962 
L 439.438077 201.13189 
L 440.654559 196.604944 
L 441.87104 201.886381 
L 443.087521 204.149854 
L 444.304003 195.095962 
L 445.520484 194.341471 
L 446.736966 191.323507 
L 447.953447 196.604944 
L 449.169928 195.850453 
L 450.38641 196.604944 
L 451.602891 200.377399 
L 452.819372 203.395363 
L 454.035854 210.185782 
L 455.252335 210.940273 
L 456.468816 209.431291 
L 457.685298 206.413327 
L 458.901779 216.976201 
L 460.118261 216.22171 
L 461.334742 206.413327 
L 462.551223 203.395363 
L 463.767705 214.712728 
L 464.984186 214.712728 
L 466.200667 211.694764 
L 467.417149 213.958237 
L 468.63363 209.431291 
L 469.850111 202.640872 
L 471.066593 198.113926 
L 472.283074 201.13189 
L 473.499555 191.323507 
L 474.716037 192.077998 
L 475.932518 205.658836 
L 477.149 189.060034 
L 478.365481 180.760632 
L 479.581962 186.796561 
L 480.798444 178.497159 
L 482.014925 180.006141 
L 483.231406 177.742668 
L 484.447888 186.796561 
L 485.664369 183.778597 
L 486.88085 173.970213 
L 488.097332 169.443267 
L 490.530295 161.898357 
L 492.963257 148.317519 
L 494.179739 139.263626 
L 495.39622 133.982189 
L 496.612701 118.892369 
L 497.829183 115.874405 
L 499.045664 112.10195 
L 500.262145 106.820513 
L 501.478627 95.503147 
L 502.695108 81.922309 
L 503.911589 74.377399 
L 505.128071 64.569016 
L 506.344552 57.778597 
L 507.561034 39.670812 
L 508.777515 49.479195 
L 509.993996 40.425303 
L 511.210478 44.197758 
L 512.426959 44.197758 
L 513.64344 34.389375 
L 514.859922 35.898357 
L 516.076403 41.179794 
L 517.292884 37.407339 
L 518.509366 42.688776 
L 519.725847 44.197758 
L 520.942329 41.179794 
L 522.15881 45.70674 
L 523.375291 46.461231 
L 524.591773 56.269615 
L 525.808254 55.515124 
L 527.024735 81.922309 
L 528.241217 87.958237 
L 529.457698 78.904345 
L 530.674179 87.203746 
L 531.890661 84.940273 
L 533.107142 81.922309 
L 534.323623 91.730692 
L 535.540105 78.904345 
L 536.756586 97.012129 
L 537.973068 89.467219 
L 539.189549 90.976201 
L 540.40603 99.275603 
L 541.622512 109.083986 
L 542.838993 109.838477 
L 544.055474 118.892369 
L 545.271956 125.682788 
L 546.488437 122.664824 
L 547.704918 127.19177 
L 548.9214 136.245662 
L 550.137881 133.227698 
L 551.354363 128.700752 
L 552.570844 113.610932 
L 553.787325 121.910333 
L 555.003807 124.173806 
L 556.220288 130.209734 
L 557.436769 118.892369 
L 558.653251 110.592968 
L 559.869732 123.419315 
L 561.086213 133.227698 
L 562.302695 118.137878 
L 563.519176 121.155842 
L 563.519176 121.155842 
" style="fill:none;stroke:#1f77b4;stroke-linecap:round;stroke-width:1.5;"/>
   </g>
   <g id="line2d_18">
    <path clip-path="url(#pbe86feb480)" d="M 56.246449 286.389375 
L 57.46293 286.389375 
L 58.679412 281.107938 
L 59.895893 281.107938 
L 61.112374 279.598956 
L 62.328856 272.054046 
L 63.545337 272.808537 
L 64.761818 269.790573 
L 69.627744 269.790573 
L 70.844225 270.545064 
L 72.060707 267.5271 
L 73.277188 269.036082 
L 74.493669 268.281591 
L 75.710151 265.263626 
L 76.926632 265.263626 
L 78.143113 261.491171 
L 79.359595 258.473207 
L 80.576076 258.473207 
L 81.792557 262.245662 
L 84.22552 262.245662 
L 85.442002 261.491171 
L 86.658483 257.718716 
L 87.874964 259.982189 
L 89.091446 264.509135 
L 90.307927 258.473207 
L 91.524408 253.19177 
L 92.74089 252.437279 
L 93.957371 245.64686 
L 95.173852 250.173806 
L 96.390334 248.664824 
L 97.606815 245.64686 
L 98.823296 238.856441 
L 100.039778 235.083986 
L 101.256259 232.820513 
L 102.472741 238.856441 
L 103.689222 238.856441 
L 106.122185 241.874405 
L 107.338666 238.856441 
L 108.555147 233.575004 
L 109.771629 231.311531 
L 110.98811 229.802549 
L 112.204591 230.55704 
L 113.421073 225.275603 
L 114.637554 225.275603 
L 115.854036 232.820513 
L 117.070517 234.329495 
L 118.286998 229.048058 
L 119.50348 229.048058 
L 121.936442 232.066022 
L 123.152924 236.592968 
L 124.369405 233.575004 
L 125.585886 231.311531 
L 126.802368 235.838477 
L 128.018849 229.048058 
L 129.23533 229.048058 
L 130.451812 227.539076 
L 131.668293 230.55704 
L 132.884775 226.030094 
L 134.101256 226.030094 
L 135.317737 222.257638 
L 136.534219 223.012129 
L 138.967181 221.503147 
L 140.183663 228.293567 
L 141.400144 230.55704 
L 142.616625 225.275603 
L 143.833107 229.048058 
L 145.049588 225.275603 
L 146.26607 220.748656 
L 147.482551 219.239674 
L 148.699032 218.485183 
L 149.915514 221.503147 
L 151.131995 219.239674 
L 152.348476 219.239674 
L 153.564958 214.712728 
L 154.781439 216.976201 
L 155.99792 215.467219 
L 157.214402 215.467219 
L 158.430883 207.922309 
L 159.647364 211.694764 
L 160.863846 216.976201 
L 162.080327 219.239674 
L 163.296809 212.449255 
L 164.51329 216.976201 
L 165.729771 223.012129 
L 166.946253 225.275603 
L 169.379215 223.766621 
L 170.595697 219.239674 
L 171.812178 221.503147 
L 173.028659 219.994165 
L 174.245141 223.012129 
L 175.461622 222.257638 
L 176.678104 223.012129 
L 177.894585 227.539076 
L 179.111066 234.329495 
L 180.327548 233.575004 
L 181.544029 230.55704 
L 182.76051 231.311531 
L 183.976992 234.329495 
L 185.193473 232.066022 
L 186.409954 230.55704 
L 187.626436 231.311531 
L 188.842917 231.311531 
L 190.059399 229.802549 
L 191.27588 236.592968 
L 192.492361 236.592968 
L 193.708843 235.838477 
L 194.925324 238.856441 
L 196.141805 240.365423 
L 197.358287 236.592968 
L 198.574768 231.311531 
L 199.791249 233.575004 
L 201.007731 227.539076 
L 202.224212 230.55704 
L 203.440693 236.592968 
L 204.657175 238.856441 
L 205.873656 237.347459 
L 207.090138 237.347459 
L 208.306619 238.856441 
L 209.5231 233.575004 
L 210.739582 235.083986 
L 211.956063 237.347459 
L 213.172544 237.347459 
L 214.389026 233.575004 
L 215.605507 233.575004 
L 216.821988 238.10195 
L 218.03847 238.10195 
L 219.254951 238.856441 
L 220.471433 241.874405 
L 221.687914 243.383387 
L 222.904395 244.137878 
L 224.120877 246.401351 
L 225.337358 250.173806 
L 226.553839 249.419315 
L 227.770321 246.401351 
L 228.986802 247.155842 
L 230.203283 252.437279 
L 231.419765 252.437279 
L 232.636246 251.682788 
L 233.852727 255.455243 
L 235.069209 254.700752 
L 236.28569 253.19177 
L 237.502172 250.173806 
L 238.718653 251.682788 
L 239.935134 251.682788 
L 241.151616 248.664824 
L 242.368097 253.946261 
L 243.584578 253.946261 
L 244.80106 258.473207 
L 246.017541 256.209734 
L 247.234022 259.227698 
L 248.450504 259.227698 
L 249.666985 259.982189 
L 250.883467 256.964225 
L 253.316429 256.964225 
L 254.532911 260.73668 
L 255.749392 254.700752 
L 256.965873 256.209734 
L 258.182355 252.437279 
L 259.398836 253.946261 
L 260.615317 253.19177 
L 261.831799 253.946261 
L 263.04828 251.682788 
L 264.264761 253.946261 
L 265.481243 255.455243 
L 266.697724 254.700752 
L 267.914206 250.173806 
L 269.130687 251.682788 
L 270.347168 247.910333 
L 271.56365 248.664824 
L 272.780131 253.19177 
L 273.996612 259.227698 
L 275.213094 255.455243 
L 276.429575 255.455243 
L 277.646056 256.209734 
L 278.862538 254.700752 
L 281.295501 256.209734 
L 282.511982 255.455243 
L 283.728463 256.964225 
L 284.944945 262.245662 
L 286.161426 261.491171 
L 287.377907 256.964225 
L 288.594389 257.718716 
L 289.81087 256.964225 
L 291.027351 254.700752 
L 292.243833 253.19177 
L 293.460314 253.19177 
L 294.676795 256.209734 
L 295.893277 257.718716 
L 297.109758 256.964225 
L 299.542721 256.964225 
L 300.759202 256.209734 
L 301.975684 254.700752 
L 303.192165 256.209734 
L 304.408646 256.964225 
L 305.625128 255.455243 
L 306.841609 254.700752 
L 308.05809 258.473207 
L 309.274572 261.491171 
L 310.491053 259.227698 
L 311.707535 261.491171 
L 312.924016 261.491171 
L 314.140497 259.982189 
L 315.356979 262.245662 
L 316.57346 258.473207 
L 317.789941 256.209734 
L 319.006423 255.455243 
L 320.222904 252.437279 
L 323.872348 252.437279 
L 326.305311 249.419315 
L 327.521792 246.401351 
L 328.738274 251.682788 
L 329.954755 251.682788 
L 331.171236 250.928297 
L 332.387718 249.419315 
L 333.604199 246.401351 
L 334.82068 247.155842 
L 337.253643 245.64686 
L 338.470124 244.137878 
L 339.686606 241.874405 
L 340.903087 244.892369 
L 342.119569 235.838477 
L 343.33605 233.575004 
L 344.552531 235.083986 
L 345.769013 234.329495 
L 346.985494 226.784585 
L 348.201975 234.329495 
L 349.418457 233.575004 
L 350.634938 235.838477 
L 351.851419 235.083986 
L 353.067901 227.539076 
L 354.284382 226.030094 
L 355.500864 226.030094 
L 356.717345 216.22171 
L 357.933826 219.994165 
L 359.150308 225.275603 
L 360.366789 221.503147 
L 361.58327 222.257638 
L 362.799752 222.257638 
L 364.016233 223.766621 
L 365.232714 223.012129 
L 366.449196 228.293567 
L 367.665677 229.048058 
L 368.882158 223.766621 
L 370.09864 220.748656 
L 371.315121 222.257638 
L 372.531603 226.784585 
L 373.748084 228.293567 
L 374.964565 226.784585 
L 376.181047 235.083986 
L 377.397528 229.048058 
L 378.614009 229.048058 
L 379.830491 225.275603 
L 381.046972 220.748656 
L 382.263453 223.766621 
L 383.479935 223.766621 
L 384.696416 229.048058 
L 385.912898 231.311531 
L 387.129379 229.048058 
L 388.34586 228.293567 
L 389.562342 231.311531 
L 390.778823 235.838477 
L 391.995304 232.820513 
L 393.211786 230.55704 
L 394.428267 232.066022 
L 395.644748 226.784585 
L 396.86123 232.066022 
L 398.077711 235.083986 
L 399.294192 235.083986 
L 400.510674 226.784585 
L 401.727155 235.083986 
L 402.943637 235.083986 
L 404.160118 238.856441 
L 405.376599 236.592968 
L 406.593081 235.083986 
L 407.809562 236.592968 
L 409.026043 237.347459 
L 410.242525 239.610932 
L 411.459006 241.119914 
L 412.675487 241.874405 
L 413.891969 243.383387 
L 415.10845 241.874405 
L 416.324932 238.856441 
L 417.541413 237.347459 
L 418.757894 232.820513 
L 419.974376 233.575004 
L 421.190857 228.293567 
L 422.407338 226.784585 
L 423.62382 223.766621 
L 424.840301 225.275603 
L 426.056782 227.539076 
L 428.489745 230.55704 
L 429.706226 231.311531 
L 430.922708 233.575004 
L 432.139189 232.066022 
L 433.355671 234.329495 
L 434.572152 229.048058 
L 435.788633 229.802549 
L 437.005115 232.066022 
L 438.221596 231.311531 
L 439.438077 236.592968 
L 443.087521 238.856441 
L 444.304003 235.838477 
L 445.520484 231.311531 
L 446.736966 235.838477 
L 447.953447 232.820513 
L 449.169928 236.592968 
L 450.38641 238.10195 
L 451.602891 242.628896 
L 452.819372 245.64686 
L 454.035854 247.155842 
L 455.252335 244.892369 
L 456.468816 245.64686 
L 457.685298 243.383387 
L 458.901779 250.928297 
L 460.118261 251.682788 
L 461.334742 240.365423 
L 462.551223 244.137878 
L 463.767705 242.628896 
L 464.984186 243.383387 
L 466.200667 239.610932 
L 467.417149 242.628896 
L 468.63363 244.137878 
L 469.850111 241.874405 
L 471.066593 243.383387 
L 472.283074 248.664824 
L 474.716037 239.610932 
L 475.932518 244.892369 
L 477.149 240.365423 
L 478.365481 237.347459 
L 479.581962 239.610932 
L 480.798444 236.592968 
L 482.014925 236.592968 
L 483.231406 237.347459 
L 484.447888 243.383387 
L 485.664369 233.575004 
L 486.88085 236.592968 
L 488.097332 238.856441 
L 489.313813 232.066022 
L 490.530295 229.048058 
L 491.746776 223.766621 
L 492.963257 211.694764 
L 494.179739 204.904345 
L 495.39622 213.958237 
L 496.612701 201.886381 
L 497.829183 196.604944 
L 499.045664 198.113926 
L 500.262145 186.796561 
L 501.478627 190.569016 
L 502.695108 186.04207 
L 503.911589 187.551052 
L 505.128071 180.760632 
L 506.344552 177.742668 
L 507.561034 165.670812 
L 508.777515 163.407339 
L 509.993996 155.862429 
L 511.210478 151.335483 
L 512.426959 154.353447 
L 513.64344 152.089974 
L 514.859922 150.580992 
L 516.076403 147.563028 
L 518.509366 146.054046 
L 519.725847 149.07201 
L 520.942329 146.808537 
L 522.15881 146.054046 
L 524.591773 143.036082 
L 525.808254 144.545064 
L 527.024735 153.598956 
L 528.241217 153.598956 
L 530.674179 165.670812 
L 531.890661 162.652848 
L 533.107142 158.880393 
L 534.323623 168.688776 
L 535.540105 163.407339 
L 536.756586 172.461231 
L 539.189549 175.479195 
L 540.40603 180.760632 
L 541.622512 189.060034 
L 542.838993 189.814525 
L 544.055474 194.341471 
L 546.488437 192.832489 
L 547.704918 197.359435 
L 548.9214 202.640872 
L 550.137881 198.113926 
L 551.354363 202.640872 
L 552.570844 183.024106 
L 553.787325 198.868417 
L 555.003807 205.658836 
L 556.220288 208.6768 
L 557.436769 198.868417 
L 558.653251 197.359435 
L 559.869732 204.149854 
L 561.086213 200.377399 
L 562.302695 182.269615 
L 563.519176 194.341471 
L 563.519176 194.341471 
" style="fill:none;stroke:#ff7f0e;stroke-linecap:round;stroke-width:1.5;"/>
   </g>
   <g id="patch_3">
    <path d="M 30.882812 298.989375 
L 30.882812 21.789375 
" style="fill:none;stroke:#cccccc;stroke-linecap:square;stroke-linejoin:miter;stroke-width:0.8;"/>
   </g>
   <g id="patch_4">
    <path d="M 588.882812 298.989375 
L 588.882812 21.789375 
" style="fill:none;stroke:#cccccc;stroke-linecap:square;stroke-linejoin:miter;stroke-width:0.8;"/>
   </g>
   <g id="patch_5">
    <path d="M 30.882812 298.989375 
L 588.882812 298.989375 
" style="fill:none;stroke:#cccccc;stroke-linecap:square;stroke-linejoin:miter;stroke-width:0.8;"/>
   </g>
   <g id="patch_6">
    <path d="M 30.882812 21.789375 
L 588.882812 21.789375 
" style="fill:none;stroke:#cccccc;stroke-linecap:square;stroke-linejoin:miter;stroke-width:0.8;"/>
   </g>
   <g id="text_17">
    <!-- Internações -->
    <g style="fill:#262626;" transform="translate(278.531875 15.789375)scale(0.12 -0.12)">
     <defs>
      <path d="M 597 0 
L 597 4581 
L 1203 4581 
L 1203 0 
L 597 0 
z
" id="ArialMT-49" transform="scale(0.015625)"/>
      <path d="M 422 0 
L 422 3319 
L 928 3319 
L 928 2847 
Q 1294 3394 1984 3394 
Q 2284 3394 2536 3286 
Q 2788 3178 2913 3003 
Q 3038 2828 3088 2588 
Q 3119 2431 3119 2041 
L 3119 0 
L 2556 0 
L 2556 2019 
Q 2556 2363 2490 2533 
Q 2425 2703 2258 2804 
Q 2091 2906 1866 2906 
Q 1506 2906 1245 2678 
Q 984 2450 984 1813 
L 984 0 
L 422 0 
z
" id="ArialMT-6e" transform="scale(0.015625)"/>
      <path d="M 1650 503 
L 1731 6 
Q 1494 -44 1306 -44 
Q 1000 -44 831 53 
Q 663 150 594 308 
Q 525 466 525 972 
L 525 2881 
L 113 2881 
L 113 3319 
L 525 3319 
L 525 4141 
L 1084 4478 
L 1084 3319 
L 1650 3319 
L 1650 2881 
L 1084 2881 
L 1084 941 
Q 1084 700 1114 631 
Q 1144 563 1211 522 
Q 1278 481 1403 481 
Q 1497 481 1650 503 
z
" id="ArialMT-74" transform="scale(0.015625)"/>
      <path d="M 2694 1069 
L 3275 997 
Q 3138 488 2766 206 
Q 2394 -75 1816 -75 
Q 1088 -75 661 373 
Q 234 822 234 1631 
Q 234 2469 665 2931 
Q 1097 3394 1784 3394 
Q 2450 3394 2872 2941 
Q 3294 2488 3294 1666 
Q 3294 1616 3291 1516 
L 816 1516 
Q 847 969 1125 678 
Q 1403 388 1819 388 
Q 2128 388 2347 550 
Q 2566 713 2694 1069 
z
M 847 1978 
L 2700 1978 
Q 2663 2397 2488 2606 
Q 2219 2931 1791 2931 
Q 1403 2931 1139 2672 
Q 875 2413 847 1978 
z
" id="ArialMT-65" transform="scale(0.015625)"/>
      <path d="M 416 0 
L 416 3319 
L 922 3319 
L 922 2816 
Q 1116 3169 1280 3281 
Q 1444 3394 1641 3394 
Q 1925 3394 2219 3213 
L 2025 2691 
Q 1819 2813 1613 2813 
Q 1428 2813 1281 2702 
Q 1134 2591 1072 2394 
Q 978 2094 978 1738 
L 978 0 
L 416 0 
z
" id="ArialMT-72" transform="scale(0.015625)"/>
      <path d="M 2588 409 
Q 2275 144 1986 34 
Q 1697 -75 1366 -75 
Q 819 -75 525 192 
Q 231 459 231 875 
Q 231 1119 342 1320 
Q 453 1522 633 1644 
Q 813 1766 1038 1828 
Q 1203 1872 1538 1913 
Q 2219 1994 2541 2106 
Q 2544 2222 2544 2253 
Q 2544 2597 2384 2738 
Q 2169 2928 1744 2928 
Q 1347 2928 1158 2789 
Q 969 2650 878 2297 
L 328 2372 
Q 403 2725 575 2942 
Q 747 3159 1072 3276 
Q 1397 3394 1825 3394 
Q 2250 3394 2515 3294 
Q 2781 3194 2906 3042 
Q 3031 2891 3081 2659 
Q 3109 2516 3109 2141 
L 3109 1391 
Q 3109 606 3145 398 
Q 3181 191 3288 0 
L 2700 0 
Q 2613 175 2588 409 
z
M 2541 1666 
Q 2234 1541 1622 1453 
Q 1275 1403 1131 1340 
Q 988 1278 909 1158 
Q 831 1038 831 891 
Q 831 666 1001 516 
Q 1172 366 1500 366 
Q 1825 366 2078 508 
Q 2331 650 2450 897 
Q 2541 1088 2541 1459 
L 2541 1666 
z
" id="ArialMT-61" transform="scale(0.015625)"/>
      <path d="M 2588 1216 
L 3141 1144 
Q 3050 572 2676 248 
Q 2303 -75 1759 -75 
Q 1078 -75 664 370 
Q 250 816 250 1647 
Q 250 2184 428 2587 
Q 606 2991 970 3192 
Q 1334 3394 1763 3394 
Q 2303 3394 2647 3120 
Q 2991 2847 3088 2344 
L 2541 2259 
Q 2463 2594 2264 2762 
Q 2066 2931 1784 2931 
Q 1359 2931 1093 2626 
Q 828 2322 828 1663 
Q 828 994 1084 691 
Q 1341 388 1753 388 
Q 2084 388 2306 591 
Q 2528 794 2588 1216 
z
M 1283 -417 
L 1446 136 
L 1864 136 
L 1761 -199 
Q 2027 -230 2161 -362 
Q 2296 -495 2296 -658 
Q 2296 -892 2071 -1072 
Q 1846 -1252 1392 -1252 
Q 1136 -1252 942 -1214 
L 977 -849 
Q 1177 -861 1271 -861 
Q 1564 -861 1683 -780 
Q 1774 -717 1774 -627 
Q 1774 -570 1738 -526 
Q 1702 -483 1605 -451 
Q 1508 -420 1283 -417 
z
" id="ArialMT-e7" transform="scale(0.015625)"/>
      <path d="M 213 1659 
Q 213 2581 725 3025 
Q 1153 3394 1769 3394 
Q 2453 3394 2887 2945 
Q 3322 2497 3322 1706 
Q 3322 1066 3130 698 
Q 2938 331 2570 128 
Q 2203 -75 1769 -75 
Q 1072 -75 642 372 
Q 213 819 213 1659 
z
M 791 1659 
Q 791 1022 1069 705 
Q 1347 388 1769 388 
Q 2188 388 2466 706 
Q 2744 1025 2744 1678 
Q 2744 2294 2464 2611 
Q 2184 2928 1769 2928 
Q 1347 2928 1069 2612 
Q 791 2297 791 1659 
z
M 726 3809 
Q 723 4134 904 4328 
Q 1082 4522 1360 4522 
Q 1554 4522 1888 4353 
Q 2073 4259 2182 4259 
Q 2282 4259 2335 4314 
Q 2388 4369 2410 4531 
L 2817 4531 
Q 2807 4175 2637 3997 
Q 2467 3819 2204 3819 
Q 2007 3819 1685 3994 
Q 1476 4106 1379 4106 
Q 1273 4106 1207 4031 
Q 1138 3956 1142 3809 
L 726 3809 
z
" id="ArialMT-f5" transform="scale(0.015625)"/>
      <path d="M 197 991 
L 753 1078 
Q 800 744 1014 566 
Q 1228 388 1613 388 
Q 2000 388 2187 545 
Q 2375 703 2375 916 
Q 2375 1106 2209 1216 
Q 2094 1291 1634 1406 
Q 1016 1563 777 1677 
Q 538 1791 414 1992 
Q 291 2194 291 2438 
Q 291 2659 392 2848 
Q 494 3038 669 3163 
Q 800 3259 1026 3326 
Q 1253 3394 1513 3394 
Q 1903 3394 2198 3281 
Q 2494 3169 2634 2976 
Q 2775 2784 2828 2463 
L 2278 2388 
Q 2241 2644 2061 2787 
Q 1881 2931 1553 2931 
Q 1166 2931 1000 2803 
Q 834 2675 834 2503 
Q 834 2394 903 2306 
Q 972 2216 1119 2156 
Q 1203 2125 1616 2013 
Q 2213 1853 2448 1751 
Q 2684 1650 2818 1456 
Q 2953 1263 2953 975 
Q 2953 694 2789 445 
Q 2625 197 2315 61 
Q 2006 -75 1616 -75 
Q 969 -75 630 194 
Q 291 463 197 991 
z
" id="ArialMT-73" transform="scale(0.015625)"/>
     </defs>
     <use xlink:href="#ArialMT-49"/>
     <use x="27.783203" xlink:href="#ArialMT-6e"/>
     <use x="83.398438" xlink:href="#ArialMT-74"/>
     <use x="111.181641" xlink:href="#ArialMT-65"/>
     <use x="166.796875" xlink:href="#ArialMT-72"/>
     <use x="200.097656" xlink:href="#ArialMT-6e"/>
     <use x="255.712891" xlink:href="#ArialMT-61"/>
     <use x="311.328125" xlink:href="#ArialMT-e7"/>
     <use x="361.328125" xlink:href="#ArialMT-f5"/>
     <use x="416.943359" xlink:href="#ArialMT-65"/>
     <use x="472.558594" xlink:href="#ArialMT-73"/>
    </g>
   </g>
   <g id="legend_1">
    <g id="patch_7">
     <path d="M 37.882812 58.08 
L 122.134375 58.08 
Q 124.134375 58.08 124.134375 56.08 
L 124.134375 28.789375 
Q 124.134375 26.789375 122.134375 26.789375 
L 37.882812 26.789375 
Q 35.882812 26.789375 35.882812 28.789375 
L 35.882812 56.08 
Q 35.882812 58.08 37.882812 58.08 
z
" style="fill:#ffffff;opacity:0.8;stroke:#cccccc;stroke-linejoin:miter;"/>
    </g>
    <g id="line2d_19">
     <path d="M 39.882812 34.447187 
L 59.882812 34.447187 
" style="fill:none;stroke:#1f77b4;stroke-linecap:round;stroke-width:1.5;"/>
    </g>
    <g id="line2d_20"/>
    <g id="text_18">
     <!-- Internações -->
     <g style="fill:#262626;" transform="translate(67.882812 37.947187)scale(0.1 -0.1)">
      <use xlink:href="#ArialMT-49"/>
      <use x="27.783203" xlink:href="#ArialMT-6e"/>
      <use x="83.398438" xlink:href="#ArialMT-74"/>
      <use x="111.181641" xlink:href="#ArialMT-65"/>
      <use x="166.796875" xlink:href="#ArialMT-72"/>
      <use x="200.097656" xlink:href="#ArialMT-6e"/>
      <use x="255.712891" xlink:href="#ArialMT-61"/>
      <use x="311.328125" xlink:href="#ArialMT-e7"/>
      <use x="361.328125" xlink:href="#ArialMT-f5"/>
      <use x="416.943359" xlink:href="#ArialMT-65"/>
      <use x="472.558594" xlink:href="#ArialMT-73"/>
     </g>
    </g>
    <g id="line2d_21">
     <path d="M 39.882812 48.5925 
L 59.882812 48.5925 
" style="fill:none;stroke:#ff7f0e;stroke-linecap:round;stroke-width:1.5;"/>
    </g>
    <g id="line2d_22"/>
    <g id="text_19">
     <!-- UTI -->
     <g style="fill:#262626;" transform="translate(67.882812 52.0925)scale(0.1 -0.1)">
      <defs>
       <path d="M 3500 4581 
L 4106 4581 
L 4106 1934 
Q 4106 1244 3950 837 
Q 3794 431 3386 176 
Q 2978 -78 2316 -78 
Q 1672 -78 1262 144 
Q 853 366 678 786 
Q 503 1206 503 1934 
L 503 4581 
L 1109 4581 
L 1109 1938 
Q 1109 1341 1220 1058 
Q 1331 775 1601 622 
Q 1872 469 2263 469 
Q 2931 469 3215 772 
Q 3500 1075 3500 1938 
L 3500 4581 
z
" id="ArialMT-55" transform="scale(0.015625)"/>
       <path d="M 1659 0 
L 1659 4041 
L 150 4041 
L 150 4581 
L 3781 4581 
L 3781 4041 
L 2266 4041 
L 2266 0 
L 1659 0 
z
" id="ArialMT-54" transform="scale(0.015625)"/>
      </defs>
      <use xlink:href="#ArialMT-55"/>
      <use x="72.216797" xlink:href="#ArialMT-54"/>
      <use x="133.300781" xlink:href="#ArialMT-49"/>
     </g>
    </g>
   </g>
  </g>
 </g>
 <defs>
  <clipPath id="pbe86feb480">
   <rect height="277.2" width="558" x="30.882812" y="21.789375"/>
  </clipPath>
 </defs>
</svg>
