<?xml version="1.0" encoding="utf-8" standalone="no"?>
<!DOCTYPE svg PUBLIC "-//W3C//DTD SVG 1.1//EN"
  "http://www.w3.org/Graphics/SVG/1.1/DTD/svg11.dtd">
<svg height="322.334688pt" version="1.1" viewBox="0 0 605.761884 322.334688" width="605.761884pt" xmlns="http://www.w3.org/2000/svg" xmlns:xlink="http://www.w3.org/1999/xlink">
 <metadata>
  <rdf:RDF xmlns:cc="http://creativecommons.org/ns#" xmlns:dc="http://purl.org/dc/elements/1.1/" xmlns:rdf="http://www.w3.org/1999/02/22-rdf-syntax-ns#">
   <cc:Work>
    <dc:type rdf:resource="http://purl.org/dc/dcmitype/StillImage"/>
    <dc:date>2021-04-18T19:49:38.685939</dc:date>
    <dc:format>image/svg+xml</dc:format>
    <dc:creator>
     <cc:Agent>
      <dc:title>Matplotlib v3.4.1, https://matplotlib.org/</dc:title>
     </cc:Agent>
    </dc:creator>
   </cc:Work>
  </rdf:RDF>
 </metadata>
 <defs>
  <style type="text/css">*{stroke-linecap:butt;stroke-linejoin:round;}</style>
 </defs>
 <g id="figure_1">
  <g id="patch_1">
   <path d="M 0 322.334688 
L 605.761884 322.334688 
L 605.761884 0 
L 0 0 
z
" style="fill:#ffffff;"/>
  </g>
  <g id="axes_1">
   <g id="patch_2">
    <path d="M 30.882812 298.989375 
L 588.882812 298.989375 
L 588.882812 21.789375 
L 30.882812 21.789375 
z
" style="fill:#ffffff;"/>
   </g>
   <g id="matplotlib.axis_1">
    <g id="xtick_1">
     <g id="line2d_1">
      <path clip-path="url(#p9c91b43348)" d="M 33.130223 298.989375 
L 33.130223 21.789375 
" style="fill:none;stroke:#cccccc;stroke-linecap:round;stroke-width:0.8;"/>
     </g>
     <g id="text_1">
      <!-- 2020-03 -->
      <g style="fill:#262626;" transform="translate(14.782567 313.147188)scale(0.1 -0.1)">
       <defs>
        <path d="M 3222 541 
L 3222 0 
L 194 0 
Q 188 203 259 391 
Q 375 700 629 1000 
Q 884 1300 1366 1694 
Q 2113 2306 2375 2664 
Q 2638 3022 2638 3341 
Q 2638 3675 2398 3904 
Q 2159 4134 1775 4134 
Q 1369 4134 1125 3890 
Q 881 3647 878 3216 
L 300 3275 
Q 359 3922 746 4261 
Q 1134 4600 1788 4600 
Q 2447 4600 2831 4234 
Q 3216 3869 3216 3328 
Q 3216 3053 3103 2787 
Q 2991 2522 2730 2228 
Q 2469 1934 1863 1422 
Q 1356 997 1212 845 
Q 1069 694 975 541 
L 3222 541 
z
" id="ArialMT-32" transform="scale(0.015625)"/>
        <path d="M 266 2259 
Q 266 3072 433 3567 
Q 600 4063 929 4331 
Q 1259 4600 1759 4600 
Q 2128 4600 2406 4451 
Q 2684 4303 2865 4023 
Q 3047 3744 3150 3342 
Q 3253 2941 3253 2259 
Q 3253 1453 3087 958 
Q 2922 463 2592 192 
Q 2263 -78 1759 -78 
Q 1097 -78 719 397 
Q 266 969 266 2259 
z
M 844 2259 
Q 844 1131 1108 757 
Q 1372 384 1759 384 
Q 2147 384 2411 759 
Q 2675 1134 2675 2259 
Q 2675 3391 2411 3762 
Q 2147 4134 1753 4134 
Q 1366 4134 1134 3806 
Q 844 3388 844 2259 
z
" id="ArialMT-30" transform="scale(0.015625)"/>
        <path d="M 203 1375 
L 203 1941 
L 1931 1941 
L 1931 1375 
L 203 1375 
z
" id="ArialMT-2d" transform="scale(0.015625)"/>
        <path d="M 269 1209 
L 831 1284 
Q 928 806 1161 595 
Q 1394 384 1728 384 
Q 2125 384 2398 659 
Q 2672 934 2672 1341 
Q 2672 1728 2419 1979 
Q 2166 2231 1775 2231 
Q 1616 2231 1378 2169 
L 1441 2663 
Q 1497 2656 1531 2656 
Q 1891 2656 2178 2843 
Q 2466 3031 2466 3422 
Q 2466 3731 2256 3934 
Q 2047 4138 1716 4138 
Q 1388 4138 1169 3931 
Q 950 3725 888 3313 
L 325 3413 
Q 428 3978 793 4289 
Q 1159 4600 1703 4600 
Q 2078 4600 2393 4439 
Q 2709 4278 2876 4000 
Q 3044 3722 3044 3409 
Q 3044 3113 2884 2869 
Q 2725 2625 2413 2481 
Q 2819 2388 3044 2092 
Q 3269 1797 3269 1353 
Q 3269 753 2831 336 
Q 2394 -81 1725 -81 
Q 1122 -81 723 278 
Q 325 638 269 1209 
z
" id="ArialMT-33" transform="scale(0.015625)"/>
       </defs>
       <use xlink:href="#ArialMT-32"/>
       <use x="55.615234" xlink:href="#ArialMT-30"/>
       <use x="111.230469" xlink:href="#ArialMT-32"/>
       <use x="166.845703" xlink:href="#ArialMT-30"/>
       <use x="222.460938" xlink:href="#ArialMT-2d"/>
       <use x="255.761719" xlink:href="#ArialMT-30"/>
       <use x="311.376953" xlink:href="#ArialMT-33"/>
      </g>
     </g>
    </g>
    <g id="xtick_2">
     <g id="line2d_2">
      <path clip-path="url(#p9c91b43348)" d="M 111.468543 298.989375 
L 111.468543 21.789375 
" style="fill:none;stroke:#cccccc;stroke-linecap:round;stroke-width:0.8;"/>
     </g>
     <g id="text_2">
      <!-- 2020-05 -->
      <g style="fill:#262626;" transform="translate(93.120887 313.147188)scale(0.1 -0.1)">
       <defs>
        <path d="M 266 1200 
L 856 1250 
Q 922 819 1161 601 
Q 1400 384 1738 384 
Q 2144 384 2425 690 
Q 2706 997 2706 1503 
Q 2706 1984 2436 2262 
Q 2166 2541 1728 2541 
Q 1456 2541 1237 2417 
Q 1019 2294 894 2097 
L 366 2166 
L 809 4519 
L 3088 4519 
L 3088 3981 
L 1259 3981 
L 1013 2750 
Q 1425 3038 1878 3038 
Q 2478 3038 2890 2622 
Q 3303 2206 3303 1553 
Q 3303 931 2941 478 
Q 2500 -78 1738 -78 
Q 1113 -78 717 272 
Q 322 622 266 1200 
z
" id="ArialMT-35" transform="scale(0.015625)"/>
       </defs>
       <use xlink:href="#ArialMT-32"/>
       <use x="55.615234" xlink:href="#ArialMT-30"/>
       <use x="111.230469" xlink:href="#ArialMT-32"/>
       <use x="166.845703" xlink:href="#ArialMT-30"/>
       <use x="222.460938" xlink:href="#ArialMT-2d"/>
       <use x="255.761719" xlink:href="#ArialMT-30"/>
       <use x="311.376953" xlink:href="#ArialMT-35"/>
      </g>
     </g>
    </g>
    <g id="xtick_3">
     <g id="line2d_3">
      <path clip-path="url(#p9c91b43348)" d="M 189.806863 298.989375 
L 189.806863 21.789375 
" style="fill:none;stroke:#cccccc;stroke-linecap:round;stroke-width:0.8;"/>
     </g>
     <g id="text_3">
      <!-- 2020-07 -->
      <g style="fill:#262626;" transform="translate(171.459207 313.147188)scale(0.1 -0.1)">
       <defs>
        <path d="M 303 3981 
L 303 4522 
L 3269 4522 
L 3269 4084 
Q 2831 3619 2401 2847 
Q 1972 2075 1738 1259 
Q 1569 684 1522 0 
L 944 0 
Q 953 541 1156 1306 
Q 1359 2072 1739 2783 
Q 2119 3494 2547 3981 
L 303 3981 
z
" id="ArialMT-37" transform="scale(0.015625)"/>
       </defs>
       <use xlink:href="#ArialMT-32"/>
       <use x="55.615234" xlink:href="#ArialMT-30"/>
       <use x="111.230469" xlink:href="#ArialMT-32"/>
       <use x="166.845703" xlink:href="#ArialMT-30"/>
       <use x="222.460938" xlink:href="#ArialMT-2d"/>
       <use x="255.761719" xlink:href="#ArialMT-30"/>
       <use x="311.376953" xlink:href="#ArialMT-37"/>
      </g>
     </g>
    </g>
    <g id="xtick_4">
     <g id="line2d_4">
      <path clip-path="url(#p9c91b43348)" d="M 269.429418 298.989375 
L 269.429418 21.789375 
" style="fill:none;stroke:#cccccc;stroke-linecap:round;stroke-width:0.8;"/>
     </g>
     <g id="text_4">
      <!-- 2020-09 -->
      <g style="fill:#262626;" transform="translate(251.081762 313.147188)scale(0.1 -0.1)">
       <defs>
        <path d="M 350 1059 
L 891 1109 
Q 959 728 1153 556 
Q 1347 384 1650 384 
Q 1909 384 2104 503 
Q 2300 622 2425 820 
Q 2550 1019 2634 1356 
Q 2719 1694 2719 2044 
Q 2719 2081 2716 2156 
Q 2547 1888 2255 1720 
Q 1963 1553 1622 1553 
Q 1053 1553 659 1965 
Q 266 2378 266 3053 
Q 266 3750 677 4175 
Q 1088 4600 1706 4600 
Q 2153 4600 2523 4359 
Q 2894 4119 3086 3673 
Q 3278 3228 3278 2384 
Q 3278 1506 3087 986 
Q 2897 466 2520 194 
Q 2144 -78 1638 -78 
Q 1100 -78 759 220 
Q 419 519 350 1059 
z
M 2653 3081 
Q 2653 3566 2395 3850 
Q 2138 4134 1775 4134 
Q 1400 4134 1122 3828 
Q 844 3522 844 3034 
Q 844 2597 1108 2323 
Q 1372 2050 1759 2050 
Q 2150 2050 2401 2323 
Q 2653 2597 2653 3081 
z
" id="ArialMT-39" transform="scale(0.015625)"/>
       </defs>
       <use xlink:href="#ArialMT-32"/>
       <use x="55.615234" xlink:href="#ArialMT-30"/>
       <use x="111.230469" xlink:href="#ArialMT-32"/>
       <use x="166.845703" xlink:href="#ArialMT-30"/>
       <use x="222.460938" xlink:href="#ArialMT-2d"/>
       <use x="255.761719" xlink:href="#ArialMT-30"/>
       <use x="311.376953" xlink:href="#ArialMT-39"/>
      </g>
     </g>
    </g>
    <g id="xtick_5">
     <g id="line2d_5">
      <path clip-path="url(#p9c91b43348)" d="M 347.767738 298.989375 
L 347.767738 21.789375 
" style="fill:none;stroke:#cccccc;stroke-linecap:round;stroke-width:0.8;"/>
     </g>
     <g id="text_5">
      <!-- 2020-11 -->
      <g style="fill:#262626;" transform="translate(329.788831 313.147188)scale(0.1 -0.1)">
       <defs>
        <path d="M 2384 0 
L 1822 0 
L 1822 3584 
Q 1619 3391 1289 3197 
Q 959 3003 697 2906 
L 697 3450 
Q 1169 3672 1522 3987 
Q 1875 4303 2022 4600 
L 2384 4600 
L 2384 0 
z
" id="ArialMT-31" transform="scale(0.015625)"/>
       </defs>
       <use xlink:href="#ArialMT-32"/>
       <use x="55.615234" xlink:href="#ArialMT-30"/>
       <use x="111.230469" xlink:href="#ArialMT-32"/>
       <use x="166.845703" xlink:href="#ArialMT-30"/>
       <use x="222.460938" xlink:href="#ArialMT-2d"/>
       <use x="255.761719" xlink:href="#ArialMT-31"/>
       <use x="304.001953" xlink:href="#ArialMT-31"/>
      </g>
     </g>
    </g>
    <g id="xtick_6">
     <g id="line2d_6">
      <path clip-path="url(#p9c91b43348)" d="M 426.106058 298.989375 
L 426.106058 21.789375 
" style="fill:none;stroke:#cccccc;stroke-linecap:round;stroke-width:0.8;"/>
     </g>
     <g id="text_6">
      <!-- 2021-01 -->
      <g style="fill:#262626;" transform="translate(407.758401 313.147188)scale(0.1 -0.1)">
       <use xlink:href="#ArialMT-32"/>
       <use x="55.615234" xlink:href="#ArialMT-30"/>
       <use x="111.230469" xlink:href="#ArialMT-32"/>
       <use x="166.845703" xlink:href="#ArialMT-31"/>
       <use x="222.460938" xlink:href="#ArialMT-2d"/>
       <use x="255.761719" xlink:href="#ArialMT-30"/>
       <use x="311.376953" xlink:href="#ArialMT-31"/>
      </g>
     </g>
    </g>
    <g id="xtick_7">
     <g id="line2d_7">
      <path clip-path="url(#p9c91b43348)" d="M 501.875908 298.989375 
L 501.875908 21.789375 
" style="fill:none;stroke:#cccccc;stroke-linecap:round;stroke-width:0.8;"/>
     </g>
     <g id="text_7">
      <!-- 2021-03 -->
      <g style="fill:#262626;" transform="translate(483.528252 313.147188)scale(0.1 -0.1)">
       <use xlink:href="#ArialMT-32"/>
       <use x="55.615234" xlink:href="#ArialMT-30"/>
       <use x="111.230469" xlink:href="#ArialMT-32"/>
       <use x="166.845703" xlink:href="#ArialMT-31"/>
       <use x="222.460938" xlink:href="#ArialMT-2d"/>
       <use x="255.761719" xlink:href="#ArialMT-30"/>
       <use x="311.376953" xlink:href="#ArialMT-33"/>
      </g>
     </g>
    </g>
    <g id="xtick_8">
     <g id="line2d_8">
      <path clip-path="url(#p9c91b43348)" d="M 580.214228 298.989375 
L 580.214228 21.789375 
" style="fill:none;stroke:#cccccc;stroke-linecap:round;stroke-width:0.8;"/>
     </g>
     <g id="text_8">
      <!-- 2021-05 -->
      <g style="fill:#262626;" transform="translate(561.866572 313.147188)scale(0.1 -0.1)">
       <use xlink:href="#ArialMT-32"/>
       <use x="55.615234" xlink:href="#ArialMT-30"/>
       <use x="111.230469" xlink:href="#ArialMT-32"/>
       <use x="166.845703" xlink:href="#ArialMT-31"/>
       <use x="222.460938" xlink:href="#ArialMT-2d"/>
       <use x="255.761719" xlink:href="#ArialMT-30"/>
       <use x="311.376953" xlink:href="#ArialMT-35"/>
      </g>
     </g>
    </g>
   </g>
   <g id="matplotlib.axis_2">
    <g id="ytick_1">
     <g id="line2d_9">
      <path clip-path="url(#p9c91b43348)" d="M 30.882812 286.389375 
L 588.882812 286.389375 
" style="fill:none;stroke:#cccccc;stroke-linecap:round;stroke-width:0.8;"/>
     </g>
     <g id="text_9">
      <!-- 0 -->
      <g style="fill:#262626;" transform="translate(18.321875 289.968281)scale(0.1 -0.1)">
       <use xlink:href="#ArialMT-30"/>
      </g>
     </g>
    </g>
    <g id="ytick_2">
     <g id="line2d_10">
      <path clip-path="url(#p9c91b43348)" d="M 30.882812 248.664824 
L 588.882812 248.664824 
" style="fill:none;stroke:#cccccc;stroke-linecap:round;stroke-width:0.8;"/>
     </g>
     <g id="text_10">
      <!-- 50 -->
      <g style="fill:#262626;" transform="translate(12.760937 252.24373)scale(0.1 -0.1)">
       <use xlink:href="#ArialMT-35"/>
       <use x="55.615234" xlink:href="#ArialMT-30"/>
      </g>
     </g>
    </g>
    <g id="ytick_3">
     <g id="line2d_11">
      <path clip-path="url(#p9c91b43348)" d="M 30.882812 210.940273 
L 588.882812 210.940273 
" style="fill:none;stroke:#cccccc;stroke-linecap:round;stroke-width:0.8;"/>
     </g>
     <g id="text_11">
      <!-- 100 -->
      <g style="fill:#262626;" transform="translate(7.2 214.519179)scale(0.1 -0.1)">
       <use xlink:href="#ArialMT-31"/>
       <use x="55.615234" xlink:href="#ArialMT-30"/>
       <use x="111.230469" xlink:href="#ArialMT-30"/>
      </g>
     </g>
    </g>
    <g id="ytick_4">
     <g id="line2d_12">
      <path clip-path="url(#p9c91b43348)" d="M 30.882812 173.215722 
L 588.882812 173.215722 
" style="fill:none;stroke:#cccccc;stroke-linecap:round;stroke-width:0.8;"/>
     </g>
     <g id="text_12">
      <!-- 150 -->
      <g style="fill:#262626;" transform="translate(7.2 176.794629)scale(0.1 -0.1)">
       <use xlink:href="#ArialMT-31"/>
       <use x="55.615234" xlink:href="#ArialMT-35"/>
       <use x="111.230469" xlink:href="#ArialMT-30"/>
      </g>
     </g>
    </g>
    <g id="ytick_5">
     <g id="line2d_13">
      <path clip-path="url(#p9c91b43348)" d="M 30.882812 135.491171 
L 588.882812 135.491171 
" style="fill:none;stroke:#cccccc;stroke-linecap:round;stroke-width:0.8;"/>
     </g>
     <g id="text_13">
      <!-- 200 -->
      <g style="fill:#262626;" transform="translate(7.2 139.070078)scale(0.1 -0.1)">
       <use xlink:href="#ArialMT-32"/>
       <use x="55.615234" xlink:href="#ArialMT-30"/>
       <use x="111.230469" xlink:href="#ArialMT-30"/>
      </g>
     </g>
    </g>
    <g id="ytick_6">
     <g id="line2d_14">
      <path clip-path="url(#p9c91b43348)" d="M 30.882812 97.766621 
L 588.882812 97.766621 
" style="fill:none;stroke:#cccccc;stroke-linecap:round;stroke-width:0.8;"/>
     </g>
     <g id="text_14">
      <!-- 250 -->
      <g style="fill:#262626;" transform="translate(7.2 101.345527)scale(0.1 -0.1)">
       <use xlink:href="#ArialMT-32"/>
       <use x="55.615234" xlink:href="#ArialMT-35"/>
       <use x="111.230469" xlink:href="#ArialMT-30"/>
      </g>
     </g>
    </g>
    <g id="ytick_7">
     <g id="line2d_15">
      <path clip-path="url(#p9c91b43348)" d="M 30.882812 60.04207 
L 588.882812 60.04207 
" style="fill:none;stroke:#cccccc;stroke-linecap:round;stroke-width:0.8;"/>
     </g>
     <g id="text_15">
      <!-- 300 -->
      <g style="fill:#262626;" transform="translate(7.2 63.620976)scale(0.1 -0.1)">
       <use xlink:href="#ArialMT-33"/>
       <use x="55.615234" xlink:href="#ArialMT-30"/>
       <use x="111.230469" xlink:href="#ArialMT-30"/>
      </g>
     </g>
    </g>
    <g id="ytick_8">
     <g id="line2d_16">
      <path clip-path="url(#p9c91b43348)" d="M 30.882812 22.317519 
L 588.882812 22.317519 
" style="fill:none;stroke:#cccccc;stroke-linecap:round;stroke-width:0.8;"/>
     </g>
     <g id="text_16">
      <!-- 350 -->
      <g style="fill:#262626;" transform="translate(7.2 25.896425)scale(0.1 -0.1)">
       <use xlink:href="#ArialMT-33"/>
       <use x="55.615234" xlink:href="#ArialMT-35"/>
       <use x="111.230469" xlink:href="#ArialMT-30"/>
      </g>
     </g>
    </g>
   </g>
   <g id="line2d_17">
    <path clip-path="url(#p9c91b43348)" d="M 56.246449 278.089974 
L 57.530684 278.089974 
L 58.814918 276.580992 
L 60.099153 276.580992 
L 61.383388 269.036082 
L 62.667623 255.455243 
L 63.951857 254.700752 
L 65.236092 251.682788 
L 66.520327 247.155842 
L 67.804562 246.401351 
L 69.088796 246.401351 
L 70.373031 245.64686 
L 71.657266 242.628896 
L 72.941501 226.030094 
L 74.225735 224.521112 
L 75.50997 224.521112 
L 76.794205 201.886381 
L 78.07844 200.377399 
L 79.362674 213.958237 
L 80.646909 210.185782 
L 81.931144 204.149854 
L 83.215379 202.640872 
L 84.499613 199.622908 
L 85.783848 199.622908 
L 87.068083 198.113926 
L 88.352318 186.796561 
L 89.636552 185.287579 
L 90.920787 189.060034 
L 92.205022 176.233686 
L 93.489257 173.215722 
L 94.773491 170.952249 
L 96.057726 167.179794 
L 97.341961 176.988177 
L 98.626196 176.988177 
L 99.91043 173.970213 
L 101.194665 167.934285 
L 102.4789 142.281591 
L 103.763135 140.772609 
L 105.047369 176.233686 
L 106.331604 178.497159 
L 107.615839 181.515124 
L 108.900074 176.233686 
L 110.184308 181.515124 
L 111.468543 173.215722 
L 112.752778 168.688776 
L 114.037013 169.443267 
L 115.321247 167.179794 
L 116.605482 161.143866 
L 117.889717 158.125902 
L 119.173952 162.652848 
L 120.458186 165.670812 
L 121.742421 161.143866 
L 123.026656 158.125902 
L 124.310891 161.898357 
L 125.595126 146.054046 
L 126.87936 152.844465 
L 128.163595 149.826501 
L 129.44783 146.054046 
L 130.732065 152.089974 
L 132.016299 140.772609 
L 133.300534 139.263626 
L 134.584769 141.5271 
L 135.869004 133.982189 
L 137.153238 137.000153 
L 138.437473 139.263626 
L 139.721708 140.772609 
L 141.005943 138.509135 
L 142.290177 137.754644 
L 143.574412 133.227698 
L 144.858647 134.73668 
L 146.142882 135.491171 
L 147.427116 123.419315 
L 148.711351 122.664824 
L 149.995586 124.173806 
L 151.279821 129.455243 
L 152.564055 129.455243 
L 153.84829 128.700752 
L 155.132525 127.19177 
L 156.41676 122.664824 
L 157.700994 122.664824 
L 158.985229 110.592968 
L 160.269464 115.874405 
L 161.553699 109.083986 
L 162.837933 114.365423 
L 164.122168 106.820513 
L 165.406403 109.838477 
L 166.690638 103.802549 
L 167.974872 112.856441 
L 169.259107 120.401351 
L 170.543342 122.664824 
L 171.827577 126.437279 
L 173.111811 130.964225 
L 174.396046 127.946261 
L 175.680281 122.664824 
L 176.964516 121.910333 
L 178.24875 118.892369 
L 179.532985 123.419315 
L 180.81722 135.491171 
L 182.101455 137.000153 
L 183.385689 131.718716 
L 184.669924 134.73668 
L 185.954159 141.5271 
L 187.238394 144.545064 
L 188.522628 150.580992 
L 189.806863 150.580992 
L 191.091098 156.61692 
L 192.375333 149.07201 
L 193.659567 152.844465 
L 194.943802 154.353447 
L 196.228037 157.371411 
L 197.512272 148.317519 
L 198.796506 164.916321 
L 200.080741 162.652848 
L 201.364976 161.898357 
L 202.649211 166.425303 
L 203.933445 171.70674 
L 205.21768 170.197758 
L 206.501915 149.826501 
L 207.78615 161.898357 
L 209.070384 153.598956 
L 210.354619 148.317519 
L 211.638854 156.61692 
L 212.923089 154.353447 
L 215.491558 158.880393 
L 216.775793 154.353447 
L 218.060028 157.371411 
L 219.344262 152.844465 
L 220.628497 154.353447 
L 223.196967 158.880393 
L 224.481201 163.407339 
L 225.765436 170.952249 
L 227.049671 173.215722 
L 228.333906 173.970213 
L 229.61814 177.742668 
L 230.902375 180.006141 
L 232.18661 177.742668 
L 233.470845 184.533088 
L 234.755079 188.305543 
L 236.039314 196.604944 
L 237.323549 194.341471 
L 238.607784 195.850453 
L 239.892018 208.6768 
L 241.176253 203.395363 
L 242.460488 207.167818 
L 243.744723 211.694764 
L 245.028957 208.6768 
L 246.313192 207.922309 
L 247.597427 204.904345 
L 248.881662 203.395363 
L 250.165897 202.640872 
L 251.450131 189.814525 
L 252.734366 198.113926 
L 255.302836 207.167818 
L 256.58707 204.904345 
L 257.871305 214.712728 
L 259.15554 215.467219 
L 260.439775 213.203746 
L 261.724009 215.467219 
L 263.008244 219.239674 
L 264.292479 213.203746 
L 265.576714 221.503147 
L 266.860948 207.167818 
L 268.145183 197.359435 
L 269.429418 195.850453 
L 270.713653 199.622908 
L 271.997887 201.13189 
L 273.282122 201.13189 
L 274.566357 203.395363 
L 275.850592 203.395363 
L 277.134826 211.694764 
L 278.419061 210.185782 
L 279.703296 200.377399 
L 280.987531 203.395363 
L 282.271765 200.377399 
L 283.556 199.622908 
L 284.840235 200.377399 
L 286.12447 203.395363 
L 288.692939 212.449255 
L 289.977174 213.203746 
L 291.261409 210.940273 
L 292.545643 209.431291 
L 295.114113 210.940273 
L 296.398348 217.730692 
L 297.682582 217.730692 
L 298.966817 231.311531 
L 300.251052 229.048058 
L 301.535287 227.539076 
L 302.819521 223.012129 
L 304.103756 221.503147 
L 305.387991 222.257638 
L 306.672226 219.239674 
L 307.95646 223.012129 
L 309.240695 222.257638 
L 310.52493 217.730692 
L 311.809165 219.239674 
L 313.093399 219.994165 
L 314.377634 214.712728 
L 315.661869 210.940273 
L 316.946104 213.203746 
L 318.230338 210.185782 
L 319.514573 212.449255 
L 320.798808 209.431291 
L 322.083043 214.712728 
L 323.367277 215.467219 
L 324.651512 214.712728 
L 325.935747 212.449255 
L 327.219982 213.958237 
L 328.504216 216.976201 
L 329.788451 216.22171 
L 331.072686 216.22171 
L 332.356921 213.203746 
L 333.641155 207.167818 
L 334.92539 204.904345 
L 336.209625 205.658836 
L 337.49386 207.922309 
L 338.778094 204.149854 
L 340.062329 204.149854 
L 341.346564 201.886381 
L 342.630799 195.095962 
L 343.915033 196.604944 
L 345.199268 193.58698 
L 346.483503 193.58698 
L 347.767738 190.569016 
L 349.051972 186.796561 
L 350.336207 180.760632 
L 351.620442 189.060034 
L 352.904677 194.341471 
L 354.188911 189.060034 
L 355.473146 183.024106 
L 356.757381 186.04207 
L 358.041616 179.25165 
L 359.32585 174.724704 
L 360.610085 164.916321 
L 361.89432 166.425303 
L 363.178555 169.443267 
L 364.462789 173.970213 
L 365.747024 173.215722 
L 367.031259 168.688776 
L 368.315494 169.443267 
L 369.599728 153.598956 
L 370.883963 149.826501 
L 372.168198 152.089974 
L 373.452433 138.509135 
L 374.736668 139.263626 
L 376.020902 143.790573 
L 377.305137 137.754644 
L 378.589372 132.473207 
L 379.873607 132.473207 
L 381.157841 134.73668 
L 382.442076 127.946261 
L 383.726311 138.509135 
L 385.010546 142.281591 
L 386.29478 147.563028 
L 387.579015 140.018118 
L 388.86325 141.5271 
L 390.147485 149.07201 
L 391.431719 145.299555 
L 392.715954 155.862429 
L 394.000189 164.916321 
L 395.284424 155.862429 
L 396.568658 142.281591 
L 397.852893 154.353447 
L 399.137128 150.580992 
L 400.421363 149.07201 
L 401.705597 155.862429 
L 405.558302 171.70674 
L 406.842536 170.197758 
L 408.126771 169.443267 
L 409.411006 174.724704 
L 410.695241 178.497159 
L 411.979475 173.970213 
L 413.26371 170.952249 
L 414.547945 170.952249 
L 415.83218 175.479195 
L 417.116414 182.269615 
L 418.400649 184.533088 
L 419.684884 178.497159 
L 420.969119 177.742668 
L 422.253353 173.215722 
L 423.537588 175.479195 
L 424.821823 173.970213 
L 426.106058 183.778597 
L 427.390292 180.760632 
L 428.674527 187.551052 
L 429.958762 197.359435 
L 431.242997 195.850453 
L 432.527231 195.095962 
L 433.811466 196.604944 
L 435.095701 192.832489 
L 437.66417 194.341471 
L 438.948405 184.533088 
L 440.23264 187.551052 
L 441.516875 179.25165 
L 442.801109 180.006141 
L 444.085344 176.233686 
L 446.653814 185.287579 
L 447.938048 178.497159 
L 449.222283 181.515124 
L 450.506518 187.551052 
L 451.790753 195.850453 
L 453.074987 189.060034 
L 454.359222 192.832489 
L 455.643457 189.814525 
L 456.927692 199.622908 
L 458.211926 204.149854 
L 459.496161 195.095962 
L 460.780396 201.13189 
L 462.064631 196.604944 
L 463.348865 201.886381 
L 464.6331 204.149854 
L 465.917335 195.095962 
L 467.20157 194.341471 
L 468.485804 191.323507 
L 469.770039 196.604944 
L 471.054274 195.850453 
L 472.338509 196.604944 
L 473.622743 200.377399 
L 474.906978 203.395363 
L 476.191213 210.185782 
L 477.475448 210.940273 
L 478.759682 209.431291 
L 480.043917 206.413327 
L 481.328152 216.976201 
L 482.612387 216.22171 
L 483.896621 206.413327 
L 485.180856 203.395363 
L 486.465091 214.712728 
L 487.749326 214.712728 
L 489.03356 211.694764 
L 490.317795 213.958237 
L 491.60203 209.431291 
L 492.886265 202.640872 
L 494.170499 198.113926 
L 495.454734 201.13189 
L 496.738969 191.323507 
L 498.023204 192.077998 
L 499.307439 205.658836 
L 500.591673 189.060034 
L 501.875908 180.760632 
L 503.160143 186.796561 
L 504.444378 178.497159 
L 505.728612 180.006141 
L 507.012847 177.742668 
L 508.297082 186.796561 
L 509.581317 183.778597 
L 510.865551 173.970213 
L 512.149786 169.443267 
L 514.718256 161.898357 
L 517.286725 148.317519 
L 518.57096 139.263626 
L 519.855195 133.982189 
L 521.139429 118.892369 
L 522.423664 115.874405 
L 523.707899 112.10195 
L 524.992134 106.820513 
L 526.276368 95.503147 
L 527.560603 81.922309 
L 528.844838 74.377399 
L 530.129073 64.569016 
L 531.413307 57.778597 
L 532.697542 39.670812 
L 533.981777 49.479195 
L 535.266012 40.425303 
L 536.550246 44.197758 
L 537.834481 44.197758 
L 539.118716 34.389375 
L 540.402951 35.898357 
L 541.687185 41.179794 
L 542.97142 37.407339 
L 544.255655 42.688776 
L 545.53989 44.197758 
L 546.824124 41.179794 
L 548.108359 45.70674 
L 549.392594 46.461231 
L 550.676829 56.269615 
L 551.961063 55.515124 
L 553.245298 81.922309 
L 554.529533 87.958237 
L 555.813768 78.904345 
L 557.098002 87.203746 
L 558.382237 84.940273 
L 559.666472 81.922309 
L 560.950707 91.730692 
L 562.234941 78.904345 
L 563.519176 97.012129 
L 563.519176 97.012129 
" style="fill:none;stroke:#1f77b4;stroke-linecap:round;stroke-width:1.5;"/>
   </g>
   <g id="line2d_18">
    <path clip-path="url(#p9c91b43348)" d="M 56.246449 286.389375 
L 57.530684 286.389375 
L 58.814918 281.107938 
L 60.099153 281.107938 
L 61.383388 279.598956 
L 62.667623 272.054046 
L 63.951857 272.808537 
L 65.236092 269.790573 
L 70.373031 269.790573 
L 71.657266 270.545064 
L 72.941501 267.5271 
L 74.225735 269.036082 
L 75.50997 268.281591 
L 76.794205 265.263626 
L 78.07844 265.263626 
L 79.362674 261.491171 
L 80.646909 258.473207 
L 81.931144 258.473207 
L 83.215379 262.245662 
L 85.783848 262.245662 
L 87.068083 261.491171 
L 88.352318 257.718716 
L 89.636552 259.982189 
L 90.920787 264.509135 
L 92.205022 258.473207 
L 93.489257 253.19177 
L 94.773491 252.437279 
L 96.057726 245.64686 
L 97.341961 250.173806 
L 98.626196 248.664824 
L 99.91043 245.64686 
L 101.194665 238.856441 
L 102.4789 235.083986 
L 103.763135 232.820513 
L 105.047369 238.856441 
L 106.331604 238.856441 
L 108.900074 241.874405 
L 110.184308 238.856441 
L 111.468543 233.575004 
L 112.752778 231.311531 
L 114.037013 229.802549 
L 115.321247 230.55704 
L 116.605482 225.275603 
L 117.889717 225.275603 
L 119.173952 232.820513 
L 120.458186 234.329495 
L 121.742421 229.048058 
L 123.026656 229.048058 
L 125.595126 232.066022 
L 126.87936 236.592968 
L 128.163595 233.575004 
L 129.44783 231.311531 
L 130.732065 235.838477 
L 132.016299 229.048058 
L 133.300534 229.048058 
L 134.584769 227.539076 
L 135.869004 230.55704 
L 137.153238 226.030094 
L 138.437473 226.030094 
L 139.721708 222.257638 
L 141.005943 223.012129 
L 143.574412 221.503147 
L 144.858647 228.293567 
L 146.142882 230.55704 
L 147.427116 225.275603 
L 148.711351 229.048058 
L 149.995586 225.275603 
L 151.279821 220.748656 
L 152.564055 219.239674 
L 153.84829 218.485183 
L 155.132525 221.503147 
L 156.41676 219.239674 
L 157.700994 219.239674 
L 158.985229 214.712728 
L 160.269464 216.976201 
L 161.553699 215.467219 
L 162.837933 215.467219 
L 164.122168 207.922309 
L 165.406403 211.694764 
L 166.690638 216.976201 
L 167.974872 219.239674 
L 169.259107 212.449255 
L 170.543342 216.976201 
L 171.827577 223.012129 
L 173.111811 225.275603 
L 175.680281 223.766621 
L 176.964516 219.239674 
L 178.24875 221.503147 
L 179.532985 219.994165 
L 180.81722 223.012129 
L 182.101455 222.257638 
L 183.385689 223.012129 
L 184.669924 227.539076 
L 185.954159 234.329495 
L 187.238394 233.575004 
L 188.522628 230.55704 
L 189.806863 231.311531 
L 191.091098 234.329495 
L 192.375333 232.066022 
L 193.659567 230.55704 
L 194.943802 231.311531 
L 196.228037 231.311531 
L 197.512272 229.802549 
L 198.796506 236.592968 
L 200.080741 236.592968 
L 201.364976 235.838477 
L 202.649211 238.856441 
L 203.933445 240.365423 
L 205.21768 236.592968 
L 206.501915 231.311531 
L 207.78615 233.575004 
L 209.070384 227.539076 
L 210.354619 230.55704 
L 211.638854 236.592968 
L 212.923089 238.856441 
L 214.207323 237.347459 
L 215.491558 237.347459 
L 216.775793 238.856441 
L 218.060028 233.575004 
L 219.344262 235.083986 
L 220.628497 237.347459 
L 221.912732 237.347459 
L 223.196967 233.575004 
L 224.481201 233.575004 
L 225.765436 238.10195 
L 227.049671 238.10195 
L 228.333906 238.856441 
L 229.61814 241.874405 
L 230.902375 243.383387 
L 232.18661 244.137878 
L 233.470845 246.401351 
L 234.755079 250.173806 
L 236.039314 249.419315 
L 237.323549 246.401351 
L 238.607784 247.155842 
L 239.892018 252.437279 
L 241.176253 252.437279 
L 242.460488 251.682788 
L 243.744723 255.455243 
L 245.028957 254.700752 
L 246.313192 253.19177 
L 247.597427 250.173806 
L 248.881662 251.682788 
L 250.165897 251.682788 
L 251.450131 248.664824 
L 252.734366 253.946261 
L 254.018601 253.946261 
L 255.302836 258.473207 
L 256.58707 256.209734 
L 257.871305 259.227698 
L 259.15554 259.227698 
L 260.439775 259.982189 
L 261.724009 256.964225 
L 264.292479 256.964225 
L 265.576714 260.73668 
L 266.860948 254.700752 
L 268.145183 256.209734 
L 269.429418 252.437279 
L 270.713653 253.946261 
L 271.997887 253.19177 
L 273.282122 253.946261 
L 274.566357 251.682788 
L 275.850592 253.946261 
L 277.134826 255.455243 
L 278.419061 254.700752 
L 279.703296 250.173806 
L 280.987531 251.682788 
L 282.271765 247.910333 
L 283.556 248.664824 
L 284.840235 253.19177 
L 286.12447 259.227698 
L 287.408704 255.455243 
L 288.692939 255.455243 
L 289.977174 256.209734 
L 291.261409 254.700752 
L 293.829878 256.209734 
L 295.114113 255.455243 
L 296.398348 256.964225 
L 297.682582 262.245662 
L 298.966817 261.491171 
L 300.251052 256.964225 
L 301.535287 257.718716 
L 302.819521 256.964225 
L 304.103756 254.700752 
L 305.387991 253.19177 
L 306.672226 253.19177 
L 307.95646 256.209734 
L 309.240695 257.718716 
L 310.52493 256.964225 
L 313.093399 256.964225 
L 314.377634 256.209734 
L 315.661869 254.700752 
L 316.946104 256.209734 
L 318.230338 256.964225 
L 319.514573 255.455243 
L 320.798808 254.700752 
L 322.083043 258.473207 
L 323.367277 261.491171 
L 324.651512 259.227698 
L 325.935747 261.491171 
L 327.219982 261.491171 
L 328.504216 259.982189 
L 329.788451 262.245662 
L 331.072686 258.473207 
L 332.356921 256.209734 
L 333.641155 255.455243 
L 334.92539 252.437279 
L 338.778094 252.437279 
L 341.346564 249.419315 
L 342.630799 246.401351 
L 343.915033 251.682788 
L 345.199268 251.682788 
L 346.483503 250.928297 
L 347.767738 249.419315 
L 349.051972 246.401351 
L 350.336207 247.155842 
L 352.904677 245.64686 
L 354.188911 244.137878 
L 355.473146 241.874405 
L 356.757381 244.892369 
L 358.041616 235.838477 
L 359.32585 233.575004 
L 360.610085 235.083986 
L 361.89432 234.329495 
L 363.178555 226.784585 
L 364.462789 234.329495 
L 365.747024 233.575004 
L 367.031259 235.838477 
L 368.315494 235.083986 
L 369.599728 227.539076 
L 370.883963 226.030094 
L 372.168198 226.030094 
L 373.452433 216.22171 
L 374.736668 219.994165 
L 376.020902 225.275603 
L 377.305137 221.503147 
L 378.589372 222.257638 
L 379.873607 222.257638 
L 381.157841 223.766621 
L 382.442076 223.012129 
L 383.726311 228.293567 
L 385.010546 229.048058 
L 386.29478 223.766621 
L 387.579015 220.748656 
L 388.86325 222.257638 
L 390.147485 226.784585 
L 391.431719 228.293567 
L 392.715954 226.784585 
L 394.000189 235.083986 
L 395.284424 229.048058 
L 396.568658 229.048058 
L 397.852893 225.275603 
L 399.137128 220.748656 
L 400.421363 223.766621 
L 401.705597 223.766621 
L 402.989832 229.048058 
L 404.274067 231.311531 
L 405.558302 229.048058 
L 406.842536 228.293567 
L 408.126771 231.311531 
L 409.411006 235.838477 
L 410.695241 232.820513 
L 411.979475 230.55704 
L 413.26371 232.066022 
L 414.547945 226.784585 
L 415.83218 232.066022 
L 417.116414 235.083986 
L 418.400649 235.083986 
L 419.684884 226.784585 
L 420.969119 235.083986 
L 422.253353 235.083986 
L 423.537588 238.856441 
L 424.821823 236.592968 
L 426.106058 235.083986 
L 427.390292 236.592968 
L 428.674527 237.347459 
L 429.958762 239.610932 
L 431.242997 241.119914 
L 432.527231 241.874405 
L 433.811466 243.383387 
L 435.095701 241.874405 
L 436.379936 238.856441 
L 437.66417 237.347459 
L 438.948405 232.820513 
L 440.23264 233.575004 
L 441.516875 228.293567 
L 442.801109 226.784585 
L 444.085344 223.766621 
L 445.369579 225.275603 
L 446.653814 227.539076 
L 449.222283 230.55704 
L 450.506518 231.311531 
L 451.790753 233.575004 
L 453.074987 232.066022 
L 454.359222 234.329495 
L 455.643457 229.048058 
L 456.927692 229.802549 
L 458.211926 232.066022 
L 459.496161 231.311531 
L 460.780396 236.592968 
L 464.6331 238.856441 
L 465.917335 235.838477 
L 467.20157 231.311531 
L 468.485804 235.838477 
L 469.770039 232.820513 
L 471.054274 236.592968 
L 472.338509 238.10195 
L 473.622743 242.628896 
L 474.906978 245.64686 
L 476.191213 247.155842 
L 477.475448 244.892369 
L 478.759682 245.64686 
L 480.043917 243.383387 
L 481.328152 250.928297 
L 482.612387 251.682788 
L 483.896621 240.365423 
L 485.180856 244.137878 
L 486.465091 242.628896 
L 487.749326 243.383387 
L 489.03356 239.610932 
L 490.317795 242.628896 
L 491.60203 244.137878 
L 492.886265 241.874405 
L 494.170499 243.383387 
L 495.454734 248.664824 
L 498.023204 239.610932 
L 499.307439 244.892369 
L 500.591673 240.365423 
L 501.875908 237.347459 
L 503.160143 239.610932 
L 504.444378 236.592968 
L 505.728612 236.592968 
L 507.012847 237.347459 
L 508.297082 243.383387 
L 509.581317 233.575004 
L 510.865551 236.592968 
L 512.149786 238.856441 
L 513.434021 232.066022 
L 514.718256 229.048058 
L 516.00249 223.766621 
L 517.286725 211.694764 
L 518.57096 204.904345 
L 519.855195 213.958237 
L 521.139429 201.886381 
L 522.423664 196.604944 
L 523.707899 198.113926 
L 524.992134 186.796561 
L 526.276368 190.569016 
L 527.560603 186.04207 
L 528.844838 187.551052 
L 530.129073 180.760632 
L 531.413307 177.742668 
L 532.697542 165.670812 
L 533.981777 163.407339 
L 535.266012 155.862429 
L 536.550246 151.335483 
L 537.834481 154.353447 
L 539.118716 152.089974 
L 540.402951 150.580992 
L 541.687185 147.563028 
L 544.255655 146.054046 
L 545.53989 149.07201 
L 546.824124 146.808537 
L 548.108359 146.054046 
L 550.676829 143.036082 
L 551.961063 144.545064 
L 553.245298 153.598956 
L 554.529533 153.598956 
L 557.098002 165.670812 
L 558.382237 162.652848 
L 559.666472 158.880393 
L 560.950707 168.688776 
L 562.234941 163.407339 
L 563.519176 172.461231 
L 563.519176 172.461231 
" style="fill:none;stroke:#ff7f0e;stroke-linecap:round;stroke-width:1.5;"/>
   </g>
   <g id="patch_3">
    <path d="M 30.882812 298.989375 
L 30.882812 21.789375 
" style="fill:none;stroke:#cccccc;stroke-linecap:square;stroke-linejoin:miter;stroke-width:0.8;"/>
   </g>
   <g id="patch_4">
    <path d="M 588.882812 298.989375 
L 588.882812 21.789375 
" style="fill:none;stroke:#cccccc;stroke-linecap:square;stroke-linejoin:miter;stroke-width:0.8;"/>
   </g>
   <g id="patch_5">
    <path d="M 30.882812 298.989375 
L 588.882812 298.989375 
" style="fill:none;stroke:#cccccc;stroke-linecap:square;stroke-linejoin:miter;stroke-width:0.8;"/>
   </g>
   <g id="patch_6">
    <path d="M 30.882812 21.789375 
L 588.882812 21.789375 
" style="fill:none;stroke:#cccccc;stroke-linecap:square;stroke-linejoin:miter;stroke-width:0.8;"/>
   </g>
   <g id="text_17">
    <!-- Internações -->
    <g style="fill:#262626;" transform="translate(278.531875 15.789375)scale(0.12 -0.12)">
     <defs>
      <path d="M 597 0 
L 597 4581 
L 1203 4581 
L 1203 0 
L 597 0 
z
" id="ArialMT-49" transform="scale(0.015625)"/>
      <path d="M 422 0 
L 422 3319 
L 928 3319 
L 928 2847 
Q 1294 3394 1984 3394 
Q 2284 3394 2536 3286 
Q 2788 3178 2913 3003 
Q 3038 2828 3088 2588 
Q 3119 2431 3119 2041 
L 3119 0 
L 2556 0 
L 2556 2019 
Q 2556 2363 2490 2533 
Q 2425 2703 2258 2804 
Q 2091 2906 1866 2906 
Q 1506 2906 1245 2678 
Q 984 2450 984 1813 
L 984 0 
L 422 0 
z
" id="ArialMT-6e" transform="scale(0.015625)"/>
      <path d="M 1650 503 
L 1731 6 
Q 1494 -44 1306 -44 
Q 1000 -44 831 53 
Q 663 150 594 308 
Q 525 466 525 972 
L 525 2881 
L 113 2881 
L 113 3319 
L 525 3319 
L 525 4141 
L 1084 4478 
L 1084 3319 
L 1650 3319 
L 1650 2881 
L 1084 2881 
L 1084 941 
Q 1084 700 1114 631 
Q 1144 563 1211 522 
Q 1278 481 1403 481 
Q 1497 481 1650 503 
z
" id="ArialMT-74" transform="scale(0.015625)"/>
      <path d="M 2694 1069 
L 3275 997 
Q 3138 488 2766 206 
Q 2394 -75 1816 -75 
Q 1088 -75 661 373 
Q 234 822 234 1631 
Q 234 2469 665 2931 
Q 1097 3394 1784 3394 
Q 2450 3394 2872 2941 
Q 3294 2488 3294 1666 
Q 3294 1616 3291 1516 
L 816 1516 
Q 847 969 1125 678 
Q 1403 388 1819 388 
Q 2128 388 2347 550 
Q 2566 713 2694 1069 
z
M 847 1978 
L 2700 1978 
Q 2663 2397 2488 2606 
Q 2219 2931 1791 2931 
Q 1403 2931 1139 2672 
Q 875 2413 847 1978 
z
" id="ArialMT-65" transform="scale(0.015625)"/>
      <path d="M 416 0 
L 416 3319 
L 922 3319 
L 922 2816 
Q 1116 3169 1280 3281 
Q 1444 3394 1641 3394 
Q 1925 3394 2219 3213 
L 2025 2691 
Q 1819 2813 1613 2813 
Q 1428 2813 1281 2702 
Q 1134 2591 1072 2394 
Q 978 2094 978 1738 
L 978 0 
L 416 0 
z
" id="ArialMT-72" transform="scale(0.015625)"/>
      <path d="M 2588 409 
Q 2275 144 1986 34 
Q 1697 -75 1366 -75 
Q 819 -75 525 192 
Q 231 459 231 875 
Q 231 1119 342 1320 
Q 453 1522 633 1644 
Q 813 1766 1038 1828 
Q 1203 1872 1538 1913 
Q 2219 1994 2541 2106 
Q 2544 2222 2544 2253 
Q 2544 2597 2384 2738 
Q 2169 2928 1744 2928 
Q 1347 2928 1158 2789 
Q 969 2650 878 2297 
L 328 2372 
Q 403 2725 575 2942 
Q 747 3159 1072 3276 
Q 1397 3394 1825 3394 
Q 2250 3394 2515 3294 
Q 2781 3194 2906 3042 
Q 3031 2891 3081 2659 
Q 3109 2516 3109 2141 
L 3109 1391 
Q 3109 606 3145 398 
Q 3181 191 3288 0 
L 2700 0 
Q 2613 175 2588 409 
z
M 2541 1666 
Q 2234 1541 1622 1453 
Q 1275 1403 1131 1340 
Q 988 1278 909 1158 
Q 831 1038 831 891 
Q 831 666 1001 516 
Q 1172 366 1500 366 
Q 1825 366 2078 508 
Q 2331 650 2450 897 
Q 2541 1088 2541 1459 
L 2541 1666 
z
" id="ArialMT-61" transform="scale(0.015625)"/>
      <path d="M 2588 1216 
L 3141 1144 
Q 3050 572 2676 248 
Q 2303 -75 1759 -75 
Q 1078 -75 664 370 
Q 250 816 250 1647 
Q 250 2184 428 2587 
Q 606 2991 970 3192 
Q 1334 3394 1763 3394 
Q 2303 3394 2647 3120 
Q 2991 2847 3088 2344 
L 2541 2259 
Q 2463 2594 2264 2762 
Q 2066 2931 1784 2931 
Q 1359 2931 1093 2626 
Q 828 2322 828 1663 
Q 828 994 1084 691 
Q 1341 388 1753 388 
Q 2084 388 2306 591 
Q 2528 794 2588 1216 
z
M 1284 -418 
L 1447 135 
L 1866 135 
L 1763 -200 
Q 2028 -231 2162 -363 
Q 2297 -496 2297 -659 
Q 2297 -893 2072 -1073 
Q 1847 -1253 1394 -1253 
Q 1138 -1253 944 -1215 
L 978 -850 
Q 1178 -862 1272 -862 
Q 1566 -862 1684 -781 
Q 1775 -718 1775 -628 
Q 1775 -571 1739 -527 
Q 1703 -484 1606 -452 
Q 1509 -421 1284 -418 
z
" id="ArialMT-e7" transform="scale(0.015625)"/>
      <path d="M 213 1659 
Q 213 2581 725 3025 
Q 1153 3394 1769 3394 
Q 2453 3394 2887 2945 
Q 3322 2497 3322 1706 
Q 3322 1066 3130 698 
Q 2938 331 2570 128 
Q 2203 -75 1769 -75 
Q 1072 -75 642 372 
Q 213 819 213 1659 
z
M 791 1659 
Q 791 1022 1069 705 
Q 1347 388 1769 388 
Q 2188 388 2466 706 
Q 2744 1025 2744 1678 
Q 2744 2294 2464 2611 
Q 2184 2928 1769 2928 
Q 1347 2928 1069 2612 
Q 791 2297 791 1659 
z
M 722 3809 
Q 719 4134 900 4328 
Q 1078 4522 1356 4522 
Q 1550 4522 1884 4353 
Q 2069 4259 2178 4259 
Q 2278 4259 2331 4314 
Q 2384 4369 2406 4531 
L 2813 4531 
Q 2803 4175 2633 3997 
Q 2463 3819 2200 3819 
Q 2003 3819 1681 3994 
Q 1472 4106 1375 4106 
Q 1269 4106 1203 4031 
Q 1134 3956 1138 3809 
L 722 3809 
z
" id="ArialMT-f5" transform="scale(0.015625)"/>
      <path d="M 197 991 
L 753 1078 
Q 800 744 1014 566 
Q 1228 388 1613 388 
Q 2000 388 2187 545 
Q 2375 703 2375 916 
Q 2375 1106 2209 1216 
Q 2094 1291 1634 1406 
Q 1016 1563 777 1677 
Q 538 1791 414 1992 
Q 291 2194 291 2438 
Q 291 2659 392 2848 
Q 494 3038 669 3163 
Q 800 3259 1026 3326 
Q 1253 3394 1513 3394 
Q 1903 3394 2198 3281 
Q 2494 3169 2634 2976 
Q 2775 2784 2828 2463 
L 2278 2388 
Q 2241 2644 2061 2787 
Q 1881 2931 1553 2931 
Q 1166 2931 1000 2803 
Q 834 2675 834 2503 
Q 834 2394 903 2306 
Q 972 2216 1119 2156 
Q 1203 2125 1616 2013 
Q 2213 1853 2448 1751 
Q 2684 1650 2818 1456 
Q 2953 1263 2953 975 
Q 2953 694 2789 445 
Q 2625 197 2315 61 
Q 2006 -75 1616 -75 
Q 969 -75 630 194 
Q 291 463 197 991 
z
" id="ArialMT-73" transform="scale(0.015625)"/>
     </defs>
     <use xlink:href="#ArialMT-49"/>
     <use x="27.783203" xlink:href="#ArialMT-6e"/>
     <use x="83.398438" xlink:href="#ArialMT-74"/>
     <use x="111.181641" xlink:href="#ArialMT-65"/>
     <use x="166.796875" xlink:href="#ArialMT-72"/>
     <use x="200.097656" xlink:href="#ArialMT-6e"/>
     <use x="255.712891" xlink:href="#ArialMT-61"/>
     <use x="311.328125" xlink:href="#ArialMT-e7"/>
     <use x="361.328125" xlink:href="#ArialMT-f5"/>
     <use x="416.943359" xlink:href="#ArialMT-65"/>
     <use x="472.558594" xlink:href="#ArialMT-73"/>
    </g>
   </g>
   <g id="legend_1">
    <g id="patch_7">
     <path d="M 37.882812 58.08 
L 122.134375 58.08 
Q 124.134375 58.08 124.134375 56.08 
L 124.134375 28.789375 
Q 124.134375 26.789375 122.134375 26.789375 
L 37.882812 26.789375 
Q 35.882812 26.789375 35.882812 28.789375 
L 35.882812 56.08 
Q 35.882812 58.08 37.882812 58.08 
z
" style="fill:#ffffff;opacity:0.8;stroke:#cccccc;stroke-linejoin:miter;"/>
    </g>
    <g id="line2d_19">
     <path d="M 39.882812 34.447187 
L 59.882812 34.447187 
" style="fill:none;stroke:#1f77b4;stroke-linecap:round;stroke-width:1.5;"/>
    </g>
    <g id="line2d_20"/>
    <g id="text_18">
     <!-- Internações -->
     <g style="fill:#262626;" transform="translate(67.882812 37.947187)scale(0.1 -0.1)">
      <use xlink:href="#ArialMT-49"/>
      <use x="27.783203" xlink:href="#ArialMT-6e"/>
      <use x="83.398438" xlink:href="#ArialMT-74"/>
      <use x="111.181641" xlink:href="#ArialMT-65"/>
      <use x="166.796875" xlink:href="#ArialMT-72"/>
      <use x="200.097656" xlink:href="#ArialMT-6e"/>
      <use x="255.712891" xlink:href="#ArialMT-61"/>
      <use x="311.328125" xlink:href="#ArialMT-e7"/>
      <use x="361.328125" xlink:href="#ArialMT-f5"/>
      <use x="416.943359" xlink:href="#ArialMT-65"/>
      <use x="472.558594" xlink:href="#ArialMT-73"/>
     </g>
    </g>
    <g id="line2d_21">
     <path d="M 39.882812 48.5925 
L 59.882812 48.5925 
" style="fill:none;stroke:#ff7f0e;stroke-linecap:round;stroke-width:1.5;"/>
    </g>
    <g id="line2d_22"/>
    <g id="text_19">
     <!-- UTI -->
     <g style="fill:#262626;" transform="translate(67.882812 52.0925)scale(0.1 -0.1)">
      <defs>
       <path d="M 3500 4581 
L 4106 4581 
L 4106 1934 
Q 4106 1244 3950 837 
Q 3794 431 3386 176 
Q 2978 -78 2316 -78 
Q 1672 -78 1262 144 
Q 853 366 678 786 
Q 503 1206 503 1934 
L 503 4581 
L 1109 4581 
L 1109 1938 
Q 1109 1341 1220 1058 
Q 1331 775 1601 622 
Q 1872 469 2263 469 
Q 2931 469 3215 772 
Q 3500 1075 3500 1938 
L 3500 4581 
z
" id="ArialMT-55" transform="scale(0.015625)"/>
       <path d="M 1659 0 
L 1659 4041 
L 150 4041 
L 150 4581 
L 3781 4581 
L 3781 4041 
L 2266 4041 
L 2266 0 
L 1659 0 
z
" id="ArialMT-54" transform="scale(0.015625)"/>
      </defs>
      <use xlink:href="#ArialMT-55"/>
      <use x="72.216797" xlink:href="#ArialMT-54"/>
      <use x="133.300781" xlink:href="#ArialMT-49"/>
     </g>
    </g>
   </g>
  </g>
 </g>
 <defs>
  <clipPath id="p9c91b43348">
   <rect height="277.2" width="558" x="30.882812" y="21.789375"/>
  </clipPath>
 </defs>
</svg>
