<?xml version="1.0" encoding="utf-8" standalone="no"?>
<!DOCTYPE svg PUBLIC "-//W3C//DTD SVG 1.1//EN"
  "http://www.w3.org/Graphics/SVG/1.1/DTD/svg11.dtd">
<!-- Created with matplotlib (https://matplotlib.org/) -->
<svg height="323.41875pt" version="1.1" viewBox="0 0 598.4875 323.41875" width="598.4875pt" xmlns="http://www.w3.org/2000/svg" xmlns:xlink="http://www.w3.org/1999/xlink">
 <metadata>
  <rdf:RDF xmlns:cc="http://creativecommons.org/ns#" xmlns:dc="http://purl.org/dc/elements/1.1/" xmlns:rdf="http://www.w3.org/1999/02/22-rdf-syntax-ns#">
   <cc:Work>
    <dc:type rdf:resource="http://purl.org/dc/dcmitype/StillImage"/>
    <dc:date>2021-02-28T18:28:06.409109</dc:date>
    <dc:format>image/svg+xml</dc:format>
    <dc:creator>
     <cc:Agent>
      <dc:title>Matplotlib v3.3.4, https://matplotlib.org/</dc:title>
     </cc:Agent>
    </dc:creator>
   </cc:Work>
  </rdf:RDF>
 </metadata>
 <defs>
  <style type="text/css">*{stroke-linecap:butt;stroke-linejoin:round;}</style>
 </defs>
 <g id="figure_1">
  <g id="patch_1">
   <path d="M 0 323.41875 
L 598.4875 323.41875 
L 598.4875 0 
L 0 0 
z
" style="fill:#ffffff;"/>
  </g>
  <g id="axes_1">
   <g id="patch_2">
    <path d="M 33.2875 299.540625 
L 591.2875 299.540625 
L 591.2875 22.340625 
L 33.2875 22.340625 
z
" style="fill:#ffffff;"/>
   </g>
   <g id="matplotlib.axis_1">
    <g id="xtick_1">
     <g id="line2d_1">
      <defs>
       <path d="M 0 0 
L 0 3.5 
" id="m1c5e447d5a" style="stroke:#000000;stroke-width:0.8;"/>
      </defs>
      <g>
       <use style="stroke:#000000;stroke-width:0.8;" x="121.693701" xlink:href="#m1c5e447d5a" y="299.540625"/>
      </g>
     </g>
     <g id="text_1">
      <!-- 2020-05 -->
      <g transform="translate(100.802294 314.139063)scale(0.1 -0.1)">
       <defs>
        <path d="M 19.1875 8.296875 
L 53.609375 8.296875 
L 53.609375 0 
L 7.328125 0 
L 7.328125 8.296875 
Q 12.9375 14.109375 22.625 23.890625 
Q 32.328125 33.6875 34.8125 36.53125 
Q 39.546875 41.84375 41.421875 45.53125 
Q 43.3125 49.21875 43.3125 52.78125 
Q 43.3125 58.59375 39.234375 62.25 
Q 35.15625 65.921875 28.609375 65.921875 
Q 23.96875 65.921875 18.8125 64.3125 
Q 13.671875 62.703125 7.8125 59.421875 
L 7.8125 69.390625 
Q 13.765625 71.78125 18.9375 73 
Q 24.125 74.21875 28.421875 74.21875 
Q 39.75 74.21875 46.484375 68.546875 
Q 53.21875 62.890625 53.21875 53.421875 
Q 53.21875 48.921875 51.53125 44.890625 
Q 49.859375 40.875 45.40625 35.40625 
Q 44.1875 33.984375 37.640625 27.21875 
Q 31.109375 20.453125 19.1875 8.296875 
z
" id="DejaVuSans-50"/>
        <path d="M 31.78125 66.40625 
Q 24.171875 66.40625 20.328125 58.90625 
Q 16.5 51.421875 16.5 36.375 
Q 16.5 21.390625 20.328125 13.890625 
Q 24.171875 6.390625 31.78125 6.390625 
Q 39.453125 6.390625 43.28125 13.890625 
Q 47.125 21.390625 47.125 36.375 
Q 47.125 51.421875 43.28125 58.90625 
Q 39.453125 66.40625 31.78125 66.40625 
z
M 31.78125 74.21875 
Q 44.046875 74.21875 50.515625 64.515625 
Q 56.984375 54.828125 56.984375 36.375 
Q 56.984375 17.96875 50.515625 8.265625 
Q 44.046875 -1.421875 31.78125 -1.421875 
Q 19.53125 -1.421875 13.0625 8.265625 
Q 6.59375 17.96875 6.59375 36.375 
Q 6.59375 54.828125 13.0625 64.515625 
Q 19.53125 74.21875 31.78125 74.21875 
z
" id="DejaVuSans-48"/>
        <path d="M 4.890625 31.390625 
L 31.203125 31.390625 
L 31.203125 23.390625 
L 4.890625 23.390625 
z
" id="DejaVuSans-45"/>
        <path d="M 10.796875 72.90625 
L 49.515625 72.90625 
L 49.515625 64.59375 
L 19.828125 64.59375 
L 19.828125 46.734375 
Q 21.96875 47.46875 24.109375 47.828125 
Q 26.265625 48.1875 28.421875 48.1875 
Q 40.625 48.1875 47.75 41.5 
Q 54.890625 34.8125 54.890625 23.390625 
Q 54.890625 11.625 47.5625 5.09375 
Q 40.234375 -1.421875 26.90625 -1.421875 
Q 22.3125 -1.421875 17.546875 -0.640625 
Q 12.796875 0.140625 7.71875 1.703125 
L 7.71875 11.625 
Q 12.109375 9.234375 16.796875 8.0625 
Q 21.484375 6.890625 26.703125 6.890625 
Q 35.15625 6.890625 40.078125 11.328125 
Q 45.015625 15.765625 45.015625 23.390625 
Q 45.015625 31 40.078125 35.4375 
Q 35.15625 39.890625 26.703125 39.890625 
Q 22.75 39.890625 18.8125 39.015625 
Q 14.890625 38.140625 10.796875 36.28125 
z
" id="DejaVuSans-53"/>
       </defs>
       <use xlink:href="#DejaVuSans-50"/>
       <use x="63.623047" xlink:href="#DejaVuSans-48"/>
       <use x="127.246094" xlink:href="#DejaVuSans-50"/>
       <use x="190.869141" xlink:href="#DejaVuSans-48"/>
       <use x="254.492188" xlink:href="#DejaVuSans-45"/>
       <use x="290.576172" xlink:href="#DejaVuSans-48"/>
       <use x="354.199219" xlink:href="#DejaVuSans-53"/>
      </g>
     </g>
    </g>
    <g id="xtick_2">
     <g id="line2d_2">
      <g>
       <use style="stroke:#000000;stroke-width:0.8;" x="211.126176" xlink:href="#m1c5e447d5a" y="299.540625"/>
      </g>
     </g>
     <g id="text_2">
      <!-- 2020-07 -->
      <g transform="translate(190.23477 314.139063)scale(0.1 -0.1)">
       <defs>
        <path d="M 8.203125 72.90625 
L 55.078125 72.90625 
L 55.078125 68.703125 
L 28.609375 0 
L 18.3125 0 
L 43.21875 64.59375 
L 8.203125 64.59375 
z
" id="DejaVuSans-55"/>
       </defs>
       <use xlink:href="#DejaVuSans-50"/>
       <use x="63.623047" xlink:href="#DejaVuSans-48"/>
       <use x="127.246094" xlink:href="#DejaVuSans-50"/>
       <use x="190.869141" xlink:href="#DejaVuSans-48"/>
       <use x="254.492188" xlink:href="#DejaVuSans-45"/>
       <use x="290.576172" xlink:href="#DejaVuSans-48"/>
       <use x="354.199219" xlink:href="#DejaVuSans-55"/>
      </g>
     </g>
    </g>
    <g id="xtick_3">
     <g id="line2d_3">
      <g>
       <use style="stroke:#000000;stroke-width:0.8;" x="302.024757" xlink:href="#m1c5e447d5a" y="299.540625"/>
      </g>
     </g>
     <g id="text_3">
      <!-- 2020-09 -->
      <g transform="translate(281.133351 314.139063)scale(0.1 -0.1)">
       <defs>
        <path d="M 10.984375 1.515625 
L 10.984375 10.5 
Q 14.703125 8.734375 18.5 7.8125 
Q 22.3125 6.890625 25.984375 6.890625 
Q 35.75 6.890625 40.890625 13.453125 
Q 46.046875 20.015625 46.78125 33.40625 
Q 43.953125 29.203125 39.59375 26.953125 
Q 35.25 24.703125 29.984375 24.703125 
Q 19.046875 24.703125 12.671875 31.3125 
Q 6.296875 37.9375 6.296875 49.421875 
Q 6.296875 60.640625 12.9375 67.421875 
Q 19.578125 74.21875 30.609375 74.21875 
Q 43.265625 74.21875 49.921875 64.515625 
Q 56.59375 54.828125 56.59375 36.375 
Q 56.59375 19.140625 48.40625 8.859375 
Q 40.234375 -1.421875 26.421875 -1.421875 
Q 22.703125 -1.421875 18.890625 -0.6875 
Q 15.09375 0.046875 10.984375 1.515625 
z
M 30.609375 32.421875 
Q 37.25 32.421875 41.125 36.953125 
Q 45.015625 41.5 45.015625 49.421875 
Q 45.015625 57.28125 41.125 61.84375 
Q 37.25 66.40625 30.609375 66.40625 
Q 23.96875 66.40625 20.09375 61.84375 
Q 16.21875 57.28125 16.21875 49.421875 
Q 16.21875 41.5 20.09375 36.953125 
Q 23.96875 32.421875 30.609375 32.421875 
z
" id="DejaVuSans-57"/>
       </defs>
       <use xlink:href="#DejaVuSans-50"/>
       <use x="63.623047" xlink:href="#DejaVuSans-48"/>
       <use x="127.246094" xlink:href="#DejaVuSans-50"/>
       <use x="190.869141" xlink:href="#DejaVuSans-48"/>
       <use x="254.492188" xlink:href="#DejaVuSans-45"/>
       <use x="290.576172" xlink:href="#DejaVuSans-48"/>
       <use x="354.199219" xlink:href="#DejaVuSans-57"/>
      </g>
     </g>
    </g>
    <g id="xtick_4">
     <g id="line2d_4">
      <g>
       <use style="stroke:#000000;stroke-width:0.8;" x="391.457232" xlink:href="#m1c5e447d5a" y="299.540625"/>
      </g>
     </g>
     <g id="text_4">
      <!-- 2020-11 -->
      <g transform="translate(370.565826 314.139063)scale(0.1 -0.1)">
       <defs>
        <path d="M 12.40625 8.296875 
L 28.515625 8.296875 
L 28.515625 63.921875 
L 10.984375 60.40625 
L 10.984375 69.390625 
L 28.421875 72.90625 
L 38.28125 72.90625 
L 38.28125 8.296875 
L 54.390625 8.296875 
L 54.390625 0 
L 12.40625 0 
z
" id="DejaVuSans-49"/>
       </defs>
       <use xlink:href="#DejaVuSans-50"/>
       <use x="63.623047" xlink:href="#DejaVuSans-48"/>
       <use x="127.246094" xlink:href="#DejaVuSans-50"/>
       <use x="190.869141" xlink:href="#DejaVuSans-48"/>
       <use x="254.492188" xlink:href="#DejaVuSans-45"/>
       <use x="290.576172" xlink:href="#DejaVuSans-49"/>
       <use x="354.199219" xlink:href="#DejaVuSans-49"/>
      </g>
     </g>
    </g>
    <g id="xtick_5">
     <g id="line2d_5">
      <g>
       <use style="stroke:#000000;stroke-width:0.8;" x="480.889707" xlink:href="#m1c5e447d5a" y="299.540625"/>
      </g>
     </g>
     <g id="text_5">
      <!-- 2021-01 -->
      <g transform="translate(459.998301 314.139063)scale(0.1 -0.1)">
       <use xlink:href="#DejaVuSans-50"/>
       <use x="63.623047" xlink:href="#DejaVuSans-48"/>
       <use x="127.246094" xlink:href="#DejaVuSans-50"/>
       <use x="190.869141" xlink:href="#DejaVuSans-49"/>
       <use x="254.492188" xlink:href="#DejaVuSans-45"/>
       <use x="290.576172" xlink:href="#DejaVuSans-48"/>
       <use x="354.199219" xlink:href="#DejaVuSans-49"/>
      </g>
     </g>
    </g>
    <g id="xtick_6">
     <g id="line2d_6">
      <g>
       <use style="stroke:#000000;stroke-width:0.8;" x="567.38997" xlink:href="#m1c5e447d5a" y="299.540625"/>
      </g>
     </g>
     <g id="text_6">
      <!-- 2021-03 -->
      <g transform="translate(546.498564 314.139063)scale(0.1 -0.1)">
       <defs>
        <path d="M 40.578125 39.3125 
Q 47.65625 37.796875 51.625 33 
Q 55.609375 28.21875 55.609375 21.1875 
Q 55.609375 10.40625 48.1875 4.484375 
Q 40.765625 -1.421875 27.09375 -1.421875 
Q 22.515625 -1.421875 17.65625 -0.515625 
Q 12.796875 0.390625 7.625 2.203125 
L 7.625 11.71875 
Q 11.71875 9.328125 16.59375 8.109375 
Q 21.484375 6.890625 26.8125 6.890625 
Q 36.078125 6.890625 40.9375 10.546875 
Q 45.796875 14.203125 45.796875 21.1875 
Q 45.796875 27.640625 41.28125 31.265625 
Q 36.765625 34.90625 28.71875 34.90625 
L 20.21875 34.90625 
L 20.21875 43.015625 
L 29.109375 43.015625 
Q 36.375 43.015625 40.234375 45.921875 
Q 44.09375 48.828125 44.09375 54.296875 
Q 44.09375 59.90625 40.109375 62.90625 
Q 36.140625 65.921875 28.71875 65.921875 
Q 24.65625 65.921875 20.015625 65.03125 
Q 15.375 64.15625 9.8125 62.3125 
L 9.8125 71.09375 
Q 15.4375 72.65625 20.34375 73.4375 
Q 25.25 74.21875 29.59375 74.21875 
Q 40.828125 74.21875 47.359375 69.109375 
Q 53.90625 64.015625 53.90625 55.328125 
Q 53.90625 49.265625 50.4375 45.09375 
Q 46.96875 40.921875 40.578125 39.3125 
z
" id="DejaVuSans-51"/>
       </defs>
       <use xlink:href="#DejaVuSans-50"/>
       <use x="63.623047" xlink:href="#DejaVuSans-48"/>
       <use x="127.246094" xlink:href="#DejaVuSans-50"/>
       <use x="190.869141" xlink:href="#DejaVuSans-49"/>
       <use x="254.492188" xlink:href="#DejaVuSans-45"/>
       <use x="290.576172" xlink:href="#DejaVuSans-48"/>
       <use x="354.199219" xlink:href="#DejaVuSans-51"/>
      </g>
     </g>
    </g>
   </g>
   <g id="matplotlib.axis_2">
    <g id="ytick_1">
     <g id="line2d_7">
      <defs>
       <path d="M 0 0 
L -3.5 0 
" id="m46ef7ae0b0" style="stroke:#000000;stroke-width:0.8;"/>
      </defs>
      <g>
       <use style="stroke:#000000;stroke-width:0.8;" x="33.2875" xlink:href="#m46ef7ae0b0" y="286.940625"/>
      </g>
     </g>
     <g id="text_7">
      <!-- 0 -->
      <g transform="translate(19.925 290.739844)scale(0.1 -0.1)">
       <use xlink:href="#DejaVuSans-48"/>
      </g>
     </g>
    </g>
    <g id="ytick_2">
     <g id="line2d_8">
      <g>
       <use style="stroke:#000000;stroke-width:0.8;" x="33.2875" xlink:href="#m46ef7ae0b0" y="234.874509"/>
      </g>
     </g>
     <g id="text_8">
      <!-- 50 -->
      <g transform="translate(13.5625 238.673728)scale(0.1 -0.1)">
       <use xlink:href="#DejaVuSans-53"/>
       <use x="63.623047" xlink:href="#DejaVuSans-48"/>
      </g>
     </g>
    </g>
    <g id="ytick_3">
     <g id="line2d_9">
      <g>
       <use style="stroke:#000000;stroke-width:0.8;" x="33.2875" xlink:href="#m46ef7ae0b0" y="182.808394"/>
      </g>
     </g>
     <g id="text_9">
      <!-- 100 -->
      <g transform="translate(7.2 186.607612)scale(0.1 -0.1)">
       <use xlink:href="#DejaVuSans-49"/>
       <use x="63.623047" xlink:href="#DejaVuSans-48"/>
       <use x="127.246094" xlink:href="#DejaVuSans-48"/>
      </g>
     </g>
    </g>
    <g id="ytick_4">
     <g id="line2d_10">
      <g>
       <use style="stroke:#000000;stroke-width:0.8;" x="33.2875" xlink:href="#m46ef7ae0b0" y="130.742278"/>
      </g>
     </g>
     <g id="text_10">
      <!-- 150 -->
      <g transform="translate(7.2 134.541497)scale(0.1 -0.1)">
       <use xlink:href="#DejaVuSans-49"/>
       <use x="63.623047" xlink:href="#DejaVuSans-53"/>
       <use x="127.246094" xlink:href="#DejaVuSans-48"/>
      </g>
     </g>
    </g>
    <g id="ytick_5">
     <g id="line2d_11">
      <g>
       <use style="stroke:#000000;stroke-width:0.8;" x="33.2875" xlink:href="#m46ef7ae0b0" y="78.676162"/>
      </g>
     </g>
     <g id="text_11">
      <!-- 200 -->
      <g transform="translate(7.2 82.475381)scale(0.1 -0.1)">
       <use xlink:href="#DejaVuSans-50"/>
       <use x="63.623047" xlink:href="#DejaVuSans-48"/>
       <use x="127.246094" xlink:href="#DejaVuSans-48"/>
      </g>
     </g>
    </g>
    <g id="ytick_6">
     <g id="line2d_12">
      <g>
       <use style="stroke:#000000;stroke-width:0.8;" x="33.2875" xlink:href="#m46ef7ae0b0" y="26.610046"/>
      </g>
     </g>
     <g id="text_12">
      <!-- 250 -->
      <g transform="translate(7.2 30.409265)scale(0.1 -0.1)">
       <use xlink:href="#DejaVuSans-50"/>
       <use x="63.623047" xlink:href="#DejaVuSans-53"/>
       <use x="127.246094" xlink:href="#DejaVuSans-48"/>
      </g>
     </g>
    </g>
   </g>
   <g id="line2d_13">
    <path clip-path="url(#p3ae60726d4)" d="M 58.651136 275.48608 
L 60.117243 275.48608 
L 61.583349 273.403435 
L 63.049455 273.403435 
L 64.515561 262.990212 
L 65.981667 244.24641 
L 67.447773 243.205088 
L 68.913879 239.039799 
L 70.379986 232.791865 
L 71.846092 231.750542 
L 73.312198 231.750542 
L 74.778304 230.70922 
L 76.24441 226.543931 
L 77.710516 203.63484 
L 79.176622 201.552195 
L 80.642729 201.552195 
L 82.108835 170.312526 
L 83.574941 168.229881 
L 85.041047 186.973683 
L 86.507153 181.767071 
L 87.973259 173.436493 
L 89.439365 171.353848 
L 90.905472 167.188559 
L 92.371578 167.188559 
L 93.837684 165.105914 
L 95.30379 149.48608 
L 96.769896 147.403435 
L 98.236002 152.610046 
L 99.702109 134.907567 
L 101.168215 130.742278 
L 102.634321 127.618311 
L 104.100427 122.411699 
L 105.566533 135.948889 
L 107.032639 135.948889 
L 108.498745 131.7836 
L 109.964852 123.453022 
L 111.430958 88.048063 
L 112.897064 85.965418 
L 114.36317 134.907567 
L 115.829276 138.031534 
L 117.295382 142.196823 
L 118.761488 134.907567 
L 120.227595 142.196823 
L 121.693701 130.742278 
L 123.159807 124.494344 
L 124.625913 125.535666 
L 126.092019 122.411699 
L 127.558125 114.081121 
L 129.024231 109.915832 
L 130.490338 116.163765 
L 131.956444 120.329055 
L 133.42255 114.081121 
L 134.888656 109.915832 
L 136.354762 115.122443 
L 137.820868 93.254675 
L 139.286975 102.626575 
L 140.753081 98.461286 
L 142.219187 93.254675 
L 143.685293 101.585253 
L 145.151399 85.965418 
L 146.617505 83.882774 
L 148.083611 87.006741 
L 149.549718 76.593518 
L 151.015824 80.758807 
L 152.48193 83.882774 
L 153.948036 85.965418 
L 155.414142 82.841451 
L 156.880248 81.800129 
L 158.346354 75.552195 
L 159.812461 77.63484 
L 161.278567 78.676162 
L 162.744673 62.015005 
L 164.210779 60.973683 
L 165.676885 63.056327 
L 167.142991 70.345584 
L 168.609097 70.345584 
L 170.075204 69.304261 
L 171.54131 67.221617 
L 173.007416 60.973683 
L 174.473522 60.973683 
L 175.939628 44.312526 
L 177.405734 51.601782 
L 178.871841 42.229881 
L 180.337947 49.519137 
L 181.804053 39.105914 
L 183.270159 43.271204 
L 184.736265 34.940625 
L 186.202371 47.436493 
L 187.668477 57.849716 
L 189.134584 60.973683 
L 190.60069 66.180294 
L 192.066796 72.428228 
L 193.532902 68.262939 
L 194.999008 60.973683 
L 196.465114 59.932361 
L 197.93122 55.767071 
L 199.397327 62.015005 
L 200.863433 78.676162 
L 202.329539 80.758807 
L 203.795645 73.469551 
L 205.261751 77.63484 
L 206.727857 87.006741 
L 208.193963 91.17203 
L 209.66007 99.502608 
L 211.126176 99.502608 
L 212.592282 107.833187 
L 214.058388 97.419964 
L 215.524494 102.626575 
L 216.9906 104.70922 
L 218.456707 108.874509 
L 219.922813 96.378642 
L 221.388919 119.287732 
L 222.855025 116.163765 
L 224.321131 115.122443 
L 225.787237 121.370377 
L 227.253343 128.659633 
L 228.71945 126.576989 
L 230.185556 98.461286 
L 231.651662 115.122443 
L 233.117768 103.667898 
L 234.583874 96.378642 
L 236.04998 107.833187 
L 237.516086 104.70922 
L 240.448299 110.957154 
L 241.914405 104.70922 
L 243.380511 108.874509 
L 244.846617 102.626575 
L 246.312723 104.70922 
L 249.244936 110.957154 
L 250.711042 117.205088 
L 252.177148 127.618311 
L 253.643254 130.742278 
L 255.10936 131.7836 
L 256.575466 136.990212 
L 258.041573 140.114179 
L 259.507679 136.990212 
L 260.973785 146.362113 
L 262.439891 151.568724 
L 263.905997 163.02327 
L 265.372103 159.899303 
L 266.838209 161.981947 
L 268.304316 179.684427 
L 269.770422 172.39517 
L 271.236528 177.601782 
L 272.702634 183.849716 
L 274.16874 179.684427 
L 275.634846 178.643104 
L 277.100952 174.477815 
L 278.567059 172.39517 
L 280.033165 171.353848 
L 281.499271 153.651369 
L 282.965377 165.105914 
L 285.897589 177.601782 
L 287.363695 174.477815 
L 288.829802 188.015005 
L 290.295908 189.056327 
L 291.762014 185.932361 
L 293.22812 189.056327 
L 294.694226 194.262939 
L 296.160332 185.932361 
L 297.626439 197.386906 
L 299.092545 177.601782 
L 300.558651 164.064592 
L 302.024757 161.981947 
L 303.490863 167.188559 
L 304.956969 169.271204 
L 306.423075 169.271204 
L 307.889182 172.39517 
L 309.355288 172.39517 
L 310.821394 183.849716 
L 312.2875 181.767071 
L 313.753606 168.229881 
L 315.219712 172.39517 
L 316.685818 168.229881 
L 318.151925 167.188559 
L 319.618031 168.229881 
L 321.084137 172.39517 
L 324.016349 184.891038 
L 325.482455 185.932361 
L 326.948561 182.808394 
L 328.414668 180.725749 
L 331.34688 182.808394 
L 332.812986 192.180294 
L 334.279092 192.180294 
L 335.745198 210.924096 
L 337.211305 207.800129 
L 338.677411 205.717485 
L 340.143517 199.469551 
L 341.609623 197.386906 
L 343.075729 198.428228 
L 344.541835 194.262939 
L 346.007941 199.469551 
L 347.474048 198.428228 
L 348.940154 192.180294 
L 350.40626 194.262939 
L 351.872366 195.304261 
L 353.338472 188.015005 
L 354.804578 182.808394 
L 356.270684 185.932361 
L 357.736791 181.767071 
L 359.202897 184.891038 
L 360.669003 180.725749 
L 362.135109 188.015005 
L 363.601215 189.056327 
L 365.067321 188.015005 
L 366.533427 184.891038 
L 367.999534 186.973683 
L 369.46564 191.138972 
L 370.931746 190.09765 
L 372.397852 190.09765 
L 373.863958 185.932361 
L 375.330064 177.601782 
L 376.796171 174.477815 
L 378.262277 175.519137 
L 379.728383 178.643104 
L 381.194489 173.436493 
L 382.660595 173.436493 
L 384.126701 170.312526 
L 385.592807 160.940625 
L 387.058914 163.02327 
L 388.52502 158.85798 
L 389.991126 158.85798 
L 391.457232 154.692691 
L 392.923338 149.48608 
L 394.389444 141.155501 
L 395.85555 152.610046 
L 397.321657 159.899303 
L 398.787763 152.610046 
L 400.253869 144.279468 
L 401.719975 148.444757 
L 403.186081 139.072856 
L 404.652187 132.824923 
L 406.118293 119.287732 
L 407.5844 121.370377 
L 409.050506 125.535666 
L 410.516612 131.7836 
L 411.982718 130.742278 
L 413.448824 124.494344 
L 414.91493 125.535666 
L 416.381037 103.667898 
L 417.847143 98.461286 
L 419.313249 101.585253 
L 420.779355 82.841451 
L 422.245461 83.882774 
L 423.711567 90.130708 
L 425.177673 81.800129 
L 426.64378 74.510873 
L 428.109886 74.510873 
L 429.575992 77.63484 
L 431.042098 68.262939 
L 432.508204 82.841451 
L 433.97431 88.048063 
L 435.440416 95.337319 
L 436.906523 84.924096 
L 438.372629 87.006741 
L 439.838735 97.419964 
L 441.304841 92.213352 
L 442.770947 106.791865 
L 444.237053 119.287732 
L 445.703159 106.791865 
L 447.169266 88.048063 
L 448.635372 104.70922 
L 450.101478 99.502608 
L 451.567584 97.419964 
L 453.03369 106.791865 
L 457.432009 128.659633 
L 458.898115 126.576989 
L 460.364221 125.535666 
L 461.830327 132.824923 
L 463.296433 138.031534 
L 464.762539 131.7836 
L 466.228646 127.618311 
L 467.694752 127.618311 
L 469.160858 133.866245 
L 470.626964 143.238146 
L 472.09307 146.362113 
L 473.559176 138.031534 
L 475.025282 136.990212 
L 476.491389 130.742278 
L 477.957495 133.866245 
L 479.423601 131.7836 
L 480.889707 145.32079 
L 482.355813 141.155501 
L 483.821919 150.527402 
L 485.288025 164.064592 
L 486.754132 161.981947 
L 488.220238 160.940625 
L 489.686344 163.02327 
L 491.15245 157.816658 
L 494.084662 159.899303 
L 495.550769 146.362113 
L 497.016875 150.527402 
L 498.482981 139.072856 
L 499.949087 140.114179 
L 501.415193 134.907567 
L 504.347405 147.403435 
L 505.813512 138.031534 
L 507.279618 142.196823 
L 508.745724 150.527402 
L 510.21183 161.981947 
L 511.677936 152.610046 
L 513.144042 157.816658 
L 514.610148 153.651369 
L 516.076255 167.188559 
L 517.542361 173.436493 
L 519.008467 160.940625 
L 520.474573 169.271204 
L 521.940679 163.02327 
L 523.406785 170.312526 
L 524.872891 173.436493 
L 526.338998 160.940625 
L 527.805104 159.899303 
L 529.27121 155.734013 
L 530.737316 163.02327 
L 532.203422 161.981947 
L 533.669528 163.02327 
L 535.135635 168.229881 
L 536.601741 172.39517 
L 538.067847 181.767071 
L 539.533953 182.808394 
L 541.000059 180.725749 
L 542.466165 176.56046 
L 543.932271 191.138972 
L 545.398378 190.09765 
L 546.864484 176.56046 
L 548.33059 172.39517 
L 549.796696 188.015005 
L 551.262802 188.015005 
L 552.728908 183.849716 
L 554.195014 186.973683 
L 555.661121 180.725749 
L 557.127227 171.353848 
L 558.593333 165.105914 
L 560.059439 169.271204 
L 561.525545 155.734013 
L 562.991651 156.775336 
L 564.457757 175.519137 
L 565.923864 152.610046 
L 565.923864 152.610046 
" style="fill:none;stroke:#1f77b4;stroke-linecap:square;stroke-width:1.5;"/>
   </g>
   <g id="line2d_14">
    <path clip-path="url(#p3ae60726d4)" d="M 58.651136 286.940625 
L 60.117243 286.940625 
L 61.583349 279.651369 
L 63.049455 279.651369 
L 64.515561 277.568724 
L 65.981667 267.155501 
L 67.447773 268.196823 
L 68.913879 264.031534 
L 74.778304 264.031534 
L 76.24441 265.072856 
L 77.710516 260.907567 
L 79.176622 262.990212 
L 80.642729 261.948889 
L 82.108835 257.7836 
L 83.574941 257.7836 
L 85.041047 252.576989 
L 86.507153 248.411699 
L 87.973259 248.411699 
L 89.439365 253.618311 
L 92.371578 253.618311 
L 93.837684 252.576989 
L 95.30379 247.370377 
L 96.769896 250.494344 
L 98.236002 256.742278 
L 99.702109 248.411699 
L 101.168215 241.122443 
L 102.634321 240.081121 
L 104.100427 230.70922 
L 105.566533 236.957154 
L 107.032639 234.874509 
L 108.498745 230.70922 
L 109.964852 221.337319 
L 111.430958 216.130708 
L 112.897064 213.006741 
L 114.36317 221.337319 
L 115.829276 221.337319 
L 118.761488 225.502608 
L 120.227595 221.337319 
L 121.693701 214.048063 
L 123.159807 210.924096 
L 124.625913 208.841451 
L 126.092019 209.882774 
L 127.558125 202.593518 
L 129.024231 202.593518 
L 130.490338 213.006741 
L 131.956444 215.089385 
L 133.42255 207.800129 
L 134.888656 207.800129 
L 137.820868 211.965418 
L 139.286975 218.213352 
L 140.753081 214.048063 
L 142.219187 210.924096 
L 143.685293 217.17203 
L 145.151399 207.800129 
L 146.617505 207.800129 
L 148.083611 205.717485 
L 149.549718 209.882774 
L 151.015824 203.63484 
L 152.48193 203.63484 
L 153.948036 198.428228 
L 155.414142 199.469551 
L 158.346354 197.386906 
L 159.812461 206.758807 
L 161.278567 209.882774 
L 162.744673 202.593518 
L 164.210779 207.800129 
L 165.676885 202.593518 
L 167.142991 196.345584 
L 168.609097 194.262939 
L 170.075204 193.221617 
L 171.54131 197.386906 
L 173.007416 194.262939 
L 174.473522 194.262939 
L 175.939628 188.015005 
L 177.405734 191.138972 
L 178.871841 189.056327 
L 180.337947 189.056327 
L 181.804053 178.643104 
L 183.270159 183.849716 
L 184.736265 191.138972 
L 186.202371 194.262939 
L 187.668477 184.891038 
L 189.134584 191.138972 
L 190.60069 199.469551 
L 192.066796 202.593518 
L 194.999008 200.510873 
L 196.465114 194.262939 
L 197.93122 197.386906 
L 199.397327 195.304261 
L 200.863433 199.469551 
L 202.329539 198.428228 
L 203.795645 199.469551 
L 205.261751 205.717485 
L 206.727857 215.089385 
L 208.193963 214.048063 
L 209.66007 209.882774 
L 211.126176 210.924096 
L 212.592282 215.089385 
L 214.058388 211.965418 
L 215.524494 209.882774 
L 216.9906 210.924096 
L 218.456707 210.924096 
L 219.922813 208.841451 
L 221.388919 218.213352 
L 222.855025 218.213352 
L 224.321131 217.17203 
L 225.787237 221.337319 
L 227.253343 223.419964 
L 228.71945 218.213352 
L 230.185556 210.924096 
L 231.651662 214.048063 
L 233.117768 205.717485 
L 234.583874 209.882774 
L 236.04998 218.213352 
L 237.516086 221.337319 
L 238.982193 219.254675 
L 240.448299 219.254675 
L 241.914405 221.337319 
L 243.380511 214.048063 
L 244.846617 216.130708 
L 246.312723 219.254675 
L 247.778829 219.254675 
L 249.244936 214.048063 
L 250.711042 214.048063 
L 252.177148 220.295997 
L 253.643254 220.295997 
L 255.10936 221.337319 
L 256.575466 225.502608 
L 258.041573 227.585253 
L 259.507679 228.626575 
L 260.973785 231.750542 
L 262.439891 236.957154 
L 263.905997 235.915832 
L 265.372103 231.750542 
L 266.838209 232.791865 
L 268.304316 240.081121 
L 269.770422 240.081121 
L 271.236528 239.039799 
L 272.702634 244.24641 
L 274.16874 243.205088 
L 275.634846 241.122443 
L 277.100952 236.957154 
L 278.567059 239.039799 
L 280.033165 239.039799 
L 281.499271 234.874509 
L 282.965377 242.163765 
L 284.431483 242.163765 
L 285.897589 248.411699 
L 287.363695 245.287732 
L 288.829802 249.453022 
L 290.295908 249.453022 
L 291.762014 250.494344 
L 293.22812 246.329055 
L 296.160332 246.329055 
L 297.626439 251.535666 
L 299.092545 243.205088 
L 300.558651 245.287732 
L 302.024757 240.081121 
L 303.490863 242.163765 
L 304.956969 241.122443 
L 306.423075 242.163765 
L 307.889182 239.039799 
L 309.355288 242.163765 
L 310.821394 244.24641 
L 312.2875 243.205088 
L 313.753606 236.957154 
L 315.219712 239.039799 
L 316.685818 233.833187 
L 318.151925 234.874509 
L 319.618031 241.122443 
L 321.084137 249.453022 
L 322.550243 244.24641 
L 324.016349 244.24641 
L 325.482455 245.287732 
L 326.948561 243.205088 
L 329.880774 245.287732 
L 331.34688 244.24641 
L 332.812986 246.329055 
L 334.279092 253.618311 
L 335.745198 252.576989 
L 337.211305 246.329055 
L 338.677411 247.370377 
L 340.143517 246.329055 
L 341.609623 243.205088 
L 343.075729 241.122443 
L 344.541835 241.122443 
L 346.007941 245.287732 
L 347.474048 247.370377 
L 348.940154 246.329055 
L 351.872366 246.329055 
L 353.338472 245.287732 
L 354.804578 243.205088 
L 356.270684 245.287732 
L 357.736791 246.329055 
L 359.202897 244.24641 
L 360.669003 243.205088 
L 362.135109 248.411699 
L 363.601215 252.576989 
L 365.067321 249.453022 
L 366.533427 252.576989 
L 367.999534 252.576989 
L 369.46564 250.494344 
L 370.931746 253.618311 
L 372.397852 248.411699 
L 373.863958 245.287732 
L 375.330064 244.24641 
L 376.796171 240.081121 
L 381.194489 240.081121 
L 384.126701 235.915832 
L 385.592807 231.750542 
L 387.058914 239.039799 
L 388.52502 239.039799 
L 389.991126 237.998476 
L 391.457232 235.915832 
L 392.923338 231.750542 
L 394.389444 232.791865 
L 397.321657 230.70922 
L 398.787763 228.626575 
L 400.253869 225.502608 
L 401.719975 229.667898 
L 403.186081 217.17203 
L 404.652187 214.048063 
L 406.118293 216.130708 
L 407.5844 215.089385 
L 409.050506 204.676162 
L 410.516612 215.089385 
L 411.982718 214.048063 
L 413.448824 217.17203 
L 414.91493 216.130708 
L 416.381037 205.717485 
L 417.847143 203.63484 
L 419.313249 203.63484 
L 420.779355 190.09765 
L 422.245461 195.304261 
L 423.711567 202.593518 
L 425.177673 197.386906 
L 426.64378 198.428228 
L 428.109886 198.428228 
L 429.575992 200.510873 
L 431.042098 199.469551 
L 432.508204 206.758807 
L 433.97431 207.800129 
L 435.440416 200.510873 
L 436.906523 196.345584 
L 438.372629 198.428228 
L 439.838735 204.676162 
L 441.304841 206.758807 
L 442.770947 204.676162 
L 444.237053 216.130708 
L 445.703159 207.800129 
L 447.169266 207.800129 
L 448.635372 202.593518 
L 450.101478 196.345584 
L 451.567584 200.510873 
L 453.03369 200.510873 
L 454.499796 207.800129 
L 455.965903 210.924096 
L 457.432009 207.800129 
L 458.898115 206.758807 
L 460.364221 210.924096 
L 461.830327 217.17203 
L 463.296433 213.006741 
L 464.762539 209.882774 
L 466.228646 211.965418 
L 467.694752 204.676162 
L 469.160858 211.965418 
L 470.626964 216.130708 
L 472.09307 216.130708 
L 473.559176 204.676162 
L 475.025282 216.130708 
L 476.491389 216.130708 
L 477.957495 221.337319 
L 479.423601 218.213352 
L 480.889707 216.130708 
L 482.355813 218.213352 
L 483.821919 219.254675 
L 485.288025 222.378642 
L 486.754132 224.461286 
L 488.220238 225.502608 
L 489.686344 227.585253 
L 491.15245 225.502608 
L 492.618556 221.337319 
L 494.084662 219.254675 
L 495.550769 213.006741 
L 497.016875 214.048063 
L 498.482981 206.758807 
L 499.949087 204.676162 
L 501.415193 200.510873 
L 502.881299 202.593518 
L 504.347405 205.717485 
L 507.279618 209.882774 
L 508.745724 210.924096 
L 510.21183 214.048063 
L 511.677936 211.965418 
L 513.144042 215.089385 
L 514.610148 207.800129 
L 516.076255 208.841451 
L 517.542361 211.965418 
L 519.008467 210.924096 
L 520.474573 218.213352 
L 524.872891 221.337319 
L 526.338998 217.17203 
L 527.805104 210.924096 
L 529.27121 217.17203 
L 530.737316 213.006741 
L 532.203422 218.213352 
L 533.669528 220.295997 
L 535.135635 226.543931 
L 536.601741 230.70922 
L 538.067847 232.791865 
L 539.533953 229.667898 
L 541.000059 230.70922 
L 542.466165 227.585253 
L 543.932271 237.998476 
L 545.398378 239.039799 
L 546.864484 223.419964 
L 548.33059 228.626575 
L 549.796696 226.543931 
L 551.262802 227.585253 
L 552.728908 222.378642 
L 554.195014 226.543931 
L 555.661121 228.626575 
L 557.127227 225.502608 
L 558.593333 227.585253 
L 560.059439 234.874509 
L 562.991651 222.378642 
L 564.457757 229.667898 
L 565.923864 223.419964 
L 565.923864 223.419964 
" style="fill:none;stroke:#ff7f0e;stroke-linecap:square;stroke-width:1.5;"/>
   </g>
   <g id="patch_3">
    <path d="M 33.2875 299.540625 
L 33.2875 22.340625 
" style="fill:none;stroke:#000000;stroke-linecap:square;stroke-linejoin:miter;stroke-width:0.8;"/>
   </g>
   <g id="patch_4">
    <path d="M 591.2875 299.540625 
L 591.2875 22.340625 
" style="fill:none;stroke:#000000;stroke-linecap:square;stroke-linejoin:miter;stroke-width:0.8;"/>
   </g>
   <g id="patch_5">
    <path d="M 33.2875 299.540625 
L 591.2875 299.540625 
" style="fill:none;stroke:#000000;stroke-linecap:square;stroke-linejoin:miter;stroke-width:0.8;"/>
   </g>
   <g id="patch_6">
    <path d="M 33.2875 22.340625 
L 591.2875 22.340625 
" style="fill:none;stroke:#000000;stroke-linecap:square;stroke-linejoin:miter;stroke-width:0.8;"/>
   </g>
   <g id="text_13">
    <!-- Internações -->
    <g transform="translate(277.042188 16.340625)scale(0.12 -0.12)">
     <defs>
      <path d="M 9.8125 72.90625 
L 19.671875 72.90625 
L 19.671875 0 
L 9.8125 0 
z
" id="DejaVuSans-73"/>
      <path d="M 54.890625 33.015625 
L 54.890625 0 
L 45.90625 0 
L 45.90625 32.71875 
Q 45.90625 40.484375 42.875 44.328125 
Q 39.84375 48.1875 33.796875 48.1875 
Q 26.515625 48.1875 22.3125 43.546875 
Q 18.109375 38.921875 18.109375 30.90625 
L 18.109375 0 
L 9.078125 0 
L 9.078125 54.6875 
L 18.109375 54.6875 
L 18.109375 46.1875 
Q 21.34375 51.125 25.703125 53.5625 
Q 30.078125 56 35.796875 56 
Q 45.21875 56 50.046875 50.171875 
Q 54.890625 44.34375 54.890625 33.015625 
z
" id="DejaVuSans-110"/>
      <path d="M 18.3125 70.21875 
L 18.3125 54.6875 
L 36.8125 54.6875 
L 36.8125 47.703125 
L 18.3125 47.703125 
L 18.3125 18.015625 
Q 18.3125 11.328125 20.140625 9.421875 
Q 21.96875 7.515625 27.59375 7.515625 
L 36.8125 7.515625 
L 36.8125 0 
L 27.59375 0 
Q 17.1875 0 13.234375 3.875 
Q 9.28125 7.765625 9.28125 18.015625 
L 9.28125 47.703125 
L 2.6875 47.703125 
L 2.6875 54.6875 
L 9.28125 54.6875 
L 9.28125 70.21875 
z
" id="DejaVuSans-116"/>
      <path d="M 56.203125 29.59375 
L 56.203125 25.203125 
L 14.890625 25.203125 
Q 15.484375 15.921875 20.484375 11.0625 
Q 25.484375 6.203125 34.421875 6.203125 
Q 39.59375 6.203125 44.453125 7.46875 
Q 49.3125 8.734375 54.109375 11.28125 
L 54.109375 2.78125 
Q 49.265625 0.734375 44.1875 -0.34375 
Q 39.109375 -1.421875 33.890625 -1.421875 
Q 20.796875 -1.421875 13.15625 6.1875 
Q 5.515625 13.8125 5.515625 26.8125 
Q 5.515625 40.234375 12.765625 48.109375 
Q 20.015625 56 32.328125 56 
Q 43.359375 56 49.78125 48.890625 
Q 56.203125 41.796875 56.203125 29.59375 
z
M 47.21875 32.234375 
Q 47.125 39.59375 43.09375 43.984375 
Q 39.0625 48.390625 32.421875 48.390625 
Q 24.90625 48.390625 20.390625 44.140625 
Q 15.875 39.890625 15.1875 32.171875 
z
" id="DejaVuSans-101"/>
      <path d="M 41.109375 46.296875 
Q 39.59375 47.171875 37.8125 47.578125 
Q 36.03125 48 33.890625 48 
Q 26.265625 48 22.1875 43.046875 
Q 18.109375 38.09375 18.109375 28.8125 
L 18.109375 0 
L 9.078125 0 
L 9.078125 54.6875 
L 18.109375 54.6875 
L 18.109375 46.1875 
Q 20.953125 51.171875 25.484375 53.578125 
Q 30.03125 56 36.53125 56 
Q 37.453125 56 38.578125 55.875 
Q 39.703125 55.765625 41.0625 55.515625 
z
" id="DejaVuSans-114"/>
      <path d="M 34.28125 27.484375 
Q 23.390625 27.484375 19.1875 25 
Q 14.984375 22.515625 14.984375 16.5 
Q 14.984375 11.71875 18.140625 8.90625 
Q 21.296875 6.109375 26.703125 6.109375 
Q 34.1875 6.109375 38.703125 11.40625 
Q 43.21875 16.703125 43.21875 25.484375 
L 43.21875 27.484375 
z
M 52.203125 31.203125 
L 52.203125 0 
L 43.21875 0 
L 43.21875 8.296875 
Q 40.140625 3.328125 35.546875 0.953125 
Q 30.953125 -1.421875 24.3125 -1.421875 
Q 15.921875 -1.421875 10.953125 3.296875 
Q 6 8.015625 6 15.921875 
Q 6 25.140625 12.171875 29.828125 
Q 18.359375 34.515625 30.609375 34.515625 
L 43.21875 34.515625 
L 43.21875 35.40625 
Q 43.21875 41.609375 39.140625 45 
Q 35.0625 48.390625 27.6875 48.390625 
Q 23 48.390625 18.546875 47.265625 
Q 14.109375 46.140625 10.015625 43.890625 
L 10.015625 52.203125 
Q 14.9375 54.109375 19.578125 55.046875 
Q 24.21875 56 28.609375 56 
Q 40.484375 56 46.34375 49.84375 
Q 52.203125 43.703125 52.203125 31.203125 
z
" id="DejaVuSans-97"/>
      <path d="M 48.78125 52.59375 
L 48.78125 44.1875 
Q 44.96875 46.296875 41.140625 47.34375 
Q 37.3125 48.390625 33.40625 48.390625 
Q 24.65625 48.390625 19.8125 42.84375 
Q 14.984375 37.3125 14.984375 27.296875 
Q 14.984375 17.28125 19.8125 11.734375 
Q 24.65625 6.203125 33.40625 6.203125 
Q 37.3125 6.203125 41.140625 7.25 
Q 44.96875 8.296875 48.78125 10.40625 
L 48.78125 2.09375 
Q 45.015625 0.34375 40.984375 -0.53125 
Q 36.96875 -1.421875 32.421875 -1.421875 
Q 20.0625 -1.421875 12.78125 6.34375 
Q 5.515625 14.109375 5.515625 27.296875 
Q 5.515625 40.671875 12.859375 48.328125 
Q 20.21875 56 33.015625 56 
Q 37.15625 56 41.109375 55.140625 
Q 45.0625 54.296875 48.78125 52.59375 
z
M 36.078125 0 
Q 38.765625 -3.03125 40.078125 -5.59375 
Q 41.40625 -8.15625 41.40625 -10.5 
Q 41.40625 -14.84375 38.46875 -17.0625 
Q 35.546875 -19.28125 29.78125 -19.28125 
Q 27.546875 -19.28125 25.421875 -18.984375 
Q 23.296875 -18.703125 21.1875 -18.109375 
L 21.1875 -11.71875 
Q 22.859375 -12.546875 24.65625 -12.90625 
Q 26.46875 -13.28125 28.765625 -13.28125 
Q 31.640625 -13.28125 33.109375 -12.109375 
Q 34.578125 -10.9375 34.578125 -8.6875 
Q 34.578125 -7.234375 33.515625 -5.109375 
Q 32.46875 -2.984375 30.28125 0 
z
" id="DejaVuSans-231"/>
      <path d="M 30.609375 48.390625 
Q 23.390625 48.390625 19.1875 42.75 
Q 14.984375 37.109375 14.984375 27.296875 
Q 14.984375 17.484375 19.15625 11.84375 
Q 23.34375 6.203125 30.609375 6.203125 
Q 37.796875 6.203125 41.984375 11.859375 
Q 46.1875 17.53125 46.1875 27.296875 
Q 46.1875 37.015625 41.984375 42.703125 
Q 37.796875 48.390625 30.609375 48.390625 
z
M 30.609375 56 
Q 42.328125 56 49.015625 48.375 
Q 55.71875 40.765625 55.71875 27.296875 
Q 55.71875 13.875 49.015625 6.21875 
Q 42.328125 -1.421875 30.609375 -1.421875 
Q 18.84375 -1.421875 12.171875 6.21875 
Q 5.515625 13.875 5.515625 27.296875 
Q 5.515625 40.765625 12.171875 48.375 
Q 18.84375 56 30.609375 56 
z
M 30.421875 66.890625 
L 27.640625 69.578125 
Q 26.5625 70.5625 25.75 71.015625 
Q 24.953125 71.484375 24.3125 71.484375 
Q 22.46875 71.484375 21.578125 69.703125 
Q 20.703125 67.921875 20.609375 63.921875 
L 14.5 63.921875 
Q 14.59375 70.515625 17.078125 74.09375 
Q 19.578125 77.6875 24.03125 77.6875 
Q 25.875 77.6875 27.4375 77 
Q 29 76.3125 30.8125 74.703125 
L 33.59375 72.015625 
Q 34.671875 71.046875 35.46875 70.578125 
Q 36.28125 70.125 36.921875 70.125 
Q 38.765625 70.125 39.640625 71.90625 
Q 40.53125 73.6875 40.625 77.6875 
L 46.734375 77.6875 
Q 46.625 71.09375 44.140625 67.5 
Q 41.65625 63.921875 37.203125 63.921875 
Q 35.359375 63.921875 33.796875 64.59375 
Q 32.234375 65.28125 30.421875 66.890625 
z
" id="DejaVuSans-245"/>
      <path d="M 44.28125 53.078125 
L 44.28125 44.578125 
Q 40.484375 46.53125 36.375 47.5 
Q 32.28125 48.484375 27.875 48.484375 
Q 21.1875 48.484375 17.84375 46.4375 
Q 14.5 44.390625 14.5 40.28125 
Q 14.5 37.15625 16.890625 35.375 
Q 19.28125 33.59375 26.515625 31.984375 
L 29.59375 31.296875 
Q 39.15625 29.25 43.1875 25.515625 
Q 47.21875 21.78125 47.21875 15.09375 
Q 47.21875 7.46875 41.1875 3.015625 
Q 35.15625 -1.421875 24.609375 -1.421875 
Q 20.21875 -1.421875 15.453125 -0.5625 
Q 10.6875 0.296875 5.421875 2 
L 5.421875 11.28125 
Q 10.40625 8.6875 15.234375 7.390625 
Q 20.0625 6.109375 24.8125 6.109375 
Q 31.15625 6.109375 34.5625 8.28125 
Q 37.984375 10.453125 37.984375 14.40625 
Q 37.984375 18.0625 35.515625 20.015625 
Q 33.0625 21.96875 24.703125 23.78125 
L 21.578125 24.515625 
Q 13.234375 26.265625 9.515625 29.90625 
Q 5.8125 33.546875 5.8125 39.890625 
Q 5.8125 47.609375 11.28125 51.796875 
Q 16.75 56 26.8125 56 
Q 31.78125 56 36.171875 55.265625 
Q 40.578125 54.546875 44.28125 53.078125 
z
" id="DejaVuSans-115"/>
     </defs>
     <use xlink:href="#DejaVuSans-73"/>
     <use x="29.492188" xlink:href="#DejaVuSans-110"/>
     <use x="92.871094" xlink:href="#DejaVuSans-116"/>
     <use x="132.080078" xlink:href="#DejaVuSans-101"/>
     <use x="193.603516" xlink:href="#DejaVuSans-114"/>
     <use x="232.966797" xlink:href="#DejaVuSans-110"/>
     <use x="296.345703" xlink:href="#DejaVuSans-97"/>
     <use x="357.625" xlink:href="#DejaVuSans-231"/>
     <use x="412.605469" xlink:href="#DejaVuSans-245"/>
     <use x="473.787109" xlink:href="#DejaVuSans-101"/>
     <use x="535.310547" xlink:href="#DejaVuSans-115"/>
    </g>
   </g>
   <g id="legend_1">
    <g id="patch_7">
     <path d="M 493.545313 59.715625 
L 584.2875 59.715625 
Q 586.2875 59.715625 586.2875 57.715625 
L 586.2875 29.340625 
Q 586.2875 27.340625 584.2875 27.340625 
L 493.545313 27.340625 
Q 491.545313 27.340625 491.545313 29.340625 
L 491.545313 57.715625 
Q 491.545313 59.715625 493.545313 59.715625 
z
" style="fill:#ffffff;opacity:0.8;stroke:#cccccc;stroke-linejoin:miter;"/>
    </g>
    <g id="line2d_15">
     <path d="M 495.545313 35.457813 
L 515.545313 35.457813 
" style="fill:none;stroke:#1f77b4;stroke-linecap:square;stroke-width:1.5;"/>
    </g>
    <g id="line2d_16"/>
    <g id="text_14">
     <!-- Internações -->
     <g transform="translate(523.545313 38.957813)scale(0.1 -0.1)">
      <use xlink:href="#DejaVuSans-73"/>
      <use x="29.492188" xlink:href="#DejaVuSans-110"/>
      <use x="92.871094" xlink:href="#DejaVuSans-116"/>
      <use x="132.080078" xlink:href="#DejaVuSans-101"/>
      <use x="193.603516" xlink:href="#DejaVuSans-114"/>
      <use x="232.966797" xlink:href="#DejaVuSans-110"/>
      <use x="296.345703" xlink:href="#DejaVuSans-97"/>
      <use x="357.625" xlink:href="#DejaVuSans-231"/>
      <use x="412.605469" xlink:href="#DejaVuSans-245"/>
      <use x="473.787109" xlink:href="#DejaVuSans-101"/>
      <use x="535.310547" xlink:href="#DejaVuSans-115"/>
     </g>
    </g>
    <g id="line2d_17">
     <path d="M 495.545313 50.135938 
L 515.545313 50.135938 
" style="fill:none;stroke:#ff7f0e;stroke-linecap:square;stroke-width:1.5;"/>
    </g>
    <g id="line2d_18"/>
    <g id="text_15">
     <!-- UTI -->
     <g transform="translate(523.545313 53.635938)scale(0.1 -0.1)">
      <defs>
       <path d="M 8.6875 72.90625 
L 18.609375 72.90625 
L 18.609375 28.609375 
Q 18.609375 16.890625 22.84375 11.734375 
Q 27.09375 6.59375 36.625 6.59375 
Q 46.09375 6.59375 50.34375 11.734375 
Q 54.59375 16.890625 54.59375 28.609375 
L 54.59375 72.90625 
L 64.5 72.90625 
L 64.5 27.390625 
Q 64.5 13.140625 57.4375 5.859375 
Q 50.390625 -1.421875 36.625 -1.421875 
Q 22.796875 -1.421875 15.734375 5.859375 
Q 8.6875 13.140625 8.6875 27.390625 
z
" id="DejaVuSans-85"/>
       <path d="M -0.296875 72.90625 
L 61.375 72.90625 
L 61.375 64.59375 
L 35.5 64.59375 
L 35.5 0 
L 25.59375 0 
L 25.59375 64.59375 
L -0.296875 64.59375 
z
" id="DejaVuSans-84"/>
      </defs>
      <use xlink:href="#DejaVuSans-85"/>
      <use x="73.193359" xlink:href="#DejaVuSans-84"/>
      <use x="134.277344" xlink:href="#DejaVuSans-73"/>
     </g>
    </g>
   </g>
  </g>
 </g>
 <defs>
  <clipPath id="p3ae60726d4">
   <rect height="277.2" width="558" x="33.2875" y="22.340625"/>
  </clipPath>
 </defs>
</svg>
