<?xml version="1.0" encoding="utf-8" standalone="no"?>
<!DOCTYPE svg PUBLIC "-//W3C//DTD SVG 1.1//EN"
  "http://www.w3.org/Graphics/SVG/1.1/DTD/svg11.dtd">
<svg height="340.273125pt" version="1.1" viewBox="0 0 705.6 340.273125" width="705.6pt" xmlns="http://www.w3.org/2000/svg" xmlns:xlink="http://www.w3.org/1999/xlink">
 <metadata>
  <rdf:RDF xmlns:cc="http://creativecommons.org/ns#" xmlns:dc="http://purl.org/dc/elements/1.1/" xmlns:rdf="http://www.w3.org/1999/02/22-rdf-syntax-ns#">
   <cc:Work>
    <dc:type rdf:resource="http://purl.org/dc/dcmitype/StillImage"/>
    <dc:date>2021-09-29T18:39:47.999138</dc:date>
    <dc:format>image/svg+xml</dc:format>
    <dc:creator>
     <cc:Agent>
      <dc:title>Matplotlib v3.4.2, https://matplotlib.org/</dc:title>
     </cc:Agent>
    </dc:creator>
   </cc:Work>
  </rdf:RDF>
 </metadata>
 <defs>
  <style type="text/css">*{stroke-linecap:butt;stroke-linejoin:round;}</style>
 </defs>
 <g id="figure_1">
  <g id="patch_1">
   <path d="M 0 340.273125 
L 705.6 340.273125 
L 705.6 0 
L 0 0 
z
" style="fill:#ffffff;"/>
  </g>
  <g id="axes_1">
   <g id="patch_2">
    <path d="M 82.8 298.989375 
L 640.8 298.989375 
L 640.8 21.789375 
L 82.8 21.789375 
z
" style="fill:#ffffff;"/>
   </g>
   <g id="matplotlib.axis_1">
    <g id="xtick_1">
     <g id="line2d_1">
      <path clip-path="url(#p3af0866cc9)" d="M 91.829273 298.989375 
L 91.829273 21.789375 
" style="fill:none;stroke:#cccccc;stroke-linecap:round;stroke-width:0.8;"/>
     </g>
     <g id="text_1">
      <!-- 2020-03 -->
      <g style="fill:#262626;" transform="translate(73.481617 313.147188)scale(0.1 -0.1)">
       <defs>
        <path d="M 3222 541 
L 3222 0 
L 194 0 
Q 188 203 259 391 
Q 375 700 629 1000 
Q 884 1300 1366 1694 
Q 2113 2306 2375 2664 
Q 2638 3022 2638 3341 
Q 2638 3675 2398 3904 
Q 2159 4134 1775 4134 
Q 1369 4134 1125 3890 
Q 881 3647 878 3216 
L 300 3275 
Q 359 3922 746 4261 
Q 1134 4600 1788 4600 
Q 2447 4600 2831 4234 
Q 3216 3869 3216 3328 
Q 3216 3053 3103 2787 
Q 2991 2522 2730 2228 
Q 2469 1934 1863 1422 
Q 1356 997 1212 845 
Q 1069 694 975 541 
L 3222 541 
z
" id="ArialMT-32" transform="scale(0.015625)"/>
        <path d="M 266 2259 
Q 266 3072 433 3567 
Q 600 4063 929 4331 
Q 1259 4600 1759 4600 
Q 2128 4600 2406 4451 
Q 2684 4303 2865 4023 
Q 3047 3744 3150 3342 
Q 3253 2941 3253 2259 
Q 3253 1453 3087 958 
Q 2922 463 2592 192 
Q 2263 -78 1759 -78 
Q 1097 -78 719 397 
Q 266 969 266 2259 
z
M 844 2259 
Q 844 1131 1108 757 
Q 1372 384 1759 384 
Q 2147 384 2411 759 
Q 2675 1134 2675 2259 
Q 2675 3391 2411 3762 
Q 2147 4134 1753 4134 
Q 1366 4134 1134 3806 
Q 844 3388 844 2259 
z
" id="ArialMT-30" transform="scale(0.015625)"/>
        <path d="M 203 1375 
L 203 1941 
L 1931 1941 
L 1931 1375 
L 203 1375 
z
" id="ArialMT-2d" transform="scale(0.015625)"/>
        <path d="M 269 1209 
L 831 1284 
Q 928 806 1161 595 
Q 1394 384 1728 384 
Q 2125 384 2398 659 
Q 2672 934 2672 1341 
Q 2672 1728 2419 1979 
Q 2166 2231 1775 2231 
Q 1616 2231 1378 2169 
L 1441 2663 
Q 1497 2656 1531 2656 
Q 1891 2656 2178 2843 
Q 2466 3031 2466 3422 
Q 2466 3731 2256 3934 
Q 2047 4138 1716 4138 
Q 1388 4138 1169 3931 
Q 950 3725 888 3313 
L 325 3413 
Q 428 3978 793 4289 
Q 1159 4600 1703 4600 
Q 2078 4600 2393 4439 
Q 2709 4278 2876 4000 
Q 3044 3722 3044 3409 
Q 3044 3113 2884 2869 
Q 2725 2625 2413 2481 
Q 2819 2388 3044 2092 
Q 3269 1797 3269 1353 
Q 3269 753 2831 336 
Q 2394 -81 1725 -81 
Q 1122 -81 723 278 
Q 325 638 269 1209 
z
" id="ArialMT-33" transform="scale(0.015625)"/>
       </defs>
       <use xlink:href="#ArialMT-32"/>
       <use x="55.615234" xlink:href="#ArialMT-30"/>
       <use x="111.230469" xlink:href="#ArialMT-32"/>
       <use x="166.845703" xlink:href="#ArialMT-30"/>
       <use x="222.460938" xlink:href="#ArialMT-2d"/>
       <use x="255.761719" xlink:href="#ArialMT-30"/>
       <use x="311.376953" xlink:href="#ArialMT-33"/>
      </g>
     </g>
    </g>
    <g id="xtick_2">
     <g id="line2d_2">
      <path clip-path="url(#p3af0866cc9)" d="M 147.184615 298.989375 
L 147.184615 21.789375 
" style="fill:none;stroke:#cccccc;stroke-linecap:round;stroke-width:0.8;"/>
     </g>
     <g id="text_2">
      <!-- 2020-05 -->
      <g style="fill:#262626;" transform="translate(128.836959 313.147188)scale(0.1 -0.1)">
       <defs>
        <path d="M 266 1200 
L 856 1250 
Q 922 819 1161 601 
Q 1400 384 1738 384 
Q 2144 384 2425 690 
Q 2706 997 2706 1503 
Q 2706 1984 2436 2262 
Q 2166 2541 1728 2541 
Q 1456 2541 1237 2417 
Q 1019 2294 894 2097 
L 366 2166 
L 809 4519 
L 3088 4519 
L 3088 3981 
L 1259 3981 
L 1013 2750 
Q 1425 3038 1878 3038 
Q 2478 3038 2890 2622 
Q 3303 2206 3303 1553 
Q 3303 931 2941 478 
Q 2500 -78 1738 -78 
Q 1113 -78 717 272 
Q 322 622 266 1200 
z
" id="ArialMT-35" transform="scale(0.015625)"/>
       </defs>
       <use xlink:href="#ArialMT-32"/>
       <use x="55.615234" xlink:href="#ArialMT-30"/>
       <use x="111.230469" xlink:href="#ArialMT-32"/>
       <use x="166.845703" xlink:href="#ArialMT-30"/>
       <use x="222.460938" xlink:href="#ArialMT-2d"/>
       <use x="255.761719" xlink:href="#ArialMT-30"/>
       <use x="311.376953" xlink:href="#ArialMT-35"/>
      </g>
     </g>
    </g>
    <g id="xtick_3">
     <g id="line2d_3">
      <path clip-path="url(#p3af0866cc9)" d="M 202.539958 298.989375 
L 202.539958 21.789375 
" style="fill:none;stroke:#cccccc;stroke-linecap:round;stroke-width:0.8;"/>
     </g>
     <g id="text_3">
      <!-- 2020-07 -->
      <g style="fill:#262626;" transform="translate(184.192301 313.147188)scale(0.1 -0.1)">
       <defs>
        <path d="M 303 3981 
L 303 4522 
L 3269 4522 
L 3269 4084 
Q 2831 3619 2401 2847 
Q 1972 2075 1738 1259 
Q 1569 684 1522 0 
L 944 0 
Q 953 541 1156 1306 
Q 1359 2072 1739 2783 
Q 2119 3494 2547 3981 
L 303 3981 
z
" id="ArialMT-37" transform="scale(0.015625)"/>
       </defs>
       <use xlink:href="#ArialMT-32"/>
       <use x="55.615234" xlink:href="#ArialMT-30"/>
       <use x="111.230469" xlink:href="#ArialMT-32"/>
       <use x="166.845703" xlink:href="#ArialMT-30"/>
       <use x="222.460938" xlink:href="#ArialMT-2d"/>
       <use x="255.761719" xlink:href="#ArialMT-30"/>
       <use x="311.376953" xlink:href="#ArialMT-37"/>
      </g>
     </g>
    </g>
    <g id="xtick_4">
     <g id="line2d_4">
      <path clip-path="url(#p3af0866cc9)" d="M 258.802765 298.989375 
L 258.802765 21.789375 
" style="fill:none;stroke:#cccccc;stroke-linecap:round;stroke-width:0.8;"/>
     </g>
     <g id="text_4">
      <!-- 2020-09 -->
      <g style="fill:#262626;" transform="translate(240.455108 313.147188)scale(0.1 -0.1)">
       <defs>
        <path d="M 350 1059 
L 891 1109 
Q 959 728 1153 556 
Q 1347 384 1650 384 
Q 1909 384 2104 503 
Q 2300 622 2425 820 
Q 2550 1019 2634 1356 
Q 2719 1694 2719 2044 
Q 2719 2081 2716 2156 
Q 2547 1888 2255 1720 
Q 1963 1553 1622 1553 
Q 1053 1553 659 1965 
Q 266 2378 266 3053 
Q 266 3750 677 4175 
Q 1088 4600 1706 4600 
Q 2153 4600 2523 4359 
Q 2894 4119 3086 3673 
Q 3278 3228 3278 2384 
Q 3278 1506 3087 986 
Q 2897 466 2520 194 
Q 2144 -78 1638 -78 
Q 1100 -78 759 220 
Q 419 519 350 1059 
z
M 2653 3081 
Q 2653 3566 2395 3850 
Q 2138 4134 1775 4134 
Q 1400 4134 1122 3828 
Q 844 3522 844 3034 
Q 844 2597 1108 2323 
Q 1372 2050 1759 2050 
Q 2150 2050 2401 2323 
Q 2653 2597 2653 3081 
z
" id="ArialMT-39" transform="scale(0.015625)"/>
       </defs>
       <use xlink:href="#ArialMT-32"/>
       <use x="55.615234" xlink:href="#ArialMT-30"/>
       <use x="111.230469" xlink:href="#ArialMT-32"/>
       <use x="166.845703" xlink:href="#ArialMT-30"/>
       <use x="222.460938" xlink:href="#ArialMT-2d"/>
       <use x="255.761719" xlink:href="#ArialMT-30"/>
       <use x="311.376953" xlink:href="#ArialMT-39"/>
      </g>
     </g>
    </g>
    <g id="xtick_5">
     <g id="line2d_5">
      <path clip-path="url(#p3af0866cc9)" d="M 314.158107 298.989375 
L 314.158107 21.789375 
" style="fill:none;stroke:#cccccc;stroke-linecap:round;stroke-width:0.8;"/>
     </g>
     <g id="text_5">
      <!-- 2020-11 -->
      <g style="fill:#262626;" transform="translate(296.179201 313.147188)scale(0.1 -0.1)">
       <defs>
        <path d="M 2384 0 
L 1822 0 
L 1822 3584 
Q 1619 3391 1289 3197 
Q 959 3003 697 2906 
L 697 3450 
Q 1169 3672 1522 3987 
Q 1875 4303 2022 4600 
L 2384 4600 
L 2384 0 
z
" id="ArialMT-31" transform="scale(0.015625)"/>
       </defs>
       <use xlink:href="#ArialMT-32"/>
       <use x="55.615234" xlink:href="#ArialMT-30"/>
       <use x="111.230469" xlink:href="#ArialMT-32"/>
       <use x="166.845703" xlink:href="#ArialMT-30"/>
       <use x="222.460938" xlink:href="#ArialMT-2d"/>
       <use x="255.761719" xlink:href="#ArialMT-31"/>
       <use x="304.001953" xlink:href="#ArialMT-31"/>
      </g>
     </g>
    </g>
    <g id="xtick_6">
     <g id="line2d_6">
      <path clip-path="url(#p3af0866cc9)" d="M 369.513449 298.989375 
L 369.513449 21.789375 
" style="fill:none;stroke:#cccccc;stroke-linecap:round;stroke-width:0.8;"/>
     </g>
     <g id="text_6">
      <!-- 2021-01 -->
      <g style="fill:#262626;" transform="translate(351.165793 313.147188)scale(0.1 -0.1)">
       <use xlink:href="#ArialMT-32"/>
       <use x="55.615234" xlink:href="#ArialMT-30"/>
       <use x="111.230469" xlink:href="#ArialMT-32"/>
       <use x="166.845703" xlink:href="#ArialMT-31"/>
       <use x="222.460938" xlink:href="#ArialMT-2d"/>
       <use x="255.761719" xlink:href="#ArialMT-30"/>
       <use x="311.376953" xlink:href="#ArialMT-31"/>
      </g>
     </g>
    </g>
    <g id="xtick_7">
     <g id="line2d_7">
      <path clip-path="url(#p3af0866cc9)" d="M 423.053862 298.989375 
L 423.053862 21.789375 
" style="fill:none;stroke:#cccccc;stroke-linecap:round;stroke-width:0.8;"/>
     </g>
     <g id="text_7">
      <!-- 2021-03 -->
      <g style="fill:#262626;" transform="translate(404.706206 313.147188)scale(0.1 -0.1)">
       <use xlink:href="#ArialMT-32"/>
       <use x="55.615234" xlink:href="#ArialMT-30"/>
       <use x="111.230469" xlink:href="#ArialMT-32"/>
       <use x="166.845703" xlink:href="#ArialMT-31"/>
       <use x="222.460938" xlink:href="#ArialMT-2d"/>
       <use x="255.761719" xlink:href="#ArialMT-30"/>
       <use x="311.376953" xlink:href="#ArialMT-33"/>
      </g>
     </g>
    </g>
    <g id="xtick_8">
     <g id="line2d_8">
      <path clip-path="url(#p3af0866cc9)" d="M 478.409205 298.989375 
L 478.409205 21.789375 
" style="fill:none;stroke:#cccccc;stroke-linecap:round;stroke-width:0.8;"/>
     </g>
     <g id="text_8">
      <!-- 2021-05 -->
      <g style="fill:#262626;" transform="translate(460.061548 313.147188)scale(0.1 -0.1)">
       <use xlink:href="#ArialMT-32"/>
       <use x="55.615234" xlink:href="#ArialMT-30"/>
       <use x="111.230469" xlink:href="#ArialMT-32"/>
       <use x="166.845703" xlink:href="#ArialMT-31"/>
       <use x="222.460938" xlink:href="#ArialMT-2d"/>
       <use x="255.761719" xlink:href="#ArialMT-30"/>
       <use x="311.376953" xlink:href="#ArialMT-35"/>
      </g>
     </g>
    </g>
    <g id="xtick_9">
     <g id="line2d_9">
      <path clip-path="url(#p3af0866cc9)" d="M 533.764547 298.989375 
L 533.764547 21.789375 
" style="fill:none;stroke:#cccccc;stroke-linecap:round;stroke-width:0.8;"/>
     </g>
     <g id="text_9">
      <!-- 2021-07 -->
      <g style="fill:#262626;" transform="translate(515.416891 313.147188)scale(0.1 -0.1)">
       <use xlink:href="#ArialMT-32"/>
       <use x="55.615234" xlink:href="#ArialMT-30"/>
       <use x="111.230469" xlink:href="#ArialMT-32"/>
       <use x="166.845703" xlink:href="#ArialMT-31"/>
       <use x="222.460938" xlink:href="#ArialMT-2d"/>
       <use x="255.761719" xlink:href="#ArialMT-30"/>
       <use x="311.376953" xlink:href="#ArialMT-37"/>
      </g>
     </g>
    </g>
    <g id="xtick_10">
     <g id="line2d_10">
      <path clip-path="url(#p3af0866cc9)" d="M 590.027354 298.989375 
L 590.027354 21.789375 
" style="fill:none;stroke:#cccccc;stroke-linecap:round;stroke-width:0.8;"/>
     </g>
     <g id="text_10">
      <!-- 2021-09 -->
      <g style="fill:#262626;" transform="translate(571.679698 313.147188)scale(0.1 -0.1)">
       <use xlink:href="#ArialMT-32"/>
       <use x="55.615234" xlink:href="#ArialMT-30"/>
       <use x="111.230469" xlink:href="#ArialMT-32"/>
       <use x="166.845703" xlink:href="#ArialMT-31"/>
       <use x="222.460938" xlink:href="#ArialMT-2d"/>
       <use x="255.761719" xlink:href="#ArialMT-30"/>
       <use x="311.376953" xlink:href="#ArialMT-39"/>
      </g>
     </g>
    </g>
   </g>
   <g id="matplotlib.axis_2">
    <g id="ytick_1">
     <g id="line2d_11">
      <path clip-path="url(#p3af0866cc9)" d="M 82.8 286.389375 
L 640.8 286.389375 
" style="fill:none;stroke:#cccccc;stroke-linecap:round;stroke-width:0.8;"/>
     </g>
     <g id="text_11">
      <!-- 0 -->
      <g style="fill:#262626;" transform="translate(70.239063 289.968281)scale(0.1 -0.1)">
       <use xlink:href="#ArialMT-30"/>
      </g>
     </g>
    </g>
    <g id="ytick_2">
     <g id="line2d_12">
      <path clip-path="url(#p3af0866cc9)" d="M 82.8 248.664824 
L 640.8 248.664824 
" style="fill:none;stroke:#cccccc;stroke-linecap:round;stroke-width:0.8;"/>
     </g>
     <g id="text_12">
      <!-- 50 -->
      <g style="fill:#262626;" transform="translate(64.678125 252.24373)scale(0.1 -0.1)">
       <use xlink:href="#ArialMT-35"/>
       <use x="55.615234" xlink:href="#ArialMT-30"/>
      </g>
     </g>
    </g>
    <g id="ytick_3">
     <g id="line2d_13">
      <path clip-path="url(#p3af0866cc9)" d="M 82.8 210.940273 
L 640.8 210.940273 
" style="fill:none;stroke:#cccccc;stroke-linecap:round;stroke-width:0.8;"/>
     </g>
     <g id="text_13">
      <!-- 100 -->
      <g style="fill:#262626;" transform="translate(59.117188 214.519179)scale(0.1 -0.1)">
       <use xlink:href="#ArialMT-31"/>
       <use x="55.615234" xlink:href="#ArialMT-30"/>
       <use x="111.230469" xlink:href="#ArialMT-30"/>
      </g>
     </g>
    </g>
    <g id="ytick_4">
     <g id="line2d_14">
      <path clip-path="url(#p3af0866cc9)" d="M 82.8 173.215722 
L 640.8 173.215722 
" style="fill:none;stroke:#cccccc;stroke-linecap:round;stroke-width:0.8;"/>
     </g>
     <g id="text_14">
      <!-- 150 -->
      <g style="fill:#262626;" transform="translate(59.117188 176.794629)scale(0.1 -0.1)">
       <use xlink:href="#ArialMT-31"/>
       <use x="55.615234" xlink:href="#ArialMT-35"/>
       <use x="111.230469" xlink:href="#ArialMT-30"/>
      </g>
     </g>
    </g>
    <g id="ytick_5">
     <g id="line2d_15">
      <path clip-path="url(#p3af0866cc9)" d="M 82.8 135.491171 
L 640.8 135.491171 
" style="fill:none;stroke:#cccccc;stroke-linecap:round;stroke-width:0.8;"/>
     </g>
     <g id="text_15">
      <!-- 200 -->
      <g style="fill:#262626;" transform="translate(59.117188 139.070078)scale(0.1 -0.1)">
       <use xlink:href="#ArialMT-32"/>
       <use x="55.615234" xlink:href="#ArialMT-30"/>
       <use x="111.230469" xlink:href="#ArialMT-30"/>
      </g>
     </g>
    </g>
    <g id="ytick_6">
     <g id="line2d_16">
      <path clip-path="url(#p3af0866cc9)" d="M 82.8 97.766621 
L 640.8 97.766621 
" style="fill:none;stroke:#cccccc;stroke-linecap:round;stroke-width:0.8;"/>
     </g>
     <g id="text_16">
      <!-- 250 -->
      <g style="fill:#262626;" transform="translate(59.117188 101.345527)scale(0.1 -0.1)">
       <use xlink:href="#ArialMT-32"/>
       <use x="55.615234" xlink:href="#ArialMT-35"/>
       <use x="111.230469" xlink:href="#ArialMT-30"/>
      </g>
     </g>
    </g>
    <g id="ytick_7">
     <g id="line2d_17">
      <path clip-path="url(#p3af0866cc9)" d="M 82.8 60.04207 
L 640.8 60.04207 
" style="fill:none;stroke:#cccccc;stroke-linecap:round;stroke-width:0.8;"/>
     </g>
     <g id="text_17">
      <!-- 300 -->
      <g style="fill:#262626;" transform="translate(59.117188 63.620976)scale(0.1 -0.1)">
       <use xlink:href="#ArialMT-33"/>
       <use x="55.615234" xlink:href="#ArialMT-30"/>
       <use x="111.230469" xlink:href="#ArialMT-30"/>
      </g>
     </g>
    </g>
    <g id="ytick_8">
     <g id="line2d_18">
      <path clip-path="url(#p3af0866cc9)" d="M 82.8 22.317519 
L 640.8 22.317519 
" style="fill:none;stroke:#cccccc;stroke-linecap:round;stroke-width:0.8;"/>
     </g>
     <g id="text_18">
      <!-- 350 -->
      <g style="fill:#262626;" transform="translate(59.117188 25.896425)scale(0.1 -0.1)">
       <use xlink:href="#ArialMT-33"/>
       <use x="55.615234" xlink:href="#ArialMT-35"/>
       <use x="111.230469" xlink:href="#ArialMT-30"/>
      </g>
     </g>
    </g>
   </g>
   <g id="line2d_19">
    <path clip-path="url(#p3af0866cc9)" d="M 108.163636 278.089974 
L 109.071101 278.089974 
L 109.978566 276.580992 
L 110.88603 276.580992 
L 111.793495 269.036082 
L 112.70096 255.455243 
L 113.608424 254.700752 
L 114.515889 251.682788 
L 115.423353 247.155842 
L 116.330818 246.401351 
L 117.238283 246.401351 
L 118.145747 245.64686 
L 119.053212 242.628896 
L 119.960677 226.030094 
L 120.868141 224.521112 
L 121.775606 224.521112 
L 122.68307 201.886381 
L 123.590535 200.377399 
L 124.498 213.958237 
L 125.405464 210.185782 
L 126.312929 204.149854 
L 127.220394 202.640872 
L 128.127858 199.622908 
L 129.035323 199.622908 
L 129.942787 198.113926 
L 130.850252 186.796561 
L 131.757717 185.287579 
L 132.665181 189.060034 
L 133.572646 176.233686 
L 134.480111 173.215722 
L 135.387575 170.952249 
L 136.29504 167.179794 
L 137.202504 176.988177 
L 138.109969 176.988177 
L 139.017434 173.970213 
L 139.924898 167.934285 
L 140.832363 142.281591 
L 141.739828 140.772609 
L 142.647292 176.233686 
L 143.554757 178.497159 
L 144.462221 181.515124 
L 145.369686 176.233686 
L 146.277151 181.515124 
L 147.184615 173.215722 
L 148.09208 168.688776 
L 148.999545 169.443267 
L 149.907009 167.179794 
L 150.814474 161.143866 
L 151.721939 158.125902 
L 152.629403 162.652848 
L 153.536868 165.670812 
L 154.444332 161.143866 
L 155.351797 158.125902 
L 156.259262 161.898357 
L 157.166726 146.054046 
L 158.074191 152.844465 
L 158.981656 149.826501 
L 159.88912 146.054046 
L 160.796585 152.089974 
L 161.704049 140.772609 
L 162.611514 139.263626 
L 163.518979 141.5271 
L 164.426443 133.982189 
L 165.333908 137.000153 
L 166.241373 139.263626 
L 167.148837 140.772609 
L 168.056302 138.509135 
L 168.963766 137.754644 
L 169.871231 133.227698 
L 170.778696 134.73668 
L 171.68616 135.491171 
L 172.593625 123.419315 
L 173.50109 122.664824 
L 174.408554 124.173806 
L 175.316019 129.455243 
L 176.223483 129.455243 
L 177.130948 128.700752 
L 178.038413 127.19177 
L 178.945877 122.664824 
L 179.853342 122.664824 
L 180.760807 110.592968 
L 181.668271 115.874405 
L 182.575736 109.083986 
L 183.483201 114.365423 
L 184.390665 106.820513 
L 185.29813 109.838477 
L 186.205594 103.802549 
L 187.113059 112.856441 
L 188.020524 120.401351 
L 188.927988 122.664824 
L 189.835453 126.437279 
L 190.742918 130.964225 
L 191.650382 127.946261 
L 192.557847 122.664824 
L 193.465311 121.910333 
L 194.372776 118.892369 
L 195.280241 123.419315 
L 196.187705 135.491171 
L 197.09517 137.000153 
L 198.002635 131.718716 
L 198.910099 134.73668 
L 199.817564 141.5271 
L 200.725028 144.545064 
L 201.632493 150.580992 
L 202.539958 150.580992 
L 203.447422 156.61692 
L 204.354887 149.07201 
L 205.262352 152.844465 
L 206.169816 154.353447 
L 207.077281 157.371411 
L 207.984745 148.317519 
L 208.89221 164.916321 
L 209.799675 162.652848 
L 210.707139 161.898357 
L 211.614604 166.425303 
L 212.522069 171.70674 
L 213.429533 170.197758 
L 214.336998 149.826501 
L 215.244463 161.898357 
L 216.151927 153.598956 
L 217.059392 148.317519 
L 217.966856 156.61692 
L 218.874321 154.353447 
L 220.68925 158.880393 
L 221.596715 154.353447 
L 222.50418 157.371411 
L 223.411644 152.844465 
L 224.319109 154.353447 
L 226.134038 158.880393 
L 227.041503 163.407339 
L 227.948967 170.952249 
L 228.856432 173.215722 
L 229.763897 173.970213 
L 230.671361 177.742668 
L 231.578826 180.006141 
L 232.48629 177.742668 
L 233.393755 184.533088 
L 234.30122 188.305543 
L 235.208684 196.604944 
L 236.116149 194.341471 
L 237.023614 195.850453 
L 237.931078 208.6768 
L 238.838543 203.395363 
L 239.746007 207.167818 
L 240.653472 211.694764 
L 241.560937 208.6768 
L 242.468401 207.922309 
L 243.375866 204.904345 
L 244.283331 203.395363 
L 245.190795 202.640872 
L 246.09826 189.814525 
L 247.005725 198.113926 
L 248.820654 207.167818 
L 249.728118 204.904345 
L 250.635583 214.712728 
L 251.543048 215.467219 
L 252.450512 213.203746 
L 253.357977 215.467219 
L 254.265442 219.239674 
L 255.172906 213.203746 
L 256.080371 221.503147 
L 256.987835 207.167818 
L 257.8953 197.359435 
L 258.802765 195.850453 
L 259.710229 199.622908 
L 260.617694 201.13189 
L 261.525159 201.13189 
L 262.432623 203.395363 
L 263.340088 203.395363 
L 264.247552 211.694764 
L 265.155017 210.185782 
L 266.062482 200.377399 
L 266.969946 203.395363 
L 267.877411 200.377399 
L 268.784876 199.622908 
L 269.69234 200.377399 
L 270.599805 203.395363 
L 272.414734 212.449255 
L 273.322199 213.203746 
L 274.229663 210.940273 
L 275.137128 209.431291 
L 276.952057 210.940273 
L 277.859522 217.730692 
L 278.766987 217.730692 
L 279.674451 231.311531 
L 280.581916 229.048058 
L 281.48938 227.539076 
L 282.396845 223.012129 
L 283.30431 221.503147 
L 284.211774 222.257638 
L 285.119239 219.239674 
L 286.026704 223.012129 
L 286.934168 222.257638 
L 287.841633 217.730692 
L 288.749097 219.239674 
L 289.656562 219.994165 
L 290.564027 214.712728 
L 291.471491 210.940273 
L 292.378956 213.203746 
L 293.286421 210.185782 
L 294.193885 212.449255 
L 295.10135 209.431291 
L 296.008814 214.712728 
L 296.916279 215.467219 
L 297.823744 214.712728 
L 298.731208 212.449255 
L 299.638673 213.958237 
L 300.546138 216.976201 
L 301.453602 216.22171 
L 302.361067 216.22171 
L 303.268531 213.203746 
L 304.175996 207.167818 
L 305.083461 204.904345 
L 305.990925 205.658836 
L 306.89839 207.922309 
L 307.805855 204.149854 
L 308.713319 204.149854 
L 309.620784 201.886381 
L 310.528248 195.095962 
L 311.435713 196.604944 
L 312.343178 193.58698 
L 313.250642 193.58698 
L 314.158107 190.569016 
L 315.065572 186.796561 
L 315.973036 180.760632 
L 316.880501 189.060034 
L 317.787966 194.341471 
L 318.69543 189.060034 
L 319.602895 183.024106 
L 320.510359 186.04207 
L 321.417824 179.25165 
L 322.325289 174.724704 
L 323.232753 164.916321 
L 324.140218 166.425303 
L 325.047683 169.443267 
L 325.955147 173.970213 
L 326.862612 173.215722 
L 327.770076 168.688776 
L 328.677541 169.443267 
L 329.585006 153.598956 
L 330.49247 149.826501 
L 331.399935 152.089974 
L 332.3074 138.509135 
L 333.214864 139.263626 
L 334.122329 143.790573 
L 335.029793 137.754644 
L 335.937258 132.473207 
L 336.844723 132.473207 
L 337.752187 134.73668 
L 338.659652 127.946261 
L 339.567117 138.509135 
L 340.474581 142.281591 
L 341.382046 147.563028 
L 342.28951 140.018118 
L 343.196975 141.5271 
L 344.10444 149.07201 
L 345.011904 145.299555 
L 345.919369 155.862429 
L 346.826834 164.916321 
L 347.734298 155.862429 
L 348.641763 142.281591 
L 349.549228 154.353447 
L 350.456692 150.580992 
L 351.364157 149.07201 
L 352.271621 155.862429 
L 354.994015 171.70674 
L 355.90148 170.197758 
L 356.808945 169.443267 
L 357.716409 174.724704 
L 358.623874 178.497159 
L 359.531338 173.970213 
L 360.438803 170.952249 
L 361.346268 170.952249 
L 362.253732 175.479195 
L 363.161197 182.269615 
L 364.068662 184.533088 
L 364.976126 178.497159 
L 365.883591 177.742668 
L 366.791055 173.215722 
L 367.69852 175.479195 
L 368.605985 173.970213 
L 369.513449 183.778597 
L 370.420914 180.760632 
L 371.328379 187.551052 
L 372.235843 197.359435 
L 373.143308 195.850453 
L 374.050772 195.095962 
L 374.958237 196.604944 
L 375.865702 192.832489 
L 377.680631 194.341471 
L 378.588096 184.533088 
L 379.49556 187.551052 
L 380.403025 179.25165 
L 381.31049 180.006141 
L 382.217954 176.233686 
L 384.032883 185.287579 
L 384.940348 178.497159 
L 385.847813 181.515124 
L 386.755277 187.551052 
L 387.662742 195.850453 
L 388.570207 189.060034 
L 389.477671 192.832489 
L 390.385136 189.814525 
L 391.2926 199.622908 
L 392.200065 204.149854 
L 393.10753 195.095962 
L 394.014994 201.13189 
L 394.922459 196.604944 
L 395.829924 201.886381 
L 396.737388 204.149854 
L 397.644853 195.095962 
L 398.552317 194.341471 
L 399.459782 191.323507 
L 400.367247 196.604944 
L 401.274711 195.850453 
L 402.182176 196.604944 
L 403.089641 200.377399 
L 403.997105 203.395363 
L 404.90457 210.185782 
L 405.812034 210.940273 
L 406.719499 209.431291 
L 407.626964 206.413327 
L 408.534428 216.976201 
L 409.441893 216.22171 
L 410.349358 206.413327 
L 411.256822 203.395363 
L 412.164287 214.712728 
L 413.071752 214.712728 
L 413.979216 211.694764 
L 414.886681 213.958237 
L 415.794145 209.431291 
L 416.70161 202.640872 
L 417.609075 198.113926 
L 418.516539 201.13189 
L 419.424004 191.323507 
L 420.331469 192.077998 
L 421.238933 205.658836 
L 422.146398 189.060034 
L 423.053862 180.760632 
L 423.961327 186.796561 
L 424.868792 178.497159 
L 425.776256 180.006141 
L 426.683721 177.742668 
L 427.591186 186.796561 
L 428.49865 183.778597 
L 429.406115 173.970213 
L 430.313579 169.443267 
L 432.128509 161.898357 
L 433.943438 148.317519 
L 434.850903 139.263626 
L 435.758367 133.982189 
L 436.665832 118.892369 
L 437.573296 115.874405 
L 438.480761 112.10195 
L 439.388226 106.820513 
L 440.29569 95.503147 
L 441.203155 81.922309 
L 442.11062 74.377399 
L 443.018084 64.569016 
L 443.925549 57.778597 
L 444.833013 39.670812 
L 445.740478 49.479195 
L 446.647943 40.425303 
L 447.555407 44.197758 
L 448.462872 44.197758 
L 449.370337 34.389375 
L 450.277801 35.898357 
L 451.185266 41.179794 
L 452.092731 37.407339 
L 453.000195 42.688776 
L 453.90766 44.197758 
L 454.815124 41.179794 
L 455.722589 45.70674 
L 456.630054 46.461231 
L 457.537518 56.269615 
L 458.444983 55.515124 
L 459.352448 81.922309 
L 460.259912 87.958237 
L 461.167377 78.904345 
L 462.074841 87.203746 
L 462.982306 84.940273 
L 463.889771 81.922309 
L 464.797235 91.730692 
L 465.7047 78.904345 
L 466.612165 97.012129 
L 467.519629 89.467219 
L 468.427094 90.976201 
L 469.334558 99.275603 
L 470.242023 109.083986 
L 471.149488 109.838477 
L 472.056952 118.892369 
L 472.964417 125.682788 
L 473.871882 122.664824 
L 474.779346 127.19177 
L 475.686811 136.245662 
L 476.594275 133.227698 
L 477.50174 128.700752 
L 478.409205 113.610932 
L 479.316669 121.910333 
L 480.224134 124.173806 
L 481.131599 130.209734 
L 482.039063 118.892369 
L 482.946528 110.592968 
L 483.853993 123.419315 
L 484.761457 133.227698 
L 485.668922 118.137878 
L 486.576386 121.155842 
L 487.483851 115.874405 
L 488.391316 121.155842 
L 489.29878 122.664824 
L 490.206245 127.946261 
L 491.11371 121.155842 
L 492.021174 112.10195 
L 492.928639 109.838477 
L 493.836103 105.311531 
L 494.743568 107.575004 
L 495.651033 111.347459 
L 496.558497 100.030094 
L 497.465962 98.521112 
L 498.373427 97.766621 
L 499.280891 100.030094 
L 500.188356 94.748656 
L 501.09582 90.22171 
L 502.003285 80.413327 
L 502.91075 78.149854 
L 503.818214 68.341471 
L 504.725679 78.149854 
L 505.633144 74.377399 
L 506.540608 90.976201 
L 507.448073 92.485183 
L 508.355537 94.748656 
L 509.263002 93.239674 
L 510.170467 97.766621 
L 511.077931 93.239674 
L 511.985396 92.485183 
L 512.892861 92.485183 
L 513.800325 105.311531 
L 514.70779 112.856441 
L 515.615255 109.083986 
L 516.522719 115.119914 
L 517.430184 111.347459 
L 518.337648 115.874405 
L 519.245113 119.64686 
L 520.152578 117.383387 
L 521.060042 124.173806 
L 521.967507 124.173806 
L 522.874972 134.73668 
L 523.782436 140.018118 
L 524.689901 135.491171 
L 526.50483 148.317519 
L 527.412295 152.089974 
L 528.319759 158.880393 
L 529.227224 158.880393 
L 530.134689 167.934285 
L 531.042153 170.952249 
L 531.949618 176.988177 
L 532.857082 182.269615 
L 533.764547 188.305543 
L 534.672012 184.533088 
L 535.579476 192.832489 
L 536.486941 197.359435 
L 537.394406 191.323507 
L 538.30187 194.341471 
L 539.209335 192.832489 
L 541.024264 200.377399 
L 541.931729 199.622908 
L 542.839193 192.077998 
L 543.746658 195.095962 
L 544.654123 179.25165 
L 545.561587 182.269615 
L 546.469052 191.323507 
L 547.376517 186.796561 
L 548.283981 191.323507 
L 549.191446 196.604944 
L 550.09891 192.077998 
L 551.006375 200.377399 
L 551.91384 200.377399 
L 552.821304 204.904345 
L 553.728769 204.149854 
L 554.636234 211.694764 
L 555.543698 212.449255 
L 556.451163 219.239674 
L 557.358627 222.257638 
L 558.266092 214.712728 
L 559.173557 225.275603 
L 560.081021 225.275603 
L 560.988486 216.976201 
L 562.803415 219.994165 
L 563.71088 217.730692 
L 564.618344 216.976201 
L 565.525809 216.976201 
L 566.433274 214.712728 
L 567.340738 215.467219 
L 568.248203 211.694764 
L 569.155668 211.694764 
L 570.063132 212.449255 
L 570.970597 210.940273 
L 571.878061 220.748656 
L 572.785526 216.976201 
L 573.692991 219.239674 
L 574.600455 220.748656 
L 575.50792 223.766621 
L 576.415385 222.257638 
L 577.322849 222.257638 
L 578.230314 225.275603 
L 579.137779 227.539076 
L 580.952708 230.55704 
L 581.860172 236.592968 
L 582.767637 235.838477 
L 583.675102 245.64686 
L 584.582566 235.838477 
L 585.490031 232.820513 
L 586.397496 234.329495 
L 587.30496 236.592968 
L 588.212425 241.874405 
L 589.119889 242.628896 
L 590.027354 244.137878 
L 590.934819 244.892369 
L 591.842283 241.874405 
L 592.749748 233.575004 
L 593.657213 239.610932 
L 594.564677 234.329495 
L 595.472142 235.083986 
L 596.379606 236.592968 
L 597.287071 244.892369 
L 598.194536 238.10195 
L 600.009465 238.10195 
L 601.824394 241.119914 
L 602.731859 244.892369 
L 603.639323 242.628896 
L 604.546788 237.347459 
L 605.454253 239.610932 
L 606.361717 234.329495 
L 607.269182 242.628896 
L 608.176647 240.365423 
L 609.084111 246.401351 
L 609.991576 246.401351 
L 610.89904 245.64686 
L 611.806505 249.419315 
L 612.71397 247.910333 
L 613.621434 250.928297 
L 614.528899 250.928297 
L 615.436364 251.682788 
L 615.436364 251.682788 
" style="fill:none;stroke:#1f77b4;stroke-linecap:round;stroke-width:1.5;"/>
   </g>
   <g id="line2d_20">
    <path clip-path="url(#p3af0866cc9)" d="M 108.163636 286.389375 
L 109.071101 286.389375 
L 109.978566 281.107938 
L 110.88603 281.107938 
L 111.793495 279.598956 
L 112.70096 272.054046 
L 113.608424 272.808537 
L 114.515889 269.790573 
L 118.145747 269.790573 
L 119.053212 270.545064 
L 119.960677 267.5271 
L 120.868141 269.036082 
L 121.775606 268.281591 
L 122.68307 265.263626 
L 123.590535 265.263626 
L 124.498 261.491171 
L 125.405464 258.473207 
L 126.312929 258.473207 
L 127.220394 262.245662 
L 129.035323 262.245662 
L 129.942787 261.491171 
L 130.850252 257.718716 
L 131.757717 259.982189 
L 132.665181 264.509135 
L 133.572646 258.473207 
L 134.480111 253.19177 
L 135.387575 252.437279 
L 136.29504 245.64686 
L 137.202504 250.173806 
L 138.109969 248.664824 
L 139.017434 245.64686 
L 139.924898 238.856441 
L 140.832363 235.083986 
L 141.739828 232.820513 
L 142.647292 238.856441 
L 143.554757 238.856441 
L 145.369686 241.874405 
L 146.277151 238.856441 
L 147.184615 233.575004 
L 148.09208 231.311531 
L 148.999545 229.802549 
L 149.907009 230.55704 
L 150.814474 225.275603 
L 151.721939 225.275603 
L 152.629403 232.820513 
L 153.536868 234.329495 
L 154.444332 229.048058 
L 155.351797 229.048058 
L 157.166726 232.066022 
L 158.074191 236.592968 
L 158.981656 233.575004 
L 159.88912 231.311531 
L 160.796585 235.838477 
L 161.704049 229.048058 
L 162.611514 229.048058 
L 163.518979 227.539076 
L 164.426443 230.55704 
L 165.333908 226.030094 
L 166.241373 226.030094 
L 167.148837 222.257638 
L 168.056302 223.012129 
L 169.871231 221.503147 
L 170.778696 228.293567 
L 171.68616 230.55704 
L 172.593625 225.275603 
L 173.50109 229.048058 
L 174.408554 225.275603 
L 175.316019 220.748656 
L 176.223483 219.239674 
L 177.130948 218.485183 
L 178.038413 221.503147 
L 178.945877 219.239674 
L 179.853342 219.239674 
L 180.760807 214.712728 
L 181.668271 216.976201 
L 182.575736 215.467219 
L 183.483201 215.467219 
L 184.390665 207.922309 
L 185.29813 211.694764 
L 186.205594 216.976201 
L 187.113059 219.239674 
L 188.020524 212.449255 
L 188.927988 216.976201 
L 189.835453 223.012129 
L 190.742918 225.275603 
L 192.557847 223.766621 
L 193.465311 219.239674 
L 194.372776 221.503147 
L 195.280241 219.994165 
L 196.187705 223.012129 
L 197.09517 222.257638 
L 198.002635 223.012129 
L 198.910099 227.539076 
L 199.817564 234.329495 
L 200.725028 233.575004 
L 201.632493 230.55704 
L 202.539958 231.311531 
L 203.447422 234.329495 
L 204.354887 232.066022 
L 205.262352 230.55704 
L 206.169816 231.311531 
L 207.077281 231.311531 
L 207.984745 229.802549 
L 208.89221 236.592968 
L 209.799675 236.592968 
L 210.707139 235.838477 
L 211.614604 238.856441 
L 212.522069 240.365423 
L 213.429533 236.592968 
L 214.336998 231.311531 
L 215.244463 233.575004 
L 216.151927 227.539076 
L 217.059392 230.55704 
L 217.966856 236.592968 
L 218.874321 238.856441 
L 219.781786 237.347459 
L 220.68925 237.347459 
L 221.596715 238.856441 
L 222.50418 233.575004 
L 223.411644 235.083986 
L 224.319109 237.347459 
L 225.226573 237.347459 
L 226.134038 233.575004 
L 227.041503 233.575004 
L 227.948967 238.10195 
L 228.856432 238.10195 
L 229.763897 238.856441 
L 230.671361 241.874405 
L 231.578826 243.383387 
L 232.48629 244.137878 
L 233.393755 246.401351 
L 234.30122 250.173806 
L 235.208684 249.419315 
L 236.116149 246.401351 
L 237.023614 247.155842 
L 237.931078 252.437279 
L 238.838543 252.437279 
L 239.746007 251.682788 
L 240.653472 255.455243 
L 241.560937 254.700752 
L 242.468401 253.19177 
L 243.375866 250.173806 
L 244.283331 251.682788 
L 245.190795 251.682788 
L 246.09826 248.664824 
L 247.005725 253.946261 
L 247.913189 253.946261 
L 248.820654 258.473207 
L 249.728118 256.209734 
L 250.635583 259.227698 
L 251.543048 259.227698 
L 252.450512 259.982189 
L 253.357977 256.964225 
L 255.172906 256.964225 
L 256.080371 260.73668 
L 256.987835 254.700752 
L 257.8953 256.209734 
L 258.802765 252.437279 
L 259.710229 253.946261 
L 260.617694 253.19177 
L 261.525159 253.946261 
L 262.432623 251.682788 
L 263.340088 253.946261 
L 264.247552 255.455243 
L 265.155017 254.700752 
L 266.062482 250.173806 
L 266.969946 251.682788 
L 267.877411 247.910333 
L 268.784876 248.664824 
L 269.69234 253.19177 
L 270.599805 259.227698 
L 271.507269 255.455243 
L 272.414734 255.455243 
L 273.322199 256.209734 
L 274.229663 254.700752 
L 276.044593 256.209734 
L 276.952057 255.455243 
L 277.859522 256.964225 
L 278.766987 262.245662 
L 279.674451 261.491171 
L 280.581916 256.964225 
L 281.48938 257.718716 
L 282.396845 256.964225 
L 283.30431 254.700752 
L 284.211774 253.19177 
L 285.119239 253.19177 
L 286.026704 256.209734 
L 286.934168 257.718716 
L 287.841633 256.964225 
L 289.656562 256.964225 
L 290.564027 256.209734 
L 291.471491 254.700752 
L 292.378956 256.209734 
L 293.286421 256.964225 
L 294.193885 255.455243 
L 295.10135 254.700752 
L 296.008814 258.473207 
L 296.916279 261.491171 
L 297.823744 259.227698 
L 298.731208 261.491171 
L 299.638673 261.491171 
L 300.546138 259.982189 
L 301.453602 262.245662 
L 302.361067 258.473207 
L 303.268531 256.209734 
L 304.175996 255.455243 
L 305.083461 252.437279 
L 307.805855 252.437279 
L 309.620784 249.419315 
L 310.528248 246.401351 
L 311.435713 251.682788 
L 312.343178 251.682788 
L 313.250642 250.928297 
L 314.158107 249.419315 
L 315.065572 246.401351 
L 315.973036 247.155842 
L 317.787966 245.64686 
L 318.69543 244.137878 
L 319.602895 241.874405 
L 320.510359 244.892369 
L 321.417824 235.838477 
L 322.325289 233.575004 
L 323.232753 235.083986 
L 324.140218 234.329495 
L 325.047683 226.784585 
L 325.955147 234.329495 
L 326.862612 233.575004 
L 327.770076 235.838477 
L 328.677541 235.083986 
L 329.585006 227.539076 
L 330.49247 226.030094 
L 331.399935 226.030094 
L 332.3074 216.22171 
L 333.214864 219.994165 
L 334.122329 225.275603 
L 335.029793 221.503147 
L 335.937258 222.257638 
L 336.844723 222.257638 
L 337.752187 223.766621 
L 338.659652 223.012129 
L 339.567117 228.293567 
L 340.474581 229.048058 
L 341.382046 223.766621 
L 342.28951 220.748656 
L 343.196975 222.257638 
L 344.10444 226.784585 
L 345.011904 228.293567 
L 345.919369 226.784585 
L 346.826834 235.083986 
L 347.734298 229.048058 
L 348.641763 229.048058 
L 349.549228 225.275603 
L 350.456692 220.748656 
L 351.364157 223.766621 
L 352.271621 223.766621 
L 353.179086 229.048058 
L 354.086551 231.311531 
L 354.994015 229.048058 
L 355.90148 228.293567 
L 356.808945 231.311531 
L 357.716409 235.838477 
L 358.623874 232.820513 
L 359.531338 230.55704 
L 360.438803 232.066022 
L 361.346268 226.784585 
L 362.253732 232.066022 
L 363.161197 235.083986 
L 364.068662 235.083986 
L 364.976126 226.784585 
L 365.883591 235.083986 
L 366.791055 235.083986 
L 367.69852 238.856441 
L 368.605985 236.592968 
L 369.513449 235.083986 
L 370.420914 236.592968 
L 371.328379 237.347459 
L 372.235843 239.610932 
L 373.143308 241.119914 
L 374.050772 241.874405 
L 374.958237 243.383387 
L 375.865702 241.874405 
L 376.773166 238.856441 
L 377.680631 237.347459 
L 378.588096 232.820513 
L 379.49556 233.575004 
L 380.403025 228.293567 
L 381.31049 226.784585 
L 382.217954 223.766621 
L 383.125419 225.275603 
L 384.032883 227.539076 
L 385.847813 230.55704 
L 386.755277 231.311531 
L 387.662742 233.575004 
L 388.570207 232.066022 
L 389.477671 234.329495 
L 390.385136 229.048058 
L 391.2926 229.802549 
L 392.200065 232.066022 
L 393.10753 231.311531 
L 394.014994 236.592968 
L 396.737388 238.856441 
L 397.644853 235.838477 
L 398.552317 231.311531 
L 399.459782 235.838477 
L 400.367247 232.820513 
L 401.274711 236.592968 
L 402.182176 238.10195 
L 403.089641 242.628896 
L 403.997105 245.64686 
L 404.90457 247.155842 
L 405.812034 244.892369 
L 406.719499 245.64686 
L 407.626964 243.383387 
L 408.534428 250.928297 
L 409.441893 251.682788 
L 410.349358 240.365423 
L 411.256822 244.137878 
L 412.164287 242.628896 
L 413.071752 243.383387 
L 413.979216 239.610932 
L 414.886681 242.628896 
L 415.794145 244.137878 
L 416.70161 241.874405 
L 417.609075 243.383387 
L 418.516539 248.664824 
L 420.331469 239.610932 
L 421.238933 244.892369 
L 422.146398 240.365423 
L 423.053862 237.347459 
L 423.961327 239.610932 
L 424.868792 236.592968 
L 425.776256 236.592968 
L 426.683721 237.347459 
L 427.591186 243.383387 
L 428.49865 233.575004 
L 429.406115 236.592968 
L 430.313579 238.856441 
L 431.221044 232.066022 
L 432.128509 229.048058 
L 433.035973 223.766621 
L 433.943438 211.694764 
L 434.850903 204.904345 
L 435.758367 213.958237 
L 436.665832 201.886381 
L 437.573296 196.604944 
L 438.480761 198.113926 
L 439.388226 186.796561 
L 440.29569 190.569016 
L 441.203155 186.04207 
L 442.11062 187.551052 
L 443.018084 180.760632 
L 443.925549 177.742668 
L 444.833013 165.670812 
L 445.740478 163.407339 
L 446.647943 155.862429 
L 447.555407 151.335483 
L 448.462872 154.353447 
L 449.370337 152.089974 
L 450.277801 150.580992 
L 451.185266 147.563028 
L 453.000195 146.054046 
L 453.90766 149.07201 
L 454.815124 146.808537 
L 455.722589 146.054046 
L 457.537518 143.036082 
L 458.444983 144.545064 
L 459.352448 153.598956 
L 460.259912 153.598956 
L 462.074841 165.670812 
L 462.982306 162.652848 
L 463.889771 158.880393 
L 464.797235 168.688776 
L 465.7047 163.407339 
L 466.612165 172.461231 
L 468.427094 175.479195 
L 469.334558 180.760632 
L 470.242023 189.060034 
L 471.149488 189.814525 
L 472.056952 194.341471 
L 473.871882 192.832489 
L 474.779346 197.359435 
L 475.686811 202.640872 
L 476.594275 198.113926 
L 477.50174 202.640872 
L 478.409205 183.024106 
L 479.316669 198.868417 
L 480.224134 205.658836 
L 481.131599 208.6768 
L 482.039063 198.868417 
L 482.946528 197.359435 
L 483.853993 204.149854 
L 484.761457 200.377399 
L 485.668922 182.269615 
L 486.576386 194.341471 
L 487.483851 192.832489 
L 488.391316 193.58698 
L 489.29878 199.622908 
L 490.206245 204.904345 
L 491.11371 198.868417 
L 492.021174 198.113926 
L 492.928639 194.341471 
L 493.836103 189.814525 
L 494.743568 191.323507 
L 495.651033 195.850453 
L 496.558497 193.58698 
L 497.465962 183.778597 
L 498.373427 183.778597 
L 499.280891 186.04207 
L 500.188356 186.796561 
L 501.09582 183.024106 
L 502.003285 180.760632 
L 502.91075 176.233686 
L 503.818214 174.724704 
L 504.725679 179.25165 
L 505.633144 167.934285 
L 506.540608 176.988177 
L 507.448073 178.497159 
L 508.355537 173.970213 
L 509.263002 168.688776 
L 510.170467 178.497159 
L 511.077931 180.760632 
L 511.985396 181.515124 
L 512.892861 183.778597 
L 513.800325 192.077998 
L 514.70779 195.850453 
L 515.615255 193.58698 
L 516.522719 198.868417 
L 517.430184 197.359435 
L 518.337648 198.868417 
L 519.245113 201.13189 
L 520.152578 200.377399 
L 521.060042 210.185782 
L 521.967507 207.922309 
L 522.874972 208.6768 
L 523.782436 211.694764 
L 524.689901 203.395363 
L 525.597365 204.904345 
L 526.50483 207.922309 
L 527.412295 213.958237 
L 528.319759 222.257638 
L 529.227224 226.030094 
L 530.134689 219.239674 
L 531.042153 219.994165 
L 531.949618 223.766621 
L 532.857082 225.275603 
L 533.764547 227.539076 
L 534.672012 222.257638 
L 535.579476 226.784585 
L 536.486941 230.55704 
L 537.394406 229.048058 
L 538.30187 228.293567 
L 540.116799 234.329495 
L 541.931729 237.347459 
L 542.839193 232.820513 
L 543.746658 235.838477 
L 544.654123 229.802549 
L 545.561587 226.784585 
L 546.469052 229.048058 
L 547.376517 228.293567 
L 548.283981 224.521112 
L 549.191446 229.802549 
L 550.09891 230.55704 
L 551.006375 234.329495 
L 553.728769 241.119914 
L 554.636234 242.628896 
L 555.543698 246.401351 
L 556.451163 244.137878 
L 557.358627 245.64686 
L 558.266092 240.365423 
L 559.173557 247.910333 
L 560.081021 247.910333 
L 560.988486 250.173806 
L 561.895951 247.155842 
L 563.71088 247.155842 
L 564.618344 245.64686 
L 565.525809 245.64686 
L 566.433274 242.628896 
L 567.340738 246.401351 
L 568.248203 247.155842 
L 569.155668 246.401351 
L 570.063132 241.874405 
L 570.970597 244.137878 
L 571.878061 245.64686 
L 572.785526 244.137878 
L 573.692991 247.155842 
L 574.600455 245.64686 
L 575.50792 244.892369 
L 576.415385 247.910333 
L 577.322849 250.173806 
L 578.230314 251.682788 
L 579.137779 251.682788 
L 580.045243 252.437279 
L 580.952708 253.946261 
L 581.860172 258.473207 
L 582.767637 257.718716 
L 583.675102 263.000153 
L 584.582566 257.718716 
L 585.490031 255.455243 
L 586.397496 253.946261 
L 587.30496 255.455243 
L 588.212425 256.209734 
L 589.119889 259.982189 
L 590.027354 263.000153 
L 590.934819 263.000153 
L 591.842283 259.227698 
L 592.749748 256.964225 
L 593.657213 262.245662 
L 595.472142 260.73668 
L 596.379606 261.491171 
L 597.287071 265.263626 
L 598.194536 263.754644 
L 599.102 259.982189 
L 600.009465 259.227698 
L 600.91693 261.491171 
L 601.824394 259.227698 
L 602.731859 263.000153 
L 603.639323 256.964225 
L 604.546788 256.964225 
L 606.361717 259.982189 
L 607.269182 263.754644 
L 609.084111 265.263626 
L 609.991576 265.263626 
L 610.89904 263.000153 
L 611.806505 268.281591 
L 613.621434 266.772609 
L 614.528899 266.772609 
L 615.436364 269.036082 
L 615.436364 269.036082 
" style="fill:none;stroke:#ff7f0e;stroke-linecap:round;stroke-width:1.5;"/>
   </g>
   <g id="patch_3">
    <path d="M 82.8 298.989375 
L 82.8 21.789375 
" style="fill:none;stroke:#cccccc;stroke-linecap:square;stroke-linejoin:miter;stroke-width:0.8;"/>
   </g>
   <g id="patch_4">
    <path d="M 640.8 298.989375 
L 640.8 21.789375 
" style="fill:none;stroke:#cccccc;stroke-linecap:square;stroke-linejoin:miter;stroke-width:0.8;"/>
   </g>
   <g id="patch_5">
    <path d="M 82.8 298.989375 
L 640.8 298.989375 
" style="fill:none;stroke:#cccccc;stroke-linecap:square;stroke-linejoin:miter;stroke-width:0.8;"/>
   </g>
   <g id="patch_6">
    <path d="M 82.8 21.789375 
L 640.8 21.789375 
" style="fill:none;stroke:#cccccc;stroke-linecap:square;stroke-linejoin:miter;stroke-width:0.8;"/>
   </g>
   <g id="text_19">
    <!-- Internações -->
    <g style="fill:#262626;" transform="translate(330.449063 15.789375)scale(0.12 -0.12)">
     <defs>
      <path d="M 597 0 
L 597 4581 
L 1203 4581 
L 1203 0 
L 597 0 
z
" id="ArialMT-49" transform="scale(0.015625)"/>
      <path d="M 422 0 
L 422 3319 
L 928 3319 
L 928 2847 
Q 1294 3394 1984 3394 
Q 2284 3394 2536 3286 
Q 2788 3178 2913 3003 
Q 3038 2828 3088 2588 
Q 3119 2431 3119 2041 
L 3119 0 
L 2556 0 
L 2556 2019 
Q 2556 2363 2490 2533 
Q 2425 2703 2258 2804 
Q 2091 2906 1866 2906 
Q 1506 2906 1245 2678 
Q 984 2450 984 1813 
L 984 0 
L 422 0 
z
" id="ArialMT-6e" transform="scale(0.015625)"/>
      <path d="M 1650 503 
L 1731 6 
Q 1494 -44 1306 -44 
Q 1000 -44 831 53 
Q 663 150 594 308 
Q 525 466 525 972 
L 525 2881 
L 113 2881 
L 113 3319 
L 525 3319 
L 525 4141 
L 1084 4478 
L 1084 3319 
L 1650 3319 
L 1650 2881 
L 1084 2881 
L 1084 941 
Q 1084 700 1114 631 
Q 1144 563 1211 522 
Q 1278 481 1403 481 
Q 1497 481 1650 503 
z
" id="ArialMT-74" transform="scale(0.015625)"/>
      <path d="M 2694 1069 
L 3275 997 
Q 3138 488 2766 206 
Q 2394 -75 1816 -75 
Q 1088 -75 661 373 
Q 234 822 234 1631 
Q 234 2469 665 2931 
Q 1097 3394 1784 3394 
Q 2450 3394 2872 2941 
Q 3294 2488 3294 1666 
Q 3294 1616 3291 1516 
L 816 1516 
Q 847 969 1125 678 
Q 1403 388 1819 388 
Q 2128 388 2347 550 
Q 2566 713 2694 1069 
z
M 847 1978 
L 2700 1978 
Q 2663 2397 2488 2606 
Q 2219 2931 1791 2931 
Q 1403 2931 1139 2672 
Q 875 2413 847 1978 
z
" id="ArialMT-65" transform="scale(0.015625)"/>
      <path d="M 416 0 
L 416 3319 
L 922 3319 
L 922 2816 
Q 1116 3169 1280 3281 
Q 1444 3394 1641 3394 
Q 1925 3394 2219 3213 
L 2025 2691 
Q 1819 2813 1613 2813 
Q 1428 2813 1281 2702 
Q 1134 2591 1072 2394 
Q 978 2094 978 1738 
L 978 0 
L 416 0 
z
" id="ArialMT-72" transform="scale(0.015625)"/>
      <path d="M 2588 409 
Q 2275 144 1986 34 
Q 1697 -75 1366 -75 
Q 819 -75 525 192 
Q 231 459 231 875 
Q 231 1119 342 1320 
Q 453 1522 633 1644 
Q 813 1766 1038 1828 
Q 1203 1872 1538 1913 
Q 2219 1994 2541 2106 
Q 2544 2222 2544 2253 
Q 2544 2597 2384 2738 
Q 2169 2928 1744 2928 
Q 1347 2928 1158 2789 
Q 969 2650 878 2297 
L 328 2372 
Q 403 2725 575 2942 
Q 747 3159 1072 3276 
Q 1397 3394 1825 3394 
Q 2250 3394 2515 3294 
Q 2781 3194 2906 3042 
Q 3031 2891 3081 2659 
Q 3109 2516 3109 2141 
L 3109 1391 
Q 3109 606 3145 398 
Q 3181 191 3288 0 
L 2700 0 
Q 2613 175 2588 409 
z
M 2541 1666 
Q 2234 1541 1622 1453 
Q 1275 1403 1131 1340 
Q 988 1278 909 1158 
Q 831 1038 831 891 
Q 831 666 1001 516 
Q 1172 366 1500 366 
Q 1825 366 2078 508 
Q 2331 650 2450 897 
Q 2541 1088 2541 1459 
L 2541 1666 
z
" id="ArialMT-61" transform="scale(0.015625)"/>
      <path d="M 2588 1216 
L 3141 1144 
Q 3050 572 2676 248 
Q 2303 -75 1759 -75 
Q 1078 -75 664 370 
Q 250 816 250 1647 
Q 250 2184 428 2587 
Q 606 2991 970 3192 
Q 1334 3394 1763 3394 
Q 2303 3394 2647 3120 
Q 2991 2847 3088 2344 
L 2541 2259 
Q 2463 2594 2264 2762 
Q 2066 2931 1784 2931 
Q 1359 2931 1093 2626 
Q 828 2322 828 1663 
Q 828 994 1084 691 
Q 1341 388 1753 388 
Q 2084 388 2306 591 
Q 2528 794 2588 1216 
z
M 1283 -417 
L 1446 136 
L 1864 136 
L 1761 -199 
Q 2027 -230 2161 -362 
Q 2296 -495 2296 -658 
Q 2296 -892 2071 -1072 
Q 1846 -1252 1392 -1252 
Q 1136 -1252 942 -1214 
L 977 -849 
Q 1177 -861 1271 -861 
Q 1564 -861 1683 -780 
Q 1774 -717 1774 -627 
Q 1774 -570 1738 -526 
Q 1702 -483 1605 -451 
Q 1508 -420 1283 -417 
z
" id="ArialMT-e7" transform="scale(0.015625)"/>
      <path d="M 213 1659 
Q 213 2581 725 3025 
Q 1153 3394 1769 3394 
Q 2453 3394 2887 2945 
Q 3322 2497 3322 1706 
Q 3322 1066 3130 698 
Q 2938 331 2570 128 
Q 2203 -75 1769 -75 
Q 1072 -75 642 372 
Q 213 819 213 1659 
z
M 791 1659 
Q 791 1022 1069 705 
Q 1347 388 1769 388 
Q 2188 388 2466 706 
Q 2744 1025 2744 1678 
Q 2744 2294 2464 2611 
Q 2184 2928 1769 2928 
Q 1347 2928 1069 2612 
Q 791 2297 791 1659 
z
M 726 3809 
Q 723 4134 904 4328 
Q 1082 4522 1360 4522 
Q 1554 4522 1888 4353 
Q 2073 4259 2182 4259 
Q 2282 4259 2335 4314 
Q 2388 4369 2410 4531 
L 2817 4531 
Q 2807 4175 2637 3997 
Q 2467 3819 2204 3819 
Q 2007 3819 1685 3994 
Q 1476 4106 1379 4106 
Q 1273 4106 1207 4031 
Q 1138 3956 1142 3809 
L 726 3809 
z
" id="ArialMT-f5" transform="scale(0.015625)"/>
      <path d="M 197 991 
L 753 1078 
Q 800 744 1014 566 
Q 1228 388 1613 388 
Q 2000 388 2187 545 
Q 2375 703 2375 916 
Q 2375 1106 2209 1216 
Q 2094 1291 1634 1406 
Q 1016 1563 777 1677 
Q 538 1791 414 1992 
Q 291 2194 291 2438 
Q 291 2659 392 2848 
Q 494 3038 669 3163 
Q 800 3259 1026 3326 
Q 1253 3394 1513 3394 
Q 1903 3394 2198 3281 
Q 2494 3169 2634 2976 
Q 2775 2784 2828 2463 
L 2278 2388 
Q 2241 2644 2061 2787 
Q 1881 2931 1553 2931 
Q 1166 2931 1000 2803 
Q 834 2675 834 2503 
Q 834 2394 903 2306 
Q 972 2216 1119 2156 
Q 1203 2125 1616 2013 
Q 2213 1853 2448 1751 
Q 2684 1650 2818 1456 
Q 2953 1263 2953 975 
Q 2953 694 2789 445 
Q 2625 197 2315 61 
Q 2006 -75 1616 -75 
Q 969 -75 630 194 
Q 291 463 197 991 
z
" id="ArialMT-73" transform="scale(0.015625)"/>
     </defs>
     <use xlink:href="#ArialMT-49"/>
     <use x="27.783203" xlink:href="#ArialMT-6e"/>
     <use x="83.398438" xlink:href="#ArialMT-74"/>
     <use x="111.181641" xlink:href="#ArialMT-65"/>
     <use x="166.796875" xlink:href="#ArialMT-72"/>
     <use x="200.097656" xlink:href="#ArialMT-6e"/>
     <use x="255.712891" xlink:href="#ArialMT-61"/>
     <use x="311.328125" xlink:href="#ArialMT-e7"/>
     <use x="361.328125" xlink:href="#ArialMT-f5"/>
     <use x="416.943359" xlink:href="#ArialMT-65"/>
     <use x="472.558594" xlink:href="#ArialMT-73"/>
    </g>
   </g>
   <g id="legend_1">
    <g id="patch_7">
     <path d="M 549.548437 58.08 
L 633.8 58.08 
Q 635.8 58.08 635.8 56.08 
L 635.8 28.789375 
Q 635.8 26.789375 633.8 26.789375 
L 549.548437 26.789375 
Q 547.548437 26.789375 547.548437 28.789375 
L 547.548437 56.08 
Q 547.548437 58.08 549.548437 58.08 
z
" style="fill:#ffffff;opacity:0.8;stroke:#cccccc;stroke-linejoin:miter;"/>
    </g>
    <g id="line2d_21">
     <path d="M 551.548437 34.447188 
L 571.548437 34.447188 
" style="fill:none;stroke:#1f77b4;stroke-linecap:round;stroke-width:1.5;"/>
    </g>
    <g id="line2d_22"/>
    <g id="text_20">
     <!-- Internações -->
     <g style="fill:#262626;" transform="translate(579.548437 37.947188)scale(0.1 -0.1)">
      <use xlink:href="#ArialMT-49"/>
      <use x="27.783203" xlink:href="#ArialMT-6e"/>
      <use x="83.398438" xlink:href="#ArialMT-74"/>
      <use x="111.181641" xlink:href="#ArialMT-65"/>
      <use x="166.796875" xlink:href="#ArialMT-72"/>
      <use x="200.097656" xlink:href="#ArialMT-6e"/>
      <use x="255.712891" xlink:href="#ArialMT-61"/>
      <use x="311.328125" xlink:href="#ArialMT-e7"/>
      <use x="361.328125" xlink:href="#ArialMT-f5"/>
      <use x="416.943359" xlink:href="#ArialMT-65"/>
      <use x="472.558594" xlink:href="#ArialMT-73"/>
     </g>
    </g>
    <g id="line2d_23">
     <path d="M 551.548437 48.5925 
L 571.548437 48.5925 
" style="fill:none;stroke:#ff7f0e;stroke-linecap:round;stroke-width:1.5;"/>
    </g>
    <g id="line2d_24"/>
    <g id="text_21">
     <!-- UTI -->
     <g style="fill:#262626;" transform="translate(579.548437 52.0925)scale(0.1 -0.1)">
      <defs>
       <path d="M 3500 4581 
L 4106 4581 
L 4106 1934 
Q 4106 1244 3950 837 
Q 3794 431 3386 176 
Q 2978 -78 2316 -78 
Q 1672 -78 1262 144 
Q 853 366 678 786 
Q 503 1206 503 1934 
L 503 4581 
L 1109 4581 
L 1109 1938 
Q 1109 1341 1220 1058 
Q 1331 775 1601 622 
Q 1872 469 2263 469 
Q 2931 469 3215 772 
Q 3500 1075 3500 1938 
L 3500 4581 
z
" id="ArialMT-55" transform="scale(0.015625)"/>
       <path d="M 1659 0 
L 1659 4041 
L 150 4041 
L 150 4581 
L 3781 4581 
L 3781 4041 
L 2266 4041 
L 2266 0 
L 1659 0 
z
" id="ArialMT-54" transform="scale(0.015625)"/>
      </defs>
      <use xlink:href="#ArialMT-55"/>
      <use x="72.216797" xlink:href="#ArialMT-54"/>
      <use x="133.300781" xlink:href="#ArialMT-49"/>
     </g>
    </g>
   </g>
  </g>
  <g id="text_22">
   <!-- Atualizado em 29/09/2021 -->
   <g style="fill:#262626;" transform="translate(7.2 331.389375)scale(0.08 -0.08)">
    <defs>
     <path d="M -9 0 
L 1750 4581 
L 2403 4581 
L 4278 0 
L 3588 0 
L 3053 1388 
L 1138 1388 
L 634 0 
L -9 0 
z
M 1313 1881 
L 2866 1881 
L 2388 3150 
Q 2169 3728 2063 4100 
Q 1975 3659 1816 3225 
L 1313 1881 
z
" id="ArialMT-41" transform="scale(0.015625)"/>
     <path d="M 2597 0 
L 2597 488 
Q 2209 -75 1544 -75 
Q 1250 -75 995 37 
Q 741 150 617 320 
Q 494 491 444 738 
Q 409 903 409 1263 
L 409 3319 
L 972 3319 
L 972 1478 
Q 972 1038 1006 884 
Q 1059 663 1231 536 
Q 1403 409 1656 409 
Q 1909 409 2131 539 
Q 2353 669 2445 892 
Q 2538 1116 2538 1541 
L 2538 3319 
L 3100 3319 
L 3100 0 
L 2597 0 
z
" id="ArialMT-75" transform="scale(0.015625)"/>
     <path d="M 409 0 
L 409 4581 
L 972 4581 
L 972 0 
L 409 0 
z
" id="ArialMT-6c" transform="scale(0.015625)"/>
     <path d="M 425 3934 
L 425 4581 
L 988 4581 
L 988 3934 
L 425 3934 
z
M 425 0 
L 425 3319 
L 988 3319 
L 988 0 
L 425 0 
z
" id="ArialMT-69" transform="scale(0.015625)"/>
     <path d="M 125 0 
L 125 456 
L 2238 2881 
Q 1878 2863 1603 2863 
L 250 2863 
L 250 3319 
L 2963 3319 
L 2963 2947 
L 1166 841 
L 819 456 
Q 1197 484 1528 484 
L 3063 484 
L 3063 0 
L 125 0 
z
" id="ArialMT-7a" transform="scale(0.015625)"/>
     <path d="M 2575 0 
L 2575 419 
Q 2259 -75 1647 -75 
Q 1250 -75 917 144 
Q 584 363 401 755 
Q 219 1147 219 1656 
Q 219 2153 384 2558 
Q 550 2963 881 3178 
Q 1213 3394 1622 3394 
Q 1922 3394 2156 3267 
Q 2391 3141 2538 2938 
L 2538 4581 
L 3097 4581 
L 3097 0 
L 2575 0 
z
M 797 1656 
Q 797 1019 1065 703 
Q 1334 388 1700 388 
Q 2069 388 2326 689 
Q 2584 991 2584 1609 
Q 2584 2291 2321 2609 
Q 2059 2928 1675 2928 
Q 1300 2928 1048 2622 
Q 797 2316 797 1656 
z
" id="ArialMT-64" transform="scale(0.015625)"/>
     <path d="M 213 1659 
Q 213 2581 725 3025 
Q 1153 3394 1769 3394 
Q 2453 3394 2887 2945 
Q 3322 2497 3322 1706 
Q 3322 1066 3130 698 
Q 2938 331 2570 128 
Q 2203 -75 1769 -75 
Q 1072 -75 642 372 
Q 213 819 213 1659 
z
M 791 1659 
Q 791 1022 1069 705 
Q 1347 388 1769 388 
Q 2188 388 2466 706 
Q 2744 1025 2744 1678 
Q 2744 2294 2464 2611 
Q 2184 2928 1769 2928 
Q 1347 2928 1069 2612 
Q 791 2297 791 1659 
z
" id="ArialMT-6f" transform="scale(0.015625)"/>
     <path id="ArialMT-20" transform="scale(0.015625)"/>
     <path d="M 422 0 
L 422 3319 
L 925 3319 
L 925 2853 
Q 1081 3097 1340 3245 
Q 1600 3394 1931 3394 
Q 2300 3394 2536 3241 
Q 2772 3088 2869 2813 
Q 3263 3394 3894 3394 
Q 4388 3394 4653 3120 
Q 4919 2847 4919 2278 
L 4919 0 
L 4359 0 
L 4359 2091 
Q 4359 2428 4304 2576 
Q 4250 2725 4106 2815 
Q 3963 2906 3769 2906 
Q 3419 2906 3187 2673 
Q 2956 2441 2956 1928 
L 2956 0 
L 2394 0 
L 2394 2156 
Q 2394 2531 2256 2718 
Q 2119 2906 1806 2906 
Q 1569 2906 1367 2781 
Q 1166 2656 1075 2415 
Q 984 2175 984 1722 
L 984 0 
L 422 0 
z
" id="ArialMT-6d" transform="scale(0.015625)"/>
     <path d="M 0 -78 
L 1328 4659 
L 1778 4659 
L 453 -78 
L 0 -78 
z
" id="ArialMT-2f" transform="scale(0.015625)"/>
    </defs>
    <use xlink:href="#ArialMT-41"/>
    <use x="66.699219" xlink:href="#ArialMT-74"/>
    <use x="94.482422" xlink:href="#ArialMT-75"/>
    <use x="150.097656" xlink:href="#ArialMT-61"/>
    <use x="205.712891" xlink:href="#ArialMT-6c"/>
    <use x="227.929688" xlink:href="#ArialMT-69"/>
    <use x="250.146484" xlink:href="#ArialMT-7a"/>
    <use x="300.146484" xlink:href="#ArialMT-61"/>
    <use x="355.761719" xlink:href="#ArialMT-64"/>
    <use x="411.376953" xlink:href="#ArialMT-6f"/>
    <use x="466.992188" xlink:href="#ArialMT-20"/>
    <use x="494.775391" xlink:href="#ArialMT-65"/>
    <use x="550.390625" xlink:href="#ArialMT-6d"/>
    <use x="633.691406" xlink:href="#ArialMT-20"/>
    <use x="661.474609" xlink:href="#ArialMT-32"/>
    <use x="717.089844" xlink:href="#ArialMT-39"/>
    <use x="772.705078" xlink:href="#ArialMT-2f"/>
    <use x="800.488281" xlink:href="#ArialMT-30"/>
    <use x="856.103516" xlink:href="#ArialMT-39"/>
    <use x="911.71875" xlink:href="#ArialMT-2f"/>
    <use x="939.501953" xlink:href="#ArialMT-32"/>
    <use x="995.117188" xlink:href="#ArialMT-30"/>
    <use x="1050.732422" xlink:href="#ArialMT-32"/>
    <use x="1106.347656" xlink:href="#ArialMT-31"/>
   </g>
  </g>
  <g id="text_23">
   <!-- https://jmsvaz.github.io/covidsantos/ -->
   <g style="fill:#262626;" transform="translate(570.345 331.389375)scale(0.08 -0.08)">
    <defs>
     <path d="M 422 0 
L 422 4581 
L 984 4581 
L 984 2938 
Q 1378 3394 1978 3394 
Q 2347 3394 2619 3248 
Q 2891 3103 3008 2847 
Q 3125 2591 3125 2103 
L 3125 0 
L 2563 0 
L 2563 2103 
Q 2563 2525 2380 2717 
Q 2197 2909 1863 2909 
Q 1613 2909 1392 2779 
Q 1172 2650 1078 2428 
Q 984 2206 984 1816 
L 984 0 
L 422 0 
z
" id="ArialMT-68" transform="scale(0.015625)"/>
     <path d="M 422 -1272 
L 422 3319 
L 934 3319 
L 934 2888 
Q 1116 3141 1344 3267 
Q 1572 3394 1897 3394 
Q 2322 3394 2647 3175 
Q 2972 2956 3137 2557 
Q 3303 2159 3303 1684 
Q 3303 1175 3120 767 
Q 2938 359 2589 142 
Q 2241 -75 1856 -75 
Q 1575 -75 1351 44 
Q 1128 163 984 344 
L 984 -1272 
L 422 -1272 
z
M 931 1641 
Q 931 1000 1190 694 
Q 1450 388 1819 388 
Q 2194 388 2461 705 
Q 2728 1022 2728 1688 
Q 2728 2322 2467 2637 
Q 2206 2953 1844 2953 
Q 1484 2953 1207 2617 
Q 931 2281 931 1641 
z
" id="ArialMT-70" transform="scale(0.015625)"/>
     <path d="M 578 2678 
L 578 3319 
L 1219 3319 
L 1219 2678 
L 578 2678 
z
M 578 0 
L 578 641 
L 1219 641 
L 1219 0 
L 578 0 
z
" id="ArialMT-3a" transform="scale(0.015625)"/>
     <path d="M 419 3928 
L 419 4581 
L 981 4581 
L 981 3928 
L 419 3928 
z
M -294 -1288 
L -188 -809 
Q -19 -853 78 -853 
Q 250 -853 334 -739 
Q 419 -625 419 -169 
L 419 3319 
L 981 3319 
L 981 -181 
Q 981 -794 822 -1034 
Q 619 -1347 147 -1347 
Q -81 -1347 -294 -1288 
z
" id="ArialMT-6a" transform="scale(0.015625)"/>
     <path d="M 1344 0 
L 81 3319 
L 675 3319 
L 1388 1331 
Q 1503 1009 1600 663 
Q 1675 925 1809 1294 
L 2547 3319 
L 3125 3319 
L 1869 0 
L 1344 0 
z
" id="ArialMT-76" transform="scale(0.015625)"/>
     <path d="M 581 0 
L 581 641 
L 1222 641 
L 1222 0 
L 581 0 
z
" id="ArialMT-2e" transform="scale(0.015625)"/>
     <path d="M 319 -275 
L 866 -356 
Q 900 -609 1056 -725 
Q 1266 -881 1628 -881 
Q 2019 -881 2231 -725 
Q 2444 -569 2519 -288 
Q 2563 -116 2559 434 
Q 2191 0 1641 0 
Q 956 0 581 494 
Q 206 988 206 1678 
Q 206 2153 378 2554 
Q 550 2956 876 3175 
Q 1203 3394 1644 3394 
Q 2231 3394 2613 2919 
L 2613 3319 
L 3131 3319 
L 3131 450 
Q 3131 -325 2973 -648 
Q 2816 -972 2473 -1159 
Q 2131 -1347 1631 -1347 
Q 1038 -1347 672 -1080 
Q 306 -813 319 -275 
z
M 784 1719 
Q 784 1066 1043 766 
Q 1303 466 1694 466 
Q 2081 466 2343 764 
Q 2606 1063 2606 1700 
Q 2606 2309 2336 2618 
Q 2066 2928 1684 2928 
Q 1309 2928 1046 2623 
Q 784 2319 784 1719 
z
" id="ArialMT-67" transform="scale(0.015625)"/>
     <path d="M 941 0 
L 419 0 
L 419 4581 
L 981 4581 
L 981 2947 
Q 1338 3394 1891 3394 
Q 2197 3394 2470 3270 
Q 2744 3147 2920 2923 
Q 3097 2700 3197 2384 
Q 3297 2069 3297 1709 
Q 3297 856 2875 390 
Q 2453 -75 1863 -75 
Q 1275 -75 941 416 
L 941 0 
z
M 934 1684 
Q 934 1088 1097 822 
Q 1363 388 1816 388 
Q 2184 388 2453 708 
Q 2722 1028 2722 1663 
Q 2722 2313 2464 2622 
Q 2206 2931 1841 2931 
Q 1472 2931 1203 2611 
Q 934 2291 934 1684 
z
" id="ArialMT-62" transform="scale(0.015625)"/>
     <path d="M 2588 1216 
L 3141 1144 
Q 3050 572 2676 248 
Q 2303 -75 1759 -75 
Q 1078 -75 664 370 
Q 250 816 250 1647 
Q 250 2184 428 2587 
Q 606 2991 970 3192 
Q 1334 3394 1763 3394 
Q 2303 3394 2647 3120 
Q 2991 2847 3088 2344 
L 2541 2259 
Q 2463 2594 2264 2762 
Q 2066 2931 1784 2931 
Q 1359 2931 1093 2626 
Q 828 2322 828 1663 
Q 828 994 1084 691 
Q 1341 388 1753 388 
Q 2084 388 2306 591 
Q 2528 794 2588 1216 
z
" id="ArialMT-63" transform="scale(0.015625)"/>
    </defs>
    <use xlink:href="#ArialMT-68"/>
    <use x="55.615234" xlink:href="#ArialMT-74"/>
    <use x="83.398438" xlink:href="#ArialMT-74"/>
    <use x="111.181641" xlink:href="#ArialMT-70"/>
    <use x="166.796875" xlink:href="#ArialMT-73"/>
    <use x="216.796875" xlink:href="#ArialMT-3a"/>
    <use x="244.580078" xlink:href="#ArialMT-2f"/>
    <use x="272.363281" xlink:href="#ArialMT-2f"/>
    <use x="300.146484" xlink:href="#ArialMT-6a"/>
    <use x="322.363281" xlink:href="#ArialMT-6d"/>
    <use x="405.664062" xlink:href="#ArialMT-73"/>
    <use x="455.664062" xlink:href="#ArialMT-76"/>
    <use x="505.664062" xlink:href="#ArialMT-61"/>
    <use x="561.279297" xlink:href="#ArialMT-7a"/>
    <use x="611.279297" xlink:href="#ArialMT-2e"/>
    <use x="639.0625" xlink:href="#ArialMT-67"/>
    <use x="694.677734" xlink:href="#ArialMT-69"/>
    <use x="716.894531" xlink:href="#ArialMT-74"/>
    <use x="744.677734" xlink:href="#ArialMT-68"/>
    <use x="800.292969" xlink:href="#ArialMT-75"/>
    <use x="855.908203" xlink:href="#ArialMT-62"/>
    <use x="911.523438" xlink:href="#ArialMT-2e"/>
    <use x="939.306641" xlink:href="#ArialMT-69"/>
    <use x="961.523438" xlink:href="#ArialMT-6f"/>
    <use x="1017.138672" xlink:href="#ArialMT-2f"/>
    <use x="1044.921875" xlink:href="#ArialMT-63"/>
    <use x="1094.921875" xlink:href="#ArialMT-6f"/>
    <use x="1150.537109" xlink:href="#ArialMT-76"/>
    <use x="1200.537109" xlink:href="#ArialMT-69"/>
    <use x="1222.753906" xlink:href="#ArialMT-64"/>
    <use x="1278.369141" xlink:href="#ArialMT-73"/>
    <use x="1328.369141" xlink:href="#ArialMT-61"/>
    <use x="1383.984375" xlink:href="#ArialMT-6e"/>
    <use x="1439.599609" xlink:href="#ArialMT-74"/>
    <use x="1467.382812" xlink:href="#ArialMT-6f"/>
    <use x="1522.998047" xlink:href="#ArialMT-73"/>
    <use x="1572.998047" xlink:href="#ArialMT-2f"/>
   </g>
  </g>
 </g>
 <defs>
  <clipPath id="p3af0866cc9">
   <rect height="277.2" width="558" x="82.8" y="21.789375"/>
  </clipPath>
 </defs>
</svg>
