<?xml version="1.0" encoding="utf-8" standalone="no"?>
<!DOCTYPE svg PUBLIC "-//W3C//DTD SVG 1.1//EN"
  "http://www.w3.org/Graphics/SVG/1.1/DTD/svg11.dtd">
<svg height="340.273125pt" version="1.1" viewBox="0 0 705.6 340.273125" width="705.6pt" xmlns="http://www.w3.org/2000/svg" xmlns:xlink="http://www.w3.org/1999/xlink">
 <metadata>
  <rdf:RDF xmlns:cc="http://creativecommons.org/ns#" xmlns:dc="http://purl.org/dc/elements/1.1/" xmlns:rdf="http://www.w3.org/1999/02/22-rdf-syntax-ns#">
   <cc:Work>
    <dc:type rdf:resource="http://purl.org/dc/dcmitype/StillImage"/>
    <dc:date>2021-07-11T20:14:49.792623</dc:date>
    <dc:format>image/svg+xml</dc:format>
    <dc:creator>
     <cc:Agent>
      <dc:title>Matplotlib v3.4.2, https://matplotlib.org/</dc:title>
     </cc:Agent>
    </dc:creator>
   </cc:Work>
  </rdf:RDF>
 </metadata>
 <defs>
  <style type="text/css">*{stroke-linecap:butt;stroke-linejoin:round;}</style>
 </defs>
 <g id="figure_1">
  <g id="patch_1">
   <path d="M 0 340.273125 
L 705.6 340.273125 
L 705.6 0 
L 0 0 
z
" style="fill:#ffffff;"/>
  </g>
  <g id="axes_1">
   <g id="patch_2">
    <path d="M 82.8 298.989375 
L 640.8 298.989375 
L 640.8 21.789375 
L 82.8 21.789375 
z
" style="fill:#ffffff;"/>
   </g>
   <g id="matplotlib.axis_1">
    <g id="xtick_1">
     <g id="line2d_1">
      <path clip-path="url(#pc286d03a20)" d="M 89.101196 298.989375 
L 89.101196 21.789375 
" style="fill:none;stroke:#cccccc;stroke-linecap:round;stroke-width:0.8;"/>
     </g>
     <g id="text_1">
      <!-- 2020-03 -->
      <g style="fill:#262626;" transform="translate(70.753539 313.147188)scale(0.1 -0.1)">
       <defs>
        <path d="M 3222 541 
L 3222 0 
L 194 0 
Q 188 203 259 391 
Q 375 700 629 1000 
Q 884 1300 1366 1694 
Q 2113 2306 2375 2664 
Q 2638 3022 2638 3341 
Q 2638 3675 2398 3904 
Q 2159 4134 1775 4134 
Q 1369 4134 1125 3890 
Q 881 3647 878 3216 
L 300 3275 
Q 359 3922 746 4261 
Q 1134 4600 1788 4600 
Q 2447 4600 2831 4234 
Q 3216 3869 3216 3328 
Q 3216 3053 3103 2787 
Q 2991 2522 2730 2228 
Q 2469 1934 1863 1422 
Q 1356 997 1212 845 
Q 1069 694 975 541 
L 3222 541 
z
" id="ArialMT-32" transform="scale(0.015625)"/>
        <path d="M 266 2259 
Q 266 3072 433 3567 
Q 600 4063 929 4331 
Q 1259 4600 1759 4600 
Q 2128 4600 2406 4451 
Q 2684 4303 2865 4023 
Q 3047 3744 3150 3342 
Q 3253 2941 3253 2259 
Q 3253 1453 3087 958 
Q 2922 463 2592 192 
Q 2263 -78 1759 -78 
Q 1097 -78 719 397 
Q 266 969 266 2259 
z
M 844 2259 
Q 844 1131 1108 757 
Q 1372 384 1759 384 
Q 2147 384 2411 759 
Q 2675 1134 2675 2259 
Q 2675 3391 2411 3762 
Q 2147 4134 1753 4134 
Q 1366 4134 1134 3806 
Q 844 3388 844 2259 
z
" id="ArialMT-30" transform="scale(0.015625)"/>
        <path d="M 203 1375 
L 203 1941 
L 1931 1941 
L 1931 1375 
L 203 1375 
z
" id="ArialMT-2d" transform="scale(0.015625)"/>
        <path d="M 269 1209 
L 831 1284 
Q 928 806 1161 595 
Q 1394 384 1728 384 
Q 2125 384 2398 659 
Q 2672 934 2672 1341 
Q 2672 1728 2419 1979 
Q 2166 2231 1775 2231 
Q 1616 2231 1378 2169 
L 1441 2663 
Q 1497 2656 1531 2656 
Q 1891 2656 2178 2843 
Q 2466 3031 2466 3422 
Q 2466 3731 2256 3934 
Q 2047 4138 1716 4138 
Q 1388 4138 1169 3931 
Q 950 3725 888 3313 
L 325 3413 
Q 428 3978 793 4289 
Q 1159 4600 1703 4600 
Q 2078 4600 2393 4439 
Q 2709 4278 2876 4000 
Q 3044 3722 3044 3409 
Q 3044 3113 2884 2869 
Q 2725 2625 2413 2481 
Q 2819 2388 3044 2092 
Q 3269 1797 3269 1353 
Q 3269 753 2831 336 
Q 2394 -81 1725 -81 
Q 1122 -81 723 278 
Q 325 638 269 1209 
z
" id="ArialMT-33" transform="scale(0.015625)"/>
       </defs>
       <use xlink:href="#ArialMT-32"/>
       <use x="55.615234" xlink:href="#ArialMT-30"/>
       <use x="111.230469" xlink:href="#ArialMT-32"/>
       <use x="166.845703" xlink:href="#ArialMT-30"/>
       <use x="222.460938" xlink:href="#ArialMT-2d"/>
       <use x="255.761719" xlink:href="#ArialMT-30"/>
       <use x="311.376953" xlink:href="#ArialMT-33"/>
      </g>
     </g>
    </g>
    <g id="xtick_2">
     <g id="line2d_2">
      <path clip-path="url(#pc286d03a20)" d="M 153.701689 298.989375 
L 153.701689 21.789375 
" style="fill:none;stroke:#cccccc;stroke-linecap:round;stroke-width:0.8;"/>
     </g>
     <g id="text_2">
      <!-- 2020-05 -->
      <g style="fill:#262626;" transform="translate(135.354033 313.147188)scale(0.1 -0.1)">
       <defs>
        <path d="M 266 1200 
L 856 1250 
Q 922 819 1161 601 
Q 1400 384 1738 384 
Q 2144 384 2425 690 
Q 2706 997 2706 1503 
Q 2706 1984 2436 2262 
Q 2166 2541 1728 2541 
Q 1456 2541 1237 2417 
Q 1019 2294 894 2097 
L 366 2166 
L 809 4519 
L 3088 4519 
L 3088 3981 
L 1259 3981 
L 1013 2750 
Q 1425 3038 1878 3038 
Q 2478 3038 2890 2622 
Q 3303 2206 3303 1553 
Q 3303 931 2941 478 
Q 2500 -78 1738 -78 
Q 1113 -78 717 272 
Q 322 622 266 1200 
z
" id="ArialMT-35" transform="scale(0.015625)"/>
       </defs>
       <use xlink:href="#ArialMT-32"/>
       <use x="55.615234" xlink:href="#ArialMT-30"/>
       <use x="111.230469" xlink:href="#ArialMT-32"/>
       <use x="166.845703" xlink:href="#ArialMT-30"/>
       <use x="222.460938" xlink:href="#ArialMT-2d"/>
       <use x="255.761719" xlink:href="#ArialMT-30"/>
       <use x="311.376953" xlink:href="#ArialMT-35"/>
      </g>
     </g>
    </g>
    <g id="xtick_3">
     <g id="line2d_3">
      <path clip-path="url(#pc286d03a20)" d="M 218.302183 298.989375 
L 218.302183 21.789375 
" style="fill:none;stroke:#cccccc;stroke-linecap:round;stroke-width:0.8;"/>
     </g>
     <g id="text_3">
      <!-- 2020-07 -->
      <g style="fill:#262626;" transform="translate(199.954526 313.147188)scale(0.1 -0.1)">
       <defs>
        <path d="M 303 3981 
L 303 4522 
L 3269 4522 
L 3269 4084 
Q 2831 3619 2401 2847 
Q 1972 2075 1738 1259 
Q 1569 684 1522 0 
L 944 0 
Q 953 541 1156 1306 
Q 1359 2072 1739 2783 
Q 2119 3494 2547 3981 
L 303 3981 
z
" id="ArialMT-37" transform="scale(0.015625)"/>
       </defs>
       <use xlink:href="#ArialMT-32"/>
       <use x="55.615234" xlink:href="#ArialMT-30"/>
       <use x="111.230469" xlink:href="#ArialMT-32"/>
       <use x="166.845703" xlink:href="#ArialMT-30"/>
       <use x="222.460938" xlink:href="#ArialMT-2d"/>
       <use x="255.761719" xlink:href="#ArialMT-30"/>
       <use x="311.376953" xlink:href="#ArialMT-37"/>
      </g>
     </g>
    </g>
    <g id="xtick_4">
     <g id="line2d_4">
      <path clip-path="url(#pc286d03a20)" d="M 283.961701 298.989375 
L 283.961701 21.789375 
" style="fill:none;stroke:#cccccc;stroke-linecap:round;stroke-width:0.8;"/>
     </g>
     <g id="text_4">
      <!-- 2020-09 -->
      <g style="fill:#262626;" transform="translate(265.614044 313.147188)scale(0.1 -0.1)">
       <defs>
        <path d="M 350 1059 
L 891 1109 
Q 959 728 1153 556 
Q 1347 384 1650 384 
Q 1909 384 2104 503 
Q 2300 622 2425 820 
Q 2550 1019 2634 1356 
Q 2719 1694 2719 2044 
Q 2719 2081 2716 2156 
Q 2547 1888 2255 1720 
Q 1963 1553 1622 1553 
Q 1053 1553 659 1965 
Q 266 2378 266 3053 
Q 266 3750 677 4175 
Q 1088 4600 1706 4600 
Q 2153 4600 2523 4359 
Q 2894 4119 3086 3673 
Q 3278 3228 3278 2384 
Q 3278 1506 3087 986 
Q 2897 466 2520 194 
Q 2144 -78 1638 -78 
Q 1100 -78 759 220 
Q 419 519 350 1059 
z
M 2653 3081 
Q 2653 3566 2395 3850 
Q 2138 4134 1775 4134 
Q 1400 4134 1122 3828 
Q 844 3522 844 3034 
Q 844 2597 1108 2323 
Q 1372 2050 1759 2050 
Q 2150 2050 2401 2323 
Q 2653 2597 2653 3081 
z
" id="ArialMT-39" transform="scale(0.015625)"/>
       </defs>
       <use xlink:href="#ArialMT-32"/>
       <use x="55.615234" xlink:href="#ArialMT-30"/>
       <use x="111.230469" xlink:href="#ArialMT-32"/>
       <use x="166.845703" xlink:href="#ArialMT-30"/>
       <use x="222.460938" xlink:href="#ArialMT-2d"/>
       <use x="255.761719" xlink:href="#ArialMT-30"/>
       <use x="311.376953" xlink:href="#ArialMT-39"/>
      </g>
     </g>
    </g>
    <g id="xtick_5">
     <g id="line2d_5">
      <path clip-path="url(#pc286d03a20)" d="M 348.562194 298.989375 
L 348.562194 21.789375 
" style="fill:none;stroke:#cccccc;stroke-linecap:round;stroke-width:0.8;"/>
     </g>
     <g id="text_5">
      <!-- 2020-11 -->
      <g style="fill:#262626;" transform="translate(330.583288 313.147188)scale(0.1 -0.1)">
       <defs>
        <path d="M 2384 0 
L 1822 0 
L 1822 3584 
Q 1619 3391 1289 3197 
Q 959 3003 697 2906 
L 697 3450 
Q 1169 3672 1522 3987 
Q 1875 4303 2022 4600 
L 2384 4600 
L 2384 0 
z
" id="ArialMT-31" transform="scale(0.015625)"/>
       </defs>
       <use xlink:href="#ArialMT-32"/>
       <use x="55.615234" xlink:href="#ArialMT-30"/>
       <use x="111.230469" xlink:href="#ArialMT-32"/>
       <use x="166.845703" xlink:href="#ArialMT-30"/>
       <use x="222.460938" xlink:href="#ArialMT-2d"/>
       <use x="255.761719" xlink:href="#ArialMT-31"/>
       <use x="304.001953" xlink:href="#ArialMT-31"/>
      </g>
     </g>
    </g>
    <g id="xtick_6">
     <g id="line2d_6">
      <path clip-path="url(#pc286d03a20)" d="M 413.162687 298.989375 
L 413.162687 21.789375 
" style="fill:none;stroke:#cccccc;stroke-linecap:round;stroke-width:0.8;"/>
     </g>
     <g id="text_6">
      <!-- 2021-01 -->
      <g style="fill:#262626;" transform="translate(394.815031 313.147188)scale(0.1 -0.1)">
       <use xlink:href="#ArialMT-32"/>
       <use x="55.615234" xlink:href="#ArialMT-30"/>
       <use x="111.230469" xlink:href="#ArialMT-32"/>
       <use x="166.845703" xlink:href="#ArialMT-31"/>
       <use x="222.460938" xlink:href="#ArialMT-2d"/>
       <use x="255.761719" xlink:href="#ArialMT-30"/>
       <use x="311.376953" xlink:href="#ArialMT-31"/>
      </g>
     </g>
    </g>
    <g id="xtick_7">
     <g id="line2d_7">
      <path clip-path="url(#pc286d03a20)" d="M 475.645132 298.989375 
L 475.645132 21.789375 
" style="fill:none;stroke:#cccccc;stroke-linecap:round;stroke-width:0.8;"/>
     </g>
     <g id="text_7">
      <!-- 2021-03 -->
      <g style="fill:#262626;" transform="translate(457.297476 313.147188)scale(0.1 -0.1)">
       <use xlink:href="#ArialMT-32"/>
       <use x="55.615234" xlink:href="#ArialMT-30"/>
       <use x="111.230469" xlink:href="#ArialMT-32"/>
       <use x="166.845703" xlink:href="#ArialMT-31"/>
       <use x="222.460938" xlink:href="#ArialMT-2d"/>
       <use x="255.761719" xlink:href="#ArialMT-30"/>
       <use x="311.376953" xlink:href="#ArialMT-33"/>
      </g>
     </g>
    </g>
    <g id="xtick_8">
     <g id="line2d_8">
      <path clip-path="url(#pc286d03a20)" d="M 540.245625 298.989375 
L 540.245625 21.789375 
" style="fill:none;stroke:#cccccc;stroke-linecap:round;stroke-width:0.8;"/>
     </g>
     <g id="text_8">
      <!-- 2021-05 -->
      <g style="fill:#262626;" transform="translate(521.897969 313.147188)scale(0.1 -0.1)">
       <use xlink:href="#ArialMT-32"/>
       <use x="55.615234" xlink:href="#ArialMT-30"/>
       <use x="111.230469" xlink:href="#ArialMT-32"/>
       <use x="166.845703" xlink:href="#ArialMT-31"/>
       <use x="222.460938" xlink:href="#ArialMT-2d"/>
       <use x="255.761719" xlink:href="#ArialMT-30"/>
       <use x="311.376953" xlink:href="#ArialMT-35"/>
      </g>
     </g>
    </g>
    <g id="xtick_9">
     <g id="line2d_9">
      <path clip-path="url(#pc286d03a20)" d="M 604.846119 298.989375 
L 604.846119 21.789375 
" style="fill:none;stroke:#cccccc;stroke-linecap:round;stroke-width:0.8;"/>
     </g>
     <g id="text_9">
      <!-- 2021-07 -->
      <g style="fill:#262626;" transform="translate(586.498463 313.147188)scale(0.1 -0.1)">
       <use xlink:href="#ArialMT-32"/>
       <use x="55.615234" xlink:href="#ArialMT-30"/>
       <use x="111.230469" xlink:href="#ArialMT-32"/>
       <use x="166.845703" xlink:href="#ArialMT-31"/>
       <use x="222.460938" xlink:href="#ArialMT-2d"/>
       <use x="255.761719" xlink:href="#ArialMT-30"/>
       <use x="311.376953" xlink:href="#ArialMT-37"/>
      </g>
     </g>
    </g>
   </g>
   <g id="matplotlib.axis_2">
    <g id="ytick_1">
     <g id="line2d_10">
      <path clip-path="url(#pc286d03a20)" d="M 82.8 286.389375 
L 640.8 286.389375 
" style="fill:none;stroke:#cccccc;stroke-linecap:round;stroke-width:0.8;"/>
     </g>
     <g id="text_10">
      <!-- 0 -->
      <g style="fill:#262626;" transform="translate(70.239063 289.968281)scale(0.1 -0.1)">
       <use xlink:href="#ArialMT-30"/>
      </g>
     </g>
    </g>
    <g id="ytick_2">
     <g id="line2d_11">
      <path clip-path="url(#pc286d03a20)" d="M 82.8 248.664824 
L 640.8 248.664824 
" style="fill:none;stroke:#cccccc;stroke-linecap:round;stroke-width:0.8;"/>
     </g>
     <g id="text_11">
      <!-- 50 -->
      <g style="fill:#262626;" transform="translate(64.678125 252.24373)scale(0.1 -0.1)">
       <use xlink:href="#ArialMT-35"/>
       <use x="55.615234" xlink:href="#ArialMT-30"/>
      </g>
     </g>
    </g>
    <g id="ytick_3">
     <g id="line2d_12">
      <path clip-path="url(#pc286d03a20)" d="M 82.8 210.940273 
L 640.8 210.940273 
" style="fill:none;stroke:#cccccc;stroke-linecap:round;stroke-width:0.8;"/>
     </g>
     <g id="text_12">
      <!-- 100 -->
      <g style="fill:#262626;" transform="translate(59.117188 214.519179)scale(0.1 -0.1)">
       <use xlink:href="#ArialMT-31"/>
       <use x="55.615234" xlink:href="#ArialMT-30"/>
       <use x="111.230469" xlink:href="#ArialMT-30"/>
      </g>
     </g>
    </g>
    <g id="ytick_4">
     <g id="line2d_13">
      <path clip-path="url(#pc286d03a20)" d="M 82.8 173.215722 
L 640.8 173.215722 
" style="fill:none;stroke:#cccccc;stroke-linecap:round;stroke-width:0.8;"/>
     </g>
     <g id="text_13">
      <!-- 150 -->
      <g style="fill:#262626;" transform="translate(59.117188 176.794629)scale(0.1 -0.1)">
       <use xlink:href="#ArialMT-31"/>
       <use x="55.615234" xlink:href="#ArialMT-35"/>
       <use x="111.230469" xlink:href="#ArialMT-30"/>
      </g>
     </g>
    </g>
    <g id="ytick_5">
     <g id="line2d_14">
      <path clip-path="url(#pc286d03a20)" d="M 82.8 135.491171 
L 640.8 135.491171 
" style="fill:none;stroke:#cccccc;stroke-linecap:round;stroke-width:0.8;"/>
     </g>
     <g id="text_14">
      <!-- 200 -->
      <g style="fill:#262626;" transform="translate(59.117188 139.070078)scale(0.1 -0.1)">
       <use xlink:href="#ArialMT-32"/>
       <use x="55.615234" xlink:href="#ArialMT-30"/>
       <use x="111.230469" xlink:href="#ArialMT-30"/>
      </g>
     </g>
    </g>
    <g id="ytick_6">
     <g id="line2d_15">
      <path clip-path="url(#pc286d03a20)" d="M 82.8 97.766621 
L 640.8 97.766621 
" style="fill:none;stroke:#cccccc;stroke-linecap:round;stroke-width:0.8;"/>
     </g>
     <g id="text_15">
      <!-- 250 -->
      <g style="fill:#262626;" transform="translate(59.117188 101.345527)scale(0.1 -0.1)">
       <use xlink:href="#ArialMT-32"/>
       <use x="55.615234" xlink:href="#ArialMT-35"/>
       <use x="111.230469" xlink:href="#ArialMT-30"/>
      </g>
     </g>
    </g>
    <g id="ytick_7">
     <g id="line2d_16">
      <path clip-path="url(#pc286d03a20)" d="M 82.8 60.04207 
L 640.8 60.04207 
" style="fill:none;stroke:#cccccc;stroke-linecap:round;stroke-width:0.8;"/>
     </g>
     <g id="text_16">
      <!-- 300 -->
      <g style="fill:#262626;" transform="translate(59.117188 63.620976)scale(0.1 -0.1)">
       <use xlink:href="#ArialMT-33"/>
       <use x="55.615234" xlink:href="#ArialMT-30"/>
       <use x="111.230469" xlink:href="#ArialMT-30"/>
      </g>
     </g>
    </g>
    <g id="ytick_8">
     <g id="line2d_17">
      <path clip-path="url(#pc286d03a20)" d="M 82.8 22.317519 
L 640.8 22.317519 
" style="fill:none;stroke:#cccccc;stroke-linecap:round;stroke-width:0.8;"/>
     </g>
     <g id="text_17">
      <!-- 350 -->
      <g style="fill:#262626;" transform="translate(59.117188 25.896425)scale(0.1 -0.1)">
       <use xlink:href="#ArialMT-33"/>
       <use x="55.615234" xlink:href="#ArialMT-35"/>
       <use x="111.230469" xlink:href="#ArialMT-30"/>
      </g>
     </g>
    </g>
   </g>
   <g id="line2d_18">
    <path clip-path="url(#pc286d03a20)" d="M 108.163636 278.089974 
L 109.222661 278.089974 
L 110.281685 276.580992 
L 111.34071 276.580992 
L 112.399734 269.036082 
L 113.458759 255.455243 
L 114.517783 254.700752 
L 115.576808 251.682788 
L 116.635832 247.155842 
L 117.694857 246.401351 
L 118.753881 246.401351 
L 119.812906 245.64686 
L 120.87193 242.628896 
L 121.930955 226.030094 
L 122.989979 224.521112 
L 124.049004 224.521112 
L 125.108028 201.886381 
L 126.167053 200.377399 
L 127.226077 213.958237 
L 128.285102 210.185782 
L 129.344126 204.149854 
L 130.403151 202.640872 
L 131.462175 199.622908 
L 132.521199 199.622908 
L 133.580224 198.113926 
L 134.639248 186.796561 
L 135.698273 185.287579 
L 136.757297 189.060034 
L 137.816322 176.233686 
L 138.875346 173.215722 
L 139.934371 170.952249 
L 140.993395 167.179794 
L 142.05242 176.988177 
L 143.111444 176.988177 
L 144.170469 173.970213 
L 145.229493 167.934285 
L 146.288518 142.281591 
L 147.347542 140.772609 
L 148.406567 176.233686 
L 149.465591 178.497159 
L 150.524616 181.515124 
L 151.58364 176.233686 
L 152.642665 181.515124 
L 153.701689 173.215722 
L 154.760714 168.688776 
L 155.819738 169.443267 
L 156.878763 167.179794 
L 157.937787 161.143866 
L 158.996812 158.125902 
L 160.055836 162.652848 
L 161.114861 165.670812 
L 162.173885 161.143866 
L 163.232909 158.125902 
L 164.291934 161.898357 
L 165.350958 146.054046 
L 166.409983 152.844465 
L 167.469007 149.826501 
L 168.528032 146.054046 
L 169.587056 152.089974 
L 170.646081 140.772609 
L 171.705105 139.263626 
L 172.76413 141.5271 
L 173.823154 133.982189 
L 174.882179 137.000153 
L 175.941203 139.263626 
L 177.000228 140.772609 
L 178.059252 138.509135 
L 179.118277 137.754644 
L 180.177301 133.227698 
L 181.236326 134.73668 
L 182.29535 135.491171 
L 183.354375 123.419315 
L 184.413399 122.664824 
L 185.472424 124.173806 
L 186.531448 129.455243 
L 187.590473 129.455243 
L 188.649497 128.700752 
L 189.708522 127.19177 
L 190.767546 122.664824 
L 191.826571 122.664824 
L 192.885595 110.592968 
L 193.944619 115.874405 
L 195.003644 109.083986 
L 196.062668 114.365423 
L 197.121693 106.820513 
L 198.180717 109.838477 
L 199.239742 103.802549 
L 200.298766 112.856441 
L 201.357791 120.401351 
L 202.416815 122.664824 
L 203.47584 126.437279 
L 204.534864 130.964225 
L 205.593889 127.946261 
L 206.652913 122.664824 
L 207.711938 121.910333 
L 208.770962 118.892369 
L 209.829987 123.419315 
L 210.889011 135.491171 
L 211.948036 137.000153 
L 213.00706 131.718716 
L 214.066085 134.73668 
L 215.125109 141.5271 
L 216.184134 144.545064 
L 217.243158 150.580992 
L 218.302183 150.580992 
L 219.361207 156.61692 
L 220.420232 149.07201 
L 221.479256 152.844465 
L 222.538281 154.353447 
L 223.597305 157.371411 
L 224.656329 148.317519 
L 225.715354 164.916321 
L 226.774378 162.652848 
L 227.833403 161.898357 
L 228.892427 166.425303 
L 229.951452 171.70674 
L 231.010476 170.197758 
L 232.069501 149.826501 
L 233.128525 161.898357 
L 234.18755 153.598956 
L 235.246574 148.317519 
L 236.305599 156.61692 
L 237.364623 154.353447 
L 239.482672 158.880393 
L 240.541697 154.353447 
L 241.600721 157.371411 
L 242.659746 152.844465 
L 243.71877 154.353447 
L 245.836819 158.880393 
L 246.895844 163.407339 
L 247.954868 170.952249 
L 249.013893 173.215722 
L 250.072917 173.970213 
L 251.131942 177.742668 
L 252.190966 180.006141 
L 253.249991 177.742668 
L 254.309015 184.533088 
L 255.368039 188.305543 
L 256.427064 196.604944 
L 257.486088 194.341471 
L 258.545113 195.850453 
L 259.604137 208.6768 
L 260.663162 203.395363 
L 261.722186 207.167818 
L 262.781211 211.694764 
L 263.840235 208.6768 
L 264.89926 207.922309 
L 265.958284 204.904345 
L 267.017309 203.395363 
L 268.076333 202.640872 
L 269.135358 189.814525 
L 270.194382 198.113926 
L 272.312431 207.167818 
L 273.371456 204.904345 
L 274.43048 214.712728 
L 275.489505 215.467219 
L 276.548529 213.203746 
L 277.607554 215.467219 
L 278.666578 219.239674 
L 279.725603 213.203746 
L 280.784627 221.503147 
L 281.843652 207.167818 
L 282.902676 197.359435 
L 283.961701 195.850453 
L 285.020725 199.622908 
L 286.079749 201.13189 
L 287.138774 201.13189 
L 288.197798 203.395363 
L 289.256823 203.395363 
L 290.315847 211.694764 
L 291.374872 210.185782 
L 292.433896 200.377399 
L 293.492921 203.395363 
L 294.551945 200.377399 
L 295.61097 199.622908 
L 296.669994 200.377399 
L 297.729019 203.395363 
L 299.847068 212.449255 
L 300.906092 213.203746 
L 301.965117 210.940273 
L 303.024141 209.431291 
L 305.14219 210.940273 
L 306.201215 217.730692 
L 307.260239 217.730692 
L 308.319264 231.311531 
L 309.378288 229.048058 
L 310.437313 227.539076 
L 311.496337 223.012129 
L 312.555362 221.503147 
L 313.614386 222.257638 
L 314.673411 219.239674 
L 315.732435 223.012129 
L 316.791459 222.257638 
L 317.850484 217.730692 
L 318.909508 219.239674 
L 319.968533 219.994165 
L 321.027557 214.712728 
L 322.086582 210.940273 
L 323.145606 213.203746 
L 324.204631 210.185782 
L 325.263655 212.449255 
L 326.32268 209.431291 
L 327.381704 214.712728 
L 328.440729 215.467219 
L 329.499753 214.712728 
L 330.558778 212.449255 
L 331.617802 213.958237 
L 332.676827 216.976201 
L 333.735851 216.22171 
L 334.794876 216.22171 
L 335.8539 213.203746 
L 336.912925 207.167818 
L 337.971949 204.904345 
L 339.030974 205.658836 
L 340.089998 207.922309 
L 341.149023 204.149854 
L 342.208047 204.149854 
L 343.267072 201.886381 
L 344.326096 195.095962 
L 345.385121 196.604944 
L 346.444145 193.58698 
L 347.503169 193.58698 
L 348.562194 190.569016 
L 349.621218 186.796561 
L 350.680243 180.760632 
L 351.739267 189.060034 
L 352.798292 194.341471 
L 353.857316 189.060034 
L 354.916341 183.024106 
L 355.975365 186.04207 
L 357.03439 179.25165 
L 358.093414 174.724704 
L 359.152439 164.916321 
L 360.211463 166.425303 
L 361.270488 169.443267 
L 362.329512 173.970213 
L 363.388537 173.215722 
L 364.447561 168.688776 
L 365.506586 169.443267 
L 366.56561 153.598956 
L 367.624635 149.826501 
L 368.683659 152.089974 
L 369.742684 138.509135 
L 370.801708 139.263626 
L 371.860733 143.790573 
L 372.919757 137.754644 
L 373.978782 132.473207 
L 375.037806 132.473207 
L 376.096831 134.73668 
L 377.155855 127.946261 
L 378.214879 138.509135 
L 379.273904 142.281591 
L 380.332928 147.563028 
L 381.391953 140.018118 
L 382.450977 141.5271 
L 383.510002 149.07201 
L 384.569026 145.299555 
L 385.628051 155.862429 
L 386.687075 164.916321 
L 387.7461 155.862429 
L 388.805124 142.281591 
L 389.864149 154.353447 
L 390.923173 150.580992 
L 391.982198 149.07201 
L 393.041222 155.862429 
L 396.218296 171.70674 
L 397.27732 170.197758 
L 398.336345 169.443267 
L 399.395369 174.724704 
L 400.454394 178.497159 
L 401.513418 173.970213 
L 402.572443 170.952249 
L 403.631467 170.952249 
L 404.690492 175.479195 
L 405.749516 182.269615 
L 406.808541 184.533088 
L 407.867565 178.497159 
L 408.926589 177.742668 
L 409.985614 173.215722 
L 411.044638 175.479195 
L 412.103663 173.970213 
L 413.162687 183.778597 
L 414.221712 180.760632 
L 415.280736 187.551052 
L 416.339761 197.359435 
L 417.398785 195.850453 
L 418.45781 195.095962 
L 419.516834 196.604944 
L 420.575859 192.832489 
L 422.693908 194.341471 
L 423.752932 184.533088 
L 424.811957 187.551052 
L 425.870981 179.25165 
L 426.930006 180.006141 
L 427.98903 176.233686 
L 430.107079 185.287579 
L 431.166104 178.497159 
L 432.225128 181.515124 
L 433.284153 187.551052 
L 434.343177 195.850453 
L 435.402202 189.060034 
L 436.461226 192.832489 
L 437.520251 189.814525 
L 438.579275 199.622908 
L 439.638299 204.149854 
L 440.697324 195.095962 
L 441.756348 201.13189 
L 442.815373 196.604944 
L 443.874397 201.886381 
L 444.933422 204.149854 
L 445.992446 195.095962 
L 447.051471 194.341471 
L 448.110495 191.323507 
L 449.16952 196.604944 
L 450.228544 195.850453 
L 451.287569 196.604944 
L 452.346593 200.377399 
L 453.405618 203.395363 
L 454.464642 210.185782 
L 455.523667 210.940273 
L 456.582691 209.431291 
L 457.641716 206.413327 
L 458.70074 216.976201 
L 459.759765 216.22171 
L 460.818789 206.413327 
L 461.877814 203.395363 
L 462.936838 214.712728 
L 463.995863 214.712728 
L 465.054887 211.694764 
L 466.113912 213.958237 
L 467.172936 209.431291 
L 468.231961 202.640872 
L 469.290985 198.113926 
L 470.350009 201.13189 
L 471.409034 191.323507 
L 472.468058 192.077998 
L 473.527083 205.658836 
L 474.586107 189.060034 
L 475.645132 180.760632 
L 476.704156 186.796561 
L 477.763181 178.497159 
L 478.822205 180.006141 
L 479.88123 177.742668 
L 480.940254 186.796561 
L 481.999279 183.778597 
L 483.058303 173.970213 
L 484.117328 169.443267 
L 486.235377 161.898357 
L 488.353426 148.317519 
L 489.41245 139.263626 
L 490.471475 133.982189 
L 491.530499 118.892369 
L 492.589524 115.874405 
L 493.648548 112.10195 
L 494.707573 106.820513 
L 495.766597 95.503147 
L 496.825622 81.922309 
L 497.884646 74.377399 
L 498.943671 64.569016 
L 500.002695 57.778597 
L 501.061719 39.670812 
L 502.120744 49.479195 
L 503.179768 40.425303 
L 504.238793 44.197758 
L 505.297817 44.197758 
L 506.356842 34.389375 
L 507.415866 35.898357 
L 508.474891 41.179794 
L 509.533915 37.407339 
L 510.59294 42.688776 
L 511.651964 44.197758 
L 512.710989 41.179794 
L 513.770013 45.70674 
L 514.829038 46.461231 
L 515.888062 56.269615 
L 516.947087 55.515124 
L 518.006111 81.922309 
L 519.065136 87.958237 
L 520.12416 78.904345 
L 521.183185 87.203746 
L 522.242209 84.940273 
L 523.301234 81.922309 
L 524.360258 91.730692 
L 525.419283 78.904345 
L 526.478307 97.012129 
L 527.537332 89.467219 
L 528.596356 90.976201 
L 529.655381 99.275603 
L 530.714405 109.083986 
L 531.773429 109.838477 
L 532.832454 118.892369 
L 533.891478 125.682788 
L 534.950503 122.664824 
L 536.009527 127.19177 
L 537.068552 136.245662 
L 538.127576 133.227698 
L 539.186601 128.700752 
L 540.245625 113.610932 
L 541.30465 121.910333 
L 542.363674 124.173806 
L 543.422699 130.209734 
L 544.481723 118.892369 
L 545.540748 110.592968 
L 546.599772 123.419315 
L 547.658797 133.227698 
L 548.717821 118.137878 
L 549.776846 121.155842 
L 550.83587 115.874405 
L 551.894895 121.155842 
L 552.953919 122.664824 
L 554.012944 127.946261 
L 555.071968 121.155842 
L 556.130993 112.10195 
L 557.190017 109.838477 
L 558.249042 105.311531 
L 559.308066 107.575004 
L 560.367091 111.347459 
L 561.426115 100.030094 
L 562.485139 98.521112 
L 563.544164 97.766621 
L 564.603188 100.030094 
L 565.662213 94.748656 
L 566.721237 90.22171 
L 567.780262 80.413327 
L 568.839286 78.149854 
L 569.898311 68.341471 
L 570.957335 78.149854 
L 572.01636 74.377399 
L 573.075384 90.976201 
L 574.134409 92.485183 
L 575.193433 94.748656 
L 576.252458 93.239674 
L 577.311482 97.766621 
L 578.370507 93.239674 
L 579.429531 92.485183 
L 580.488556 92.485183 
L 581.54758 105.311531 
L 582.606605 112.856441 
L 583.665629 109.083986 
L 584.724654 115.119914 
L 585.783678 111.347459 
L 586.842703 115.874405 
L 587.901727 119.64686 
L 588.960752 117.383387 
L 590.019776 124.173806 
L 591.078801 124.173806 
L 592.137825 134.73668 
L 593.196849 140.018118 
L 594.255874 135.491171 
L 595.314898 142.281591 
L 596.373923 148.317519 
L 597.432947 152.089974 
L 598.491972 158.880393 
L 599.550996 158.880393 
L 600.610021 167.934285 
L 601.669045 170.952249 
L 602.72807 176.988177 
L 603.787094 182.269615 
L 604.846119 188.305543 
L 605.905143 184.533088 
L 606.964168 192.832489 
L 608.023192 197.359435 
L 609.082217 191.323507 
L 610.141241 194.341471 
L 611.200266 192.832489 
L 613.318315 200.377399 
L 614.377339 199.622908 
L 615.436364 192.077998 
L 615.436364 192.077998 
" style="fill:none;stroke:#1f77b4;stroke-linecap:round;stroke-width:1.5;"/>
   </g>
   <g id="line2d_19">
    <path clip-path="url(#pc286d03a20)" d="M 108.163636 286.389375 
L 109.222661 286.389375 
L 110.281685 281.107938 
L 111.34071 281.107938 
L 112.399734 279.598956 
L 113.458759 272.054046 
L 114.517783 272.808537 
L 115.576808 269.790573 
L 119.812906 269.790573 
L 120.87193 270.545064 
L 121.930955 267.5271 
L 122.989979 269.036082 
L 124.049004 268.281591 
L 125.108028 265.263626 
L 126.167053 265.263626 
L 127.226077 261.491171 
L 128.285102 258.473207 
L 129.344126 258.473207 
L 130.403151 262.245662 
L 132.521199 262.245662 
L 133.580224 261.491171 
L 134.639248 257.718716 
L 135.698273 259.982189 
L 136.757297 264.509135 
L 137.816322 258.473207 
L 138.875346 253.19177 
L 139.934371 252.437279 
L 140.993395 245.64686 
L 142.05242 250.173806 
L 143.111444 248.664824 
L 144.170469 245.64686 
L 145.229493 238.856441 
L 146.288518 235.083986 
L 147.347542 232.820513 
L 148.406567 238.856441 
L 149.465591 238.856441 
L 151.58364 241.874405 
L 152.642665 238.856441 
L 153.701689 233.575004 
L 154.760714 231.311531 
L 155.819738 229.802549 
L 156.878763 230.55704 
L 157.937787 225.275603 
L 158.996812 225.275603 
L 160.055836 232.820513 
L 161.114861 234.329495 
L 162.173885 229.048058 
L 163.232909 229.048058 
L 165.350958 232.066022 
L 166.409983 236.592968 
L 167.469007 233.575004 
L 168.528032 231.311531 
L 169.587056 235.838477 
L 170.646081 229.048058 
L 171.705105 229.048058 
L 172.76413 227.539076 
L 173.823154 230.55704 
L 174.882179 226.030094 
L 175.941203 226.030094 
L 177.000228 222.257638 
L 178.059252 223.012129 
L 180.177301 221.503147 
L 181.236326 228.293567 
L 182.29535 230.55704 
L 183.354375 225.275603 
L 184.413399 229.048058 
L 185.472424 225.275603 
L 186.531448 220.748656 
L 187.590473 219.239674 
L 188.649497 218.485183 
L 189.708522 221.503147 
L 190.767546 219.239674 
L 191.826571 219.239674 
L 192.885595 214.712728 
L 193.944619 216.976201 
L 195.003644 215.467219 
L 196.062668 215.467219 
L 197.121693 207.922309 
L 198.180717 211.694764 
L 199.239742 216.976201 
L 200.298766 219.239674 
L 201.357791 212.449255 
L 202.416815 216.976201 
L 203.47584 223.012129 
L 204.534864 225.275603 
L 206.652913 223.766621 
L 207.711938 219.239674 
L 208.770962 221.503147 
L 209.829987 219.994165 
L 210.889011 223.012129 
L 211.948036 222.257638 
L 213.00706 223.012129 
L 214.066085 227.539076 
L 215.125109 234.329495 
L 216.184134 233.575004 
L 217.243158 230.55704 
L 218.302183 231.311531 
L 219.361207 234.329495 
L 220.420232 232.066022 
L 221.479256 230.55704 
L 222.538281 231.311531 
L 223.597305 231.311531 
L 224.656329 229.802549 
L 225.715354 236.592968 
L 226.774378 236.592968 
L 227.833403 235.838477 
L 228.892427 238.856441 
L 229.951452 240.365423 
L 231.010476 236.592968 
L 232.069501 231.311531 
L 233.128525 233.575004 
L 234.18755 227.539076 
L 235.246574 230.55704 
L 236.305599 236.592968 
L 237.364623 238.856441 
L 238.423648 237.347459 
L 239.482672 237.347459 
L 240.541697 238.856441 
L 241.600721 233.575004 
L 242.659746 235.083986 
L 243.71877 237.347459 
L 244.777795 237.347459 
L 245.836819 233.575004 
L 246.895844 233.575004 
L 247.954868 238.10195 
L 249.013893 238.10195 
L 250.072917 238.856441 
L 251.131942 241.874405 
L 252.190966 243.383387 
L 253.249991 244.137878 
L 254.309015 246.401351 
L 255.368039 250.173806 
L 256.427064 249.419315 
L 257.486088 246.401351 
L 258.545113 247.155842 
L 259.604137 252.437279 
L 260.663162 252.437279 
L 261.722186 251.682788 
L 262.781211 255.455243 
L 263.840235 254.700752 
L 264.89926 253.19177 
L 265.958284 250.173806 
L 267.017309 251.682788 
L 268.076333 251.682788 
L 269.135358 248.664824 
L 270.194382 253.946261 
L 271.253407 253.946261 
L 272.312431 258.473207 
L 273.371456 256.209734 
L 274.43048 259.227698 
L 275.489505 259.227698 
L 276.548529 259.982189 
L 277.607554 256.964225 
L 279.725603 256.964225 
L 280.784627 260.73668 
L 281.843652 254.700752 
L 282.902676 256.209734 
L 283.961701 252.437279 
L 285.020725 253.946261 
L 286.079749 253.19177 
L 287.138774 253.946261 
L 288.197798 251.682788 
L 289.256823 253.946261 
L 290.315847 255.455243 
L 291.374872 254.700752 
L 292.433896 250.173806 
L 293.492921 251.682788 
L 294.551945 247.910333 
L 295.61097 248.664824 
L 296.669994 253.19177 
L 297.729019 259.227698 
L 298.788043 255.455243 
L 299.847068 255.455243 
L 300.906092 256.209734 
L 301.965117 254.700752 
L 304.083166 256.209734 
L 305.14219 255.455243 
L 306.201215 256.964225 
L 307.260239 262.245662 
L 308.319264 261.491171 
L 309.378288 256.964225 
L 310.437313 257.718716 
L 311.496337 256.964225 
L 312.555362 254.700752 
L 313.614386 253.19177 
L 314.673411 253.19177 
L 315.732435 256.209734 
L 316.791459 257.718716 
L 317.850484 256.964225 
L 319.968533 256.964225 
L 321.027557 256.209734 
L 322.086582 254.700752 
L 323.145606 256.209734 
L 324.204631 256.964225 
L 325.263655 255.455243 
L 326.32268 254.700752 
L 327.381704 258.473207 
L 328.440729 261.491171 
L 329.499753 259.227698 
L 330.558778 261.491171 
L 331.617802 261.491171 
L 332.676827 259.982189 
L 333.735851 262.245662 
L 334.794876 258.473207 
L 335.8539 256.209734 
L 336.912925 255.455243 
L 337.971949 252.437279 
L 341.149023 252.437279 
L 343.267072 249.419315 
L 344.326096 246.401351 
L 345.385121 251.682788 
L 346.444145 251.682788 
L 347.503169 250.928297 
L 348.562194 249.419315 
L 349.621218 246.401351 
L 350.680243 247.155842 
L 352.798292 245.64686 
L 353.857316 244.137878 
L 354.916341 241.874405 
L 355.975365 244.892369 
L 357.03439 235.838477 
L 358.093414 233.575004 
L 359.152439 235.083986 
L 360.211463 234.329495 
L 361.270488 226.784585 
L 362.329512 234.329495 
L 363.388537 233.575004 
L 364.447561 235.838477 
L 365.506586 235.083986 
L 366.56561 227.539076 
L 367.624635 226.030094 
L 368.683659 226.030094 
L 369.742684 216.22171 
L 370.801708 219.994165 
L 371.860733 225.275603 
L 372.919757 221.503147 
L 373.978782 222.257638 
L 375.037806 222.257638 
L 376.096831 223.766621 
L 377.155855 223.012129 
L 378.214879 228.293567 
L 379.273904 229.048058 
L 380.332928 223.766621 
L 381.391953 220.748656 
L 382.450977 222.257638 
L 383.510002 226.784585 
L 384.569026 228.293567 
L 385.628051 226.784585 
L 386.687075 235.083986 
L 387.7461 229.048058 
L 388.805124 229.048058 
L 389.864149 225.275603 
L 390.923173 220.748656 
L 391.982198 223.766621 
L 393.041222 223.766621 
L 394.100247 229.048058 
L 395.159271 231.311531 
L 396.218296 229.048058 
L 397.27732 228.293567 
L 398.336345 231.311531 
L 399.395369 235.838477 
L 400.454394 232.820513 
L 401.513418 230.55704 
L 402.572443 232.066022 
L 403.631467 226.784585 
L 404.690492 232.066022 
L 405.749516 235.083986 
L 406.808541 235.083986 
L 407.867565 226.784585 
L 408.926589 235.083986 
L 409.985614 235.083986 
L 411.044638 238.856441 
L 412.103663 236.592968 
L 413.162687 235.083986 
L 414.221712 236.592968 
L 415.280736 237.347459 
L 416.339761 239.610932 
L 417.398785 241.119914 
L 418.45781 241.874405 
L 419.516834 243.383387 
L 420.575859 241.874405 
L 421.634883 238.856441 
L 422.693908 237.347459 
L 423.752932 232.820513 
L 424.811957 233.575004 
L 425.870981 228.293567 
L 426.930006 226.784585 
L 427.98903 223.766621 
L 429.048055 225.275603 
L 430.107079 227.539076 
L 432.225128 230.55704 
L 433.284153 231.311531 
L 434.343177 233.575004 
L 435.402202 232.066022 
L 436.461226 234.329495 
L 437.520251 229.048058 
L 438.579275 229.802549 
L 439.638299 232.066022 
L 440.697324 231.311531 
L 441.756348 236.592968 
L 444.933422 238.856441 
L 445.992446 235.838477 
L 447.051471 231.311531 
L 448.110495 235.838477 
L 449.16952 232.820513 
L 450.228544 236.592968 
L 451.287569 238.10195 
L 452.346593 242.628896 
L 453.405618 245.64686 
L 454.464642 247.155842 
L 455.523667 244.892369 
L 456.582691 245.64686 
L 457.641716 243.383387 
L 458.70074 250.928297 
L 459.759765 251.682788 
L 460.818789 240.365423 
L 461.877814 244.137878 
L 462.936838 242.628896 
L 463.995863 243.383387 
L 465.054887 239.610932 
L 466.113912 242.628896 
L 467.172936 244.137878 
L 468.231961 241.874405 
L 469.290985 243.383387 
L 470.350009 248.664824 
L 472.468058 239.610932 
L 473.527083 244.892369 
L 474.586107 240.365423 
L 475.645132 237.347459 
L 476.704156 239.610932 
L 477.763181 236.592968 
L 478.822205 236.592968 
L 479.88123 237.347459 
L 480.940254 243.383387 
L 481.999279 233.575004 
L 483.058303 236.592968 
L 484.117328 238.856441 
L 485.176352 232.066022 
L 486.235377 229.048058 
L 487.294401 223.766621 
L 488.353426 211.694764 
L 489.41245 204.904345 
L 490.471475 213.958237 
L 491.530499 201.886381 
L 492.589524 196.604944 
L 493.648548 198.113926 
L 494.707573 186.796561 
L 495.766597 190.569016 
L 496.825622 186.04207 
L 497.884646 187.551052 
L 498.943671 180.760632 
L 500.002695 177.742668 
L 501.061719 165.670812 
L 502.120744 163.407339 
L 503.179768 155.862429 
L 504.238793 151.335483 
L 505.297817 154.353447 
L 506.356842 152.089974 
L 507.415866 150.580992 
L 508.474891 147.563028 
L 510.59294 146.054046 
L 511.651964 149.07201 
L 512.710989 146.808537 
L 513.770013 146.054046 
L 515.888062 143.036082 
L 516.947087 144.545064 
L 518.006111 153.598956 
L 519.065136 153.598956 
L 521.183185 165.670812 
L 522.242209 162.652848 
L 523.301234 158.880393 
L 524.360258 168.688776 
L 525.419283 163.407339 
L 526.478307 172.461231 
L 528.596356 175.479195 
L 529.655381 180.760632 
L 530.714405 189.060034 
L 531.773429 189.814525 
L 532.832454 194.341471 
L 534.950503 192.832489 
L 536.009527 197.359435 
L 537.068552 202.640872 
L 538.127576 198.113926 
L 539.186601 202.640872 
L 540.245625 183.024106 
L 541.30465 198.868417 
L 542.363674 205.658836 
L 543.422699 208.6768 
L 544.481723 198.868417 
L 545.540748 197.359435 
L 546.599772 204.149854 
L 547.658797 200.377399 
L 548.717821 182.269615 
L 549.776846 194.341471 
L 550.83587 192.832489 
L 551.894895 193.58698 
L 552.953919 199.622908 
L 554.012944 204.904345 
L 555.071968 198.868417 
L 556.130993 198.113926 
L 557.190017 194.341471 
L 558.249042 189.814525 
L 559.308066 191.323507 
L 560.367091 195.850453 
L 561.426115 193.58698 
L 562.485139 183.778597 
L 563.544164 183.778597 
L 564.603188 186.04207 
L 565.662213 186.796561 
L 566.721237 183.024106 
L 567.780262 180.760632 
L 568.839286 176.233686 
L 569.898311 174.724704 
L 570.957335 179.25165 
L 572.01636 167.934285 
L 573.075384 176.988177 
L 574.134409 178.497159 
L 575.193433 173.970213 
L 576.252458 168.688776 
L 577.311482 178.497159 
L 578.370507 180.760632 
L 579.429531 181.515124 
L 580.488556 183.778597 
L 581.54758 192.077998 
L 582.606605 195.850453 
L 583.665629 193.58698 
L 584.724654 198.868417 
L 585.783678 197.359435 
L 586.842703 198.868417 
L 587.901727 201.13189 
L 588.960752 200.377399 
L 590.019776 210.185782 
L 591.078801 207.922309 
L 592.137825 208.6768 
L 593.196849 211.694764 
L 594.255874 203.395363 
L 595.314898 204.904345 
L 596.373923 207.922309 
L 597.432947 213.958237 
L 598.491972 222.257638 
L 599.550996 226.030094 
L 600.610021 219.239674 
L 601.669045 219.994165 
L 602.72807 223.766621 
L 603.787094 225.275603 
L 604.846119 227.539076 
L 605.905143 222.257638 
L 606.964168 226.784585 
L 608.023192 230.55704 
L 609.082217 229.048058 
L 610.141241 228.293567 
L 612.25929 234.329495 
L 614.377339 237.347459 
L 615.436364 232.820513 
L 615.436364 232.820513 
" style="fill:none;stroke:#ff7f0e;stroke-linecap:round;stroke-width:1.5;"/>
   </g>
   <g id="patch_3">
    <path d="M 82.8 298.989375 
L 82.8 21.789375 
" style="fill:none;stroke:#cccccc;stroke-linecap:square;stroke-linejoin:miter;stroke-width:0.8;"/>
   </g>
   <g id="patch_4">
    <path d="M 640.8 298.989375 
L 640.8 21.789375 
" style="fill:none;stroke:#cccccc;stroke-linecap:square;stroke-linejoin:miter;stroke-width:0.8;"/>
   </g>
   <g id="patch_5">
    <path d="M 82.8 298.989375 
L 640.8 298.989375 
" style="fill:none;stroke:#cccccc;stroke-linecap:square;stroke-linejoin:miter;stroke-width:0.8;"/>
   </g>
   <g id="patch_6">
    <path d="M 82.8 21.789375 
L 640.8 21.789375 
" style="fill:none;stroke:#cccccc;stroke-linecap:square;stroke-linejoin:miter;stroke-width:0.8;"/>
   </g>
   <g id="text_18">
    <!-- Internações -->
    <g style="fill:#262626;" transform="translate(330.449063 15.789375)scale(0.12 -0.12)">
     <defs>
      <path d="M 597 0 
L 597 4581 
L 1203 4581 
L 1203 0 
L 597 0 
z
" id="ArialMT-49" transform="scale(0.015625)"/>
      <path d="M 422 0 
L 422 3319 
L 928 3319 
L 928 2847 
Q 1294 3394 1984 3394 
Q 2284 3394 2536 3286 
Q 2788 3178 2913 3003 
Q 3038 2828 3088 2588 
Q 3119 2431 3119 2041 
L 3119 0 
L 2556 0 
L 2556 2019 
Q 2556 2363 2490 2533 
Q 2425 2703 2258 2804 
Q 2091 2906 1866 2906 
Q 1506 2906 1245 2678 
Q 984 2450 984 1813 
L 984 0 
L 422 0 
z
" id="ArialMT-6e" transform="scale(0.015625)"/>
      <path d="M 1650 503 
L 1731 6 
Q 1494 -44 1306 -44 
Q 1000 -44 831 53 
Q 663 150 594 308 
Q 525 466 525 972 
L 525 2881 
L 113 2881 
L 113 3319 
L 525 3319 
L 525 4141 
L 1084 4478 
L 1084 3319 
L 1650 3319 
L 1650 2881 
L 1084 2881 
L 1084 941 
Q 1084 700 1114 631 
Q 1144 563 1211 522 
Q 1278 481 1403 481 
Q 1497 481 1650 503 
z
" id="ArialMT-74" transform="scale(0.015625)"/>
      <path d="M 2694 1069 
L 3275 997 
Q 3138 488 2766 206 
Q 2394 -75 1816 -75 
Q 1088 -75 661 373 
Q 234 822 234 1631 
Q 234 2469 665 2931 
Q 1097 3394 1784 3394 
Q 2450 3394 2872 2941 
Q 3294 2488 3294 1666 
Q 3294 1616 3291 1516 
L 816 1516 
Q 847 969 1125 678 
Q 1403 388 1819 388 
Q 2128 388 2347 550 
Q 2566 713 2694 1069 
z
M 847 1978 
L 2700 1978 
Q 2663 2397 2488 2606 
Q 2219 2931 1791 2931 
Q 1403 2931 1139 2672 
Q 875 2413 847 1978 
z
" id="ArialMT-65" transform="scale(0.015625)"/>
      <path d="M 416 0 
L 416 3319 
L 922 3319 
L 922 2816 
Q 1116 3169 1280 3281 
Q 1444 3394 1641 3394 
Q 1925 3394 2219 3213 
L 2025 2691 
Q 1819 2813 1613 2813 
Q 1428 2813 1281 2702 
Q 1134 2591 1072 2394 
Q 978 2094 978 1738 
L 978 0 
L 416 0 
z
" id="ArialMT-72" transform="scale(0.015625)"/>
      <path d="M 2588 409 
Q 2275 144 1986 34 
Q 1697 -75 1366 -75 
Q 819 -75 525 192 
Q 231 459 231 875 
Q 231 1119 342 1320 
Q 453 1522 633 1644 
Q 813 1766 1038 1828 
Q 1203 1872 1538 1913 
Q 2219 1994 2541 2106 
Q 2544 2222 2544 2253 
Q 2544 2597 2384 2738 
Q 2169 2928 1744 2928 
Q 1347 2928 1158 2789 
Q 969 2650 878 2297 
L 328 2372 
Q 403 2725 575 2942 
Q 747 3159 1072 3276 
Q 1397 3394 1825 3394 
Q 2250 3394 2515 3294 
Q 2781 3194 2906 3042 
Q 3031 2891 3081 2659 
Q 3109 2516 3109 2141 
L 3109 1391 
Q 3109 606 3145 398 
Q 3181 191 3288 0 
L 2700 0 
Q 2613 175 2588 409 
z
M 2541 1666 
Q 2234 1541 1622 1453 
Q 1275 1403 1131 1340 
Q 988 1278 909 1158 
Q 831 1038 831 891 
Q 831 666 1001 516 
Q 1172 366 1500 366 
Q 1825 366 2078 508 
Q 2331 650 2450 897 
Q 2541 1088 2541 1459 
L 2541 1666 
z
" id="ArialMT-61" transform="scale(0.015625)"/>
      <path d="M 2588 1216 
L 3141 1144 
Q 3050 572 2676 248 
Q 2303 -75 1759 -75 
Q 1078 -75 664 370 
Q 250 816 250 1647 
Q 250 2184 428 2587 
Q 606 2991 970 3192 
Q 1334 3394 1763 3394 
Q 2303 3394 2647 3120 
Q 2991 2847 3088 2344 
L 2541 2259 
Q 2463 2594 2264 2762 
Q 2066 2931 1784 2931 
Q 1359 2931 1093 2626 
Q 828 2322 828 1663 
Q 828 994 1084 691 
Q 1341 388 1753 388 
Q 2084 388 2306 591 
Q 2528 794 2588 1216 
z
M 1283 -417 
L 1446 136 
L 1864 136 
L 1761 -199 
Q 2027 -230 2161 -362 
Q 2296 -495 2296 -658 
Q 2296 -892 2071 -1072 
Q 1846 -1252 1392 -1252 
Q 1136 -1252 942 -1214 
L 977 -849 
Q 1177 -861 1271 -861 
Q 1564 -861 1683 -780 
Q 1774 -717 1774 -627 
Q 1774 -570 1738 -526 
Q 1702 -483 1605 -451 
Q 1508 -420 1283 -417 
z
" id="ArialMT-e7" transform="scale(0.015625)"/>
      <path d="M 213 1659 
Q 213 2581 725 3025 
Q 1153 3394 1769 3394 
Q 2453 3394 2887 2945 
Q 3322 2497 3322 1706 
Q 3322 1066 3130 698 
Q 2938 331 2570 128 
Q 2203 -75 1769 -75 
Q 1072 -75 642 372 
Q 213 819 213 1659 
z
M 791 1659 
Q 791 1022 1069 705 
Q 1347 388 1769 388 
Q 2188 388 2466 706 
Q 2744 1025 2744 1678 
Q 2744 2294 2464 2611 
Q 2184 2928 1769 2928 
Q 1347 2928 1069 2612 
Q 791 2297 791 1659 
z
M 726 3809 
Q 723 4134 904 4328 
Q 1082 4522 1360 4522 
Q 1554 4522 1888 4353 
Q 2073 4259 2182 4259 
Q 2282 4259 2335 4314 
Q 2388 4369 2410 4531 
L 2817 4531 
Q 2807 4175 2637 3997 
Q 2467 3819 2204 3819 
Q 2007 3819 1685 3994 
Q 1476 4106 1379 4106 
Q 1273 4106 1207 4031 
Q 1138 3956 1142 3809 
L 726 3809 
z
" id="ArialMT-f5" transform="scale(0.015625)"/>
      <path d="M 197 991 
L 753 1078 
Q 800 744 1014 566 
Q 1228 388 1613 388 
Q 2000 388 2187 545 
Q 2375 703 2375 916 
Q 2375 1106 2209 1216 
Q 2094 1291 1634 1406 
Q 1016 1563 777 1677 
Q 538 1791 414 1992 
Q 291 2194 291 2438 
Q 291 2659 392 2848 
Q 494 3038 669 3163 
Q 800 3259 1026 3326 
Q 1253 3394 1513 3394 
Q 1903 3394 2198 3281 
Q 2494 3169 2634 2976 
Q 2775 2784 2828 2463 
L 2278 2388 
Q 2241 2644 2061 2787 
Q 1881 2931 1553 2931 
Q 1166 2931 1000 2803 
Q 834 2675 834 2503 
Q 834 2394 903 2306 
Q 972 2216 1119 2156 
Q 1203 2125 1616 2013 
Q 2213 1853 2448 1751 
Q 2684 1650 2818 1456 
Q 2953 1263 2953 975 
Q 2953 694 2789 445 
Q 2625 197 2315 61 
Q 2006 -75 1616 -75 
Q 969 -75 630 194 
Q 291 463 197 991 
z
" id="ArialMT-73" transform="scale(0.015625)"/>
     </defs>
     <use xlink:href="#ArialMT-49"/>
     <use x="27.783203" xlink:href="#ArialMT-6e"/>
     <use x="83.398438" xlink:href="#ArialMT-74"/>
     <use x="111.181641" xlink:href="#ArialMT-65"/>
     <use x="166.796875" xlink:href="#ArialMT-72"/>
     <use x="200.097656" xlink:href="#ArialMT-6e"/>
     <use x="255.712891" xlink:href="#ArialMT-61"/>
     <use x="311.328125" xlink:href="#ArialMT-e7"/>
     <use x="361.328125" xlink:href="#ArialMT-f5"/>
     <use x="416.943359" xlink:href="#ArialMT-65"/>
     <use x="472.558594" xlink:href="#ArialMT-73"/>
    </g>
   </g>
   <g id="legend_1">
    <g id="patch_7">
     <path d="M 549.548437 58.08 
L 633.8 58.08 
Q 635.8 58.08 635.8 56.08 
L 635.8 28.789375 
Q 635.8 26.789375 633.8 26.789375 
L 549.548437 26.789375 
Q 547.548437 26.789375 547.548437 28.789375 
L 547.548437 56.08 
Q 547.548437 58.08 549.548437 58.08 
z
" style="fill:#ffffff;opacity:0.8;stroke:#cccccc;stroke-linejoin:miter;"/>
    </g>
    <g id="line2d_20">
     <path d="M 551.548437 34.447188 
L 571.548437 34.447188 
" style="fill:none;stroke:#1f77b4;stroke-linecap:round;stroke-width:1.5;"/>
    </g>
    <g id="line2d_21"/>
    <g id="text_19">
     <!-- Internações -->
     <g style="fill:#262626;" transform="translate(579.548437 37.947188)scale(0.1 -0.1)">
      <use xlink:href="#ArialMT-49"/>
      <use x="27.783203" xlink:href="#ArialMT-6e"/>
      <use x="83.398438" xlink:href="#ArialMT-74"/>
      <use x="111.181641" xlink:href="#ArialMT-65"/>
      <use x="166.796875" xlink:href="#ArialMT-72"/>
      <use x="200.097656" xlink:href="#ArialMT-6e"/>
      <use x="255.712891" xlink:href="#ArialMT-61"/>
      <use x="311.328125" xlink:href="#ArialMT-e7"/>
      <use x="361.328125" xlink:href="#ArialMT-f5"/>
      <use x="416.943359" xlink:href="#ArialMT-65"/>
      <use x="472.558594" xlink:href="#ArialMT-73"/>
     </g>
    </g>
    <g id="line2d_22">
     <path d="M 551.548437 48.5925 
L 571.548437 48.5925 
" style="fill:none;stroke:#ff7f0e;stroke-linecap:round;stroke-width:1.5;"/>
    </g>
    <g id="line2d_23"/>
    <g id="text_20">
     <!-- UTI -->
     <g style="fill:#262626;" transform="translate(579.548437 52.0925)scale(0.1 -0.1)">
      <defs>
       <path d="M 3500 4581 
L 4106 4581 
L 4106 1934 
Q 4106 1244 3950 837 
Q 3794 431 3386 176 
Q 2978 -78 2316 -78 
Q 1672 -78 1262 144 
Q 853 366 678 786 
Q 503 1206 503 1934 
L 503 4581 
L 1109 4581 
L 1109 1938 
Q 1109 1341 1220 1058 
Q 1331 775 1601 622 
Q 1872 469 2263 469 
Q 2931 469 3215 772 
Q 3500 1075 3500 1938 
L 3500 4581 
z
" id="ArialMT-55" transform="scale(0.015625)"/>
       <path d="M 1659 0 
L 1659 4041 
L 150 4041 
L 150 4581 
L 3781 4581 
L 3781 4041 
L 2266 4041 
L 2266 0 
L 1659 0 
z
" id="ArialMT-54" transform="scale(0.015625)"/>
      </defs>
      <use xlink:href="#ArialMT-55"/>
      <use x="72.216797" xlink:href="#ArialMT-54"/>
      <use x="133.300781" xlink:href="#ArialMT-49"/>
     </g>
    </g>
   </g>
  </g>
  <g id="text_21">
   <!-- Atualizado em 11/07/2021 -->
   <g style="fill:#262626;" transform="translate(7.2 331.389375)scale(0.08 -0.08)">
    <defs>
     <path d="M -9 0 
L 1750 4581 
L 2403 4581 
L 4278 0 
L 3588 0 
L 3053 1388 
L 1138 1388 
L 634 0 
L -9 0 
z
M 1313 1881 
L 2866 1881 
L 2388 3150 
Q 2169 3728 2063 4100 
Q 1975 3659 1816 3225 
L 1313 1881 
z
" id="ArialMT-41" transform="scale(0.015625)"/>
     <path d="M 2597 0 
L 2597 488 
Q 2209 -75 1544 -75 
Q 1250 -75 995 37 
Q 741 150 617 320 
Q 494 491 444 738 
Q 409 903 409 1263 
L 409 3319 
L 972 3319 
L 972 1478 
Q 972 1038 1006 884 
Q 1059 663 1231 536 
Q 1403 409 1656 409 
Q 1909 409 2131 539 
Q 2353 669 2445 892 
Q 2538 1116 2538 1541 
L 2538 3319 
L 3100 3319 
L 3100 0 
L 2597 0 
z
" id="ArialMT-75" transform="scale(0.015625)"/>
     <path d="M 409 0 
L 409 4581 
L 972 4581 
L 972 0 
L 409 0 
z
" id="ArialMT-6c" transform="scale(0.015625)"/>
     <path d="M 425 3934 
L 425 4581 
L 988 4581 
L 988 3934 
L 425 3934 
z
M 425 0 
L 425 3319 
L 988 3319 
L 988 0 
L 425 0 
z
" id="ArialMT-69" transform="scale(0.015625)"/>
     <path d="M 125 0 
L 125 456 
L 2238 2881 
Q 1878 2863 1603 2863 
L 250 2863 
L 250 3319 
L 2963 3319 
L 2963 2947 
L 1166 841 
L 819 456 
Q 1197 484 1528 484 
L 3063 484 
L 3063 0 
L 125 0 
z
" id="ArialMT-7a" transform="scale(0.015625)"/>
     <path d="M 2575 0 
L 2575 419 
Q 2259 -75 1647 -75 
Q 1250 -75 917 144 
Q 584 363 401 755 
Q 219 1147 219 1656 
Q 219 2153 384 2558 
Q 550 2963 881 3178 
Q 1213 3394 1622 3394 
Q 1922 3394 2156 3267 
Q 2391 3141 2538 2938 
L 2538 4581 
L 3097 4581 
L 3097 0 
L 2575 0 
z
M 797 1656 
Q 797 1019 1065 703 
Q 1334 388 1700 388 
Q 2069 388 2326 689 
Q 2584 991 2584 1609 
Q 2584 2291 2321 2609 
Q 2059 2928 1675 2928 
Q 1300 2928 1048 2622 
Q 797 2316 797 1656 
z
" id="ArialMT-64" transform="scale(0.015625)"/>
     <path d="M 213 1659 
Q 213 2581 725 3025 
Q 1153 3394 1769 3394 
Q 2453 3394 2887 2945 
Q 3322 2497 3322 1706 
Q 3322 1066 3130 698 
Q 2938 331 2570 128 
Q 2203 -75 1769 -75 
Q 1072 -75 642 372 
Q 213 819 213 1659 
z
M 791 1659 
Q 791 1022 1069 705 
Q 1347 388 1769 388 
Q 2188 388 2466 706 
Q 2744 1025 2744 1678 
Q 2744 2294 2464 2611 
Q 2184 2928 1769 2928 
Q 1347 2928 1069 2612 
Q 791 2297 791 1659 
z
" id="ArialMT-6f" transform="scale(0.015625)"/>
     <path id="ArialMT-20" transform="scale(0.015625)"/>
     <path d="M 422 0 
L 422 3319 
L 925 3319 
L 925 2853 
Q 1081 3097 1340 3245 
Q 1600 3394 1931 3394 
Q 2300 3394 2536 3241 
Q 2772 3088 2869 2813 
Q 3263 3394 3894 3394 
Q 4388 3394 4653 3120 
Q 4919 2847 4919 2278 
L 4919 0 
L 4359 0 
L 4359 2091 
Q 4359 2428 4304 2576 
Q 4250 2725 4106 2815 
Q 3963 2906 3769 2906 
Q 3419 2906 3187 2673 
Q 2956 2441 2956 1928 
L 2956 0 
L 2394 0 
L 2394 2156 
Q 2394 2531 2256 2718 
Q 2119 2906 1806 2906 
Q 1569 2906 1367 2781 
Q 1166 2656 1075 2415 
Q 984 2175 984 1722 
L 984 0 
L 422 0 
z
" id="ArialMT-6d" transform="scale(0.015625)"/>
     <path d="M 0 -78 
L 1328 4659 
L 1778 4659 
L 453 -78 
L 0 -78 
z
" id="ArialMT-2f" transform="scale(0.015625)"/>
    </defs>
    <use xlink:href="#ArialMT-41"/>
    <use x="66.699219" xlink:href="#ArialMT-74"/>
    <use x="94.482422" xlink:href="#ArialMT-75"/>
    <use x="150.097656" xlink:href="#ArialMT-61"/>
    <use x="205.712891" xlink:href="#ArialMT-6c"/>
    <use x="227.929688" xlink:href="#ArialMT-69"/>
    <use x="250.146484" xlink:href="#ArialMT-7a"/>
    <use x="300.146484" xlink:href="#ArialMT-61"/>
    <use x="355.761719" xlink:href="#ArialMT-64"/>
    <use x="411.376953" xlink:href="#ArialMT-6f"/>
    <use x="466.992188" xlink:href="#ArialMT-20"/>
    <use x="494.775391" xlink:href="#ArialMT-65"/>
    <use x="550.390625" xlink:href="#ArialMT-6d"/>
    <use x="633.691406" xlink:href="#ArialMT-20"/>
    <use x="661.474609" xlink:href="#ArialMT-31"/>
    <use x="709.714844" xlink:href="#ArialMT-31"/>
    <use x="765.330078" xlink:href="#ArialMT-2f"/>
    <use x="793.113281" xlink:href="#ArialMT-30"/>
    <use x="848.728516" xlink:href="#ArialMT-37"/>
    <use x="904.34375" xlink:href="#ArialMT-2f"/>
    <use x="932.126953" xlink:href="#ArialMT-32"/>
    <use x="987.742188" xlink:href="#ArialMT-30"/>
    <use x="1043.357422" xlink:href="#ArialMT-32"/>
    <use x="1098.972656" xlink:href="#ArialMT-31"/>
   </g>
  </g>
  <g id="text_22">
   <!-- https://jmsvaz.github.io/covidsantos/ -->
   <g style="fill:#262626;" transform="translate(570.345 331.389375)scale(0.08 -0.08)">
    <defs>
     <path d="M 422 0 
L 422 4581 
L 984 4581 
L 984 2938 
Q 1378 3394 1978 3394 
Q 2347 3394 2619 3248 
Q 2891 3103 3008 2847 
Q 3125 2591 3125 2103 
L 3125 0 
L 2563 0 
L 2563 2103 
Q 2563 2525 2380 2717 
Q 2197 2909 1863 2909 
Q 1613 2909 1392 2779 
Q 1172 2650 1078 2428 
Q 984 2206 984 1816 
L 984 0 
L 422 0 
z
" id="ArialMT-68" transform="scale(0.015625)"/>
     <path d="M 422 -1272 
L 422 3319 
L 934 3319 
L 934 2888 
Q 1116 3141 1344 3267 
Q 1572 3394 1897 3394 
Q 2322 3394 2647 3175 
Q 2972 2956 3137 2557 
Q 3303 2159 3303 1684 
Q 3303 1175 3120 767 
Q 2938 359 2589 142 
Q 2241 -75 1856 -75 
Q 1575 -75 1351 44 
Q 1128 163 984 344 
L 984 -1272 
L 422 -1272 
z
M 931 1641 
Q 931 1000 1190 694 
Q 1450 388 1819 388 
Q 2194 388 2461 705 
Q 2728 1022 2728 1688 
Q 2728 2322 2467 2637 
Q 2206 2953 1844 2953 
Q 1484 2953 1207 2617 
Q 931 2281 931 1641 
z
" id="ArialMT-70" transform="scale(0.015625)"/>
     <path d="M 578 2678 
L 578 3319 
L 1219 3319 
L 1219 2678 
L 578 2678 
z
M 578 0 
L 578 641 
L 1219 641 
L 1219 0 
L 578 0 
z
" id="ArialMT-3a" transform="scale(0.015625)"/>
     <path d="M 419 3928 
L 419 4581 
L 981 4581 
L 981 3928 
L 419 3928 
z
M -294 -1288 
L -188 -809 
Q -19 -853 78 -853 
Q 250 -853 334 -739 
Q 419 -625 419 -169 
L 419 3319 
L 981 3319 
L 981 -181 
Q 981 -794 822 -1034 
Q 619 -1347 147 -1347 
Q -81 -1347 -294 -1288 
z
" id="ArialMT-6a" transform="scale(0.015625)"/>
     <path d="M 1344 0 
L 81 3319 
L 675 3319 
L 1388 1331 
Q 1503 1009 1600 663 
Q 1675 925 1809 1294 
L 2547 3319 
L 3125 3319 
L 1869 0 
L 1344 0 
z
" id="ArialMT-76" transform="scale(0.015625)"/>
     <path d="M 581 0 
L 581 641 
L 1222 641 
L 1222 0 
L 581 0 
z
" id="ArialMT-2e" transform="scale(0.015625)"/>
     <path d="M 319 -275 
L 866 -356 
Q 900 -609 1056 -725 
Q 1266 -881 1628 -881 
Q 2019 -881 2231 -725 
Q 2444 -569 2519 -288 
Q 2563 -116 2559 434 
Q 2191 0 1641 0 
Q 956 0 581 494 
Q 206 988 206 1678 
Q 206 2153 378 2554 
Q 550 2956 876 3175 
Q 1203 3394 1644 3394 
Q 2231 3394 2613 2919 
L 2613 3319 
L 3131 3319 
L 3131 450 
Q 3131 -325 2973 -648 
Q 2816 -972 2473 -1159 
Q 2131 -1347 1631 -1347 
Q 1038 -1347 672 -1080 
Q 306 -813 319 -275 
z
M 784 1719 
Q 784 1066 1043 766 
Q 1303 466 1694 466 
Q 2081 466 2343 764 
Q 2606 1063 2606 1700 
Q 2606 2309 2336 2618 
Q 2066 2928 1684 2928 
Q 1309 2928 1046 2623 
Q 784 2319 784 1719 
z
" id="ArialMT-67" transform="scale(0.015625)"/>
     <path d="M 941 0 
L 419 0 
L 419 4581 
L 981 4581 
L 981 2947 
Q 1338 3394 1891 3394 
Q 2197 3394 2470 3270 
Q 2744 3147 2920 2923 
Q 3097 2700 3197 2384 
Q 3297 2069 3297 1709 
Q 3297 856 2875 390 
Q 2453 -75 1863 -75 
Q 1275 -75 941 416 
L 941 0 
z
M 934 1684 
Q 934 1088 1097 822 
Q 1363 388 1816 388 
Q 2184 388 2453 708 
Q 2722 1028 2722 1663 
Q 2722 2313 2464 2622 
Q 2206 2931 1841 2931 
Q 1472 2931 1203 2611 
Q 934 2291 934 1684 
z
" id="ArialMT-62" transform="scale(0.015625)"/>
     <path d="M 2588 1216 
L 3141 1144 
Q 3050 572 2676 248 
Q 2303 -75 1759 -75 
Q 1078 -75 664 370 
Q 250 816 250 1647 
Q 250 2184 428 2587 
Q 606 2991 970 3192 
Q 1334 3394 1763 3394 
Q 2303 3394 2647 3120 
Q 2991 2847 3088 2344 
L 2541 2259 
Q 2463 2594 2264 2762 
Q 2066 2931 1784 2931 
Q 1359 2931 1093 2626 
Q 828 2322 828 1663 
Q 828 994 1084 691 
Q 1341 388 1753 388 
Q 2084 388 2306 591 
Q 2528 794 2588 1216 
z
" id="ArialMT-63" transform="scale(0.015625)"/>
    </defs>
    <use xlink:href="#ArialMT-68"/>
    <use x="55.615234" xlink:href="#ArialMT-74"/>
    <use x="83.398438" xlink:href="#ArialMT-74"/>
    <use x="111.181641" xlink:href="#ArialMT-70"/>
    <use x="166.796875" xlink:href="#ArialMT-73"/>
    <use x="216.796875" xlink:href="#ArialMT-3a"/>
    <use x="244.580078" xlink:href="#ArialMT-2f"/>
    <use x="272.363281" xlink:href="#ArialMT-2f"/>
    <use x="300.146484" xlink:href="#ArialMT-6a"/>
    <use x="322.363281" xlink:href="#ArialMT-6d"/>
    <use x="405.664062" xlink:href="#ArialMT-73"/>
    <use x="455.664062" xlink:href="#ArialMT-76"/>
    <use x="505.664062" xlink:href="#ArialMT-61"/>
    <use x="561.279297" xlink:href="#ArialMT-7a"/>
    <use x="611.279297" xlink:href="#ArialMT-2e"/>
    <use x="639.0625" xlink:href="#ArialMT-67"/>
    <use x="694.677734" xlink:href="#ArialMT-69"/>
    <use x="716.894531" xlink:href="#ArialMT-74"/>
    <use x="744.677734" xlink:href="#ArialMT-68"/>
    <use x="800.292969" xlink:href="#ArialMT-75"/>
    <use x="855.908203" xlink:href="#ArialMT-62"/>
    <use x="911.523438" xlink:href="#ArialMT-2e"/>
    <use x="939.306641" xlink:href="#ArialMT-69"/>
    <use x="961.523438" xlink:href="#ArialMT-6f"/>
    <use x="1017.138672" xlink:href="#ArialMT-2f"/>
    <use x="1044.921875" xlink:href="#ArialMT-63"/>
    <use x="1094.921875" xlink:href="#ArialMT-6f"/>
    <use x="1150.537109" xlink:href="#ArialMT-76"/>
    <use x="1200.537109" xlink:href="#ArialMT-69"/>
    <use x="1222.753906" xlink:href="#ArialMT-64"/>
    <use x="1278.369141" xlink:href="#ArialMT-73"/>
    <use x="1328.369141" xlink:href="#ArialMT-61"/>
    <use x="1383.984375" xlink:href="#ArialMT-6e"/>
    <use x="1439.599609" xlink:href="#ArialMT-74"/>
    <use x="1467.382812" xlink:href="#ArialMT-6f"/>
    <use x="1522.998047" xlink:href="#ArialMT-73"/>
    <use x="1572.998047" xlink:href="#ArialMT-2f"/>
   </g>
  </g>
 </g>
 <defs>
  <clipPath id="pc286d03a20">
   <rect height="277.2" width="558" x="82.8" y="21.789375"/>
  </clipPath>
 </defs>
</svg>
