<?xml version="1.0" encoding="utf-8" standalone="no"?>
<!DOCTYPE svg PUBLIC "-//W3C//DTD SVG 1.1//EN"
  "http://www.w3.org/Graphics/SVG/1.1/DTD/svg11.dtd">
<!-- Created with matplotlib (https://matplotlib.org/) -->
<svg height="323.41875pt" version="1.1" viewBox="0 0 598.4875 323.41875" width="598.4875pt" xmlns="http://www.w3.org/2000/svg" xmlns:xlink="http://www.w3.org/1999/xlink">
 <metadata>
  <rdf:RDF xmlns:cc="http://creativecommons.org/ns#" xmlns:dc="http://purl.org/dc/elements/1.1/" xmlns:rdf="http://www.w3.org/1999/02/22-rdf-syntax-ns#">
   <cc:Work>
    <dc:type rdf:resource="http://purl.org/dc/dcmitype/StillImage"/>
    <dc:date>2021-02-28T14:46:08.114052</dc:date>
    <dc:format>image/svg+xml</dc:format>
    <dc:creator>
     <cc:Agent>
      <dc:title>Matplotlib v3.3.4, https://matplotlib.org/</dc:title>
     </cc:Agent>
    </dc:creator>
   </cc:Work>
  </rdf:RDF>
 </metadata>
 <defs>
  <style type="text/css">*{stroke-linecap:butt;stroke-linejoin:round;}</style>
 </defs>
 <g id="figure_1">
  <g id="patch_1">
   <path d="M 0 323.41875 
L 598.4875 323.41875 
L 598.4875 0 
L 0 0 
z
" style="fill:#ffffff;"/>
  </g>
  <g id="axes_1">
   <g id="patch_2">
    <path d="M 33.2875 299.540625 
L 591.2875 299.540625 
L 591.2875 22.340625 
L 33.2875 22.340625 
z
" style="fill:#ffffff;"/>
   </g>
   <g id="matplotlib.axis_1">
    <g id="xtick_1">
     <g id="line2d_1">
      <defs>
       <path d="M 0 0 
L 0 3.5 
" id="meff733b002" style="stroke:#000000;stroke-width:0.8;"/>
      </defs>
      <g>
       <use style="stroke:#000000;stroke-width:0.8;" x="122.060227" xlink:href="#meff733b002" y="299.540625"/>
      </g>
     </g>
     <g id="text_1">
      <!-- 2020-05 -->
      <g transform="translate(101.168821 314.139063)scale(0.1 -0.1)">
       <defs>
        <path d="M 19.1875 8.296875 
L 53.609375 8.296875 
L 53.609375 0 
L 7.328125 0 
L 7.328125 8.296875 
Q 12.9375 14.109375 22.625 23.890625 
Q 32.328125 33.6875 34.8125 36.53125 
Q 39.546875 41.84375 41.421875 45.53125 
Q 43.3125 49.21875 43.3125 52.78125 
Q 43.3125 58.59375 39.234375 62.25 
Q 35.15625 65.921875 28.609375 65.921875 
Q 23.96875 65.921875 18.8125 64.3125 
Q 13.671875 62.703125 7.8125 59.421875 
L 7.8125 69.390625 
Q 13.765625 71.78125 18.9375 73 
Q 24.125 74.21875 28.421875 74.21875 
Q 39.75 74.21875 46.484375 68.546875 
Q 53.21875 62.890625 53.21875 53.421875 
Q 53.21875 48.921875 51.53125 44.890625 
Q 49.859375 40.875 45.40625 35.40625 
Q 44.1875 33.984375 37.640625 27.21875 
Q 31.109375 20.453125 19.1875 8.296875 
z
" id="DejaVuSans-50"/>
        <path d="M 31.78125 66.40625 
Q 24.171875 66.40625 20.328125 58.90625 
Q 16.5 51.421875 16.5 36.375 
Q 16.5 21.390625 20.328125 13.890625 
Q 24.171875 6.390625 31.78125 6.390625 
Q 39.453125 6.390625 43.28125 13.890625 
Q 47.125 21.390625 47.125 36.375 
Q 47.125 51.421875 43.28125 58.90625 
Q 39.453125 66.40625 31.78125 66.40625 
z
M 31.78125 74.21875 
Q 44.046875 74.21875 50.515625 64.515625 
Q 56.984375 54.828125 56.984375 36.375 
Q 56.984375 17.96875 50.515625 8.265625 
Q 44.046875 -1.421875 31.78125 -1.421875 
Q 19.53125 -1.421875 13.0625 8.265625 
Q 6.59375 17.96875 6.59375 36.375 
Q 6.59375 54.828125 13.0625 64.515625 
Q 19.53125 74.21875 31.78125 74.21875 
z
" id="DejaVuSans-48"/>
        <path d="M 4.890625 31.390625 
L 31.203125 31.390625 
L 31.203125 23.390625 
L 4.890625 23.390625 
z
" id="DejaVuSans-45"/>
        <path d="M 10.796875 72.90625 
L 49.515625 72.90625 
L 49.515625 64.59375 
L 19.828125 64.59375 
L 19.828125 46.734375 
Q 21.96875 47.46875 24.109375 47.828125 
Q 26.265625 48.1875 28.421875 48.1875 
Q 40.625 48.1875 47.75 41.5 
Q 54.890625 34.8125 54.890625 23.390625 
Q 54.890625 11.625 47.5625 5.09375 
Q 40.234375 -1.421875 26.90625 -1.421875 
Q 22.3125 -1.421875 17.546875 -0.640625 
Q 12.796875 0.140625 7.71875 1.703125 
L 7.71875 11.625 
Q 12.109375 9.234375 16.796875 8.0625 
Q 21.484375 6.890625 26.703125 6.890625 
Q 35.15625 6.890625 40.078125 11.328125 
Q 45.015625 15.765625 45.015625 23.390625 
Q 45.015625 31 40.078125 35.4375 
Q 35.15625 39.890625 26.703125 39.890625 
Q 22.75 39.890625 18.8125 39.015625 
Q 14.890625 38.140625 10.796875 36.28125 
z
" id="DejaVuSans-53"/>
       </defs>
       <use xlink:href="#DejaVuSans-50"/>
       <use x="63.623047" xlink:href="#DejaVuSans-48"/>
       <use x="127.246094" xlink:href="#DejaVuSans-50"/>
       <use x="190.869141" xlink:href="#DejaVuSans-48"/>
       <use x="254.492188" xlink:href="#DejaVuSans-45"/>
       <use x="290.576172" xlink:href="#DejaVuSans-48"/>
       <use x="354.199219" xlink:href="#DejaVuSans-53"/>
      </g>
     </g>
    </g>
    <g id="xtick_2">
     <g id="line2d_2">
      <g>
       <use style="stroke:#000000;stroke-width:0.8;" x="212.012659" xlink:href="#meff733b002" y="299.540625"/>
      </g>
     </g>
     <g id="text_2">
      <!-- 2020-07 -->
      <g transform="translate(191.121252 314.139063)scale(0.1 -0.1)">
       <defs>
        <path d="M 8.203125 72.90625 
L 55.078125 72.90625 
L 55.078125 68.703125 
L 28.609375 0 
L 18.3125 0 
L 43.21875 64.59375 
L 8.203125 64.59375 
z
" id="DejaVuSans-55"/>
       </defs>
       <use xlink:href="#DejaVuSans-50"/>
       <use x="63.623047" xlink:href="#DejaVuSans-48"/>
       <use x="127.246094" xlink:href="#DejaVuSans-50"/>
       <use x="190.869141" xlink:href="#DejaVuSans-48"/>
       <use x="254.492188" xlink:href="#DejaVuSans-45"/>
       <use x="290.576172" xlink:href="#DejaVuSans-48"/>
       <use x="354.199219" xlink:href="#DejaVuSans-55"/>
      </g>
     </g>
    </g>
    <g id="xtick_3">
     <g id="line2d_3">
      <g>
       <use style="stroke:#000000;stroke-width:0.8;" x="303.43972" xlink:href="#meff733b002" y="299.540625"/>
      </g>
     </g>
     <g id="text_3">
      <!-- 2020-09 -->
      <g transform="translate(282.548314 314.139063)scale(0.1 -0.1)">
       <defs>
        <path d="M 10.984375 1.515625 
L 10.984375 10.5 
Q 14.703125 8.734375 18.5 7.8125 
Q 22.3125 6.890625 25.984375 6.890625 
Q 35.75 6.890625 40.890625 13.453125 
Q 46.046875 20.015625 46.78125 33.40625 
Q 43.953125 29.203125 39.59375 26.953125 
Q 35.25 24.703125 29.984375 24.703125 
Q 19.046875 24.703125 12.671875 31.3125 
Q 6.296875 37.9375 6.296875 49.421875 
Q 6.296875 60.640625 12.9375 67.421875 
Q 19.578125 74.21875 30.609375 74.21875 
Q 43.265625 74.21875 49.921875 64.515625 
Q 56.59375 54.828125 56.59375 36.375 
Q 56.59375 19.140625 48.40625 8.859375 
Q 40.234375 -1.421875 26.421875 -1.421875 
Q 22.703125 -1.421875 18.890625 -0.6875 
Q 15.09375 0.046875 10.984375 1.515625 
z
M 30.609375 32.421875 
Q 37.25 32.421875 41.125 36.953125 
Q 45.015625 41.5 45.015625 49.421875 
Q 45.015625 57.28125 41.125 61.84375 
Q 37.25 66.40625 30.609375 66.40625 
Q 23.96875 66.40625 20.09375 61.84375 
Q 16.21875 57.28125 16.21875 49.421875 
Q 16.21875 41.5 20.09375 36.953125 
Q 23.96875 32.421875 30.609375 32.421875 
z
" id="DejaVuSans-57"/>
       </defs>
       <use xlink:href="#DejaVuSans-50"/>
       <use x="63.623047" xlink:href="#DejaVuSans-48"/>
       <use x="127.246094" xlink:href="#DejaVuSans-50"/>
       <use x="190.869141" xlink:href="#DejaVuSans-48"/>
       <use x="254.492188" xlink:href="#DejaVuSans-45"/>
       <use x="290.576172" xlink:href="#DejaVuSans-48"/>
       <use x="354.199219" xlink:href="#DejaVuSans-57"/>
      </g>
     </g>
    </g>
    <g id="xtick_4">
     <g id="line2d_4">
      <g>
       <use style="stroke:#000000;stroke-width:0.8;" x="393.392151" xlink:href="#meff733b002" y="299.540625"/>
      </g>
     </g>
     <g id="text_4">
      <!-- 2020-11 -->
      <g transform="translate(372.500745 314.139063)scale(0.1 -0.1)">
       <defs>
        <path d="M 12.40625 8.296875 
L 28.515625 8.296875 
L 28.515625 63.921875 
L 10.984375 60.40625 
L 10.984375 69.390625 
L 28.421875 72.90625 
L 38.28125 72.90625 
L 38.28125 8.296875 
L 54.390625 8.296875 
L 54.390625 0 
L 12.40625 0 
z
" id="DejaVuSans-49"/>
       </defs>
       <use xlink:href="#DejaVuSans-50"/>
       <use x="63.623047" xlink:href="#DejaVuSans-48"/>
       <use x="127.246094" xlink:href="#DejaVuSans-50"/>
       <use x="190.869141" xlink:href="#DejaVuSans-48"/>
       <use x="254.492188" xlink:href="#DejaVuSans-45"/>
       <use x="290.576172" xlink:href="#DejaVuSans-49"/>
       <use x="354.199219" xlink:href="#DejaVuSans-49"/>
      </g>
     </g>
    </g>
    <g id="xtick_5">
     <g id="line2d_5">
      <g>
       <use style="stroke:#000000;stroke-width:0.8;" x="483.344582" xlink:href="#meff733b002" y="299.540625"/>
      </g>
     </g>
     <g id="text_5">
      <!-- 2021-01 -->
      <g transform="translate(462.453176 314.139063)scale(0.1 -0.1)">
       <use xlink:href="#DejaVuSans-50"/>
       <use x="63.623047" xlink:href="#DejaVuSans-48"/>
       <use x="127.246094" xlink:href="#DejaVuSans-50"/>
       <use x="190.869141" xlink:href="#DejaVuSans-49"/>
       <use x="254.492188" xlink:href="#DejaVuSans-45"/>
       <use x="290.576172" xlink:href="#DejaVuSans-48"/>
       <use x="354.199219" xlink:href="#DejaVuSans-49"/>
      </g>
     </g>
    </g>
    <g id="xtick_6">
     <g id="line2d_6">
      <g>
       <use style="stroke:#000000;stroke-width:0.8;" x="570.347754" xlink:href="#meff733b002" y="299.540625"/>
      </g>
     </g>
     <g id="text_6">
      <!-- 2021-03 -->
      <g transform="translate(549.456347 314.139063)scale(0.1 -0.1)">
       <defs>
        <path d="M 40.578125 39.3125 
Q 47.65625 37.796875 51.625 33 
Q 55.609375 28.21875 55.609375 21.1875 
Q 55.609375 10.40625 48.1875 4.484375 
Q 40.765625 -1.421875 27.09375 -1.421875 
Q 22.515625 -1.421875 17.65625 -0.515625 
Q 12.796875 0.390625 7.625 2.203125 
L 7.625 11.71875 
Q 11.71875 9.328125 16.59375 8.109375 
Q 21.484375 6.890625 26.8125 6.890625 
Q 36.078125 6.890625 40.9375 10.546875 
Q 45.796875 14.203125 45.796875 21.1875 
Q 45.796875 27.640625 41.28125 31.265625 
Q 36.765625 34.90625 28.71875 34.90625 
L 20.21875 34.90625 
L 20.21875 43.015625 
L 29.109375 43.015625 
Q 36.375 43.015625 40.234375 45.921875 
Q 44.09375 48.828125 44.09375 54.296875 
Q 44.09375 59.90625 40.109375 62.90625 
Q 36.140625 65.921875 28.71875 65.921875 
Q 24.65625 65.921875 20.015625 65.03125 
Q 15.375 64.15625 9.8125 62.3125 
L 9.8125 71.09375 
Q 15.4375 72.65625 20.34375 73.4375 
Q 25.25 74.21875 29.59375 74.21875 
Q 40.828125 74.21875 47.359375 69.109375 
Q 53.90625 64.015625 53.90625 55.328125 
Q 53.90625 49.265625 50.4375 45.09375 
Q 46.96875 40.921875 40.578125 39.3125 
z
" id="DejaVuSans-51"/>
       </defs>
       <use xlink:href="#DejaVuSans-50"/>
       <use x="63.623047" xlink:href="#DejaVuSans-48"/>
       <use x="127.246094" xlink:href="#DejaVuSans-50"/>
       <use x="190.869141" xlink:href="#DejaVuSans-49"/>
       <use x="254.492188" xlink:href="#DejaVuSans-45"/>
       <use x="290.576172" xlink:href="#DejaVuSans-48"/>
       <use x="354.199219" xlink:href="#DejaVuSans-51"/>
      </g>
     </g>
    </g>
   </g>
   <g id="matplotlib.axis_2">
    <g id="ytick_1">
     <g id="line2d_7">
      <defs>
       <path d="M 0 0 
L -3.5 0 
" id="m6b2d197c9e" style="stroke:#000000;stroke-width:0.8;"/>
      </defs>
      <g>
       <use style="stroke:#000000;stroke-width:0.8;" x="33.2875" xlink:href="#m6b2d197c9e" y="286.940625"/>
      </g>
     </g>
     <g id="text_7">
      <!-- 0 -->
      <g transform="translate(19.925 290.739844)scale(0.1 -0.1)">
       <use xlink:href="#DejaVuSans-48"/>
      </g>
     </g>
    </g>
    <g id="ytick_2">
     <g id="line2d_8">
      <g>
       <use style="stroke:#000000;stroke-width:0.8;" x="33.2875" xlink:href="#m6b2d197c9e" y="234.874509"/>
      </g>
     </g>
     <g id="text_8">
      <!-- 50 -->
      <g transform="translate(13.5625 238.673728)scale(0.1 -0.1)">
       <use xlink:href="#DejaVuSans-53"/>
       <use x="63.623047" xlink:href="#DejaVuSans-48"/>
      </g>
     </g>
    </g>
    <g id="ytick_3">
     <g id="line2d_9">
      <g>
       <use style="stroke:#000000;stroke-width:0.8;" x="33.2875" xlink:href="#m6b2d197c9e" y="182.808394"/>
      </g>
     </g>
     <g id="text_9">
      <!-- 100 -->
      <g transform="translate(7.2 186.607612)scale(0.1 -0.1)">
       <use xlink:href="#DejaVuSans-49"/>
       <use x="63.623047" xlink:href="#DejaVuSans-48"/>
       <use x="127.246094" xlink:href="#DejaVuSans-48"/>
      </g>
     </g>
    </g>
    <g id="ytick_4">
     <g id="line2d_10">
      <g>
       <use style="stroke:#000000;stroke-width:0.8;" x="33.2875" xlink:href="#m6b2d197c9e" y="130.742278"/>
      </g>
     </g>
     <g id="text_10">
      <!-- 150 -->
      <g transform="translate(7.2 134.541497)scale(0.1 -0.1)">
       <use xlink:href="#DejaVuSans-49"/>
       <use x="63.623047" xlink:href="#DejaVuSans-53"/>
       <use x="127.246094" xlink:href="#DejaVuSans-48"/>
      </g>
     </g>
    </g>
    <g id="ytick_5">
     <g id="line2d_11">
      <g>
       <use style="stroke:#000000;stroke-width:0.8;" x="33.2875" xlink:href="#m6b2d197c9e" y="78.676162"/>
      </g>
     </g>
     <g id="text_11">
      <!-- 200 -->
      <g transform="translate(7.2 82.475381)scale(0.1 -0.1)">
       <use xlink:href="#DejaVuSans-50"/>
       <use x="63.623047" xlink:href="#DejaVuSans-48"/>
       <use x="127.246094" xlink:href="#DejaVuSans-48"/>
      </g>
     </g>
    </g>
    <g id="ytick_6">
     <g id="line2d_12">
      <g>
       <use style="stroke:#000000;stroke-width:0.8;" x="33.2875" xlink:href="#m6b2d197c9e" y="26.610046"/>
      </g>
     </g>
     <g id="text_12">
      <!-- 250 -->
      <g transform="translate(7.2 30.409265)scale(0.1 -0.1)">
       <use xlink:href="#DejaVuSans-50"/>
       <use x="63.623047" xlink:href="#DejaVuSans-53"/>
       <use x="127.246094" xlink:href="#DejaVuSans-48"/>
      </g>
     </g>
    </g>
   </g>
   <g id="line2d_13">
    <path clip-path="url(#pbb4c9fe5bc)" d="M 58.651136 275.48608 
L 60.125766 275.48608 
L 61.600396 273.403435 
L 63.075026 273.403435 
L 64.549656 262.990212 
L 66.024286 244.24641 
L 67.498916 243.205088 
L 68.973547 239.039799 
L 70.448177 232.791865 
L 71.922807 231.750542 
L 73.397437 231.750542 
L 74.872067 230.70922 
L 76.346697 226.543931 
L 77.821327 203.63484 
L 79.295957 201.552195 
L 80.770587 201.552195 
L 82.245217 170.312526 
L 83.719847 168.229881 
L 85.194477 186.973683 
L 86.669107 181.767071 
L 88.143737 173.436493 
L 89.618367 171.353848 
L 91.092997 167.188559 
L 92.567627 167.188559 
L 94.042257 165.105914 
L 95.516887 149.48608 
L 96.991517 147.403435 
L 98.466147 152.610046 
L 99.940777 134.907567 
L 101.415407 130.742278 
L 102.890037 127.618311 
L 104.364667 122.411699 
L 105.839297 135.948889 
L 107.313927 135.948889 
L 108.788557 131.7836 
L 110.263187 123.453022 
L 111.737817 88.048063 
L 113.212447 85.965418 
L 114.687077 134.907567 
L 116.161707 138.031534 
L 117.636337 142.196823 
L 119.110967 134.907567 
L 120.585597 142.196823 
L 122.060227 130.742278 
L 123.534857 124.494344 
L 125.009487 125.535666 
L 126.484117 122.411699 
L 127.958747 114.081121 
L 129.433377 109.915832 
L 130.908007 116.163765 
L 132.382637 120.329055 
L 133.857267 114.081121 
L 135.331897 109.915832 
L 136.806527 115.122443 
L 138.281158 93.254675 
L 139.755788 102.626575 
L 141.230418 98.461286 
L 142.705048 93.254675 
L 144.179678 101.585253 
L 145.654308 85.965418 
L 147.128938 83.882774 
L 148.603568 87.006741 
L 150.078198 76.593518 
L 151.552828 80.758807 
L 153.027458 83.882774 
L 154.502088 85.965418 
L 155.976718 82.841451 
L 157.451348 81.800129 
L 158.925978 75.552195 
L 160.400608 77.63484 
L 161.875238 78.676162 
L 163.349868 62.015005 
L 164.824498 60.973683 
L 166.299128 63.056327 
L 167.773758 70.345584 
L 169.248388 70.345584 
L 170.723018 69.304261 
L 172.197648 67.221617 
L 173.672278 60.973683 
L 175.146908 60.973683 
L 176.621538 44.312526 
L 178.096168 51.601782 
L 179.570798 42.229881 
L 181.045428 49.519137 
L 182.520058 39.105914 
L 183.994688 43.271204 
L 185.469318 34.940625 
L 186.943948 47.436493 
L 188.418578 57.849716 
L 189.893208 60.973683 
L 191.367838 66.180294 
L 192.842468 72.428228 
L 194.317098 68.262939 
L 195.791728 60.973683 
L 197.266358 59.932361 
L 198.740988 55.767071 
L 200.215618 62.015005 
L 201.690248 78.676162 
L 203.164878 80.758807 
L 204.639508 73.469551 
L 206.114138 77.63484 
L 207.588768 87.006741 
L 209.063399 91.17203 
L 210.538029 99.502608 
L 212.012659 99.502608 
L 213.487289 107.833187 
L 214.961919 97.419964 
L 216.436549 102.626575 
L 217.911179 104.70922 
L 219.385809 108.874509 
L 220.860439 96.378642 
L 222.335069 119.287732 
L 223.809699 116.163765 
L 225.284329 115.122443 
L 226.758959 121.370377 
L 228.233589 128.659633 
L 229.708219 126.576989 
L 231.182849 98.461286 
L 232.657479 115.122443 
L 234.132109 103.667898 
L 235.606739 96.378642 
L 237.081369 107.833187 
L 238.555999 104.70922 
L 241.505259 110.957154 
L 242.979889 104.70922 
L 244.454519 108.874509 
L 245.929149 102.626575 
L 247.403779 104.70922 
L 250.353039 110.957154 
L 251.827669 117.205088 
L 253.302299 127.618311 
L 254.776929 130.742278 
L 256.251559 131.7836 
L 257.726189 136.990212 
L 259.200819 140.114179 
L 260.675449 136.990212 
L 262.150079 146.362113 
L 263.624709 151.568724 
L 265.099339 163.02327 
L 266.573969 159.899303 
L 268.048599 161.981947 
L 269.523229 179.684427 
L 270.997859 172.39517 
L 272.472489 177.601782 
L 273.947119 183.849716 
L 275.421749 179.684427 
L 276.896379 178.643104 
L 278.37101 174.477815 
L 279.84564 172.39517 
L 281.32027 171.353848 
L 282.7949 153.651369 
L 284.26953 165.105914 
L 287.21879 177.601782 
L 288.69342 174.477815 
L 290.16805 188.015005 
L 291.64268 189.056327 
L 293.11731 185.932361 
L 294.59194 189.056327 
L 296.06657 194.262939 
L 297.5412 185.932361 
L 299.01583 197.386906 
L 300.49046 177.601782 
L 301.96509 164.064592 
L 303.43972 161.981947 
L 304.91435 167.188559 
L 306.38898 169.271204 
L 307.86361 169.271204 
L 309.33824 172.39517 
L 310.81287 172.39517 
L 312.2875 183.849716 
L 313.76213 181.767071 
L 315.23676 168.229881 
L 316.71139 172.39517 
L 318.18602 168.229881 
L 319.66065 167.188559 
L 321.13528 168.229881 
L 322.60991 172.39517 
L 325.55917 184.891038 
L 327.0338 185.932361 
L 328.50843 182.808394 
L 329.98306 180.725749 
L 332.93232 182.808394 
L 334.40695 192.180294 
L 335.88158 192.180294 
L 337.35621 210.924096 
L 338.83084 207.800129 
L 340.30547 205.717485 
L 341.7801 199.469551 
L 343.25473 197.386906 
L 344.72936 198.428228 
L 346.20399 194.262939 
L 347.678621 199.469551 
L 349.153251 198.428228 
L 350.627881 192.180294 
L 352.102511 194.262939 
L 353.577141 195.304261 
L 355.051771 188.015005 
L 356.526401 182.808394 
L 358.001031 185.932361 
L 359.475661 181.767071 
L 360.950291 184.891038 
L 362.424921 180.725749 
L 363.899551 188.015005 
L 365.374181 189.056327 
L 366.848811 188.015005 
L 368.323441 184.891038 
L 369.798071 186.973683 
L 371.272701 191.138972 
L 372.747331 190.09765 
L 374.221961 190.09765 
L 375.696591 185.932361 
L 377.171221 177.601782 
L 378.645851 174.477815 
L 380.120481 175.519137 
L 381.595111 178.643104 
L 383.069741 173.436493 
L 384.544371 173.436493 
L 386.019001 170.312526 
L 387.493631 160.940625 
L 388.968261 163.02327 
L 390.442891 158.85798 
L 391.917521 158.85798 
L 393.392151 154.692691 
L 394.866781 149.48608 
L 396.341411 141.155501 
L 397.816041 152.610046 
L 399.290671 159.899303 
L 400.765301 152.610046 
L 402.239931 144.279468 
L 403.714561 148.444757 
L 405.189191 139.072856 
L 406.663821 132.824923 
L 408.138451 119.287732 
L 409.613081 121.370377 
L 411.087711 125.535666 
L 412.562341 131.7836 
L 414.036971 130.742278 
L 415.511601 124.494344 
L 416.986232 125.535666 
L 418.460862 103.667898 
L 419.935492 98.461286 
L 421.410122 101.585253 
L 422.884752 82.841451 
L 424.359382 83.882774 
L 425.834012 90.130708 
L 427.308642 81.800129 
L 428.783272 74.510873 
L 430.257902 74.510873 
L 431.732532 77.63484 
L 433.207162 68.262939 
L 434.681792 82.841451 
L 436.156422 88.048063 
L 437.631052 95.337319 
L 439.105682 84.924096 
L 440.580312 87.006741 
L 442.054942 97.419964 
L 443.529572 92.213352 
L 445.004202 106.791865 
L 446.478832 119.287732 
L 447.953462 106.791865 
L 449.428092 88.048063 
L 450.902722 104.70922 
L 452.377352 99.502608 
L 453.851982 97.419964 
L 455.326612 106.791865 
L 459.750502 128.659633 
L 461.225132 126.576989 
L 462.699762 125.535666 
L 464.174392 132.824923 
L 465.649022 138.031534 
L 467.123652 131.7836 
L 468.598282 127.618311 
L 470.072912 127.618311 
L 471.547542 133.866245 
L 473.022172 143.238146 
L 474.496802 146.362113 
L 475.971432 138.031534 
L 477.446062 136.990212 
L 478.920692 130.742278 
L 480.395322 133.866245 
L 481.869952 131.7836 
L 483.344582 145.32079 
L 484.819212 141.155501 
L 486.293842 150.527402 
L 487.768473 164.064592 
L 489.243103 161.981947 
L 490.717733 160.940625 
L 492.192363 163.02327 
L 493.666993 157.816658 
L 496.616253 159.899303 
L 498.090883 146.362113 
L 499.565513 150.527402 
L 501.040143 139.072856 
L 502.514773 140.114179 
L 503.989403 134.907567 
L 506.938663 147.403435 
L 508.413293 138.031534 
L 509.887923 142.196823 
L 511.362553 150.527402 
L 512.837183 161.981947 
L 514.311813 152.610046 
L 515.786443 157.816658 
L 517.261073 153.651369 
L 518.735703 167.188559 
L 520.210333 173.436493 
L 521.684963 160.940625 
L 523.159593 169.271204 
L 524.634223 163.02327 
L 526.108853 170.312526 
L 527.583483 173.436493 
L 529.058113 160.940625 
L 530.532743 159.899303 
L 532.007373 155.734013 
L 533.482003 163.02327 
L 534.956633 161.981947 
L 536.431263 163.02327 
L 537.905893 168.229881 
L 539.380523 172.39517 
L 540.855153 181.767071 
L 542.329783 182.808394 
L 543.804413 180.725749 
L 545.279043 176.56046 
L 546.753673 191.138972 
L 548.228303 190.09765 
L 549.702933 176.56046 
L 551.177563 172.39517 
L 552.652193 188.015005 
L 554.126823 188.015005 
L 555.601453 183.849716 
L 557.076084 186.973683 
L 558.550714 180.725749 
L 560.025344 171.353848 
L 561.499974 165.105914 
L 562.974604 169.271204 
L 564.449234 155.734013 
L 565.923864 156.775336 
L 565.923864 156.775336 
" style="fill:none;stroke:#1f77b4;stroke-linecap:square;stroke-width:1.5;"/>
   </g>
   <g id="line2d_14">
    <path clip-path="url(#pbb4c9fe5bc)" d="M 58.651136 286.940625 
L 60.125766 286.940625 
L 61.600396 279.651369 
L 63.075026 279.651369 
L 64.549656 277.568724 
L 66.024286 267.155501 
L 67.498916 268.196823 
L 68.973547 264.031534 
L 74.872067 264.031534 
L 76.346697 265.072856 
L 77.821327 260.907567 
L 79.295957 262.990212 
L 80.770587 261.948889 
L 82.245217 257.7836 
L 83.719847 257.7836 
L 85.194477 252.576989 
L 86.669107 248.411699 
L 88.143737 248.411699 
L 89.618367 253.618311 
L 92.567627 253.618311 
L 94.042257 252.576989 
L 95.516887 247.370377 
L 96.991517 250.494344 
L 98.466147 256.742278 
L 99.940777 248.411699 
L 101.415407 241.122443 
L 102.890037 240.081121 
L 104.364667 230.70922 
L 105.839297 236.957154 
L 107.313927 234.874509 
L 108.788557 230.70922 
L 110.263187 221.337319 
L 111.737817 216.130708 
L 113.212447 213.006741 
L 114.687077 221.337319 
L 116.161707 221.337319 
L 119.110967 225.502608 
L 120.585597 221.337319 
L 122.060227 214.048063 
L 123.534857 210.924096 
L 125.009487 208.841451 
L 126.484117 209.882774 
L 127.958747 202.593518 
L 129.433377 202.593518 
L 130.908007 213.006741 
L 132.382637 215.089385 
L 133.857267 207.800129 
L 135.331897 207.800129 
L 138.281158 211.965418 
L 139.755788 218.213352 
L 141.230418 214.048063 
L 142.705048 210.924096 
L 144.179678 217.17203 
L 145.654308 207.800129 
L 147.128938 207.800129 
L 148.603568 205.717485 
L 150.078198 209.882774 
L 151.552828 203.63484 
L 153.027458 203.63484 
L 154.502088 198.428228 
L 155.976718 199.469551 
L 158.925978 197.386906 
L 160.400608 206.758807 
L 161.875238 209.882774 
L 163.349868 202.593518 
L 164.824498 207.800129 
L 166.299128 202.593518 
L 167.773758 196.345584 
L 169.248388 194.262939 
L 170.723018 193.221617 
L 172.197648 197.386906 
L 173.672278 194.262939 
L 175.146908 194.262939 
L 176.621538 188.015005 
L 178.096168 191.138972 
L 179.570798 189.056327 
L 181.045428 189.056327 
L 182.520058 178.643104 
L 183.994688 183.849716 
L 185.469318 191.138972 
L 186.943948 194.262939 
L 188.418578 184.891038 
L 189.893208 191.138972 
L 191.367838 199.469551 
L 192.842468 202.593518 
L 195.791728 200.510873 
L 197.266358 194.262939 
L 198.740988 197.386906 
L 200.215618 195.304261 
L 201.690248 199.469551 
L 203.164878 198.428228 
L 204.639508 199.469551 
L 206.114138 205.717485 
L 207.588768 215.089385 
L 209.063399 214.048063 
L 210.538029 209.882774 
L 212.012659 210.924096 
L 213.487289 215.089385 
L 214.961919 211.965418 
L 216.436549 209.882774 
L 217.911179 210.924096 
L 219.385809 210.924096 
L 220.860439 208.841451 
L 222.335069 218.213352 
L 223.809699 218.213352 
L 225.284329 217.17203 
L 226.758959 221.337319 
L 228.233589 223.419964 
L 229.708219 218.213352 
L 231.182849 210.924096 
L 232.657479 214.048063 
L 234.132109 205.717485 
L 235.606739 209.882774 
L 237.081369 218.213352 
L 238.555999 221.337319 
L 240.030629 219.254675 
L 241.505259 219.254675 
L 242.979889 221.337319 
L 244.454519 214.048063 
L 245.929149 216.130708 
L 247.403779 219.254675 
L 248.878409 219.254675 
L 250.353039 214.048063 
L 251.827669 214.048063 
L 253.302299 220.295997 
L 254.776929 220.295997 
L 256.251559 221.337319 
L 257.726189 225.502608 
L 259.200819 227.585253 
L 260.675449 228.626575 
L 262.150079 231.750542 
L 263.624709 236.957154 
L 265.099339 235.915832 
L 266.573969 231.750542 
L 268.048599 232.791865 
L 269.523229 240.081121 
L 270.997859 240.081121 
L 272.472489 239.039799 
L 273.947119 244.24641 
L 275.421749 243.205088 
L 276.896379 241.122443 
L 278.37101 236.957154 
L 279.84564 239.039799 
L 281.32027 239.039799 
L 282.7949 234.874509 
L 284.26953 242.163765 
L 285.74416 242.163765 
L 287.21879 248.411699 
L 288.69342 245.287732 
L 290.16805 249.453022 
L 291.64268 249.453022 
L 293.11731 250.494344 
L 294.59194 246.329055 
L 297.5412 246.329055 
L 299.01583 251.535666 
L 300.49046 243.205088 
L 301.96509 245.287732 
L 303.43972 240.081121 
L 304.91435 242.163765 
L 306.38898 241.122443 
L 307.86361 242.163765 
L 309.33824 239.039799 
L 310.81287 242.163765 
L 312.2875 244.24641 
L 313.76213 243.205088 
L 315.23676 236.957154 
L 316.71139 239.039799 
L 318.18602 233.833187 
L 319.66065 234.874509 
L 321.13528 241.122443 
L 322.60991 249.453022 
L 324.08454 244.24641 
L 325.55917 244.24641 
L 327.0338 245.287732 
L 328.50843 243.205088 
L 331.45769 245.287732 
L 332.93232 244.24641 
L 334.40695 246.329055 
L 335.88158 253.618311 
L 337.35621 252.576989 
L 338.83084 246.329055 
L 340.30547 247.370377 
L 341.7801 246.329055 
L 343.25473 243.205088 
L 344.72936 241.122443 
L 346.20399 241.122443 
L 347.678621 245.287732 
L 349.153251 247.370377 
L 350.627881 246.329055 
L 353.577141 246.329055 
L 355.051771 245.287732 
L 356.526401 243.205088 
L 358.001031 245.287732 
L 359.475661 246.329055 
L 360.950291 244.24641 
L 362.424921 243.205088 
L 363.899551 248.411699 
L 365.374181 252.576989 
L 366.848811 249.453022 
L 368.323441 252.576989 
L 369.798071 252.576989 
L 371.272701 250.494344 
L 372.747331 253.618311 
L 374.221961 248.411699 
L 375.696591 245.287732 
L 377.171221 244.24641 
L 378.645851 240.081121 
L 383.069741 240.081121 
L 386.019001 235.915832 
L 387.493631 231.750542 
L 388.968261 239.039799 
L 390.442891 239.039799 
L 391.917521 237.998476 
L 393.392151 235.915832 
L 394.866781 231.750542 
L 396.341411 232.791865 
L 399.290671 230.70922 
L 400.765301 228.626575 
L 402.239931 225.502608 
L 403.714561 229.667898 
L 405.189191 217.17203 
L 406.663821 214.048063 
L 408.138451 216.130708 
L 409.613081 215.089385 
L 411.087711 204.676162 
L 412.562341 215.089385 
L 414.036971 214.048063 
L 415.511601 217.17203 
L 416.986232 216.130708 
L 418.460862 205.717485 
L 419.935492 203.63484 
L 421.410122 203.63484 
L 422.884752 190.09765 
L 424.359382 195.304261 
L 425.834012 202.593518 
L 427.308642 197.386906 
L 428.783272 198.428228 
L 430.257902 198.428228 
L 431.732532 200.510873 
L 433.207162 199.469551 
L 434.681792 206.758807 
L 436.156422 207.800129 
L 437.631052 200.510873 
L 439.105682 196.345584 
L 440.580312 198.428228 
L 442.054942 204.676162 
L 443.529572 206.758807 
L 445.004202 204.676162 
L 446.478832 216.130708 
L 447.953462 207.800129 
L 449.428092 207.800129 
L 450.902722 202.593518 
L 452.377352 196.345584 
L 453.851982 200.510873 
L 455.326612 200.510873 
L 456.801242 207.800129 
L 458.275872 210.924096 
L 459.750502 207.800129 
L 461.225132 206.758807 
L 462.699762 210.924096 
L 464.174392 217.17203 
L 465.649022 213.006741 
L 467.123652 209.882774 
L 468.598282 211.965418 
L 470.072912 204.676162 
L 471.547542 211.965418 
L 473.022172 216.130708 
L 474.496802 216.130708 
L 475.971432 204.676162 
L 477.446062 216.130708 
L 478.920692 216.130708 
L 480.395322 221.337319 
L 481.869952 218.213352 
L 483.344582 216.130708 
L 484.819212 218.213352 
L 486.293842 219.254675 
L 487.768473 222.378642 
L 489.243103 224.461286 
L 490.717733 225.502608 
L 492.192363 227.585253 
L 493.666993 225.502608 
L 495.141623 221.337319 
L 496.616253 219.254675 
L 498.090883 213.006741 
L 499.565513 214.048063 
L 501.040143 206.758807 
L 502.514773 204.676162 
L 503.989403 200.510873 
L 505.464033 202.593518 
L 506.938663 205.717485 
L 509.887923 209.882774 
L 511.362553 210.924096 
L 512.837183 214.048063 
L 514.311813 211.965418 
L 515.786443 215.089385 
L 517.261073 207.800129 
L 518.735703 208.841451 
L 520.210333 211.965418 
L 521.684963 210.924096 
L 523.159593 218.213352 
L 527.583483 221.337319 
L 529.058113 217.17203 
L 530.532743 210.924096 
L 532.007373 217.17203 
L 533.482003 213.006741 
L 534.956633 218.213352 
L 536.431263 220.295997 
L 537.905893 226.543931 
L 539.380523 230.70922 
L 540.855153 232.791865 
L 542.329783 229.667898 
L 543.804413 230.70922 
L 545.279043 227.585253 
L 546.753673 237.998476 
L 548.228303 239.039799 
L 549.702933 223.419964 
L 551.177563 228.626575 
L 552.652193 226.543931 
L 554.126823 227.585253 
L 555.601453 222.378642 
L 557.076084 226.543931 
L 558.550714 228.626575 
L 560.025344 225.502608 
L 561.499974 227.585253 
L 562.974604 234.874509 
L 565.923864 222.378642 
L 565.923864 222.378642 
" style="fill:none;stroke:#ff7f0e;stroke-linecap:square;stroke-width:1.5;"/>
   </g>
   <g id="patch_3">
    <path d="M 33.2875 299.540625 
L 33.2875 22.340625 
" style="fill:none;stroke:#000000;stroke-linecap:square;stroke-linejoin:miter;stroke-width:0.8;"/>
   </g>
   <g id="patch_4">
    <path d="M 591.2875 299.540625 
L 591.2875 22.340625 
" style="fill:none;stroke:#000000;stroke-linecap:square;stroke-linejoin:miter;stroke-width:0.8;"/>
   </g>
   <g id="patch_5">
    <path d="M 33.2875 299.540625 
L 591.2875 299.540625 
" style="fill:none;stroke:#000000;stroke-linecap:square;stroke-linejoin:miter;stroke-width:0.8;"/>
   </g>
   <g id="patch_6">
    <path d="M 33.2875 22.340625 
L 591.2875 22.340625 
" style="fill:none;stroke:#000000;stroke-linecap:square;stroke-linejoin:miter;stroke-width:0.8;"/>
   </g>
   <g id="text_13">
    <!-- Internações -->
    <g transform="translate(277.042188 16.340625)scale(0.12 -0.12)">
     <defs>
      <path d="M 9.8125 72.90625 
L 19.671875 72.90625 
L 19.671875 0 
L 9.8125 0 
z
" id="DejaVuSans-73"/>
      <path d="M 54.890625 33.015625 
L 54.890625 0 
L 45.90625 0 
L 45.90625 32.71875 
Q 45.90625 40.484375 42.875 44.328125 
Q 39.84375 48.1875 33.796875 48.1875 
Q 26.515625 48.1875 22.3125 43.546875 
Q 18.109375 38.921875 18.109375 30.90625 
L 18.109375 0 
L 9.078125 0 
L 9.078125 54.6875 
L 18.109375 54.6875 
L 18.109375 46.1875 
Q 21.34375 51.125 25.703125 53.5625 
Q 30.078125 56 35.796875 56 
Q 45.21875 56 50.046875 50.171875 
Q 54.890625 44.34375 54.890625 33.015625 
z
" id="DejaVuSans-110"/>
      <path d="M 18.3125 70.21875 
L 18.3125 54.6875 
L 36.8125 54.6875 
L 36.8125 47.703125 
L 18.3125 47.703125 
L 18.3125 18.015625 
Q 18.3125 11.328125 20.140625 9.421875 
Q 21.96875 7.515625 27.59375 7.515625 
L 36.8125 7.515625 
L 36.8125 0 
L 27.59375 0 
Q 17.1875 0 13.234375 3.875 
Q 9.28125 7.765625 9.28125 18.015625 
L 9.28125 47.703125 
L 2.6875 47.703125 
L 2.6875 54.6875 
L 9.28125 54.6875 
L 9.28125 70.21875 
z
" id="DejaVuSans-116"/>
      <path d="M 56.203125 29.59375 
L 56.203125 25.203125 
L 14.890625 25.203125 
Q 15.484375 15.921875 20.484375 11.0625 
Q 25.484375 6.203125 34.421875 6.203125 
Q 39.59375 6.203125 44.453125 7.46875 
Q 49.3125 8.734375 54.109375 11.28125 
L 54.109375 2.78125 
Q 49.265625 0.734375 44.1875 -0.34375 
Q 39.109375 -1.421875 33.890625 -1.421875 
Q 20.796875 -1.421875 13.15625 6.1875 
Q 5.515625 13.8125 5.515625 26.8125 
Q 5.515625 40.234375 12.765625 48.109375 
Q 20.015625 56 32.328125 56 
Q 43.359375 56 49.78125 48.890625 
Q 56.203125 41.796875 56.203125 29.59375 
z
M 47.21875 32.234375 
Q 47.125 39.59375 43.09375 43.984375 
Q 39.0625 48.390625 32.421875 48.390625 
Q 24.90625 48.390625 20.390625 44.140625 
Q 15.875 39.890625 15.1875 32.171875 
z
" id="DejaVuSans-101"/>
      <path d="M 41.109375 46.296875 
Q 39.59375 47.171875 37.8125 47.578125 
Q 36.03125 48 33.890625 48 
Q 26.265625 48 22.1875 43.046875 
Q 18.109375 38.09375 18.109375 28.8125 
L 18.109375 0 
L 9.078125 0 
L 9.078125 54.6875 
L 18.109375 54.6875 
L 18.109375 46.1875 
Q 20.953125 51.171875 25.484375 53.578125 
Q 30.03125 56 36.53125 56 
Q 37.453125 56 38.578125 55.875 
Q 39.703125 55.765625 41.0625 55.515625 
z
" id="DejaVuSans-114"/>
      <path d="M 34.28125 27.484375 
Q 23.390625 27.484375 19.1875 25 
Q 14.984375 22.515625 14.984375 16.5 
Q 14.984375 11.71875 18.140625 8.90625 
Q 21.296875 6.109375 26.703125 6.109375 
Q 34.1875 6.109375 38.703125 11.40625 
Q 43.21875 16.703125 43.21875 25.484375 
L 43.21875 27.484375 
z
M 52.203125 31.203125 
L 52.203125 0 
L 43.21875 0 
L 43.21875 8.296875 
Q 40.140625 3.328125 35.546875 0.953125 
Q 30.953125 -1.421875 24.3125 -1.421875 
Q 15.921875 -1.421875 10.953125 3.296875 
Q 6 8.015625 6 15.921875 
Q 6 25.140625 12.171875 29.828125 
Q 18.359375 34.515625 30.609375 34.515625 
L 43.21875 34.515625 
L 43.21875 35.40625 
Q 43.21875 41.609375 39.140625 45 
Q 35.0625 48.390625 27.6875 48.390625 
Q 23 48.390625 18.546875 47.265625 
Q 14.109375 46.140625 10.015625 43.890625 
L 10.015625 52.203125 
Q 14.9375 54.109375 19.578125 55.046875 
Q 24.21875 56 28.609375 56 
Q 40.484375 56 46.34375 49.84375 
Q 52.203125 43.703125 52.203125 31.203125 
z
" id="DejaVuSans-97"/>
      <path d="M 48.78125 52.59375 
L 48.78125 44.1875 
Q 44.96875 46.296875 41.140625 47.34375 
Q 37.3125 48.390625 33.40625 48.390625 
Q 24.65625 48.390625 19.8125 42.84375 
Q 14.984375 37.3125 14.984375 27.296875 
Q 14.984375 17.28125 19.8125 11.734375 
Q 24.65625 6.203125 33.40625 6.203125 
Q 37.3125 6.203125 41.140625 7.25 
Q 44.96875 8.296875 48.78125 10.40625 
L 48.78125 2.09375 
Q 45.015625 0.34375 40.984375 -0.53125 
Q 36.96875 -1.421875 32.421875 -1.421875 
Q 20.0625 -1.421875 12.78125 6.34375 
Q 5.515625 14.109375 5.515625 27.296875 
Q 5.515625 40.671875 12.859375 48.328125 
Q 20.21875 56 33.015625 56 
Q 37.15625 56 41.109375 55.140625 
Q 45.0625 54.296875 48.78125 52.59375 
z
M 36.078125 0 
Q 38.765625 -3.03125 40.078125 -5.59375 
Q 41.40625 -8.15625 41.40625 -10.5 
Q 41.40625 -14.84375 38.46875 -17.0625 
Q 35.546875 -19.28125 29.78125 -19.28125 
Q 27.546875 -19.28125 25.421875 -18.984375 
Q 23.296875 -18.703125 21.1875 -18.109375 
L 21.1875 -11.71875 
Q 22.859375 -12.546875 24.65625 -12.90625 
Q 26.46875 -13.28125 28.765625 -13.28125 
Q 31.640625 -13.28125 33.109375 -12.109375 
Q 34.578125 -10.9375 34.578125 -8.6875 
Q 34.578125 -7.234375 33.515625 -5.109375 
Q 32.46875 -2.984375 30.28125 0 
z
" id="DejaVuSans-231"/>
      <path d="M 30.609375 48.390625 
Q 23.390625 48.390625 19.1875 42.75 
Q 14.984375 37.109375 14.984375 27.296875 
Q 14.984375 17.484375 19.15625 11.84375 
Q 23.34375 6.203125 30.609375 6.203125 
Q 37.796875 6.203125 41.984375 11.859375 
Q 46.1875 17.53125 46.1875 27.296875 
Q 46.1875 37.015625 41.984375 42.703125 
Q 37.796875 48.390625 30.609375 48.390625 
z
M 30.609375 56 
Q 42.328125 56 49.015625 48.375 
Q 55.71875 40.765625 55.71875 27.296875 
Q 55.71875 13.875 49.015625 6.21875 
Q 42.328125 -1.421875 30.609375 -1.421875 
Q 18.84375 -1.421875 12.171875 6.21875 
Q 5.515625 13.875 5.515625 27.296875 
Q 5.515625 40.765625 12.171875 48.375 
Q 18.84375 56 30.609375 56 
z
M 30.421875 66.890625 
L 27.640625 69.578125 
Q 26.5625 70.5625 25.75 71.015625 
Q 24.953125 71.484375 24.3125 71.484375 
Q 22.46875 71.484375 21.578125 69.703125 
Q 20.703125 67.921875 20.609375 63.921875 
L 14.5 63.921875 
Q 14.59375 70.515625 17.078125 74.09375 
Q 19.578125 77.6875 24.03125 77.6875 
Q 25.875 77.6875 27.4375 77 
Q 29 76.3125 30.8125 74.703125 
L 33.59375 72.015625 
Q 34.671875 71.046875 35.46875 70.578125 
Q 36.28125 70.125 36.921875 70.125 
Q 38.765625 70.125 39.640625 71.90625 
Q 40.53125 73.6875 40.625 77.6875 
L 46.734375 77.6875 
Q 46.625 71.09375 44.140625 67.5 
Q 41.65625 63.921875 37.203125 63.921875 
Q 35.359375 63.921875 33.796875 64.59375 
Q 32.234375 65.28125 30.421875 66.890625 
z
" id="DejaVuSans-245"/>
      <path d="M 44.28125 53.078125 
L 44.28125 44.578125 
Q 40.484375 46.53125 36.375 47.5 
Q 32.28125 48.484375 27.875 48.484375 
Q 21.1875 48.484375 17.84375 46.4375 
Q 14.5 44.390625 14.5 40.28125 
Q 14.5 37.15625 16.890625 35.375 
Q 19.28125 33.59375 26.515625 31.984375 
L 29.59375 31.296875 
Q 39.15625 29.25 43.1875 25.515625 
Q 47.21875 21.78125 47.21875 15.09375 
Q 47.21875 7.46875 41.1875 3.015625 
Q 35.15625 -1.421875 24.609375 -1.421875 
Q 20.21875 -1.421875 15.453125 -0.5625 
Q 10.6875 0.296875 5.421875 2 
L 5.421875 11.28125 
Q 10.40625 8.6875 15.234375 7.390625 
Q 20.0625 6.109375 24.8125 6.109375 
Q 31.15625 6.109375 34.5625 8.28125 
Q 37.984375 10.453125 37.984375 14.40625 
Q 37.984375 18.0625 35.515625 20.015625 
Q 33.0625 21.96875 24.703125 23.78125 
L 21.578125 24.515625 
Q 13.234375 26.265625 9.515625 29.90625 
Q 5.8125 33.546875 5.8125 39.890625 
Q 5.8125 47.609375 11.28125 51.796875 
Q 16.75 56 26.8125 56 
Q 31.78125 56 36.171875 55.265625 
Q 40.578125 54.546875 44.28125 53.078125 
z
" id="DejaVuSans-115"/>
     </defs>
     <use xlink:href="#DejaVuSans-73"/>
     <use x="29.492188" xlink:href="#DejaVuSans-110"/>
     <use x="92.871094" xlink:href="#DejaVuSans-116"/>
     <use x="132.080078" xlink:href="#DejaVuSans-101"/>
     <use x="193.603516" xlink:href="#DejaVuSans-114"/>
     <use x="232.966797" xlink:href="#DejaVuSans-110"/>
     <use x="296.345703" xlink:href="#DejaVuSans-97"/>
     <use x="357.625" xlink:href="#DejaVuSans-231"/>
     <use x="412.605469" xlink:href="#DejaVuSans-245"/>
     <use x="473.787109" xlink:href="#DejaVuSans-101"/>
     <use x="535.310547" xlink:href="#DejaVuSans-115"/>
    </g>
   </g>
   <g id="legend_1">
    <g id="patch_7">
     <path d="M 493.545313 59.715625 
L 584.2875 59.715625 
Q 586.2875 59.715625 586.2875 57.715625 
L 586.2875 29.340625 
Q 586.2875 27.340625 584.2875 27.340625 
L 493.545313 27.340625 
Q 491.545313 27.340625 491.545313 29.340625 
L 491.545313 57.715625 
Q 491.545313 59.715625 493.545313 59.715625 
z
" style="fill:#ffffff;opacity:0.8;stroke:#cccccc;stroke-linejoin:miter;"/>
    </g>
    <g id="line2d_15">
     <path d="M 495.545313 35.457813 
L 515.545313 35.457813 
" style="fill:none;stroke:#1f77b4;stroke-linecap:square;stroke-width:1.5;"/>
    </g>
    <g id="line2d_16"/>
    <g id="text_14">
     <!-- Internações -->
     <g transform="translate(523.545313 38.957813)scale(0.1 -0.1)">
      <use xlink:href="#DejaVuSans-73"/>
      <use x="29.492188" xlink:href="#DejaVuSans-110"/>
      <use x="92.871094" xlink:href="#DejaVuSans-116"/>
      <use x="132.080078" xlink:href="#DejaVuSans-101"/>
      <use x="193.603516" xlink:href="#DejaVuSans-114"/>
      <use x="232.966797" xlink:href="#DejaVuSans-110"/>
      <use x="296.345703" xlink:href="#DejaVuSans-97"/>
      <use x="357.625" xlink:href="#DejaVuSans-231"/>
      <use x="412.605469" xlink:href="#DejaVuSans-245"/>
      <use x="473.787109" xlink:href="#DejaVuSans-101"/>
      <use x="535.310547" xlink:href="#DejaVuSans-115"/>
     </g>
    </g>
    <g id="line2d_17">
     <path d="M 495.545313 50.135938 
L 515.545313 50.135938 
" style="fill:none;stroke:#ff7f0e;stroke-linecap:square;stroke-width:1.5;"/>
    </g>
    <g id="line2d_18"/>
    <g id="text_15">
     <!-- UTI -->
     <g transform="translate(523.545313 53.635938)scale(0.1 -0.1)">
      <defs>
       <path d="M 8.6875 72.90625 
L 18.609375 72.90625 
L 18.609375 28.609375 
Q 18.609375 16.890625 22.84375 11.734375 
Q 27.09375 6.59375 36.625 6.59375 
Q 46.09375 6.59375 50.34375 11.734375 
Q 54.59375 16.890625 54.59375 28.609375 
L 54.59375 72.90625 
L 64.5 72.90625 
L 64.5 27.390625 
Q 64.5 13.140625 57.4375 5.859375 
Q 50.390625 -1.421875 36.625 -1.421875 
Q 22.796875 -1.421875 15.734375 5.859375 
Q 8.6875 13.140625 8.6875 27.390625 
z
" id="DejaVuSans-85"/>
       <path d="M -0.296875 72.90625 
L 61.375 72.90625 
L 61.375 64.59375 
L 35.5 64.59375 
L 35.5 0 
L 25.59375 0 
L 25.59375 64.59375 
L -0.296875 64.59375 
z
" id="DejaVuSans-84"/>
      </defs>
      <use xlink:href="#DejaVuSans-85"/>
      <use x="73.193359" xlink:href="#DejaVuSans-84"/>
      <use x="134.277344" xlink:href="#DejaVuSans-73"/>
     </g>
    </g>
   </g>
  </g>
 </g>
 <defs>
  <clipPath id="pbb4c9fe5bc">
   <rect height="277.2" width="558" x="33.2875" y="22.340625"/>
  </clipPath>
 </defs>
</svg>
