<?xml version="1.0" encoding="utf-8" standalone="no"?>
<!DOCTYPE svg PUBLIC "-//W3C//DTD SVG 1.1//EN"
  "http://www.w3.org/Graphics/SVG/1.1/DTD/svg11.dtd">
<!-- Created with matplotlib (https://matplotlib.org/) -->
<svg height="322.334688pt" version="1.1" viewBox="0 0 596.082813 322.334688" width="596.082813pt" xmlns="http://www.w3.org/2000/svg" xmlns:xlink="http://www.w3.org/1999/xlink">
 <metadata>
  <rdf:RDF xmlns:cc="http://creativecommons.org/ns#" xmlns:dc="http://purl.org/dc/elements/1.1/" xmlns:rdf="http://www.w3.org/1999/02/22-rdf-syntax-ns#">
   <cc:Work>
    <dc:type rdf:resource="http://purl.org/dc/dcmitype/StillImage"/>
    <dc:date>2021-03-18T19:38:55.364599</dc:date>
    <dc:format>image/svg+xml</dc:format>
    <dc:creator>
     <cc:Agent>
      <dc:title>Matplotlib v3.3.4, https://matplotlib.org/</dc:title>
     </cc:Agent>
    </dc:creator>
   </cc:Work>
  </rdf:RDF>
 </metadata>
 <defs>
  <style type="text/css">*{stroke-linecap:butt;stroke-linejoin:round;}</style>
 </defs>
 <g id="figure_1">
  <g id="patch_1">
   <path d="M 0 322.334688 
L 596.082813 322.334688 
L 596.082813 0 
L 0 0 
z
" style="fill:#ffffff;"/>
  </g>
  <g id="axes_1">
   <g id="patch_2">
    <path d="M 30.882812 298.989375 
L 588.882812 298.989375 
L 588.882812 21.789375 
L 30.882812 21.789375 
z
" style="fill:#ffffff;"/>
   </g>
   <g id="matplotlib.axis_1">
    <g id="xtick_1">
     <g id="line2d_1">
      <path clip-path="url(#pefac71078a)" d="M 31.161534 298.989375 
L 31.161534 21.789375 
" style="fill:none;stroke:#cccccc;stroke-linecap:round;stroke-width:0.8;"/>
     </g>
     <g id="text_1">
      <!-- 2020-03 -->
      <g style="fill:#262626;" transform="translate(12.813878 313.147188)scale(0.1 -0.1)">
       <defs>
        <path d="M 50.34375 8.453125 
L 50.34375 0 
L 3.03125 0 
Q 2.9375 3.171875 4.046875 6.109375 
Q 5.859375 10.9375 9.828125 15.625 
Q 13.8125 20.3125 21.34375 26.46875 
Q 33.015625 36.03125 37.109375 41.625 
Q 41.21875 47.21875 41.21875 52.203125 
Q 41.21875 57.421875 37.46875 61 
Q 33.734375 64.59375 27.734375 64.59375 
Q 21.390625 64.59375 17.578125 60.78125 
Q 13.765625 56.984375 13.71875 50.25 
L 4.6875 51.171875 
Q 5.609375 61.28125 11.65625 66.578125 
Q 17.71875 71.875 27.9375 71.875 
Q 38.234375 71.875 44.234375 66.15625 
Q 50.25 60.453125 50.25 52 
Q 50.25 47.703125 48.484375 43.546875 
Q 46.734375 39.40625 42.65625 34.8125 
Q 38.578125 30.21875 29.109375 22.21875 
Q 21.1875 15.578125 18.9375 13.203125 
Q 16.703125 10.84375 15.234375 8.453125 
z
" id="ArialMT-50"/>
        <path d="M 4.15625 35.296875 
Q 4.15625 48 6.765625 55.734375 
Q 9.375 63.484375 14.515625 67.671875 
Q 19.671875 71.875 27.484375 71.875 
Q 33.25 71.875 37.59375 69.546875 
Q 41.9375 67.234375 44.765625 62.859375 
Q 47.609375 58.5 49.21875 52.21875 
Q 50.828125 45.953125 50.828125 35.296875 
Q 50.828125 22.703125 48.234375 14.96875 
Q 45.65625 7.234375 40.5 3 
Q 35.359375 -1.21875 27.484375 -1.21875 
Q 17.140625 -1.21875 11.234375 6.203125 
Q 4.15625 15.140625 4.15625 35.296875 
z
M 13.1875 35.296875 
Q 13.1875 17.671875 17.3125 11.828125 
Q 21.4375 6 27.484375 6 
Q 33.546875 6 37.671875 11.859375 
Q 41.796875 17.71875 41.796875 35.296875 
Q 41.796875 52.984375 37.671875 58.78125 
Q 33.546875 64.59375 27.390625 64.59375 
Q 21.34375 64.59375 17.71875 59.46875 
Q 13.1875 52.9375 13.1875 35.296875 
z
" id="ArialMT-48"/>
        <path d="M 3.171875 21.484375 
L 3.171875 30.328125 
L 30.171875 30.328125 
L 30.171875 21.484375 
z
" id="ArialMT-45"/>
        <path d="M 4.203125 18.890625 
L 12.984375 20.0625 
Q 14.5 12.59375 18.140625 9.296875 
Q 21.78125 6 27 6 
Q 33.203125 6 37.46875 10.296875 
Q 41.75 14.59375 41.75 20.953125 
Q 41.75 27 37.796875 30.921875 
Q 33.84375 34.859375 27.734375 34.859375 
Q 25.25 34.859375 21.53125 33.890625 
L 22.515625 41.609375 
Q 23.390625 41.5 23.921875 41.5 
Q 29.546875 41.5 34.03125 44.421875 
Q 38.53125 47.359375 38.53125 53.46875 
Q 38.53125 58.296875 35.25 61.46875 
Q 31.984375 64.65625 26.8125 64.65625 
Q 21.6875 64.65625 18.265625 61.421875 
Q 14.84375 58.203125 13.875 51.765625 
L 5.078125 53.328125 
Q 6.6875 62.15625 12.390625 67.015625 
Q 18.109375 71.875 26.609375 71.875 
Q 32.46875 71.875 37.390625 69.359375 
Q 42.328125 66.84375 44.9375 62.5 
Q 47.5625 58.15625 47.5625 53.265625 
Q 47.5625 48.640625 45.0625 44.828125 
Q 42.578125 41.015625 37.703125 38.765625 
Q 44.046875 37.3125 47.5625 32.6875 
Q 51.078125 28.078125 51.078125 21.140625 
Q 51.078125 11.765625 44.234375 5.25 
Q 37.40625 -1.265625 26.953125 -1.265625 
Q 17.53125 -1.265625 11.296875 4.34375 
Q 5.078125 9.96875 4.203125 18.890625 
z
" id="ArialMT-51"/>
       </defs>
       <use xlink:href="#ArialMT-50"/>
       <use x="55.615234" xlink:href="#ArialMT-48"/>
       <use x="111.230469" xlink:href="#ArialMT-50"/>
       <use x="166.845703" xlink:href="#ArialMT-48"/>
       <use x="222.460938" xlink:href="#ArialMT-45"/>
       <use x="255.761719" xlink:href="#ArialMT-48"/>
       <use x="311.376953" xlink:href="#ArialMT-51"/>
      </g>
     </g>
    </g>
    <g id="xtick_2">
     <g id="line2d_2">
      <path clip-path="url(#pefac71078a)" d="M 116.171524 298.989375 
L 116.171524 21.789375 
" style="fill:none;stroke:#cccccc;stroke-linecap:round;stroke-width:0.8;"/>
     </g>
     <g id="text_2">
      <!-- 2020-05 -->
      <g style="fill:#262626;" transform="translate(97.823868 313.147188)scale(0.1 -0.1)">
       <defs>
        <path d="M 4.15625 18.75 
L 13.375 19.53125 
Q 14.40625 12.796875 18.140625 9.390625 
Q 21.875 6 27.15625 6 
Q 33.5 6 37.890625 10.78125 
Q 42.28125 15.578125 42.28125 23.484375 
Q 42.28125 31 38.0625 35.34375 
Q 33.84375 39.703125 27 39.703125 
Q 22.75 39.703125 19.328125 37.765625 
Q 15.921875 35.84375 13.96875 32.765625 
L 5.71875 33.84375 
L 12.640625 70.609375 
L 48.25 70.609375 
L 48.25 62.203125 
L 19.671875 62.203125 
L 15.828125 42.96875 
Q 22.265625 47.46875 29.34375 47.46875 
Q 38.71875 47.46875 45.15625 40.96875 
Q 51.609375 34.46875 51.609375 24.265625 
Q 51.609375 14.546875 45.953125 7.46875 
Q 39.0625 -1.21875 27.15625 -1.21875 
Q 17.390625 -1.21875 11.203125 4.25 
Q 5.03125 9.71875 4.15625 18.75 
z
" id="ArialMT-53"/>
       </defs>
       <use xlink:href="#ArialMT-50"/>
       <use x="55.615234" xlink:href="#ArialMT-48"/>
       <use x="111.230469" xlink:href="#ArialMT-50"/>
       <use x="166.845703" xlink:href="#ArialMT-48"/>
       <use x="222.460938" xlink:href="#ArialMT-45"/>
       <use x="255.761719" xlink:href="#ArialMT-48"/>
       <use x="311.376953" xlink:href="#ArialMT-53"/>
      </g>
     </g>
    </g>
    <g id="xtick_3">
     <g id="line2d_3">
      <path clip-path="url(#pefac71078a)" d="M 201.181514 298.989375 
L 201.181514 21.789375 
" style="fill:none;stroke:#cccccc;stroke-linecap:round;stroke-width:0.8;"/>
     </g>
     <g id="text_3">
      <!-- 2020-07 -->
      <g style="fill:#262626;" transform="translate(182.833858 313.147188)scale(0.1 -0.1)">
       <defs>
        <path d="M 4.734375 62.203125 
L 4.734375 70.65625 
L 51.078125 70.65625 
L 51.078125 63.8125 
Q 44.234375 56.546875 37.515625 44.484375 
Q 30.8125 32.421875 27.15625 19.671875 
Q 24.515625 10.6875 23.78125 0 
L 14.75 0 
Q 14.890625 8.453125 18.0625 20.40625 
Q 21.234375 32.375 27.171875 43.484375 
Q 33.109375 54.59375 39.796875 62.203125 
z
" id="ArialMT-55"/>
       </defs>
       <use xlink:href="#ArialMT-50"/>
       <use x="55.615234" xlink:href="#ArialMT-48"/>
       <use x="111.230469" xlink:href="#ArialMT-50"/>
       <use x="166.845703" xlink:href="#ArialMT-48"/>
       <use x="222.460938" xlink:href="#ArialMT-45"/>
       <use x="255.761719" xlink:href="#ArialMT-48"/>
       <use x="311.376953" xlink:href="#ArialMT-55"/>
      </g>
     </g>
    </g>
    <g id="xtick_4">
     <g id="line2d_4">
      <path clip-path="url(#pefac71078a)" d="M 287.58511 298.989375 
L 287.58511 21.789375 
" style="fill:none;stroke:#cccccc;stroke-linecap:round;stroke-width:0.8;"/>
     </g>
     <g id="text_4">
      <!-- 2020-09 -->
      <g style="fill:#262626;" transform="translate(269.237454 313.147188)scale(0.1 -0.1)">
       <defs>
        <path d="M 5.46875 16.546875 
L 13.921875 17.328125 
Q 14.984375 11.375 18.015625 8.6875 
Q 21.046875 6 25.78125 6 
Q 29.828125 6 32.875 7.859375 
Q 35.9375 9.71875 37.890625 12.8125 
Q 39.84375 15.921875 41.15625 21.1875 
Q 42.484375 26.46875 42.484375 31.9375 
Q 42.484375 32.515625 42.4375 33.6875 
Q 39.796875 29.5 35.234375 26.875 
Q 30.671875 24.265625 25.34375 24.265625 
Q 16.453125 24.265625 10.296875 30.703125 
Q 4.15625 37.15625 4.15625 47.703125 
Q 4.15625 58.59375 10.578125 65.234375 
Q 17 71.875 26.65625 71.875 
Q 33.640625 71.875 39.421875 68.109375 
Q 45.21875 64.359375 48.21875 57.390625 
Q 51.21875 50.4375 51.21875 37.25 
Q 51.21875 23.53125 48.234375 15.40625 
Q 45.265625 7.28125 39.375 3.03125 
Q 33.5 -1.21875 25.59375 -1.21875 
Q 17.1875 -1.21875 11.859375 3.4375 
Q 6.546875 8.109375 5.46875 16.546875 
z
M 41.453125 48.140625 
Q 41.453125 55.71875 37.421875 60.15625 
Q 33.40625 64.59375 27.734375 64.59375 
Q 21.875 64.59375 17.53125 59.8125 
Q 13.1875 55.03125 13.1875 47.40625 
Q 13.1875 40.578125 17.3125 36.296875 
Q 21.4375 32.03125 27.484375 32.03125 
Q 33.59375 32.03125 37.515625 36.296875 
Q 41.453125 40.578125 41.453125 48.140625 
z
" id="ArialMT-57"/>
       </defs>
       <use xlink:href="#ArialMT-50"/>
       <use x="55.615234" xlink:href="#ArialMT-48"/>
       <use x="111.230469" xlink:href="#ArialMT-50"/>
       <use x="166.845703" xlink:href="#ArialMT-48"/>
       <use x="222.460938" xlink:href="#ArialMT-45"/>
       <use x="255.761719" xlink:href="#ArialMT-48"/>
       <use x="311.376953" xlink:href="#ArialMT-57"/>
      </g>
     </g>
    </g>
    <g id="xtick_5">
     <g id="line2d_5">
      <path clip-path="url(#pefac71078a)" d="M 372.5951 298.989375 
L 372.5951 21.789375 
" style="fill:none;stroke:#cccccc;stroke-linecap:round;stroke-width:0.8;"/>
     </g>
     <g id="text_5">
      <!-- 2020-11 -->
      <g style="fill:#262626;" transform="translate(354.616194 313.147188)scale(0.1 -0.1)">
       <defs>
        <path d="M 37.25 0 
L 28.46875 0 
L 28.46875 56 
Q 25.296875 52.984375 20.140625 49.953125 
Q 14.984375 46.921875 10.890625 45.40625 
L 10.890625 53.90625 
Q 18.265625 57.375 23.78125 62.296875 
Q 29.296875 67.234375 31.59375 71.875 
L 37.25 71.875 
z
" id="ArialMT-49"/>
       </defs>
       <use xlink:href="#ArialMT-50"/>
       <use x="55.615234" xlink:href="#ArialMT-48"/>
       <use x="111.230469" xlink:href="#ArialMT-50"/>
       <use x="166.845703" xlink:href="#ArialMT-48"/>
       <use x="222.460938" xlink:href="#ArialMT-45"/>
       <use x="255.761719" xlink:href="#ArialMT-49"/>
       <use x="304.001953" xlink:href="#ArialMT-49"/>
      </g>
     </g>
    </g>
    <g id="xtick_6">
     <g id="line2d_6">
      <path clip-path="url(#pefac71078a)" d="M 457.60509 298.989375 
L 457.60509 21.789375 
" style="fill:none;stroke:#cccccc;stroke-linecap:round;stroke-width:0.8;"/>
     </g>
     <g id="text_6">
      <!-- 2021-01 -->
      <g style="fill:#262626;" transform="translate(439.257434 313.147188)scale(0.1 -0.1)">
       <use xlink:href="#ArialMT-50"/>
       <use x="55.615234" xlink:href="#ArialMT-48"/>
       <use x="111.230469" xlink:href="#ArialMT-50"/>
       <use x="166.845703" xlink:href="#ArialMT-49"/>
       <use x="222.460938" xlink:href="#ArialMT-45"/>
       <use x="255.761719" xlink:href="#ArialMT-48"/>
       <use x="311.376953" xlink:href="#ArialMT-49"/>
      </g>
     </g>
    </g>
    <g id="xtick_7">
     <g id="line2d_7">
      <path clip-path="url(#pefac71078a)" d="M 539.827867 298.989375 
L 539.827867 21.789375 
" style="fill:none;stroke:#cccccc;stroke-linecap:round;stroke-width:0.8;"/>
     </g>
     <g id="text_7">
      <!-- 2021-03 -->
      <g style="fill:#262626;" transform="translate(521.480211 313.147188)scale(0.1 -0.1)">
       <use xlink:href="#ArialMT-50"/>
       <use x="55.615234" xlink:href="#ArialMT-48"/>
       <use x="111.230469" xlink:href="#ArialMT-50"/>
       <use x="166.845703" xlink:href="#ArialMT-49"/>
       <use x="222.460938" xlink:href="#ArialMT-45"/>
       <use x="255.761719" xlink:href="#ArialMT-48"/>
       <use x="311.376953" xlink:href="#ArialMT-51"/>
      </g>
     </g>
    </g>
   </g>
   <g id="matplotlib.axis_2">
    <g id="ytick_1">
     <g id="line2d_8">
      <path clip-path="url(#pefac71078a)" d="M 30.882812 286.389375 
L 588.882812 286.389375 
" style="fill:none;stroke:#cccccc;stroke-linecap:round;stroke-width:0.8;"/>
     </g>
     <g id="text_8">
      <!-- 0 -->
      <g style="fill:#262626;" transform="translate(18.321875 289.968281)scale(0.1 -0.1)">
       <use xlink:href="#ArialMT-48"/>
      </g>
     </g>
    </g>
    <g id="ytick_2">
     <g id="line2d_9">
      <path clip-path="url(#pefac71078a)" d="M 30.882812 234.323259 
L 588.882812 234.323259 
" style="fill:none;stroke:#cccccc;stroke-linecap:round;stroke-width:0.8;"/>
     </g>
     <g id="text_9">
      <!-- 50 -->
      <g style="fill:#262626;" transform="translate(12.760937 237.902166)scale(0.1 -0.1)">
       <use xlink:href="#ArialMT-53"/>
       <use x="55.615234" xlink:href="#ArialMT-48"/>
      </g>
     </g>
    </g>
    <g id="ytick_3">
     <g id="line2d_10">
      <path clip-path="url(#pefac71078a)" d="M 30.882812 182.257144 
L 588.882812 182.257144 
" style="fill:none;stroke:#cccccc;stroke-linecap:round;stroke-width:0.8;"/>
     </g>
     <g id="text_10">
      <!-- 100 -->
      <g style="fill:#262626;" transform="translate(7.2 185.83605)scale(0.1 -0.1)">
       <use xlink:href="#ArialMT-49"/>
       <use x="55.615234" xlink:href="#ArialMT-48"/>
       <use x="111.230469" xlink:href="#ArialMT-48"/>
      </g>
     </g>
    </g>
    <g id="ytick_4">
     <g id="line2d_11">
      <path clip-path="url(#pefac71078a)" d="M 30.882812 130.191028 
L 588.882812 130.191028 
" style="fill:none;stroke:#cccccc;stroke-linecap:round;stroke-width:0.8;"/>
     </g>
     <g id="text_11">
      <!-- 150 -->
      <g style="fill:#262626;" transform="translate(7.2 133.769934)scale(0.1 -0.1)">
       <use xlink:href="#ArialMT-49"/>
       <use x="55.615234" xlink:href="#ArialMT-53"/>
       <use x="111.230469" xlink:href="#ArialMT-48"/>
      </g>
     </g>
    </g>
    <g id="ytick_5">
     <g id="line2d_12">
      <path clip-path="url(#pefac71078a)" d="M 30.882812 78.124912 
L 588.882812 78.124912 
" style="fill:none;stroke:#cccccc;stroke-linecap:round;stroke-width:0.8;"/>
     </g>
     <g id="text_12">
      <!-- 200 -->
      <g style="fill:#262626;" transform="translate(7.2 81.703818)scale(0.1 -0.1)">
       <use xlink:href="#ArialMT-50"/>
       <use x="55.615234" xlink:href="#ArialMT-48"/>
       <use x="111.230469" xlink:href="#ArialMT-48"/>
      </g>
     </g>
    </g>
    <g id="ytick_6">
     <g id="line2d_13">
      <path clip-path="url(#pefac71078a)" d="M 30.882812 26.058796 
L 588.882812 26.058796 
" style="fill:none;stroke:#cccccc;stroke-linecap:round;stroke-width:0.8;"/>
     </g>
     <g id="text_13">
      <!-- 250 -->
      <g style="fill:#262626;" transform="translate(7.2 29.637703)scale(0.1 -0.1)">
       <use xlink:href="#ArialMT-50"/>
       <use x="55.615234" xlink:href="#ArialMT-53"/>
       <use x="111.230469" xlink:href="#ArialMT-48"/>
      </g>
     </g>
    </g>
   </g>
   <g id="line2d_14">
    <path clip-path="url(#pefac71078a)" d="M 56.246449 274.93483 
L 57.640055 274.93483 
L 59.033662 272.852185 
L 60.427268 272.852185 
L 61.820874 262.438962 
L 63.214481 243.69516 
L 64.608087 242.653838 
L 66.001694 238.488549 
L 67.3953 232.240615 
L 68.788906 231.199292 
L 70.182513 231.199292 
L 71.576119 230.15797 
L 72.969726 225.992681 
L 74.363332 203.08359 
L 75.756938 201.000945 
L 77.150545 201.000945 
L 78.544151 169.761276 
L 79.937758 167.678631 
L 81.331364 186.422433 
L 82.72497 181.215821 
L 84.118577 172.885243 
L 85.512183 170.802598 
L 86.90579 166.637309 
L 88.299396 166.637309 
L 89.693002 164.554664 
L 91.086609 148.93483 
L 92.480215 146.852185 
L 93.873821 152.058796 
L 95.267428 134.356317 
L 96.661034 130.191028 
L 98.054641 127.067061 
L 99.448247 121.860449 
L 100.841853 135.397639 
L 102.23546 135.397639 
L 103.629066 131.23235 
L 105.022673 122.901772 
L 106.416279 87.496813 
L 107.809885 85.414168 
L 109.203492 134.356317 
L 110.597098 137.480284 
L 111.990705 141.645573 
L 113.384311 134.356317 
L 114.777917 141.645573 
L 116.171524 130.191028 
L 117.56513 123.943094 
L 118.958737 124.984416 
L 120.352343 121.860449 
L 121.745949 113.529871 
L 123.139556 109.364582 
L 124.533162 115.612515 
L 125.926769 119.777805 
L 127.320375 113.529871 
L 128.713981 109.364582 
L 130.107588 114.571193 
L 131.501194 92.703425 
L 132.894801 102.075325 
L 134.288407 97.910036 
L 135.682013 92.703425 
L 137.07562 101.034003 
L 138.469226 85.414168 
L 139.862832 83.331524 
L 141.256439 86.455491 
L 142.650045 76.042268 
L 144.043652 80.207557 
L 145.437258 83.331524 
L 146.830864 85.414168 
L 148.224471 82.290201 
L 149.618077 81.248879 
L 151.011684 75.000945 
L 152.40529 77.08359 
L 153.798896 78.124912 
L 155.192503 61.463755 
L 156.586109 60.422433 
L 157.979716 62.505077 
L 159.373322 69.794334 
L 160.766928 69.794334 
L 162.160535 68.753011 
L 163.554141 66.670367 
L 164.947748 60.422433 
L 166.341354 60.422433 
L 167.73496 43.761276 
L 169.128567 51.050532 
L 170.522173 41.678631 
L 171.91578 48.967887 
L 173.309386 38.554664 
L 174.702992 42.719954 
L 176.096599 34.389375 
L 177.490205 46.885243 
L 178.883812 57.298466 
L 180.277418 60.422433 
L 181.671024 65.629044 
L 183.064631 71.876978 
L 184.458237 67.711689 
L 185.851843 60.422433 
L 187.24545 59.381111 
L 188.639056 55.215821 
L 190.032663 61.463755 
L 191.426269 78.124912 
L 192.819875 80.207557 
L 194.213482 72.918301 
L 195.607088 77.08359 
L 197.000695 86.455491 
L 198.394301 90.62078 
L 199.787907 98.951358 
L 201.181514 98.951358 
L 202.57512 107.281937 
L 203.968727 96.868714 
L 205.362333 102.075325 
L 206.755939 104.15797 
L 208.149546 108.323259 
L 209.543152 95.827392 
L 210.936759 118.736482 
L 212.330365 115.612515 
L 213.723971 114.571193 
L 215.117578 120.819127 
L 216.511184 128.108383 
L 217.904791 126.025739 
L 219.298397 97.910036 
L 220.692003 114.571193 
L 222.08561 103.116648 
L 223.479216 95.827392 
L 224.872822 107.281937 
L 226.266429 104.15797 
L 229.053642 110.405904 
L 230.447248 104.15797 
L 231.840854 108.323259 
L 233.234461 102.075325 
L 234.628067 104.15797 
L 237.41528 110.405904 
L 238.808886 116.653838 
L 240.202493 127.067061 
L 241.596099 130.191028 
L 242.989706 131.23235 
L 244.383312 136.438962 
L 245.776918 139.562929 
L 247.170525 136.438962 
L 248.564131 145.810863 
L 249.957738 151.017474 
L 251.351344 162.47202 
L 252.74495 159.348053 
L 254.138557 161.430697 
L 255.532163 179.133177 
L 256.92577 171.84392 
L 258.319376 177.050532 
L 259.712982 183.298466 
L 261.106589 179.133177 
L 262.500195 178.091854 
L 263.893802 173.926565 
L 265.287408 171.84392 
L 266.681014 170.802598 
L 268.074621 153.100119 
L 269.468227 164.554664 
L 272.25544 177.050532 
L 273.649046 173.926565 
L 275.042653 187.463755 
L 276.436259 188.505077 
L 277.829865 185.381111 
L 279.223472 188.505077 
L 280.617078 193.711689 
L 282.010685 185.381111 
L 283.404291 196.835656 
L 284.797897 177.050532 
L 286.191504 163.513342 
L 287.58511 161.430697 
L 288.978717 166.637309 
L 290.372323 168.719954 
L 291.765929 168.719954 
L 293.159536 171.84392 
L 294.553142 171.84392 
L 295.946749 183.298466 
L 297.340355 181.215821 
L 298.733961 167.678631 
L 300.127568 171.84392 
L 301.521174 167.678631 
L 302.914781 166.637309 
L 304.308387 167.678631 
L 305.701993 171.84392 
L 308.489206 184.339788 
L 309.882812 185.381111 
L 311.276419 182.257144 
L 312.670025 180.174499 
L 315.457238 182.257144 
L 316.850844 191.629044 
L 318.244451 191.629044 
L 319.638057 210.372846 
L 321.031664 207.248879 
L 322.42527 205.166235 
L 323.818876 198.918301 
L 325.212483 196.835656 
L 326.606089 197.876978 
L 327.999696 193.711689 
L 329.393302 198.918301 
L 330.786908 197.876978 
L 332.180515 191.629044 
L 333.574121 193.711689 
L 334.967728 194.753011 
L 336.361334 187.463755 
L 337.75494 182.257144 
L 339.148547 185.381111 
L 340.542153 181.215821 
L 341.93576 184.339788 
L 343.329366 180.174499 
L 344.722972 187.463755 
L 346.116579 188.505077 
L 347.510185 187.463755 
L 348.903792 184.339788 
L 350.297398 186.422433 
L 351.691004 190.587722 
L 353.084611 189.5464 
L 354.478217 189.5464 
L 355.871823 185.381111 
L 357.26543 177.050532 
L 358.659036 173.926565 
L 360.052643 174.967887 
L 361.446249 178.091854 
L 362.839855 172.885243 
L 364.233462 172.885243 
L 365.627068 169.761276 
L 367.020675 160.389375 
L 368.414281 162.47202 
L 369.807887 158.30673 
L 371.201494 158.30673 
L 372.5951 154.141441 
L 373.988707 148.93483 
L 375.382313 140.604251 
L 376.775919 152.058796 
L 378.169526 159.348053 
L 379.563132 152.058796 
L 380.956739 143.728218 
L 382.350345 147.893507 
L 383.743951 138.521606 
L 385.137558 132.273673 
L 386.531164 118.736482 
L 387.924771 120.819127 
L 389.318377 124.984416 
L 390.711983 131.23235 
L 392.10559 130.191028 
L 393.499196 123.943094 
L 394.892803 124.984416 
L 396.286409 103.116648 
L 397.680015 97.910036 
L 399.073622 101.034003 
L 400.467228 82.290201 
L 401.860834 83.331524 
L 403.254441 89.579458 
L 404.648047 81.248879 
L 406.041654 73.959623 
L 407.43526 73.959623 
L 408.828866 77.08359 
L 410.222473 67.711689 
L 411.616079 82.290201 
L 413.009686 87.496813 
L 414.403292 94.786069 
L 415.796898 84.372846 
L 417.190505 86.455491 
L 418.584111 96.868714 
L 419.977718 91.662102 
L 421.371324 106.240615 
L 422.76493 118.736482 
L 424.158537 106.240615 
L 425.552143 87.496813 
L 426.94575 104.15797 
L 428.339356 98.951358 
L 429.732962 96.868714 
L 431.126569 106.240615 
L 435.307388 128.108383 
L 436.700994 126.025739 
L 438.094601 124.984416 
L 439.488207 132.273673 
L 440.881813 137.480284 
L 442.27542 131.23235 
L 443.669026 127.067061 
L 445.062633 127.067061 
L 446.456239 133.314995 
L 447.849845 142.686896 
L 449.243452 145.810863 
L 450.637058 137.480284 
L 452.030665 136.438962 
L 453.424271 130.191028 
L 454.817877 133.314995 
L 456.211484 131.23235 
L 457.60509 144.76954 
L 458.998697 140.604251 
L 460.392303 149.976152 
L 461.785909 163.513342 
L 463.179516 161.430697 
L 464.573122 160.389375 
L 465.966729 162.47202 
L 467.360335 157.265408 
L 470.147548 159.348053 
L 471.541154 145.810863 
L 472.934761 149.976152 
L 474.328367 138.521606 
L 475.721973 139.562929 
L 477.11558 134.356317 
L 479.902793 146.852185 
L 481.296399 137.480284 
L 482.690005 141.645573 
L 484.083612 149.976152 
L 485.477218 161.430697 
L 486.870824 152.058796 
L 488.264431 157.265408 
L 489.658037 153.100119 
L 491.051644 166.637309 
L 492.44525 172.885243 
L 493.838856 160.389375 
L 495.232463 168.719954 
L 496.626069 162.47202 
L 498.019676 169.761276 
L 499.413282 172.885243 
L 500.806888 160.389375 
L 502.200495 159.348053 
L 503.594101 155.182763 
L 504.987708 162.47202 
L 506.381314 161.430697 
L 507.77492 162.47202 
L 509.168527 167.678631 
L 510.562133 171.84392 
L 511.95574 181.215821 
L 513.349346 182.257144 
L 514.742952 180.174499 
L 516.136559 176.00921 
L 517.530165 190.587722 
L 518.923772 189.5464 
L 520.317378 176.00921 
L 521.710984 171.84392 
L 523.104591 187.463755 
L 524.498197 187.463755 
L 525.891804 183.298466 
L 527.28541 186.422433 
L 528.679016 180.174499 
L 530.072623 170.802598 
L 531.466229 164.554664 
L 532.859835 168.719954 
L 534.253442 155.182763 
L 535.647048 156.224086 
L 537.040655 174.967887 
L 538.434261 152.058796 
L 539.827867 140.604251 
L 541.221474 148.93483 
L 542.61508 137.480284 
L 544.008687 139.562929 
L 545.402293 136.438962 
L 546.795899 148.93483 
L 548.189506 144.76954 
L 549.583112 131.23235 
L 550.976719 124.984416 
L 553.763931 114.571193 
L 556.551144 95.827392 
L 557.944751 83.331524 
L 559.338357 76.042268 
L 560.731963 55.215821 
L 562.12557 51.050532 
L 563.519176 45.84392 
L 563.519176 45.84392 
" style="fill:none;stroke:#1f77b4;stroke-linecap:round;stroke-width:1.5;"/>
   </g>
   <g id="line2d_15">
    <path clip-path="url(#pefac71078a)" d="M 56.246449 286.389375 
L 57.640055 286.389375 
L 59.033662 279.100119 
L 60.427268 279.100119 
L 61.820874 277.017474 
L 63.214481 266.604251 
L 64.608087 267.645573 
L 66.001694 263.480284 
L 71.576119 263.480284 
L 72.969726 264.521606 
L 74.363332 260.356317 
L 75.756938 262.438962 
L 77.150545 261.397639 
L 78.544151 257.23235 
L 79.937758 257.23235 
L 81.331364 252.025739 
L 82.72497 247.860449 
L 84.118577 247.860449 
L 85.512183 253.067061 
L 88.299396 253.067061 
L 89.693002 252.025739 
L 91.086609 246.819127 
L 92.480215 249.943094 
L 93.873821 256.191028 
L 95.267428 247.860449 
L 96.661034 240.571193 
L 98.054641 239.529871 
L 99.448247 230.15797 
L 100.841853 236.405904 
L 102.23546 234.323259 
L 103.629066 230.15797 
L 105.022673 220.786069 
L 106.416279 215.579458 
L 107.809885 212.455491 
L 109.203492 220.786069 
L 110.597098 220.786069 
L 113.384311 224.951358 
L 114.777917 220.786069 
L 116.171524 213.496813 
L 117.56513 210.372846 
L 118.958737 208.290201 
L 120.352343 209.331524 
L 121.745949 202.042268 
L 123.139556 202.042268 
L 124.533162 212.455491 
L 125.926769 214.538135 
L 127.320375 207.248879 
L 128.713981 207.248879 
L 131.501194 211.414168 
L 132.894801 217.662102 
L 134.288407 213.496813 
L 135.682013 210.372846 
L 137.07562 216.62078 
L 138.469226 207.248879 
L 139.862832 207.248879 
L 141.256439 205.166235 
L 142.650045 209.331524 
L 144.043652 203.08359 
L 145.437258 203.08359 
L 146.830864 197.876978 
L 148.224471 198.918301 
L 151.011684 196.835656 
L 152.40529 206.207557 
L 153.798896 209.331524 
L 155.192503 202.042268 
L 156.586109 207.248879 
L 157.979716 202.042268 
L 159.373322 195.794334 
L 160.766928 193.711689 
L 162.160535 192.670367 
L 163.554141 196.835656 
L 164.947748 193.711689 
L 166.341354 193.711689 
L 167.73496 187.463755 
L 169.128567 190.587722 
L 170.522173 188.505077 
L 171.91578 188.505077 
L 173.309386 178.091854 
L 174.702992 183.298466 
L 176.096599 190.587722 
L 177.490205 193.711689 
L 178.883812 184.339788 
L 180.277418 190.587722 
L 181.671024 198.918301 
L 183.064631 202.042268 
L 185.851843 199.959623 
L 187.24545 193.711689 
L 188.639056 196.835656 
L 190.032663 194.753011 
L 191.426269 198.918301 
L 192.819875 197.876978 
L 194.213482 198.918301 
L 195.607088 205.166235 
L 197.000695 214.538135 
L 198.394301 213.496813 
L 199.787907 209.331524 
L 201.181514 210.372846 
L 202.57512 214.538135 
L 203.968727 211.414168 
L 205.362333 209.331524 
L 206.755939 210.372846 
L 208.149546 210.372846 
L 209.543152 208.290201 
L 210.936759 217.662102 
L 212.330365 217.662102 
L 213.723971 216.62078 
L 215.117578 220.786069 
L 216.511184 222.868714 
L 217.904791 217.662102 
L 219.298397 210.372846 
L 220.692003 213.496813 
L 222.08561 205.166235 
L 223.479216 209.331524 
L 224.872822 217.662102 
L 226.266429 220.786069 
L 227.660035 218.703425 
L 229.053642 218.703425 
L 230.447248 220.786069 
L 231.840854 213.496813 
L 233.234461 215.579458 
L 234.628067 218.703425 
L 236.021674 218.703425 
L 237.41528 213.496813 
L 238.808886 213.496813 
L 240.202493 219.744747 
L 241.596099 219.744747 
L 242.989706 220.786069 
L 244.383312 224.951358 
L 245.776918 227.034003 
L 247.170525 228.075325 
L 248.564131 231.199292 
L 249.957738 236.405904 
L 251.351344 235.364582 
L 252.74495 231.199292 
L 254.138557 232.240615 
L 255.532163 239.529871 
L 256.92577 239.529871 
L 258.319376 238.488549 
L 259.712982 243.69516 
L 261.106589 242.653838 
L 262.500195 240.571193 
L 263.893802 236.405904 
L 265.287408 238.488549 
L 266.681014 238.488549 
L 268.074621 234.323259 
L 269.468227 241.612515 
L 270.861833 241.612515 
L 272.25544 247.860449 
L 273.649046 244.736482 
L 275.042653 248.901772 
L 276.436259 248.901772 
L 277.829865 249.943094 
L 279.223472 245.777805 
L 282.010685 245.777805 
L 283.404291 250.984416 
L 284.797897 242.653838 
L 286.191504 244.736482 
L 287.58511 239.529871 
L 288.978717 241.612515 
L 290.372323 240.571193 
L 291.765929 241.612515 
L 293.159536 238.488549 
L 294.553142 241.612515 
L 295.946749 243.69516 
L 297.340355 242.653838 
L 298.733961 236.405904 
L 300.127568 238.488549 
L 301.521174 233.281937 
L 302.914781 234.323259 
L 304.308387 240.571193 
L 305.701993 248.901772 
L 307.0956 243.69516 
L 308.489206 243.69516 
L 309.882812 244.736482 
L 311.276419 242.653838 
L 314.063632 244.736482 
L 315.457238 243.69516 
L 316.850844 245.777805 
L 318.244451 253.067061 
L 319.638057 252.025739 
L 321.031664 245.777805 
L 322.42527 246.819127 
L 323.818876 245.777805 
L 325.212483 242.653838 
L 326.606089 240.571193 
L 327.999696 240.571193 
L 329.393302 244.736482 
L 330.786908 246.819127 
L 332.180515 245.777805 
L 334.967728 245.777805 
L 336.361334 244.736482 
L 337.75494 242.653838 
L 339.148547 244.736482 
L 340.542153 245.777805 
L 341.93576 243.69516 
L 343.329366 242.653838 
L 344.722972 247.860449 
L 346.116579 252.025739 
L 347.510185 248.901772 
L 348.903792 252.025739 
L 350.297398 252.025739 
L 351.691004 249.943094 
L 353.084611 253.067061 
L 354.478217 247.860449 
L 355.871823 244.736482 
L 357.26543 243.69516 
L 358.659036 239.529871 
L 362.839855 239.529871 
L 365.627068 235.364582 
L 367.020675 231.199292 
L 368.414281 238.488549 
L 369.807887 238.488549 
L 371.201494 237.447226 
L 372.5951 235.364582 
L 373.988707 231.199292 
L 375.382313 232.240615 
L 378.169526 230.15797 
L 379.563132 228.075325 
L 380.956739 224.951358 
L 382.350345 229.116648 
L 383.743951 216.62078 
L 385.137558 213.496813 
L 386.531164 215.579458 
L 387.924771 214.538135 
L 389.318377 204.124912 
L 390.711983 214.538135 
L 392.10559 213.496813 
L 393.499196 216.62078 
L 394.892803 215.579458 
L 396.286409 205.166235 
L 397.680015 203.08359 
L 399.073622 203.08359 
L 400.467228 189.5464 
L 401.860834 194.753011 
L 403.254441 202.042268 
L 404.648047 196.835656 
L 406.041654 197.876978 
L 407.43526 197.876978 
L 408.828866 199.959623 
L 410.222473 198.918301 
L 411.616079 206.207557 
L 413.009686 207.248879 
L 414.403292 199.959623 
L 415.796898 195.794334 
L 417.190505 197.876978 
L 418.584111 204.124912 
L 419.977718 206.207557 
L 421.371324 204.124912 
L 422.76493 215.579458 
L 424.158537 207.248879 
L 425.552143 207.248879 
L 426.94575 202.042268 
L 428.339356 195.794334 
L 429.732962 199.959623 
L 431.126569 199.959623 
L 432.520175 207.248879 
L 433.913782 210.372846 
L 435.307388 207.248879 
L 436.700994 206.207557 
L 438.094601 210.372846 
L 439.488207 216.62078 
L 440.881813 212.455491 
L 442.27542 209.331524 
L 443.669026 211.414168 
L 445.062633 204.124912 
L 446.456239 211.414168 
L 447.849845 215.579458 
L 449.243452 215.579458 
L 450.637058 204.124912 
L 452.030665 215.579458 
L 453.424271 215.579458 
L 454.817877 220.786069 
L 456.211484 217.662102 
L 457.60509 215.579458 
L 458.998697 217.662102 
L 460.392303 218.703425 
L 461.785909 221.827392 
L 463.179516 223.910036 
L 464.573122 224.951358 
L 465.966729 227.034003 
L 467.360335 224.951358 
L 468.753941 220.786069 
L 470.147548 218.703425 
L 471.541154 212.455491 
L 472.934761 213.496813 
L 474.328367 206.207557 
L 475.721973 204.124912 
L 477.11558 199.959623 
L 478.509186 202.042268 
L 479.902793 205.166235 
L 482.690005 209.331524 
L 484.083612 210.372846 
L 485.477218 213.496813 
L 486.870824 211.414168 
L 488.264431 214.538135 
L 489.658037 207.248879 
L 491.051644 208.290201 
L 492.44525 211.414168 
L 493.838856 210.372846 
L 495.232463 217.662102 
L 499.413282 220.786069 
L 500.806888 216.62078 
L 502.200495 210.372846 
L 503.594101 216.62078 
L 504.987708 212.455491 
L 506.381314 217.662102 
L 507.77492 219.744747 
L 509.168527 225.992681 
L 510.562133 230.15797 
L 511.95574 232.240615 
L 513.349346 229.116648 
L 514.742952 230.15797 
L 516.136559 227.034003 
L 517.530165 237.447226 
L 518.923772 238.488549 
L 520.317378 222.868714 
L 521.710984 228.075325 
L 523.104591 225.992681 
L 524.498197 227.034003 
L 525.891804 221.827392 
L 527.28541 225.992681 
L 528.679016 228.075325 
L 530.072623 224.951358 
L 531.466229 227.034003 
L 532.859835 234.323259 
L 535.647048 221.827392 
L 537.040655 229.116648 
L 538.434261 222.868714 
L 539.827867 218.703425 
L 541.221474 221.827392 
L 542.61508 217.662102 
L 544.008687 217.662102 
L 545.402293 218.703425 
L 546.795899 227.034003 
L 548.189506 213.496813 
L 549.583112 217.662102 
L 550.976719 220.786069 
L 552.370325 211.414168 
L 553.763931 207.248879 
L 555.157538 199.959623 
L 556.551144 183.298466 
L 557.944751 173.926565 
L 559.338357 186.422433 
L 560.731963 169.761276 
L 562.12557 162.47202 
L 563.519176 164.554664 
L 563.519176 164.554664 
" style="fill:none;stroke:#ff7f0e;stroke-linecap:round;stroke-width:1.5;"/>
   </g>
   <g id="patch_3">
    <path d="M 30.882812 298.989375 
L 30.882812 21.789375 
" style="fill:none;stroke:#cccccc;stroke-linecap:square;stroke-linejoin:miter;stroke-width:0.8;"/>
   </g>
   <g id="patch_4">
    <path d="M 588.882812 298.989375 
L 588.882812 21.789375 
" style="fill:none;stroke:#cccccc;stroke-linecap:square;stroke-linejoin:miter;stroke-width:0.8;"/>
   </g>
   <g id="patch_5">
    <path d="M 30.882812 298.989375 
L 588.882812 298.989375 
" style="fill:none;stroke:#cccccc;stroke-linecap:square;stroke-linejoin:miter;stroke-width:0.8;"/>
   </g>
   <g id="patch_6">
    <path d="M 30.882812 21.789375 
L 588.882812 21.789375 
" style="fill:none;stroke:#cccccc;stroke-linecap:square;stroke-linejoin:miter;stroke-width:0.8;"/>
   </g>
   <g id="text_14">
    <!-- Internações -->
    <g style="fill:#262626;" transform="translate(278.531875 15.789375)scale(0.12 -0.12)">
     <defs>
      <path d="M 9.328125 0 
L 9.328125 71.578125 
L 18.796875 71.578125 
L 18.796875 0 
z
" id="ArialMT-73"/>
      <path d="M 6.59375 0 
L 6.59375 51.859375 
L 14.5 51.859375 
L 14.5 44.484375 
Q 20.21875 53.03125 31 53.03125 
Q 35.6875 53.03125 39.625 51.34375 
Q 43.5625 49.65625 45.515625 46.921875 
Q 47.46875 44.1875 48.25 40.4375 
Q 48.734375 37.984375 48.734375 31.890625 
L 48.734375 0 
L 39.9375 0 
L 39.9375 31.546875 
Q 39.9375 36.921875 38.90625 39.578125 
Q 37.890625 42.234375 35.28125 43.8125 
Q 32.671875 45.40625 29.15625 45.40625 
Q 23.53125 45.40625 19.453125 41.84375 
Q 15.375 38.28125 15.375 28.328125 
L 15.375 0 
z
" id="ArialMT-110"/>
      <path d="M 25.78125 7.859375 
L 27.046875 0.09375 
Q 23.34375 -0.6875 20.40625 -0.6875 
Q 15.625 -0.6875 12.984375 0.828125 
Q 10.359375 2.34375 9.28125 4.8125 
Q 8.203125 7.28125 8.203125 15.1875 
L 8.203125 45.015625 
L 1.765625 45.015625 
L 1.765625 51.859375 
L 8.203125 51.859375 
L 8.203125 64.703125 
L 16.9375 69.96875 
L 16.9375 51.859375 
L 25.78125 51.859375 
L 25.78125 45.015625 
L 16.9375 45.015625 
L 16.9375 14.703125 
Q 16.9375 10.9375 17.40625 9.859375 
Q 17.875 8.796875 18.921875 8.15625 
Q 19.96875 7.515625 21.921875 7.515625 
Q 23.390625 7.515625 25.78125 7.859375 
z
" id="ArialMT-116"/>
      <path d="M 42.09375 16.703125 
L 51.171875 15.578125 
Q 49.03125 7.625 43.21875 3.21875 
Q 37.40625 -1.171875 28.375 -1.171875 
Q 17 -1.171875 10.328125 5.828125 
Q 3.65625 12.84375 3.65625 25.484375 
Q 3.65625 38.578125 10.390625 45.796875 
Q 17.140625 53.03125 27.875 53.03125 
Q 38.28125 53.03125 44.875 45.953125 
Q 51.46875 38.875 51.46875 26.03125 
Q 51.46875 25.25 51.421875 23.6875 
L 12.75 23.6875 
Q 13.234375 15.140625 17.578125 10.59375 
Q 21.921875 6.0625 28.421875 6.0625 
Q 33.25 6.0625 36.671875 8.59375 
Q 40.09375 11.140625 42.09375 16.703125 
z
M 13.234375 30.90625 
L 42.1875 30.90625 
Q 41.609375 37.453125 38.875 40.71875 
Q 34.671875 45.796875 27.984375 45.796875 
Q 21.921875 45.796875 17.796875 41.75 
Q 13.671875 37.703125 13.234375 30.90625 
z
" id="ArialMT-101"/>
      <path d="M 6.5 0 
L 6.5 51.859375 
L 14.40625 51.859375 
L 14.40625 44 
Q 17.4375 49.515625 20 51.265625 
Q 22.5625 53.03125 25.640625 53.03125 
Q 30.078125 53.03125 34.671875 50.203125 
L 31.640625 42.046875 
Q 28.421875 43.953125 25.203125 43.953125 
Q 22.3125 43.953125 20.015625 42.21875 
Q 17.71875 40.484375 16.75 37.40625 
Q 15.28125 32.71875 15.28125 27.15625 
L 15.28125 0 
z
" id="ArialMT-114"/>
      <path d="M 40.4375 6.390625 
Q 35.546875 2.25 31.03125 0.53125 
Q 26.515625 -1.171875 21.34375 -1.171875 
Q 12.796875 -1.171875 8.203125 3 
Q 3.609375 7.171875 3.609375 13.671875 
Q 3.609375 17.484375 5.34375 20.625 
Q 7.078125 23.78125 9.890625 25.6875 
Q 12.703125 27.59375 16.21875 28.5625 
Q 18.796875 29.25 24.03125 29.890625 
Q 34.671875 31.15625 39.703125 32.90625 
Q 39.75 34.71875 39.75 35.203125 
Q 39.75 40.578125 37.25 42.78125 
Q 33.890625 45.75 27.25 45.75 
Q 21.046875 45.75 18.09375 43.578125 
Q 15.140625 41.40625 13.71875 35.890625 
L 5.125 37.0625 
Q 6.296875 42.578125 8.984375 45.96875 
Q 11.671875 49.359375 16.75 51.1875 
Q 21.828125 53.03125 28.515625 53.03125 
Q 35.15625 53.03125 39.296875 51.46875 
Q 43.453125 49.90625 45.40625 47.53125 
Q 47.359375 45.171875 48.140625 41.546875 
Q 48.578125 39.3125 48.578125 33.453125 
L 48.578125 21.734375 
Q 48.578125 9.46875 49.140625 6.21875 
Q 49.703125 2.984375 51.375 0 
L 42.1875 0 
Q 40.828125 2.734375 40.4375 6.390625 
z
M 39.703125 26.03125 
Q 34.90625 24.078125 25.34375 22.703125 
Q 19.921875 21.921875 17.671875 20.9375 
Q 15.4375 19.96875 14.203125 18.09375 
Q 12.984375 16.21875 12.984375 13.921875 
Q 12.984375 10.40625 15.640625 8.0625 
Q 18.3125 5.71875 23.4375 5.71875 
Q 28.515625 5.71875 32.46875 7.9375 
Q 36.421875 10.15625 38.28125 14.015625 
Q 39.703125 17 39.703125 22.796875 
z
" id="ArialMT-97"/>
      <path d="M 40.4375 19 
L 49.078125 17.875 
Q 47.65625 8.9375 41.8125 3.875 
Q 35.984375 -1.171875 27.484375 -1.171875 
Q 16.84375 -1.171875 10.375 5.78125 
Q 3.90625 12.75 3.90625 25.734375 
Q 3.90625 34.125 6.6875 40.421875 
Q 9.46875 46.734375 15.15625 49.875 
Q 20.84375 53.03125 27.546875 53.03125 
Q 35.984375 53.03125 41.359375 48.75 
Q 46.734375 44.484375 48.25 36.625 
L 39.703125 35.296875 
Q 38.484375 40.53125 35.375 43.15625 
Q 32.28125 45.796875 27.875 45.796875 
Q 21.234375 45.796875 17.078125 41.03125 
Q 12.9375 36.28125 12.9375 25.984375 
Q 12.9375 15.53125 16.9375 10.796875 
Q 20.953125 6.0625 27.390625 6.0625 
Q 32.5625 6.0625 36.03125 9.234375 
Q 39.5 12.40625 40.4375 19 
z
M 20.0625 -6.53125 
L 22.609375 2.109375 
L 29.15625 2.109375 
L 27.546875 -3.125 
Q 31.6875 -3.609375 33.78125 -5.671875 
Q 35.890625 -7.75 35.890625 -10.296875 
Q 35.890625 -13.953125 32.375 -16.765625 
Q 28.859375 -19.578125 21.78125 -19.578125 
Q 17.78125 -19.578125 14.75 -18.984375 
L 15.28125 -13.28125 
Q 18.40625 -13.46875 19.875 -13.46875 
Q 24.46875 -13.46875 26.3125 -12.203125 
Q 27.734375 -11.21875 27.734375 -9.8125 
Q 27.734375 -8.921875 27.171875 -8.234375 
Q 26.609375 -7.5625 25.09375 -7.0625 
Q 23.578125 -6.578125 20.0625 -6.53125 
z
" id="ArialMT-231"/>
      <path d="M 3.328125 25.921875 
Q 3.328125 40.328125 11.328125 47.265625 
Q 18.015625 53.03125 27.640625 53.03125 
Q 38.328125 53.03125 45.109375 46.015625 
Q 51.90625 39.015625 51.90625 26.65625 
Q 51.90625 16.65625 48.90625 10.90625 
Q 45.90625 5.171875 40.15625 2 
Q 34.421875 -1.171875 27.640625 -1.171875 
Q 16.75 -1.171875 10.03125 5.8125 
Q 3.328125 12.796875 3.328125 25.921875 
z
M 12.359375 25.921875 
Q 12.359375 15.96875 16.703125 11.015625 
Q 21.046875 6.0625 27.640625 6.0625 
Q 34.1875 6.0625 38.53125 11.03125 
Q 42.875 16.015625 42.875 26.21875 
Q 42.875 35.84375 38.5 40.796875 
Q 34.125 45.75 27.640625 45.75 
Q 21.046875 45.75 16.703125 40.8125 
Q 12.359375 35.890625 12.359375 25.921875 
z
M 11.28125 59.515625 
Q 11.234375 64.59375 14.0625 67.625 
Q 16.84375 70.65625 21.1875 70.65625 
Q 24.21875 70.65625 29.4375 68.015625 
Q 32.328125 66.546875 34.03125 66.546875 
Q 35.59375 66.546875 36.421875 67.40625 
Q 37.25 68.265625 37.59375 70.796875 
L 43.953125 70.796875 
Q 43.796875 65.234375 41.140625 62.453125 
Q 38.484375 59.671875 34.375 59.671875 
Q 31.296875 59.671875 26.265625 62.40625 
Q 23 64.15625 21.484375 64.15625 
Q 19.828125 64.15625 18.796875 62.984375 
Q 17.71875 61.8125 17.78125 59.515625 
z
" id="ArialMT-245"/>
      <path d="M 3.078125 15.484375 
L 11.765625 16.84375 
Q 12.5 11.625 15.84375 8.84375 
Q 19.1875 6.0625 25.203125 6.0625 
Q 31.25 6.0625 34.171875 8.515625 
Q 37.109375 10.984375 37.109375 14.3125 
Q 37.109375 17.28125 34.515625 19 
Q 32.71875 20.171875 25.53125 21.96875 
Q 15.875 24.421875 12.140625 26.203125 
Q 8.40625 27.984375 6.46875 31.125 
Q 4.546875 34.28125 4.546875 38.09375 
Q 4.546875 41.546875 6.125 44.5 
Q 7.71875 47.46875 10.453125 49.421875 
Q 12.5 50.921875 16.03125 51.96875 
Q 19.578125 53.03125 23.640625 53.03125 
Q 29.734375 53.03125 34.34375 51.265625 
Q 38.96875 49.515625 41.15625 46.5 
Q 43.359375 43.5 44.1875 38.484375 
L 35.59375 37.3125 
Q 35.015625 41.3125 32.203125 43.546875 
Q 29.390625 45.796875 24.265625 45.796875 
Q 18.21875 45.796875 15.625 43.796875 
Q 13.03125 41.796875 13.03125 39.109375 
Q 13.03125 37.40625 14.109375 36.03125 
Q 15.1875 34.625 17.484375 33.6875 
Q 18.796875 33.203125 25.25 31.453125 
Q 34.578125 28.953125 38.25 27.359375 
Q 41.9375 25.78125 44.03125 22.75 
Q 46.140625 19.734375 46.140625 15.234375 
Q 46.140625 10.84375 43.578125 6.953125 
Q 41.015625 3.078125 36.171875 0.953125 
Q 31.34375 -1.171875 25.25 -1.171875 
Q 15.140625 -1.171875 9.84375 3.03125 
Q 4.546875 7.234375 3.078125 15.484375 
z
" id="ArialMT-115"/>
     </defs>
     <use xlink:href="#ArialMT-73"/>
     <use x="27.783203" xlink:href="#ArialMT-110"/>
     <use x="83.398438" xlink:href="#ArialMT-116"/>
     <use x="111.181641" xlink:href="#ArialMT-101"/>
     <use x="166.796875" xlink:href="#ArialMT-114"/>
     <use x="200.097656" xlink:href="#ArialMT-110"/>
     <use x="255.712891" xlink:href="#ArialMT-97"/>
     <use x="311.328125" xlink:href="#ArialMT-231"/>
     <use x="361.328125" xlink:href="#ArialMT-245"/>
     <use x="416.943359" xlink:href="#ArialMT-101"/>
     <use x="472.558594" xlink:href="#ArialMT-115"/>
    </g>
   </g>
   <g id="legend_1">
    <g id="patch_7">
     <path d="M 37.882812 58.08 
L 122.134375 58.08 
Q 124.134375 58.08 124.134375 56.08 
L 124.134375 28.789375 
Q 124.134375 26.789375 122.134375 26.789375 
L 37.882812 26.789375 
Q 35.882812 26.789375 35.882812 28.789375 
L 35.882812 56.08 
Q 35.882812 58.08 37.882812 58.08 
z
" style="fill:#ffffff;opacity:0.8;stroke:#cccccc;stroke-linejoin:miter;"/>
    </g>
    <g id="line2d_16">
     <path d="M 39.882812 34.447187 
L 59.882812 34.447187 
" style="fill:none;stroke:#1f77b4;stroke-linecap:round;stroke-width:1.5;"/>
    </g>
    <g id="line2d_17"/>
    <g id="text_15">
     <!-- Internações -->
     <g style="fill:#262626;" transform="translate(67.882812 37.947187)scale(0.1 -0.1)">
      <use xlink:href="#ArialMT-73"/>
      <use x="27.783203" xlink:href="#ArialMT-110"/>
      <use x="83.398438" xlink:href="#ArialMT-116"/>
      <use x="111.181641" xlink:href="#ArialMT-101"/>
      <use x="166.796875" xlink:href="#ArialMT-114"/>
      <use x="200.097656" xlink:href="#ArialMT-110"/>
      <use x="255.712891" xlink:href="#ArialMT-97"/>
      <use x="311.328125" xlink:href="#ArialMT-231"/>
      <use x="361.328125" xlink:href="#ArialMT-245"/>
      <use x="416.943359" xlink:href="#ArialMT-101"/>
      <use x="472.558594" xlink:href="#ArialMT-115"/>
     </g>
    </g>
    <g id="line2d_18">
     <path d="M 39.882812 48.5925 
L 59.882812 48.5925 
" style="fill:none;stroke:#ff7f0e;stroke-linecap:round;stroke-width:1.5;"/>
    </g>
    <g id="line2d_19"/>
    <g id="text_16">
     <!-- UTI -->
     <g style="fill:#262626;" transform="translate(67.882812 52.0925)scale(0.1 -0.1)">
      <defs>
       <path d="M 54.6875 71.578125 
L 64.15625 71.578125 
L 64.15625 30.21875 
Q 64.15625 19.4375 61.71875 13.078125 
Q 59.28125 6.734375 52.90625 2.75 
Q 46.53125 -1.21875 36.1875 -1.21875 
Q 26.125 -1.21875 19.71875 2.25 
Q 13.328125 5.71875 10.59375 12.28125 
Q 7.859375 18.84375 7.859375 30.21875 
L 7.859375 71.578125 
L 17.328125 71.578125 
L 17.328125 30.28125 
Q 17.328125 20.953125 19.0625 16.53125 
Q 20.796875 12.109375 25.015625 9.71875 
Q 29.25 7.328125 35.359375 7.328125 
Q 45.796875 7.328125 50.234375 12.0625 
Q 54.6875 16.796875 54.6875 30.28125 
z
" id="ArialMT-85"/>
       <path d="M 25.921875 0 
L 25.921875 63.140625 
L 2.34375 63.140625 
L 2.34375 71.578125 
L 59.078125 71.578125 
L 59.078125 63.140625 
L 35.40625 63.140625 
L 35.40625 0 
z
" id="ArialMT-84"/>
      </defs>
      <use xlink:href="#ArialMT-85"/>
      <use x="72.216797" xlink:href="#ArialMT-84"/>
      <use x="133.300781" xlink:href="#ArialMT-73"/>
     </g>
    </g>
   </g>
  </g>
 </g>
 <defs>
  <clipPath id="pefac71078a">
   <rect height="277.2" width="558" x="30.882812" y="21.789375"/>
  </clipPath>
 </defs>
</svg>
