<?xml version="1.0" encoding="utf-8" standalone="no"?>
<!DOCTYPE svg PUBLIC "-//W3C//DTD SVG 1.1//EN"
  "http://www.w3.org/Graphics/SVG/1.1/DTD/svg11.dtd">
<svg height="316.934687pt" version="1.1" viewBox="0 0 596.082813 316.934687" width="596.082813pt" xmlns="http://www.w3.org/2000/svg" xmlns:xlink="http://www.w3.org/1999/xlink">
 <metadata>
  <rdf:RDF xmlns:cc="http://creativecommons.org/ns#" xmlns:dc="http://purl.org/dc/elements/1.1/" xmlns:rdf="http://www.w3.org/1999/02/22-rdf-syntax-ns#">
   <cc:Work>
    <dc:type rdf:resource="http://purl.org/dc/dcmitype/StillImage"/>
    <dc:date>2021-04-04T19:18:55.810789</dc:date>
    <dc:format>image/svg+xml</dc:format>
    <dc:creator>
     <cc:Agent>
      <dc:title>Matplotlib v3.4.1, https://matplotlib.org/</dc:title>
     </cc:Agent>
    </dc:creator>
   </cc:Work>
  </rdf:RDF>
 </metadata>
 <defs>
  <style type="text/css">*{stroke-linecap:butt;stroke-linejoin:round;}</style>
 </defs>
 <g id="figure_1">
  <g id="patch_1">
   <path d="M 0 316.934687 
L 596.082813 316.934687 
L 596.082813 0 
L 0 0 
z
" style="fill:#ffffff;"/>
  </g>
  <g id="axes_1">
   <g id="patch_2">
    <path d="M 30.882812 293.589375 
L 588.882812 293.589375 
L 588.882812 21.789375 
L 30.882812 21.789375 
z
" style="fill:#ffffff;"/>
   </g>
   <g id="matplotlib.axis_1">
    <g id="xtick_1">
     <g id="line2d_1">
      <path clip-path="url(#pd77a59f964)" d="M 32.280808 293.589375 
L 32.280808 21.789375 
" style="fill:none;stroke:#cccccc;stroke-linecap:round;stroke-width:0.8;"/>
     </g>
     <g id="text_1">
      <!-- 2020-03 -->
      <g style="fill:#262626;" transform="translate(13.933152 307.747187)scale(0.1 -0.1)">
       <defs>
        <path d="M 3222 541 
L 3222 0 
L 194 0 
Q 188 203 259 391 
Q 375 700 629 1000 
Q 884 1300 1366 1694 
Q 2113 2306 2375 2664 
Q 2638 3022 2638 3341 
Q 2638 3675 2398 3904 
Q 2159 4134 1775 4134 
Q 1369 4134 1125 3890 
Q 881 3647 878 3216 
L 300 3275 
Q 359 3922 746 4261 
Q 1134 4600 1788 4600 
Q 2447 4600 2831 4234 
Q 3216 3869 3216 3328 
Q 3216 3053 3103 2787 
Q 2991 2522 2730 2228 
Q 2469 1934 1863 1422 
Q 1356 997 1212 845 
Q 1069 694 975 541 
L 3222 541 
z
" id="ArialMT-32" transform="scale(0.015625)"/>
        <path d="M 266 2259 
Q 266 3072 433 3567 
Q 600 4063 929 4331 
Q 1259 4600 1759 4600 
Q 2128 4600 2406 4451 
Q 2684 4303 2865 4023 
Q 3047 3744 3150 3342 
Q 3253 2941 3253 2259 
Q 3253 1453 3087 958 
Q 2922 463 2592 192 
Q 2263 -78 1759 -78 
Q 1097 -78 719 397 
Q 266 969 266 2259 
z
M 844 2259 
Q 844 1131 1108 757 
Q 1372 384 1759 384 
Q 2147 384 2411 759 
Q 2675 1134 2675 2259 
Q 2675 3391 2411 3762 
Q 2147 4134 1753 4134 
Q 1366 4134 1134 3806 
Q 844 3388 844 2259 
z
" id="ArialMT-30" transform="scale(0.015625)"/>
        <path d="M 203 1375 
L 203 1941 
L 1931 1941 
L 1931 1375 
L 203 1375 
z
" id="ArialMT-2d" transform="scale(0.015625)"/>
        <path d="M 269 1209 
L 831 1284 
Q 928 806 1161 595 
Q 1394 384 1728 384 
Q 2125 384 2398 659 
Q 2672 934 2672 1341 
Q 2672 1728 2419 1979 
Q 2166 2231 1775 2231 
Q 1616 2231 1378 2169 
L 1441 2663 
Q 1497 2656 1531 2656 
Q 1891 2656 2178 2843 
Q 2466 3031 2466 3422 
Q 2466 3731 2256 3934 
Q 2047 4138 1716 4138 
Q 1388 4138 1169 3931 
Q 950 3725 888 3313 
L 325 3413 
Q 428 3978 793 4289 
Q 1159 4600 1703 4600 
Q 2078 4600 2393 4439 
Q 2709 4278 2876 4000 
Q 3044 3722 3044 3409 
Q 3044 3113 2884 2869 
Q 2725 2625 2413 2481 
Q 2819 2388 3044 2092 
Q 3269 1797 3269 1353 
Q 3269 753 2831 336 
Q 2394 -81 1725 -81 
Q 1122 -81 723 278 
Q 325 638 269 1209 
z
" id="ArialMT-33" transform="scale(0.015625)"/>
       </defs>
       <use xlink:href="#ArialMT-32"/>
       <use x="55.615234" xlink:href="#ArialMT-30"/>
       <use x="111.230469" xlink:href="#ArialMT-32"/>
       <use x="166.845703" xlink:href="#ArialMT-30"/>
       <use x="222.460938" xlink:href="#ArialMT-2d"/>
       <use x="255.761719" xlink:href="#ArialMT-30"/>
       <use x="311.376953" xlink:href="#ArialMT-33"/>
      </g>
     </g>
    </g>
    <g id="xtick_2">
     <g id="line2d_2">
      <path clip-path="url(#pd77a59f964)" d="M 113.497702 293.589375 
L 113.497702 21.789375 
" style="fill:none;stroke:#cccccc;stroke-linecap:round;stroke-width:0.8;"/>
     </g>
     <g id="text_2">
      <!-- 2020-05 -->
      <g style="fill:#262626;" transform="translate(95.150045 307.747187)scale(0.1 -0.1)">
       <defs>
        <path d="M 266 1200 
L 856 1250 
Q 922 819 1161 601 
Q 1400 384 1738 384 
Q 2144 384 2425 690 
Q 2706 997 2706 1503 
Q 2706 1984 2436 2262 
Q 2166 2541 1728 2541 
Q 1456 2541 1237 2417 
Q 1019 2294 894 2097 
L 366 2166 
L 809 4519 
L 3088 4519 
L 3088 3981 
L 1259 3981 
L 1013 2750 
Q 1425 3038 1878 3038 
Q 2478 3038 2890 2622 
Q 3303 2206 3303 1553 
Q 3303 931 2941 478 
Q 2500 -78 1738 -78 
Q 1113 -78 717 272 
Q 322 622 266 1200 
z
" id="ArialMT-35" transform="scale(0.015625)"/>
       </defs>
       <use xlink:href="#ArialMT-32"/>
       <use x="55.615234" xlink:href="#ArialMT-30"/>
       <use x="111.230469" xlink:href="#ArialMT-32"/>
       <use x="166.845703" xlink:href="#ArialMT-30"/>
       <use x="222.460938" xlink:href="#ArialMT-2d"/>
       <use x="255.761719" xlink:href="#ArialMT-30"/>
       <use x="311.376953" xlink:href="#ArialMT-35"/>
      </g>
     </g>
    </g>
    <g id="xtick_3">
     <g id="line2d_3">
      <path clip-path="url(#pd77a59f964)" d="M 194.714595 293.589375 
L 194.714595 21.789375 
" style="fill:none;stroke:#cccccc;stroke-linecap:round;stroke-width:0.8;"/>
     </g>
     <g id="text_3">
      <!-- 2020-07 -->
      <g style="fill:#262626;" transform="translate(176.366939 307.747187)scale(0.1 -0.1)">
       <defs>
        <path d="M 303 3981 
L 303 4522 
L 3269 4522 
L 3269 4084 
Q 2831 3619 2401 2847 
Q 1972 2075 1738 1259 
Q 1569 684 1522 0 
L 944 0 
Q 953 541 1156 1306 
Q 1359 2072 1739 2783 
Q 2119 3494 2547 3981 
L 303 3981 
z
" id="ArialMT-37" transform="scale(0.015625)"/>
       </defs>
       <use xlink:href="#ArialMT-32"/>
       <use x="55.615234" xlink:href="#ArialMT-30"/>
       <use x="111.230469" xlink:href="#ArialMT-32"/>
       <use x="166.845703" xlink:href="#ArialMT-30"/>
       <use x="222.460938" xlink:href="#ArialMT-2d"/>
       <use x="255.761719" xlink:href="#ArialMT-30"/>
       <use x="311.376953" xlink:href="#ArialMT-37"/>
      </g>
     </g>
    </g>
    <g id="xtick_4">
     <g id="line2d_4">
      <path clip-path="url(#pd77a59f964)" d="M 277.262913 293.589375 
L 277.262913 21.789375 
" style="fill:none;stroke:#cccccc;stroke-linecap:round;stroke-width:0.8;"/>
     </g>
     <g id="text_4">
      <!-- 2020-09 -->
      <g style="fill:#262626;" transform="translate(258.915256 307.747187)scale(0.1 -0.1)">
       <defs>
        <path d="M 350 1059 
L 891 1109 
Q 959 728 1153 556 
Q 1347 384 1650 384 
Q 1909 384 2104 503 
Q 2300 622 2425 820 
Q 2550 1019 2634 1356 
Q 2719 1694 2719 2044 
Q 2719 2081 2716 2156 
Q 2547 1888 2255 1720 
Q 1963 1553 1622 1553 
Q 1053 1553 659 1965 
Q 266 2378 266 3053 
Q 266 3750 677 4175 
Q 1088 4600 1706 4600 
Q 2153 4600 2523 4359 
Q 2894 4119 3086 3673 
Q 3278 3228 3278 2384 
Q 3278 1506 3087 986 
Q 2897 466 2520 194 
Q 2144 -78 1638 -78 
Q 1100 -78 759 220 
Q 419 519 350 1059 
z
M 2653 3081 
Q 2653 3566 2395 3850 
Q 2138 4134 1775 4134 
Q 1400 4134 1122 3828 
Q 844 3522 844 3034 
Q 844 2597 1108 2323 
Q 1372 2050 1759 2050 
Q 2150 2050 2401 2323 
Q 2653 2597 2653 3081 
z
" id="ArialMT-39" transform="scale(0.015625)"/>
       </defs>
       <use xlink:href="#ArialMT-32"/>
       <use x="55.615234" xlink:href="#ArialMT-30"/>
       <use x="111.230469" xlink:href="#ArialMT-32"/>
       <use x="166.845703" xlink:href="#ArialMT-30"/>
       <use x="222.460938" xlink:href="#ArialMT-2d"/>
       <use x="255.761719" xlink:href="#ArialMT-30"/>
       <use x="311.376953" xlink:href="#ArialMT-39"/>
      </g>
     </g>
    </g>
    <g id="xtick_5">
     <g id="line2d_5">
      <path clip-path="url(#pd77a59f964)" d="M 358.479806 293.589375 
L 358.479806 21.789375 
" style="fill:none;stroke:#cccccc;stroke-linecap:round;stroke-width:0.8;"/>
     </g>
     <g id="text_5">
      <!-- 2020-11 -->
      <g style="fill:#262626;" transform="translate(340.5009 307.747187)scale(0.1 -0.1)">
       <defs>
        <path d="M 2384 0 
L 1822 0 
L 1822 3584 
Q 1619 3391 1289 3197 
Q 959 3003 697 2906 
L 697 3450 
Q 1169 3672 1522 3987 
Q 1875 4303 2022 4600 
L 2384 4600 
L 2384 0 
z
" id="ArialMT-31" transform="scale(0.015625)"/>
       </defs>
       <use xlink:href="#ArialMT-32"/>
       <use x="55.615234" xlink:href="#ArialMT-30"/>
       <use x="111.230469" xlink:href="#ArialMT-32"/>
       <use x="166.845703" xlink:href="#ArialMT-30"/>
       <use x="222.460938" xlink:href="#ArialMT-2d"/>
       <use x="255.761719" xlink:href="#ArialMT-31"/>
       <use x="304.001953" xlink:href="#ArialMT-31"/>
      </g>
     </g>
    </g>
    <g id="xtick_6">
     <g id="line2d_6">
      <path clip-path="url(#pd77a59f964)" d="M 439.696699 293.589375 
L 439.696699 21.789375 
" style="fill:none;stroke:#cccccc;stroke-linecap:round;stroke-width:0.8;"/>
     </g>
     <g id="text_6">
      <!-- 2021-01 -->
      <g style="fill:#262626;" transform="translate(421.349043 307.747187)scale(0.1 -0.1)">
       <use xlink:href="#ArialMT-32"/>
       <use x="55.615234" xlink:href="#ArialMT-30"/>
       <use x="111.230469" xlink:href="#ArialMT-32"/>
       <use x="166.845703" xlink:href="#ArialMT-31"/>
       <use x="222.460938" xlink:href="#ArialMT-2d"/>
       <use x="255.761719" xlink:href="#ArialMT-30"/>
       <use x="311.376953" xlink:href="#ArialMT-31"/>
      </g>
     </g>
    </g>
    <g id="xtick_7">
     <g id="line2d_7">
      <path clip-path="url(#pd77a59f964)" d="M 518.250744 293.589375 
L 518.250744 21.789375 
" style="fill:none;stroke:#cccccc;stroke-linecap:round;stroke-width:0.8;"/>
     </g>
     <g id="text_7">
      <!-- 2021-03 -->
      <g style="fill:#262626;" transform="translate(499.903088 307.747187)scale(0.1 -0.1)">
       <use xlink:href="#ArialMT-32"/>
       <use x="55.615234" xlink:href="#ArialMT-30"/>
       <use x="111.230469" xlink:href="#ArialMT-32"/>
       <use x="166.845703" xlink:href="#ArialMT-31"/>
       <use x="222.460938" xlink:href="#ArialMT-2d"/>
       <use x="255.761719" xlink:href="#ArialMT-30"/>
       <use x="311.376953" xlink:href="#ArialMT-33"/>
      </g>
     </g>
    </g>
   </g>
   <g id="matplotlib.axis_2">
    <g id="ytick_1">
     <g id="line2d_8">
      <path clip-path="url(#pd77a59f964)" d="M 30.882812 281.23483 
L 588.882812 281.23483 
" style="fill:none;stroke:#cccccc;stroke-linecap:round;stroke-width:0.8;"/>
     </g>
     <g id="text_8">
      <!-- 0 -->
      <g style="fill:#262626;" transform="translate(18.321875 284.813736)scale(0.1 -0.1)">
       <use xlink:href="#ArialMT-30"/>
      </g>
     </g>
    </g>
    <g id="ytick_2">
     <g id="line2d_9">
      <path clip-path="url(#pd77a59f964)" d="M 30.882812 244.245172 
L 588.882812 244.245172 
" style="fill:none;stroke:#cccccc;stroke-linecap:round;stroke-width:0.8;"/>
     </g>
     <g id="text_9">
      <!-- 50 -->
      <g style="fill:#262626;" transform="translate(12.760937 247.824079)scale(0.1 -0.1)">
       <use xlink:href="#ArialMT-35"/>
       <use x="55.615234" xlink:href="#ArialMT-30"/>
      </g>
     </g>
    </g>
    <g id="ytick_3">
     <g id="line2d_10">
      <path clip-path="url(#pd77a59f964)" d="M 30.882812 207.255515 
L 588.882812 207.255515 
" style="fill:none;stroke:#cccccc;stroke-linecap:round;stroke-width:0.8;"/>
     </g>
     <g id="text_10">
      <!-- 100 -->
      <g style="fill:#262626;" transform="translate(7.2 210.834422)scale(0.1 -0.1)">
       <use xlink:href="#ArialMT-31"/>
       <use x="55.615234" xlink:href="#ArialMT-30"/>
       <use x="111.230469" xlink:href="#ArialMT-30"/>
      </g>
     </g>
    </g>
    <g id="ytick_4">
     <g id="line2d_11">
      <path clip-path="url(#pd77a59f964)" d="M 30.882812 170.265858 
L 588.882812 170.265858 
" style="fill:none;stroke:#cccccc;stroke-linecap:round;stroke-width:0.8;"/>
     </g>
     <g id="text_11">
      <!-- 150 -->
      <g style="fill:#262626;" transform="translate(7.2 173.844765)scale(0.1 -0.1)">
       <use xlink:href="#ArialMT-31"/>
       <use x="55.615234" xlink:href="#ArialMT-35"/>
       <use x="111.230469" xlink:href="#ArialMT-30"/>
      </g>
     </g>
    </g>
    <g id="ytick_5">
     <g id="line2d_12">
      <path clip-path="url(#pd77a59f964)" d="M 30.882812 133.276201 
L 588.882812 133.276201 
" style="fill:none;stroke:#cccccc;stroke-linecap:round;stroke-width:0.8;"/>
     </g>
     <g id="text_12">
      <!-- 200 -->
      <g style="fill:#262626;" transform="translate(7.2 136.855108)scale(0.1 -0.1)">
       <use xlink:href="#ArialMT-32"/>
       <use x="55.615234" xlink:href="#ArialMT-30"/>
       <use x="111.230469" xlink:href="#ArialMT-30"/>
      </g>
     </g>
    </g>
    <g id="ytick_6">
     <g id="line2d_13">
      <path clip-path="url(#pd77a59f964)" d="M 30.882812 96.286544 
L 588.882812 96.286544 
" style="fill:none;stroke:#cccccc;stroke-linecap:round;stroke-width:0.8;"/>
     </g>
     <g id="text_13">
      <!-- 250 -->
      <g style="fill:#262626;" transform="translate(7.2 99.865451)scale(0.1 -0.1)">
       <use xlink:href="#ArialMT-32"/>
       <use x="55.615234" xlink:href="#ArialMT-35"/>
       <use x="111.230469" xlink:href="#ArialMT-30"/>
      </g>
     </g>
    </g>
    <g id="ytick_7">
     <g id="line2d_14">
      <path clip-path="url(#pd77a59f964)" d="M 30.882812 59.296887 
L 588.882812 59.296887 
" style="fill:none;stroke:#cccccc;stroke-linecap:round;stroke-width:0.8;"/>
     </g>
     <g id="text_14">
      <!-- 300 -->
      <g style="fill:#262626;" transform="translate(7.2 62.875793)scale(0.1 -0.1)">
       <use xlink:href="#ArialMT-33"/>
       <use x="55.615234" xlink:href="#ArialMT-30"/>
       <use x="111.230469" xlink:href="#ArialMT-30"/>
      </g>
     </g>
    </g>
    <g id="ytick_8">
     <g id="line2d_15">
      <path clip-path="url(#pd77a59f964)" d="M 30.882812 22.30723 
L 588.882812 22.30723 
" style="fill:none;stroke:#cccccc;stroke-linecap:round;stroke-width:0.8;"/>
     </g>
     <g id="text_15">
      <!-- 350 -->
      <g style="fill:#262626;" transform="translate(7.2 25.886136)scale(0.1 -0.1)">
       <use xlink:href="#ArialMT-33"/>
       <use x="55.615234" xlink:href="#ArialMT-35"/>
       <use x="111.230469" xlink:href="#ArialMT-30"/>
      </g>
     </g>
    </g>
   </g>
   <g id="line2d_16">
    <path clip-path="url(#pd77a59f964)" d="M 56.246449 273.097105 
L 57.577873 273.097105 
L 58.909298 271.617519 
L 60.240722 271.617519 
L 61.572147 264.219587 
L 62.903571 250.903311 
L 64.234996 250.163518 
L 65.56642 247.204345 
L 66.897845 242.765586 
L 68.229269 242.025793 
L 69.560694 242.025793 
L 70.892118 241.286 
L 72.223543 238.326827 
L 73.554967 222.051378 
L 74.886392 220.571792 
L 76.217816 220.571792 
L 77.549241 198.377998 
L 78.880665 196.898411 
L 80.21209 210.214688 
L 81.543514 206.515722 
L 82.874938 200.597377 
L 84.206363 199.117791 
L 85.537787 196.158618 
L 86.869212 196.158618 
L 88.200636 194.679032 
L 89.532061 183.582135 
L 90.863485 182.102549 
L 92.19491 185.801514 
L 93.526334 173.225031 
L 94.857759 170.265858 
L 96.189183 168.046479 
L 97.520608 164.347513 
L 98.852032 173.964824 
L 100.183457 173.964824 
L 101.514881 171.005652 
L 102.846306 165.087306 
L 104.17773 139.93434 
L 105.509155 138.454753 
L 106.840579 173.225031 
L 108.172004 175.44441 
L 109.503428 178.403583 
L 110.834853 173.225031 
L 112.166277 178.403583 
L 113.497702 170.265858 
L 114.829126 165.8271 
L 116.160551 166.566893 
L 117.491975 164.347513 
L 118.823399 158.429168 
L 120.154824 155.469996 
L 121.486248 159.908754 
L 122.817673 162.867927 
L 124.149097 158.429168 
L 125.480522 155.469996 
L 126.811946 159.168961 
L 128.143371 143.633305 
L 129.474795 150.291444 
L 130.80622 147.332271 
L 132.137644 143.633305 
L 133.469069 149.55165 
L 134.800493 138.454753 
L 136.131918 136.975167 
L 137.463342 139.194546 
L 138.794767 131.796615 
L 140.126191 134.755788 
L 141.457616 136.975167 
L 142.78904 138.454753 
L 144.120465 136.235374 
L 145.451889 135.495581 
L 146.783314 131.056822 
L 148.114738 132.536408 
L 149.446163 133.276201 
L 150.777587 121.439511 
L 152.109011 120.699718 
L 153.440436 122.179304 
L 154.77186 127.357856 
L 156.103285 127.357856 
L 157.434709 126.618063 
L 158.766134 125.138477 
L 160.097558 120.699718 
L 161.428983 120.699718 
L 162.760407 108.863028 
L 164.091832 114.04158 
L 165.423256 107.383441 
L 166.754681 112.561993 
L 168.086105 105.164062 
L 169.41753 108.123235 
L 170.748954 102.204889 
L 172.080379 111.082407 
L 173.411803 118.480339 
L 174.743228 120.699718 
L 176.074652 124.398684 
L 177.406077 128.837443 
L 178.737501 125.87827 
L 180.068926 120.699718 
L 181.40035 119.959925 
L 182.731775 117.000752 
L 184.063199 121.439511 
L 185.394624 133.276201 
L 186.726048 134.755788 
L 188.057472 129.577236 
L 189.388897 132.536408 
L 190.720321 139.194546 
L 192.051746 142.153719 
L 193.38317 148.072064 
L 194.714595 148.072064 
L 196.046019 153.990409 
L 197.377444 146.592478 
L 198.708868 150.291444 
L 200.040293 151.77103 
L 201.371717 154.730202 
L 202.703142 145.852685 
L 204.034566 162.128134 
L 205.365991 159.908754 
L 206.697415 159.168961 
L 208.02884 163.60772 
L 209.360264 168.786272 
L 210.691689 167.306686 
L 212.023113 147.332271 
L 213.354538 159.168961 
L 214.685962 151.031237 
L 216.017387 145.852685 
L 217.348811 153.990409 
L 218.680236 151.77103 
L 221.343085 156.209789 
L 222.674509 151.77103 
L 224.005933 154.730202 
L 225.337358 150.291444 
L 226.668782 151.77103 
L 229.331631 156.209789 
L 230.663056 160.648548 
L 231.99448 168.046479 
L 233.325905 170.265858 
L 234.657329 171.005652 
L 235.988754 174.704617 
L 237.320178 176.923997 
L 238.651603 174.704617 
L 239.983027 181.362756 
L 241.314452 185.061721 
L 242.645876 193.199446 
L 243.977301 190.980066 
L 245.308725 192.459653 
L 246.64015 205.036136 
L 247.971574 199.857584 
L 249.302999 203.55655 
L 250.634423 207.995309 
L 251.965848 205.036136 
L 253.297272 204.296343 
L 254.628697 201.33717 
L 255.960121 199.857584 
L 257.291545 199.117791 
L 258.62297 186.541307 
L 259.954394 194.679032 
L 262.617243 203.55655 
L 263.948668 201.33717 
L 265.280092 210.954481 
L 266.611517 211.694274 
L 267.942941 209.474895 
L 269.274366 211.694274 
L 270.60579 215.39324 
L 271.937215 209.474895 
L 273.268639 217.612619 
L 274.600064 203.55655 
L 275.931488 193.939239 
L 277.262913 192.459653 
L 278.594337 196.158618 
L 279.925762 197.638205 
L 281.257186 197.638205 
L 282.588611 199.857584 
L 283.920035 199.857584 
L 285.25146 207.995309 
L 286.582884 206.515722 
L 287.914309 196.898411 
L 289.245733 199.857584 
L 290.577158 196.898411 
L 291.908582 196.158618 
L 293.240006 196.898411 
L 294.571431 199.857584 
L 297.23428 208.735102 
L 298.565704 209.474895 
L 299.897129 207.255515 
L 301.228553 205.775929 
L 303.891402 207.255515 
L 305.222827 213.913654 
L 306.554251 213.913654 
L 307.885676 227.22993 
L 309.2171 225.010551 
L 310.548525 223.530965 
L 311.879949 219.092206 
L 313.211374 217.612619 
L 314.542798 218.352413 
L 315.874223 215.39324 
L 317.205647 219.092206 
L 318.537072 218.352413 
L 319.868496 213.913654 
L 321.199921 215.39324 
L 322.531345 216.133033 
L 323.86277 210.954481 
L 325.194194 207.255515 
L 326.525619 209.474895 
L 327.857043 206.515722 
L 329.188467 208.735102 
L 330.519892 205.775929 
L 331.851316 210.954481 
L 333.182741 211.694274 
L 334.514165 210.954481 
L 335.84559 208.735102 
L 337.177014 210.214688 
L 338.508439 213.173861 
L 339.839863 212.434067 
L 341.171288 212.434067 
L 342.502712 209.474895 
L 343.834137 203.55655 
L 345.165561 201.33717 
L 346.496986 202.076963 
L 347.82841 204.296343 
L 349.159835 200.597377 
L 350.491259 200.597377 
L 351.822684 198.377998 
L 353.154108 191.719859 
L 354.485533 193.199446 
L 355.816957 190.240273 
L 357.148382 190.240273 
L 358.479806 187.281101 
L 359.811231 183.582135 
L 361.142655 177.66379 
L 362.47408 185.801514 
L 363.805504 190.980066 
L 365.136928 185.801514 
L 366.468353 179.883169 
L 367.799777 182.842342 
L 369.131202 176.184204 
L 370.462626 171.745445 
L 371.794051 162.128134 
L 373.125475 163.60772 
L 374.4569 166.566893 
L 375.788324 171.005652 
L 377.119749 170.265858 
L 378.451173 165.8271 
L 379.782598 166.566893 
L 381.114022 151.031237 
L 382.445447 147.332271 
L 383.776871 149.55165 
L 385.108296 136.235374 
L 386.43972 136.975167 
L 387.771145 141.413926 
L 389.102569 135.495581 
L 390.433994 130.317029 
L 391.765418 130.317029 
L 393.096843 132.536408 
L 394.428267 125.87827 
L 395.759692 136.235374 
L 397.091116 139.93434 
L 398.42254 145.112892 
L 399.753965 137.71496 
L 401.085389 139.194546 
L 402.416814 146.592478 
L 403.748238 142.893512 
L 405.079663 153.250616 
L 406.411087 162.128134 
L 407.742512 153.250616 
L 409.073936 139.93434 
L 410.405361 151.77103 
L 411.736785 148.072064 
L 413.06821 146.592478 
L 414.399634 153.250616 
L 418.393908 168.786272 
L 419.725332 167.306686 
L 421.056757 166.566893 
L 422.388181 171.745445 
L 423.719606 175.44441 
L 425.05103 171.005652 
L 426.382455 168.046479 
L 427.713879 168.046479 
L 429.045304 172.485238 
L 430.376728 179.143376 
L 431.708153 181.362756 
L 433.039577 175.44441 
L 434.371001 174.704617 
L 435.702426 170.265858 
L 437.03385 172.485238 
L 438.365275 171.005652 
L 439.696699 180.622962 
L 441.028124 177.66379 
L 442.359548 184.321928 
L 443.690973 193.939239 
L 445.022397 192.459653 
L 446.353822 191.719859 
L 447.685246 193.199446 
L 449.016671 189.50048 
L 451.67952 190.980066 
L 453.010944 181.362756 
L 454.342369 184.321928 
L 455.673793 176.184204 
L 457.005218 176.923997 
L 458.336642 173.225031 
L 460.999491 182.102549 
L 462.330916 175.44441 
L 463.66234 178.403583 
L 464.993765 184.321928 
L 466.325189 192.459653 
L 467.656614 185.801514 
L 468.988038 189.50048 
L 470.319462 186.541307 
L 471.650887 196.158618 
L 472.982311 200.597377 
L 474.313736 191.719859 
L 475.64516 197.638205 
L 476.976585 193.199446 
L 478.308009 198.377998 
L 479.639434 200.597377 
L 480.970858 191.719859 
L 482.302283 190.980066 
L 483.633707 188.020894 
L 484.965132 193.199446 
L 486.296556 192.459653 
L 487.627981 193.199446 
L 488.959405 196.898411 
L 490.29083 199.857584 
L 491.622254 206.515722 
L 492.953679 207.255515 
L 494.285103 205.775929 
L 495.616528 202.816757 
L 496.947952 213.173861 
L 498.279377 212.434067 
L 499.610801 202.816757 
L 500.942226 199.857584 
L 502.27365 210.954481 
L 503.605074 210.954481 
L 504.936499 207.995309 
L 506.267923 210.214688 
L 507.599348 205.775929 
L 508.930772 199.117791 
L 510.262197 194.679032 
L 511.593621 197.638205 
L 512.925046 188.020894 
L 514.25647 188.760687 
L 515.587895 202.076963 
L 516.919319 185.801514 
L 518.250744 177.66379 
L 519.582168 183.582135 
L 520.913593 175.44441 
L 522.245017 176.923997 
L 523.576442 174.704617 
L 524.907866 183.582135 
L 526.239291 180.622962 
L 527.570715 171.005652 
L 528.90214 166.566893 
L 531.564989 159.168961 
L 534.227838 145.852685 
L 535.559262 136.975167 
L 536.890687 131.796615 
L 538.222111 117.000752 
L 539.553535 114.04158 
L 540.88496 110.342614 
L 542.216384 105.164062 
L 543.547809 94.067165 
L 544.879233 80.750888 
L 546.210658 73.352957 
L 547.542082 63.735646 
L 548.873507 57.077508 
L 550.204931 39.322472 
L 551.536356 48.939783 
L 552.86778 40.062266 
L 554.199205 43.761231 
L 555.530629 43.761231 
L 556.862054 34.14392 
L 558.193478 35.623507 
L 559.524903 40.802059 
L 560.856327 37.103093 
L 562.187752 42.281645 
L 563.519176 43.761231 
L 563.519176 43.761231 
" style="fill:none;stroke:#1f77b4;stroke-linecap:round;stroke-width:1.5;"/>
   </g>
   <g id="line2d_17">
    <path clip-path="url(#pd77a59f964)" d="M 56.246449 281.23483 
L 57.577873 281.23483 
L 58.909298 276.056278 
L 60.240722 276.056278 
L 61.572147 274.576691 
L 62.903571 267.17876 
L 64.234996 267.918553 
L 65.56642 264.95938 
L 70.892118 264.95938 
L 72.223543 265.699174 
L 73.554967 262.740001 
L 74.886392 264.219587 
L 76.217816 263.479794 
L 77.549241 260.520622 
L 78.880665 260.520622 
L 80.21209 256.821656 
L 81.543514 253.862483 
L 82.874938 253.862483 
L 84.206363 257.561449 
L 86.869212 257.561449 
L 88.200636 256.821656 
L 89.532061 253.12269 
L 90.863485 255.34207 
L 92.19491 259.780828 
L 93.526334 253.862483 
L 94.857759 248.683931 
L 96.189183 247.944138 
L 97.520608 241.286 
L 98.852032 245.724759 
L 100.183457 244.245172 
L 101.514881 241.286 
L 102.846306 234.627862 
L 104.17773 230.928896 
L 105.509155 228.709517 
L 106.840579 234.627862 
L 108.172004 234.627862 
L 110.834853 237.587034 
L 112.166277 234.627862 
L 113.497702 229.44931 
L 114.829126 227.22993 
L 116.160551 225.750344 
L 117.491975 226.490137 
L 118.823399 221.311585 
L 120.154824 221.311585 
L 121.486248 228.709517 
L 122.817673 230.189103 
L 124.149097 225.010551 
L 125.480522 225.010551 
L 128.143371 227.969723 
L 129.474795 232.408482 
L 130.80622 229.44931 
L 132.137644 227.22993 
L 133.469069 231.668689 
L 134.800493 225.010551 
L 136.131918 225.010551 
L 137.463342 223.530965 
L 138.794767 226.490137 
L 140.126191 222.051378 
L 141.457616 222.051378 
L 142.78904 218.352413 
L 144.120465 219.092206 
L 146.783314 217.612619 
L 148.114738 224.270758 
L 149.446163 226.490137 
L 150.777587 221.311585 
L 152.109011 225.010551 
L 153.440436 221.311585 
L 154.77186 216.872826 
L 156.103285 215.39324 
L 157.434709 214.653447 
L 158.766134 217.612619 
L 160.097558 215.39324 
L 161.428983 215.39324 
L 162.760407 210.954481 
L 164.091832 213.173861 
L 165.423256 211.694274 
L 166.754681 211.694274 
L 168.086105 204.296343 
L 169.41753 207.995309 
L 170.748954 213.173861 
L 172.080379 215.39324 
L 173.411803 208.735102 
L 174.743228 213.173861 
L 176.074652 219.092206 
L 177.406077 221.311585 
L 180.068926 219.831999 
L 181.40035 215.39324 
L 182.731775 217.612619 
L 184.063199 216.133033 
L 185.394624 219.092206 
L 186.726048 218.352413 
L 188.057472 219.092206 
L 189.388897 223.530965 
L 190.720321 230.189103 
L 192.051746 229.44931 
L 193.38317 226.490137 
L 194.714595 227.22993 
L 196.046019 230.189103 
L 197.377444 227.969723 
L 198.708868 226.490137 
L 200.040293 227.22993 
L 201.371717 227.22993 
L 202.703142 225.750344 
L 204.034566 232.408482 
L 205.365991 232.408482 
L 206.697415 231.668689 
L 208.02884 234.627862 
L 209.360264 236.107448 
L 210.691689 232.408482 
L 212.023113 227.22993 
L 213.354538 229.44931 
L 214.685962 223.530965 
L 216.017387 226.490137 
L 217.348811 232.408482 
L 218.680236 234.627862 
L 220.01166 233.148275 
L 221.343085 233.148275 
L 222.674509 234.627862 
L 224.005933 229.44931 
L 225.337358 230.928896 
L 226.668782 233.148275 
L 228.000207 233.148275 
L 229.331631 229.44931 
L 230.663056 229.44931 
L 231.99448 233.888069 
L 233.325905 233.888069 
L 234.657329 234.627862 
L 235.988754 237.587034 
L 237.320178 239.066621 
L 238.651603 239.806414 
L 239.983027 242.025793 
L 241.314452 245.724759 
L 242.645876 244.984966 
L 243.977301 242.025793 
L 245.308725 242.765586 
L 246.64015 247.944138 
L 247.971574 247.944138 
L 249.302999 247.204345 
L 250.634423 250.903311 
L 251.965848 250.163518 
L 253.297272 248.683931 
L 254.628697 245.724759 
L 255.960121 247.204345 
L 257.291545 247.204345 
L 258.62297 244.245172 
L 259.954394 249.423724 
L 261.285819 249.423724 
L 262.617243 253.862483 
L 263.948668 251.643104 
L 265.280092 254.602276 
L 266.611517 254.602276 
L 267.942941 255.34207 
L 269.274366 252.382897 
L 271.937215 252.382897 
L 273.268639 256.081863 
L 274.600064 250.163518 
L 275.931488 251.643104 
L 277.262913 247.944138 
L 278.594337 249.423724 
L 279.925762 248.683931 
L 281.257186 249.423724 
L 282.588611 247.204345 
L 283.920035 249.423724 
L 285.25146 250.903311 
L 286.582884 250.163518 
L 287.914309 245.724759 
L 289.245733 247.204345 
L 290.577158 243.505379 
L 291.908582 244.245172 
L 293.240006 248.683931 
L 294.571431 254.602276 
L 295.902855 250.903311 
L 297.23428 250.903311 
L 298.565704 251.643104 
L 299.897129 250.163518 
L 302.559978 251.643104 
L 303.891402 250.903311 
L 305.222827 252.382897 
L 306.554251 257.561449 
L 307.885676 256.821656 
L 309.2171 252.382897 
L 310.548525 253.12269 
L 311.879949 252.382897 
L 313.211374 250.163518 
L 314.542798 248.683931 
L 315.874223 248.683931 
L 317.205647 251.643104 
L 318.537072 253.12269 
L 319.868496 252.382897 
L 322.531345 252.382897 
L 323.86277 251.643104 
L 325.194194 250.163518 
L 326.525619 251.643104 
L 327.857043 252.382897 
L 329.188467 250.903311 
L 330.519892 250.163518 
L 331.851316 253.862483 
L 333.182741 256.821656 
L 334.514165 254.602276 
L 335.84559 256.821656 
L 337.177014 256.821656 
L 338.508439 255.34207 
L 339.839863 257.561449 
L 341.171288 253.862483 
L 342.502712 251.643104 
L 343.834137 250.903311 
L 345.165561 247.944138 
L 349.159835 247.944138 
L 351.822684 244.984966 
L 353.154108 242.025793 
L 354.485533 247.204345 
L 355.816957 247.204345 
L 357.148382 246.464552 
L 358.479806 244.984966 
L 359.811231 242.025793 
L 361.142655 242.765586 
L 363.805504 241.286 
L 365.136928 239.806414 
L 366.468353 237.587034 
L 367.799777 240.546207 
L 369.131202 231.668689 
L 370.462626 229.44931 
L 371.794051 230.928896 
L 373.125475 230.189103 
L 374.4569 222.791171 
L 375.788324 230.189103 
L 377.119749 229.44931 
L 378.451173 231.668689 
L 379.782598 230.928896 
L 381.114022 223.530965 
L 382.445447 222.051378 
L 383.776871 222.051378 
L 385.108296 212.434067 
L 386.43972 216.133033 
L 387.771145 221.311585 
L 389.102569 217.612619 
L 390.433994 218.352413 
L 391.765418 218.352413 
L 393.096843 219.831999 
L 394.428267 219.092206 
L 395.759692 224.270758 
L 397.091116 225.010551 
L 398.42254 219.831999 
L 399.753965 216.872826 
L 401.085389 218.352413 
L 402.416814 222.791171 
L 403.748238 224.270758 
L 405.079663 222.791171 
L 406.411087 230.928896 
L 407.742512 225.010551 
L 409.073936 225.010551 
L 410.405361 221.311585 
L 411.736785 216.872826 
L 413.06821 219.831999 
L 414.399634 219.831999 
L 415.731059 225.010551 
L 417.062483 227.22993 
L 418.393908 225.010551 
L 419.725332 224.270758 
L 421.056757 227.22993 
L 422.388181 231.668689 
L 423.719606 228.709517 
L 425.05103 226.490137 
L 426.382455 227.969723 
L 427.713879 222.791171 
L 429.045304 227.969723 
L 430.376728 230.928896 
L 431.708153 230.928896 
L 433.039577 222.791171 
L 434.371001 230.928896 
L 435.702426 230.928896 
L 437.03385 234.627862 
L 438.365275 232.408482 
L 439.696699 230.928896 
L 441.028124 232.408482 
L 442.359548 233.148275 
L 443.690973 235.367655 
L 445.022397 236.847241 
L 446.353822 237.587034 
L 447.685246 239.066621 
L 449.016671 237.587034 
L 450.348095 234.627862 
L 451.67952 233.148275 
L 453.010944 228.709517 
L 454.342369 229.44931 
L 455.673793 224.270758 
L 457.005218 222.791171 
L 458.336642 219.831999 
L 459.668067 221.311585 
L 460.999491 223.530965 
L 463.66234 226.490137 
L 464.993765 227.22993 
L 466.325189 229.44931 
L 467.656614 227.969723 
L 468.988038 230.189103 
L 470.319462 225.010551 
L 471.650887 225.750344 
L 472.982311 227.969723 
L 474.313736 227.22993 
L 475.64516 232.408482 
L 479.639434 234.627862 
L 480.970858 231.668689 
L 482.302283 227.22993 
L 483.633707 231.668689 
L 484.965132 228.709517 
L 486.296556 232.408482 
L 487.627981 233.888069 
L 488.959405 238.326827 
L 490.29083 241.286 
L 491.622254 242.765586 
L 492.953679 240.546207 
L 494.285103 241.286 
L 495.616528 239.066621 
L 496.947952 246.464552 
L 498.279377 247.204345 
L 499.610801 236.107448 
L 500.942226 239.806414 
L 502.27365 238.326827 
L 503.605074 239.066621 
L 504.936499 235.367655 
L 506.267923 238.326827 
L 507.599348 239.806414 
L 508.930772 237.587034 
L 510.262197 239.066621 
L 511.593621 244.245172 
L 514.25647 235.367655 
L 515.587895 240.546207 
L 516.919319 236.107448 
L 518.250744 233.148275 
L 519.582168 235.367655 
L 520.913593 232.408482 
L 522.245017 232.408482 
L 523.576442 233.148275 
L 524.907866 239.066621 
L 526.239291 229.44931 
L 527.570715 232.408482 
L 528.90214 234.627862 
L 530.233564 227.969723 
L 531.564989 225.010551 
L 532.896413 219.831999 
L 534.227838 207.995309 
L 535.559262 201.33717 
L 536.890687 210.214688 
L 538.222111 198.377998 
L 539.553535 193.199446 
L 540.88496 194.679032 
L 542.216384 183.582135 
L 543.547809 187.281101 
L 544.879233 182.842342 
L 546.210658 184.321928 
L 547.542082 177.66379 
L 548.873507 174.704617 
L 550.204931 162.867927 
L 551.536356 160.648548 
L 552.86778 153.250616 
L 554.199205 148.811857 
L 555.530629 151.77103 
L 556.862054 149.55165 
L 558.193478 148.072064 
L 559.524903 145.112892 
L 562.187752 143.633305 
L 563.519176 146.592478 
L 563.519176 146.592478 
" style="fill:none;stroke:#ff7f0e;stroke-linecap:round;stroke-width:1.5;"/>
   </g>
   <g id="patch_3">
    <path d="M 30.882812 293.589375 
L 30.882812 21.789375 
" style="fill:none;stroke:#cccccc;stroke-linecap:square;stroke-linejoin:miter;stroke-width:0.8;"/>
   </g>
   <g id="patch_4">
    <path d="M 588.882812 293.589375 
L 588.882812 21.789375 
" style="fill:none;stroke:#cccccc;stroke-linecap:square;stroke-linejoin:miter;stroke-width:0.8;"/>
   </g>
   <g id="patch_5">
    <path d="M 30.882812 293.589375 
L 588.882812 293.589375 
" style="fill:none;stroke:#cccccc;stroke-linecap:square;stroke-linejoin:miter;stroke-width:0.8;"/>
   </g>
   <g id="patch_6">
    <path d="M 30.882812 21.789375 
L 588.882812 21.789375 
" style="fill:none;stroke:#cccccc;stroke-linecap:square;stroke-linejoin:miter;stroke-width:0.8;"/>
   </g>
   <g id="text_16">
    <!-- Internações -->
    <g style="fill:#262626;" transform="translate(278.531875 15.789375)scale(0.12 -0.12)">
     <defs>
      <path d="M 597 0 
L 597 4581 
L 1203 4581 
L 1203 0 
L 597 0 
z
" id="ArialMT-49" transform="scale(0.015625)"/>
      <path d="M 422 0 
L 422 3319 
L 928 3319 
L 928 2847 
Q 1294 3394 1984 3394 
Q 2284 3394 2536 3286 
Q 2788 3178 2913 3003 
Q 3038 2828 3088 2588 
Q 3119 2431 3119 2041 
L 3119 0 
L 2556 0 
L 2556 2019 
Q 2556 2363 2490 2533 
Q 2425 2703 2258 2804 
Q 2091 2906 1866 2906 
Q 1506 2906 1245 2678 
Q 984 2450 984 1813 
L 984 0 
L 422 0 
z
" id="ArialMT-6e" transform="scale(0.015625)"/>
      <path d="M 1650 503 
L 1731 6 
Q 1494 -44 1306 -44 
Q 1000 -44 831 53 
Q 663 150 594 308 
Q 525 466 525 972 
L 525 2881 
L 113 2881 
L 113 3319 
L 525 3319 
L 525 4141 
L 1084 4478 
L 1084 3319 
L 1650 3319 
L 1650 2881 
L 1084 2881 
L 1084 941 
Q 1084 700 1114 631 
Q 1144 563 1211 522 
Q 1278 481 1403 481 
Q 1497 481 1650 503 
z
" id="ArialMT-74" transform="scale(0.015625)"/>
      <path d="M 2694 1069 
L 3275 997 
Q 3138 488 2766 206 
Q 2394 -75 1816 -75 
Q 1088 -75 661 373 
Q 234 822 234 1631 
Q 234 2469 665 2931 
Q 1097 3394 1784 3394 
Q 2450 3394 2872 2941 
Q 3294 2488 3294 1666 
Q 3294 1616 3291 1516 
L 816 1516 
Q 847 969 1125 678 
Q 1403 388 1819 388 
Q 2128 388 2347 550 
Q 2566 713 2694 1069 
z
M 847 1978 
L 2700 1978 
Q 2663 2397 2488 2606 
Q 2219 2931 1791 2931 
Q 1403 2931 1139 2672 
Q 875 2413 847 1978 
z
" id="ArialMT-65" transform="scale(0.015625)"/>
      <path d="M 416 0 
L 416 3319 
L 922 3319 
L 922 2816 
Q 1116 3169 1280 3281 
Q 1444 3394 1641 3394 
Q 1925 3394 2219 3213 
L 2025 2691 
Q 1819 2813 1613 2813 
Q 1428 2813 1281 2702 
Q 1134 2591 1072 2394 
Q 978 2094 978 1738 
L 978 0 
L 416 0 
z
" id="ArialMT-72" transform="scale(0.015625)"/>
      <path d="M 2588 409 
Q 2275 144 1986 34 
Q 1697 -75 1366 -75 
Q 819 -75 525 192 
Q 231 459 231 875 
Q 231 1119 342 1320 
Q 453 1522 633 1644 
Q 813 1766 1038 1828 
Q 1203 1872 1538 1913 
Q 2219 1994 2541 2106 
Q 2544 2222 2544 2253 
Q 2544 2597 2384 2738 
Q 2169 2928 1744 2928 
Q 1347 2928 1158 2789 
Q 969 2650 878 2297 
L 328 2372 
Q 403 2725 575 2942 
Q 747 3159 1072 3276 
Q 1397 3394 1825 3394 
Q 2250 3394 2515 3294 
Q 2781 3194 2906 3042 
Q 3031 2891 3081 2659 
Q 3109 2516 3109 2141 
L 3109 1391 
Q 3109 606 3145 398 
Q 3181 191 3288 0 
L 2700 0 
Q 2613 175 2588 409 
z
M 2541 1666 
Q 2234 1541 1622 1453 
Q 1275 1403 1131 1340 
Q 988 1278 909 1158 
Q 831 1038 831 891 
Q 831 666 1001 516 
Q 1172 366 1500 366 
Q 1825 366 2078 508 
Q 2331 650 2450 897 
Q 2541 1088 2541 1459 
L 2541 1666 
z
" id="ArialMT-61" transform="scale(0.015625)"/>
      <path d="M 2588 1216 
L 3141 1144 
Q 3050 572 2676 248 
Q 2303 -75 1759 -75 
Q 1078 -75 664 370 
Q 250 816 250 1647 
Q 250 2184 428 2587 
Q 606 2991 970 3192 
Q 1334 3394 1763 3394 
Q 2303 3394 2647 3120 
Q 2991 2847 3088 2344 
L 2541 2259 
Q 2463 2594 2264 2762 
Q 2066 2931 1784 2931 
Q 1359 2931 1093 2626 
Q 828 2322 828 1663 
Q 828 994 1084 691 
Q 1341 388 1753 388 
Q 2084 388 2306 591 
Q 2528 794 2588 1216 
z
M 1284 -418 
L 1447 135 
L 1866 135 
L 1763 -200 
Q 2028 -231 2162 -363 
Q 2297 -496 2297 -659 
Q 2297 -893 2072 -1073 
Q 1847 -1253 1394 -1253 
Q 1138 -1253 944 -1215 
L 978 -850 
Q 1178 -862 1272 -862 
Q 1566 -862 1684 -781 
Q 1775 -718 1775 -628 
Q 1775 -571 1739 -527 
Q 1703 -484 1606 -452 
Q 1509 -421 1284 -418 
z
" id="ArialMT-e7" transform="scale(0.015625)"/>
      <path d="M 213 1659 
Q 213 2581 725 3025 
Q 1153 3394 1769 3394 
Q 2453 3394 2887 2945 
Q 3322 2497 3322 1706 
Q 3322 1066 3130 698 
Q 2938 331 2570 128 
Q 2203 -75 1769 -75 
Q 1072 -75 642 372 
Q 213 819 213 1659 
z
M 791 1659 
Q 791 1022 1069 705 
Q 1347 388 1769 388 
Q 2188 388 2466 706 
Q 2744 1025 2744 1678 
Q 2744 2294 2464 2611 
Q 2184 2928 1769 2928 
Q 1347 2928 1069 2612 
Q 791 2297 791 1659 
z
M 722 3809 
Q 719 4134 900 4328 
Q 1078 4522 1356 4522 
Q 1550 4522 1884 4353 
Q 2069 4259 2178 4259 
Q 2278 4259 2331 4314 
Q 2384 4369 2406 4531 
L 2813 4531 
Q 2803 4175 2633 3997 
Q 2463 3819 2200 3819 
Q 2003 3819 1681 3994 
Q 1472 4106 1375 4106 
Q 1269 4106 1203 4031 
Q 1134 3956 1138 3809 
L 722 3809 
z
" id="ArialMT-f5" transform="scale(0.015625)"/>
      <path d="M 197 991 
L 753 1078 
Q 800 744 1014 566 
Q 1228 388 1613 388 
Q 2000 388 2187 545 
Q 2375 703 2375 916 
Q 2375 1106 2209 1216 
Q 2094 1291 1634 1406 
Q 1016 1563 777 1677 
Q 538 1791 414 1992 
Q 291 2194 291 2438 
Q 291 2659 392 2848 
Q 494 3038 669 3163 
Q 800 3259 1026 3326 
Q 1253 3394 1513 3394 
Q 1903 3394 2198 3281 
Q 2494 3169 2634 2976 
Q 2775 2784 2828 2463 
L 2278 2388 
Q 2241 2644 2061 2787 
Q 1881 2931 1553 2931 
Q 1166 2931 1000 2803 
Q 834 2675 834 2503 
Q 834 2394 903 2306 
Q 972 2216 1119 2156 
Q 1203 2125 1616 2013 
Q 2213 1853 2448 1751 
Q 2684 1650 2818 1456 
Q 2953 1263 2953 975 
Q 2953 694 2789 445 
Q 2625 197 2315 61 
Q 2006 -75 1616 -75 
Q 969 -75 630 194 
Q 291 463 197 991 
z
" id="ArialMT-73" transform="scale(0.015625)"/>
     </defs>
     <use xlink:href="#ArialMT-49"/>
     <use x="27.783203" xlink:href="#ArialMT-6e"/>
     <use x="83.398438" xlink:href="#ArialMT-74"/>
     <use x="111.181641" xlink:href="#ArialMT-65"/>
     <use x="166.796875" xlink:href="#ArialMT-72"/>
     <use x="200.097656" xlink:href="#ArialMT-6e"/>
     <use x="255.712891" xlink:href="#ArialMT-61"/>
     <use x="311.328125" xlink:href="#ArialMT-e7"/>
     <use x="361.328125" xlink:href="#ArialMT-f5"/>
     <use x="416.943359" xlink:href="#ArialMT-65"/>
     <use x="472.558594" xlink:href="#ArialMT-73"/>
    </g>
   </g>
   <g id="legend_1">
    <g id="patch_7">
     <path d="M 37.882812 58.08 
L 122.134375 58.08 
Q 124.134375 58.08 124.134375 56.08 
L 124.134375 28.789375 
Q 124.134375 26.789375 122.134375 26.789375 
L 37.882812 26.789375 
Q 35.882812 26.789375 35.882812 28.789375 
L 35.882812 56.08 
Q 35.882812 58.08 37.882812 58.08 
z
" style="fill:#ffffff;opacity:0.8;stroke:#cccccc;stroke-linejoin:miter;"/>
    </g>
    <g id="line2d_18">
     <path d="M 39.882812 34.447187 
L 59.882812 34.447187 
" style="fill:none;stroke:#1f77b4;stroke-linecap:round;stroke-width:1.5;"/>
    </g>
    <g id="line2d_19"/>
    <g id="text_17">
     <!-- Internações -->
     <g style="fill:#262626;" transform="translate(67.882812 37.947187)scale(0.1 -0.1)">
      <use xlink:href="#ArialMT-49"/>
      <use x="27.783203" xlink:href="#ArialMT-6e"/>
      <use x="83.398438" xlink:href="#ArialMT-74"/>
      <use x="111.181641" xlink:href="#ArialMT-65"/>
      <use x="166.796875" xlink:href="#ArialMT-72"/>
      <use x="200.097656" xlink:href="#ArialMT-6e"/>
      <use x="255.712891" xlink:href="#ArialMT-61"/>
      <use x="311.328125" xlink:href="#ArialMT-e7"/>
      <use x="361.328125" xlink:href="#ArialMT-f5"/>
      <use x="416.943359" xlink:href="#ArialMT-65"/>
      <use x="472.558594" xlink:href="#ArialMT-73"/>
     </g>
    </g>
    <g id="line2d_20">
     <path d="M 39.882812 48.5925 
L 59.882812 48.5925 
" style="fill:none;stroke:#ff7f0e;stroke-linecap:round;stroke-width:1.5;"/>
    </g>
    <g id="line2d_21"/>
    <g id="text_18">
     <!-- UTI -->
     <g style="fill:#262626;" transform="translate(67.882812 52.0925)scale(0.1 -0.1)">
      <defs>
       <path d="M 3500 4581 
L 4106 4581 
L 4106 1934 
Q 4106 1244 3950 837 
Q 3794 431 3386 176 
Q 2978 -78 2316 -78 
Q 1672 -78 1262 144 
Q 853 366 678 786 
Q 503 1206 503 1934 
L 503 4581 
L 1109 4581 
L 1109 1938 
Q 1109 1341 1220 1058 
Q 1331 775 1601 622 
Q 1872 469 2263 469 
Q 2931 469 3215 772 
Q 3500 1075 3500 1938 
L 3500 4581 
z
" id="ArialMT-55" transform="scale(0.015625)"/>
       <path d="M 1659 0 
L 1659 4041 
L 150 4041 
L 150 4581 
L 3781 4581 
L 3781 4041 
L 2266 4041 
L 2266 0 
L 1659 0 
z
" id="ArialMT-54" transform="scale(0.015625)"/>
      </defs>
      <use xlink:href="#ArialMT-55"/>
      <use x="72.216797" xlink:href="#ArialMT-54"/>
      <use x="133.300781" xlink:href="#ArialMT-49"/>
     </g>
    </g>
   </g>
  </g>
 </g>
 <defs>
  <clipPath id="pd77a59f964">
   <rect height="271.8" width="558" x="30.882812" y="21.789375"/>
  </clipPath>
 </defs>
</svg>
