<?xml version="1.0" encoding="utf-8" standalone="no"?>
<!DOCTYPE svg PUBLIC "-//W3C//DTD SVG 1.1//EN"
  "http://www.w3.org/Graphics/SVG/1.1/DTD/svg11.dtd">
<svg height="320.089375pt" version="1.1" viewBox="0 0 595.1 320.089375" width="595.1pt" xmlns="http://www.w3.org/2000/svg" xmlns:xlink="http://www.w3.org/1999/xlink">
 <metadata>
  <rdf:RDF xmlns:cc="http://creativecommons.org/ns#" xmlns:dc="http://purl.org/dc/elements/1.1/" xmlns:rdf="http://www.w3.org/1999/02/22-rdf-syntax-ns#">
   <cc:Work>
    <dc:type rdf:resource="http://purl.org/dc/dcmitype/StillImage"/>
    <dc:date>2021-03-30T19:02:01.575171</dc:date>
    <dc:format>image/svg+xml</dc:format>
    <dc:creator>
     <cc:Agent>
      <dc:title>Matplotlib v3.4.0, https://matplotlib.org/</dc:title>
     </cc:Agent>
    </dc:creator>
   </cc:Work>
  </rdf:RDF>
 </metadata>
 <defs>
  <style type="text/css">*{stroke-linecap:butt;stroke-linejoin:round;}</style>
 </defs>
 <g id="figure_1">
  <g id="patch_1">
   <path d="M 0 320.089375 
L 595.1 320.089375 
L 595.1 0 
L 0 0 
z
" style="fill:#ffffff;"/>
  </g>
  <g id="axes_1">
   <g id="patch_2">
    <path d="M 29.9 293.589375 
L 587.9 293.589375 
L 587.9 21.789375 
L 29.9 21.789375 
z
" style="fill:#ffffff;"/>
   </g>
   <g id="matplotlib.axis_1">
    <g id="xtick_1">
     <g id="line2d_1">
      <path clip-path="url(#p7a7ca50a7e)" d="M 61.661096 293.589375 
L 61.661096 21.789375 
" style="fill:none;stroke:#cccccc;stroke-linecap:round;stroke-width:0.8;"/>
     </g>
     <g id="text_1">
      <!-- $\mathdefault{10^{1}}$ -->
      <g style="fill:#262626;" transform="translate(53.811096 310.901875)scale(0.1 -0.1)">
       <defs>
        <path d="M 2384 0 
L 1822 0 
L 1822 3584 
Q 1619 3391 1289 3197 
Q 959 3003 697 2906 
L 697 3450 
Q 1169 3672 1522 3987 
Q 1875 4303 2022 4600 
L 2384 4600 
L 2384 0 
z
" id="ArialMT-31" transform="scale(0.015625)"/>
        <path d="M 266 2259 
Q 266 3072 433 3567 
Q 600 4063 929 4331 
Q 1259 4600 1759 4600 
Q 2128 4600 2406 4451 
Q 2684 4303 2865 4023 
Q 3047 3744 3150 3342 
Q 3253 2941 3253 2259 
Q 3253 1453 3087 958 
Q 2922 463 2592 192 
Q 2263 -78 1759 -78 
Q 1097 -78 719 397 
Q 266 969 266 2259 
z
M 844 2259 
Q 844 1131 1108 757 
Q 1372 384 1759 384 
Q 2147 384 2411 759 
Q 2675 1134 2675 2259 
Q 2675 3391 2411 3762 
Q 2147 4134 1753 4134 
Q 1366 4134 1134 3806 
Q 844 3388 844 2259 
z
" id="ArialMT-30" transform="scale(0.015625)"/>
       </defs>
       <use transform="translate(0 0.99375)" xlink:href="#ArialMT-31"/>
       <use transform="translate(55.615234 0.99375)" xlink:href="#ArialMT-30"/>
       <use transform="translate(112.972813 70.6875)scale(0.7)" xlink:href="#ArialMT-31"/>
      </g>
     </g>
    </g>
    <g id="xtick_2">
     <g id="line2d_2">
      <path clip-path="url(#p7a7ca50a7e)" d="M 201.473387 293.589375 
L 201.473387 21.789375 
" style="fill:none;stroke:#cccccc;stroke-linecap:round;stroke-width:0.8;"/>
     </g>
     <g id="text_2">
      <!-- $\mathdefault{10^{2}}$ -->
      <g style="fill:#262626;" transform="translate(193.623387 310.901875)scale(0.1 -0.1)">
       <defs>
        <path d="M 3222 541 
L 3222 0 
L 194 0 
Q 188 203 259 391 
Q 375 700 629 1000 
Q 884 1300 1366 1694 
Q 2113 2306 2375 2664 
Q 2638 3022 2638 3341 
Q 2638 3675 2398 3904 
Q 2159 4134 1775 4134 
Q 1369 4134 1125 3890 
Q 881 3647 878 3216 
L 300 3275 
Q 359 3922 746 4261 
Q 1134 4600 1788 4600 
Q 2447 4600 2831 4234 
Q 3216 3869 3216 3328 
Q 3216 3053 3103 2787 
Q 2991 2522 2730 2228 
Q 2469 1934 1863 1422 
Q 1356 997 1212 845 
Q 1069 694 975 541 
L 3222 541 
z
" id="ArialMT-32" transform="scale(0.015625)"/>
       </defs>
       <use transform="translate(0 0.99375)" xlink:href="#ArialMT-31"/>
       <use transform="translate(55.615234 0.99375)" xlink:href="#ArialMT-30"/>
       <use transform="translate(112.972813 70.6875)scale(0.7)" xlink:href="#ArialMT-32"/>
      </g>
     </g>
    </g>
    <g id="xtick_3">
     <g id="line2d_3">
      <path clip-path="url(#p7a7ca50a7e)" d="M 341.285677 293.589375 
L 341.285677 21.789375 
" style="fill:none;stroke:#cccccc;stroke-linecap:round;stroke-width:0.8;"/>
     </g>
     <g id="text_3">
      <!-- $\mathdefault{10^{3}}$ -->
      <g style="fill:#262626;" transform="translate(333.435677 310.901875)scale(0.1 -0.1)">
       <defs>
        <path d="M 269 1209 
L 831 1284 
Q 928 806 1161 595 
Q 1394 384 1728 384 
Q 2125 384 2398 659 
Q 2672 934 2672 1341 
Q 2672 1728 2419 1979 
Q 2166 2231 1775 2231 
Q 1616 2231 1378 2169 
L 1441 2663 
Q 1497 2656 1531 2656 
Q 1891 2656 2178 2843 
Q 2466 3031 2466 3422 
Q 2466 3731 2256 3934 
Q 2047 4138 1716 4138 
Q 1388 4138 1169 3931 
Q 950 3725 888 3313 
L 325 3413 
Q 428 3978 793 4289 
Q 1159 4600 1703 4600 
Q 2078 4600 2393 4439 
Q 2709 4278 2876 4000 
Q 3044 3722 3044 3409 
Q 3044 3113 2884 2869 
Q 2725 2625 2413 2481 
Q 2819 2388 3044 2092 
Q 3269 1797 3269 1353 
Q 3269 753 2831 336 
Q 2394 -81 1725 -81 
Q 1122 -81 723 278 
Q 325 638 269 1209 
z
" id="ArialMT-33" transform="scale(0.015625)"/>
       </defs>
       <use transform="translate(0 0.99375)" xlink:href="#ArialMT-31"/>
       <use transform="translate(55.615234 0.99375)" xlink:href="#ArialMT-30"/>
       <use transform="translate(112.972813 70.6875)scale(0.7)" xlink:href="#ArialMT-33"/>
      </g>
     </g>
    </g>
    <g id="xtick_4">
     <g id="line2d_4">
      <path clip-path="url(#p7a7ca50a7e)" d="M 481.097968 293.589375 
L 481.097968 21.789375 
" style="fill:none;stroke:#cccccc;stroke-linecap:round;stroke-width:0.8;"/>
     </g>
     <g id="text_4">
      <!-- $\mathdefault{10^{4}}$ -->
      <g style="fill:#262626;" transform="translate(473.247968 310.801875)scale(0.1 -0.1)">
       <defs>
        <path d="M 2069 0 
L 2069 1097 
L 81 1097 
L 81 1613 
L 2172 4581 
L 2631 4581 
L 2631 1613 
L 3250 1613 
L 3250 1097 
L 2631 1097 
L 2631 0 
L 2069 0 
z
M 2069 1613 
L 2069 3678 
L 634 1613 
L 2069 1613 
z
" id="ArialMT-34" transform="scale(0.015625)"/>
       </defs>
       <use transform="translate(0 0.201563)" xlink:href="#ArialMT-31"/>
       <use transform="translate(55.615234 0.201563)" xlink:href="#ArialMT-30"/>
       <use transform="translate(112.972813 69.895313)scale(0.7)" xlink:href="#ArialMT-34"/>
      </g>
     </g>
    </g>
    <g id="xtick_5"/>
    <g id="xtick_6"/>
    <g id="xtick_7"/>
    <g id="xtick_8"/>
    <g id="xtick_9"/>
    <g id="xtick_10"/>
    <g id="xtick_11"/>
    <g id="xtick_12"/>
    <g id="xtick_13"/>
    <g id="xtick_14"/>
    <g id="xtick_15"/>
    <g id="xtick_16"/>
    <g id="xtick_17"/>
    <g id="xtick_18"/>
    <g id="xtick_19"/>
    <g id="xtick_20"/>
    <g id="xtick_21"/>
    <g id="xtick_22"/>
    <g id="xtick_23"/>
    <g id="xtick_24"/>
    <g id="xtick_25"/>
    <g id="xtick_26"/>
    <g id="xtick_27"/>
    <g id="xtick_28"/>
    <g id="xtick_29"/>
    <g id="xtick_30"/>
    <g id="xtick_31"/>
    <g id="xtick_32"/>
    <g id="xtick_33"/>
    <g id="xtick_34"/>
    <g id="xtick_35"/>
    <g id="xtick_36"/>
   </g>
   <g id="matplotlib.axis_2">
    <g id="ytick_1">
     <g id="line2d_5">
      <path clip-path="url(#p7a7ca50a7e)" d="M 29.9 276.427681 
L 587.9 276.427681 
" style="fill:none;stroke:#cccccc;stroke-linecap:round;stroke-width:0.8;"/>
     </g>
     <g id="text_5">
      <!-- $\mathdefault{10^{1}}$ -->
      <g style="fill:#262626;" transform="translate(7.2 281.583931)scale(0.1 -0.1)">
       <use transform="translate(0 0.99375)" xlink:href="#ArialMT-31"/>
       <use transform="translate(55.615234 0.99375)" xlink:href="#ArialMT-30"/>
       <use transform="translate(112.972813 70.6875)scale(0.7)" xlink:href="#ArialMT-31"/>
      </g>
     </g>
    </g>
    <g id="ytick_2">
     <g id="line2d_6">
      <path clip-path="url(#p7a7ca50a7e)" d="M 29.9 171.370593 
L 587.9 171.370593 
" style="fill:none;stroke:#cccccc;stroke-linecap:round;stroke-width:0.8;"/>
     </g>
     <g id="text_6">
      <!-- $\mathdefault{10^{2}}$ -->
      <g style="fill:#262626;" transform="translate(7.2 176.526843)scale(0.1 -0.1)">
       <use transform="translate(0 0.99375)" xlink:href="#ArialMT-31"/>
       <use transform="translate(55.615234 0.99375)" xlink:href="#ArialMT-30"/>
       <use transform="translate(112.972813 70.6875)scale(0.7)" xlink:href="#ArialMT-32"/>
      </g>
     </g>
    </g>
    <g id="ytick_3">
     <g id="line2d_7">
      <path clip-path="url(#p7a7ca50a7e)" d="M 29.9 66.313505 
L 587.9 66.313505 
" style="fill:none;stroke:#cccccc;stroke-linecap:round;stroke-width:0.8;"/>
     </g>
     <g id="text_7">
      <!-- $\mathdefault{10^{3}}$ -->
      <g style="fill:#262626;" transform="translate(7.2 71.469755)scale(0.1 -0.1)">
       <use transform="translate(0 0.99375)" xlink:href="#ArialMT-31"/>
       <use transform="translate(55.615234 0.99375)" xlink:href="#ArialMT-30"/>
       <use transform="translate(112.972813 70.6875)scale(0.7)" xlink:href="#ArialMT-33"/>
      </g>
     </g>
    </g>
    <g id="ytick_4"/>
    <g id="ytick_5"/>
    <g id="ytick_6"/>
    <g id="ytick_7"/>
    <g id="ytick_8"/>
    <g id="ytick_9"/>
    <g id="ytick_10"/>
    <g id="ytick_11"/>
    <g id="ytick_12"/>
    <g id="ytick_13"/>
    <g id="ytick_14"/>
    <g id="ytick_15"/>
    <g id="ytick_16"/>
    <g id="ytick_17"/>
    <g id="ytick_18"/>
    <g id="ytick_19"/>
    <g id="ytick_20"/>
    <g id="ytick_21"/>
    <g id="ytick_22"/>
    <g id="ytick_23"/>
   </g>
   <g id="line2d_8">
    <path clip-path="url(#p7a7ca50a7e)" d="M 55.263636 281.23483 
L 103.748789 244.802346 
L 128.368511 231.10986 
L 158.158991 208.828416 
L 176.243411 197.01767 
L 189.423504 187.644142 
L 198.994687 180.425058 
L 203.854857 178.785635 
L 203.854857 179.325591 
L 215.022597 173.710886 
L 222.336052 175.174938 
L 226.496564 178.785635 
L 233.334749 177.724524 
L 241.08238 173.233125 
L 242.02379 175.673585 
L 244.763489 171.370593 
L 255.385883 163.818878 
L 261.783342 159.75236 
L 266.12231 156.345874 
L 267.978065 159.400036 
L 271.909516 160.465276 
L 274.517512 156.675303 
L 276.1368 156.675303 
L 279.082413 164.598824 
L 279.755214 174.681682 
L 284.422071 170.467084 
L 290.462217 158.017333 
L 298.58773 145.577747 
L 298.58773 149.359555 
L 299.197984 150.500258 
L 302.850512 146.62666 
L 308.105224 136.233856 
L 310.67195 137.086698 
L 312.747195 141.607791 
L 315.686584 149.642069 
L 316.605205 146.8927 
L 317.779005 144.80659 
L 321.000734 143.302309 
L 328.71523 132.58185 
L 336.024448 119.310148 
L 340.120902 113.436862 
L 351.232663 96.856756 
L 353.210348 94.596735 
L 355.511169 93.756459 
L 357.216358 99.140802 
L 360.930429 101.249929 
L 363.553068 101.545242 
L 366.509581 108.693839 
L 368.247934 110.340306 
L 370.164751 109.041686 
L 376.058215 97.124881 
L 380.354654 89.392728 
L 382.332261 90.853491 
L 385.667201 87.105431 
L 390.794389 79.744394 
L 393.577535 76.0971 
L 401.595633 62.339747 
L 408.877181 60.295242 
L 411.33992 57.843121 
L 413.039805 58.64594 
L 416.320791 58.723141 
L 417.664549 59.857486 
L 419.734547 69.136614 
L 422.760586 69.428776 
L 426.095297 66.404848 
L 429.17074 62.717688 
L 431.893427 58.491929 
L 435.12389 59.072171 
L 435.162717 63.957245 
L 436.442961 67.844557 
L 439.264763 67.281848 
L 441.25146 69.33118 
L 445.182655 62.46538 
L 447.433186 60.899032 
L 450.484241 52.621019 
L 453.561547 43.162113 
L 454.87553 42.103212 
L 456.554098 43.354801 
L 458.60228 41.675802 
L 460.310608 45.84925 
L 461.847257 46.642761 
L 463.581402 49.234962 
L 465.298906 52.452347 
L 468.497639 57.166057 
L 469.652266 58.723141 
L 471.415313 56.388643 
L 472.200722 60.215337 
L 472.50227 67.656215 
L 474.076624 62.131124 
L 474.707254 64.087419 
L 475.584596 66.040568 
L 476.528052 66.634008 
L 477.893906 68.176037 
L 479.666456 60.737238 
L 481.85226 49.518254 
L 486.508651 34.14392 
L 486.901732 34.642567 
L 487.182523 36.503201 
L 487.729354 37.535555 
L 489.261336 35.773174 
L 489.684509 40.728521 
L 489.684509 51.157678 
L 490.475298 80.175119 
L 492.692449 64.087419 
L 494.535351 53.542782 
L 495.529671 56.351952 
L 496.333413 53.199213 
L 497.466119 45.587784 
L 499.189655 39.469978 
L 499.915505 40.262155 
L 500.288482 44.500043 
L 500.830528 52.183762 
L 501.550145 53.577281 
L 502.38975 52.688662 
L 502.739376 58.453507 
L 503.112359 71.171377 
L 503.428444 75.815285 
L 503.880734 74.486287 
L 504.172096 77.474585 
L 504.804104 78.179243 
L 505.628569 77.766871 
L 506.129187 75.36797 
L 506.385964 76.723289 
L 506.788994 75.256824 
L 507.645968 69.575561 
L 508.560585 62.131124 
L 509.568102 57.767393 
L 510.742048 53.784828 
L 511.593152 52.351442 
L 512.468721 47.905213 
L 513.879289 42.806408 
L 514.323556 45.878394 
L 514.652889 51.092265 
L 514.942205 59.267236 
L 514.980445 65.053543 
L 515.292415 64.611858 
L 515.637179 71.222157 
L 516.096115 86.818476 
L 516.548222 86.320607 
L 516.81181 87.466682 
L 516.85563 93.756459 
L 517.138017 94.258765 
L 517.345606 97.575286 
L 517.678938 100.761949 
L 517.69888 115.134151 
L 517.95753 115.134151 
L 518.168936 108.809494 
L 518.50763 114.082215 
L 518.556797 126.733765 
L 518.821614 115.400969 
L 519.046291 126.391998 
L 519.049541 148.246678 
L 519.338104 131.426707 
L 519.699301 139.291267 
L 519.699301 139.291267 
L 520.147797 115.400969 
L 520.354907 118.730766 
L 521.006657 106.882158 
L 521.028681 106.111621 
L 521.028681 113.181255 
L 521.44251 106.993305 
L 521.663938 106.33045 
L 521.850434 110.101428 
L 521.90317 116.347314 
L 522.048733 116.347314 
L 522.048733 117.313704 
L 522.113659 114.473854 
L 522.37267 121.245623 
L 522.630582 119.310148 
L 522.740781 122.950008 
L 522.884352 118.443811 
L 523.070184 116.484123 
L 523.203874 113.436862 
L 523.38268 116.758977 
L 523.795854 109.982456 
L 524.331492 95.539271 
L 524.912631 84.17881 
L 524.933284 91.324673 
L 525.642983 78.774887 
L 525.919333 81.36515 
L 526.191541 87.105431 
L 526.42225 96.325188 
L 526.548768 92.605479 
L 527.534573 71.069986 
L 527.945794 76.210315 
L 528.169946 77.068504 
L 528.499066 75.703045 
L 529.088676 70.968821 
L 529.088676 70.968821 
L 529.349813 85.828111 
L 529.738062 86.108886 
L 530.242886 79.196514 
L 530.681861 76.551656 
L 530.92556 79.196514 
L 530.933577 83.909631 
L 530.941594 83.708783 
L 531.629711 96.237193 
L 531.869642 103.051178 
L 532.286601 96.590198 
L 532.555186 88.716779 
L 532.853666 84.58558 
L 533.112026 84.313997 
L 533.768461 80.485288 
L 534.132076 81.492242 
L 534.213147 84.996009 
L 534.337078 82.914121 
L 534.652087 89.24165 
L 535.030451 88.567919 
L 535.314549 88.567919 
L 535.696233 87.757756 
L 536.087807 82.391933 
L 536.664396 75.703045 
L 537.276498 70.316655 
L 537.899171 63.568939 
L 538.229461 64.217964 
L 538.357292 65.097948 
L 538.357292 69.039641 
L 538.510806 73.141884 
L 538.856561 70.217144 
L 539.214349 75.479389 
L 539.55845 82.197643 
L 539.930574 84.313997 
L 540.050278 80.923098 
L 540.362238 76.666007 
L 540.599719 79.196514 
L 540.965536 78.714972 
L 541.248043 80.113338 
L 541.822547 71.990716 
L 542.852376 54.378058 
L 543.533695 46.053653 
L 544.220338 41.015887 
L 544.496682 40.365381 
L 544.678085 42.372391 
L 544.890808 43.05237 
L 545.100673 47.571179 
L 545.413064 58.338436 
L 545.80758 63.354633 
L 546.232793 75.145947 
L 546.489808 78.655135 
L 546.661237 89.696395 
L 546.712777 104.188004 
L 546.875358 110.101428 
L 547.338072 99.706417 
L 547.446076 101.151915 
L 547.523395 100.859128 
L 548.033665 86.108886 
L 548.253055 84.044022 
L 548.349416 89.925478 
L 548.505678 91.324673 
L 548.830933 85.968283 
L 549.049449 87.830815 
L 549.513662 79.867044 
L 549.725818 79.928493 
L 550.373396 68.749953 
L 550.673381 65.90471 
L 551.056363 60.375287 
L 551.516964 55.408188 
L 552.04775 53.819511 
L 552.364009 51.783826 
L 552.730908 50.378842 
L 553.060346 50.443239 
L 553.552096 46.999911 
L 553.778145 49.329197 
L 554.123856 50.99432 
L 554.211343 59.267236 
L 554.413176 61.552005 
L 554.917541 58.261883 
L 555.149334 60.135572 
L 555.587139 66.267902 
L 555.709872 72.094176 
L 555.92096 68.557845 
L 556.023578 71.171377 
L 556.15778 82.84852 
L 556.370835 83.375991 
L 556.633919 90.155718 
L 556.794716 88.419542 
L 557.291879 80.985987 
L 557.433675 80.609949 
L 557.623371 81.301737 
L 557.779854 80.672407 
L 557.889667 80.985987 
L 557.982167 83.442355 
L 558.052305 103.564409 
L 558.639302 90.002096 
L 558.789814 90.155718 
L 559.02414 88.567919 
L 559.027505 90.309859 
L 559.111569 87.757756 
L 559.490095 114.868885 
L 559.573522 117.174389 
L 559.640181 112.172911 
L 559.700111 113.952412 
L 559.771618 114.342934 
L 559.84636 118.874923 
L 559.945873 115.001325 
L 560.041915 116.621343 
L 560.399901 105.569098 
L 560.480445 104.926471 
L 560.582205 109.745439 
L 560.680521 109.509646 
L 560.721439 120.044877 
L 560.803192 117.734221 
L 560.863618 123.907225 
L 560.948441 123.426106 
L 561.273581 112.422915 
L 561.462983 102.141665 
L 561.529216 103.051178 
L 561.827174 94.174662 
L 561.91387 99.991876 
L 562.078894 97.93884 
L 562.42033 104.188004 
L 562.536364 103.358423 
L 562.536364 103.358423 
" style="fill:none;stroke:#1f77b4;stroke-linecap:round;stroke-width:1.5;"/>
   </g>
   <g id="patch_3">
    <path d="M 29.9 293.589375 
L 29.9 21.789375 
" style="fill:none;stroke:#cccccc;stroke-linecap:square;stroke-linejoin:miter;stroke-width:0.8;"/>
   </g>
   <g id="patch_4">
    <path d="M 587.9 293.589375 
L 587.9 21.789375 
" style="fill:none;stroke:#cccccc;stroke-linecap:square;stroke-linejoin:miter;stroke-width:0.8;"/>
   </g>
   <g id="patch_5">
    <path d="M 29.9 293.589375 
L 587.9 293.589375 
" style="fill:none;stroke:#cccccc;stroke-linecap:square;stroke-linejoin:miter;stroke-width:0.8;"/>
   </g>
   <g id="patch_6">
    <path d="M 29.9 21.789375 
L 587.9 21.789375 
" style="fill:none;stroke:#cccccc;stroke-linecap:square;stroke-linejoin:miter;stroke-width:0.8;"/>
   </g>
   <g id="text_8">
    <!-- Novos Casos na semana X Casos Totais -->
    <g style="fill:#262626;" transform="translate(200.295312 15.789375)scale(0.12 -0.12)">
     <defs>
      <path d="M 488 0 
L 488 4581 
L 1109 4581 
L 3516 984 
L 3516 4581 
L 4097 4581 
L 4097 0 
L 3475 0 
L 1069 3600 
L 1069 0 
L 488 0 
z
" id="ArialMT-4e" transform="scale(0.015625)"/>
      <path d="M 213 1659 
Q 213 2581 725 3025 
Q 1153 3394 1769 3394 
Q 2453 3394 2887 2945 
Q 3322 2497 3322 1706 
Q 3322 1066 3130 698 
Q 2938 331 2570 128 
Q 2203 -75 1769 -75 
Q 1072 -75 642 372 
Q 213 819 213 1659 
z
M 791 1659 
Q 791 1022 1069 705 
Q 1347 388 1769 388 
Q 2188 388 2466 706 
Q 2744 1025 2744 1678 
Q 2744 2294 2464 2611 
Q 2184 2928 1769 2928 
Q 1347 2928 1069 2612 
Q 791 2297 791 1659 
z
" id="ArialMT-6f" transform="scale(0.015625)"/>
      <path d="M 1344 0 
L 81 3319 
L 675 3319 
L 1388 1331 
Q 1503 1009 1600 663 
Q 1675 925 1809 1294 
L 2547 3319 
L 3125 3319 
L 1869 0 
L 1344 0 
z
" id="ArialMT-76" transform="scale(0.015625)"/>
      <path d="M 197 991 
L 753 1078 
Q 800 744 1014 566 
Q 1228 388 1613 388 
Q 2000 388 2187 545 
Q 2375 703 2375 916 
Q 2375 1106 2209 1216 
Q 2094 1291 1634 1406 
Q 1016 1563 777 1677 
Q 538 1791 414 1992 
Q 291 2194 291 2438 
Q 291 2659 392 2848 
Q 494 3038 669 3163 
Q 800 3259 1026 3326 
Q 1253 3394 1513 3394 
Q 1903 3394 2198 3281 
Q 2494 3169 2634 2976 
Q 2775 2784 2828 2463 
L 2278 2388 
Q 2241 2644 2061 2787 
Q 1881 2931 1553 2931 
Q 1166 2931 1000 2803 
Q 834 2675 834 2503 
Q 834 2394 903 2306 
Q 972 2216 1119 2156 
Q 1203 2125 1616 2013 
Q 2213 1853 2448 1751 
Q 2684 1650 2818 1456 
Q 2953 1263 2953 975 
Q 2953 694 2789 445 
Q 2625 197 2315 61 
Q 2006 -75 1616 -75 
Q 969 -75 630 194 
Q 291 463 197 991 
z
" id="ArialMT-73" transform="scale(0.015625)"/>
      <path id="ArialMT-20" transform="scale(0.015625)"/>
      <path d="M 3763 1606 
L 4369 1453 
Q 4178 706 3683 314 
Q 3188 -78 2472 -78 
Q 1731 -78 1267 223 
Q 803 525 561 1097 
Q 319 1669 319 2325 
Q 319 3041 592 3573 
Q 866 4106 1370 4382 
Q 1875 4659 2481 4659 
Q 3169 4659 3637 4309 
Q 4106 3959 4291 3325 
L 3694 3184 
Q 3534 3684 3231 3912 
Q 2928 4141 2469 4141 
Q 1941 4141 1586 3887 
Q 1231 3634 1087 3207 
Q 944 2781 944 2328 
Q 944 1744 1114 1308 
Q 1284 872 1643 656 
Q 2003 441 2422 441 
Q 2931 441 3284 734 
Q 3638 1028 3763 1606 
z
" id="ArialMT-43" transform="scale(0.015625)"/>
      <path d="M 2588 409 
Q 2275 144 1986 34 
Q 1697 -75 1366 -75 
Q 819 -75 525 192 
Q 231 459 231 875 
Q 231 1119 342 1320 
Q 453 1522 633 1644 
Q 813 1766 1038 1828 
Q 1203 1872 1538 1913 
Q 2219 1994 2541 2106 
Q 2544 2222 2544 2253 
Q 2544 2597 2384 2738 
Q 2169 2928 1744 2928 
Q 1347 2928 1158 2789 
Q 969 2650 878 2297 
L 328 2372 
Q 403 2725 575 2942 
Q 747 3159 1072 3276 
Q 1397 3394 1825 3394 
Q 2250 3394 2515 3294 
Q 2781 3194 2906 3042 
Q 3031 2891 3081 2659 
Q 3109 2516 3109 2141 
L 3109 1391 
Q 3109 606 3145 398 
Q 3181 191 3288 0 
L 2700 0 
Q 2613 175 2588 409 
z
M 2541 1666 
Q 2234 1541 1622 1453 
Q 1275 1403 1131 1340 
Q 988 1278 909 1158 
Q 831 1038 831 891 
Q 831 666 1001 516 
Q 1172 366 1500 366 
Q 1825 366 2078 508 
Q 2331 650 2450 897 
Q 2541 1088 2541 1459 
L 2541 1666 
z
" id="ArialMT-61" transform="scale(0.015625)"/>
      <path d="M 422 0 
L 422 3319 
L 928 3319 
L 928 2847 
Q 1294 3394 1984 3394 
Q 2284 3394 2536 3286 
Q 2788 3178 2913 3003 
Q 3038 2828 3088 2588 
Q 3119 2431 3119 2041 
L 3119 0 
L 2556 0 
L 2556 2019 
Q 2556 2363 2490 2533 
Q 2425 2703 2258 2804 
Q 2091 2906 1866 2906 
Q 1506 2906 1245 2678 
Q 984 2450 984 1813 
L 984 0 
L 422 0 
z
" id="ArialMT-6e" transform="scale(0.015625)"/>
      <path d="M 2694 1069 
L 3275 997 
Q 3138 488 2766 206 
Q 2394 -75 1816 -75 
Q 1088 -75 661 373 
Q 234 822 234 1631 
Q 234 2469 665 2931 
Q 1097 3394 1784 3394 
Q 2450 3394 2872 2941 
Q 3294 2488 3294 1666 
Q 3294 1616 3291 1516 
L 816 1516 
Q 847 969 1125 678 
Q 1403 388 1819 388 
Q 2128 388 2347 550 
Q 2566 713 2694 1069 
z
M 847 1978 
L 2700 1978 
Q 2663 2397 2488 2606 
Q 2219 2931 1791 2931 
Q 1403 2931 1139 2672 
Q 875 2413 847 1978 
z
" id="ArialMT-65" transform="scale(0.015625)"/>
      <path d="M 422 0 
L 422 3319 
L 925 3319 
L 925 2853 
Q 1081 3097 1340 3245 
Q 1600 3394 1931 3394 
Q 2300 3394 2536 3241 
Q 2772 3088 2869 2813 
Q 3263 3394 3894 3394 
Q 4388 3394 4653 3120 
Q 4919 2847 4919 2278 
L 4919 0 
L 4359 0 
L 4359 2091 
Q 4359 2428 4304 2576 
Q 4250 2725 4106 2815 
Q 3963 2906 3769 2906 
Q 3419 2906 3187 2673 
Q 2956 2441 2956 1928 
L 2956 0 
L 2394 0 
L 2394 2156 
Q 2394 2531 2256 2718 
Q 2119 2906 1806 2906 
Q 1569 2906 1367 2781 
Q 1166 2656 1075 2415 
Q 984 2175 984 1722 
L 984 0 
L 422 0 
z
" id="ArialMT-6d" transform="scale(0.015625)"/>
      <path d="M 28 0 
L 1800 2388 
L 238 4581 
L 959 4581 
L 1791 3406 
Q 2050 3041 2159 2844 
Q 2313 3094 2522 3366 
L 3444 4581 
L 4103 4581 
L 2494 2422 
L 4228 0 
L 3478 0 
L 2325 1634 
Q 2228 1775 2125 1941 
Q 1972 1691 1906 1597 
L 756 0 
L 28 0 
z
" id="ArialMT-58" transform="scale(0.015625)"/>
      <path d="M 1659 0 
L 1659 4041 
L 150 4041 
L 150 4581 
L 3781 4581 
L 3781 4041 
L 2266 4041 
L 2266 0 
L 1659 0 
z
" id="ArialMT-54" transform="scale(0.015625)"/>
      <path d="M 1650 503 
L 1731 6 
Q 1494 -44 1306 -44 
Q 1000 -44 831 53 
Q 663 150 594 308 
Q 525 466 525 972 
L 525 2881 
L 113 2881 
L 113 3319 
L 525 3319 
L 525 4141 
L 1084 4478 
L 1084 3319 
L 1650 3319 
L 1650 2881 
L 1084 2881 
L 1084 941 
Q 1084 700 1114 631 
Q 1144 563 1211 522 
Q 1278 481 1403 481 
Q 1497 481 1650 503 
z
" id="ArialMT-74" transform="scale(0.015625)"/>
      <path d="M 425 3934 
L 425 4581 
L 988 4581 
L 988 3934 
L 425 3934 
z
M 425 0 
L 425 3319 
L 988 3319 
L 988 0 
L 425 0 
z
" id="ArialMT-69" transform="scale(0.015625)"/>
     </defs>
     <use xlink:href="#ArialMT-4e"/>
     <use x="72.216797" xlink:href="#ArialMT-6f"/>
     <use x="127.832031" xlink:href="#ArialMT-76"/>
     <use x="177.832031" xlink:href="#ArialMT-6f"/>
     <use x="233.447266" xlink:href="#ArialMT-73"/>
     <use x="283.447266" xlink:href="#ArialMT-20"/>
     <use x="311.230469" xlink:href="#ArialMT-43"/>
     <use x="383.447266" xlink:href="#ArialMT-61"/>
     <use x="439.0625" xlink:href="#ArialMT-73"/>
     <use x="489.0625" xlink:href="#ArialMT-6f"/>
     <use x="544.677734" xlink:href="#ArialMT-73"/>
     <use x="594.677734" xlink:href="#ArialMT-20"/>
     <use x="622.460938" xlink:href="#ArialMT-6e"/>
     <use x="678.076172" xlink:href="#ArialMT-61"/>
     <use x="733.691406" xlink:href="#ArialMT-20"/>
     <use x="761.474609" xlink:href="#ArialMT-73"/>
     <use x="811.474609" xlink:href="#ArialMT-65"/>
     <use x="867.089844" xlink:href="#ArialMT-6d"/>
     <use x="950.390625" xlink:href="#ArialMT-61"/>
     <use x="1006.005859" xlink:href="#ArialMT-6e"/>
     <use x="1061.621094" xlink:href="#ArialMT-61"/>
     <use x="1117.236328" xlink:href="#ArialMT-20"/>
     <use x="1145.019531" xlink:href="#ArialMT-58"/>
     <use x="1211.71875" xlink:href="#ArialMT-20"/>
     <use x="1239.501953" xlink:href="#ArialMT-43"/>
     <use x="1311.71875" xlink:href="#ArialMT-61"/>
     <use x="1367.333984" xlink:href="#ArialMT-73"/>
     <use x="1417.333984" xlink:href="#ArialMT-6f"/>
     <use x="1472.949219" xlink:href="#ArialMT-73"/>
     <use x="1522.949219" xlink:href="#ArialMT-20"/>
     <use x="1548.982422" xlink:href="#ArialMT-54"/>
     <use x="1598.941406" xlink:href="#ArialMT-6f"/>
     <use x="1654.556641" xlink:href="#ArialMT-74"/>
     <use x="1682.339844" xlink:href="#ArialMT-61"/>
     <use x="1737.955078" xlink:href="#ArialMT-69"/>
     <use x="1760.171875" xlink:href="#ArialMT-73"/>
    </g>
   </g>
  </g>
 </g>
 <defs>
  <clipPath id="p7a7ca50a7e">
   <rect height="271.8" width="558" x="29.9" y="21.789375"/>
  </clipPath>
 </defs>
</svg>
