<?xml version="1.0" encoding="utf-8" standalone="no"?>
<!DOCTYPE svg PUBLIC "-//W3C//DTD SVG 1.1//EN"
  "http://www.w3.org/Graphics/SVG/1.1/DTD/svg11.dtd">
<svg height="325.489375pt" version="1.1" viewBox="0 0 595.1 325.489375" width="595.1pt" xmlns="http://www.w3.org/2000/svg" xmlns:xlink="http://www.w3.org/1999/xlink">
 <metadata>
  <rdf:RDF xmlns:cc="http://creativecommons.org/ns#" xmlns:dc="http://purl.org/dc/elements/1.1/" xmlns:rdf="http://www.w3.org/1999/02/22-rdf-syntax-ns#">
   <cc:Work>
    <dc:type rdf:resource="http://purl.org/dc/dcmitype/StillImage"/>
    <dc:date>2021-04-25T18:12:06.755122</dc:date>
    <dc:format>image/svg+xml</dc:format>
    <dc:creator>
     <cc:Agent>
      <dc:title>Matplotlib v3.4.1, https://matplotlib.org/</dc:title>
     </cc:Agent>
    </dc:creator>
   </cc:Work>
  </rdf:RDF>
 </metadata>
 <defs>
  <style type="text/css">*{stroke-linecap:butt;stroke-linejoin:round;}</style>
 </defs>
 <g id="figure_1">
  <g id="patch_1">
   <path d="M 0 325.489375 
L 595.1 325.489375 
L 595.1 0 
L 0 0 
z
" style="fill:#ffffff;"/>
  </g>
  <g id="axes_1">
   <g id="patch_2">
    <path d="M 29.9 298.989375 
L 587.9 298.989375 
L 587.9 21.789375 
L 29.9 21.789375 
z
" style="fill:#ffffff;"/>
   </g>
   <g id="matplotlib.axis_1">
    <g id="xtick_1">
     <g id="line2d_1">
      <path clip-path="url(#pc12d7a8a05)" d="M 61.587737 298.989375 
L 61.587737 21.789375 
" style="fill:none;stroke:#cccccc;stroke-linecap:round;stroke-width:0.8;"/>
     </g>
     <g id="text_1">
      <!-- $\mathdefault{10^{1}}$ -->
      <g style="fill:#262626;" transform="translate(53.737737 316.301875)scale(0.1 -0.1)">
       <defs>
        <path d="M 2384 0 
L 1822 0 
L 1822 3584 
Q 1619 3391 1289 3197 
Q 959 3003 697 2906 
L 697 3450 
Q 1169 3672 1522 3987 
Q 1875 4303 2022 4600 
L 2384 4600 
L 2384 0 
z
" id="ArialMT-31" transform="scale(0.015625)"/>
        <path d="M 266 2259 
Q 266 3072 433 3567 
Q 600 4063 929 4331 
Q 1259 4600 1759 4600 
Q 2128 4600 2406 4451 
Q 2684 4303 2865 4023 
Q 3047 3744 3150 3342 
Q 3253 2941 3253 2259 
Q 3253 1453 3087 958 
Q 2922 463 2592 192 
Q 2263 -78 1759 -78 
Q 1097 -78 719 397 
Q 266 969 266 2259 
z
M 844 2259 
Q 844 1131 1108 757 
Q 1372 384 1759 384 
Q 2147 384 2411 759 
Q 2675 1134 2675 2259 
Q 2675 3391 2411 3762 
Q 2147 4134 1753 4134 
Q 1366 4134 1134 3806 
Q 844 3388 844 2259 
z
" id="ArialMT-30" transform="scale(0.015625)"/>
       </defs>
       <use transform="translate(0 0.99375)" xlink:href="#ArialMT-31"/>
       <use transform="translate(55.615234 0.99375)" xlink:href="#ArialMT-30"/>
       <use transform="translate(112.972813 70.6875)scale(0.7)" xlink:href="#ArialMT-31"/>
      </g>
     </g>
    </g>
    <g id="xtick_2">
     <g id="line2d_2">
      <path clip-path="url(#pc12d7a8a05)" d="M 199.796824 298.989375 
L 199.796824 21.789375 
" style="fill:none;stroke:#cccccc;stroke-linecap:round;stroke-width:0.8;"/>
     </g>
     <g id="text_2">
      <!-- $\mathdefault{10^{2}}$ -->
      <g style="fill:#262626;" transform="translate(191.946824 316.301875)scale(0.1 -0.1)">
       <defs>
        <path d="M 3222 541 
L 3222 0 
L 194 0 
Q 188 203 259 391 
Q 375 700 629 1000 
Q 884 1300 1366 1694 
Q 2113 2306 2375 2664 
Q 2638 3022 2638 3341 
Q 2638 3675 2398 3904 
Q 2159 4134 1775 4134 
Q 1369 4134 1125 3890 
Q 881 3647 878 3216 
L 300 3275 
Q 359 3922 746 4261 
Q 1134 4600 1788 4600 
Q 2447 4600 2831 4234 
Q 3216 3869 3216 3328 
Q 3216 3053 3103 2787 
Q 2991 2522 2730 2228 
Q 2469 1934 1863 1422 
Q 1356 997 1212 845 
Q 1069 694 975 541 
L 3222 541 
z
" id="ArialMT-32" transform="scale(0.015625)"/>
       </defs>
       <use transform="translate(0 0.99375)" xlink:href="#ArialMT-31"/>
       <use transform="translate(55.615234 0.99375)" xlink:href="#ArialMT-30"/>
       <use transform="translate(112.972813 70.6875)scale(0.7)" xlink:href="#ArialMT-32"/>
      </g>
     </g>
    </g>
    <g id="xtick_3">
     <g id="line2d_3">
      <path clip-path="url(#pc12d7a8a05)" d="M 338.005911 298.989375 
L 338.005911 21.789375 
" style="fill:none;stroke:#cccccc;stroke-linecap:round;stroke-width:0.8;"/>
     </g>
     <g id="text_3">
      <!-- $\mathdefault{10^{3}}$ -->
      <g style="fill:#262626;" transform="translate(330.155911 316.301875)scale(0.1 -0.1)">
       <defs>
        <path d="M 269 1209 
L 831 1284 
Q 928 806 1161 595 
Q 1394 384 1728 384 
Q 2125 384 2398 659 
Q 2672 934 2672 1341 
Q 2672 1728 2419 1979 
Q 2166 2231 1775 2231 
Q 1616 2231 1378 2169 
L 1441 2663 
Q 1497 2656 1531 2656 
Q 1891 2656 2178 2843 
Q 2466 3031 2466 3422 
Q 2466 3731 2256 3934 
Q 2047 4138 1716 4138 
Q 1388 4138 1169 3931 
Q 950 3725 888 3313 
L 325 3413 
Q 428 3978 793 4289 
Q 1159 4600 1703 4600 
Q 2078 4600 2393 4439 
Q 2709 4278 2876 4000 
Q 3044 3722 3044 3409 
Q 3044 3113 2884 2869 
Q 2725 2625 2413 2481 
Q 2819 2388 3044 2092 
Q 3269 1797 3269 1353 
Q 3269 753 2831 336 
Q 2394 -81 1725 -81 
Q 1122 -81 723 278 
Q 325 638 269 1209 
z
" id="ArialMT-33" transform="scale(0.015625)"/>
       </defs>
       <use transform="translate(0 0.99375)" xlink:href="#ArialMT-31"/>
       <use transform="translate(55.615234 0.99375)" xlink:href="#ArialMT-30"/>
       <use transform="translate(112.972813 70.6875)scale(0.7)" xlink:href="#ArialMT-33"/>
      </g>
     </g>
    </g>
    <g id="xtick_4">
     <g id="line2d_4">
      <path clip-path="url(#pc12d7a8a05)" d="M 476.214998 298.989375 
L 476.214998 21.789375 
" style="fill:none;stroke:#cccccc;stroke-linecap:round;stroke-width:0.8;"/>
     </g>
     <g id="text_4">
      <!-- $\mathdefault{10^{4}}$ -->
      <g style="fill:#262626;" transform="translate(468.364998 316.201875)scale(0.1 -0.1)">
       <defs>
        <path d="M 2069 0 
L 2069 1097 
L 81 1097 
L 81 1613 
L 2172 4581 
L 2631 4581 
L 2631 1613 
L 3250 1613 
L 3250 1097 
L 2631 1097 
L 2631 0 
L 2069 0 
z
M 2069 1613 
L 2069 3678 
L 634 1613 
L 2069 1613 
z
" id="ArialMT-34" transform="scale(0.015625)"/>
       </defs>
       <use transform="translate(0 0.201563)" xlink:href="#ArialMT-31"/>
       <use transform="translate(55.615234 0.201563)" xlink:href="#ArialMT-30"/>
       <use transform="translate(112.972813 69.895313)scale(0.7)" xlink:href="#ArialMT-34"/>
      </g>
     </g>
    </g>
    <g id="xtick_5"/>
    <g id="xtick_6"/>
    <g id="xtick_7"/>
    <g id="xtick_8"/>
    <g id="xtick_9"/>
    <g id="xtick_10"/>
    <g id="xtick_11"/>
    <g id="xtick_12"/>
    <g id="xtick_13"/>
    <g id="xtick_14"/>
    <g id="xtick_15"/>
    <g id="xtick_16"/>
    <g id="xtick_17"/>
    <g id="xtick_18"/>
    <g id="xtick_19"/>
    <g id="xtick_20"/>
    <g id="xtick_21"/>
    <g id="xtick_22"/>
    <g id="xtick_23"/>
    <g id="xtick_24"/>
    <g id="xtick_25"/>
    <g id="xtick_26"/>
    <g id="xtick_27"/>
    <g id="xtick_28"/>
    <g id="xtick_29"/>
    <g id="xtick_30"/>
    <g id="xtick_31"/>
    <g id="xtick_32"/>
    <g id="xtick_33"/>
    <g id="xtick_34"/>
    <g id="xtick_35"/>
    <g id="xtick_36"/>
    <g id="xtick_37"/>
   </g>
   <g id="matplotlib.axis_2">
    <g id="ytick_1">
     <g id="line2d_5">
      <path clip-path="url(#pc12d7a8a05)" d="M 29.9 281.48672 
L 587.9 281.48672 
" style="fill:none;stroke:#cccccc;stroke-linecap:round;stroke-width:0.8;"/>
     </g>
     <g id="text_5">
      <!-- $\mathdefault{10^{1}}$ -->
      <g style="fill:#262626;" transform="translate(7.2 286.64297)scale(0.1 -0.1)">
       <use transform="translate(0 0.99375)" xlink:href="#ArialMT-31"/>
       <use transform="translate(55.615234 0.99375)" xlink:href="#ArialMT-30"/>
       <use transform="translate(112.972813 70.6875)scale(0.7)" xlink:href="#ArialMT-31"/>
      </g>
     </g>
    </g>
    <g id="ytick_2">
     <g id="line2d_6">
      <path clip-path="url(#pc12d7a8a05)" d="M 29.9 174.342405 
L 587.9 174.342405 
" style="fill:none;stroke:#cccccc;stroke-linecap:round;stroke-width:0.8;"/>
     </g>
     <g id="text_6">
      <!-- $\mathdefault{10^{2}}$ -->
      <g style="fill:#262626;" transform="translate(7.2 179.498655)scale(0.1 -0.1)">
       <use transform="translate(0 0.99375)" xlink:href="#ArialMT-31"/>
       <use transform="translate(55.615234 0.99375)" xlink:href="#ArialMT-30"/>
       <use transform="translate(112.972813 70.6875)scale(0.7)" xlink:href="#ArialMT-32"/>
      </g>
     </g>
    </g>
    <g id="ytick_3">
     <g id="line2d_7">
      <path clip-path="url(#pc12d7a8a05)" d="M 29.9 67.19809 
L 587.9 67.19809 
" style="fill:none;stroke:#cccccc;stroke-linecap:round;stroke-width:0.8;"/>
     </g>
     <g id="text_7">
      <!-- $\mathdefault{10^{3}}$ -->
      <g style="fill:#262626;" transform="translate(7.2 72.35434)scale(0.1 -0.1)">
       <use transform="translate(0 0.99375)" xlink:href="#ArialMT-31"/>
       <use transform="translate(55.615234 0.99375)" xlink:href="#ArialMT-30"/>
       <use transform="translate(112.972813 70.6875)scale(0.7)" xlink:href="#ArialMT-33"/>
      </g>
     </g>
    </g>
    <g id="ytick_4"/>
    <g id="ytick_5"/>
    <g id="ytick_6"/>
    <g id="ytick_7"/>
    <g id="ytick_8"/>
    <g id="ytick_9"/>
    <g id="ytick_10"/>
    <g id="ytick_11"/>
    <g id="ytick_12"/>
    <g id="ytick_13"/>
    <g id="ytick_14"/>
    <g id="ytick_15"/>
    <g id="ytick_16"/>
    <g id="ytick_17"/>
    <g id="ytick_18"/>
    <g id="ytick_19"/>
    <g id="ytick_20"/>
    <g id="ytick_21"/>
    <g id="ytick_22"/>
    <g id="ytick_23"/>
   </g>
   <g id="line2d_8">
    <path clip-path="url(#pc12d7a8a05)" d="M 55.263636 286.389375 
L 103.192818 249.233067 
L 127.53023 235.268545 
L 156.979107 212.544424 
L 174.856156 200.499026 
L 187.885115 190.939269 
L 197.346548 183.576761 
L 202.150986 181.904766 
L 202.150986 182.455449 
L 213.190669 176.729194 
L 220.420262 178.222334 
L 224.533065 181.904766 
L 231.292838 180.822573 
L 238.951628 176.241942 
L 239.882243 178.730887 
L 242.590527 174.342405 
L 253.091115 166.640657 
L 259.415216 162.493346 
L 263.704429 159.019182 
L 265.538905 162.134023 
L 269.425274 163.220427 
L 272.003365 159.355156 
L 273.604085 159.355156 
L 276.515921 167.436098 
L 277.181008 177.719278 
L 281.79435 173.420946 
L 287.765235 160.723849 
L 295.797574 148.037118 
L 295.797574 151.894062 
L 296.40083 153.057428 
L 300.011476 149.106871 
L 305.205932 138.507587 
L 307.743226 139.377373 
L 309.794675 143.988289 
L 312.700358 152.182188 
L 313.608445 149.378196 
L 314.768786 147.25064 
L 317.953572 145.716473 
L 325.579607 134.783025 
L 332.805011 121.247647 
L 336.854492 115.257673 
L 347.838837 98.348161 
L 349.793844 96.043239 
L 352.068281 95.186268 
L 353.753918 100.677586 
L 357.425399 102.828616 
L 360.017965 103.129796 
L 362.940576 110.420418 
L 364.658997 112.099597 
L 366.553833 110.775176 
L 372.379718 98.621612 
L 376.626891 90.735841 
L 378.58182 92.225626 
L 381.878519 88.403101 
L 386.946915 80.895819 
L 389.698147 77.176061 
L 397.624303 63.145383 
L 404.822354 61.060259 
L 407.256854 58.55942 
L 408.937247 59.37819 
L 412.18061 59.456924 
L 413.50896 60.613806 
L 415.555221 70.077288 
L 418.546561 70.375254 
L 421.843033 67.291248 
L 424.883211 63.530834 
L 427.574677 59.221119 
L 430.768097 59.812888 
L 430.806479 64.795018 
L 432.072042 68.759561 
L 434.861488 68.185672 
L 436.825404 70.27572 
L 440.711519 63.273512 
L 442.936244 61.676045 
L 445.952313 53.233568 
L 448.994333 43.586737 
L 450.293248 42.506798 
L 451.952568 43.783253 
L 453.977264 42.070896 
L 455.666004 46.327261 
L 457.185032 47.136536 
L 458.899291 49.780238 
L 460.597101 53.061545 
L 463.759155 57.868905 
L 464.900542 59.456924 
L 466.643373 57.076046 
L 467.419775 60.978767 
L 467.717865 68.567477 
L 469.274166 62.932616 
L 469.897566 64.927777 
L 470.764847 66.919731 
L 471.697484 67.524961 
L 473.047677 69.097627 
L 474.799901 61.511037 
L 476.96064 50.069159 
L 481.563637 34.389375 
L 481.952211 34.897929 
L 482.229783 36.795528 
L 482.770343 37.848393 
L 484.284758 36.050997 
L 484.703078 41.104796 
L 484.703078 51.741154 
L 485.4848 81.335101 
L 487.676528 64.927777 
L 489.498297 54.173644 
L 490.481215 57.038625 
L 491.275741 53.823249 
L 492.395459 46.0606 
L 494.099231 39.821248 
L 494.816757 40.629164 
L 495.185458 44.951248 
L 495.721288 52.787624 
L 496.432653 54.208829 
L 497.262631 53.302555 
L 497.608248 59.181934 
L 497.976954 72.152476 
L 498.289414 76.888647 
L 498.736518 75.533245 
L 499.024539 78.580913 
L 499.6493 79.299571 
L 500.464311 78.879007 
L 500.959188 76.432446 
L 501.213021 77.814692 
L 501.61143 76.319091 
L 502.458576 70.524955 
L 503.362706 62.932616 
L 504.35867 58.482189 
L 505.519154 54.4205 
L 506.360499 52.958635 
L 507.226028 48.42407 
L 508.620421 43.223965 
L 509.059594 46.356984 
L 509.38515 51.674441 
L 509.671149 60.011829 
L 509.70895 65.913096 
L 510.017343 65.462636 
L 510.358154 72.204265 
L 510.811828 88.110445 
L 511.25875 87.602684 
L 511.519316 88.771529 
L 511.562633 95.186268 
L 511.841782 95.698554 
L 512.04699 99.080966 
L 512.376501 102.330941 
L 512.396214 116.988683 
L 512.651898 116.988683 
L 512.86088 110.53837 
L 513.19569 115.915848 
L 513.244293 128.818753 
L 513.506073 117.260802 
L 513.728174 128.470196 
L 513.731387 150.759075 
L 514.016641 133.604932 
L 514.373696 141.625742 
L 514.373696 141.625742 
L 514.81705 117.260802 
L 515.021785 120.656754 
L 515.666061 108.572744 
L 515.687833 107.786898 
L 515.687833 114.996988 
L 516.096916 108.686099 
L 516.315805 108.010074 
L 516.500162 111.855972 
L 516.552294 118.225949 
L 516.696187 118.225949 
L 516.696187 119.211539 
L 516.760369 116.315268 
L 517.016411 123.221575 
L 517.271365 121.247647 
L 517.3803 124.959821 
L 517.522225 120.364097 
L 517.705926 118.365476 
L 517.838083 115.257673 
L 518.014839 118.645791 
L 518.423274 111.734636 
L 518.95277 97.004501 
L 519.527246 85.418335 
L 519.547662 92.706169 
L 520.249223 79.90705 
L 520.522404 82.548775 
L 520.791491 88.403101 
L 521.019555 97.806032 
L 521.144621 94.012421 
L 521.144621 94.012421 
L 522.119122 72.049071 
L 522.525628 77.291526 
L 522.747209 78.166765 
L 523.072555 76.774177 
L 523.655405 71.945896 
L 523.655405 71.945896 
L 523.913547 87.100404 
L 524.297344 87.386757 
L 524.79638 80.337053 
L 525.230321 77.639649 
L 525.471225 80.337053 
L 525.479151 85.143808 
L 525.487075 84.93897 
L 526.167302 97.716288 
L 526.404482 104.665651 
L 526.81666 98.076307 
L 527.082165 90.046463 
L 527.377222 85.833186 
L 527.632619 85.556208 
L 528.281528 81.651432 
L 528.640973 82.678391 
L 528.721115 86.251769 
L 528.843624 84.12852 
L 529.155021 90.581761 
L 529.529046 89.894645 
L 529.809887 89.894645 
L 530.187194 89.068386 
L 530.574278 83.595957 
L 531.144256 76.774177 
L 531.749338 71.280773 
L 532.364871 64.398997 
L 532.691374 65.060917 
L 532.817739 65.958383 
L 532.817739 69.978388 
L 532.969493 74.162133 
L 533.311283 71.179286 
L 533.664968 76.546078 
L 534.005123 83.397807 
L 534.372981 85.556208 
L 534.491312 82.097941 
L 534.799695 77.756271 
L 535.034453 80.337053 
L 535.396075 79.845944 
L 535.675343 81.272092 
L 536.243259 72.988094 
L 537.261279 55.025515 
L 537.934785 46.535725 
L 538.613554 41.397871 
L 538.88673 40.734441 
L 539.066053 42.781325 
L 539.276337 43.474813 
L 539.483795 48.083401 
L 539.792603 59.064576 
L 540.182596 64.180433 
L 540.602933 76.206011 
L 540.857001 79.784918 
L 541.026464 91.045541 
L 541.077413 105.825063 
L 541.23813 111.855972 
L 541.695538 101.254438 
L 541.802304 102.728654 
L 541.878736 102.430051 
L 542.383154 87.386757 
L 542.600029 85.280869 
L 542.695285 91.279176 
L 542.849755 92.706169 
L 543.17128 87.24336 
L 543.387291 89.142897 
L 543.846181 81.020905 
L 544.055904 81.083575 
L 544.696057 69.682945 
L 544.992602 66.781174 
L 545.371192 61.141894 
L 545.826511 56.076112 
L 546.351211 54.455872 
L 546.663844 52.379742 
L 547.026536 50.946844 
L 547.352196 51.012521 
L 547.838307 47.500782 
L 548.061764 49.876346 
L 548.403511 51.574551 
L 548.489995 60.011829 
L 548.689513 62.341991 
L 549.188095 58.986502 
L 549.41723 60.897417 
L 549.850014 67.151581 
L 549.97134 73.093609 
L 550.180007 69.48702 
L 550.281449 72.152476 
L 550.414113 84.061615 
L 550.624724 84.599566 
L 550.884792 91.51399 
L 551.043744 89.743321 
L 551.535207 82.162079 
L 551.675377 81.77857 
L 551.862897 82.484102 
L 552.017586 81.842269 
L 552.126139 82.162079 
L 552.217579 84.667249 
L 552.286913 105.189078 
L 552.867179 91.357315 
L 553.015965 91.51399 
L 553.247604 89.894645 
L 553.25093 91.671193 
L 553.33403 89.068386 
L 553.708216 116.718147 
L 553.790686 119.069455 
L 553.856581 113.96861 
L 553.915824 115.783466 
L 553.98651 116.181747 
L 554.060396 120.803775 
L 554.158768 116.853218 
L 554.253708 118.505422 
L 554.607589 107.233595 
L 554.68721 106.578202 
L 554.787803 111.49291 
L 554.884991 111.252433 
L 554.92544 121.996973 
L 555.006256 119.64041 
L 555.065989 125.936057 
L 555.149839 125.445379 
L 555.471251 114.223582 
L 555.658481 103.738068 
L 555.723954 104.665651 
L 556.018496 95.612781 
L 556.104198 101.545569 
L 556.267329 99.451743 
L 556.604851 105.825063 
L 556.719554 104.979 
L 556.879457 100.202278 
L 557.939347 67.71278 
L 558.148178 63.102752 
L 558.301268 63.017606 
L 558.691408 58.212882 
L 559.024671 51.707786 
L 559.519622 65.328344 
L 559.79019 63.359128 
L 560.382363 56.740341 
L 560.54607 57.188488 
L 561.094394 51.741154 
L 561.311456 50.848502 
L 561.511795 59.852609 
L 561.819709 67.901361 
L 562.091611 84.531981 
L 562.270766 86.181744 
L 562.452242 81.335101 
L 562.536364 82.938712 
L 562.536364 82.938712 
" style="fill:none;stroke:#1f77b4;stroke-linecap:round;stroke-width:1.5;"/>
   </g>
   <g id="patch_3">
    <path d="M 29.9 298.989375 
L 29.9 21.789375 
" style="fill:none;stroke:#cccccc;stroke-linecap:square;stroke-linejoin:miter;stroke-width:0.8;"/>
   </g>
   <g id="patch_4">
    <path d="M 587.9 298.989375 
L 587.9 21.789375 
" style="fill:none;stroke:#cccccc;stroke-linecap:square;stroke-linejoin:miter;stroke-width:0.8;"/>
   </g>
   <g id="patch_5">
    <path d="M 29.9 298.989375 
L 587.9 298.989375 
" style="fill:none;stroke:#cccccc;stroke-linecap:square;stroke-linejoin:miter;stroke-width:0.8;"/>
   </g>
   <g id="patch_6">
    <path d="M 29.9 21.789375 
L 587.9 21.789375 
" style="fill:none;stroke:#cccccc;stroke-linecap:square;stroke-linejoin:miter;stroke-width:0.8;"/>
   </g>
   <g id="text_8">
    <!-- Novos Casos na semana X Casos Totais -->
    <g style="fill:#262626;" transform="translate(200.295312 15.789375)scale(0.12 -0.12)">
     <defs>
      <path d="M 488 0 
L 488 4581 
L 1109 4581 
L 3516 984 
L 3516 4581 
L 4097 4581 
L 4097 0 
L 3475 0 
L 1069 3600 
L 1069 0 
L 488 0 
z
" id="ArialMT-4e" transform="scale(0.015625)"/>
      <path d="M 213 1659 
Q 213 2581 725 3025 
Q 1153 3394 1769 3394 
Q 2453 3394 2887 2945 
Q 3322 2497 3322 1706 
Q 3322 1066 3130 698 
Q 2938 331 2570 128 
Q 2203 -75 1769 -75 
Q 1072 -75 642 372 
Q 213 819 213 1659 
z
M 791 1659 
Q 791 1022 1069 705 
Q 1347 388 1769 388 
Q 2188 388 2466 706 
Q 2744 1025 2744 1678 
Q 2744 2294 2464 2611 
Q 2184 2928 1769 2928 
Q 1347 2928 1069 2612 
Q 791 2297 791 1659 
z
" id="ArialMT-6f" transform="scale(0.015625)"/>
      <path d="M 1344 0 
L 81 3319 
L 675 3319 
L 1388 1331 
Q 1503 1009 1600 663 
Q 1675 925 1809 1294 
L 2547 3319 
L 3125 3319 
L 1869 0 
L 1344 0 
z
" id="ArialMT-76" transform="scale(0.015625)"/>
      <path d="M 197 991 
L 753 1078 
Q 800 744 1014 566 
Q 1228 388 1613 388 
Q 2000 388 2187 545 
Q 2375 703 2375 916 
Q 2375 1106 2209 1216 
Q 2094 1291 1634 1406 
Q 1016 1563 777 1677 
Q 538 1791 414 1992 
Q 291 2194 291 2438 
Q 291 2659 392 2848 
Q 494 3038 669 3163 
Q 800 3259 1026 3326 
Q 1253 3394 1513 3394 
Q 1903 3394 2198 3281 
Q 2494 3169 2634 2976 
Q 2775 2784 2828 2463 
L 2278 2388 
Q 2241 2644 2061 2787 
Q 1881 2931 1553 2931 
Q 1166 2931 1000 2803 
Q 834 2675 834 2503 
Q 834 2394 903 2306 
Q 972 2216 1119 2156 
Q 1203 2125 1616 2013 
Q 2213 1853 2448 1751 
Q 2684 1650 2818 1456 
Q 2953 1263 2953 975 
Q 2953 694 2789 445 
Q 2625 197 2315 61 
Q 2006 -75 1616 -75 
Q 969 -75 630 194 
Q 291 463 197 991 
z
" id="ArialMT-73" transform="scale(0.015625)"/>
      <path id="ArialMT-20" transform="scale(0.015625)"/>
      <path d="M 3763 1606 
L 4369 1453 
Q 4178 706 3683 314 
Q 3188 -78 2472 -78 
Q 1731 -78 1267 223 
Q 803 525 561 1097 
Q 319 1669 319 2325 
Q 319 3041 592 3573 
Q 866 4106 1370 4382 
Q 1875 4659 2481 4659 
Q 3169 4659 3637 4309 
Q 4106 3959 4291 3325 
L 3694 3184 
Q 3534 3684 3231 3912 
Q 2928 4141 2469 4141 
Q 1941 4141 1586 3887 
Q 1231 3634 1087 3207 
Q 944 2781 944 2328 
Q 944 1744 1114 1308 
Q 1284 872 1643 656 
Q 2003 441 2422 441 
Q 2931 441 3284 734 
Q 3638 1028 3763 1606 
z
" id="ArialMT-43" transform="scale(0.015625)"/>
      <path d="M 2588 409 
Q 2275 144 1986 34 
Q 1697 -75 1366 -75 
Q 819 -75 525 192 
Q 231 459 231 875 
Q 231 1119 342 1320 
Q 453 1522 633 1644 
Q 813 1766 1038 1828 
Q 1203 1872 1538 1913 
Q 2219 1994 2541 2106 
Q 2544 2222 2544 2253 
Q 2544 2597 2384 2738 
Q 2169 2928 1744 2928 
Q 1347 2928 1158 2789 
Q 969 2650 878 2297 
L 328 2372 
Q 403 2725 575 2942 
Q 747 3159 1072 3276 
Q 1397 3394 1825 3394 
Q 2250 3394 2515 3294 
Q 2781 3194 2906 3042 
Q 3031 2891 3081 2659 
Q 3109 2516 3109 2141 
L 3109 1391 
Q 3109 606 3145 398 
Q 3181 191 3288 0 
L 2700 0 
Q 2613 175 2588 409 
z
M 2541 1666 
Q 2234 1541 1622 1453 
Q 1275 1403 1131 1340 
Q 988 1278 909 1158 
Q 831 1038 831 891 
Q 831 666 1001 516 
Q 1172 366 1500 366 
Q 1825 366 2078 508 
Q 2331 650 2450 897 
Q 2541 1088 2541 1459 
L 2541 1666 
z
" id="ArialMT-61" transform="scale(0.015625)"/>
      <path d="M 422 0 
L 422 3319 
L 928 3319 
L 928 2847 
Q 1294 3394 1984 3394 
Q 2284 3394 2536 3286 
Q 2788 3178 2913 3003 
Q 3038 2828 3088 2588 
Q 3119 2431 3119 2041 
L 3119 0 
L 2556 0 
L 2556 2019 
Q 2556 2363 2490 2533 
Q 2425 2703 2258 2804 
Q 2091 2906 1866 2906 
Q 1506 2906 1245 2678 
Q 984 2450 984 1813 
L 984 0 
L 422 0 
z
" id="ArialMT-6e" transform="scale(0.015625)"/>
      <path d="M 2694 1069 
L 3275 997 
Q 3138 488 2766 206 
Q 2394 -75 1816 -75 
Q 1088 -75 661 373 
Q 234 822 234 1631 
Q 234 2469 665 2931 
Q 1097 3394 1784 3394 
Q 2450 3394 2872 2941 
Q 3294 2488 3294 1666 
Q 3294 1616 3291 1516 
L 816 1516 
Q 847 969 1125 678 
Q 1403 388 1819 388 
Q 2128 388 2347 550 
Q 2566 713 2694 1069 
z
M 847 1978 
L 2700 1978 
Q 2663 2397 2488 2606 
Q 2219 2931 1791 2931 
Q 1403 2931 1139 2672 
Q 875 2413 847 1978 
z
" id="ArialMT-65" transform="scale(0.015625)"/>
      <path d="M 422 0 
L 422 3319 
L 925 3319 
L 925 2853 
Q 1081 3097 1340 3245 
Q 1600 3394 1931 3394 
Q 2300 3394 2536 3241 
Q 2772 3088 2869 2813 
Q 3263 3394 3894 3394 
Q 4388 3394 4653 3120 
Q 4919 2847 4919 2278 
L 4919 0 
L 4359 0 
L 4359 2091 
Q 4359 2428 4304 2576 
Q 4250 2725 4106 2815 
Q 3963 2906 3769 2906 
Q 3419 2906 3187 2673 
Q 2956 2441 2956 1928 
L 2956 0 
L 2394 0 
L 2394 2156 
Q 2394 2531 2256 2718 
Q 2119 2906 1806 2906 
Q 1569 2906 1367 2781 
Q 1166 2656 1075 2415 
Q 984 2175 984 1722 
L 984 0 
L 422 0 
z
" id="ArialMT-6d" transform="scale(0.015625)"/>
      <path d="M 28 0 
L 1800 2388 
L 238 4581 
L 959 4581 
L 1791 3406 
Q 2050 3041 2159 2844 
Q 2313 3094 2522 3366 
L 3444 4581 
L 4103 4581 
L 2494 2422 
L 4228 0 
L 3478 0 
L 2325 1634 
Q 2228 1775 2125 1941 
Q 1972 1691 1906 1597 
L 756 0 
L 28 0 
z
" id="ArialMT-58" transform="scale(0.015625)"/>
      <path d="M 1659 0 
L 1659 4041 
L 150 4041 
L 150 4581 
L 3781 4581 
L 3781 4041 
L 2266 4041 
L 2266 0 
L 1659 0 
z
" id="ArialMT-54" transform="scale(0.015625)"/>
      <path d="M 1650 503 
L 1731 6 
Q 1494 -44 1306 -44 
Q 1000 -44 831 53 
Q 663 150 594 308 
Q 525 466 525 972 
L 525 2881 
L 113 2881 
L 113 3319 
L 525 3319 
L 525 4141 
L 1084 4478 
L 1084 3319 
L 1650 3319 
L 1650 2881 
L 1084 2881 
L 1084 941 
Q 1084 700 1114 631 
Q 1144 563 1211 522 
Q 1278 481 1403 481 
Q 1497 481 1650 503 
z
" id="ArialMT-74" transform="scale(0.015625)"/>
      <path d="M 425 3934 
L 425 4581 
L 988 4581 
L 988 3934 
L 425 3934 
z
M 425 0 
L 425 3319 
L 988 3319 
L 988 0 
L 425 0 
z
" id="ArialMT-69" transform="scale(0.015625)"/>
     </defs>
     <use xlink:href="#ArialMT-4e"/>
     <use x="72.216797" xlink:href="#ArialMT-6f"/>
     <use x="127.832031" xlink:href="#ArialMT-76"/>
     <use x="177.832031" xlink:href="#ArialMT-6f"/>
     <use x="233.447266" xlink:href="#ArialMT-73"/>
     <use x="283.447266" xlink:href="#ArialMT-20"/>
     <use x="311.230469" xlink:href="#ArialMT-43"/>
     <use x="383.447266" xlink:href="#ArialMT-61"/>
     <use x="439.0625" xlink:href="#ArialMT-73"/>
     <use x="489.0625" xlink:href="#ArialMT-6f"/>
     <use x="544.677734" xlink:href="#ArialMT-73"/>
     <use x="594.677734" xlink:href="#ArialMT-20"/>
     <use x="622.460938" xlink:href="#ArialMT-6e"/>
     <use x="678.076172" xlink:href="#ArialMT-61"/>
     <use x="733.691406" xlink:href="#ArialMT-20"/>
     <use x="761.474609" xlink:href="#ArialMT-73"/>
     <use x="811.474609" xlink:href="#ArialMT-65"/>
     <use x="867.089844" xlink:href="#ArialMT-6d"/>
     <use x="950.390625" xlink:href="#ArialMT-61"/>
     <use x="1006.005859" xlink:href="#ArialMT-6e"/>
     <use x="1061.621094" xlink:href="#ArialMT-61"/>
     <use x="1117.236328" xlink:href="#ArialMT-20"/>
     <use x="1145.019531" xlink:href="#ArialMT-58"/>
     <use x="1211.71875" xlink:href="#ArialMT-20"/>
     <use x="1239.501953" xlink:href="#ArialMT-43"/>
     <use x="1311.71875" xlink:href="#ArialMT-61"/>
     <use x="1367.333984" xlink:href="#ArialMT-73"/>
     <use x="1417.333984" xlink:href="#ArialMT-6f"/>
     <use x="1472.949219" xlink:href="#ArialMT-73"/>
     <use x="1522.949219" xlink:href="#ArialMT-20"/>
     <use x="1548.982422" xlink:href="#ArialMT-54"/>
     <use x="1598.941406" xlink:href="#ArialMT-6f"/>
     <use x="1654.556641" xlink:href="#ArialMT-74"/>
     <use x="1682.339844" xlink:href="#ArialMT-61"/>
     <use x="1737.955078" xlink:href="#ArialMT-69"/>
     <use x="1760.171875" xlink:href="#ArialMT-73"/>
    </g>
   </g>
  </g>
 </g>
 <defs>
  <clipPath id="pc12d7a8a05">
   <rect height="277.2" width="558" x="29.9" y="21.789375"/>
  </clipPath>
 </defs>
</svg>
