<?xml version="1.0" encoding="utf-8" standalone="no"?>
<!DOCTYPE svg PUBLIC "-//W3C//DTD SVG 1.1//EN"
  "http://www.w3.org/Graphics/SVG/1.1/DTD/svg11.dtd">
<svg xmlns:xlink="http://www.w3.org/1999/xlink" width="705.6pt" height="340.273125pt" viewBox="0 0 705.6 340.273125" xmlns="http://www.w3.org/2000/svg" version="1.1">
 <metadata>
  <rdf:RDF xmlns:dc="http://purl.org/dc/elements/1.1/" xmlns:cc="http://creativecommons.org/ns#" xmlns:rdf="http://www.w3.org/1999/02/22-rdf-syntax-ns#">
   <cc:Work>
    <dc:type rdf:resource="http://purl.org/dc/dcmitype/StillImage"/>
    <dc:date>2022-03-07T14:30:38.773916</dc:date>
    <dc:format>image/svg+xml</dc:format>
    <dc:creator>
     <cc:Agent>
      <dc:title>Matplotlib v3.5.1, https://matplotlib.org/</dc:title>
     </cc:Agent>
    </dc:creator>
   </cc:Work>
  </rdf:RDF>
 </metadata>
 <defs>
  <style type="text/css">*{stroke-linejoin: round; stroke-linecap: butt}</style>
 </defs>
 <g id="figure_1">
  <g id="patch_1">
   <path d="M 0 340.273125 
L 705.6 340.273125 
L 705.6 0 
L 0 0 
z
" style="fill: #ffffff"/>
  </g>
  <g id="axes_1">
   <g id="patch_2">
    <path d="M 82.8 298.989375 
L 640.8 298.989375 
L 640.8 21.789375 
L 82.8 21.789375 
z
" style="fill: #ffffff"/>
   </g>
   <g id="matplotlib.axis_1">
    <g id="xtick_1">
     <g id="line2d_1">
      <path d="M 114.249754 298.989375 
L 114.249754 21.789375 
" clip-path="url(#p68522c027f)" style="fill: none; stroke: #cccccc; stroke-width: 0.8; stroke-linecap: round"/>
     </g>
     <g id="text_1">
      <!-- $\mathdefault{10^{1}}$ -->
      <g style="fill: #262626" transform="translate(106.399754 316.301875)scale(0.1 -0.1)">
       <defs>
        <path id="ArialMT-31" d="M 2384 0 
L 1822 0 
L 1822 3584 
Q 1619 3391 1289 3197 
Q 959 3003 697 2906 
L 697 3450 
Q 1169 3672 1522 3987 
Q 1875 4303 2022 4600 
L 2384 4600 
L 2384 0 
z
" transform="scale(0.015625)"/>
        <path id="ArialMT-30" d="M 266 2259 
Q 266 3072 433 3567 
Q 600 4063 929 4331 
Q 1259 4600 1759 4600 
Q 2128 4600 2406 4451 
Q 2684 4303 2865 4023 
Q 3047 3744 3150 3342 
Q 3253 2941 3253 2259 
Q 3253 1453 3087 958 
Q 2922 463 2592 192 
Q 2263 -78 1759 -78 
Q 1097 -78 719 397 
Q 266 969 266 2259 
z
M 844 2259 
Q 844 1131 1108 757 
Q 1372 384 1759 384 
Q 2147 384 2411 759 
Q 2675 1134 2675 2259 
Q 2675 3391 2411 3762 
Q 2147 4134 1753 4134 
Q 1366 4134 1134 3806 
Q 844 3388 844 2259 
z
" transform="scale(0.015625)"/>
       </defs>
       <use xlink:href="#ArialMT-31" transform="translate(0 0.99375)"/>
       <use xlink:href="#ArialMT-30" transform="translate(55.615234 0.99375)"/>
       <use xlink:href="#ArialMT-31" transform="translate(112.972813 70.6875)scale(0.7)"/>
      </g>
     </g>
    </g>
    <g id="xtick_2">
     <g id="line2d_2">
      <path d="M 247.257876 298.989375 
L 247.257876 21.789375 
" clip-path="url(#p68522c027f)" style="fill: none; stroke: #cccccc; stroke-width: 0.8; stroke-linecap: round"/>
     </g>
     <g id="text_2">
      <!-- $\mathdefault{10^{2}}$ -->
      <g style="fill: #262626" transform="translate(239.407876 316.301875)scale(0.1 -0.1)">
       <defs>
        <path id="ArialMT-32" d="M 3222 541 
L 3222 0 
L 194 0 
Q 188 203 259 391 
Q 375 700 629 1000 
Q 884 1300 1366 1694 
Q 2113 2306 2375 2664 
Q 2638 3022 2638 3341 
Q 2638 3675 2398 3904 
Q 2159 4134 1775 4134 
Q 1369 4134 1125 3890 
Q 881 3647 878 3216 
L 300 3275 
Q 359 3922 746 4261 
Q 1134 4600 1788 4600 
Q 2447 4600 2831 4234 
Q 3216 3869 3216 3328 
Q 3216 3053 3103 2787 
Q 2991 2522 2730 2228 
Q 2469 1934 1863 1422 
Q 1356 997 1212 845 
Q 1069 694 975 541 
L 3222 541 
z
" transform="scale(0.015625)"/>
       </defs>
       <use xlink:href="#ArialMT-31" transform="translate(0 0.99375)"/>
       <use xlink:href="#ArialMT-30" transform="translate(55.615234 0.99375)"/>
       <use xlink:href="#ArialMT-32" transform="translate(112.972813 70.6875)scale(0.7)"/>
      </g>
     </g>
    </g>
    <g id="xtick_3">
     <g id="line2d_3">
      <path d="M 380.265998 298.989375 
L 380.265998 21.789375 
" clip-path="url(#p68522c027f)" style="fill: none; stroke: #cccccc; stroke-width: 0.8; stroke-linecap: round"/>
     </g>
     <g id="text_3">
      <!-- $\mathdefault{10^{3}}$ -->
      <g style="fill: #262626" transform="translate(372.415998 316.301875)scale(0.1 -0.1)">
       <defs>
        <path id="ArialMT-33" d="M 269 1209 
L 831 1284 
Q 928 806 1161 595 
Q 1394 384 1728 384 
Q 2125 384 2398 659 
Q 2672 934 2672 1341 
Q 2672 1728 2419 1979 
Q 2166 2231 1775 2231 
Q 1616 2231 1378 2169 
L 1441 2663 
Q 1497 2656 1531 2656 
Q 1891 2656 2178 2843 
Q 2466 3031 2466 3422 
Q 2466 3731 2256 3934 
Q 2047 4138 1716 4138 
Q 1388 4138 1169 3931 
Q 950 3725 888 3313 
L 325 3413 
Q 428 3978 793 4289 
Q 1159 4600 1703 4600 
Q 2078 4600 2393 4439 
Q 2709 4278 2876 4000 
Q 3044 3722 3044 3409 
Q 3044 3113 2884 2869 
Q 2725 2625 2413 2481 
Q 2819 2388 3044 2092 
Q 3269 1797 3269 1353 
Q 3269 753 2831 336 
Q 2394 -81 1725 -81 
Q 1122 -81 723 278 
Q 325 638 269 1209 
z
" transform="scale(0.015625)"/>
       </defs>
       <use xlink:href="#ArialMT-31" transform="translate(0 0.99375)"/>
       <use xlink:href="#ArialMT-30" transform="translate(55.615234 0.99375)"/>
       <use xlink:href="#ArialMT-33" transform="translate(112.972813 70.6875)scale(0.7)"/>
      </g>
     </g>
    </g>
    <g id="xtick_4">
     <g id="line2d_4">
      <path d="M 513.27412 298.989375 
L 513.27412 21.789375 
" clip-path="url(#p68522c027f)" style="fill: none; stroke: #cccccc; stroke-width: 0.8; stroke-linecap: round"/>
     </g>
     <g id="text_4">
      <!-- $\mathdefault{10^{4}}$ -->
      <g style="fill: #262626" transform="translate(505.42412 316.201875)scale(0.1 -0.1)">
       <defs>
        <path id="ArialMT-34" d="M 2069 0 
L 2069 1097 
L 81 1097 
L 81 1613 
L 2172 4581 
L 2631 4581 
L 2631 1613 
L 3250 1613 
L 3250 1097 
L 2631 1097 
L 2631 0 
L 2069 0 
z
M 2069 1613 
L 2069 3678 
L 634 1613 
L 2069 1613 
z
" transform="scale(0.015625)"/>
       </defs>
       <use xlink:href="#ArialMT-31" transform="translate(0 0.201563)"/>
       <use xlink:href="#ArialMT-30" transform="translate(55.615234 0.201563)"/>
       <use xlink:href="#ArialMT-34" transform="translate(112.972813 69.895313)scale(0.7)"/>
      </g>
     </g>
    </g>
    <g id="xtick_5"/>
    <g id="xtick_6"/>
    <g id="xtick_7"/>
    <g id="xtick_8"/>
    <g id="xtick_9"/>
    <g id="xtick_10"/>
    <g id="xtick_11"/>
    <g id="xtick_12"/>
    <g id="xtick_13"/>
    <g id="xtick_14"/>
    <g id="xtick_15"/>
    <g id="xtick_16"/>
    <g id="xtick_17"/>
    <g id="xtick_18"/>
    <g id="xtick_19"/>
    <g id="xtick_20"/>
    <g id="xtick_21"/>
    <g id="xtick_22"/>
    <g id="xtick_23"/>
    <g id="xtick_24"/>
    <g id="xtick_25"/>
    <g id="xtick_26"/>
    <g id="xtick_27"/>
    <g id="xtick_28"/>
    <g id="xtick_29"/>
    <g id="xtick_30"/>
    <g id="xtick_31"/>
    <g id="xtick_32"/>
    <g id="xtick_33"/>
    <g id="xtick_34"/>
    <g id="xtick_35"/>
    <g id="xtick_36"/>
    <g id="xtick_37"/>
    <g id="xtick_38"/>
    <g id="xtick_39"/>
    <g id="xtick_40"/>
   </g>
   <g id="matplotlib.axis_2">
    <g id="ytick_1">
     <g id="line2d_5">
      <path d="M 82.8 281.48672 
L 640.8 281.48672 
" clip-path="url(#p68522c027f)" style="fill: none; stroke: #cccccc; stroke-width: 0.8; stroke-linecap: round"/>
     </g>
     <g id="text_5">
      <!-- $\mathdefault{10^{1}}$ -->
      <g style="fill: #262626" transform="translate(60.1 286.64297)scale(0.1 -0.1)">
       <use xlink:href="#ArialMT-31" transform="translate(0 0.99375)"/>
       <use xlink:href="#ArialMT-30" transform="translate(55.615234 0.99375)"/>
       <use xlink:href="#ArialMT-31" transform="translate(112.972813 70.6875)scale(0.7)"/>
      </g>
     </g>
    </g>
    <g id="ytick_2">
     <g id="line2d_6">
      <path d="M 82.8 174.342405 
L 640.8 174.342405 
" clip-path="url(#p68522c027f)" style="fill: none; stroke: #cccccc; stroke-width: 0.8; stroke-linecap: round"/>
     </g>
     <g id="text_6">
      <!-- $\mathdefault{10^{2}}$ -->
      <g style="fill: #262626" transform="translate(60.1 179.498655)scale(0.1 -0.1)">
       <use xlink:href="#ArialMT-31" transform="translate(0 0.99375)"/>
       <use xlink:href="#ArialMT-30" transform="translate(55.615234 0.99375)"/>
       <use xlink:href="#ArialMT-32" transform="translate(112.972813 70.6875)scale(0.7)"/>
      </g>
     </g>
    </g>
    <g id="ytick_3">
     <g id="line2d_7">
      <path d="M 82.8 67.19809 
L 640.8 67.19809 
" clip-path="url(#p68522c027f)" style="fill: none; stroke: #cccccc; stroke-width: 0.8; stroke-linecap: round"/>
     </g>
     <g id="text_7">
      <!-- $\mathdefault{10^{3}}$ -->
      <g style="fill: #262626" transform="translate(60.1 72.35434)scale(0.1 -0.1)">
       <use xlink:href="#ArialMT-31" transform="translate(0 0.99375)"/>
       <use xlink:href="#ArialMT-30" transform="translate(55.615234 0.99375)"/>
       <use xlink:href="#ArialMT-33" transform="translate(112.972813 70.6875)scale(0.7)"/>
      </g>
     </g>
    </g>
    <g id="ytick_4"/>
    <g id="ytick_5"/>
    <g id="ytick_6"/>
    <g id="ytick_7"/>
    <g id="ytick_8"/>
    <g id="ytick_9"/>
    <g id="ytick_10"/>
    <g id="ytick_11"/>
    <g id="ytick_12"/>
    <g id="ytick_13"/>
    <g id="ytick_14"/>
    <g id="ytick_15"/>
    <g id="ytick_16"/>
    <g id="ytick_17"/>
    <g id="ytick_18"/>
    <g id="ytick_19"/>
    <g id="ytick_20"/>
    <g id="ytick_21"/>
    <g id="ytick_22"/>
    <g id="ytick_23"/>
   </g>
   <g id="line2d_8">
    <path d="M 108.163636 286.389375 
L 154.289189 249.233067 
L 177.710756 235.268545 
L 206.051439 212.544424 
L 223.255754 200.499026 
L 235.794419 190.939269 
L 244.899806 183.576761 
L 249.523449 181.904766 
L 249.523449 182.455449 
L 260.147695 176.729194 
L 267.10523 178.222334 
L 271.063264 181.904766 
L 277.568659 180.822573 
L 284.939241 176.241942 
L 285.834835 178.730887 
L 288.441203 174.342405 
L 298.546642 166.640657 
L 304.63276 162.493346 
L 308.760566 159.019182 
L 310.526008 162.134023 
L 314.266129 163.220427 
L 316.747203 159.355156 
L 318.287686 159.355156 
L 321.089946 167.436098 
L 321.730005 177.719278 
L 326.169742 173.420946 
L 331.915936 160.723849 
L 339.646009 148.037118 
L 339.646009 151.894062 
L 340.226564 153.057428 
L 343.701337 149.106871 
L 348.70032 138.507587 
L 351.142133 139.377373 
L 353.116383 143.988289 
L 355.912722 152.182188 
L 356.786637 149.378196 
L 357.903313 147.25064 
L 360.968252 145.716473 
L 368.307311 134.783025 
L 375.260814 121.247647 
L 379.157909 115.257673 
L 389.7289 98.348161 
L 391.610338 96.043239 
L 393.799185 95.186268 
L 395.421389 100.677586 
L 398.954709 102.828616 
L 401.449714 103.129796 
L 404.262344 110.420418 
L 405.916098 112.099597 
L 407.73963 110.775176 
L 413.34628 98.621612 
L 417.433627 90.735841 
L 419.31499 92.225626 
L 422.48763 88.403101 
L 427.365297 80.895819 
L 430.012996 77.176061 
L 437.640882 63.145383 
L 444.568063 61.060259 
L 446.91095 58.55942 
L 448.528107 59.37819 
L 451.649419 59.456924 
L 452.927781 60.613806 
L 454.897039 70.077288 
L 457.775812 70.375254 
L 460.948234 67.291248 
L 463.874007 63.530834 
L 466.46419 59.221119 
L 469.537438 59.812888 
L 469.574375 64.795018 
L 470.792314 68.759561 
L 473.476789 68.185672 
L 475.366801 70.27572 
L 479.106678 63.273512 
L 481.247684 61.676045 
L 484.150255 53.233568 
L 487.0778 43.586737 
L 488.327835 42.506798 
L 489.924713 43.783253 
L 491.873217 42.070896 
L 493.498408 46.327261 
L 494.960273 47.136536 
L 496.610023 49.780238 
L 498.243942 53.061545 
L 501.287005 57.868905 
L 502.38544 59.456924 
L 504.062686 57.076046 
L 504.809872 60.978767 
L 505.096744 68.567477 
L 506.59448 62.932616 
L 507.19442 64.927777 
L 508.029065 66.919731 
L 508.926606 67.524961 
L 510.225989 69.097627 
L 511.912275 61.511037 
L 513.991703 50.069159 
L 518.421484 34.389375 
L 518.795435 34.897929 
L 519.062562 36.795528 
L 519.582781 37.848393 
L 521.040206 36.050997 
L 521.442784 41.104796 
L 521.442784 51.741154 
L 522.195089 81.335101 
L 524.304339 64.927777 
L 526.057554 54.173644 
L 527.003484 57.038625 
L 527.768111 53.823249 
L 528.845692 46.0606 
L 530.485349 39.821248 
L 531.175874 40.629164 
L 531.5307 44.951248 
L 532.046366 52.787624 
L 532.730962 54.208829 
L 533.529707 53.302555 
L 533.862318 59.181934 
L 534.217149 72.152476 
L 534.517851 76.888647 
L 534.94813 75.533245 
L 535.225312 78.580913 
L 535.826563 79.299571 
L 536.610904 78.879007 
L 537.087158 76.432446 
L 537.331439 77.814692 
L 537.714855 76.319091 
L 538.530123 70.524955 
L 539.400229 62.932616 
L 540.358714 58.482189 
L 541.475528 54.4205 
L 542.285211 52.958635 
L 543.11817 48.42407 
L 544.460091 43.223965 
L 544.882737 46.356984 
L 545.196042 51.674441 
L 545.471278 60.011829 
L 545.507657 65.913096 
L 545.804445 65.462636 
L 546.132431 72.204265 
L 546.569032 88.110445 
L 546.999136 87.602684 
L 547.249896 88.771529 
L 547.291584 95.186268 
L 547.560228 95.698554 
L 547.757714 99.080966 
L 548.074825 102.330941 
L 548.093796 116.988683 
L 548.339859 116.988683 
L 548.540976 110.53837 
L 548.863187 115.915848 
L 548.909961 128.818753 
L 549.16189 117.260802 
L 549.375633 128.470196 
L 549.378724 150.759075 
L 549.653244 133.604932 
L 549.996863 141.625742 
L 549.996863 141.625742 
L 550.423533 117.260802 
L 550.620563 120.656754 
L 551.240595 108.572744 
L 551.261547 107.786898 
L 551.261547 114.996988 
L 551.655236 108.686099 
L 551.865889 108.010074 
L 552.043308 111.855972 
L 552.093478 118.225949 
L 552.231956 118.225949 
L 552.231956 119.211539 
L 552.293723 116.315268 
L 552.540129 123.221575 
L 552.785489 121.247647 
L 552.890326 124.959821 
L 553.026909 120.364097 
L 553.203697 118.365476 
L 553.330881 115.257673 
L 553.500985 118.645791 
L 553.894051 111.734636 
L 554.403622 97.004501 
L 554.956479 85.418335 
L 554.976126 92.706169 
L 555.651288 79.90705 
L 555.914188 82.548775 
L 556.173149 88.403101 
L 556.392631 97.806032 
L 556.512991 94.012421 
L 556.512991 94.012421 
L 557.45082 72.049071 
L 557.842029 77.291526 
L 558.055272 78.166765 
L 558.368375 76.774177 
L 558.929291 71.945896 
L 558.929291 71.945896 
L 559.177719 87.100404 
L 559.547073 87.386757 
L 560.027329 80.337053 
L 560.444941 77.639649 
L 560.67678 80.337053 
L 560.684407 85.143808 
L 560.692033 84.93897 
L 561.346662 97.716288 
L 561.574917 104.665651 
L 561.971584 98.076307 
L 562.227098 90.046463 
L 562.511052 85.833186 
L 562.756838 85.556208 
L 563.381327 81.651432 
L 563.727247 82.678391 
L 563.804372 86.251769 
L 563.922272 84.12852 
L 564.22195 90.581761 
L 564.5819 89.894645 
L 564.852173 89.894645 
L 565.215281 89.068386 
L 565.587799 83.595957 
L 566.136327 76.774177 
L 566.71864 71.280773 
L 567.31101 64.398997 
L 567.625226 65.060917 
L 567.746836 65.958383 
L 567.746836 69.978388 
L 567.892879 74.162133 
L 568.221807 71.179286 
L 569.243552 85.556208 
L 569.35743 82.097941 
L 569.654209 77.756271 
L 569.880132 80.337053 
L 570.228146 79.845944 
L 570.496904 81.272092 
L 571.04345 72.988094 
L 572.023161 55.025515 
L 572.671322 46.535725 
L 573.324548 41.397871 
L 573.587444 40.734441 
L 573.760019 42.781325 
L 573.962389 43.474813 
L 574.162041 48.083401 
L 574.459228 59.064576 
L 574.834545 64.180433 
L 575.239064 76.206011 
L 575.483571 79.784918 
L 575.646657 91.045541 
L 575.695689 105.825063 
L 575.850357 111.855972 
L 576.290553 101.254438 
L 576.393301 102.728654 
L 576.466857 102.430051 
L 576.952294 87.386757 
L 577.161007 85.280869 
L 577.252679 91.279176 
L 577.401336 92.706169 
L 577.710762 87.24336 
L 577.918644 89.142897 
L 578.360265 81.020905 
L 578.562096 81.083575 
L 579.178159 69.682945 
L 579.463545 66.781174 
L 580.266073 56.076112 
L 580.771028 54.455872 
L 581.071896 52.379742 
L 581.420939 50.946844 
L 581.734345 51.012521 
L 582.202163 47.500782 
L 582.41721 49.876346 
L 582.746097 51.574551 
L 582.829327 60.011829 
L 583.021337 62.341991 
L 583.501157 58.986502 
L 583.721669 60.897417 
L 584.138167 67.151581 
L 584.254927 73.093609 
L 584.455742 69.48702 
L 584.553366 72.152476 
L 584.681038 84.061615 
L 584.883724 84.599566 
L 585.134005 91.51399 
L 585.286976 89.743321 
L 585.759944 82.162079 
L 585.894839 81.77857 
L 586.075303 82.484102 
L 586.22417 81.842269 
L 586.328639 82.162079 
L 586.416638 84.667249 
L 586.483363 105.189078 
L 587.041793 91.357315 
L 587.18498 91.51399 
L 587.407901 89.894645 
L 587.411103 91.671193 
L 587.491076 89.068386 
L 587.85118 116.718147 
L 587.930547 119.069455 
L 587.993962 113.96861 
L 588.050976 115.783466 
L 588.119002 116.181747 
L 588.190107 120.803775 
L 588.284777 116.853218 
L 588.376145 118.505422 
L 588.716709 107.233595 
L 588.793334 106.578202 
L 589.157859 125.936057 
L 589.238554 125.445379 
L 589.54787 114.223582 
L 589.728055 103.738068 
L 589.791064 104.665651 
L 590.074522 95.612781 
L 590.156999 101.545569 
L 590.313991 99.451743 
L 590.638811 105.825063 
L 590.749198 104.979 
L 590.903084 100.202278 
L 591.92309 67.71278 
L 592.124062 63.102752 
L 592.271391 63.017606 
L 592.646849 58.212882 
L 592.967571 51.707786 
L 593.443897 65.328344 
L 593.704283 63.359128 
L 594.274172 56.740341 
L 594.431718 57.188488 
L 594.959408 51.741154 
L 595.168302 50.848502 
L 595.361102 59.852609 
L 595.657428 67.901361 
L 595.919099 84.531981 
L 596.091512 86.181744 
L 596.266159 81.335101 
L 596.347115 82.938712 
L 596.954086 71.382483 
L 597.321972 82.678391 
L 597.492943 119.928536 
L 597.605749 129.346534 
L 598.579559 87.315003 
L 598.775784 84.262619 
L 599.074765 85.902689 
L 599.277139 81.77857 
L 599.374808 90.428189 
L 599.580025 83.331944 
L 599.792267 85.212288 
L 600.255447 104.561668 
L 600.474163 96.652649 
L 600.52393 100.202278 
L 600.618242 99.080966 
L 600.79625 101.936598 
L 600.879978 100.391819 
L 600.94586 113.337228 
L 601.034429 109.603019 
L 601.125387 109.8351 
L 601.230064 104.665651 
L 601.280443 104.769866 
L 601.358444 104.874316 
L 601.625615 102.330941 
L 601.724394 101.643018 
L 601.808036 107.454128 
L 602.251679 92.465277 
L 602.377811 97.092881 
L 602.596035 88.256543 
L 602.860006 104.045213 
L 602.919999 105.294474 
L 603.036133 114.867191 
L 603.266488 108.79973 
L 603.340639 106.904745 
L 603.49835 97.270147 
L 603.532263 99.173384 
L 603.713597 94.344795 
L 603.783561 97.986041 
L 603.901583 97.18143 
L 603.970118 97.537318 
L 604.040972 104.354398 
L 604.181223 95.956828 
L 604.260189 96.652649 
L 604.348598 102.232041 
L 604.434488 104.874316 
L 604.660532 97.716288 
L 604.800472 103.942606 
L 604.834813 103.534426 
L 605.023911 99.731777 
L 605.132363 109.951576 
L 605.441275 98.076307 
L 605.490454 102.03487 
L 605.677422 100.391819 
L 605.733394 98.257366 
L 605.847503 107.014104 
L 606.073888 108.122065 
L 606.174605 106.686795 
L 606.202358 109.372089 
L 606.273992 108.346859 
L 606.358222 105.294474 
L 606.495265 126.76553 
L 606.575726 119.64041 
L 606.617063 123.532828 
L 606.661811 129.169941 
L 606.70194 124.638909 
L 606.770668 118.645791 
L 606.772958 126.431964 
L 606.842745 122.758564 
L 606.8976 126.266074 
L 607.086907 113.211973 
L 607.109673 115.127148 
L 607.156315 117.671988 
L 607.233591 109.372089 
L 607.277864 111.977625 
L 607.328907 112.344503 
L 607.402555 115.127148 
L 607.461406 121.695793 
L 607.517938 120.364097 
L 607.58796 121.247647 
L 607.63309 141.167293 
L 607.673677 140.263727 
L 607.724371 134.982307 
L 607.776146 135.788079 
L 607.849227 135.182445 
L 608.118265 106.253934 
L 608.149571 107.12372 
L 608.181978 108.91364 
L 608.262357 106.039005 
L 608.43168 117.534522 
L 608.50838 116.048607 
L 608.628229 109.718914 
L 608.784324 115.915848 
L 608.978577 107.014104 
L 609.084258 105.189078 
L 609.094156 107.343731 
L 609.160097 107.233595 
L 609.300521 102.430051 
L 609.489772 113.462821 
L 609.618502 107.67571 
L 609.714317 112.344503 
L 609.831692 111.013193 
L 610.02787 112.590706 
L 610.155408 109.02783 
L 610.191024 111.734636 
L 610.27189 109.02783 
L 610.309589 112.714297 
L 610.370932 112.590706 
L 610.441878 111.734636 
L 610.526685 116.718147 
L 610.573865 115.257673 
L 610.772885 106.253934 
L 610.798515 109.951576 
L 610.871071 113.96861 
L 610.923298 113.337228 
L 610.975478 112.714297 
L 611.13492 117.397461 
L 611.444044 105.189078 
L 611.487316 109.603019 
L 611.576923 107.786898 
L 611.718956 114.351593 
L 611.927688 107.67571 
L 612.023933 106.904745 
L 612.123148 111.49291 
L 612.199272 110.894032 
L 612.255518 111.132659 
L 612.308589 114.095921 
L 612.340824 122.605246 
L 612.376158 118.505422 
L 612.557682 107.786898 
L 612.804675 144.231277 
L 612.952983 127.780818 
L 613.009527 134.19025 
L 613.050616 145.968681 
L 613.05267 181.904766 
L 613.160385 167.436098 
L 613.168584 167.838977 
L 613.181904 163.588272 
L 613.303694 158.685617 
L 613.304717 161.072406 
L 613.367046 185.31108 
L 613.402779 175.759739 
L 613.664483 118.086839 
L 613.805534 110.302764 
L 613.890608 112.467442 
L 613.922983 130.783936 
L 614.000814 123.376941 
L 614.051297 122.91239 
L 614.182346 119.78425 
L 614.196442 122.758564 
L 614.275915 116.048607 
L 614.3131 121.695793 
L 614.400439 138.292657 
L 614.420498 137.023519 
L 614.495658 146.477234 
L 614.68463 129.169941 
L 614.877959 183.012727 
L 615.017075 158.685617 
L 615.043866 162.134023 
L 615.292329 122.148298 
L 615.331826 120.510195 
L 615.400882 111.977625 
L 615.436364 121.099218 
L 615.436364 121.099218 
" clip-path="url(#p68522c027f)" style="fill: none; stroke: #1f77b4; stroke-width: 1.5; stroke-linecap: round"/>
   </g>
   <g id="patch_3">
    <path d="M 82.8 298.989375 
L 82.8 21.789375 
" style="fill: none; stroke: #cccccc; stroke-width: 0.8; stroke-linejoin: miter; stroke-linecap: square"/>
   </g>
   <g id="patch_4">
    <path d="M 640.8 298.989375 
L 640.8 21.789375 
" style="fill: none; stroke: #cccccc; stroke-width: 0.8; stroke-linejoin: miter; stroke-linecap: square"/>
   </g>
   <g id="patch_5">
    <path d="M 82.8 298.989375 
L 640.8 298.989375 
" style="fill: none; stroke: #cccccc; stroke-width: 0.8; stroke-linejoin: miter; stroke-linecap: square"/>
   </g>
   <g id="patch_6">
    <path d="M 82.8 21.789375 
L 640.8 21.789375 
" style="fill: none; stroke: #cccccc; stroke-width: 0.8; stroke-linejoin: miter; stroke-linecap: square"/>
   </g>
   <g id="text_8">
    <!-- Novos Casos na semana X Casos Totais -->
    <g style="fill: #262626" transform="translate(253.195312 15.789375)scale(0.12 -0.12)">
     <defs>
      <path id="ArialMT-4e" d="M 488 0 
L 488 4581 
L 1109 4581 
L 3516 984 
L 3516 4581 
L 4097 4581 
L 4097 0 
L 3475 0 
L 1069 3600 
L 1069 0 
L 488 0 
z
" transform="scale(0.015625)"/>
      <path id="ArialMT-6f" d="M 213 1659 
Q 213 2581 725 3025 
Q 1153 3394 1769 3394 
Q 2453 3394 2887 2945 
Q 3322 2497 3322 1706 
Q 3322 1066 3130 698 
Q 2938 331 2570 128 
Q 2203 -75 1769 -75 
Q 1072 -75 642 372 
Q 213 819 213 1659 
z
M 791 1659 
Q 791 1022 1069 705 
Q 1347 388 1769 388 
Q 2188 388 2466 706 
Q 2744 1025 2744 1678 
Q 2744 2294 2464 2611 
Q 2184 2928 1769 2928 
Q 1347 2928 1069 2612 
Q 791 2297 791 1659 
z
" transform="scale(0.015625)"/>
      <path id="ArialMT-76" d="M 1344 0 
L 81 3319 
L 675 3319 
L 1388 1331 
Q 1503 1009 1600 663 
Q 1675 925 1809 1294 
L 2547 3319 
L 3125 3319 
L 1869 0 
L 1344 0 
z
" transform="scale(0.015625)"/>
      <path id="ArialMT-73" d="M 197 991 
L 753 1078 
Q 800 744 1014 566 
Q 1228 388 1613 388 
Q 2000 388 2187 545 
Q 2375 703 2375 916 
Q 2375 1106 2209 1216 
Q 2094 1291 1634 1406 
Q 1016 1563 777 1677 
Q 538 1791 414 1992 
Q 291 2194 291 2438 
Q 291 2659 392 2848 
Q 494 3038 669 3163 
Q 800 3259 1026 3326 
Q 1253 3394 1513 3394 
Q 1903 3394 2198 3281 
Q 2494 3169 2634 2976 
Q 2775 2784 2828 2463 
L 2278 2388 
Q 2241 2644 2061 2787 
Q 1881 2931 1553 2931 
Q 1166 2931 1000 2803 
Q 834 2675 834 2503 
Q 834 2394 903 2306 
Q 972 2216 1119 2156 
Q 1203 2125 1616 2013 
Q 2213 1853 2448 1751 
Q 2684 1650 2818 1456 
Q 2953 1263 2953 975 
Q 2953 694 2789 445 
Q 2625 197 2315 61 
Q 2006 -75 1616 -75 
Q 969 -75 630 194 
Q 291 463 197 991 
z
" transform="scale(0.015625)"/>
      <path id="ArialMT-20" transform="scale(0.015625)"/>
      <path id="ArialMT-43" d="M 3763 1606 
L 4369 1453 
Q 4178 706 3683 314 
Q 3188 -78 2472 -78 
Q 1731 -78 1267 223 
Q 803 525 561 1097 
Q 319 1669 319 2325 
Q 319 3041 592 3573 
Q 866 4106 1370 4382 
Q 1875 4659 2481 4659 
Q 3169 4659 3637 4309 
Q 4106 3959 4291 3325 
L 3694 3184 
Q 3534 3684 3231 3912 
Q 2928 4141 2469 4141 
Q 1941 4141 1586 3887 
Q 1231 3634 1087 3207 
Q 944 2781 944 2328 
Q 944 1744 1114 1308 
Q 1284 872 1643 656 
Q 2003 441 2422 441 
Q 2931 441 3284 734 
Q 3638 1028 3763 1606 
z
" transform="scale(0.015625)"/>
      <path id="ArialMT-61" d="M 2588 409 
Q 2275 144 1986 34 
Q 1697 -75 1366 -75 
Q 819 -75 525 192 
Q 231 459 231 875 
Q 231 1119 342 1320 
Q 453 1522 633 1644 
Q 813 1766 1038 1828 
Q 1203 1872 1538 1913 
Q 2219 1994 2541 2106 
Q 2544 2222 2544 2253 
Q 2544 2597 2384 2738 
Q 2169 2928 1744 2928 
Q 1347 2928 1158 2789 
Q 969 2650 878 2297 
L 328 2372 
Q 403 2725 575 2942 
Q 747 3159 1072 3276 
Q 1397 3394 1825 3394 
Q 2250 3394 2515 3294 
Q 2781 3194 2906 3042 
Q 3031 2891 3081 2659 
Q 3109 2516 3109 2141 
L 3109 1391 
Q 3109 606 3145 398 
Q 3181 191 3288 0 
L 2700 0 
Q 2613 175 2588 409 
z
M 2541 1666 
Q 2234 1541 1622 1453 
Q 1275 1403 1131 1340 
Q 988 1278 909 1158 
Q 831 1038 831 891 
Q 831 666 1001 516 
Q 1172 366 1500 366 
Q 1825 366 2078 508 
Q 2331 650 2450 897 
Q 2541 1088 2541 1459 
L 2541 1666 
z
" transform="scale(0.015625)"/>
      <path id="ArialMT-6e" d="M 422 0 
L 422 3319 
L 928 3319 
L 928 2847 
Q 1294 3394 1984 3394 
Q 2284 3394 2536 3286 
Q 2788 3178 2913 3003 
Q 3038 2828 3088 2588 
Q 3119 2431 3119 2041 
L 3119 0 
L 2556 0 
L 2556 2019 
Q 2556 2363 2490 2533 
Q 2425 2703 2258 2804 
Q 2091 2906 1866 2906 
Q 1506 2906 1245 2678 
Q 984 2450 984 1813 
L 984 0 
L 422 0 
z
" transform="scale(0.015625)"/>
      <path id="ArialMT-65" d="M 2694 1069 
L 3275 997 
Q 3138 488 2766 206 
Q 2394 -75 1816 -75 
Q 1088 -75 661 373 
Q 234 822 234 1631 
Q 234 2469 665 2931 
Q 1097 3394 1784 3394 
Q 2450 3394 2872 2941 
Q 3294 2488 3294 1666 
Q 3294 1616 3291 1516 
L 816 1516 
Q 847 969 1125 678 
Q 1403 388 1819 388 
Q 2128 388 2347 550 
Q 2566 713 2694 1069 
z
M 847 1978 
L 2700 1978 
Q 2663 2397 2488 2606 
Q 2219 2931 1791 2931 
Q 1403 2931 1139 2672 
Q 875 2413 847 1978 
z
" transform="scale(0.015625)"/>
      <path id="ArialMT-6d" d="M 422 0 
L 422 3319 
L 925 3319 
L 925 2853 
Q 1081 3097 1340 3245 
Q 1600 3394 1931 3394 
Q 2300 3394 2536 3241 
Q 2772 3088 2869 2813 
Q 3263 3394 3894 3394 
Q 4388 3394 4653 3120 
Q 4919 2847 4919 2278 
L 4919 0 
L 4359 0 
L 4359 2091 
Q 4359 2428 4304 2576 
Q 4250 2725 4106 2815 
Q 3963 2906 3769 2906 
Q 3419 2906 3187 2673 
Q 2956 2441 2956 1928 
L 2956 0 
L 2394 0 
L 2394 2156 
Q 2394 2531 2256 2718 
Q 2119 2906 1806 2906 
Q 1569 2906 1367 2781 
Q 1166 2656 1075 2415 
Q 984 2175 984 1722 
L 984 0 
L 422 0 
z
" transform="scale(0.015625)"/>
      <path id="ArialMT-58" d="M 28 0 
L 1800 2388 
L 238 4581 
L 959 4581 
L 1791 3406 
Q 2050 3041 2159 2844 
Q 2313 3094 2522 3366 
L 3444 4581 
L 4103 4581 
L 2494 2422 
L 4228 0 
L 3478 0 
L 2325 1634 
Q 2228 1775 2125 1941 
Q 1972 1691 1906 1597 
L 756 0 
L 28 0 
z
" transform="scale(0.015625)"/>
      <path id="ArialMT-54" d="M 1659 0 
L 1659 4041 
L 150 4041 
L 150 4581 
L 3781 4581 
L 3781 4041 
L 2266 4041 
L 2266 0 
L 1659 0 
z
" transform="scale(0.015625)"/>
      <path id="ArialMT-74" d="M 1650 503 
L 1731 6 
Q 1494 -44 1306 -44 
Q 1000 -44 831 53 
Q 663 150 594 308 
Q 525 466 525 972 
L 525 2881 
L 113 2881 
L 113 3319 
L 525 3319 
L 525 4141 
L 1084 4478 
L 1084 3319 
L 1650 3319 
L 1650 2881 
L 1084 2881 
L 1084 941 
Q 1084 700 1114 631 
Q 1144 563 1211 522 
Q 1278 481 1403 481 
Q 1497 481 1650 503 
z
" transform="scale(0.015625)"/>
      <path id="ArialMT-69" d="M 425 3934 
L 425 4581 
L 988 4581 
L 988 3934 
L 425 3934 
z
M 425 0 
L 425 3319 
L 988 3319 
L 988 0 
L 425 0 
z
" transform="scale(0.015625)"/>
     </defs>
     <use xlink:href="#ArialMT-4e"/>
     <use xlink:href="#ArialMT-6f" x="72.216797"/>
     <use xlink:href="#ArialMT-76" x="127.832031"/>
     <use xlink:href="#ArialMT-6f" x="177.832031"/>
     <use xlink:href="#ArialMT-73" x="233.447266"/>
     <use xlink:href="#ArialMT-20" x="283.447266"/>
     <use xlink:href="#ArialMT-43" x="311.230469"/>
     <use xlink:href="#ArialMT-61" x="383.447266"/>
     <use xlink:href="#ArialMT-73" x="439.0625"/>
     <use xlink:href="#ArialMT-6f" x="489.0625"/>
     <use xlink:href="#ArialMT-73" x="544.677734"/>
     <use xlink:href="#ArialMT-20" x="594.677734"/>
     <use xlink:href="#ArialMT-6e" x="622.460938"/>
     <use xlink:href="#ArialMT-61" x="678.076172"/>
     <use xlink:href="#ArialMT-20" x="733.691406"/>
     <use xlink:href="#ArialMT-73" x="761.474609"/>
     <use xlink:href="#ArialMT-65" x="811.474609"/>
     <use xlink:href="#ArialMT-6d" x="867.089844"/>
     <use xlink:href="#ArialMT-61" x="950.390625"/>
     <use xlink:href="#ArialMT-6e" x="1006.005859"/>
     <use xlink:href="#ArialMT-61" x="1061.621094"/>
     <use xlink:href="#ArialMT-20" x="1117.236328"/>
     <use xlink:href="#ArialMT-58" x="1145.019531"/>
     <use xlink:href="#ArialMT-20" x="1211.71875"/>
     <use xlink:href="#ArialMT-43" x="1239.501953"/>
     <use xlink:href="#ArialMT-61" x="1311.71875"/>
     <use xlink:href="#ArialMT-73" x="1367.333984"/>
     <use xlink:href="#ArialMT-6f" x="1417.333984"/>
     <use xlink:href="#ArialMT-73" x="1472.949219"/>
     <use xlink:href="#ArialMT-20" x="1522.949219"/>
     <use xlink:href="#ArialMT-54" x="1548.982422"/>
     <use xlink:href="#ArialMT-6f" x="1598.941406"/>
     <use xlink:href="#ArialMT-74" x="1654.556641"/>
     <use xlink:href="#ArialMT-61" x="1682.339844"/>
     <use xlink:href="#ArialMT-69" x="1737.955078"/>
     <use xlink:href="#ArialMT-73" x="1760.171875"/>
    </g>
   </g>
  </g>
  <g id="text_9">
   <!-- Atualizado em 06/03/2022 -->
   <g style="fill: #262626" transform="translate(7.2 331.389375)scale(0.08 -0.08)">
    <defs>
     <path id="ArialMT-41" d="M -9 0 
L 1750 4581 
L 2403 4581 
L 4278 0 
L 3588 0 
L 3053 1388 
L 1138 1388 
L 634 0 
L -9 0 
z
M 1313 1881 
L 2866 1881 
L 2388 3150 
Q 2169 3728 2063 4100 
Q 1975 3659 1816 3225 
L 1313 1881 
z
" transform="scale(0.015625)"/>
     <path id="ArialMT-75" d="M 2597 0 
L 2597 488 
Q 2209 -75 1544 -75 
Q 1250 -75 995 37 
Q 741 150 617 320 
Q 494 491 444 738 
Q 409 903 409 1263 
L 409 3319 
L 972 3319 
L 972 1478 
Q 972 1038 1006 884 
Q 1059 663 1231 536 
Q 1403 409 1656 409 
Q 1909 409 2131 539 
Q 2353 669 2445 892 
Q 2538 1116 2538 1541 
L 2538 3319 
L 3100 3319 
L 3100 0 
L 2597 0 
z
" transform="scale(0.015625)"/>
     <path id="ArialMT-6c" d="M 409 0 
L 409 4581 
L 972 4581 
L 972 0 
L 409 0 
z
" transform="scale(0.015625)"/>
     <path id="ArialMT-7a" d="M 125 0 
L 125 456 
L 2238 2881 
Q 1878 2863 1603 2863 
L 250 2863 
L 250 3319 
L 2963 3319 
L 2963 2947 
L 1166 841 
L 819 456 
Q 1197 484 1528 484 
L 3063 484 
L 3063 0 
L 125 0 
z
" transform="scale(0.015625)"/>
     <path id="ArialMT-64" d="M 2575 0 
L 2575 419 
Q 2259 -75 1647 -75 
Q 1250 -75 917 144 
Q 584 363 401 755 
Q 219 1147 219 1656 
Q 219 2153 384 2558 
Q 550 2963 881 3178 
Q 1213 3394 1622 3394 
Q 1922 3394 2156 3267 
Q 2391 3141 2538 2938 
L 2538 4581 
L 3097 4581 
L 3097 0 
L 2575 0 
z
M 797 1656 
Q 797 1019 1065 703 
Q 1334 388 1700 388 
Q 2069 388 2326 689 
Q 2584 991 2584 1609 
Q 2584 2291 2321 2609 
Q 2059 2928 1675 2928 
Q 1300 2928 1048 2622 
Q 797 2316 797 1656 
z
" transform="scale(0.015625)"/>
     <path id="ArialMT-36" d="M 3184 3459 
L 2625 3416 
Q 2550 3747 2413 3897 
Q 2184 4138 1850 4138 
Q 1581 4138 1378 3988 
Q 1113 3794 959 3422 
Q 806 3050 800 2363 
Q 1003 2672 1297 2822 
Q 1591 2972 1913 2972 
Q 2475 2972 2870 2558 
Q 3266 2144 3266 1488 
Q 3266 1056 3080 686 
Q 2894 316 2569 119 
Q 2244 -78 1831 -78 
Q 1128 -78 684 439 
Q 241 956 241 2144 
Q 241 3472 731 4075 
Q 1159 4600 1884 4600 
Q 2425 4600 2770 4297 
Q 3116 3994 3184 3459 
z
M 888 1484 
Q 888 1194 1011 928 
Q 1134 663 1356 523 
Q 1578 384 1822 384 
Q 2178 384 2434 671 
Q 2691 959 2691 1453 
Q 2691 1928 2437 2201 
Q 2184 2475 1800 2475 
Q 1419 2475 1153 2201 
Q 888 1928 888 1484 
z
" transform="scale(0.015625)"/>
     <path id="ArialMT-2f" d="M 0 -78 
L 1328 4659 
L 1778 4659 
L 453 -78 
L 0 -78 
z
" transform="scale(0.015625)"/>
    </defs>
    <use xlink:href="#ArialMT-41"/>
    <use xlink:href="#ArialMT-74" x="66.699219"/>
    <use xlink:href="#ArialMT-75" x="94.482422"/>
    <use xlink:href="#ArialMT-61" x="150.097656"/>
    <use xlink:href="#ArialMT-6c" x="205.712891"/>
    <use xlink:href="#ArialMT-69" x="227.929688"/>
    <use xlink:href="#ArialMT-7a" x="250.146484"/>
    <use xlink:href="#ArialMT-61" x="300.146484"/>
    <use xlink:href="#ArialMT-64" x="355.761719"/>
    <use xlink:href="#ArialMT-6f" x="411.376953"/>
    <use xlink:href="#ArialMT-20" x="466.992188"/>
    <use xlink:href="#ArialMT-65" x="494.775391"/>
    <use xlink:href="#ArialMT-6d" x="550.390625"/>
    <use xlink:href="#ArialMT-20" x="633.691406"/>
    <use xlink:href="#ArialMT-30" x="661.474609"/>
    <use xlink:href="#ArialMT-36" x="717.089844"/>
    <use xlink:href="#ArialMT-2f" x="772.705078"/>
    <use xlink:href="#ArialMT-30" x="800.488281"/>
    <use xlink:href="#ArialMT-33" x="856.103516"/>
    <use xlink:href="#ArialMT-2f" x="911.71875"/>
    <use xlink:href="#ArialMT-32" x="939.501953"/>
    <use xlink:href="#ArialMT-30" x="995.117188"/>
    <use xlink:href="#ArialMT-32" x="1050.732422"/>
    <use xlink:href="#ArialMT-32" x="1106.347656"/>
   </g>
  </g>
  <g id="text_10">
   <!-- https://jmsvaz.github.io/covidsantos/ -->
   <g style="fill: #262626" transform="translate(570.345 331.389375)scale(0.08 -0.08)">
    <defs>
     <path id="ArialMT-68" d="M 422 0 
L 422 4581 
L 984 4581 
L 984 2938 
Q 1378 3394 1978 3394 
Q 2347 3394 2619 3248 
Q 2891 3103 3008 2847 
Q 3125 2591 3125 2103 
L 3125 0 
L 2563 0 
L 2563 2103 
Q 2563 2525 2380 2717 
Q 2197 2909 1863 2909 
Q 1613 2909 1392 2779 
Q 1172 2650 1078 2428 
Q 984 2206 984 1816 
L 984 0 
L 422 0 
z
" transform="scale(0.015625)"/>
     <path id="ArialMT-70" d="M 422 -1272 
L 422 3319 
L 934 3319 
L 934 2888 
Q 1116 3141 1344 3267 
Q 1572 3394 1897 3394 
Q 2322 3394 2647 3175 
Q 2972 2956 3137 2557 
Q 3303 2159 3303 1684 
Q 3303 1175 3120 767 
Q 2938 359 2589 142 
Q 2241 -75 1856 -75 
Q 1575 -75 1351 44 
Q 1128 163 984 344 
L 984 -1272 
L 422 -1272 
z
M 931 1641 
Q 931 1000 1190 694 
Q 1450 388 1819 388 
Q 2194 388 2461 705 
Q 2728 1022 2728 1688 
Q 2728 2322 2467 2637 
Q 2206 2953 1844 2953 
Q 1484 2953 1207 2617 
Q 931 2281 931 1641 
z
" transform="scale(0.015625)"/>
     <path id="ArialMT-3a" d="M 578 2678 
L 578 3319 
L 1219 3319 
L 1219 2678 
L 578 2678 
z
M 578 0 
L 578 641 
L 1219 641 
L 1219 0 
L 578 0 
z
" transform="scale(0.015625)"/>
     <path id="ArialMT-6a" d="M 419 3928 
L 419 4581 
L 981 4581 
L 981 3928 
L 419 3928 
z
M -294 -1288 
L -188 -809 
Q -19 -853 78 -853 
Q 250 -853 334 -739 
Q 419 -625 419 -169 
L 419 3319 
L 981 3319 
L 981 -181 
Q 981 -794 822 -1034 
Q 619 -1347 147 -1347 
Q -81 -1347 -294 -1288 
z
" transform="scale(0.015625)"/>
     <path id="ArialMT-2e" d="M 581 0 
L 581 641 
L 1222 641 
L 1222 0 
L 581 0 
z
" transform="scale(0.015625)"/>
     <path id="ArialMT-67" d="M 319 -275 
L 866 -356 
Q 900 -609 1056 -725 
Q 1266 -881 1628 -881 
Q 2019 -881 2231 -725 
Q 2444 -569 2519 -288 
Q 2563 -116 2559 434 
Q 2191 0 1641 0 
Q 956 0 581 494 
Q 206 988 206 1678 
Q 206 2153 378 2554 
Q 550 2956 876 3175 
Q 1203 3394 1644 3394 
Q 2231 3394 2613 2919 
L 2613 3319 
L 3131 3319 
L 3131 450 
Q 3131 -325 2973 -648 
Q 2816 -972 2473 -1159 
Q 2131 -1347 1631 -1347 
Q 1038 -1347 672 -1080 
Q 306 -813 319 -275 
z
M 784 1719 
Q 784 1066 1043 766 
Q 1303 466 1694 466 
Q 2081 466 2343 764 
Q 2606 1063 2606 1700 
Q 2606 2309 2336 2618 
Q 2066 2928 1684 2928 
Q 1309 2928 1046 2623 
Q 784 2319 784 1719 
z
" transform="scale(0.015625)"/>
     <path id="ArialMT-62" d="M 941 0 
L 419 0 
L 419 4581 
L 981 4581 
L 981 2947 
Q 1338 3394 1891 3394 
Q 2197 3394 2470 3270 
Q 2744 3147 2920 2923 
Q 3097 2700 3197 2384 
Q 3297 2069 3297 1709 
Q 3297 856 2875 390 
Q 2453 -75 1863 -75 
Q 1275 -75 941 416 
L 941 0 
z
M 934 1684 
Q 934 1088 1097 822 
Q 1363 388 1816 388 
Q 2184 388 2453 708 
Q 2722 1028 2722 1663 
Q 2722 2313 2464 2622 
Q 2206 2931 1841 2931 
Q 1472 2931 1203 2611 
Q 934 2291 934 1684 
z
" transform="scale(0.015625)"/>
     <path id="ArialMT-63" d="M 2588 1216 
L 3141 1144 
Q 3050 572 2676 248 
Q 2303 -75 1759 -75 
Q 1078 -75 664 370 
Q 250 816 250 1647 
Q 250 2184 428 2587 
Q 606 2991 970 3192 
Q 1334 3394 1763 3394 
Q 2303 3394 2647 3120 
Q 2991 2847 3088 2344 
L 2541 2259 
Q 2463 2594 2264 2762 
Q 2066 2931 1784 2931 
Q 1359 2931 1093 2626 
Q 828 2322 828 1663 
Q 828 994 1084 691 
Q 1341 388 1753 388 
Q 2084 388 2306 591 
Q 2528 794 2588 1216 
z
" transform="scale(0.015625)"/>
    </defs>
    <use xlink:href="#ArialMT-68"/>
    <use xlink:href="#ArialMT-74" x="55.615234"/>
    <use xlink:href="#ArialMT-74" x="83.398438"/>
    <use xlink:href="#ArialMT-70" x="111.181641"/>
    <use xlink:href="#ArialMT-73" x="166.796875"/>
    <use xlink:href="#ArialMT-3a" x="216.796875"/>
    <use xlink:href="#ArialMT-2f" x="244.580078"/>
    <use xlink:href="#ArialMT-2f" x="272.363281"/>
    <use xlink:href="#ArialMT-6a" x="300.146484"/>
    <use xlink:href="#ArialMT-6d" x="322.363281"/>
    <use xlink:href="#ArialMT-73" x="405.664062"/>
    <use xlink:href="#ArialMT-76" x="455.664062"/>
    <use xlink:href="#ArialMT-61" x="505.664062"/>
    <use xlink:href="#ArialMT-7a" x="561.279297"/>
    <use xlink:href="#ArialMT-2e" x="611.279297"/>
    <use xlink:href="#ArialMT-67" x="639.0625"/>
    <use xlink:href="#ArialMT-69" x="694.677734"/>
    <use xlink:href="#ArialMT-74" x="716.894531"/>
    <use xlink:href="#ArialMT-68" x="744.677734"/>
    <use xlink:href="#ArialMT-75" x="800.292969"/>
    <use xlink:href="#ArialMT-62" x="855.908203"/>
    <use xlink:href="#ArialMT-2e" x="911.523438"/>
    <use xlink:href="#ArialMT-69" x="939.306641"/>
    <use xlink:href="#ArialMT-6f" x="961.523438"/>
    <use xlink:href="#ArialMT-2f" x="1017.138672"/>
    <use xlink:href="#ArialMT-63" x="1044.921875"/>
    <use xlink:href="#ArialMT-6f" x="1094.921875"/>
    <use xlink:href="#ArialMT-76" x="1150.537109"/>
    <use xlink:href="#ArialMT-69" x="1200.537109"/>
    <use xlink:href="#ArialMT-64" x="1222.753906"/>
    <use xlink:href="#ArialMT-73" x="1278.369141"/>
    <use xlink:href="#ArialMT-61" x="1328.369141"/>
    <use xlink:href="#ArialMT-6e" x="1383.984375"/>
    <use xlink:href="#ArialMT-74" x="1439.599609"/>
    <use xlink:href="#ArialMT-6f" x="1467.382812"/>
    <use xlink:href="#ArialMT-73" x="1522.998047"/>
    <use xlink:href="#ArialMT-2f" x="1572.998047"/>
   </g>
  </g>
 </g>
 <defs>
  <clipPath id="p68522c027f">
   <rect x="82.8" y="21.789375" width="558" height="277.2"/>
  </clipPath>
 </defs>
</svg>
