<?xml version="1.0" encoding="utf-8" standalone="no"?>
<!DOCTYPE svg PUBLIC "-//W3C//DTD SVG 1.1//EN"
  "http://www.w3.org/Graphics/SVG/1.1/DTD/svg11.dtd">
<!-- Created with matplotlib (https://matplotlib.org/) -->
<svg height="325.489375pt" version="1.1" viewBox="0 0 595.1 325.489375" width="595.1pt" xmlns="http://www.w3.org/2000/svg" xmlns:xlink="http://www.w3.org/1999/xlink">
 <metadata>
  <rdf:RDF xmlns:cc="http://creativecommons.org/ns#" xmlns:dc="http://purl.org/dc/elements/1.1/" xmlns:rdf="http://www.w3.org/1999/02/22-rdf-syntax-ns#">
   <cc:Work>
    <dc:type rdf:resource="http://purl.org/dc/dcmitype/StillImage"/>
    <dc:date>2021-03-15T19:31:58.274075</dc:date>
    <dc:format>image/svg+xml</dc:format>
    <dc:creator>
     <cc:Agent>
      <dc:title>Matplotlib v3.3.4, https://matplotlib.org/</dc:title>
     </cc:Agent>
    </dc:creator>
   </cc:Work>
  </rdf:RDF>
 </metadata>
 <defs>
  <style type="text/css">*{stroke-linecap:butt;stroke-linejoin:round;}</style>
 </defs>
 <g id="figure_1">
  <g id="patch_1">
   <path d="M 0 325.489375 
L 595.1 325.489375 
L 595.1 0 
L 0 0 
z
" style="fill:#ffffff;"/>
  </g>
  <g id="axes_1">
   <g id="patch_2">
    <path d="M 29.9 298.989375 
L 587.9 298.989375 
L 587.9 21.789375 
L 29.9 21.789375 
z
" style="fill:#ffffff;"/>
   </g>
   <g id="matplotlib.axis_1">
    <g id="xtick_1">
     <g id="line2d_1">
      <path clip-path="url(#p13d9bb27df)" d="M 61.682262 298.989375 
L 61.682262 21.789375 
" style="fill:none;stroke:#cccccc;stroke-linecap:round;stroke-width:0.8;"/>
     </g>
     <g id="text_1">
      <!-- $\mathdefault{10^{1}}$ -->
      <g style="fill:#262626;" transform="translate(53.832262 316.301875)scale(0.1 -0.1)">
       <defs>
        <path d="M 37.25 0 
L 28.46875 0 
L 28.46875 56 
Q 25.296875 52.984375 20.140625 49.953125 
Q 14.984375 46.921875 10.890625 45.40625 
L 10.890625 53.90625 
Q 18.265625 57.375 23.78125 62.296875 
Q 29.296875 67.234375 31.59375 71.875 
L 37.25 71.875 
z
" id="ArialMT-49"/>
        <path d="M 4.15625 35.296875 
Q 4.15625 48 6.765625 55.734375 
Q 9.375 63.484375 14.515625 67.671875 
Q 19.671875 71.875 27.484375 71.875 
Q 33.25 71.875 37.59375 69.546875 
Q 41.9375 67.234375 44.765625 62.859375 
Q 47.609375 58.5 49.21875 52.21875 
Q 50.828125 45.953125 50.828125 35.296875 
Q 50.828125 22.703125 48.234375 14.96875 
Q 45.65625 7.234375 40.5 3 
Q 35.359375 -1.21875 27.484375 -1.21875 
Q 17.140625 -1.21875 11.234375 6.203125 
Q 4.15625 15.140625 4.15625 35.296875 
z
M 13.1875 35.296875 
Q 13.1875 17.671875 17.3125 11.828125 
Q 21.4375 6 27.484375 6 
Q 33.546875 6 37.671875 11.859375 
Q 41.796875 17.71875 41.796875 35.296875 
Q 41.796875 52.984375 37.671875 58.78125 
Q 33.546875 64.59375 27.390625 64.59375 
Q 21.34375 64.59375 17.71875 59.46875 
Q 13.1875 52.9375 13.1875 35.296875 
z
" id="ArialMT-48"/>
       </defs>
       <use transform="translate(0 0.99375)" xlink:href="#ArialMT-49"/>
       <use transform="translate(55.615234 0.99375)" xlink:href="#ArialMT-48"/>
       <use transform="translate(112.972813 70.6875)scale(0.7)" xlink:href="#ArialMT-49"/>
      </g>
     </g>
    </g>
    <g id="xtick_2">
     <g id="line2d_2">
      <path clip-path="url(#p13d9bb27df)" d="M 201.957112 298.989375 
L 201.957112 21.789375 
" style="fill:none;stroke:#cccccc;stroke-linecap:round;stroke-width:0.8;"/>
     </g>
     <g id="text_2">
      <!-- $\mathdefault{10^{2}}$ -->
      <g style="fill:#262626;" transform="translate(194.107112 316.301875)scale(0.1 -0.1)">
       <defs>
        <path d="M 50.34375 8.453125 
L 50.34375 0 
L 3.03125 0 
Q 2.9375 3.171875 4.046875 6.109375 
Q 5.859375 10.9375 9.828125 15.625 
Q 13.8125 20.3125 21.34375 26.46875 
Q 33.015625 36.03125 37.109375 41.625 
Q 41.21875 47.21875 41.21875 52.203125 
Q 41.21875 57.421875 37.46875 61 
Q 33.734375 64.59375 27.734375 64.59375 
Q 21.390625 64.59375 17.578125 60.78125 
Q 13.765625 56.984375 13.71875 50.25 
L 4.6875 51.171875 
Q 5.609375 61.28125 11.65625 66.578125 
Q 17.71875 71.875 27.9375 71.875 
Q 38.234375 71.875 44.234375 66.15625 
Q 50.25 60.453125 50.25 52 
Q 50.25 47.703125 48.484375 43.546875 
Q 46.734375 39.40625 42.65625 34.8125 
Q 38.578125 30.21875 29.109375 22.21875 
Q 21.1875 15.578125 18.9375 13.203125 
Q 16.703125 10.84375 15.234375 8.453125 
z
" id="ArialMT-50"/>
       </defs>
       <use transform="translate(0 0.99375)" xlink:href="#ArialMT-49"/>
       <use transform="translate(55.615234 0.99375)" xlink:href="#ArialMT-48"/>
       <use transform="translate(112.972813 70.6875)scale(0.7)" xlink:href="#ArialMT-50"/>
      </g>
     </g>
    </g>
    <g id="xtick_3">
     <g id="line2d_3">
      <path clip-path="url(#p13d9bb27df)" d="M 342.231963 298.989375 
L 342.231963 21.789375 
" style="fill:none;stroke:#cccccc;stroke-linecap:round;stroke-width:0.8;"/>
     </g>
     <g id="text_3">
      <!-- $\mathdefault{10^{3}}$ -->
      <g style="fill:#262626;" transform="translate(334.381963 316.301875)scale(0.1 -0.1)">
       <defs>
        <path d="M 4.203125 18.890625 
L 12.984375 20.0625 
Q 14.5 12.59375 18.140625 9.296875 
Q 21.78125 6 27 6 
Q 33.203125 6 37.46875 10.296875 
Q 41.75 14.59375 41.75 20.953125 
Q 41.75 27 37.796875 30.921875 
Q 33.84375 34.859375 27.734375 34.859375 
Q 25.25 34.859375 21.53125 33.890625 
L 22.515625 41.609375 
Q 23.390625 41.5 23.921875 41.5 
Q 29.546875 41.5 34.03125 44.421875 
Q 38.53125 47.359375 38.53125 53.46875 
Q 38.53125 58.296875 35.25 61.46875 
Q 31.984375 64.65625 26.8125 64.65625 
Q 21.6875 64.65625 18.265625 61.421875 
Q 14.84375 58.203125 13.875 51.765625 
L 5.078125 53.328125 
Q 6.6875 62.15625 12.390625 67.015625 
Q 18.109375 71.875 26.609375 71.875 
Q 32.46875 71.875 37.390625 69.359375 
Q 42.328125 66.84375 44.9375 62.5 
Q 47.5625 58.15625 47.5625 53.265625 
Q 47.5625 48.640625 45.0625 44.828125 
Q 42.578125 41.015625 37.703125 38.765625 
Q 44.046875 37.3125 47.5625 32.6875 
Q 51.078125 28.078125 51.078125 21.140625 
Q 51.078125 11.765625 44.234375 5.25 
Q 37.40625 -1.265625 26.953125 -1.265625 
Q 17.53125 -1.265625 11.296875 4.34375 
Q 5.078125 9.96875 4.203125 18.890625 
z
" id="ArialMT-51"/>
       </defs>
       <use transform="translate(0 0.99375)" xlink:href="#ArialMT-49"/>
       <use transform="translate(55.615234 0.99375)" xlink:href="#ArialMT-48"/>
       <use transform="translate(112.972813 70.6875)scale(0.7)" xlink:href="#ArialMT-51"/>
      </g>
     </g>
    </g>
    <g id="xtick_4">
     <g id="line2d_4">
      <path clip-path="url(#p13d9bb27df)" d="M 482.506813 298.989375 
L 482.506813 21.789375 
" style="fill:none;stroke:#cccccc;stroke-linecap:round;stroke-width:0.8;"/>
     </g>
     <g id="text_4">
      <!-- $\mathdefault{10^{4}}$ -->
      <g style="fill:#262626;" transform="translate(474.656813 316.201875)scale(0.1 -0.1)">
       <defs>
        <path d="M 32.328125 0 
L 32.328125 17.140625 
L 1.265625 17.140625 
L 1.265625 25.203125 
L 33.9375 71.578125 
L 41.109375 71.578125 
L 41.109375 25.203125 
L 50.78125 25.203125 
L 50.78125 17.140625 
L 41.109375 17.140625 
L 41.109375 0 
z
M 32.328125 25.203125 
L 32.328125 57.46875 
L 9.90625 25.203125 
z
" id="ArialMT-52"/>
       </defs>
       <use transform="translate(0 0.201563)" xlink:href="#ArialMT-49"/>
       <use transform="translate(55.615234 0.201563)" xlink:href="#ArialMT-48"/>
       <use transform="translate(112.972813 69.895313)scale(0.7)" xlink:href="#ArialMT-52"/>
      </g>
     </g>
    </g>
    <g id="xtick_5"/>
    <g id="xtick_6"/>
    <g id="xtick_7"/>
    <g id="xtick_8"/>
    <g id="xtick_9"/>
    <g id="xtick_10"/>
    <g id="xtick_11"/>
    <g id="xtick_12"/>
    <g id="xtick_13"/>
    <g id="xtick_14"/>
    <g id="xtick_15"/>
    <g id="xtick_16"/>
    <g id="xtick_17"/>
    <g id="xtick_18"/>
    <g id="xtick_19"/>
    <g id="xtick_20"/>
    <g id="xtick_21"/>
    <g id="xtick_22"/>
    <g id="xtick_23"/>
    <g id="xtick_24"/>
    <g id="xtick_25"/>
    <g id="xtick_26"/>
    <g id="xtick_27"/>
    <g id="xtick_28"/>
    <g id="xtick_29"/>
    <g id="xtick_30"/>
    <g id="xtick_31"/>
    <g id="xtick_32"/>
    <g id="xtick_33"/>
    <g id="xtick_34"/>
    <g id="xtick_35"/>
    <g id="xtick_36"/>
   </g>
   <g id="matplotlib.axis_2">
    <g id="ytick_1">
     <g id="line2d_5">
      <path clip-path="url(#p13d9bb27df)" d="M 29.9 281.48672 
L 587.9 281.48672 
" style="fill:none;stroke:#cccccc;stroke-linecap:round;stroke-width:0.8;"/>
     </g>
     <g id="text_5">
      <!-- $\mathdefault{10^{1}}$ -->
      <g style="fill:#262626;" transform="translate(7.2 286.64297)scale(0.1 -0.1)">
       <use transform="translate(0 0.99375)" xlink:href="#ArialMT-49"/>
       <use transform="translate(55.615234 0.99375)" xlink:href="#ArialMT-48"/>
       <use transform="translate(112.972813 70.6875)scale(0.7)" xlink:href="#ArialMT-49"/>
      </g>
     </g>
    </g>
    <g id="ytick_2">
     <g id="line2d_6">
      <path clip-path="url(#p13d9bb27df)" d="M 29.9 174.342405 
L 587.9 174.342405 
" style="fill:none;stroke:#cccccc;stroke-linecap:round;stroke-width:0.8;"/>
     </g>
     <g id="text_6">
      <!-- $\mathdefault{10^{2}}$ -->
      <g style="fill:#262626;" transform="translate(7.2 179.498655)scale(0.1 -0.1)">
       <use transform="translate(0 0.99375)" xlink:href="#ArialMT-49"/>
       <use transform="translate(55.615234 0.99375)" xlink:href="#ArialMT-48"/>
       <use transform="translate(112.972813 70.6875)scale(0.7)" xlink:href="#ArialMT-50"/>
      </g>
     </g>
    </g>
    <g id="ytick_3">
     <g id="line2d_7">
      <path clip-path="url(#p13d9bb27df)" d="M 29.9 67.19809 
L 587.9 67.19809 
" style="fill:none;stroke:#cccccc;stroke-linecap:round;stroke-width:0.8;"/>
     </g>
     <g id="text_7">
      <!-- $\mathdefault{10^{3}}$ -->
      <g style="fill:#262626;" transform="translate(7.2 72.35434)scale(0.1 -0.1)">
       <use transform="translate(0 0.99375)" xlink:href="#ArialMT-49"/>
       <use transform="translate(55.615234 0.99375)" xlink:href="#ArialMT-48"/>
       <use transform="translate(112.972813 70.6875)scale(0.7)" xlink:href="#ArialMT-51"/>
      </g>
     </g>
    </g>
    <g id="ytick_4"/>
    <g id="ytick_5"/>
    <g id="ytick_6"/>
    <g id="ytick_7"/>
    <g id="ytick_8"/>
    <g id="ytick_9"/>
    <g id="ytick_10"/>
    <g id="ytick_11"/>
    <g id="ytick_12"/>
    <g id="ytick_13"/>
    <g id="ytick_14"/>
    <g id="ytick_15"/>
    <g id="ytick_16"/>
    <g id="ytick_17"/>
    <g id="ytick_18"/>
    <g id="ytick_19"/>
    <g id="ytick_20"/>
    <g id="ytick_21"/>
    <g id="ytick_22"/>
    <g id="ytick_23"/>
   </g>
   <g id="line2d_8">
    <path clip-path="url(#p13d9bb27df)" d="M 55.263636 286.389375 
L 103.909199 249.233067 
L 128.610374 235.268545 
L 158.499414 212.544424 
L 176.643665 200.499026 
L 189.867363 190.939269 
L 199.470212 183.576761 
L 204.346461 181.904766 
L 204.346461 182.455449 
L 215.55115 176.729194 
L 222.888801 178.222334 
L 227.063077 181.904766 
L 233.923886 180.822573 
L 241.69715 176.241942 
L 242.641674 178.730887 
L 245.390438 174.342405 
L 256.047975 166.640657 
L 262.4666 162.493346 
L 266.819922 159.019182 
L 268.681817 162.134023 
L 272.626275 163.220427 
L 275.242899 159.355156 
L 276.867544 159.355156 
L 279.822903 167.436098 
L 280.49793 177.719278 
L 285.180227 173.420946 
L 291.240357 160.723849 
L 299.392753 148.037118 
L 299.392753 151.894062 
L 300.005025 153.057428 
L 303.669638 149.106871 
L 308.941734 138.507587 
L 311.516952 139.377373 
L 313.599063 143.988289 
L 316.548176 152.182188 
L 317.469837 149.378196 
L 318.64752 147.25064 
L 321.879909 145.716473 
L 329.619927 134.783025 
L 336.953327 121.247647 
L 341.063334 115.257673 
L 352.211858 98.348161 
L 354.196086 96.043239 
L 356.504518 95.186268 
L 358.215349 100.677586 
L 361.941707 102.828616 
L 364.573024 103.129796 
L 367.539318 110.420418 
L 369.283423 112.099597 
L 371.206581 110.775176 
L 377.119543 98.621612 
L 381.430197 90.735841 
L 383.414346 92.225626 
L 386.76032 88.403101 
L 391.904471 80.895819 
L 394.696825 77.176061 
L 402.74145 63.145383 
L 410.047089 61.060259 
L 412.517976 58.55942 
L 414.223485 59.37819 
L 417.515325 59.456924 
L 418.863529 60.613806 
L 420.940376 70.077288 
L 423.976426 70.375254 
L 427.322169 67.291248 
L 430.407788 63.530834 
L 433.139483 59.221119 
L 436.380633 59.812888 
L 436.419589 64.795018 
L 437.704068 68.759561 
L 440.535206 68.185672 
L 442.528476 70.27572 
L 446.472677 63.273512 
L 448.730654 61.676045 
L 451.791803 53.233568 
L 454.87929 43.586737 
L 456.19762 42.506798 
L 457.881741 43.783253 
L 459.9367 42.070896 
L 461.65068 46.327261 
L 463.192413 47.136536 
L 464.932295 49.780238 
L 466.655481 53.061545 
L 469.864797 57.868905 
L 471.023244 59.456924 
L 472.792125 57.076046 
L 473.580131 60.978767 
L 473.882677 68.567477 
L 475.46224 62.932616 
L 476.094957 64.927777 
L 476.975201 66.919731 
L 477.921778 67.524961 
L 479.292151 69.097627 
L 481.070566 61.511037 
L 483.263601 50.069159 
L 487.935397 34.389375 
L 488.329779 34.897929 
L 488.611499 36.795528 
L 489.160139 37.848393 
L 490.69719 36.050997 
L 491.121762 41.104796 
L 491.121762 51.741154 
L 491.915168 81.335101 
L 494.139655 64.927777 
L 495.988654 54.173644 
L 496.986263 57.038625 
L 497.792664 53.823249 
L 498.929118 46.0606 
L 500.658356 39.821248 
L 501.386607 40.629164 
L 501.760819 44.951248 
L 502.304657 52.787624 
L 503.026655 54.208829 
L 503.869038 53.302555 
L 504.219821 59.181934 
L 504.594038 72.152476 
L 504.911168 76.888647 
L 505.364955 75.533245 
L 505.657281 78.580913 
L 506.29138 79.299571 
L 507.118573 78.879007 
L 507.620846 76.432446 
L 507.878473 77.814692 
L 508.282837 76.319091 
L 509.142646 70.524955 
L 510.060289 62.932616 
L 511.071139 58.482189 
L 512.248969 54.4205 
L 513.102889 52.958635 
L 513.981355 48.42407 
L 515.39659 43.223965 
L 515.842326 46.356984 
L 516.172748 51.674441 
L 516.463022 60.011829 
L 516.501388 65.913096 
L 516.814391 65.462636 
L 517.160296 72.204265 
L 517.62075 88.110445 
L 518.074353 87.602684 
L 518.338813 88.771529 
L 518.382778 95.186268 
L 518.666099 95.698554 
L 518.874374 99.080966 
L 519.20881 102.330941 
L 519.228818 116.988683 
L 519.488324 116.988683 
L 519.700429 110.53837 
L 520.040243 115.915848 
L 520.089573 128.818753 
L 520.355265 117.260802 
L 520.580686 128.470196 
L 520.583947 150.759075 
L 520.873464 133.604932 
L 521.235857 141.625742 
L 521.235857 141.625742 
L 521.685837 117.260802 
L 521.893632 120.656754 
L 522.547538 108.572744 
L 522.569635 107.786898 
L 522.569635 114.996988 
L 522.984833 108.686099 
L 523.206994 108.010074 
L 523.394106 111.855972 
L 523.447017 118.225949 
L 523.593061 118.225949 
L 523.593061 119.211539 
L 523.658202 116.315268 
L 523.918071 123.221575 
L 524.176836 121.247647 
L 524.2874 124.959821 
L 524.431445 120.364097 
L 524.617892 118.365476 
L 524.752024 115.257673 
L 524.931422 118.645791 
L 525.345963 111.734636 
L 525.883373 97.004501 
L 526.466435 85.418335 
L 526.487155 92.706169 
L 527.199203 79.90705 
L 527.476467 82.548775 
L 527.749576 88.403101 
L 527.981048 97.806032 
L 528.107984 94.012421 
L 528.107984 94.012421 
L 529.097051 72.049071 
L 529.509633 77.291526 
L 529.734526 78.166765 
L 530.064735 76.774177 
L 530.656296 71.945896 
L 530.656296 71.945896 
L 530.918297 87.100404 
L 531.30783 87.386757 
L 531.814324 80.337053 
L 532.254752 77.639649 
L 532.499257 80.337053 
L 532.507301 85.143808 
L 532.515344 84.93897 
L 533.205737 97.716288 
L 533.446462 104.665651 
L 533.864801 98.076307 
L 534.134274 90.046463 
L 534.433742 85.833186 
L 534.692956 85.556208 
L 535.351564 81.651432 
L 535.716382 82.678391 
L 535.797721 86.251769 
L 535.922062 84.12852 
L 536.238113 90.581761 
L 536.617729 89.894645 
L 536.902767 89.894645 
L 537.285713 89.068386 
L 537.678583 83.595957 
L 538.25708 76.774177 
L 538.871206 71.280773 
L 539.49594 64.398997 
L 539.827322 65.060917 
L 539.955576 65.958383 
L 539.955576 69.978388 
L 540.109599 74.162133 
L 540.456497 71.179286 
L 540.815469 76.546078 
L 541.160708 83.397807 
L 541.534064 85.556208 
L 541.654164 82.097941 
L 541.967156 77.756271 
L 542.205423 80.337053 
L 542.57245 79.845944 
L 542.855891 81.272092 
L 543.432296 72.988094 
L 544.465533 55.025515 
L 545.149105 46.535725 
L 545.838019 41.397871 
L 546.115279 40.734441 
L 546.297281 42.781325 
L 546.510709 43.474813 
L 546.721268 48.083401 
L 547.034692 59.064576 
L 547.430514 64.180433 
L 547.857133 76.206011 
L 548.114998 79.784918 
L 548.286994 91.045541 
L 548.338705 105.825063 
L 548.501823 111.855972 
L 548.966069 101.254438 
L 549.07443 102.728654 
L 549.152005 102.430051 
L 549.663963 87.386757 
L 549.884079 85.280869 
L 549.980759 91.279176 
L 550.137538 92.706169 
L 550.463868 87.24336 
L 550.683108 89.142897 
L 551.148856 81.020905 
L 551.361714 81.083575 
L 552.011435 69.682945 
L 552.312413 66.781174 
L 552.696661 61.141894 
L 553.158786 56.076112 
L 553.691329 54.455872 
L 554.008634 52.379742 
L 554.376747 50.946844 
L 554.707275 51.012521 
L 555.200652 47.500782 
L 555.427448 49.876346 
L 555.774303 51.574551 
L 555.86208 60.011829 
L 556.06458 62.341991 
L 556.570614 58.986502 
L 556.803174 60.897417 
L 557.242427 67.151581 
L 557.365566 73.093609 
L 557.577352 69.48702 
L 557.68031 72.152476 
L 557.814957 84.061615 
L 558.028716 84.599566 
L 558.292671 91.51399 
L 558.453999 89.743321 
L 558.952808 82.162079 
L 559.095073 81.77857 
L 559.285396 82.484102 
L 559.442396 81.842269 
L 559.552573 82.162079 
L 559.645379 84.667249 
L 559.715749 105.189078 
L 560.304688 91.357315 
L 560.455698 91.51399 
L 560.690799 89.894645 
L 560.694175 91.671193 
L 560.778518 89.068386 
L 561.158296 116.718147 
L 561.241999 119.069455 
L 561.308878 113.96861 
L 561.369007 115.783466 
L 561.44075 116.181747 
L 561.515739 120.803775 
L 561.615582 116.853218 
L 561.711941 118.505422 
L 562.071112 107.233595 
L 562.151922 106.578202 
L 562.254019 111.49291 
L 562.35266 111.252433 
L 562.393714 121.996973 
L 562.475737 119.64041 
L 562.536364 125.936057 
L 562.536364 125.936057 
" style="fill:none;stroke:#1f77b4;stroke-linecap:round;stroke-width:1.5;"/>
   </g>
   <g id="patch_3">
    <path d="M 29.9 298.989375 
L 29.9 21.789375 
" style="fill:none;stroke:#cccccc;stroke-linecap:square;stroke-linejoin:miter;stroke-width:0.8;"/>
   </g>
   <g id="patch_4">
    <path d="M 587.9 298.989375 
L 587.9 21.789375 
" style="fill:none;stroke:#cccccc;stroke-linecap:square;stroke-linejoin:miter;stroke-width:0.8;"/>
   </g>
   <g id="patch_5">
    <path d="M 29.9 298.989375 
L 587.9 298.989375 
" style="fill:none;stroke:#cccccc;stroke-linecap:square;stroke-linejoin:miter;stroke-width:0.8;"/>
   </g>
   <g id="patch_6">
    <path d="M 29.9 21.789375 
L 587.9 21.789375 
" style="fill:none;stroke:#cccccc;stroke-linecap:square;stroke-linejoin:miter;stroke-width:0.8;"/>
   </g>
   <g id="text_8">
    <!-- Novos Casos na semana X Casos Totais -->
    <g style="fill:#262626;" transform="translate(200.295312 15.789375)scale(0.12 -0.12)">
     <defs>
      <path d="M 7.625 0 
L 7.625 71.578125 
L 17.328125 71.578125 
L 54.9375 15.375 
L 54.9375 71.578125 
L 64.015625 71.578125 
L 64.015625 0 
L 54.296875 0 
L 16.703125 56.25 
L 16.703125 0 
z
" id="ArialMT-78"/>
      <path d="M 3.328125 25.921875 
Q 3.328125 40.328125 11.328125 47.265625 
Q 18.015625 53.03125 27.640625 53.03125 
Q 38.328125 53.03125 45.109375 46.015625 
Q 51.90625 39.015625 51.90625 26.65625 
Q 51.90625 16.65625 48.90625 10.90625 
Q 45.90625 5.171875 40.15625 2 
Q 34.421875 -1.171875 27.640625 -1.171875 
Q 16.75 -1.171875 10.03125 5.8125 
Q 3.328125 12.796875 3.328125 25.921875 
z
M 12.359375 25.921875 
Q 12.359375 15.96875 16.703125 11.015625 
Q 21.046875 6.0625 27.640625 6.0625 
Q 34.1875 6.0625 38.53125 11.03125 
Q 42.875 16.015625 42.875 26.21875 
Q 42.875 35.84375 38.5 40.796875 
Q 34.125 45.75 27.640625 45.75 
Q 21.046875 45.75 16.703125 40.8125 
Q 12.359375 35.890625 12.359375 25.921875 
z
" id="ArialMT-111"/>
      <path d="M 21 0 
L 1.265625 51.859375 
L 10.546875 51.859375 
L 21.6875 20.796875 
Q 23.484375 15.765625 25 10.359375 
Q 26.171875 14.453125 28.265625 20.21875 
L 39.796875 51.859375 
L 48.828125 51.859375 
L 29.203125 0 
z
" id="ArialMT-118"/>
      <path d="M 3.078125 15.484375 
L 11.765625 16.84375 
Q 12.5 11.625 15.84375 8.84375 
Q 19.1875 6.0625 25.203125 6.0625 
Q 31.25 6.0625 34.171875 8.515625 
Q 37.109375 10.984375 37.109375 14.3125 
Q 37.109375 17.28125 34.515625 19 
Q 32.71875 20.171875 25.53125 21.96875 
Q 15.875 24.421875 12.140625 26.203125 
Q 8.40625 27.984375 6.46875 31.125 
Q 4.546875 34.28125 4.546875 38.09375 
Q 4.546875 41.546875 6.125 44.5 
Q 7.71875 47.46875 10.453125 49.421875 
Q 12.5 50.921875 16.03125 51.96875 
Q 19.578125 53.03125 23.640625 53.03125 
Q 29.734375 53.03125 34.34375 51.265625 
Q 38.96875 49.515625 41.15625 46.5 
Q 43.359375 43.5 44.1875 38.484375 
L 35.59375 37.3125 
Q 35.015625 41.3125 32.203125 43.546875 
Q 29.390625 45.796875 24.265625 45.796875 
Q 18.21875 45.796875 15.625 43.796875 
Q 13.03125 41.796875 13.03125 39.109375 
Q 13.03125 37.40625 14.109375 36.03125 
Q 15.1875 34.625 17.484375 33.6875 
Q 18.796875 33.203125 25.25 31.453125 
Q 34.578125 28.953125 38.25 27.359375 
Q 41.9375 25.78125 44.03125 22.75 
Q 46.140625 19.734375 46.140625 15.234375 
Q 46.140625 10.84375 43.578125 6.953125 
Q 41.015625 3.078125 36.171875 0.953125 
Q 31.34375 -1.171875 25.25 -1.171875 
Q 15.140625 -1.171875 9.84375 3.03125 
Q 4.546875 7.234375 3.078125 15.484375 
z
" id="ArialMT-115"/>
      <path id="ArialMT-32"/>
      <path d="M 58.796875 25.09375 
L 68.265625 22.703125 
Q 65.28125 11.03125 57.546875 4.90625 
Q 49.8125 -1.21875 38.625 -1.21875 
Q 27.046875 -1.21875 19.796875 3.484375 
Q 12.546875 8.203125 8.765625 17.140625 
Q 4.984375 26.078125 4.984375 36.328125 
Q 4.984375 47.515625 9.25 55.828125 
Q 13.53125 64.15625 21.40625 68.46875 
Q 29.296875 72.796875 38.765625 72.796875 
Q 49.515625 72.796875 56.828125 67.328125 
Q 64.15625 61.859375 67.046875 51.953125 
L 57.71875 49.75 
Q 55.21875 57.5625 50.484375 61.125 
Q 45.75 64.703125 38.578125 64.703125 
Q 30.328125 64.703125 24.78125 60.734375 
Q 19.234375 56.78125 16.984375 50.109375 
Q 14.75 43.453125 14.75 36.375 
Q 14.75 27.25 17.40625 20.4375 
Q 20.0625 13.625 25.671875 10.25 
Q 31.296875 6.890625 37.84375 6.890625 
Q 45.796875 6.890625 51.3125 11.46875 
Q 56.84375 16.0625 58.796875 25.09375 
z
" id="ArialMT-67"/>
      <path d="M 40.4375 6.390625 
Q 35.546875 2.25 31.03125 0.53125 
Q 26.515625 -1.171875 21.34375 -1.171875 
Q 12.796875 -1.171875 8.203125 3 
Q 3.609375 7.171875 3.609375 13.671875 
Q 3.609375 17.484375 5.34375 20.625 
Q 7.078125 23.78125 9.890625 25.6875 
Q 12.703125 27.59375 16.21875 28.5625 
Q 18.796875 29.25 24.03125 29.890625 
Q 34.671875 31.15625 39.703125 32.90625 
Q 39.75 34.71875 39.75 35.203125 
Q 39.75 40.578125 37.25 42.78125 
Q 33.890625 45.75 27.25 45.75 
Q 21.046875 45.75 18.09375 43.578125 
Q 15.140625 41.40625 13.71875 35.890625 
L 5.125 37.0625 
Q 6.296875 42.578125 8.984375 45.96875 
Q 11.671875 49.359375 16.75 51.1875 
Q 21.828125 53.03125 28.515625 53.03125 
Q 35.15625 53.03125 39.296875 51.46875 
Q 43.453125 49.90625 45.40625 47.53125 
Q 47.359375 45.171875 48.140625 41.546875 
Q 48.578125 39.3125 48.578125 33.453125 
L 48.578125 21.734375 
Q 48.578125 9.46875 49.140625 6.21875 
Q 49.703125 2.984375 51.375 0 
L 42.1875 0 
Q 40.828125 2.734375 40.4375 6.390625 
z
M 39.703125 26.03125 
Q 34.90625 24.078125 25.34375 22.703125 
Q 19.921875 21.921875 17.671875 20.9375 
Q 15.4375 19.96875 14.203125 18.09375 
Q 12.984375 16.21875 12.984375 13.921875 
Q 12.984375 10.40625 15.640625 8.0625 
Q 18.3125 5.71875 23.4375 5.71875 
Q 28.515625 5.71875 32.46875 7.9375 
Q 36.421875 10.15625 38.28125 14.015625 
Q 39.703125 17 39.703125 22.796875 
z
" id="ArialMT-97"/>
      <path d="M 6.59375 0 
L 6.59375 51.859375 
L 14.5 51.859375 
L 14.5 44.484375 
Q 20.21875 53.03125 31 53.03125 
Q 35.6875 53.03125 39.625 51.34375 
Q 43.5625 49.65625 45.515625 46.921875 
Q 47.46875 44.1875 48.25 40.4375 
Q 48.734375 37.984375 48.734375 31.890625 
L 48.734375 0 
L 39.9375 0 
L 39.9375 31.546875 
Q 39.9375 36.921875 38.90625 39.578125 
Q 37.890625 42.234375 35.28125 43.8125 
Q 32.671875 45.40625 29.15625 45.40625 
Q 23.53125 45.40625 19.453125 41.84375 
Q 15.375 38.28125 15.375 28.328125 
L 15.375 0 
z
" id="ArialMT-110"/>
      <path d="M 42.09375 16.703125 
L 51.171875 15.578125 
Q 49.03125 7.625 43.21875 3.21875 
Q 37.40625 -1.171875 28.375 -1.171875 
Q 17 -1.171875 10.328125 5.828125 
Q 3.65625 12.84375 3.65625 25.484375 
Q 3.65625 38.578125 10.390625 45.796875 
Q 17.140625 53.03125 27.875 53.03125 
Q 38.28125 53.03125 44.875 45.953125 
Q 51.46875 38.875 51.46875 26.03125 
Q 51.46875 25.25 51.421875 23.6875 
L 12.75 23.6875 
Q 13.234375 15.140625 17.578125 10.59375 
Q 21.921875 6.0625 28.421875 6.0625 
Q 33.25 6.0625 36.671875 8.59375 
Q 40.09375 11.140625 42.09375 16.703125 
z
M 13.234375 30.90625 
L 42.1875 30.90625 
Q 41.609375 37.453125 38.875 40.71875 
Q 34.671875 45.796875 27.984375 45.796875 
Q 21.921875 45.796875 17.796875 41.75 
Q 13.671875 37.703125 13.234375 30.90625 
z
" id="ArialMT-101"/>
      <path d="M 6.59375 0 
L 6.59375 51.859375 
L 14.453125 51.859375 
L 14.453125 44.578125 
Q 16.890625 48.390625 20.9375 50.703125 
Q 25 53.03125 30.171875 53.03125 
Q 35.9375 53.03125 39.625 50.640625 
Q 43.3125 48.25 44.828125 43.953125 
Q 50.984375 53.03125 60.84375 53.03125 
Q 68.5625 53.03125 72.703125 48.75 
Q 76.859375 44.484375 76.859375 35.59375 
L 76.859375 0 
L 68.109375 0 
L 68.109375 32.671875 
Q 68.109375 37.9375 67.25 40.25 
Q 66.40625 42.578125 64.15625 43.984375 
Q 61.921875 45.40625 58.890625 45.40625 
Q 53.421875 45.40625 49.796875 41.765625 
Q 46.1875 38.140625 46.1875 30.125 
L 46.1875 0 
L 37.40625 0 
L 37.40625 33.6875 
Q 37.40625 39.546875 35.25 42.46875 
Q 33.109375 45.40625 28.21875 45.40625 
Q 24.515625 45.40625 21.359375 43.453125 
Q 18.21875 41.5 16.796875 37.734375 
Q 15.375 33.984375 15.375 26.90625 
L 15.375 0 
z
" id="ArialMT-109"/>
      <path d="M 0.4375 0 
L 28.125 37.3125 
L 3.71875 71.578125 
L 14.984375 71.578125 
L 27.984375 53.21875 
Q 32.03125 47.515625 33.734375 44.4375 
Q 36.140625 48.34375 39.40625 52.59375 
L 53.8125 71.578125 
L 64.109375 71.578125 
L 38.96875 37.84375 
L 66.0625 0 
L 54.34375 0 
L 36.328125 25.53125 
Q 34.8125 27.734375 33.203125 30.328125 
Q 30.8125 26.421875 29.78125 24.953125 
L 11.8125 0 
z
" id="ArialMT-88"/>
      <path d="M 25.921875 0 
L 25.921875 63.140625 
L 2.34375 63.140625 
L 2.34375 71.578125 
L 59.078125 71.578125 
L 59.078125 63.140625 
L 35.40625 63.140625 
L 35.40625 0 
z
" id="ArialMT-84"/>
      <path d="M 25.78125 7.859375 
L 27.046875 0.09375 
Q 23.34375 -0.6875 20.40625 -0.6875 
Q 15.625 -0.6875 12.984375 0.828125 
Q 10.359375 2.34375 9.28125 4.8125 
Q 8.203125 7.28125 8.203125 15.1875 
L 8.203125 45.015625 
L 1.765625 45.015625 
L 1.765625 51.859375 
L 8.203125 51.859375 
L 8.203125 64.703125 
L 16.9375 69.96875 
L 16.9375 51.859375 
L 25.78125 51.859375 
L 25.78125 45.015625 
L 16.9375 45.015625 
L 16.9375 14.703125 
Q 16.9375 10.9375 17.40625 9.859375 
Q 17.875 8.796875 18.921875 8.15625 
Q 19.96875 7.515625 21.921875 7.515625 
Q 23.390625 7.515625 25.78125 7.859375 
z
" id="ArialMT-116"/>
      <path d="M 6.640625 61.46875 
L 6.640625 71.578125 
L 15.4375 71.578125 
L 15.4375 61.46875 
z
M 6.640625 0 
L 6.640625 51.859375 
L 15.4375 51.859375 
L 15.4375 0 
z
" id="ArialMT-105"/>
     </defs>
     <use xlink:href="#ArialMT-78"/>
     <use x="72.216797" xlink:href="#ArialMT-111"/>
     <use x="127.832031" xlink:href="#ArialMT-118"/>
     <use x="177.832031" xlink:href="#ArialMT-111"/>
     <use x="233.447266" xlink:href="#ArialMT-115"/>
     <use x="283.447266" xlink:href="#ArialMT-32"/>
     <use x="311.230469" xlink:href="#ArialMT-67"/>
     <use x="383.447266" xlink:href="#ArialMT-97"/>
     <use x="439.0625" xlink:href="#ArialMT-115"/>
     <use x="489.0625" xlink:href="#ArialMT-111"/>
     <use x="544.677734" xlink:href="#ArialMT-115"/>
     <use x="594.677734" xlink:href="#ArialMT-32"/>
     <use x="622.460938" xlink:href="#ArialMT-110"/>
     <use x="678.076172" xlink:href="#ArialMT-97"/>
     <use x="733.691406" xlink:href="#ArialMT-32"/>
     <use x="761.474609" xlink:href="#ArialMT-115"/>
     <use x="811.474609" xlink:href="#ArialMT-101"/>
     <use x="867.089844" xlink:href="#ArialMT-109"/>
     <use x="950.390625" xlink:href="#ArialMT-97"/>
     <use x="1006.005859" xlink:href="#ArialMT-110"/>
     <use x="1061.621094" xlink:href="#ArialMT-97"/>
     <use x="1117.236328" xlink:href="#ArialMT-32"/>
     <use x="1145.019531" xlink:href="#ArialMT-88"/>
     <use x="1211.71875" xlink:href="#ArialMT-32"/>
     <use x="1239.501953" xlink:href="#ArialMT-67"/>
     <use x="1311.71875" xlink:href="#ArialMT-97"/>
     <use x="1367.333984" xlink:href="#ArialMT-115"/>
     <use x="1417.333984" xlink:href="#ArialMT-111"/>
     <use x="1472.949219" xlink:href="#ArialMT-115"/>
     <use x="1522.949219" xlink:href="#ArialMT-32"/>
     <use x="1548.982422" xlink:href="#ArialMT-84"/>
     <use x="1598.941406" xlink:href="#ArialMT-111"/>
     <use x="1654.556641" xlink:href="#ArialMT-116"/>
     <use x="1682.339844" xlink:href="#ArialMT-97"/>
     <use x="1737.955078" xlink:href="#ArialMT-105"/>
     <use x="1760.171875" xlink:href="#ArialMT-115"/>
    </g>
   </g>
  </g>
 </g>
 <defs>
  <clipPath id="p13d9bb27df">
   <rect height="277.2" width="558" x="29.9" y="21.789375"/>
  </clipPath>
 </defs>
</svg>
