<?xml version="1.0" encoding="utf-8" standalone="no"?>
<!DOCTYPE svg PUBLIC "-//W3C//DTD SVG 1.1//EN"
  "http://www.w3.org/Graphics/SVG/1.1/DTD/svg11.dtd">
<svg height="340.273125pt" version="1.1" viewBox="0 0 705.6 340.273125" width="705.6pt" xmlns="http://www.w3.org/2000/svg" xmlns:xlink="http://www.w3.org/1999/xlink">
 <metadata>
  <rdf:RDF xmlns:cc="http://creativecommons.org/ns#" xmlns:dc="http://purl.org/dc/elements/1.1/" xmlns:rdf="http://www.w3.org/1999/02/22-rdf-syntax-ns#">
   <cc:Work>
    <dc:type rdf:resource="http://purl.org/dc/dcmitype/StillImage"/>
    <dc:date>2021-11-30T07:51:12.728890</dc:date>
    <dc:format>image/svg+xml</dc:format>
    <dc:creator>
     <cc:Agent>
      <dc:title>Matplotlib v3.4.2, https://matplotlib.org/</dc:title>
     </cc:Agent>
    </dc:creator>
   </cc:Work>
  </rdf:RDF>
 </metadata>
 <defs>
  <style type="text/css">*{stroke-linecap:butt;stroke-linejoin:round;}</style>
 </defs>
 <g id="figure_1">
  <g id="patch_1">
   <path d="M 0 340.273125 
L 705.6 340.273125 
L 705.6 0 
L 0 0 
z
" style="fill:#ffffff;"/>
  </g>
  <g id="axes_1">
   <g id="patch_2">
    <path d="M 82.8 298.989375 
L 640.8 298.989375 
L 640.8 21.789375 
L 82.8 21.789375 
z
" style="fill:#ffffff;"/>
   </g>
   <g id="matplotlib.axis_1">
    <g id="xtick_1">
     <g id="line2d_1">
      <path clip-path="url(#p380afff1c7)" d="M 114.298033 298.989375 
L 114.298033 21.789375 
" style="fill:none;stroke:#cccccc;stroke-linecap:round;stroke-width:0.8;"/>
     </g>
     <g id="text_1">
      <!-- $\mathdefault{10^{1}}$ -->
      <g style="fill:#262626;" transform="translate(106.448033 316.301875)scale(0.1 -0.1)">
       <defs>
        <path d="M 2384 0 
L 1822 0 
L 1822 3584 
Q 1619 3391 1289 3197 
Q 959 3003 697 2906 
L 697 3450 
Q 1169 3672 1522 3987 
Q 1875 4303 2022 4600 
L 2384 4600 
L 2384 0 
z
" id="ArialMT-31" transform="scale(0.015625)"/>
        <path d="M 266 2259 
Q 266 3072 433 3567 
Q 600 4063 929 4331 
Q 1259 4600 1759 4600 
Q 2128 4600 2406 4451 
Q 2684 4303 2865 4023 
Q 3047 3744 3150 3342 
Q 3253 2941 3253 2259 
Q 3253 1453 3087 958 
Q 2922 463 2592 192 
Q 2263 -78 1759 -78 
Q 1097 -78 719 397 
Q 266 969 266 2259 
z
M 844 2259 
Q 844 1131 1108 757 
Q 1372 384 1759 384 
Q 2147 384 2411 759 
Q 2675 1134 2675 2259 
Q 2675 3391 2411 3762 
Q 2147 4134 1753 4134 
Q 1366 4134 1134 3806 
Q 844 3388 844 2259 
z
" id="ArialMT-30" transform="scale(0.015625)"/>
       </defs>
       <use transform="translate(0 0.99375)" xlink:href="#ArialMT-31"/>
       <use transform="translate(55.615234 0.99375)" xlink:href="#ArialMT-30"/>
       <use transform="translate(112.972813 70.6875)scale(0.7)" xlink:href="#ArialMT-31"/>
      </g>
     </g>
    </g>
    <g id="xtick_2">
     <g id="line2d_2">
      <path clip-path="url(#p380afff1c7)" d="M 248.361255 298.989375 
L 248.361255 21.789375 
" style="fill:none;stroke:#cccccc;stroke-linecap:round;stroke-width:0.8;"/>
     </g>
     <g id="text_2">
      <!-- $\mathdefault{10^{2}}$ -->
      <g style="fill:#262626;" transform="translate(240.511255 316.301875)scale(0.1 -0.1)">
       <defs>
        <path d="M 3222 541 
L 3222 0 
L 194 0 
Q 188 203 259 391 
Q 375 700 629 1000 
Q 884 1300 1366 1694 
Q 2113 2306 2375 2664 
Q 2638 3022 2638 3341 
Q 2638 3675 2398 3904 
Q 2159 4134 1775 4134 
Q 1369 4134 1125 3890 
Q 881 3647 878 3216 
L 300 3275 
Q 359 3922 746 4261 
Q 1134 4600 1788 4600 
Q 2447 4600 2831 4234 
Q 3216 3869 3216 3328 
Q 3216 3053 3103 2787 
Q 2991 2522 2730 2228 
Q 2469 1934 1863 1422 
Q 1356 997 1212 845 
Q 1069 694 975 541 
L 3222 541 
z
" id="ArialMT-32" transform="scale(0.015625)"/>
       </defs>
       <use transform="translate(0 0.99375)" xlink:href="#ArialMT-31"/>
       <use transform="translate(55.615234 0.99375)" xlink:href="#ArialMT-30"/>
       <use transform="translate(112.972813 70.6875)scale(0.7)" xlink:href="#ArialMT-32"/>
      </g>
     </g>
    </g>
    <g id="xtick_3">
     <g id="line2d_3">
      <path clip-path="url(#p380afff1c7)" d="M 382.424476 298.989375 
L 382.424476 21.789375 
" style="fill:none;stroke:#cccccc;stroke-linecap:round;stroke-width:0.8;"/>
     </g>
     <g id="text_3">
      <!-- $\mathdefault{10^{3}}$ -->
      <g style="fill:#262626;" transform="translate(374.574476 316.301875)scale(0.1 -0.1)">
       <defs>
        <path d="M 269 1209 
L 831 1284 
Q 928 806 1161 595 
Q 1394 384 1728 384 
Q 2125 384 2398 659 
Q 2672 934 2672 1341 
Q 2672 1728 2419 1979 
Q 2166 2231 1775 2231 
Q 1616 2231 1378 2169 
L 1441 2663 
Q 1497 2656 1531 2656 
Q 1891 2656 2178 2843 
Q 2466 3031 2466 3422 
Q 2466 3731 2256 3934 
Q 2047 4138 1716 4138 
Q 1388 4138 1169 3931 
Q 950 3725 888 3313 
L 325 3413 
Q 428 3978 793 4289 
Q 1159 4600 1703 4600 
Q 2078 4600 2393 4439 
Q 2709 4278 2876 4000 
Q 3044 3722 3044 3409 
Q 3044 3113 2884 2869 
Q 2725 2625 2413 2481 
Q 2819 2388 3044 2092 
Q 3269 1797 3269 1353 
Q 3269 753 2831 336 
Q 2394 -81 1725 -81 
Q 1122 -81 723 278 
Q 325 638 269 1209 
z
" id="ArialMT-33" transform="scale(0.015625)"/>
       </defs>
       <use transform="translate(0 0.99375)" xlink:href="#ArialMT-31"/>
       <use transform="translate(55.615234 0.99375)" xlink:href="#ArialMT-30"/>
       <use transform="translate(112.972813 70.6875)scale(0.7)" xlink:href="#ArialMT-33"/>
      </g>
     </g>
    </g>
    <g id="xtick_4">
     <g id="line2d_4">
      <path clip-path="url(#p380afff1c7)" d="M 516.487698 298.989375 
L 516.487698 21.789375 
" style="fill:none;stroke:#cccccc;stroke-linecap:round;stroke-width:0.8;"/>
     </g>
     <g id="text_4">
      <!-- $\mathdefault{10^{4}}$ -->
      <g style="fill:#262626;" transform="translate(508.637698 316.201875)scale(0.1 -0.1)">
       <defs>
        <path d="M 2069 0 
L 2069 1097 
L 81 1097 
L 81 1613 
L 2172 4581 
L 2631 4581 
L 2631 1613 
L 3250 1613 
L 3250 1097 
L 2631 1097 
L 2631 0 
L 2069 0 
z
M 2069 1613 
L 2069 3678 
L 634 1613 
L 2069 1613 
z
" id="ArialMT-34" transform="scale(0.015625)"/>
       </defs>
       <use transform="translate(0 0.201563)" xlink:href="#ArialMT-31"/>
       <use transform="translate(55.615234 0.201563)" xlink:href="#ArialMT-30"/>
       <use transform="translate(112.972813 69.895313)scale(0.7)" xlink:href="#ArialMT-34"/>
      </g>
     </g>
    </g>
    <g id="xtick_5"/>
    <g id="xtick_6"/>
    <g id="xtick_7"/>
    <g id="xtick_8"/>
    <g id="xtick_9"/>
    <g id="xtick_10"/>
    <g id="xtick_11"/>
    <g id="xtick_12"/>
    <g id="xtick_13"/>
    <g id="xtick_14"/>
    <g id="xtick_15"/>
    <g id="xtick_16"/>
    <g id="xtick_17"/>
    <g id="xtick_18"/>
    <g id="xtick_19"/>
    <g id="xtick_20"/>
    <g id="xtick_21"/>
    <g id="xtick_22"/>
    <g id="xtick_23"/>
    <g id="xtick_24"/>
    <g id="xtick_25"/>
    <g id="xtick_26"/>
    <g id="xtick_27"/>
    <g id="xtick_28"/>
    <g id="xtick_29"/>
    <g id="xtick_30"/>
    <g id="xtick_31"/>
    <g id="xtick_32"/>
    <g id="xtick_33"/>
    <g id="xtick_34"/>
    <g id="xtick_35"/>
    <g id="xtick_36"/>
    <g id="xtick_37"/>
    <g id="xtick_38"/>
    <g id="xtick_39"/>
   </g>
   <g id="matplotlib.axis_2">
    <g id="ytick_1">
     <g id="line2d_5">
      <path clip-path="url(#p380afff1c7)" d="M 82.8 281.48672 
L 640.8 281.48672 
" style="fill:none;stroke:#cccccc;stroke-linecap:round;stroke-width:0.8;"/>
     </g>
     <g id="text_5">
      <!-- $\mathdefault{10^{1}}$ -->
      <g style="fill:#262626;" transform="translate(60.1 286.64297)scale(0.1 -0.1)">
       <use transform="translate(0 0.99375)" xlink:href="#ArialMT-31"/>
       <use transform="translate(55.615234 0.99375)" xlink:href="#ArialMT-30"/>
       <use transform="translate(112.972813 70.6875)scale(0.7)" xlink:href="#ArialMT-31"/>
      </g>
     </g>
    </g>
    <g id="ytick_2">
     <g id="line2d_6">
      <path clip-path="url(#p380afff1c7)" d="M 82.8 174.342405 
L 640.8 174.342405 
" style="fill:none;stroke:#cccccc;stroke-linecap:round;stroke-width:0.8;"/>
     </g>
     <g id="text_6">
      <!-- $\mathdefault{10^{2}}$ -->
      <g style="fill:#262626;" transform="translate(60.1 179.498655)scale(0.1 -0.1)">
       <use transform="translate(0 0.99375)" xlink:href="#ArialMT-31"/>
       <use transform="translate(55.615234 0.99375)" xlink:href="#ArialMT-30"/>
       <use transform="translate(112.972813 70.6875)scale(0.7)" xlink:href="#ArialMT-32"/>
      </g>
     </g>
    </g>
    <g id="ytick_3">
     <g id="line2d_7">
      <path clip-path="url(#p380afff1c7)" d="M 82.8 67.19809 
L 640.8 67.19809 
" style="fill:none;stroke:#cccccc;stroke-linecap:round;stroke-width:0.8;"/>
     </g>
     <g id="text_7">
      <!-- $\mathdefault{10^{3}}$ -->
      <g style="fill:#262626;" transform="translate(60.1 72.35434)scale(0.1 -0.1)">
       <use transform="translate(0 0.99375)" xlink:href="#ArialMT-31"/>
       <use transform="translate(55.615234 0.99375)" xlink:href="#ArialMT-30"/>
       <use transform="translate(112.972813 70.6875)scale(0.7)" xlink:href="#ArialMT-33"/>
      </g>
     </g>
    </g>
    <g id="ytick_4"/>
    <g id="ytick_5"/>
    <g id="ytick_6"/>
    <g id="ytick_7"/>
    <g id="ytick_8"/>
    <g id="ytick_9"/>
    <g id="ytick_10"/>
    <g id="ytick_11"/>
    <g id="ytick_12"/>
    <g id="ytick_13"/>
    <g id="ytick_14"/>
    <g id="ytick_15"/>
    <g id="ytick_16"/>
    <g id="ytick_17"/>
    <g id="ytick_18"/>
    <g id="ytick_19"/>
    <g id="ytick_20"/>
    <g id="ytick_21"/>
    <g id="ytick_22"/>
    <g id="ytick_23"/>
   </g>
   <g id="line2d_8">
    <path clip-path="url(#p380afff1c7)" d="M 108.163636 286.389375 
L 154.655084 249.233067 
L 178.262445 235.268545 
L 206.827943 212.544424 
L 224.168733 200.499026 
L 236.806862 190.939269 
L 245.984479 183.576761 
L 250.644799 181.904766 
L 250.644799 182.455449 
L 261.353323 176.729194 
L 268.36605 178.222334 
L 272.355481 181.904766 
L 278.91248 180.822573 
L 286.34153 176.241942 
L 287.244229 178.730887 
L 289.871272 174.342405 
L 300.056874 166.640657 
L 306.191271 162.493346 
L 310.35182 159.019182 
L 312.131267 162.134023 
L 315.901057 163.220427 
L 318.401812 159.355156 
L 319.954515 159.355156 
L 322.779005 167.436098 
L 323.424141 177.719278 
L 327.899096 173.420946 
L 333.690873 160.723849 
L 341.482265 148.037118 
L 341.482265 151.894062 
L 342.067425 153.057428 
L 345.569762 149.106871 
L 350.6084 138.507587 
L 353.069583 139.377373 
L 355.059494 143.988289 
L 357.878015 152.182188 
L 358.758863 149.378196 
L 359.884397 147.25064 
L 362.973649 145.716473 
L 370.370925 134.783025 
L 377.379588 121.247647 
L 381.307597 115.257673 
L 391.962443 98.348161 
L 393.858806 96.043239 
L 396.065017 95.186268 
L 397.700089 100.677586 
L 401.261437 102.828616 
L 403.776234 103.129796 
L 406.611175 110.420418 
L 408.278048 112.099597 
L 410.116045 110.775176 
L 415.767171 98.621612 
L 419.88694 90.735841 
L 421.783228 92.225626 
L 424.981036 88.403101 
L 429.897394 80.895819 
L 432.566097 77.176061 
L 440.254492 63.145383 
L 447.236623 61.060259 
L 449.598095 58.55942 
L 451.228081 59.37819 
L 454.374152 59.456924 
L 455.662656 60.613806 
L 457.647535 70.077288 
L 460.549144 70.375254 
L 463.746732 67.291248 
L 466.695713 63.530834 
L 469.306443 59.221119 
L 472.40407 59.812888 
L 472.441301 64.795018 
L 473.668901 68.759561 
L 476.374671 68.185672 
L 478.279675 70.27572 
L 482.049219 63.273512 
L 484.207209 61.676045 
L 487.132804 53.233568 
L 490.083572 43.586737 
L 491.343524 42.506798 
L 492.95307 43.783253 
L 494.91703 42.070896 
L 496.555113 46.327261 
L 498.028574 47.136536 
L 499.691411 49.780238 
L 501.338292 53.061545 
L 504.405494 57.868905 
L 505.512643 59.456924 
L 507.203193 57.076046 
L 507.956306 60.978767 
L 508.245454 68.567477 
L 509.755071 62.932616 
L 510.35977 64.927777 
L 511.201036 66.919731 
L 512.105696 67.524961 
L 513.415387 69.097627 
L 515.11505 61.511037 
L 517.210973 50.069159 
L 521.675894 34.389375 
L 522.052811 34.897929 
L 522.322057 36.795528 
L 522.846402 37.848393 
L 524.315389 36.050997 
L 524.721161 41.104796 
L 524.721161 51.741154 
L 525.479433 81.335101 
L 527.605415 64.927777 
L 529.372538 54.173644 
L 530.325971 57.038625 
L 531.096663 53.823249 
L 532.182792 46.0606 
L 533.835457 39.821248 
L 534.531459 40.629164 
L 534.8891 44.951248 
L 535.408857 52.787624 
L 536.098883 54.208829 
L 536.903964 53.302555 
L 537.239214 59.181934 
L 537.596859 72.152476 
L 537.899947 76.888647 
L 538.333639 75.533245 
L 538.61302 78.580913 
L 539.21904 79.299571 
L 540.009603 78.879007 
L 540.489635 76.432446 
L 540.735854 77.814692 
L 541.122312 76.319091 
L 541.944046 70.524955 
L 542.821055 62.932616 
L 543.787143 58.482189 
L 544.912816 54.4205 
L 545.728922 52.958635 
L 546.568489 48.42407 
L 547.921054 43.223965 
L 548.347053 46.356984 
L 548.662843 51.674441 
L 548.940263 60.011829 
L 548.97693 65.913096 
L 549.276073 65.462636 
L 549.60666 72.204265 
L 550.046725 88.110445 
L 550.480241 87.602684 
L 550.73299 88.771529 
L 550.775009 95.186268 
L 551.045783 95.698554 
L 551.244836 99.080966 
L 551.564462 102.330941 
L 551.583584 116.988683 
L 551.831599 116.988683 
L 552.034312 110.53837 
L 552.359078 115.915848 
L 552.406223 128.818753 
L 552.660151 117.260802 
L 552.875589 128.470196 
L 552.878705 150.759075 
L 553.155403 133.604932 
L 553.501748 141.625742 
L 553.501748 141.625742 
L 553.931802 117.260802 
L 554.130395 120.656754 
L 554.755345 108.572744 
L 554.776464 107.786898 
L 554.776464 114.996988 
L 555.173276 108.686099 
L 555.385599 108.010074 
L 555.564426 111.855972 
L 555.614994 118.225949 
L 555.754571 118.225949 
L 555.754571 119.211539 
L 555.816827 116.315268 
L 556.065188 123.221575 
L 556.312495 121.247647 
L 556.418163 124.959821 
L 556.55583 120.364097 
L 556.73402 118.365476 
L 556.862213 115.257673 
L 557.033667 118.645791 
L 557.429851 111.734636 
L 557.943463 97.004501 
L 558.500706 85.418335 
L 558.520509 92.706169 
L 559.201026 79.90705 
L 559.466013 82.548775 
L 559.727028 88.403101 
L 559.94825 97.806032 
L 560.069565 94.012421 
L 560.069565 94.012421 
L 561.014834 72.049071 
L 561.409146 77.291526 
L 561.62408 78.166765 
L 561.939667 76.774177 
L 562.505032 71.945896 
L 562.505032 71.945896 
L 562.755431 87.100404 
L 563.127715 87.386757 
L 563.611781 80.337053 
L 564.032706 77.639649 
L 564.266384 80.337053 
L 564.274071 85.143808 
L 564.281758 84.93897 
L 564.94158 97.716288 
L 565.171645 104.665651 
L 565.571459 98.076307 
L 565.829 90.046463 
L 566.115206 85.833186 
L 566.362942 85.556208 
L 566.992385 81.651432 
L 567.341049 82.678391 
L 567.418786 86.251769 
L 567.537621 84.12852 
L 567.839676 90.581761 
L 568.202482 89.894645 
L 568.474898 89.894645 
L 568.840887 89.068386 
L 569.21636 83.595957 
L 569.76924 76.774177 
L 570.356172 71.280773 
L 570.953241 64.398997 
L 571.269949 65.060917 
L 571.392524 65.958383 
L 571.392524 69.978388 
L 571.539726 74.162133 
L 571.871263 71.179286 
L 572.901113 85.556208 
L 573.015894 82.097941 
L 573.315027 77.756271 
L 573.542743 80.337053 
L 573.893517 79.845944 
L 574.164407 81.272092 
L 574.715288 72.988094 
L 575.702771 55.025515 
L 576.356074 46.535725 
L 577.014481 41.397871 
L 577.279463 40.734441 
L 577.453406 42.781325 
L 577.657383 43.474813 
L 577.858618 48.083401 
L 578.158163 59.064576 
L 578.536457 64.180433 
L 578.944185 76.206011 
L 579.190632 79.784918 
L 579.355011 91.045541 
L 579.404432 105.825063 
L 579.560327 111.855972 
L 580.004015 101.254438 
L 580.107578 102.728654 
L 580.181717 102.430051 
L 580.671005 87.386757 
L 580.881374 85.280869 
L 580.973773 91.279176 
L 581.123609 92.706169 
L 581.435489 87.24336 
L 581.64502 89.142897 
L 582.090145 81.020905 
L 582.293577 81.083575 
L 582.914527 69.682945 
L 583.202177 66.781174 
L 583.56941 61.141894 
L 584.011071 56.076112 
L 584.520032 54.455872 
L 584.823286 52.379742 
L 585.175098 50.946844 
L 585.49099 51.012521 
L 585.962519 47.500782 
L 586.179272 49.876346 
L 586.510768 51.574551 
L 586.594658 60.011829 
L 586.788191 62.341991 
L 587.271817 58.986502 
L 587.494079 60.897417 
L 587.913881 67.151581 
L 588.031567 73.093609 
L 588.233975 69.48702 
L 588.332373 72.152476 
L 588.461058 84.061615 
L 588.665352 84.599566 
L 588.917618 91.51399 
L 589.071802 89.743321 
L 589.548523 82.162079 
L 589.684488 81.77857 
L 589.866383 82.484102 
L 590.016431 81.842269 
L 590.121729 82.162079 
L 590.210426 84.667249 
L 590.27768 105.189078 
L 590.840539 91.357315 
L 590.984862 91.51399 
L 591.209552 89.894645 
L 591.212779 91.671193 
L 591.293387 89.068386 
L 591.656348 116.718147 
L 591.736344 119.069455 
L 591.800262 113.96861 
L 591.857728 115.783466 
L 591.926294 116.181747 
L 591.997963 120.803775 
L 592.093384 116.853218 
L 592.185477 118.505422 
L 592.528742 107.233595 
L 592.605975 106.578202 
L 592.973392 125.936057 
L 593.054727 125.445379 
L 593.366497 114.223582 
L 593.548111 103.738068 
L 593.61162 104.665651 
L 593.897326 95.612781 
L 593.980458 101.545569 
L 594.138695 99.451743 
L 594.466092 105.825063 
L 594.577354 104.979 
L 594.732461 100.202278 
L 595.760558 67.71278 
L 595.963124 63.102752 
L 596.111622 63.017606 
L 596.490059 58.212882 
L 596.813324 51.707786 
L 597.293429 65.328344 
L 597.555881 63.359128 
L 598.13029 56.740341 
L 598.289086 57.188488 
L 598.820962 51.741154 
L 599.031513 50.848502 
L 599.225843 59.852609 
L 599.52452 67.901361 
L 599.788266 84.531981 
L 599.962047 86.181744 
L 600.138079 81.335101 
L 600.219677 82.938712 
L 600.831463 71.382483 
L 601.202267 82.678391 
L 601.374595 119.928536 
L 601.488296 129.346534 
L 602.46983 87.315003 
L 602.667612 84.262619 
L 602.968964 85.902689 
L 603.172944 81.77857 
L 603.271387 90.428189 
L 603.478233 83.331944 
L 603.692158 85.212288 
L 604.159013 104.561668 
L 604.379464 96.652649 
L 604.429626 100.202278 
L 604.524686 99.080966 
L 604.704105 101.936598 
L 604.788497 100.391819 
L 604.854902 113.337228 
L 604.944174 109.603019 
L 605.035853 109.8351 
L 605.141361 104.665651 
L 605.19214 104.769866 
L 605.270759 104.874316 
L 605.54005 102.330941 
L 605.639612 101.643018 
L 605.723917 107.454128 
L 606.17108 92.465277 
L 606.298212 97.092881 
L 606.518168 88.256543 
L 606.581391 94.679561 
L 606.690321 94.428261 
L 606.844701 105.294474 
L 606.961757 114.867191 
L 607.193938 108.79973 
L 607.268678 106.904745 
L 607.42764 97.270147 
L 607.461822 99.173384 
L 607.644595 94.344795 
L 607.715114 97.986041 
L 607.834072 97.18143 
L 607.903151 97.537318 
L 607.974567 104.354398 
L 608.11593 95.956828 
L 608.195522 96.652649 
L 608.284633 102.232041 
L 608.371204 104.874316 
L 608.599041 97.716288 
L 608.740092 103.942606 
L 608.774704 103.534426 
L 608.965303 99.731777 
L 609.074615 109.951576 
L 609.385977 98.076307 
L 609.435547 102.03487 
L 609.623997 100.391819 
L 609.680414 98.257366 
L 609.795428 107.014104 
L 610.023609 108.122065 
L 610.125125 106.686795 
L 610.153098 109.372089 
L 610.2253 108.346859 
L 610.310198 105.294474 
L 610.448328 126.76553 
L 610.529428 119.64041 
L 610.571093 123.532828 
L 610.616196 129.169941 
L 610.656643 124.638909 
L 610.725916 118.645791 
L 610.728224 126.431964 
L 610.798565 122.758564 
L 610.853855 126.266074 
L 611.044663 113.211973 
L 611.06761 115.127148 
L 611.114623 117.671988 
L 611.192511 109.372089 
L 611.237136 111.977625 
L 611.288583 112.344503 
L 611.362816 115.127148 
L 611.422134 121.695793 
L 611.479113 120.364097 
L 611.549691 121.247647 
L 611.595179 141.167293 
L 611.636088 140.263727 
L 611.687185 134.982307 
L 611.73937 135.788079 
L 611.81303 135.182445 
L 612.084203 106.253934 
L 612.115758 107.12372 
L 612.148421 108.91364 
L 612.229438 106.039005 
L 612.400104 117.534522 
L 612.477413 116.048607 
L 612.598212 109.718914 
L 612.755546 115.915848 
L 612.951339 107.014104 
L 613.057859 105.189078 
L 613.067835 107.343731 
L 613.134299 107.233595 
L 613.275837 102.430051 
L 613.46659 113.462821 
L 613.59634 107.67571 
L 613.692916 112.344503 
L 613.811222 111.013193 
L 614.008956 112.590706 
L 614.137505 109.02783 
L 614.173405 111.734636 
L 614.254912 109.02783 
L 614.29291 112.714297 
L 614.354739 112.590706 
L 614.426249 111.734636 
L 614.511728 116.718147 
L 614.559283 115.257673 
L 614.759881 106.253934 
L 614.785714 109.951576 
L 614.858846 113.96861 
L 614.911487 113.337228 
L 614.964081 112.714297 
L 615.124788 117.397461 
L 615.436364 105.189078 
L 615.436364 105.189078 
" style="fill:none;stroke:#1f77b4;stroke-linecap:round;stroke-width:1.5;"/>
   </g>
   <g id="patch_3">
    <path d="M 82.8 298.989375 
L 82.8 21.789375 
" style="fill:none;stroke:#cccccc;stroke-linecap:square;stroke-linejoin:miter;stroke-width:0.8;"/>
   </g>
   <g id="patch_4">
    <path d="M 640.8 298.989375 
L 640.8 21.789375 
" style="fill:none;stroke:#cccccc;stroke-linecap:square;stroke-linejoin:miter;stroke-width:0.8;"/>
   </g>
   <g id="patch_5">
    <path d="M 82.8 298.989375 
L 640.8 298.989375 
" style="fill:none;stroke:#cccccc;stroke-linecap:square;stroke-linejoin:miter;stroke-width:0.8;"/>
   </g>
   <g id="patch_6">
    <path d="M 82.8 21.789375 
L 640.8 21.789375 
" style="fill:none;stroke:#cccccc;stroke-linecap:square;stroke-linejoin:miter;stroke-width:0.8;"/>
   </g>
   <g id="text_8">
    <!-- Novos Casos na semana X Casos Totais -->
    <g style="fill:#262626;" transform="translate(253.195312 15.789375)scale(0.12 -0.12)">
     <defs>
      <path d="M 488 0 
L 488 4581 
L 1109 4581 
L 3516 984 
L 3516 4581 
L 4097 4581 
L 4097 0 
L 3475 0 
L 1069 3600 
L 1069 0 
L 488 0 
z
" id="ArialMT-4e" transform="scale(0.015625)"/>
      <path d="M 213 1659 
Q 213 2581 725 3025 
Q 1153 3394 1769 3394 
Q 2453 3394 2887 2945 
Q 3322 2497 3322 1706 
Q 3322 1066 3130 698 
Q 2938 331 2570 128 
Q 2203 -75 1769 -75 
Q 1072 -75 642 372 
Q 213 819 213 1659 
z
M 791 1659 
Q 791 1022 1069 705 
Q 1347 388 1769 388 
Q 2188 388 2466 706 
Q 2744 1025 2744 1678 
Q 2744 2294 2464 2611 
Q 2184 2928 1769 2928 
Q 1347 2928 1069 2612 
Q 791 2297 791 1659 
z
" id="ArialMT-6f" transform="scale(0.015625)"/>
      <path d="M 1344 0 
L 81 3319 
L 675 3319 
L 1388 1331 
Q 1503 1009 1600 663 
Q 1675 925 1809 1294 
L 2547 3319 
L 3125 3319 
L 1869 0 
L 1344 0 
z
" id="ArialMT-76" transform="scale(0.015625)"/>
      <path d="M 197 991 
L 753 1078 
Q 800 744 1014 566 
Q 1228 388 1613 388 
Q 2000 388 2187 545 
Q 2375 703 2375 916 
Q 2375 1106 2209 1216 
Q 2094 1291 1634 1406 
Q 1016 1563 777 1677 
Q 538 1791 414 1992 
Q 291 2194 291 2438 
Q 291 2659 392 2848 
Q 494 3038 669 3163 
Q 800 3259 1026 3326 
Q 1253 3394 1513 3394 
Q 1903 3394 2198 3281 
Q 2494 3169 2634 2976 
Q 2775 2784 2828 2463 
L 2278 2388 
Q 2241 2644 2061 2787 
Q 1881 2931 1553 2931 
Q 1166 2931 1000 2803 
Q 834 2675 834 2503 
Q 834 2394 903 2306 
Q 972 2216 1119 2156 
Q 1203 2125 1616 2013 
Q 2213 1853 2448 1751 
Q 2684 1650 2818 1456 
Q 2953 1263 2953 975 
Q 2953 694 2789 445 
Q 2625 197 2315 61 
Q 2006 -75 1616 -75 
Q 969 -75 630 194 
Q 291 463 197 991 
z
" id="ArialMT-73" transform="scale(0.015625)"/>
      <path id="ArialMT-20" transform="scale(0.015625)"/>
      <path d="M 3763 1606 
L 4369 1453 
Q 4178 706 3683 314 
Q 3188 -78 2472 -78 
Q 1731 -78 1267 223 
Q 803 525 561 1097 
Q 319 1669 319 2325 
Q 319 3041 592 3573 
Q 866 4106 1370 4382 
Q 1875 4659 2481 4659 
Q 3169 4659 3637 4309 
Q 4106 3959 4291 3325 
L 3694 3184 
Q 3534 3684 3231 3912 
Q 2928 4141 2469 4141 
Q 1941 4141 1586 3887 
Q 1231 3634 1087 3207 
Q 944 2781 944 2328 
Q 944 1744 1114 1308 
Q 1284 872 1643 656 
Q 2003 441 2422 441 
Q 2931 441 3284 734 
Q 3638 1028 3763 1606 
z
" id="ArialMT-43" transform="scale(0.015625)"/>
      <path d="M 2588 409 
Q 2275 144 1986 34 
Q 1697 -75 1366 -75 
Q 819 -75 525 192 
Q 231 459 231 875 
Q 231 1119 342 1320 
Q 453 1522 633 1644 
Q 813 1766 1038 1828 
Q 1203 1872 1538 1913 
Q 2219 1994 2541 2106 
Q 2544 2222 2544 2253 
Q 2544 2597 2384 2738 
Q 2169 2928 1744 2928 
Q 1347 2928 1158 2789 
Q 969 2650 878 2297 
L 328 2372 
Q 403 2725 575 2942 
Q 747 3159 1072 3276 
Q 1397 3394 1825 3394 
Q 2250 3394 2515 3294 
Q 2781 3194 2906 3042 
Q 3031 2891 3081 2659 
Q 3109 2516 3109 2141 
L 3109 1391 
Q 3109 606 3145 398 
Q 3181 191 3288 0 
L 2700 0 
Q 2613 175 2588 409 
z
M 2541 1666 
Q 2234 1541 1622 1453 
Q 1275 1403 1131 1340 
Q 988 1278 909 1158 
Q 831 1038 831 891 
Q 831 666 1001 516 
Q 1172 366 1500 366 
Q 1825 366 2078 508 
Q 2331 650 2450 897 
Q 2541 1088 2541 1459 
L 2541 1666 
z
" id="ArialMT-61" transform="scale(0.015625)"/>
      <path d="M 422 0 
L 422 3319 
L 928 3319 
L 928 2847 
Q 1294 3394 1984 3394 
Q 2284 3394 2536 3286 
Q 2788 3178 2913 3003 
Q 3038 2828 3088 2588 
Q 3119 2431 3119 2041 
L 3119 0 
L 2556 0 
L 2556 2019 
Q 2556 2363 2490 2533 
Q 2425 2703 2258 2804 
Q 2091 2906 1866 2906 
Q 1506 2906 1245 2678 
Q 984 2450 984 1813 
L 984 0 
L 422 0 
z
" id="ArialMT-6e" transform="scale(0.015625)"/>
      <path d="M 2694 1069 
L 3275 997 
Q 3138 488 2766 206 
Q 2394 -75 1816 -75 
Q 1088 -75 661 373 
Q 234 822 234 1631 
Q 234 2469 665 2931 
Q 1097 3394 1784 3394 
Q 2450 3394 2872 2941 
Q 3294 2488 3294 1666 
Q 3294 1616 3291 1516 
L 816 1516 
Q 847 969 1125 678 
Q 1403 388 1819 388 
Q 2128 388 2347 550 
Q 2566 713 2694 1069 
z
M 847 1978 
L 2700 1978 
Q 2663 2397 2488 2606 
Q 2219 2931 1791 2931 
Q 1403 2931 1139 2672 
Q 875 2413 847 1978 
z
" id="ArialMT-65" transform="scale(0.015625)"/>
      <path d="M 422 0 
L 422 3319 
L 925 3319 
L 925 2853 
Q 1081 3097 1340 3245 
Q 1600 3394 1931 3394 
Q 2300 3394 2536 3241 
Q 2772 3088 2869 2813 
Q 3263 3394 3894 3394 
Q 4388 3394 4653 3120 
Q 4919 2847 4919 2278 
L 4919 0 
L 4359 0 
L 4359 2091 
Q 4359 2428 4304 2576 
Q 4250 2725 4106 2815 
Q 3963 2906 3769 2906 
Q 3419 2906 3187 2673 
Q 2956 2441 2956 1928 
L 2956 0 
L 2394 0 
L 2394 2156 
Q 2394 2531 2256 2718 
Q 2119 2906 1806 2906 
Q 1569 2906 1367 2781 
Q 1166 2656 1075 2415 
Q 984 2175 984 1722 
L 984 0 
L 422 0 
z
" id="ArialMT-6d" transform="scale(0.015625)"/>
      <path d="M 28 0 
L 1800 2388 
L 238 4581 
L 959 4581 
L 1791 3406 
Q 2050 3041 2159 2844 
Q 2313 3094 2522 3366 
L 3444 4581 
L 4103 4581 
L 2494 2422 
L 4228 0 
L 3478 0 
L 2325 1634 
Q 2228 1775 2125 1941 
Q 1972 1691 1906 1597 
L 756 0 
L 28 0 
z
" id="ArialMT-58" transform="scale(0.015625)"/>
      <path d="M 1659 0 
L 1659 4041 
L 150 4041 
L 150 4581 
L 3781 4581 
L 3781 4041 
L 2266 4041 
L 2266 0 
L 1659 0 
z
" id="ArialMT-54" transform="scale(0.015625)"/>
      <path d="M 1650 503 
L 1731 6 
Q 1494 -44 1306 -44 
Q 1000 -44 831 53 
Q 663 150 594 308 
Q 525 466 525 972 
L 525 2881 
L 113 2881 
L 113 3319 
L 525 3319 
L 525 4141 
L 1084 4478 
L 1084 3319 
L 1650 3319 
L 1650 2881 
L 1084 2881 
L 1084 941 
Q 1084 700 1114 631 
Q 1144 563 1211 522 
Q 1278 481 1403 481 
Q 1497 481 1650 503 
z
" id="ArialMT-74" transform="scale(0.015625)"/>
      <path d="M 425 3934 
L 425 4581 
L 988 4581 
L 988 3934 
L 425 3934 
z
M 425 0 
L 425 3319 
L 988 3319 
L 988 0 
L 425 0 
z
" id="ArialMT-69" transform="scale(0.015625)"/>
     </defs>
     <use xlink:href="#ArialMT-4e"/>
     <use x="72.216797" xlink:href="#ArialMT-6f"/>
     <use x="127.832031" xlink:href="#ArialMT-76"/>
     <use x="177.832031" xlink:href="#ArialMT-6f"/>
     <use x="233.447266" xlink:href="#ArialMT-73"/>
     <use x="283.447266" xlink:href="#ArialMT-20"/>
     <use x="311.230469" xlink:href="#ArialMT-43"/>
     <use x="383.447266" xlink:href="#ArialMT-61"/>
     <use x="439.0625" xlink:href="#ArialMT-73"/>
     <use x="489.0625" xlink:href="#ArialMT-6f"/>
     <use x="544.677734" xlink:href="#ArialMT-73"/>
     <use x="594.677734" xlink:href="#ArialMT-20"/>
     <use x="622.460938" xlink:href="#ArialMT-6e"/>
     <use x="678.076172" xlink:href="#ArialMT-61"/>
     <use x="733.691406" xlink:href="#ArialMT-20"/>
     <use x="761.474609" xlink:href="#ArialMT-73"/>
     <use x="811.474609" xlink:href="#ArialMT-65"/>
     <use x="867.089844" xlink:href="#ArialMT-6d"/>
     <use x="950.390625" xlink:href="#ArialMT-61"/>
     <use x="1006.005859" xlink:href="#ArialMT-6e"/>
     <use x="1061.621094" xlink:href="#ArialMT-61"/>
     <use x="1117.236328" xlink:href="#ArialMT-20"/>
     <use x="1145.019531" xlink:href="#ArialMT-58"/>
     <use x="1211.71875" xlink:href="#ArialMT-20"/>
     <use x="1239.501953" xlink:href="#ArialMT-43"/>
     <use x="1311.71875" xlink:href="#ArialMT-61"/>
     <use x="1367.333984" xlink:href="#ArialMT-73"/>
     <use x="1417.333984" xlink:href="#ArialMT-6f"/>
     <use x="1472.949219" xlink:href="#ArialMT-73"/>
     <use x="1522.949219" xlink:href="#ArialMT-20"/>
     <use x="1548.982422" xlink:href="#ArialMT-54"/>
     <use x="1598.941406" xlink:href="#ArialMT-6f"/>
     <use x="1654.556641" xlink:href="#ArialMT-74"/>
     <use x="1682.339844" xlink:href="#ArialMT-61"/>
     <use x="1737.955078" xlink:href="#ArialMT-69"/>
     <use x="1760.171875" xlink:href="#ArialMT-73"/>
    </g>
   </g>
  </g>
  <g id="text_9">
   <!-- Atualizado em 29/11/2021 -->
   <g style="fill:#262626;" transform="translate(7.2 331.389375)scale(0.08 -0.08)">
    <defs>
     <path d="M -9 0 
L 1750 4581 
L 2403 4581 
L 4278 0 
L 3588 0 
L 3053 1388 
L 1138 1388 
L 634 0 
L -9 0 
z
M 1313 1881 
L 2866 1881 
L 2388 3150 
Q 2169 3728 2063 4100 
Q 1975 3659 1816 3225 
L 1313 1881 
z
" id="ArialMT-41" transform="scale(0.015625)"/>
     <path d="M 2597 0 
L 2597 488 
Q 2209 -75 1544 -75 
Q 1250 -75 995 37 
Q 741 150 617 320 
Q 494 491 444 738 
Q 409 903 409 1263 
L 409 3319 
L 972 3319 
L 972 1478 
Q 972 1038 1006 884 
Q 1059 663 1231 536 
Q 1403 409 1656 409 
Q 1909 409 2131 539 
Q 2353 669 2445 892 
Q 2538 1116 2538 1541 
L 2538 3319 
L 3100 3319 
L 3100 0 
L 2597 0 
z
" id="ArialMT-75" transform="scale(0.015625)"/>
     <path d="M 409 0 
L 409 4581 
L 972 4581 
L 972 0 
L 409 0 
z
" id="ArialMT-6c" transform="scale(0.015625)"/>
     <path d="M 125 0 
L 125 456 
L 2238 2881 
Q 1878 2863 1603 2863 
L 250 2863 
L 250 3319 
L 2963 3319 
L 2963 2947 
L 1166 841 
L 819 456 
Q 1197 484 1528 484 
L 3063 484 
L 3063 0 
L 125 0 
z
" id="ArialMT-7a" transform="scale(0.015625)"/>
     <path d="M 2575 0 
L 2575 419 
Q 2259 -75 1647 -75 
Q 1250 -75 917 144 
Q 584 363 401 755 
Q 219 1147 219 1656 
Q 219 2153 384 2558 
Q 550 2963 881 3178 
Q 1213 3394 1622 3394 
Q 1922 3394 2156 3267 
Q 2391 3141 2538 2938 
L 2538 4581 
L 3097 4581 
L 3097 0 
L 2575 0 
z
M 797 1656 
Q 797 1019 1065 703 
Q 1334 388 1700 388 
Q 2069 388 2326 689 
Q 2584 991 2584 1609 
Q 2584 2291 2321 2609 
Q 2059 2928 1675 2928 
Q 1300 2928 1048 2622 
Q 797 2316 797 1656 
z
" id="ArialMT-64" transform="scale(0.015625)"/>
     <path d="M 350 1059 
L 891 1109 
Q 959 728 1153 556 
Q 1347 384 1650 384 
Q 1909 384 2104 503 
Q 2300 622 2425 820 
Q 2550 1019 2634 1356 
Q 2719 1694 2719 2044 
Q 2719 2081 2716 2156 
Q 2547 1888 2255 1720 
Q 1963 1553 1622 1553 
Q 1053 1553 659 1965 
Q 266 2378 266 3053 
Q 266 3750 677 4175 
Q 1088 4600 1706 4600 
Q 2153 4600 2523 4359 
Q 2894 4119 3086 3673 
Q 3278 3228 3278 2384 
Q 3278 1506 3087 986 
Q 2897 466 2520 194 
Q 2144 -78 1638 -78 
Q 1100 -78 759 220 
Q 419 519 350 1059 
z
M 2653 3081 
Q 2653 3566 2395 3850 
Q 2138 4134 1775 4134 
Q 1400 4134 1122 3828 
Q 844 3522 844 3034 
Q 844 2597 1108 2323 
Q 1372 2050 1759 2050 
Q 2150 2050 2401 2323 
Q 2653 2597 2653 3081 
z
" id="ArialMT-39" transform="scale(0.015625)"/>
     <path d="M 0 -78 
L 1328 4659 
L 1778 4659 
L 453 -78 
L 0 -78 
z
" id="ArialMT-2f" transform="scale(0.015625)"/>
    </defs>
    <use xlink:href="#ArialMT-41"/>
    <use x="66.699219" xlink:href="#ArialMT-74"/>
    <use x="94.482422" xlink:href="#ArialMT-75"/>
    <use x="150.097656" xlink:href="#ArialMT-61"/>
    <use x="205.712891" xlink:href="#ArialMT-6c"/>
    <use x="227.929688" xlink:href="#ArialMT-69"/>
    <use x="250.146484" xlink:href="#ArialMT-7a"/>
    <use x="300.146484" xlink:href="#ArialMT-61"/>
    <use x="355.761719" xlink:href="#ArialMT-64"/>
    <use x="411.376953" xlink:href="#ArialMT-6f"/>
    <use x="466.992188" xlink:href="#ArialMT-20"/>
    <use x="494.775391" xlink:href="#ArialMT-65"/>
    <use x="550.390625" xlink:href="#ArialMT-6d"/>
    <use x="633.691406" xlink:href="#ArialMT-20"/>
    <use x="661.474609" xlink:href="#ArialMT-32"/>
    <use x="717.089844" xlink:href="#ArialMT-39"/>
    <use x="772.705078" xlink:href="#ArialMT-2f"/>
    <use x="800.488281" xlink:href="#ArialMT-31"/>
    <use x="848.728516" xlink:href="#ArialMT-31"/>
    <use x="904.34375" xlink:href="#ArialMT-2f"/>
    <use x="932.126953" xlink:href="#ArialMT-32"/>
    <use x="987.742188" xlink:href="#ArialMT-30"/>
    <use x="1043.357422" xlink:href="#ArialMT-32"/>
    <use x="1098.972656" xlink:href="#ArialMT-31"/>
   </g>
  </g>
  <g id="text_10">
   <!-- https://jmsvaz.github.io/covidsantos/ -->
   <g style="fill:#262626;" transform="translate(570.345 331.389375)scale(0.08 -0.08)">
    <defs>
     <path d="M 422 0 
L 422 4581 
L 984 4581 
L 984 2938 
Q 1378 3394 1978 3394 
Q 2347 3394 2619 3248 
Q 2891 3103 3008 2847 
Q 3125 2591 3125 2103 
L 3125 0 
L 2563 0 
L 2563 2103 
Q 2563 2525 2380 2717 
Q 2197 2909 1863 2909 
Q 1613 2909 1392 2779 
Q 1172 2650 1078 2428 
Q 984 2206 984 1816 
L 984 0 
L 422 0 
z
" id="ArialMT-68" transform="scale(0.015625)"/>
     <path d="M 422 -1272 
L 422 3319 
L 934 3319 
L 934 2888 
Q 1116 3141 1344 3267 
Q 1572 3394 1897 3394 
Q 2322 3394 2647 3175 
Q 2972 2956 3137 2557 
Q 3303 2159 3303 1684 
Q 3303 1175 3120 767 
Q 2938 359 2589 142 
Q 2241 -75 1856 -75 
Q 1575 -75 1351 44 
Q 1128 163 984 344 
L 984 -1272 
L 422 -1272 
z
M 931 1641 
Q 931 1000 1190 694 
Q 1450 388 1819 388 
Q 2194 388 2461 705 
Q 2728 1022 2728 1688 
Q 2728 2322 2467 2637 
Q 2206 2953 1844 2953 
Q 1484 2953 1207 2617 
Q 931 2281 931 1641 
z
" id="ArialMT-70" transform="scale(0.015625)"/>
     <path d="M 578 2678 
L 578 3319 
L 1219 3319 
L 1219 2678 
L 578 2678 
z
M 578 0 
L 578 641 
L 1219 641 
L 1219 0 
L 578 0 
z
" id="ArialMT-3a" transform="scale(0.015625)"/>
     <path d="M 419 3928 
L 419 4581 
L 981 4581 
L 981 3928 
L 419 3928 
z
M -294 -1288 
L -188 -809 
Q -19 -853 78 -853 
Q 250 -853 334 -739 
Q 419 -625 419 -169 
L 419 3319 
L 981 3319 
L 981 -181 
Q 981 -794 822 -1034 
Q 619 -1347 147 -1347 
Q -81 -1347 -294 -1288 
z
" id="ArialMT-6a" transform="scale(0.015625)"/>
     <path d="M 581 0 
L 581 641 
L 1222 641 
L 1222 0 
L 581 0 
z
" id="ArialMT-2e" transform="scale(0.015625)"/>
     <path d="M 319 -275 
L 866 -356 
Q 900 -609 1056 -725 
Q 1266 -881 1628 -881 
Q 2019 -881 2231 -725 
Q 2444 -569 2519 -288 
Q 2563 -116 2559 434 
Q 2191 0 1641 0 
Q 956 0 581 494 
Q 206 988 206 1678 
Q 206 2153 378 2554 
Q 550 2956 876 3175 
Q 1203 3394 1644 3394 
Q 2231 3394 2613 2919 
L 2613 3319 
L 3131 3319 
L 3131 450 
Q 3131 -325 2973 -648 
Q 2816 -972 2473 -1159 
Q 2131 -1347 1631 -1347 
Q 1038 -1347 672 -1080 
Q 306 -813 319 -275 
z
M 784 1719 
Q 784 1066 1043 766 
Q 1303 466 1694 466 
Q 2081 466 2343 764 
Q 2606 1063 2606 1700 
Q 2606 2309 2336 2618 
Q 2066 2928 1684 2928 
Q 1309 2928 1046 2623 
Q 784 2319 784 1719 
z
" id="ArialMT-67" transform="scale(0.015625)"/>
     <path d="M 941 0 
L 419 0 
L 419 4581 
L 981 4581 
L 981 2947 
Q 1338 3394 1891 3394 
Q 2197 3394 2470 3270 
Q 2744 3147 2920 2923 
Q 3097 2700 3197 2384 
Q 3297 2069 3297 1709 
Q 3297 856 2875 390 
Q 2453 -75 1863 -75 
Q 1275 -75 941 416 
L 941 0 
z
M 934 1684 
Q 934 1088 1097 822 
Q 1363 388 1816 388 
Q 2184 388 2453 708 
Q 2722 1028 2722 1663 
Q 2722 2313 2464 2622 
Q 2206 2931 1841 2931 
Q 1472 2931 1203 2611 
Q 934 2291 934 1684 
z
" id="ArialMT-62" transform="scale(0.015625)"/>
     <path d="M 2588 1216 
L 3141 1144 
Q 3050 572 2676 248 
Q 2303 -75 1759 -75 
Q 1078 -75 664 370 
Q 250 816 250 1647 
Q 250 2184 428 2587 
Q 606 2991 970 3192 
Q 1334 3394 1763 3394 
Q 2303 3394 2647 3120 
Q 2991 2847 3088 2344 
L 2541 2259 
Q 2463 2594 2264 2762 
Q 2066 2931 1784 2931 
Q 1359 2931 1093 2626 
Q 828 2322 828 1663 
Q 828 994 1084 691 
Q 1341 388 1753 388 
Q 2084 388 2306 591 
Q 2528 794 2588 1216 
z
" id="ArialMT-63" transform="scale(0.015625)"/>
    </defs>
    <use xlink:href="#ArialMT-68"/>
    <use x="55.615234" xlink:href="#ArialMT-74"/>
    <use x="83.398438" xlink:href="#ArialMT-74"/>
    <use x="111.181641" xlink:href="#ArialMT-70"/>
    <use x="166.796875" xlink:href="#ArialMT-73"/>
    <use x="216.796875" xlink:href="#ArialMT-3a"/>
    <use x="244.580078" xlink:href="#ArialMT-2f"/>
    <use x="272.363281" xlink:href="#ArialMT-2f"/>
    <use x="300.146484" xlink:href="#ArialMT-6a"/>
    <use x="322.363281" xlink:href="#ArialMT-6d"/>
    <use x="405.664062" xlink:href="#ArialMT-73"/>
    <use x="455.664062" xlink:href="#ArialMT-76"/>
    <use x="505.664062" xlink:href="#ArialMT-61"/>
    <use x="561.279297" xlink:href="#ArialMT-7a"/>
    <use x="611.279297" xlink:href="#ArialMT-2e"/>
    <use x="639.0625" xlink:href="#ArialMT-67"/>
    <use x="694.677734" xlink:href="#ArialMT-69"/>
    <use x="716.894531" xlink:href="#ArialMT-74"/>
    <use x="744.677734" xlink:href="#ArialMT-68"/>
    <use x="800.292969" xlink:href="#ArialMT-75"/>
    <use x="855.908203" xlink:href="#ArialMT-62"/>
    <use x="911.523438" xlink:href="#ArialMT-2e"/>
    <use x="939.306641" xlink:href="#ArialMT-69"/>
    <use x="961.523438" xlink:href="#ArialMT-6f"/>
    <use x="1017.138672" xlink:href="#ArialMT-2f"/>
    <use x="1044.921875" xlink:href="#ArialMT-63"/>
    <use x="1094.921875" xlink:href="#ArialMT-6f"/>
    <use x="1150.537109" xlink:href="#ArialMT-76"/>
    <use x="1200.537109" xlink:href="#ArialMT-69"/>
    <use x="1222.753906" xlink:href="#ArialMT-64"/>
    <use x="1278.369141" xlink:href="#ArialMT-73"/>
    <use x="1328.369141" xlink:href="#ArialMT-61"/>
    <use x="1383.984375" xlink:href="#ArialMT-6e"/>
    <use x="1439.599609" xlink:href="#ArialMT-74"/>
    <use x="1467.382812" xlink:href="#ArialMT-6f"/>
    <use x="1522.998047" xlink:href="#ArialMT-73"/>
    <use x="1572.998047" xlink:href="#ArialMT-2f"/>
   </g>
  </g>
 </g>
 <defs>
  <clipPath id="p380afff1c7">
   <rect height="277.2" width="558" x="82.8" y="21.789375"/>
  </clipPath>
 </defs>
</svg>
