<?xml version="1.0" encoding="utf-8" standalone="no"?>
<!DOCTYPE svg PUBLIC "-//W3C//DTD SVG 1.1//EN"
  "http://www.w3.org/Graphics/SVG/1.1/DTD/svg11.dtd">
<svg height="325.489375pt" version="1.1" viewBox="0 0 595.1 325.489375" width="595.1pt" xmlns="http://www.w3.org/2000/svg" xmlns:xlink="http://www.w3.org/1999/xlink">
 <metadata>
  <rdf:RDF xmlns:cc="http://creativecommons.org/ns#" xmlns:dc="http://purl.org/dc/elements/1.1/" xmlns:rdf="http://www.w3.org/1999/02/22-rdf-syntax-ns#">
   <cc:Work>
    <dc:type rdf:resource="http://purl.org/dc/dcmitype/StillImage"/>
    <dc:date>2021-06-06T18:29:46.422558</dc:date>
    <dc:format>image/svg+xml</dc:format>
    <dc:creator>
     <cc:Agent>
      <dc:title>Matplotlib v3.4.2, https://matplotlib.org/</dc:title>
     </cc:Agent>
    </dc:creator>
   </cc:Work>
  </rdf:RDF>
 </metadata>
 <defs>
  <style type="text/css">*{stroke-linecap:butt;stroke-linejoin:round;}</style>
 </defs>
 <g id="figure_1">
  <g id="patch_1">
   <path d="M 0 325.489375 
L 595.1 325.489375 
L 595.1 0 
L 0 0 
z
" style="fill:#ffffff;"/>
  </g>
  <g id="axes_1">
   <g id="patch_2">
    <path d="M 29.9 298.989375 
L 587.9 298.989375 
L 587.9 21.789375 
L 29.9 21.789375 
z
" style="fill:#ffffff;"/>
   </g>
   <g id="matplotlib.axis_1">
    <g id="xtick_1">
     <g id="line2d_1">
      <path clip-path="url(#pffd22d4f90)" d="M 61.531641 298.989375 
L 61.531641 21.789375 
" style="fill:none;stroke:#cccccc;stroke-linecap:round;stroke-width:0.8;"/>
     </g>
     <g id="text_1">
      <!-- $\mathdefault{10^{1}}$ -->
      <g style="fill:#262626;" transform="translate(53.681641 316.301875)scale(0.1 -0.1)">
       <defs>
        <path d="M 2384 0 
L 1822 0 
L 1822 3584 
Q 1619 3391 1289 3197 
Q 959 3003 697 2906 
L 697 3450 
Q 1169 3672 1522 3987 
Q 1875 4303 2022 4600 
L 2384 4600 
L 2384 0 
z
" id="ArialMT-31" transform="scale(0.015625)"/>
        <path d="M 266 2259 
Q 266 3072 433 3567 
Q 600 4063 929 4331 
Q 1259 4600 1759 4600 
Q 2128 4600 2406 4451 
Q 2684 4303 2865 4023 
Q 3047 3744 3150 3342 
Q 3253 2941 3253 2259 
Q 3253 1453 3087 958 
Q 2922 463 2592 192 
Q 2263 -78 1759 -78 
Q 1097 -78 719 397 
Q 266 969 266 2259 
z
M 844 2259 
Q 844 1131 1108 757 
Q 1372 384 1759 384 
Q 2147 384 2411 759 
Q 2675 1134 2675 2259 
Q 2675 3391 2411 3762 
Q 2147 4134 1753 4134 
Q 1366 4134 1134 3806 
Q 844 3388 844 2259 
z
" id="ArialMT-30" transform="scale(0.015625)"/>
       </defs>
       <use transform="translate(0 0.99375)" xlink:href="#ArialMT-31"/>
       <use transform="translate(55.615234 0.99375)" xlink:href="#ArialMT-30"/>
       <use transform="translate(112.972813 70.6875)scale(0.7)" xlink:href="#ArialMT-31"/>
      </g>
     </g>
    </g>
    <g id="xtick_2">
     <g id="line2d_2">
      <path clip-path="url(#pffd22d4f90)" d="M 198.514768 298.989375 
L 198.514768 21.789375 
" style="fill:none;stroke:#cccccc;stroke-linecap:round;stroke-width:0.8;"/>
     </g>
     <g id="text_2">
      <!-- $\mathdefault{10^{2}}$ -->
      <g style="fill:#262626;" transform="translate(190.664768 316.301875)scale(0.1 -0.1)">
       <defs>
        <path d="M 3222 541 
L 3222 0 
L 194 0 
Q 188 203 259 391 
Q 375 700 629 1000 
Q 884 1300 1366 1694 
Q 2113 2306 2375 2664 
Q 2638 3022 2638 3341 
Q 2638 3675 2398 3904 
Q 2159 4134 1775 4134 
Q 1369 4134 1125 3890 
Q 881 3647 878 3216 
L 300 3275 
Q 359 3922 746 4261 
Q 1134 4600 1788 4600 
Q 2447 4600 2831 4234 
Q 3216 3869 3216 3328 
Q 3216 3053 3103 2787 
Q 2991 2522 2730 2228 
Q 2469 1934 1863 1422 
Q 1356 997 1212 845 
Q 1069 694 975 541 
L 3222 541 
z
" id="ArialMT-32" transform="scale(0.015625)"/>
       </defs>
       <use transform="translate(0 0.99375)" xlink:href="#ArialMT-31"/>
       <use transform="translate(55.615234 0.99375)" xlink:href="#ArialMT-30"/>
       <use transform="translate(112.972813 70.6875)scale(0.7)" xlink:href="#ArialMT-32"/>
      </g>
     </g>
    </g>
    <g id="xtick_3">
     <g id="line2d_3">
      <path clip-path="url(#pffd22d4f90)" d="M 335.497896 298.989375 
L 335.497896 21.789375 
" style="fill:none;stroke:#cccccc;stroke-linecap:round;stroke-width:0.8;"/>
     </g>
     <g id="text_3">
      <!-- $\mathdefault{10^{3}}$ -->
      <g style="fill:#262626;" transform="translate(327.647896 316.301875)scale(0.1 -0.1)">
       <defs>
        <path d="M 269 1209 
L 831 1284 
Q 928 806 1161 595 
Q 1394 384 1728 384 
Q 2125 384 2398 659 
Q 2672 934 2672 1341 
Q 2672 1728 2419 1979 
Q 2166 2231 1775 2231 
Q 1616 2231 1378 2169 
L 1441 2663 
Q 1497 2656 1531 2656 
Q 1891 2656 2178 2843 
Q 2466 3031 2466 3422 
Q 2466 3731 2256 3934 
Q 2047 4138 1716 4138 
Q 1388 4138 1169 3931 
Q 950 3725 888 3313 
L 325 3413 
Q 428 3978 793 4289 
Q 1159 4600 1703 4600 
Q 2078 4600 2393 4439 
Q 2709 4278 2876 4000 
Q 3044 3722 3044 3409 
Q 3044 3113 2884 2869 
Q 2725 2625 2413 2481 
Q 2819 2388 3044 2092 
Q 3269 1797 3269 1353 
Q 3269 753 2831 336 
Q 2394 -81 1725 -81 
Q 1122 -81 723 278 
Q 325 638 269 1209 
z
" id="ArialMT-33" transform="scale(0.015625)"/>
       </defs>
       <use transform="translate(0 0.99375)" xlink:href="#ArialMT-31"/>
       <use transform="translate(55.615234 0.99375)" xlink:href="#ArialMT-30"/>
       <use transform="translate(112.972813 70.6875)scale(0.7)" xlink:href="#ArialMT-33"/>
      </g>
     </g>
    </g>
    <g id="xtick_4">
     <g id="line2d_4">
      <path clip-path="url(#pffd22d4f90)" d="M 472.481024 298.989375 
L 472.481024 21.789375 
" style="fill:none;stroke:#cccccc;stroke-linecap:round;stroke-width:0.8;"/>
     </g>
     <g id="text_4">
      <!-- $\mathdefault{10^{4}}$ -->
      <g style="fill:#262626;" transform="translate(464.631024 316.201875)scale(0.1 -0.1)">
       <defs>
        <path d="M 2069 0 
L 2069 1097 
L 81 1097 
L 81 1613 
L 2172 4581 
L 2631 4581 
L 2631 1613 
L 3250 1613 
L 3250 1097 
L 2631 1097 
L 2631 0 
L 2069 0 
z
M 2069 1613 
L 2069 3678 
L 634 1613 
L 2069 1613 
z
" id="ArialMT-34" transform="scale(0.015625)"/>
       </defs>
       <use transform="translate(0 0.201563)" xlink:href="#ArialMT-31"/>
       <use transform="translate(55.615234 0.201563)" xlink:href="#ArialMT-30"/>
       <use transform="translate(112.972813 69.895313)scale(0.7)" xlink:href="#ArialMT-34"/>
      </g>
     </g>
    </g>
    <g id="xtick_5"/>
    <g id="xtick_6"/>
    <g id="xtick_7"/>
    <g id="xtick_8"/>
    <g id="xtick_9"/>
    <g id="xtick_10"/>
    <g id="xtick_11"/>
    <g id="xtick_12"/>
    <g id="xtick_13"/>
    <g id="xtick_14"/>
    <g id="xtick_15"/>
    <g id="xtick_16"/>
    <g id="xtick_17"/>
    <g id="xtick_18"/>
    <g id="xtick_19"/>
    <g id="xtick_20"/>
    <g id="xtick_21"/>
    <g id="xtick_22"/>
    <g id="xtick_23"/>
    <g id="xtick_24"/>
    <g id="xtick_25"/>
    <g id="xtick_26"/>
    <g id="xtick_27"/>
    <g id="xtick_28"/>
    <g id="xtick_29"/>
    <g id="xtick_30"/>
    <g id="xtick_31"/>
    <g id="xtick_32"/>
    <g id="xtick_33"/>
    <g id="xtick_34"/>
    <g id="xtick_35"/>
    <g id="xtick_36"/>
    <g id="xtick_37"/>
   </g>
   <g id="matplotlib.axis_2">
    <g id="ytick_1">
     <g id="line2d_5">
      <path clip-path="url(#pffd22d4f90)" d="M 29.9 281.48672 
L 587.9 281.48672 
" style="fill:none;stroke:#cccccc;stroke-linecap:round;stroke-width:0.8;"/>
     </g>
     <g id="text_5">
      <!-- $\mathdefault{10^{1}}$ -->
      <g style="fill:#262626;" transform="translate(7.2 286.64297)scale(0.1 -0.1)">
       <use transform="translate(0 0.99375)" xlink:href="#ArialMT-31"/>
       <use transform="translate(55.615234 0.99375)" xlink:href="#ArialMT-30"/>
       <use transform="translate(112.972813 70.6875)scale(0.7)" xlink:href="#ArialMT-31"/>
      </g>
     </g>
    </g>
    <g id="ytick_2">
     <g id="line2d_6">
      <path clip-path="url(#pffd22d4f90)" d="M 29.9 174.342405 
L 587.9 174.342405 
" style="fill:none;stroke:#cccccc;stroke-linecap:round;stroke-width:0.8;"/>
     </g>
     <g id="text_6">
      <!-- $\mathdefault{10^{2}}$ -->
      <g style="fill:#262626;" transform="translate(7.2 179.498655)scale(0.1 -0.1)">
       <use transform="translate(0 0.99375)" xlink:href="#ArialMT-31"/>
       <use transform="translate(55.615234 0.99375)" xlink:href="#ArialMT-30"/>
       <use transform="translate(112.972813 70.6875)scale(0.7)" xlink:href="#ArialMT-32"/>
      </g>
     </g>
    </g>
    <g id="ytick_3">
     <g id="line2d_7">
      <path clip-path="url(#pffd22d4f90)" d="M 29.9 67.19809 
L 587.9 67.19809 
" style="fill:none;stroke:#cccccc;stroke-linecap:round;stroke-width:0.8;"/>
     </g>
     <g id="text_7">
      <!-- $\mathdefault{10^{3}}$ -->
      <g style="fill:#262626;" transform="translate(7.2 72.35434)scale(0.1 -0.1)">
       <use transform="translate(0 0.99375)" xlink:href="#ArialMT-31"/>
       <use transform="translate(55.615234 0.99375)" xlink:href="#ArialMT-30"/>
       <use transform="translate(112.972813 70.6875)scale(0.7)" xlink:href="#ArialMT-33"/>
      </g>
     </g>
    </g>
    <g id="ytick_4"/>
    <g id="ytick_5"/>
    <g id="ytick_6"/>
    <g id="ytick_7"/>
    <g id="ytick_8"/>
    <g id="ytick_9"/>
    <g id="ytick_10"/>
    <g id="ytick_11"/>
    <g id="ytick_12"/>
    <g id="ytick_13"/>
    <g id="ytick_14"/>
    <g id="ytick_15"/>
    <g id="ytick_16"/>
    <g id="ytick_17"/>
    <g id="ytick_18"/>
    <g id="ytick_19"/>
    <g id="ytick_20"/>
    <g id="ytick_21"/>
    <g id="ytick_22"/>
    <g id="ytick_23"/>
   </g>
   <g id="line2d_8">
    <path clip-path="url(#pffd22d4f90)" d="M 55.263636 286.389375 
L 102.767671 249.233067 
L 126.889202 235.268545 
L 156.076858 212.544424 
L 173.795332 200.499026 
L 186.70872 190.939269 
L 196.086227 183.576761 
L 200.848049 181.904766 
L 200.848049 182.455449 
L 211.789805 176.729194 
L 218.955269 178.222334 
L 223.031591 181.904766 
L 229.731402 180.822573 
L 237.322257 176.241942 
L 238.244617 178.730887 
L 240.928877 174.342405 
L 251.336322 166.640657 
L 257.604326 162.493346 
L 261.855493 159.019182 
L 263.673696 162.134023 
L 267.525592 163.220427 
L 270.080814 159.355156 
L 271.667335 159.355156 
L 274.553342 167.436098 
L 275.212529 177.719278 
L 279.78495 173.420946 
L 285.702871 160.723849 
L 293.663961 148.037118 
L 293.663961 151.894062 
L 294.261866 153.057428 
L 297.840484 149.106871 
L 302.988864 138.507587 
L 305.503651 139.377373 
L 307.536903 143.988289 
L 310.416812 152.182188 
L 311.316844 149.378196 
L 312.466892 147.25064 
L 315.623428 145.716473 
L 323.181818 134.783025 
L 330.34313 121.247647 
L 334.356691 115.257673 
L 345.243601 98.348161 
L 347.181267 96.043239 
L 349.435529 95.186268 
L 351.106213 100.677586 
L 354.745128 102.828616 
L 357.314697 103.129796 
L 360.211383 110.420418 
L 361.91456 112.099597 
L 363.792589 110.775176 
L 369.566797 98.621612 
L 373.776296 90.735841 
L 375.713884 92.225626 
L 378.981341 88.403101 
L 384.004778 80.895819 
L 386.731605 77.176061 
L 394.587454 63.145383 
L 401.721656 61.060259 
L 404.134561 58.55942 
L 405.800049 59.37819 
L 409.014642 59.456924 
L 410.331209 60.613806 
L 412.359319 70.077288 
L 415.324125 70.375254 
L 418.591356 67.291248 
L 421.604567 63.530834 
L 424.272159 59.221119 
L 427.437252 59.812888 
L 427.475294 64.795018 
L 428.729631 68.759561 
L 431.494333 68.185672 
L 433.440828 70.27572 
L 437.292473 63.273512 
L 439.497464 61.676045 
L 442.486779 53.233568 
L 445.501815 43.586737 
L 446.789209 42.506798 
L 448.43381 43.783253 
L 450.440546 42.070896 
L 452.114306 46.327261 
L 453.61986 47.136536 
L 455.318913 49.780238 
L 457.001663 53.061545 
L 460.135669 57.868905 
L 461.266931 59.456924 
L 462.994303 57.076046 
L 463.763818 60.978767 
L 464.059264 68.567477 
L 465.60176 62.932616 
L 466.21963 64.927777 
L 467.079218 66.919731 
L 468.003583 67.524961 
L 469.341798 69.097627 
L 471.07848 61.511037 
L 473.220053 50.069159 
L 477.78222 34.389375 
L 478.167346 34.897929 
L 478.442456 36.795528 
L 478.978222 37.848393 
L 480.479203 36.050997 
L 480.893813 41.104796 
L 480.893813 51.741154 
L 481.6686 81.335101 
L 483.840886 64.927777 
L 485.646497 54.173644 
L 486.620696 57.038625 
L 487.408174 53.823249 
L 488.517959 46.0606 
L 490.206619 39.821248 
L 490.91778 40.629164 
L 491.28321 44.951248 
L 491.814287 52.787624 
L 492.519343 54.208829 
L 493.341958 53.302555 
L 493.68451 59.181934 
L 494.049945 72.152476 
L 494.359633 76.888647 
L 494.802771 75.533245 
L 495.088238 78.580913 
L 495.707456 79.299571 
L 496.515238 78.879007 
L 497.005725 76.432446 
L 497.257307 77.814692 
L 497.652182 76.319091 
L 498.491814 70.524955 
L 499.387923 62.932616 
L 500.375053 58.482189 
L 501.525243 54.4205 
L 502.359125 52.958635 
L 503.216977 48.42407 
L 504.599001 43.223965 
L 505.034278 46.356984 
L 505.356947 51.674441 
L 505.640408 60.011829 
L 505.677875 65.913096 
L 505.983532 65.462636 
L 506.32132 72.204265 
L 506.770969 88.110445 
L 507.213927 87.602684 
L 507.472181 88.771529 
L 507.515115 95.186268 
L 507.791787 95.698554 
L 507.995175 99.080966 
L 508.321763 102.330941 
L 508.341301 116.988683 
L 508.594718 116.988683 
L 508.801846 110.53837 
L 509.133686 115.915848 
L 509.181858 128.818753 
L 509.441316 117.260802 
L 509.661446 128.470196 
L 509.664631 150.759075 
L 509.947354 133.604932 
L 510.301243 141.625742 
L 510.301243 141.625742 
L 510.740664 117.260802 
L 510.943582 120.656754 
L 511.582143 108.572744 
L 511.603722 107.786898 
L 511.603722 114.996988 
L 512.009177 108.686099 
L 512.226125 108.010074 
L 512.408846 111.855972 
L 512.460515 118.225949 
L 512.603132 118.225949 
L 512.603132 119.211539 
L 512.666745 116.315268 
L 512.920515 123.221575 
L 513.173208 121.247647 
L 513.281177 124.959821 
L 513.421843 120.364097 
L 513.603914 118.365476 
L 513.734899 115.257673 
L 513.910087 118.645791 
L 514.3149 111.734636 
L 514.839699 97.004501 
L 515.409079 85.418335 
L 515.429313 92.706169 
L 516.124652 79.90705 
L 516.39541 82.548775 
L 516.66211 88.403101 
L 516.88815 97.806032 
L 517.012108 94.012421 
L 517.012108 94.012421 
L 517.977965 72.049071 
L 518.380865 77.291526 
L 518.60048 78.166765 
L 518.92294 76.774177 
L 519.50062 71.945896 
L 519.50062 71.945896 
L 519.756472 87.100404 
L 520.136865 87.386757 
L 520.631474 80.337053 
L 521.061566 77.639649 
L 521.300333 80.337053 
L 521.308188 85.143808 
L 521.316043 84.93897 
L 521.990235 97.716288 
L 522.225312 104.665651 
L 522.633833 98.076307 
L 522.896983 90.046463 
L 523.189423 85.833186 
L 523.442555 85.556208 
L 524.085707 81.651432 
L 524.441964 82.678391 
L 524.521395 86.251769 
L 524.642818 84.12852 
L 524.951452 90.581761 
L 525.32216 89.894645 
L 525.60051 89.894645 
L 525.97447 89.068386 
L 526.358121 83.595957 
L 526.923042 76.774177 
L 527.522757 71.280773 
L 528.13283 64.398997 
L 528.456437 65.060917 
L 528.581681 65.958383 
L 528.581681 69.978388 
L 528.732089 74.162133 
L 529.070847 71.179286 
L 530.0124 85.212288 
L 530.123127 85.556208 
L 530.240409 82.097941 
L 530.546056 77.756271 
L 530.778732 80.337053 
L 531.137146 79.845944 
L 531.413937 81.272092 
L 531.976815 72.988094 
L 532.985806 55.025515 
L 533.653337 46.535725 
L 534.326085 41.397871 
L 534.596838 40.734441 
L 534.77457 42.781325 
L 534.982989 43.474813 
L 535.188607 48.083401 
L 535.494676 59.064576 
L 535.88121 64.180433 
L 536.297818 76.206011 
L 536.549632 79.784918 
L 536.717592 91.045541 
L 536.768089 105.825063 
L 536.92738 111.855972 
L 537.380731 101.254438 
L 537.48655 102.728654 
L 537.562304 102.430051 
L 538.062248 87.386757 
L 538.277199 85.280869 
L 538.37161 91.279176 
L 538.52471 92.706169 
L 538.843383 87.24336 
L 539.057478 89.142897 
L 539.512297 81.020905 
L 539.72016 81.083575 
L 540.354634 69.682945 
L 540.648549 66.781174 
L 541.023781 61.141894 
L 541.475061 56.076112 
L 541.995107 54.455872 
L 542.304966 52.379742 
L 542.664441 50.946844 
L 542.987212 51.012521 
L 543.469012 47.500782 
L 543.690486 49.876346 
L 544.029202 51.574551 
L 544.114918 60.011829 
L 544.312667 62.341991 
L 544.806827 58.986502 
L 545.033929 60.897417 
L 545.462875 67.151581 
L 545.583124 73.093609 
L 545.78994 69.48702 
L 545.890482 72.152476 
L 546.021969 84.061615 
L 546.230713 84.599566 
L 546.488473 91.51399 
L 546.646015 89.743321 
L 547.133119 82.162079 
L 547.272045 81.77857 
L 547.457902 82.484102 
L 547.611219 81.842269 
L 547.71881 82.162079 
L 547.809438 84.667249 
L 547.878157 105.189078 
L 548.453276 91.357315 
L 548.600742 91.51399 
L 548.830326 89.894645 
L 548.833623 91.671193 
L 548.915986 89.068386 
L 549.286852 116.718147 
L 549.368591 119.069455 
L 549.433901 113.96861 
L 549.492619 115.783466 
L 549.562679 116.181747 
L 549.635908 120.803775 
L 549.733408 116.853218 
L 549.827506 118.505422 
L 550.178248 107.233595 
L 550.257162 106.578202 
L 550.356864 111.49291 
L 550.45319 111.252433 
L 550.49328 121.996973 
L 550.573378 119.64041 
L 550.632582 125.936057 
L 550.715688 125.445379 
L 551.034249 114.223582 
L 551.219819 103.738068 
L 551.284711 104.665651 
L 551.576639 95.612781 
L 551.661582 101.545569 
L 551.823266 99.451743 
L 552.157793 105.825063 
L 552.271479 104.979 
L 552.429964 100.202278 
L 553.480453 67.71278 
L 553.687431 63.102752 
L 553.839163 63.017606 
L 554.225842 58.212882 
L 554.556149 51.707786 
L 555.04671 65.328344 
L 555.314878 63.359128 
L 555.901798 56.740341 
L 556.064052 57.188488 
L 556.607512 51.741154 
L 556.822649 50.848502 
L 557.021212 59.852609 
L 557.326394 67.901361 
L 557.595884 84.531981 
L 557.773451 86.181744 
L 557.953317 81.335101 
L 558.036692 82.938712 
L 558.661802 71.382483 
L 559.040683 82.678391 
L 559.216764 119.928536 
L 559.332941 129.346534 
L 560.335853 87.315003 
L 560.537943 84.262619 
L 560.845859 85.902689 
L 561.054281 81.77857 
L 561.154869 90.428189 
L 561.366219 83.331944 
L 561.584804 85.212288 
L 562.061826 104.561668 
L 562.287079 96.652649 
L 562.338333 100.202278 
L 562.435464 99.080966 
L 562.482659 100.296952 
L 562.536364 99.638245 
" style="fill:none;stroke:#1f77b4;stroke-linecap:round;stroke-width:1.5;"/>
   </g>
   <g id="patch_3">
    <path d="M 29.9 298.989375 
L 29.9 21.789375 
" style="fill:none;stroke:#cccccc;stroke-linecap:square;stroke-linejoin:miter;stroke-width:0.8;"/>
   </g>
   <g id="patch_4">
    <path d="M 587.9 298.989375 
L 587.9 21.789375 
" style="fill:none;stroke:#cccccc;stroke-linecap:square;stroke-linejoin:miter;stroke-width:0.8;"/>
   </g>
   <g id="patch_5">
    <path d="M 29.9 298.989375 
L 587.9 298.989375 
" style="fill:none;stroke:#cccccc;stroke-linecap:square;stroke-linejoin:miter;stroke-width:0.8;"/>
   </g>
   <g id="patch_6">
    <path d="M 29.9 21.789375 
L 587.9 21.789375 
" style="fill:none;stroke:#cccccc;stroke-linecap:square;stroke-linejoin:miter;stroke-width:0.8;"/>
   </g>
   <g id="text_8">
    <!-- Novos Casos na semana X Casos Totais -->
    <g style="fill:#262626;" transform="translate(200.295312 15.789375)scale(0.12 -0.12)">
     <defs>
      <path d="M 488 0 
L 488 4581 
L 1109 4581 
L 3516 984 
L 3516 4581 
L 4097 4581 
L 4097 0 
L 3475 0 
L 1069 3600 
L 1069 0 
L 488 0 
z
" id="ArialMT-4e" transform="scale(0.015625)"/>
      <path d="M 213 1659 
Q 213 2581 725 3025 
Q 1153 3394 1769 3394 
Q 2453 3394 2887 2945 
Q 3322 2497 3322 1706 
Q 3322 1066 3130 698 
Q 2938 331 2570 128 
Q 2203 -75 1769 -75 
Q 1072 -75 642 372 
Q 213 819 213 1659 
z
M 791 1659 
Q 791 1022 1069 705 
Q 1347 388 1769 388 
Q 2188 388 2466 706 
Q 2744 1025 2744 1678 
Q 2744 2294 2464 2611 
Q 2184 2928 1769 2928 
Q 1347 2928 1069 2612 
Q 791 2297 791 1659 
z
" id="ArialMT-6f" transform="scale(0.015625)"/>
      <path d="M 1344 0 
L 81 3319 
L 675 3319 
L 1388 1331 
Q 1503 1009 1600 663 
Q 1675 925 1809 1294 
L 2547 3319 
L 3125 3319 
L 1869 0 
L 1344 0 
z
" id="ArialMT-76" transform="scale(0.015625)"/>
      <path d="M 197 991 
L 753 1078 
Q 800 744 1014 566 
Q 1228 388 1613 388 
Q 2000 388 2187 545 
Q 2375 703 2375 916 
Q 2375 1106 2209 1216 
Q 2094 1291 1634 1406 
Q 1016 1563 777 1677 
Q 538 1791 414 1992 
Q 291 2194 291 2438 
Q 291 2659 392 2848 
Q 494 3038 669 3163 
Q 800 3259 1026 3326 
Q 1253 3394 1513 3394 
Q 1903 3394 2198 3281 
Q 2494 3169 2634 2976 
Q 2775 2784 2828 2463 
L 2278 2388 
Q 2241 2644 2061 2787 
Q 1881 2931 1553 2931 
Q 1166 2931 1000 2803 
Q 834 2675 834 2503 
Q 834 2394 903 2306 
Q 972 2216 1119 2156 
Q 1203 2125 1616 2013 
Q 2213 1853 2448 1751 
Q 2684 1650 2818 1456 
Q 2953 1263 2953 975 
Q 2953 694 2789 445 
Q 2625 197 2315 61 
Q 2006 -75 1616 -75 
Q 969 -75 630 194 
Q 291 463 197 991 
z
" id="ArialMT-73" transform="scale(0.015625)"/>
      <path id="ArialMT-20" transform="scale(0.015625)"/>
      <path d="M 3763 1606 
L 4369 1453 
Q 4178 706 3683 314 
Q 3188 -78 2472 -78 
Q 1731 -78 1267 223 
Q 803 525 561 1097 
Q 319 1669 319 2325 
Q 319 3041 592 3573 
Q 866 4106 1370 4382 
Q 1875 4659 2481 4659 
Q 3169 4659 3637 4309 
Q 4106 3959 4291 3325 
L 3694 3184 
Q 3534 3684 3231 3912 
Q 2928 4141 2469 4141 
Q 1941 4141 1586 3887 
Q 1231 3634 1087 3207 
Q 944 2781 944 2328 
Q 944 1744 1114 1308 
Q 1284 872 1643 656 
Q 2003 441 2422 441 
Q 2931 441 3284 734 
Q 3638 1028 3763 1606 
z
" id="ArialMT-43" transform="scale(0.015625)"/>
      <path d="M 2588 409 
Q 2275 144 1986 34 
Q 1697 -75 1366 -75 
Q 819 -75 525 192 
Q 231 459 231 875 
Q 231 1119 342 1320 
Q 453 1522 633 1644 
Q 813 1766 1038 1828 
Q 1203 1872 1538 1913 
Q 2219 1994 2541 2106 
Q 2544 2222 2544 2253 
Q 2544 2597 2384 2738 
Q 2169 2928 1744 2928 
Q 1347 2928 1158 2789 
Q 969 2650 878 2297 
L 328 2372 
Q 403 2725 575 2942 
Q 747 3159 1072 3276 
Q 1397 3394 1825 3394 
Q 2250 3394 2515 3294 
Q 2781 3194 2906 3042 
Q 3031 2891 3081 2659 
Q 3109 2516 3109 2141 
L 3109 1391 
Q 3109 606 3145 398 
Q 3181 191 3288 0 
L 2700 0 
Q 2613 175 2588 409 
z
M 2541 1666 
Q 2234 1541 1622 1453 
Q 1275 1403 1131 1340 
Q 988 1278 909 1158 
Q 831 1038 831 891 
Q 831 666 1001 516 
Q 1172 366 1500 366 
Q 1825 366 2078 508 
Q 2331 650 2450 897 
Q 2541 1088 2541 1459 
L 2541 1666 
z
" id="ArialMT-61" transform="scale(0.015625)"/>
      <path d="M 422 0 
L 422 3319 
L 928 3319 
L 928 2847 
Q 1294 3394 1984 3394 
Q 2284 3394 2536 3286 
Q 2788 3178 2913 3003 
Q 3038 2828 3088 2588 
Q 3119 2431 3119 2041 
L 3119 0 
L 2556 0 
L 2556 2019 
Q 2556 2363 2490 2533 
Q 2425 2703 2258 2804 
Q 2091 2906 1866 2906 
Q 1506 2906 1245 2678 
Q 984 2450 984 1813 
L 984 0 
L 422 0 
z
" id="ArialMT-6e" transform="scale(0.015625)"/>
      <path d="M 2694 1069 
L 3275 997 
Q 3138 488 2766 206 
Q 2394 -75 1816 -75 
Q 1088 -75 661 373 
Q 234 822 234 1631 
Q 234 2469 665 2931 
Q 1097 3394 1784 3394 
Q 2450 3394 2872 2941 
Q 3294 2488 3294 1666 
Q 3294 1616 3291 1516 
L 816 1516 
Q 847 969 1125 678 
Q 1403 388 1819 388 
Q 2128 388 2347 550 
Q 2566 713 2694 1069 
z
M 847 1978 
L 2700 1978 
Q 2663 2397 2488 2606 
Q 2219 2931 1791 2931 
Q 1403 2931 1139 2672 
Q 875 2413 847 1978 
z
" id="ArialMT-65" transform="scale(0.015625)"/>
      <path d="M 422 0 
L 422 3319 
L 925 3319 
L 925 2853 
Q 1081 3097 1340 3245 
Q 1600 3394 1931 3394 
Q 2300 3394 2536 3241 
Q 2772 3088 2869 2813 
Q 3263 3394 3894 3394 
Q 4388 3394 4653 3120 
Q 4919 2847 4919 2278 
L 4919 0 
L 4359 0 
L 4359 2091 
Q 4359 2428 4304 2576 
Q 4250 2725 4106 2815 
Q 3963 2906 3769 2906 
Q 3419 2906 3187 2673 
Q 2956 2441 2956 1928 
L 2956 0 
L 2394 0 
L 2394 2156 
Q 2394 2531 2256 2718 
Q 2119 2906 1806 2906 
Q 1569 2906 1367 2781 
Q 1166 2656 1075 2415 
Q 984 2175 984 1722 
L 984 0 
L 422 0 
z
" id="ArialMT-6d" transform="scale(0.015625)"/>
      <path d="M 28 0 
L 1800 2388 
L 238 4581 
L 959 4581 
L 1791 3406 
Q 2050 3041 2159 2844 
Q 2313 3094 2522 3366 
L 3444 4581 
L 4103 4581 
L 2494 2422 
L 4228 0 
L 3478 0 
L 2325 1634 
Q 2228 1775 2125 1941 
Q 1972 1691 1906 1597 
L 756 0 
L 28 0 
z
" id="ArialMT-58" transform="scale(0.015625)"/>
      <path d="M 1659 0 
L 1659 4041 
L 150 4041 
L 150 4581 
L 3781 4581 
L 3781 4041 
L 2266 4041 
L 2266 0 
L 1659 0 
z
" id="ArialMT-54" transform="scale(0.015625)"/>
      <path d="M 1650 503 
L 1731 6 
Q 1494 -44 1306 -44 
Q 1000 -44 831 53 
Q 663 150 594 308 
Q 525 466 525 972 
L 525 2881 
L 113 2881 
L 113 3319 
L 525 3319 
L 525 4141 
L 1084 4478 
L 1084 3319 
L 1650 3319 
L 1650 2881 
L 1084 2881 
L 1084 941 
Q 1084 700 1114 631 
Q 1144 563 1211 522 
Q 1278 481 1403 481 
Q 1497 481 1650 503 
z
" id="ArialMT-74" transform="scale(0.015625)"/>
      <path d="M 425 3934 
L 425 4581 
L 988 4581 
L 988 3934 
L 425 3934 
z
M 425 0 
L 425 3319 
L 988 3319 
L 988 0 
L 425 0 
z
" id="ArialMT-69" transform="scale(0.015625)"/>
     </defs>
     <use xlink:href="#ArialMT-4e"/>
     <use x="72.216797" xlink:href="#ArialMT-6f"/>
     <use x="127.832031" xlink:href="#ArialMT-76"/>
     <use x="177.832031" xlink:href="#ArialMT-6f"/>
     <use x="233.447266" xlink:href="#ArialMT-73"/>
     <use x="283.447266" xlink:href="#ArialMT-20"/>
     <use x="311.230469" xlink:href="#ArialMT-43"/>
     <use x="383.447266" xlink:href="#ArialMT-61"/>
     <use x="439.0625" xlink:href="#ArialMT-73"/>
     <use x="489.0625" xlink:href="#ArialMT-6f"/>
     <use x="544.677734" xlink:href="#ArialMT-73"/>
     <use x="594.677734" xlink:href="#ArialMT-20"/>
     <use x="622.460938" xlink:href="#ArialMT-6e"/>
     <use x="678.076172" xlink:href="#ArialMT-61"/>
     <use x="733.691406" xlink:href="#ArialMT-20"/>
     <use x="761.474609" xlink:href="#ArialMT-73"/>
     <use x="811.474609" xlink:href="#ArialMT-65"/>
     <use x="867.089844" xlink:href="#ArialMT-6d"/>
     <use x="950.390625" xlink:href="#ArialMT-61"/>
     <use x="1006.005859" xlink:href="#ArialMT-6e"/>
     <use x="1061.621094" xlink:href="#ArialMT-61"/>
     <use x="1117.236328" xlink:href="#ArialMT-20"/>
     <use x="1145.019531" xlink:href="#ArialMT-58"/>
     <use x="1211.71875" xlink:href="#ArialMT-20"/>
     <use x="1239.501953" xlink:href="#ArialMT-43"/>
     <use x="1311.71875" xlink:href="#ArialMT-61"/>
     <use x="1367.333984" xlink:href="#ArialMT-73"/>
     <use x="1417.333984" xlink:href="#ArialMT-6f"/>
     <use x="1472.949219" xlink:href="#ArialMT-73"/>
     <use x="1522.949219" xlink:href="#ArialMT-20"/>
     <use x="1548.982422" xlink:href="#ArialMT-54"/>
     <use x="1598.941406" xlink:href="#ArialMT-6f"/>
     <use x="1654.556641" xlink:href="#ArialMT-74"/>
     <use x="1682.339844" xlink:href="#ArialMT-61"/>
     <use x="1737.955078" xlink:href="#ArialMT-69"/>
     <use x="1760.171875" xlink:href="#ArialMT-73"/>
    </g>
   </g>
  </g>
 </g>
 <defs>
  <clipPath id="pffd22d4f90">
   <rect height="277.2" width="558" x="29.9" y="21.789375"/>
  </clipPath>
 </defs>
</svg>
