<?xml version="1.0" encoding="utf-8" standalone="no"?>
<!DOCTYPE svg PUBLIC "-//W3C//DTD SVG 1.1//EN"
  "http://www.w3.org/Graphics/SVG/1.1/DTD/svg11.dtd">
<!-- Created with matplotlib (https://matplotlib.org/) -->
<svg height="323.39625pt" version="1.1" viewBox="0 0 597 323.39625" width="597pt" xmlns="http://www.w3.org/2000/svg" xmlns:xlink="http://www.w3.org/1999/xlink">
 <metadata>
  <rdf:RDF xmlns:cc="http://creativecommons.org/ns#" xmlns:dc="http://purl.org/dc/elements/1.1/" xmlns:rdf="http://www.w3.org/1999/02/22-rdf-syntax-ns#">
   <cc:Work>
    <dc:type rdf:resource="http://purl.org/dc/dcmitype/StillImage"/>
    <dc:date>2021-03-02T19:25:35.045210</dc:date>
    <dc:format>image/svg+xml</dc:format>
    <dc:creator>
     <cc:Agent>
      <dc:title>Matplotlib v3.3.4, https://matplotlib.org/</dc:title>
     </cc:Agent>
    </dc:creator>
   </cc:Work>
  </rdf:RDF>
 </metadata>
 <defs>
  <style type="text/css">*{stroke-linecap:butt;stroke-linejoin:round;}</style>
 </defs>
 <g id="figure_1">
  <g id="patch_1">
   <path d="M 0 323.39625 
L 597 323.39625 
L 597 0 
L 0 0 
z
" style="fill:#ffffff;"/>
  </g>
  <g id="axes_1">
   <g id="patch_2">
    <path d="M 31.8 299.518125 
L 589.8 299.518125 
L 589.8 22.318125 
L 31.8 22.318125 
z
" style="fill:#ffffff;"/>
   </g>
   <g id="matplotlib.axis_1">
    <g id="xtick_1">
     <g id="line2d_1">
      <defs>
       <path d="M 0 0 
L 0 3.5 
" id="m3768f47e6a" style="stroke:#000000;stroke-width:0.8;"/>
      </defs>
      <g>
       <use style="stroke:#000000;stroke-width:0.8;" x="57.163636" xlink:href="#m3768f47e6a" y="299.518125"/>
      </g>
     </g>
     <g id="text_1">
      <!-- $\mathdefault{10^{0}}$ -->
      <g transform="translate(48.363636 314.116563)scale(0.1 -0.1)">
       <defs>
        <path d="M 12.40625 8.296875 
L 28.515625 8.296875 
L 28.515625 63.921875 
L 10.984375 60.40625 
L 10.984375 69.390625 
L 28.421875 72.90625 
L 38.28125 72.90625 
L 38.28125 8.296875 
L 54.390625 8.296875 
L 54.390625 0 
L 12.40625 0 
z
" id="DejaVuSans-49"/>
        <path d="M 31.78125 66.40625 
Q 24.171875 66.40625 20.328125 58.90625 
Q 16.5 51.421875 16.5 36.375 
Q 16.5 21.390625 20.328125 13.890625 
Q 24.171875 6.390625 31.78125 6.390625 
Q 39.453125 6.390625 43.28125 13.890625 
Q 47.125 21.390625 47.125 36.375 
Q 47.125 51.421875 43.28125 58.90625 
Q 39.453125 66.40625 31.78125 66.40625 
z
M 31.78125 74.21875 
Q 44.046875 74.21875 50.515625 64.515625 
Q 56.984375 54.828125 56.984375 36.375 
Q 56.984375 17.96875 50.515625 8.265625 
Q 44.046875 -1.421875 31.78125 -1.421875 
Q 19.53125 -1.421875 13.0625 8.265625 
Q 6.59375 17.96875 6.59375 36.375 
Q 6.59375 54.828125 13.0625 64.515625 
Q 19.53125 74.21875 31.78125 74.21875 
z
" id="DejaVuSans-48"/>
       </defs>
       <use transform="translate(0 0.765625)" xlink:href="#DejaVuSans-49"/>
       <use transform="translate(63.623047 0.765625)" xlink:href="#DejaVuSans-48"/>
       <use transform="translate(128.203125 39.046875)scale(0.7)" xlink:href="#DejaVuSans-48"/>
      </g>
     </g>
    </g>
    <g id="xtick_2">
     <g id="line2d_2">
      <g>
       <use style="stroke:#000000;stroke-width:0.8;" x="223.910003" xlink:href="#m3768f47e6a" y="299.518125"/>
      </g>
     </g>
     <g id="text_2">
      <!-- $\mathdefault{10^{1}}$ -->
      <g transform="translate(215.110003 314.116563)scale(0.1 -0.1)">
       <use transform="translate(0 0.684375)" xlink:href="#DejaVuSans-49"/>
       <use transform="translate(63.623047 0.684375)" xlink:href="#DejaVuSans-48"/>
       <use transform="translate(128.203125 38.965625)scale(0.7)" xlink:href="#DejaVuSans-49"/>
      </g>
     </g>
    </g>
    <g id="xtick_3">
     <g id="line2d_3">
      <g>
       <use style="stroke:#000000;stroke-width:0.8;" x="390.656369" xlink:href="#m3768f47e6a" y="299.518125"/>
      </g>
     </g>
     <g id="text_3">
      <!-- $\mathdefault{10^{2}}$ -->
      <g transform="translate(381.856369 314.116563)scale(0.1 -0.1)">
       <defs>
        <path d="M 19.1875 8.296875 
L 53.609375 8.296875 
L 53.609375 0 
L 7.328125 0 
L 7.328125 8.296875 
Q 12.9375 14.109375 22.625 23.890625 
Q 32.328125 33.6875 34.8125 36.53125 
Q 39.546875 41.84375 41.421875 45.53125 
Q 43.3125 49.21875 43.3125 52.78125 
Q 43.3125 58.59375 39.234375 62.25 
Q 35.15625 65.921875 28.609375 65.921875 
Q 23.96875 65.921875 18.8125 64.3125 
Q 13.671875 62.703125 7.8125 59.421875 
L 7.8125 69.390625 
Q 13.765625 71.78125 18.9375 73 
Q 24.125 74.21875 28.421875 74.21875 
Q 39.75 74.21875 46.484375 68.546875 
Q 53.21875 62.890625 53.21875 53.421875 
Q 53.21875 48.921875 51.53125 44.890625 
Q 49.859375 40.875 45.40625 35.40625 
Q 44.1875 33.984375 37.640625 27.21875 
Q 31.109375 20.453125 19.1875 8.296875 
z
" id="DejaVuSans-50"/>
       </defs>
       <use transform="translate(0 0.765625)" xlink:href="#DejaVuSans-49"/>
       <use transform="translate(63.623047 0.765625)" xlink:href="#DejaVuSans-48"/>
       <use transform="translate(128.203125 39.046875)scale(0.7)" xlink:href="#DejaVuSans-50"/>
      </g>
     </g>
    </g>
    <g id="xtick_4">
     <g id="line2d_4">
      <g>
       <use style="stroke:#000000;stroke-width:0.8;" x="557.402736" xlink:href="#m3768f47e6a" y="299.518125"/>
      </g>
     </g>
     <g id="text_4">
      <!-- $\mathdefault{10^{3}}$ -->
      <g transform="translate(548.602736 314.116563)scale(0.1 -0.1)">
       <defs>
        <path d="M 40.578125 39.3125 
Q 47.65625 37.796875 51.625 33 
Q 55.609375 28.21875 55.609375 21.1875 
Q 55.609375 10.40625 48.1875 4.484375 
Q 40.765625 -1.421875 27.09375 -1.421875 
Q 22.515625 -1.421875 17.65625 -0.515625 
Q 12.796875 0.390625 7.625 2.203125 
L 7.625 11.71875 
Q 11.71875 9.328125 16.59375 8.109375 
Q 21.484375 6.890625 26.8125 6.890625 
Q 36.078125 6.890625 40.9375 10.546875 
Q 45.796875 14.203125 45.796875 21.1875 
Q 45.796875 27.640625 41.28125 31.265625 
Q 36.765625 34.90625 28.71875 34.90625 
L 20.21875 34.90625 
L 20.21875 43.015625 
L 29.109375 43.015625 
Q 36.375 43.015625 40.234375 45.921875 
Q 44.09375 48.828125 44.09375 54.296875 
Q 44.09375 59.90625 40.109375 62.90625 
Q 36.140625 65.921875 28.71875 65.921875 
Q 24.65625 65.921875 20.015625 65.03125 
Q 15.375 64.15625 9.8125 62.3125 
L 9.8125 71.09375 
Q 15.4375 72.65625 20.34375 73.4375 
Q 25.25 74.21875 29.59375 74.21875 
Q 40.828125 74.21875 47.359375 69.109375 
Q 53.90625 64.015625 53.90625 55.328125 
Q 53.90625 49.265625 50.4375 45.09375 
Q 46.96875 40.921875 40.578125 39.3125 
z
" id="DejaVuSans-51"/>
       </defs>
       <use transform="translate(0 0.765625)" xlink:href="#DejaVuSans-49"/>
       <use transform="translate(63.623047 0.765625)" xlink:href="#DejaVuSans-48"/>
       <use transform="translate(128.203125 39.046875)scale(0.7)" xlink:href="#DejaVuSans-51"/>
      </g>
     </g>
    </g>
    <g id="xtick_5">
     <g id="line2d_5">
      <defs>
       <path d="M 0 0 
L 0 2 
" id="mddef11335b" style="stroke:#000000;stroke-width:0.6;"/>
      </defs>
      <g>
       <use style="stroke:#000000;stroke-width:0.6;" x="41.004244" xlink:href="#mddef11335b" y="299.518125"/>
      </g>
     </g>
    </g>
    <g id="xtick_6">
     <g id="line2d_6">
      <g>
       <use style="stroke:#000000;stroke-width:0.6;" x="49.533741" xlink:href="#mddef11335b" y="299.518125"/>
      </g>
     </g>
    </g>
    <g id="xtick_7">
     <g id="line2d_7">
      <g>
       <use style="stroke:#000000;stroke-width:0.6;" x="107.359294" xlink:href="#mddef11335b" y="299.518125"/>
      </g>
     </g>
    </g>
    <g id="xtick_8">
     <g id="line2d_8">
      <g>
       <use style="stroke:#000000;stroke-width:0.6;" x="136.721872" xlink:href="#mddef11335b" y="299.518125"/>
      </g>
     </g>
    </g>
    <g id="xtick_9">
     <g id="line2d_9">
      <g>
       <use style="stroke:#000000;stroke-width:0.6;" x="157.554952" xlink:href="#mddef11335b" y="299.518125"/>
      </g>
     </g>
    </g>
    <g id="xtick_10">
     <g id="line2d_10">
      <g>
       <use style="stroke:#000000;stroke-width:0.6;" x="173.714345" xlink:href="#mddef11335b" y="299.518125"/>
      </g>
     </g>
    </g>
    <g id="xtick_11">
     <g id="line2d_11">
      <g>
       <use style="stroke:#000000;stroke-width:0.6;" x="186.91753" xlink:href="#mddef11335b" y="299.518125"/>
      </g>
     </g>
    </g>
    <g id="xtick_12">
     <g id="line2d_12">
      <g>
       <use style="stroke:#000000;stroke-width:0.6;" x="198.080664" xlink:href="#mddef11335b" y="299.518125"/>
      </g>
     </g>
    </g>
    <g id="xtick_13">
     <g id="line2d_13">
      <g>
       <use style="stroke:#000000;stroke-width:0.6;" x="207.75061" xlink:href="#mddef11335b" y="299.518125"/>
      </g>
     </g>
    </g>
    <g id="xtick_14">
     <g id="line2d_14">
      <g>
       <use style="stroke:#000000;stroke-width:0.6;" x="216.280108" xlink:href="#mddef11335b" y="299.518125"/>
      </g>
     </g>
    </g>
    <g id="xtick_15">
     <g id="line2d_15">
      <g>
       <use style="stroke:#000000;stroke-width:0.6;" x="274.105661" xlink:href="#mddef11335b" y="299.518125"/>
      </g>
     </g>
    </g>
    <g id="xtick_16">
     <g id="line2d_16">
      <g>
       <use style="stroke:#000000;stroke-width:0.6;" x="303.468239" xlink:href="#mddef11335b" y="299.518125"/>
      </g>
     </g>
    </g>
    <g id="xtick_17">
     <g id="line2d_17">
      <g>
       <use style="stroke:#000000;stroke-width:0.6;" x="324.301319" xlink:href="#mddef11335b" y="299.518125"/>
      </g>
     </g>
    </g>
    <g id="xtick_18">
     <g id="line2d_18">
      <g>
       <use style="stroke:#000000;stroke-width:0.6;" x="340.460711" xlink:href="#mddef11335b" y="299.518125"/>
      </g>
     </g>
    </g>
    <g id="xtick_19">
     <g id="line2d_19">
      <g>
       <use style="stroke:#000000;stroke-width:0.6;" x="353.663897" xlink:href="#mddef11335b" y="299.518125"/>
      </g>
     </g>
    </g>
    <g id="xtick_20">
     <g id="line2d_20">
      <g>
       <use style="stroke:#000000;stroke-width:0.6;" x="364.82703" xlink:href="#mddef11335b" y="299.518125"/>
      </g>
     </g>
    </g>
    <g id="xtick_21">
     <g id="line2d_21">
      <g>
       <use style="stroke:#000000;stroke-width:0.6;" x="374.496977" xlink:href="#mddef11335b" y="299.518125"/>
      </g>
     </g>
    </g>
    <g id="xtick_22">
     <g id="line2d_22">
      <g>
       <use style="stroke:#000000;stroke-width:0.6;" x="383.026474" xlink:href="#mddef11335b" y="299.518125"/>
      </g>
     </g>
    </g>
    <g id="xtick_23">
     <g id="line2d_23">
      <g>
       <use style="stroke:#000000;stroke-width:0.6;" x="440.852027" xlink:href="#mddef11335b" y="299.518125"/>
      </g>
     </g>
    </g>
    <g id="xtick_24">
     <g id="line2d_24">
      <g>
       <use style="stroke:#000000;stroke-width:0.6;" x="470.214605" xlink:href="#mddef11335b" y="299.518125"/>
      </g>
     </g>
    </g>
    <g id="xtick_25">
     <g id="line2d_25">
      <g>
       <use style="stroke:#000000;stroke-width:0.6;" x="491.047685" xlink:href="#mddef11335b" y="299.518125"/>
      </g>
     </g>
    </g>
    <g id="xtick_26">
     <g id="line2d_26">
      <g>
       <use style="stroke:#000000;stroke-width:0.6;" x="507.207078" xlink:href="#mddef11335b" y="299.518125"/>
      </g>
     </g>
    </g>
    <g id="xtick_27">
     <g id="line2d_27">
      <g>
       <use style="stroke:#000000;stroke-width:0.6;" x="520.410263" xlink:href="#mddef11335b" y="299.518125"/>
      </g>
     </g>
    </g>
    <g id="xtick_28">
     <g id="line2d_28">
      <g>
       <use style="stroke:#000000;stroke-width:0.6;" x="531.573397" xlink:href="#mddef11335b" y="299.518125"/>
      </g>
     </g>
    </g>
    <g id="xtick_29">
     <g id="line2d_29">
      <g>
       <use style="stroke:#000000;stroke-width:0.6;" x="541.243343" xlink:href="#mddef11335b" y="299.518125"/>
      </g>
     </g>
    </g>
    <g id="xtick_30">
     <g id="line2d_30">
      <g>
       <use style="stroke:#000000;stroke-width:0.6;" x="549.772841" xlink:href="#mddef11335b" y="299.518125"/>
      </g>
     </g>
    </g>
   </g>
   <g id="matplotlib.axis_2">
    <g id="ytick_1">
     <g id="line2d_31">
      <defs>
       <path d="M 0 0 
L -3.5 0 
" id="m6624655b6b" style="stroke:#000000;stroke-width:0.8;"/>
      </defs>
      <g>
       <use style="stroke:#000000;stroke-width:0.8;" x="31.8" xlink:href="#m6624655b6b" y="286.918125"/>
      </g>
     </g>
     <g id="text_5">
      <!-- $\mathdefault{10^{0}}$ -->
      <g transform="translate(7.2 290.717344)scale(0.1 -0.1)">
       <use transform="translate(0 0.765625)" xlink:href="#DejaVuSans-49"/>
       <use transform="translate(63.623047 0.765625)" xlink:href="#DejaVuSans-48"/>
       <use transform="translate(128.203125 39.046875)scale(0.7)" xlink:href="#DejaVuSans-48"/>
      </g>
     </g>
    </g>
    <g id="ytick_2">
     <g id="line2d_32">
      <g>
       <use style="stroke:#000000;stroke-width:0.8;" x="31.8" xlink:href="#m6624655b6b" y="157.646918"/>
      </g>
     </g>
     <g id="text_6">
      <!-- $\mathdefault{10^{1}}$ -->
      <g transform="translate(7.2 161.446136)scale(0.1 -0.1)">
       <use transform="translate(0 0.684375)" xlink:href="#DejaVuSans-49"/>
       <use transform="translate(63.623047 0.684375)" xlink:href="#DejaVuSans-48"/>
       <use transform="translate(128.203125 38.965625)scale(0.7)" xlink:href="#DejaVuSans-49"/>
      </g>
     </g>
    </g>
    <g id="ytick_3">
     <g id="line2d_33">
      <g>
       <use style="stroke:#000000;stroke-width:0.8;" x="31.8" xlink:href="#m6624655b6b" y="28.37571"/>
      </g>
     </g>
     <g id="text_7">
      <!-- $\mathdefault{10^{2}}$ -->
      <g transform="translate(7.2 32.174929)scale(0.1 -0.1)">
       <use transform="translate(0 0.765625)" xlink:href="#DejaVuSans-49"/>
       <use transform="translate(63.623047 0.765625)" xlink:href="#DejaVuSans-48"/>
       <use transform="translate(128.203125 39.046875)scale(0.7)" xlink:href="#DejaVuSans-50"/>
      </g>
     </g>
    </g>
    <g id="ytick_4">
     <g id="line2d_34">
      <defs>
       <path d="M 0 0 
L -2 0 
" id="mf7a14e94fe" style="stroke:#000000;stroke-width:0.6;"/>
      </defs>
      <g>
       <use style="stroke:#000000;stroke-width:0.6;" x="31.8" xlink:href="#mf7a14e94fe" y="299.445799"/>
      </g>
     </g>
    </g>
    <g id="ytick_5">
     <g id="line2d_35">
      <g>
       <use style="stroke:#000000;stroke-width:0.6;" x="31.8" xlink:href="#mf7a14e94fe" y="292.833251"/>
      </g>
     </g>
    </g>
    <g id="ytick_6">
     <g id="line2d_36">
      <g>
       <use style="stroke:#000000;stroke-width:0.6;" x="31.8" xlink:href="#mf7a14e94fe" y="248.003614"/>
      </g>
     </g>
    </g>
    <g id="ytick_7">
     <g id="line2d_37">
      <g>
       <use style="stroke:#000000;stroke-width:0.6;" x="31.8" xlink:href="#mf7a14e94fe" y="225.240084"/>
      </g>
     </g>
    </g>
    <g id="ytick_8">
     <g id="line2d_38">
      <g>
       <use style="stroke:#000000;stroke-width:0.6;" x="31.8" xlink:href="#mf7a14e94fe" y="209.089103"/>
      </g>
     </g>
    </g>
    <g id="ytick_9">
     <g id="line2d_39">
      <g>
       <use style="stroke:#000000;stroke-width:0.6;" x="31.8" xlink:href="#mf7a14e94fe" y="196.561429"/>
      </g>
     </g>
    </g>
    <g id="ytick_10">
     <g id="line2d_40">
      <g>
       <use style="stroke:#000000;stroke-width:0.6;" x="31.8" xlink:href="#mf7a14e94fe" y="186.325573"/>
      </g>
     </g>
    </g>
    <g id="ytick_11">
     <g id="line2d_41">
      <g>
       <use style="stroke:#000000;stroke-width:0.6;" x="31.8" xlink:href="#mf7a14e94fe" y="177.671281"/>
      </g>
     </g>
    </g>
    <g id="ytick_12">
     <g id="line2d_42">
      <g>
       <use style="stroke:#000000;stroke-width:0.6;" x="31.8" xlink:href="#mf7a14e94fe" y="170.174592"/>
      </g>
     </g>
    </g>
    <g id="ytick_13">
     <g id="line2d_43">
      <g>
       <use style="stroke:#000000;stroke-width:0.6;" x="31.8" xlink:href="#mf7a14e94fe" y="163.562044"/>
      </g>
     </g>
    </g>
    <g id="ytick_14">
     <g id="line2d_44">
      <g>
       <use style="stroke:#000000;stroke-width:0.6;" x="31.8" xlink:href="#mf7a14e94fe" y="118.732406"/>
      </g>
     </g>
    </g>
    <g id="ytick_15">
     <g id="line2d_45">
      <g>
       <use style="stroke:#000000;stroke-width:0.6;" x="31.8" xlink:href="#mf7a14e94fe" y="95.968877"/>
      </g>
     </g>
    </g>
    <g id="ytick_16">
     <g id="line2d_46">
      <g>
       <use style="stroke:#000000;stroke-width:0.6;" x="31.8" xlink:href="#mf7a14e94fe" y="79.817895"/>
      </g>
     </g>
    </g>
    <g id="ytick_17">
     <g id="line2d_47">
      <g>
       <use style="stroke:#000000;stroke-width:0.6;" x="31.8" xlink:href="#mf7a14e94fe" y="67.290221"/>
      </g>
     </g>
    </g>
    <g id="ytick_18">
     <g id="line2d_48">
      <g>
       <use style="stroke:#000000;stroke-width:0.6;" x="31.8" xlink:href="#mf7a14e94fe" y="57.054366"/>
      </g>
     </g>
    </g>
    <g id="ytick_19">
     <g id="line2d_49">
      <g>
       <use style="stroke:#000000;stroke-width:0.6;" x="31.8" xlink:href="#mf7a14e94fe" y="48.400073"/>
      </g>
     </g>
    </g>
    <g id="ytick_20">
     <g id="line2d_50">
      <g>
       <use style="stroke:#000000;stroke-width:0.6;" x="31.8" xlink:href="#mf7a14e94fe" y="40.903384"/>
      </g>
     </g>
    </g>
    <g id="ytick_21">
     <g id="line2d_51">
      <g>
       <use style="stroke:#000000;stroke-width:0.6;" x="31.8" xlink:href="#mf7a14e94fe" y="34.290836"/>
      </g>
     </g>
    </g>
   </g>
   <g id="line2d_52">
    <path clip-path="url(#p0aebaaeb74)" d="M 8.820766 324.39625 
L 223.910003 157.646918 
L 223.910003 186.325573 
L 237.113188 170.174592 
L 248.276322 157.646918 
L 248.276322 157.646918 
L 253.272581 157.646918 
L 266.475766 170.174592 
L 277.6389 152.296035 
L 281.007741 147.411062 
L 281.007741 157.646918 
L 284.226805 163.562044 
L 284.226805 163.562044 
L 290.265053 157.646918 
L 293.105301 170.174592 
L 301.013189 170.174592 
L 305.84278 163.562044 
L 314.631372 142.917323 
L 314.631372 147.411062 
L 314.631372 147.411062 
L 331.203399 121.612103 
L 340.460711 108.496551 
L 341.894759 113.381524 
L 343.300959 115.99324 
L 346.034001 121.612103 
L 348.667638 115.99324 
L 351.208847 138.75677 
L 353.663897 157.646918 
L 354.860899 157.646918 
L 357.197135 152.296035 
L 362.727839 138.75677 
L 363.785041 138.75677 
L 363.785041 142.917323 
L 365.85424 142.917323 
L 366.867082 147.411062 
L 370.782469 134.883388 
L 374.496977 127.856507 
L 376.285143 138.75677 
L 378.887232 131.260081 
L 380.571425 124.647533 
L 388.450604 106.204732 
L 389.928554 110.885923 
L 393.496617 108.496551 
L 393.496617 113.381524 
L 395.556008 113.381524 
L 395.556008 118.732406 
L 400.145047 115.99324 
L 403.859555 110.885923 
L 413.454027 82.697592 
L 415.022688 85.733022 
L 416.558089 81.239282 
L 419.53455 77.078729 
L 420.500125 74.467013 
L 423.781717 74.467013 
L 424.692635 79.817895 
L 426.480801 101.884003 
L 427.358593 104.002812 
L 431.182081 92.34557 
L 433.222132 94.127998 
L 434.813779 90.617994 
L 436.371195 95.968877 
L 438.272013 90.617994 
L 440.124212 88.941996 
L 442.992588 79.817895 
L 445.071689 84.194795 
L 448.409469 77.078729 
L 448.409469 82.697592 
L 450.657629 78.431608 
L 453.144295 74.467013 
L 457.01142 65.088301 
L 460.12966 61.939339 
L 465.476518 49.207883 
L 469.48679 44.526691 
L 469.48679 44.526691 
L 473.054853 38.836583 
L 475.56404 36.843174 
L 479.065243 34.918125 
L 479.914719 39.517097 
L 483.216352 42.324771 
L 483.216352 55.213487 
L 483.216352 55.213487 
L 484.812384 61.939339 
L 485.205956 71.971412 
L 486.180628 87.314584 
L 487.142355 85.733022 
L 487.333178 115.99324 
L 487.333178 115.99324 
L 488.467671 121.612103 
L 488.655037 124.647533 
L 489.399692 127.856507 
L 489.399692 147.411062 
L 490.684692 124.647533 
L 490.684692 124.647533 
L 492.481733 113.381524 
L 492.481733 127.856507 
L 493.363803 113.381524 
L 495.43794 97.87217 
L 495.43794 101.884003 
L 495.43794 101.884003 
L 495.608133 124.647533 
L 496.116325 115.99324 
L 496.955466 104.002812 
L 497.454322 108.496551 
L 497.949765 134.883388 
L 499.092786 113.381524 
L 499.092786 113.381524 
L 499.577183 108.496551 
L 500.218046 106.204732 
L 501.16883 104.002812 
L 502.262527 95.968877 
L 502.88016 94.127998 
L 502.88016 108.496551 
L 502.88016 108.496551 
L 503.796844 101.884003 
L 505.001313 94.127998 
L 505.596117 97.87217 
L 505.891697 108.496551 
L 506.625412 106.204732 
L 506.625412 106.204732 
L 506.771267 104.002812 
L 506.916829 115.99324 
L 507.640282 124.647533 
L 509.628325 99.842259 
L 510.325318 94.127998 
L 510.878123 95.968877 
L 510.878123 95.968877 
L 510.878123 97.87217 
L 511.563246 90.617994 
L 511.835491 95.968877 
L 512.780368 110.885923 
L 513.048084 131.260081 
L 513.048084 131.260081 
L 513.580564 134.883388 
L 514.240706 124.647533 
L 514.503086 142.917323 
L 515.414004 124.647533 
L 515.414004 124.647533 
L 515.92943 124.647533 
L 516.441214 127.856507 
L 516.822691 124.647533 
L 517.075898 142.917323 
L 517.454056 131.260081 
L 517.579671 142.917323 
L 517.830249 152.296035 
L 518.452927 142.917323 
L 518.452927 147.411062 
L 518.700507 142.917323 
L 518.700507 157.646918 
L 518.82398 157.646918 
L 519.193142 152.296035 
L 520.04727 142.917323 
L 521.488452 106.204732 
L 521.725885 106.204732 
L 521.725885 106.204732 
L 521.725885 108.496551 
L 522.550824 99.842259 
L 522.667909 113.381524 
L 522.901512 157.646918 
L 522.901512 157.646918 
L 523.134365 147.411062 
L 523.828463 152.296035 
L 524.058358 147.411062 
L 524.629924 131.260081 
L 524.629924 134.883388 
L 524.629924 134.883388 
L 524.743698 138.75677 
L 524.970711 157.646918 
L 525.197014 157.646918 
L 525.197014 196.561429 
L 525.64751 163.562044 
L 525.64751 170.174592 
L 527.202537 124.647533 
L 527.531457 127.856507 
L 527.531457 127.856507 
L 527.640765 124.647533 
L 528.184848 121.612103 
L 528.832396 152.296035 
L 529.046965 186.325573 
L 529.367632 177.671281 
L 529.580623 177.671281 
L 529.89894 157.646918 
L 530.531407 138.75677 
L 531.262371 131.260081 
L 531.262371 138.75677 
L 531.366195 138.75677 
L 531.883093 138.75677 
L 532.70253 115.99324 
L 533.41201 108.496551 
L 533.713958 108.496551 
L 533.713958 108.496551 
L 534.114606 101.884003 
L 535.5976 84.194795 
L 535.793058 115.99324 
L 535.793058 115.99324 
L 537.050834 95.968877 
L 537.624059 115.99324 
L 539.037578 88.941996 
L 539.037578 88.941996 
L 539.59535 101.884003 
L 540.424035 95.968877 
L 540.88035 94.127998 
L 541.243343 99.842259 
L 541.784445 94.127998 
L 541.784445 95.968877 
L 541.784445 95.968877 
L 542.49968 92.34557 
L 543.031509 97.87217 
L 543.471735 97.87217 
L 543.734593 99.842259 
L 543.996499 106.204732 
L 544.257461 99.842259 
L 544.948799 99.842259 
L 545.633598 95.968877 
L 546.142982 94.127998 
L 546.227532 97.87217 
L 546.564748 95.968877 
L 547.067646 106.204732 
L 547.151124 124.647533 
L 547.567075 127.856507 
L 547.567075 152.296035 
L 547.567075 152.296035 
L 547.980652 152.296035 
L 548.800785 118.732406 
L 550.493414 85.733022 
L 550.493414 85.733022 
L 550.732021 88.941996 
L 550.969844 101.884003 
L 551.756993 131.260081 
L 552.458185 106.204732 
L 552.458185 106.204732 
L 553.229407 92.34557 
L 553.306079 95.968877 
L 554.144161 94.127998 
L 554.371055 97.87217 
L 554.897726 92.34557 
L 554.897726 92.34557 
L 555.271589 101.884003 
L 555.791775 90.617994 
L 556.308251 97.87217 
L 558.123309 66.178466 
L 558.266568 71.971412 
L 558.409543 69.58204 
L 558.409543 69.58204 
L 558.409543 85.733022 
L 558.836783 87.314584 
L 559.120216 138.75677 
L 559.261518 138.75677 
L 559.332065 142.917323 
L 559.332065 142.917323 
L 559.61357 127.856507 
L 560.033786 127.856507 
L 560.451578 121.612103 
L 560.590308 121.612103 
L 560.590308 124.647533 
L 560.590308 124.647533 
L 561.348608 106.204732 
L 561.622397 110.885923 
L 561.895155 121.612103 
L 561.963184 118.732406 
L 561.963184 118.732406 
L 562.234663 124.647533 
L 562.572587 157.646918 
L 562.572587 163.562044 
L 562.572587 163.562044 
L 562.841796 163.562044 
L 563.043048 157.646918 
L 563.510471 131.260081 
L 563.776222 124.647533 
L 564.238952 106.204732 
L 564.238952 106.204732 
L 564.436364 115.99324 
L 564.436364 115.99324 
" style="fill:none;stroke:#1f77b4;stroke-linecap:square;stroke-width:1.5;"/>
   </g>
   <g id="patch_3">
    <path d="M 31.8 299.518125 
L 31.8 22.318125 
" style="fill:none;stroke:#000000;stroke-linecap:square;stroke-linejoin:miter;stroke-width:0.8;"/>
   </g>
   <g id="patch_4">
    <path d="M 589.8 299.518125 
L 589.8 22.318125 
" style="fill:none;stroke:#000000;stroke-linecap:square;stroke-linejoin:miter;stroke-width:0.8;"/>
   </g>
   <g id="patch_5">
    <path d="M 31.8 299.518125 
L 589.8 299.518125 
" style="fill:none;stroke:#000000;stroke-linecap:square;stroke-linejoin:miter;stroke-width:0.8;"/>
   </g>
   <g id="patch_6">
    <path d="M 31.8 22.318125 
L 589.8 22.318125 
" style="fill:none;stroke:#000000;stroke-linecap:square;stroke-linejoin:miter;stroke-width:0.8;"/>
   </g>
   <g id="text_8">
    <!-- Novos Óbitos na semana X Óbitos Totais -->
    <g transform="translate(189.609375 16.318125)scale(0.12 -0.12)">
     <defs>
      <path d="M 9.8125 72.90625 
L 23.09375 72.90625 
L 55.421875 11.921875 
L 55.421875 72.90625 
L 64.984375 72.90625 
L 64.984375 0 
L 51.703125 0 
L 19.390625 60.984375 
L 19.390625 0 
L 9.8125 0 
z
" id="DejaVuSans-78"/>
      <path d="M 30.609375 48.390625 
Q 23.390625 48.390625 19.1875 42.75 
Q 14.984375 37.109375 14.984375 27.296875 
Q 14.984375 17.484375 19.15625 11.84375 
Q 23.34375 6.203125 30.609375 6.203125 
Q 37.796875 6.203125 41.984375 11.859375 
Q 46.1875 17.53125 46.1875 27.296875 
Q 46.1875 37.015625 41.984375 42.703125 
Q 37.796875 48.390625 30.609375 48.390625 
z
M 30.609375 56 
Q 42.328125 56 49.015625 48.375 
Q 55.71875 40.765625 55.71875 27.296875 
Q 55.71875 13.875 49.015625 6.21875 
Q 42.328125 -1.421875 30.609375 -1.421875 
Q 18.84375 -1.421875 12.171875 6.21875 
Q 5.515625 13.875 5.515625 27.296875 
Q 5.515625 40.765625 12.171875 48.375 
Q 18.84375 56 30.609375 56 
z
" id="DejaVuSans-111"/>
      <path d="M 2.984375 54.6875 
L 12.5 54.6875 
L 29.59375 8.796875 
L 46.6875 54.6875 
L 56.203125 54.6875 
L 35.6875 0 
L 23.484375 0 
z
" id="DejaVuSans-118"/>
      <path d="M 44.28125 53.078125 
L 44.28125 44.578125 
Q 40.484375 46.53125 36.375 47.5 
Q 32.28125 48.484375 27.875 48.484375 
Q 21.1875 48.484375 17.84375 46.4375 
Q 14.5 44.390625 14.5 40.28125 
Q 14.5 37.15625 16.890625 35.375 
Q 19.28125 33.59375 26.515625 31.984375 
L 29.59375 31.296875 
Q 39.15625 29.25 43.1875 25.515625 
Q 47.21875 21.78125 47.21875 15.09375 
Q 47.21875 7.46875 41.1875 3.015625 
Q 35.15625 -1.421875 24.609375 -1.421875 
Q 20.21875 -1.421875 15.453125 -0.5625 
Q 10.6875 0.296875 5.421875 2 
L 5.421875 11.28125 
Q 10.40625 8.6875 15.234375 7.390625 
Q 20.0625 6.109375 24.8125 6.109375 
Q 31.15625 6.109375 34.5625 8.28125 
Q 37.984375 10.453125 37.984375 14.40625 
Q 37.984375 18.0625 35.515625 20.015625 
Q 33.0625 21.96875 24.703125 23.78125 
L 21.578125 24.515625 
Q 13.234375 26.265625 9.515625 29.90625 
Q 5.8125 33.546875 5.8125 39.890625 
Q 5.8125 47.609375 11.28125 51.796875 
Q 16.75 56 26.8125 56 
Q 31.78125 56 36.171875 55.265625 
Q 40.578125 54.546875 44.28125 53.078125 
z
" id="DejaVuSans-115"/>
      <path id="DejaVuSans-32"/>
      <path d="M 39.40625 66.21875 
Q 28.65625 66.21875 22.328125 58.203125 
Q 16.015625 50.203125 16.015625 36.375 
Q 16.015625 22.609375 22.328125 14.59375 
Q 28.65625 6.59375 39.40625 6.59375 
Q 50.140625 6.59375 56.421875 14.59375 
Q 62.703125 22.609375 62.703125 36.375 
Q 62.703125 50.203125 56.421875 58.203125 
Q 50.140625 66.21875 39.40625 66.21875 
z
M 39.40625 74.21875 
Q 54.734375 74.21875 63.90625 63.9375 
Q 73.09375 53.65625 73.09375 36.375 
Q 73.09375 19.140625 63.90625 8.859375 
Q 54.734375 -1.421875 39.40625 -1.421875 
Q 24.03125 -1.421875 14.8125 8.828125 
Q 5.609375 19.09375 5.609375 36.375 
Q 5.609375 53.65625 14.8125 63.9375 
Q 24.03125 74.21875 39.40625 74.21875 
z
M 42.09375 92.734375 
L 51.125 92.734375 
L 39.984375 79.84375 
L 32.515625 79.84375 
z
" id="DejaVuSans-211"/>
      <path d="M 48.6875 27.296875 
Q 48.6875 37.203125 44.609375 42.84375 
Q 40.53125 48.484375 33.40625 48.484375 
Q 26.265625 48.484375 22.1875 42.84375 
Q 18.109375 37.203125 18.109375 27.296875 
Q 18.109375 17.390625 22.1875 11.75 
Q 26.265625 6.109375 33.40625 6.109375 
Q 40.53125 6.109375 44.609375 11.75 
Q 48.6875 17.390625 48.6875 27.296875 
z
M 18.109375 46.390625 
Q 20.953125 51.265625 25.265625 53.625 
Q 29.59375 56 35.59375 56 
Q 45.5625 56 51.78125 48.09375 
Q 58.015625 40.1875 58.015625 27.296875 
Q 58.015625 14.40625 51.78125 6.484375 
Q 45.5625 -1.421875 35.59375 -1.421875 
Q 29.59375 -1.421875 25.265625 0.953125 
Q 20.953125 3.328125 18.109375 8.203125 
L 18.109375 0 
L 9.078125 0 
L 9.078125 75.984375 
L 18.109375 75.984375 
z
" id="DejaVuSans-98"/>
      <path d="M 9.421875 54.6875 
L 18.40625 54.6875 
L 18.40625 0 
L 9.421875 0 
z
M 9.421875 75.984375 
L 18.40625 75.984375 
L 18.40625 64.59375 
L 9.421875 64.59375 
z
" id="DejaVuSans-105"/>
      <path d="M 18.3125 70.21875 
L 18.3125 54.6875 
L 36.8125 54.6875 
L 36.8125 47.703125 
L 18.3125 47.703125 
L 18.3125 18.015625 
Q 18.3125 11.328125 20.140625 9.421875 
Q 21.96875 7.515625 27.59375 7.515625 
L 36.8125 7.515625 
L 36.8125 0 
L 27.59375 0 
Q 17.1875 0 13.234375 3.875 
Q 9.28125 7.765625 9.28125 18.015625 
L 9.28125 47.703125 
L 2.6875 47.703125 
L 2.6875 54.6875 
L 9.28125 54.6875 
L 9.28125 70.21875 
z
" id="DejaVuSans-116"/>
      <path d="M 54.890625 33.015625 
L 54.890625 0 
L 45.90625 0 
L 45.90625 32.71875 
Q 45.90625 40.484375 42.875 44.328125 
Q 39.84375 48.1875 33.796875 48.1875 
Q 26.515625 48.1875 22.3125 43.546875 
Q 18.109375 38.921875 18.109375 30.90625 
L 18.109375 0 
L 9.078125 0 
L 9.078125 54.6875 
L 18.109375 54.6875 
L 18.109375 46.1875 
Q 21.34375 51.125 25.703125 53.5625 
Q 30.078125 56 35.796875 56 
Q 45.21875 56 50.046875 50.171875 
Q 54.890625 44.34375 54.890625 33.015625 
z
" id="DejaVuSans-110"/>
      <path d="M 34.28125 27.484375 
Q 23.390625 27.484375 19.1875 25 
Q 14.984375 22.515625 14.984375 16.5 
Q 14.984375 11.71875 18.140625 8.90625 
Q 21.296875 6.109375 26.703125 6.109375 
Q 34.1875 6.109375 38.703125 11.40625 
Q 43.21875 16.703125 43.21875 25.484375 
L 43.21875 27.484375 
z
M 52.203125 31.203125 
L 52.203125 0 
L 43.21875 0 
L 43.21875 8.296875 
Q 40.140625 3.328125 35.546875 0.953125 
Q 30.953125 -1.421875 24.3125 -1.421875 
Q 15.921875 -1.421875 10.953125 3.296875 
Q 6 8.015625 6 15.921875 
Q 6 25.140625 12.171875 29.828125 
Q 18.359375 34.515625 30.609375 34.515625 
L 43.21875 34.515625 
L 43.21875 35.40625 
Q 43.21875 41.609375 39.140625 45 
Q 35.0625 48.390625 27.6875 48.390625 
Q 23 48.390625 18.546875 47.265625 
Q 14.109375 46.140625 10.015625 43.890625 
L 10.015625 52.203125 
Q 14.9375 54.109375 19.578125 55.046875 
Q 24.21875 56 28.609375 56 
Q 40.484375 56 46.34375 49.84375 
Q 52.203125 43.703125 52.203125 31.203125 
z
" id="DejaVuSans-97"/>
      <path d="M 56.203125 29.59375 
L 56.203125 25.203125 
L 14.890625 25.203125 
Q 15.484375 15.921875 20.484375 11.0625 
Q 25.484375 6.203125 34.421875 6.203125 
Q 39.59375 6.203125 44.453125 7.46875 
Q 49.3125 8.734375 54.109375 11.28125 
L 54.109375 2.78125 
Q 49.265625 0.734375 44.1875 -0.34375 
Q 39.109375 -1.421875 33.890625 -1.421875 
Q 20.796875 -1.421875 13.15625 6.1875 
Q 5.515625 13.8125 5.515625 26.8125 
Q 5.515625 40.234375 12.765625 48.109375 
Q 20.015625 56 32.328125 56 
Q 43.359375 56 49.78125 48.890625 
Q 56.203125 41.796875 56.203125 29.59375 
z
M 47.21875 32.234375 
Q 47.125 39.59375 43.09375 43.984375 
Q 39.0625 48.390625 32.421875 48.390625 
Q 24.90625 48.390625 20.390625 44.140625 
Q 15.875 39.890625 15.1875 32.171875 
z
" id="DejaVuSans-101"/>
      <path d="M 52 44.1875 
Q 55.375 50.25 60.0625 53.125 
Q 64.75 56 71.09375 56 
Q 79.640625 56 84.28125 50.015625 
Q 88.921875 44.046875 88.921875 33.015625 
L 88.921875 0 
L 79.890625 0 
L 79.890625 32.71875 
Q 79.890625 40.578125 77.09375 44.375 
Q 74.3125 48.1875 68.609375 48.1875 
Q 61.625 48.1875 57.5625 43.546875 
Q 53.515625 38.921875 53.515625 30.90625 
L 53.515625 0 
L 44.484375 0 
L 44.484375 32.71875 
Q 44.484375 40.625 41.703125 44.40625 
Q 38.921875 48.1875 33.109375 48.1875 
Q 26.21875 48.1875 22.15625 43.53125 
Q 18.109375 38.875 18.109375 30.90625 
L 18.109375 0 
L 9.078125 0 
L 9.078125 54.6875 
L 18.109375 54.6875 
L 18.109375 46.1875 
Q 21.1875 51.21875 25.484375 53.609375 
Q 29.78125 56 35.6875 56 
Q 41.65625 56 45.828125 52.96875 
Q 50 49.953125 52 44.1875 
z
" id="DejaVuSans-109"/>
      <path d="M 6.296875 72.90625 
L 16.890625 72.90625 
L 35.015625 45.796875 
L 53.21875 72.90625 
L 63.8125 72.90625 
L 40.375 37.890625 
L 65.375 0 
L 54.78125 0 
L 34.28125 31 
L 13.625 0 
L 2.984375 0 
L 29 38.921875 
z
" id="DejaVuSans-88"/>
      <path d="M -0.296875 72.90625 
L 61.375 72.90625 
L 61.375 64.59375 
L 35.5 64.59375 
L 35.5 0 
L 25.59375 0 
L 25.59375 64.59375 
L -0.296875 64.59375 
z
" id="DejaVuSans-84"/>
     </defs>
     <use xlink:href="#DejaVuSans-78"/>
     <use x="74.804688" xlink:href="#DejaVuSans-111"/>
     <use x="135.986328" xlink:href="#DejaVuSans-118"/>
     <use x="195.166016" xlink:href="#DejaVuSans-111"/>
     <use x="256.347656" xlink:href="#DejaVuSans-115"/>
     <use x="308.447266" xlink:href="#DejaVuSans-32"/>
     <use x="340.234375" xlink:href="#DejaVuSans-211"/>
     <use x="418.945312" xlink:href="#DejaVuSans-98"/>
     <use x="482.421875" xlink:href="#DejaVuSans-105"/>
     <use x="510.205078" xlink:href="#DejaVuSans-116"/>
     <use x="549.414062" xlink:href="#DejaVuSans-111"/>
     <use x="610.595703" xlink:href="#DejaVuSans-115"/>
     <use x="662.695312" xlink:href="#DejaVuSans-32"/>
     <use x="694.482422" xlink:href="#DejaVuSans-110"/>
     <use x="757.861328" xlink:href="#DejaVuSans-97"/>
     <use x="819.140625" xlink:href="#DejaVuSans-32"/>
     <use x="850.927734" xlink:href="#DejaVuSans-115"/>
     <use x="903.027344" xlink:href="#DejaVuSans-101"/>
     <use x="964.550781" xlink:href="#DejaVuSans-109"/>
     <use x="1061.962891" xlink:href="#DejaVuSans-97"/>
     <use x="1123.242188" xlink:href="#DejaVuSans-110"/>
     <use x="1186.621094" xlink:href="#DejaVuSans-97"/>
     <use x="1247.900391" xlink:href="#DejaVuSans-32"/>
     <use x="1279.6875" xlink:href="#DejaVuSans-88"/>
     <use x="1348.193359" xlink:href="#DejaVuSans-32"/>
     <use x="1379.980469" xlink:href="#DejaVuSans-211"/>
     <use x="1458.691406" xlink:href="#DejaVuSans-98"/>
     <use x="1522.167969" xlink:href="#DejaVuSans-105"/>
     <use x="1549.951172" xlink:href="#DejaVuSans-116"/>
     <use x="1589.160156" xlink:href="#DejaVuSans-111"/>
     <use x="1650.341797" xlink:href="#DejaVuSans-115"/>
     <use x="1702.441406" xlink:href="#DejaVuSans-32"/>
     <use x="1734.228516" xlink:href="#DejaVuSans-84"/>
     <use x="1778.3125" xlink:href="#DejaVuSans-111"/>
     <use x="1839.494141" xlink:href="#DejaVuSans-116"/>
     <use x="1878.703125" xlink:href="#DejaVuSans-97"/>
     <use x="1939.982422" xlink:href="#DejaVuSans-105"/>
     <use x="1967.765625" xlink:href="#DejaVuSans-115"/>
    </g>
   </g>
  </g>
 </g>
 <defs>
  <clipPath id="p0aebaaeb74">
   <rect height="277.2" width="558" x="31.8" y="22.318125"/>
  </clipPath>
 </defs>
</svg>
