<?xml version="1.0" encoding="utf-8" standalone="no"?>
<!DOCTYPE svg PUBLIC "-//W3C//DTD SVG 1.1//EN"
  "http://www.w3.org/Graphics/SVG/1.1/DTD/svg11.dtd">
<svg xmlns:xlink="http://www.w3.org/1999/xlink" width="705.6pt" height="340.273125pt" viewBox="0 0 705.6 340.273125" xmlns="http://www.w3.org/2000/svg" version="1.1">
 <metadata>
  <rdf:RDF xmlns:dc="http://purl.org/dc/elements/1.1/" xmlns:cc="http://creativecommons.org/ns#" xmlns:rdf="http://www.w3.org/1999/02/22-rdf-syntax-ns#">
   <cc:Work>
    <dc:type rdf:resource="http://purl.org/dc/dcmitype/StillImage"/>
    <dc:date>2022-02-18T11:33:51.614922</dc:date>
    <dc:format>image/svg+xml</dc:format>
    <dc:creator>
     <cc:Agent>
      <dc:title>Matplotlib v3.5.1, https://matplotlib.org/</dc:title>
     </cc:Agent>
    </dc:creator>
   </cc:Work>
  </rdf:RDF>
 </metadata>
 <defs>
  <style type="text/css">*{stroke-linejoin: round; stroke-linecap: butt}</style>
 </defs>
 <g id="figure_1">
  <g id="patch_1">
   <path d="M 0 340.273125 
L 705.6 340.273125 
L 705.6 0 
L 0 0 
z
" style="fill: #ffffff"/>
  </g>
  <g id="axes_1">
   <g id="patch_2">
    <path d="M 82.8 298.989375 
L 640.8 298.989375 
L 640.8 21.789375 
L 82.8 21.789375 
z
" style="fill: #ffffff"/>
   </g>
   <g id="matplotlib.axis_1">
    <g id="xtick_1">
     <g id="line2d_1">
      <path d="M 108.163636 298.989375 
L 108.163636 21.789375 
" clip-path="url(#p35f9b8d2df)" style="fill: none; stroke: #cccccc; stroke-width: 0.8; stroke-linecap: round"/>
     </g>
     <g id="text_1">
      <!-- $\mathdefault{10^{0}}$ -->
      <g style="fill: #262626" transform="translate(100.313636 316.301875)scale(0.1 -0.1)">
       <defs>
        <path id="ArialMT-31" d="M 2384 0 
L 1822 0 
L 1822 3584 
Q 1619 3391 1289 3197 
Q 959 3003 697 2906 
L 697 3450 
Q 1169 3672 1522 3987 
Q 1875 4303 2022 4600 
L 2384 4600 
L 2384 0 
z
" transform="scale(0.015625)"/>
        <path id="ArialMT-30" d="M 266 2259 
Q 266 3072 433 3567 
Q 600 4063 929 4331 
Q 1259 4600 1759 4600 
Q 2128 4600 2406 4451 
Q 2684 4303 2865 4023 
Q 3047 3744 3150 3342 
Q 3253 2941 3253 2259 
Q 3253 1453 3087 958 
Q 2922 463 2592 192 
Q 2263 -78 1759 -78 
Q 1097 -78 719 397 
Q 266 969 266 2259 
z
M 844 2259 
Q 844 1131 1108 757 
Q 1372 384 1759 384 
Q 2147 384 2411 759 
Q 2675 1134 2675 2259 
Q 2675 3391 2411 3762 
Q 2147 4134 1753 4134 
Q 1366 4134 1134 3806 
Q 844 3388 844 2259 
z
" transform="scale(0.015625)"/>
       </defs>
       <use xlink:href="#ArialMT-31" transform="translate(0 0.99375)"/>
       <use xlink:href="#ArialMT-30" transform="translate(55.615234 0.99375)"/>
       <use xlink:href="#ArialMT-30" transform="translate(112.972813 70.6875)scale(0.7)"/>
      </g>
     </g>
    </g>
    <g id="xtick_2">
     <g id="line2d_2">
      <path d="M 258.075104 298.989375 
L 258.075104 21.789375 
" clip-path="url(#p35f9b8d2df)" style="fill: none; stroke: #cccccc; stroke-width: 0.8; stroke-linecap: round"/>
     </g>
     <g id="text_2">
      <!-- $\mathdefault{10^{1}}$ -->
      <g style="fill: #262626" transform="translate(250.225104 316.301875)scale(0.1 -0.1)">
       <use xlink:href="#ArialMT-31" transform="translate(0 0.99375)"/>
       <use xlink:href="#ArialMT-30" transform="translate(55.615234 0.99375)"/>
       <use xlink:href="#ArialMT-31" transform="translate(112.972813 70.6875)scale(0.7)"/>
      </g>
     </g>
    </g>
    <g id="xtick_3">
     <g id="line2d_3">
      <path d="M 407.986571 298.989375 
L 407.986571 21.789375 
" clip-path="url(#p35f9b8d2df)" style="fill: none; stroke: #cccccc; stroke-width: 0.8; stroke-linecap: round"/>
     </g>
     <g id="text_3">
      <!-- $\mathdefault{10^{2}}$ -->
      <g style="fill: #262626" transform="translate(400.136571 316.301875)scale(0.1 -0.1)">
       <defs>
        <path id="ArialMT-32" d="M 3222 541 
L 3222 0 
L 194 0 
Q 188 203 259 391 
Q 375 700 629 1000 
Q 884 1300 1366 1694 
Q 2113 2306 2375 2664 
Q 2638 3022 2638 3341 
Q 2638 3675 2398 3904 
Q 2159 4134 1775 4134 
Q 1369 4134 1125 3890 
Q 881 3647 878 3216 
L 300 3275 
Q 359 3922 746 4261 
Q 1134 4600 1788 4600 
Q 2447 4600 2831 4234 
Q 3216 3869 3216 3328 
Q 3216 3053 3103 2787 
Q 2991 2522 2730 2228 
Q 2469 1934 1863 1422 
Q 1356 997 1212 845 
Q 1069 694 975 541 
L 3222 541 
z
" transform="scale(0.015625)"/>
       </defs>
       <use xlink:href="#ArialMT-31" transform="translate(0 0.99375)"/>
       <use xlink:href="#ArialMT-30" transform="translate(55.615234 0.99375)"/>
       <use xlink:href="#ArialMT-32" transform="translate(112.972813 70.6875)scale(0.7)"/>
      </g>
     </g>
    </g>
    <g id="xtick_4">
     <g id="line2d_4">
      <path d="M 557.898039 298.989375 
L 557.898039 21.789375 
" clip-path="url(#p35f9b8d2df)" style="fill: none; stroke: #cccccc; stroke-width: 0.8; stroke-linecap: round"/>
     </g>
     <g id="text_4">
      <!-- $\mathdefault{10^{3}}$ -->
      <g style="fill: #262626" transform="translate(550.048039 316.301875)scale(0.1 -0.1)">
       <defs>
        <path id="ArialMT-33" d="M 269 1209 
L 831 1284 
Q 928 806 1161 595 
Q 1394 384 1728 384 
Q 2125 384 2398 659 
Q 2672 934 2672 1341 
Q 2672 1728 2419 1979 
Q 2166 2231 1775 2231 
Q 1616 2231 1378 2169 
L 1441 2663 
Q 1497 2656 1531 2656 
Q 1891 2656 2178 2843 
Q 2466 3031 2466 3422 
Q 2466 3731 2256 3934 
Q 2047 4138 1716 4138 
Q 1388 4138 1169 3931 
Q 950 3725 888 3313 
L 325 3413 
Q 428 3978 793 4289 
Q 1159 4600 1703 4600 
Q 2078 4600 2393 4439 
Q 2709 4278 2876 4000 
Q 3044 3722 3044 3409 
Q 3044 3113 2884 2869 
Q 2725 2625 2413 2481 
Q 2819 2388 3044 2092 
Q 3269 1797 3269 1353 
Q 3269 753 2831 336 
Q 2394 -81 1725 -81 
Q 1122 -81 723 278 
Q 325 638 269 1209 
z
" transform="scale(0.015625)"/>
       </defs>
       <use xlink:href="#ArialMT-31" transform="translate(0 0.99375)"/>
       <use xlink:href="#ArialMT-30" transform="translate(55.615234 0.99375)"/>
       <use xlink:href="#ArialMT-33" transform="translate(112.972813 70.6875)scale(0.7)"/>
      </g>
     </g>
    </g>
    <g id="xtick_5"/>
    <g id="xtick_6"/>
    <g id="xtick_7"/>
    <g id="xtick_8"/>
    <g id="xtick_9"/>
    <g id="xtick_10"/>
    <g id="xtick_11"/>
    <g id="xtick_12"/>
    <g id="xtick_13"/>
    <g id="xtick_14"/>
    <g id="xtick_15"/>
    <g id="xtick_16"/>
    <g id="xtick_17"/>
    <g id="xtick_18"/>
    <g id="xtick_19"/>
    <g id="xtick_20"/>
    <g id="xtick_21"/>
    <g id="xtick_22"/>
    <g id="xtick_23"/>
    <g id="xtick_24"/>
    <g id="xtick_25"/>
    <g id="xtick_26"/>
    <g id="xtick_27"/>
    <g id="xtick_28"/>
    <g id="xtick_29"/>
    <g id="xtick_30"/>
    <g id="xtick_31"/>
    <g id="xtick_32"/>
    <g id="xtick_33"/>
   </g>
   <g id="matplotlib.axis_2">
    <g id="ytick_1">
     <g id="line2d_5">
      <path d="M 82.8 286.389375 
L 640.8 286.389375 
" clip-path="url(#p35f9b8d2df)" style="fill: none; stroke: #cccccc; stroke-width: 0.8; stroke-linecap: round"/>
     </g>
     <g id="text_5">
      <!-- $\mathdefault{10^{0}}$ -->
      <g style="fill: #262626" transform="translate(60.1 291.545625)scale(0.1 -0.1)">
       <use xlink:href="#ArialMT-31" transform="translate(0 0.99375)"/>
       <use xlink:href="#ArialMT-30" transform="translate(55.615234 0.99375)"/>
       <use xlink:href="#ArialMT-30" transform="translate(112.972813 70.6875)scale(0.7)"/>
      </g>
     </g>
    </g>
    <g id="ytick_2">
     <g id="line2d_6">
      <path d="M 82.8 159.834182 
L 640.8 159.834182 
" clip-path="url(#p35f9b8d2df)" style="fill: none; stroke: #cccccc; stroke-width: 0.8; stroke-linecap: round"/>
     </g>
     <g id="text_6">
      <!-- $\mathdefault{10^{1}}$ -->
      <g style="fill: #262626" transform="translate(60.1 164.990432)scale(0.1 -0.1)">
       <use xlink:href="#ArialMT-31" transform="translate(0 0.99375)"/>
       <use xlink:href="#ArialMT-30" transform="translate(55.615234 0.99375)"/>
       <use xlink:href="#ArialMT-31" transform="translate(112.972813 70.6875)scale(0.7)"/>
      </g>
     </g>
    </g>
    <g id="ytick_3">
     <g id="line2d_7">
      <path d="M 82.8 33.278989 
L 640.8 33.278989 
" clip-path="url(#p35f9b8d2df)" style="fill: none; stroke: #cccccc; stroke-width: 0.8; stroke-linecap: round"/>
     </g>
     <g id="text_7">
      <!-- $\mathdefault{10^{2}}$ -->
      <g style="fill: #262626" transform="translate(60.1 38.435239)scale(0.1 -0.1)">
       <use xlink:href="#ArialMT-31" transform="translate(0 0.99375)"/>
       <use xlink:href="#ArialMT-30" transform="translate(55.615234 0.99375)"/>
       <use xlink:href="#ArialMT-32" transform="translate(112.972813 70.6875)scale(0.7)"/>
      </g>
     </g>
    </g>
    <g id="ytick_4"/>
    <g id="ytick_5"/>
    <g id="ytick_6"/>
    <g id="ytick_7"/>
    <g id="ytick_8"/>
    <g id="ytick_9"/>
    <g id="ytick_10"/>
    <g id="ytick_11"/>
    <g id="ytick_12"/>
    <g id="ytick_13"/>
    <g id="ytick_14"/>
    <g id="ytick_15"/>
    <g id="ytick_16"/>
    <g id="ytick_17"/>
    <g id="ytick_18"/>
    <g id="ytick_19"/>
    <g id="ytick_20"/>
    <g id="ytick_21"/>
   </g>
   <g id="line2d_8">
    <path d="M 43.150867 341.273125 
L 258.075104 159.834182 
L 258.075104 187.910293 
L 269.945281 172.098648 
L 279.981372 159.834182 
L 279.981372 159.834182 
L 284.473203 159.834182 
L 296.34338 172.098648 
L 306.379471 154.595723 
L 309.40819 149.813384 
L 309.40819 159.834182 
L 312.302255 165.62503 
L 312.302255 165.62503 
L 317.730875 159.834182 
L 320.284367 172.098648 
L 327.393866 172.098648 
L 331.735856 165.62503 
L 339.637143 145.414059 
L 339.637143 149.813384 
L 339.637143 149.813384 
L 354.536039 124.556466 
L 362.858723 111.716475 
L 364.147987 116.498814 
L 365.412216 119.055657 
L 367.869327 124.556466 
L 370.237069 119.055657 
L 372.521715 141.34092 
L 374.7289 159.834182 
L 375.805052 159.834182 
L 377.905419 154.595723 
L 382.877737 141.34092 
L 383.828202 141.34092 
L 383.828202 145.414059 
L 385.688492 145.414059 
L 386.599077 149.813384 
L 390.119162 137.548919 
L 393.458649 130.669674 
L 395.06628 141.34092 
L 397.405659 134.001738 
L 398.919814 127.528121 
L 406.003503 109.472808 
L 407.332237 114.055646 
L 410.540064 111.716475 
L 410.540064 116.498814 
L 412.391537 116.498814 
L 412.391537 121.737273 
L 416.517261 119.055657 
L 419.856748 114.055646 
L 428.482552 86.459557 
L 429.89284 89.431212 
L 431.273225 85.031887 
L 433.949179 80.958748 
L 434.817268 78.401905 
L 437.767547 78.401905 
L 438.586498 83.640364 
L 440.194128 105.242858 
L 440.983298 107.31715 
L 444.420762 95.904829 
L 446.254847 97.649808 
L 447.6858 94.213551 
L 449.085977 99.45201 
L 450.794887 94.213551 
L 452.460085 92.572765 
L 455.038867 83.640364 
L 456.908059 87.925303 
L 459.908854 80.958748 
L 459.908854 86.459557 
L 461.930037 82.283203 
L 464.165646 78.401905 
L 467.642342 69.220241 
L 470.445761 66.137439 
L 475.252794 53.673474 
L 478.858184 49.090635 
L 478.858184 49.090635 
L 482.066012 43.520077 
L 484.321869 41.56855 
L 487.469586 39.683947 
L 488.233298 44.186294 
L 491.201595 46.934978 
L 491.201595 59.552899 
L 491.201595 59.552899 
L 492.63649 66.137439 
L 492.990326 75.958737 
L 493.866594 90.979546 
L 494.731224 89.431212 
L 494.902781 119.055657 
L 494.902781 119.055657 
L 495.922735 124.556466 
L 496.091185 127.528121 
L 496.760658 130.669674 
L 496.760658 149.813384 
L 497.915923 127.528121 
L 497.915923 127.528121 
L 499.531533 116.498814 
L 499.531533 130.669674 
L 500.324548 116.498814 
L 502.189278 101.315314 
L 502.189278 105.242858 
L 502.189278 105.242858 
L 502.342288 127.528121 
L 502.799172 119.055657 
L 503.553592 107.31715 
L 504.002083 111.716475 
L 504.447506 137.548919 
L 505.475126 116.498814 
L 505.475126 116.498814 
L 505.910618 111.716475 
L 506.486779 109.472808 
L 507.341571 107.31715 
L 508.324847 99.45201 
L 508.880123 97.649808 
L 508.880123 111.716475 
L 508.880123 111.716475 
L 509.704257 105.242858 
L 510.787122 97.649808 
L 511.321874 101.315314 
L 511.587612 111.716475 
L 512.24725 109.472808 
L 512.24725 109.472808 
L 512.37838 107.31715 
L 512.509245 119.055657 
L 513.159658 127.528121 
L 514.946986 103.244011 
L 515.57361 97.649808 
L 516.070602 99.45201 
L 516.070602 99.45201 
L 516.070602 101.315314 
L 516.686555 94.213551 
L 516.931314 99.45201 
L 517.780795 114.055646 
L 518.021482 134.001738 
L 518.021482 134.001738 
L 518.500202 137.548919 
L 519.093695 127.528121 
L 519.329586 145.414059 
L 520.148536 127.528121 
L 520.148536 127.528121 
L 520.611924 127.528121 
L 521.072037 130.669674 
L 521.415001 127.528121 
L 521.642643 145.414059 
L 521.982622 134.001738 
L 522.095555 145.414059 
L 522.320834 154.595723 
L 522.880646 145.414059 
L 522.880646 149.813384 
L 523.10323 145.414059 
L 523.10323 159.834182 
L 523.214237 159.834182 
L 523.546128 154.595723 
L 524.314022 145.414059 
L 525.609701 109.472808 
L 525.823163 109.472808 
L 525.823163 109.472808 
L 525.823163 111.716475 
L 526.564814 103.244011 
L 526.670078 116.498814 
L 526.880097 159.834182 
L 526.880097 159.834182 
L 527.08944 149.813384 
L 527.713462 154.595723 
L 527.920147 149.813384 
L 528.434007 134.001738 
L 528.536294 141.34092 
L 528.740387 159.834182 
L 528.943843 159.834182 
L 528.943843 197.931091 
L 529.348856 165.62503 
L 529.348856 172.098648 
L 530.746886 127.528121 
L 531.042597 130.669674 
L 531.042597 130.669674 
L 531.14087 127.528121 
L 531.630021 124.556466 
L 532.212193 154.595723 
L 532.405099 187.910293 
L 532.69339 179.43783 
L 532.884878 179.43783 
L 533.171057 159.834182 
L 533.73967 141.34092 
L 534.396835 134.001738 
L 534.396835 141.34092 
L 534.490176 141.34092 
L 534.954887 141.34092 
L 535.691593 119.055657 
L 536.329443 111.716475 
L 536.600906 111.716475 
L 536.600906 111.716475 
L 536.961104 105.242858 
L 538.294374 87.925303 
L 538.470098 119.055657 
L 538.470098 119.055657 
L 539.600887 99.45201 
L 540.116239 119.055657 
L 541.387048 92.572765 
L 541.387048 92.572765 
L 541.888507 105.242858 
L 542.633526 99.45201 
L 543.043771 97.649808 
L 543.370117 103.244011 
L 543.856588 97.649808 
L 543.856588 99.45201 
L 543.856588 99.45201 
L 544.499612 95.904829 
L 544.977747 101.315314 
L 545.373528 101.315314 
L 545.609846 103.244011 
L 545.84531 109.472808 
L 546.079926 103.244011 
L 546.701465 103.244011 
L 547.317126 99.45201 
L 547.775082 97.649808 
L 547.851096 101.315314 
L 548.154266 99.45201 
L 548.606391 109.472808 
L 548.681441 127.528121 
L 549.055398 130.669674 
L 549.055398 154.595723 
L 549.055398 154.595723 
L 549.427219 154.595723 
L 550.164551 121.737273 
L 551.68629 89.431212 
L 551.68629 89.431212 
L 551.900806 92.572765 
L 552.114618 105.242858 
L 552.822296 134.001738 
L 553.452696 109.472808 
L 553.452696 109.472808 
L 554.146054 95.904829 
L 554.214985 99.45201 
L 554.968453 97.649808 
L 555.17244 101.315314 
L 555.645938 95.904829 
L 555.645938 95.904829 
L 555.982055 105.242858 
L 556.449722 94.213551 
L 556.914055 101.315314 
L 558.545862 70.287502 
L 558.674657 75.958737 
L 558.803198 73.619566 
L 558.803198 73.619566 
L 558.803198 89.431212 
L 559.187303 90.979546 
L 559.44212 141.34092 
L 559.569156 141.34092 
L 559.632581 145.414059 
L 559.632581 145.414059 
L 559.885665 130.669674 
L 560.263455 130.669674 
L 560.639066 124.556466 
L 560.76379 124.556466 
L 560.76379 127.528121 
L 560.76379 127.528121 
L 561.445532 109.472808 
L 561.691678 114.055646 
L 561.936898 124.556466 
L 561.998059 121.737273 
L 561.998059 121.737273 
L 562.242129 127.528121 
L 562.545936 159.834182 
L 562.545936 165.62503 
L 562.545936 165.62503 
L 562.787965 165.62503 
L 562.968898 159.834182 
L 563.38913 134.001738 
L 563.628051 127.528121 
L 564.044063 109.472808 
L 564.044063 109.472808 
L 564.221544 119.055657 
L 564.692473 116.498814 
L 564.868197 119.055657 
L 564.985084 134.001738 
L 564.985084 134.001738 
L 565.276385 121.737273 
L 565.392541 121.737273 
L 565.912696 119.055657 
L 566.314408 109.472808 
L 566.428729 109.472808 
L 566.428729 109.472808 
L 566.542849 116.498814 
L 566.827278 109.472808 
L 567.05393 121.737273 
L 567.392436 124.556466 
L 568.286606 97.649808 
L 568.729127 92.572765 
L 568.949265 92.572765 
L 569.659616 82.283203 
L 569.768216 89.431212 
L 570.146896 80.958748 
L 571.004267 80.958748 
L 571.534447 73.619566 
L 571.745316 85.031887 
L 572.112701 78.401905 
L 572.321709 82.283203 
L 572.737721 82.283203 
L 573.510651 73.619566 
L 573.868236 77.166747 
L 574.979454 58.673485 
L 576.317799 43.520077 
L 576.41585 44.860685 
L 576.513753 43.520077 
L 577.629186 34.389375 
L 578.06051 37.861828 
L 578.06051 42.211391 
L 578.72583 71.375898 
L 578.72583 73.619566 
L 579.055957 68.17331 
L 579.990058 71.375898 
L 580.175281 77.166747 
L 580.267695 74.776708 
L 580.498158 75.958737 
L 580.727808 79.66546 
L 581.002323 72.486284 
L 581.184692 75.958737 
L 581.683589 87.925303 
L 581.909103 86.459557 
L 582.536417 71.375898 
L 582.803426 70.287502 
L 583.201898 77.166747 
L 583.597947 79.66546 
L 584.078756 72.486284 
L 584.165796 87.925303 
L 584.469522 86.459557 
L 585.201297 69.220241 
L 585.329584 69.220241 
L 585.414968 70.287502 
L 585.797819 70.287502 
L 586.009545 77.166747 
L 586.30481 71.375898 
L 587.38993 53.673474 
L 587.555278 70.287502 
L 587.802516 73.619566 
L 588.048817 72.486284 
L 588.538643 67.145949 
L 588.782181 92.572765 
L 589.065162 87.925303 
L 589.145789 85.031887 
L 589.38707 85.031887 
L 589.66744 83.640364 
L 589.986391 89.431212 
L 590.343352 85.031887 
L 590.501376 87.925303 
L 590.737695 83.640364 
L 591.01232 82.283203 
L 591.246795 83.640364 
L 591.402643 89.431212 
L 591.402643 105.242858 
L 591.596931 103.244011 
L 591.751945 99.45201 
L 591.751945 107.31715 
L 592.022334 107.31715 
L 592.750636 90.979546 
L 593.168591 75.958737 
L 593.319912 77.166747 
L 593.39544 89.431212 
L 594.480873 67.145949 
L 594.851003 65.147102 
L 595.035282 71.375898 
L 595.292399 68.17331 
L 595.292399 68.17331 
L 595.912632 54.475856 
L 596.057715 79.66546 
L 596.419013 79.66546 
L 596.706614 85.031887 
L 596.706614 85.031887 
L 596.84994 107.31715 
L 596.992951 107.31715 
L 597.242467 114.055646 
L 597.561874 101.315314 
L 597.632641 107.31715 
L 597.632641 107.31715 
L 598.160957 87.925303 
L 598.580544 77.166747 
L 599.066669 69.220241 
L 599.13582 79.66546 
L 599.13582 79.66546 
L 599.446094 87.925303 
L 599.789118 90.979546 
L 600.300288 89.431212 
L 600.605075 79.66546 
L 600.605075 79.66546 
L 600.874804 80.958748 
L 601.00925 89.431212 
L 601.344157 97.649808 
L 601.644107 90.979546 
L 601.743784 92.572765 
L 601.743784 92.572765 
L 602.107967 114.055646 
L 602.140973 149.813384 
L 602.140973 149.813384 
L 602.305756 145.414059 
L 602.371553 149.813384 
L 602.535754 149.813384 
L 602.764942 124.556466 
L 602.764942 124.556466 
L 603.025887 116.498814 
L 603.253359 105.242858 
L 603.318206 109.472808 
L 603.544661 97.649808 
L 603.770331 97.649808 
L 603.770331 97.649808 
L 603.834664 109.472808 
L 604.059333 109.472808 
L 604.315152 97.649808 
L 604.569969 109.472808 
L 604.569969 109.472808 
L 604.665269 107.31715 
L 604.855451 109.472808 
L 605.04508 124.556466 
L 605.139687 127.528121 
L 605.139687 127.528121 
L 605.234157 187.910293 
L 605.265617 210.195557 
L 605.328491 197.931091 
L 605.359905 197.931091 
L 605.359905 210.195557 
L 605.673215 149.813384 
L 605.985025 121.737273 
L 606.047208 130.669674 
L 606.047208 130.669674 
L 606.449957 116.498814 
L 606.635004 119.055657 
L 606.69657 119.055657 
L 606.69657 119.055657 
L 606.880918 172.098648 
L 607.034144 159.834182 
L 607.064746 286.389375 
L 607.095334 286.389375 
L 607.278558 210.195557 
L 607.309046 210.195557 
L 607.309046 210.195557 
L 607.430853 172.098648 
L 607.461269 187.910293 
L 607.491671 187.910293 
L 607.491671 187.910293 
L 607.491671 248.292466 
L 607.522058 248.292466 
L 607.855391 149.813384 
L 607.946004 141.34092 
L 608.156946 226.007203 
L 608.21709 210.195557 
L 608.307202 197.931091 
L 608.307202 226.007203 
L 608.397189 187.910293 
L 608.606677 159.834182 
L 608.666407 197.931091 
L 608.666407 286.389375 
L 608.726082 248.292466 
L 608.934516 165.62503 
L 610.52039 60.446613 
L 610.982955 47.644177 
L 611.499442 40.304995 
L 611.699196 210.195557 
L 611.699196 226.007203 
L 611.727683 226.007203 
L 612.15349 154.595723 
L 612.181779 159.834182 
L 612.74498 111.716475 
L 613.636091 77.166747 
L 613.746627 75.958737 
L 613.829406 78.401905 
L 614.296509 72.486284 
L 614.624224 85.031887 
L 614.733096 83.640364 
L 614.787464 86.459557 
L 614.896064 85.031887 
L 615.085679 86.459557 
L 615.220782 92.572765 
L 615.436364 89.431212 
L 615.436364 89.431212 
" clip-path="url(#p35f9b8d2df)" style="fill: none; stroke: #1f77b4; stroke-width: 1.5; stroke-linecap: round"/>
   </g>
   <g id="patch_3">
    <path d="M 82.8 298.989375 
L 82.8 21.789375 
" style="fill: none; stroke: #cccccc; stroke-width: 0.8; stroke-linejoin: miter; stroke-linecap: square"/>
   </g>
   <g id="patch_4">
    <path d="M 640.8 298.989375 
L 640.8 21.789375 
" style="fill: none; stroke: #cccccc; stroke-width: 0.8; stroke-linejoin: miter; stroke-linecap: square"/>
   </g>
   <g id="patch_5">
    <path d="M 82.8 298.989375 
L 640.8 298.989375 
" style="fill: none; stroke: #cccccc; stroke-width: 0.8; stroke-linejoin: miter; stroke-linecap: square"/>
   </g>
   <g id="patch_6">
    <path d="M 82.8 21.789375 
L 640.8 21.789375 
" style="fill: none; stroke: #cccccc; stroke-width: 0.8; stroke-linejoin: miter; stroke-linecap: square"/>
   </g>
   <g id="text_8">
    <!-- Novos Óbitos na semana X Óbitos Totais -->
    <g style="fill: #262626" transform="translate(252.527813 15.789375)scale(0.12 -0.12)">
     <defs>
      <path id="ArialMT-4e" d="M 488 0 
L 488 4581 
L 1109 4581 
L 3516 984 
L 3516 4581 
L 4097 4581 
L 4097 0 
L 3475 0 
L 1069 3600 
L 1069 0 
L 488 0 
z
" transform="scale(0.015625)"/>
      <path id="ArialMT-6f" d="M 213 1659 
Q 213 2581 725 3025 
Q 1153 3394 1769 3394 
Q 2453 3394 2887 2945 
Q 3322 2497 3322 1706 
Q 3322 1066 3130 698 
Q 2938 331 2570 128 
Q 2203 -75 1769 -75 
Q 1072 -75 642 372 
Q 213 819 213 1659 
z
M 791 1659 
Q 791 1022 1069 705 
Q 1347 388 1769 388 
Q 2188 388 2466 706 
Q 2744 1025 2744 1678 
Q 2744 2294 2464 2611 
Q 2184 2928 1769 2928 
Q 1347 2928 1069 2612 
Q 791 2297 791 1659 
z
" transform="scale(0.015625)"/>
      <path id="ArialMT-76" d="M 1344 0 
L 81 3319 
L 675 3319 
L 1388 1331 
Q 1503 1009 1600 663 
Q 1675 925 1809 1294 
L 2547 3319 
L 3125 3319 
L 1869 0 
L 1344 0 
z
" transform="scale(0.015625)"/>
      <path id="ArialMT-73" d="M 197 991 
L 753 1078 
Q 800 744 1014 566 
Q 1228 388 1613 388 
Q 2000 388 2187 545 
Q 2375 703 2375 916 
Q 2375 1106 2209 1216 
Q 2094 1291 1634 1406 
Q 1016 1563 777 1677 
Q 538 1791 414 1992 
Q 291 2194 291 2438 
Q 291 2659 392 2848 
Q 494 3038 669 3163 
Q 800 3259 1026 3326 
Q 1253 3394 1513 3394 
Q 1903 3394 2198 3281 
Q 2494 3169 2634 2976 
Q 2775 2784 2828 2463 
L 2278 2388 
Q 2241 2644 2061 2787 
Q 1881 2931 1553 2931 
Q 1166 2931 1000 2803 
Q 834 2675 834 2503 
Q 834 2394 903 2306 
Q 972 2216 1119 2156 
Q 1203 2125 1616 2013 
Q 2213 1853 2448 1751 
Q 2684 1650 2818 1456 
Q 2953 1263 2953 975 
Q 2953 694 2789 445 
Q 2625 197 2315 61 
Q 2006 -75 1616 -75 
Q 969 -75 630 194 
Q 291 463 197 991 
z
" transform="scale(0.015625)"/>
      <path id="ArialMT-20" transform="scale(0.015625)"/>
      <path id="ArialMT-d3" d="M 309 2231 
Q 309 3372 921 4017 
Q 1534 4663 2503 4663 
Q 3138 4663 3647 4359 
Q 4156 4056 4423 3514 
Q 4691 2972 4691 2284 
Q 4691 1588 4409 1038 
Q 4128 488 3612 205 
Q 3097 -78 2500 -78 
Q 1853 -78 1343 234 
Q 834 547 571 1087 
Q 309 1628 309 2231 
z
M 934 2222 
Q 934 1394 1379 917 
Q 1825 441 2497 441 
Q 3181 441 3623 922 
Q 4066 1403 4066 2288 
Q 4066 2847 3877 3264 
Q 3688 3681 3323 3911 
Q 2959 4141 2506 4141 
Q 1863 4141 1398 3698 
Q 934 3256 934 2222 
z
M 2118 4883 
L 2533 5758 
L 3271 5758 
L 2583 4883 
L 2118 4883 
z
" transform="scale(0.015625)"/>
      <path id="ArialMT-62" d="M 941 0 
L 419 0 
L 419 4581 
L 981 4581 
L 981 2947 
Q 1338 3394 1891 3394 
Q 2197 3394 2470 3270 
Q 2744 3147 2920 2923 
Q 3097 2700 3197 2384 
Q 3297 2069 3297 1709 
Q 3297 856 2875 390 
Q 2453 -75 1863 -75 
Q 1275 -75 941 416 
L 941 0 
z
M 934 1684 
Q 934 1088 1097 822 
Q 1363 388 1816 388 
Q 2184 388 2453 708 
Q 2722 1028 2722 1663 
Q 2722 2313 2464 2622 
Q 2206 2931 1841 2931 
Q 1472 2931 1203 2611 
Q 934 2291 934 1684 
z
" transform="scale(0.015625)"/>
      <path id="ArialMT-69" d="M 425 3934 
L 425 4581 
L 988 4581 
L 988 3934 
L 425 3934 
z
M 425 0 
L 425 3319 
L 988 3319 
L 988 0 
L 425 0 
z
" transform="scale(0.015625)"/>
      <path id="ArialMT-74" d="M 1650 503 
L 1731 6 
Q 1494 -44 1306 -44 
Q 1000 -44 831 53 
Q 663 150 594 308 
Q 525 466 525 972 
L 525 2881 
L 113 2881 
L 113 3319 
L 525 3319 
L 525 4141 
L 1084 4478 
L 1084 3319 
L 1650 3319 
L 1650 2881 
L 1084 2881 
L 1084 941 
Q 1084 700 1114 631 
Q 1144 563 1211 522 
Q 1278 481 1403 481 
Q 1497 481 1650 503 
z
" transform="scale(0.015625)"/>
      <path id="ArialMT-6e" d="M 422 0 
L 422 3319 
L 928 3319 
L 928 2847 
Q 1294 3394 1984 3394 
Q 2284 3394 2536 3286 
Q 2788 3178 2913 3003 
Q 3038 2828 3088 2588 
Q 3119 2431 3119 2041 
L 3119 0 
L 2556 0 
L 2556 2019 
Q 2556 2363 2490 2533 
Q 2425 2703 2258 2804 
Q 2091 2906 1866 2906 
Q 1506 2906 1245 2678 
Q 984 2450 984 1813 
L 984 0 
L 422 0 
z
" transform="scale(0.015625)"/>
      <path id="ArialMT-61" d="M 2588 409 
Q 2275 144 1986 34 
Q 1697 -75 1366 -75 
Q 819 -75 525 192 
Q 231 459 231 875 
Q 231 1119 342 1320 
Q 453 1522 633 1644 
Q 813 1766 1038 1828 
Q 1203 1872 1538 1913 
Q 2219 1994 2541 2106 
Q 2544 2222 2544 2253 
Q 2544 2597 2384 2738 
Q 2169 2928 1744 2928 
Q 1347 2928 1158 2789 
Q 969 2650 878 2297 
L 328 2372 
Q 403 2725 575 2942 
Q 747 3159 1072 3276 
Q 1397 3394 1825 3394 
Q 2250 3394 2515 3294 
Q 2781 3194 2906 3042 
Q 3031 2891 3081 2659 
Q 3109 2516 3109 2141 
L 3109 1391 
Q 3109 606 3145 398 
Q 3181 191 3288 0 
L 2700 0 
Q 2613 175 2588 409 
z
M 2541 1666 
Q 2234 1541 1622 1453 
Q 1275 1403 1131 1340 
Q 988 1278 909 1158 
Q 831 1038 831 891 
Q 831 666 1001 516 
Q 1172 366 1500 366 
Q 1825 366 2078 508 
Q 2331 650 2450 897 
Q 2541 1088 2541 1459 
L 2541 1666 
z
" transform="scale(0.015625)"/>
      <path id="ArialMT-65" d="M 2694 1069 
L 3275 997 
Q 3138 488 2766 206 
Q 2394 -75 1816 -75 
Q 1088 -75 661 373 
Q 234 822 234 1631 
Q 234 2469 665 2931 
Q 1097 3394 1784 3394 
Q 2450 3394 2872 2941 
Q 3294 2488 3294 1666 
Q 3294 1616 3291 1516 
L 816 1516 
Q 847 969 1125 678 
Q 1403 388 1819 388 
Q 2128 388 2347 550 
Q 2566 713 2694 1069 
z
M 847 1978 
L 2700 1978 
Q 2663 2397 2488 2606 
Q 2219 2931 1791 2931 
Q 1403 2931 1139 2672 
Q 875 2413 847 1978 
z
" transform="scale(0.015625)"/>
      <path id="ArialMT-6d" d="M 422 0 
L 422 3319 
L 925 3319 
L 925 2853 
Q 1081 3097 1340 3245 
Q 1600 3394 1931 3394 
Q 2300 3394 2536 3241 
Q 2772 3088 2869 2813 
Q 3263 3394 3894 3394 
Q 4388 3394 4653 3120 
Q 4919 2847 4919 2278 
L 4919 0 
L 4359 0 
L 4359 2091 
Q 4359 2428 4304 2576 
Q 4250 2725 4106 2815 
Q 3963 2906 3769 2906 
Q 3419 2906 3187 2673 
Q 2956 2441 2956 1928 
L 2956 0 
L 2394 0 
L 2394 2156 
Q 2394 2531 2256 2718 
Q 2119 2906 1806 2906 
Q 1569 2906 1367 2781 
Q 1166 2656 1075 2415 
Q 984 2175 984 1722 
L 984 0 
L 422 0 
z
" transform="scale(0.015625)"/>
      <path id="ArialMT-58" d="M 28 0 
L 1800 2388 
L 238 4581 
L 959 4581 
L 1791 3406 
Q 2050 3041 2159 2844 
Q 2313 3094 2522 3366 
L 3444 4581 
L 4103 4581 
L 2494 2422 
L 4228 0 
L 3478 0 
L 2325 1634 
Q 2228 1775 2125 1941 
Q 1972 1691 1906 1597 
L 756 0 
L 28 0 
z
" transform="scale(0.015625)"/>
      <path id="ArialMT-54" d="M 1659 0 
L 1659 4041 
L 150 4041 
L 150 4581 
L 3781 4581 
L 3781 4041 
L 2266 4041 
L 2266 0 
L 1659 0 
z
" transform="scale(0.015625)"/>
     </defs>
     <use xlink:href="#ArialMT-4e"/>
     <use xlink:href="#ArialMT-6f" x="72.216797"/>
     <use xlink:href="#ArialMT-76" x="127.832031"/>
     <use xlink:href="#ArialMT-6f" x="177.832031"/>
     <use xlink:href="#ArialMT-73" x="233.447266"/>
     <use xlink:href="#ArialMT-20" x="283.447266"/>
     <use xlink:href="#ArialMT-d3" x="311.230469"/>
     <use xlink:href="#ArialMT-62" x="389.013672"/>
     <use xlink:href="#ArialMT-69" x="444.628906"/>
     <use xlink:href="#ArialMT-74" x="466.845703"/>
     <use xlink:href="#ArialMT-6f" x="494.628906"/>
     <use xlink:href="#ArialMT-73" x="550.244141"/>
     <use xlink:href="#ArialMT-20" x="600.244141"/>
     <use xlink:href="#ArialMT-6e" x="628.027344"/>
     <use xlink:href="#ArialMT-61" x="683.642578"/>
     <use xlink:href="#ArialMT-20" x="739.257812"/>
     <use xlink:href="#ArialMT-73" x="767.041016"/>
     <use xlink:href="#ArialMT-65" x="817.041016"/>
     <use xlink:href="#ArialMT-6d" x="872.65625"/>
     <use xlink:href="#ArialMT-61" x="955.957031"/>
     <use xlink:href="#ArialMT-6e" x="1011.572266"/>
     <use xlink:href="#ArialMT-61" x="1067.1875"/>
     <use xlink:href="#ArialMT-20" x="1122.802734"/>
     <use xlink:href="#ArialMT-58" x="1150.585938"/>
     <use xlink:href="#ArialMT-20" x="1217.285156"/>
     <use xlink:href="#ArialMT-d3" x="1245.068359"/>
     <use xlink:href="#ArialMT-62" x="1322.851562"/>
     <use xlink:href="#ArialMT-69" x="1378.466797"/>
     <use xlink:href="#ArialMT-74" x="1400.683594"/>
     <use xlink:href="#ArialMT-6f" x="1428.466797"/>
     <use xlink:href="#ArialMT-73" x="1484.082031"/>
     <use xlink:href="#ArialMT-20" x="1534.082031"/>
     <use xlink:href="#ArialMT-54" x="1560.115234"/>
     <use xlink:href="#ArialMT-6f" x="1610.074219"/>
     <use xlink:href="#ArialMT-74" x="1665.689453"/>
     <use xlink:href="#ArialMT-61" x="1693.472656"/>
     <use xlink:href="#ArialMT-69" x="1749.087891"/>
     <use xlink:href="#ArialMT-73" x="1771.304688"/>
    </g>
   </g>
  </g>
  <g id="text_9">
   <!-- Atualizado em 17/02/2022 -->
   <g style="fill: #262626" transform="translate(7.2 331.389375)scale(0.08 -0.08)">
    <defs>
     <path id="ArialMT-41" d="M -9 0 
L 1750 4581 
L 2403 4581 
L 4278 0 
L 3588 0 
L 3053 1388 
L 1138 1388 
L 634 0 
L -9 0 
z
M 1313 1881 
L 2866 1881 
L 2388 3150 
Q 2169 3728 2063 4100 
Q 1975 3659 1816 3225 
L 1313 1881 
z
" transform="scale(0.015625)"/>
     <path id="ArialMT-75" d="M 2597 0 
L 2597 488 
Q 2209 -75 1544 -75 
Q 1250 -75 995 37 
Q 741 150 617 320 
Q 494 491 444 738 
Q 409 903 409 1263 
L 409 3319 
L 972 3319 
L 972 1478 
Q 972 1038 1006 884 
Q 1059 663 1231 536 
Q 1403 409 1656 409 
Q 1909 409 2131 539 
Q 2353 669 2445 892 
Q 2538 1116 2538 1541 
L 2538 3319 
L 3100 3319 
L 3100 0 
L 2597 0 
z
" transform="scale(0.015625)"/>
     <path id="ArialMT-6c" d="M 409 0 
L 409 4581 
L 972 4581 
L 972 0 
L 409 0 
z
" transform="scale(0.015625)"/>
     <path id="ArialMT-7a" d="M 125 0 
L 125 456 
L 2238 2881 
Q 1878 2863 1603 2863 
L 250 2863 
L 250 3319 
L 2963 3319 
L 2963 2947 
L 1166 841 
L 819 456 
Q 1197 484 1528 484 
L 3063 484 
L 3063 0 
L 125 0 
z
" transform="scale(0.015625)"/>
     <path id="ArialMT-64" d="M 2575 0 
L 2575 419 
Q 2259 -75 1647 -75 
Q 1250 -75 917 144 
Q 584 363 401 755 
Q 219 1147 219 1656 
Q 219 2153 384 2558 
Q 550 2963 881 3178 
Q 1213 3394 1622 3394 
Q 1922 3394 2156 3267 
Q 2391 3141 2538 2938 
L 2538 4581 
L 3097 4581 
L 3097 0 
L 2575 0 
z
M 797 1656 
Q 797 1019 1065 703 
Q 1334 388 1700 388 
Q 2069 388 2326 689 
Q 2584 991 2584 1609 
Q 2584 2291 2321 2609 
Q 2059 2928 1675 2928 
Q 1300 2928 1048 2622 
Q 797 2316 797 1656 
z
" transform="scale(0.015625)"/>
     <path id="ArialMT-37" d="M 303 3981 
L 303 4522 
L 3269 4522 
L 3269 4084 
Q 2831 3619 2401 2847 
Q 1972 2075 1738 1259 
Q 1569 684 1522 0 
L 944 0 
Q 953 541 1156 1306 
Q 1359 2072 1739 2783 
Q 2119 3494 2547 3981 
L 303 3981 
z
" transform="scale(0.015625)"/>
     <path id="ArialMT-2f" d="M 0 -78 
L 1328 4659 
L 1778 4659 
L 453 -78 
L 0 -78 
z
" transform="scale(0.015625)"/>
    </defs>
    <use xlink:href="#ArialMT-41"/>
    <use xlink:href="#ArialMT-74" x="66.699219"/>
    <use xlink:href="#ArialMT-75" x="94.482422"/>
    <use xlink:href="#ArialMT-61" x="150.097656"/>
    <use xlink:href="#ArialMT-6c" x="205.712891"/>
    <use xlink:href="#ArialMT-69" x="227.929688"/>
    <use xlink:href="#ArialMT-7a" x="250.146484"/>
    <use xlink:href="#ArialMT-61" x="300.146484"/>
    <use xlink:href="#ArialMT-64" x="355.761719"/>
    <use xlink:href="#ArialMT-6f" x="411.376953"/>
    <use xlink:href="#ArialMT-20" x="466.992188"/>
    <use xlink:href="#ArialMT-65" x="494.775391"/>
    <use xlink:href="#ArialMT-6d" x="550.390625"/>
    <use xlink:href="#ArialMT-20" x="633.691406"/>
    <use xlink:href="#ArialMT-31" x="661.474609"/>
    <use xlink:href="#ArialMT-37" x="717.089844"/>
    <use xlink:href="#ArialMT-2f" x="772.705078"/>
    <use xlink:href="#ArialMT-30" x="800.488281"/>
    <use xlink:href="#ArialMT-32" x="856.103516"/>
    <use xlink:href="#ArialMT-2f" x="911.71875"/>
    <use xlink:href="#ArialMT-32" x="939.501953"/>
    <use xlink:href="#ArialMT-30" x="995.117188"/>
    <use xlink:href="#ArialMT-32" x="1050.732422"/>
    <use xlink:href="#ArialMT-32" x="1106.347656"/>
   </g>
  </g>
  <g id="text_10">
   <!-- https://jmsvaz.github.io/covidsantos/ -->
   <g style="fill: #262626" transform="translate(570.345 331.389375)scale(0.08 -0.08)">
    <defs>
     <path id="ArialMT-68" d="M 422 0 
L 422 4581 
L 984 4581 
L 984 2938 
Q 1378 3394 1978 3394 
Q 2347 3394 2619 3248 
Q 2891 3103 3008 2847 
Q 3125 2591 3125 2103 
L 3125 0 
L 2563 0 
L 2563 2103 
Q 2563 2525 2380 2717 
Q 2197 2909 1863 2909 
Q 1613 2909 1392 2779 
Q 1172 2650 1078 2428 
Q 984 2206 984 1816 
L 984 0 
L 422 0 
z
" transform="scale(0.015625)"/>
     <path id="ArialMT-70" d="M 422 -1272 
L 422 3319 
L 934 3319 
L 934 2888 
Q 1116 3141 1344 3267 
Q 1572 3394 1897 3394 
Q 2322 3394 2647 3175 
Q 2972 2956 3137 2557 
Q 3303 2159 3303 1684 
Q 3303 1175 3120 767 
Q 2938 359 2589 142 
Q 2241 -75 1856 -75 
Q 1575 -75 1351 44 
Q 1128 163 984 344 
L 984 -1272 
L 422 -1272 
z
M 931 1641 
Q 931 1000 1190 694 
Q 1450 388 1819 388 
Q 2194 388 2461 705 
Q 2728 1022 2728 1688 
Q 2728 2322 2467 2637 
Q 2206 2953 1844 2953 
Q 1484 2953 1207 2617 
Q 931 2281 931 1641 
z
" transform="scale(0.015625)"/>
     <path id="ArialMT-3a" d="M 578 2678 
L 578 3319 
L 1219 3319 
L 1219 2678 
L 578 2678 
z
M 578 0 
L 578 641 
L 1219 641 
L 1219 0 
L 578 0 
z
" transform="scale(0.015625)"/>
     <path id="ArialMT-6a" d="M 419 3928 
L 419 4581 
L 981 4581 
L 981 3928 
L 419 3928 
z
M -294 -1288 
L -188 -809 
Q -19 -853 78 -853 
Q 250 -853 334 -739 
Q 419 -625 419 -169 
L 419 3319 
L 981 3319 
L 981 -181 
Q 981 -794 822 -1034 
Q 619 -1347 147 -1347 
Q -81 -1347 -294 -1288 
z
" transform="scale(0.015625)"/>
     <path id="ArialMT-2e" d="M 581 0 
L 581 641 
L 1222 641 
L 1222 0 
L 581 0 
z
" transform="scale(0.015625)"/>
     <path id="ArialMT-67" d="M 319 -275 
L 866 -356 
Q 900 -609 1056 -725 
Q 1266 -881 1628 -881 
Q 2019 -881 2231 -725 
Q 2444 -569 2519 -288 
Q 2563 -116 2559 434 
Q 2191 0 1641 0 
Q 956 0 581 494 
Q 206 988 206 1678 
Q 206 2153 378 2554 
Q 550 2956 876 3175 
Q 1203 3394 1644 3394 
Q 2231 3394 2613 2919 
L 2613 3319 
L 3131 3319 
L 3131 450 
Q 3131 -325 2973 -648 
Q 2816 -972 2473 -1159 
Q 2131 -1347 1631 -1347 
Q 1038 -1347 672 -1080 
Q 306 -813 319 -275 
z
M 784 1719 
Q 784 1066 1043 766 
Q 1303 466 1694 466 
Q 2081 466 2343 764 
Q 2606 1063 2606 1700 
Q 2606 2309 2336 2618 
Q 2066 2928 1684 2928 
Q 1309 2928 1046 2623 
Q 784 2319 784 1719 
z
" transform="scale(0.015625)"/>
     <path id="ArialMT-63" d="M 2588 1216 
L 3141 1144 
Q 3050 572 2676 248 
Q 2303 -75 1759 -75 
Q 1078 -75 664 370 
Q 250 816 250 1647 
Q 250 2184 428 2587 
Q 606 2991 970 3192 
Q 1334 3394 1763 3394 
Q 2303 3394 2647 3120 
Q 2991 2847 3088 2344 
L 2541 2259 
Q 2463 2594 2264 2762 
Q 2066 2931 1784 2931 
Q 1359 2931 1093 2626 
Q 828 2322 828 1663 
Q 828 994 1084 691 
Q 1341 388 1753 388 
Q 2084 388 2306 591 
Q 2528 794 2588 1216 
z
" transform="scale(0.015625)"/>
    </defs>
    <use xlink:href="#ArialMT-68"/>
    <use xlink:href="#ArialMT-74" x="55.615234"/>
    <use xlink:href="#ArialMT-74" x="83.398438"/>
    <use xlink:href="#ArialMT-70" x="111.181641"/>
    <use xlink:href="#ArialMT-73" x="166.796875"/>
    <use xlink:href="#ArialMT-3a" x="216.796875"/>
    <use xlink:href="#ArialMT-2f" x="244.580078"/>
    <use xlink:href="#ArialMT-2f" x="272.363281"/>
    <use xlink:href="#ArialMT-6a" x="300.146484"/>
    <use xlink:href="#ArialMT-6d" x="322.363281"/>
    <use xlink:href="#ArialMT-73" x="405.664062"/>
    <use xlink:href="#ArialMT-76" x="455.664062"/>
    <use xlink:href="#ArialMT-61" x="505.664062"/>
    <use xlink:href="#ArialMT-7a" x="561.279297"/>
    <use xlink:href="#ArialMT-2e" x="611.279297"/>
    <use xlink:href="#ArialMT-67" x="639.0625"/>
    <use xlink:href="#ArialMT-69" x="694.677734"/>
    <use xlink:href="#ArialMT-74" x="716.894531"/>
    <use xlink:href="#ArialMT-68" x="744.677734"/>
    <use xlink:href="#ArialMT-75" x="800.292969"/>
    <use xlink:href="#ArialMT-62" x="855.908203"/>
    <use xlink:href="#ArialMT-2e" x="911.523438"/>
    <use xlink:href="#ArialMT-69" x="939.306641"/>
    <use xlink:href="#ArialMT-6f" x="961.523438"/>
    <use xlink:href="#ArialMT-2f" x="1017.138672"/>
    <use xlink:href="#ArialMT-63" x="1044.921875"/>
    <use xlink:href="#ArialMT-6f" x="1094.921875"/>
    <use xlink:href="#ArialMT-76" x="1150.537109"/>
    <use xlink:href="#ArialMT-69" x="1200.537109"/>
    <use xlink:href="#ArialMT-64" x="1222.753906"/>
    <use xlink:href="#ArialMT-73" x="1278.369141"/>
    <use xlink:href="#ArialMT-61" x="1328.369141"/>
    <use xlink:href="#ArialMT-6e" x="1383.984375"/>
    <use xlink:href="#ArialMT-74" x="1439.599609"/>
    <use xlink:href="#ArialMT-6f" x="1467.382812"/>
    <use xlink:href="#ArialMT-73" x="1522.998047"/>
    <use xlink:href="#ArialMT-2f" x="1572.998047"/>
   </g>
  </g>
 </g>
 <defs>
  <clipPath id="p35f9b8d2df">
   <rect x="82.8" y="21.789375" width="558" height="277.2"/>
  </clipPath>
 </defs>
</svg>
