<?xml version="1.0" encoding="utf-8" standalone="no"?>
<!DOCTYPE svg PUBLIC "-//W3C//DTD SVG 1.1//EN"
  "http://www.w3.org/Graphics/SVG/1.1/DTD/svg11.dtd">
<svg height="325.489375pt" version="1.1" viewBox="0 0 595.1 325.489375" width="595.1pt" xmlns="http://www.w3.org/2000/svg" xmlns:xlink="http://www.w3.org/1999/xlink">
 <metadata>
  <rdf:RDF xmlns:cc="http://creativecommons.org/ns#" xmlns:dc="http://purl.org/dc/elements/1.1/" xmlns:rdf="http://www.w3.org/1999/02/22-rdf-syntax-ns#">
   <cc:Work>
    <dc:type rdf:resource="http://purl.org/dc/dcmitype/StillImage"/>
    <dc:date>2021-05-24T18:10:15.390340</dc:date>
    <dc:format>image/svg+xml</dc:format>
    <dc:creator>
     <cc:Agent>
      <dc:title>Matplotlib v3.4.2, https://matplotlib.org/</dc:title>
     </cc:Agent>
    </dc:creator>
   </cc:Work>
  </rdf:RDF>
 </metadata>
 <defs>
  <style type="text/css">*{stroke-linecap:butt;stroke-linejoin:round;}</style>
 </defs>
 <g id="figure_1">
  <g id="patch_1">
   <path d="M 0 325.489375 
L 595.1 325.489375 
L 595.1 0 
L 0 0 
z
" style="fill:#ffffff;"/>
  </g>
  <g id="axes_1">
   <g id="patch_2">
    <path d="M 29.9 298.989375 
L 587.9 298.989375 
L 587.9 21.789375 
L 29.9 21.789375 
z
" style="fill:#ffffff;"/>
   </g>
   <g id="matplotlib.axis_1">
    <g id="xtick_1">
     <g id="line2d_1">
      <path clip-path="url(#ped94d656ad)" d="M 55.263636 298.989375 
L 55.263636 21.789375 
" style="fill:none;stroke:#cccccc;stroke-linecap:round;stroke-width:0.8;"/>
     </g>
     <g id="text_1">
      <!-- $\mathdefault{10^{0}}$ -->
      <g style="fill:#262626;" transform="translate(47.413636 316.301875)scale(0.1 -0.1)">
       <defs>
        <path d="M 2384 0 
L 1822 0 
L 1822 3584 
Q 1619 3391 1289 3197 
Q 959 3003 697 2906 
L 697 3450 
Q 1169 3672 1522 3987 
Q 1875 4303 2022 4600 
L 2384 4600 
L 2384 0 
z
" id="ArialMT-31" transform="scale(0.015625)"/>
        <path d="M 266 2259 
Q 266 3072 433 3567 
Q 600 4063 929 4331 
Q 1259 4600 1759 4600 
Q 2128 4600 2406 4451 
Q 2684 4303 2865 4023 
Q 3047 3744 3150 3342 
Q 3253 2941 3253 2259 
Q 3253 1453 3087 958 
Q 2922 463 2592 192 
Q 2263 -78 1759 -78 
Q 1097 -78 719 397 
Q 266 969 266 2259 
z
M 844 2259 
Q 844 1131 1108 757 
Q 1372 384 1759 384 
Q 2147 384 2411 759 
Q 2675 1134 2675 2259 
Q 2675 3391 2411 3762 
Q 2147 4134 1753 4134 
Q 1366 4134 1134 3806 
Q 844 3388 844 2259 
z
" id="ArialMT-30" transform="scale(0.015625)"/>
       </defs>
       <use transform="translate(0 0.99375)" xlink:href="#ArialMT-31"/>
       <use transform="translate(55.615234 0.99375)" xlink:href="#ArialMT-30"/>
       <use transform="translate(112.972813 70.6875)scale(0.7)" xlink:href="#ArialMT-30"/>
      </g>
     </g>
    </g>
    <g id="xtick_2">
     <g id="line2d_2">
      <path clip-path="url(#ped94d656ad)" d="M 213.29002 298.989375 
L 213.29002 21.789375 
" style="fill:none;stroke:#cccccc;stroke-linecap:round;stroke-width:0.8;"/>
     </g>
     <g id="text_2">
      <!-- $\mathdefault{10^{1}}$ -->
      <g style="fill:#262626;" transform="translate(205.44002 316.301875)scale(0.1 -0.1)">
       <use transform="translate(0 0.99375)" xlink:href="#ArialMT-31"/>
       <use transform="translate(55.615234 0.99375)" xlink:href="#ArialMT-30"/>
       <use transform="translate(112.972813 70.6875)scale(0.7)" xlink:href="#ArialMT-31"/>
      </g>
     </g>
    </g>
    <g id="xtick_3">
     <g id="line2d_3">
      <path clip-path="url(#ped94d656ad)" d="M 371.316404 298.989375 
L 371.316404 21.789375 
" style="fill:none;stroke:#cccccc;stroke-linecap:round;stroke-width:0.8;"/>
     </g>
     <g id="text_3">
      <!-- $\mathdefault{10^{2}}$ -->
      <g style="fill:#262626;" transform="translate(363.466404 316.301875)scale(0.1 -0.1)">
       <defs>
        <path d="M 3222 541 
L 3222 0 
L 194 0 
Q 188 203 259 391 
Q 375 700 629 1000 
Q 884 1300 1366 1694 
Q 2113 2306 2375 2664 
Q 2638 3022 2638 3341 
Q 2638 3675 2398 3904 
Q 2159 4134 1775 4134 
Q 1369 4134 1125 3890 
Q 881 3647 878 3216 
L 300 3275 
Q 359 3922 746 4261 
Q 1134 4600 1788 4600 
Q 2447 4600 2831 4234 
Q 3216 3869 3216 3328 
Q 3216 3053 3103 2787 
Q 2991 2522 2730 2228 
Q 2469 1934 1863 1422 
Q 1356 997 1212 845 
Q 1069 694 975 541 
L 3222 541 
z
" id="ArialMT-32" transform="scale(0.015625)"/>
       </defs>
       <use transform="translate(0 0.99375)" xlink:href="#ArialMT-31"/>
       <use transform="translate(55.615234 0.99375)" xlink:href="#ArialMT-30"/>
       <use transform="translate(112.972813 70.6875)scale(0.7)" xlink:href="#ArialMT-32"/>
      </g>
     </g>
    </g>
    <g id="xtick_4">
     <g id="line2d_4">
      <path clip-path="url(#ped94d656ad)" d="M 529.342787 298.989375 
L 529.342787 21.789375 
" style="fill:none;stroke:#cccccc;stroke-linecap:round;stroke-width:0.8;"/>
     </g>
     <g id="text_4">
      <!-- $\mathdefault{10^{3}}$ -->
      <g style="fill:#262626;" transform="translate(521.492787 316.301875)scale(0.1 -0.1)">
       <defs>
        <path d="M 269 1209 
L 831 1284 
Q 928 806 1161 595 
Q 1394 384 1728 384 
Q 2125 384 2398 659 
Q 2672 934 2672 1341 
Q 2672 1728 2419 1979 
Q 2166 2231 1775 2231 
Q 1616 2231 1378 2169 
L 1441 2663 
Q 1497 2656 1531 2656 
Q 1891 2656 2178 2843 
Q 2466 3031 2466 3422 
Q 2466 3731 2256 3934 
Q 2047 4138 1716 4138 
Q 1388 4138 1169 3931 
Q 950 3725 888 3313 
L 325 3413 
Q 428 3978 793 4289 
Q 1159 4600 1703 4600 
Q 2078 4600 2393 4439 
Q 2709 4278 2876 4000 
Q 3044 3722 3044 3409 
Q 3044 3113 2884 2869 
Q 2725 2625 2413 2481 
Q 2819 2388 3044 2092 
Q 3269 1797 3269 1353 
Q 3269 753 2831 336 
Q 2394 -81 1725 -81 
Q 1122 -81 723 278 
Q 325 638 269 1209 
z
" id="ArialMT-33" transform="scale(0.015625)"/>
       </defs>
       <use transform="translate(0 0.99375)" xlink:href="#ArialMT-31"/>
       <use transform="translate(55.615234 0.99375)" xlink:href="#ArialMT-30"/>
       <use transform="translate(112.972813 70.6875)scale(0.7)" xlink:href="#ArialMT-33"/>
      </g>
     </g>
    </g>
    <g id="xtick_5"/>
    <g id="xtick_6"/>
    <g id="xtick_7"/>
    <g id="xtick_8"/>
    <g id="xtick_9"/>
    <g id="xtick_10"/>
    <g id="xtick_11"/>
    <g id="xtick_12"/>
    <g id="xtick_13"/>
    <g id="xtick_14"/>
    <g id="xtick_15"/>
    <g id="xtick_16"/>
    <g id="xtick_17"/>
    <g id="xtick_18"/>
    <g id="xtick_19"/>
    <g id="xtick_20"/>
    <g id="xtick_21"/>
    <g id="xtick_22"/>
    <g id="xtick_23"/>
    <g id="xtick_24"/>
    <g id="xtick_25"/>
    <g id="xtick_26"/>
    <g id="xtick_27"/>
    <g id="xtick_28"/>
    <g id="xtick_29"/>
    <g id="xtick_30"/>
    <g id="xtick_31"/>
    <g id="xtick_32"/>
   </g>
   <g id="matplotlib.axis_2">
    <g id="ytick_1">
     <g id="line2d_5">
      <path clip-path="url(#ped94d656ad)" d="M 29.9 286.389375 
L 587.9 286.389375 
" style="fill:none;stroke:#cccccc;stroke-linecap:round;stroke-width:0.8;"/>
     </g>
     <g id="text_5">
      <!-- $\mathdefault{10^{0}}$ -->
      <g style="fill:#262626;" transform="translate(7.2 291.545625)scale(0.1 -0.1)">
       <use transform="translate(0 0.99375)" xlink:href="#ArialMT-31"/>
       <use transform="translate(55.615234 0.99375)" xlink:href="#ArialMT-30"/>
       <use transform="translate(112.972813 70.6875)scale(0.7)" xlink:href="#ArialMT-30"/>
      </g>
     </g>
    </g>
    <g id="ytick_2">
     <g id="line2d_6">
      <path clip-path="url(#ped94d656ad)" d="M 29.9 159.834182 
L 587.9 159.834182 
" style="fill:none;stroke:#cccccc;stroke-linecap:round;stroke-width:0.8;"/>
     </g>
     <g id="text_6">
      <!-- $\mathdefault{10^{1}}$ -->
      <g style="fill:#262626;" transform="translate(7.2 164.990432)scale(0.1 -0.1)">
       <use transform="translate(0 0.99375)" xlink:href="#ArialMT-31"/>
       <use transform="translate(55.615234 0.99375)" xlink:href="#ArialMT-30"/>
       <use transform="translate(112.972813 70.6875)scale(0.7)" xlink:href="#ArialMT-31"/>
      </g>
     </g>
    </g>
    <g id="ytick_3">
     <g id="line2d_7">
      <path clip-path="url(#ped94d656ad)" d="M 29.9 33.278989 
L 587.9 33.278989 
" style="fill:none;stroke:#cccccc;stroke-linecap:round;stroke-width:0.8;"/>
     </g>
     <g id="text_7">
      <!-- $\mathdefault{10^{2}}$ -->
      <g style="fill:#262626;" transform="translate(7.2 38.435239)scale(0.1 -0.1)">
       <use transform="translate(0 0.99375)" xlink:href="#ArialMT-31"/>
       <use transform="translate(55.615234 0.99375)" xlink:href="#ArialMT-30"/>
       <use transform="translate(112.972813 70.6875)scale(0.7)" xlink:href="#ArialMT-32"/>
      </g>
     </g>
    </g>
    <g id="ytick_4"/>
    <g id="ytick_5"/>
    <g id="ytick_6"/>
    <g id="ytick_7"/>
    <g id="ytick_8"/>
    <g id="ytick_9"/>
    <g id="ytick_10"/>
    <g id="ytick_11"/>
    <g id="ytick_12"/>
    <g id="ytick_13"/>
    <g id="ytick_14"/>
    <g id="ytick_15"/>
    <g id="ytick_16"/>
    <g id="ytick_17"/>
    <g id="ytick_18"/>
    <g id="ytick_19"/>
    <g id="ytick_20"/>
    <g id="ytick_21"/>
   </g>
   <g id="line2d_8">
    <path clip-path="url(#ped94d656ad)" d="M 5.191744 326.489375 
L 213.29002 159.834182 
L 213.29002 187.910293 
L 225.802746 172.098648 
L 236.382105 159.834182 
L 236.382105 159.834182 
L 241.117085 159.834182 
L 253.629811 172.098648 
L 264.20917 154.595723 
L 267.401838 149.813384 
L 267.401838 159.834182 
L 270.452562 165.62503 
L 270.452562 165.62503 
L 276.175041 159.834182 
L 278.866758 172.098648 
L 286.361103 172.098648 
L 290.938132 165.62503 
L 299.267126 145.414059 
L 299.267126 149.813384 
L 299.267126 149.813384 
L 314.97252 124.556466 
L 323.745722 111.716475 
L 325.104776 116.498814 
L 326.437439 119.055657 
L 329.027557 124.556466 
L 331.523468 119.055657 
L 333.931785 141.34092 
L 336.258448 159.834182 
L 337.392854 159.834182 
L 339.606916 154.595723 
L 344.848393 141.34092 
L 345.850308 141.34092 
L 345.850308 145.414059 
L 347.811298 145.414059 
L 348.771174 149.813384 
L 352.481807 137.548919 
L 356.002065 130.669674 
L 357.696719 141.34092 
L 360.162732 134.001738 
L 361.75885 127.528121 
L 369.225989 109.472808 
L 370.626649 114.055646 
L 374.008121 111.716475 
L 374.008121 116.498814 
L 375.959816 116.498814 
L 375.959816 121.737273 
L 380.308872 119.055657 
L 383.82913 114.055646 
L 392.921861 86.459557 
L 394.408489 89.431212 
L 395.863596 85.031887 
L 398.684403 80.958748 
L 399.599483 78.401905 
L 402.709465 78.401905 
L 403.572746 83.640364 
L 405.2674 105.242858 
L 406.099289 107.31715 
L 409.722828 95.904829 
L 411.656195 97.649808 
L 413.164607 94.213551 
L 414.640577 99.45201 
L 416.441993 94.213551 
L 418.197331 92.572765 
L 420.915706 83.640364 
L 422.88608 87.925303 
L 426.049312 80.958748 
L 426.049312 86.459557 
L 428.179904 82.283203 
L 430.53653 78.401905 
L 434.201424 69.220241 
L 437.156596 66.137439 
L 442.223841 53.673474 
L 446.024396 49.090635 
L 446.024396 49.090635 
L 449.405867 43.520077 
L 451.783837 41.56855 
L 455.101945 39.683947 
L 455.906998 44.186294 
L 459.035972 46.934978 
L 459.035972 59.552899 
L 459.035972 59.552899 
L 460.54854 66.137439 
L 460.92153 75.958737 
L 461.845231 90.979546 
L 462.756666 89.431212 
L 462.937509 119.055657 
L 462.937509 119.055657 
L 464.012674 124.556466 
L 464.190242 127.528121 
L 464.895955 130.669674 
L 464.895955 149.813384 
L 466.113756 127.528121 
L 466.113756 127.528121 
L 467.816821 116.498814 
L 467.816821 130.669674 
L 468.652763 116.498814 
L 470.618434 101.315314 
L 470.618434 105.242858 
L 470.618434 105.242858 
L 470.779727 127.528121 
L 471.261342 119.055657 
L 472.0566 107.31715 
L 472.529369 111.716475 
L 472.998903 137.548919 
L 474.08215 116.498814 
L 474.541215 111.716475 
L 475.148564 109.472808 
L 476.049627 107.31715 
L 477.08613 99.45201 
L 477.671464 97.649808 
L 477.671464 111.716475 
L 477.671464 111.716475 
L 478.540209 105.242858 
L 479.681691 97.649808 
L 480.24539 101.315314 
L 480.525513 111.716475 
L 481.220858 109.472808 
L 481.220858 109.472808 
L 481.359086 107.31715 
L 481.497035 119.055657 
L 482.182655 127.528121 
L 484.066734 103.244011 
L 484.727278 97.649808 
L 485.251174 99.45201 
L 485.251174 99.45201 
L 485.251174 101.315314 
L 485.900469 94.213551 
L 486.158477 99.45201 
L 487.053941 114.055646 
L 487.307657 134.001738 
L 487.307657 134.001738 
L 487.812291 137.548919 
L 488.437911 127.528121 
L 488.68657 145.414059 
L 489.549852 127.528121 
L 489.549852 127.528121 
L 490.038324 127.528121 
L 490.523343 130.669674 
L 490.884872 127.528121 
L 491.124837 145.414059 
L 491.483219 134.001738 
L 491.602265 145.414059 
L 491.839739 154.595723 
L 492.429854 145.414059 
L 492.429854 149.813384 
L 492.664487 145.414059 
L 492.664487 159.834182 
L 492.781503 159.834182 
L 493.13136 154.595723 
L 493.940821 145.414059 
L 495.306637 109.472808 
L 495.531654 109.472808 
L 495.531654 109.472808 
L 495.531654 111.716475 
L 496.313452 103.244011 
L 496.424414 116.498814 
L 496.645801 159.834182 
L 496.645801 159.834182 
L 496.866477 149.813384 
L 497.524277 154.595723 
L 497.74215 149.813384 
L 498.283826 134.001738 
L 498.39165 141.34092 
L 498.606791 159.834182 
L 498.82126 159.834182 
L 498.82126 197.931091 
L 499.248198 165.62503 
L 499.248198 172.098648 
L 500.721904 127.528121 
L 501.033623 130.669674 
L 501.033623 130.669674 
L 501.137216 127.528121 
L 501.652845 124.556466 
L 502.266531 154.595723 
L 502.469879 187.910293 
L 502.773776 179.43783 
L 502.975629 179.43783 
L 503.2773 159.834182 
L 503.876692 141.34092 
L 504.56943 134.001738 
L 504.56943 141.34092 
L 504.667825 141.34092 
L 505.157691 141.34092 
L 505.934276 119.055657 
L 506.606654 111.716475 
L 506.892811 111.716475 
L 506.892811 111.716475 
L 507.272508 105.242858 
L 508.677949 87.925303 
L 508.863185 119.055657 
L 508.863185 119.055657 
L 510.055186 99.45201 
L 510.598434 119.055657 
L 511.938034 92.572765 
L 511.938034 92.572765 
L 512.466637 105.242858 
L 513.251985 99.45201 
L 513.684438 97.649808 
L 514.028449 103.244011 
L 514.541253 97.649808 
L 514.541253 99.45201 
L 514.541253 99.45201 
L 515.219085 95.904829 
L 515.723102 101.315314 
L 516.140307 101.315314 
L 516.389418 103.244011 
L 516.637628 109.472808 
L 516.884944 103.244011 
L 517.540127 103.244011 
L 518.189116 99.45201 
L 518.671861 97.649808 
L 518.751989 101.315314 
L 519.071571 99.45201 
L 519.54817 109.472808 
L 519.627282 127.528121 
L 520.021482 130.669674 
L 520.021482 154.595723 
L 520.021482 154.595723 
L 520.41343 154.595723 
L 521.190675 121.737273 
L 522.794788 89.431212 
L 522.794788 89.431212 
L 523.020916 92.572765 
L 523.246302 105.242858 
L 523.992288 134.001738 
L 524.656812 109.472808 
L 524.656812 109.472808 
L 525.387702 95.904829 
L 525.460365 99.45201 
L 526.254619 97.649808 
L 526.469648 101.315314 
L 526.968777 95.904829 
L 526.968777 95.904829 
L 527.323089 105.242858 
L 527.816072 94.213551 
L 528.305539 101.315314 
L 530.025679 70.287502 
L 530.161445 75.958737 
L 530.296944 73.619566 
L 530.296944 73.619566 
L 530.296944 89.431212 
L 530.701841 90.979546 
L 530.970452 141.34092 
L 531.104365 141.34092 
L 531.171223 145.414059 
L 531.171223 145.414059 
L 531.438006 130.669674 
L 531.836247 130.669674 
L 532.232191 124.556466 
L 532.363666 124.556466 
L 532.363666 127.528121 
L 532.363666 127.528121 
L 533.082311 109.472808 
L 533.341782 114.055646 
L 533.600275 124.556466 
L 533.664747 121.737273 
L 533.664747 121.737273 
L 533.922029 127.528121 
L 534.242282 159.834182 
L 534.242282 165.62503 
L 534.242282 165.62503 
L 534.497412 165.62503 
L 534.68814 159.834182 
L 535.131119 134.001738 
L 535.382973 127.528121 
L 535.821505 109.472808 
L 535.821505 109.472808 
L 536.008592 119.055657 
L 536.505014 116.498814 
L 536.69025 119.055657 
L 536.813464 134.001738 
L 536.813464 134.001738 
L 537.120534 121.737273 
L 537.242978 121.737273 
L 537.79129 119.055657 
L 538.214746 109.472808 
L 538.335255 109.472808 
L 538.335255 109.472808 
L 538.455553 116.498814 
L 538.755379 109.472808 
L 538.9943 121.737273 
L 539.351129 124.556466 
L 540.293702 97.649808 
L 540.760177 92.572765 
L 540.992232 92.572765 
L 541.741035 82.283203 
L 541.855513 89.431212 
L 542.254692 80.958748 
L 543.158474 80.958748 
L 543.717353 73.619566 
L 543.939637 85.031887 
L 544.326909 78.401905 
L 544.54723 80.958748 
L 544.54723 82.283203 
L 544.985762 82.283203 
L 545.800532 73.619566 
L 546.177473 77.166747 
L 547.348843 58.673485 
L 548.759635 43.520077 
L 548.862993 44.860685 
L 548.966196 43.520077 
L 550.142009 34.389375 
L 550.596681 37.861828 
L 550.596681 42.211391 
L 551.298016 71.375898 
L 551.298016 73.619566 
L 551.646013 68.17331 
L 552.630679 71.375898 
L 552.825928 77.166747 
L 552.923344 74.776708 
L 553.166282 75.958737 
L 553.408364 79.66546 
L 553.697739 72.486284 
L 553.88998 75.958737 
L 554.415883 87.925303 
L 554.653604 86.459557 
L 555.314875 71.375898 
L 555.596338 70.287502 
L 556.01638 77.166747 
L 556.433867 79.66546 
L 556.940704 72.486284 
L 557.032455 87.925303 
L 557.352622 86.459557 
L 558.124009 69.220241 
L 558.25924 69.220241 
L 558.349247 70.287502 
L 558.752822 70.287502 
L 558.976009 77.166747 
L 559.287256 71.375898 
L 560.431116 53.673474 
L 560.605415 70.287502 
L 560.866035 73.619566 
L 561.12567 72.486284 
L 561.64201 67.145949 
L 561.898731 92.572765 
L 562.197031 87.925303 
L 562.282021 85.031887 
L 562.536364 85.031887 
L 562.536364 85.031887 
" style="fill:none;stroke:#1f77b4;stroke-linecap:round;stroke-width:1.5;"/>
   </g>
   <g id="patch_3">
    <path d="M 29.9 298.989375 
L 29.9 21.789375 
" style="fill:none;stroke:#cccccc;stroke-linecap:square;stroke-linejoin:miter;stroke-width:0.8;"/>
   </g>
   <g id="patch_4">
    <path d="M 587.9 298.989375 
L 587.9 21.789375 
" style="fill:none;stroke:#cccccc;stroke-linecap:square;stroke-linejoin:miter;stroke-width:0.8;"/>
   </g>
   <g id="patch_5">
    <path d="M 29.9 298.989375 
L 587.9 298.989375 
" style="fill:none;stroke:#cccccc;stroke-linecap:square;stroke-linejoin:miter;stroke-width:0.8;"/>
   </g>
   <g id="patch_6">
    <path d="M 29.9 21.789375 
L 587.9 21.789375 
" style="fill:none;stroke:#cccccc;stroke-linecap:square;stroke-linejoin:miter;stroke-width:0.8;"/>
   </g>
   <g id="text_8">
    <!-- Novos Óbitos na semana X Óbitos Totais -->
    <g style="fill:#262626;" transform="translate(199.627812 15.789375)scale(0.12 -0.12)">
     <defs>
      <path d="M 488 0 
L 488 4581 
L 1109 4581 
L 3516 984 
L 3516 4581 
L 4097 4581 
L 4097 0 
L 3475 0 
L 1069 3600 
L 1069 0 
L 488 0 
z
" id="ArialMT-4e" transform="scale(0.015625)"/>
      <path d="M 213 1659 
Q 213 2581 725 3025 
Q 1153 3394 1769 3394 
Q 2453 3394 2887 2945 
Q 3322 2497 3322 1706 
Q 3322 1066 3130 698 
Q 2938 331 2570 128 
Q 2203 -75 1769 -75 
Q 1072 -75 642 372 
Q 213 819 213 1659 
z
M 791 1659 
Q 791 1022 1069 705 
Q 1347 388 1769 388 
Q 2188 388 2466 706 
Q 2744 1025 2744 1678 
Q 2744 2294 2464 2611 
Q 2184 2928 1769 2928 
Q 1347 2928 1069 2612 
Q 791 2297 791 1659 
z
" id="ArialMT-6f" transform="scale(0.015625)"/>
      <path d="M 1344 0 
L 81 3319 
L 675 3319 
L 1388 1331 
Q 1503 1009 1600 663 
Q 1675 925 1809 1294 
L 2547 3319 
L 3125 3319 
L 1869 0 
L 1344 0 
z
" id="ArialMT-76" transform="scale(0.015625)"/>
      <path d="M 197 991 
L 753 1078 
Q 800 744 1014 566 
Q 1228 388 1613 388 
Q 2000 388 2187 545 
Q 2375 703 2375 916 
Q 2375 1106 2209 1216 
Q 2094 1291 1634 1406 
Q 1016 1563 777 1677 
Q 538 1791 414 1992 
Q 291 2194 291 2438 
Q 291 2659 392 2848 
Q 494 3038 669 3163 
Q 800 3259 1026 3326 
Q 1253 3394 1513 3394 
Q 1903 3394 2198 3281 
Q 2494 3169 2634 2976 
Q 2775 2784 2828 2463 
L 2278 2388 
Q 2241 2644 2061 2787 
Q 1881 2931 1553 2931 
Q 1166 2931 1000 2803 
Q 834 2675 834 2503 
Q 834 2394 903 2306 
Q 972 2216 1119 2156 
Q 1203 2125 1616 2013 
Q 2213 1853 2448 1751 
Q 2684 1650 2818 1456 
Q 2953 1263 2953 975 
Q 2953 694 2789 445 
Q 2625 197 2315 61 
Q 2006 -75 1616 -75 
Q 969 -75 630 194 
Q 291 463 197 991 
z
" id="ArialMT-73" transform="scale(0.015625)"/>
      <path id="ArialMT-20" transform="scale(0.015625)"/>
      <path d="M 309 2231 
Q 309 3372 921 4017 
Q 1534 4663 2503 4663 
Q 3138 4663 3647 4359 
Q 4156 4056 4423 3514 
Q 4691 2972 4691 2284 
Q 4691 1588 4409 1038 
Q 4128 488 3612 205 
Q 3097 -78 2500 -78 
Q 1853 -78 1343 234 
Q 834 547 571 1087 
Q 309 1628 309 2231 
z
M 934 2222 
Q 934 1394 1379 917 
Q 1825 441 2497 441 
Q 3181 441 3623 922 
Q 4066 1403 4066 2288 
Q 4066 2847 3877 3264 
Q 3688 3681 3323 3911 
Q 2959 4141 2506 4141 
Q 1863 4141 1398 3698 
Q 934 3256 934 2222 
z
M 2118 4883 
L 2533 5758 
L 3271 5758 
L 2583 4883 
L 2118 4883 
z
" id="ArialMT-d3" transform="scale(0.015625)"/>
      <path d="M 941 0 
L 419 0 
L 419 4581 
L 981 4581 
L 981 2947 
Q 1338 3394 1891 3394 
Q 2197 3394 2470 3270 
Q 2744 3147 2920 2923 
Q 3097 2700 3197 2384 
Q 3297 2069 3297 1709 
Q 3297 856 2875 390 
Q 2453 -75 1863 -75 
Q 1275 -75 941 416 
L 941 0 
z
M 934 1684 
Q 934 1088 1097 822 
Q 1363 388 1816 388 
Q 2184 388 2453 708 
Q 2722 1028 2722 1663 
Q 2722 2313 2464 2622 
Q 2206 2931 1841 2931 
Q 1472 2931 1203 2611 
Q 934 2291 934 1684 
z
" id="ArialMT-62" transform="scale(0.015625)"/>
      <path d="M 425 3934 
L 425 4581 
L 988 4581 
L 988 3934 
L 425 3934 
z
M 425 0 
L 425 3319 
L 988 3319 
L 988 0 
L 425 0 
z
" id="ArialMT-69" transform="scale(0.015625)"/>
      <path d="M 1650 503 
L 1731 6 
Q 1494 -44 1306 -44 
Q 1000 -44 831 53 
Q 663 150 594 308 
Q 525 466 525 972 
L 525 2881 
L 113 2881 
L 113 3319 
L 525 3319 
L 525 4141 
L 1084 4478 
L 1084 3319 
L 1650 3319 
L 1650 2881 
L 1084 2881 
L 1084 941 
Q 1084 700 1114 631 
Q 1144 563 1211 522 
Q 1278 481 1403 481 
Q 1497 481 1650 503 
z
" id="ArialMT-74" transform="scale(0.015625)"/>
      <path d="M 422 0 
L 422 3319 
L 928 3319 
L 928 2847 
Q 1294 3394 1984 3394 
Q 2284 3394 2536 3286 
Q 2788 3178 2913 3003 
Q 3038 2828 3088 2588 
Q 3119 2431 3119 2041 
L 3119 0 
L 2556 0 
L 2556 2019 
Q 2556 2363 2490 2533 
Q 2425 2703 2258 2804 
Q 2091 2906 1866 2906 
Q 1506 2906 1245 2678 
Q 984 2450 984 1813 
L 984 0 
L 422 0 
z
" id="ArialMT-6e" transform="scale(0.015625)"/>
      <path d="M 2588 409 
Q 2275 144 1986 34 
Q 1697 -75 1366 -75 
Q 819 -75 525 192 
Q 231 459 231 875 
Q 231 1119 342 1320 
Q 453 1522 633 1644 
Q 813 1766 1038 1828 
Q 1203 1872 1538 1913 
Q 2219 1994 2541 2106 
Q 2544 2222 2544 2253 
Q 2544 2597 2384 2738 
Q 2169 2928 1744 2928 
Q 1347 2928 1158 2789 
Q 969 2650 878 2297 
L 328 2372 
Q 403 2725 575 2942 
Q 747 3159 1072 3276 
Q 1397 3394 1825 3394 
Q 2250 3394 2515 3294 
Q 2781 3194 2906 3042 
Q 3031 2891 3081 2659 
Q 3109 2516 3109 2141 
L 3109 1391 
Q 3109 606 3145 398 
Q 3181 191 3288 0 
L 2700 0 
Q 2613 175 2588 409 
z
M 2541 1666 
Q 2234 1541 1622 1453 
Q 1275 1403 1131 1340 
Q 988 1278 909 1158 
Q 831 1038 831 891 
Q 831 666 1001 516 
Q 1172 366 1500 366 
Q 1825 366 2078 508 
Q 2331 650 2450 897 
Q 2541 1088 2541 1459 
L 2541 1666 
z
" id="ArialMT-61" transform="scale(0.015625)"/>
      <path d="M 2694 1069 
L 3275 997 
Q 3138 488 2766 206 
Q 2394 -75 1816 -75 
Q 1088 -75 661 373 
Q 234 822 234 1631 
Q 234 2469 665 2931 
Q 1097 3394 1784 3394 
Q 2450 3394 2872 2941 
Q 3294 2488 3294 1666 
Q 3294 1616 3291 1516 
L 816 1516 
Q 847 969 1125 678 
Q 1403 388 1819 388 
Q 2128 388 2347 550 
Q 2566 713 2694 1069 
z
M 847 1978 
L 2700 1978 
Q 2663 2397 2488 2606 
Q 2219 2931 1791 2931 
Q 1403 2931 1139 2672 
Q 875 2413 847 1978 
z
" id="ArialMT-65" transform="scale(0.015625)"/>
      <path d="M 422 0 
L 422 3319 
L 925 3319 
L 925 2853 
Q 1081 3097 1340 3245 
Q 1600 3394 1931 3394 
Q 2300 3394 2536 3241 
Q 2772 3088 2869 2813 
Q 3263 3394 3894 3394 
Q 4388 3394 4653 3120 
Q 4919 2847 4919 2278 
L 4919 0 
L 4359 0 
L 4359 2091 
Q 4359 2428 4304 2576 
Q 4250 2725 4106 2815 
Q 3963 2906 3769 2906 
Q 3419 2906 3187 2673 
Q 2956 2441 2956 1928 
L 2956 0 
L 2394 0 
L 2394 2156 
Q 2394 2531 2256 2718 
Q 2119 2906 1806 2906 
Q 1569 2906 1367 2781 
Q 1166 2656 1075 2415 
Q 984 2175 984 1722 
L 984 0 
L 422 0 
z
" id="ArialMT-6d" transform="scale(0.015625)"/>
      <path d="M 28 0 
L 1800 2388 
L 238 4581 
L 959 4581 
L 1791 3406 
Q 2050 3041 2159 2844 
Q 2313 3094 2522 3366 
L 3444 4581 
L 4103 4581 
L 2494 2422 
L 4228 0 
L 3478 0 
L 2325 1634 
Q 2228 1775 2125 1941 
Q 1972 1691 1906 1597 
L 756 0 
L 28 0 
z
" id="ArialMT-58" transform="scale(0.015625)"/>
      <path d="M 1659 0 
L 1659 4041 
L 150 4041 
L 150 4581 
L 3781 4581 
L 3781 4041 
L 2266 4041 
L 2266 0 
L 1659 0 
z
" id="ArialMT-54" transform="scale(0.015625)"/>
     </defs>
     <use xlink:href="#ArialMT-4e"/>
     <use x="72.216797" xlink:href="#ArialMT-6f"/>
     <use x="127.832031" xlink:href="#ArialMT-76"/>
     <use x="177.832031" xlink:href="#ArialMT-6f"/>
     <use x="233.447266" xlink:href="#ArialMT-73"/>
     <use x="283.447266" xlink:href="#ArialMT-20"/>
     <use x="311.230469" xlink:href="#ArialMT-d3"/>
     <use x="389.013672" xlink:href="#ArialMT-62"/>
     <use x="444.628906" xlink:href="#ArialMT-69"/>
     <use x="466.845703" xlink:href="#ArialMT-74"/>
     <use x="494.628906" xlink:href="#ArialMT-6f"/>
     <use x="550.244141" xlink:href="#ArialMT-73"/>
     <use x="600.244141" xlink:href="#ArialMT-20"/>
     <use x="628.027344" xlink:href="#ArialMT-6e"/>
     <use x="683.642578" xlink:href="#ArialMT-61"/>
     <use x="739.257812" xlink:href="#ArialMT-20"/>
     <use x="767.041016" xlink:href="#ArialMT-73"/>
     <use x="817.041016" xlink:href="#ArialMT-65"/>
     <use x="872.65625" xlink:href="#ArialMT-6d"/>
     <use x="955.957031" xlink:href="#ArialMT-61"/>
     <use x="1011.572266" xlink:href="#ArialMT-6e"/>
     <use x="1067.1875" xlink:href="#ArialMT-61"/>
     <use x="1122.802734" xlink:href="#ArialMT-20"/>
     <use x="1150.585938" xlink:href="#ArialMT-58"/>
     <use x="1217.285156" xlink:href="#ArialMT-20"/>
     <use x="1245.068359" xlink:href="#ArialMT-d3"/>
     <use x="1322.851562" xlink:href="#ArialMT-62"/>
     <use x="1378.466797" xlink:href="#ArialMT-69"/>
     <use x="1400.683594" xlink:href="#ArialMT-74"/>
     <use x="1428.466797" xlink:href="#ArialMT-6f"/>
     <use x="1484.082031" xlink:href="#ArialMT-73"/>
     <use x="1534.082031" xlink:href="#ArialMT-20"/>
     <use x="1560.115234" xlink:href="#ArialMT-54"/>
     <use x="1610.074219" xlink:href="#ArialMT-6f"/>
     <use x="1665.689453" xlink:href="#ArialMT-74"/>
     <use x="1693.472656" xlink:href="#ArialMT-61"/>
     <use x="1749.087891" xlink:href="#ArialMT-69"/>
     <use x="1771.304688" xlink:href="#ArialMT-73"/>
    </g>
   </g>
  </g>
 </g>
 <defs>
  <clipPath id="ped94d656ad">
   <rect height="277.2" width="558" x="29.9" y="21.789375"/>
  </clipPath>
 </defs>
</svg>
