<?xml version="1.0" encoding="utf-8" standalone="no"?>
<!DOCTYPE svg PUBLIC "-//W3C//DTD SVG 1.1//EN"
  "http://www.w3.org/Graphics/SVG/1.1/DTD/svg11.dtd">
<svg height="340.273125pt" version="1.1" viewBox="0 0 705.6 340.273125" width="705.6pt" xmlns="http://www.w3.org/2000/svg" xmlns:xlink="http://www.w3.org/1999/xlink">
 <metadata>
  <rdf:RDF xmlns:cc="http://creativecommons.org/ns#" xmlns:dc="http://purl.org/dc/elements/1.1/" xmlns:rdf="http://www.w3.org/1999/02/22-rdf-syntax-ns#">
   <cc:Work>
    <dc:type rdf:resource="http://purl.org/dc/dcmitype/StillImage"/>
    <dc:date>2021-08-25T18:37:12.957959</dc:date>
    <dc:format>image/svg+xml</dc:format>
    <dc:creator>
     <cc:Agent>
      <dc:title>Matplotlib v3.4.2, https://matplotlib.org/</dc:title>
     </cc:Agent>
    </dc:creator>
   </cc:Work>
  </rdf:RDF>
 </metadata>
 <defs>
  <style type="text/css">*{stroke-linecap:butt;stroke-linejoin:round;}</style>
 </defs>
 <g id="figure_1">
  <g id="patch_1">
   <path d="M 0 340.273125 
L 705.6 340.273125 
L 705.6 0 
L 0 0 
z
" style="fill:#ffffff;"/>
  </g>
  <g id="axes_1">
   <g id="patch_2">
    <path d="M 82.8 298.989375 
L 640.8 298.989375 
L 640.8 21.789375 
L 82.8 21.789375 
z
" style="fill:#ffffff;"/>
   </g>
   <g id="matplotlib.axis_1">
    <g id="xtick_1">
     <g id="line2d_1">
      <path clip-path="url(#p0f1012badb)" d="M 108.163636 298.989375 
L 108.163636 21.789375 
" style="fill:none;stroke:#cccccc;stroke-linecap:round;stroke-width:0.8;"/>
     </g>
     <g id="text_1">
      <!-- $\mathdefault{10^{0}}$ -->
      <g style="fill:#262626;" transform="translate(100.313636 316.301875)scale(0.1 -0.1)">
       <defs>
        <path d="M 2384 0 
L 1822 0 
L 1822 3584 
Q 1619 3391 1289 3197 
Q 959 3003 697 2906 
L 697 3450 
Q 1169 3672 1522 3987 
Q 1875 4303 2022 4600 
L 2384 4600 
L 2384 0 
z
" id="ArialMT-31" transform="scale(0.015625)"/>
        <path d="M 266 2259 
Q 266 3072 433 3567 
Q 600 4063 929 4331 
Q 1259 4600 1759 4600 
Q 2128 4600 2406 4451 
Q 2684 4303 2865 4023 
Q 3047 3744 3150 3342 
Q 3253 2941 3253 2259 
Q 3253 1453 3087 958 
Q 2922 463 2592 192 
Q 2263 -78 1759 -78 
Q 1097 -78 719 397 
Q 266 969 266 2259 
z
M 844 2259 
Q 844 1131 1108 757 
Q 1372 384 1759 384 
Q 2147 384 2411 759 
Q 2675 1134 2675 2259 
Q 2675 3391 2411 3762 
Q 2147 4134 1753 4134 
Q 1366 4134 1134 3806 
Q 844 3388 844 2259 
z
" id="ArialMT-30" transform="scale(0.015625)"/>
       </defs>
       <use transform="translate(0 0.99375)" xlink:href="#ArialMT-31"/>
       <use transform="translate(55.615234 0.99375)" xlink:href="#ArialMT-30"/>
       <use transform="translate(112.972813 70.6875)scale(0.7)" xlink:href="#ArialMT-30"/>
      </g>
     </g>
    </g>
    <g id="xtick_2">
     <g id="line2d_2">
      <path clip-path="url(#p0f1012badb)" d="M 261.239392 298.989375 
L 261.239392 21.789375 
" style="fill:none;stroke:#cccccc;stroke-linecap:round;stroke-width:0.8;"/>
     </g>
     <g id="text_2">
      <!-- $\mathdefault{10^{1}}$ -->
      <g style="fill:#262626;" transform="translate(253.389392 316.301875)scale(0.1 -0.1)">
       <use transform="translate(0 0.99375)" xlink:href="#ArialMT-31"/>
       <use transform="translate(55.615234 0.99375)" xlink:href="#ArialMT-30"/>
       <use transform="translate(112.972813 70.6875)scale(0.7)" xlink:href="#ArialMT-31"/>
      </g>
     </g>
    </g>
    <g id="xtick_3">
     <g id="line2d_3">
      <path clip-path="url(#p0f1012badb)" d="M 414.315147 298.989375 
L 414.315147 21.789375 
" style="fill:none;stroke:#cccccc;stroke-linecap:round;stroke-width:0.8;"/>
     </g>
     <g id="text_3">
      <!-- $\mathdefault{10^{2}}$ -->
      <g style="fill:#262626;" transform="translate(406.465147 316.301875)scale(0.1 -0.1)">
       <defs>
        <path d="M 3222 541 
L 3222 0 
L 194 0 
Q 188 203 259 391 
Q 375 700 629 1000 
Q 884 1300 1366 1694 
Q 2113 2306 2375 2664 
Q 2638 3022 2638 3341 
Q 2638 3675 2398 3904 
Q 2159 4134 1775 4134 
Q 1369 4134 1125 3890 
Q 881 3647 878 3216 
L 300 3275 
Q 359 3922 746 4261 
Q 1134 4600 1788 4600 
Q 2447 4600 2831 4234 
Q 3216 3869 3216 3328 
Q 3216 3053 3103 2787 
Q 2991 2522 2730 2228 
Q 2469 1934 1863 1422 
Q 1356 997 1212 845 
Q 1069 694 975 541 
L 3222 541 
z
" id="ArialMT-32" transform="scale(0.015625)"/>
       </defs>
       <use transform="translate(0 0.99375)" xlink:href="#ArialMT-31"/>
       <use transform="translate(55.615234 0.99375)" xlink:href="#ArialMT-30"/>
       <use transform="translate(112.972813 70.6875)scale(0.7)" xlink:href="#ArialMT-32"/>
      </g>
     </g>
    </g>
    <g id="xtick_4">
     <g id="line2d_4">
      <path clip-path="url(#p0f1012badb)" d="M 567.390902 298.989375 
L 567.390902 21.789375 
" style="fill:none;stroke:#cccccc;stroke-linecap:round;stroke-width:0.8;"/>
     </g>
     <g id="text_4">
      <!-- $\mathdefault{10^{3}}$ -->
      <g style="fill:#262626;" transform="translate(559.540902 316.301875)scale(0.1 -0.1)">
       <defs>
        <path d="M 269 1209 
L 831 1284 
Q 928 806 1161 595 
Q 1394 384 1728 384 
Q 2125 384 2398 659 
Q 2672 934 2672 1341 
Q 2672 1728 2419 1979 
Q 2166 2231 1775 2231 
Q 1616 2231 1378 2169 
L 1441 2663 
Q 1497 2656 1531 2656 
Q 1891 2656 2178 2843 
Q 2466 3031 2466 3422 
Q 2466 3731 2256 3934 
Q 2047 4138 1716 4138 
Q 1388 4138 1169 3931 
Q 950 3725 888 3313 
L 325 3413 
Q 428 3978 793 4289 
Q 1159 4600 1703 4600 
Q 2078 4600 2393 4439 
Q 2709 4278 2876 4000 
Q 3044 3722 3044 3409 
Q 3044 3113 2884 2869 
Q 2725 2625 2413 2481 
Q 2819 2388 3044 2092 
Q 3269 1797 3269 1353 
Q 3269 753 2831 336 
Q 2394 -81 1725 -81 
Q 1122 -81 723 278 
Q 325 638 269 1209 
z
" id="ArialMT-33" transform="scale(0.015625)"/>
       </defs>
       <use transform="translate(0 0.99375)" xlink:href="#ArialMT-31"/>
       <use transform="translate(55.615234 0.99375)" xlink:href="#ArialMT-30"/>
       <use transform="translate(112.972813 70.6875)scale(0.7)" xlink:href="#ArialMT-33"/>
      </g>
     </g>
    </g>
    <g id="xtick_5"/>
    <g id="xtick_6"/>
    <g id="xtick_7"/>
    <g id="xtick_8"/>
    <g id="xtick_9"/>
    <g id="xtick_10"/>
    <g id="xtick_11"/>
    <g id="xtick_12"/>
    <g id="xtick_13"/>
    <g id="xtick_14"/>
    <g id="xtick_15"/>
    <g id="xtick_16"/>
    <g id="xtick_17"/>
    <g id="xtick_18"/>
    <g id="xtick_19"/>
    <g id="xtick_20"/>
    <g id="xtick_21"/>
    <g id="xtick_22"/>
    <g id="xtick_23"/>
    <g id="xtick_24"/>
    <g id="xtick_25"/>
    <g id="xtick_26"/>
    <g id="xtick_27"/>
    <g id="xtick_28"/>
    <g id="xtick_29"/>
    <g id="xtick_30"/>
    <g id="xtick_31"/>
    <g id="xtick_32"/>
    <g id="xtick_33"/>
   </g>
   <g id="matplotlib.axis_2">
    <g id="ytick_1">
     <g id="line2d_5">
      <path clip-path="url(#p0f1012badb)" d="M 82.8 286.389375 
L 640.8 286.389375 
" style="fill:none;stroke:#cccccc;stroke-linecap:round;stroke-width:0.8;"/>
     </g>
     <g id="text_5">
      <!-- $\mathdefault{10^{0}}$ -->
      <g style="fill:#262626;" transform="translate(60.1 291.545625)scale(0.1 -0.1)">
       <use transform="translate(0 0.99375)" xlink:href="#ArialMT-31"/>
       <use transform="translate(55.615234 0.99375)" xlink:href="#ArialMT-30"/>
       <use transform="translate(112.972813 70.6875)scale(0.7)" xlink:href="#ArialMT-30"/>
      </g>
     </g>
    </g>
    <g id="ytick_2">
     <g id="line2d_6">
      <path clip-path="url(#p0f1012badb)" d="M 82.8 159.834182 
L 640.8 159.834182 
" style="fill:none;stroke:#cccccc;stroke-linecap:round;stroke-width:0.8;"/>
     </g>
     <g id="text_6">
      <!-- $\mathdefault{10^{1}}$ -->
      <g style="fill:#262626;" transform="translate(60.1 164.990432)scale(0.1 -0.1)">
       <use transform="translate(0 0.99375)" xlink:href="#ArialMT-31"/>
       <use transform="translate(55.615234 0.99375)" xlink:href="#ArialMT-30"/>
       <use transform="translate(112.972813 70.6875)scale(0.7)" xlink:href="#ArialMT-31"/>
      </g>
     </g>
    </g>
    <g id="ytick_3">
     <g id="line2d_7">
      <path clip-path="url(#p0f1012badb)" d="M 82.8 33.278989 
L 640.8 33.278989 
" style="fill:none;stroke:#cccccc;stroke-linecap:round;stroke-width:0.8;"/>
     </g>
     <g id="text_7">
      <!-- $\mathdefault{10^{2}}$ -->
      <g style="fill:#262626;" transform="translate(60.1 38.435239)scale(0.1 -0.1)">
       <use transform="translate(0 0.99375)" xlink:href="#ArialMT-31"/>
       <use transform="translate(55.615234 0.99375)" xlink:href="#ArialMT-30"/>
       <use transform="translate(112.972813 70.6875)scale(0.7)" xlink:href="#ArialMT-32"/>
      </g>
     </g>
    </g>
    <g id="ytick_4"/>
    <g id="ytick_5"/>
    <g id="ytick_6"/>
    <g id="ytick_7"/>
    <g id="ytick_8"/>
    <g id="ytick_9"/>
    <g id="ytick_10"/>
    <g id="ytick_11"/>
    <g id="ytick_12"/>
    <g id="ytick_13"/>
    <g id="ytick_14"/>
    <g id="ytick_15"/>
    <g id="ytick_16"/>
    <g id="ytick_17"/>
    <g id="ytick_18"/>
    <g id="ytick_19"/>
    <g id="ytick_20"/>
    <g id="ytick_21"/>
   </g>
   <g id="line2d_8">
    <path clip-path="url(#p0f1012badb)" d="M 41.778597 341.273125 
L 261.239392 159.834182 
L 261.239392 187.910293 
L 273.360121 172.098648 
L 283.608051 159.834182 
L 283.608051 159.834182 
L 288.194694 159.834182 
L 300.315423 172.098648 
L 310.563353 154.595723 
L 313.656002 149.813384 
L 313.656002 159.834182 
L 316.611153 165.62503 
L 316.611153 165.62503 
L 322.154359 159.834182 
L 324.76175 172.098648 
L 332.021314 172.098648 
L 336.454954 165.62503 
L 344.523018 145.414059 
L 344.523018 149.813384 
L 344.523018 149.813384 
L 359.736396 124.556466 
L 368.234753 111.716475 
L 369.551231 116.498814 
L 370.842144 119.055657 
L 373.351119 124.556466 
L 375.768839 119.055657 
L 378.101708 141.34092 
L 380.355482 159.834182 
L 381.454349 159.834182 
L 383.59905 154.595723 
L 388.676322 141.34092 
L 389.64685 141.34092 
L 389.64685 145.414059 
L 391.546406 145.414059 
L 392.476211 149.813384 
L 396.070597 137.548919 
L 399.480573 130.669674 
L 401.122137 141.34092 
L 403.510895 134.001738 
L 405.057011 127.528121 
L 412.29022 109.472808 
L 413.647001 114.055646 
L 416.922538 111.716475 
L 416.922538 116.498814 
L 418.813091 116.498814 
L 418.813091 121.737273 
L 423.0259 119.055657 
L 426.435876 114.055646 
L 435.243751 86.459557 
L 436.683806 89.431212 
L 438.093328 85.031887 
L 440.825766 80.958748 
L 441.712178 78.401905 
L 444.72473 78.401905 
L 445.560967 83.640364 
L 447.202531 105.242858 
L 448.008358 107.31715 
L 451.51838 95.904829 
L 453.391178 97.649808 
L 454.852335 94.213551 
L 456.282067 99.45201 
L 458.027047 94.213551 
L 459.727395 92.572765 
L 462.360608 83.640364 
L 464.269255 87.925303 
L 467.33339 80.958748 
L 467.33339 86.459557 
L 469.397235 82.283203 
L 471.680033 78.401905 
L 475.230114 69.220241 
L 478.092707 66.137439 
L 483.001205 53.673474 
L 486.682697 49.090635 
L 486.682697 49.090635 
L 489.958234 43.520077 
L 492.261707 41.56855 
L 495.475866 39.683947 
L 496.255698 44.186294 
L 499.286649 46.934978 
L 499.286649 59.552899 
L 499.286649 59.552899 
L 500.751831 66.137439 
L 501.113136 75.958737 
L 502.0079 90.979546 
L 502.890781 89.431212 
L 503.065959 119.055657 
L 503.065959 119.055657 
L 504.107441 124.556466 
L 504.279446 127.528121 
L 504.963051 130.669674 
L 504.963051 149.813384 
L 506.142701 127.528121 
L 506.142701 127.528121 
L 507.792412 116.498814 
L 507.792412 130.669674 
L 508.602166 116.498814 
L 510.506257 101.315314 
L 510.506257 105.242858 
L 510.506257 105.242858 
L 510.662496 127.528121 
L 511.129024 119.055657 
L 511.899368 107.31715 
L 512.357326 111.716475 
L 512.812151 137.548919 
L 513.861462 116.498814 
L 513.861462 116.498814 
L 514.306146 111.716475 
L 514.894468 109.472808 
L 515.767302 107.31715 
L 516.771334 99.45201 
L 517.33833 97.649808 
L 517.33833 111.716475 
L 517.33833 111.716475 
L 518.17986 105.242858 
L 519.285581 97.649808 
L 519.831621 101.315314 
L 520.102968 111.716475 
L 520.77653 109.472808 
L 520.77653 109.472808 
L 520.910427 107.31715 
L 521.044055 119.055657 
L 521.708196 127.528121 
L 523.53325 103.244011 
L 524.173101 97.649808 
L 524.680584 99.45201 
L 524.680584 99.45201 
L 524.680584 101.315314 
L 525.309538 94.213551 
L 525.559463 99.45201 
L 526.426875 114.055646 
L 526.672642 134.001738 
L 526.672642 134.001738 
L 527.161467 137.548919 
L 527.767487 127.528121 
L 528.008357 145.414059 
L 528.844594 127.528121 
L 528.844594 127.528121 
L 529.317763 127.528121 
L 529.787588 130.669674 
L 530.13779 127.528121 
L 530.370238 145.414059 
L 530.717393 134.001738 
L 530.832709 145.414059 
L 531.062744 154.595723 
L 531.634372 145.414059 
L 531.634372 149.813384 
L 531.861654 145.414059 
L 531.861654 159.834182 
L 531.975004 159.834182 
L 532.3139 154.595723 
L 533.098003 145.414059 
L 534.421031 109.472808 
L 534.638999 109.472808 
L 534.638999 109.472808 
L 534.638999 111.716475 
L 535.396305 103.244011 
L 535.503791 116.498814 
L 535.718242 159.834182 
L 535.718242 159.834182 
L 535.932004 149.813384 
L 536.569197 154.595723 
L 536.780245 149.813384 
L 537.304951 134.001738 
L 537.409398 141.34092 
L 537.617799 159.834182 
L 537.825549 159.834182 
L 537.825549 197.931091 
L 538.239111 165.62503 
L 538.239111 172.098648 
L 539.66665 127.528121 
L 539.968603 130.669674 
L 539.968603 130.669674 
L 540.06895 127.528121 
L 540.568427 124.556466 
L 541.162886 154.595723 
L 541.359864 187.910293 
L 541.654241 179.43783 
L 541.84977 179.43783 
L 542.14199 159.834182 
L 542.722605 141.34092 
L 543.393641 134.001738 
L 543.393641 141.34092 
L 543.488953 141.34092 
L 543.963473 141.34092 
L 544.715729 119.055657 
L 545.367043 111.716475 
L 545.644235 111.716475 
L 545.644235 111.716475 
L 546.012037 105.242858 
L 547.373449 87.925303 
L 547.552882 119.055657 
L 547.552882 119.055657 
L 548.707539 99.45201 
L 549.233769 119.055657 
L 550.531402 92.572765 
L 550.531402 92.572765 
L 551.043445 105.242858 
L 551.80419 99.45201 
L 552.223095 97.649808 
L 552.556328 103.244011 
L 553.053068 97.649808 
L 553.053068 99.45201 
L 553.053068 99.45201 
L 553.709665 95.904829 
L 554.197892 101.315314 
L 554.602027 101.315314 
L 554.843334 103.244011 
L 555.083768 109.472808 
L 555.323336 103.244011 
L 555.957994 103.244011 
L 556.586651 99.45201 
L 557.054272 97.649808 
L 557.131891 101.315314 
L 557.44146 99.45201 
L 557.903128 109.472808 
L 557.979762 127.528121 
L 558.361613 130.669674 
L 558.361613 154.595723 
L 558.361613 154.595723 
L 558.741282 154.595723 
L 559.494178 121.737273 
L 561.048037 89.431212 
L 561.048037 89.431212 
L 561.267082 92.572765 
L 561.485407 105.242858 
L 562.208022 134.001738 
L 562.851728 109.472808 
L 562.851728 109.472808 
L 563.559721 95.904829 
L 563.630107 99.45201 
L 564.399479 97.649808 
L 564.607771 101.315314 
L 565.091264 95.904829 
L 565.091264 95.904829 
L 565.434476 105.242858 
L 565.912015 94.213551 
L 566.386148 101.315314 
L 568.052399 70.287502 
L 568.183913 75.958737 
L 568.315166 73.619566 
L 568.315166 73.619566 
L 568.315166 89.431212 
L 568.70738 90.979546 
L 568.967575 141.34092 
L 569.097293 141.34092 
L 569.162056 145.414059 
L 569.162056 145.414059 
L 569.420482 130.669674 
L 569.806247 130.669674 
L 570.189786 124.556466 
L 570.317142 124.556466 
L 570.317142 127.528121 
L 570.317142 127.528121 
L 571.013274 109.472808 
L 571.264616 114.055646 
L 571.515012 124.556466 
L 571.577464 121.737273 
L 571.577464 121.737273 
L 571.826686 127.528121 
L 572.136906 159.834182 
L 572.136906 165.62503 
L 572.136906 165.62503 
L 572.384043 165.62503 
L 572.568796 159.834182 
L 572.997898 134.001738 
L 573.241861 127.528121 
L 573.666655 109.472808 
L 573.666655 109.472808 
L 573.847881 119.055657 
L 574.328751 116.498814 
L 574.508184 119.055657 
L 574.627538 134.001738 
L 574.627538 134.001738 
L 574.924988 121.737273 
L 575.043596 121.737273 
L 575.57473 119.055657 
L 575.984921 109.472808 
L 576.101655 109.472808 
L 576.101655 109.472808 
L 576.218184 116.498814 
L 576.508617 109.472808 
L 576.740053 121.737273 
L 577.085704 124.556466 
L 577.998747 97.649808 
L 578.450609 92.572765 
L 578.675394 92.572765 
L 579.400739 82.283203 
L 579.511631 89.431212 
L 579.898304 80.958748 
L 580.773773 80.958748 
L 581.315143 73.619566 
L 581.530463 85.031887 
L 581.905603 78.401905 
L 582.119022 82.283203 
L 582.543816 82.283203 
L 583.333061 73.619566 
L 583.698193 77.166747 
L 584.832867 58.673485 
L 586.199461 43.520077 
L 586.299582 44.860685 
L 586.399551 43.520077 
L 587.538528 34.389375 
L 587.978957 37.861828 
L 587.978957 42.211391 
L 588.65832 71.375898 
L 588.65832 73.619566 
L 588.995415 68.17331 
L 589.949233 71.375898 
L 590.138365 77.166747 
L 590.23273 74.776708 
L 590.468058 75.958737 
L 590.702555 79.66546 
L 590.982865 72.486284 
L 591.169083 75.958737 
L 591.678511 87.925303 
L 591.908784 86.459557 
L 592.549339 71.375898 
L 592.821985 70.287502 
L 593.228868 77.166747 
L 593.633276 79.66546 
L 594.124234 72.486284 
L 594.213111 87.925303 
L 594.523248 86.459557 
L 595.270469 69.220241 
L 595.401464 69.220241 
L 595.488651 70.287502 
L 595.879583 70.287502 
L 596.095778 77.166747 
L 596.397275 71.375898 
L 597.5053 53.673474 
L 597.674138 70.287502 
L 597.926594 73.619566 
L 598.178094 72.486284 
L 598.678259 67.145949 
L 598.926938 92.572765 
L 599.215892 87.925303 
L 599.29822 85.031887 
L 599.544594 85.031887 
L 599.830882 83.640364 
L 600.156565 89.431212 
L 600.521062 85.031887 
L 600.682421 87.925303 
L 600.923728 83.640364 
L 601.20415 82.283203 
L 601.443574 83.640364 
L 601.602712 89.431212 
L 601.602712 105.242858 
L 601.8011 103.244011 
L 601.959386 99.45201 
L 601.959386 107.31715 
L 602.235482 107.31715 
L 602.979158 90.979546 
L 603.405934 75.958737 
L 603.560449 77.166747 
L 603.637572 89.431212 
L 604.745915 67.145949 
L 605.123858 65.147102 
L 605.312027 71.375898 
L 605.574572 68.17331 
L 605.574572 68.17331 
L 606.207896 54.475856 
L 606.356041 79.66546 
L 606.724965 79.66546 
L 607.018637 85.031887 
L 607.018637 85.031887 
L 607.164988 107.31715 
L 607.311018 107.31715 
L 607.565801 114.055646 
L 607.89195 101.315314 
L 607.964211 107.31715 
L 607.964211 107.31715 
L 608.503678 87.925303 
L 608.932121 77.166747 
L 609.428507 69.220241 
L 609.499118 79.66546 
L 609.499118 79.66546 
L 609.815941 87.925303 
L 610.166205 90.979546 
L 610.688165 89.431212 
L 610.999385 79.66546 
L 610.999385 79.66546 
L 611.274808 80.958748 
L 611.412092 89.431212 
L 611.754068 97.649808 
L 612.060349 90.979546 
L 612.16213 92.572765 
L 612.16213 92.572765 
L 612.534 114.055646 
L 612.567703 149.813384 
L 612.567703 149.813384 
L 612.735964 145.414059 
L 612.80315 149.813384 
L 612.970817 149.813384 
L 613.204843 124.556466 
L 613.204843 124.556466 
L 613.471296 116.498814 
L 613.703569 105.242858 
L 613.769784 109.472808 
L 614.001019 97.649808 
L 614.231453 97.649808 
L 614.231453 97.649808 
L 614.297144 109.472808 
L 614.526555 109.472808 
L 614.787774 97.649808 
L 615.047969 109.472808 
L 615.047969 109.472808 
L 615.145281 107.31715 
L 615.339478 109.472808 
L 615.436364 121.737273 
L 615.436364 121.737273 
" style="fill:none;stroke:#1f77b4;stroke-linecap:round;stroke-width:1.5;"/>
   </g>
   <g id="patch_3">
    <path d="M 82.8 298.989375 
L 82.8 21.789375 
" style="fill:none;stroke:#cccccc;stroke-linecap:square;stroke-linejoin:miter;stroke-width:0.8;"/>
   </g>
   <g id="patch_4">
    <path d="M 640.8 298.989375 
L 640.8 21.789375 
" style="fill:none;stroke:#cccccc;stroke-linecap:square;stroke-linejoin:miter;stroke-width:0.8;"/>
   </g>
   <g id="patch_5">
    <path d="M 82.8 298.989375 
L 640.8 298.989375 
" style="fill:none;stroke:#cccccc;stroke-linecap:square;stroke-linejoin:miter;stroke-width:0.8;"/>
   </g>
   <g id="patch_6">
    <path d="M 82.8 21.789375 
L 640.8 21.789375 
" style="fill:none;stroke:#cccccc;stroke-linecap:square;stroke-linejoin:miter;stroke-width:0.8;"/>
   </g>
   <g id="text_8">
    <!-- Novos Óbitos na semana X Óbitos Totais -->
    <g style="fill:#262626;" transform="translate(252.527813 15.789375)scale(0.12 -0.12)">
     <defs>
      <path d="M 488 0 
L 488 4581 
L 1109 4581 
L 3516 984 
L 3516 4581 
L 4097 4581 
L 4097 0 
L 3475 0 
L 1069 3600 
L 1069 0 
L 488 0 
z
" id="ArialMT-4e" transform="scale(0.015625)"/>
      <path d="M 213 1659 
Q 213 2581 725 3025 
Q 1153 3394 1769 3394 
Q 2453 3394 2887 2945 
Q 3322 2497 3322 1706 
Q 3322 1066 3130 698 
Q 2938 331 2570 128 
Q 2203 -75 1769 -75 
Q 1072 -75 642 372 
Q 213 819 213 1659 
z
M 791 1659 
Q 791 1022 1069 705 
Q 1347 388 1769 388 
Q 2188 388 2466 706 
Q 2744 1025 2744 1678 
Q 2744 2294 2464 2611 
Q 2184 2928 1769 2928 
Q 1347 2928 1069 2612 
Q 791 2297 791 1659 
z
" id="ArialMT-6f" transform="scale(0.015625)"/>
      <path d="M 1344 0 
L 81 3319 
L 675 3319 
L 1388 1331 
Q 1503 1009 1600 663 
Q 1675 925 1809 1294 
L 2547 3319 
L 3125 3319 
L 1869 0 
L 1344 0 
z
" id="ArialMT-76" transform="scale(0.015625)"/>
      <path d="M 197 991 
L 753 1078 
Q 800 744 1014 566 
Q 1228 388 1613 388 
Q 2000 388 2187 545 
Q 2375 703 2375 916 
Q 2375 1106 2209 1216 
Q 2094 1291 1634 1406 
Q 1016 1563 777 1677 
Q 538 1791 414 1992 
Q 291 2194 291 2438 
Q 291 2659 392 2848 
Q 494 3038 669 3163 
Q 800 3259 1026 3326 
Q 1253 3394 1513 3394 
Q 1903 3394 2198 3281 
Q 2494 3169 2634 2976 
Q 2775 2784 2828 2463 
L 2278 2388 
Q 2241 2644 2061 2787 
Q 1881 2931 1553 2931 
Q 1166 2931 1000 2803 
Q 834 2675 834 2503 
Q 834 2394 903 2306 
Q 972 2216 1119 2156 
Q 1203 2125 1616 2013 
Q 2213 1853 2448 1751 
Q 2684 1650 2818 1456 
Q 2953 1263 2953 975 
Q 2953 694 2789 445 
Q 2625 197 2315 61 
Q 2006 -75 1616 -75 
Q 969 -75 630 194 
Q 291 463 197 991 
z
" id="ArialMT-73" transform="scale(0.015625)"/>
      <path id="ArialMT-20" transform="scale(0.015625)"/>
      <path d="M 309 2231 
Q 309 3372 921 4017 
Q 1534 4663 2503 4663 
Q 3138 4663 3647 4359 
Q 4156 4056 4423 3514 
Q 4691 2972 4691 2284 
Q 4691 1588 4409 1038 
Q 4128 488 3612 205 
Q 3097 -78 2500 -78 
Q 1853 -78 1343 234 
Q 834 547 571 1087 
Q 309 1628 309 2231 
z
M 934 2222 
Q 934 1394 1379 917 
Q 1825 441 2497 441 
Q 3181 441 3623 922 
Q 4066 1403 4066 2288 
Q 4066 2847 3877 3264 
Q 3688 3681 3323 3911 
Q 2959 4141 2506 4141 
Q 1863 4141 1398 3698 
Q 934 3256 934 2222 
z
M 2118 4883 
L 2533 5758 
L 3271 5758 
L 2583 4883 
L 2118 4883 
z
" id="ArialMT-d3" transform="scale(0.015625)"/>
      <path d="M 941 0 
L 419 0 
L 419 4581 
L 981 4581 
L 981 2947 
Q 1338 3394 1891 3394 
Q 2197 3394 2470 3270 
Q 2744 3147 2920 2923 
Q 3097 2700 3197 2384 
Q 3297 2069 3297 1709 
Q 3297 856 2875 390 
Q 2453 -75 1863 -75 
Q 1275 -75 941 416 
L 941 0 
z
M 934 1684 
Q 934 1088 1097 822 
Q 1363 388 1816 388 
Q 2184 388 2453 708 
Q 2722 1028 2722 1663 
Q 2722 2313 2464 2622 
Q 2206 2931 1841 2931 
Q 1472 2931 1203 2611 
Q 934 2291 934 1684 
z
" id="ArialMT-62" transform="scale(0.015625)"/>
      <path d="M 425 3934 
L 425 4581 
L 988 4581 
L 988 3934 
L 425 3934 
z
M 425 0 
L 425 3319 
L 988 3319 
L 988 0 
L 425 0 
z
" id="ArialMT-69" transform="scale(0.015625)"/>
      <path d="M 1650 503 
L 1731 6 
Q 1494 -44 1306 -44 
Q 1000 -44 831 53 
Q 663 150 594 308 
Q 525 466 525 972 
L 525 2881 
L 113 2881 
L 113 3319 
L 525 3319 
L 525 4141 
L 1084 4478 
L 1084 3319 
L 1650 3319 
L 1650 2881 
L 1084 2881 
L 1084 941 
Q 1084 700 1114 631 
Q 1144 563 1211 522 
Q 1278 481 1403 481 
Q 1497 481 1650 503 
z
" id="ArialMT-74" transform="scale(0.015625)"/>
      <path d="M 422 0 
L 422 3319 
L 928 3319 
L 928 2847 
Q 1294 3394 1984 3394 
Q 2284 3394 2536 3286 
Q 2788 3178 2913 3003 
Q 3038 2828 3088 2588 
Q 3119 2431 3119 2041 
L 3119 0 
L 2556 0 
L 2556 2019 
Q 2556 2363 2490 2533 
Q 2425 2703 2258 2804 
Q 2091 2906 1866 2906 
Q 1506 2906 1245 2678 
Q 984 2450 984 1813 
L 984 0 
L 422 0 
z
" id="ArialMT-6e" transform="scale(0.015625)"/>
      <path d="M 2588 409 
Q 2275 144 1986 34 
Q 1697 -75 1366 -75 
Q 819 -75 525 192 
Q 231 459 231 875 
Q 231 1119 342 1320 
Q 453 1522 633 1644 
Q 813 1766 1038 1828 
Q 1203 1872 1538 1913 
Q 2219 1994 2541 2106 
Q 2544 2222 2544 2253 
Q 2544 2597 2384 2738 
Q 2169 2928 1744 2928 
Q 1347 2928 1158 2789 
Q 969 2650 878 2297 
L 328 2372 
Q 403 2725 575 2942 
Q 747 3159 1072 3276 
Q 1397 3394 1825 3394 
Q 2250 3394 2515 3294 
Q 2781 3194 2906 3042 
Q 3031 2891 3081 2659 
Q 3109 2516 3109 2141 
L 3109 1391 
Q 3109 606 3145 398 
Q 3181 191 3288 0 
L 2700 0 
Q 2613 175 2588 409 
z
M 2541 1666 
Q 2234 1541 1622 1453 
Q 1275 1403 1131 1340 
Q 988 1278 909 1158 
Q 831 1038 831 891 
Q 831 666 1001 516 
Q 1172 366 1500 366 
Q 1825 366 2078 508 
Q 2331 650 2450 897 
Q 2541 1088 2541 1459 
L 2541 1666 
z
" id="ArialMT-61" transform="scale(0.015625)"/>
      <path d="M 2694 1069 
L 3275 997 
Q 3138 488 2766 206 
Q 2394 -75 1816 -75 
Q 1088 -75 661 373 
Q 234 822 234 1631 
Q 234 2469 665 2931 
Q 1097 3394 1784 3394 
Q 2450 3394 2872 2941 
Q 3294 2488 3294 1666 
Q 3294 1616 3291 1516 
L 816 1516 
Q 847 969 1125 678 
Q 1403 388 1819 388 
Q 2128 388 2347 550 
Q 2566 713 2694 1069 
z
M 847 1978 
L 2700 1978 
Q 2663 2397 2488 2606 
Q 2219 2931 1791 2931 
Q 1403 2931 1139 2672 
Q 875 2413 847 1978 
z
" id="ArialMT-65" transform="scale(0.015625)"/>
      <path d="M 422 0 
L 422 3319 
L 925 3319 
L 925 2853 
Q 1081 3097 1340 3245 
Q 1600 3394 1931 3394 
Q 2300 3394 2536 3241 
Q 2772 3088 2869 2813 
Q 3263 3394 3894 3394 
Q 4388 3394 4653 3120 
Q 4919 2847 4919 2278 
L 4919 0 
L 4359 0 
L 4359 2091 
Q 4359 2428 4304 2576 
Q 4250 2725 4106 2815 
Q 3963 2906 3769 2906 
Q 3419 2906 3187 2673 
Q 2956 2441 2956 1928 
L 2956 0 
L 2394 0 
L 2394 2156 
Q 2394 2531 2256 2718 
Q 2119 2906 1806 2906 
Q 1569 2906 1367 2781 
Q 1166 2656 1075 2415 
Q 984 2175 984 1722 
L 984 0 
L 422 0 
z
" id="ArialMT-6d" transform="scale(0.015625)"/>
      <path d="M 28 0 
L 1800 2388 
L 238 4581 
L 959 4581 
L 1791 3406 
Q 2050 3041 2159 2844 
Q 2313 3094 2522 3366 
L 3444 4581 
L 4103 4581 
L 2494 2422 
L 4228 0 
L 3478 0 
L 2325 1634 
Q 2228 1775 2125 1941 
Q 1972 1691 1906 1597 
L 756 0 
L 28 0 
z
" id="ArialMT-58" transform="scale(0.015625)"/>
      <path d="M 1659 0 
L 1659 4041 
L 150 4041 
L 150 4581 
L 3781 4581 
L 3781 4041 
L 2266 4041 
L 2266 0 
L 1659 0 
z
" id="ArialMT-54" transform="scale(0.015625)"/>
     </defs>
     <use xlink:href="#ArialMT-4e"/>
     <use x="72.216797" xlink:href="#ArialMT-6f"/>
     <use x="127.832031" xlink:href="#ArialMT-76"/>
     <use x="177.832031" xlink:href="#ArialMT-6f"/>
     <use x="233.447266" xlink:href="#ArialMT-73"/>
     <use x="283.447266" xlink:href="#ArialMT-20"/>
     <use x="311.230469" xlink:href="#ArialMT-d3"/>
     <use x="389.013672" xlink:href="#ArialMT-62"/>
     <use x="444.628906" xlink:href="#ArialMT-69"/>
     <use x="466.845703" xlink:href="#ArialMT-74"/>
     <use x="494.628906" xlink:href="#ArialMT-6f"/>
     <use x="550.244141" xlink:href="#ArialMT-73"/>
     <use x="600.244141" xlink:href="#ArialMT-20"/>
     <use x="628.027344" xlink:href="#ArialMT-6e"/>
     <use x="683.642578" xlink:href="#ArialMT-61"/>
     <use x="739.257812" xlink:href="#ArialMT-20"/>
     <use x="767.041016" xlink:href="#ArialMT-73"/>
     <use x="817.041016" xlink:href="#ArialMT-65"/>
     <use x="872.65625" xlink:href="#ArialMT-6d"/>
     <use x="955.957031" xlink:href="#ArialMT-61"/>
     <use x="1011.572266" xlink:href="#ArialMT-6e"/>
     <use x="1067.1875" xlink:href="#ArialMT-61"/>
     <use x="1122.802734" xlink:href="#ArialMT-20"/>
     <use x="1150.585938" xlink:href="#ArialMT-58"/>
     <use x="1217.285156" xlink:href="#ArialMT-20"/>
     <use x="1245.068359" xlink:href="#ArialMT-d3"/>
     <use x="1322.851562" xlink:href="#ArialMT-62"/>
     <use x="1378.466797" xlink:href="#ArialMT-69"/>
     <use x="1400.683594" xlink:href="#ArialMT-74"/>
     <use x="1428.466797" xlink:href="#ArialMT-6f"/>
     <use x="1484.082031" xlink:href="#ArialMT-73"/>
     <use x="1534.082031" xlink:href="#ArialMT-20"/>
     <use x="1560.115234" xlink:href="#ArialMT-54"/>
     <use x="1610.074219" xlink:href="#ArialMT-6f"/>
     <use x="1665.689453" xlink:href="#ArialMT-74"/>
     <use x="1693.472656" xlink:href="#ArialMT-61"/>
     <use x="1749.087891" xlink:href="#ArialMT-69"/>
     <use x="1771.304688" xlink:href="#ArialMT-73"/>
    </g>
   </g>
  </g>
  <g id="text_9">
   <!-- Atualizado em 25/08/2021 -->
   <g style="fill:#262626;" transform="translate(7.2 331.389375)scale(0.08 -0.08)">
    <defs>
     <path d="M -9 0 
L 1750 4581 
L 2403 4581 
L 4278 0 
L 3588 0 
L 3053 1388 
L 1138 1388 
L 634 0 
L -9 0 
z
M 1313 1881 
L 2866 1881 
L 2388 3150 
Q 2169 3728 2063 4100 
Q 1975 3659 1816 3225 
L 1313 1881 
z
" id="ArialMT-41" transform="scale(0.015625)"/>
     <path d="M 2597 0 
L 2597 488 
Q 2209 -75 1544 -75 
Q 1250 -75 995 37 
Q 741 150 617 320 
Q 494 491 444 738 
Q 409 903 409 1263 
L 409 3319 
L 972 3319 
L 972 1478 
Q 972 1038 1006 884 
Q 1059 663 1231 536 
Q 1403 409 1656 409 
Q 1909 409 2131 539 
Q 2353 669 2445 892 
Q 2538 1116 2538 1541 
L 2538 3319 
L 3100 3319 
L 3100 0 
L 2597 0 
z
" id="ArialMT-75" transform="scale(0.015625)"/>
     <path d="M 409 0 
L 409 4581 
L 972 4581 
L 972 0 
L 409 0 
z
" id="ArialMT-6c" transform="scale(0.015625)"/>
     <path d="M 125 0 
L 125 456 
L 2238 2881 
Q 1878 2863 1603 2863 
L 250 2863 
L 250 3319 
L 2963 3319 
L 2963 2947 
L 1166 841 
L 819 456 
Q 1197 484 1528 484 
L 3063 484 
L 3063 0 
L 125 0 
z
" id="ArialMT-7a" transform="scale(0.015625)"/>
     <path d="M 2575 0 
L 2575 419 
Q 2259 -75 1647 -75 
Q 1250 -75 917 144 
Q 584 363 401 755 
Q 219 1147 219 1656 
Q 219 2153 384 2558 
Q 550 2963 881 3178 
Q 1213 3394 1622 3394 
Q 1922 3394 2156 3267 
Q 2391 3141 2538 2938 
L 2538 4581 
L 3097 4581 
L 3097 0 
L 2575 0 
z
M 797 1656 
Q 797 1019 1065 703 
Q 1334 388 1700 388 
Q 2069 388 2326 689 
Q 2584 991 2584 1609 
Q 2584 2291 2321 2609 
Q 2059 2928 1675 2928 
Q 1300 2928 1048 2622 
Q 797 2316 797 1656 
z
" id="ArialMT-64" transform="scale(0.015625)"/>
     <path d="M 266 1200 
L 856 1250 
Q 922 819 1161 601 
Q 1400 384 1738 384 
Q 2144 384 2425 690 
Q 2706 997 2706 1503 
Q 2706 1984 2436 2262 
Q 2166 2541 1728 2541 
Q 1456 2541 1237 2417 
Q 1019 2294 894 2097 
L 366 2166 
L 809 4519 
L 3088 4519 
L 3088 3981 
L 1259 3981 
L 1013 2750 
Q 1425 3038 1878 3038 
Q 2478 3038 2890 2622 
Q 3303 2206 3303 1553 
Q 3303 931 2941 478 
Q 2500 -78 1738 -78 
Q 1113 -78 717 272 
Q 322 622 266 1200 
z
" id="ArialMT-35" transform="scale(0.015625)"/>
     <path d="M 0 -78 
L 1328 4659 
L 1778 4659 
L 453 -78 
L 0 -78 
z
" id="ArialMT-2f" transform="scale(0.015625)"/>
     <path d="M 1131 2484 
Q 781 2613 612 2850 
Q 444 3088 444 3419 
Q 444 3919 803 4259 
Q 1163 4600 1759 4600 
Q 2359 4600 2725 4251 
Q 3091 3903 3091 3403 
Q 3091 3084 2923 2848 
Q 2756 2613 2416 2484 
Q 2838 2347 3058 2040 
Q 3278 1734 3278 1309 
Q 3278 722 2862 322 
Q 2447 -78 1769 -78 
Q 1091 -78 675 323 
Q 259 725 259 1325 
Q 259 1772 486 2073 
Q 713 2375 1131 2484 
z
M 1019 3438 
Q 1019 3113 1228 2906 
Q 1438 2700 1772 2700 
Q 2097 2700 2305 2904 
Q 2513 3109 2513 3406 
Q 2513 3716 2298 3927 
Q 2084 4138 1766 4138 
Q 1444 4138 1231 3931 
Q 1019 3725 1019 3438 
z
M 838 1322 
Q 838 1081 952 856 
Q 1066 631 1291 507 
Q 1516 384 1775 384 
Q 2178 384 2440 643 
Q 2703 903 2703 1303 
Q 2703 1709 2433 1975 
Q 2163 2241 1756 2241 
Q 1359 2241 1098 1978 
Q 838 1716 838 1322 
z
" id="ArialMT-38" transform="scale(0.015625)"/>
    </defs>
    <use xlink:href="#ArialMT-41"/>
    <use x="66.699219" xlink:href="#ArialMT-74"/>
    <use x="94.482422" xlink:href="#ArialMT-75"/>
    <use x="150.097656" xlink:href="#ArialMT-61"/>
    <use x="205.712891" xlink:href="#ArialMT-6c"/>
    <use x="227.929688" xlink:href="#ArialMT-69"/>
    <use x="250.146484" xlink:href="#ArialMT-7a"/>
    <use x="300.146484" xlink:href="#ArialMT-61"/>
    <use x="355.761719" xlink:href="#ArialMT-64"/>
    <use x="411.376953" xlink:href="#ArialMT-6f"/>
    <use x="466.992188" xlink:href="#ArialMT-20"/>
    <use x="494.775391" xlink:href="#ArialMT-65"/>
    <use x="550.390625" xlink:href="#ArialMT-6d"/>
    <use x="633.691406" xlink:href="#ArialMT-20"/>
    <use x="661.474609" xlink:href="#ArialMT-32"/>
    <use x="717.089844" xlink:href="#ArialMT-35"/>
    <use x="772.705078" xlink:href="#ArialMT-2f"/>
    <use x="800.488281" xlink:href="#ArialMT-30"/>
    <use x="856.103516" xlink:href="#ArialMT-38"/>
    <use x="911.71875" xlink:href="#ArialMT-2f"/>
    <use x="939.501953" xlink:href="#ArialMT-32"/>
    <use x="995.117188" xlink:href="#ArialMT-30"/>
    <use x="1050.732422" xlink:href="#ArialMT-32"/>
    <use x="1106.347656" xlink:href="#ArialMT-31"/>
   </g>
  </g>
  <g id="text_10">
   <!-- https://jmsvaz.github.io/covidsantos/ -->
   <g style="fill:#262626;" transform="translate(570.345 331.389375)scale(0.08 -0.08)">
    <defs>
     <path d="M 422 0 
L 422 4581 
L 984 4581 
L 984 2938 
Q 1378 3394 1978 3394 
Q 2347 3394 2619 3248 
Q 2891 3103 3008 2847 
Q 3125 2591 3125 2103 
L 3125 0 
L 2563 0 
L 2563 2103 
Q 2563 2525 2380 2717 
Q 2197 2909 1863 2909 
Q 1613 2909 1392 2779 
Q 1172 2650 1078 2428 
Q 984 2206 984 1816 
L 984 0 
L 422 0 
z
" id="ArialMT-68" transform="scale(0.015625)"/>
     <path d="M 422 -1272 
L 422 3319 
L 934 3319 
L 934 2888 
Q 1116 3141 1344 3267 
Q 1572 3394 1897 3394 
Q 2322 3394 2647 3175 
Q 2972 2956 3137 2557 
Q 3303 2159 3303 1684 
Q 3303 1175 3120 767 
Q 2938 359 2589 142 
Q 2241 -75 1856 -75 
Q 1575 -75 1351 44 
Q 1128 163 984 344 
L 984 -1272 
L 422 -1272 
z
M 931 1641 
Q 931 1000 1190 694 
Q 1450 388 1819 388 
Q 2194 388 2461 705 
Q 2728 1022 2728 1688 
Q 2728 2322 2467 2637 
Q 2206 2953 1844 2953 
Q 1484 2953 1207 2617 
Q 931 2281 931 1641 
z
" id="ArialMT-70" transform="scale(0.015625)"/>
     <path d="M 578 2678 
L 578 3319 
L 1219 3319 
L 1219 2678 
L 578 2678 
z
M 578 0 
L 578 641 
L 1219 641 
L 1219 0 
L 578 0 
z
" id="ArialMT-3a" transform="scale(0.015625)"/>
     <path d="M 419 3928 
L 419 4581 
L 981 4581 
L 981 3928 
L 419 3928 
z
M -294 -1288 
L -188 -809 
Q -19 -853 78 -853 
Q 250 -853 334 -739 
Q 419 -625 419 -169 
L 419 3319 
L 981 3319 
L 981 -181 
Q 981 -794 822 -1034 
Q 619 -1347 147 -1347 
Q -81 -1347 -294 -1288 
z
" id="ArialMT-6a" transform="scale(0.015625)"/>
     <path d="M 581 0 
L 581 641 
L 1222 641 
L 1222 0 
L 581 0 
z
" id="ArialMT-2e" transform="scale(0.015625)"/>
     <path d="M 319 -275 
L 866 -356 
Q 900 -609 1056 -725 
Q 1266 -881 1628 -881 
Q 2019 -881 2231 -725 
Q 2444 -569 2519 -288 
Q 2563 -116 2559 434 
Q 2191 0 1641 0 
Q 956 0 581 494 
Q 206 988 206 1678 
Q 206 2153 378 2554 
Q 550 2956 876 3175 
Q 1203 3394 1644 3394 
Q 2231 3394 2613 2919 
L 2613 3319 
L 3131 3319 
L 3131 450 
Q 3131 -325 2973 -648 
Q 2816 -972 2473 -1159 
Q 2131 -1347 1631 -1347 
Q 1038 -1347 672 -1080 
Q 306 -813 319 -275 
z
M 784 1719 
Q 784 1066 1043 766 
Q 1303 466 1694 466 
Q 2081 466 2343 764 
Q 2606 1063 2606 1700 
Q 2606 2309 2336 2618 
Q 2066 2928 1684 2928 
Q 1309 2928 1046 2623 
Q 784 2319 784 1719 
z
" id="ArialMT-67" transform="scale(0.015625)"/>
     <path d="M 2588 1216 
L 3141 1144 
Q 3050 572 2676 248 
Q 2303 -75 1759 -75 
Q 1078 -75 664 370 
Q 250 816 250 1647 
Q 250 2184 428 2587 
Q 606 2991 970 3192 
Q 1334 3394 1763 3394 
Q 2303 3394 2647 3120 
Q 2991 2847 3088 2344 
L 2541 2259 
Q 2463 2594 2264 2762 
Q 2066 2931 1784 2931 
Q 1359 2931 1093 2626 
Q 828 2322 828 1663 
Q 828 994 1084 691 
Q 1341 388 1753 388 
Q 2084 388 2306 591 
Q 2528 794 2588 1216 
z
" id="ArialMT-63" transform="scale(0.015625)"/>
    </defs>
    <use xlink:href="#ArialMT-68"/>
    <use x="55.615234" xlink:href="#ArialMT-74"/>
    <use x="83.398438" xlink:href="#ArialMT-74"/>
    <use x="111.181641" xlink:href="#ArialMT-70"/>
    <use x="166.796875" xlink:href="#ArialMT-73"/>
    <use x="216.796875" xlink:href="#ArialMT-3a"/>
    <use x="244.580078" xlink:href="#ArialMT-2f"/>
    <use x="272.363281" xlink:href="#ArialMT-2f"/>
    <use x="300.146484" xlink:href="#ArialMT-6a"/>
    <use x="322.363281" xlink:href="#ArialMT-6d"/>
    <use x="405.664062" xlink:href="#ArialMT-73"/>
    <use x="455.664062" xlink:href="#ArialMT-76"/>
    <use x="505.664062" xlink:href="#ArialMT-61"/>
    <use x="561.279297" xlink:href="#ArialMT-7a"/>
    <use x="611.279297" xlink:href="#ArialMT-2e"/>
    <use x="639.0625" xlink:href="#ArialMT-67"/>
    <use x="694.677734" xlink:href="#ArialMT-69"/>
    <use x="716.894531" xlink:href="#ArialMT-74"/>
    <use x="744.677734" xlink:href="#ArialMT-68"/>
    <use x="800.292969" xlink:href="#ArialMT-75"/>
    <use x="855.908203" xlink:href="#ArialMT-62"/>
    <use x="911.523438" xlink:href="#ArialMT-2e"/>
    <use x="939.306641" xlink:href="#ArialMT-69"/>
    <use x="961.523438" xlink:href="#ArialMT-6f"/>
    <use x="1017.138672" xlink:href="#ArialMT-2f"/>
    <use x="1044.921875" xlink:href="#ArialMT-63"/>
    <use x="1094.921875" xlink:href="#ArialMT-6f"/>
    <use x="1150.537109" xlink:href="#ArialMT-76"/>
    <use x="1200.537109" xlink:href="#ArialMT-69"/>
    <use x="1222.753906" xlink:href="#ArialMT-64"/>
    <use x="1278.369141" xlink:href="#ArialMT-73"/>
    <use x="1328.369141" xlink:href="#ArialMT-61"/>
    <use x="1383.984375" xlink:href="#ArialMT-6e"/>
    <use x="1439.599609" xlink:href="#ArialMT-74"/>
    <use x="1467.382812" xlink:href="#ArialMT-6f"/>
    <use x="1522.998047" xlink:href="#ArialMT-73"/>
    <use x="1572.998047" xlink:href="#ArialMT-2f"/>
   </g>
  </g>
 </g>
 <defs>
  <clipPath id="p0f1012badb">
   <rect height="277.2" width="558" x="82.8" y="21.789375"/>
  </clipPath>
 </defs>
</svg>
