<?xml version="1.0" encoding="utf-8" standalone="no"?>
<!DOCTYPE svg PUBLIC "-//W3C//DTD SVG 1.1//EN"
  "http://www.w3.org/Graphics/SVG/1.1/DTD/svg11.dtd">
<svg xmlns:xlink="http://www.w3.org/1999/xlink" width="705.6pt" height="340.273125pt" viewBox="0 0 705.6 340.273125" xmlns="http://www.w3.org/2000/svg" version="1.1">
 <metadata>
  <rdf:RDF xmlns:dc="http://purl.org/dc/elements/1.1/" xmlns:cc="http://creativecommons.org/ns#" xmlns:rdf="http://www.w3.org/1999/02/22-rdf-syntax-ns#">
   <cc:Work>
    <dc:type rdf:resource="http://purl.org/dc/dcmitype/StillImage"/>
    <dc:date>2022-02-10T16:53:23.521891</dc:date>
    <dc:format>image/svg+xml</dc:format>
    <dc:creator>
     <cc:Agent>
      <dc:title>Matplotlib v3.5.1, https://matplotlib.org/</dc:title>
     </cc:Agent>
    </dc:creator>
   </cc:Work>
  </rdf:RDF>
 </metadata>
 <defs>
  <style type="text/css">*{stroke-linejoin: round; stroke-linecap: butt}</style>
 </defs>
 <g id="figure_1">
  <g id="patch_1">
   <path d="M 0 340.273125 
L 705.6 340.273125 
L 705.6 0 
L 0 0 
z
" style="fill: #ffffff"/>
  </g>
  <g id="axes_1">
   <g id="patch_2">
    <path d="M 82.8 298.989375 
L 640.8 298.989375 
L 640.8 21.789375 
L 82.8 21.789375 
z
" style="fill: #ffffff"/>
   </g>
   <g id="matplotlib.axis_1">
    <g id="xtick_1">
     <g id="line2d_1">
      <path d="M 108.163636 298.989375 
L 108.163636 21.789375 
" clip-path="url(#p73528ee75e)" style="fill: none; stroke: #cccccc; stroke-width: 0.8; stroke-linecap: round"/>
     </g>
     <g id="text_1">
      <!-- $\mathdefault{10^{0}}$ -->
      <g style="fill: #262626" transform="translate(100.313636 316.301875)scale(0.1 -0.1)">
       <defs>
        <path id="ArialMT-31" d="M 2384 0 
L 1822 0 
L 1822 3584 
Q 1619 3391 1289 3197 
Q 959 3003 697 2906 
L 697 3450 
Q 1169 3672 1522 3987 
Q 1875 4303 2022 4600 
L 2384 4600 
L 2384 0 
z
" transform="scale(0.015625)"/>
        <path id="ArialMT-30" d="M 266 2259 
Q 266 3072 433 3567 
Q 600 4063 929 4331 
Q 1259 4600 1759 4600 
Q 2128 4600 2406 4451 
Q 2684 4303 2865 4023 
Q 3047 3744 3150 3342 
Q 3253 2941 3253 2259 
Q 3253 1453 3087 958 
Q 2922 463 2592 192 
Q 2263 -78 1759 -78 
Q 1097 -78 719 397 
Q 266 969 266 2259 
z
M 844 2259 
Q 844 1131 1108 757 
Q 1372 384 1759 384 
Q 2147 384 2411 759 
Q 2675 1134 2675 2259 
Q 2675 3391 2411 3762 
Q 2147 4134 1753 4134 
Q 1366 4134 1134 3806 
Q 844 3388 844 2259 
z
" transform="scale(0.015625)"/>
       </defs>
       <use xlink:href="#ArialMT-31" transform="translate(0 0.99375)"/>
       <use xlink:href="#ArialMT-30" transform="translate(55.615234 0.99375)"/>
       <use xlink:href="#ArialMT-30" transform="translate(112.972813 70.6875)scale(0.7)"/>
      </g>
     </g>
    </g>
    <g id="xtick_2">
     <g id="line2d_2">
      <path d="M 258.412717 298.989375 
L 258.412717 21.789375 
" clip-path="url(#p73528ee75e)" style="fill: none; stroke: #cccccc; stroke-width: 0.8; stroke-linecap: round"/>
     </g>
     <g id="text_2">
      <!-- $\mathdefault{10^{1}}$ -->
      <g style="fill: #262626" transform="translate(250.562717 316.301875)scale(0.1 -0.1)">
       <use xlink:href="#ArialMT-31" transform="translate(0 0.99375)"/>
       <use xlink:href="#ArialMT-30" transform="translate(55.615234 0.99375)"/>
       <use xlink:href="#ArialMT-31" transform="translate(112.972813 70.6875)scale(0.7)"/>
      </g>
     </g>
    </g>
    <g id="xtick_3">
     <g id="line2d_3">
      <path d="M 408.661798 298.989375 
L 408.661798 21.789375 
" clip-path="url(#p73528ee75e)" style="fill: none; stroke: #cccccc; stroke-width: 0.8; stroke-linecap: round"/>
     </g>
     <g id="text_3">
      <!-- $\mathdefault{10^{2}}$ -->
      <g style="fill: #262626" transform="translate(400.811798 316.301875)scale(0.1 -0.1)">
       <defs>
        <path id="ArialMT-32" d="M 3222 541 
L 3222 0 
L 194 0 
Q 188 203 259 391 
Q 375 700 629 1000 
Q 884 1300 1366 1694 
Q 2113 2306 2375 2664 
Q 2638 3022 2638 3341 
Q 2638 3675 2398 3904 
Q 2159 4134 1775 4134 
Q 1369 4134 1125 3890 
Q 881 3647 878 3216 
L 300 3275 
Q 359 3922 746 4261 
Q 1134 4600 1788 4600 
Q 2447 4600 2831 4234 
Q 3216 3869 3216 3328 
Q 3216 3053 3103 2787 
Q 2991 2522 2730 2228 
Q 2469 1934 1863 1422 
Q 1356 997 1212 845 
Q 1069 694 975 541 
L 3222 541 
z
" transform="scale(0.015625)"/>
       </defs>
       <use xlink:href="#ArialMT-31" transform="translate(0 0.99375)"/>
       <use xlink:href="#ArialMT-30" transform="translate(55.615234 0.99375)"/>
       <use xlink:href="#ArialMT-32" transform="translate(112.972813 70.6875)scale(0.7)"/>
      </g>
     </g>
    </g>
    <g id="xtick_4">
     <g id="line2d_4">
      <path d="M 558.910879 298.989375 
L 558.910879 21.789375 
" clip-path="url(#p73528ee75e)" style="fill: none; stroke: #cccccc; stroke-width: 0.8; stroke-linecap: round"/>
     </g>
     <g id="text_4">
      <!-- $\mathdefault{10^{3}}$ -->
      <g style="fill: #262626" transform="translate(551.060879 316.301875)scale(0.1 -0.1)">
       <defs>
        <path id="ArialMT-33" d="M 269 1209 
L 831 1284 
Q 928 806 1161 595 
Q 1394 384 1728 384 
Q 2125 384 2398 659 
Q 2672 934 2672 1341 
Q 2672 1728 2419 1979 
Q 2166 2231 1775 2231 
Q 1616 2231 1378 2169 
L 1441 2663 
Q 1497 2656 1531 2656 
Q 1891 2656 2178 2843 
Q 2466 3031 2466 3422 
Q 2466 3731 2256 3934 
Q 2047 4138 1716 4138 
Q 1388 4138 1169 3931 
Q 950 3725 888 3313 
L 325 3413 
Q 428 3978 793 4289 
Q 1159 4600 1703 4600 
Q 2078 4600 2393 4439 
Q 2709 4278 2876 4000 
Q 3044 3722 3044 3409 
Q 3044 3113 2884 2869 
Q 2725 2625 2413 2481 
Q 2819 2388 3044 2092 
Q 3269 1797 3269 1353 
Q 3269 753 2831 336 
Q 2394 -81 1725 -81 
Q 1122 -81 723 278 
Q 325 638 269 1209 
z
" transform="scale(0.015625)"/>
       </defs>
       <use xlink:href="#ArialMT-31" transform="translate(0 0.99375)"/>
       <use xlink:href="#ArialMT-30" transform="translate(55.615234 0.99375)"/>
       <use xlink:href="#ArialMT-33" transform="translate(112.972813 70.6875)scale(0.7)"/>
      </g>
     </g>
    </g>
    <g id="xtick_5"/>
    <g id="xtick_6"/>
    <g id="xtick_7"/>
    <g id="xtick_8"/>
    <g id="xtick_9"/>
    <g id="xtick_10"/>
    <g id="xtick_11"/>
    <g id="xtick_12"/>
    <g id="xtick_13"/>
    <g id="xtick_14"/>
    <g id="xtick_15"/>
    <g id="xtick_16"/>
    <g id="xtick_17"/>
    <g id="xtick_18"/>
    <g id="xtick_19"/>
    <g id="xtick_20"/>
    <g id="xtick_21"/>
    <g id="xtick_22"/>
    <g id="xtick_23"/>
    <g id="xtick_24"/>
    <g id="xtick_25"/>
    <g id="xtick_26"/>
    <g id="xtick_27"/>
    <g id="xtick_28"/>
    <g id="xtick_29"/>
    <g id="xtick_30"/>
    <g id="xtick_31"/>
    <g id="xtick_32"/>
    <g id="xtick_33"/>
   </g>
   <g id="matplotlib.axis_2">
    <g id="ytick_1">
     <g id="line2d_5">
      <path d="M 82.8 286.389375 
L 640.8 286.389375 
" clip-path="url(#p73528ee75e)" style="fill: none; stroke: #cccccc; stroke-width: 0.8; stroke-linecap: round"/>
     </g>
     <g id="text_5">
      <!-- $\mathdefault{10^{0}}$ -->
      <g style="fill: #262626" transform="translate(60.1 291.545625)scale(0.1 -0.1)">
       <use xlink:href="#ArialMT-31" transform="translate(0 0.99375)"/>
       <use xlink:href="#ArialMT-30" transform="translate(55.615234 0.99375)"/>
       <use xlink:href="#ArialMT-30" transform="translate(112.972813 70.6875)scale(0.7)"/>
      </g>
     </g>
    </g>
    <g id="ytick_2">
     <g id="line2d_6">
      <path d="M 82.8 159.834182 
L 640.8 159.834182 
" clip-path="url(#p73528ee75e)" style="fill: none; stroke: #cccccc; stroke-width: 0.8; stroke-linecap: round"/>
     </g>
     <g id="text_6">
      <!-- $\mathdefault{10^{1}}$ -->
      <g style="fill: #262626" transform="translate(60.1 164.990432)scale(0.1 -0.1)">
       <use xlink:href="#ArialMT-31" transform="translate(0 0.99375)"/>
       <use xlink:href="#ArialMT-30" transform="translate(55.615234 0.99375)"/>
       <use xlink:href="#ArialMT-31" transform="translate(112.972813 70.6875)scale(0.7)"/>
      </g>
     </g>
    </g>
    <g id="ytick_3">
     <g id="line2d_7">
      <path d="M 82.8 33.278989 
L 640.8 33.278989 
" clip-path="url(#p73528ee75e)" style="fill: none; stroke: #cccccc; stroke-width: 0.8; stroke-linecap: round"/>
     </g>
     <g id="text_7">
      <!-- $\mathdefault{10^{2}}$ -->
      <g style="fill: #262626" transform="translate(60.1 38.435239)scale(0.1 -0.1)">
       <use xlink:href="#ArialMT-31" transform="translate(0 0.99375)"/>
       <use xlink:href="#ArialMT-30" transform="translate(55.615234 0.99375)"/>
       <use xlink:href="#ArialMT-32" transform="translate(112.972813 70.6875)scale(0.7)"/>
      </g>
     </g>
    </g>
    <g id="ytick_4"/>
    <g id="ytick_5"/>
    <g id="ytick_6"/>
    <g id="ytick_7"/>
    <g id="ytick_8"/>
    <g id="ytick_9"/>
    <g id="ytick_10"/>
    <g id="ytick_11"/>
    <g id="ytick_12"/>
    <g id="ytick_13"/>
    <g id="ytick_14"/>
    <g id="ytick_15"/>
    <g id="ytick_16"/>
    <g id="ytick_17"/>
    <g id="ytick_18"/>
    <g id="ytick_19"/>
    <g id="ytick_20"/>
    <g id="ytick_21"/>
   </g>
   <g id="line2d_8">
    <path d="M 43.004453 341.273125 
L 258.412717 159.834182 
L 258.412717 187.910293 
L 270.309627 172.098648 
L 280.36832 159.834182 
L 280.36832 159.834182 
L 284.870267 159.834182 
L 296.767176 172.098648 
L 306.82587 154.595723 
L 309.86141 149.813384 
L 309.86141 159.834182 
L 312.761992 165.62503 
L 312.761992 165.62503 
L 318.202838 159.834182 
L 320.762081 172.098648 
L 327.887591 172.098648 
L 332.23936 165.62503 
L 340.158441 145.414059 
L 340.158441 149.813384 
L 340.158441 149.813384 
L 355.09089 124.556466 
L 363.432318 111.716475 
L 364.724486 116.498814 
L 365.991561 119.055657 
L 368.454206 124.556466 
L 370.827281 119.055657 
L 373.117072 141.34092 
L 375.329227 159.834182 
L 376.407803 159.834182 
L 378.5129 154.595723 
L 383.496416 141.34092 
L 384.449022 141.34092 
L 384.449022 145.414059 
L 386.313502 145.414059 
L 387.226137 149.813384 
L 390.75415 137.548919 
L 394.101158 130.669674 
L 395.712409 141.34092 
L 398.057057 134.001738 
L 399.574621 127.528121 
L 406.674263 109.472808 
L 408.00599 114.055646 
L 411.221042 111.716475 
L 411.221042 116.498814 
L 413.076684 116.498814 
L 413.076684 121.737273 
L 417.2117 119.055657 
L 420.558708 114.055646 
L 429.203938 86.459557 
L 430.617401 89.431212 
L 432.000895 85.031887 
L 434.682876 80.958748 
L 435.55292 78.401905 
L 438.509843 78.401905 
L 439.330638 83.640364 
L 440.941889 105.242858 
L 441.732836 107.31715 
L 445.178041 95.904829 
L 447.016257 97.649808 
L 448.450433 94.213551 
L 449.853763 99.45201 
L 451.566521 94.213551 
L 453.23547 92.572765 
L 455.820059 83.640364 
L 457.693461 87.925303 
L 460.701014 80.958748 
L 460.701014 86.459557 
L 462.726749 82.283203 
L 464.967393 78.401905 
L 468.451919 69.220241 
L 471.261651 66.137439 
L 476.07951 53.673474 
L 479.69302 49.090635 
L 479.69302 49.090635 
L 482.908072 43.520077 
L 485.169009 41.56855 
L 488.323815 39.683947 
L 489.089248 44.186294 
L 492.064229 46.934978 
L 492.064229 59.552899 
L 492.064229 59.552899 
L 493.502355 66.137439 
L 493.856988 75.958737 
L 494.73523 90.979546 
L 495.601808 89.431212 
L 495.773751 119.055657 
L 495.773751 119.055657 
L 496.796001 124.556466 
L 496.96483 127.528121 
L 497.635812 130.669674 
L 497.635812 149.813384 
L 498.793678 127.528121 
L 498.793678 127.528121 
L 500.412926 116.498814 
L 500.412926 130.669674 
L 501.207727 116.498814 
L 503.076657 101.315314 
L 503.076657 105.242858 
L 503.076657 105.242858 
L 503.230012 127.528121 
L 503.687925 119.055657 
L 504.444044 107.31715 
L 504.893545 111.716475 
L 505.339971 137.548919 
L 506.369906 116.498814 
L 506.369906 116.498814 
L 506.806378 111.716475 
L 507.383836 109.472808 
L 508.240553 107.31715 
L 509.226044 99.45201 
L 509.782571 97.649808 
L 509.782571 111.716475 
L 509.782571 111.716475 
L 510.608561 105.242858 
L 511.693864 97.649808 
L 512.229821 101.315314 
L 512.496157 111.716475 
L 513.157281 109.472808 
L 513.157281 109.472808 
L 513.288705 107.31715 
L 513.419866 119.055657 
L 514.071743 127.528121 
L 515.863096 103.244011 
L 516.491132 97.649808 
L 516.989243 99.45201 
L 516.989243 99.45201 
L 516.989243 101.315314 
L 517.606583 94.213551 
L 517.851893 99.45201 
L 518.703287 114.055646 
L 518.944516 134.001738 
L 518.944516 134.001738 
L 519.424315 137.548919 
L 520.019145 127.528121 
L 520.255566 145.414059 
L 521.076361 127.528121 
L 521.076361 127.528121 
L 521.540793 127.528121 
L 522.001942 130.669674 
L 522.345678 127.528121 
L 522.573833 145.414059 
L 522.914577 134.001738 
L 523.027764 145.414059 
L 523.253551 154.595723 
L 523.814624 145.414059 
L 523.814624 149.813384 
L 524.037709 145.414059 
L 524.037709 159.834182 
L 524.148966 159.834182 
L 524.481604 154.595723 
L 525.251228 145.414059 
L 526.549825 109.472808 
L 526.763767 109.472808 
L 526.763767 109.472808 
L 526.763767 111.716475 
L 527.507089 103.244011 
L 527.61259 116.498814 
L 527.823082 159.834182 
L 527.823082 159.834182 
L 528.032897 149.813384 
L 528.658323 154.595723 
L 528.865474 149.813384 
L 529.380491 134.001738 
L 529.483009 141.34092 
L 529.687562 159.834182 
L 529.891475 159.834182 
L 529.891475 197.931091 
L 530.297401 165.62503 
L 530.297401 172.098648 
L 531.698579 127.528121 
L 531.994956 130.669674 
L 531.994956 130.669674 
L 532.093451 127.528121 
L 532.583703 124.556466 
L 533.167186 154.595723 
L 533.360526 187.910293 
L 533.649467 179.43783 
L 533.841386 179.43783 
L 534.12821 159.834182 
L 534.698103 141.34092 
L 535.356748 134.001738 
L 535.356748 141.34092 
L 535.4503 141.34092 
L 535.916057 141.34092 
L 536.654423 119.055657 
L 537.293709 111.716475 
L 537.565783 111.716475 
L 537.565783 111.716475 
L 537.926793 105.242858 
L 539.263065 87.925303 
L 539.439185 119.055657 
L 539.439185 119.055657 
L 540.572521 99.45201 
L 541.089033 119.055657 
L 542.362704 92.572765 
L 542.362704 92.572765 
L 542.865292 105.242858 
L 543.611989 99.45201 
L 544.023158 97.649808 
L 544.350239 103.244011 
L 544.837805 97.649808 
L 544.837805 99.45201 
L 544.837805 99.45201 
L 545.482278 95.904829 
L 545.961489 101.315314 
L 546.358161 101.315314 
L 546.595012 103.244011 
L 546.831007 109.472808 
L 547.06615 103.244011 
L 547.689089 103.244011 
L 548.306137 99.45201 
L 548.765124 97.649808 
L 548.841309 101.315314 
L 549.145162 99.45201 
L 549.598305 109.472808 
L 549.673524 127.528121 
L 550.048323 130.669674 
L 550.048323 154.595723 
L 550.048323 154.595723 
L 550.420982 154.595723 
L 551.159974 121.737273 
L 552.68514 89.431212 
L 552.68514 89.431212 
L 552.90014 92.572765 
L 553.114434 105.242858 
L 553.823705 134.001738 
L 554.455524 109.472808 
L 554.455524 109.472808 
L 555.150444 95.904829 
L 555.219531 99.45201 
L 555.974695 97.649808 
L 556.179141 101.315314 
L 556.653706 95.904829 
L 556.653706 95.904829 
L 556.99058 105.242858 
L 557.459301 94.213551 
L 557.924679 101.315314 
L 559.560161 70.287502 
L 559.689246 75.958737 
L 559.818076 73.619566 
L 559.818076 73.619566 
L 559.818076 89.431212 
L 560.203047 90.979546 
L 560.458438 141.34092 
L 560.58576 141.34092 
L 560.649327 145.414059 
L 560.649327 145.414059 
L 560.902981 130.669674 
L 561.281623 130.669674 
L 561.658079 124.556466 
L 561.783084 124.556466 
L 561.783084 127.528121 
L 561.783084 127.528121 
L 562.466361 109.472808 
L 562.713062 114.055646 
L 562.958834 124.556466 
L 563.020132 121.737273 
L 563.020132 121.737273 
L 563.264752 127.528121 
L 563.569244 159.834182 
L 563.569244 165.62503 
L 563.569244 165.62503 
L 563.811818 165.62503 
L 563.993158 159.834182 
L 564.414337 134.001738 
L 564.653795 127.528121 
L 565.070745 109.472808 
L 565.070745 109.472808 
L 565.248625 119.055657 
L 565.720615 116.498814 
L 565.896735 119.055657 
L 566.013884 134.001738 
L 566.013884 134.001738 
L 566.305842 121.737273 
L 566.42226 121.737273 
L 566.943586 119.055657 
L 567.346202 109.472808 
L 567.460781 109.472808 
L 567.460781 109.472808 
L 567.575158 116.498814 
L 567.860228 109.472808 
L 568.08739 121.737273 
L 568.426658 124.556466 
L 569.322842 97.649808 
L 569.76636 92.572765 
L 569.986993 92.572765 
L 570.698944 82.283203 
L 570.807788 89.431212 
L 571.187321 80.958748 
L 572.046624 80.958748 
L 572.577998 73.619566 
L 572.789341 85.031887 
L 573.157554 78.401905 
L 573.367032 82.283203 
L 573.783981 82.283203 
L 574.558652 73.619566 
L 574.917042 77.166747 
L 576.030763 58.673485 
L 577.372122 43.520077 
L 577.470394 44.860685 
L 577.568518 43.520077 
L 578.686462 34.389375 
L 579.118758 37.861828 
L 579.118758 42.211391 
L 579.785576 71.375898 
L 579.785576 73.619566 
L 580.116447 68.17331 
L 581.052651 71.375898 
L 581.238291 77.166747 
L 581.330913 74.776708 
L 581.561895 75.958737 
L 581.792063 79.66546 
L 582.067196 72.486284 
L 582.249976 75.958737 
L 582.749996 87.925303 
L 582.976018 86.459557 
L 583.604744 71.375898 
L 583.872355 70.287502 
L 584.271725 77.166747 
L 584.668665 79.66546 
L 585.150558 72.486284 
L 585.237793 87.925303 
L 585.542203 86.459557 
L 586.275626 69.220241 
L 586.404202 69.220241 
L 586.489779 70.287502 
L 586.873492 70.287502 
L 587.085695 77.166747 
L 587.381624 71.375898 
L 588.469189 53.673474 
L 588.634909 70.287502 
L 588.882703 73.619566 
L 589.12956 72.486284 
L 589.620489 67.145949 
L 589.864575 92.572765 
L 590.148193 87.925303 
L 590.229001 85.031887 
L 590.470826 85.031887 
L 590.751827 83.640364 
L 591.071496 89.431212 
L 591.429262 85.031887 
L 591.587642 87.925303 
L 591.824493 83.640364 
L 592.099736 82.283203 
L 592.334739 83.640364 
L 592.490939 89.431212 
L 592.490939 105.242858 
L 592.685664 103.244011 
L 592.841027 99.45201 
L 592.841027 107.31715 
L 593.112025 107.31715 
L 593.841967 90.979546 
L 594.260863 75.958737 
L 594.412525 77.166747 
L 594.488223 89.431212 
L 595.5761 67.145949 
L 595.947064 65.147102 
L 596.131758 71.375898 
L 596.389455 68.17331 
L 596.389455 68.17331 
L 597.011084 54.475856 
L 597.156494 79.66546 
L 597.518605 79.66546 
L 597.806855 85.031887 
L 597.806855 85.031887 
L 597.950503 107.31715 
L 598.093836 107.31715 
L 598.343914 114.055646 
L 598.664041 101.315314 
L 598.734967 107.31715 
L 598.734967 107.31715 
L 599.264472 87.925303 
L 599.685004 77.166747 
L 600.172224 69.220241 
L 600.241531 79.66546 
L 600.241531 79.66546 
L 600.552504 87.925303 
L 600.8963 90.979546 
L 601.408622 89.431212 
L 601.714095 79.66546 
L 601.714095 79.66546 
L 601.984431 80.958748 
L 602.11918 89.431212 
L 602.454841 97.649808 
L 602.755467 90.979546 
L 602.855369 92.572765 
L 602.855369 92.572765 
L 603.220371 114.055646 
L 603.253452 149.813384 
L 603.253452 149.813384 
L 603.418606 145.414059 
L 603.484551 149.813384 
L 603.649122 149.813384 
L 603.878826 124.556466 
L 603.878826 124.556466 
L 604.140359 116.498814 
L 604.368344 105.242858 
L 604.433336 109.472808 
L 604.660301 97.649808 
L 604.886479 97.649808 
L 604.886479 97.649808 
L 604.950958 109.472808 
L 605.176132 109.472808 
L 605.432527 97.649808 
L 605.687918 109.472808 
L 605.687918 109.472808 
L 605.783433 107.31715 
L 605.974043 109.472808 
L 606.164099 124.556466 
L 606.258919 127.528121 
L 606.258919 127.528121 
L 606.353602 187.910293 
L 606.385133 210.195557 
L 606.448148 197.931091 
L 606.479633 197.931091 
L 606.479633 210.195557 
L 606.793649 149.813384 
L 607.106161 121.737273 
L 607.168484 130.669674 
L 607.168484 130.669674 
L 607.57214 116.498814 
L 607.757604 119.055657 
L 607.819308 119.055657 
L 607.819308 119.055657 
L 608.004072 172.098648 
L 608.157643 159.834182 
L 608.188314 286.389375 
L 608.21897 286.389375 
L 608.402608 210.195557 
L 608.433164 210.195557 
L 608.433164 210.195557 
L 608.555245 172.098648 
L 608.585729 187.910293 
L 608.6162 187.910293 
L 608.6162 187.910293 
L 608.6162 248.292466 
L 608.646656 248.292466 
L 608.980739 149.813384 
L 609.071556 141.34092 
L 609.282974 226.007203 
L 609.343253 210.195557 
L 609.433568 197.931091 
L 609.433568 226.007203 
L 609.523757 187.910293 
L 609.733717 159.834182 
L 609.793581 197.931091 
L 609.793581 286.389375 
L 609.853391 248.292466 
L 610.062294 165.62503 
L 611.65174 60.446613 
L 612.115346 47.644177 
L 612.632997 40.304995 
L 612.833201 210.195557 
L 612.833201 226.007203 
L 612.861752 226.007203 
L 613.288518 154.595723 
L 613.31687 159.834182 
L 613.881341 111.716475 
L 614.774458 77.166747 
L 614.885243 75.958737 
L 614.968208 78.401905 
L 615.436364 72.486284 
L 615.436364 72.486284 
" clip-path="url(#p73528ee75e)" style="fill: none; stroke: #1f77b4; stroke-width: 1.5; stroke-linecap: round"/>
   </g>
   <g id="patch_3">
    <path d="M 82.8 298.989375 
L 82.8 21.789375 
" style="fill: none; stroke: #cccccc; stroke-width: 0.8; stroke-linejoin: miter; stroke-linecap: square"/>
   </g>
   <g id="patch_4">
    <path d="M 640.8 298.989375 
L 640.8 21.789375 
" style="fill: none; stroke: #cccccc; stroke-width: 0.8; stroke-linejoin: miter; stroke-linecap: square"/>
   </g>
   <g id="patch_5">
    <path d="M 82.8 298.989375 
L 640.8 298.989375 
" style="fill: none; stroke: #cccccc; stroke-width: 0.8; stroke-linejoin: miter; stroke-linecap: square"/>
   </g>
   <g id="patch_6">
    <path d="M 82.8 21.789375 
L 640.8 21.789375 
" style="fill: none; stroke: #cccccc; stroke-width: 0.8; stroke-linejoin: miter; stroke-linecap: square"/>
   </g>
   <g id="text_8">
    <!-- Novos Óbitos na semana X Óbitos Totais -->
    <g style="fill: #262626" transform="translate(252.527813 15.789375)scale(0.12 -0.12)">
     <defs>
      <path id="ArialMT-4e" d="M 488 0 
L 488 4581 
L 1109 4581 
L 3516 984 
L 3516 4581 
L 4097 4581 
L 4097 0 
L 3475 0 
L 1069 3600 
L 1069 0 
L 488 0 
z
" transform="scale(0.015625)"/>
      <path id="ArialMT-6f" d="M 213 1659 
Q 213 2581 725 3025 
Q 1153 3394 1769 3394 
Q 2453 3394 2887 2945 
Q 3322 2497 3322 1706 
Q 3322 1066 3130 698 
Q 2938 331 2570 128 
Q 2203 -75 1769 -75 
Q 1072 -75 642 372 
Q 213 819 213 1659 
z
M 791 1659 
Q 791 1022 1069 705 
Q 1347 388 1769 388 
Q 2188 388 2466 706 
Q 2744 1025 2744 1678 
Q 2744 2294 2464 2611 
Q 2184 2928 1769 2928 
Q 1347 2928 1069 2612 
Q 791 2297 791 1659 
z
" transform="scale(0.015625)"/>
      <path id="ArialMT-76" d="M 1344 0 
L 81 3319 
L 675 3319 
L 1388 1331 
Q 1503 1009 1600 663 
Q 1675 925 1809 1294 
L 2547 3319 
L 3125 3319 
L 1869 0 
L 1344 0 
z
" transform="scale(0.015625)"/>
      <path id="ArialMT-73" d="M 197 991 
L 753 1078 
Q 800 744 1014 566 
Q 1228 388 1613 388 
Q 2000 388 2187 545 
Q 2375 703 2375 916 
Q 2375 1106 2209 1216 
Q 2094 1291 1634 1406 
Q 1016 1563 777 1677 
Q 538 1791 414 1992 
Q 291 2194 291 2438 
Q 291 2659 392 2848 
Q 494 3038 669 3163 
Q 800 3259 1026 3326 
Q 1253 3394 1513 3394 
Q 1903 3394 2198 3281 
Q 2494 3169 2634 2976 
Q 2775 2784 2828 2463 
L 2278 2388 
Q 2241 2644 2061 2787 
Q 1881 2931 1553 2931 
Q 1166 2931 1000 2803 
Q 834 2675 834 2503 
Q 834 2394 903 2306 
Q 972 2216 1119 2156 
Q 1203 2125 1616 2013 
Q 2213 1853 2448 1751 
Q 2684 1650 2818 1456 
Q 2953 1263 2953 975 
Q 2953 694 2789 445 
Q 2625 197 2315 61 
Q 2006 -75 1616 -75 
Q 969 -75 630 194 
Q 291 463 197 991 
z
" transform="scale(0.015625)"/>
      <path id="ArialMT-20" transform="scale(0.015625)"/>
      <path id="ArialMT-d3" d="M 309 2231 
Q 309 3372 921 4017 
Q 1534 4663 2503 4663 
Q 3138 4663 3647 4359 
Q 4156 4056 4423 3514 
Q 4691 2972 4691 2284 
Q 4691 1588 4409 1038 
Q 4128 488 3612 205 
Q 3097 -78 2500 -78 
Q 1853 -78 1343 234 
Q 834 547 571 1087 
Q 309 1628 309 2231 
z
M 934 2222 
Q 934 1394 1379 917 
Q 1825 441 2497 441 
Q 3181 441 3623 922 
Q 4066 1403 4066 2288 
Q 4066 2847 3877 3264 
Q 3688 3681 3323 3911 
Q 2959 4141 2506 4141 
Q 1863 4141 1398 3698 
Q 934 3256 934 2222 
z
M 2118 4883 
L 2533 5758 
L 3271 5758 
L 2583 4883 
L 2118 4883 
z
" transform="scale(0.015625)"/>
      <path id="ArialMT-62" d="M 941 0 
L 419 0 
L 419 4581 
L 981 4581 
L 981 2947 
Q 1338 3394 1891 3394 
Q 2197 3394 2470 3270 
Q 2744 3147 2920 2923 
Q 3097 2700 3197 2384 
Q 3297 2069 3297 1709 
Q 3297 856 2875 390 
Q 2453 -75 1863 -75 
Q 1275 -75 941 416 
L 941 0 
z
M 934 1684 
Q 934 1088 1097 822 
Q 1363 388 1816 388 
Q 2184 388 2453 708 
Q 2722 1028 2722 1663 
Q 2722 2313 2464 2622 
Q 2206 2931 1841 2931 
Q 1472 2931 1203 2611 
Q 934 2291 934 1684 
z
" transform="scale(0.015625)"/>
      <path id="ArialMT-69" d="M 425 3934 
L 425 4581 
L 988 4581 
L 988 3934 
L 425 3934 
z
M 425 0 
L 425 3319 
L 988 3319 
L 988 0 
L 425 0 
z
" transform="scale(0.015625)"/>
      <path id="ArialMT-74" d="M 1650 503 
L 1731 6 
Q 1494 -44 1306 -44 
Q 1000 -44 831 53 
Q 663 150 594 308 
Q 525 466 525 972 
L 525 2881 
L 113 2881 
L 113 3319 
L 525 3319 
L 525 4141 
L 1084 4478 
L 1084 3319 
L 1650 3319 
L 1650 2881 
L 1084 2881 
L 1084 941 
Q 1084 700 1114 631 
Q 1144 563 1211 522 
Q 1278 481 1403 481 
Q 1497 481 1650 503 
z
" transform="scale(0.015625)"/>
      <path id="ArialMT-6e" d="M 422 0 
L 422 3319 
L 928 3319 
L 928 2847 
Q 1294 3394 1984 3394 
Q 2284 3394 2536 3286 
Q 2788 3178 2913 3003 
Q 3038 2828 3088 2588 
Q 3119 2431 3119 2041 
L 3119 0 
L 2556 0 
L 2556 2019 
Q 2556 2363 2490 2533 
Q 2425 2703 2258 2804 
Q 2091 2906 1866 2906 
Q 1506 2906 1245 2678 
Q 984 2450 984 1813 
L 984 0 
L 422 0 
z
" transform="scale(0.015625)"/>
      <path id="ArialMT-61" d="M 2588 409 
Q 2275 144 1986 34 
Q 1697 -75 1366 -75 
Q 819 -75 525 192 
Q 231 459 231 875 
Q 231 1119 342 1320 
Q 453 1522 633 1644 
Q 813 1766 1038 1828 
Q 1203 1872 1538 1913 
Q 2219 1994 2541 2106 
Q 2544 2222 2544 2253 
Q 2544 2597 2384 2738 
Q 2169 2928 1744 2928 
Q 1347 2928 1158 2789 
Q 969 2650 878 2297 
L 328 2372 
Q 403 2725 575 2942 
Q 747 3159 1072 3276 
Q 1397 3394 1825 3394 
Q 2250 3394 2515 3294 
Q 2781 3194 2906 3042 
Q 3031 2891 3081 2659 
Q 3109 2516 3109 2141 
L 3109 1391 
Q 3109 606 3145 398 
Q 3181 191 3288 0 
L 2700 0 
Q 2613 175 2588 409 
z
M 2541 1666 
Q 2234 1541 1622 1453 
Q 1275 1403 1131 1340 
Q 988 1278 909 1158 
Q 831 1038 831 891 
Q 831 666 1001 516 
Q 1172 366 1500 366 
Q 1825 366 2078 508 
Q 2331 650 2450 897 
Q 2541 1088 2541 1459 
L 2541 1666 
z
" transform="scale(0.015625)"/>
      <path id="ArialMT-65" d="M 2694 1069 
L 3275 997 
Q 3138 488 2766 206 
Q 2394 -75 1816 -75 
Q 1088 -75 661 373 
Q 234 822 234 1631 
Q 234 2469 665 2931 
Q 1097 3394 1784 3394 
Q 2450 3394 2872 2941 
Q 3294 2488 3294 1666 
Q 3294 1616 3291 1516 
L 816 1516 
Q 847 969 1125 678 
Q 1403 388 1819 388 
Q 2128 388 2347 550 
Q 2566 713 2694 1069 
z
M 847 1978 
L 2700 1978 
Q 2663 2397 2488 2606 
Q 2219 2931 1791 2931 
Q 1403 2931 1139 2672 
Q 875 2413 847 1978 
z
" transform="scale(0.015625)"/>
      <path id="ArialMT-6d" d="M 422 0 
L 422 3319 
L 925 3319 
L 925 2853 
Q 1081 3097 1340 3245 
Q 1600 3394 1931 3394 
Q 2300 3394 2536 3241 
Q 2772 3088 2869 2813 
Q 3263 3394 3894 3394 
Q 4388 3394 4653 3120 
Q 4919 2847 4919 2278 
L 4919 0 
L 4359 0 
L 4359 2091 
Q 4359 2428 4304 2576 
Q 4250 2725 4106 2815 
Q 3963 2906 3769 2906 
Q 3419 2906 3187 2673 
Q 2956 2441 2956 1928 
L 2956 0 
L 2394 0 
L 2394 2156 
Q 2394 2531 2256 2718 
Q 2119 2906 1806 2906 
Q 1569 2906 1367 2781 
Q 1166 2656 1075 2415 
Q 984 2175 984 1722 
L 984 0 
L 422 0 
z
" transform="scale(0.015625)"/>
      <path id="ArialMT-58" d="M 28 0 
L 1800 2388 
L 238 4581 
L 959 4581 
L 1791 3406 
Q 2050 3041 2159 2844 
Q 2313 3094 2522 3366 
L 3444 4581 
L 4103 4581 
L 2494 2422 
L 4228 0 
L 3478 0 
L 2325 1634 
Q 2228 1775 2125 1941 
Q 1972 1691 1906 1597 
L 756 0 
L 28 0 
z
" transform="scale(0.015625)"/>
      <path id="ArialMT-54" d="M 1659 0 
L 1659 4041 
L 150 4041 
L 150 4581 
L 3781 4581 
L 3781 4041 
L 2266 4041 
L 2266 0 
L 1659 0 
z
" transform="scale(0.015625)"/>
     </defs>
     <use xlink:href="#ArialMT-4e"/>
     <use xlink:href="#ArialMT-6f" x="72.216797"/>
     <use xlink:href="#ArialMT-76" x="127.832031"/>
     <use xlink:href="#ArialMT-6f" x="177.832031"/>
     <use xlink:href="#ArialMT-73" x="233.447266"/>
     <use xlink:href="#ArialMT-20" x="283.447266"/>
     <use xlink:href="#ArialMT-d3" x="311.230469"/>
     <use xlink:href="#ArialMT-62" x="389.013672"/>
     <use xlink:href="#ArialMT-69" x="444.628906"/>
     <use xlink:href="#ArialMT-74" x="466.845703"/>
     <use xlink:href="#ArialMT-6f" x="494.628906"/>
     <use xlink:href="#ArialMT-73" x="550.244141"/>
     <use xlink:href="#ArialMT-20" x="600.244141"/>
     <use xlink:href="#ArialMT-6e" x="628.027344"/>
     <use xlink:href="#ArialMT-61" x="683.642578"/>
     <use xlink:href="#ArialMT-20" x="739.257812"/>
     <use xlink:href="#ArialMT-73" x="767.041016"/>
     <use xlink:href="#ArialMT-65" x="817.041016"/>
     <use xlink:href="#ArialMT-6d" x="872.65625"/>
     <use xlink:href="#ArialMT-61" x="955.957031"/>
     <use xlink:href="#ArialMT-6e" x="1011.572266"/>
     <use xlink:href="#ArialMT-61" x="1067.1875"/>
     <use xlink:href="#ArialMT-20" x="1122.802734"/>
     <use xlink:href="#ArialMT-58" x="1150.585938"/>
     <use xlink:href="#ArialMT-20" x="1217.285156"/>
     <use xlink:href="#ArialMT-d3" x="1245.068359"/>
     <use xlink:href="#ArialMT-62" x="1322.851562"/>
     <use xlink:href="#ArialMT-69" x="1378.466797"/>
     <use xlink:href="#ArialMT-74" x="1400.683594"/>
     <use xlink:href="#ArialMT-6f" x="1428.466797"/>
     <use xlink:href="#ArialMT-73" x="1484.082031"/>
     <use xlink:href="#ArialMT-20" x="1534.082031"/>
     <use xlink:href="#ArialMT-54" x="1560.115234"/>
     <use xlink:href="#ArialMT-6f" x="1610.074219"/>
     <use xlink:href="#ArialMT-74" x="1665.689453"/>
     <use xlink:href="#ArialMT-61" x="1693.472656"/>
     <use xlink:href="#ArialMT-69" x="1749.087891"/>
     <use xlink:href="#ArialMT-73" x="1771.304688"/>
    </g>
   </g>
  </g>
  <g id="text_9">
   <!-- Atualizado em 09/02/2022 -->
   <g style="fill: #262626" transform="translate(7.2 331.389375)scale(0.08 -0.08)">
    <defs>
     <path id="ArialMT-41" d="M -9 0 
L 1750 4581 
L 2403 4581 
L 4278 0 
L 3588 0 
L 3053 1388 
L 1138 1388 
L 634 0 
L -9 0 
z
M 1313 1881 
L 2866 1881 
L 2388 3150 
Q 2169 3728 2063 4100 
Q 1975 3659 1816 3225 
L 1313 1881 
z
" transform="scale(0.015625)"/>
     <path id="ArialMT-75" d="M 2597 0 
L 2597 488 
Q 2209 -75 1544 -75 
Q 1250 -75 995 37 
Q 741 150 617 320 
Q 494 491 444 738 
Q 409 903 409 1263 
L 409 3319 
L 972 3319 
L 972 1478 
Q 972 1038 1006 884 
Q 1059 663 1231 536 
Q 1403 409 1656 409 
Q 1909 409 2131 539 
Q 2353 669 2445 892 
Q 2538 1116 2538 1541 
L 2538 3319 
L 3100 3319 
L 3100 0 
L 2597 0 
z
" transform="scale(0.015625)"/>
     <path id="ArialMT-6c" d="M 409 0 
L 409 4581 
L 972 4581 
L 972 0 
L 409 0 
z
" transform="scale(0.015625)"/>
     <path id="ArialMT-7a" d="M 125 0 
L 125 456 
L 2238 2881 
Q 1878 2863 1603 2863 
L 250 2863 
L 250 3319 
L 2963 3319 
L 2963 2947 
L 1166 841 
L 819 456 
Q 1197 484 1528 484 
L 3063 484 
L 3063 0 
L 125 0 
z
" transform="scale(0.015625)"/>
     <path id="ArialMT-64" d="M 2575 0 
L 2575 419 
Q 2259 -75 1647 -75 
Q 1250 -75 917 144 
Q 584 363 401 755 
Q 219 1147 219 1656 
Q 219 2153 384 2558 
Q 550 2963 881 3178 
Q 1213 3394 1622 3394 
Q 1922 3394 2156 3267 
Q 2391 3141 2538 2938 
L 2538 4581 
L 3097 4581 
L 3097 0 
L 2575 0 
z
M 797 1656 
Q 797 1019 1065 703 
Q 1334 388 1700 388 
Q 2069 388 2326 689 
Q 2584 991 2584 1609 
Q 2584 2291 2321 2609 
Q 2059 2928 1675 2928 
Q 1300 2928 1048 2622 
Q 797 2316 797 1656 
z
" transform="scale(0.015625)"/>
     <path id="ArialMT-39" d="M 350 1059 
L 891 1109 
Q 959 728 1153 556 
Q 1347 384 1650 384 
Q 1909 384 2104 503 
Q 2300 622 2425 820 
Q 2550 1019 2634 1356 
Q 2719 1694 2719 2044 
Q 2719 2081 2716 2156 
Q 2547 1888 2255 1720 
Q 1963 1553 1622 1553 
Q 1053 1553 659 1965 
Q 266 2378 266 3053 
Q 266 3750 677 4175 
Q 1088 4600 1706 4600 
Q 2153 4600 2523 4359 
Q 2894 4119 3086 3673 
Q 3278 3228 3278 2384 
Q 3278 1506 3087 986 
Q 2897 466 2520 194 
Q 2144 -78 1638 -78 
Q 1100 -78 759 220 
Q 419 519 350 1059 
z
M 2653 3081 
Q 2653 3566 2395 3850 
Q 2138 4134 1775 4134 
Q 1400 4134 1122 3828 
Q 844 3522 844 3034 
Q 844 2597 1108 2323 
Q 1372 2050 1759 2050 
Q 2150 2050 2401 2323 
Q 2653 2597 2653 3081 
z
" transform="scale(0.015625)"/>
     <path id="ArialMT-2f" d="M 0 -78 
L 1328 4659 
L 1778 4659 
L 453 -78 
L 0 -78 
z
" transform="scale(0.015625)"/>
    </defs>
    <use xlink:href="#ArialMT-41"/>
    <use xlink:href="#ArialMT-74" x="66.699219"/>
    <use xlink:href="#ArialMT-75" x="94.482422"/>
    <use xlink:href="#ArialMT-61" x="150.097656"/>
    <use xlink:href="#ArialMT-6c" x="205.712891"/>
    <use xlink:href="#ArialMT-69" x="227.929688"/>
    <use xlink:href="#ArialMT-7a" x="250.146484"/>
    <use xlink:href="#ArialMT-61" x="300.146484"/>
    <use xlink:href="#ArialMT-64" x="355.761719"/>
    <use xlink:href="#ArialMT-6f" x="411.376953"/>
    <use xlink:href="#ArialMT-20" x="466.992188"/>
    <use xlink:href="#ArialMT-65" x="494.775391"/>
    <use xlink:href="#ArialMT-6d" x="550.390625"/>
    <use xlink:href="#ArialMT-20" x="633.691406"/>
    <use xlink:href="#ArialMT-30" x="661.474609"/>
    <use xlink:href="#ArialMT-39" x="717.089844"/>
    <use xlink:href="#ArialMT-2f" x="772.705078"/>
    <use xlink:href="#ArialMT-30" x="800.488281"/>
    <use xlink:href="#ArialMT-32" x="856.103516"/>
    <use xlink:href="#ArialMT-2f" x="911.71875"/>
    <use xlink:href="#ArialMT-32" x="939.501953"/>
    <use xlink:href="#ArialMT-30" x="995.117188"/>
    <use xlink:href="#ArialMT-32" x="1050.732422"/>
    <use xlink:href="#ArialMT-32" x="1106.347656"/>
   </g>
  </g>
  <g id="text_10">
   <!-- https://jmsvaz.github.io/covidsantos/ -->
   <g style="fill: #262626" transform="translate(570.345 331.389375)scale(0.08 -0.08)">
    <defs>
     <path id="ArialMT-68" d="M 422 0 
L 422 4581 
L 984 4581 
L 984 2938 
Q 1378 3394 1978 3394 
Q 2347 3394 2619 3248 
Q 2891 3103 3008 2847 
Q 3125 2591 3125 2103 
L 3125 0 
L 2563 0 
L 2563 2103 
Q 2563 2525 2380 2717 
Q 2197 2909 1863 2909 
Q 1613 2909 1392 2779 
Q 1172 2650 1078 2428 
Q 984 2206 984 1816 
L 984 0 
L 422 0 
z
" transform="scale(0.015625)"/>
     <path id="ArialMT-70" d="M 422 -1272 
L 422 3319 
L 934 3319 
L 934 2888 
Q 1116 3141 1344 3267 
Q 1572 3394 1897 3394 
Q 2322 3394 2647 3175 
Q 2972 2956 3137 2557 
Q 3303 2159 3303 1684 
Q 3303 1175 3120 767 
Q 2938 359 2589 142 
Q 2241 -75 1856 -75 
Q 1575 -75 1351 44 
Q 1128 163 984 344 
L 984 -1272 
L 422 -1272 
z
M 931 1641 
Q 931 1000 1190 694 
Q 1450 388 1819 388 
Q 2194 388 2461 705 
Q 2728 1022 2728 1688 
Q 2728 2322 2467 2637 
Q 2206 2953 1844 2953 
Q 1484 2953 1207 2617 
Q 931 2281 931 1641 
z
" transform="scale(0.015625)"/>
     <path id="ArialMT-3a" d="M 578 2678 
L 578 3319 
L 1219 3319 
L 1219 2678 
L 578 2678 
z
M 578 0 
L 578 641 
L 1219 641 
L 1219 0 
L 578 0 
z
" transform="scale(0.015625)"/>
     <path id="ArialMT-6a" d="M 419 3928 
L 419 4581 
L 981 4581 
L 981 3928 
L 419 3928 
z
M -294 -1288 
L -188 -809 
Q -19 -853 78 -853 
Q 250 -853 334 -739 
Q 419 -625 419 -169 
L 419 3319 
L 981 3319 
L 981 -181 
Q 981 -794 822 -1034 
Q 619 -1347 147 -1347 
Q -81 -1347 -294 -1288 
z
" transform="scale(0.015625)"/>
     <path id="ArialMT-2e" d="M 581 0 
L 581 641 
L 1222 641 
L 1222 0 
L 581 0 
z
" transform="scale(0.015625)"/>
     <path id="ArialMT-67" d="M 319 -275 
L 866 -356 
Q 900 -609 1056 -725 
Q 1266 -881 1628 -881 
Q 2019 -881 2231 -725 
Q 2444 -569 2519 -288 
Q 2563 -116 2559 434 
Q 2191 0 1641 0 
Q 956 0 581 494 
Q 206 988 206 1678 
Q 206 2153 378 2554 
Q 550 2956 876 3175 
Q 1203 3394 1644 3394 
Q 2231 3394 2613 2919 
L 2613 3319 
L 3131 3319 
L 3131 450 
Q 3131 -325 2973 -648 
Q 2816 -972 2473 -1159 
Q 2131 -1347 1631 -1347 
Q 1038 -1347 672 -1080 
Q 306 -813 319 -275 
z
M 784 1719 
Q 784 1066 1043 766 
Q 1303 466 1694 466 
Q 2081 466 2343 764 
Q 2606 1063 2606 1700 
Q 2606 2309 2336 2618 
Q 2066 2928 1684 2928 
Q 1309 2928 1046 2623 
Q 784 2319 784 1719 
z
" transform="scale(0.015625)"/>
     <path id="ArialMT-63" d="M 2588 1216 
L 3141 1144 
Q 3050 572 2676 248 
Q 2303 -75 1759 -75 
Q 1078 -75 664 370 
Q 250 816 250 1647 
Q 250 2184 428 2587 
Q 606 2991 970 3192 
Q 1334 3394 1763 3394 
Q 2303 3394 2647 3120 
Q 2991 2847 3088 2344 
L 2541 2259 
Q 2463 2594 2264 2762 
Q 2066 2931 1784 2931 
Q 1359 2931 1093 2626 
Q 828 2322 828 1663 
Q 828 994 1084 691 
Q 1341 388 1753 388 
Q 2084 388 2306 591 
Q 2528 794 2588 1216 
z
" transform="scale(0.015625)"/>
    </defs>
    <use xlink:href="#ArialMT-68"/>
    <use xlink:href="#ArialMT-74" x="55.615234"/>
    <use xlink:href="#ArialMT-74" x="83.398438"/>
    <use xlink:href="#ArialMT-70" x="111.181641"/>
    <use xlink:href="#ArialMT-73" x="166.796875"/>
    <use xlink:href="#ArialMT-3a" x="216.796875"/>
    <use xlink:href="#ArialMT-2f" x="244.580078"/>
    <use xlink:href="#ArialMT-2f" x="272.363281"/>
    <use xlink:href="#ArialMT-6a" x="300.146484"/>
    <use xlink:href="#ArialMT-6d" x="322.363281"/>
    <use xlink:href="#ArialMT-73" x="405.664062"/>
    <use xlink:href="#ArialMT-76" x="455.664062"/>
    <use xlink:href="#ArialMT-61" x="505.664062"/>
    <use xlink:href="#ArialMT-7a" x="561.279297"/>
    <use xlink:href="#ArialMT-2e" x="611.279297"/>
    <use xlink:href="#ArialMT-67" x="639.0625"/>
    <use xlink:href="#ArialMT-69" x="694.677734"/>
    <use xlink:href="#ArialMT-74" x="716.894531"/>
    <use xlink:href="#ArialMT-68" x="744.677734"/>
    <use xlink:href="#ArialMT-75" x="800.292969"/>
    <use xlink:href="#ArialMT-62" x="855.908203"/>
    <use xlink:href="#ArialMT-2e" x="911.523438"/>
    <use xlink:href="#ArialMT-69" x="939.306641"/>
    <use xlink:href="#ArialMT-6f" x="961.523438"/>
    <use xlink:href="#ArialMT-2f" x="1017.138672"/>
    <use xlink:href="#ArialMT-63" x="1044.921875"/>
    <use xlink:href="#ArialMT-6f" x="1094.921875"/>
    <use xlink:href="#ArialMT-76" x="1150.537109"/>
    <use xlink:href="#ArialMT-69" x="1200.537109"/>
    <use xlink:href="#ArialMT-64" x="1222.753906"/>
    <use xlink:href="#ArialMT-73" x="1278.369141"/>
    <use xlink:href="#ArialMT-61" x="1328.369141"/>
    <use xlink:href="#ArialMT-6e" x="1383.984375"/>
    <use xlink:href="#ArialMT-74" x="1439.599609"/>
    <use xlink:href="#ArialMT-6f" x="1467.382812"/>
    <use xlink:href="#ArialMT-73" x="1522.998047"/>
    <use xlink:href="#ArialMT-2f" x="1572.998047"/>
   </g>
  </g>
 </g>
 <defs>
  <clipPath id="p73528ee75e">
   <rect x="82.8" y="21.789375" width="558" height="277.2"/>
  </clipPath>
 </defs>
</svg>
