<?xml version="1.0" encoding="utf-8" standalone="no"?>
<!DOCTYPE svg PUBLIC "-//W3C//DTD SVG 1.1//EN"
  "http://www.w3.org/Graphics/SVG/1.1/DTD/svg11.dtd">
<svg height="320.089375pt" version="1.1" viewBox="0 0 595.1 320.089375" width="595.1pt" xmlns="http://www.w3.org/2000/svg" xmlns:xlink="http://www.w3.org/1999/xlink">
 <metadata>
  <rdf:RDF xmlns:cc="http://creativecommons.org/ns#" xmlns:dc="http://purl.org/dc/elements/1.1/" xmlns:rdf="http://www.w3.org/1999/02/22-rdf-syntax-ns#">
   <cc:Work>
    <dc:type rdf:resource="http://purl.org/dc/dcmitype/StillImage"/>
    <dc:date>2021-03-26T19:29:22.861270</dc:date>
    <dc:format>image/svg+xml</dc:format>
    <dc:creator>
     <cc:Agent>
      <dc:title>Matplotlib v3.4.0, https://matplotlib.org/</dc:title>
     </cc:Agent>
    </dc:creator>
   </cc:Work>
  </rdf:RDF>
 </metadata>
 <defs>
  <style type="text/css">*{stroke-linecap:butt;stroke-linejoin:round;}</style>
 </defs>
 <g id="figure_1">
  <g id="patch_1">
   <path d="M 0 320.089375 
L 595.1 320.089375 
L 595.1 0 
L 0 0 
z
" style="fill:#ffffff;"/>
  </g>
  <g id="axes_1">
   <g id="patch_2">
    <path d="M 29.9 293.589375 
L 587.9 293.589375 
L 587.9 21.789375 
L 29.9 21.789375 
z
" style="fill:#ffffff;"/>
   </g>
   <g id="matplotlib.axis_1">
    <g id="xtick_1">
     <g id="line2d_1">
      <path clip-path="url(#p206f74bde8)" d="M 55.263636 293.589375 
L 55.263636 21.789375 
" style="fill:none;stroke:#cccccc;stroke-linecap:round;stroke-width:0.8;"/>
     </g>
     <g id="text_1">
      <!-- $\mathdefault{10^{0}}$ -->
      <g style="fill:#262626;" transform="translate(47.413636 310.901875)scale(0.1 -0.1)">
       <defs>
        <path d="M 2384 0 
L 1822 0 
L 1822 3584 
Q 1619 3391 1289 3197 
Q 959 3003 697 2906 
L 697 3450 
Q 1169 3672 1522 3987 
Q 1875 4303 2022 4600 
L 2384 4600 
L 2384 0 
z
" id="ArialMT-31" transform="scale(0.015625)"/>
        <path d="M 266 2259 
Q 266 3072 433 3567 
Q 600 4063 929 4331 
Q 1259 4600 1759 4600 
Q 2128 4600 2406 4451 
Q 2684 4303 2865 4023 
Q 3047 3744 3150 3342 
Q 3253 2941 3253 2259 
Q 3253 1453 3087 958 
Q 2922 463 2592 192 
Q 2263 -78 1759 -78 
Q 1097 -78 719 397 
Q 266 969 266 2259 
z
M 844 2259 
Q 844 1131 1108 757 
Q 1372 384 1759 384 
Q 2147 384 2411 759 
Q 2675 1134 2675 2259 
Q 2675 3391 2411 3762 
Q 2147 4134 1753 4134 
Q 1366 4134 1134 3806 
Q 844 3388 844 2259 
z
" id="ArialMT-30" transform="scale(0.015625)"/>
       </defs>
       <use transform="translate(0 0.99375)" xlink:href="#ArialMT-31"/>
       <use transform="translate(55.615234 0.99375)" xlink:href="#ArialMT-30"/>
       <use transform="translate(112.972813 70.6875)scale(0.7)" xlink:href="#ArialMT-30"/>
      </g>
     </g>
    </g>
    <g id="xtick_2">
     <g id="line2d_2">
      <path clip-path="url(#p206f74bde8)" d="M 220.006367 293.589375 
L 220.006367 21.789375 
" style="fill:none;stroke:#cccccc;stroke-linecap:round;stroke-width:0.8;"/>
     </g>
     <g id="text_2">
      <!-- $\mathdefault{10^{1}}$ -->
      <g style="fill:#262626;" transform="translate(212.156367 310.901875)scale(0.1 -0.1)">
       <use transform="translate(0 0.99375)" xlink:href="#ArialMT-31"/>
       <use transform="translate(55.615234 0.99375)" xlink:href="#ArialMT-30"/>
       <use transform="translate(112.972813 70.6875)scale(0.7)" xlink:href="#ArialMT-31"/>
      </g>
     </g>
    </g>
    <g id="xtick_3">
     <g id="line2d_3">
      <path clip-path="url(#p206f74bde8)" d="M 384.749098 293.589375 
L 384.749098 21.789375 
" style="fill:none;stroke:#cccccc;stroke-linecap:round;stroke-width:0.8;"/>
     </g>
     <g id="text_3">
      <!-- $\mathdefault{10^{2}}$ -->
      <g style="fill:#262626;" transform="translate(376.899098 310.901875)scale(0.1 -0.1)">
       <defs>
        <path d="M 3222 541 
L 3222 0 
L 194 0 
Q 188 203 259 391 
Q 375 700 629 1000 
Q 884 1300 1366 1694 
Q 2113 2306 2375 2664 
Q 2638 3022 2638 3341 
Q 2638 3675 2398 3904 
Q 2159 4134 1775 4134 
Q 1369 4134 1125 3890 
Q 881 3647 878 3216 
L 300 3275 
Q 359 3922 746 4261 
Q 1134 4600 1788 4600 
Q 2447 4600 2831 4234 
Q 3216 3869 3216 3328 
Q 3216 3053 3103 2787 
Q 2991 2522 2730 2228 
Q 2469 1934 1863 1422 
Q 1356 997 1212 845 
Q 1069 694 975 541 
L 3222 541 
z
" id="ArialMT-32" transform="scale(0.015625)"/>
       </defs>
       <use transform="translate(0 0.99375)" xlink:href="#ArialMT-31"/>
       <use transform="translate(55.615234 0.99375)" xlink:href="#ArialMT-30"/>
       <use transform="translate(112.972813 70.6875)scale(0.7)" xlink:href="#ArialMT-32"/>
      </g>
     </g>
    </g>
    <g id="xtick_4">
     <g id="line2d_4">
      <path clip-path="url(#p206f74bde8)" d="M 549.491829 293.589375 
L 549.491829 21.789375 
" style="fill:none;stroke:#cccccc;stroke-linecap:round;stroke-width:0.8;"/>
     </g>
     <g id="text_4">
      <!-- $\mathdefault{10^{3}}$ -->
      <g style="fill:#262626;" transform="translate(541.641829 310.901875)scale(0.1 -0.1)">
       <defs>
        <path d="M 269 1209 
L 831 1284 
Q 928 806 1161 595 
Q 1394 384 1728 384 
Q 2125 384 2398 659 
Q 2672 934 2672 1341 
Q 2672 1728 2419 1979 
Q 2166 2231 1775 2231 
Q 1616 2231 1378 2169 
L 1441 2663 
Q 1497 2656 1531 2656 
Q 1891 2656 2178 2843 
Q 2466 3031 2466 3422 
Q 2466 3731 2256 3934 
Q 2047 4138 1716 4138 
Q 1388 4138 1169 3931 
Q 950 3725 888 3313 
L 325 3413 
Q 428 3978 793 4289 
Q 1159 4600 1703 4600 
Q 2078 4600 2393 4439 
Q 2709 4278 2876 4000 
Q 3044 3722 3044 3409 
Q 3044 3113 2884 2869 
Q 2725 2625 2413 2481 
Q 2819 2388 3044 2092 
Q 3269 1797 3269 1353 
Q 3269 753 2831 336 
Q 2394 -81 1725 -81 
Q 1122 -81 723 278 
Q 325 638 269 1209 
z
" id="ArialMT-33" transform="scale(0.015625)"/>
       </defs>
       <use transform="translate(0 0.99375)" xlink:href="#ArialMT-31"/>
       <use transform="translate(55.615234 0.99375)" xlink:href="#ArialMT-30"/>
       <use transform="translate(112.972813 70.6875)scale(0.7)" xlink:href="#ArialMT-33"/>
      </g>
     </g>
    </g>
    <g id="xtick_5"/>
    <g id="xtick_6"/>
    <g id="xtick_7"/>
    <g id="xtick_8"/>
    <g id="xtick_9"/>
    <g id="xtick_10"/>
    <g id="xtick_11"/>
    <g id="xtick_12"/>
    <g id="xtick_13"/>
    <g id="xtick_14"/>
    <g id="xtick_15"/>
    <g id="xtick_16"/>
    <g id="xtick_17"/>
    <g id="xtick_18"/>
    <g id="xtick_19"/>
    <g id="xtick_20"/>
    <g id="xtick_21"/>
    <g id="xtick_22"/>
    <g id="xtick_23"/>
    <g id="xtick_24"/>
    <g id="xtick_25"/>
    <g id="xtick_26"/>
    <g id="xtick_27"/>
    <g id="xtick_28"/>
    <g id="xtick_29"/>
    <g id="xtick_30"/>
   </g>
   <g id="matplotlib.axis_2">
    <g id="ytick_1">
     <g id="line2d_5">
      <path clip-path="url(#p206f74bde8)" d="M 29.9 281.23483 
L 587.9 281.23483 
" style="fill:none;stroke:#cccccc;stroke-linecap:round;stroke-width:0.8;"/>
     </g>
     <g id="text_5">
      <!-- $\mathdefault{10^{0}}$ -->
      <g style="fill:#262626;" transform="translate(7.2 286.39108)scale(0.1 -0.1)">
       <use transform="translate(0 0.99375)" xlink:href="#ArialMT-31"/>
       <use transform="translate(55.615234 0.99375)" xlink:href="#ArialMT-30"/>
       <use transform="translate(112.972813 70.6875)scale(0.7)" xlink:href="#ArialMT-30"/>
      </g>
     </g>
    </g>
    <g id="ytick_2">
     <g id="line2d_6">
      <path clip-path="url(#p206f74bde8)" d="M 29.9 154.481892 
L 587.9 154.481892 
" style="fill:none;stroke:#cccccc;stroke-linecap:round;stroke-width:0.8;"/>
     </g>
     <g id="text_6">
      <!-- $\mathdefault{10^{1}}$ -->
      <g style="fill:#262626;" transform="translate(7.2 159.638142)scale(0.1 -0.1)">
       <use transform="translate(0 0.99375)" xlink:href="#ArialMT-31"/>
       <use transform="translate(55.615234 0.99375)" xlink:href="#ArialMT-30"/>
       <use transform="translate(112.972813 70.6875)scale(0.7)" xlink:href="#ArialMT-31"/>
      </g>
     </g>
    </g>
    <g id="ytick_3">
     <g id="line2d_7">
      <path clip-path="url(#p206f74bde8)" d="M 29.9 27.728955 
L 587.9 27.728955 
" style="fill:none;stroke:#cccccc;stroke-linecap:round;stroke-width:0.8;"/>
     </g>
     <g id="text_7">
      <!-- $\mathdefault{10^{2}}$ -->
      <g style="fill:#262626;" transform="translate(7.2 32.885205)scale(0.1 -0.1)">
       <use transform="translate(0 0.99375)" xlink:href="#ArialMT-31"/>
       <use transform="translate(55.615234 0.99375)" xlink:href="#ArialMT-30"/>
       <use transform="translate(112.972813 70.6875)scale(0.7)" xlink:href="#ArialMT-32"/>
      </g>
     </g>
    </g>
    <g id="ytick_4"/>
    <g id="ytick_5"/>
    <g id="ytick_6"/>
    <g id="ytick_7"/>
    <g id="ytick_8"/>
    <g id="ytick_9"/>
    <g id="ytick_10"/>
    <g id="ytick_11"/>
    <g id="ytick_12"/>
    <g id="ytick_13"/>
    <g id="ytick_14"/>
    <g id="ytick_15"/>
    <g id="ytick_16"/>
    <g id="ytick_17"/>
    <g id="ytick_18"/>
    <g id="ytick_19"/>
    <g id="ytick_20"/>
    <g id="ytick_21"/>
   </g>
   <g id="line2d_8">
    <path clip-path="url(#p206f74bde8)" d="M 3.464074 321.089375 
L 220.006367 154.481892 
L 220.006367 182.601873 
L 233.050902 166.765521 
L 244.079899 154.481892 
L 244.079899 154.481892 
L 249.016122 154.481892 
L 262.060657 166.765521 
L 273.089654 149.235248 
L 276.418015 144.445437 
L 276.418015 154.481892 
L 279.598399 160.281789 
L 279.598399 160.281789 
L 285.564091 154.481892 
L 288.37021 166.765521 
L 296.183076 166.765521 
L 300.954634 160.281789 
L 309.637623 140.039238 
L 309.637623 144.445437 
L 309.637623 144.445437 
L 326.010518 119.149055 
L 335.156595 106.289001 
L 336.57341 111.078812 
L 337.962713 113.63965 
L 340.662915 119.149055 
L 343.264906 113.63965 
L 345.77558 135.959735 
L 348.201129 154.481892 
L 349.383749 154.481892 
L 351.691912 149.235248 
L 357.156159 135.959735 
L 358.200657 135.959735 
L 358.200657 140.039238 
L 360.244992 140.039238 
L 361.245664 144.445437 
L 365.114004 132.161808 
L 368.783878 125.271815 
L 370.550557 135.959735 
L 373.121379 128.609085 
L 374.785335 122.125353 
L 382.569837 104.041827 
L 384.030028 108.631827 
L 387.555217 106.289001 
L 387.555217 111.078812 
L 389.589862 111.078812 
L 389.589862 116.325456 
L 394.123759 113.63965 
L 397.793633 108.631827 
L 407.272818 80.992619 
L 408.82263 83.968916 
L 410.339581 79.562717 
L 413.280277 75.483214 
L 414.234249 72.922376 
L 417.476409 72.922376 
L 418.376381 78.16902 
L 420.14306 99.805268 
L 421.010306 101.882802 
L 424.78785 90.452649 
L 426.803388 92.200354 
L 428.375909 88.758727 
L 429.914611 94.005372 
L 431.792589 88.758727 
L 433.622532 87.115379 
L 436.456441 78.16902 
L 438.510559 82.460655 
L 441.808233 75.483214 
L 441.808233 80.992619 
L 444.029378 76.809739 
L 446.486164 72.922376 
L 450.306822 63.726365 
L 453.387593 60.638747 
L 458.670203 48.155306 
L 462.632287 43.565307 
L 462.632287 43.565307 
L 466.157475 37.986045 
L 468.636512 36.031469 
L 472.095644 34.14392 
L 472.934913 38.653303 
L 476.196873 41.406281 
L 476.196873 54.043918 
L 476.196873 54.043918 
L 477.773728 60.638747 
L 478.16257 70.475391 
L 479.12553 85.51967 
L 480.075702 83.968916 
L 480.264231 113.63965 
L 480.264231 113.63965 
L 481.385093 119.149055 
L 481.570207 122.125353 
L 482.305914 125.271815 
L 482.305914 144.445437 
L 483.575474 122.125353 
L 483.575474 122.125353 
L 485.350921 111.078812 
L 485.350921 125.271815 
L 486.222392 111.078812 
L 488.271606 95.871588 
L 488.271606 99.805268 
L 488.271606 99.805268 
L 488.439754 122.125353 
L 488.94184 113.63965 
L 489.770897 101.882802 
L 490.263759 106.289001 
L 490.753249 132.161808 
L 491.882535 111.078812 
L 491.882535 111.078812 
L 492.361111 106.289001 
L 492.994274 104.041827 
L 493.933633 101.882802 
L 495.014189 94.005372 
L 495.6244 92.200354 
L 495.6244 106.289001 
L 495.6244 106.289001 
L 496.530069 99.805268 
L 497.720065 92.200354 
L 498.307722 95.871588 
L 498.59975 106.289001 
L 499.324649 104.041827 
L 499.324649 104.041827 
L 499.468751 101.882802 
L 499.612564 113.63965 
L 500.327324 122.125353 
L 502.291479 97.803298 
L 502.980097 92.200354 
L 503.526258 94.005372 
L 503.526258 94.005372 
L 503.526258 95.871588 
L 504.20315 88.758727 
L 504.472123 94.005372 
L 505.405646 108.631827 
L 505.670145 128.609085 
L 505.670145 128.609085 
L 506.196227 132.161808 
L 506.848436 122.125353 
L 507.107664 140.039238 
L 508.007637 122.125353 
L 508.007637 122.125353 
L 508.516869 122.125353 
L 509.022503 125.271815 
L 509.399397 122.125353 
L 509.649561 140.039238 
L 510.023175 128.609085 
L 510.14728 140.039238 
L 510.394847 149.235248 
L 511.010043 140.039238 
L 511.010043 144.445437 
L 511.254648 140.039238 
L 511.254648 154.481892 
L 511.376638 154.481892 
L 511.741364 149.235248 
L 512.585228 140.039238 
L 514.009094 104.041827 
L 514.243674 104.041827 
L 514.243674 104.041827 
L 514.243674 106.289001 
L 515.0587 97.803298 
L 515.174378 111.078812 
L 515.405174 154.481892 
L 515.405174 154.481892 
L 515.635229 144.445437 
L 516.320986 149.235248 
L 516.548119 144.445437 
L 517.112817 128.609085 
L 517.112817 132.161808 
L 517.112817 132.161808 
L 517.225224 135.959735 
L 517.449509 154.481892 
L 517.673093 154.481892 
L 517.673093 192.638328 
L 518.118176 160.281789 
L 518.118176 166.765521 
L 519.654518 122.125353 
L 519.979485 125.271815 
L 519.979485 125.271815 
L 520.08748 122.125353 
L 520.625025 119.149055 
L 521.264792 149.235248 
L 521.476783 182.601873 
L 521.793596 174.116171 
L 522.004028 174.116171 
L 522.318521 154.481892 
L 522.943388 135.959735 
L 523.665569 128.609085 
L 523.665569 135.959735 
L 523.768145 135.959735 
L 524.278831 135.959735 
L 525.088422 113.63965 
L 525.789377 106.289001 
L 526.087696 106.289001 
L 526.087696 106.289001 
L 526.483531 99.805268 
L 527.948705 82.460655 
L 528.141814 113.63965 
L 528.141814 113.63965 
L 529.384476 94.005372 
L 529.950813 113.63965 
L 531.347348 87.115379 
L 531.347348 87.115379 
L 531.898418 99.805268 
L 532.717145 94.005372 
L 533.167977 92.200354 
L 533.526609 97.803298 
L 534.061208 92.200354 
L 534.061208 94.005372 
L 534.061208 94.005372 
L 534.767849 90.452649 
L 535.293288 95.871588 
L 535.728224 95.871588 
L 535.987923 97.803298 
L 536.246682 104.041827 
L 536.504509 97.803298 
L 537.187539 97.803298 
L 537.86411 94.005372 
L 538.367373 92.200354 
L 538.450907 95.871588 
L 538.784071 94.005372 
L 539.280926 104.041827 
L 539.363401 122.125353 
L 539.774354 125.271815 
L 539.774354 149.235248 
L 539.774354 149.235248 
L 540.182961 149.235248 
L 540.99324 116.325456 
L 542.66553 83.968916 
L 542.66553 83.968916 
L 542.901269 87.115379 
L 543.136235 99.805268 
L 543.913926 128.609085 
L 544.606692 104.041827 
L 544.606692 104.041827 
L 545.368647 90.452649 
L 545.444398 94.005372 
L 546.272409 92.200354 
L 546.496577 95.871588 
L 547.01692 90.452649 
L 547.01692 90.452649 
L 547.38629 99.805268 
L 547.900225 88.758727 
L 548.410496 95.871588 
L 550.203744 64.795294 
L 550.345281 70.475391 
L 550.486538 68.132565 
L 550.486538 68.132565 
L 550.486538 83.968916 
L 550.908645 85.51967 
L 551.188672 135.959735 
L 551.328276 135.959735 
L 551.397975 140.039238 
L 551.397975 140.039238 
L 551.676098 125.271815 
L 552.091264 125.271815 
L 552.504036 119.149055 
L 552.641099 119.149055 
L 552.641099 122.125353 
L 552.641099 122.125353 
L 553.390287 104.041827 
L 553.660786 108.631827 
L 553.930266 119.149055 
L 553.997478 116.325456 
L 553.997478 116.325456 
L 554.265695 122.125353 
L 554.599559 154.481892 
L 554.599559 160.281789 
L 554.599559 160.281789 
L 554.865533 160.281789 
L 555.064366 154.481892 
L 555.526173 128.609085 
L 555.788731 122.125353 
L 556.245901 104.041827 
L 556.245901 104.041827 
L 556.44094 113.63965 
L 556.95846 111.078812 
L 557.151569 113.63965 
L 557.28002 128.609085 
L 557.28002 128.609085 
L 557.60014 116.325456 
L 557.727789 116.325456 
L 558.299404 113.63965 
L 558.740858 104.041827 
L 558.86649 104.041827 
L 558.86649 104.041827 
L 558.9919 111.078812 
L 559.304469 104.041827 
L 559.553545 116.325456 
L 559.925539 119.149055 
L 560.908173 92.200354 
L 561.394474 87.115379 
L 561.636391 87.115379 
L 562.417019 76.809739 
L 562.536364 83.968916 
L 562.536364 83.968916 
" style="fill:none;stroke:#1f77b4;stroke-linecap:round;stroke-width:1.5;"/>
   </g>
   <g id="patch_3">
    <path d="M 29.9 293.589375 
L 29.9 21.789375 
" style="fill:none;stroke:#cccccc;stroke-linecap:square;stroke-linejoin:miter;stroke-width:0.8;"/>
   </g>
   <g id="patch_4">
    <path d="M 587.9 293.589375 
L 587.9 21.789375 
" style="fill:none;stroke:#cccccc;stroke-linecap:square;stroke-linejoin:miter;stroke-width:0.8;"/>
   </g>
   <g id="patch_5">
    <path d="M 29.9 293.589375 
L 587.9 293.589375 
" style="fill:none;stroke:#cccccc;stroke-linecap:square;stroke-linejoin:miter;stroke-width:0.8;"/>
   </g>
   <g id="patch_6">
    <path d="M 29.9 21.789375 
L 587.9 21.789375 
" style="fill:none;stroke:#cccccc;stroke-linecap:square;stroke-linejoin:miter;stroke-width:0.8;"/>
   </g>
   <g id="text_8">
    <!-- Novos Óbitos na semana X Óbitos Totais -->
    <g style="fill:#262626;" transform="translate(199.627812 15.789375)scale(0.12 -0.12)">
     <defs>
      <path d="M 488 0 
L 488 4581 
L 1109 4581 
L 3516 984 
L 3516 4581 
L 4097 4581 
L 4097 0 
L 3475 0 
L 1069 3600 
L 1069 0 
L 488 0 
z
" id="ArialMT-4e" transform="scale(0.015625)"/>
      <path d="M 213 1659 
Q 213 2581 725 3025 
Q 1153 3394 1769 3394 
Q 2453 3394 2887 2945 
Q 3322 2497 3322 1706 
Q 3322 1066 3130 698 
Q 2938 331 2570 128 
Q 2203 -75 1769 -75 
Q 1072 -75 642 372 
Q 213 819 213 1659 
z
M 791 1659 
Q 791 1022 1069 705 
Q 1347 388 1769 388 
Q 2188 388 2466 706 
Q 2744 1025 2744 1678 
Q 2744 2294 2464 2611 
Q 2184 2928 1769 2928 
Q 1347 2928 1069 2612 
Q 791 2297 791 1659 
z
" id="ArialMT-6f" transform="scale(0.015625)"/>
      <path d="M 1344 0 
L 81 3319 
L 675 3319 
L 1388 1331 
Q 1503 1009 1600 663 
Q 1675 925 1809 1294 
L 2547 3319 
L 3125 3319 
L 1869 0 
L 1344 0 
z
" id="ArialMT-76" transform="scale(0.015625)"/>
      <path d="M 197 991 
L 753 1078 
Q 800 744 1014 566 
Q 1228 388 1613 388 
Q 2000 388 2187 545 
Q 2375 703 2375 916 
Q 2375 1106 2209 1216 
Q 2094 1291 1634 1406 
Q 1016 1563 777 1677 
Q 538 1791 414 1992 
Q 291 2194 291 2438 
Q 291 2659 392 2848 
Q 494 3038 669 3163 
Q 800 3259 1026 3326 
Q 1253 3394 1513 3394 
Q 1903 3394 2198 3281 
Q 2494 3169 2634 2976 
Q 2775 2784 2828 2463 
L 2278 2388 
Q 2241 2644 2061 2787 
Q 1881 2931 1553 2931 
Q 1166 2931 1000 2803 
Q 834 2675 834 2503 
Q 834 2394 903 2306 
Q 972 2216 1119 2156 
Q 1203 2125 1616 2013 
Q 2213 1853 2448 1751 
Q 2684 1650 2818 1456 
Q 2953 1263 2953 975 
Q 2953 694 2789 445 
Q 2625 197 2315 61 
Q 2006 -75 1616 -75 
Q 969 -75 630 194 
Q 291 463 197 991 
z
" id="ArialMT-73" transform="scale(0.015625)"/>
      <path id="ArialMT-20" transform="scale(0.015625)"/>
      <path d="M 309 2231 
Q 309 3372 921 4017 
Q 1534 4663 2503 4663 
Q 3138 4663 3647 4359 
Q 4156 4056 4423 3514 
Q 4691 2972 4691 2284 
Q 4691 1588 4409 1038 
Q 4128 488 3612 205 
Q 3097 -78 2500 -78 
Q 1853 -78 1343 234 
Q 834 547 571 1087 
Q 309 1628 309 2231 
z
M 934 2222 
Q 934 1394 1379 917 
Q 1825 441 2497 441 
Q 3181 441 3623 922 
Q 4066 1403 4066 2288 
Q 4066 2847 3877 3264 
Q 3688 3681 3323 3911 
Q 2959 4141 2506 4141 
Q 1863 4141 1398 3698 
Q 934 3256 934 2222 
z
M 2116 4862 
L 2531 5737 
L 3269 5737 
L 2581 4862 
L 2116 4862 
z
" id="ArialMT-d3" transform="scale(0.015625)"/>
      <path d="M 941 0 
L 419 0 
L 419 4581 
L 981 4581 
L 981 2947 
Q 1338 3394 1891 3394 
Q 2197 3394 2470 3270 
Q 2744 3147 2920 2923 
Q 3097 2700 3197 2384 
Q 3297 2069 3297 1709 
Q 3297 856 2875 390 
Q 2453 -75 1863 -75 
Q 1275 -75 941 416 
L 941 0 
z
M 934 1684 
Q 934 1088 1097 822 
Q 1363 388 1816 388 
Q 2184 388 2453 708 
Q 2722 1028 2722 1663 
Q 2722 2313 2464 2622 
Q 2206 2931 1841 2931 
Q 1472 2931 1203 2611 
Q 934 2291 934 1684 
z
" id="ArialMT-62" transform="scale(0.015625)"/>
      <path d="M 425 3934 
L 425 4581 
L 988 4581 
L 988 3934 
L 425 3934 
z
M 425 0 
L 425 3319 
L 988 3319 
L 988 0 
L 425 0 
z
" id="ArialMT-69" transform="scale(0.015625)"/>
      <path d="M 1650 503 
L 1731 6 
Q 1494 -44 1306 -44 
Q 1000 -44 831 53 
Q 663 150 594 308 
Q 525 466 525 972 
L 525 2881 
L 113 2881 
L 113 3319 
L 525 3319 
L 525 4141 
L 1084 4478 
L 1084 3319 
L 1650 3319 
L 1650 2881 
L 1084 2881 
L 1084 941 
Q 1084 700 1114 631 
Q 1144 563 1211 522 
Q 1278 481 1403 481 
Q 1497 481 1650 503 
z
" id="ArialMT-74" transform="scale(0.015625)"/>
      <path d="M 422 0 
L 422 3319 
L 928 3319 
L 928 2847 
Q 1294 3394 1984 3394 
Q 2284 3394 2536 3286 
Q 2788 3178 2913 3003 
Q 3038 2828 3088 2588 
Q 3119 2431 3119 2041 
L 3119 0 
L 2556 0 
L 2556 2019 
Q 2556 2363 2490 2533 
Q 2425 2703 2258 2804 
Q 2091 2906 1866 2906 
Q 1506 2906 1245 2678 
Q 984 2450 984 1813 
L 984 0 
L 422 0 
z
" id="ArialMT-6e" transform="scale(0.015625)"/>
      <path d="M 2588 409 
Q 2275 144 1986 34 
Q 1697 -75 1366 -75 
Q 819 -75 525 192 
Q 231 459 231 875 
Q 231 1119 342 1320 
Q 453 1522 633 1644 
Q 813 1766 1038 1828 
Q 1203 1872 1538 1913 
Q 2219 1994 2541 2106 
Q 2544 2222 2544 2253 
Q 2544 2597 2384 2738 
Q 2169 2928 1744 2928 
Q 1347 2928 1158 2789 
Q 969 2650 878 2297 
L 328 2372 
Q 403 2725 575 2942 
Q 747 3159 1072 3276 
Q 1397 3394 1825 3394 
Q 2250 3394 2515 3294 
Q 2781 3194 2906 3042 
Q 3031 2891 3081 2659 
Q 3109 2516 3109 2141 
L 3109 1391 
Q 3109 606 3145 398 
Q 3181 191 3288 0 
L 2700 0 
Q 2613 175 2588 409 
z
M 2541 1666 
Q 2234 1541 1622 1453 
Q 1275 1403 1131 1340 
Q 988 1278 909 1158 
Q 831 1038 831 891 
Q 831 666 1001 516 
Q 1172 366 1500 366 
Q 1825 366 2078 508 
Q 2331 650 2450 897 
Q 2541 1088 2541 1459 
L 2541 1666 
z
" id="ArialMT-61" transform="scale(0.015625)"/>
      <path d="M 2694 1069 
L 3275 997 
Q 3138 488 2766 206 
Q 2394 -75 1816 -75 
Q 1088 -75 661 373 
Q 234 822 234 1631 
Q 234 2469 665 2931 
Q 1097 3394 1784 3394 
Q 2450 3394 2872 2941 
Q 3294 2488 3294 1666 
Q 3294 1616 3291 1516 
L 816 1516 
Q 847 969 1125 678 
Q 1403 388 1819 388 
Q 2128 388 2347 550 
Q 2566 713 2694 1069 
z
M 847 1978 
L 2700 1978 
Q 2663 2397 2488 2606 
Q 2219 2931 1791 2931 
Q 1403 2931 1139 2672 
Q 875 2413 847 1978 
z
" id="ArialMT-65" transform="scale(0.015625)"/>
      <path d="M 422 0 
L 422 3319 
L 925 3319 
L 925 2853 
Q 1081 3097 1340 3245 
Q 1600 3394 1931 3394 
Q 2300 3394 2536 3241 
Q 2772 3088 2869 2813 
Q 3263 3394 3894 3394 
Q 4388 3394 4653 3120 
Q 4919 2847 4919 2278 
L 4919 0 
L 4359 0 
L 4359 2091 
Q 4359 2428 4304 2576 
Q 4250 2725 4106 2815 
Q 3963 2906 3769 2906 
Q 3419 2906 3187 2673 
Q 2956 2441 2956 1928 
L 2956 0 
L 2394 0 
L 2394 2156 
Q 2394 2531 2256 2718 
Q 2119 2906 1806 2906 
Q 1569 2906 1367 2781 
Q 1166 2656 1075 2415 
Q 984 2175 984 1722 
L 984 0 
L 422 0 
z
" id="ArialMT-6d" transform="scale(0.015625)"/>
      <path d="M 28 0 
L 1800 2388 
L 238 4581 
L 959 4581 
L 1791 3406 
Q 2050 3041 2159 2844 
Q 2313 3094 2522 3366 
L 3444 4581 
L 4103 4581 
L 2494 2422 
L 4228 0 
L 3478 0 
L 2325 1634 
Q 2228 1775 2125 1941 
Q 1972 1691 1906 1597 
L 756 0 
L 28 0 
z
" id="ArialMT-58" transform="scale(0.015625)"/>
      <path d="M 1659 0 
L 1659 4041 
L 150 4041 
L 150 4581 
L 3781 4581 
L 3781 4041 
L 2266 4041 
L 2266 0 
L 1659 0 
z
" id="ArialMT-54" transform="scale(0.015625)"/>
     </defs>
     <use xlink:href="#ArialMT-4e"/>
     <use x="72.216797" xlink:href="#ArialMT-6f"/>
     <use x="127.832031" xlink:href="#ArialMT-76"/>
     <use x="177.832031" xlink:href="#ArialMT-6f"/>
     <use x="233.447266" xlink:href="#ArialMT-73"/>
     <use x="283.447266" xlink:href="#ArialMT-20"/>
     <use x="311.230469" xlink:href="#ArialMT-d3"/>
     <use x="389.013672" xlink:href="#ArialMT-62"/>
     <use x="444.628906" xlink:href="#ArialMT-69"/>
     <use x="466.845703" xlink:href="#ArialMT-74"/>
     <use x="494.628906" xlink:href="#ArialMT-6f"/>
     <use x="550.244141" xlink:href="#ArialMT-73"/>
     <use x="600.244141" xlink:href="#ArialMT-20"/>
     <use x="628.027344" xlink:href="#ArialMT-6e"/>
     <use x="683.642578" xlink:href="#ArialMT-61"/>
     <use x="739.257812" xlink:href="#ArialMT-20"/>
     <use x="767.041016" xlink:href="#ArialMT-73"/>
     <use x="817.041016" xlink:href="#ArialMT-65"/>
     <use x="872.65625" xlink:href="#ArialMT-6d"/>
     <use x="955.957031" xlink:href="#ArialMT-61"/>
     <use x="1011.572266" xlink:href="#ArialMT-6e"/>
     <use x="1067.1875" xlink:href="#ArialMT-61"/>
     <use x="1122.802734" xlink:href="#ArialMT-20"/>
     <use x="1150.585938" xlink:href="#ArialMT-58"/>
     <use x="1217.285156" xlink:href="#ArialMT-20"/>
     <use x="1245.068359" xlink:href="#ArialMT-d3"/>
     <use x="1322.851562" xlink:href="#ArialMT-62"/>
     <use x="1378.466797" xlink:href="#ArialMT-69"/>
     <use x="1400.683594" xlink:href="#ArialMT-74"/>
     <use x="1428.466797" xlink:href="#ArialMT-6f"/>
     <use x="1484.082031" xlink:href="#ArialMT-73"/>
     <use x="1534.082031" xlink:href="#ArialMT-20"/>
     <use x="1560.115234" xlink:href="#ArialMT-54"/>
     <use x="1610.074219" xlink:href="#ArialMT-6f"/>
     <use x="1665.689453" xlink:href="#ArialMT-74"/>
     <use x="1693.472656" xlink:href="#ArialMT-61"/>
     <use x="1749.087891" xlink:href="#ArialMT-69"/>
     <use x="1771.304688" xlink:href="#ArialMT-73"/>
    </g>
   </g>
  </g>
 </g>
 <defs>
  <clipPath id="p206f74bde8">
   <rect height="271.8" width="558" x="29.9" y="21.789375"/>
  </clipPath>
 </defs>
</svg>
