<?xml version="1.0" encoding="utf-8" standalone="no"?>
<!DOCTYPE svg PUBLIC "-//W3C//DTD SVG 1.1//EN"
  "http://www.w3.org/Graphics/SVG/1.1/DTD/svg11.dtd">
<svg xmlns:xlink="http://www.w3.org/1999/xlink" width="705.6pt" height="340.273125pt" viewBox="0 0 705.6 340.273125" xmlns="http://www.w3.org/2000/svg" version="1.1">
 <metadata>
  <rdf:RDF xmlns:dc="http://purl.org/dc/elements/1.1/" xmlns:cc="http://creativecommons.org/ns#" xmlns:rdf="http://www.w3.org/1999/02/22-rdf-syntax-ns#">
   <cc:Work>
    <dc:type rdf:resource="http://purl.org/dc/dcmitype/StillImage"/>
    <dc:date>2022-01-31T18:05:44.737017</dc:date>
    <dc:format>image/svg+xml</dc:format>
    <dc:creator>
     <cc:Agent>
      <dc:title>Matplotlib v3.5.1, https://matplotlib.org/</dc:title>
     </cc:Agent>
    </dc:creator>
   </cc:Work>
  </rdf:RDF>
 </metadata>
 <defs>
  <style type="text/css">*{stroke-linejoin: round; stroke-linecap: butt}</style>
 </defs>
 <g id="figure_1">
  <g id="patch_1">
   <path d="M 0 340.273125 
L 705.6 340.273125 
L 705.6 0 
L 0 0 
z
" style="fill: #ffffff"/>
  </g>
  <g id="axes_1">
   <g id="patch_2">
    <path d="M 82.8 298.989375 
L 640.8 298.989375 
L 640.8 21.789375 
L 82.8 21.789375 
z
" style="fill: #ffffff"/>
   </g>
   <g id="axes_2">
    <g id="patch_3">
     <path d="M 640.8 298.989375 
L 640.8 298.989375 
L 640.8 21.789375 
L 640.8 21.789375 
z
" style="fill: #ffffff"/>
    </g>
    <g id="matplotlib.axis_1"/>
    <g id="matplotlib.axis_2">
     <g id="ytick_1">
      <g id="line2d_1">
       <path d="M 640.8 286.389375 
L 640.8 286.389375 
" clip-path="url(#p046f8d7a9a)" style="fill: none; stroke: #cccccc; stroke-width: 0.8; stroke-linecap: round"/>
      </g>
      <g id="line2d_2">
       <defs>
        <path id="m5030d38c78" d="M 0 0 
L 3.5 0 
" style="stroke: #262626; stroke-width: 0.8"/>
       </defs>
       <g>
        <use xlink:href="#m5030d38c78" x="640.8" y="286.389375" style="fill: #262626; stroke: #262626; stroke-width: 0.8"/>
       </g>
      </g>
      <g id="text_1">
       <!-- 0% -->
       <g style="fill: #262626" transform="translate(647.8 289.968281)scale(0.1 -0.1)">
        <defs>
         <path id="ArialMT-30" d="M 266 2259 
Q 266 3072 433 3567 
Q 600 4063 929 4331 
Q 1259 4600 1759 4600 
Q 2128 4600 2406 4451 
Q 2684 4303 2865 4023 
Q 3047 3744 3150 3342 
Q 3253 2941 3253 2259 
Q 3253 1453 3087 958 
Q 2922 463 2592 192 
Q 2263 -78 1759 -78 
Q 1097 -78 719 397 
Q 266 969 266 2259 
z
M 844 2259 
Q 844 1131 1108 757 
Q 1372 384 1759 384 
Q 2147 384 2411 759 
Q 2675 1134 2675 2259 
Q 2675 3391 2411 3762 
Q 2147 4134 1753 4134 
Q 1366 4134 1134 3806 
Q 844 3388 844 2259 
z
" transform="scale(0.015625)"/>
         <path id="ArialMT-25" d="M 372 3481 
Q 372 3972 619 4315 
Q 866 4659 1334 4659 
Q 1766 4659 2048 4351 
Q 2331 4044 2331 3447 
Q 2331 2866 2045 2552 
Q 1759 2238 1341 2238 
Q 925 2238 648 2547 
Q 372 2856 372 3481 
z
M 1350 4272 
Q 1141 4272 1002 4090 
Q 863 3909 863 3425 
Q 863 2984 1003 2804 
Q 1144 2625 1350 2625 
Q 1563 2625 1702 2806 
Q 1841 2988 1841 3469 
Q 1841 3913 1700 4092 
Q 1559 4272 1350 4272 
z
M 1353 -169 
L 3859 4659 
L 4316 4659 
L 1819 -169 
L 1353 -169 
z
M 3334 1075 
Q 3334 1569 3581 1911 
Q 3828 2253 4300 2253 
Q 4731 2253 5014 1945 
Q 5297 1638 5297 1041 
Q 5297 459 5011 145 
Q 4725 -169 4303 -169 
Q 3888 -169 3611 142 
Q 3334 453 3334 1075 
z
M 4316 1866 
Q 4103 1866 3964 1684 
Q 3825 1503 3825 1019 
Q 3825 581 3965 400 
Q 4106 219 4313 219 
Q 4528 219 4667 400 
Q 4806 581 4806 1063 
Q 4806 1506 4665 1686 
Q 4525 1866 4316 1866 
z
" transform="scale(0.015625)"/>
        </defs>
        <use xlink:href="#ArialMT-30"/>
        <use xlink:href="#ArialMT-25" x="55.615234"/>
       </g>
      </g>
     </g>
     <g id="ytick_2">
      <g id="line2d_3">
       <path d="M 640.8 250.810695 
L 640.8 250.810695 
" clip-path="url(#p046f8d7a9a)" style="fill: none; stroke: #cccccc; stroke-width: 0.8; stroke-linecap: round"/>
      </g>
      <g id="line2d_4">
       <g>
        <use xlink:href="#m5030d38c78" x="640.8" y="250.810695" style="fill: #262626; stroke: #262626; stroke-width: 0.8"/>
       </g>
      </g>
      <g id="text_2">
       <!-- 25% -->
       <g style="fill: #262626" transform="translate(647.8 254.389601)scale(0.1 -0.1)">
        <defs>
         <path id="ArialMT-32" d="M 3222 541 
L 3222 0 
L 194 0 
Q 188 203 259 391 
Q 375 700 629 1000 
Q 884 1300 1366 1694 
Q 2113 2306 2375 2664 
Q 2638 3022 2638 3341 
Q 2638 3675 2398 3904 
Q 2159 4134 1775 4134 
Q 1369 4134 1125 3890 
Q 881 3647 878 3216 
L 300 3275 
Q 359 3922 746 4261 
Q 1134 4600 1788 4600 
Q 2447 4600 2831 4234 
Q 3216 3869 3216 3328 
Q 3216 3053 3103 2787 
Q 2991 2522 2730 2228 
Q 2469 1934 1863 1422 
Q 1356 997 1212 845 
Q 1069 694 975 541 
L 3222 541 
z
" transform="scale(0.015625)"/>
         <path id="ArialMT-35" d="M 266 1200 
L 856 1250 
Q 922 819 1161 601 
Q 1400 384 1738 384 
Q 2144 384 2425 690 
Q 2706 997 2706 1503 
Q 2706 1984 2436 2262 
Q 2166 2541 1728 2541 
Q 1456 2541 1237 2417 
Q 1019 2294 894 2097 
L 366 2166 
L 809 4519 
L 3088 4519 
L 3088 3981 
L 1259 3981 
L 1013 2750 
Q 1425 3038 1878 3038 
Q 2478 3038 2890 2622 
Q 3303 2206 3303 1553 
Q 3303 931 2941 478 
Q 2500 -78 1738 -78 
Q 1113 -78 717 272 
Q 322 622 266 1200 
z
" transform="scale(0.015625)"/>
        </defs>
        <use xlink:href="#ArialMT-32"/>
        <use xlink:href="#ArialMT-35" x="55.615234"/>
        <use xlink:href="#ArialMT-25" x="111.230469"/>
       </g>
      </g>
     </g>
     <g id="ytick_3">
      <g id="line2d_5">
       <path d="M 640.8 215.232015 
L 640.8 215.232015 
" clip-path="url(#p046f8d7a9a)" style="fill: none; stroke: #cccccc; stroke-width: 0.8; stroke-linecap: round"/>
      </g>
      <g id="line2d_6">
       <g>
        <use xlink:href="#m5030d38c78" x="640.8" y="215.232015" style="fill: #262626; stroke: #262626; stroke-width: 0.8"/>
       </g>
      </g>
      <g id="text_3">
       <!-- 50% -->
       <g style="fill: #262626" transform="translate(647.8 218.810921)scale(0.1 -0.1)">
        <use xlink:href="#ArialMT-35"/>
        <use xlink:href="#ArialMT-30" x="55.615234"/>
        <use xlink:href="#ArialMT-25" x="111.230469"/>
       </g>
      </g>
     </g>
     <g id="ytick_4">
      <g id="line2d_7">
       <path d="M 640.8 179.653334 
L 640.8 179.653334 
" clip-path="url(#p046f8d7a9a)" style="fill: none; stroke: #cccccc; stroke-width: 0.8; stroke-linecap: round"/>
      </g>
      <g id="line2d_8">
       <g>
        <use xlink:href="#m5030d38c78" x="640.8" y="179.653334" style="fill: #262626; stroke: #262626; stroke-width: 0.8"/>
       </g>
      </g>
      <g id="text_4">
       <!-- 75% -->
       <g style="fill: #262626" transform="translate(647.8 183.232241)scale(0.1 -0.1)">
        <defs>
         <path id="ArialMT-37" d="M 303 3981 
L 303 4522 
L 3269 4522 
L 3269 4084 
Q 2831 3619 2401 2847 
Q 1972 2075 1738 1259 
Q 1569 684 1522 0 
L 944 0 
Q 953 541 1156 1306 
Q 1359 2072 1739 2783 
Q 2119 3494 2547 3981 
L 303 3981 
z
" transform="scale(0.015625)"/>
        </defs>
        <use xlink:href="#ArialMT-37"/>
        <use xlink:href="#ArialMT-35" x="55.615234"/>
        <use xlink:href="#ArialMT-25" x="111.230469"/>
       </g>
      </g>
     </g>
     <g id="ytick_5">
      <g id="line2d_9">
       <path d="M 640.8 144.074654 
L 640.8 144.074654 
" clip-path="url(#p046f8d7a9a)" style="fill: none; stroke: #cccccc; stroke-width: 0.8; stroke-linecap: round"/>
      </g>
      <g id="line2d_10">
       <g>
        <use xlink:href="#m5030d38c78" x="640.8" y="144.074654" style="fill: #262626; stroke: #262626; stroke-width: 0.8"/>
       </g>
      </g>
      <g id="text_5">
       <!-- 100% -->
       <g style="fill: #262626" transform="translate(647.8 147.65356)scale(0.1 -0.1)">
        <defs>
         <path id="ArialMT-31" d="M 2384 0 
L 1822 0 
L 1822 3584 
Q 1619 3391 1289 3197 
Q 959 3003 697 2906 
L 697 3450 
Q 1169 3672 1522 3987 
Q 1875 4303 2022 4600 
L 2384 4600 
L 2384 0 
z
" transform="scale(0.015625)"/>
        </defs>
        <use xlink:href="#ArialMT-31"/>
        <use xlink:href="#ArialMT-30" x="55.615234"/>
        <use xlink:href="#ArialMT-30" x="111.230469"/>
        <use xlink:href="#ArialMT-25" x="166.845703"/>
       </g>
      </g>
     </g>
     <g id="ytick_6">
      <g id="line2d_11">
       <path d="M 640.8 108.495974 
L 640.8 108.495974 
" clip-path="url(#p046f8d7a9a)" style="fill: none; stroke: #cccccc; stroke-width: 0.8; stroke-linecap: round"/>
      </g>
      <g id="line2d_12">
       <g>
        <use xlink:href="#m5030d38c78" x="640.8" y="108.495974" style="fill: #262626; stroke: #262626; stroke-width: 0.8"/>
       </g>
      </g>
      <g id="text_6">
       <!-- 125% -->
       <g style="fill: #262626" transform="translate(647.8 112.07488)scale(0.1 -0.1)">
        <use xlink:href="#ArialMT-31"/>
        <use xlink:href="#ArialMT-32" x="55.615234"/>
        <use xlink:href="#ArialMT-35" x="111.230469"/>
        <use xlink:href="#ArialMT-25" x="166.845703"/>
       </g>
      </g>
     </g>
     <g id="ytick_7">
      <g id="line2d_13">
       <path d="M 640.8 72.917294 
L 640.8 72.917294 
" clip-path="url(#p046f8d7a9a)" style="fill: none; stroke: #cccccc; stroke-width: 0.8; stroke-linecap: round"/>
      </g>
      <g id="line2d_14">
       <g>
        <use xlink:href="#m5030d38c78" x="640.8" y="72.917294" style="fill: #262626; stroke: #262626; stroke-width: 0.8"/>
       </g>
      </g>
      <g id="text_7">
       <!-- 150% -->
       <g style="fill: #262626" transform="translate(647.8 76.4962)scale(0.1 -0.1)">
        <use xlink:href="#ArialMT-31"/>
        <use xlink:href="#ArialMT-35" x="55.615234"/>
        <use xlink:href="#ArialMT-30" x="111.230469"/>
        <use xlink:href="#ArialMT-25" x="166.845703"/>
       </g>
      </g>
     </g>
     <g id="ytick_8">
      <g id="line2d_15">
       <path d="M 640.8 37.338614 
L 640.8 37.338614 
" clip-path="url(#p046f8d7a9a)" style="fill: none; stroke: #cccccc; stroke-width: 0.8; stroke-linecap: round"/>
      </g>
      <g id="line2d_16">
       <g>
        <use xlink:href="#m5030d38c78" x="640.8" y="37.338614" style="fill: #262626; stroke: #262626; stroke-width: 0.8"/>
       </g>
      </g>
      <g id="text_8">
       <!-- 175% -->
       <g style="fill: #262626" transform="translate(647.8 40.91752)scale(0.1 -0.1)">
        <use xlink:href="#ArialMT-31"/>
        <use xlink:href="#ArialMT-37" x="55.615234"/>
        <use xlink:href="#ArialMT-35" x="111.230469"/>
        <use xlink:href="#ArialMT-25" x="166.845703"/>
       </g>
      </g>
     </g>
    </g>
    <g id="patch_4">
     <path d="M 640.8 298.989375 
L 640.8 21.789375 
" style="fill: none; stroke: #cccccc; stroke-width: 0.8; stroke-linejoin: miter; stroke-linecap: square"/>
    </g>
   </g>
   <g id="matplotlib.axis_3">
    <g id="xtick_1">
     <g id="line2d_17">
      <path d="M 117.930307 298.989375 
L 117.930307 21.789375 
" clip-path="url(#pfaf38e8900)" style="fill: none; stroke: #cccccc; stroke-width: 0.8; stroke-linecap: round"/>
     </g>
     <g id="text_9">
      <!-- 2020-05 -->
      <g style="fill: #262626" transform="translate(99.582651 313.147188)scale(0.1 -0.1)">
       <defs>
        <path id="ArialMT-2d" d="M 203 1375 
L 203 1941 
L 1931 1941 
L 1931 1375 
L 203 1375 
z
" transform="scale(0.015625)"/>
       </defs>
       <use xlink:href="#ArialMT-32"/>
       <use xlink:href="#ArialMT-30" x="55.615234"/>
       <use xlink:href="#ArialMT-32" x="111.230469"/>
       <use xlink:href="#ArialMT-30" x="166.845703"/>
       <use xlink:href="#ArialMT-2d" x="222.460938"/>
       <use xlink:href="#ArialMT-30" x="255.761719"/>
       <use xlink:href="#ArialMT-35" x="311.376953"/>
      </g>
     </g>
    </g>
    <g id="xtick_2">
     <g id="line2d_18">
      <path d="M 167.766325 298.989375 
L 167.766325 21.789375 
" clip-path="url(#pfaf38e8900)" style="fill: none; stroke: #cccccc; stroke-width: 0.8; stroke-linecap: round"/>
     </g>
     <g id="text_10">
      <!-- 2020-07 -->
      <g style="fill: #262626" transform="translate(149.418669 313.147188)scale(0.1 -0.1)">
       <use xlink:href="#ArialMT-32"/>
       <use xlink:href="#ArialMT-30" x="55.615234"/>
       <use xlink:href="#ArialMT-32" x="111.230469"/>
       <use xlink:href="#ArialMT-30" x="166.845703"/>
       <use xlink:href="#ArialMT-2d" x="222.460938"/>
       <use xlink:href="#ArialMT-30" x="255.761719"/>
       <use xlink:href="#ArialMT-37" x="311.376953"/>
      </g>
     </g>
    </g>
    <g id="xtick_3">
     <g id="line2d_19">
      <path d="M 218.419327 298.989375 
L 218.419327 21.789375 
" clip-path="url(#pfaf38e8900)" style="fill: none; stroke: #cccccc; stroke-width: 0.8; stroke-linecap: round"/>
     </g>
     <g id="text_11">
      <!-- 2020-09 -->
      <g style="fill: #262626" transform="translate(200.07167 313.147188)scale(0.1 -0.1)">
       <defs>
        <path id="ArialMT-39" d="M 350 1059 
L 891 1109 
Q 959 728 1153 556 
Q 1347 384 1650 384 
Q 1909 384 2104 503 
Q 2300 622 2425 820 
Q 2550 1019 2634 1356 
Q 2719 1694 2719 2044 
Q 2719 2081 2716 2156 
Q 2547 1888 2255 1720 
Q 1963 1553 1622 1553 
Q 1053 1553 659 1965 
Q 266 2378 266 3053 
Q 266 3750 677 4175 
Q 1088 4600 1706 4600 
Q 2153 4600 2523 4359 
Q 2894 4119 3086 3673 
Q 3278 3228 3278 2384 
Q 3278 1506 3087 986 
Q 2897 466 2520 194 
Q 2144 -78 1638 -78 
Q 1100 -78 759 220 
Q 419 519 350 1059 
z
M 2653 3081 
Q 2653 3566 2395 3850 
Q 2138 4134 1775 4134 
Q 1400 4134 1122 3828 
Q 844 3522 844 3034 
Q 844 2597 1108 2323 
Q 1372 2050 1759 2050 
Q 2150 2050 2401 2323 
Q 2653 2597 2653 3081 
z
" transform="scale(0.015625)"/>
       </defs>
       <use xlink:href="#ArialMT-32"/>
       <use xlink:href="#ArialMT-30" x="55.615234"/>
       <use xlink:href="#ArialMT-32" x="111.230469"/>
       <use xlink:href="#ArialMT-30" x="166.845703"/>
       <use xlink:href="#ArialMT-2d" x="222.460938"/>
       <use xlink:href="#ArialMT-30" x="255.761719"/>
       <use xlink:href="#ArialMT-39" x="311.376953"/>
      </g>
     </g>
    </g>
    <g id="xtick_4">
     <g id="line2d_20">
      <path d="M 268.255344 298.989375 
L 268.255344 21.789375 
" clip-path="url(#pfaf38e8900)" style="fill: none; stroke: #cccccc; stroke-width: 0.8; stroke-linecap: round"/>
     </g>
     <g id="text_12">
      <!-- 2020-11 -->
      <g style="fill: #262626" transform="translate(250.276438 313.147188)scale(0.1 -0.1)">
       <use xlink:href="#ArialMT-32"/>
       <use xlink:href="#ArialMT-30" x="55.615234"/>
       <use xlink:href="#ArialMT-32" x="111.230469"/>
       <use xlink:href="#ArialMT-30" x="166.845703"/>
       <use xlink:href="#ArialMT-2d" x="222.460938"/>
       <use xlink:href="#ArialMT-31" x="255.761719"/>
       <use xlink:href="#ArialMT-31" x="304.001953"/>
      </g>
     </g>
    </g>
    <g id="xtick_5">
     <g id="line2d_21">
      <path d="M 318.091362 298.989375 
L 318.091362 21.789375 
" clip-path="url(#pfaf38e8900)" style="fill: none; stroke: #cccccc; stroke-width: 0.8; stroke-linecap: round"/>
     </g>
     <g id="text_13">
      <!-- 2021-01 -->
      <g style="fill: #262626" transform="translate(299.743705 313.147188)scale(0.1 -0.1)">
       <use xlink:href="#ArialMT-32"/>
       <use xlink:href="#ArialMT-30" x="55.615234"/>
       <use xlink:href="#ArialMT-32" x="111.230469"/>
       <use xlink:href="#ArialMT-31" x="166.845703"/>
       <use xlink:href="#ArialMT-2d" x="222.460938"/>
       <use xlink:href="#ArialMT-30" x="255.761719"/>
       <use xlink:href="#ArialMT-31" x="311.376953"/>
      </g>
     </g>
    </g>
    <g id="xtick_6">
     <g id="line2d_22">
      <path d="M 366.293411 298.989375 
L 366.293411 21.789375 
" clip-path="url(#pfaf38e8900)" style="fill: none; stroke: #cccccc; stroke-width: 0.8; stroke-linecap: round"/>
     </g>
     <g id="text_14">
      <!-- 2021-03 -->
      <g style="fill: #262626" transform="translate(347.945755 313.147188)scale(0.1 -0.1)">
       <defs>
        <path id="ArialMT-33" d="M 269 1209 
L 831 1284 
Q 928 806 1161 595 
Q 1394 384 1728 384 
Q 2125 384 2398 659 
Q 2672 934 2672 1341 
Q 2672 1728 2419 1979 
Q 2166 2231 1775 2231 
Q 1616 2231 1378 2169 
L 1441 2663 
Q 1497 2656 1531 2656 
Q 1891 2656 2178 2843 
Q 2466 3031 2466 3422 
Q 2466 3731 2256 3934 
Q 2047 4138 1716 4138 
Q 1388 4138 1169 3931 
Q 950 3725 888 3313 
L 325 3413 
Q 428 3978 793 4289 
Q 1159 4600 1703 4600 
Q 2078 4600 2393 4439 
Q 2709 4278 2876 4000 
Q 3044 3722 3044 3409 
Q 3044 3113 2884 2869 
Q 2725 2625 2413 2481 
Q 2819 2388 3044 2092 
Q 3269 1797 3269 1353 
Q 3269 753 2831 336 
Q 2394 -81 1725 -81 
Q 1122 -81 723 278 
Q 325 638 269 1209 
z
" transform="scale(0.015625)"/>
       </defs>
       <use xlink:href="#ArialMT-32"/>
       <use xlink:href="#ArialMT-30" x="55.615234"/>
       <use xlink:href="#ArialMT-32" x="111.230469"/>
       <use xlink:href="#ArialMT-31" x="166.845703"/>
       <use xlink:href="#ArialMT-2d" x="222.460938"/>
       <use xlink:href="#ArialMT-30" x="255.761719"/>
       <use xlink:href="#ArialMT-33" x="311.376953"/>
      </g>
     </g>
    </g>
    <g id="xtick_7">
     <g id="line2d_23">
      <path d="M 416.129429 298.989375 
L 416.129429 21.789375 
" clip-path="url(#pfaf38e8900)" style="fill: none; stroke: #cccccc; stroke-width: 0.8; stroke-linecap: round"/>
     </g>
     <g id="text_15">
      <!-- 2021-05 -->
      <g style="fill: #262626" transform="translate(397.781773 313.147188)scale(0.1 -0.1)">
       <use xlink:href="#ArialMT-32"/>
       <use xlink:href="#ArialMT-30" x="55.615234"/>
       <use xlink:href="#ArialMT-32" x="111.230469"/>
       <use xlink:href="#ArialMT-31" x="166.845703"/>
       <use xlink:href="#ArialMT-2d" x="222.460938"/>
       <use xlink:href="#ArialMT-30" x="255.761719"/>
       <use xlink:href="#ArialMT-35" x="311.376953"/>
      </g>
     </g>
    </g>
    <g id="xtick_8">
     <g id="line2d_24">
      <path d="M 465.965447 298.989375 
L 465.965447 21.789375 
" clip-path="url(#pfaf38e8900)" style="fill: none; stroke: #cccccc; stroke-width: 0.8; stroke-linecap: round"/>
     </g>
     <g id="text_16">
      <!-- 2021-07 -->
      <g style="fill: #262626" transform="translate(447.61779 313.147188)scale(0.1 -0.1)">
       <use xlink:href="#ArialMT-32"/>
       <use xlink:href="#ArialMT-30" x="55.615234"/>
       <use xlink:href="#ArialMT-32" x="111.230469"/>
       <use xlink:href="#ArialMT-31" x="166.845703"/>
       <use xlink:href="#ArialMT-2d" x="222.460938"/>
       <use xlink:href="#ArialMT-30" x="255.761719"/>
       <use xlink:href="#ArialMT-37" x="311.376953"/>
      </g>
     </g>
    </g>
    <g id="xtick_9">
     <g id="line2d_25">
      <path d="M 516.618448 298.989375 
L 516.618448 21.789375 
" clip-path="url(#pfaf38e8900)" style="fill: none; stroke: #cccccc; stroke-width: 0.8; stroke-linecap: round"/>
     </g>
     <g id="text_17">
      <!-- 2021-09 -->
      <g style="fill: #262626" transform="translate(498.270792 313.147188)scale(0.1 -0.1)">
       <use xlink:href="#ArialMT-32"/>
       <use xlink:href="#ArialMT-30" x="55.615234"/>
       <use xlink:href="#ArialMT-32" x="111.230469"/>
       <use xlink:href="#ArialMT-31" x="166.845703"/>
       <use xlink:href="#ArialMT-2d" x="222.460938"/>
       <use xlink:href="#ArialMT-30" x="255.761719"/>
       <use xlink:href="#ArialMT-39" x="311.376953"/>
      </g>
     </g>
    </g>
    <g id="xtick_10">
     <g id="line2d_26">
      <path d="M 566.454466 298.989375 
L 566.454466 21.789375 
" clip-path="url(#pfaf38e8900)" style="fill: none; stroke: #cccccc; stroke-width: 0.8; stroke-linecap: round"/>
     </g>
     <g id="text_18">
      <!-- 2021-11 -->
      <g style="fill: #262626" transform="translate(548.475559 313.147188)scale(0.1 -0.1)">
       <use xlink:href="#ArialMT-32"/>
       <use xlink:href="#ArialMT-30" x="55.615234"/>
       <use xlink:href="#ArialMT-32" x="111.230469"/>
       <use xlink:href="#ArialMT-31" x="166.845703"/>
       <use xlink:href="#ArialMT-2d" x="222.460938"/>
       <use xlink:href="#ArialMT-31" x="255.761719"/>
       <use xlink:href="#ArialMT-31" x="304.001953"/>
      </g>
     </g>
    </g>
    <g id="xtick_11">
     <g id="line2d_27">
      <path d="M 616.290483 298.989375 
L 616.290483 21.789375 
" clip-path="url(#pfaf38e8900)" style="fill: none; stroke: #cccccc; stroke-width: 0.8; stroke-linecap: round"/>
     </g>
     <g id="text_19">
      <!-- 2022-01 -->
      <g style="fill: #262626" transform="translate(597.942827 313.147188)scale(0.1 -0.1)">
       <use xlink:href="#ArialMT-32"/>
       <use xlink:href="#ArialMT-30" x="55.615234"/>
       <use xlink:href="#ArialMT-32" x="111.230469"/>
       <use xlink:href="#ArialMT-32" x="166.845703"/>
       <use xlink:href="#ArialMT-2d" x="222.460938"/>
       <use xlink:href="#ArialMT-30" x="255.761719"/>
       <use xlink:href="#ArialMT-31" x="311.376953"/>
      </g>
     </g>
    </g>
   </g>
   <g id="matplotlib.axis_4">
    <g id="ytick_9">
     <g id="line2d_28">
      <path d="M 82.8 286.389375 
L 640.8 286.389375 
" clip-path="url(#pfaf38e8900)" style="fill: none; stroke: #cccccc; stroke-width: 0.8; stroke-linecap: round"/>
     </g>
     <g id="text_20">
      <!-- 0 -->
      <g style="fill: #262626" transform="translate(70.239063 289.968281)scale(0.1 -0.1)">
       <use xlink:href="#ArialMT-30"/>
      </g>
     </g>
    </g>
    <g id="ytick_10">
     <g id="line2d_29">
      <path d="M 82.8 253.597285 
L 640.8 253.597285 
" clip-path="url(#pfaf38e8900)" style="fill: none; stroke: #cccccc; stroke-width: 0.8; stroke-linecap: round"/>
     </g>
     <g id="text_21">
      <!-- 100000 -->
      <g style="fill: #262626" transform="translate(42.434375 257.176191)scale(0.1 -0.1)">
       <use xlink:href="#ArialMT-31"/>
       <use xlink:href="#ArialMT-30" x="55.615234"/>
       <use xlink:href="#ArialMT-30" x="111.230469"/>
       <use xlink:href="#ArialMT-30" x="166.845703"/>
       <use xlink:href="#ArialMT-30" x="222.460938"/>
       <use xlink:href="#ArialMT-30" x="278.076172"/>
      </g>
     </g>
    </g>
    <g id="ytick_11">
     <g id="line2d_30">
      <path d="M 82.8 220.805194 
L 640.8 220.805194 
" clip-path="url(#pfaf38e8900)" style="fill: none; stroke: #cccccc; stroke-width: 0.8; stroke-linecap: round"/>
     </g>
     <g id="text_22">
      <!-- 200000 -->
      <g style="fill: #262626" transform="translate(42.434375 224.384101)scale(0.1 -0.1)">
       <use xlink:href="#ArialMT-32"/>
       <use xlink:href="#ArialMT-30" x="55.615234"/>
       <use xlink:href="#ArialMT-30" x="111.230469"/>
       <use xlink:href="#ArialMT-30" x="166.845703"/>
       <use xlink:href="#ArialMT-30" x="222.460938"/>
       <use xlink:href="#ArialMT-30" x="278.076172"/>
      </g>
     </g>
    </g>
    <g id="ytick_12">
     <g id="line2d_31">
      <path d="M 82.8 188.013104 
L 640.8 188.013104 
" clip-path="url(#pfaf38e8900)" style="fill: none; stroke: #cccccc; stroke-width: 0.8; stroke-linecap: round"/>
     </g>
     <g id="text_23">
      <!-- 300000 -->
      <g style="fill: #262626" transform="translate(42.434375 191.59201)scale(0.1 -0.1)">
       <use xlink:href="#ArialMT-33"/>
       <use xlink:href="#ArialMT-30" x="55.615234"/>
       <use xlink:href="#ArialMT-30" x="111.230469"/>
       <use xlink:href="#ArialMT-30" x="166.845703"/>
       <use xlink:href="#ArialMT-30" x="222.460938"/>
       <use xlink:href="#ArialMT-30" x="278.076172"/>
      </g>
     </g>
    </g>
    <g id="ytick_13">
     <g id="line2d_32">
      <path d="M 82.8 155.221014 
L 640.8 155.221014 
" clip-path="url(#pfaf38e8900)" style="fill: none; stroke: #cccccc; stroke-width: 0.8; stroke-linecap: round"/>
     </g>
     <g id="text_24">
      <!-- 400000 -->
      <g style="fill: #262626" transform="translate(42.434375 158.79992)scale(0.1 -0.1)">
       <defs>
        <path id="ArialMT-34" d="M 2069 0 
L 2069 1097 
L 81 1097 
L 81 1613 
L 2172 4581 
L 2631 4581 
L 2631 1613 
L 3250 1613 
L 3250 1097 
L 2631 1097 
L 2631 0 
L 2069 0 
z
M 2069 1613 
L 2069 3678 
L 634 1613 
L 2069 1613 
z
" transform="scale(0.015625)"/>
       </defs>
       <use xlink:href="#ArialMT-34"/>
       <use xlink:href="#ArialMT-30" x="55.615234"/>
       <use xlink:href="#ArialMT-30" x="111.230469"/>
       <use xlink:href="#ArialMT-30" x="166.845703"/>
       <use xlink:href="#ArialMT-30" x="222.460938"/>
       <use xlink:href="#ArialMT-30" x="278.076172"/>
      </g>
     </g>
    </g>
    <g id="ytick_14">
     <g id="line2d_33">
      <path d="M 82.8 122.428923 
L 640.8 122.428923 
" clip-path="url(#pfaf38e8900)" style="fill: none; stroke: #cccccc; stroke-width: 0.8; stroke-linecap: round"/>
     </g>
     <g id="text_25">
      <!-- 500000 -->
      <g style="fill: #262626" transform="translate(42.434375 126.00783)scale(0.1 -0.1)">
       <use xlink:href="#ArialMT-35"/>
       <use xlink:href="#ArialMT-30" x="55.615234"/>
       <use xlink:href="#ArialMT-30" x="111.230469"/>
       <use xlink:href="#ArialMT-30" x="166.845703"/>
       <use xlink:href="#ArialMT-30" x="222.460938"/>
       <use xlink:href="#ArialMT-30" x="278.076172"/>
      </g>
     </g>
    </g>
    <g id="ytick_15">
     <g id="line2d_34">
      <path d="M 82.8 89.636833 
L 640.8 89.636833 
" clip-path="url(#pfaf38e8900)" style="fill: none; stroke: #cccccc; stroke-width: 0.8; stroke-linecap: round"/>
     </g>
     <g id="text_26">
      <!-- 600000 -->
      <g style="fill: #262626" transform="translate(42.434375 93.215739)scale(0.1 -0.1)">
       <defs>
        <path id="ArialMT-36" d="M 3184 3459 
L 2625 3416 
Q 2550 3747 2413 3897 
Q 2184 4138 1850 4138 
Q 1581 4138 1378 3988 
Q 1113 3794 959 3422 
Q 806 3050 800 2363 
Q 1003 2672 1297 2822 
Q 1591 2972 1913 2972 
Q 2475 2972 2870 2558 
Q 3266 2144 3266 1488 
Q 3266 1056 3080 686 
Q 2894 316 2569 119 
Q 2244 -78 1831 -78 
Q 1128 -78 684 439 
Q 241 956 241 2144 
Q 241 3472 731 4075 
Q 1159 4600 1884 4600 
Q 2425 4600 2770 4297 
Q 3116 3994 3184 3459 
z
M 888 1484 
Q 888 1194 1011 928 
Q 1134 663 1356 523 
Q 1578 384 1822 384 
Q 2178 384 2434 671 
Q 2691 959 2691 1453 
Q 2691 1928 2437 2201 
Q 2184 2475 1800 2475 
Q 1419 2475 1153 2201 
Q 888 1928 888 1484 
z
" transform="scale(0.015625)"/>
       </defs>
       <use xlink:href="#ArialMT-36"/>
       <use xlink:href="#ArialMT-30" x="55.615234"/>
       <use xlink:href="#ArialMT-30" x="111.230469"/>
       <use xlink:href="#ArialMT-30" x="166.845703"/>
       <use xlink:href="#ArialMT-30" x="222.460938"/>
       <use xlink:href="#ArialMT-30" x="278.076172"/>
      </g>
     </g>
    </g>
    <g id="ytick_16">
     <g id="line2d_35">
      <path d="M 82.8 56.844743 
L 640.8 56.844743 
" clip-path="url(#pfaf38e8900)" style="fill: none; stroke: #cccccc; stroke-width: 0.8; stroke-linecap: round"/>
     </g>
     <g id="text_27">
      <!-- 700000 -->
      <g style="fill: #262626" transform="translate(42.434375 60.423649)scale(0.1 -0.1)">
       <use xlink:href="#ArialMT-37"/>
       <use xlink:href="#ArialMT-30" x="55.615234"/>
       <use xlink:href="#ArialMT-30" x="111.230469"/>
       <use xlink:href="#ArialMT-30" x="166.845703"/>
       <use xlink:href="#ArialMT-30" x="222.460938"/>
       <use xlink:href="#ArialMT-30" x="278.076172"/>
      </g>
     </g>
    </g>
    <g id="ytick_17">
     <g id="line2d_36">
      <path d="M 82.8 24.052652 
L 640.8 24.052652 
" clip-path="url(#pfaf38e8900)" style="fill: none; stroke: #cccccc; stroke-width: 0.8; stroke-linecap: round"/>
     </g>
     <g id="text_28">
      <!-- 800000 -->
      <g style="fill: #262626" transform="translate(42.434375 27.631559)scale(0.1 -0.1)">
       <defs>
        <path id="ArialMT-38" d="M 1131 2484 
Q 781 2613 612 2850 
Q 444 3088 444 3419 
Q 444 3919 803 4259 
Q 1163 4600 1759 4600 
Q 2359 4600 2725 4251 
Q 3091 3903 3091 3403 
Q 3091 3084 2923 2848 
Q 2756 2613 2416 2484 
Q 2838 2347 3058 2040 
Q 3278 1734 3278 1309 
Q 3278 722 2862 322 
Q 2447 -78 1769 -78 
Q 1091 -78 675 323 
Q 259 725 259 1325 
Q 259 1772 486 2073 
Q 713 2375 1131 2484 
z
M 1019 3438 
Q 1019 3113 1228 2906 
Q 1438 2700 1772 2700 
Q 2097 2700 2305 2904 
Q 2513 3109 2513 3406 
Q 2513 3716 2298 3927 
Q 2084 4138 1766 4138 
Q 1444 4138 1231 3931 
Q 1019 3725 1019 3438 
z
M 838 1322 
Q 838 1081 952 856 
Q 1066 631 1291 507 
Q 1516 384 1775 384 
Q 2178 384 2440 643 
Q 2703 903 2703 1303 
Q 2703 1709 2433 1975 
Q 2163 2241 1756 2241 
Q 1359 2241 1098 1978 
Q 838 1716 838 1322 
z
" transform="scale(0.015625)"/>
       </defs>
       <use xlink:href="#ArialMT-38"/>
       <use xlink:href="#ArialMT-30" x="55.615234"/>
       <use xlink:href="#ArialMT-30" x="111.230469"/>
       <use xlink:href="#ArialMT-30" x="166.845703"/>
       <use xlink:href="#ArialMT-30" x="222.460938"/>
       <use xlink:href="#ArialMT-30" x="278.076172"/>
      </g>
     </g>
    </g>
   </g>
   <g id="PolyCollection_1">
    <defs>
     <path id="mf1b0aaf05a" d="M 377.731186 -53.88375 
L 377.731186 -71.103831 
L 378.54817 -71.67309 
L 379.365154 -72.242349 
L 380.182138 -72.384664 
L 380.999122 -73.523181 
L 381.816105 -73.950126 
L 382.633089 -74.09244 
L 383.450073 -74.804014 
L 384.267057 -75.373273 
L 385.084041 -75.942532 
L 385.901025 -75.942532 
L 386.718009 -77.934938 
L 387.534993 -77.934938 
L 388.351977 -77.934938 
L 389.16896 -79.073456 
L 389.985944 -79.642714 
L 390.802928 -79.927344 
L 391.619912 -80.354288 
L 392.436896 -80.638918 
L 393.25388 -80.781232 
L 394.070864 -80.781232 
L 394.887848 -81.208176 
L 395.704832 -81.492806 
L 396.521816 -81.777435 
L 397.338799 -81.91975 
L 398.155783 -82.204379 
L 398.972767 -82.346694 
L 399.789751 -82.346694 
L 400.606735 -82.631324 
L 401.423719 -83.058268 
L 402.240703 -83.485212 
L 403.057687 -84.196786 
L 403.874671 -84.481415 
L 404.691654 -84.62373 
L 405.508638 -84.62373 
L 406.325622 -85.192989 
L 407.142606 -86.046877 
L 407.95959 -86.331506 
L 408.776574 -86.758451 
L 409.593558 -87.470024 
L 410.410542 -87.896968 
L 411.227526 -87.896968 
L 412.04451 -88.323912 
L 412.861493 -88.750857 
L 413.678477 -88.750857 
L 414.495461 -89.74706 
L 415.312445 -90.031689 
L 416.129429 -90.174004 
L 416.946413 -90.316319 
L 417.763397 -90.458633 
L 418.580381 -90.458633 
L 419.397365 -91.170207 
L 420.214348 -92.308725 
L 421.031332 -93.447242 
L 421.848316 -93.731872 
L 422.6653 -93.731872 
L 423.482284 -94.016501 
L 424.299268 -94.443445 
L 425.116252 -94.87039 
L 425.933236 -95.581963 
L 426.75022 -96.293537 
L 427.567204 -97.00511 
L 428.384187 -97.00511 
L 429.201171 -97.432055 
L 430.018155 -97.432055 
L 430.835139 -98.001313 
L 431.652123 -99.282146 
L 432.469107 -99.851405 
L 433.286091 -100.136034 
L 434.103075 -100.278349 
L 434.920059 -100.705293 
L 435.737042 -101.132237 
L 436.554026 -101.559181 
L 437.37101 -102.270755 
L 438.187994 -102.697699 
L 439.004978 -103.266958 
L 439.821962 -103.409273 
L 440.638946 -103.978532 
L 441.45593 -104.263161 
L 442.272914 -104.974735 
L 443.089898 -105.259364 
L 443.906881 -105.970938 
L 444.723865 -106.255567 
L 445.540849 -106.682511 
L 446.357833 -106.824826 
L 447.174817 -107.5364 
L 447.991801 -108.247973 
L 448.808785 -109.101862 
L 449.625769 -109.671121 
L 450.442753 -110.240379 
L 451.259736 -110.809638 
L 452.07672 -111.094268 
L 452.893704 -111.521212 
L 453.710688 -112.3751 
L 454.527672 -113.655933 
L 455.344656 -114.509821 
L 456.16164 -114.79445 
L 456.978624 -114.79445 
L 457.795608 -114.79445 
L 458.612592 -121.198613 
L 459.429575 -122.479445 
L 460.246559 -123.902593 
L 461.063543 -125.04111 
L 461.880527 -125.183425 
L 462.697511 -128.883608 
L 463.514495 -129.168237 
L 464.331479 -131.018329 
L 465.148463 -132.156846 
L 465.965447 -133.010735 
L 466.78243 -134.006938 
L 467.599414 -134.576197 
L 468.416398 -134.860826 
L 469.233382 -135.714714 
L 470.050366 -136.141659 
L 470.86735 -136.283973 
L 471.684334 -136.995547 
L 472.501318 -137.707121 
L 473.318302 -137.849435 
L 474.135286 -137.849435 
L 474.952269 -138.276379 
L 475.769253 -138.845638 
L 476.586237 -139.272582 
L 477.403221 -139.984156 
L 478.220205 -140.4111 
L 479.037189 -140.980359 
L 479.854173 -140.980359 
L 480.671157 -140.980359 
L 481.488141 -144.965171 
L 482.305124 -145.81906 
L 483.122108 -146.246004 
L 483.939092 -146.815263 
L 484.756076 -146.957577 
L 485.57306 -147.099892 
L 486.390044 -147.242207 
L 487.207028 -147.526836 
L 488.024012 -147.95378 
L 488.840996 -148.380725 
L 489.65798 -149.092298 
L 490.474963 -149.519242 
L 491.291947 -149.661557 
L 492.108931 -150.230816 
L 492.925915 -151.227019 
L 493.742899 -151.796278 
L 494.559883 -152.650166 
L 495.376867 -153.36174 
L 496.193851 -153.646369 
L 497.010835 -153.788684 
L 497.827818 -154.215628 
L 498.644802 -155.211831 
L 499.461786 -157.061923 
L 500.27877 -157.204237 
L 501.095754 -159.765902 
L 501.912738 -160.477476 
L 502.729722 -160.762105 
L 503.546706 -161.331364 
L 504.36369 -162.042938 
L 505.180673 -162.469882 
L 505.997657 -163.039141 
L 506.814641 -163.6084 
L 507.631625 -163.893029 
L 508.448609 -164.035344 
L 509.265593 -164.319973 
L 510.082577 -164.746917 
L 510.899561 -165.031547 
L 511.716545 -165.316176 
L 512.533529 -165.600806 
L 513.350512 -165.743121 
L 514.167496 -165.743121 
L 514.98448 -166.170065 
L 515.801464 -166.312379 
L 516.618448 -167.023953 
L 517.435432 -167.450897 
L 518.252416 -168.020156 
L 519.0694 -168.304786 
L 519.886384 -168.4471 
L 520.703367 -168.874044 
L 521.520351 -169.300989 
L 522.337335 -169.443303 
L 523.154319 -169.727933 
L 523.971303 -169.870247 
L 524.788287 -169.870247 
L 525.605271 -169.870247 
L 526.422255 -170.724136 
L 527.239239 -171.15108 
L 528.056223 -171.435709 
L 528.873206 -171.862654 
L 529.69019 -172.289598 
L 530.507174 -172.858857 
L 531.324158 -173.001171 
L 532.141142 -173.143486 
L 532.958126 -173.428115 
L 533.77511 -173.712745 
L 534.592094 -173.997374 
L 535.409078 -174.139689 
L 536.226061 -174.282004 
L 537.043045 -174.282004 
L 537.860029 -174.424319 
L 538.677013 -174.566633 
L 539.493997 -174.566633 
L 540.310981 -174.708948 
L 541.127965 -174.993577 
L 541.944949 -175.135892 
L 542.761933 -175.278207 
L 543.578917 -175.278207 
L 544.3959 -175.420522 
L 545.212884 -175.562836 
L 546.029868 -175.562836 
L 546.846852 -175.705151 
L 547.663836 -175.847466 
L 548.48082 -175.847466 
L 549.297804 -175.847466 
L 550.114788 -175.847466 
L 550.931772 -175.847466 
L 551.748755 -175.847466 
L 552.565739 -175.98978 
L 553.382723 -175.98978 
L 554.199707 -175.98978 
L 555.016691 -175.98978 
L 555.833675 -176.132095 
L 556.650659 -176.132095 
L 557.467643 -176.27441 
L 558.284627 -176.27441 
L 559.101611 -176.27441 
L 559.918594 -176.27441 
L 560.735578 -176.416725 
L 561.552562 -176.416725 
L 562.369546 -176.416725 
L 563.18653 -176.416725 
L 564.003514 -176.559039 
L 564.820498 -176.559039 
L 565.637482 -176.559039 
L 566.454466 -176.559039 
L 567.271449 -176.559039 
L 568.088433 -176.701354 
L 568.905417 -176.701354 
L 569.722401 -176.843669 
L 570.539385 -176.843669 
L 571.356369 -176.843669 
L 572.173353 -176.843669 
L 572.990337 -176.985983 
L 573.807321 -176.985983 
L 574.624305 -176.985983 
L 574.624305 -53.88375 
L 574.624305 -53.88375 
L 573.807321 -53.88375 
L 572.990337 -53.88375 
L 572.173353 -53.88375 
L 571.356369 -53.88375 
L 570.539385 -53.88375 
L 569.722401 -53.88375 
L 568.905417 -53.88375 
L 568.088433 -53.88375 
L 567.271449 -53.88375 
L 566.454466 -53.88375 
L 565.637482 -53.88375 
L 564.820498 -53.88375 
L 564.003514 -53.88375 
L 563.18653 -53.88375 
L 562.369546 -53.88375 
L 561.552562 -53.88375 
L 560.735578 -53.88375 
L 559.918594 -53.88375 
L 559.101611 -53.88375 
L 558.284627 -53.88375 
L 557.467643 -53.88375 
L 556.650659 -53.88375 
L 555.833675 -53.88375 
L 555.016691 -53.88375 
L 554.199707 -53.88375 
L 553.382723 -53.88375 
L 552.565739 -53.88375 
L 551.748755 -53.88375 
L 550.931772 -53.88375 
L 550.114788 -53.88375 
L 549.297804 -53.88375 
L 548.48082 -53.88375 
L 547.663836 -53.88375 
L 546.846852 -53.88375 
L 546.029868 -53.88375 
L 545.212884 -53.88375 
L 544.3959 -53.88375 
L 543.578917 -53.88375 
L 542.761933 -53.88375 
L 541.944949 -53.88375 
L 541.127965 -53.88375 
L 540.310981 -53.88375 
L 539.493997 -53.88375 
L 538.677013 -53.88375 
L 537.860029 -53.88375 
L 537.043045 -53.88375 
L 536.226061 -53.88375 
L 535.409078 -53.88375 
L 534.592094 -53.88375 
L 533.77511 -53.88375 
L 532.958126 -53.88375 
L 532.141142 -53.88375 
L 531.324158 -53.88375 
L 530.507174 -53.88375 
L 529.69019 -53.88375 
L 528.873206 -53.88375 
L 528.056223 -53.88375 
L 527.239239 -53.88375 
L 526.422255 -53.88375 
L 525.605271 -53.88375 
L 524.788287 -53.88375 
L 523.971303 -53.88375 
L 523.154319 -53.88375 
L 522.337335 -53.88375 
L 521.520351 -53.88375 
L 520.703367 -53.88375 
L 519.886384 -53.88375 
L 519.0694 -53.88375 
L 518.252416 -53.88375 
L 517.435432 -53.88375 
L 516.618448 -53.88375 
L 515.801464 -53.88375 
L 514.98448 -53.88375 
L 514.167496 -53.88375 
L 513.350512 -53.88375 
L 512.533529 -53.88375 
L 511.716545 -53.88375 
L 510.899561 -53.88375 
L 510.082577 -53.88375 
L 509.265593 -53.88375 
L 508.448609 -53.88375 
L 507.631625 -53.88375 
L 506.814641 -53.88375 
L 505.997657 -53.88375 
L 505.180673 -53.88375 
L 504.36369 -53.88375 
L 503.546706 -53.88375 
L 502.729722 -53.88375 
L 501.912738 -53.88375 
L 501.095754 -53.88375 
L 500.27877 -53.88375 
L 499.461786 -53.88375 
L 498.644802 -53.88375 
L 497.827818 -53.88375 
L 497.010835 -53.88375 
L 496.193851 -53.88375 
L 495.376867 -53.88375 
L 494.559883 -53.88375 
L 493.742899 -53.88375 
L 492.925915 -53.88375 
L 492.108931 -53.88375 
L 491.291947 -53.88375 
L 490.474963 -53.88375 
L 489.65798 -53.88375 
L 488.840996 -53.88375 
L 488.024012 -53.88375 
L 487.207028 -53.88375 
L 486.390044 -53.88375 
L 485.57306 -53.88375 
L 484.756076 -53.88375 
L 483.939092 -53.88375 
L 483.122108 -53.88375 
L 482.305124 -53.88375 
L 481.488141 -53.88375 
L 480.671157 -53.88375 
L 479.854173 -53.88375 
L 479.037189 -53.88375 
L 478.220205 -53.88375 
L 477.403221 -53.88375 
L 476.586237 -53.88375 
L 475.769253 -53.88375 
L 474.952269 -53.88375 
L 474.135286 -53.88375 
L 473.318302 -53.88375 
L 472.501318 -53.88375 
L 471.684334 -53.88375 
L 470.86735 -53.88375 
L 470.050366 -53.88375 
L 469.233382 -53.88375 
L 468.416398 -53.88375 
L 467.599414 -53.88375 
L 466.78243 -53.88375 
L 465.965447 -53.88375 
L 465.148463 -53.88375 
L 464.331479 -53.88375 
L 463.514495 -53.88375 
L 462.697511 -53.88375 
L 461.880527 -53.88375 
L 461.063543 -53.88375 
L 460.246559 -53.88375 
L 459.429575 -53.88375 
L 458.612592 -53.88375 
L 457.795608 -53.88375 
L 456.978624 -53.88375 
L 456.16164 -53.88375 
L 455.344656 -53.88375 
L 454.527672 -53.88375 
L 453.710688 -53.88375 
L 452.893704 -53.88375 
L 452.07672 -53.88375 
L 451.259736 -53.88375 
L 450.442753 -53.88375 
L 449.625769 -53.88375 
L 448.808785 -53.88375 
L 447.991801 -53.88375 
L 447.174817 -53.88375 
L 446.357833 -53.88375 
L 445.540849 -53.88375 
L 444.723865 -53.88375 
L 443.906881 -53.88375 
L 443.089898 -53.88375 
L 442.272914 -53.88375 
L 441.45593 -53.88375 
L 440.638946 -53.88375 
L 439.821962 -53.88375 
L 439.004978 -53.88375 
L 438.187994 -53.88375 
L 437.37101 -53.88375 
L 436.554026 -53.88375 
L 435.737042 -53.88375 
L 434.920059 -53.88375 
L 434.103075 -53.88375 
L 433.286091 -53.88375 
L 432.469107 -53.88375 
L 431.652123 -53.88375 
L 430.835139 -53.88375 
L 430.018155 -53.88375 
L 429.201171 -53.88375 
L 428.384187 -53.88375 
L 427.567204 -53.88375 
L 426.75022 -53.88375 
L 425.933236 -53.88375 
L 425.116252 -53.88375 
L 424.299268 -53.88375 
L 423.482284 -53.88375 
L 422.6653 -53.88375 
L 421.848316 -53.88375 
L 421.031332 -53.88375 
L 420.214348 -53.88375 
L 419.397365 -53.88375 
L 418.580381 -53.88375 
L 417.763397 -53.88375 
L 416.946413 -53.88375 
L 416.129429 -53.88375 
L 415.312445 -53.88375 
L 414.495461 -53.88375 
L 413.678477 -53.88375 
L 412.861493 -53.88375 
L 412.04451 -53.88375 
L 411.227526 -53.88375 
L 410.410542 -53.88375 
L 409.593558 -53.88375 
L 408.776574 -53.88375 
L 407.95959 -53.88375 
L 407.142606 -53.88375 
L 406.325622 -53.88375 
L 405.508638 -53.88375 
L 404.691654 -53.88375 
L 403.874671 -53.88375 
L 403.057687 -53.88375 
L 402.240703 -53.88375 
L 401.423719 -53.88375 
L 400.606735 -53.88375 
L 399.789751 -53.88375 
L 398.972767 -53.88375 
L 398.155783 -53.88375 
L 397.338799 -53.88375 
L 396.521816 -53.88375 
L 395.704832 -53.88375 
L 394.887848 -53.88375 
L 394.070864 -53.88375 
L 393.25388 -53.88375 
L 392.436896 -53.88375 
L 391.619912 -53.88375 
L 390.802928 -53.88375 
L 389.985944 -53.88375 
L 389.16896 -53.88375 
L 388.351977 -53.88375 
L 387.534993 -53.88375 
L 386.718009 -53.88375 
L 385.901025 -53.88375 
L 385.084041 -53.88375 
L 384.267057 -53.88375 
L 383.450073 -53.88375 
L 382.633089 -53.88375 
L 381.816105 -53.88375 
L 380.999122 -53.88375 
L 380.182138 -53.88375 
L 379.365154 -53.88375 
L 378.54817 -53.88375 
L 377.731186 -53.88375 
z
" style="stroke: #f08080; stroke-opacity: 0.8"/>
    </defs>
    <g clip-path="url(#pfaf38e8900)">
     <use xlink:href="#mf1b0aaf05a" x="0" y="340.273125" style="fill: #f08080; fill-opacity: 0.8; stroke: #f08080; stroke-opacity: 0.8"/>
    </g>
   </g>
   <g id="PolyCollection_2">
    <defs>
     <path id="m14f12fb8e5" d="M 377.731186 -53.88375 
L 377.731186 -61.201662 
L 378.54817 -61.423676 
L 379.365154 -61.401062 
L 380.182138 -61.468616 
L 380.999122 -61.128586 
L 381.816105 -61.380438 
L 382.633089 -61.479145 
L 383.450073 -61.406034 
L 384.267057 -61.529999 
L 385.084041 -61.571985 
L 385.901025 -62.455732 
L 386.718009 -61.990126 
L 387.534993 -62.000291 
L 388.351977 -62.000291 
L 389.16896 -62.446615 
L 389.985944 -62.69847 
L 390.802928 -63.044761 
L 391.619912 -63.477297 
L 392.436896 -63.50616 
L 393.25388 -63.538627 
L 394.070864 -63.589127 
L 394.887848 -63.758671 
L 395.704832 -64.041017 
L 396.521816 -64.561105 
L 397.338799 -65.014295 
L 398.155783 -65.45601 
L 398.972767 -66.088245 
L 399.789751 -66.111855 
L 400.606735 -66.642109 
L 401.423719 -67.156954 
L 402.240703 -67.94758 
L 403.057687 -69.02547 
L 403.874671 -70.309943 
L 404.691654 -70.690662 
L 405.508638 -70.775593 
L 406.325622 -71.162224 
L 407.142606 -71.709869 
L 407.95959 -71.873508 
L 408.776574 -72.751033 
L 409.593558 -73.262604 
L 410.410542 -73.554463 
L 411.227526 -73.628901 
L 412.04451 -73.946665 
L 412.861493 -74.340835 
L 413.678477 -74.340835 
L 414.495461 -75.495793 
L 415.312445 -76.091631 
L 416.129429 -76.050972 
L 416.946413 -76.153942 
L 417.763397 -76.44022 
L 418.580381 -76.657631 
L 419.397365 -76.970155 
L 420.214348 -77.202019 
L 421.031332 -77.716222 
L 421.848316 -77.779189 
L 422.6653 -77.779189 
L 423.482284 -78.02907 
L 424.299268 -78.254689 
L 425.116252 -78.36783 
L 425.933236 -78.434085 
L 426.75022 -78.357039 
L 427.567204 -78.438378 
L 428.384187 -78.438378 
L 429.201171 -78.479049 
L 430.018155 -78.536763 
L 430.835139 -78.755826 
L 431.652123 -79.094595 
L 432.469107 -79.412034 
L 433.286091 -79.587477 
L 434.103075 -79.970164 
L 434.920059 -80.581745 
L 435.737042 -81.129382 
L 436.554026 -81.466166 
L 437.37101 -82.038403 
L 438.187994 -82.357151 
L 439.004978 -82.641798 
L 439.821962 -82.597859 
L 440.638946 -82.937597 
L 441.45593 -83.082544 
L 442.272914 -83.291444 
L 443.089898 -83.376382 
L 443.906881 -83.576428 
L 444.723865 -83.683009 
L 445.540849 -83.644651 
L 446.357833 -83.743686 
L 447.174817 -83.770262 
L 447.991801 -83.811267 
L 448.808785 -83.86572 
L 449.625769 -84.033299 
L 450.442753 -83.931327 
L 451.259736 -83.831979 
L 452.07672 -83.864449 
L 452.893704 -83.919549 
L 453.710688 -83.930388 
L 454.527672 -84.054696 
L 455.344656 -84.010445 
L 456.16164 -84.03734 
L 456.978624 -84.03734 
L 457.795608 -84.03734 
L 458.612592 -84.198154 
L 459.429575 -84.203428 
L 460.246559 -84.227723 
L 461.063543 -84.177903 
L 461.880527 -84.312025 
L 462.697511 -84.469832 
L 463.514495 -84.325225 
L 464.331479 -84.405932 
L 465.148463 -84.563357 
L 465.965447 -84.663063 
L 466.78243 -84.803762 
L 467.599414 -85.08349 
L 468.416398 -85.070051 
L 469.233382 -85.225176 
L 470.050366 -85.480307 
L 470.86735 -85.703952 
L 471.684334 -86.384731 
L 472.501318 -87.172083 
L 473.318302 -87.234391 
L 474.135286 -87.370151 
L 474.952269 -87.637743 
L 475.769253 -88.297859 
L 476.586237 -88.909113 
L 477.403221 -89.685316 
L 478.220205 -89.961435 
L 479.037189 -90.089008 
L 479.854173 -90.089008 
L 480.671157 -90.089008 
L 481.488141 -91.027272 
L 482.305124 -91.845124 
L 483.122108 -93.108613 
L 483.939092 -93.61395 
L 484.756076 -94.062877 
L 485.57306 -94.016971 
L 486.390044 -94.718397 
L 487.207028 -95.84973 
L 488.024012 -96.746275 
L 488.840996 -97.703157 
L 489.65798 -98.812528 
L 490.474963 -99.059789 
L 491.291947 -99.143084 
L 492.108931 -99.431994 
L 492.925915 -100.052769 
L 493.742899 -100.519084 
L 494.559883 -101.40416 
L 495.376867 -102.572557 
L 496.193851 -103.106419 
L 497.010835 -103.182171 
L 497.827818 -103.755714 
L 498.644802 -104.010529 
L 499.461786 -104.925139 
L 500.27877 -105.049096 
L 501.095754 -106.610052 
L 501.912738 -107.456103 
L 502.729722 -108.11687 
L 503.546706 -108.78584 
L 504.36369 -109.98998 
L 505.180673 -110.6255 
L 505.997657 -111.86702 
L 506.814641 -112.634695 
L 507.631625 -113.215777 
L 508.448609 -113.397776 
L 509.265593 -113.917864 
L 510.082577 -114.717016 
L 510.899561 -115.873599 
L 511.716545 -117.403356 
L 512.533529 -118.912454 
L 513.350512 -119.500091 
L 514.167496 -119.622734 
L 514.98448 -119.935579 
L 515.801464 -120.755384 
L 516.618448 -121.965427 
L 517.435432 -122.53569 
L 518.252416 -123.945434 
L 519.0694 -124.903297 
L 519.886384 -125.030205 
L 520.703367 -125.872971 
L 521.520351 -127.103339 
L 522.337335 -128.347474 
L 523.154319 -129.484709 
L 523.971303 -130.820662 
L 524.788287 -131.191213 
L 525.605271 -131.191213 
L 526.422255 -134.15498 
L 527.239239 -135.667032 
L 528.056223 -136.569148 
L 528.873206 -137.995941 
L 529.69019 -139.352231 
L 530.507174 -140.461599 
L 531.324158 -140.58654 
L 532.141142 -141.358468 
L 532.958126 -142.195656 
L 533.77511 -142.92791 
L 534.592094 -144.109087 
L 535.409078 -145.309608 
L 536.226061 -145.941187 
L 537.043045 -146.097277 
L 537.860029 -146.779683 
L 538.677013 -147.671959 
L 539.493997 -148.855426 
L 540.310981 -149.886084 
L 541.127965 -150.533078 
L 541.944949 -151.344685 
L 542.761933 -151.411912 
L 543.578917 -151.829355 
L 544.3959 -152.313369 
L 545.212884 -153.421089 
L 546.029868 -154.664893 
L 546.846852 -155.749002 
L 547.663836 -156.651116 
L 548.48082 -156.821307 
L 549.297804 -156.892466 
L 550.114788 -156.967231 
L 550.931772 -157.624713 
L 551.748755 -158.674716 
L 552.565739 -159.35581 
L 553.382723 -159.801783 
L 554.199707 -159.97722 
L 555.016691 -160.717994 
L 555.833675 -161.635847 
L 556.650659 -162.623545 
L 557.467643 -163.739135 
L 558.284627 -164.850787 
L 559.101611 -165.830942 
L 559.918594 -165.953585 
L 560.735578 -166.738958 
L 561.552562 -168.188369 
L 562.369546 -168.866837 
L 563.18653 -169.851256 
L 564.003514 -170.967501 
L 564.820498 -172.866819 
L 565.637482 -173.563323 
L 566.454466 -173.661044 
L 567.271449 -173.789261 
L 568.088433 -174.308034 
L 568.905417 -175.206538 
L 569.722401 -176.288352 
L 570.539385 -178.694963 
L 571.356369 -179.102241 
L 572.173353 -179.838751 
L 572.990337 -180.745456 
L 573.807321 -181.784309 
L 574.624305 -182.781517 
L 574.624305 -53.88375 
L 574.624305 -53.88375 
L 573.807321 -53.88375 
L 572.990337 -53.88375 
L 572.173353 -53.88375 
L 571.356369 -53.88375 
L 570.539385 -53.88375 
L 569.722401 -53.88375 
L 568.905417 -53.88375 
L 568.088433 -53.88375 
L 567.271449 -53.88375 
L 566.454466 -53.88375 
L 565.637482 -53.88375 
L 564.820498 -53.88375 
L 564.003514 -53.88375 
L 563.18653 -53.88375 
L 562.369546 -53.88375 
L 561.552562 -53.88375 
L 560.735578 -53.88375 
L 559.918594 -53.88375 
L 559.101611 -53.88375 
L 558.284627 -53.88375 
L 557.467643 -53.88375 
L 556.650659 -53.88375 
L 555.833675 -53.88375 
L 555.016691 -53.88375 
L 554.199707 -53.88375 
L 553.382723 -53.88375 
L 552.565739 -53.88375 
L 551.748755 -53.88375 
L 550.931772 -53.88375 
L 550.114788 -53.88375 
L 549.297804 -53.88375 
L 548.48082 -53.88375 
L 547.663836 -53.88375 
L 546.846852 -53.88375 
L 546.029868 -53.88375 
L 545.212884 -53.88375 
L 544.3959 -53.88375 
L 543.578917 -53.88375 
L 542.761933 -53.88375 
L 541.944949 -53.88375 
L 541.127965 -53.88375 
L 540.310981 -53.88375 
L 539.493997 -53.88375 
L 538.677013 -53.88375 
L 537.860029 -53.88375 
L 537.043045 -53.88375 
L 536.226061 -53.88375 
L 535.409078 -53.88375 
L 534.592094 -53.88375 
L 533.77511 -53.88375 
L 532.958126 -53.88375 
L 532.141142 -53.88375 
L 531.324158 -53.88375 
L 530.507174 -53.88375 
L 529.69019 -53.88375 
L 528.873206 -53.88375 
L 528.056223 -53.88375 
L 527.239239 -53.88375 
L 526.422255 -53.88375 
L 525.605271 -53.88375 
L 524.788287 -53.88375 
L 523.971303 -53.88375 
L 523.154319 -53.88375 
L 522.337335 -53.88375 
L 521.520351 -53.88375 
L 520.703367 -53.88375 
L 519.886384 -53.88375 
L 519.0694 -53.88375 
L 518.252416 -53.88375 
L 517.435432 -53.88375 
L 516.618448 -53.88375 
L 515.801464 -53.88375 
L 514.98448 -53.88375 
L 514.167496 -53.88375 
L 513.350512 -53.88375 
L 512.533529 -53.88375 
L 511.716545 -53.88375 
L 510.899561 -53.88375 
L 510.082577 -53.88375 
L 509.265593 -53.88375 
L 508.448609 -53.88375 
L 507.631625 -53.88375 
L 506.814641 -53.88375 
L 505.997657 -53.88375 
L 505.180673 -53.88375 
L 504.36369 -53.88375 
L 503.546706 -53.88375 
L 502.729722 -53.88375 
L 501.912738 -53.88375 
L 501.095754 -53.88375 
L 500.27877 -53.88375 
L 499.461786 -53.88375 
L 498.644802 -53.88375 
L 497.827818 -53.88375 
L 497.010835 -53.88375 
L 496.193851 -53.88375 
L 495.376867 -53.88375 
L 494.559883 -53.88375 
L 493.742899 -53.88375 
L 492.925915 -53.88375 
L 492.108931 -53.88375 
L 491.291947 -53.88375 
L 490.474963 -53.88375 
L 489.65798 -53.88375 
L 488.840996 -53.88375 
L 488.024012 -53.88375 
L 487.207028 -53.88375 
L 486.390044 -53.88375 
L 485.57306 -53.88375 
L 484.756076 -53.88375 
L 483.939092 -53.88375 
L 483.122108 -53.88375 
L 482.305124 -53.88375 
L 481.488141 -53.88375 
L 480.671157 -53.88375 
L 479.854173 -53.88375 
L 479.037189 -53.88375 
L 478.220205 -53.88375 
L 477.403221 -53.88375 
L 476.586237 -53.88375 
L 475.769253 -53.88375 
L 474.952269 -53.88375 
L 474.135286 -53.88375 
L 473.318302 -53.88375 
L 472.501318 -53.88375 
L 471.684334 -53.88375 
L 470.86735 -53.88375 
L 470.050366 -53.88375 
L 469.233382 -53.88375 
L 468.416398 -53.88375 
L 467.599414 -53.88375 
L 466.78243 -53.88375 
L 465.965447 -53.88375 
L 465.148463 -53.88375 
L 464.331479 -53.88375 
L 463.514495 -53.88375 
L 462.697511 -53.88375 
L 461.880527 -53.88375 
L 461.063543 -53.88375 
L 460.246559 -53.88375 
L 459.429575 -53.88375 
L 458.612592 -53.88375 
L 457.795608 -53.88375 
L 456.978624 -53.88375 
L 456.16164 -53.88375 
L 455.344656 -53.88375 
L 454.527672 -53.88375 
L 453.710688 -53.88375 
L 452.893704 -53.88375 
L 452.07672 -53.88375 
L 451.259736 -53.88375 
L 450.442753 -53.88375 
L 449.625769 -53.88375 
L 448.808785 -53.88375 
L 447.991801 -53.88375 
L 447.174817 -53.88375 
L 446.357833 -53.88375 
L 445.540849 -53.88375 
L 444.723865 -53.88375 
L 443.906881 -53.88375 
L 443.089898 -53.88375 
L 442.272914 -53.88375 
L 441.45593 -53.88375 
L 440.638946 -53.88375 
L 439.821962 -53.88375 
L 439.004978 -53.88375 
L 438.187994 -53.88375 
L 437.37101 -53.88375 
L 436.554026 -53.88375 
L 435.737042 -53.88375 
L 434.920059 -53.88375 
L 434.103075 -53.88375 
L 433.286091 -53.88375 
L 432.469107 -53.88375 
L 431.652123 -53.88375 
L 430.835139 -53.88375 
L 430.018155 -53.88375 
L 429.201171 -53.88375 
L 428.384187 -53.88375 
L 427.567204 -53.88375 
L 426.75022 -53.88375 
L 425.933236 -53.88375 
L 425.116252 -53.88375 
L 424.299268 -53.88375 
L 423.482284 -53.88375 
L 422.6653 -53.88375 
L 421.848316 -53.88375 
L 421.031332 -53.88375 
L 420.214348 -53.88375 
L 419.397365 -53.88375 
L 418.580381 -53.88375 
L 417.763397 -53.88375 
L 416.946413 -53.88375 
L 416.129429 -53.88375 
L 415.312445 -53.88375 
L 414.495461 -53.88375 
L 413.678477 -53.88375 
L 412.861493 -53.88375 
L 412.04451 -53.88375 
L 411.227526 -53.88375 
L 410.410542 -53.88375 
L 409.593558 -53.88375 
L 408.776574 -53.88375 
L 407.95959 -53.88375 
L 407.142606 -53.88375 
L 406.325622 -53.88375 
L 405.508638 -53.88375 
L 404.691654 -53.88375 
L 403.874671 -53.88375 
L 403.057687 -53.88375 
L 402.240703 -53.88375 
L 401.423719 -53.88375 
L 400.606735 -53.88375 
L 399.789751 -53.88375 
L 398.972767 -53.88375 
L 398.155783 -53.88375 
L 397.338799 -53.88375 
L 396.521816 -53.88375 
L 395.704832 -53.88375 
L 394.887848 -53.88375 
L 394.070864 -53.88375 
L 393.25388 -53.88375 
L 392.436896 -53.88375 
L 391.619912 -53.88375 
L 390.802928 -53.88375 
L 389.985944 -53.88375 
L 389.16896 -53.88375 
L 388.351977 -53.88375 
L 387.534993 -53.88375 
L 386.718009 -53.88375 
L 385.901025 -53.88375 
L 385.084041 -53.88375 
L 384.267057 -53.88375 
L 383.450073 -53.88375 
L 382.633089 -53.88375 
L 381.816105 -53.88375 
L 380.999122 -53.88375 
L 380.182138 -53.88375 
L 379.365154 -53.88375 
L 378.54817 -53.88375 
L 377.731186 -53.88375 
z
" style="stroke: #90ee90; stroke-opacity: 0.8"/>
    </defs>
    <g clip-path="url(#pfaf38e8900)">
     <use xlink:href="#m14f12fb8e5" x="0" y="340.273125" style="fill: #90ee90; fill-opacity: 0.8; stroke: #90ee90; stroke-opacity: 0.8"/>
    </g>
   </g>
   <g id="line2d_37">
    <path d="M 355.672621 276.223827 
L 356.489605 274.977072 
L 358.123572 274.557989 
L 358.940556 274.192685 
L 361.391508 273.654567 
L 363.84246 273.554223 
L 364.659444 272.267461 
L 365.476428 271.57522 
L 366.293411 271.260744 
L 367.110395 269.458819 
L 367.927379 268.062204 
L 368.744363 267.511952 
L 369.561347 266.173379 
L 370.378331 265.606732 
L 371.195315 265.552625 
L 372.012299 265.184042 
L 373.646266 264.282587 
L 374.46325 264.282587 
L 375.280234 262.704304 
L 376.914202 262.596746 
L 378.54817 261.060109 
L 379.365154 260.513464 
L 380.182138 260.303595 
L 381.816105 258.826311 
L 382.633089 258.58529 
L 385.084041 256.642358 
L 385.901025 255.758611 
L 386.718009 254.231812 
L 388.351977 254.221646 
L 389.16896 252.636804 
L 389.985944 251.81569 
L 390.802928 251.184771 
L 391.619912 250.32529 
L 392.436896 250.011798 
L 393.25388 249.837016 
L 394.070864 249.786516 
L 395.704832 248.623052 
L 396.521816 247.818335 
L 398.155783 246.496485 
L 398.972767 245.721936 
L 399.789751 245.698326 
L 401.423719 243.941654 
L 402.240703 242.724083 
L 403.874671 239.365517 
L 404.691654 238.842484 
L 405.508638 238.757552 
L 406.325622 237.801663 
L 407.142606 236.400129 
L 407.95959 235.951861 
L 409.593558 233.424247 
L 410.410542 232.705444 
L 411.227526 232.631006 
L 412.861493 231.065184 
L 413.678477 231.065184 
L 414.495461 228.914022 
L 415.312445 228.033555 
L 416.129429 227.931899 
L 416.946413 227.686614 
L 417.763397 227.258022 
L 418.580381 227.04061 
L 419.397365 226.016513 
L 420.214348 224.646132 
L 421.031332 222.993411 
L 421.848316 222.645814 
L 422.6653 222.645814 
L 425.116252 220.918655 
L 427.567204 218.713387 
L 428.384187 218.713387 
L 429.201171 218.245772 
L 430.018155 218.188058 
L 430.835139 217.399736 
L 431.652123 215.780134 
L 432.469107 214.893436 
L 434.103075 213.908362 
L 435.737042 211.895255 
L 436.554026 211.131528 
L 437.37101 209.847717 
L 439.004978 208.248119 
L 439.821962 208.149743 
L 440.638946 207.240746 
L 441.45593 206.81117 
L 442.272914 205.890696 
L 443.089898 205.521129 
L 443.906881 204.609509 
L 445.540849 203.829713 
L 446.357833 203.588363 
L 447.991801 202.097635 
L 448.808785 201.189294 
L 449.625769 200.452456 
L 451.259736 199.515258 
L 452.07672 199.198158 
L 452.893704 198.716114 
L 453.710688 197.851387 
L 454.527672 196.446246 
L 455.344656 195.636609 
L 456.16164 195.325084 
L 457.795608 195.325084 
L 458.612592 188.760108 
L 461.063543 184.937862 
L 461.880527 184.661424 
L 462.697511 180.803435 
L 463.514495 180.663413 
L 464.331479 178.732614 
L 465.148463 177.436671 
L 465.965447 176.483077 
L 466.78243 175.346175 
L 467.599414 174.497188 
L 468.416398 174.225998 
L 469.233382 173.216985 
L 470.050366 172.534909 
L 470.86735 172.16895 
L 472.501318 169.277671 
L 474.135286 168.937289 
L 474.952269 168.242753 
L 477.403221 164.487403 
L 479.037189 163.087508 
L 480.671157 163.087508 
L 481.488141 158.164432 
L 483.122108 154.802259 
L 483.939092 153.727662 
L 484.756076 153.13642 
L 485.57306 153.040012 
L 486.390044 152.196271 
L 488.840996 148.072994 
L 489.65798 146.252049 
L 490.474963 145.577844 
L 491.291947 145.352234 
L 492.108931 144.494065 
L 492.925915 142.877087 
L 493.742899 141.841513 
L 495.376867 138.222578 
L 496.193851 137.404087 
L 497.010835 137.18602 
L 497.827818 136.185533 
L 498.644802 134.934515 
L 499.461786 132.169814 
L 500.27877 131.903542 
L 501.095754 127.78092 
L 501.912738 126.223296 
L 502.729722 125.2779 
L 503.546706 124.039671 
L 504.36369 122.123957 
L 505.180673 121.061493 
L 505.997657 119.250714 
L 506.814641 117.91378 
L 507.631625 117.048069 
L 508.448609 116.723755 
L 509.265593 115.919038 
L 510.082577 114.692941 
L 510.899561 113.251729 
L 512.533529 109.643615 
L 513.350512 108.913663 
L 514.167496 108.791021 
L 514.98448 108.051231 
L 515.801464 107.089111 
L 516.618448 105.167495 
L 517.435432 104.170287 
L 518.252416 102.191285 
L 519.0694 100.948792 
L 519.886384 100.679569 
L 520.703367 99.40986 
L 521.520351 97.752547 
L 523.971303 93.465965 
L 524.788287 93.095415 
L 525.605271 93.095415 
L 526.422255 89.27776 
L 527.239239 87.338763 
L 528.056223 86.152018 
L 530.507174 80.83642 
L 531.324158 80.569164 
L 532.141142 79.654921 
L 533.77511 77.516221 
L 535.409078 74.707578 
L 536.226061 73.933685 
L 537.043045 73.777594 
L 537.860029 72.952873 
L 539.493997 70.734816 
L 540.310981 69.561843 
L 541.944949 67.676298 
L 542.761933 67.466757 
L 543.578917 67.049313 
L 544.3959 66.422984 
L 546.846852 62.702722 
L 547.663836 61.658294 
L 549.297804 61.416944 
L 550.114788 61.342178 
L 550.931772 60.684696 
L 551.748755 59.634694 
L 552.565739 58.811284 
L 553.382723 58.365312 
L 554.199707 58.189874 
L 555.016691 57.449101 
L 559.101611 52.051523 
L 559.918594 51.92888 
L 560.735578 51.001192 
L 561.552562 49.551782 
L 562.369546 48.873313 
L 563.18653 47.888895 
L 564.003514 46.630334 
L 564.820498 44.731017 
L 565.637482 44.034513 
L 567.271449 43.808575 
L 568.088433 43.147486 
L 568.905417 42.248983 
L 569.722401 41.024854 
L 570.539385 38.618243 
L 571.356369 38.210965 
L 572.173353 37.474455 
L 574.624305 34.389375 
L 574.624305 34.389375 
" clip-path="url(#pfaf38e8900)" style="fill: none; stroke: #1f77b4; stroke-width: 1.5; stroke-linecap: round"/>
   </g>
   <g id="line2d_38">
    <path d="M 377.731186 269.169294 
L 379.365154 268.030776 
L 380.182138 267.888461 
L 380.999122 266.749944 
L 381.816105 266.322999 
L 382.633089 266.180685 
L 384.267057 264.899852 
L 385.084041 264.330593 
L 385.901025 264.330593 
L 386.718009 262.338187 
L 388.351977 262.338187 
L 389.16896 261.199669 
L 389.985944 260.630411 
L 390.802928 260.345781 
L 391.619912 259.918837 
L 392.436896 259.634207 
L 393.25388 259.491893 
L 394.070864 259.491893 
L 394.887848 259.064949 
L 396.521816 258.49569 
L 397.338799 258.353375 
L 398.155783 258.068746 
L 398.972767 257.926431 
L 399.789751 257.926431 
L 400.606735 257.641801 
L 402.240703 256.787913 
L 403.057687 256.076339 
L 403.874671 255.79171 
L 404.691654 255.649395 
L 405.508638 255.649395 
L 406.325622 255.080136 
L 407.142606 254.226248 
L 407.95959 253.941619 
L 408.776574 253.514674 
L 409.593558 252.803101 
L 410.410542 252.376157 
L 411.227526 252.376157 
L 412.861493 251.522268 
L 413.678477 251.522268 
L 414.495461 250.526065 
L 415.312445 250.241436 
L 417.763397 249.814492 
L 418.580381 249.814492 
L 419.397365 249.102918 
L 421.031332 246.825883 
L 421.848316 246.541253 
L 422.6653 246.541253 
L 423.482284 246.256624 
L 425.116252 245.402735 
L 427.567204 243.268015 
L 428.384187 243.268015 
L 429.201171 242.84107 
L 430.018155 242.84107 
L 430.835139 242.271812 
L 431.652123 240.990979 
L 432.469107 240.42172 
L 433.286091 240.137091 
L 434.103075 239.994776 
L 436.554026 238.713944 
L 437.37101 238.00237 
L 438.187994 237.575426 
L 439.004978 237.006167 
L 439.821962 236.863852 
L 440.638946 236.294593 
L 441.45593 236.009964 
L 442.272914 235.29839 
L 443.089898 235.013761 
L 443.906881 234.302187 
L 444.723865 234.017558 
L 445.540849 233.590614 
L 446.357833 233.448299 
L 450.442753 230.032746 
L 451.259736 229.463487 
L 452.07672 229.178857 
L 452.893704 228.751913 
L 453.710688 227.898025 
L 454.527672 226.617192 
L 455.344656 225.763304 
L 456.16164 225.478675 
L 457.795608 225.478675 
L 458.612592 219.074512 
L 461.063543 215.232015 
L 461.880527 215.0897 
L 462.697511 211.389517 
L 463.514495 211.104888 
L 464.331479 209.254796 
L 465.148463 208.116279 
L 467.599414 205.696928 
L 468.416398 205.412299 
L 469.233382 204.558411 
L 470.050366 204.131466 
L 470.86735 203.989152 
L 472.501318 202.566004 
L 473.318302 202.42369 
L 474.135286 202.42369 
L 474.952269 201.996746 
L 475.769253 201.427487 
L 476.586237 201.000543 
L 477.403221 200.288969 
L 478.220205 199.862025 
L 479.037189 199.292766 
L 480.671157 199.292766 
L 481.488141 195.307954 
L 482.305124 194.454065 
L 483.122108 194.027121 
L 483.939092 193.457862 
L 486.390044 193.030918 
L 487.207028 192.746289 
L 488.840996 191.8924 
L 489.65798 191.180827 
L 490.474963 190.753883 
L 491.291947 190.611568 
L 492.108931 190.042309 
L 492.925915 189.046106 
L 493.742899 188.476847 
L 495.376867 186.911385 
L 496.193851 186.626756 
L 497.010835 186.484441 
L 497.827818 186.057497 
L 498.644802 185.061294 
L 499.461786 183.211202 
L 500.27877 183.068888 
L 501.095754 180.507223 
L 501.912738 179.795649 
L 502.729722 179.51102 
L 503.546706 178.941761 
L 504.36369 178.230187 
L 505.180673 177.803243 
L 506.814641 176.664725 
L 507.631625 176.380096 
L 508.448609 176.237781 
L 509.265593 175.953152 
L 510.082577 175.526208 
L 512.533529 174.672319 
L 513.350512 174.530004 
L 514.167496 174.530004 
L 514.98448 174.10306 
L 515.801464 173.960746 
L 516.618448 173.249172 
L 517.435432 172.822228 
L 518.252416 172.252969 
L 519.0694 171.968339 
L 519.886384 171.826025 
L 521.520351 170.972136 
L 522.337335 170.829822 
L 523.154319 170.545192 
L 523.971303 170.402878 
L 525.605271 170.402878 
L 526.422255 169.548989 
L 527.239239 169.122045 
L 528.056223 168.837416 
L 529.69019 167.983527 
L 530.507174 167.414268 
L 532.141142 167.129639 
L 534.592094 166.275751 
L 536.226061 165.991121 
L 537.043045 165.991121 
L 538.677013 165.706492 
L 539.493997 165.706492 
L 540.310981 165.564177 
L 541.127965 165.279548 
L 542.761933 164.994918 
L 543.578917 164.994918 
L 545.212884 164.710289 
L 546.029868 164.710289 
L 547.663836 164.425659 
L 551.748755 164.425659 
L 552.565739 164.283345 
L 555.016691 164.283345 
L 555.833675 164.14103 
L 556.650659 164.14103 
L 557.467643 163.998715 
L 559.918594 163.998715 
L 560.735578 163.8564 
L 563.18653 163.8564 
L 564.003514 163.714086 
L 567.271449 163.714086 
L 568.088433 163.571771 
L 568.905417 163.571771 
L 569.722401 163.429456 
L 572.173353 163.429456 
L 572.990337 163.287142 
L 574.624305 163.287142 
L 574.624305 163.287142 
" clip-path="url(#pfaf38e8900)" style="fill: none; stroke: #f08080; stroke-width: 1.5; stroke-linecap: round"/>
   </g>
   <g id="line2d_39">
    <path d="M 377.731186 279.071463 
L 378.54817 278.849449 
L 380.182138 278.804509 
L 380.999122 279.144539 
L 381.816105 278.892687 
L 382.633089 278.79398 
L 383.450073 278.867091 
L 385.084041 278.70114 
L 385.901025 277.817393 
L 386.718009 278.282999 
L 388.351977 278.272834 
L 389.16896 277.82651 
L 390.802928 277.228364 
L 391.619912 276.795828 
L 394.070864 276.683998 
L 395.704832 276.232108 
L 397.338799 275.25883 
L 398.155783 274.817115 
L 398.972767 274.18488 
L 399.789751 274.16127 
L 401.423719 273.116171 
L 402.240703 272.325545 
L 403.057687 271.247655 
L 403.874671 269.963182 
L 404.691654 269.582463 
L 405.508638 269.497532 
L 406.325622 269.110901 
L 407.142606 268.563256 
L 407.95959 268.399617 
L 408.776574 267.522092 
L 409.593558 267.010521 
L 410.410542 266.718662 
L 411.227526 266.644224 
L 412.861493 265.93229 
L 413.678477 265.93229 
L 414.495461 264.777332 
L 415.312445 264.181494 
L 416.129429 264.222153 
L 416.946413 264.119183 
L 420.214348 263.071106 
L 421.031332 262.556903 
L 422.6653 262.493936 
L 424.299268 262.018436 
L 425.933236 261.83904 
L 426.75022 261.916086 
L 428.384187 261.834747 
L 430.018155 261.736362 
L 430.835139 261.517299 
L 432.469107 260.861091 
L 433.286091 260.685648 
L 434.103075 260.302961 
L 435.737042 259.143743 
L 436.554026 258.806959 
L 437.37101 258.234722 
L 439.004978 257.631327 
L 439.821962 257.675266 
L 440.638946 257.335528 
L 444.723865 256.590116 
L 445.540849 256.628474 
L 447.174817 256.502863 
L 448.808785 256.407405 
L 449.625769 256.239826 
L 451.259736 256.441146 
L 461.880527 255.9611 
L 462.697511 255.803293 
L 463.514495 255.9479 
L 465.965447 255.610062 
L 466.78243 255.469363 
L 467.599414 255.189635 
L 468.416398 255.203074 
L 470.050366 254.792818 
L 470.86735 254.569173 
L 472.501318 253.101042 
L 474.135286 252.902974 
L 474.952269 252.635382 
L 477.403221 250.587809 
L 478.220205 250.31169 
L 479.037189 250.184117 
L 480.671157 250.184117 
L 482.305124 248.428001 
L 483.122108 247.164512 
L 484.756076 246.210248 
L 485.57306 246.256154 
L 486.390044 245.554728 
L 487.207028 244.423395 
L 488.840996 242.569968 
L 489.65798 241.460597 
L 490.474963 241.213336 
L 491.291947 241.130041 
L 492.108931 240.841131 
L 492.925915 240.220356 
L 493.742899 239.754041 
L 494.559883 238.868965 
L 495.376867 237.700568 
L 496.193851 237.166706 
L 497.010835 237.090954 
L 497.827818 236.517411 
L 498.644802 236.262596 
L 499.461786 235.347986 
L 500.27877 235.224029 
L 501.095754 233.663073 
L 501.912738 232.817022 
L 503.546706 231.487285 
L 504.36369 230.283145 
L 505.180673 229.647625 
L 505.997657 228.406105 
L 506.814641 227.63843 
L 507.631625 227.057348 
L 508.448609 226.875349 
L 509.265593 226.355261 
L 510.082577 225.556109 
L 510.899561 224.399526 
L 512.533529 221.360671 
L 513.350512 220.773034 
L 514.167496 220.650391 
L 514.98448 220.337546 
L 515.801464 219.517741 
L 516.618448 218.307698 
L 517.435432 217.737435 
L 518.252416 216.327691 
L 519.0694 215.369828 
L 519.886384 215.24292 
L 520.703367 214.400154 
L 523.971303 209.452463 
L 524.788287 209.081912 
L 525.605271 209.081912 
L 526.422255 206.118145 
L 527.239239 204.606093 
L 528.056223 203.703977 
L 529.69019 200.920894 
L 530.507174 199.811526 
L 531.324158 199.686585 
L 533.77511 197.345215 
L 535.409078 194.963517 
L 536.226061 194.331938 
L 537.043045 194.175848 
L 537.860029 193.493442 
L 538.677013 192.601166 
L 540.310981 190.387041 
L 541.127965 189.740047 
L 541.944949 188.92844 
L 542.761933 188.861213 
L 544.3959 187.959756 
L 547.663836 183.622009 
L 549.297804 183.380659 
L 550.114788 183.305894 
L 550.931772 182.648412 
L 551.748755 181.598409 
L 552.565739 180.917315 
L 553.382723 180.471342 
L 554.199707 180.295905 
L 555.016691 179.555131 
L 556.650659 177.64958 
L 559.101611 174.442183 
L 559.918594 174.31954 
L 560.735578 173.534167 
L 561.552562 172.084756 
L 562.369546 171.406288 
L 564.003514 169.305624 
L 564.820498 167.406306 
L 565.637482 166.709802 
L 567.271449 166.483864 
L 568.088433 165.965091 
L 568.905417 165.066587 
L 569.722401 163.984773 
L 570.539385 161.578162 
L 571.356369 161.170884 
L 572.173353 160.434374 
L 573.807321 158.488816 
L 574.624305 157.491608 
L 574.624305 157.491608 
" clip-path="url(#pfaf38e8900)" style="fill: none; stroke: #90ee90; stroke-width: 1.5; stroke-linecap: round"/>
   </g>
   <g id="line2d_40">
    <path d="M 82.8 144.074654 
L 640.8 144.074654 
" clip-path="url(#pfaf38e8900)" style="fill: none; stroke: #000000; stroke-width: 1.5; stroke-linecap: round"/>
   </g>
   <g id="patch_5">
    <path d="M 82.8 298.989375 
L 82.8 21.789375 
" style="fill: none; stroke: #cccccc; stroke-width: 0.8; stroke-linejoin: miter; stroke-linecap: square"/>
   </g>
   <g id="patch_6">
    <path d="M 640.8 298.989375 
L 640.8 21.789375 
" style="fill: none; stroke: #cccccc; stroke-width: 0.8; stroke-linejoin: miter; stroke-linecap: square"/>
   </g>
   <g id="patch_7">
    <path d="M 82.8 298.989375 
L 640.8 298.989375 
" style="fill: none; stroke: #cccccc; stroke-width: 0.8; stroke-linejoin: miter; stroke-linecap: square"/>
   </g>
   <g id="patch_8">
    <path d="M 82.8 21.789375 
L 640.8 21.789375 
" style="fill: none; stroke: #cccccc; stroke-width: 0.8; stroke-linejoin: miter; stroke-linecap: square"/>
   </g>
   <g id="text_29">
    <!-- Doses de vacinas aplicadas -->
    <g style="fill: #262626" transform="translate(287.428125 15.789375)scale(0.12 -0.12)">
     <defs>
      <path id="ArialMT-44" d="M 494 0 
L 494 4581 
L 2072 4581 
Q 2606 4581 2888 4516 
Q 3281 4425 3559 4188 
Q 3922 3881 4101 3404 
Q 4281 2928 4281 2316 
Q 4281 1794 4159 1391 
Q 4038 988 3847 723 
Q 3656 459 3429 307 
Q 3203 156 2883 78 
Q 2563 0 2147 0 
L 494 0 
z
M 1100 541 
L 2078 541 
Q 2531 541 2789 625 
Q 3047 709 3200 863 
Q 3416 1078 3536 1442 
Q 3656 1806 3656 2325 
Q 3656 3044 3420 3430 
Q 3184 3816 2847 3947 
Q 2603 4041 2063 4041 
L 1100 4041 
L 1100 541 
z
" transform="scale(0.015625)"/>
      <path id="ArialMT-6f" d="M 213 1659 
Q 213 2581 725 3025 
Q 1153 3394 1769 3394 
Q 2453 3394 2887 2945 
Q 3322 2497 3322 1706 
Q 3322 1066 3130 698 
Q 2938 331 2570 128 
Q 2203 -75 1769 -75 
Q 1072 -75 642 372 
Q 213 819 213 1659 
z
M 791 1659 
Q 791 1022 1069 705 
Q 1347 388 1769 388 
Q 2188 388 2466 706 
Q 2744 1025 2744 1678 
Q 2744 2294 2464 2611 
Q 2184 2928 1769 2928 
Q 1347 2928 1069 2612 
Q 791 2297 791 1659 
z
" transform="scale(0.015625)"/>
      <path id="ArialMT-73" d="M 197 991 
L 753 1078 
Q 800 744 1014 566 
Q 1228 388 1613 388 
Q 2000 388 2187 545 
Q 2375 703 2375 916 
Q 2375 1106 2209 1216 
Q 2094 1291 1634 1406 
Q 1016 1563 777 1677 
Q 538 1791 414 1992 
Q 291 2194 291 2438 
Q 291 2659 392 2848 
Q 494 3038 669 3163 
Q 800 3259 1026 3326 
Q 1253 3394 1513 3394 
Q 1903 3394 2198 3281 
Q 2494 3169 2634 2976 
Q 2775 2784 2828 2463 
L 2278 2388 
Q 2241 2644 2061 2787 
Q 1881 2931 1553 2931 
Q 1166 2931 1000 2803 
Q 834 2675 834 2503 
Q 834 2394 903 2306 
Q 972 2216 1119 2156 
Q 1203 2125 1616 2013 
Q 2213 1853 2448 1751 
Q 2684 1650 2818 1456 
Q 2953 1263 2953 975 
Q 2953 694 2789 445 
Q 2625 197 2315 61 
Q 2006 -75 1616 -75 
Q 969 -75 630 194 
Q 291 463 197 991 
z
" transform="scale(0.015625)"/>
      <path id="ArialMT-65" d="M 2694 1069 
L 3275 997 
Q 3138 488 2766 206 
Q 2394 -75 1816 -75 
Q 1088 -75 661 373 
Q 234 822 234 1631 
Q 234 2469 665 2931 
Q 1097 3394 1784 3394 
Q 2450 3394 2872 2941 
Q 3294 2488 3294 1666 
Q 3294 1616 3291 1516 
L 816 1516 
Q 847 969 1125 678 
Q 1403 388 1819 388 
Q 2128 388 2347 550 
Q 2566 713 2694 1069 
z
M 847 1978 
L 2700 1978 
Q 2663 2397 2488 2606 
Q 2219 2931 1791 2931 
Q 1403 2931 1139 2672 
Q 875 2413 847 1978 
z
" transform="scale(0.015625)"/>
      <path id="ArialMT-20" transform="scale(0.015625)"/>
      <path id="ArialMT-64" d="M 2575 0 
L 2575 419 
Q 2259 -75 1647 -75 
Q 1250 -75 917 144 
Q 584 363 401 755 
Q 219 1147 219 1656 
Q 219 2153 384 2558 
Q 550 2963 881 3178 
Q 1213 3394 1622 3394 
Q 1922 3394 2156 3267 
Q 2391 3141 2538 2938 
L 2538 4581 
L 3097 4581 
L 3097 0 
L 2575 0 
z
M 797 1656 
Q 797 1019 1065 703 
Q 1334 388 1700 388 
Q 2069 388 2326 689 
Q 2584 991 2584 1609 
Q 2584 2291 2321 2609 
Q 2059 2928 1675 2928 
Q 1300 2928 1048 2622 
Q 797 2316 797 1656 
z
" transform="scale(0.015625)"/>
      <path id="ArialMT-76" d="M 1344 0 
L 81 3319 
L 675 3319 
L 1388 1331 
Q 1503 1009 1600 663 
Q 1675 925 1809 1294 
L 2547 3319 
L 3125 3319 
L 1869 0 
L 1344 0 
z
" transform="scale(0.015625)"/>
      <path id="ArialMT-61" d="M 2588 409 
Q 2275 144 1986 34 
Q 1697 -75 1366 -75 
Q 819 -75 525 192 
Q 231 459 231 875 
Q 231 1119 342 1320 
Q 453 1522 633 1644 
Q 813 1766 1038 1828 
Q 1203 1872 1538 1913 
Q 2219 1994 2541 2106 
Q 2544 2222 2544 2253 
Q 2544 2597 2384 2738 
Q 2169 2928 1744 2928 
Q 1347 2928 1158 2789 
Q 969 2650 878 2297 
L 328 2372 
Q 403 2725 575 2942 
Q 747 3159 1072 3276 
Q 1397 3394 1825 3394 
Q 2250 3394 2515 3294 
Q 2781 3194 2906 3042 
Q 3031 2891 3081 2659 
Q 3109 2516 3109 2141 
L 3109 1391 
Q 3109 606 3145 398 
Q 3181 191 3288 0 
L 2700 0 
Q 2613 175 2588 409 
z
M 2541 1666 
Q 2234 1541 1622 1453 
Q 1275 1403 1131 1340 
Q 988 1278 909 1158 
Q 831 1038 831 891 
Q 831 666 1001 516 
Q 1172 366 1500 366 
Q 1825 366 2078 508 
Q 2331 650 2450 897 
Q 2541 1088 2541 1459 
L 2541 1666 
z
" transform="scale(0.015625)"/>
      <path id="ArialMT-63" d="M 2588 1216 
L 3141 1144 
Q 3050 572 2676 248 
Q 2303 -75 1759 -75 
Q 1078 -75 664 370 
Q 250 816 250 1647 
Q 250 2184 428 2587 
Q 606 2991 970 3192 
Q 1334 3394 1763 3394 
Q 2303 3394 2647 3120 
Q 2991 2847 3088 2344 
L 2541 2259 
Q 2463 2594 2264 2762 
Q 2066 2931 1784 2931 
Q 1359 2931 1093 2626 
Q 828 2322 828 1663 
Q 828 994 1084 691 
Q 1341 388 1753 388 
Q 2084 388 2306 591 
Q 2528 794 2588 1216 
z
" transform="scale(0.015625)"/>
      <path id="ArialMT-69" d="M 425 3934 
L 425 4581 
L 988 4581 
L 988 3934 
L 425 3934 
z
M 425 0 
L 425 3319 
L 988 3319 
L 988 0 
L 425 0 
z
" transform="scale(0.015625)"/>
      <path id="ArialMT-6e" d="M 422 0 
L 422 3319 
L 928 3319 
L 928 2847 
Q 1294 3394 1984 3394 
Q 2284 3394 2536 3286 
Q 2788 3178 2913 3003 
Q 3038 2828 3088 2588 
Q 3119 2431 3119 2041 
L 3119 0 
L 2556 0 
L 2556 2019 
Q 2556 2363 2490 2533 
Q 2425 2703 2258 2804 
Q 2091 2906 1866 2906 
Q 1506 2906 1245 2678 
Q 984 2450 984 1813 
L 984 0 
L 422 0 
z
" transform="scale(0.015625)"/>
      <path id="ArialMT-70" d="M 422 -1272 
L 422 3319 
L 934 3319 
L 934 2888 
Q 1116 3141 1344 3267 
Q 1572 3394 1897 3394 
Q 2322 3394 2647 3175 
Q 2972 2956 3137 2557 
Q 3303 2159 3303 1684 
Q 3303 1175 3120 767 
Q 2938 359 2589 142 
Q 2241 -75 1856 -75 
Q 1575 -75 1351 44 
Q 1128 163 984 344 
L 984 -1272 
L 422 -1272 
z
M 931 1641 
Q 931 1000 1190 694 
Q 1450 388 1819 388 
Q 2194 388 2461 705 
Q 2728 1022 2728 1688 
Q 2728 2322 2467 2637 
Q 2206 2953 1844 2953 
Q 1484 2953 1207 2617 
Q 931 2281 931 1641 
z
" transform="scale(0.015625)"/>
      <path id="ArialMT-6c" d="M 409 0 
L 409 4581 
L 972 4581 
L 972 0 
L 409 0 
z
" transform="scale(0.015625)"/>
     </defs>
     <use xlink:href="#ArialMT-44"/>
     <use xlink:href="#ArialMT-6f" x="72.216797"/>
     <use xlink:href="#ArialMT-73" x="127.832031"/>
     <use xlink:href="#ArialMT-65" x="177.832031"/>
     <use xlink:href="#ArialMT-73" x="233.447266"/>
     <use xlink:href="#ArialMT-20" x="283.447266"/>
     <use xlink:href="#ArialMT-64" x="311.230469"/>
     <use xlink:href="#ArialMT-65" x="366.845703"/>
     <use xlink:href="#ArialMT-20" x="422.460938"/>
     <use xlink:href="#ArialMT-76" x="450.244141"/>
     <use xlink:href="#ArialMT-61" x="500.244141"/>
     <use xlink:href="#ArialMT-63" x="555.859375"/>
     <use xlink:href="#ArialMT-69" x="605.859375"/>
     <use xlink:href="#ArialMT-6e" x="628.076172"/>
     <use xlink:href="#ArialMT-61" x="683.691406"/>
     <use xlink:href="#ArialMT-73" x="739.306641"/>
     <use xlink:href="#ArialMT-20" x="789.306641"/>
     <use xlink:href="#ArialMT-61" x="817.089844"/>
     <use xlink:href="#ArialMT-70" x="872.705078"/>
     <use xlink:href="#ArialMT-6c" x="928.320312"/>
     <use xlink:href="#ArialMT-69" x="950.537109"/>
     <use xlink:href="#ArialMT-63" x="972.753906"/>
     <use xlink:href="#ArialMT-61" x="1022.753906"/>
     <use xlink:href="#ArialMT-64" x="1078.369141"/>
     <use xlink:href="#ArialMT-61" x="1133.984375"/>
     <use xlink:href="#ArialMT-73" x="1189.599609"/>
    </g>
   </g>
   <g id="legend_1">
    <g id="patch_9">
     <path d="M 89.8 72.703438 
L 245.753125 72.703438 
Q 247.753125 72.703438 247.753125 70.703438 
L 247.753125 28.789375 
Q 247.753125 26.789375 245.753125 26.789375 
L 89.8 26.789375 
Q 87.8 26.789375 87.8 28.789375 
L 87.8 70.703438 
Q 87.8 72.703438 89.8 72.703438 
z
" style="fill: #ffffff; opacity: 0.8; stroke: #cccccc; stroke-linejoin: miter"/>
    </g>
    <g id="line2d_41">
     <path d="M 91.8 34.447188 
L 101.8 34.447188 
L 111.8 34.447188 
" style="fill: none; stroke: #1f77b4; stroke-width: 1.5; stroke-linecap: round"/>
    </g>
    <g id="text_30">
     <!-- Doses de vacinas aplicadas -->
     <g style="fill: #262626" transform="translate(119.8 37.947188)scale(0.1 -0.1)">
      <use xlink:href="#ArialMT-44"/>
      <use xlink:href="#ArialMT-6f" x="72.216797"/>
      <use xlink:href="#ArialMT-73" x="127.832031"/>
      <use xlink:href="#ArialMT-65" x="177.832031"/>
      <use xlink:href="#ArialMT-73" x="233.447266"/>
      <use xlink:href="#ArialMT-20" x="283.447266"/>
      <use xlink:href="#ArialMT-64" x="311.230469"/>
      <use xlink:href="#ArialMT-65" x="366.845703"/>
      <use xlink:href="#ArialMT-20" x="422.460938"/>
      <use xlink:href="#ArialMT-76" x="450.244141"/>
      <use xlink:href="#ArialMT-61" x="500.244141"/>
      <use xlink:href="#ArialMT-63" x="555.859375"/>
      <use xlink:href="#ArialMT-69" x="605.859375"/>
      <use xlink:href="#ArialMT-6e" x="628.076172"/>
      <use xlink:href="#ArialMT-61" x="683.691406"/>
      <use xlink:href="#ArialMT-73" x="739.306641"/>
      <use xlink:href="#ArialMT-20" x="789.306641"/>
      <use xlink:href="#ArialMT-61" x="817.089844"/>
      <use xlink:href="#ArialMT-70" x="872.705078"/>
      <use xlink:href="#ArialMT-6c" x="928.320312"/>
      <use xlink:href="#ArialMT-69" x="950.537109"/>
      <use xlink:href="#ArialMT-63" x="972.753906"/>
      <use xlink:href="#ArialMT-61" x="1022.753906"/>
      <use xlink:href="#ArialMT-64" x="1078.369141"/>
      <use xlink:href="#ArialMT-61" x="1133.984375"/>
      <use xlink:href="#ArialMT-73" x="1189.599609"/>
     </g>
    </g>
    <g id="line2d_42">
     <path d="M 91.8 48.714375 
L 101.8 48.714375 
L 111.8 48.714375 
" style="fill: none; stroke: #f08080; stroke-width: 1.5; stroke-linecap: round"/>
    </g>
    <g id="text_31">
     <!-- 1 dose (estimativa) -->
     <g style="fill: #262626" transform="translate(119.8 52.214375)scale(0.1 -0.1)">
      <defs>
       <path id="ArialMT-aa" d="M 1713 2666 
Q 1331 2331 913 2331 
Q 559 2331 353 2523 
Q 147 2716 147 3016 
Q 147 3166 197 3278 
Q 247 3391 345 3478 
Q 444 3566 600 3619 
Q 709 3653 909 3684 
L 1369 3753 
Q 1594 3797 1669 3816 
Q 1666 4034 1625 4109 
Q 1584 4184 1473 4239 
Q 1363 4294 1178 4294 
Q 931 4294 809 4192 
Q 688 4091 659 3903 
L 231 4009 
Q 269 4288 506 4473 
Q 744 4659 1184 4659 
Q 1697 4659 1909 4469 
Q 2119 4275 2119 3903 
L 2119 3153 
L 2116 2963 
Q 2116 2544 2244 2388 
L 1781 2388 
Q 1719 2513 1713 2666 
z
M 1666 3450 
Q 1500 3406 1066 3338 
Q 784 3294 700 3216 
Q 613 3134 613 3016 
Q 613 2888 719 2797 
Q 825 2706 1019 2706 
Q 1247 2706 1415 2828 
Q 1584 2950 1641 3128 
Q 1663 3191 1666 3450 
z
" transform="scale(0.015625)"/>
       <path id="ArialMT-28" d="M 1497 -1347 
Q 1031 -759 709 28 
Q 388 816 388 1659 
Q 388 2403 628 3084 
Q 909 3875 1497 4659 
L 1900 4659 
Q 1522 4009 1400 3731 
Q 1209 3300 1100 2831 
Q 966 2247 966 1656 
Q 966 153 1900 -1347 
L 1497 -1347 
z
" transform="scale(0.015625)"/>
       <path id="ArialMT-74" d="M 1650 503 
L 1731 6 
Q 1494 -44 1306 -44 
Q 1000 -44 831 53 
Q 663 150 594 308 
Q 525 466 525 972 
L 525 2881 
L 113 2881 
L 113 3319 
L 525 3319 
L 525 4141 
L 1084 4478 
L 1084 3319 
L 1650 3319 
L 1650 2881 
L 1084 2881 
L 1084 941 
Q 1084 700 1114 631 
Q 1144 563 1211 522 
Q 1278 481 1403 481 
Q 1497 481 1650 503 
z
" transform="scale(0.015625)"/>
       <path id="ArialMT-6d" d="M 422 0 
L 422 3319 
L 925 3319 
L 925 2853 
Q 1081 3097 1340 3245 
Q 1600 3394 1931 3394 
Q 2300 3394 2536 3241 
Q 2772 3088 2869 2813 
Q 3263 3394 3894 3394 
Q 4388 3394 4653 3120 
Q 4919 2847 4919 2278 
L 4919 0 
L 4359 0 
L 4359 2091 
Q 4359 2428 4304 2576 
Q 4250 2725 4106 2815 
Q 3963 2906 3769 2906 
Q 3419 2906 3187 2673 
Q 2956 2441 2956 1928 
L 2956 0 
L 2394 0 
L 2394 2156 
Q 2394 2531 2256 2718 
Q 2119 2906 1806 2906 
Q 1569 2906 1367 2781 
Q 1166 2656 1075 2415 
Q 984 2175 984 1722 
L 984 0 
L 422 0 
z
" transform="scale(0.015625)"/>
       <path id="ArialMT-29" d="M 791 -1347 
L 388 -1347 
Q 1322 153 1322 1656 
Q 1322 2244 1188 2822 
Q 1081 3291 891 3722 
Q 769 4003 388 4659 
L 791 4659 
Q 1378 3875 1659 3084 
Q 1900 2403 1900 1659 
Q 1900 816 1576 28 
Q 1253 -759 791 -1347 
z
" transform="scale(0.015625)"/>
      </defs>
      <use xlink:href="#ArialMT-31"/>
      <use xlink:href="#ArialMT-aa" x="55.615234"/>
      <use xlink:href="#ArialMT-20" x="92.626953"/>
      <use xlink:href="#ArialMT-64" x="120.410156"/>
      <use xlink:href="#ArialMT-6f" x="176.025391"/>
      <use xlink:href="#ArialMT-73" x="231.640625"/>
      <use xlink:href="#ArialMT-65" x="281.640625"/>
      <use xlink:href="#ArialMT-20" x="337.255859"/>
      <use xlink:href="#ArialMT-28" x="365.039062"/>
      <use xlink:href="#ArialMT-65" x="398.339844"/>
      <use xlink:href="#ArialMT-73" x="453.955078"/>
      <use xlink:href="#ArialMT-74" x="503.955078"/>
      <use xlink:href="#ArialMT-69" x="531.738281"/>
      <use xlink:href="#ArialMT-6d" x="553.955078"/>
      <use xlink:href="#ArialMT-61" x="637.255859"/>
      <use xlink:href="#ArialMT-74" x="692.871094"/>
      <use xlink:href="#ArialMT-69" x="720.654297"/>
      <use xlink:href="#ArialMT-76" x="742.871094"/>
      <use xlink:href="#ArialMT-61" x="792.871094"/>
      <use xlink:href="#ArialMT-29" x="848.486328"/>
     </g>
    </g>
    <g id="line2d_43">
     <path d="M 91.8 63.09875 
L 101.8 63.09875 
L 111.8 63.09875 
" style="fill: none; stroke: #90ee90; stroke-width: 1.5; stroke-linecap: round"/>
    </g>
    <g id="text_32">
     <!-- 2 dose (estimativa) -->
     <g style="fill: #262626" transform="translate(119.8 66.59875)scale(0.1 -0.1)">
      <use xlink:href="#ArialMT-32"/>
      <use xlink:href="#ArialMT-aa" x="55.615234"/>
      <use xlink:href="#ArialMT-20" x="92.626953"/>
      <use xlink:href="#ArialMT-64" x="120.410156"/>
      <use xlink:href="#ArialMT-6f" x="176.025391"/>
      <use xlink:href="#ArialMT-73" x="231.640625"/>
      <use xlink:href="#ArialMT-65" x="281.640625"/>
      <use xlink:href="#ArialMT-20" x="337.255859"/>
      <use xlink:href="#ArialMT-28" x="365.039062"/>
      <use xlink:href="#ArialMT-65" x="398.339844"/>
      <use xlink:href="#ArialMT-73" x="453.955078"/>
      <use xlink:href="#ArialMT-74" x="503.955078"/>
      <use xlink:href="#ArialMT-69" x="531.738281"/>
      <use xlink:href="#ArialMT-6d" x="553.955078"/>
      <use xlink:href="#ArialMT-61" x="637.255859"/>
      <use xlink:href="#ArialMT-74" x="692.871094"/>
      <use xlink:href="#ArialMT-69" x="720.654297"/>
      <use xlink:href="#ArialMT-76" x="742.871094"/>
      <use xlink:href="#ArialMT-61" x="792.871094"/>
      <use xlink:href="#ArialMT-29" x="848.486328"/>
     </g>
    </g>
   </g>
  </g>
  <g id="text_33">
   <!-- Atualizado em 31/01/2022 -->
   <g style="fill: #262626" transform="translate(7.2 331.389375)scale(0.08 -0.08)">
    <defs>
     <path id="ArialMT-41" d="M -9 0 
L 1750 4581 
L 2403 4581 
L 4278 0 
L 3588 0 
L 3053 1388 
L 1138 1388 
L 634 0 
L -9 0 
z
M 1313 1881 
L 2866 1881 
L 2388 3150 
Q 2169 3728 2063 4100 
Q 1975 3659 1816 3225 
L 1313 1881 
z
" transform="scale(0.015625)"/>
     <path id="ArialMT-75" d="M 2597 0 
L 2597 488 
Q 2209 -75 1544 -75 
Q 1250 -75 995 37 
Q 741 150 617 320 
Q 494 491 444 738 
Q 409 903 409 1263 
L 409 3319 
L 972 3319 
L 972 1478 
Q 972 1038 1006 884 
Q 1059 663 1231 536 
Q 1403 409 1656 409 
Q 1909 409 2131 539 
Q 2353 669 2445 892 
Q 2538 1116 2538 1541 
L 2538 3319 
L 3100 3319 
L 3100 0 
L 2597 0 
z
" transform="scale(0.015625)"/>
     <path id="ArialMT-7a" d="M 125 0 
L 125 456 
L 2238 2881 
Q 1878 2863 1603 2863 
L 250 2863 
L 250 3319 
L 2963 3319 
L 2963 2947 
L 1166 841 
L 819 456 
Q 1197 484 1528 484 
L 3063 484 
L 3063 0 
L 125 0 
z
" transform="scale(0.015625)"/>
     <path id="ArialMT-2f" d="M 0 -78 
L 1328 4659 
L 1778 4659 
L 453 -78 
L 0 -78 
z
" transform="scale(0.015625)"/>
    </defs>
    <use xlink:href="#ArialMT-41"/>
    <use xlink:href="#ArialMT-74" x="66.699219"/>
    <use xlink:href="#ArialMT-75" x="94.482422"/>
    <use xlink:href="#ArialMT-61" x="150.097656"/>
    <use xlink:href="#ArialMT-6c" x="205.712891"/>
    <use xlink:href="#ArialMT-69" x="227.929688"/>
    <use xlink:href="#ArialMT-7a" x="250.146484"/>
    <use xlink:href="#ArialMT-61" x="300.146484"/>
    <use xlink:href="#ArialMT-64" x="355.761719"/>
    <use xlink:href="#ArialMT-6f" x="411.376953"/>
    <use xlink:href="#ArialMT-20" x="466.992188"/>
    <use xlink:href="#ArialMT-65" x="494.775391"/>
    <use xlink:href="#ArialMT-6d" x="550.390625"/>
    <use xlink:href="#ArialMT-20" x="633.691406"/>
    <use xlink:href="#ArialMT-33" x="661.474609"/>
    <use xlink:href="#ArialMT-31" x="717.089844"/>
    <use xlink:href="#ArialMT-2f" x="772.705078"/>
    <use xlink:href="#ArialMT-30" x="800.488281"/>
    <use xlink:href="#ArialMT-31" x="856.103516"/>
    <use xlink:href="#ArialMT-2f" x="911.71875"/>
    <use xlink:href="#ArialMT-32" x="939.501953"/>
    <use xlink:href="#ArialMT-30" x="995.117188"/>
    <use xlink:href="#ArialMT-32" x="1050.732422"/>
    <use xlink:href="#ArialMT-32" x="1106.347656"/>
   </g>
  </g>
  <g id="text_34">
   <!-- https://jmsvaz.github.io/covidsantos/ -->
   <g style="fill: #262626" transform="translate(570.345 331.389375)scale(0.08 -0.08)">
    <defs>
     <path id="ArialMT-68" d="M 422 0 
L 422 4581 
L 984 4581 
L 984 2938 
Q 1378 3394 1978 3394 
Q 2347 3394 2619 3248 
Q 2891 3103 3008 2847 
Q 3125 2591 3125 2103 
L 3125 0 
L 2563 0 
L 2563 2103 
Q 2563 2525 2380 2717 
Q 2197 2909 1863 2909 
Q 1613 2909 1392 2779 
Q 1172 2650 1078 2428 
Q 984 2206 984 1816 
L 984 0 
L 422 0 
z
" transform="scale(0.015625)"/>
     <path id="ArialMT-3a" d="M 578 2678 
L 578 3319 
L 1219 3319 
L 1219 2678 
L 578 2678 
z
M 578 0 
L 578 641 
L 1219 641 
L 1219 0 
L 578 0 
z
" transform="scale(0.015625)"/>
     <path id="ArialMT-6a" d="M 419 3928 
L 419 4581 
L 981 4581 
L 981 3928 
L 419 3928 
z
M -294 -1288 
L -188 -809 
Q -19 -853 78 -853 
Q 250 -853 334 -739 
Q 419 -625 419 -169 
L 419 3319 
L 981 3319 
L 981 -181 
Q 981 -794 822 -1034 
Q 619 -1347 147 -1347 
Q -81 -1347 -294 -1288 
z
" transform="scale(0.015625)"/>
     <path id="ArialMT-2e" d="M 581 0 
L 581 641 
L 1222 641 
L 1222 0 
L 581 0 
z
" transform="scale(0.015625)"/>
     <path id="ArialMT-67" d="M 319 -275 
L 866 -356 
Q 900 -609 1056 -725 
Q 1266 -881 1628 -881 
Q 2019 -881 2231 -725 
Q 2444 -569 2519 -288 
Q 2563 -116 2559 434 
Q 2191 0 1641 0 
Q 956 0 581 494 
Q 206 988 206 1678 
Q 206 2153 378 2554 
Q 550 2956 876 3175 
Q 1203 3394 1644 3394 
Q 2231 3394 2613 2919 
L 2613 3319 
L 3131 3319 
L 3131 450 
Q 3131 -325 2973 -648 
Q 2816 -972 2473 -1159 
Q 2131 -1347 1631 -1347 
Q 1038 -1347 672 -1080 
Q 306 -813 319 -275 
z
M 784 1719 
Q 784 1066 1043 766 
Q 1303 466 1694 466 
Q 2081 466 2343 764 
Q 2606 1063 2606 1700 
Q 2606 2309 2336 2618 
Q 2066 2928 1684 2928 
Q 1309 2928 1046 2623 
Q 784 2319 784 1719 
z
" transform="scale(0.015625)"/>
     <path id="ArialMT-62" d="M 941 0 
L 419 0 
L 419 4581 
L 981 4581 
L 981 2947 
Q 1338 3394 1891 3394 
Q 2197 3394 2470 3270 
Q 2744 3147 2920 2923 
Q 3097 2700 3197 2384 
Q 3297 2069 3297 1709 
Q 3297 856 2875 390 
Q 2453 -75 1863 -75 
Q 1275 -75 941 416 
L 941 0 
z
M 934 1684 
Q 934 1088 1097 822 
Q 1363 388 1816 388 
Q 2184 388 2453 708 
Q 2722 1028 2722 1663 
Q 2722 2313 2464 2622 
Q 2206 2931 1841 2931 
Q 1472 2931 1203 2611 
Q 934 2291 934 1684 
z
" transform="scale(0.015625)"/>
    </defs>
    <use xlink:href="#ArialMT-68"/>
    <use xlink:href="#ArialMT-74" x="55.615234"/>
    <use xlink:href="#ArialMT-74" x="83.398438"/>
    <use xlink:href="#ArialMT-70" x="111.181641"/>
    <use xlink:href="#ArialMT-73" x="166.796875"/>
    <use xlink:href="#ArialMT-3a" x="216.796875"/>
    <use xlink:href="#ArialMT-2f" x="244.580078"/>
    <use xlink:href="#ArialMT-2f" x="272.363281"/>
    <use xlink:href="#ArialMT-6a" x="300.146484"/>
    <use xlink:href="#ArialMT-6d" x="322.363281"/>
    <use xlink:href="#ArialMT-73" x="405.664062"/>
    <use xlink:href="#ArialMT-76" x="455.664062"/>
    <use xlink:href="#ArialMT-61" x="505.664062"/>
    <use xlink:href="#ArialMT-7a" x="561.279297"/>
    <use xlink:href="#ArialMT-2e" x="611.279297"/>
    <use xlink:href="#ArialMT-67" x="639.0625"/>
    <use xlink:href="#ArialMT-69" x="694.677734"/>
    <use xlink:href="#ArialMT-74" x="716.894531"/>
    <use xlink:href="#ArialMT-68" x="744.677734"/>
    <use xlink:href="#ArialMT-75" x="800.292969"/>
    <use xlink:href="#ArialMT-62" x="855.908203"/>
    <use xlink:href="#ArialMT-2e" x="911.523438"/>
    <use xlink:href="#ArialMT-69" x="939.306641"/>
    <use xlink:href="#ArialMT-6f" x="961.523438"/>
    <use xlink:href="#ArialMT-2f" x="1017.138672"/>
    <use xlink:href="#ArialMT-63" x="1044.921875"/>
    <use xlink:href="#ArialMT-6f" x="1094.921875"/>
    <use xlink:href="#ArialMT-76" x="1150.537109"/>
    <use xlink:href="#ArialMT-69" x="1200.537109"/>
    <use xlink:href="#ArialMT-64" x="1222.753906"/>
    <use xlink:href="#ArialMT-73" x="1278.369141"/>
    <use xlink:href="#ArialMT-61" x="1328.369141"/>
    <use xlink:href="#ArialMT-6e" x="1383.984375"/>
    <use xlink:href="#ArialMT-74" x="1439.599609"/>
    <use xlink:href="#ArialMT-6f" x="1467.382812"/>
    <use xlink:href="#ArialMT-73" x="1522.998047"/>
    <use xlink:href="#ArialMT-2f" x="1572.998047"/>
   </g>
  </g>
 </g>
 <defs>
  <clipPath id="p046f8d7a9a">
   <rect x="640.8" y="21.789375" width="0" height="277.2"/>
  </clipPath>
  <clipPath id="pfaf38e8900">
   <rect x="82.8" y="21.789375" width="558" height="277.2"/>
  </clipPath>
 </defs>
</svg>
