<?xml version="1.0" encoding="utf-8" standalone="no"?>
<!DOCTYPE svg PUBLIC "-//W3C//DTD SVG 1.1//EN"
  "http://www.w3.org/Graphics/SVG/1.1/DTD/svg11.dtd">
<svg xmlns:xlink="http://www.w3.org/1999/xlink" width="705.6pt" height="340.273125pt" viewBox="0 0 705.6 340.273125" xmlns="http://www.w3.org/2000/svg" version="1.1">
 <metadata>
  <rdf:RDF xmlns:dc="http://purl.org/dc/elements/1.1/" xmlns:cc="http://creativecommons.org/ns#" xmlns:rdf="http://www.w3.org/1999/02/22-rdf-syntax-ns#">
   <cc:Work>
    <dc:type rdf:resource="http://purl.org/dc/dcmitype/StillImage"/>
    <dc:date>2022-01-14T21:39:52.125899</dc:date>
    <dc:format>image/svg+xml</dc:format>
    <dc:creator>
     <cc:Agent>
      <dc:title>Matplotlib v3.5.1, https://matplotlib.org/</dc:title>
     </cc:Agent>
    </dc:creator>
   </cc:Work>
  </rdf:RDF>
 </metadata>
 <defs>
  <style type="text/css">*{stroke-linejoin: round; stroke-linecap: butt}</style>
 </defs>
 <g id="figure_1">
  <g id="patch_1">
   <path d="M 0 340.273125 
L 705.6 340.273125 
L 705.6 0 
L 0 0 
z
" style="fill: #ffffff"/>
  </g>
  <g id="axes_1">
   <g id="patch_2">
    <path d="M 82.8 298.989375 
L 640.8 298.989375 
L 640.8 21.789375 
L 82.8 21.789375 
z
" style="fill: #ffffff"/>
   </g>
   <g id="axes_2">
    <g id="patch_3">
     <path d="M 640.8 298.989375 
L 640.8 298.989375 
L 640.8 21.789375 
L 640.8 21.789375 
z
" style="fill: #ffffff"/>
    </g>
    <g id="matplotlib.axis_1"/>
    <g id="matplotlib.axis_2">
     <g id="ytick_1">
      <g id="line2d_1">
       <path d="M 640.8 286.389375 
L 640.8 286.389375 
" clip-path="url(#p0c9fa777af)" style="fill: none; stroke: #cccccc; stroke-width: 0.8; stroke-linecap: round"/>
      </g>
      <g id="line2d_2">
       <defs>
        <path id="me62d499aff" d="M 0 0 
L 3.5 0 
" style="stroke: #262626; stroke-width: 0.8"/>
       </defs>
       <g>
        <use xlink:href="#me62d499aff" x="640.8" y="286.389375" style="fill: #262626; stroke: #262626; stroke-width: 0.8"/>
       </g>
      </g>
      <g id="text_1">
       <!-- 0% -->
       <g style="fill: #262626" transform="translate(647.8 289.968281)scale(0.1 -0.1)">
        <defs>
         <path id="ArialMT-30" d="M 266 2259 
Q 266 3072 433 3567 
Q 600 4063 929 4331 
Q 1259 4600 1759 4600 
Q 2128 4600 2406 4451 
Q 2684 4303 2865 4023 
Q 3047 3744 3150 3342 
Q 3253 2941 3253 2259 
Q 3253 1453 3087 958 
Q 2922 463 2592 192 
Q 2263 -78 1759 -78 
Q 1097 -78 719 397 
Q 266 969 266 2259 
z
M 844 2259 
Q 844 1131 1108 757 
Q 1372 384 1759 384 
Q 2147 384 2411 759 
Q 2675 1134 2675 2259 
Q 2675 3391 2411 3762 
Q 2147 4134 1753 4134 
Q 1366 4134 1134 3806 
Q 844 3388 844 2259 
z
" transform="scale(0.015625)"/>
         <path id="ArialMT-25" d="M 372 3481 
Q 372 3972 619 4315 
Q 866 4659 1334 4659 
Q 1766 4659 2048 4351 
Q 2331 4044 2331 3447 
Q 2331 2866 2045 2552 
Q 1759 2238 1341 2238 
Q 925 2238 648 2547 
Q 372 2856 372 3481 
z
M 1350 4272 
Q 1141 4272 1002 4090 
Q 863 3909 863 3425 
Q 863 2984 1003 2804 
Q 1144 2625 1350 2625 
Q 1563 2625 1702 2806 
Q 1841 2988 1841 3469 
Q 1841 3913 1700 4092 
Q 1559 4272 1350 4272 
z
M 1353 -169 
L 3859 4659 
L 4316 4659 
L 1819 -169 
L 1353 -169 
z
M 3334 1075 
Q 3334 1569 3581 1911 
Q 3828 2253 4300 2253 
Q 4731 2253 5014 1945 
Q 5297 1638 5297 1041 
Q 5297 459 5011 145 
Q 4725 -169 4303 -169 
Q 3888 -169 3611 142 
Q 3334 453 3334 1075 
z
M 4316 1866 
Q 4103 1866 3964 1684 
Q 3825 1503 3825 1019 
Q 3825 581 3965 400 
Q 4106 219 4313 219 
Q 4528 219 4667 400 
Q 4806 581 4806 1063 
Q 4806 1506 4665 1686 
Q 4525 1866 4316 1866 
z
" transform="scale(0.015625)"/>
        </defs>
        <use xlink:href="#ArialMT-30"/>
        <use xlink:href="#ArialMT-25" x="55.615234"/>
       </g>
      </g>
     </g>
     <g id="ytick_2">
      <g id="line2d_3">
       <path d="M 640.8 250.810695 
L 640.8 250.810695 
" clip-path="url(#p0c9fa777af)" style="fill: none; stroke: #cccccc; stroke-width: 0.8; stroke-linecap: round"/>
      </g>
      <g id="line2d_4">
       <g>
        <use xlink:href="#me62d499aff" x="640.8" y="250.810695" style="fill: #262626; stroke: #262626; stroke-width: 0.8"/>
       </g>
      </g>
      <g id="text_2">
       <!-- 25% -->
       <g style="fill: #262626" transform="translate(647.8 254.389601)scale(0.1 -0.1)">
        <defs>
         <path id="ArialMT-32" d="M 3222 541 
L 3222 0 
L 194 0 
Q 188 203 259 391 
Q 375 700 629 1000 
Q 884 1300 1366 1694 
Q 2113 2306 2375 2664 
Q 2638 3022 2638 3341 
Q 2638 3675 2398 3904 
Q 2159 4134 1775 4134 
Q 1369 4134 1125 3890 
Q 881 3647 878 3216 
L 300 3275 
Q 359 3922 746 4261 
Q 1134 4600 1788 4600 
Q 2447 4600 2831 4234 
Q 3216 3869 3216 3328 
Q 3216 3053 3103 2787 
Q 2991 2522 2730 2228 
Q 2469 1934 1863 1422 
Q 1356 997 1212 845 
Q 1069 694 975 541 
L 3222 541 
z
" transform="scale(0.015625)"/>
         <path id="ArialMT-35" d="M 266 1200 
L 856 1250 
Q 922 819 1161 601 
Q 1400 384 1738 384 
Q 2144 384 2425 690 
Q 2706 997 2706 1503 
Q 2706 1984 2436 2262 
Q 2166 2541 1728 2541 
Q 1456 2541 1237 2417 
Q 1019 2294 894 2097 
L 366 2166 
L 809 4519 
L 3088 4519 
L 3088 3981 
L 1259 3981 
L 1013 2750 
Q 1425 3038 1878 3038 
Q 2478 3038 2890 2622 
Q 3303 2206 3303 1553 
Q 3303 931 2941 478 
Q 2500 -78 1738 -78 
Q 1113 -78 717 272 
Q 322 622 266 1200 
z
" transform="scale(0.015625)"/>
        </defs>
        <use xlink:href="#ArialMT-32"/>
        <use xlink:href="#ArialMT-35" x="55.615234"/>
        <use xlink:href="#ArialMT-25" x="111.230469"/>
       </g>
      </g>
     </g>
     <g id="ytick_3">
      <g id="line2d_5">
       <path d="M 640.8 215.232015 
L 640.8 215.232015 
" clip-path="url(#p0c9fa777af)" style="fill: none; stroke: #cccccc; stroke-width: 0.8; stroke-linecap: round"/>
      </g>
      <g id="line2d_6">
       <g>
        <use xlink:href="#me62d499aff" x="640.8" y="215.232015" style="fill: #262626; stroke: #262626; stroke-width: 0.8"/>
       </g>
      </g>
      <g id="text_3">
       <!-- 50% -->
       <g style="fill: #262626" transform="translate(647.8 218.810921)scale(0.1 -0.1)">
        <use xlink:href="#ArialMT-35"/>
        <use xlink:href="#ArialMT-30" x="55.615234"/>
        <use xlink:href="#ArialMT-25" x="111.230469"/>
       </g>
      </g>
     </g>
     <g id="ytick_4">
      <g id="line2d_7">
       <path d="M 640.8 179.653334 
L 640.8 179.653334 
" clip-path="url(#p0c9fa777af)" style="fill: none; stroke: #cccccc; stroke-width: 0.8; stroke-linecap: round"/>
      </g>
      <g id="line2d_8">
       <g>
        <use xlink:href="#me62d499aff" x="640.8" y="179.653334" style="fill: #262626; stroke: #262626; stroke-width: 0.8"/>
       </g>
      </g>
      <g id="text_4">
       <!-- 75% -->
       <g style="fill: #262626" transform="translate(647.8 183.232241)scale(0.1 -0.1)">
        <defs>
         <path id="ArialMT-37" d="M 303 3981 
L 303 4522 
L 3269 4522 
L 3269 4084 
Q 2831 3619 2401 2847 
Q 1972 2075 1738 1259 
Q 1569 684 1522 0 
L 944 0 
Q 953 541 1156 1306 
Q 1359 2072 1739 2783 
Q 2119 3494 2547 3981 
L 303 3981 
z
" transform="scale(0.015625)"/>
        </defs>
        <use xlink:href="#ArialMT-37"/>
        <use xlink:href="#ArialMT-35" x="55.615234"/>
        <use xlink:href="#ArialMT-25" x="111.230469"/>
       </g>
      </g>
     </g>
     <g id="ytick_5">
      <g id="line2d_9">
       <path d="M 640.8 144.074654 
L 640.8 144.074654 
" clip-path="url(#p0c9fa777af)" style="fill: none; stroke: #cccccc; stroke-width: 0.8; stroke-linecap: round"/>
      </g>
      <g id="line2d_10">
       <g>
        <use xlink:href="#me62d499aff" x="640.8" y="144.074654" style="fill: #262626; stroke: #262626; stroke-width: 0.8"/>
       </g>
      </g>
      <g id="text_5">
       <!-- 100% -->
       <g style="fill: #262626" transform="translate(647.8 147.65356)scale(0.1 -0.1)">
        <defs>
         <path id="ArialMT-31" d="M 2384 0 
L 1822 0 
L 1822 3584 
Q 1619 3391 1289 3197 
Q 959 3003 697 2906 
L 697 3450 
Q 1169 3672 1522 3987 
Q 1875 4303 2022 4600 
L 2384 4600 
L 2384 0 
z
" transform="scale(0.015625)"/>
        </defs>
        <use xlink:href="#ArialMT-31"/>
        <use xlink:href="#ArialMT-30" x="55.615234"/>
        <use xlink:href="#ArialMT-30" x="111.230469"/>
        <use xlink:href="#ArialMT-25" x="166.845703"/>
       </g>
      </g>
     </g>
     <g id="ytick_6">
      <g id="line2d_11">
       <path d="M 640.8 108.495974 
L 640.8 108.495974 
" clip-path="url(#p0c9fa777af)" style="fill: none; stroke: #cccccc; stroke-width: 0.8; stroke-linecap: round"/>
      </g>
      <g id="line2d_12">
       <g>
        <use xlink:href="#me62d499aff" x="640.8" y="108.495974" style="fill: #262626; stroke: #262626; stroke-width: 0.8"/>
       </g>
      </g>
      <g id="text_6">
       <!-- 125% -->
       <g style="fill: #262626" transform="translate(647.8 112.07488)scale(0.1 -0.1)">
        <use xlink:href="#ArialMT-31"/>
        <use xlink:href="#ArialMT-32" x="55.615234"/>
        <use xlink:href="#ArialMT-35" x="111.230469"/>
        <use xlink:href="#ArialMT-25" x="166.845703"/>
       </g>
      </g>
     </g>
     <g id="ytick_7">
      <g id="line2d_13">
       <path d="M 640.8 72.917294 
L 640.8 72.917294 
" clip-path="url(#p0c9fa777af)" style="fill: none; stroke: #cccccc; stroke-width: 0.8; stroke-linecap: round"/>
      </g>
      <g id="line2d_14">
       <g>
        <use xlink:href="#me62d499aff" x="640.8" y="72.917294" style="fill: #262626; stroke: #262626; stroke-width: 0.8"/>
       </g>
      </g>
      <g id="text_7">
       <!-- 150% -->
       <g style="fill: #262626" transform="translate(647.8 76.4962)scale(0.1 -0.1)">
        <use xlink:href="#ArialMT-31"/>
        <use xlink:href="#ArialMT-35" x="55.615234"/>
        <use xlink:href="#ArialMT-30" x="111.230469"/>
        <use xlink:href="#ArialMT-25" x="166.845703"/>
       </g>
      </g>
     </g>
     <g id="ytick_8">
      <g id="line2d_15">
       <path d="M 640.8 37.338614 
L 640.8 37.338614 
" clip-path="url(#p0c9fa777af)" style="fill: none; stroke: #cccccc; stroke-width: 0.8; stroke-linecap: round"/>
      </g>
      <g id="line2d_16">
       <g>
        <use xlink:href="#me62d499aff" x="640.8" y="37.338614" style="fill: #262626; stroke: #262626; stroke-width: 0.8"/>
       </g>
      </g>
      <g id="text_8">
       <!-- 175% -->
       <g style="fill: #262626" transform="translate(647.8 40.91752)scale(0.1 -0.1)">
        <use xlink:href="#ArialMT-31"/>
        <use xlink:href="#ArialMT-37" x="55.615234"/>
        <use xlink:href="#ArialMT-35" x="111.230469"/>
        <use xlink:href="#ArialMT-25" x="166.845703"/>
       </g>
      </g>
     </g>
    </g>
    <g id="patch_4">
     <path d="M 640.8 298.989375 
L 640.8 21.789375 
" style="fill: none; stroke: #cccccc; stroke-width: 0.8; stroke-linejoin: miter; stroke-linecap: square"/>
    </g>
   </g>
   <g id="matplotlib.axis_3">
    <g id="xtick_1">
     <g id="line2d_17">
      <path d="M 118.827027 298.989375 
L 118.827027 21.789375 
" clip-path="url(#pc7f8bd97de)" style="fill: none; stroke: #cccccc; stroke-width: 0.8; stroke-linecap: round"/>
     </g>
     <g id="text_9">
      <!-- 2020-05 -->
      <g style="fill: #262626" transform="translate(100.479371 313.147188)scale(0.1 -0.1)">
       <defs>
        <path id="ArialMT-2d" d="M 203 1375 
L 203 1941 
L 1931 1941 
L 1931 1375 
L 203 1375 
z
" transform="scale(0.015625)"/>
       </defs>
       <use xlink:href="#ArialMT-32"/>
       <use xlink:href="#ArialMT-30" x="55.615234"/>
       <use xlink:href="#ArialMT-32" x="111.230469"/>
       <use xlink:href="#ArialMT-30" x="166.845703"/>
       <use xlink:href="#ArialMT-2d" x="222.460938"/>
       <use xlink:href="#ArialMT-30" x="255.761719"/>
       <use xlink:href="#ArialMT-35" x="311.376953"/>
      </g>
     </g>
    </g>
    <g id="xtick_2">
     <g id="line2d_18">
      <path d="M 169.935135 298.989375 
L 169.935135 21.789375 
" clip-path="url(#pc7f8bd97de)" style="fill: none; stroke: #cccccc; stroke-width: 0.8; stroke-linecap: round"/>
     </g>
     <g id="text_10">
      <!-- 2020-07 -->
      <g style="fill: #262626" transform="translate(151.587479 313.147188)scale(0.1 -0.1)">
       <use xlink:href="#ArialMT-32"/>
       <use xlink:href="#ArialMT-30" x="55.615234"/>
       <use xlink:href="#ArialMT-32" x="111.230469"/>
       <use xlink:href="#ArialMT-30" x="166.845703"/>
       <use xlink:href="#ArialMT-2d" x="222.460938"/>
       <use xlink:href="#ArialMT-30" x="255.761719"/>
       <use xlink:href="#ArialMT-37" x="311.376953"/>
      </g>
     </g>
    </g>
    <g id="xtick_3">
     <g id="line2d_19">
      <path d="M 221.881081 298.989375 
L 221.881081 21.789375 
" clip-path="url(#pc7f8bd97de)" style="fill: none; stroke: #cccccc; stroke-width: 0.8; stroke-linecap: round"/>
     </g>
     <g id="text_11">
      <!-- 2020-09 -->
      <g style="fill: #262626" transform="translate(203.533425 313.147188)scale(0.1 -0.1)">
       <defs>
        <path id="ArialMT-39" d="M 350 1059 
L 891 1109 
Q 959 728 1153 556 
Q 1347 384 1650 384 
Q 1909 384 2104 503 
Q 2300 622 2425 820 
Q 2550 1019 2634 1356 
Q 2719 1694 2719 2044 
Q 2719 2081 2716 2156 
Q 2547 1888 2255 1720 
Q 1963 1553 1622 1553 
Q 1053 1553 659 1965 
Q 266 2378 266 3053 
Q 266 3750 677 4175 
Q 1088 4600 1706 4600 
Q 2153 4600 2523 4359 
Q 2894 4119 3086 3673 
Q 3278 3228 3278 2384 
Q 3278 1506 3087 986 
Q 2897 466 2520 194 
Q 2144 -78 1638 -78 
Q 1100 -78 759 220 
Q 419 519 350 1059 
z
M 2653 3081 
Q 2653 3566 2395 3850 
Q 2138 4134 1775 4134 
Q 1400 4134 1122 3828 
Q 844 3522 844 3034 
Q 844 2597 1108 2323 
Q 1372 2050 1759 2050 
Q 2150 2050 2401 2323 
Q 2653 2597 2653 3081 
z
" transform="scale(0.015625)"/>
       </defs>
       <use xlink:href="#ArialMT-32"/>
       <use xlink:href="#ArialMT-30" x="55.615234"/>
       <use xlink:href="#ArialMT-32" x="111.230469"/>
       <use xlink:href="#ArialMT-30" x="166.845703"/>
       <use xlink:href="#ArialMT-2d" x="222.460938"/>
       <use xlink:href="#ArialMT-30" x="255.761719"/>
       <use xlink:href="#ArialMT-39" x="311.376953"/>
      </g>
     </g>
    </g>
    <g id="xtick_4">
     <g id="line2d_20">
      <path d="M 272.989189 298.989375 
L 272.989189 21.789375 
" clip-path="url(#pc7f8bd97de)" style="fill: none; stroke: #cccccc; stroke-width: 0.8; stroke-linecap: round"/>
     </g>
     <g id="text_12">
      <!-- 2020-11 -->
      <g style="fill: #262626" transform="translate(255.010283 313.147188)scale(0.1 -0.1)">
       <use xlink:href="#ArialMT-32"/>
       <use xlink:href="#ArialMT-30" x="55.615234"/>
       <use xlink:href="#ArialMT-32" x="111.230469"/>
       <use xlink:href="#ArialMT-30" x="166.845703"/>
       <use xlink:href="#ArialMT-2d" x="222.460938"/>
       <use xlink:href="#ArialMT-31" x="255.761719"/>
       <use xlink:href="#ArialMT-31" x="304.001953"/>
      </g>
     </g>
    </g>
    <g id="xtick_5">
     <g id="line2d_21">
      <path d="M 324.097297 298.989375 
L 324.097297 21.789375 
" clip-path="url(#pc7f8bd97de)" style="fill: none; stroke: #cccccc; stroke-width: 0.8; stroke-linecap: round"/>
     </g>
     <g id="text_13">
      <!-- 2021-01 -->
      <g style="fill: #262626" transform="translate(305.749641 313.147188)scale(0.1 -0.1)">
       <use xlink:href="#ArialMT-32"/>
       <use xlink:href="#ArialMT-30" x="55.615234"/>
       <use xlink:href="#ArialMT-32" x="111.230469"/>
       <use xlink:href="#ArialMT-31" x="166.845703"/>
       <use xlink:href="#ArialMT-2d" x="222.460938"/>
       <use xlink:href="#ArialMT-30" x="255.761719"/>
       <use xlink:href="#ArialMT-31" x="311.376953"/>
      </g>
     </g>
    </g>
    <g id="xtick_6">
     <g id="line2d_22">
      <path d="M 373.52973 298.989375 
L 373.52973 21.789375 
" clip-path="url(#pc7f8bd97de)" style="fill: none; stroke: #cccccc; stroke-width: 0.8; stroke-linecap: round"/>
     </g>
     <g id="text_14">
      <!-- 2021-03 -->
      <g style="fill: #262626" transform="translate(355.182073 313.147188)scale(0.1 -0.1)">
       <defs>
        <path id="ArialMT-33" d="M 269 1209 
L 831 1284 
Q 928 806 1161 595 
Q 1394 384 1728 384 
Q 2125 384 2398 659 
Q 2672 934 2672 1341 
Q 2672 1728 2419 1979 
Q 2166 2231 1775 2231 
Q 1616 2231 1378 2169 
L 1441 2663 
Q 1497 2656 1531 2656 
Q 1891 2656 2178 2843 
Q 2466 3031 2466 3422 
Q 2466 3731 2256 3934 
Q 2047 4138 1716 4138 
Q 1388 4138 1169 3931 
Q 950 3725 888 3313 
L 325 3413 
Q 428 3978 793 4289 
Q 1159 4600 1703 4600 
Q 2078 4600 2393 4439 
Q 2709 4278 2876 4000 
Q 3044 3722 3044 3409 
Q 3044 3113 2884 2869 
Q 2725 2625 2413 2481 
Q 2819 2388 3044 2092 
Q 3269 1797 3269 1353 
Q 3269 753 2831 336 
Q 2394 -81 1725 -81 
Q 1122 -81 723 278 
Q 325 638 269 1209 
z
" transform="scale(0.015625)"/>
       </defs>
       <use xlink:href="#ArialMT-32"/>
       <use xlink:href="#ArialMT-30" x="55.615234"/>
       <use xlink:href="#ArialMT-32" x="111.230469"/>
       <use xlink:href="#ArialMT-31" x="166.845703"/>
       <use xlink:href="#ArialMT-2d" x="222.460938"/>
       <use xlink:href="#ArialMT-30" x="255.761719"/>
       <use xlink:href="#ArialMT-33" x="311.376953"/>
      </g>
     </g>
    </g>
    <g id="xtick_7">
     <g id="line2d_23">
      <path d="M 424.637838 298.989375 
L 424.637838 21.789375 
" clip-path="url(#pc7f8bd97de)" style="fill: none; stroke: #cccccc; stroke-width: 0.8; stroke-linecap: round"/>
     </g>
     <g id="text_15">
      <!-- 2021-05 -->
      <g style="fill: #262626" transform="translate(406.290182 313.147188)scale(0.1 -0.1)">
       <use xlink:href="#ArialMT-32"/>
       <use xlink:href="#ArialMT-30" x="55.615234"/>
       <use xlink:href="#ArialMT-32" x="111.230469"/>
       <use xlink:href="#ArialMT-31" x="166.845703"/>
       <use xlink:href="#ArialMT-2d" x="222.460938"/>
       <use xlink:href="#ArialMT-30" x="255.761719"/>
       <use xlink:href="#ArialMT-35" x="311.376953"/>
      </g>
     </g>
    </g>
    <g id="xtick_8">
     <g id="line2d_24">
      <path d="M 475.745946 298.989375 
L 475.745946 21.789375 
" clip-path="url(#pc7f8bd97de)" style="fill: none; stroke: #cccccc; stroke-width: 0.8; stroke-linecap: round"/>
     </g>
     <g id="text_16">
      <!-- 2021-07 -->
      <g style="fill: #262626" transform="translate(457.39829 313.147188)scale(0.1 -0.1)">
       <use xlink:href="#ArialMT-32"/>
       <use xlink:href="#ArialMT-30" x="55.615234"/>
       <use xlink:href="#ArialMT-32" x="111.230469"/>
       <use xlink:href="#ArialMT-31" x="166.845703"/>
       <use xlink:href="#ArialMT-2d" x="222.460938"/>
       <use xlink:href="#ArialMT-30" x="255.761719"/>
       <use xlink:href="#ArialMT-37" x="311.376953"/>
      </g>
     </g>
    </g>
    <g id="xtick_9">
     <g id="line2d_25">
      <path d="M 527.691892 298.989375 
L 527.691892 21.789375 
" clip-path="url(#pc7f8bd97de)" style="fill: none; stroke: #cccccc; stroke-width: 0.8; stroke-linecap: round"/>
     </g>
     <g id="text_17">
      <!-- 2021-09 -->
      <g style="fill: #262626" transform="translate(509.344236 313.147188)scale(0.1 -0.1)">
       <use xlink:href="#ArialMT-32"/>
       <use xlink:href="#ArialMT-30" x="55.615234"/>
       <use xlink:href="#ArialMT-32" x="111.230469"/>
       <use xlink:href="#ArialMT-31" x="166.845703"/>
       <use xlink:href="#ArialMT-2d" x="222.460938"/>
       <use xlink:href="#ArialMT-30" x="255.761719"/>
       <use xlink:href="#ArialMT-39" x="311.376953"/>
      </g>
     </g>
    </g>
    <g id="xtick_10">
     <g id="line2d_26">
      <path d="M 578.8 298.989375 
L 578.8 21.789375 
" clip-path="url(#pc7f8bd97de)" style="fill: none; stroke: #cccccc; stroke-width: 0.8; stroke-linecap: round"/>
     </g>
     <g id="text_18">
      <!-- 2021-11 -->
      <g style="fill: #262626" transform="translate(560.821094 313.147188)scale(0.1 -0.1)">
       <use xlink:href="#ArialMT-32"/>
       <use xlink:href="#ArialMT-30" x="55.615234"/>
       <use xlink:href="#ArialMT-32" x="111.230469"/>
       <use xlink:href="#ArialMT-31" x="166.845703"/>
       <use xlink:href="#ArialMT-2d" x="222.460938"/>
       <use xlink:href="#ArialMT-31" x="255.761719"/>
       <use xlink:href="#ArialMT-31" x="304.001953"/>
      </g>
     </g>
    </g>
    <g id="xtick_11">
     <g id="line2d_27">
      <path d="M 629.908108 298.989375 
L 629.908108 21.789375 
" clip-path="url(#pc7f8bd97de)" style="fill: none; stroke: #cccccc; stroke-width: 0.8; stroke-linecap: round"/>
     </g>
     <g id="text_19">
      <!-- 2022-01 -->
      <g style="fill: #262626" transform="translate(611.560452 313.147188)scale(0.1 -0.1)">
       <use xlink:href="#ArialMT-32"/>
       <use xlink:href="#ArialMT-30" x="55.615234"/>
       <use xlink:href="#ArialMT-32" x="111.230469"/>
       <use xlink:href="#ArialMT-32" x="166.845703"/>
       <use xlink:href="#ArialMT-2d" x="222.460938"/>
       <use xlink:href="#ArialMT-30" x="255.761719"/>
       <use xlink:href="#ArialMT-31" x="311.376953"/>
      </g>
     </g>
    </g>
   </g>
   <g id="matplotlib.axis_4">
    <g id="ytick_9">
     <g id="line2d_28">
      <path d="M 82.8 286.389375 
L 640.8 286.389375 
" clip-path="url(#pc7f8bd97de)" style="fill: none; stroke: #cccccc; stroke-width: 0.8; stroke-linecap: round"/>
     </g>
     <g id="text_20">
      <!-- 0 -->
      <g style="fill: #262626" transform="translate(70.239063 289.968281)scale(0.1 -0.1)">
       <use xlink:href="#ArialMT-30"/>
      </g>
     </g>
    </g>
    <g id="ytick_10">
     <g id="line2d_29">
      <path d="M 82.8 253.597285 
L 640.8 253.597285 
" clip-path="url(#pc7f8bd97de)" style="fill: none; stroke: #cccccc; stroke-width: 0.8; stroke-linecap: round"/>
     </g>
     <g id="text_21">
      <!-- 100000 -->
      <g style="fill: #262626" transform="translate(42.434375 257.176191)scale(0.1 -0.1)">
       <use xlink:href="#ArialMT-31"/>
       <use xlink:href="#ArialMT-30" x="55.615234"/>
       <use xlink:href="#ArialMT-30" x="111.230469"/>
       <use xlink:href="#ArialMT-30" x="166.845703"/>
       <use xlink:href="#ArialMT-30" x="222.460938"/>
       <use xlink:href="#ArialMT-30" x="278.076172"/>
      </g>
     </g>
    </g>
    <g id="ytick_11">
     <g id="line2d_30">
      <path d="M 82.8 220.805194 
L 640.8 220.805194 
" clip-path="url(#pc7f8bd97de)" style="fill: none; stroke: #cccccc; stroke-width: 0.8; stroke-linecap: round"/>
     </g>
     <g id="text_22">
      <!-- 200000 -->
      <g style="fill: #262626" transform="translate(42.434375 224.384101)scale(0.1 -0.1)">
       <use xlink:href="#ArialMT-32"/>
       <use xlink:href="#ArialMT-30" x="55.615234"/>
       <use xlink:href="#ArialMT-30" x="111.230469"/>
       <use xlink:href="#ArialMT-30" x="166.845703"/>
       <use xlink:href="#ArialMT-30" x="222.460938"/>
       <use xlink:href="#ArialMT-30" x="278.076172"/>
      </g>
     </g>
    </g>
    <g id="ytick_12">
     <g id="line2d_31">
      <path d="M 82.8 188.013104 
L 640.8 188.013104 
" clip-path="url(#pc7f8bd97de)" style="fill: none; stroke: #cccccc; stroke-width: 0.8; stroke-linecap: round"/>
     </g>
     <g id="text_23">
      <!-- 300000 -->
      <g style="fill: #262626" transform="translate(42.434375 191.59201)scale(0.1 -0.1)">
       <use xlink:href="#ArialMT-33"/>
       <use xlink:href="#ArialMT-30" x="55.615234"/>
       <use xlink:href="#ArialMT-30" x="111.230469"/>
       <use xlink:href="#ArialMT-30" x="166.845703"/>
       <use xlink:href="#ArialMT-30" x="222.460938"/>
       <use xlink:href="#ArialMT-30" x="278.076172"/>
      </g>
     </g>
    </g>
    <g id="ytick_13">
     <g id="line2d_32">
      <path d="M 82.8 155.221014 
L 640.8 155.221014 
" clip-path="url(#pc7f8bd97de)" style="fill: none; stroke: #cccccc; stroke-width: 0.8; stroke-linecap: round"/>
     </g>
     <g id="text_24">
      <!-- 400000 -->
      <g style="fill: #262626" transform="translate(42.434375 158.79992)scale(0.1 -0.1)">
       <defs>
        <path id="ArialMT-34" d="M 2069 0 
L 2069 1097 
L 81 1097 
L 81 1613 
L 2172 4581 
L 2631 4581 
L 2631 1613 
L 3250 1613 
L 3250 1097 
L 2631 1097 
L 2631 0 
L 2069 0 
z
M 2069 1613 
L 2069 3678 
L 634 1613 
L 2069 1613 
z
" transform="scale(0.015625)"/>
       </defs>
       <use xlink:href="#ArialMT-34"/>
       <use xlink:href="#ArialMT-30" x="55.615234"/>
       <use xlink:href="#ArialMT-30" x="111.230469"/>
       <use xlink:href="#ArialMT-30" x="166.845703"/>
       <use xlink:href="#ArialMT-30" x="222.460938"/>
       <use xlink:href="#ArialMT-30" x="278.076172"/>
      </g>
     </g>
    </g>
    <g id="ytick_14">
     <g id="line2d_33">
      <path d="M 82.8 122.428923 
L 640.8 122.428923 
" clip-path="url(#pc7f8bd97de)" style="fill: none; stroke: #cccccc; stroke-width: 0.8; stroke-linecap: round"/>
     </g>
     <g id="text_25">
      <!-- 500000 -->
      <g style="fill: #262626" transform="translate(42.434375 126.00783)scale(0.1 -0.1)">
       <use xlink:href="#ArialMT-35"/>
       <use xlink:href="#ArialMT-30" x="55.615234"/>
       <use xlink:href="#ArialMT-30" x="111.230469"/>
       <use xlink:href="#ArialMT-30" x="166.845703"/>
       <use xlink:href="#ArialMT-30" x="222.460938"/>
       <use xlink:href="#ArialMT-30" x="278.076172"/>
      </g>
     </g>
    </g>
    <g id="ytick_15">
     <g id="line2d_34">
      <path d="M 82.8 89.636833 
L 640.8 89.636833 
" clip-path="url(#pc7f8bd97de)" style="fill: none; stroke: #cccccc; stroke-width: 0.8; stroke-linecap: round"/>
     </g>
     <g id="text_26">
      <!-- 600000 -->
      <g style="fill: #262626" transform="translate(42.434375 93.215739)scale(0.1 -0.1)">
       <defs>
        <path id="ArialMT-36" d="M 3184 3459 
L 2625 3416 
Q 2550 3747 2413 3897 
Q 2184 4138 1850 4138 
Q 1581 4138 1378 3988 
Q 1113 3794 959 3422 
Q 806 3050 800 2363 
Q 1003 2672 1297 2822 
Q 1591 2972 1913 2972 
Q 2475 2972 2870 2558 
Q 3266 2144 3266 1488 
Q 3266 1056 3080 686 
Q 2894 316 2569 119 
Q 2244 -78 1831 -78 
Q 1128 -78 684 439 
Q 241 956 241 2144 
Q 241 3472 731 4075 
Q 1159 4600 1884 4600 
Q 2425 4600 2770 4297 
Q 3116 3994 3184 3459 
z
M 888 1484 
Q 888 1194 1011 928 
Q 1134 663 1356 523 
Q 1578 384 1822 384 
Q 2178 384 2434 671 
Q 2691 959 2691 1453 
Q 2691 1928 2437 2201 
Q 2184 2475 1800 2475 
Q 1419 2475 1153 2201 
Q 888 1928 888 1484 
z
" transform="scale(0.015625)"/>
       </defs>
       <use xlink:href="#ArialMT-36"/>
       <use xlink:href="#ArialMT-30" x="55.615234"/>
       <use xlink:href="#ArialMT-30" x="111.230469"/>
       <use xlink:href="#ArialMT-30" x="166.845703"/>
       <use xlink:href="#ArialMT-30" x="222.460938"/>
       <use xlink:href="#ArialMT-30" x="278.076172"/>
      </g>
     </g>
    </g>
    <g id="ytick_16">
     <g id="line2d_35">
      <path d="M 82.8 56.844743 
L 640.8 56.844743 
" clip-path="url(#pc7f8bd97de)" style="fill: none; stroke: #cccccc; stroke-width: 0.8; stroke-linecap: round"/>
     </g>
     <g id="text_27">
      <!-- 700000 -->
      <g style="fill: #262626" transform="translate(42.434375 60.423649)scale(0.1 -0.1)">
       <use xlink:href="#ArialMT-37"/>
       <use xlink:href="#ArialMT-30" x="55.615234"/>
       <use xlink:href="#ArialMT-30" x="111.230469"/>
       <use xlink:href="#ArialMT-30" x="166.845703"/>
       <use xlink:href="#ArialMT-30" x="222.460938"/>
       <use xlink:href="#ArialMT-30" x="278.076172"/>
      </g>
     </g>
    </g>
    <g id="ytick_17">
     <g id="line2d_36">
      <path d="M 82.8 24.052652 
L 640.8 24.052652 
" clip-path="url(#pc7f8bd97de)" style="fill: none; stroke: #cccccc; stroke-width: 0.8; stroke-linecap: round"/>
     </g>
     <g id="text_28">
      <!-- 800000 -->
      <g style="fill: #262626" transform="translate(42.434375 27.631559)scale(0.1 -0.1)">
       <defs>
        <path id="ArialMT-38" d="M 1131 2484 
Q 781 2613 612 2850 
Q 444 3088 444 3419 
Q 444 3919 803 4259 
Q 1163 4600 1759 4600 
Q 2359 4600 2725 4251 
Q 3091 3903 3091 3403 
Q 3091 3084 2923 2848 
Q 2756 2613 2416 2484 
Q 2838 2347 3058 2040 
Q 3278 1734 3278 1309 
Q 3278 722 2862 322 
Q 2447 -78 1769 -78 
Q 1091 -78 675 323 
Q 259 725 259 1325 
Q 259 1772 486 2073 
Q 713 2375 1131 2484 
z
M 1019 3438 
Q 1019 3113 1228 2906 
Q 1438 2700 1772 2700 
Q 2097 2700 2305 2904 
Q 2513 3109 2513 3406 
Q 2513 3716 2298 3927 
Q 2084 4138 1766 4138 
Q 1444 4138 1231 3931 
Q 1019 3725 1019 3438 
z
M 838 1322 
Q 838 1081 952 856 
Q 1066 631 1291 507 
Q 1516 384 1775 384 
Q 2178 384 2440 643 
Q 2703 903 2703 1303 
Q 2703 1709 2433 1975 
Q 2163 2241 1756 2241 
Q 1359 2241 1098 1978 
Q 838 1716 838 1322 
z
" transform="scale(0.015625)"/>
       </defs>
       <use xlink:href="#ArialMT-38"/>
       <use xlink:href="#ArialMT-30" x="55.615234"/>
       <use xlink:href="#ArialMT-30" x="111.230469"/>
       <use xlink:href="#ArialMT-30" x="166.845703"/>
       <use xlink:href="#ArialMT-30" x="222.460938"/>
       <use xlink:href="#ArialMT-30" x="278.076172"/>
      </g>
     </g>
    </g>
   </g>
   <g id="PolyCollection_1">
    <defs>
     <path id="mc401e58b91" d="M 385.259459 -53.88375 
L 385.259459 -71.103831 
L 386.097297 -71.67309 
L 386.935135 -72.242349 
L 387.772973 -72.384664 
L 388.610811 -73.523181 
L 389.448649 -73.950126 
L 390.286486 -74.09244 
L 391.124324 -74.804014 
L 391.962162 -75.373273 
L 392.8 -75.942532 
L 393.637838 -75.942532 
L 394.475676 -77.934938 
L 395.313514 -77.934938 
L 396.151351 -77.934938 
L 396.989189 -79.073456 
L 397.827027 -79.642714 
L 398.664865 -79.927344 
L 399.502703 -80.354288 
L 400.340541 -80.638918 
L 401.178378 -80.781232 
L 402.016216 -80.781232 
L 402.854054 -81.208176 
L 403.691892 -81.492806 
L 404.52973 -81.777435 
L 405.367568 -81.91975 
L 406.205405 -82.204379 
L 407.043243 -82.346694 
L 407.881081 -82.346694 
L 408.718919 -82.631324 
L 409.556757 -83.058268 
L 410.394595 -83.485212 
L 411.232432 -84.196786 
L 412.07027 -84.481415 
L 412.908108 -84.62373 
L 413.745946 -84.62373 
L 414.583784 -85.192989 
L 415.421622 -86.046877 
L 416.259459 -86.331506 
L 417.097297 -86.758451 
L 417.935135 -87.470024 
L 418.772973 -87.896968 
L 419.610811 -87.896968 
L 420.448649 -88.323912 
L 421.286486 -88.750857 
L 422.124324 -88.750857 
L 422.962162 -89.74706 
L 423.8 -90.031689 
L 424.637838 -90.174004 
L 425.475676 -90.316319 
L 426.313514 -90.458633 
L 427.151351 -90.458633 
L 427.989189 -91.170207 
L 428.827027 -92.308725 
L 429.664865 -93.447242 
L 430.502703 -93.731872 
L 431.340541 -93.731872 
L 432.178378 -94.016501 
L 433.016216 -94.443445 
L 433.854054 -94.87039 
L 434.691892 -95.581963 
L 435.52973 -96.293537 
L 436.367568 -97.00511 
L 437.205405 -97.00511 
L 438.043243 -97.432055 
L 438.881081 -97.432055 
L 439.718919 -98.001313 
L 440.556757 -99.282146 
L 441.394595 -99.851405 
L 442.232432 -100.136034 
L 443.07027 -100.278349 
L 443.908108 -100.705293 
L 444.745946 -101.132237 
L 445.583784 -101.559181 
L 446.421622 -102.270755 
L 447.259459 -102.697699 
L 448.097297 -103.266958 
L 448.935135 -103.409273 
L 449.772973 -103.978532 
L 450.610811 -104.263161 
L 451.448649 -104.974735 
L 452.286486 -105.259364 
L 453.124324 -105.970938 
L 453.962162 -106.255567 
L 454.8 -106.682511 
L 455.637838 -106.824826 
L 456.475676 -107.5364 
L 457.313514 -108.247973 
L 458.151351 -109.101862 
L 458.989189 -109.671121 
L 459.827027 -110.240379 
L 460.664865 -110.809638 
L 461.502703 -111.094268 
L 462.340541 -111.521212 
L 463.178378 -112.3751 
L 464.016216 -113.655933 
L 464.854054 -114.509821 
L 465.691892 -114.79445 
L 466.52973 -114.79445 
L 467.367568 -114.79445 
L 468.205405 -121.198613 
L 469.043243 -122.479445 
L 469.881081 -123.902593 
L 470.718919 -125.04111 
L 471.556757 -125.183425 
L 472.394595 -128.883608 
L 473.232432 -129.168237 
L 474.07027 -131.018329 
L 474.908108 -132.156846 
L 475.745946 -133.010735 
L 476.583784 -134.006938 
L 477.421622 -134.576197 
L 478.259459 -134.860826 
L 479.097297 -135.714714 
L 479.935135 -136.141659 
L 480.772973 -136.283973 
L 481.610811 -136.995547 
L 482.448649 -137.707121 
L 483.286486 -137.849435 
L 484.124324 -137.849435 
L 484.962162 -138.276379 
L 485.8 -138.845638 
L 486.637838 -139.272582 
L 487.475676 -139.984156 
L 488.313514 -140.4111 
L 489.151351 -140.980359 
L 489.989189 -140.980359 
L 490.827027 -140.980359 
L 491.664865 -144.965171 
L 492.502703 -145.81906 
L 493.340541 -146.246004 
L 494.178378 -146.815263 
L 495.016216 -146.957577 
L 495.854054 -147.099892 
L 496.691892 -147.242207 
L 497.52973 -147.526836 
L 498.367568 -147.95378 
L 499.205405 -148.380725 
L 500.043243 -149.092298 
L 500.881081 -149.519242 
L 501.718919 -149.661557 
L 502.556757 -150.230816 
L 503.394595 -151.227019 
L 504.232432 -151.796278 
L 505.07027 -152.650166 
L 505.908108 -153.36174 
L 506.745946 -153.646369 
L 507.583784 -153.788684 
L 508.421622 -154.215628 
L 509.259459 -155.211831 
L 510.097297 -157.061923 
L 510.935135 -157.204237 
L 511.772973 -159.765902 
L 512.610811 -160.477476 
L 513.448649 -160.762105 
L 514.286486 -161.331364 
L 515.124324 -162.042938 
L 515.962162 -162.469882 
L 516.8 -163.039141 
L 517.637838 -163.6084 
L 518.475676 -163.893029 
L 519.313514 -164.035344 
L 520.151351 -164.319973 
L 520.989189 -164.746917 
L 521.827027 -165.031547 
L 522.664865 -165.316176 
L 523.502703 -165.600806 
L 524.340541 -165.743121 
L 525.178378 -165.743121 
L 526.016216 -166.170065 
L 526.854054 -166.312379 
L 527.691892 -167.023953 
L 528.52973 -167.450897 
L 529.367568 -168.020156 
L 530.205405 -168.304786 
L 531.043243 -168.4471 
L 531.881081 -168.874044 
L 532.718919 -169.300989 
L 533.556757 -169.443303 
L 534.394595 -169.727933 
L 535.232432 -169.870247 
L 536.07027 -169.870247 
L 536.908108 -169.870247 
L 537.745946 -170.724136 
L 538.583784 -171.15108 
L 539.421622 -171.435709 
L 540.259459 -171.862654 
L 541.097297 -172.289598 
L 541.935135 -172.858857 
L 542.772973 -173.001171 
L 543.610811 -173.143486 
L 544.448649 -173.428115 
L 545.286486 -173.712745 
L 546.124324 -173.997374 
L 546.962162 -174.139689 
L 547.8 -174.282004 
L 548.637838 -174.282004 
L 549.475676 -174.424319 
L 550.313514 -174.566633 
L 551.151351 -174.566633 
L 551.989189 -174.708948 
L 552.827027 -174.993577 
L 553.664865 -175.135892 
L 554.502703 -175.278207 
L 555.340541 -175.278207 
L 556.178378 -175.420522 
L 557.016216 -175.562836 
L 557.854054 -175.562836 
L 558.691892 -175.705151 
L 559.52973 -175.847466 
L 560.367568 -175.847466 
L 561.205405 -175.847466 
L 562.043243 -175.847466 
L 562.881081 -175.847466 
L 563.718919 -175.847466 
L 564.556757 -175.98978 
L 565.394595 -175.98978 
L 566.232432 -175.98978 
L 567.07027 -175.98978 
L 567.908108 -176.132095 
L 568.745946 -176.132095 
L 569.583784 -176.27441 
L 570.421622 -176.27441 
L 571.259459 -176.27441 
L 572.097297 -176.27441 
L 572.935135 -176.416725 
L 573.772973 -176.416725 
L 574.610811 -176.416725 
L 575.448649 -176.416725 
L 576.286486 -176.559039 
L 577.124324 -176.559039 
L 577.962162 -176.559039 
L 578.8 -176.559039 
L 579.637838 -176.559039 
L 580.475676 -176.701354 
L 581.313514 -176.701354 
L 582.151351 -176.843669 
L 582.989189 -176.843669 
L 583.827027 -176.843669 
L 584.664865 -176.843669 
L 585.502703 -176.985983 
L 586.340541 -176.985983 
L 587.178378 -176.985983 
L 587.178378 -53.88375 
L 587.178378 -53.88375 
L 586.340541 -53.88375 
L 585.502703 -53.88375 
L 584.664865 -53.88375 
L 583.827027 -53.88375 
L 582.989189 -53.88375 
L 582.151351 -53.88375 
L 581.313514 -53.88375 
L 580.475676 -53.88375 
L 579.637838 -53.88375 
L 578.8 -53.88375 
L 577.962162 -53.88375 
L 577.124324 -53.88375 
L 576.286486 -53.88375 
L 575.448649 -53.88375 
L 574.610811 -53.88375 
L 573.772973 -53.88375 
L 572.935135 -53.88375 
L 572.097297 -53.88375 
L 571.259459 -53.88375 
L 570.421622 -53.88375 
L 569.583784 -53.88375 
L 568.745946 -53.88375 
L 567.908108 -53.88375 
L 567.07027 -53.88375 
L 566.232432 -53.88375 
L 565.394595 -53.88375 
L 564.556757 -53.88375 
L 563.718919 -53.88375 
L 562.881081 -53.88375 
L 562.043243 -53.88375 
L 561.205405 -53.88375 
L 560.367568 -53.88375 
L 559.52973 -53.88375 
L 558.691892 -53.88375 
L 557.854054 -53.88375 
L 557.016216 -53.88375 
L 556.178378 -53.88375 
L 555.340541 -53.88375 
L 554.502703 -53.88375 
L 553.664865 -53.88375 
L 552.827027 -53.88375 
L 551.989189 -53.88375 
L 551.151351 -53.88375 
L 550.313514 -53.88375 
L 549.475676 -53.88375 
L 548.637838 -53.88375 
L 547.8 -53.88375 
L 546.962162 -53.88375 
L 546.124324 -53.88375 
L 545.286486 -53.88375 
L 544.448649 -53.88375 
L 543.610811 -53.88375 
L 542.772973 -53.88375 
L 541.935135 -53.88375 
L 541.097297 -53.88375 
L 540.259459 -53.88375 
L 539.421622 -53.88375 
L 538.583784 -53.88375 
L 537.745946 -53.88375 
L 536.908108 -53.88375 
L 536.07027 -53.88375 
L 535.232432 -53.88375 
L 534.394595 -53.88375 
L 533.556757 -53.88375 
L 532.718919 -53.88375 
L 531.881081 -53.88375 
L 531.043243 -53.88375 
L 530.205405 -53.88375 
L 529.367568 -53.88375 
L 528.52973 -53.88375 
L 527.691892 -53.88375 
L 526.854054 -53.88375 
L 526.016216 -53.88375 
L 525.178378 -53.88375 
L 524.340541 -53.88375 
L 523.502703 -53.88375 
L 522.664865 -53.88375 
L 521.827027 -53.88375 
L 520.989189 -53.88375 
L 520.151351 -53.88375 
L 519.313514 -53.88375 
L 518.475676 -53.88375 
L 517.637838 -53.88375 
L 516.8 -53.88375 
L 515.962162 -53.88375 
L 515.124324 -53.88375 
L 514.286486 -53.88375 
L 513.448649 -53.88375 
L 512.610811 -53.88375 
L 511.772973 -53.88375 
L 510.935135 -53.88375 
L 510.097297 -53.88375 
L 509.259459 -53.88375 
L 508.421622 -53.88375 
L 507.583784 -53.88375 
L 506.745946 -53.88375 
L 505.908108 -53.88375 
L 505.07027 -53.88375 
L 504.232432 -53.88375 
L 503.394595 -53.88375 
L 502.556757 -53.88375 
L 501.718919 -53.88375 
L 500.881081 -53.88375 
L 500.043243 -53.88375 
L 499.205405 -53.88375 
L 498.367568 -53.88375 
L 497.52973 -53.88375 
L 496.691892 -53.88375 
L 495.854054 -53.88375 
L 495.016216 -53.88375 
L 494.178378 -53.88375 
L 493.340541 -53.88375 
L 492.502703 -53.88375 
L 491.664865 -53.88375 
L 490.827027 -53.88375 
L 489.989189 -53.88375 
L 489.151351 -53.88375 
L 488.313514 -53.88375 
L 487.475676 -53.88375 
L 486.637838 -53.88375 
L 485.8 -53.88375 
L 484.962162 -53.88375 
L 484.124324 -53.88375 
L 483.286486 -53.88375 
L 482.448649 -53.88375 
L 481.610811 -53.88375 
L 480.772973 -53.88375 
L 479.935135 -53.88375 
L 479.097297 -53.88375 
L 478.259459 -53.88375 
L 477.421622 -53.88375 
L 476.583784 -53.88375 
L 475.745946 -53.88375 
L 474.908108 -53.88375 
L 474.07027 -53.88375 
L 473.232432 -53.88375 
L 472.394595 -53.88375 
L 471.556757 -53.88375 
L 470.718919 -53.88375 
L 469.881081 -53.88375 
L 469.043243 -53.88375 
L 468.205405 -53.88375 
L 467.367568 -53.88375 
L 466.52973 -53.88375 
L 465.691892 -53.88375 
L 464.854054 -53.88375 
L 464.016216 -53.88375 
L 463.178378 -53.88375 
L 462.340541 -53.88375 
L 461.502703 -53.88375 
L 460.664865 -53.88375 
L 459.827027 -53.88375 
L 458.989189 -53.88375 
L 458.151351 -53.88375 
L 457.313514 -53.88375 
L 456.475676 -53.88375 
L 455.637838 -53.88375 
L 454.8 -53.88375 
L 453.962162 -53.88375 
L 453.124324 -53.88375 
L 452.286486 -53.88375 
L 451.448649 -53.88375 
L 450.610811 -53.88375 
L 449.772973 -53.88375 
L 448.935135 -53.88375 
L 448.097297 -53.88375 
L 447.259459 -53.88375 
L 446.421622 -53.88375 
L 445.583784 -53.88375 
L 444.745946 -53.88375 
L 443.908108 -53.88375 
L 443.07027 -53.88375 
L 442.232432 -53.88375 
L 441.394595 -53.88375 
L 440.556757 -53.88375 
L 439.718919 -53.88375 
L 438.881081 -53.88375 
L 438.043243 -53.88375 
L 437.205405 -53.88375 
L 436.367568 -53.88375 
L 435.52973 -53.88375 
L 434.691892 -53.88375 
L 433.854054 -53.88375 
L 433.016216 -53.88375 
L 432.178378 -53.88375 
L 431.340541 -53.88375 
L 430.502703 -53.88375 
L 429.664865 -53.88375 
L 428.827027 -53.88375 
L 427.989189 -53.88375 
L 427.151351 -53.88375 
L 426.313514 -53.88375 
L 425.475676 -53.88375 
L 424.637838 -53.88375 
L 423.8 -53.88375 
L 422.962162 -53.88375 
L 422.124324 -53.88375 
L 421.286486 -53.88375 
L 420.448649 -53.88375 
L 419.610811 -53.88375 
L 418.772973 -53.88375 
L 417.935135 -53.88375 
L 417.097297 -53.88375 
L 416.259459 -53.88375 
L 415.421622 -53.88375 
L 414.583784 -53.88375 
L 413.745946 -53.88375 
L 412.908108 -53.88375 
L 412.07027 -53.88375 
L 411.232432 -53.88375 
L 410.394595 -53.88375 
L 409.556757 -53.88375 
L 408.718919 -53.88375 
L 407.881081 -53.88375 
L 407.043243 -53.88375 
L 406.205405 -53.88375 
L 405.367568 -53.88375 
L 404.52973 -53.88375 
L 403.691892 -53.88375 
L 402.854054 -53.88375 
L 402.016216 -53.88375 
L 401.178378 -53.88375 
L 400.340541 -53.88375 
L 399.502703 -53.88375 
L 398.664865 -53.88375 
L 397.827027 -53.88375 
L 396.989189 -53.88375 
L 396.151351 -53.88375 
L 395.313514 -53.88375 
L 394.475676 -53.88375 
L 393.637838 -53.88375 
L 392.8 -53.88375 
L 391.962162 -53.88375 
L 391.124324 -53.88375 
L 390.286486 -53.88375 
L 389.448649 -53.88375 
L 388.610811 -53.88375 
L 387.772973 -53.88375 
L 386.935135 -53.88375 
L 386.097297 -53.88375 
L 385.259459 -53.88375 
z
" style="stroke: #f08080; stroke-opacity: 0.8"/>
    </defs>
    <g clip-path="url(#pc7f8bd97de)">
     <use xlink:href="#mc401e58b91" x="0" y="340.273125" style="fill: #f08080; fill-opacity: 0.8; stroke: #f08080; stroke-opacity: 0.8"/>
    </g>
   </g>
   <g id="PolyCollection_2">
    <defs>
     <path id="mf58f073d47" d="M 385.259459 -53.88375 
L 385.259459 -61.201662 
L 386.097297 -61.423676 
L 386.935135 -61.401062 
L 387.772973 -61.468616 
L 388.610811 -61.128586 
L 389.448649 -61.380438 
L 390.286486 -61.479145 
L 391.124324 -61.406034 
L 391.962162 -61.529999 
L 392.8 -61.571985 
L 393.637838 -62.455732 
L 394.475676 -61.990126 
L 395.313514 -62.000291 
L 396.151351 -62.000291 
L 396.989189 -62.446615 
L 397.827027 -62.69847 
L 398.664865 -63.044761 
L 399.502703 -63.477297 
L 400.340541 -63.50616 
L 401.178378 -63.538627 
L 402.016216 -63.589127 
L 402.854054 -63.758671 
L 403.691892 -64.041017 
L 404.52973 -64.561105 
L 405.367568 -65.014295 
L 406.205405 -65.45601 
L 407.043243 -66.088245 
L 407.881081 -66.111855 
L 408.718919 -66.642109 
L 409.556757 -67.156954 
L 410.394595 -67.94758 
L 411.232432 -69.02547 
L 412.07027 -70.309943 
L 412.908108 -70.690662 
L 413.745946 -70.775593 
L 414.583784 -71.162224 
L 415.421622 -71.709869 
L 416.259459 -71.873508 
L 417.097297 -72.751033 
L 417.935135 -73.262604 
L 418.772973 -73.554463 
L 419.610811 -73.628901 
L 420.448649 -73.946665 
L 421.286486 -74.340835 
L 422.124324 -74.340835 
L 422.962162 -75.495793 
L 423.8 -76.091631 
L 424.637838 -76.050972 
L 425.475676 -76.153942 
L 426.313514 -76.44022 
L 427.151351 -76.657631 
L 427.989189 -76.970155 
L 428.827027 -77.202019 
L 429.664865 -77.716222 
L 430.502703 -77.779189 
L 431.340541 -77.779189 
L 432.178378 -78.02907 
L 433.016216 -78.254689 
L 433.854054 -78.36783 
L 434.691892 -78.434085 
L 435.52973 -78.357039 
L 436.367568 -78.438378 
L 437.205405 -78.438378 
L 438.043243 -78.479049 
L 438.881081 -78.536763 
L 439.718919 -78.755826 
L 440.556757 -79.094595 
L 441.394595 -79.412034 
L 442.232432 -79.587477 
L 443.07027 -79.970164 
L 443.908108 -80.581745 
L 444.745946 -81.129382 
L 445.583784 -81.466166 
L 446.421622 -82.038403 
L 447.259459 -82.357151 
L 448.097297 -82.641798 
L 448.935135 -82.597859 
L 449.772973 -82.937597 
L 450.610811 -83.082544 
L 451.448649 -83.291444 
L 452.286486 -83.376382 
L 453.124324 -83.576428 
L 453.962162 -83.683009 
L 454.8 -83.644651 
L 455.637838 -83.743686 
L 456.475676 -83.770262 
L 457.313514 -83.811267 
L 458.151351 -83.86572 
L 458.989189 -84.033299 
L 459.827027 -83.931327 
L 460.664865 -83.831979 
L 461.502703 -83.864449 
L 462.340541 -83.919549 
L 463.178378 -83.930388 
L 464.016216 -84.054696 
L 464.854054 -84.010445 
L 465.691892 -84.03734 
L 466.52973 -84.03734 
L 467.367568 -84.03734 
L 468.205405 -84.198154 
L 469.043243 -84.203428 
L 469.881081 -84.227723 
L 470.718919 -84.177903 
L 471.556757 -84.312025 
L 472.394595 -84.469832 
L 473.232432 -84.325225 
L 474.07027 -84.405932 
L 474.908108 -84.563357 
L 475.745946 -84.663063 
L 476.583784 -84.803762 
L 477.421622 -85.08349 
L 478.259459 -85.070051 
L 479.097297 -85.225176 
L 479.935135 -85.480307 
L 480.772973 -85.703952 
L 481.610811 -86.384731 
L 482.448649 -87.172083 
L 483.286486 -87.234391 
L 484.124324 -87.370151 
L 484.962162 -87.637743 
L 485.8 -88.297859 
L 486.637838 -88.909113 
L 487.475676 -89.685316 
L 488.313514 -89.961435 
L 489.151351 -90.089008 
L 489.989189 -90.089008 
L 490.827027 -90.089008 
L 491.664865 -91.027272 
L 492.502703 -91.845124 
L 493.340541 -93.108613 
L 494.178378 -93.61395 
L 495.016216 -94.062877 
L 495.854054 -94.016971 
L 496.691892 -94.718397 
L 497.52973 -95.84973 
L 498.367568 -96.746275 
L 499.205405 -97.703157 
L 500.043243 -98.812528 
L 500.881081 -99.059789 
L 501.718919 -99.143084 
L 502.556757 -99.431994 
L 503.394595 -100.052769 
L 504.232432 -100.519084 
L 505.07027 -101.40416 
L 505.908108 -102.572557 
L 506.745946 -103.106419 
L 507.583784 -103.182171 
L 508.421622 -103.755714 
L 509.259459 -104.010529 
L 510.097297 -104.925139 
L 510.935135 -105.049096 
L 511.772973 -106.610052 
L 512.610811 -107.456103 
L 513.448649 -108.11687 
L 514.286486 -108.78584 
L 515.124324 -109.98998 
L 515.962162 -110.6255 
L 516.8 -111.86702 
L 517.637838 -112.634695 
L 518.475676 -113.215777 
L 519.313514 -113.397776 
L 520.151351 -113.917864 
L 520.989189 -114.717016 
L 521.827027 -115.873599 
L 522.664865 -117.403356 
L 523.502703 -118.912454 
L 524.340541 -119.500091 
L 525.178378 -119.622734 
L 526.016216 -119.935579 
L 526.854054 -120.755384 
L 527.691892 -121.965427 
L 528.52973 -122.53569 
L 529.367568 -123.945434 
L 530.205405 -124.903297 
L 531.043243 -125.030205 
L 531.881081 -125.872971 
L 532.718919 -127.103339 
L 533.556757 -128.347474 
L 534.394595 -129.484709 
L 535.232432 -130.820662 
L 536.07027 -131.191213 
L 536.908108 -131.191213 
L 537.745946 -134.15498 
L 538.583784 -135.667032 
L 539.421622 -136.569148 
L 540.259459 -137.995941 
L 541.097297 -139.352231 
L 541.935135 -140.461599 
L 542.772973 -140.58654 
L 543.610811 -141.358468 
L 544.448649 -142.195656 
L 545.286486 -142.92791 
L 546.124324 -144.109087 
L 546.962162 -145.309608 
L 547.8 -145.941187 
L 548.637838 -146.097277 
L 549.475676 -146.779683 
L 550.313514 -147.671959 
L 551.151351 -148.855426 
L 551.989189 -149.886084 
L 552.827027 -150.533078 
L 553.664865 -151.344685 
L 554.502703 -151.411912 
L 555.340541 -151.829355 
L 556.178378 -152.313369 
L 557.016216 -153.421089 
L 557.854054 -154.664893 
L 558.691892 -155.749002 
L 559.52973 -156.651116 
L 560.367568 -156.821307 
L 561.205405 -156.892466 
L 562.043243 -156.967231 
L 562.881081 -157.624713 
L 563.718919 -158.674716 
L 564.556757 -159.35581 
L 565.394595 -159.801783 
L 566.232432 -159.97722 
L 567.07027 -160.717994 
L 567.908108 -161.635847 
L 568.745946 -162.623545 
L 569.583784 -163.739135 
L 570.421622 -164.850787 
L 571.259459 -165.830942 
L 572.097297 -165.953585 
L 572.935135 -166.738958 
L 573.772973 -168.188369 
L 574.610811 -168.866837 
L 575.448649 -169.851256 
L 576.286486 -170.967501 
L 577.124324 -172.866819 
L 577.962162 -173.563323 
L 578.8 -173.661044 
L 579.637838 -173.789261 
L 580.475676 -174.308034 
L 581.313514 -175.206538 
L 582.151351 -176.288352 
L 582.989189 -178.694963 
L 583.827027 -179.102241 
L 584.664865 -179.838751 
L 585.502703 -180.745456 
L 586.340541 -181.784309 
L 587.178378 -182.781517 
L 587.178378 -53.88375 
L 587.178378 -53.88375 
L 586.340541 -53.88375 
L 585.502703 -53.88375 
L 584.664865 -53.88375 
L 583.827027 -53.88375 
L 582.989189 -53.88375 
L 582.151351 -53.88375 
L 581.313514 -53.88375 
L 580.475676 -53.88375 
L 579.637838 -53.88375 
L 578.8 -53.88375 
L 577.962162 -53.88375 
L 577.124324 -53.88375 
L 576.286486 -53.88375 
L 575.448649 -53.88375 
L 574.610811 -53.88375 
L 573.772973 -53.88375 
L 572.935135 -53.88375 
L 572.097297 -53.88375 
L 571.259459 -53.88375 
L 570.421622 -53.88375 
L 569.583784 -53.88375 
L 568.745946 -53.88375 
L 567.908108 -53.88375 
L 567.07027 -53.88375 
L 566.232432 -53.88375 
L 565.394595 -53.88375 
L 564.556757 -53.88375 
L 563.718919 -53.88375 
L 562.881081 -53.88375 
L 562.043243 -53.88375 
L 561.205405 -53.88375 
L 560.367568 -53.88375 
L 559.52973 -53.88375 
L 558.691892 -53.88375 
L 557.854054 -53.88375 
L 557.016216 -53.88375 
L 556.178378 -53.88375 
L 555.340541 -53.88375 
L 554.502703 -53.88375 
L 553.664865 -53.88375 
L 552.827027 -53.88375 
L 551.989189 -53.88375 
L 551.151351 -53.88375 
L 550.313514 -53.88375 
L 549.475676 -53.88375 
L 548.637838 -53.88375 
L 547.8 -53.88375 
L 546.962162 -53.88375 
L 546.124324 -53.88375 
L 545.286486 -53.88375 
L 544.448649 -53.88375 
L 543.610811 -53.88375 
L 542.772973 -53.88375 
L 541.935135 -53.88375 
L 541.097297 -53.88375 
L 540.259459 -53.88375 
L 539.421622 -53.88375 
L 538.583784 -53.88375 
L 537.745946 -53.88375 
L 536.908108 -53.88375 
L 536.07027 -53.88375 
L 535.232432 -53.88375 
L 534.394595 -53.88375 
L 533.556757 -53.88375 
L 532.718919 -53.88375 
L 531.881081 -53.88375 
L 531.043243 -53.88375 
L 530.205405 -53.88375 
L 529.367568 -53.88375 
L 528.52973 -53.88375 
L 527.691892 -53.88375 
L 526.854054 -53.88375 
L 526.016216 -53.88375 
L 525.178378 -53.88375 
L 524.340541 -53.88375 
L 523.502703 -53.88375 
L 522.664865 -53.88375 
L 521.827027 -53.88375 
L 520.989189 -53.88375 
L 520.151351 -53.88375 
L 519.313514 -53.88375 
L 518.475676 -53.88375 
L 517.637838 -53.88375 
L 516.8 -53.88375 
L 515.962162 -53.88375 
L 515.124324 -53.88375 
L 514.286486 -53.88375 
L 513.448649 -53.88375 
L 512.610811 -53.88375 
L 511.772973 -53.88375 
L 510.935135 -53.88375 
L 510.097297 -53.88375 
L 509.259459 -53.88375 
L 508.421622 -53.88375 
L 507.583784 -53.88375 
L 506.745946 -53.88375 
L 505.908108 -53.88375 
L 505.07027 -53.88375 
L 504.232432 -53.88375 
L 503.394595 -53.88375 
L 502.556757 -53.88375 
L 501.718919 -53.88375 
L 500.881081 -53.88375 
L 500.043243 -53.88375 
L 499.205405 -53.88375 
L 498.367568 -53.88375 
L 497.52973 -53.88375 
L 496.691892 -53.88375 
L 495.854054 -53.88375 
L 495.016216 -53.88375 
L 494.178378 -53.88375 
L 493.340541 -53.88375 
L 492.502703 -53.88375 
L 491.664865 -53.88375 
L 490.827027 -53.88375 
L 489.989189 -53.88375 
L 489.151351 -53.88375 
L 488.313514 -53.88375 
L 487.475676 -53.88375 
L 486.637838 -53.88375 
L 485.8 -53.88375 
L 484.962162 -53.88375 
L 484.124324 -53.88375 
L 483.286486 -53.88375 
L 482.448649 -53.88375 
L 481.610811 -53.88375 
L 480.772973 -53.88375 
L 479.935135 -53.88375 
L 479.097297 -53.88375 
L 478.259459 -53.88375 
L 477.421622 -53.88375 
L 476.583784 -53.88375 
L 475.745946 -53.88375 
L 474.908108 -53.88375 
L 474.07027 -53.88375 
L 473.232432 -53.88375 
L 472.394595 -53.88375 
L 471.556757 -53.88375 
L 470.718919 -53.88375 
L 469.881081 -53.88375 
L 469.043243 -53.88375 
L 468.205405 -53.88375 
L 467.367568 -53.88375 
L 466.52973 -53.88375 
L 465.691892 -53.88375 
L 464.854054 -53.88375 
L 464.016216 -53.88375 
L 463.178378 -53.88375 
L 462.340541 -53.88375 
L 461.502703 -53.88375 
L 460.664865 -53.88375 
L 459.827027 -53.88375 
L 458.989189 -53.88375 
L 458.151351 -53.88375 
L 457.313514 -53.88375 
L 456.475676 -53.88375 
L 455.637838 -53.88375 
L 454.8 -53.88375 
L 453.962162 -53.88375 
L 453.124324 -53.88375 
L 452.286486 -53.88375 
L 451.448649 -53.88375 
L 450.610811 -53.88375 
L 449.772973 -53.88375 
L 448.935135 -53.88375 
L 448.097297 -53.88375 
L 447.259459 -53.88375 
L 446.421622 -53.88375 
L 445.583784 -53.88375 
L 444.745946 -53.88375 
L 443.908108 -53.88375 
L 443.07027 -53.88375 
L 442.232432 -53.88375 
L 441.394595 -53.88375 
L 440.556757 -53.88375 
L 439.718919 -53.88375 
L 438.881081 -53.88375 
L 438.043243 -53.88375 
L 437.205405 -53.88375 
L 436.367568 -53.88375 
L 435.52973 -53.88375 
L 434.691892 -53.88375 
L 433.854054 -53.88375 
L 433.016216 -53.88375 
L 432.178378 -53.88375 
L 431.340541 -53.88375 
L 430.502703 -53.88375 
L 429.664865 -53.88375 
L 428.827027 -53.88375 
L 427.989189 -53.88375 
L 427.151351 -53.88375 
L 426.313514 -53.88375 
L 425.475676 -53.88375 
L 424.637838 -53.88375 
L 423.8 -53.88375 
L 422.962162 -53.88375 
L 422.124324 -53.88375 
L 421.286486 -53.88375 
L 420.448649 -53.88375 
L 419.610811 -53.88375 
L 418.772973 -53.88375 
L 417.935135 -53.88375 
L 417.097297 -53.88375 
L 416.259459 -53.88375 
L 415.421622 -53.88375 
L 414.583784 -53.88375 
L 413.745946 -53.88375 
L 412.908108 -53.88375 
L 412.07027 -53.88375 
L 411.232432 -53.88375 
L 410.394595 -53.88375 
L 409.556757 -53.88375 
L 408.718919 -53.88375 
L 407.881081 -53.88375 
L 407.043243 -53.88375 
L 406.205405 -53.88375 
L 405.367568 -53.88375 
L 404.52973 -53.88375 
L 403.691892 -53.88375 
L 402.854054 -53.88375 
L 402.016216 -53.88375 
L 401.178378 -53.88375 
L 400.340541 -53.88375 
L 399.502703 -53.88375 
L 398.664865 -53.88375 
L 397.827027 -53.88375 
L 396.989189 -53.88375 
L 396.151351 -53.88375 
L 395.313514 -53.88375 
L 394.475676 -53.88375 
L 393.637838 -53.88375 
L 392.8 -53.88375 
L 391.962162 -53.88375 
L 391.124324 -53.88375 
L 390.286486 -53.88375 
L 389.448649 -53.88375 
L 388.610811 -53.88375 
L 387.772973 -53.88375 
L 386.935135 -53.88375 
L 386.097297 -53.88375 
L 385.259459 -53.88375 
z
" style="stroke: #90ee90; stroke-opacity: 0.8"/>
    </defs>
    <g clip-path="url(#pc7f8bd97de)">
     <use xlink:href="#mf58f073d47" x="0" y="340.273125" style="fill: #90ee90; fill-opacity: 0.8; stroke: #90ee90; stroke-opacity: 0.8"/>
    </g>
   </g>
   <g id="line2d_37">
    <path d="M 362.637838 276.223827 
L 363.475676 274.977072 
L 365.151351 274.557989 
L 365.989189 274.192685 
L 368.502703 273.654567 
L 371.016216 273.554223 
L 371.854054 272.267461 
L 372.691892 271.57522 
L 373.52973 271.260744 
L 374.367568 269.458819 
L 375.205405 268.062204 
L 376.043243 267.511952 
L 376.881081 266.173379 
L 377.718919 265.606732 
L 378.556757 265.552625 
L 379.394595 265.184042 
L 381.07027 264.282587 
L 381.908108 264.282587 
L 382.745946 262.704304 
L 384.421622 262.596746 
L 386.097297 261.060109 
L 386.935135 260.513464 
L 387.772973 260.303595 
L 389.448649 258.826311 
L 390.286486 258.58529 
L 392.8 256.642358 
L 393.637838 255.758611 
L 394.475676 254.231812 
L 396.151351 254.221646 
L 396.989189 252.636804 
L 397.827027 251.81569 
L 398.664865 251.184771 
L 399.502703 250.32529 
L 400.340541 250.011798 
L 401.178378 249.837016 
L 402.016216 249.786516 
L 403.691892 248.623052 
L 404.52973 247.818335 
L 406.205405 246.496485 
L 407.043243 245.721936 
L 407.881081 245.698326 
L 409.556757 243.941654 
L 410.394595 242.724083 
L 412.07027 239.365517 
L 412.908108 238.842484 
L 413.745946 238.757552 
L 414.583784 237.801663 
L 415.421622 236.400129 
L 416.259459 235.951861 
L 417.935135 233.424247 
L 418.772973 232.705444 
L 419.610811 232.631006 
L 421.286486 231.065184 
L 422.124324 231.065184 
L 422.962162 228.914022 
L 423.8 228.033555 
L 424.637838 227.931899 
L 425.475676 227.686614 
L 426.313514 227.258022 
L 427.151351 227.04061 
L 427.989189 226.016513 
L 428.827027 224.646132 
L 429.664865 222.993411 
L 430.502703 222.645814 
L 431.340541 222.645814 
L 433.854054 220.918655 
L 436.367568 218.713387 
L 437.205405 218.713387 
L 438.043243 218.245772 
L 438.881081 218.188058 
L 439.718919 217.399736 
L 440.556757 215.780134 
L 441.394595 214.893436 
L 443.07027 213.908362 
L 444.745946 211.895255 
L 445.583784 211.131528 
L 446.421622 209.847717 
L 448.097297 208.248119 
L 448.935135 208.149743 
L 449.772973 207.240746 
L 450.610811 206.81117 
L 451.448649 205.890696 
L 452.286486 205.521129 
L 453.124324 204.609509 
L 454.8 203.829713 
L 455.637838 203.588363 
L 457.313514 202.097635 
L 458.151351 201.189294 
L 458.989189 200.452456 
L 460.664865 199.515258 
L 461.502703 199.198158 
L 462.340541 198.716114 
L 463.178378 197.851387 
L 464.016216 196.446246 
L 464.854054 195.636609 
L 465.691892 195.325084 
L 467.367568 195.325084 
L 468.205405 188.760108 
L 470.718919 184.937862 
L 471.556757 184.661424 
L 472.394595 180.803435 
L 473.232432 180.663413 
L 474.07027 178.732614 
L 474.908108 177.436671 
L 475.745946 176.483077 
L 476.583784 175.346175 
L 477.421622 174.497188 
L 478.259459 174.225998 
L 479.097297 173.216985 
L 479.935135 172.534909 
L 480.772973 172.16895 
L 482.448649 169.277671 
L 484.124324 168.937289 
L 484.962162 168.242753 
L 487.475676 164.487403 
L 489.151351 163.087508 
L 490.827027 163.087508 
L 491.664865 158.164432 
L 493.340541 154.802259 
L 494.178378 153.727662 
L 495.016216 153.13642 
L 495.854054 153.040012 
L 496.691892 152.196271 
L 499.205405 148.072994 
L 500.043243 146.252049 
L 500.881081 145.577844 
L 501.718919 145.352234 
L 502.556757 144.494065 
L 503.394595 142.877087 
L 504.232432 141.841513 
L 505.908108 138.222578 
L 506.745946 137.404087 
L 507.583784 137.18602 
L 508.421622 136.185533 
L 509.259459 134.934515 
L 510.097297 132.169814 
L 510.935135 131.903542 
L 511.772973 127.78092 
L 512.610811 126.223296 
L 513.448649 125.2779 
L 514.286486 124.039671 
L 515.124324 122.123957 
L 515.962162 121.061493 
L 516.8 119.250714 
L 517.637838 117.91378 
L 518.475676 117.048069 
L 519.313514 116.723755 
L 520.151351 115.919038 
L 520.989189 114.692941 
L 521.827027 113.251729 
L 523.502703 109.643615 
L 524.340541 108.913663 
L 525.178378 108.791021 
L 526.016216 108.051231 
L 526.854054 107.089111 
L 527.691892 105.167495 
L 528.52973 104.170287 
L 529.367568 102.191285 
L 530.205405 100.948792 
L 531.043243 100.679569 
L 531.881081 99.40986 
L 532.718919 97.752547 
L 535.232432 93.465965 
L 536.07027 93.095415 
L 536.908108 93.095415 
L 537.745946 89.27776 
L 538.583784 87.338763 
L 539.421622 86.152018 
L 541.935135 80.83642 
L 542.772973 80.569164 
L 543.610811 79.654921 
L 545.286486 77.516221 
L 546.962162 74.707578 
L 547.8 73.933685 
L 548.637838 73.777594 
L 549.475676 72.952873 
L 551.151351 70.734816 
L 551.989189 69.561843 
L 553.664865 67.676298 
L 554.502703 67.466757 
L 555.340541 67.049313 
L 556.178378 66.422984 
L 558.691892 62.702722 
L 559.52973 61.658294 
L 561.205405 61.416944 
L 562.043243 61.342178 
L 562.881081 60.684696 
L 563.718919 59.634694 
L 564.556757 58.811284 
L 565.394595 58.365312 
L 566.232432 58.189874 
L 567.07027 57.449101 
L 571.259459 52.051523 
L 572.097297 51.92888 
L 572.935135 51.001192 
L 573.772973 49.551782 
L 574.610811 48.873313 
L 575.448649 47.888895 
L 576.286486 46.630334 
L 577.124324 44.731017 
L 577.962162 44.034513 
L 579.637838 43.808575 
L 580.475676 43.147486 
L 581.313514 42.248983 
L 582.151351 41.024854 
L 582.989189 38.618243 
L 583.827027 38.210965 
L 584.664865 37.474455 
L 587.178378 34.389375 
L 587.178378 34.389375 
" clip-path="url(#pc7f8bd97de)" style="fill: none; stroke: #1f77b4; stroke-width: 1.5; stroke-linecap: round"/>
   </g>
   <g id="line2d_38">
    <path d="M 385.259459 269.169294 
L 386.935135 268.030776 
L 387.772973 267.888461 
L 388.610811 266.749944 
L 389.448649 266.322999 
L 390.286486 266.180685 
L 391.962162 264.899852 
L 392.8 264.330593 
L 393.637838 264.330593 
L 394.475676 262.338187 
L 396.151351 262.338187 
L 396.989189 261.199669 
L 397.827027 260.630411 
L 398.664865 260.345781 
L 399.502703 259.918837 
L 400.340541 259.634207 
L 401.178378 259.491893 
L 402.016216 259.491893 
L 402.854054 259.064949 
L 404.52973 258.49569 
L 405.367568 258.353375 
L 406.205405 258.068746 
L 407.043243 257.926431 
L 407.881081 257.926431 
L 408.718919 257.641801 
L 410.394595 256.787913 
L 411.232432 256.076339 
L 412.07027 255.79171 
L 412.908108 255.649395 
L 413.745946 255.649395 
L 414.583784 255.080136 
L 415.421622 254.226248 
L 416.259459 253.941619 
L 417.097297 253.514674 
L 417.935135 252.803101 
L 418.772973 252.376157 
L 419.610811 252.376157 
L 421.286486 251.522268 
L 422.124324 251.522268 
L 422.962162 250.526065 
L 423.8 250.241436 
L 426.313514 249.814492 
L 427.151351 249.814492 
L 427.989189 249.102918 
L 429.664865 246.825883 
L 430.502703 246.541253 
L 431.340541 246.541253 
L 432.178378 246.256624 
L 433.854054 245.402735 
L 436.367568 243.268015 
L 437.205405 243.268015 
L 438.043243 242.84107 
L 438.881081 242.84107 
L 439.718919 242.271812 
L 440.556757 240.990979 
L 441.394595 240.42172 
L 442.232432 240.137091 
L 443.07027 239.994776 
L 445.583784 238.713944 
L 446.421622 238.00237 
L 447.259459 237.575426 
L 448.097297 237.006167 
L 448.935135 236.863852 
L 449.772973 236.294593 
L 450.610811 236.009964 
L 451.448649 235.29839 
L 452.286486 235.013761 
L 453.124324 234.302187 
L 453.962162 234.017558 
L 454.8 233.590614 
L 455.637838 233.448299 
L 459.827027 230.032746 
L 460.664865 229.463487 
L 461.502703 229.178857 
L 462.340541 228.751913 
L 463.178378 227.898025 
L 464.016216 226.617192 
L 464.854054 225.763304 
L 465.691892 225.478675 
L 467.367568 225.478675 
L 468.205405 219.074512 
L 470.718919 215.232015 
L 471.556757 215.0897 
L 472.394595 211.389517 
L 473.232432 211.104888 
L 474.07027 209.254796 
L 474.908108 208.116279 
L 477.421622 205.696928 
L 478.259459 205.412299 
L 479.097297 204.558411 
L 479.935135 204.131466 
L 480.772973 203.989152 
L 482.448649 202.566004 
L 483.286486 202.42369 
L 484.124324 202.42369 
L 484.962162 201.996746 
L 485.8 201.427487 
L 486.637838 201.000543 
L 487.475676 200.288969 
L 488.313514 199.862025 
L 489.151351 199.292766 
L 490.827027 199.292766 
L 491.664865 195.307954 
L 492.502703 194.454065 
L 493.340541 194.027121 
L 494.178378 193.457862 
L 496.691892 193.030918 
L 497.52973 192.746289 
L 499.205405 191.8924 
L 500.043243 191.180827 
L 500.881081 190.753883 
L 501.718919 190.611568 
L 502.556757 190.042309 
L 503.394595 189.046106 
L 504.232432 188.476847 
L 505.908108 186.911385 
L 506.745946 186.626756 
L 507.583784 186.484441 
L 508.421622 186.057497 
L 509.259459 185.061294 
L 510.097297 183.211202 
L 510.935135 183.068888 
L 511.772973 180.507223 
L 512.610811 179.795649 
L 513.448649 179.51102 
L 514.286486 178.941761 
L 515.124324 178.230187 
L 515.962162 177.803243 
L 517.637838 176.664725 
L 518.475676 176.380096 
L 519.313514 176.237781 
L 520.151351 175.953152 
L 520.989189 175.526208 
L 523.502703 174.672319 
L 524.340541 174.530004 
L 525.178378 174.530004 
L 526.016216 174.10306 
L 526.854054 173.960746 
L 527.691892 173.249172 
L 528.52973 172.822228 
L 529.367568 172.252969 
L 530.205405 171.968339 
L 531.043243 171.826025 
L 532.718919 170.972136 
L 533.556757 170.829822 
L 534.394595 170.545192 
L 535.232432 170.402878 
L 536.908108 170.402878 
L 537.745946 169.548989 
L 538.583784 169.122045 
L 539.421622 168.837416 
L 541.097297 167.983527 
L 541.935135 167.414268 
L 543.610811 167.129639 
L 546.124324 166.275751 
L 547.8 165.991121 
L 548.637838 165.991121 
L 550.313514 165.706492 
L 551.151351 165.706492 
L 551.989189 165.564177 
L 552.827027 165.279548 
L 554.502703 164.994918 
L 555.340541 164.994918 
L 557.016216 164.710289 
L 557.854054 164.710289 
L 559.52973 164.425659 
L 563.718919 164.425659 
L 564.556757 164.283345 
L 567.07027 164.283345 
L 567.908108 164.14103 
L 568.745946 164.14103 
L 569.583784 163.998715 
L 572.097297 163.998715 
L 572.935135 163.8564 
L 575.448649 163.8564 
L 576.286486 163.714086 
L 579.637838 163.714086 
L 580.475676 163.571771 
L 581.313514 163.571771 
L 582.151351 163.429456 
L 584.664865 163.429456 
L 585.502703 163.287142 
L 587.178378 163.287142 
L 587.178378 163.287142 
" clip-path="url(#pc7f8bd97de)" style="fill: none; stroke: #f08080; stroke-width: 1.5; stroke-linecap: round"/>
   </g>
   <g id="line2d_39">
    <path d="M 385.259459 279.071463 
L 386.097297 278.849449 
L 387.772973 278.804509 
L 388.610811 279.144539 
L 389.448649 278.892687 
L 390.286486 278.79398 
L 391.124324 278.867091 
L 392.8 278.70114 
L 393.637838 277.817393 
L 394.475676 278.282999 
L 396.151351 278.272834 
L 396.989189 277.82651 
L 398.664865 277.228364 
L 399.502703 276.795828 
L 402.016216 276.683998 
L 403.691892 276.232108 
L 405.367568 275.25883 
L 406.205405 274.817115 
L 407.043243 274.18488 
L 407.881081 274.16127 
L 409.556757 273.116171 
L 410.394595 272.325545 
L 411.232432 271.247655 
L 412.07027 269.963182 
L 412.908108 269.582463 
L 413.745946 269.497532 
L 414.583784 269.110901 
L 415.421622 268.563256 
L 416.259459 268.399617 
L 417.097297 267.522092 
L 417.935135 267.010521 
L 418.772973 266.718662 
L 419.610811 266.644224 
L 421.286486 265.93229 
L 422.124324 265.93229 
L 422.962162 264.777332 
L 423.8 264.181494 
L 424.637838 264.222153 
L 425.475676 264.119183 
L 428.827027 263.071106 
L 429.664865 262.556903 
L 431.340541 262.493936 
L 433.016216 262.018436 
L 434.691892 261.83904 
L 435.52973 261.916086 
L 437.205405 261.834747 
L 438.881081 261.736362 
L 439.718919 261.517299 
L 441.394595 260.861091 
L 442.232432 260.685648 
L 443.07027 260.302961 
L 444.745946 259.143743 
L 445.583784 258.806959 
L 446.421622 258.234722 
L 448.097297 257.631327 
L 448.935135 257.675266 
L 449.772973 257.335528 
L 453.962162 256.590116 
L 454.8 256.628474 
L 456.475676 256.502863 
L 458.151351 256.407405 
L 458.989189 256.239826 
L 460.664865 256.441146 
L 471.556757 255.9611 
L 472.394595 255.803293 
L 473.232432 255.9479 
L 475.745946 255.610062 
L 476.583784 255.469363 
L 477.421622 255.189635 
L 478.259459 255.203074 
L 479.935135 254.792818 
L 480.772973 254.569173 
L 482.448649 253.101042 
L 484.124324 252.902974 
L 484.962162 252.635382 
L 487.475676 250.587809 
L 488.313514 250.31169 
L 489.151351 250.184117 
L 490.827027 250.184117 
L 492.502703 248.428001 
L 493.340541 247.164512 
L 495.016216 246.210248 
L 495.854054 246.256154 
L 496.691892 245.554728 
L 497.52973 244.423395 
L 499.205405 242.569968 
L 500.043243 241.460597 
L 500.881081 241.213336 
L 501.718919 241.130041 
L 502.556757 240.841131 
L 503.394595 240.220356 
L 504.232432 239.754041 
L 505.07027 238.868965 
L 505.908108 237.700568 
L 506.745946 237.166706 
L 507.583784 237.090954 
L 508.421622 236.517411 
L 509.259459 236.262596 
L 510.097297 235.347986 
L 510.935135 235.224029 
L 511.772973 233.663073 
L 512.610811 232.817022 
L 514.286486 231.487285 
L 515.124324 230.283145 
L 515.962162 229.647625 
L 516.8 228.406105 
L 517.637838 227.63843 
L 518.475676 227.057348 
L 519.313514 226.875349 
L 520.151351 226.355261 
L 520.989189 225.556109 
L 521.827027 224.399526 
L 523.502703 221.360671 
L 524.340541 220.773034 
L 525.178378 220.650391 
L 526.016216 220.337546 
L 526.854054 219.517741 
L 527.691892 218.307698 
L 528.52973 217.737435 
L 529.367568 216.327691 
L 530.205405 215.369828 
L 531.043243 215.24292 
L 531.881081 214.400154 
L 535.232432 209.452463 
L 536.07027 209.081912 
L 536.908108 209.081912 
L 537.745946 206.118145 
L 538.583784 204.606093 
L 539.421622 203.703977 
L 541.097297 200.920894 
L 541.935135 199.811526 
L 542.772973 199.686585 
L 545.286486 197.345215 
L 546.962162 194.963517 
L 547.8 194.331938 
L 548.637838 194.175848 
L 549.475676 193.493442 
L 550.313514 192.601166 
L 551.989189 190.387041 
L 552.827027 189.740047 
L 553.664865 188.92844 
L 554.502703 188.861213 
L 556.178378 187.959756 
L 559.52973 183.622009 
L 561.205405 183.380659 
L 562.043243 183.305894 
L 562.881081 182.648412 
L 563.718919 181.598409 
L 564.556757 180.917315 
L 565.394595 180.471342 
L 566.232432 180.295905 
L 567.07027 179.555131 
L 568.745946 177.64958 
L 571.259459 174.442183 
L 572.097297 174.31954 
L 572.935135 173.534167 
L 573.772973 172.084756 
L 574.610811 171.406288 
L 576.286486 169.305624 
L 577.124324 167.406306 
L 577.962162 166.709802 
L 579.637838 166.483864 
L 580.475676 165.965091 
L 581.313514 165.066587 
L 582.151351 163.984773 
L 582.989189 161.578162 
L 583.827027 161.170884 
L 584.664865 160.434374 
L 586.340541 158.488816 
L 587.178378 157.491608 
L 587.178378 157.491608 
" clip-path="url(#pc7f8bd97de)" style="fill: none; stroke: #90ee90; stroke-width: 1.5; stroke-linecap: round"/>
   </g>
   <g id="line2d_40">
    <path d="M 82.8 144.074654 
L 640.8 144.074654 
" clip-path="url(#pc7f8bd97de)" style="fill: none; stroke: #000000; stroke-width: 1.5; stroke-linecap: round"/>
   </g>
   <g id="patch_5">
    <path d="M 82.8 298.989375 
L 82.8 21.789375 
" style="fill: none; stroke: #cccccc; stroke-width: 0.8; stroke-linejoin: miter; stroke-linecap: square"/>
   </g>
   <g id="patch_6">
    <path d="M 640.8 298.989375 
L 640.8 21.789375 
" style="fill: none; stroke: #cccccc; stroke-width: 0.8; stroke-linejoin: miter; stroke-linecap: square"/>
   </g>
   <g id="patch_7">
    <path d="M 82.8 298.989375 
L 640.8 298.989375 
" style="fill: none; stroke: #cccccc; stroke-width: 0.8; stroke-linejoin: miter; stroke-linecap: square"/>
   </g>
   <g id="patch_8">
    <path d="M 82.8 21.789375 
L 640.8 21.789375 
" style="fill: none; stroke: #cccccc; stroke-width: 0.8; stroke-linejoin: miter; stroke-linecap: square"/>
   </g>
   <g id="text_29">
    <!-- Doses de vacinas aplicadas -->
    <g style="fill: #262626" transform="translate(287.428125 15.789375)scale(0.12 -0.12)">
     <defs>
      <path id="ArialMT-44" d="M 494 0 
L 494 4581 
L 2072 4581 
Q 2606 4581 2888 4516 
Q 3281 4425 3559 4188 
Q 3922 3881 4101 3404 
Q 4281 2928 4281 2316 
Q 4281 1794 4159 1391 
Q 4038 988 3847 723 
Q 3656 459 3429 307 
Q 3203 156 2883 78 
Q 2563 0 2147 0 
L 494 0 
z
M 1100 541 
L 2078 541 
Q 2531 541 2789 625 
Q 3047 709 3200 863 
Q 3416 1078 3536 1442 
Q 3656 1806 3656 2325 
Q 3656 3044 3420 3430 
Q 3184 3816 2847 3947 
Q 2603 4041 2063 4041 
L 1100 4041 
L 1100 541 
z
" transform="scale(0.015625)"/>
      <path id="ArialMT-6f" d="M 213 1659 
Q 213 2581 725 3025 
Q 1153 3394 1769 3394 
Q 2453 3394 2887 2945 
Q 3322 2497 3322 1706 
Q 3322 1066 3130 698 
Q 2938 331 2570 128 
Q 2203 -75 1769 -75 
Q 1072 -75 642 372 
Q 213 819 213 1659 
z
M 791 1659 
Q 791 1022 1069 705 
Q 1347 388 1769 388 
Q 2188 388 2466 706 
Q 2744 1025 2744 1678 
Q 2744 2294 2464 2611 
Q 2184 2928 1769 2928 
Q 1347 2928 1069 2612 
Q 791 2297 791 1659 
z
" transform="scale(0.015625)"/>
      <path id="ArialMT-73" d="M 197 991 
L 753 1078 
Q 800 744 1014 566 
Q 1228 388 1613 388 
Q 2000 388 2187 545 
Q 2375 703 2375 916 
Q 2375 1106 2209 1216 
Q 2094 1291 1634 1406 
Q 1016 1563 777 1677 
Q 538 1791 414 1992 
Q 291 2194 291 2438 
Q 291 2659 392 2848 
Q 494 3038 669 3163 
Q 800 3259 1026 3326 
Q 1253 3394 1513 3394 
Q 1903 3394 2198 3281 
Q 2494 3169 2634 2976 
Q 2775 2784 2828 2463 
L 2278 2388 
Q 2241 2644 2061 2787 
Q 1881 2931 1553 2931 
Q 1166 2931 1000 2803 
Q 834 2675 834 2503 
Q 834 2394 903 2306 
Q 972 2216 1119 2156 
Q 1203 2125 1616 2013 
Q 2213 1853 2448 1751 
Q 2684 1650 2818 1456 
Q 2953 1263 2953 975 
Q 2953 694 2789 445 
Q 2625 197 2315 61 
Q 2006 -75 1616 -75 
Q 969 -75 630 194 
Q 291 463 197 991 
z
" transform="scale(0.015625)"/>
      <path id="ArialMT-65" d="M 2694 1069 
L 3275 997 
Q 3138 488 2766 206 
Q 2394 -75 1816 -75 
Q 1088 -75 661 373 
Q 234 822 234 1631 
Q 234 2469 665 2931 
Q 1097 3394 1784 3394 
Q 2450 3394 2872 2941 
Q 3294 2488 3294 1666 
Q 3294 1616 3291 1516 
L 816 1516 
Q 847 969 1125 678 
Q 1403 388 1819 388 
Q 2128 388 2347 550 
Q 2566 713 2694 1069 
z
M 847 1978 
L 2700 1978 
Q 2663 2397 2488 2606 
Q 2219 2931 1791 2931 
Q 1403 2931 1139 2672 
Q 875 2413 847 1978 
z
" transform="scale(0.015625)"/>
      <path id="ArialMT-20" transform="scale(0.015625)"/>
      <path id="ArialMT-64" d="M 2575 0 
L 2575 419 
Q 2259 -75 1647 -75 
Q 1250 -75 917 144 
Q 584 363 401 755 
Q 219 1147 219 1656 
Q 219 2153 384 2558 
Q 550 2963 881 3178 
Q 1213 3394 1622 3394 
Q 1922 3394 2156 3267 
Q 2391 3141 2538 2938 
L 2538 4581 
L 3097 4581 
L 3097 0 
L 2575 0 
z
M 797 1656 
Q 797 1019 1065 703 
Q 1334 388 1700 388 
Q 2069 388 2326 689 
Q 2584 991 2584 1609 
Q 2584 2291 2321 2609 
Q 2059 2928 1675 2928 
Q 1300 2928 1048 2622 
Q 797 2316 797 1656 
z
" transform="scale(0.015625)"/>
      <path id="ArialMT-76" d="M 1344 0 
L 81 3319 
L 675 3319 
L 1388 1331 
Q 1503 1009 1600 663 
Q 1675 925 1809 1294 
L 2547 3319 
L 3125 3319 
L 1869 0 
L 1344 0 
z
" transform="scale(0.015625)"/>
      <path id="ArialMT-61" d="M 2588 409 
Q 2275 144 1986 34 
Q 1697 -75 1366 -75 
Q 819 -75 525 192 
Q 231 459 231 875 
Q 231 1119 342 1320 
Q 453 1522 633 1644 
Q 813 1766 1038 1828 
Q 1203 1872 1538 1913 
Q 2219 1994 2541 2106 
Q 2544 2222 2544 2253 
Q 2544 2597 2384 2738 
Q 2169 2928 1744 2928 
Q 1347 2928 1158 2789 
Q 969 2650 878 2297 
L 328 2372 
Q 403 2725 575 2942 
Q 747 3159 1072 3276 
Q 1397 3394 1825 3394 
Q 2250 3394 2515 3294 
Q 2781 3194 2906 3042 
Q 3031 2891 3081 2659 
Q 3109 2516 3109 2141 
L 3109 1391 
Q 3109 606 3145 398 
Q 3181 191 3288 0 
L 2700 0 
Q 2613 175 2588 409 
z
M 2541 1666 
Q 2234 1541 1622 1453 
Q 1275 1403 1131 1340 
Q 988 1278 909 1158 
Q 831 1038 831 891 
Q 831 666 1001 516 
Q 1172 366 1500 366 
Q 1825 366 2078 508 
Q 2331 650 2450 897 
Q 2541 1088 2541 1459 
L 2541 1666 
z
" transform="scale(0.015625)"/>
      <path id="ArialMT-63" d="M 2588 1216 
L 3141 1144 
Q 3050 572 2676 248 
Q 2303 -75 1759 -75 
Q 1078 -75 664 370 
Q 250 816 250 1647 
Q 250 2184 428 2587 
Q 606 2991 970 3192 
Q 1334 3394 1763 3394 
Q 2303 3394 2647 3120 
Q 2991 2847 3088 2344 
L 2541 2259 
Q 2463 2594 2264 2762 
Q 2066 2931 1784 2931 
Q 1359 2931 1093 2626 
Q 828 2322 828 1663 
Q 828 994 1084 691 
Q 1341 388 1753 388 
Q 2084 388 2306 591 
Q 2528 794 2588 1216 
z
" transform="scale(0.015625)"/>
      <path id="ArialMT-69" d="M 425 3934 
L 425 4581 
L 988 4581 
L 988 3934 
L 425 3934 
z
M 425 0 
L 425 3319 
L 988 3319 
L 988 0 
L 425 0 
z
" transform="scale(0.015625)"/>
      <path id="ArialMT-6e" d="M 422 0 
L 422 3319 
L 928 3319 
L 928 2847 
Q 1294 3394 1984 3394 
Q 2284 3394 2536 3286 
Q 2788 3178 2913 3003 
Q 3038 2828 3088 2588 
Q 3119 2431 3119 2041 
L 3119 0 
L 2556 0 
L 2556 2019 
Q 2556 2363 2490 2533 
Q 2425 2703 2258 2804 
Q 2091 2906 1866 2906 
Q 1506 2906 1245 2678 
Q 984 2450 984 1813 
L 984 0 
L 422 0 
z
" transform="scale(0.015625)"/>
      <path id="ArialMT-70" d="M 422 -1272 
L 422 3319 
L 934 3319 
L 934 2888 
Q 1116 3141 1344 3267 
Q 1572 3394 1897 3394 
Q 2322 3394 2647 3175 
Q 2972 2956 3137 2557 
Q 3303 2159 3303 1684 
Q 3303 1175 3120 767 
Q 2938 359 2589 142 
Q 2241 -75 1856 -75 
Q 1575 -75 1351 44 
Q 1128 163 984 344 
L 984 -1272 
L 422 -1272 
z
M 931 1641 
Q 931 1000 1190 694 
Q 1450 388 1819 388 
Q 2194 388 2461 705 
Q 2728 1022 2728 1688 
Q 2728 2322 2467 2637 
Q 2206 2953 1844 2953 
Q 1484 2953 1207 2617 
Q 931 2281 931 1641 
z
" transform="scale(0.015625)"/>
      <path id="ArialMT-6c" d="M 409 0 
L 409 4581 
L 972 4581 
L 972 0 
L 409 0 
z
" transform="scale(0.015625)"/>
     </defs>
     <use xlink:href="#ArialMT-44"/>
     <use xlink:href="#ArialMT-6f" x="72.216797"/>
     <use xlink:href="#ArialMT-73" x="127.832031"/>
     <use xlink:href="#ArialMT-65" x="177.832031"/>
     <use xlink:href="#ArialMT-73" x="233.447266"/>
     <use xlink:href="#ArialMT-20" x="283.447266"/>
     <use xlink:href="#ArialMT-64" x="311.230469"/>
     <use xlink:href="#ArialMT-65" x="366.845703"/>
     <use xlink:href="#ArialMT-20" x="422.460938"/>
     <use xlink:href="#ArialMT-76" x="450.244141"/>
     <use xlink:href="#ArialMT-61" x="500.244141"/>
     <use xlink:href="#ArialMT-63" x="555.859375"/>
     <use xlink:href="#ArialMT-69" x="605.859375"/>
     <use xlink:href="#ArialMT-6e" x="628.076172"/>
     <use xlink:href="#ArialMT-61" x="683.691406"/>
     <use xlink:href="#ArialMT-73" x="739.306641"/>
     <use xlink:href="#ArialMT-20" x="789.306641"/>
     <use xlink:href="#ArialMT-61" x="817.089844"/>
     <use xlink:href="#ArialMT-70" x="872.705078"/>
     <use xlink:href="#ArialMT-6c" x="928.320312"/>
     <use xlink:href="#ArialMT-69" x="950.537109"/>
     <use xlink:href="#ArialMT-63" x="972.753906"/>
     <use xlink:href="#ArialMT-61" x="1022.753906"/>
     <use xlink:href="#ArialMT-64" x="1078.369141"/>
     <use xlink:href="#ArialMT-61" x="1133.984375"/>
     <use xlink:href="#ArialMT-73" x="1189.599609"/>
    </g>
   </g>
   <g id="legend_1">
    <g id="patch_9">
     <path d="M 89.8 72.703438 
L 245.753125 72.703438 
Q 247.753125 72.703438 247.753125 70.703438 
L 247.753125 28.789375 
Q 247.753125 26.789375 245.753125 26.789375 
L 89.8 26.789375 
Q 87.8 26.789375 87.8 28.789375 
L 87.8 70.703438 
Q 87.8 72.703438 89.8 72.703438 
z
" style="fill: #ffffff; opacity: 0.8; stroke: #cccccc; stroke-linejoin: miter"/>
    </g>
    <g id="line2d_41">
     <path d="M 91.8 34.447188 
L 101.8 34.447188 
L 111.8 34.447188 
" style="fill: none; stroke: #1f77b4; stroke-width: 1.5; stroke-linecap: round"/>
    </g>
    <g id="text_30">
     <!-- Doses de vacinas aplicadas -->
     <g style="fill: #262626" transform="translate(119.8 37.947188)scale(0.1 -0.1)">
      <use xlink:href="#ArialMT-44"/>
      <use xlink:href="#ArialMT-6f" x="72.216797"/>
      <use xlink:href="#ArialMT-73" x="127.832031"/>
      <use xlink:href="#ArialMT-65" x="177.832031"/>
      <use xlink:href="#ArialMT-73" x="233.447266"/>
      <use xlink:href="#ArialMT-20" x="283.447266"/>
      <use xlink:href="#ArialMT-64" x="311.230469"/>
      <use xlink:href="#ArialMT-65" x="366.845703"/>
      <use xlink:href="#ArialMT-20" x="422.460938"/>
      <use xlink:href="#ArialMT-76" x="450.244141"/>
      <use xlink:href="#ArialMT-61" x="500.244141"/>
      <use xlink:href="#ArialMT-63" x="555.859375"/>
      <use xlink:href="#ArialMT-69" x="605.859375"/>
      <use xlink:href="#ArialMT-6e" x="628.076172"/>
      <use xlink:href="#ArialMT-61" x="683.691406"/>
      <use xlink:href="#ArialMT-73" x="739.306641"/>
      <use xlink:href="#ArialMT-20" x="789.306641"/>
      <use xlink:href="#ArialMT-61" x="817.089844"/>
      <use xlink:href="#ArialMT-70" x="872.705078"/>
      <use xlink:href="#ArialMT-6c" x="928.320312"/>
      <use xlink:href="#ArialMT-69" x="950.537109"/>
      <use xlink:href="#ArialMT-63" x="972.753906"/>
      <use xlink:href="#ArialMT-61" x="1022.753906"/>
      <use xlink:href="#ArialMT-64" x="1078.369141"/>
      <use xlink:href="#ArialMT-61" x="1133.984375"/>
      <use xlink:href="#ArialMT-73" x="1189.599609"/>
     </g>
    </g>
    <g id="line2d_42">
     <path d="M 91.8 48.714375 
L 101.8 48.714375 
L 111.8 48.714375 
" style="fill: none; stroke: #f08080; stroke-width: 1.5; stroke-linecap: round"/>
    </g>
    <g id="text_31">
     <!-- 1 dose (estimativa) -->
     <g style="fill: #262626" transform="translate(119.8 52.214375)scale(0.1 -0.1)">
      <defs>
       <path id="ArialMT-aa" d="M 1713 2666 
Q 1331 2331 913 2331 
Q 559 2331 353 2523 
Q 147 2716 147 3016 
Q 147 3166 197 3278 
Q 247 3391 345 3478 
Q 444 3566 600 3619 
Q 709 3653 909 3684 
L 1369 3753 
Q 1594 3797 1669 3816 
Q 1666 4034 1625 4109 
Q 1584 4184 1473 4239 
Q 1363 4294 1178 4294 
Q 931 4294 809 4192 
Q 688 4091 659 3903 
L 231 4009 
Q 269 4288 506 4473 
Q 744 4659 1184 4659 
Q 1697 4659 1909 4469 
Q 2119 4275 2119 3903 
L 2119 3153 
L 2116 2963 
Q 2116 2544 2244 2388 
L 1781 2388 
Q 1719 2513 1713 2666 
z
M 1666 3450 
Q 1500 3406 1066 3338 
Q 784 3294 700 3216 
Q 613 3134 613 3016 
Q 613 2888 719 2797 
Q 825 2706 1019 2706 
Q 1247 2706 1415 2828 
Q 1584 2950 1641 3128 
Q 1663 3191 1666 3450 
z
" transform="scale(0.015625)"/>
       <path id="ArialMT-28" d="M 1497 -1347 
Q 1031 -759 709 28 
Q 388 816 388 1659 
Q 388 2403 628 3084 
Q 909 3875 1497 4659 
L 1900 4659 
Q 1522 4009 1400 3731 
Q 1209 3300 1100 2831 
Q 966 2247 966 1656 
Q 966 153 1900 -1347 
L 1497 -1347 
z
" transform="scale(0.015625)"/>
       <path id="ArialMT-74" d="M 1650 503 
L 1731 6 
Q 1494 -44 1306 -44 
Q 1000 -44 831 53 
Q 663 150 594 308 
Q 525 466 525 972 
L 525 2881 
L 113 2881 
L 113 3319 
L 525 3319 
L 525 4141 
L 1084 4478 
L 1084 3319 
L 1650 3319 
L 1650 2881 
L 1084 2881 
L 1084 941 
Q 1084 700 1114 631 
Q 1144 563 1211 522 
Q 1278 481 1403 481 
Q 1497 481 1650 503 
z
" transform="scale(0.015625)"/>
       <path id="ArialMT-6d" d="M 422 0 
L 422 3319 
L 925 3319 
L 925 2853 
Q 1081 3097 1340 3245 
Q 1600 3394 1931 3394 
Q 2300 3394 2536 3241 
Q 2772 3088 2869 2813 
Q 3263 3394 3894 3394 
Q 4388 3394 4653 3120 
Q 4919 2847 4919 2278 
L 4919 0 
L 4359 0 
L 4359 2091 
Q 4359 2428 4304 2576 
Q 4250 2725 4106 2815 
Q 3963 2906 3769 2906 
Q 3419 2906 3187 2673 
Q 2956 2441 2956 1928 
L 2956 0 
L 2394 0 
L 2394 2156 
Q 2394 2531 2256 2718 
Q 2119 2906 1806 2906 
Q 1569 2906 1367 2781 
Q 1166 2656 1075 2415 
Q 984 2175 984 1722 
L 984 0 
L 422 0 
z
" transform="scale(0.015625)"/>
       <path id="ArialMT-29" d="M 791 -1347 
L 388 -1347 
Q 1322 153 1322 1656 
Q 1322 2244 1188 2822 
Q 1081 3291 891 3722 
Q 769 4003 388 4659 
L 791 4659 
Q 1378 3875 1659 3084 
Q 1900 2403 1900 1659 
Q 1900 816 1576 28 
Q 1253 -759 791 -1347 
z
" transform="scale(0.015625)"/>
      </defs>
      <use xlink:href="#ArialMT-31"/>
      <use xlink:href="#ArialMT-aa" x="55.615234"/>
      <use xlink:href="#ArialMT-20" x="92.626953"/>
      <use xlink:href="#ArialMT-64" x="120.410156"/>
      <use xlink:href="#ArialMT-6f" x="176.025391"/>
      <use xlink:href="#ArialMT-73" x="231.640625"/>
      <use xlink:href="#ArialMT-65" x="281.640625"/>
      <use xlink:href="#ArialMT-20" x="337.255859"/>
      <use xlink:href="#ArialMT-28" x="365.039062"/>
      <use xlink:href="#ArialMT-65" x="398.339844"/>
      <use xlink:href="#ArialMT-73" x="453.955078"/>
      <use xlink:href="#ArialMT-74" x="503.955078"/>
      <use xlink:href="#ArialMT-69" x="531.738281"/>
      <use xlink:href="#ArialMT-6d" x="553.955078"/>
      <use xlink:href="#ArialMT-61" x="637.255859"/>
      <use xlink:href="#ArialMT-74" x="692.871094"/>
      <use xlink:href="#ArialMT-69" x="720.654297"/>
      <use xlink:href="#ArialMT-76" x="742.871094"/>
      <use xlink:href="#ArialMT-61" x="792.871094"/>
      <use xlink:href="#ArialMT-29" x="848.486328"/>
     </g>
    </g>
    <g id="line2d_43">
     <path d="M 91.8 63.09875 
L 101.8 63.09875 
L 111.8 63.09875 
" style="fill: none; stroke: #90ee90; stroke-width: 1.5; stroke-linecap: round"/>
    </g>
    <g id="text_32">
     <!-- 2 dose (estimativa) -->
     <g style="fill: #262626" transform="translate(119.8 66.59875)scale(0.1 -0.1)">
      <use xlink:href="#ArialMT-32"/>
      <use xlink:href="#ArialMT-aa" x="55.615234"/>
      <use xlink:href="#ArialMT-20" x="92.626953"/>
      <use xlink:href="#ArialMT-64" x="120.410156"/>
      <use xlink:href="#ArialMT-6f" x="176.025391"/>
      <use xlink:href="#ArialMT-73" x="231.640625"/>
      <use xlink:href="#ArialMT-65" x="281.640625"/>
      <use xlink:href="#ArialMT-20" x="337.255859"/>
      <use xlink:href="#ArialMT-28" x="365.039062"/>
      <use xlink:href="#ArialMT-65" x="398.339844"/>
      <use xlink:href="#ArialMT-73" x="453.955078"/>
      <use xlink:href="#ArialMT-74" x="503.955078"/>
      <use xlink:href="#ArialMT-69" x="531.738281"/>
      <use xlink:href="#ArialMT-6d" x="553.955078"/>
      <use xlink:href="#ArialMT-61" x="637.255859"/>
      <use xlink:href="#ArialMT-74" x="692.871094"/>
      <use xlink:href="#ArialMT-69" x="720.654297"/>
      <use xlink:href="#ArialMT-76" x="742.871094"/>
      <use xlink:href="#ArialMT-61" x="792.871094"/>
      <use xlink:href="#ArialMT-29" x="848.486328"/>
     </g>
    </g>
   </g>
  </g>
  <g id="text_33">
   <!-- Atualizado em 14/01/2022 -->
   <g style="fill: #262626" transform="translate(7.2 331.389375)scale(0.08 -0.08)">
    <defs>
     <path id="ArialMT-41" d="M -9 0 
L 1750 4581 
L 2403 4581 
L 4278 0 
L 3588 0 
L 3053 1388 
L 1138 1388 
L 634 0 
L -9 0 
z
M 1313 1881 
L 2866 1881 
L 2388 3150 
Q 2169 3728 2063 4100 
Q 1975 3659 1816 3225 
L 1313 1881 
z
" transform="scale(0.015625)"/>
     <path id="ArialMT-75" d="M 2597 0 
L 2597 488 
Q 2209 -75 1544 -75 
Q 1250 -75 995 37 
Q 741 150 617 320 
Q 494 491 444 738 
Q 409 903 409 1263 
L 409 3319 
L 972 3319 
L 972 1478 
Q 972 1038 1006 884 
Q 1059 663 1231 536 
Q 1403 409 1656 409 
Q 1909 409 2131 539 
Q 2353 669 2445 892 
Q 2538 1116 2538 1541 
L 2538 3319 
L 3100 3319 
L 3100 0 
L 2597 0 
z
" transform="scale(0.015625)"/>
     <path id="ArialMT-7a" d="M 125 0 
L 125 456 
L 2238 2881 
Q 1878 2863 1603 2863 
L 250 2863 
L 250 3319 
L 2963 3319 
L 2963 2947 
L 1166 841 
L 819 456 
Q 1197 484 1528 484 
L 3063 484 
L 3063 0 
L 125 0 
z
" transform="scale(0.015625)"/>
     <path id="ArialMT-2f" d="M 0 -78 
L 1328 4659 
L 1778 4659 
L 453 -78 
L 0 -78 
z
" transform="scale(0.015625)"/>
    </defs>
    <use xlink:href="#ArialMT-41"/>
    <use xlink:href="#ArialMT-74" x="66.699219"/>
    <use xlink:href="#ArialMT-75" x="94.482422"/>
    <use xlink:href="#ArialMT-61" x="150.097656"/>
    <use xlink:href="#ArialMT-6c" x="205.712891"/>
    <use xlink:href="#ArialMT-69" x="227.929688"/>
    <use xlink:href="#ArialMT-7a" x="250.146484"/>
    <use xlink:href="#ArialMT-61" x="300.146484"/>
    <use xlink:href="#ArialMT-64" x="355.761719"/>
    <use xlink:href="#ArialMT-6f" x="411.376953"/>
    <use xlink:href="#ArialMT-20" x="466.992188"/>
    <use xlink:href="#ArialMT-65" x="494.775391"/>
    <use xlink:href="#ArialMT-6d" x="550.390625"/>
    <use xlink:href="#ArialMT-20" x="633.691406"/>
    <use xlink:href="#ArialMT-31" x="661.474609"/>
    <use xlink:href="#ArialMT-34" x="717.089844"/>
    <use xlink:href="#ArialMT-2f" x="772.705078"/>
    <use xlink:href="#ArialMT-30" x="800.488281"/>
    <use xlink:href="#ArialMT-31" x="856.103516"/>
    <use xlink:href="#ArialMT-2f" x="911.71875"/>
    <use xlink:href="#ArialMT-32" x="939.501953"/>
    <use xlink:href="#ArialMT-30" x="995.117188"/>
    <use xlink:href="#ArialMT-32" x="1050.732422"/>
    <use xlink:href="#ArialMT-32" x="1106.347656"/>
   </g>
  </g>
  <g id="text_34">
   <!-- https://jmsvaz.github.io/covidsantos/ -->
   <g style="fill: #262626" transform="translate(570.345 331.389375)scale(0.08 -0.08)">
    <defs>
     <path id="ArialMT-68" d="M 422 0 
L 422 4581 
L 984 4581 
L 984 2938 
Q 1378 3394 1978 3394 
Q 2347 3394 2619 3248 
Q 2891 3103 3008 2847 
Q 3125 2591 3125 2103 
L 3125 0 
L 2563 0 
L 2563 2103 
Q 2563 2525 2380 2717 
Q 2197 2909 1863 2909 
Q 1613 2909 1392 2779 
Q 1172 2650 1078 2428 
Q 984 2206 984 1816 
L 984 0 
L 422 0 
z
" transform="scale(0.015625)"/>
     <path id="ArialMT-3a" d="M 578 2678 
L 578 3319 
L 1219 3319 
L 1219 2678 
L 578 2678 
z
M 578 0 
L 578 641 
L 1219 641 
L 1219 0 
L 578 0 
z
" transform="scale(0.015625)"/>
     <path id="ArialMT-6a" d="M 419 3928 
L 419 4581 
L 981 4581 
L 981 3928 
L 419 3928 
z
M -294 -1288 
L -188 -809 
Q -19 -853 78 -853 
Q 250 -853 334 -739 
Q 419 -625 419 -169 
L 419 3319 
L 981 3319 
L 981 -181 
Q 981 -794 822 -1034 
Q 619 -1347 147 -1347 
Q -81 -1347 -294 -1288 
z
" transform="scale(0.015625)"/>
     <path id="ArialMT-2e" d="M 581 0 
L 581 641 
L 1222 641 
L 1222 0 
L 581 0 
z
" transform="scale(0.015625)"/>
     <path id="ArialMT-67" d="M 319 -275 
L 866 -356 
Q 900 -609 1056 -725 
Q 1266 -881 1628 -881 
Q 2019 -881 2231 -725 
Q 2444 -569 2519 -288 
Q 2563 -116 2559 434 
Q 2191 0 1641 0 
Q 956 0 581 494 
Q 206 988 206 1678 
Q 206 2153 378 2554 
Q 550 2956 876 3175 
Q 1203 3394 1644 3394 
Q 2231 3394 2613 2919 
L 2613 3319 
L 3131 3319 
L 3131 450 
Q 3131 -325 2973 -648 
Q 2816 -972 2473 -1159 
Q 2131 -1347 1631 -1347 
Q 1038 -1347 672 -1080 
Q 306 -813 319 -275 
z
M 784 1719 
Q 784 1066 1043 766 
Q 1303 466 1694 466 
Q 2081 466 2343 764 
Q 2606 1063 2606 1700 
Q 2606 2309 2336 2618 
Q 2066 2928 1684 2928 
Q 1309 2928 1046 2623 
Q 784 2319 784 1719 
z
" transform="scale(0.015625)"/>
     <path id="ArialMT-62" d="M 941 0 
L 419 0 
L 419 4581 
L 981 4581 
L 981 2947 
Q 1338 3394 1891 3394 
Q 2197 3394 2470 3270 
Q 2744 3147 2920 2923 
Q 3097 2700 3197 2384 
Q 3297 2069 3297 1709 
Q 3297 856 2875 390 
Q 2453 -75 1863 -75 
Q 1275 -75 941 416 
L 941 0 
z
M 934 1684 
Q 934 1088 1097 822 
Q 1363 388 1816 388 
Q 2184 388 2453 708 
Q 2722 1028 2722 1663 
Q 2722 2313 2464 2622 
Q 2206 2931 1841 2931 
Q 1472 2931 1203 2611 
Q 934 2291 934 1684 
z
" transform="scale(0.015625)"/>
    </defs>
    <use xlink:href="#ArialMT-68"/>
    <use xlink:href="#ArialMT-74" x="55.615234"/>
    <use xlink:href="#ArialMT-74" x="83.398438"/>
    <use xlink:href="#ArialMT-70" x="111.181641"/>
    <use xlink:href="#ArialMT-73" x="166.796875"/>
    <use xlink:href="#ArialMT-3a" x="216.796875"/>
    <use xlink:href="#ArialMT-2f" x="244.580078"/>
    <use xlink:href="#ArialMT-2f" x="272.363281"/>
    <use xlink:href="#ArialMT-6a" x="300.146484"/>
    <use xlink:href="#ArialMT-6d" x="322.363281"/>
    <use xlink:href="#ArialMT-73" x="405.664062"/>
    <use xlink:href="#ArialMT-76" x="455.664062"/>
    <use xlink:href="#ArialMT-61" x="505.664062"/>
    <use xlink:href="#ArialMT-7a" x="561.279297"/>
    <use xlink:href="#ArialMT-2e" x="611.279297"/>
    <use xlink:href="#ArialMT-67" x="639.0625"/>
    <use xlink:href="#ArialMT-69" x="694.677734"/>
    <use xlink:href="#ArialMT-74" x="716.894531"/>
    <use xlink:href="#ArialMT-68" x="744.677734"/>
    <use xlink:href="#ArialMT-75" x="800.292969"/>
    <use xlink:href="#ArialMT-62" x="855.908203"/>
    <use xlink:href="#ArialMT-2e" x="911.523438"/>
    <use xlink:href="#ArialMT-69" x="939.306641"/>
    <use xlink:href="#ArialMT-6f" x="961.523438"/>
    <use xlink:href="#ArialMT-2f" x="1017.138672"/>
    <use xlink:href="#ArialMT-63" x="1044.921875"/>
    <use xlink:href="#ArialMT-6f" x="1094.921875"/>
    <use xlink:href="#ArialMT-76" x="1150.537109"/>
    <use xlink:href="#ArialMT-69" x="1200.537109"/>
    <use xlink:href="#ArialMT-64" x="1222.753906"/>
    <use xlink:href="#ArialMT-73" x="1278.369141"/>
    <use xlink:href="#ArialMT-61" x="1328.369141"/>
    <use xlink:href="#ArialMT-6e" x="1383.984375"/>
    <use xlink:href="#ArialMT-74" x="1439.599609"/>
    <use xlink:href="#ArialMT-6f" x="1467.382812"/>
    <use xlink:href="#ArialMT-73" x="1522.998047"/>
    <use xlink:href="#ArialMT-2f" x="1572.998047"/>
   </g>
  </g>
 </g>
 <defs>
  <clipPath id="p0c9fa777af">
   <rect x="640.8" y="21.789375" width="0" height="277.2"/>
  </clipPath>
  <clipPath id="pc7f8bd97de">
   <rect x="82.8" y="21.789375" width="558" height="277.2"/>
  </clipPath>
 </defs>
</svg>
